<svg width="57" height="57" viewBox="0 0 57 57" fill="none" xmlns="http://www.w3.org/2000/svg">
<path d="M43.18 17.4775C42.3109 17.5371 41.5585 16.8865 41.4865 16.0198C41.4791 15.4785 41.0371 15.0415 40.4933 15.0415C39.9494 15.0415 39.5074 15.4785 39.5 16.0198C39.5447 17.6488 40.7068 19.0319 42.3035 19.3547V20.5888C42.3109 21.1326 42.7529 21.5672 43.2967 21.5672C43.8405 21.5672 44.2825 21.1326 44.29 20.5888V19.2876C45.7799 18.8903 46.8302 17.5619 46.8699 16.0198C46.8128 14.1078 45.2509 12.5807 43.3389 12.5658C42.4748 12.5857 41.7349 11.9599 41.6032 11.1082C41.6703 10.2416 42.4227 9.58606 43.2917 9.64066C44.0217 9.61087 44.6872 10.0553 44.938 10.7407C45.1044 11.2572 45.6556 11.5452 46.1746 11.3863C46.696 11.2249 46.989 10.6786 46.8376 10.1572C46.4502 8.98509 45.4893 8.09119 44.2899 7.79319V6.47714C44.2899 5.92837 43.8454 5.48389 43.2967 5.48389C42.7479 5.48389 42.3034 5.92837 42.3034 6.47714V7.79814C40.7589 8.16316 39.6564 9.52389 39.6166 11.1081C39.7334 13.035 41.325 14.5423 43.2569 14.5522C43.6741 14.5125 44.0888 14.6565 44.3967 14.9446C44.7021 15.2326 44.871 15.6373 44.8611 16.057C44.8486 16.4792 44.6599 16.874 44.3396 17.1446C44.0168 17.4153 43.5947 17.5371 43.18 17.4775Z" fill="url(#paint0_linear_1438_22158)" stroke="url(#paint1_linear_1438_22158)" stroke-width="0.5"/>
<path d="M55.8679 13.5344C55.334 -2.23618 33.1919 -3.48974 30.8233 12.0296L27.5754 9.84696V9.84448C26.1675 8.89592 24.3225 8.89839 22.9146 9.84448L1.69621 24.0875C0.792334 24.6909 0.248573 25.7065 0.246094 26.7917C0.265959 27.9935 0.9339 29.0886 1.99174 29.6547C3.04957 30.2233 4.33085 30.1737 5.34145 29.5256L9.21014 26.9754L9.20766 55.117C9.20766 55.3827 9.31443 55.6335 9.50067 55.8197C9.6869 56.006 9.9377 56.1103 10.2009 56.1103H40.3513C40.6145 56.1103 40.8653 56.006 41.0515 55.8197C41.2378 55.6335 41.3445 55.3827 41.3445 55.117V44.1216L42.4843 45.7506L42.4818 45.7481C42.6706 46.0113 42.9735 46.1677 43.2963 46.1677C43.6191 46.1677 43.922 46.0113 44.1107 45.7481L51.3714 35.3712H51.369C51.6073 35.031 51.6098 34.5791 51.3739 34.239C51.138 33.8963 50.7159 33.7374 50.3136 33.8392L47.1451 34.6362V25.4983C49.6779 24.6814 51.8854 23.0847 53.4523 20.9343C55.0191 18.7864 55.8629 16.1966 55.8679 13.5344ZM43.296 2.95161C46.102 2.95409 48.7936 4.06901 50.778 6.05303C52.762 8.03953 53.8794 10.7288 53.8819 13.535C53.8993 22.9583 42.3131 27.6439 35.7898 20.9896C29.2048 14.4516 33.9126 2.92739 43.2965 2.95218L43.296 2.95161ZM39.4472 34.6365L37.8952 34.2466L34.106 28.1058V28.1033C33.88 27.7383 33.443 27.5595 33.0234 27.6613L29.9493 28.4187L26.093 22.7224C25.9241 22.4766 25.6535 22.3202 25.358 22.2928C25.06 22.268 24.767 22.3748 24.556 22.5883L21.7053 25.5383L17.6777 21.3939L25.241 16.4078L34.508 22.5089H34.5055C35.685 23.6635 37.0805 24.5773 38.6126 25.1932C38.8907 25.2974 39.1638 25.4067 39.4469 25.4986L39.4472 34.6365ZM4.25145 27.8677V27.8653C3.66295 28.2526 2.8733 28.0937 2.47848 27.5126C2.08366 26.9291 2.23017 26.1395 2.80625 25.7347L24.0221 11.4967C24.7596 10.9976 25.728 10.9976 26.468 11.4967L30.7663 14.3871C30.8532 15.7131 31.1512 17.0167 31.6502 18.2484L25.7876 14.3871V14.3896C25.4548 14.1711 25.0252 14.1711 24.6949 14.3896L4.25145 27.8677ZM11.1969 41.5698L11.8276 41.3563L12.3218 42.4836C12.4782 42.8288 12.8184 43.0572 13.1983 43.0696C13.5782 43.082 13.9308 42.8784 14.1121 42.5432L15.4455 39.9831L14.9564 46.5364L14.3778 45.4314V45.4338C14.1643 45.0241 13.695 44.8155 13.248 44.9322L11.1969 45.4686L11.1969 41.5698ZM29.6018 54.1245H20.8834V36.2358H29.6018V54.1245ZM39.3582 54.1245H31.5883V35.2429C31.5883 34.6941 31.1438 34.2497 30.595 34.2497H19.8901C19.3414 34.2497 18.8969 34.6941 18.8969 35.2429V54.1245H11.1944V47.5217L12.9847 47.0549L14.8098 50.5338C15.0209 50.9186 15.4579 51.1198 15.8875 51.0304C16.317 50.9435 16.6374 50.5834 16.6796 50.1464L17.7871 35.3173H17.7846C17.8119 34.8504 17.5114 34.4283 17.0645 34.2992C16.615 34.1725 16.1358 34.3736 15.9148 34.7834L13.3075 39.7869C13.1212 39.2803 12.565 39.0121 12.0535 39.1835L11.1943 39.4715V25.6652L15.9867 22.5041L20.9927 27.6541V27.6591C21.1814 27.8503 21.4397 27.9596 21.7079 27.9596C21.976 27.9571 22.2343 27.8503 22.4205 27.6566L25.1346 24.8507L28.6929 30.105H28.6904C28.9238 30.4501 29.3485 30.6115 29.7507 30.5122L32.7951 29.7623L35.4222 34.0208H35.4247C35.01 34.3486 34.9206 34.9396 35.2236 35.3716L39.358 41.2815L39.3582 54.1245ZM45.1886 36.0521C45.2656 36.5289 45.6703 36.884 46.152 36.9013C46.2489 36.9237 48.0665 36.4519 48.2155 36.4146L43.2964 43.4465L38.3748 36.4146C38.5189 36.4469 40.3613 36.9311 40.4408 36.9013C40.9796 36.879 41.4117 36.4469 41.4341 35.9081V25.9559C42.6682 26.1545 43.9247 26.1545 45.1588 25.9559V35.9081C45.1662 35.9577 45.1762 36.0049 45.1886 36.0521Z" fill="url(#paint2_linear_1438_22158)" stroke="url(#paint3_linear_1438_22158)" stroke-width="0.5"/>
<defs>
<linearGradient id="paint0_linear_1438_22158" x1="43.1887" y1="5.48389" x2="43.1887" y2="21.5672" gradientUnits="userSpaceOnUse">
<stop stop-color="#63388B"/>
<stop offset="1" stop-color="#327EB2"/>
</linearGradient>
<linearGradient id="paint1_linear_1438_22158" x1="43.1887" y1="5.48389" x2="43.1887" y2="21.5672" gradientUnits="userSpaceOnUse">
<stop stop-color="#63388B"/>
<stop offset="1" stop-color="#327EB2"/>
</linearGradient>
<linearGradient id="paint2_linear_1438_22158" x1="28.0572" y1="1.02551" x2="28.0572" y2="56.1103" gradientUnits="userSpaceOnUse">
<stop stop-color="#63388B"/>
<stop offset="1" stop-color="#327EB2"/>
</linearGradient>
<linearGradient id="paint3_linear_1438_22158" x1="28.0572" y1="1.02551" x2="28.0572" y2="56.1103" gradientUnits="userSpaceOnUse">
<stop stop-color="#63388B"/>
<stop offset="1" stop-color="#327EB2"/>
</linearGradient>
</defs>
</svg>
