<svg width="42" height="56" viewBox="0 0 42 56" fill="none" xmlns="http://www.w3.org/2000/svg">
<path d="M35.8938 43.8408H30.0515V42.1715H30.8861C32.2142 42.1715 33.4879 41.6439 34.427 40.7048C35.3662 39.7657 35.8938 38.492 35.8938 37.1638V29.2266C36.7875 28.5374 37.5112 27.6522 38.0091 26.6394C38.507 25.6265 38.766 24.5129 38.766 23.3843C38.766 22.2557 38.507 21.1421 38.0091 20.1292C37.5112 19.1164 36.7875 18.2313 35.8938 17.542V12.1253C35.8938 10.7972 35.3662 9.52346 34.427 8.58433C33.4879 7.64521 32.2142 7.11761 30.8861 7.11761H21.7053V1.27529C21.7053 1.05394 21.6173 0.841648 21.4608 0.685127C21.3043 0.528606 21.092 0.440674 20.8707 0.440674C20.6493 0.440674 20.437 0.528606 20.2805 0.685127C20.124 0.841648 20.036 1.05394 20.036 1.27529V7.11761H10.8553C9.52713 7.11761 8.2534 7.64521 7.31427 8.58433C6.37514 9.52346 5.84755 10.7972 5.84755 12.1253V17.5587C4.95383 18.2479 4.23016 19.1331 3.73222 20.1459C3.23428 21.1588 2.97535 22.2724 2.97535 23.401C2.97535 24.5296 3.23428 25.6432 3.73222 26.6561C4.23016 27.6689 4.95383 28.5541 5.84755 29.2433V37.1638C5.84755 38.492 6.37514 39.7657 7.31427 40.7048C8.2534 41.6439 9.52713 42.1715 10.8553 42.1715H11.6899V43.8408H5.84755C4.51942 43.8408 3.24569 44.3684 2.30657 45.3075C1.36744 46.2466 0.839844 47.5204 0.839844 48.8485V53.0216C0.839844 53.6856 1.10364 54.3225 1.5732 54.7921C2.04277 55.2616 2.67963 55.5254 3.3437 55.5254H38.3976C39.0617 55.5254 39.6986 55.2616 40.1681 54.7921C40.6377 54.3225 40.9015 53.6856 40.9015 53.0216V48.8485C40.9015 47.5204 40.3739 46.2466 39.4347 45.3075C38.4956 44.3684 37.2219 43.8408 35.8938 43.8408ZM37.0873 23.3927C37.085 24.6579 36.6655 25.8871 35.8938 26.8897V19.8956C36.6655 20.8982 37.085 22.1274 37.0873 23.3927ZM7.51678 12.1253C7.51678 11.2399 7.86851 10.3907 8.4946 9.76466C9.12068 9.13858 9.96983 8.78685 10.8553 8.78685H30.8861C31.7715 8.78685 32.6206 9.13858 33.2467 9.76466C33.8728 10.3907 34.2245 11.2399 34.2245 12.1253V27.1484H25.8784C25.6834 27.148 25.4944 27.216 25.3442 27.3404L20.8707 31.0628L16.3387 27.2152C16.1863 27.0889 15.9941 27.0209 15.7962 27.0232H7.51678V12.1253ZM4.65404 23.3927C4.65633 22.1274 5.07583 20.8982 5.84755 19.8956V26.8897C5.07583 25.8871 4.65633 24.6579 4.65404 23.3927ZM7.51678 37.1638V28.6925H15.4957L20.3282 32.7904C20.4787 32.9175 20.6694 32.9873 20.8665 32.9873C21.0635 32.9873 21.2542 32.9175 21.4048 32.7904L26.1788 28.8177H34.2245V37.1638C34.2245 38.0493 33.8728 38.8984 33.2467 39.5245C32.6206 40.1506 31.7715 40.5023 30.8861 40.5023H10.8553C9.96983 40.5023 9.12068 40.1506 8.4946 39.5245C7.86851 38.8984 7.51678 38.0493 7.51678 37.1638ZM13.3591 42.1715H28.3822V43.8408H13.3591V42.1715ZM17.599 53.8562C17.7522 53.1015 18.1616 52.423 18.7579 51.9356C19.3542 51.4483 20.1006 51.1821 20.8707 51.1821C21.6407 51.1821 22.3872 51.4483 22.9834 51.9356C23.5797 52.423 23.9891 53.1015 24.1424 53.8562H17.599ZM39.2322 53.0216C39.2322 53.2429 39.1443 53.4552 38.9878 53.6117C38.8313 53.7683 38.619 53.8562 38.3976 53.8562H25.8784C25.7217 52.6499 25.1313 51.542 24.2174 50.7392C23.3036 49.9364 22.1288 49.4936 20.9124 49.4936C19.696 49.4936 18.5212 49.9364 17.6074 50.7392C16.6935 51.542 16.1031 52.6499 15.9464 53.8562H3.3437C3.12234 53.8562 2.91005 53.7683 2.75353 53.6117C2.59701 53.4552 2.50908 53.2429 2.50908 53.0216V48.8485C2.50908 47.9631 2.86081 47.1139 3.48689 46.4878C4.11298 45.8617 4.96213 45.51 5.84755 45.51H35.8938C36.7792 45.51 37.6283 45.8617 38.2544 46.4878C38.8805 47.1139 39.2322 47.9631 39.2322 48.8485V53.0216ZM37.563 49.6831V52.187C37.563 52.4083 37.4751 52.6206 37.3186 52.7771C37.162 52.9336 36.9497 53.0216 36.7284 53.0216C36.507 53.0216 36.2947 52.9336 36.1382 52.7771C35.9817 52.6206 35.8938 52.4083 35.8938 52.187V49.6831C35.8938 49.4617 35.8058 49.2495 35.6493 49.0929C35.4928 48.9364 35.2805 48.8485 35.0592 48.8485H31.7207C31.4993 48.8485 31.287 48.7606 31.1305 48.604C30.974 48.4475 30.8861 48.2352 30.8861 48.0139C30.8861 47.7925 30.974 47.5802 31.1305 47.4237C31.287 47.2672 31.4993 47.1792 31.7207 47.1792H35.0592C35.7232 47.1792 36.3601 47.443 36.8296 47.9126C37.2992 48.3822 37.563 49.019 37.563 49.6831ZM13.6512 23.81H13.7764V24.6446C13.7764 24.7553 13.8204 24.8614 13.8986 24.9397C13.9769 25.0179 14.083 25.0619 14.1937 25.0619C14.3044 25.0619 14.4105 25.0179 14.4888 24.9397C14.5671 24.8614 14.611 24.7553 14.611 24.6446V23.7098C15.2368 23.6423 15.8223 23.3688 16.2756 22.9321C16.7289 22.4955 17.0241 21.9206 17.1149 21.2978C17.2401 19.6285 16.0215 18.7939 14.611 18.1346V15.0548C15.004 15.1534 15.3787 15.314 15.7211 15.5306C15.8005 15.5815 15.8893 15.6163 15.9822 15.633C16.0751 15.6497 16.1704 15.6479 16.2626 15.6278C16.3548 15.6076 16.4422 15.5695 16.5197 15.5156C16.5972 15.4617 16.6633 15.393 16.7143 15.3136C16.7652 15.2341 16.8 15.1454 16.8167 15.0525C16.8334 14.9595 16.8316 14.8642 16.8115 14.772C16.7913 14.6798 16.7532 14.5924 16.6993 14.5149C16.6454 14.4374 16.5767 14.3713 16.4973 14.3204C15.9227 13.9657 15.2801 13.7354 14.611 13.6443V12.6261C14.611 12.5154 14.5671 12.4093 14.4888 12.331C14.4105 12.2527 14.3044 12.2088 14.1937 12.2088C14.083 12.2088 13.9769 12.2527 13.8986 12.331C13.8204 12.4093 13.7764 12.5154 13.7764 12.6261V13.6109C13.085 13.6322 12.4208 13.8849 11.8902 14.3287C11.3715 14.7686 11.0475 15.3955 10.9888 16.0731C10.8469 17.8842 12.1155 18.5769 13.5427 19.2279L13.7764 19.3364V22.3911C13.0863 22.306 12.4378 22.0152 11.9152 21.5565C11.808 21.4639 11.6757 21.4051 11.5351 21.3875C11.3945 21.37 11.2519 21.3944 11.1251 21.4578C10.9984 21.5212 10.8933 21.6206 10.823 21.7436C10.7527 21.8666 10.7203 22.0077 10.7301 22.1491C10.7382 22.2442 10.7654 22.3368 10.8098 22.4214C10.8542 22.5059 10.9151 22.5808 10.9888 22.6415C11.7395 23.2883 12.6669 23.6953 13.6512 23.81ZM13.7764 17.8007C12.7164 17.3083 12.3659 16.8826 12.416 16.2066C12.4255 16.0448 12.4691 15.8868 12.5439 15.743C12.6187 15.5991 12.723 15.4727 12.85 15.372C13.1146 15.1612 13.4386 15.0386 13.7764 15.0214V17.8007ZM14.611 19.7955C15.4456 20.2461 15.671 20.6301 15.6293 21.2477C15.6034 21.4194 15.5399 21.5834 15.4432 21.7277C15.3465 21.872 15.2191 21.9931 15.0701 22.0823C14.9272 22.1744 14.7729 22.2473 14.611 22.2993V19.7955ZM27.0051 23.81H27.1303V24.6446C27.1303 24.7553 27.1743 24.8614 27.2525 24.9397C27.3308 25.0179 27.4369 25.0619 27.5476 25.0619C27.6583 25.0619 27.7644 25.0179 27.8427 24.9397C27.9209 24.8614 27.9649 24.7553 27.9649 24.6446V23.7098C28.5906 23.6423 29.1762 23.3688 29.6295 22.9321C30.0827 22.4955 30.378 21.9206 30.4688 21.2978C30.594 19.6285 29.3754 18.7939 27.9649 18.1346V15.0548C28.3578 15.1534 28.7325 15.314 29.0749 15.5306C29.1544 15.5815 29.2431 15.6163 29.3361 15.633C29.429 15.6497 29.5243 15.6479 29.6165 15.6278C29.7087 15.6076 29.7961 15.5695 29.8736 15.5156C29.9511 15.4617 30.0172 15.393 30.0681 15.3136C30.1191 15.2341 30.1539 15.1454 30.1706 15.0525C30.1873 14.9595 30.1855 14.8642 30.1653 14.772C30.1452 14.6798 30.1071 14.5924 30.0532 14.5149C29.9992 14.4374 29.9306 14.3713 29.8511 14.3204C29.2765 13.9657 28.634 13.7354 27.9649 13.6443V12.6261C27.9649 12.5154 27.9209 12.4093 27.8427 12.331C27.7644 12.2527 27.6583 12.2088 27.5476 12.2088C27.4369 12.2088 27.3308 12.2527 27.2525 12.331C27.1743 12.4093 27.1303 12.5154 27.1303 12.6261V13.6109C26.4389 13.6322 25.7747 13.8849 25.2441 14.3287C24.7253 14.7686 24.4014 15.3955 24.3427 16.0731C24.2008 17.8842 25.4694 18.5769 26.8966 19.2279L27.1303 19.3364V22.3911C26.4402 22.306 25.7917 22.0152 25.2691 21.5565C25.1618 21.4639 25.0296 21.4051 24.889 21.3875C24.7484 21.37 24.6057 21.3944 24.479 21.4578C24.3523 21.5212 24.2471 21.6206 24.1768 21.7436C24.1065 21.8666 24.0742 22.0077 24.0839 22.1491C24.0921 22.2442 24.1192 22.3368 24.1637 22.4214C24.2081 22.5059 24.2689 22.5808 24.3427 22.6415C25.0934 23.2883 26.0208 23.6953 27.0051 23.81ZM27.1303 17.8007C26.0703 17.3083 25.7198 16.8826 25.7699 16.2066C25.7794 16.0448 25.823 15.8868 25.8978 15.743C25.9726 15.5991 26.0769 15.4727 26.2039 15.372C26.4685 15.1612 26.7924 15.0386 27.1303 15.0214V17.8007ZM27.9649 19.7955C28.7995 20.2461 29.0249 20.6301 28.9831 21.2477C28.9573 21.4194 28.8938 21.5834 28.7971 21.7277C28.7004 21.872 28.573 21.9931 28.4239 22.0823C28.2811 22.1744 28.1267 22.2473 27.9649 22.2993V19.7955Z" fill="url(#paint0_linear_1438_22161)" stroke="url(#paint1_linear_1438_22161)" stroke-width="0.5"/>
<defs>
<linearGradient id="paint0_linear_1438_22161" x1="20.8707" y1="0.440674" x2="20.8707" y2="55.5254" gradientUnits="userSpaceOnUse">
<stop stop-color="#63388B"/>
<stop offset="1" stop-color="#327EB2"/>
</linearGradient>
<linearGradient id="paint1_linear_1438_22161" x1="20.8707" y1="0.440674" x2="20.8707" y2="55.5254" gradientUnits="userSpaceOnUse">
<stop stop-color="#63388B"/>
<stop offset="1" stop-color="#327EB2"/>
</linearGradient>
</defs>
</svg>
