<svg width="71" height="56" viewBox="0 0 71 56" fill="none" xmlns="http://www.w3.org/2000/svg">
<path d="M23.0643 29.8261C23.546 30.0492 24.0604 30.1608 24.5693 30.1608C25.0156 30.1608 25.4537 30.0765 25.8729 29.9104C25.9844 31.165 26.7519 32.3134 27.9493 32.8632C28.4365 33.0864 28.9454 33.1898 29.4461 33.1898C29.6611 33.1898 29.8842 33.168 30.0938 33.1272C29.9468 34.6049 30.7361 36.0799 32.1566 36.7358C32.6437 36.959 33.1527 37.0624 33.6616 37.0624C34.1079 37.0624 34.546 36.978 34.9516 36.8174C34.987 36.9698 35.0278 37.125 35.0849 37.2692C35.4197 38.1673 36.081 38.8857 36.9518 39.283C37.439 39.5062 37.9479 39.6096 38.4486 39.6096C39.8066 39.6096 41.1101 38.8367 41.717 37.5196L42.7702 35.2336L45.8073 37.3155C46.1475 37.5523 46.5448 37.6774 46.9503 37.6774C47.0701 37.6774 47.1952 37.6638 47.3204 37.6421C47.8566 37.5441 48.3165 37.2447 48.624 36.7985L55.8061 26.321C55.8143 26.3074 55.8279 26.2938 55.8415 26.2802C55.8415 26.272 55.8497 26.2666 55.8497 26.2666L58.7698 22.0102C59.0773 21.5639 59.1889 21.0278 59.0909 20.4917C58.9929 19.961 58.6881 19.5011 58.2473 19.2017L32.9569 1.8605C32.5187 1.55298 31.9827 1.43596 31.4438 1.53393C30.9076 1.6319 30.4477 1.93126 30.1402 2.37755L29.8762 2.76127C23.968 0.282044 15.8227 1.44412 13.3843 1.87683C13.1965 1.9122 12.9951 1.87683 12.8209 1.79246L10.6601 0.676654C9.36469 0.0153461 7.76175 0.467105 7.00251 1.71353L0.99903 11.734C0.226128 13.0076 0.588097 14.6595 1.8345 15.4895L5.46485 17.8925C5.53561 17.9415 5.59004 17.9905 5.65263 18.0585L8.81495 21.6753C9.14969 22.0645 9.59601 22.3502 10.0967 22.5108L21.0423 25.8744C20.7375 27.4556 21.5322 29.1157 23.0643 29.8261ZM25.6551 27.8612C25.6415 27.8694 25.6334 27.8748 25.6198 27.883C25.1109 28.2803 24.436 28.3647 23.8563 28.098C23.195 27.7905 22.8249 27.1155 22.8739 26.4325L26.0362 27.4013C25.9409 27.5755 25.8103 27.736 25.6551 27.8612ZM28.7413 31.1351C27.9902 30.7949 27.5983 29.9513 27.8078 29.1648C27.8214 29.1376 27.8296 29.1022 27.8432 29.075C27.865 29.0124 27.884 28.9498 27.914 28.8872L28.2759 28.1007C28.7005 28.2341 29.1468 28.2967 29.5849 28.2967C30.1782 28.2967 30.7687 28.1769 31.3185 27.9483C31.479 27.8776 31.6315 27.8013 31.7784 27.7197L32.0859 27.9293L30.9919 30.3051C30.6082 31.1487 29.5985 31.527 28.7413 31.1351ZM32.9568 35.0158C32.1076 34.6267 31.7376 33.6143 32.1267 32.7652L33.8059 29.1076L36.647 31.0589L35.2047 34.1939C34.8237 35.0376 33.814 35.405 32.9568 35.0158ZM39.9996 36.7358C39.6104 37.5849 38.598 37.955 37.7489 37.5658C37.338 37.3781 37.025 37.0433 36.8699 36.6188C36.7093 36.1942 36.7311 35.7262 36.9189 35.3152L38.3477 32.2073L41.1888 34.1586L39.9996 36.7358ZM47.0723 35.7398C47.0451 35.7751 47.0097 35.7887 46.9879 35.7887C46.9526 35.7969 46.9254 35.7887 46.8981 35.767L33.2417 26.4028C33.2499 26.3947 33.2499 26.3892 33.2499 26.3892C33.2852 26.3402 33.3206 26.2858 33.3533 26.2368C33.3805 26.196 33.4023 26.1606 33.4295 26.1171C33.4649 26.0626 33.4921 25.9973 33.5275 25.9429C33.5492 25.9075 33.5683 25.8721 33.5819 25.8395C33.6173 25.7687 33.6526 25.7007 33.6799 25.6299C33.6935 25.6027 33.7071 25.5755 33.7207 25.5456C33.7615 25.4476 33.805 25.3442 33.8323 25.238C33.8812 25.0993 33.9221 24.9605 33.952 24.8189C33.9656 24.7645 33.9738 24.6992 33.9874 24.6448C34.001 24.5604 34.0228 24.4788 34.0364 24.3998C34.0445 24.3373 34.05 24.2747 34.0581 24.2121C34.0663 24.1359 34.0799 24.0597 34.0799 23.9835V23.7957C34.0799 23.7195 34.0881 23.6433 34.0799 23.5725C34.0799 23.5099 34.0663 23.4392 34.0663 23.3766C34.0581 23.3058 34.0581 23.2296 34.0445 23.1616C34.0364 23.099 34.0228 23.0364 34.0092 22.9738C33.9955 22.9031 33.9874 22.835 33.9683 22.7643C33.9547 22.7017 33.933 22.6391 33.9193 22.5765C33.8976 22.5058 33.884 22.4377 33.8649 22.367C33.8431 22.3044 33.8241 22.2472 33.7942 22.1846C33.7669 22.1139 33.7452 22.0513 33.718 21.9832C33.6907 21.9288 33.6635 21.8717 33.6336 21.8091C33.5982 21.7465 33.571 21.6757 33.5356 21.6131C33.5084 21.5587 33.473 21.5097 33.4377 21.4526C33.4023 21.39 33.3615 21.3274 33.3261 21.2648C33.2907 21.2158 33.2553 21.1668 33.2145 21.1178C33.1737 21.0552 33.1301 20.9926 33.0811 20.9355C33.0458 20.8865 33.0049 20.8457 32.9614 20.8021C32.9124 20.7477 32.8634 20.6824 32.809 20.628C32.7682 20.5871 32.7246 20.5518 32.6838 20.5082C32.6294 20.4538 32.5722 20.3966 32.5096 20.3476C32.4688 20.3123 32.4198 20.2769 32.3708 20.2442C32.3083 20.1952 32.2457 20.1408 32.1749 20.0973C32.1259 20.0619 32.0769 20.0347 32.0279 20.0075C31.9572 19.9585 31.8892 19.9177 31.813 19.8741C31.764 19.8469 31.715 19.8251 31.666 19.7979C31.5898 19.7625 31.519 19.7217 31.4428 19.6863C31.4347 19.6863 31.4292 19.6782 31.4211 19.6782H31.4129C31.3585 19.651 31.3013 19.6292 31.2469 19.6074C31.1489 19.5666 31.0455 19.5231 30.9258 19.4877C30.9176 19.4877 30.904 19.4795 30.8986 19.4795L21.5644 16.8942L23.883 14.8177C23.9102 14.7905 23.9538 14.7469 23.981 14.7197C24.0027 14.6925 24.0218 14.6653 24.0436 14.6354L27.8536 9.08363L53.7208 26.027L47.0723 35.7398ZM31.7181 3.46372C31.7453 3.42834 31.7806 3.41473 31.8024 3.41473C31.8378 3.40657 31.865 3.41473 31.8922 3.4365L57.1882 20.7826C57.2099 20.7962 57.229 20.8234 57.2372 20.8533C57.2453 20.8751 57.2453 20.9078 57.2154 20.9431L54.7987 24.4674L28.9231 7.53167L31.7181 3.46372ZM10.2462 20.4343L7.07574 16.8121C6.91517 16.6243 6.72739 16.4637 6.51784 16.3168L2.88198 13.9056C2.48466 13.6416 2.36763 13.1191 2.618 12.7136L8.64322 2.70994C8.88814 2.30718 9.38888 2.16022 9.808 2.37521L11.9688 3.49102C12.5131 3.76861 13.1391 3.86113 13.7323 3.755C15.3407 3.46925 23.2218 2.22828 28.787 4.37548L22.5413 13.4895L19.0089 16.6518C18.7504 16.8804 18.6388 17.2369 18.715 17.5717C18.7912 17.9064 19.0497 18.1786 19.3845 18.2684L30.3789 21.3136C30.4333 21.3273 30.4687 21.3409 30.5041 21.3626C30.5394 21.3762 30.5748 21.3898 30.6075 21.4035C30.6211 21.4116 30.6347 21.4171 30.6483 21.4252C31.4974 21.8008 32.0498 22.5682 32.1614 23.4309C32.2158 23.8201 32.175 24.231 32.0362 24.6365C31.8838 25.1046 31.5899 25.5155 31.2008 25.8285C31.013 25.9754 30.8034 26.1006 30.5884 26.1904C30.0306 26.4272 29.4046 26.4544 28.8113 26.2748L10.6488 20.6932C10.4964 20.6496 10.3578 20.554 10.2462 20.4343Z" fill="url(#paint0_linear_1438_22162)" stroke="url(#paint1_linear_1438_22162)" stroke-width="0.5"/>
<path d="M69.3166 33.5471H62.6899C62.1674 33.5471 61.7428 33.9717 61.7428 34.4942V46.379H59.5684V42.1907C59.5684 41.6682 59.1439 41.2436 58.6213 41.2436L28.852 41.2463C28.3295 41.2463 27.9049 41.6709 27.9049 42.1934V46.3817H25.2161V34.4948C25.2161 33.9723 24.7916 33.5478 24.269 33.5478H17.6424C17.1199 33.5478 16.6953 33.9723 16.6953 34.4948V54.5106C16.6953 55.0331 17.1199 55.4577 17.6424 55.4577H69.3169C69.8395 55.4577 70.264 55.0331 70.264 54.5106V34.4948C70.264 33.9723 69.8395 33.5478 69.3169 33.5478L69.3166 33.5471ZM29.8013 43.1405H57.6771V46.3735H29.8013V43.1405ZM68.3691 53.5636H18.5888V35.4414H23.3187V47.3262C23.3187 47.8487 23.7432 48.2732 24.2658 48.2732H62.6866C63.2091 48.2732 63.6337 47.8487 63.6337 47.3262L63.6364 35.4414H68.3662L68.3691 53.5636Z" fill="url(#paint2_linear_1438_22162)" stroke="url(#paint3_linear_1438_22162)" stroke-width="0.5"/>
<defs>
<linearGradient id="paint0_linear_1438_22162" x1="29.8596" y1="0.373047" x2="29.8596" y2="39.6096" gradientUnits="userSpaceOnUse">
<stop stop-color="#63388B"/>
<stop offset="1" stop-color="#327EB2"/>
</linearGradient>
<linearGradient id="paint1_linear_1438_22162" x1="29.8596" y1="0.373047" x2="29.8596" y2="39.6096" gradientUnits="userSpaceOnUse">
<stop stop-color="#63388B"/>
<stop offset="1" stop-color="#327EB2"/>
</linearGradient>
<linearGradient id="paint2_linear_1438_22162" x1="43.4797" y1="33.5471" x2="43.4797" y2="55.4577" gradientUnits="userSpaceOnUse">
<stop stop-color="#63388B"/>
<stop offset="1" stop-color="#327EB2"/>
</linearGradient>
<linearGradient id="paint3_linear_1438_22162" x1="43.4797" y1="33.5471" x2="43.4797" y2="55.4577" gradientUnits="userSpaceOnUse">
<stop stop-color="#63388B"/>
<stop offset="1" stop-color="#327EB2"/>
</linearGradient>
</defs>
</svg>
