<svg width="53" height="57" viewBox="0 0 53 57" fill="none" xmlns="http://www.w3.org/2000/svg">
<path d="M6.49426 22.899C6.17292 23.1846 5.68497 23.1608 5.39934 22.8514C5.11371 22.542 5.13751 22.054 5.44694 21.7565L14.7299 13.3185C15.0513 13.021 15.563 13.0567 15.8486 13.4137L18.9311 17.0079L28.8805 8.71271C29.1662 8.47468 29.5827 8.47468 29.8683 8.71271L32.0582 10.4503L39.6036 5.36845L38.3777 4.02361C37.985 3.59516 38.1992 2.90489 38.7467 2.76207L44.4593 1.21491C45.0543 1.04829 45.6256 1.64336 45.3638 2.26222L43.2453 7.713C43.0311 8.26046 42.3171 8.37947 41.9243 7.90342L40.6509 6.52287L32.4509 12.0451C32.1772 12.2236 31.8082 12.2236 31.5464 12.0094L29.3923 10.3075L19.3833 18.6622C19.0263 18.9716 18.5502 18.924 18.2646 18.6027L15.1822 15.0204L6.49426 22.899ZM43.3882 3.09531L40.3652 3.9165L42.2456 5.99922L43.3882 3.09531ZM11.2429 38.6087C11.2429 38.1802 11.588 37.8351 12.0164 37.8351C12.4449 37.8351 12.79 38.1802 12.79 38.6087V39.2989C14.361 39.5132 16.0153 40.5248 16.0153 42.1433C16.0153 42.5718 15.6701 42.9169 15.2417 42.9169C14.8132 42.9169 14.4681 42.5718 14.4681 42.1433C14.4681 41.4531 13.4803 41.0008 12.79 40.8699V43.6191C14.4919 43.9166 16.0153 44.3808 16.0153 46.404C16.0153 48.0226 14.361 49.0342 12.79 49.2484V49.9387C12.79 50.3671 12.4449 50.7123 12.0164 50.7123C11.588 50.7123 11.2429 50.3671 11.2429 49.9387V49.2484C9.67189 49.0223 8.01762 48.0226 8.01762 46.404C8.01762 45.9756 8.36275 45.6304 8.7912 45.6304C9.21964 45.6304 9.56478 45.9756 9.56478 46.404C9.56478 47.0943 10.5526 47.5465 11.2429 47.6893V44.9401C9.54098 44.6545 8.01762 44.1785 8.01762 42.1553C8.01762 40.5367 9.67189 39.5251 11.2429 39.3109V38.6087ZM12.79 45.1901V47.6774C13.4803 47.5465 14.4681 47.0824 14.4681 46.3921C14.48 45.6661 13.7183 45.3686 12.79 45.1901ZM11.2429 43.3573V40.8699C10.5526 41.0008 9.56478 41.4531 9.56478 42.1433C9.56478 42.8812 10.3146 43.1669 11.2429 43.3573ZM8.37466 29.8255H15.682C16.1343 28.7663 16.5865 27.3144 16.5865 26.2909C16.5865 24.8746 13.4922 24.6485 12.7662 26.4813C12.5282 27.0764 11.707 27.1478 11.3857 26.5884C10.1598 24.4581 7.47016 25.3983 7.47016 26.2909C7.47016 27.3144 7.92241 28.7663 8.37466 29.8255ZM17.253 30.016C18.943 30.73 19.3833 32.9556 18.0266 34.2409C21.466 37.2995 23.7868 42.6551 23.7868 47.1657C23.7868 48.4986 23.5845 49.653 23.2155 50.6528H25.7505V41.5126C25.7505 41.0841 26.0956 40.739 26.5241 40.739H31.2608C31.6892 40.739 32.0344 41.0841 32.0344 41.5126V50.6647H34.1528V35.8C34.1528 35.3715 34.4979 35.0264 34.9264 35.0264H39.6631C40.0915 35.0264 40.4367 35.3715 40.4367 35.8V50.6528H42.5551V22.7443C42.5551 22.3158 42.9002 21.9707 43.3287 21.9707H48.0654C48.4938 21.9707 48.8389 22.3158 48.8389 22.7443V50.6528H51.4215C51.85 50.6528 52.1951 50.9979 52.1951 51.4263V55.4966C52.1951 55.9369 51.8381 56.2939 51.3501 56.2701H12.552C12.3735 56.2701 12.2069 56.2701 12.0283 56.2701C5.76828 56.2701 0.246094 54.1636 0.246094 47.1657C0.246094 42.6551 2.57874 37.2995 6.0063 34.2409C4.64956 32.9556 5.08991 30.73 6.77989 30.016C6.31574 28.8496 5.91109 27.3858 5.91109 26.279C5.91109 23.982 9.7314 22.661 11.9688 24.8508C13.9206 22.6848 18.1218 23.4703 18.1218 26.279C18.1218 27.3977 17.7171 28.8615 17.253 30.016ZM16.4556 34.9312C16.3961 34.9431 16.3366 34.9431 16.2771 34.9431L7.58917 34.9312C5.9587 36.2046 4.55435 38.0731 3.54274 40.1558C2.43593 42.429 1.79326 44.9282 1.79326 47.1657C1.79326 53.1877 6.60137 54.7349 12.0164 54.7349C17.4315 54.7349 22.2396 53.1996 22.2396 47.1657C22.2515 42.8931 19.8713 37.609 16.4556 34.9312ZM16.2771 31.3727H7.76769C6.887 31.3727 6.41095 32.4557 7.05361 33.0984C7.24403 33.2888 7.49396 33.3959 7.76769 33.3959H16.2771C17.1578 33.3959 17.6338 32.3129 16.9912 31.6702C16.8007 31.4917 16.5508 31.3727 16.2771 31.3727ZM22.4419 52.1999C21.7279 53.2829 20.752 54.116 19.6094 54.723H50.6479V52.188H22.4419V52.1999ZM30.0826 19.1025C33.5577 19.1025 36.3783 21.9231 36.3783 25.3983C36.3783 28.8734 33.5577 31.694 30.0826 31.694C26.6074 31.694 23.7868 28.8734 23.7868 25.3983C23.7987 21.9112 26.6074 19.1025 30.0826 19.1025ZM33.4387 22.0302C31.5821 20.1736 28.583 20.1736 26.7264 22.0302C24.8698 23.8868 24.8698 26.8859 26.7264 28.7425C28.583 30.5991 31.5821 30.5991 33.4387 28.7425C35.2953 26.8978 35.2953 23.8868 33.4387 22.0302ZM25.7981 17.0674C26.2622 16.8294 26.7383 16.627 27.2382 16.4723L27.6071 15.068C27.7023 14.7228 28.0117 14.4967 28.3569 14.4967H31.832C32.2129 14.4967 32.5223 14.7704 32.5937 15.1275L32.9508 16.4723L33.6767 16.7461C33.9148 16.8532 34.1528 16.9603 34.3789 17.0793L35.6285 16.3533C35.938 16.1748 36.3188 16.2343 36.5568 16.4723L39.0204 18.924C39.2822 19.1858 39.3179 19.6024 39.1156 19.8999L38.4134 21.1019C38.6515 21.5661 38.8538 22.0421 39.0085 22.542L40.4009 22.9109C40.7461 23.0061 40.9722 23.3156 40.9722 23.6607V27.1359C40.9722 27.5167 40.6985 27.8261 40.3414 27.8975L38.9966 28.2546C38.8419 28.7544 38.6396 29.2305 38.4015 29.6946L39.1275 30.9443C39.306 31.2537 39.2465 31.6345 39.0085 31.8726L36.5449 34.3242C36.2831 34.5861 35.8666 34.6218 35.569 34.4194L34.367 33.7173C33.9029 33.9553 33.4268 34.1576 32.927 34.3123L32.558 35.7048C32.4628 36.0499 32.1534 36.276 31.8082 36.276H28.3331C27.9522 36.276 27.6428 36.0023 27.5714 35.6453L27.2144 34.3004L26.4765 34.0267C26.2384 33.9315 26.0004 33.8244 25.7624 33.7054L24.5128 34.4313C24.2033 34.6099 23.8225 34.5503 23.5726 34.3123L21.1566 31.8726C20.8948 31.6107 20.8591 31.1942 21.0614 30.8967L21.7636 29.6946C21.6446 29.4685 21.5375 29.2305 21.4422 28.9925C21.347 28.7544 21.2518 28.5045 21.1804 28.2546L19.7761 27.8856C19.4309 27.7904 19.2048 27.481 19.2048 27.1359V23.6607C19.2048 23.2798 19.4785 22.9704 19.8356 22.899L21.1804 22.542C21.3351 22.054 21.5374 21.5661 21.7755 21.1019L21.0495 19.8523C20.871 19.5429 20.9305 19.162 21.1685 18.9121L23.6202 16.4604C23.882 16.1986 24.2985 16.1629 24.5961 16.3652L25.7981 17.0674ZM27.0953 18.1623C26.7859 18.2932 26.4765 18.4479 26.1789 18.6146C25.9409 18.7574 25.6434 18.7574 25.3935 18.6146L24.2747 17.9719L22.6562 19.5905L23.2988 20.6973C23.4417 20.9353 23.4536 21.2328 23.3107 21.4828C22.9775 22.0659 22.6919 22.7205 22.5253 23.3632C22.4538 23.625 22.2515 23.8511 21.9778 23.9225L20.7401 24.2558V26.5408L21.9659 26.8621C22.2277 26.9216 22.4538 27.1359 22.5253 27.4096C22.6086 27.7428 22.7276 28.0642 22.8585 28.3855L23.3107 29.3019C23.4536 29.5399 23.4536 29.8374 23.3107 30.0874L22.6681 31.2061L24.2866 32.8247L25.3935 32.182C25.6315 32.0392 25.929 32.0273 26.1789 32.182C26.4765 32.3486 26.7859 32.5033 27.0953 32.6342C27.4048 32.7652 27.7261 32.8723 28.0593 32.9556C28.3212 33.0151 28.5473 33.2293 28.6187 33.503L28.9519 34.7527H31.237L31.5583 33.5149C31.6297 33.2531 31.832 33.027 32.1058 32.9556C32.7484 32.789 33.4268 32.5152 33.9862 32.182C34.2242 32.0392 34.5217 32.0273 34.7717 32.182L35.8904 32.8247L37.5089 31.2061L36.8663 30.0993C36.7235 29.8612 36.7116 29.5637 36.8544 29.3138C37.1876 28.7425 37.4732 28.0642 37.6399 27.4334C37.7113 27.1716 37.9136 26.9454 38.1873 26.874L39.4369 26.5527V24.2677L38.1992 23.9463C37.9374 23.8868 37.7113 23.6726 37.6399 23.3989C37.4732 22.7681 37.1876 22.0778 36.8663 21.5185C36.7235 21.2923 36.7116 20.9829 36.8544 20.7449L37.497 19.6262L35.8785 18.0076L34.7717 18.6503C34.5336 18.7931 34.2361 18.805 33.9862 18.6622C33.6886 18.4955 33.3792 18.3408 33.0579 18.2099C32.7484 18.079 32.4271 17.9719 32.0939 17.8886C31.832 17.8172 31.6059 17.6148 31.5345 17.3411L31.2013 16.1034H28.9162L28.5949 17.3292C28.5235 17.591 28.3212 17.8172 28.0474 17.8886L27.0953 18.1623ZM30.4991 42.2743H27.3096V50.6528H30.4991V42.2743ZM47.2918 23.5179H44.1022V50.6528H47.2918V23.5179ZM38.9014 36.5736H35.7119V50.6528H38.9014V36.5736Z" fill="url(#paint0_linear_1438_22165)" stroke="url(#paint1_linear_1438_22165)" stroke-width="0.5"/>
<defs>
<linearGradient id="paint0_linear_1438_22165" x1="26.2206" y1="1.18652" x2="26.2206" y2="56.2713" gradientUnits="userSpaceOnUse">
<stop stop-color="#63388B"/>
<stop offset="1" stop-color="#327EB2"/>
</linearGradient>
<linearGradient id="paint1_linear_1438_22165" x1="26.2206" y1="1.18652" x2="26.2206" y2="56.2713" gradientUnits="userSpaceOnUse">
<stop stop-color="#63388B"/>
<stop offset="1" stop-color="#327EB2"/>
</linearGradient>
</defs>
</svg>
