<svg width="62" height="46" viewBox="0 0 62 46" fill="none" xmlns="http://www.w3.org/2000/svg">
<path fill-rule="evenodd" clip-rule="evenodd" d="M21.1555 32.973C21.1546 33.2235 21.0546 33.4635 20.8773 33.6404C20.7 33.8173 20.4599 33.9167 20.2095 33.9169H10.1748C10.0509 33.9169 9.92828 33.8925 9.81384 33.845C9.69939 33.7976 9.5954 33.7281 9.50781 33.6404C9.42022 33.5528 9.35074 33.4487 9.30333 33.3342C9.25593 33.2197 9.23153 33.097 9.23153 32.973C9.23153 32.8491 9.25593 32.7263 9.30333 32.6118C9.35074 32.4973 9.42022 32.3933 9.50781 32.3056C9.5954 32.218 9.69939 32.1484 9.81384 32.101C9.92828 32.0536 10.0509 32.0292 10.1748 32.0292H20.2095C20.46 32.0292 20.7002 32.1285 20.8775 32.3055C21.0548 32.4824 21.1548 32.7225 21.1555 32.973ZM21.1555 28.8109C21.1546 29.0614 21.0546 29.3014 20.8773 29.4783C20.7 29.6552 20.4599 29.7546 20.2095 29.7548H10.1748C10.0488 29.7581 9.92335 29.7362 9.80593 29.6903C9.6885 29.6443 9.58146 29.5753 9.49113 29.4873C9.4008 29.3993 9.329 29.2941 9.27997 29.1779C9.23095 29.0616 9.20569 28.9367 9.20569 28.8106C9.20569 28.6844 9.23095 28.5596 9.27997 28.4433C9.329 28.3271 9.4008 28.2219 9.49113 28.1339C9.58146 28.0459 9.6885 27.9768 9.80593 27.9309C9.92335 27.885 10.0488 27.863 10.1748 27.8664H20.2095C20.46 27.8666 20.7002 27.9661 20.8775 28.1431C21.0548 28.3202 21.1548 28.5603 21.1555 28.8109ZM21.1555 24.6488C21.1548 24.8995 21.0548 25.1396 20.8775 25.3166C20.7002 25.4937 20.46 25.5932 20.2095 25.5934H10.1748C9.92446 25.5934 9.68436 25.4938 9.50734 25.3167C9.33031 25.1396 9.23086 24.8993 9.23086 24.6488C9.23086 24.3983 9.33031 24.1581 9.50734 23.9809C9.68436 23.8038 9.92446 23.7043 10.1748 23.7043H20.2095C20.3339 23.7044 20.457 23.729 20.5719 23.7767C20.6868 23.8244 20.7911 23.8943 20.8789 23.9824C20.9668 24.0705 21.0364 24.1751 21.0839 24.2901C21.1313 24.4051 21.1557 24.5284 21.1555 24.6529V24.6488ZM11.9286 15.0102H16.5531V19.6362H11.9286V15.0102ZM10.9893 21.5219H17.4971C17.6208 21.5219 17.7432 21.4974 17.8574 21.45C17.9717 21.4025 18.0754 21.3329 18.1627 21.2452C18.2499 21.1575 18.319 21.0534 18.366 20.9389C18.413 20.8244 18.4369 20.7018 18.4363 20.578V14.0663C18.4369 13.9426 18.413 13.8199 18.366 13.7055C18.319 13.591 18.2499 13.4869 18.1627 13.3992C18.0754 13.3115 17.9717 13.2419 17.8574 13.1944C17.7432 13.1469 17.6208 13.1225 17.4971 13.1225H10.9893C10.7389 13.1225 10.4987 13.2218 10.3213 13.3988C10.144 13.5757 10.044 13.8158 10.0433 14.0663V20.578C10.044 20.8286 10.144 21.0687 10.3213 21.2456C10.4987 21.4225 10.7389 21.5219 10.9893 21.5219ZM51.0154 32.0292H46.7337V13.92H51.0154V32.0292ZM51.9547 12.0316H45.7877C45.5374 12.0318 45.2973 12.1312 45.12 12.3081C44.9427 12.485 44.8427 12.725 44.8418 12.9755V32.973C44.8427 33.2235 44.9427 33.4635 45.12 33.6404C45.2973 33.8173 45.5374 33.9167 45.7877 33.9169H51.9554C52.2057 33.9167 52.4458 33.8173 52.6231 33.6404C52.8004 33.4635 52.9004 33.2235 52.9013 32.973V12.9721C52.9004 12.7216 52.8004 12.4816 52.6231 12.3047C52.4458 12.1278 52.2057 12.0284 51.9554 12.0283L51.9547 12.0316ZM42.1313 32.0292H37.8489V21.7662H42.1306L42.1313 32.0292ZM43.0706 19.8785H36.9036C36.6532 19.8789 36.4131 19.9784 36.2358 20.1554C36.0586 20.3324 35.9585 20.5725 35.9577 20.823V32.9737C35.9584 33.2243 36.0583 33.4643 36.2357 33.6413C36.413 33.8182 36.6532 33.9176 36.9036 33.9176H43.0719C43.3223 33.9176 43.5626 33.8182 43.7399 33.6413C43.9172 33.4643 44.0172 33.2243 44.0179 32.9737V20.8197C44.017 20.5691 43.917 20.3291 43.7397 20.1521C43.5625 19.9751 43.3224 19.8755 43.0719 19.8752L43.0706 19.8785ZM33.2465 32.0292H28.9662V24.7804H33.2479V32.0305L33.2465 32.0292ZM34.1858 22.8927H28.0202C27.7697 22.8929 27.5295 22.9924 27.3522 23.1694C27.1749 23.3464 27.0749 23.5866 27.0742 23.8372V32.973C27.0749 33.2236 27.1749 33.4637 27.3522 33.6406C27.5296 33.8175 27.7698 33.9169 28.0202 33.9169H34.1878C34.4382 33.9169 34.6784 33.8175 34.8558 33.6406C35.0331 33.4637 35.1331 33.2236 35.1338 32.973V23.8372C35.1331 23.5866 35.0331 23.3464 34.8558 23.1694C34.6785 22.9924 34.4383 22.8929 34.1878 22.8927H34.1858ZM59.4453 4.7533C59.4443 5.18418 59.2725 5.59704 58.9676 5.90134C58.6627 6.20564 58.2497 6.37652 57.8191 6.37652H4.46073C4.03011 6.37652 3.61707 6.20564 3.3122 5.90134C3.00733 5.59704 2.83552 5.18418 2.83446 4.7533V4.23908C2.8357 3.80833 3.00759 3.39563 3.31244 3.09148C3.61729 2.78733 4.03023 2.61653 4.46073 2.61653H57.8191C58.2496 2.61653 58.6625 2.78733 58.9674 3.09148C59.2722 3.39563 59.4441 3.80833 59.4453 4.23908V4.7533ZM59.4453 41.1952V41.7087C59.4443 42.1397 59.2725 42.5526 58.9676 42.857C58.6628 43.1614 58.2497 43.3325 57.8191 43.3326H4.46073C4.03005 43.3325 3.61701 43.1614 3.31216 42.857C3.00731 42.5526 2.83552 42.1397 2.83446 41.7087V41.1952C2.83552 40.7644 3.00736 40.3516 3.31224 40.0474C3.61713 39.7432 4.03017 39.5725 4.46073 39.5726H57.8191C58.2496 39.5725 58.6627 39.7432 58.9675 40.0474C59.2724 40.3516 59.4443 40.7644 59.4453 41.1952ZM6.91355 8.26424V37.6849H55.9996V8.26424H6.91355ZM57.8191 0.728821H4.46073C3.53027 0.729708 2.63813 1.09972 1.97988 1.75773C1.32163 2.41574 0.950994 3.30807 0.949219 4.23908V4.7533C0.950995 5.68461 1.3218 6.57721 1.98031 7.23537C2.63883 7.89353 3.53132 8.26353 4.46207 8.26424H5.0263V37.6849H4.46073C3.53027 37.6858 2.63813 38.0558 1.97988 38.7138C1.32163 39.3718 0.950994 40.2642 0.949219 41.1952V41.7087C0.950817 42.6402 1.32154 43.5329 1.98008 44.1912C2.63862 44.8495 3.5312 45.2196 4.46207 45.2203H57.8191C58.7497 45.2193 59.6419 44.849 60.3002 44.1908C60.9584 43.5325 61.329 42.6399 61.3306 41.7087V41.1952C61.3295 40.2753 60.9679 39.3925 60.3235 38.7365C59.6791 38.0804 58.8033 37.7033 57.8841 37.6863V8.26222C58.8033 8.24518 59.6791 7.86812 60.3235 7.21205C60.9679 6.55597 61.3295 5.67319 61.3306 4.7533V4.23908C61.3288 3.30807 60.9582 2.41574 60.2999 1.75773C59.6417 1.09972 58.7495 0.729708 57.8191 0.728821Z" fill="url(#paint0_linear_1438_22166)" stroke="url(#paint1_linear_1438_22166)" stroke-width="0.5"/>
<defs>
<linearGradient id="paint0_linear_1438_22166" x1="31.1399" y1="0.728821" x2="31.1399" y2="45.2203" gradientUnits="userSpaceOnUse">
<stop stop-color="#63388B"/>
<stop offset="1" stop-color="#327EB2"/>
</linearGradient>
<linearGradient id="paint1_linear_1438_22166" x1="31.1399" y1="0.728821" x2="31.1399" y2="45.2203" gradientUnits="userSpaceOnUse">
<stop stop-color="#63388B"/>
<stop offset="1" stop-color="#327EB2"/>
</linearGradient>
</defs>
</svg>
