<svg width="78" height="65" viewBox="0 0 78 65" fill="none" xmlns="http://www.w3.org/2000/svg">
<path d="M75.7856 61.0052H75.0428V35.7685C75.0428 35.2861 74.8112 34.8327 74.4221 34.5497C74.0331 34.2651 73.5298 34.1848 73.0716 34.3343L60.4355 38.423V35.7685C60.4355 35.2861 60.2056 34.8327 59.8149 34.5497C59.4242 34.2668 58.9225 34.1864 58.4643 34.3343L45.8282 38.4214V37.5243C45.8282 36.6914 45.1545 36.0161 44.3201 36.0161H40.8021V2.08091C40.8021 1.24805 40.1268 0.572754 39.2939 0.572754H27.6113C26.7785 0.572754 26.1032 1.24644 26.1032 2.08091V36.0177H21.9582V2.08091C21.9582 1.24805 21.2829 0.572754 20.45 0.572754H8.7674C7.93453 0.572754 7.25924 1.24644 7.25924 2.08091V36.0177H3.87472C3.04186 36.0177 2.36656 36.6914 2.36656 37.5259V61.0068H1.62374C0.792483 61.0052 0.117188 61.6805 0.117188 62.5134C0.117188 63.3462 0.792483 64.0215 1.62374 64.0215H75.7856C76.6185 64.0215 77.2938 63.3479 77.2938 62.5134C77.2938 61.6805 76.6185 61.0052 75.7856 61.0052ZM29.1195 10.371H37.789V15.4373H29.1195V10.371ZM37.789 3.58907V7.35625H29.1195V3.58907H37.789ZM29.1195 18.452H37.789V36.0177H29.1195V18.452ZM10.2739 10.371H18.9434V15.4373H10.2739V10.371ZM18.9434 3.58907V7.35625H10.2739V3.58907H18.9434ZM10.2739 18.452H18.9434V36.0177H10.2739V18.452ZM5.38127 39.0324H42.8135V61.0052H37.8485V49.2085C37.8485 48.3756 37.1748 47.7003 36.3403 47.7003H11.8657C11.0328 47.7003 10.3576 48.374 10.3576 49.2085V61.0052H5.38127V39.0324ZM13.3723 61.0052V50.715H34.8338V61.0052H13.3723ZM53.25 61.0052V56.365H64.6063V61.0052H53.25ZM67.6226 61.0052V54.8568C67.6226 54.024 66.9473 53.3487 66.1144 53.3487H51.7435C50.9106 53.3487 50.2353 54.0223 50.2353 54.8568V61.0052H45.8282V41.5921L57.4208 37.841V40.4955C57.4208 40.9779 57.6523 41.4297 58.0414 41.7143C58.4305 41.9989 58.9322 42.0793 59.392 41.9297L72.0281 37.8426V61.0084H67.6226V61.0052Z" fill="url(#paint0_linear_1438_22343)"/>
<path d="M65.7372 47.7026H51.7425C50.9097 47.7026 50.2344 48.3763 50.2344 49.2108C50.2344 50.0437 50.9097 50.719 51.7425 50.719H65.7372C66.5701 50.719 67.2454 50.0437 67.2454 49.2108C67.2438 48.3763 66.5701 47.7026 65.7372 47.7026Z" fill="url(#paint1_linear_1438_22343)"/>
<path d="M49.4902 25.7397H69.0738C69.4661 25.7397 69.8439 25.5869 70.1237 25.3136C71.7701 23.7138 72.677 21.5673 72.677 19.2713C72.677 14.6262 68.8969 10.8462 64.2519 10.8462C61.9478 10.8462 59.7547 11.7948 58.179 13.4316C57.5809 13.2338 56.9538 13.1325 56.3171 13.1325C53.058 13.1325 50.4067 15.7823 50.4067 19.0414C50.4067 19.3581 50.4324 19.6717 50.4807 19.9804C48.9805 20.7602 47.9805 22.3246 47.9805 24.1286C47.9805 24.1784 47.9805 24.2283 47.9821 24.2781C48.0078 25.0933 48.6751 25.7397 49.4902 25.7397ZM52.4953 22.4757C52.9905 22.4323 53.4311 22.1461 53.6738 21.7152C53.9166 21.2827 53.9327 20.7586 53.714 20.3132C53.5195 19.916 53.4214 19.49 53.4214 19.043C53.4214 17.4464 54.7206 16.1473 56.3171 16.1473C56.8493 16.1473 57.3671 16.292 57.8189 16.5669C58.4942 16.9785 59.3753 16.7968 59.8319 16.1505C60.8464 14.7179 62.4993 13.8625 64.2519 13.8625C67.236 13.8625 69.6623 16.2904 69.6623 19.2729C69.6623 20.5511 69.2249 21.7586 68.4178 22.7266H51.7686C51.9824 22.5883 52.23 22.4999 52.4953 22.4757Z" fill="url(#paint2_linear_1438_22343)"/>
<defs>
<linearGradient id="paint0_linear_1438_22343" x1="38.7055" y1="0.572754" x2="38.7055" y2="64.0215" gradientUnits="userSpaceOnUse">
<stop offset="0.16" stop-color="#63388B"/>
<stop offset="1" stop-color="#327EB2" stop-opacity="0.921569"/>
</linearGradient>
<linearGradient id="paint1_linear_1438_22343" x1="58.7399" y1="47.7026" x2="58.7399" y2="50.719" gradientUnits="userSpaceOnUse">
<stop offset="0.16" stop-color="#63388B"/>
<stop offset="1" stop-color="#327EB2" stop-opacity="0.921569"/>
</linearGradient>
<linearGradient id="paint2_linear_1438_22343" x1="60.3287" y1="10.8462" x2="60.3287" y2="25.7397" gradientUnits="userSpaceOnUse">
<stop offset="0.16" stop-color="#63388B"/>
<stop offset="1" stop-color="#327EB2" stop-opacity="0.921569"/>
</linearGradient>
</defs>
</svg>
