<svg width="76" height="81" viewBox="0 0 76 81" fill="none" xmlns="http://www.w3.org/2000/svg">
<path d="M74.7229 59.7994L64.2435 50.9509C64.5833 50.3176 64.7983 49.6173 64.8601 48.8785C64.9798 47.4548 64.5395 46.071 63.6217 44.9871C62.9498 44.1877 62.0758 43.6162 61.0949 43.3214C62.5508 41.3751 62.534 38.6089 60.9044 36.6728C60.1964 35.8323 59.2644 35.244 58.2192 34.9647C59.3841 33.057 59.2657 30.5353 57.7455 28.7293C56.9036 27.733 55.7451 27.0906 54.4579 26.9001C55.0474 25.1804 54.7488 23.2006 53.495 21.7138C52.5798 20.6261 51.2887 19.9619 49.8637 19.8409C48.431 19.7161 47.0537 20.1589 45.966 21.0754L45.7677 21.2427L39.7615 18.4404C36.618 16.8082 33.8659 18.0916 32.5349 20.0829C32.0921 20.7446 31.8205 21.459 31.6789 22.1798L30.3698 21.0741C28.1158 19.1767 24.7394 19.4663 22.8407 21.7138C21.5869 23.2006 21.2883 25.1804 21.8792 26.9001C20.5919 27.0906 19.436 27.7317 18.5915 28.7306C17.675 29.8183 17.2361 31.2008 17.3558 32.6245C17.4279 33.4689 17.6892 34.2644 18.1166 34.9647C17.1035 35.2376 16.1587 35.8104 15.4314 36.6716C13.8004 38.6076 13.785 41.3738 15.2421 43.3202C14.2883 43.6098 13.404 44.1659 12.7153 44.9833C11.2646 46.7004 11.0972 49.0741 12.0987 50.9496L1.61415 59.7981C1.06964 60.2564 1.00142 61.0686 1.45968 61.6118C1.71455 61.913 2.07755 62.0688 2.4457 62.0688C2.73919 62.0688 3.03268 61.9697 3.27469 61.7663L13.7953 52.8882L18.0149 56.4461C18.9842 57.2635 20.1877 57.7012 21.4454 57.7012C21.5985 57.7012 21.753 57.6935 21.9075 57.6806C23.3299 57.5596 24.6197 56.8954 25.5323 55.8102C26.4514 54.7251 26.8917 53.3439 26.7719 51.9189C26.7089 51.1646 26.4849 50.4553 26.1361 49.8117C27.1993 49.5543 28.1969 48.9814 28.9538 48.0842C29.9965 46.8472 30.3556 45.2742 30.1149 43.79C30.1162 43.79 30.1175 43.79 30.1188 43.79C31.6197 43.79 33.0987 43.167 34.1118 41.9711C35.0579 41.0199 35.5471 39.7249 35.4866 38.327C35.484 38.2806 35.4685 38.2368 35.466 38.1918C35.6771 38.2175 35.8856 38.2523 36.1006 38.2523C36.2537 38.2523 36.4095 38.2459 36.564 38.2317C37.9889 38.1107 39.2775 37.4452 40.1168 36.4411C41.068 35.495 41.5597 34.2039 41.5018 32.8047C41.449 31.5329 40.9342 30.3371 40.0974 29.3974L47.6239 23.0423C48.1865 22.5699 48.8996 22.3369 49.6436 22.4064C50.3838 22.4682 51.0518 22.8119 51.5243 23.3731C52.5064 24.538 52.3571 26.29 51.1922 27.2734L50.219 28.0973C50.2177 28.0985 50.2177 28.0985 50.2177 28.0985C49.6758 28.5568 49.6076 29.3691 50.0684 29.9123C50.5254 30.4542 51.3376 30.5211 51.8808 30.0629L51.8873 30.0564C52.4459 29.5892 53.1629 29.3678 53.8915 29.4244C54.6329 29.4862 55.3036 29.8286 55.776 30.3898C56.7595 31.5574 56.6101 33.3067 55.4439 34.2902L53.3792 36.037C53.3792 36.037 53.3779 36.0382 53.3766 36.0382C52.8347 36.4978 52.7664 37.31 53.226 37.852C53.6843 38.3952 54.4965 38.4634 55.0397 38.0039C55.601 37.5276 56.3373 37.3075 57.0555 37.3641C57.7944 37.4272 58.4612 37.7696 58.9336 38.3308C59.9158 39.4971 59.7665 41.2477 58.6028 42.2311L56.0978 44.3448L56.0965 44.3461C55.5533 44.8043 55.4838 45.6166 55.9421 46.1598C56.4003 46.703 57.2113 46.7738 57.7558 46.3143L57.7597 46.3117C58.3209 45.8393 59.0289 45.6192 59.7729 45.6758C60.5118 45.7389 61.1786 46.0813 61.6523 46.6451C62.1273 47.2076 62.3538 47.9233 62.292 48.6609C62.229 49.3998 61.8865 50.0691 61.3253 50.5429L49.6256 60.4186C44.8512 64.4489 40.9136 64.0228 34.9987 62.8463C34.6125 62.7652 34.2173 62.872 33.9161 63.1256L16.3003 77.9958C15.757 78.4528 15.6888 79.265 16.1484 79.8095C16.4019 80.1107 16.765 80.2665 17.1318 80.2665C17.4253 80.2665 17.7188 80.1674 17.9621 79.9627L35.1055 65.4903C37.5487 65.9614 39.7846 66.2896 41.9446 66.2098L58.3853 79.9666C58.6285 80.1687 58.9207 80.2665 59.2117 80.2665C59.5798 80.2665 59.9454 80.1094 60.2003 79.8057C60.6559 79.2599 60.5851 78.4489 60.0394 77.9932L45.3442 65.6962C47.2944 65.144 49.2407 64.1142 51.2861 62.388L62.5469 52.8856L73.0623 61.765C73.3044 61.9697 73.5991 62.0688 73.8926 62.0688C74.2595 62.0688 74.6225 61.9143 74.8774 61.6131C75.3343 61.0699 75.2661 60.2576 74.7229 59.7994ZM34.8108 24.8212C33.8363 23.9987 34.014 22.5029 34.6769 21.513C35.0038 21.0239 36.2525 19.5217 38.6261 20.7484L43.6026 23.0706L38.1692 27.6583L34.8223 24.8341L34.8133 24.8264C34.812 24.8251 34.8133 24.8225 34.8108 24.8212ZM23.568 54.1471C23.0956 54.7096 22.4288 55.052 21.6912 55.1138C20.9459 55.1808 20.2353 54.9491 19.6754 54.4767L15.0117 50.5454C13.8468 49.5568 13.6987 47.8075 14.6835 46.6438C15.6592 45.4853 17.388 45.3321 18.5555 46.2975L23.2436 50.2506C23.8049 50.7231 24.1473 51.3911 24.2091 52.1313C24.2708 52.8715 24.043 53.5859 23.568 54.1471ZM26.9882 46.4224C26.0048 47.5874 24.2567 47.7367 23.0904 46.7558L20.2469 44.3577C20.2431 44.3551 20.2418 44.3499 20.2379 44.3461L20.2366 44.3448L17.733 42.2324C16.568 41.2464 16.4187 39.4971 17.3996 38.3321C17.8745 37.7696 18.5439 37.4272 19.2828 37.3641C20.023 37.3036 20.7387 37.5289 21.2999 38.0039L21.3012 38.0051C21.3038 38.0077 21.3089 38.0077 21.3115 38.0103L26.6548 42.5246C27.821 43.5081 27.9691 45.2587 26.9882 46.4224ZM32.2195 40.2282C31.2335 41.3932 29.4854 41.5425 28.3179 40.5577L22.945 36.0202C22.9437 36.0189 22.9411 36.0189 22.9398 36.0176L20.8893 34.2876C20.328 33.8152 19.9856 33.1471 19.9226 32.4069C19.8595 31.6681 20.0873 30.9498 20.5597 30.3898C21.0334 29.8286 21.7015 29.4862 22.4404 29.4244C23.1664 29.3562 23.8885 29.5853 24.4485 30.0526L24.4601 30.0629L31.8861 36.3292C32.4989 36.8466 32.8838 37.6344 32.9185 38.4351C32.9455 39.107 32.7241 39.7172 32.2195 40.2282ZM38.2284 34.6982C37.756 35.2595 37.0892 35.6019 36.3503 35.6649C35.6076 35.7332 34.8957 35.5015 34.3371 35.0303C34.274 34.9776 34.2173 34.9763 34.1646 35.0059C33.9715 34.7806 33.7745 34.5553 33.5467 34.3623L26.1193 28.0947C26.1142 28.0895 26.109 28.087 26.1039 28.0818L25.1423 27.2721C23.9773 26.2874 23.828 24.5368 24.8089 23.3731C25.7936 22.2094 27.5443 22.0588 28.7092 23.0397L30.4689 24.5265C30.4702 24.5265 30.4702 24.5278 30.4715 24.529L33.2674 26.8898L34.1324 27.6197L37.9027 30.803C38.5154 31.3192 38.899 32.107 38.9338 32.9102C38.9608 33.5783 38.7368 34.1833 38.2284 34.6982Z" fill="url(#paint0_linear_1438_22361)" stroke="url(#paint1_linear_1438_22361)" stroke-width="0.5"/>
<path d="M43.3224 9.80239C44.0342 9.80239 44.6096 9.22699 44.6096 8.51515V1.74427C44.6096 1.03243 44.0342 0.457031 43.3224 0.457031C42.6106 0.457031 42.0352 1.03243 42.0352 1.74427V8.51515C42.0352 9.22699 42.6106 9.80239 43.3224 9.80239Z" fill="url(#paint2_linear_1438_22361)" stroke="url(#paint3_linear_1438_22361)" stroke-width="0.5"/>
<path d="M60.3788 13.502C60.7753 13.502 61.1653 13.3192 61.4189 12.9768L65.4235 7.51887C65.8431 6.94605 65.7196 6.14023 65.1467 5.71931C64.5701 5.29709 63.7668 5.42453 63.3472 5.99606L59.3426 11.454C58.923 12.0268 59.0465 12.8326 59.6193 13.2535C59.8485 13.4209 60.1149 13.502 60.3788 13.502Z" fill="url(#paint4_linear_1438_22361)" stroke="url(#paint5_linear_1438_22361)" stroke-width="0.5"/>
<path d="M25.2323 12.9773C25.4833 13.321 25.8746 13.5025 26.2711 13.5025C26.535 13.5025 26.8014 13.4214 27.0319 13.2528C27.6047 12.8332 27.7283 12.0273 27.3073 11.4545L23.3002 5.99663C22.8805 5.42509 22.076 5.30023 21.5019 5.72116C20.9291 6.1408 20.8055 6.94661 21.2264 7.51943L25.2323 12.9773Z" fill="url(#paint6_linear_1438_22361)" stroke="url(#paint7_linear_1438_22361)" stroke-width="0.5"/>
<defs>
<linearGradient id="paint0_linear_1438_22361" x1="38.168" y1="17.6968" x2="38.168" y2="80.2665" gradientUnits="userSpaceOnUse">
<stop offset="0.16" stop-color="#63388B"/>
<stop offset="1" stop-color="#327EB2" stop-opacity="0.921569"/>
</linearGradient>
<linearGradient id="paint1_linear_1438_22361" x1="38.168" y1="17.6968" x2="38.168" y2="80.2665" gradientUnits="userSpaceOnUse">
<stop stop-color="#63388B"/>
<stop offset="1" stop-color="#357BB0"/>
</linearGradient>
<linearGradient id="paint2_linear_1438_22361" x1="43.3224" y1="0.457031" x2="43.3224" y2="9.80239" gradientUnits="userSpaceOnUse">
<stop offset="0.16" stop-color="#63388B"/>
<stop offset="1" stop-color="#327EB2" stop-opacity="0.921569"/>
</linearGradient>
<linearGradient id="paint3_linear_1438_22361" x1="43.3224" y1="0.457031" x2="43.3224" y2="9.80239" gradientUnits="userSpaceOnUse">
<stop stop-color="#63388B"/>
<stop offset="1" stop-color="#357BB0"/>
</linearGradient>
<linearGradient id="paint4_linear_1438_22361" x1="62.383" y1="5.46973" x2="62.383" y2="13.502" gradientUnits="userSpaceOnUse">
<stop offset="0.16" stop-color="#63388B"/>
<stop offset="1" stop-color="#327EB2" stop-opacity="0.921569"/>
</linearGradient>
<linearGradient id="paint5_linear_1438_22361" x1="62.383" y1="5.46973" x2="62.383" y2="13.502" gradientUnits="userSpaceOnUse">
<stop stop-color="#63388B"/>
<stop offset="1" stop-color="#357BB0"/>
</linearGradient>
<linearGradient id="paint6_linear_1438_22361" x1="24.2669" y1="5.47168" x2="24.2669" y2="13.5025" gradientUnits="userSpaceOnUse">
<stop offset="0.16" stop-color="#63388B"/>
<stop offset="1" stop-color="#327EB2" stop-opacity="0.921569"/>
</linearGradient>
<linearGradient id="paint7_linear_1438_22361" x1="24.2669" y1="5.47168" x2="24.2669" y2="13.5025" gradientUnits="userSpaceOnUse">
<stop stop-color="#63388B"/>
<stop offset="1" stop-color="#357BB0"/>
</linearGradient>
</defs>
</svg>
