<svg width="66" height="65" viewBox="0 0 66 65" fill="none" xmlns="http://www.w3.org/2000/svg">
<path d="M44.3881 50.846C44.8747 50.555 45.5064 50.7058 45.8021 51.1821C46.0978 51.6611 45.9446 52.2829 45.4607 52.574C44.4124 53.2064 43.3022 53.7648 42.1463 54.2332C41.2592 54.5983 40.3319 54.9106 39.3749 55.1699L39.1706 63.0077C39.1572 63.5581 38.7002 63.9947 38.1438 63.9947L27.8642 64C27.2944 64 26.832 63.5449 26.832 62.9839L26.6277 55.1698C25.6708 54.9104 24.746 54.5982 23.8563 54.2357C22.9531 53.8679 22.0742 53.4444 21.2247 52.9681L15.4481 58.3664C15.0368 58.7527 14.3836 58.7342 13.9911 58.3294L6.74147 51.1954C6.34364 50.8064 6.33557 50.1766 6.71996 49.7797L12.2064 44.0931C11.7252 43.2569 11.2924 42.3916 10.9188 41.5025C10.5505 40.6266 10.2333 39.7163 9.96988 38.7743L2.00801 38.5705C1.44889 38.5573 1.00538 38.1074 1.00538 37.5597L1 27.4403C1 26.8793 1.46235 26.4242 2.03222 26.4242L9.97001 26.2257C10.2334 25.2837 10.5533 24.3734 10.9216 23.4975L10.9458 23.4472C11.3167 22.5713 11.7387 21.7246 12.2091 20.9095L6.72543 15.2229C6.33297 14.818 6.35179 14.175 6.76306 13.7887L14.01 6.652C14.4051 6.26036 15.0449 6.25242 15.448 6.63083L21.2247 12.0291C22.0688 11.5581 22.9451 11.1347 23.8536 10.7668C24.7434 10.4017 25.6708 10.0894 26.6277 9.8301L26.8347 1.9923C26.8481 1.44189 27.3051 1.00529 27.8615 1.00529L38.1411 1C38.711 1 39.1733 1.45515 39.1733 2.01614L39.3749 9.83023C40.3319 10.0896 41.2566 10.4045 42.1463 10.767L42.1974 10.7908C43.0871 11.156 43.9473 11.5714 44.7752 12.0345L50.5519 6.63357C50.9632 6.24722 51.6164 6.26575 52.0088 6.67061L59.2612 13.81C59.6564 14.199 59.6591 14.8261 59.2774 15.223L53.7936 20.9097C54.2721 21.7406 54.7022 22.6059 55.0786 23.5003C55.4495 24.3735 55.7667 25.2864 56.0301 26.2285L63.992 26.4296C64.5511 26.4428 64.9946 26.8927 64.9946 27.4404L65 37.5598C65 38.1208 64.5377 38.5759 63.9678 38.5759L56.03 38.777C55.7666 39.7164 55.4494 40.6294 55.0811 41.5026C54.7075 42.3917 54.2774 43.257 53.7935 44.0932L59.2799 49.7798C59.6724 50.1847 59.6536 50.8277 59.2423 51.2141L51.9899 58.3535C51.5867 58.7477 50.9362 58.7451 50.5329 58.3482L46.7159 54.9028C46.2965 54.5271 46.2669 53.8867 46.6513 53.4739C47.033 53.0611 47.6836 53.032 48.1029 53.4104L51.2319 56.2312L57.0972 50.4599L51.7775 44.9453C51.4576 44.6225 51.3877 44.1144 51.6377 43.7095C52.2237 42.7649 52.7425 41.7672 53.1807 40.7247C53.6108 39.7032 53.9629 38.6527 54.2263 37.5837C54.3177 37.1312 54.7209 36.7819 55.2102 36.7713L62.9408 36.5728V28.4254L55.2102 28.2296C54.7532 28.219 54.3446 27.9094 54.2344 27.4517C53.9709 26.3693 53.6161 25.3056 53.1807 24.2736C52.7479 23.2416 52.2345 22.2493 51.6484 21.3072C51.4011 20.9235 51.4388 20.4075 51.7721 20.0662L57.0999 14.541L51.2506 8.78287L45.6487 14.0197C45.3207 14.3346 44.8046 14.4034 44.3934 14.1573C43.4445 13.5857 42.4472 13.083 41.415 12.6596L41.3612 12.6384C40.3236 12.215 39.2565 11.8684 38.1678 11.6091C37.7082 11.5191 37.3533 11.1222 37.3426 10.6405L37.1437 3.03036H28.8673L28.6657 10.6405C28.655 11.0904 28.3405 11.4926 27.8754 11.6011C26.776 11.8605 25.6927 12.2098 24.6444 12.6384C23.5987 13.0644 22.5907 13.5699 21.6337 14.1468C21.244 14.3902 20.7198 14.3532 20.3704 14.025L14.7577 8.78028L8.90843 14.5384L14.2282 20.053C14.548 20.3759 14.6179 20.884 14.3679 21.2888C13.7873 22.2229 13.2766 23.2046 12.8465 24.2207L12.825 24.2737C12.3949 25.2951 12.0428 26.3456 11.7794 27.4173C11.688 27.8698 11.2848 28.2191 10.7955 28.2297L3.06487 28.4255V36.5729L10.7955 36.7714C11.2525 36.7819 11.6611 37.0915 11.7713 37.5493C12.0347 38.6316 12.3896 39.6954 12.825 40.7247C13.2605 41.7594 13.7739 42.7544 14.3572 43.6937C14.6045 44.0774 14.5669 44.5934 14.2336 44.9348L8.9058 50.46L14.7551 56.2181L20.357 50.9813C20.6849 50.6664 21.2011 50.5976 21.6123 50.8437C22.5719 51.4205 23.5854 51.9313 24.6444 52.3626C25.682 52.786 26.7492 53.1326 27.8352 53.3919C28.2948 53.4819 28.6497 53.8788 28.6604 54.3605L28.862 61.9706H37.1384L37.3373 54.3605C37.348 53.9106 37.6625 53.5084 38.1275 53.3999C39.227 53.1405 40.3076 52.7912 41.3559 52.3626C42.4096 51.9366 43.423 51.4259 44.3854 50.8437L44.3881 50.846ZM41.7673 34.0852C42.4608 34.0852 43.0925 34.3657 43.5494 34.8155C44.0091 35.2628 44.2913 35.8872 44.2913 36.5726C44.2913 37.2527 44.0064 37.8772 43.5521 38.327C43.0898 38.7822 42.4581 39.06 41.7672 39.06C41.071 39.06 40.4366 38.7795 39.9796 38.3323L39.9124 38.2609C39.7269 38.0651 39.5737 37.8375 39.4608 37.5914H30.3243C30.0447 37.5861 29.7651 37.475 29.5608 37.2527L26.1255 33.5216H18.8676C19.0208 35.6332 19.6525 37.6126 20.6552 39.3591H28.0287C28.2437 39.3591 28.4426 39.4226 28.6093 39.5337L31.3968 41.1558H34.2597C34.3833 40.8991 34.5527 40.6689 34.7543 40.4705C35.2139 40.018 35.8483 39.7375 36.5419 39.7375C37.2381 39.7375 37.8671 40.018 38.3241 40.4652C38.7837 40.9177 39.0686 41.5421 39.0686 42.2249C39.0686 42.9103 38.7837 43.5295 38.3294 43.9793C37.8698 44.4318 37.2381 44.7123 36.5418 44.7123C35.8483 44.7123 35.2166 44.4318 34.7597 43.9846C34.5285 43.757 34.343 43.4897 34.214 43.1907H31.1227C30.9426 43.1881 30.7625 43.1431 30.5985 43.0478L27.7572 41.394H22.0827C22.3676 41.7353 22.6687 42.0608 22.9859 42.3704C25.5503 44.8949 29.0932 46.4561 33.0046 46.4561C36.9184 46.4561 40.4586 44.8948 43.0233 42.3704C45.5878 39.8459 47.1737 36.3583 47.1737 32.5078C47.1737 30.6766 46.8189 28.9302 46.1738 27.3371C45.5044 25.6833 44.5152 24.1802 43.2841 22.9047C42.8916 22.4999 42.9104 21.8568 43.3217 21.4705C43.733 21.0842 44.3862 21.1027 44.7787 21.5075C46.1846 22.9656 47.3135 24.6883 48.0877 26.5909C48.8323 28.4273 49.2409 30.4252 49.2409 32.5051C49.2409 36.9163 47.4238 40.9147 44.4857 43.8046C41.5476 46.6968 37.4886 48.4857 33.0073 48.4857C28.5263 48.4857 24.4647 46.6969 21.529 43.8046C18.591 40.9123 16.7738 36.9165 16.7738 32.5051C16.7738 28.0939 18.5909 24.0956 21.529 21.2057C24.4671 18.3134 28.5261 16.5245 33.0073 16.5245C34.5288 16.5245 36.0099 16.7336 37.4158 17.1252C38.8647 17.5275 40.2356 18.1255 41.4882 18.8823C41.9748 19.1734 42.1253 19.7979 41.8296 20.2742C41.5339 20.7532 40.8995 20.9014 40.4157 20.6103C39.3189 19.9488 38.1228 19.4275 36.8593 19.0755C35.639 18.7368 34.346 18.5542 33.0046 18.5542C29.0907 18.5542 25.5506 20.1155 22.9858 22.6399C22.6848 22.9363 22.3998 23.2459 22.1257 23.5661H27.7572L30.5985 21.9122C30.7625 21.817 30.9452 21.7693 31.1227 21.772L34.2381 21.7693C34.3644 21.4915 34.5419 21.2427 34.7569 21.0311C35.2166 20.5786 35.8509 20.2981 36.5445 20.2981C37.2407 20.2981 37.8697 20.5786 38.3267 21.0258C38.7863 21.4783 39.0713 22.1001 39.0713 22.7855C39.0713 23.4682 38.7863 24.0901 38.332 24.5399C37.8724 24.9924 37.2407 25.2729 36.5444 25.2729C35.8509 25.2729 35.2192 24.9924 34.7623 24.5452C34.5445 24.3309 34.3671 24.0795 34.2408 23.8016H31.4022L28.6146 25.4237C28.4507 25.5348 28.2491 25.5983 28.034 25.5983H20.6901C19.6713 27.3581 19.0261 29.3559 18.873 31.4861H26.1309L29.5044 27.8238C29.6925 27.5777 29.9909 27.4189 30.3296 27.4189H39.4661C39.5925 27.1411 39.7699 26.8897 39.9876 26.6753C40.4446 26.2255 41.0763 25.9477 41.7752 25.9477C42.4687 25.9477 43.1005 26.2281 43.5574 26.678C44.0171 27.1252 44.2993 27.7497 44.2993 28.4351C44.2993 29.1204 44.0143 29.7423 43.5601 30.1922L43.4875 30.2583C43.0359 30.6685 42.4338 30.9225 41.7752 30.9225C41.079 30.9225 40.4446 30.642 39.9876 30.1948L39.9204 30.1208C39.7349 29.9249 39.5817 29.7 39.4688 29.4539H30.7837L28.9074 31.4888H31.961C32.0874 31.211 32.2648 30.9622 32.4825 30.7506C32.9368 30.2981 33.5685 30.0202 34.2674 30.0202C34.9582 30.0202 35.5927 30.3007 36.0496 30.7479C36.5119 31.2031 36.7942 31.8249 36.7942 32.505C36.7942 33.1852 36.5092 33.8096 36.055 34.2594C35.5926 34.7146 34.9609 34.9924 34.27 34.9924C33.5712 34.9924 32.9394 34.7119 32.4824 34.2647L32.4152 34.1933C32.2298 33.9974 32.0765 33.7699 31.9636 33.5238H28.91L30.7863 35.5613H39.4714C39.5977 35.2835 39.7752 35.0321 39.9929 34.8177C40.4499 34.3679 41.0815 34.09 41.7805 34.09L41.7673 34.0852ZM42.0925 36.2498C42.0119 36.1678 41.8963 36.1175 41.7673 36.1175C41.6409 36.1175 41.5227 36.1704 41.4393 36.2498C41.356 36.3318 41.3049 36.4456 41.3049 36.5726C41.3049 36.6838 41.3452 36.787 41.4098 36.8637L41.4393 36.8928C41.5227 36.9748 41.6382 37.0251 41.7673 37.0251C41.8963 37.0251 42.0119 36.9748 42.0925 36.8955C42.1759 36.8134 42.2269 36.697 42.2269 36.57C42.2269 36.4456 42.1732 36.3292 42.0925 36.2471V36.2498ZM42.0925 28.1126C42.0119 28.0305 41.8963 27.9803 41.7673 27.9803C41.6409 27.9803 41.5227 28.0332 41.4393 28.1126C41.356 28.1946 41.3049 28.3084 41.3049 28.4354C41.3049 28.5465 41.3452 28.6497 41.4098 28.7265L41.4393 28.7556C41.5227 28.8376 41.6382 28.8879 41.7673 28.8879C41.8802 28.8879 41.985 28.8482 42.063 28.7847L42.0925 28.7556C42.1759 28.6736 42.2269 28.5598 42.2269 28.4354C42.2269 28.311 42.1732 28.1946 42.0925 28.1126ZM34.5848 32.1824C34.5015 32.1004 34.3859 32.0501 34.2569 32.0501C34.1306 32.0501 34.0123 32.103 33.9289 32.1824C33.8456 32.2618 33.7945 32.3756 33.7945 32.5026C33.7945 32.6137 33.8349 32.7169 33.8994 32.7937L33.9289 32.8228C34.0123 32.9048 34.1279 32.9551 34.2569 32.9551C34.3859 32.9551 34.5015 32.9048 34.5821 32.8254C34.6655 32.7434 34.7166 32.627 34.7166 32.4999C34.7166 32.3729 34.6655 32.2591 34.5821 32.1771L34.5848 32.1824ZM36.867 41.8994C36.7837 41.8173 36.6681 41.7671 36.5391 41.7671C36.41 41.7671 36.2918 41.8173 36.2111 41.8994C36.1305 41.9788 36.0767 42.0952 36.0767 42.2222C36.0767 42.3492 36.1278 42.4657 36.2111 42.545C36.2918 42.6244 36.41 42.6773 36.5391 42.6773C36.6681 42.6773 36.7864 42.6271 36.867 42.545C36.9503 42.463 37.0014 42.3492 37.0014 42.2222C37.0014 42.0952 36.9503 41.9787 36.867 41.8994ZM36.867 22.4654C36.7837 22.3834 36.6681 22.3331 36.5391 22.3331C36.41 22.3331 36.2918 22.3834 36.2111 22.4654C36.1278 22.5474 36.0767 22.6612 36.0767 22.7883C36.0767 22.9153 36.1278 23.0317 36.2111 23.1111C36.2918 23.1905 36.41 23.2434 36.5391 23.2434C36.6681 23.2434 36.7864 23.1931 36.867 23.1111C36.9477 23.0317 37.0014 22.9153 37.0014 22.7883C37.0014 22.6612 36.9503 22.5448 36.867 22.4654Z" fill="url(#paint0_linear_1438_22347)" stroke="url(#paint1_linear_1438_22347)" stroke-width="0.5"/>
<defs>
<linearGradient id="paint0_linear_1438_22347" x1="33" y1="1" x2="33" y2="64" gradientUnits="userSpaceOnUse">
<stop offset="0.16" stop-color="#63388B"/>
<stop offset="1" stop-color="#327EB2" stop-opacity="0.921569"/>
</linearGradient>
<linearGradient id="paint1_linear_1438_22347" x1="33" y1="1" x2="33" y2="64" gradientUnits="userSpaceOnUse">
<stop stop-color="#63388B"/>
<stop offset="1" stop-color="#4387B7"/>
</linearGradient>
</defs>
</svg>
