<svg width="62" height="68" viewBox="0 0 62 68" fill="none" xmlns="http://www.w3.org/2000/svg">
<mask id="path-1-outside-1_1438_22348" maskUnits="userSpaceOnUse" x="0.148438" y="0.45752" width="62" height="68" fill="black">
<rect fill="white" x="0.148438" y="0.45752" width="62" height="68"/>
<path d="M34.3093 1.7708C32.3413 1.35309 30.147 1.35309 28.179 1.7708C27.6904 1.87444 27.3404 2.30589 27.3404 2.80609V5.76389C26.9883 5.88762 26.6393 6.03144 26.2977 6.19218L24.205 4.0994C23.8486 3.74303 23.2934 3.68804 22.8736 3.9651C21.171 5.09133 19.6768 6.58662 18.5495 8.28919C18.2714 8.70795 18.3285 9.26525 18.6838 9.62057L20.7702 11.707C20.601 12.0591 20.4519 12.4145 20.3271 12.7719H17.3778C16.8776 12.7719 16.4472 13.1209 16.3425 13.6105C16.205 14.2598 16.1289 14.9355 16.0823 15.6176H5.23036C2.97896 15.6176 1.14844 17.4481 1.14844 19.6995V62.9404C1.14844 65.1907 2.97896 67.0213 5.23036 67.0213H57.259C59.5104 67.0213 61.3409 65.1907 61.3409 62.9393V19.6985C61.3409 17.4471 59.5104 15.6166 57.259 15.6166H46.407C46.3605 14.9334 46.2843 14.2587 46.1469 13.6094C46.0422 13.1198 45.6118 12.7708 45.1116 12.7708H42.1622C42.0374 12.4145 41.8905 12.0634 41.7223 11.7176L43.8056 9.63432C44.1577 9.28217 44.2169 8.73122 43.9462 8.31245C42.8306 6.58874 41.33 5.08816 39.6063 3.9725C39.1875 3.70284 38.6376 3.75995 38.2844 4.11315L36.2011 6.19641C35.8564 6.02827 35.5043 5.88127 35.1479 5.75649V2.80609C35.1479 2.30589 34.7979 1.87444 34.3093 1.7708ZM59.2259 19.6985V62.9393C59.2259 64.0233 58.3429 64.9063 57.259 64.9063H5.23036C4.14643 64.9063 3.26342 64.0233 3.26342 62.9393V19.6985C3.26342 18.6145 4.14643 17.7315 5.23036 17.7315H16.0823C16.1299 18.4147 16.205 19.0894 16.3425 19.7376C16.4472 20.2272 16.8776 20.5762 17.3778 20.5762H20.3356C20.4625 20.9336 20.6074 21.2837 20.7713 21.6252L18.6838 23.7127C18.3316 24.0649 18.2724 24.6158 18.5431 25.0346C19.6662 26.7731 21.1245 28.2356 22.8778 29.384C23.2955 29.6601 23.8507 29.6029 24.205 29.2476L26.2977 27.1549C26.6393 27.3156 26.9883 27.4594 27.3404 27.5831V30.5399C27.3404 31.039 27.6894 31.4705 28.1779 31.5752C29.1614 31.7835 30.1925 31.8903 31.2436 31.8903C32.2948 31.8903 33.3269 31.7835 34.3093 31.5752C34.7979 31.4705 35.1468 31.039 35.1468 30.5399V27.5905C35.5032 27.4658 35.8553 27.3188 36.2001 27.1506L38.2833 29.2339C38.6365 29.5881 39.1864 29.6442 39.6052 29.3745C41.3448 28.2504 42.8073 26.7921 43.9547 25.0399C44.2286 24.6211 44.1715 24.067 43.8172 23.7127L41.7244 21.6199C41.8852 21.2784 42.029 20.9294 42.1527 20.5772H45.1105C45.6107 20.5772 46.0411 20.2283 46.1458 19.7387C46.2833 19.0894 46.3594 18.4147 46.4059 17.7326H57.259C58.3429 17.7315 59.2259 18.6145 59.2259 19.6985ZM35.8575 8.40868C36.2731 8.65402 36.8018 8.5874 37.1423 8.24583L39.1537 6.23448C40.1096 6.9504 40.9683 7.80803 41.6842 8.76506L39.6729 10.7754C39.3324 11.1159 39.2647 11.6436 39.509 12.0591C39.8939 12.7127 40.1784 13.3958 40.3529 14.0874C40.4724 14.5559 40.8943 14.8848 41.3786 14.8848H44.2243C44.3047 15.4674 44.346 16.0649 44.346 16.6719C44.346 17.2789 44.3047 17.8785 44.2243 18.4601H41.3786C40.9017 18.4601 40.4829 18.7806 40.3581 19.2406C40.1625 19.9576 39.8865 20.6333 39.5111 21.3059C39.2806 21.7193 39.3525 22.2343 39.6866 22.5685L41.6959 24.5777C40.9683 25.5453 40.117 26.3935 39.1558 27.1115L37.1434 25.0991C36.8029 24.7596 36.2752 24.6898 35.8585 24.9362C35.2082 25.319 34.525 25.6035 33.8302 25.7812C33.3628 25.8996 33.034 26.3226 33.034 26.8059V29.6516C31.8686 29.8123 30.6218 29.8123 29.4565 29.6516V26.8059C29.4565 26.329 29.136 25.9102 28.676 25.7854C27.959 25.5898 27.2833 25.3138 26.6107 24.9383C26.1973 24.7068 25.6833 24.7797 25.3481 25.1139L23.3389 27.1231C22.3713 26.3945 21.5231 25.5432 20.8051 24.582L22.8175 22.5696C23.1559 22.2322 23.2247 21.7088 22.9857 21.2942C22.6103 20.6407 22.3311 19.9692 22.1323 19.2416C22.0075 18.7806 21.5887 18.4612 21.1118 18.4612H18.2661C18.1857 17.8785 18.1445 17.28 18.1445 16.673C18.1445 16.066 18.1857 15.4674 18.2661 14.8858H21.1118C21.5961 14.8858 22.017 14.5569 22.1376 14.0885C22.311 13.4032 22.5965 12.7127 22.9857 12.038C23.2247 11.6235 23.1559 11.1 22.8175 10.7627L20.8115 8.7566C21.5348 7.80803 22.3924 6.94934 23.342 6.22602L25.3481 8.23208C25.6823 8.56625 26.1973 8.64027 26.6107 8.40762C27.2833 8.03327 27.959 7.75621 28.676 7.56057C29.1371 7.43579 29.4565 7.01702 29.4565 6.54009V3.69332C30.6218 3.53258 31.8686 3.53258 33.034 3.69332V6.53904C33.034 7.02231 33.3628 7.44425 33.8302 7.56375C34.525 7.7414 35.2071 8.02587 35.8575 8.40868Z"/>
</mask>
<path d="M34.3093 1.7708C32.3413 1.35309 30.147 1.35309 28.179 1.7708C27.6904 1.87444 27.3404 2.30589 27.3404 2.80609V5.76389C26.9883 5.88762 26.6393 6.03144 26.2977 6.19218L24.205 4.0994C23.8486 3.74303 23.2934 3.68804 22.8736 3.9651C21.171 5.09133 19.6768 6.58662 18.5495 8.28919C18.2714 8.70795 18.3285 9.26525 18.6838 9.62057L20.7702 11.707C20.601 12.0591 20.4519 12.4145 20.3271 12.7719H17.3778C16.8776 12.7719 16.4472 13.1209 16.3425 13.6105C16.205 14.2598 16.1289 14.9355 16.0823 15.6176H5.23036C2.97896 15.6176 1.14844 17.4481 1.14844 19.6995V62.9404C1.14844 65.1907 2.97896 67.0213 5.23036 67.0213H57.259C59.5104 67.0213 61.3409 65.1907 61.3409 62.9393V19.6985C61.3409 17.4471 59.5104 15.6166 57.259 15.6166H46.407C46.3605 14.9334 46.2843 14.2587 46.1469 13.6094C46.0422 13.1198 45.6118 12.7708 45.1116 12.7708H42.1622C42.0374 12.4145 41.8905 12.0634 41.7223 11.7176L43.8056 9.63432C44.1577 9.28217 44.2169 8.73122 43.9462 8.31245C42.8306 6.58874 41.33 5.08816 39.6063 3.9725C39.1875 3.70284 38.6376 3.75995 38.2844 4.11315L36.2011 6.19641C35.8564 6.02827 35.5043 5.88127 35.1479 5.75649V2.80609C35.1479 2.30589 34.7979 1.87444 34.3093 1.7708ZM59.2259 19.6985V62.9393C59.2259 64.0233 58.3429 64.9063 57.259 64.9063H5.23036C4.14643 64.9063 3.26342 64.0233 3.26342 62.9393V19.6985C3.26342 18.6145 4.14643 17.7315 5.23036 17.7315H16.0823C16.1299 18.4147 16.205 19.0894 16.3425 19.7376C16.4472 20.2272 16.8776 20.5762 17.3778 20.5762H20.3356C20.4625 20.9336 20.6074 21.2837 20.7713 21.6252L18.6838 23.7127C18.3316 24.0649 18.2724 24.6158 18.5431 25.0346C19.6662 26.7731 21.1245 28.2356 22.8778 29.384C23.2955 29.6601 23.8507 29.6029 24.205 29.2476L26.2977 27.1549C26.6393 27.3156 26.9883 27.4594 27.3404 27.5831V30.5399C27.3404 31.039 27.6894 31.4705 28.1779 31.5752C29.1614 31.7835 30.1925 31.8903 31.2436 31.8903C32.2948 31.8903 33.3269 31.7835 34.3093 31.5752C34.7979 31.4705 35.1468 31.039 35.1468 30.5399V27.5905C35.5032 27.4658 35.8553 27.3188 36.2001 27.1506L38.2833 29.2339C38.6365 29.5881 39.1864 29.6442 39.6052 29.3745C41.3448 28.2504 42.8073 26.7921 43.9547 25.0399C44.2286 24.6211 44.1715 24.067 43.8172 23.7127L41.7244 21.6199C41.8852 21.2784 42.029 20.9294 42.1527 20.5772H45.1105C45.6107 20.5772 46.0411 20.2283 46.1458 19.7387C46.2833 19.0894 46.3594 18.4147 46.4059 17.7326H57.259C58.3429 17.7315 59.2259 18.6145 59.2259 19.6985ZM35.8575 8.40868C36.2731 8.65402 36.8018 8.5874 37.1423 8.24583L39.1537 6.23448C40.1096 6.9504 40.9683 7.80803 41.6842 8.76506L39.6729 10.7754C39.3324 11.1159 39.2647 11.6436 39.509 12.0591C39.8939 12.7127 40.1784 13.3958 40.3529 14.0874C40.4724 14.5559 40.8943 14.8848 41.3786 14.8848H44.2243C44.3047 15.4674 44.346 16.0649 44.346 16.6719C44.346 17.2789 44.3047 17.8785 44.2243 18.4601H41.3786C40.9017 18.4601 40.4829 18.7806 40.3581 19.2406C40.1625 19.9576 39.8865 20.6333 39.5111 21.3059C39.2806 21.7193 39.3525 22.2343 39.6866 22.5685L41.6959 24.5777C40.9683 25.5453 40.117 26.3935 39.1558 27.1115L37.1434 25.0991C36.8029 24.7596 36.2752 24.6898 35.8585 24.9362C35.2082 25.319 34.525 25.6035 33.8302 25.7812C33.3628 25.8996 33.034 26.3226 33.034 26.8059V29.6516C31.8686 29.8123 30.6218 29.8123 29.4565 29.6516V26.8059C29.4565 26.329 29.136 25.9102 28.676 25.7854C27.959 25.5898 27.2833 25.3138 26.6107 24.9383C26.1973 24.7068 25.6833 24.7797 25.3481 25.1139L23.3389 27.1231C22.3713 26.3945 21.5231 25.5432 20.8051 24.582L22.8175 22.5696C23.1559 22.2322 23.2247 21.7088 22.9857 21.2942C22.6103 20.6407 22.3311 19.9692 22.1323 19.2416C22.0075 18.7806 21.5887 18.4612 21.1118 18.4612H18.2661C18.1857 17.8785 18.1445 17.28 18.1445 16.673C18.1445 16.066 18.1857 15.4674 18.2661 14.8858H21.1118C21.5961 14.8858 22.017 14.5569 22.1376 14.0885C22.311 13.4032 22.5965 12.7127 22.9857 12.038C23.2247 11.6235 23.1559 11.1 22.8175 10.7627L20.8115 8.7566C21.5348 7.80803 22.3924 6.94934 23.342 6.22602L25.3481 8.23208C25.6823 8.56625 26.1973 8.64027 26.6107 8.40762C27.2833 8.03327 27.959 7.75621 28.676 7.56057C29.1371 7.43579 29.4565 7.01702 29.4565 6.54009V3.69332C30.6218 3.53258 31.8686 3.53258 33.034 3.69332V6.53904C33.034 7.02231 33.3628 7.44425 33.8302 7.56375C34.525 7.7414 35.2071 8.02587 35.8575 8.40868Z" fill="url(#paint0_linear_1438_22348)"/>
<path d="M34.3093 1.7708C32.3413 1.35309 30.147 1.35309 28.179 1.7708C27.6904 1.87444 27.3404 2.30589 27.3404 2.80609V5.76389C26.9883 5.88762 26.6393 6.03144 26.2977 6.19218L24.205 4.0994C23.8486 3.74303 23.2934 3.68804 22.8736 3.9651C21.171 5.09133 19.6768 6.58662 18.5495 8.28919C18.2714 8.70795 18.3285 9.26525 18.6838 9.62057L20.7702 11.707C20.601 12.0591 20.4519 12.4145 20.3271 12.7719H17.3778C16.8776 12.7719 16.4472 13.1209 16.3425 13.6105C16.205 14.2598 16.1289 14.9355 16.0823 15.6176H5.23036C2.97896 15.6176 1.14844 17.4481 1.14844 19.6995V62.9404C1.14844 65.1907 2.97896 67.0213 5.23036 67.0213H57.259C59.5104 67.0213 61.3409 65.1907 61.3409 62.9393V19.6985C61.3409 17.4471 59.5104 15.6166 57.259 15.6166H46.407C46.3605 14.9334 46.2843 14.2587 46.1469 13.6094C46.0422 13.1198 45.6118 12.7708 45.1116 12.7708H42.1622C42.0374 12.4145 41.8905 12.0634 41.7223 11.7176L43.8056 9.63432C44.1577 9.28217 44.2169 8.73122 43.9462 8.31245C42.8306 6.58874 41.33 5.08816 39.6063 3.9725C39.1875 3.70284 38.6376 3.75995 38.2844 4.11315L36.2011 6.19641C35.8564 6.02827 35.5043 5.88127 35.1479 5.75649V2.80609C35.1479 2.30589 34.7979 1.87444 34.3093 1.7708ZM59.2259 19.6985V62.9393C59.2259 64.0233 58.3429 64.9063 57.259 64.9063H5.23036C4.14643 64.9063 3.26342 64.0233 3.26342 62.9393V19.6985C3.26342 18.6145 4.14643 17.7315 5.23036 17.7315H16.0823C16.1299 18.4147 16.205 19.0894 16.3425 19.7376C16.4472 20.2272 16.8776 20.5762 17.3778 20.5762H20.3356C20.4625 20.9336 20.6074 21.2837 20.7713 21.6252L18.6838 23.7127C18.3316 24.0649 18.2724 24.6158 18.5431 25.0346C19.6662 26.7731 21.1245 28.2356 22.8778 29.384C23.2955 29.6601 23.8507 29.6029 24.205 29.2476L26.2977 27.1549C26.6393 27.3156 26.9883 27.4594 27.3404 27.5831V30.5399C27.3404 31.039 27.6894 31.4705 28.1779 31.5752C29.1614 31.7835 30.1925 31.8903 31.2436 31.8903C32.2948 31.8903 33.3269 31.7835 34.3093 31.5752C34.7979 31.4705 35.1468 31.039 35.1468 30.5399V27.5905C35.5032 27.4658 35.8553 27.3188 36.2001 27.1506L38.2833 29.2339C38.6365 29.5881 39.1864 29.6442 39.6052 29.3745C41.3448 28.2504 42.8073 26.7921 43.9547 25.0399C44.2286 24.6211 44.1715 24.067 43.8172 23.7127L41.7244 21.6199C41.8852 21.2784 42.029 20.9294 42.1527 20.5772H45.1105C45.6107 20.5772 46.0411 20.2283 46.1458 19.7387C46.2833 19.0894 46.3594 18.4147 46.4059 17.7326H57.259C58.3429 17.7315 59.2259 18.6145 59.2259 19.6985ZM35.8575 8.40868C36.2731 8.65402 36.8018 8.5874 37.1423 8.24583L39.1537 6.23448C40.1096 6.9504 40.9683 7.80803 41.6842 8.76506L39.6729 10.7754C39.3324 11.1159 39.2647 11.6436 39.509 12.0591C39.8939 12.7127 40.1784 13.3958 40.3529 14.0874C40.4724 14.5559 40.8943 14.8848 41.3786 14.8848H44.2243C44.3047 15.4674 44.346 16.0649 44.346 16.6719C44.346 17.2789 44.3047 17.8785 44.2243 18.4601H41.3786C40.9017 18.4601 40.4829 18.7806 40.3581 19.2406C40.1625 19.9576 39.8865 20.6333 39.5111 21.3059C39.2806 21.7193 39.3525 22.2343 39.6866 22.5685L41.6959 24.5777C40.9683 25.5453 40.117 26.3935 39.1558 27.1115L37.1434 25.0991C36.8029 24.7596 36.2752 24.6898 35.8585 24.9362C35.2082 25.319 34.525 25.6035 33.8302 25.7812C33.3628 25.8996 33.034 26.3226 33.034 26.8059V29.6516C31.8686 29.8123 30.6218 29.8123 29.4565 29.6516V26.8059C29.4565 26.329 29.136 25.9102 28.676 25.7854C27.959 25.5898 27.2833 25.3138 26.6107 24.9383C26.1973 24.7068 25.6833 24.7797 25.3481 25.1139L23.3389 27.1231C22.3713 26.3945 21.5231 25.5432 20.8051 24.582L22.8175 22.5696C23.1559 22.2322 23.2247 21.7088 22.9857 21.2942C22.6103 20.6407 22.3311 19.9692 22.1323 19.2416C22.0075 18.7806 21.5887 18.4612 21.1118 18.4612H18.2661C18.1857 17.8785 18.1445 17.28 18.1445 16.673C18.1445 16.066 18.1857 15.4674 18.2661 14.8858H21.1118C21.5961 14.8858 22.017 14.5569 22.1376 14.0885C22.311 13.4032 22.5965 12.7127 22.9857 12.038C23.2247 11.6235 23.1559 11.1 22.8175 10.7627L20.8115 8.7566C21.5348 7.80803 22.3924 6.94934 23.342 6.22602L25.3481 8.23208C25.6823 8.56625 26.1973 8.64027 26.6107 8.40762C27.2833 8.03327 27.959 7.75621 28.676 7.56057C29.1371 7.43579 29.4565 7.01702 29.4565 6.54009V3.69332C30.6218 3.53258 31.8686 3.53258 33.034 3.69332V6.53904C33.034 7.02231 33.3628 7.44425 33.8302 7.56375C34.525 7.7414 35.2071 8.02587 35.8575 8.40868Z" stroke="url(#paint1_linear_1438_22348)" mask="url(#path-1-outside-1_1438_22348)"/>
<path d="M26.7227 16.6753C26.7227 19.1685 28.7508 21.1955 31.2428 21.1955C33.7349 21.1955 35.763 19.1674 35.763 16.6753C35.763 14.1832 33.7348 12.1562 31.2428 12.1562C28.7508 12.1562 26.7227 14.1832 26.7227 16.6753ZM33.148 16.6753C33.148 17.7259 32.2934 18.5805 31.2428 18.5805C30.1923 18.5805 29.3376 17.7259 29.3376 16.6753C29.3376 15.6259 30.1922 14.7712 31.2428 14.7712C32.2934 14.7712 33.148 15.6259 33.148 16.6753Z" fill="url(#paint2_linear_1438_22348)" stroke="url(#paint3_linear_1438_22348)" stroke-width="0.5"/>
<path d="M52.7748 36.2217H31.0035C30.4506 34.5036 28.8506 33.248 26.9466 33.248C25.0426 33.248 23.4436 34.5037 22.8899 36.2217H9.71374C8.99088 36.2217 8.40625 36.8063 8.40625 37.5292C8.40625 38.2521 8.99088 38.8367 9.71374 38.8367H22.8945C23.4501 40.5504 25.0468 41.803 26.9477 41.803C28.8486 41.803 30.4453 40.5504 31.0009 38.8367H52.7748C53.4977 38.8367 54.0823 38.2521 54.0823 37.5292C54.0823 36.8063 53.4977 36.2217 52.7748 36.2217ZM26.9477 39.188C26.0402 39.188 25.2997 38.4554 25.2859 37.5505C25.2865 37.5436 25.2868 37.5365 25.2868 37.5292C25.2868 37.518 25.2861 37.5076 25.2849 37.498C25.2992 36.5941 26.0392 35.862 26.9466 35.862C27.8629 35.862 28.6096 36.6087 28.6096 37.525C28.6096 38.4414 27.8638 39.188 26.9477 39.188ZM25.2682 37.433C25.2686 37.4339 25.2692 37.4355 25.2698 37.4371L25.2687 37.4341L25.2682 37.433Z" fill="url(#paint4_linear_1438_22348)" stroke="url(#paint5_linear_1438_22348)" stroke-width="0.5"/>
<path d="M52.7748 46.4346H47.2011C46.6482 44.7165 45.0482 43.4609 43.1443 43.4609C41.2402 43.4609 39.6412 44.7166 39.0875 46.4346H9.71374C8.99088 46.4346 8.40625 47.0192 8.40625 47.7421C8.40625 48.465 8.99088 49.0496 9.71374 49.0496H39.0921C39.6477 50.7633 41.2444 52.0159 43.1453 52.0159C45.0462 52.0159 46.6429 50.7633 47.1985 49.0496H52.7748C53.4977 49.0496 54.0823 48.465 54.0823 47.7421C54.0823 47.0192 53.4977 46.4346 52.7748 46.4346ZM43.1453 49.3998C42.2291 49.3998 41.4823 48.6531 41.4823 47.7368C41.4823 46.8206 42.2291 46.0738 43.1453 46.0738C44.0525 46.0738 44.7922 46.8053 44.807 47.7095C44.8059 47.7188 44.8051 47.7294 44.8051 47.741C44.8051 47.7518 44.8058 47.7618 44.8069 47.7711C44.7871 48.6727 44.0495 49.3998 43.1453 49.3998Z" fill="url(#paint6_linear_1438_22348)" stroke="url(#paint7_linear_1438_22348)" stroke-width="0.5"/>
<path d="M52.7748 56.64H25.0599C24.5043 54.9263 22.9075 53.6748 21.0067 53.6748C19.1059 53.6748 17.5091 54.9263 16.9535 56.64H9.71374C8.99088 56.64 8.40625 57.2246 8.40625 57.9475C8.40625 58.6704 8.99088 59.255 9.71374 59.255H16.9509C17.5037 60.9741 19.1038 62.2297 21.0078 62.2297C22.9118 62.2297 24.5117 60.9731 25.0646 59.255H52.7748C53.4977 59.255 54.0823 58.6704 54.0823 57.9475C54.0823 57.2246 53.4977 56.64 52.7748 56.64ZM21.0067 59.6147C20.0905 59.6147 19.3437 58.868 19.3437 57.9517C19.3437 57.0355 20.0905 56.2887 21.0067 56.2887C21.923 56.2887 22.6697 57.0355 22.6697 57.9517C22.6697 58.868 21.923 59.6147 21.0067 59.6147Z" fill="url(#paint8_linear_1438_22348)" stroke="url(#paint9_linear_1438_22348)" stroke-width="0.5"/>
<defs>
<linearGradient id="paint0_linear_1438_22348" x1="31.2447" y1="1.45752" x2="31.2447" y2="67.0213" gradientUnits="userSpaceOnUse">
<stop offset="0.16" stop-color="#63388B"/>
<stop offset="1" stop-color="#4484B6"/>
</linearGradient>
<linearGradient id="paint1_linear_1438_22348" x1="31.2447" y1="1.45752" x2="31.2447" y2="67.0213" gradientUnits="userSpaceOnUse">
<stop stop-color="#63388B"/>
<stop offset="1" stop-color="#357BB0"/>
</linearGradient>
<linearGradient id="paint2_linear_1438_22348" x1="31.2428" y1="12.4062" x2="31.2428" y2="20.9455" gradientUnits="userSpaceOnUse">
<stop offset="0.16" stop-color="#63388B"/>
<stop offset="1" stop-color="#4484B6"/>
</linearGradient>
<linearGradient id="paint3_linear_1438_22348" x1="31.2428" y1="12.4062" x2="31.2428" y2="20.9455" gradientUnits="userSpaceOnUse">
<stop stop-color="#63388B"/>
<stop offset="1" stop-color="#357BB0"/>
</linearGradient>
<linearGradient id="paint4_linear_1438_22348" x1="31.2443" y1="33.498" x2="31.2443" y2="41.553" gradientUnits="userSpaceOnUse">
<stop offset="0.16" stop-color="#63388B"/>
<stop offset="1" stop-color="#4484B6"/>
</linearGradient>
<linearGradient id="paint5_linear_1438_22348" x1="31.2443" y1="33.498" x2="31.2443" y2="41.553" gradientUnits="userSpaceOnUse">
<stop stop-color="#63388B"/>
<stop offset="1" stop-color="#357BB0"/>
</linearGradient>
<linearGradient id="paint6_linear_1438_22348" x1="31.2443" y1="43.7109" x2="31.2443" y2="51.7659" gradientUnits="userSpaceOnUse">
<stop offset="0.16" stop-color="#63388B"/>
<stop offset="1" stop-color="#4484B6"/>
</linearGradient>
<linearGradient id="paint7_linear_1438_22348" x1="31.2443" y1="43.7109" x2="31.2443" y2="51.7659" gradientUnits="userSpaceOnUse">
<stop stop-color="#63388B"/>
<stop offset="1" stop-color="#357BB0"/>
</linearGradient>
<linearGradient id="paint8_linear_1438_22348" x1="31.2443" y1="53.9248" x2="31.2443" y2="61.9797" gradientUnits="userSpaceOnUse">
<stop offset="0.16" stop-color="#63388B"/>
<stop offset="1" stop-color="#4484B6"/>
</linearGradient>
<linearGradient id="paint9_linear_1438_22348" x1="31.2443" y1="53.9248" x2="31.2443" y2="61.9797" gradientUnits="userSpaceOnUse">
<stop stop-color="#63388B"/>
<stop offset="1" stop-color="#357BB0"/>
</linearGradient>
</defs>
</svg>
