<svg width="78" height="67" viewBox="0 0 78 67" fill="none" xmlns="http://www.w3.org/2000/svg">
<path d="M16.4565 8.01758C11.6901 8.01758 7.8125 11.8954 7.8125 16.6617C7.8125 21.1395 11.9596 26.1037 14.4318 28.6643C14.9656 29.2172 15.6814 29.5212 16.4485 29.5212H16.4566C17.2269 29.5191 17.9445 29.2108 18.4773 28.6528C20.951 26.0626 25.1006 21.0603 25.1006 16.6617C25.1006 11.8952 21.2228 8.01758 16.4565 8.01758ZM16.8487 27.0977C16.7064 27.2466 16.5381 27.2693 16.4503 27.2696C16.4499 27.2696 16.4494 27.2696 16.449 27.2696C16.361 27.2696 16.1938 27.2473 16.0517 27.1004C10.6478 21.5028 10.0643 17.9356 10.0643 16.6617C10.0643 13.137 12.9319 10.2694 16.4565 10.2694C19.981 10.2694 22.8486 13.137 22.8486 16.6617C22.8488 17.9103 22.2641 21.4268 16.8487 27.0977Z" fill="url(#paint0_linear_1438_22354)" stroke="url(#paint1_linear_1438_22354)" stroke-width="0.5"/>
<path d="M16.4566 12.4463C14.1672 12.4463 12.3047 14.3088 12.3047 16.5982C12.3047 18.8875 14.1672 20.7502 16.4566 20.7502C18.7459 20.7502 20.6085 18.8877 20.6085 16.5982C20.6086 14.309 18.7459 12.4463 16.4566 12.4463ZM16.4566 18.4984C15.4089 18.4984 14.5565 17.646 14.5565 16.5982C14.5565 15.5505 15.4089 14.6981 16.4566 14.6981C17.5043 14.6981 18.3567 15.5505 18.3567 16.5982C18.3568 17.646 17.5044 18.4984 16.4566 18.4984Z" fill="url(#paint2_linear_1438_22354)" stroke="url(#paint3_linear_1438_22354)" stroke-width="0.5"/>
<path d="M61.1595 29.5212H61.1674C61.9377 29.5191 62.6553 29.2108 63.188 28.6528C65.6617 26.0624 69.8115 21.0601 69.8115 16.6617C69.8115 11.8954 65.9339 8.01758 61.1676 8.01758C56.4012 8.01758 52.5234 11.8954 52.5234 16.6617C52.5234 21.1398 56.6707 26.1039 59.1429 28.6643C59.6766 29.2171 60.3925 29.5212 61.1595 29.5212ZM61.1676 10.2694C64.6923 10.2694 67.5597 13.137 67.5597 16.6617C67.5597 17.9103 66.975 21.4267 61.5595 27.0977C61.4172 27.2466 61.2489 27.2693 61.1613 27.2696C61.1608 27.2696 61.1604 27.2696 61.1598 27.2696C61.0718 27.2696 60.9047 27.2473 60.7627 27.1004C55.3586 21.5031 54.7751 17.9358 54.7751 16.6619C54.7753 13.1369 57.6427 10.2694 61.1676 10.2694Z" fill="url(#paint4_linear_1438_22354)" stroke="url(#paint5_linear_1438_22354)" stroke-width="0.5"/>
<path d="M65.3235 16.5982C65.3235 14.3088 63.4609 12.4463 61.1716 12.4463C58.8821 12.4463 57.0195 14.3088 57.0195 16.5982C57.0195 18.8875 58.8821 20.7502 61.1716 20.7502C63.4609 20.7501 65.3235 18.8875 65.3235 16.5982ZM59.2713 16.5982C59.2713 15.5505 60.1239 14.6981 61.1716 14.6981C62.2193 14.6981 63.0717 15.5505 63.0717 16.5982C63.0717 17.6459 62.2193 18.4984 61.1716 18.4984C60.1239 18.4984 59.2713 17.6459 59.2713 16.5982Z" fill="url(#paint6_linear_1438_22354)" stroke="url(#paint7_linear_1438_22354)" stroke-width="0.5"/>
<path d="M46.1149 31.0405C44.4579 31.0405 43.0512 32.1307 42.5731 33.6313H34.8019C34.3238 32.1307 32.917 31.0405 31.2601 31.0405C29.6032 31.0405 28.1964 32.1307 27.7183 33.6313H19.9471C19.469 32.1307 18.0622 31.0405 16.4053 31.0405C14.7484 31.0405 13.3417 32.1307 12.8635 33.6313H7.48919C6.86724 33.6313 6.36328 34.1354 6.36328 34.7572C6.36328 35.379 6.86724 35.8831 7.48919 35.8831H12.8632C13.3414 37.3837 14.7481 38.4739 16.405 38.4739C18.0619 38.4739 19.4687 37.3837 19.9468 35.8831H27.718C28.1961 37.3837 29.6029 38.4739 31.2598 38.4739C32.9167 38.4739 34.3235 37.3837 34.8016 35.8831H42.5728C43.0509 37.3837 44.4577 38.4739 46.1146 38.4739C47.7715 38.4739 49.1783 37.3837 49.6564 35.8831H57.4277C57.9059 37.3837 59.3127 38.4739 60.9695 38.4739C62.6264 38.4739 64.0332 37.3837 64.5113 35.8831H69.8854C70.5073 35.8831 71.0113 35.379 71.0113 34.7572C71.0113 34.1354 70.5073 33.6313 69.8854 33.6313H64.5113C64.0332 32.1307 62.6264 31.0405 60.9695 31.0405C59.3127 31.0405 57.9059 32.1307 57.4277 33.6313H49.6567C49.1786 32.1307 47.7718 31.0405 46.1149 31.0405ZM16.405 36.222C15.5972 36.222 14.9402 35.5649 14.9402 34.7571C14.9402 33.9493 15.5972 33.2922 16.405 33.2922C17.2128 33.2922 17.8699 33.9493 17.8699 34.7571C17.8699 35.5649 17.2128 36.222 16.405 36.222ZM31.26 36.222C30.4522 36.222 29.7951 35.5649 29.7951 34.7571C29.7951 33.9493 30.4522 33.2922 31.26 33.2922C32.0678 33.2922 32.7248 33.9493 32.7248 34.7571C32.7248 35.5649 32.0678 36.222 31.26 36.222ZM46.1149 36.222C45.3071 36.222 44.65 35.5649 44.65 34.7571C44.65 33.9493 45.3071 33.2922 46.1149 33.2922C46.9227 33.2922 47.5798 33.9493 47.5798 34.7571C47.5798 35.5649 46.9226 36.222 46.1149 36.222ZM60.9698 33.2923C61.7776 33.2923 62.4347 33.9494 62.4347 34.7572C62.4347 35.565 61.7776 36.2221 60.9698 36.2221C60.162 36.2221 59.505 35.565 59.505 34.7572C59.505 33.9494 60.162 33.2923 60.9698 33.2923Z" fill="url(#paint8_linear_1438_22354)" stroke="url(#paint9_linear_1438_22354)" stroke-width="0.5"/>
<path d="M71.6346 0.702148H23.1007C22.4787 0.702148 21.9748 1.20626 21.9748 1.82806C21.9748 2.44986 22.4787 2.95397 23.1007 2.95397H71.6346C73.4175 2.95397 74.868 4.40459 74.868 6.18742V43.8097H2.50963V6.18742C2.50963 4.40459 3.9601 2.95397 5.74309 2.95397H17.6963C18.3183 2.95397 18.8222 2.44986 18.8222 1.82806C18.8222 1.20626 18.3183 0.702148 17.6963 0.702148H5.74309C2.7186 0.702148 0.257812 3.16293 0.257812 6.18742V49.6256C0.257812 52.6501 2.7186 55.1108 5.74309 55.1108H25.7379V58.6184H23.6393C20.975 58.6184 18.8072 60.786 18.8072 63.4505C18.8072 65.0029 20.0702 66.2659 21.6226 66.2659H43.5253C44.1472 66.2659 44.6512 65.7618 44.6512 65.14C44.6512 64.5182 44.1472 64.0141 43.5253 64.0141H21.6226C21.3118 64.0141 21.059 63.7613 21.059 63.4505C21.059 62.0277 22.2165 60.8702 23.6393 60.8702H53.738C55.1609 60.8702 56.3183 62.0277 56.3183 63.4505C56.3183 63.7613 56.0655 64.0141 55.7547 64.0141H49.2299C48.6079 64.0141 48.104 64.5182 48.104 65.14C48.104 65.7618 48.6079 66.2659 49.2299 66.2659H55.7547C57.3071 66.2659 58.5701 65.0029 58.5701 63.4505C58.5701 60.786 56.4025 58.6184 53.738 58.6184H51.6396V55.1108H71.6343C74.6587 55.1108 77.1195 52.6501 77.1195 49.6256V6.18742C77.1198 3.16293 74.659 0.702148 71.6346 0.702148ZM49.3881 58.6186H27.9897V55.111H49.388V58.6186H49.3881ZM71.6346 52.8592H5.74309C3.9601 52.8592 2.50963 51.4086 2.50963 49.6257V46.0617H74.868V49.6257C74.868 51.4086 73.4175 52.8592 71.6346 52.8592Z" fill="url(#paint10_linear_1438_22354)" stroke="url(#paint11_linear_1438_22354)" stroke-width="0.5"/>
<defs>
<linearGradient id="paint0_linear_1438_22354" x1="16.4565" y1="8.01758" x2="16.4565" y2="29.5212" gradientUnits="userSpaceOnUse">
<stop offset="0.16" stop-color="#63388B"/>
<stop offset="1" stop-color="#4485B6"/>
</linearGradient>
<linearGradient id="paint1_linear_1438_22354" x1="16.4565" y1="8.01758" x2="16.4565" y2="29.5212" gradientUnits="userSpaceOnUse">
<stop stop-color="#63388B"/>
<stop offset="1" stop-color="#327EB2" stop-opacity="0.921569"/>
</linearGradient>
<linearGradient id="paint2_linear_1438_22354" x1="16.4566" y1="12.4463" x2="16.4566" y2="20.7502" gradientUnits="userSpaceOnUse">
<stop offset="0.16" stop-color="#63388B"/>
<stop offset="1" stop-color="#4485B6"/>
</linearGradient>
<linearGradient id="paint3_linear_1438_22354" x1="16.4566" y1="12.4463" x2="16.4566" y2="20.7502" gradientUnits="userSpaceOnUse">
<stop stop-color="#63388B"/>
<stop offset="1" stop-color="#327EB2" stop-opacity="0.921569"/>
</linearGradient>
<linearGradient id="paint4_linear_1438_22354" x1="61.1675" y1="8.01758" x2="61.1675" y2="29.5212" gradientUnits="userSpaceOnUse">
<stop offset="0.16" stop-color="#63388B"/>
<stop offset="1" stop-color="#4485B6"/>
</linearGradient>
<linearGradient id="paint5_linear_1438_22354" x1="61.1675" y1="8.01758" x2="61.1675" y2="29.5212" gradientUnits="userSpaceOnUse">
<stop stop-color="#63388B"/>
<stop offset="1" stop-color="#327EB2" stop-opacity="0.921569"/>
</linearGradient>
<linearGradient id="paint6_linear_1438_22354" x1="61.1715" y1="12.4463" x2="61.1715" y2="20.7502" gradientUnits="userSpaceOnUse">
<stop offset="0.16" stop-color="#63388B"/>
<stop offset="1" stop-color="#4485B6"/>
</linearGradient>
<linearGradient id="paint7_linear_1438_22354" x1="61.1715" y1="12.4463" x2="61.1715" y2="20.7502" gradientUnits="userSpaceOnUse">
<stop stop-color="#63388B"/>
<stop offset="1" stop-color="#327EB2" stop-opacity="0.921569"/>
</linearGradient>
<linearGradient id="paint8_linear_1438_22354" x1="38.6873" y1="31.0405" x2="38.6873" y2="38.4739" gradientUnits="userSpaceOnUse">
<stop offset="0.16" stop-color="#63388B"/>
<stop offset="1" stop-color="#4485B6"/>
</linearGradient>
<linearGradient id="paint9_linear_1438_22354" x1="38.6873" y1="31.0405" x2="38.6873" y2="38.4739" gradientUnits="userSpaceOnUse">
<stop stop-color="#63388B"/>
<stop offset="1" stop-color="#327EB2" stop-opacity="0.921569"/>
</linearGradient>
<linearGradient id="paint10_linear_1438_22354" x1="38.6887" y1="0.702148" x2="38.6887" y2="66.2659" gradientUnits="userSpaceOnUse">
<stop offset="0.16" stop-color="#63388B"/>
<stop offset="1" stop-color="#4485B6"/>
</linearGradient>
<linearGradient id="paint11_linear_1438_22354" x1="38.6887" y1="0.702148" x2="38.6887" y2="66.2659" gradientUnits="userSpaceOnUse">
<stop stop-color="#63388B"/>
<stop offset="1" stop-color="#327EB2" stop-opacity="0.921569"/>
</linearGradient>
</defs>
</svg>
