<svg width="58" height="58" viewBox="0 0 58 58" fill="none" xmlns="http://www.w3.org/2000/svg">
<path d="M56.6142 20.7777L50.4663 16.3256V3.79971C50.4663 3.28471 50.0492 2.86637 49.5329 2.86637H42.0663C41.55 2.86637 41.1329 3.28471 41.1329 3.79971V9.56678L29.5479 1.17718C29.2195 0.940938 28.7808 0.940938 28.4521 1.17718L1.38542 20.7773C1.14292 20.9527 1 21.2335 1 21.5331V56.0667C1 56.5817 1.41709 57 1.93333 57H56.0667C56.5829 57 57 56.5817 57 56.0667V21.5331C57 21.2335 56.8567 20.9531 56.6142 20.7777ZM12.1022 44.3512C12.1664 44.2224 12.2001 44.0787 12.2001 43.9341V38.3537H10.3335V43.0008H8.4668V37.4007C8.4668 35.8569 9.72302 34.6007 11.2668 34.6007H20.6001C22.1439 34.6007 23.4001 35.8569 23.4001 37.4007V43.0008H21.5335V37.4007H19.6668V43.9341C19.6668 44.0787 19.7006 44.2224 19.7647 44.3512L22.8235 50.4675H9.04323L12.1022 44.3512ZM12.2001 29.9074C15.4247 29.7261 17.9922 28.6119 19.088 27.0245C19.4493 27.5995 19.6668 28.2732 19.6668 29.0011V32.7345H12.2001L12.2001 29.9074ZM12.3468 28.0219C12.7806 26.4398 14.2152 25.2678 15.9335 25.2678C16.571 25.2678 17.1626 25.4432 17.688 25.7261C17.2039 26.777 15.1252 27.8037 12.3468 28.0219ZM23.3996 47.4471L22.1096 44.8675H23.3996V47.4471ZM23.3996 55.1342H21.5329V52.3342H23.3996V55.1342ZM12.1996 52.3342H14.9996V55.1342H12.1996V52.3342ZM16.8663 55.1342V52.3342H19.6663V55.1342H16.8663ZM29.9329 55.1342V43.0008H28.0663V55.1342H25.2663V37.4007C25.2663 35.1953 23.7233 33.352 21.6638 32.8674C22.0101 31.7148 23.0684 30.8674 24.3329 30.8674H33.6663C35.2101 30.8674 36.4663 32.1236 36.4663 33.6674V39.3616C35.7729 39.5033 35.1446 39.8116 34.5996 40.2241V33.6674H32.7329V55.1342L29.9329 55.1342ZM25.2663 25.2673C25.2663 23.2086 26.9408 21.534 28.9996 21.534C31.0584 21.534 32.7329 23.2086 32.7329 25.2673C32.7329 27.3261 31.0584 29.0007 28.9996 29.0007C26.9408 29.0007 25.2663 27.3261 25.2663 25.2673ZM41.1329 33.6674C42.6767 33.6674 43.9329 34.9236 43.9329 36.4674C43.9329 38.0112 42.6767 39.2674 41.1329 39.2674C39.5892 39.2674 38.3329 38.0112 38.3329 36.4674C38.3329 34.9236 39.5892 33.6674 41.1329 33.6674ZM36.4663 55.1342H34.5996V49.5341H36.4663V55.1342ZM42.0663 55.1342V49.5341H40.1996V55.1342H38.3329V43.9341H36.4663V47.6675H34.5996V43.9341C34.5996 42.3903 35.8558 41.1341 37.3996 41.1341H44.8663C46.4101 41.1341 47.6663 42.3903 47.6663 43.9341V47.6675H45.7996V43.9341H43.9329V55.1342H42.0663ZM55.1329 55.1342H45.7996V49.5341H48.5996C49.1158 49.5341 49.5329 49.1158 49.5329 48.6008V43.9341C49.5329 41.3608 47.4396 39.2674 44.8663 39.2674H44.8421C45.4346 38.4853 45.7996 37.522 45.7996 36.4674C45.7996 33.8941 43.7063 31.8007 41.1329 31.8007C40.0392 31.8007 39.045 32.1945 38.2479 32.8282C37.8504 30.6557 35.9521 29.0007 33.6663 29.0007H33.1621C34.0525 28.0086 34.5996 26.7027 34.5996 25.2673C34.5996 22.179 32.088 19.6673 28.9996 19.6673C25.9113 19.6673 23.3996 22.179 23.3996 25.2673C23.3996 26.7027 23.9467 28.0086 24.8372 29.0007H24.333C23.2784 29.0007 22.3151 29.3657 21.533 29.9582V29.0007C21.533 25.9123 19.0213 23.4006 15.933 23.4006C12.8447 23.4006 10.333 25.9123 10.333 29.0007V32.8282C8.20599 33.2624 6.59969 35.1478 6.59969 37.4007V43.9341C6.59969 44.4491 7.01678 44.8674 7.53303 44.8674H9.75638L6.69804 50.9837C6.55345 51.2729 6.56846 51.6167 6.73929 51.8921C6.90971 52.1662 7.20928 52.3342 7.53304 52.3342H10.333V55.1342H2.86637V22.0108L28.9997 3.08588L41.5181 12.1513C41.8019 12.3567 42.1781 12.3855 42.4906 12.2267C42.8023 12.0667 42.9994 11.7463 42.9994 11.3955V4.73336H48.5993V16.8017C48.5993 17.1013 48.7423 17.3821 48.9848 17.5575L55.1327 22.01L55.1329 55.1342Z" fill="url(#paint0_linear_1456_826)" stroke="url(#paint1_linear_1456_826)" stroke-width="0.5"/>
<defs>
<linearGradient id="paint0_linear_1456_826" x1="29" y1="1" x2="29" y2="57" gradientUnits="userSpaceOnUse">
<stop stop-color="#63388B"/>
<stop offset="1" stop-color="#327EB2"/>
</linearGradient>
<linearGradient id="paint1_linear_1456_826" x1="29" y1="1" x2="29" y2="57" gradientUnits="userSpaceOnUse">
<stop stop-color="#63388B"/>
<stop offset="1" stop-color="#327EB2"/>
</linearGradient>
</defs>
</svg>
