<svg width="54" height="55" viewBox="0 0 54 55" fill="none" xmlns="http://www.w3.org/2000/svg">
<path d="M49.4629 54C50.5159 54.0024 51.5129 53.5346 52.1841 52.7299C52.8553 51.9227 53.1325 50.8611 52.9404 49.8309L46.2405 14.4961C45.9244 12.8333 44.4677 11.631 42.7704 11.631H37.5249V7.02328C37.5176 3.69772 34.811 1.00242 31.4745 1C30.7085 1 29.9474 1.14543 29.2372 1.43145C28.5272 1.14543 27.766 1 26.9999 1C23.6635 1.00242 20.9593 3.69779 20.9569 7.02328V11.631H11.2296C9.53222 11.6335 8.07802 12.8357 7.75946 14.4961L1.05964 49.8309C0.867529 50.8611 1.14475 51.9227 1.81591 52.7299C2.48707 53.5346 3.48414 54.0024 4.53711 54H49.4629ZM12.3898 12.9254H14.109L21.4507 51.7072L12.3728 44.0601L12.3898 12.9254ZM42.7705 12.9254C43.843 12.9254 44.7646 13.6841 44.964 14.7337L51.642 50.071C51.7661 50.7182 51.5934 51.3896 51.1727 51.8986C50.752 52.4076 50.127 52.7033 49.4631 52.7082H22.9614L15.4255 12.9255H25.4323V18.7428H23.9854C23.6279 18.7428 23.3361 19.0312 23.3361 19.3875C23.3361 19.7463 23.6279 20.0347 23.9854 20.0347H28.1754C28.5329 20.0347 28.8223 19.7463 28.8223 19.3875C28.8223 19.0312 28.5329 18.7428 28.1754 18.7428H26.7285V12.9255H36.2298V18.7428H34.7829C34.4254 18.7428 34.1335 19.0312 34.1335 19.3875C34.1335 19.7463 34.4254 20.0347 34.7829 20.0347H38.9656C39.3231 20.0347 39.6149 19.7463 39.6149 19.3875C39.6149 19.0312 39.3231 18.7428 38.9656 18.7428H37.526V12.9255L42.7705 12.9254ZM29.2377 2.85458C30.7819 3.67625 31.7448 5.27841 31.7473 7.02365V11.6314H26.728V7.02365C26.7304 5.27847 27.6935 3.67631 29.2377 2.85458ZM31.475 2.29224C34.0964 2.29466 36.2219 4.41072 36.2292 7.02362V11.6314H33.0435V7.02362C33.0459 5.20571 32.2191 3.4848 30.8013 2.34312C31.0226 2.30919 31.2488 2.29224 31.475 2.29224ZM22.2538 7.02362C22.2563 4.41314 24.3817 2.29466 27.0007 2.29224C27.2172 2.29466 27.4336 2.31163 27.6501 2.34314C26.2299 3.48475 25.4055 5.20573 25.4055 7.02364V11.6314H22.2271L22.2538 7.02362ZM2.3592 50.0714L9.03723 14.7341C9.22934 13.7378 10.0756 12.9961 11.0946 12.938V44.0335L2.48103 51.3121C2.3181 50.9194 2.27652 50.4883 2.3592 50.0714ZM3.30516 52.3207L11.7363 45.2116L20.6586 52.7086H4.53779C4.09277 52.7061 3.65745 52.5728 3.29271 52.3207H3.30516ZM28.1752 41.2608C28.1752 40.9045 28.4646 40.616 28.8221 40.616H31.7791C32.139 40.616 32.4285 40.9045 32.4285 41.2608C32.4285 41.6195 32.1391 41.908 31.7791 41.908H28.8221C28.4646 41.908 28.1752 41.6195 28.1752 41.2608ZM42.7147 40.6136L42.7123 40.616C43.0722 40.616 43.3616 40.9045 43.3616 41.2608C43.3616 41.6195 43.0722 41.908 42.7123 41.908H35.0157C34.6583 41.908 34.3664 41.6196 34.3664 41.2608C34.3664 40.9045 34.6582 40.616 35.0157 40.616L42.7147 40.6136ZM36.3505 44.8093C36.3505 44.9814 36.2824 45.1462 36.1608 45.2674C36.0392 45.3886 35.8738 45.4565 35.7036 45.4565H26.6693C26.3118 45.4565 26.0199 45.168 26.0199 44.8093C26.0199 44.453 26.3118 44.1645 26.6693 44.1645H35.7036C35.8738 44.1645 36.0392 44.2324 36.1608 44.3536C36.2824 44.4748 36.3505 44.6396 36.3505 44.8093ZM39.1349 44.1621H44.8667V44.1645C45.2242 44.1645 45.5136 44.453 45.5136 44.8093C45.5136 45.168 45.2242 45.4565 44.8667 45.4565H39.1325C38.775 45.4565 38.4856 45.1681 38.4856 44.8093C38.4856 44.453 38.775 44.1645 39.1325 44.1645L39.1349 44.1621ZM38.6729 24.4684C38.2692 24.2769 37.8193 24.2066 37.3768 24.2697C37.1968 24.289 37.0168 24.289 36.8369 24.2697C36.6764 24.2066 36.5232 24.1242 36.3846 24.0224C35.6696 23.4019 34.6069 23.4019 33.8944 24.0224C33.7509 24.1218 33.6001 24.2042 33.4396 24.2697C33.2597 24.289 33.0749 24.289 32.8949 24.2697C32.4499 24.2091 32 24.2842 31.5988 24.483C31.2267 24.7302 30.9373 25.0841 30.7671 25.4961C30.6917 25.6561 30.5993 25.8039 30.4899 25.9421C30.3489 26.0536 30.1957 26.1457 30.0352 26.2209C29.15 26.519 28.6247 27.4207 28.8022 28.3344C28.8265 28.5138 28.8265 28.698 28.8022 28.8774C28.7414 29.0373 28.6587 29.1876 28.5566 29.3234C27.934 30.036 27.934 31.0976 28.5566 31.8127C28.6587 31.9484 28.7414 32.0987 28.8022 32.2586C28.8265 32.438 28.8265 32.6198 28.8022 32.8016C28.6247 33.713 29.15 34.6171 30.0352 34.9152C30.378 35.0315 30.6455 35.2981 30.7671 35.6375C31.0638 36.5198 31.9685 37.0433 32.8828 36.8664C33.0627 36.8446 33.2451 36.8446 33.4275 36.8664C33.5856 36.9319 33.7388 37.0143 33.8798 37.1112C34.5948 37.7317 35.6575 37.7317 36.37 37.1112C36.5111 37.0118 36.6643 36.9294 36.8248 36.8664C37.0047 36.8446 37.1847 36.8446 37.3622 36.8664C37.8072 36.9246 38.2571 36.8494 38.6608 36.6531C39.028 36.401 39.3174 36.0496 39.49 35.6375C39.5629 35.4776 39.6578 35.3297 39.7696 35.1915C39.9058 35.08 40.059 34.9855 40.222 34.9152C40.6329 34.7407 40.988 34.4547 41.2409 34.0863C41.4354 33.6864 41.5084 33.2355 41.4476 32.7944C41.4281 32.615 41.4281 32.4308 41.4476 32.2514C41.5132 32.0939 41.5959 31.9436 41.6956 31.8055C41.9704 31.4443 42.1358 31.0105 42.1674 30.5572C42.1334 30.1063 41.968 29.6773 41.6956 29.3162C41.5935 29.178 41.5108 29.0253 41.4476 28.8653C41.4281 28.686 41.4281 28.5066 41.4476 28.3272C41.5084 27.8861 41.4354 27.4377 41.2409 27.0353C40.9831 26.6669 40.6256 26.3809 40.2098 26.2088C40.0469 26.1361 39.8937 26.044 39.7551 25.9301C39.6432 25.7943 39.5508 25.644 39.4779 25.4841C39.3101 25.0769 39.0328 24.7253 38.6729 24.4684ZM40.132 27.6994V27.7018C40.1806 27.8909 40.1952 28.0872 40.1709 28.2835C40.1417 28.5914 40.1636 28.9041 40.2293 29.207C40.3168 29.4931 40.4481 29.7645 40.6184 30.0094C40.7424 30.1693 40.8324 30.3536 40.8834 30.5523C40.8348 30.7511 40.7448 30.9377 40.6184 31.1001C40.4384 31.3498 40.2998 31.6237 40.2098 31.9145C40.1442 32.2175 40.1223 32.5302 40.1515 32.8404C40.1758 33.0344 40.1636 33.2307 40.1126 33.4222C39.9691 33.5628 39.8013 33.6767 39.614 33.7518C39.3344 33.8827 39.0766 34.0548 38.848 34.2608C38.6389 34.4887 38.4638 34.748 38.3349 35.0316C38.2595 35.2158 38.1428 35.3831 37.9993 35.5212C37.8096 35.5746 37.6102 35.5891 37.4157 35.56C37.1044 35.5382 36.7931 35.56 36.4867 35.6255C36.1973 35.7176 35.9225 35.8533 35.6696 36.0254C35.5115 36.1539 35.3243 36.2435 35.1249 36.292C34.9255 36.2435 34.7358 36.1539 34.5753 36.0254C34.3272 35.8509 34.0525 35.7176 33.7631 35.6255C33.5515 35.5721 33.3326 35.5479 33.1162 35.5552H32.8365C32.642 35.5818 32.4426 35.5673 32.2529 35.5164C32.1094 35.3758 31.9975 35.2086 31.9222 35.0243C31.7933 34.7432 31.6206 34.4838 31.409 34.256C31.1805 34.0475 30.9202 33.8754 30.6381 33.7445C30.4533 33.6694 30.2855 33.5579 30.1445 33.4149C30.0958 33.2258 30.0813 33.0271 30.1056 32.8332C30.1348 32.5229 30.1129 32.2102 30.0424 31.9097C29.9499 31.6188 29.8138 31.3449 29.6387 31.0952C29.5146 30.9304 29.4222 30.7438 29.3736 30.545C29.4247 30.3487 29.5146 30.1645 29.6387 30.0021C29.8162 29.7548 29.9524 29.4785 30.0424 29.1877C30.1129 28.8847 30.1348 28.572 30.1056 28.2642C30.0813 28.0678 30.0958 27.8715 30.1445 27.6824C30.2855 27.5394 30.4533 27.4279 30.6381 27.3528C30.9129 27.2219 31.1683 27.0547 31.3969 26.8535C31.606 26.6256 31.7811 26.3663 31.91 26.0851C31.9854 25.9009 32.0973 25.7336 32.2407 25.5931C32.4353 25.5422 32.6371 25.53 32.8365 25.5615C33.1502 25.5834 33.4639 25.5615 33.7704 25.4961C34.0597 25.4064 34.3321 25.2707 34.5802 25.0962C34.7431 24.9701 34.9303 24.878 35.1322 24.832C35.3316 24.878 35.5164 24.9677 35.6769 25.0962C35.9274 25.2683 36.2022 25.404 36.494 25.4961C36.798 25.5615 37.1117 25.5834 37.4205 25.5615C37.6199 25.5203 37.8266 25.5203 38.0236 25.5615C38.1647 25.7021 38.2765 25.8694 38.3543 26.0536C38.4735 26.3444 38.6364 26.6135 38.8407 26.8535C39.0693 27.0619 39.3271 27.234 39.6067 27.3649C39.794 27.4376 39.9618 27.5491 40.1053 27.6873L40.132 27.6994ZM39.3222 30.5523C39.3222 30.9086 39.0304 31.1971 38.6729 31.1971C38.3154 31.1971 38.0236 30.9086 38.0236 30.5523C38.0211 28.9477 36.7152 27.6485 35.1054 27.6485C34.7479 27.6485 34.4585 27.3601 34.4585 27.0037C34.4585 26.645 34.7479 26.3566 35.1054 26.3566C37.4327 26.3566 39.3173 28.2327 39.3222 30.5523ZM35.7547 34.1081V34.1057C35.7547 34.2778 35.6866 34.4426 35.565 34.5638C35.4434 34.685 35.2781 34.7529 35.1054 34.7529C32.7782 34.7529 30.8911 32.872 30.8911 30.5523C30.8911 30.1936 31.1805 29.9052 31.5404 29.9052C31.8979 29.9052 32.1873 30.1936 32.1873 30.5523C32.1873 32.1569 33.4956 33.461 35.1055 33.461C35.2806 33.4561 35.4484 33.524 35.5724 33.6452C35.6988 33.7664 35.7669 33.9336 35.7669 34.1057L35.7547 34.1081Z" fill="url(#paint0_linear_1456_827)"/>
<path d="M36.3529 44.8093H36.3505M36.3505 44.8093C36.3505 44.9814 36.2824 45.1462 36.1608 45.2674C36.0392 45.3886 35.8738 45.4565 35.7036 45.4565H26.6693C26.3118 45.4565 26.0199 45.168 26.0199 44.8093C26.0199 44.453 26.3118 44.1645 26.6693 44.1645H35.7036C35.8738 44.1645 36.0392 44.2324 36.1608 44.3536C36.2824 44.4748 36.3505 44.6396 36.3505 44.8093ZM49.4629 54C50.5159 54.0024 51.5129 53.5346 52.1841 52.7299C52.8553 51.9227 53.1325 50.8611 52.9404 49.8309L46.2405 14.4961C45.9244 12.8333 44.4677 11.631 42.7704 11.631H37.5249V7.02328C37.5176 3.69772 34.811 1.00242 31.4745 1C30.7085 1 29.9474 1.14543 29.2372 1.43145C28.5272 1.14543 27.766 1 26.9999 1C23.6635 1.00242 20.9593 3.69779 20.9569 7.02328V11.631H11.2296C9.53222 11.6335 8.07802 12.8357 7.75946 14.4961L1.05964 49.8309C0.867529 50.8611 1.14475 51.9227 1.81591 52.7299C2.48707 53.5346 3.48414 54.0024 4.53711 54H49.4629ZM12.3898 12.9254H14.109L21.4507 51.7072L12.3728 44.0601L12.3898 12.9254ZM42.7705 12.9254C43.843 12.9254 44.7646 13.6841 44.964 14.7337L51.642 50.071C51.7661 50.7182 51.5934 51.3896 51.1727 51.8986C50.752 52.4076 50.127 52.7033 49.4631 52.7082H22.9614L15.4255 12.9255H25.4323V18.7428H23.9854C23.6279 18.7428 23.3361 19.0312 23.3361 19.3875C23.3361 19.7463 23.6279 20.0347 23.9854 20.0347H28.1754C28.5329 20.0347 28.8223 19.7463 28.8223 19.3875C28.8223 19.0312 28.5329 18.7428 28.1754 18.7428H26.7285V12.9255H36.2298V18.7428H34.7829C34.4254 18.7428 34.1335 19.0312 34.1335 19.3875C34.1335 19.7463 34.4254 20.0347 34.7829 20.0347H38.9656C39.3231 20.0347 39.6149 19.7463 39.6149 19.3875C39.6149 19.0312 39.3231 18.7428 38.9656 18.7428H37.526V12.9255L42.7705 12.9254ZM29.2377 2.85458C30.7819 3.67625 31.7448 5.27841 31.7473 7.02365V11.6314H26.728V7.02365C26.7304 5.27847 27.6935 3.67631 29.2377 2.85458ZM31.475 2.29224C34.0964 2.29466 36.2219 4.41072 36.2292 7.02362V11.6314H33.0435V7.02362C33.0459 5.20571 32.2191 3.4848 30.8013 2.34312C31.0226 2.30919 31.2488 2.29224 31.475 2.29224ZM22.2538 7.02362C22.2563 4.41314 24.3817 2.29466 27.0007 2.29224C27.2172 2.29466 27.4336 2.31163 27.6501 2.34314C26.2299 3.48475 25.4055 5.20573 25.4055 7.02364V11.6314H22.2271L22.2538 7.02362ZM2.3592 50.0714L9.03723 14.7341C9.22934 13.7378 10.0756 12.9961 11.0946 12.938V44.0335L2.48103 51.3121C2.3181 50.9194 2.27652 50.4883 2.3592 50.0714ZM3.30516 52.3207L11.7363 45.2116L20.6586 52.7086H4.53779C4.09277 52.7061 3.65745 52.5728 3.29271 52.3207H3.30516ZM28.1752 41.2608C28.1752 40.9045 28.4646 40.616 28.8221 40.616H31.7791C32.139 40.616 32.4285 40.9045 32.4285 41.2608C32.4285 41.6195 32.1391 41.908 31.7791 41.908H28.8221C28.4646 41.908 28.1752 41.6195 28.1752 41.2608ZM42.7147 40.6136L42.7123 40.616C43.0722 40.616 43.3616 40.9045 43.3616 41.2608C43.3616 41.6195 43.0722 41.908 42.7123 41.908H35.0157C34.6583 41.908 34.3664 41.6196 34.3664 41.2608C34.3664 40.9045 34.6583 40.616 35.0157 40.616L42.7147 40.6136ZM39.1349 44.1621H44.8667V44.1645C45.2242 44.1645 45.5136 44.453 45.5136 44.8093C45.5136 45.168 45.2242 45.4565 44.8667 45.4565H39.1325C38.775 45.4565 38.4856 45.1681 38.4856 44.8093C38.4856 44.453 38.775 44.1645 39.1325 44.1645L39.1349 44.1621ZM38.6729 24.4684C38.2692 24.2769 37.8193 24.2066 37.3768 24.2697C37.1968 24.289 37.0169 24.289 36.8369 24.2697C36.6764 24.2066 36.5232 24.1242 36.3846 24.0224C35.6696 23.4019 34.6069 23.4019 33.8944 24.0224C33.7509 24.1218 33.6001 24.2042 33.4396 24.2697C33.2597 24.289 33.0749 24.289 32.8949 24.2697C32.4499 24.2091 32 24.2842 31.5988 24.483C31.2267 24.7302 30.9373 25.0841 30.7671 25.4961C30.6917 25.6561 30.5993 25.8039 30.4899 25.9421C30.3489 26.0536 30.1957 26.1457 30.0352 26.2209C29.15 26.519 28.6247 27.4207 28.8022 28.3344C28.8265 28.5138 28.8265 28.698 28.8022 28.8774C28.7414 29.0373 28.6587 29.1876 28.5566 29.3234C27.9341 30.036 27.9341 31.0976 28.5566 31.8127C28.6587 31.9484 28.7414 32.0987 28.8022 32.2586C28.8265 32.438 28.8265 32.6198 28.8022 32.8016C28.6247 33.713 29.15 34.6171 30.0352 34.9152C30.378 35.0315 30.6455 35.2981 30.7671 35.6375C31.0638 36.5198 31.9685 37.0433 32.8828 36.8664C33.0627 36.8446 33.2451 36.8446 33.4275 36.8664C33.5856 36.9319 33.7388 37.0143 33.8798 37.1112C34.5948 37.7317 35.6575 37.7317 36.37 37.1112C36.5111 37.0118 36.6643 36.9294 36.8248 36.8664C37.0047 36.8446 37.1847 36.8446 37.3622 36.8664C37.8072 36.9246 38.2571 36.8495 38.6608 36.6531C39.028 36.401 39.3174 36.0496 39.49 35.6375C39.5629 35.4776 39.6578 35.3297 39.7696 35.1915C39.9058 35.08 40.059 34.9855 40.222 34.9152C40.6329 34.7407 40.988 34.4547 41.2409 34.0863C41.4354 33.6864 41.5084 33.2355 41.4476 32.7944C41.4281 32.615 41.4281 32.4308 41.4476 32.2514C41.5132 32.0939 41.5959 31.9436 41.6956 31.8055C41.9704 31.4443 42.1358 31.0105 42.1674 30.5572C42.1334 30.1063 41.968 29.6773 41.6956 29.3162C41.5935 29.178 41.5108 29.0253 41.4476 28.8653C41.4281 28.686 41.4281 28.5066 41.4476 28.3272C41.5084 27.8861 41.4354 27.4377 41.2409 27.0353C40.9831 26.6669 40.6256 26.3809 40.2098 26.2088C40.0469 26.1361 39.8937 26.044 39.7551 25.9301C39.6432 25.7943 39.5508 25.644 39.4779 25.4841C39.3101 25.0769 39.0328 24.7253 38.6729 24.4684ZM40.132 27.6994V27.7018C40.1806 27.8909 40.1952 28.0872 40.1709 28.2835C40.1417 28.5914 40.1636 28.9041 40.2293 29.207C40.3168 29.4931 40.4481 29.7645 40.6184 30.0094C40.7424 30.1693 40.8324 30.3536 40.8834 30.5523C40.8348 30.7511 40.7448 30.9377 40.6184 31.1001C40.4384 31.3498 40.2998 31.6237 40.2098 31.9145C40.1442 32.2175 40.1223 32.5302 40.1515 32.8404C40.1758 33.0343 40.1636 33.2307 40.1126 33.4222C39.9691 33.5627 39.8013 33.6767 39.614 33.7518C39.3344 33.8827 39.0766 34.0548 38.848 34.2608C38.6389 34.4887 38.4638 34.748 38.3349 35.0316C38.2595 35.2158 38.1428 35.3831 37.9993 35.5212C37.8096 35.5746 37.6102 35.5891 37.4157 35.56C37.1044 35.5382 36.7931 35.56 36.4867 35.6255C36.1973 35.7176 35.9225 35.8533 35.6696 36.0254C35.5115 36.1539 35.3243 36.2435 35.1249 36.292C34.9255 36.2435 34.7358 36.1539 34.5753 36.0254C34.3272 35.8509 34.0525 35.7176 33.7631 35.6255C33.5515 35.5721 33.3326 35.5479 33.1162 35.5552H32.8365C32.642 35.5818 32.4426 35.5673 32.2529 35.5164C32.1094 35.3758 31.9975 35.2086 31.9222 35.0243C31.7933 34.7432 31.6206 34.4838 31.409 34.256C31.1805 34.0475 30.9202 33.8754 30.6381 33.7445C30.4533 33.6694 30.2855 33.5579 30.1445 33.4149C30.0958 33.2258 30.0813 33.0271 30.1056 32.8332C30.1348 32.5229 30.1129 32.2102 30.0424 31.9097C29.9499 31.6188 29.8138 31.3449 29.6387 31.0952C29.5146 30.9304 29.4222 30.7438 29.3736 30.545C29.4247 30.3487 29.5146 30.1645 29.6387 30.0021C29.8162 29.7548 29.9524 29.4785 30.0424 29.1877C30.1129 28.8847 30.1348 28.572 30.1056 28.2642C30.0813 28.0678 30.0958 27.8715 30.1445 27.6824C30.2855 27.5394 30.4533 27.4279 30.6381 27.3528C30.9129 27.2219 31.1683 27.0547 31.3969 26.8535C31.606 26.6256 31.7811 26.3663 31.91 26.0851C31.9854 25.9009 32.0973 25.7336 32.2407 25.5931C32.4353 25.5421 32.6371 25.53 32.8365 25.5615C33.1502 25.5834 33.4639 25.5615 33.7704 25.4961C34.0597 25.4064 34.3321 25.2707 34.5802 25.0962C34.7431 24.9701 34.9303 24.878 35.1322 24.832C35.3316 24.878 35.5164 24.9677 35.6769 25.0962C35.9274 25.2683 36.2022 25.404 36.494 25.4961C36.798 25.5615 37.1117 25.5834 37.4205 25.5615C37.6199 25.5203 37.8266 25.5203 38.0236 25.5615C38.1647 25.7021 38.2765 25.8694 38.3543 26.0536C38.4735 26.3444 38.6364 26.6135 38.8407 26.8535C39.0693 27.0619 39.3271 27.234 39.6067 27.3649C39.794 27.4376 39.9618 27.5491 40.1053 27.6873L40.132 27.6994ZM39.3222 30.5523C39.3222 30.9086 39.0304 31.1971 38.6729 31.1971C38.3154 31.1971 38.0236 30.9086 38.0236 30.5523C38.0211 28.9477 36.7152 27.6485 35.1054 27.6485C34.7479 27.6485 34.4585 27.3601 34.4585 27.0037C34.4585 26.645 34.7479 26.3566 35.1054 26.3566C37.4327 26.3566 39.3173 28.2327 39.3222 30.5523ZM35.7547 34.1081V34.1057C35.7547 34.2778 35.6866 34.4426 35.565 34.5638C35.4434 34.685 35.2781 34.7529 35.1054 34.7529C32.7782 34.7529 30.8911 32.872 30.8911 30.5523C30.8911 30.1936 31.1805 29.9052 31.5404 29.9052C31.8979 29.9052 32.1873 30.1936 32.1873 30.5523C32.1873 32.1569 33.4956 33.461 35.1055 33.461C35.2806 33.4561 35.4484 33.524 35.5724 33.6452C35.6988 33.7664 35.7669 33.9336 35.7669 34.1057L35.7547 34.1081Z" stroke="url(#paint1_linear_1456_827)" stroke-width="0.5"/>
<defs>
<linearGradient id="paint0_linear_1456_827" x1="27" y1="1" x2="27" y2="54" gradientUnits="userSpaceOnUse">
<stop stop-color="#63388B"/>
<stop offset="1" stop-color="#327EB2"/>
</linearGradient>
<linearGradient id="paint1_linear_1456_827" x1="27" y1="1" x2="27" y2="54" gradientUnits="userSpaceOnUse">
<stop stop-color="#63388B"/>
<stop offset="1" stop-color="#327EB2"/>
</linearGradient>
</defs>
</svg>
