<svg width="50" height="50" viewBox="0 0 50 50" fill="none" xmlns="http://www.w3.org/2000/svg">
<path d="M44.6799 17.1928H37.7166C35.7555 17.1928 34.0565 18.5346 33.5459 20.3667C33.2974 20.3961 33.0488 20.4661 32.8116 20.5813V16.8924C32.8116 14.5091 30.8731 12.5663 28.4849 12.5663H21.5216C19.138 12.5663 17.195 14.5046 17.195 16.8924V20.5813C16.9577 20.4661 16.7092 20.3961 16.4607 20.3667C15.9523 18.5166 14.2737 17.1928 12.29 17.1928H5.32668C2.94306 17.1928 1 19.1356 1 21.5188V33.0965C1 33.946 1.32986 34.7456 1.93763 35.351C2.33076 35.7396 2.80523 36.0106 3.31358 36.1552V45.8193C3.31358 47.5723 4.74151 49 6.49474 49H11.1219C12.8751 49 14.3031 47.5723 14.3031 45.8193V44.8886L14.5855 45.171C15.3424 45.9345 16.5104 46.061 17.4255 45.494L19.1946 44.3825C19.3505 44.2831 19.547 44.2673 19.7029 44.3419C20.0509 44.509 20.4147 44.6604 20.7852 44.7937C20.9478 44.8524 21.0744 45.0015 21.115 45.1822L21.5827 47.2244C21.8267 48.2703 22.7463 48.9999 23.815 48.9999H26.1737C27.2492 48.9999 28.1687 48.2703 28.406 47.2244L28.8737 45.189C28.9143 45.0105 29.0408 44.8592 29.2035 44.8004C29.5673 44.6672 29.9333 44.5181 30.2858 44.3554C30.4417 44.2809 30.6382 44.2967 30.7941 44.3961L32.57 45.5075C33.4782 46.0745 34.6463 45.9413 35.41 45.1845L35.6924 44.9021L35.6969 45.8193C35.6969 47.5722 37.1249 49 38.8781 49H43.5052C45.2585 49 46.6864 47.5722 46.6864 45.8193V36.1552C48.0217 35.7802 49 34.5468 49 33.0964V21.5187C49.0068 19.1355 47.0635 17.1928 44.6799 17.1928ZM21.5216 14.3013H28.4918C29.9198 14.3013 31.0833 15.4646 31.0833 16.8924V21.634L30.8167 21.8012C30.6608 21.9006 30.4642 21.9164 30.3083 21.8418C29.9559 21.6747 29.5921 21.5233 29.2261 21.3968C29.0634 21.3381 28.9369 21.189 28.8962 21.0083L28.4286 18.9729C28.1846 17.927 27.265 17.1973 26.1963 17.1973H23.8376C22.7621 17.1973 21.8426 17.927 21.6053 18.9729L21.1376 21.0083C21.097 21.1867 20.9704 21.3381 20.8078 21.3968C20.4372 21.5301 20.0735 21.6792 19.7255 21.8486C19.5696 21.9232 19.3731 21.9074 19.2172 21.808L18.9506 21.6408V16.8924C18.9302 15.4646 20.0937 14.3013 21.5216 14.3013ZM12.5681 45.819C12.5681 46.6164 11.9196 47.2648 11.1221 47.2648H6.49492C5.69737 47.2648 5.04893 46.6164 5.04893 45.819V35.4095C5.04893 34.9306 4.66032 34.542 4.18134 34.542C3.79951 34.542 3.43573 34.3907 3.15787 34.1196C2.88675 33.8485 2.73537 33.4825 2.73537 33.0963V21.5185C2.73537 20.0908 3.89893 18.9274 5.32687 18.9274H12.2902C13.4876 18.9274 14.493 19.7316 14.789 20.8476C14.719 20.8996 14.6512 20.9515 14.5856 21.0148L12.925 22.6751C12.1681 23.4319 12.0348 24.5998 12.6019 25.5147L13.7135 27.2836C13.813 27.4394 13.8288 27.636 13.7542 27.7918C13.587 28.1442 13.4356 28.508 13.3023 28.8739C13.2436 29.0366 13.0945 29.1631 12.9137 29.2037L10.8713 29.6713C9.82523 29.9153 9.09547 30.8347 9.09547 31.9033V34.2617C9.09547 35.337 9.82523 36.2564 10.8713 36.4936L12.907 36.9612C13.0855 37.0019 13.2368 37.1284 13.2956 37.291C13.4289 37.6547 13.578 38.0207 13.7407 38.3731C13.8152 38.5289 13.7994 38.7255 13.7 38.8814L12.5884 40.6569C12.1026 41.4386 12.132 42.4031 12.6291 43.1441C12.5839 43.248 12.5545 43.37 12.5545 43.492L12.5567 45.8188L12.5681 45.819ZM34.1948 43.9463C34.0095 44.1315 33.7271 44.1654 33.5012 44.0276L31.7253 42.9162C31.0611 42.5005 30.25 42.4531 29.5564 42.7784C29.2559 42.9229 28.9441 43.0494 28.63 43.1601C27.907 43.4199 27.3693 44.0276 27.1953 44.7911L26.7276 46.8265C26.6689 47.0818 26.4452 47.2602 26.1831 47.2602H23.8244C23.5645 47.2602 23.3386 47.0818 23.2798 46.8265L22.8122 44.7844C22.6382 44.0208 22.1004 43.4131 21.3775 43.1534C21.0657 43.0382 20.7539 42.9094 20.4511 42.7648C20.1438 42.6202 19.8208 42.5502 19.4909 42.5502C19.0683 42.5502 18.6459 42.6722 18.2753 42.9026L16.5062 44.0141C16.2871 44.1519 15.9979 44.1248 15.8126 43.9327L14.1475 42.2724C13.9622 42.0871 13.9283 41.8048 14.0661 41.5789L15.1778 39.8033C15.5935 39.1392 15.6454 38.3281 15.3156 37.6346C15.171 37.3342 15.0445 37.0224 14.9337 36.7084C14.6739 35.9855 14.0661 35.4479 13.3025 35.2739L11.2668 34.8063C11.0115 34.7476 10.833 34.5239 10.833 34.2619V31.9035C10.833 31.6437 11.0115 31.4178 11.2668 31.3591L13.3093 30.8914C14.0729 30.7175 14.6807 30.1798 14.9405 29.457C15.0557 29.1452 15.1845 28.8335 15.3223 28.5307C15.6522 27.8372 15.6002 27.0217 15.1845 26.3553L14.0729 24.5865C13.9351 24.3674 13.9622 24.0782 14.1542 23.893L15.8149 22.2326C16.0001 22.0474 16.2826 22.0135 16.5085 22.1513L18.2776 23.2627C18.9418 23.6784 19.7574 23.7304 20.4533 23.4005C20.7538 23.256 21.0611 23.1295 21.3797 23.0188C22.1026 22.759 22.6359 22.1513 22.8144 21.3878L23.282 19.3456C23.3408 19.0904 23.5645 18.9119 23.8266 18.9119H26.1853C26.4451 18.9119 26.6711 19.0904 26.7298 19.3456L27.1975 21.381C27.376 22.1445 27.9092 22.7522 28.6322 23.012C28.944 23.1227 29.2558 23.256 29.5586 23.3938C30.2522 23.7236 31.0633 23.6716 31.7275 23.256L33.5034 22.1445C33.7225 22.0067 34.0117 22.0406 34.197 22.2259L35.8621 23.8907C36.0474 24.076 36.0813 24.3584 35.9435 24.5842L34.8318 26.3531C34.4161 27.0172 34.3642 27.8327 34.694 28.5285C34.8386 28.8289 34.9651 29.1362 35.0759 29.4547C35.3357 30.1776 35.9434 30.7107 36.7071 30.8892L38.7495 31.3568C39.0048 31.4155 39.1833 31.6392 39.1833 31.9012V34.2596C39.1833 34.5194 39.0048 34.7453 38.7495 34.8041L36.7139 35.2717C35.9502 35.4501 35.3424 35.9833 35.0826 36.7062C34.9719 37.0179 34.8386 37.3296 34.7008 37.6324C34.3709 38.3259 34.4229 39.1369 34.8386 39.801L35.9502 41.5766C36.088 41.7957 36.0542 42.0849 35.8689 42.2701L34.1948 43.9463ZM47.2717 33.0961C47.2717 33.8935 46.6232 34.5418 45.8257 34.5418C45.3467 34.5418 44.9581 34.9304 44.9581 35.4093V45.8188C44.9581 46.6163 44.3097 47.2646 43.5121 47.2646H38.885C38.0874 47.2646 37.439 46.6163 37.439 45.8188V43.5056C37.439 43.3836 37.4096 43.2616 37.3644 43.1577C37.8615 42.4168 37.8909 41.4522 37.4051 40.6705L36.2935 38.895C36.1941 38.7391 36.1783 38.5426 36.2528 38.3867C36.42 38.0343 36.5714 37.6706 36.6979 37.3046C36.7566 37.142 36.9058 37.0155 37.0865 36.9748L39.1222 36.5072C40.1683 36.2632 40.898 35.3438 40.898 34.2753V31.9169C40.898 30.8416 40.1683 29.9222 39.1222 29.6849L37.0865 29.2173C36.908 29.1767 36.7567 29.0502 36.6979 28.8875C36.5646 28.517 36.4155 28.1534 36.246 27.8054C36.1715 27.6496 36.1873 27.453 36.2867 27.2972L37.3983 25.5284C37.9699 24.6157 37.8389 23.4523 37.0752 22.6887L35.4101 21.0239C35.3468 20.9606 35.2768 20.9086 35.2068 20.8499C35.5072 19.7452 36.5262 18.9298 37.7056 18.9298H44.6689C46.0968 18.9298 47.2604 20.0931 47.2604 21.5209V33.0963L47.2717 33.0961ZM25.0035 26.4455C21.3366 26.4455 18.352 29.4297 18.352 33.0961C18.352 36.7624 21.3366 39.7466 25.0035 39.7466C28.6704 39.7466 31.6551 36.7624 31.6551 33.0961C31.6551 29.4297 28.6704 26.4455 25.0035 26.4455ZM25.0035 38.0117C22.29 38.0117 20.0872 35.8092 20.0872 33.0961C20.0872 30.383 22.29 28.1805 25.0035 28.1805C27.717 28.1805 29.9199 30.383 29.9199 33.0961C29.9199 35.8092 27.717 38.0117 25.0035 38.0117ZM8.8831 16.6143C11.9129 16.6143 14.3778 14.1497 14.3778 11.1204C14.3778 8.09104 11.9129 5.62646 8.8831 5.62646C5.8533 5.62646 3.38836 8.09104 3.38836 11.1204C3.38836 14.1497 5.8533 16.6143 8.8831 16.6143ZM8.8831 7.36139C10.9527 7.36139 12.6427 9.05114 12.6427 11.1204C12.6427 13.1896 10.9527 14.8794 8.8831 14.8794C6.81355 14.8794 5.12354 13.1896 5.12354 11.1204C5.12354 9.05114 6.80679 7.36139 8.8831 7.36139ZM41.2732 16.6143C44.303 16.6143 46.7679 14.1497 46.7679 11.1204C46.7679 8.09104 44.303 5.62646 41.2732 5.62646C38.2434 5.62646 35.7784 8.09104 35.7784 11.1204C35.7784 14.1497 38.2434 16.6143 41.2732 16.6143ZM41.2732 7.36139C43.3427 7.36139 45.0327 9.05114 45.0327 11.1204C45.0327 13.1896 43.3427 14.8794 41.2732 14.8794C39.2036 14.8794 37.5136 13.1896 37.5136 11.1204C37.5136 9.05114 39.1968 7.36139 41.2732 7.36139ZM25.0781 11.9878C28.1079 11.9878 30.5729 9.52327 30.5729 6.49392C30.5729 3.46457 28.1079 1 25.0781 1C22.0483 1 19.5834 3.46457 19.5834 6.49392C19.5834 9.52327 22.0483 11.9878 25.0781 11.9878ZM25.0781 2.73492C27.1477 2.73492 28.8377 4.42468 28.8377 6.49392C28.8377 8.56317 27.1477 10.2529 25.0781 10.2529C23.0086 10.2529 21.3186 8.56317 21.3186 6.49392C21.3186 4.42468 23.0018 2.73492 25.0781 2.73492Z" fill="url(#paint0_linear_1456_825)" stroke="url(#paint1_linear_1456_825)" stroke-width="0.5"/>
<defs>
<linearGradient id="paint0_linear_1456_825" x1="25" y1="1" x2="25" y2="49" gradientUnits="userSpaceOnUse">
<stop stop-color="#63388B"/>
<stop offset="1" stop-color="#327EB2"/>
</linearGradient>
<linearGradient id="paint1_linear_1456_825" x1="25" y1="1" x2="25" y2="49" gradientUnits="userSpaceOnUse">
<stop stop-color="#63388B"/>
<stop offset="1" stop-color="#327EB2"/>
</linearGradient>
</defs>
</svg>
