<svg width="58" height="57" viewBox="0 0 58 57" fill="none" xmlns="http://www.w3.org/2000/svg">
<path d="M1.2335 55.8061C1.36251 55.9318 1.53797 56.0022 1.72116 55.9997H9.93151C10.1457 55.9997 10.3469 55.8991 10.4734 55.7331C10.6024 55.8966 10.7985 55.9972 11.01 55.9997H19.2204C19.4939 55.9997 19.739 55.8413 19.8474 55.5974C19.9583 55.3534 19.9067 55.0693 19.7209 54.8731L16.5706 51.5814V21.976H23.4519C24.3292 21.976 25.0542 21.3122 25.1084 20.4597H32.9264C32.9935 21.2971 33.7082 21.9433 34.57 21.9484H41.4514V51.5891L38.301 54.8758L38.2984 54.8733C38.1126 55.072 38.0636 55.3586 38.1746 55.6026C38.2881 55.849 38.5384 56.0049 38.8144 55.9999H47.0248C47.2364 56.0024 47.435 55.9068 47.5666 55.7459C47.6982 55.9068 47.8943 55.9999 48.1033 55.9999H56.3137C56.4943 55.9999 56.6697 55.9295 56.7987 55.8037C56.9278 55.678 57 55.507 57 55.331V11.3665C56.9974 9.37234 55.3384 7.7554 53.2923 7.75289H50.5392V3.91549C50.5366 2.32617 49.2259 1.03363 47.5952 1.01354H45.5311C44.3906 0.88529 43.3611 1.68247 43.2295 2.79393C43.0979 3.90294 43.9159 4.90882 45.0563 5.03705V6.8954V6.89289C45.0563 7.19465 45.1208 7.49139 45.2498 7.76551H45.1517C43.1031 7.76551 41.4414 9.38244 41.4363 11.3791V16.2074H39.1115L38.7813 15.9659V6.65135C38.7839 5.69073 38.3917 4.76783 37.695 4.08634C36.9984 3.40737 36.0515 3.02516 35.0658 3.02516H22.9702C20.9216 3.02516 19.2574 4.6421 19.2548 6.63879V15.9534L18.9245 16.1948H16.5714V11.3666C16.5688 9.36989 14.9046 7.75295 12.8559 7.75295H12.7604C12.8869 7.47885 12.954 7.18212 12.9514 6.88033V5.03705C14.0918 4.91634 14.9175 3.918 14.7937 2.80654C14.6698 1.69509 13.6455 0.892831 12.5051 1.01354H10.4409C8.79732 1.01605 7.46596 2.31361 7.46081 3.91549V7.74536H4.70773H4.71031C2.66162 7.74787 1.00515 9.3648 1 11.359V55.3312C1.00774 55.5147 1.09288 55.6857 1.2348 55.8064L1.2335 55.8061ZM15.1951 51.3073L11.6163 51.9787L9.43606 30.5183C9.43606 30.1486 9.12644 29.8468 8.74714 29.8468C8.36783 29.8468 8.0582 30.1486 8.0582 30.5183L5.9605 51.3073L2.41017 51.9762V25.6174H15.1947L15.1951 51.3073ZM2.41056 54.6593V53.319L6.34533 52.5621L8.37592 54.6593H2.41056ZM7.31036 51.614L8.75526 37.3985L10.324 52.7882V54.7522L7.31036 51.614ZM17.6311 54.6593H11.6992V53.319L15.6418 52.5621L17.6311 54.6593ZM55.6194 51.9761L52.069 51.3047L49.9687 30.5183C49.9687 30.1486 49.6617 29.8468 49.2798 29.8468C48.9005 29.8468 48.5935 30.1486 48.5935 30.5183L46.4183 51.9761L42.8396 51.3047V25.6173H55.6241L55.6194 51.9761ZM40.3988 54.6593L42.3933 52.5797L46.3358 53.319V54.6593L40.3988 54.6593ZM47.7135 54.7599L47.7109 52.8563L49.2797 37.4337L50.7246 51.6441L47.7135 54.7599ZM49.659 54.6593L51.6534 52.5797L55.6243 53.319V54.6593L49.659 54.6593ZM46.4595 5.07678H49.2126V6.87983C49.2151 7.10615 49.1248 7.32241 48.9597 7.48084C48.7946 7.63926 48.5701 7.72476 48.3379 7.71722H47.2981C46.8337 7.71471 46.4595 7.34505 46.4595 6.89243L46.4595 5.07678ZM47.5406 9.06006H48.3378C48.6268 9.05754 48.9106 9.00222 49.1764 8.89157V9.86475C49.1764 10.3048 48.81 10.6619 48.3584 10.6619C47.9069 10.6619 47.5405 10.3048 47.5405 9.86475L47.5406 9.06006ZM44.8417 3.02479C44.8417 2.65262 45.1513 2.35334 45.5307 2.35334H47.5948C48.4076 2.35586 49.0913 2.94932 49.1842 3.73389H45.5307C45.3397 3.73389 45.1591 3.65845 45.0301 3.52517C44.8985 3.38937 44.8314 3.20836 44.8417 3.02479ZM42.8395 11.366C42.8447 10.1087 43.8896 9.09276 45.1798 9.09276H46.1628V9.86476C46.1628 11.0441 47.1459 12.0022 48.3586 12.0022C49.5712 12.0022 50.5543 11.0441 50.5543 9.86476V9.09276H53.3074H53.3048C54.5949 9.09276 55.6372 10.1112 55.6372 11.366V24.2741H42.8395V21.9757H48.2837C49.2719 21.9706 50.2189 21.5884 50.9181 20.9095L54.3575 17.5222C54.6258 17.2607 54.6258 16.8382 54.3575 16.5766C54.2285 16.4509 54.053 16.378 53.8698 16.378C53.6866 16.378 53.5112 16.4509 53.3822 16.5766L52.007 17.9169L49.7751 15.7643L51.1503 14.3888L51.1529 14.3913C51.4187 14.1273 51.4187 13.7023 51.1477 13.4407C50.8794 13.1817 50.4433 13.1817 50.175 13.4458L47.6025 15.9604C47.4477 16.1113 47.2362 16.1968 47.0168 16.1943H42.8395L42.8395 11.366ZM47.0504 17.5345C47.6361 17.5396 48.196 17.3107 48.6063 16.9059L48.8049 16.7122L51.0342 18.8975L49.948 19.9637C49.5094 20.3912 48.9108 20.6326 48.2889 20.6326H34.5288C34.374 20.6326 34.2476 20.5094 34.2476 20.3585C34.2476 20.2604 34.3018 20.1699 34.3921 20.1247L36.9181 18.7164H36.9155C37.1967 18.5756 37.3438 18.2688 37.2741 17.9721L36.869 16.3828V16.3149C36.869 16.2872 36.931 16.3149 36.9439 16.3149L38.4378 17.4088C38.5694 17.5018 38.7345 17.5471 38.8971 17.5345L47.0504 17.5345ZM31.3576 4.3651V8.99214C31.3576 9.0198 31.3421 9.04243 31.3163 9.05249C31.2957 9.06758 31.2673 9.06758 31.2466 9.05249L29.4302 7.7172C29.1851 7.53866 28.8496 7.53866 28.6045 7.7172L26.7881 9.05751H26.7184V9.06003C26.6926 9.04997 26.6771 9.02482 26.6771 8.99968V4.3651L31.3576 4.3651ZM22.9695 4.3651H25.302V8.99214C25.2994 9.36683 25.4516 9.72641 25.7251 9.993C25.9986 10.257 26.3676 10.4029 26.7546 10.4004C27.072 10.4104 27.3842 10.3149 27.6423 10.1313L29.0175 9.10527L30.3927 10.1313C30.8313 10.4532 31.417 10.5035 31.9073 10.2646C32.3949 10.0257 32.7045 9.53784 32.7045 9.00474V4.36514H35.037C36.3271 4.36514 37.3747 5.38107 37.3772 6.6384V15.0202C36.9541 14.8794 36.4896 14.9397 36.1182 15.1811C35.6099 15.5105 35.3673 16.1141 35.5118 16.69L35.8214 17.7763L33.7573 18.9356V18.9381C33.667 18.9859 33.5844 19.0463 33.5096 19.1192H24.5641H24.5666C24.4918 19.0463 24.4093 18.9859 24.3189 18.9381L22.2548 17.7788L22.536 16.6799V16.6774C22.6805 16.1016 22.438 15.4955 21.9297 15.1686C21.5607 14.9246 21.0937 14.8668 20.6706 15.0076V6.65159C20.668 5.40682 21.6898 4.38776 22.9695 4.3651ZM19.0683 17.5345C19.2412 17.5547 19.4167 17.5094 19.556 17.4088L21.0499 16.3149H21.1247C21.1996 16.3149 21.1247 16.3677 21.1247 16.3828L20.7609 17.9721C20.6861 18.2638 20.8229 18.5681 21.0912 18.7165L23.6172 20.1247C23.7049 20.17 23.7591 20.2605 23.7617 20.3586C23.7617 20.5094 23.6352 20.6327 23.4778 20.6327H9.75143C9.1296 20.6327 8.53355 20.3912 8.09496 19.9637L7.00099 18.8975L9.24315 16.7123L9.44182 16.9059C9.85207 17.3108 10.412 17.5396 10.9977 17.5346L19.0683 17.5345ZM9.69678 7.71717C9.23235 7.71465 8.85824 7.345 8.85824 6.89238V5.07678H11.5752V6.87983C11.5778 7.0986 11.4926 7.31236 11.3352 7.46826C11.1778 7.62669 10.9611 7.71722 10.7366 7.71722L9.69678 7.71717ZM8.85824 8.87897C9.12399 8.9871 9.40781 9.04493 9.69678 9.04493H10.494V9.8647C10.494 10.3048 10.1276 10.6619 9.6761 10.6619C9.22456 10.6619 8.85817 10.3048 8.85817 9.8647L8.85824 8.87897ZM10.4399 2.35315H12.504C12.8962 2.35315 13.2136 2.66246 13.2136 3.04468C13.2136 3.4244 12.8962 3.7337 12.504 3.7337H8.87112C8.964 2.95668 9.63482 2.3657 10.4399 2.35315ZM4.74282 9.0927H7.4959V9.8647C7.4959 11.0441 8.47896 12.0022 9.68905 12.0022C10.9017 12.0022 11.8848 11.0441 11.8848 9.8647V9.0927H12.8678C14.1579 9.0927 15.2055 10.1086 15.2081 11.3659V16.1942H10.9843C10.765 16.1967 10.5535 16.1112 10.3986 15.9603L7.82621 13.4456C7.54755 13.1816 7.10373 13.1866 6.83542 13.4582C6.5645 13.7298 6.56967 14.1598 6.84832 14.4239L8.22354 15.7994L5.98138 17.9846L4.60616 16.6443C4.47716 16.5161 4.29912 16.4457 4.11593 16.4457C3.93274 16.4457 3.75728 16.5161 3.62827 16.6443C3.36252 16.9058 3.36252 17.3283 3.62827 17.5899L7.06764 20.9772V20.9746C7.7927 21.6436 8.75766 22.0032 9.75103 21.9755H15.2133V24.2764L2.41026 24.2739V11.3658C2.41026 10.111 3.45532 9.0927 4.74282 9.0927Z" fill="url(#paint0_linear_1456_828)" stroke="url(#paint1_linear_1456_828)" stroke-width="0.5"/>
<defs>
<linearGradient id="paint0_linear_1456_828" x1="29" y1="1" x2="29" y2="56" gradientUnits="userSpaceOnUse">
<stop stop-color="#63388B"/>
<stop offset="1" stop-color="#327EB2"/>
</linearGradient>
<linearGradient id="paint1_linear_1456_828" x1="29" y1="1" x2="29" y2="56" gradientUnits="userSpaceOnUse">
<stop stop-color="#63388B"/>
<stop offset="1" stop-color="#327EB2"/>
</linearGradient>
</defs>
</svg>
