<svg width="55" height="58" viewBox="0 0 55 58" fill="none" xmlns="http://www.w3.org/2000/svg">
<path fill-rule="evenodd" clip-rule="evenodd" d="M30.1838 16.2447C30.1838 16.7143 29.8115 17.0941 29.3512 17.0941C28.8909 17.0941 28.5186 16.7144 28.5186 16.2447C28.5186 15.4185 26.8585 15.4185 26.8585 16.2447C26.8585 16.5552 26.9214 16.7297 27.1955 16.817L28.6947 17.302C29.6807 17.6202 30.1938 18.4773 30.1938 19.4934C30.1938 20.6687 29.4518 21.4 28.5262 21.6823V22.1981C28.5262 22.6677 28.1539 23.0475 27.6936 23.0475C27.2332 23.0475 26.861 22.6677 26.861 22.1981V21.6771C25.9403 21.3923 25.2059 20.661 25.2059 19.4908C25.2059 19.0212 25.5781 18.6414 26.0385 18.6414C26.4988 18.6414 26.8711 19.0212 26.8711 19.4908C26.8711 20.3171 28.5312 20.3171 28.5312 19.4908C28.5312 19.1803 28.4683 19.0058 28.1941 18.9186L26.695 18.4336C25.709 18.1154 25.1959 17.2583 25.1959 16.2422C25.1959 15.0669 25.9379 14.3356 26.8635 14.0533V13.44C26.8635 12.9704 27.2358 12.5906 27.6961 12.5906C28.1564 12.5906 28.5287 12.9704 28.5287 13.44V14.0559C29.4493 14.3407 30.1838 15.0721 30.1838 16.2422V16.2447ZM4.14004 6.85269L9.32419 12.1415C9.64868 12.4725 9.64868 13.0088 9.32419 13.3398L8.142 14.5459L16.0553 15.1977L15.4164 7.12472L14.2342 8.33076C13.9097 8.6618 13.384 8.6618 13.0595 8.33076L7.87536 3.042L4.14004 6.85269ZM7.55841 12.7419L2.37425 7.45312C2.04977 7.12209 2.04977 6.58578 2.37425 6.25476L7.28171 1.24827C7.60619 0.917242 8.13189 0.917242 8.45637 1.24827L13.6405 6.53704L15.5069 4.63301C15.9999 4.13006 16.8652 4.43799 16.923 5.16676C17.0085 6.25739 17.8009 16.0034 17.7858 16.1959C17.7506 16.6629 17.3506 17.0119 16.8928 16.976L6.24286 16.0984C5.49326 16.0522 5.19647 15.1566 5.69199 14.6511L7.55836 12.7471L7.55841 12.7419ZM21.6998 53.4226C21.2395 53.4226 20.8672 53.0428 20.8672 52.5732C20.8672 52.1036 21.2394 51.7238 21.6998 51.7238H33.3034C33.7637 51.7238 34.136 52.1036 34.136 52.5732C34.136 53.0428 33.7637 53.4226 33.3034 53.4226H21.6998ZM16.2616 51.1516C15.8013 51.1516 15.429 50.7718 15.429 50.3022C15.429 49.8326 15.8012 49.4528 16.2616 49.4528H38.7386C39.1989 49.4528 39.5712 49.8326 39.5712 50.3022C39.5712 50.7718 39.199 51.1516 38.7386 51.1516H16.2616ZM44.4664 45.6294C44.5544 45.5267 44.6098 45.4395 44.6098 45.2598V21.0949C44.6098 20.9229 44.5142 20.7279 44.3633 20.7279H41.3725C43.3119 23.4224 43.0276 27.1561 40.7135 29.5169C40.2155 30.025 39.6344 30.4561 38.998 30.782L36.206 36.3838C36.0802 36.6892 35.7834 36.9047 35.4388 36.9047H20.5306C20.5306 36.9047 20.3645 37.1049 20.3645 37.4359C20.3645 37.7695 20.5306 37.9671 20.5306 37.9671H37.748C38.2083 37.9671 38.5806 38.3469 38.5806 38.8165C38.5806 39.2861 38.2083 39.6659 37.748 39.6659H20.5306C18.9408 39.6659 18.1284 37.3846 19.1597 35.9605C19.4942 35.4986 19.9772 35.2112 20.5306 35.2112H21.5644L16.9613 24.5618C16.8028 24.1948 15.7791 24.3411 15.2861 24.3411C14.8258 24.3411 14.4535 23.9613 14.4535 23.4917C14.4535 23.0221 14.8257 22.6423 15.2861 22.6423C16.4482 22.6423 17.824 22.3574 18.4805 23.8766L19.4314 26.0758H29.5153C29.46 25.7961 29.4222 25.5086 29.4021 25.2161L29.1657 25.2674V25.27C25.6341 25.9937 22.1604 24.0434 20.8145 20.728H10.7106C10.5597 20.728 10.4641 20.923 10.4641 21.0949V45.2599C10.4641 45.46 10.5798 45.7012 10.7785 45.7012H44.2984C44.3612 45.7012 44.4216 45.673 44.4694 45.6294L44.4664 45.6294ZM39.5992 19.0318C38.3013 18.1798 36.7267 17.8078 35.1369 18.0233C35.2652 13.7867 31.8921 10.2302 27.6937 10.2302C23.1108 10.2302 19.6195 14.413 20.3413 19.0343H10.7075C9.6309 19.0343 8.79578 19.9992 8.79578 21.0974V45.2624C8.79578 45.5395 8.84609 45.8039 8.93664 46.0476L1.64477 53.2843C0.311644 54.6084 1.18698 57 2.98041 57H52.0196C53.808 57 54.6859 54.6186 53.3628 53.292L46.1314 46.0507C46.222 45.8069 46.2723 45.5401 46.2723 45.2604V21.0954C46.2723 19.9971 45.4372 19.0323 44.3606 19.0323L39.5992 19.0318ZM52.1983 54.4952L44.9766 47.2638C44.7628 47.351 44.5339 47.3972 44.2925 47.3972H10.7778C10.5363 47.3972 10.3049 47.351 10.0911 47.2638L2.8044 54.4952C2.54532 54.7518 2.68114 55.301 2.98298 55.301H52.0222C52.324 55.301 52.4598 54.757 52.2008 54.4978L52.1983 54.4952ZM23.3773 35.2086L20.1601 27.7669H30.0857C31.3207 30.2766 33.9744 31.7932 36.7993 31.4544L34.9279 35.2086L23.3773 35.2086ZM32.2764 40.3716C34.3541 40.3716 35.403 42.948 33.9315 44.4466C32.46 45.9478 29.9371 44.8777 29.9371 42.7581C29.9371 41.4391 30.986 40.369 32.2789 40.369L32.2764 40.3716ZM32.7543 42.2705C33.0184 42.54 33.0184 42.9787 32.7543 43.2482C32.3292 43.6819 31.5972 43.374 31.5972 42.7606C31.5972 42.1473 32.3292 41.8394 32.7543 42.2731V42.2705ZM24.9943 40.3716C27.072 40.3716 28.1209 42.948 26.6494 44.4466C25.1779 45.9478 22.655 44.8777 22.655 42.7581C22.655 41.4391 23.7039 40.369 24.9968 40.369L24.9943 40.3716ZM25.4722 42.2705C25.7363 42.54 25.7363 42.9787 25.4722 43.2482C25.0471 43.6819 24.3151 43.374 24.3151 42.7606C24.3151 42.1473 25.0471 41.8394 25.4722 42.2731V42.2705ZM33.4383 18.4931C33.8282 15.0135 31.1543 11.9264 27.6882 11.9264C24.4937 11.9264 21.9054 14.567 21.9054 17.826C21.9054 21.5597 25.2583 24.3413 28.8328 23.61V23.6125C29.0566 23.5664 29.278 23.5073 29.4994 23.4304C29.9245 21.2081 31.4161 19.3605 33.4359 18.4932L33.4383 18.4931ZM39.5305 21.1465C41.4723 23.1275 41.4723 26.3377 39.5305 28.3188C37.5886 30.2998 34.4419 30.2998 32.5 28.3188C30.5581 26.3378 30.5582 23.1276 32.5 21.1465C34.4419 19.1654 37.5886 19.1655 39.5305 21.1465ZM36.8465 28.1979V28.5752C36.8465 29.0448 36.4743 29.4246 36.014 29.4246C35.5536 29.4246 35.1813 29.0448 35.1813 28.5752V28.1954C34.3689 27.9182 33.7275 27.2536 33.7275 26.2015C33.7275 25.7319 34.0997 25.3521 34.5601 25.3521C35.0204 25.3521 35.3927 25.7319 35.3927 26.2015C35.3927 26.7866 36.6453 26.7866 36.6453 26.2015C36.6453 25.9628 36.6101 25.8576 36.4215 25.7986L35.1059 25.3726C34.1978 25.0801 33.72 24.2846 33.72 23.3505C33.72 22.2933 34.3639 21.6312 35.1839 21.3541V20.8922C35.1839 20.4226 35.5562 20.0428 36.0165 20.0428C36.4768 20.0428 36.8491 20.4226 36.8491 20.8922V21.3566C37.6615 21.6338 38.303 22.301 38.303 23.3505C38.303 23.8201 37.9307 24.1999 37.4704 24.1999C37.01 24.1999 36.6378 23.8202 36.6378 23.3505C36.6378 22.7655 35.3851 22.7655 35.3851 23.3505C35.3851 23.5892 35.4203 23.6944 35.609 23.7534L36.9245 24.1794C37.8326 24.4719 38.3105 25.2674 38.3105 26.2015C38.3105 27.2587 37.6665 27.9208 36.8465 28.1979Z" fill="url(#paint0_linear_1456_830)" stroke="url(#paint1_linear_1456_830)" stroke-width="0.5"/>
<defs>
<linearGradient id="paint0_linear_1456_830" x1="27.5" y1="1" x2="27.5" y2="57" gradientUnits="userSpaceOnUse">
<stop stop-color="#63388B"/>
<stop offset="1" stop-color="#327EB2"/>
</linearGradient>
<linearGradient id="paint1_linear_1456_830" x1="27.5" y1="1" x2="27.5" y2="57" gradientUnits="userSpaceOnUse">
<stop stop-color="#63388B"/>
<stop offset="1" stop-color="#327EB2"/>
</linearGradient>
</defs>
</svg>
