<svg width="62" height="56" viewBox="0 0 62 56" fill="none" xmlns="http://www.w3.org/2000/svg">
<path d="M45.458 12.5218H20.1198L19.0213 8.9634C18.883 8.51052 18.465 8.20109 17.9878 8.20109H13.6504C13.0518 8.20109 12.5661 8.68492 12.5661 9.28126C12.5661 9.8776 13.0518 10.3614 13.6504 10.3614H17.1858L22.6301 27.9897L21.2916 31.9785C21.1843 32.3104 21.2351 32.6704 21.4441 32.9518C21.6474 33.2331 21.9721 33.399 22.3251 33.399H22.8899C22.7657 33.7366 22.6866 34.0966 22.6866 34.4792C22.6866 36.2654 24.1465 37.7197 25.9396 37.7197C27.7328 37.7197 29.1926 36.2654 29.1926 34.4792C29.1926 34.0966 29.1136 33.7366 28.9893 33.399H35.8936C35.7693 33.7366 35.6902 34.0966 35.6902 34.4792C35.6902 36.2654 37.1501 37.7197 38.9433 37.7197C40.7364 37.7197 42.1963 36.2654 42.1963 34.4792C42.1963 33.9813 42.072 33.5144 41.8716 33.0896C42.0749 32.8955 42.1963 32.6226 42.1963 32.3188C42.1963 31.7225 41.7106 31.2387 41.112 31.2387L23.8275 31.2359L24.5504 29.0755H41.1206C41.5979 29.0755 42.0242 28.7661 42.1626 28.3048L46.5 13.9026C46.6016 13.5791 46.5367 13.2191 46.3334 12.9462C46.1244 12.679 45.7968 12.5218 45.458 12.5218ZM27.0241 34.4851C27.0241 35.0814 26.5385 35.5653 25.9398 35.5653C25.3412 35.5653 24.8555 35.0814 24.8555 34.4851C24.8555 33.8888 25.3412 33.4049 25.9398 33.4049C26.5385 33.4049 27.0241 33.8888 27.0241 34.4851ZM38.9519 35.5653C38.3533 35.5653 37.8676 35.0814 37.8676 34.4851C37.8676 33.8888 38.3533 33.4049 38.9519 33.4049C39.5506 33.4049 40.0363 33.8888 40.0363 34.4851C40.0363 35.0814 39.5506 35.5653 38.9519 35.5653ZM40.3102 26.9239H24.5727L20.7916 14.6821H44.0031L40.3102 26.9239ZM57.8628 1H4.13722C2.40343 1 1 2.40364 1 4.12513V41.7933C1 43.5205 2.40907 44.9185 4.13722 44.9185H24.1325V52.8397H19.4337C18.835 52.8397 18.3493 53.3235 18.3493 53.9198C18.3493 54.5162 18.835 55 19.4337 55H42.5663C43.165 55 43.6507 54.5162 43.6507 53.9198C43.6507 53.3235 43.165 52.8397 42.5663 52.8397H37.8675V44.9185H57.8628C59.5966 44.9185 61 43.5148 61 41.7933V4.12513C61 2.40364 59.5909 1 57.8628 1ZM35.6988 52.8479H26.3012V44.9267H35.6988V52.8479ZM57.8628 42.7663H4.13722C3.60352 42.7663 3.16868 42.3332 3.16868 41.8015V36.2854H15.0965C15.6951 36.2854 16.1808 35.8015 16.1808 35.2052C16.1808 34.6089 15.6951 34.125 15.0965 34.125H3.16868V4.12528C3.16868 3.59363 3.60355 3.16047 4.13722 3.16047H57.8548C58.3885 3.16047 58.8234 3.59366 58.8234 4.12528V34.125H48.3501C47.7514 34.125 47.2657 34.6089 47.2657 35.2052C47.2657 35.8015 47.7514 36.2854 48.3501 36.2854H58.832V41.8015C58.832 42.3332 58.3964 42.7663 57.8628 42.7663Z" fill="url(#paint0_linear_1456_829)" stroke="url(#paint1_linear_1456_829)" stroke-width="0.5"/>
<defs>
<linearGradient id="paint0_linear_1456_829" x1="31" y1="1" x2="31" y2="55" gradientUnits="userSpaceOnUse">
<stop stop-color="#63388B"/>
<stop offset="1" stop-color="#327EB2"/>
</linearGradient>
<linearGradient id="paint1_linear_1456_829" x1="31" y1="1" x2="31" y2="55" gradientUnits="userSpaceOnUse">
<stop stop-color="#63388B"/>
<stop offset="1" stop-color="#327EB2"/>
</linearGradient>
</defs>
</svg>
