<svg width="539" height="539" viewBox="0 0 539 539" fill="none" xmlns="http://www.w3.org/2000/svg">
<g clip-path="url(#clip0_1456_860)">
<path d="M478.634 376.48H284.139C282.467 376.477 280.865 375.811 279.682 374.629C278.5 373.447 277.835 371.844 277.832 370.173V86.8088C277.838 85.1388 278.504 83.539 279.686 82.3592C280.868 81.1793 282.469 80.5154 284.139 80.5126H478.634C480.304 80.5154 481.905 81.1793 483.087 82.3592C484.269 83.539 484.935 85.1388 484.941 86.8088V370.173C484.938 371.844 484.273 373.447 483.091 374.629C481.909 375.811 480.306 376.477 478.634 376.48ZM284.139 80.7816C283.343 80.776 282.555 80.9276 281.818 81.2278C281.081 81.528 280.411 81.9709 279.846 82.531C279.28 83.0911 278.832 83.7574 278.525 84.4915C278.218 85.2257 278.059 86.0132 278.058 86.8088V370.173C278.058 371.774 278.694 373.31 279.827 374.442C280.959 375.574 282.495 376.211 284.096 376.211H478.634C480.235 376.211 481.771 375.574 482.904 374.442C484.036 373.31 484.672 371.774 484.672 370.173V86.8088C484.672 85.2075 484.036 83.6717 482.904 82.5394C481.771 81.407 480.235 80.7709 478.634 80.7709L284.139 80.7816Z" fill="#F0F0F0"/>
<path d="M254.306 376.48H59.768C58.0961 376.477 56.4935 375.812 55.3114 374.63C54.1292 373.448 53.4638 371.845 53.4609 370.173V86.8093C53.4638 85.1375 54.1292 83.5349 55.3114 82.3527C56.4935 81.1706 58.0961 80.5052 59.768 80.5023H254.306C255.978 80.5052 257.581 81.1706 258.763 82.3527C259.945 83.5349 260.61 85.1375 260.613 86.8093V370.173C260.61 371.845 259.945 373.448 258.763 374.63C257.581 375.812 255.978 376.477 254.306 376.48ZM59.768 80.7822C58.1685 80.7822 56.6343 81.4168 55.5023 82.5468C54.3703 83.6768 53.7329 85.2098 53.73 86.8093V370.173C53.73 371.775 54.3661 373.31 55.4985 374.443C56.6308 375.575 58.1666 376.211 59.768 376.211H254.306C255.907 376.211 257.443 375.575 258.576 374.443C259.708 373.31 260.344 371.775 260.344 370.173V86.8093C260.344 85.208 259.708 83.6722 258.576 82.5399C257.443 81.4075 255.907 80.7714 254.306 80.7714L59.768 80.7822Z" fill="#F0F0F0"/>
<path d="M538.993 442.208H0.851562V442.477H538.993V442.208Z" fill="#E0E0E0"/>
<path d="M242.444 339.951L249.504 346.947L250.473 347.915L201.556 397.371L185.735 381.377L125.57 442.209H136.764L185.735 392.689L201.556 408.682L256.113 353.512L256.532 353.932L263.593 360.928L268.727 334.247L242.444 339.951Z" fill="#F0F0F0"/>
<path d="M145.785 159.641L152.845 166.637L153.814 167.595L104.897 217.061L89.0756 201.056L53.7305 236.811V248.122L89.0756 212.379L104.897 228.373L159.454 173.202L159.884 173.622L166.934 180.618L172.068 153.937L145.785 159.641Z" fill="#F0F0F0"/>
<path d="M89.8803 145.284C89.8817 145.48 89.8443 145.675 89.7703 145.856C89.6963 146.038 89.5872 146.203 89.4491 146.342C89.311 146.481 89.1468 146.591 88.9659 146.666C88.785 146.742 88.591 146.781 88.395 146.78H84.0899V151.086C84.0899 151.48 83.9334 151.857 83.6549 152.136C83.3763 152.414 82.9985 152.571 82.6046 152.571C82.2107 152.571 81.8329 152.414 81.5544 152.136C81.2758 151.857 81.1194 151.48 81.1194 151.086V146.78H76.8142C76.6078 146.798 76.4 146.773 76.204 146.706C76.008 146.639 75.828 146.532 75.6754 146.392C75.5228 146.251 75.4011 146.081 75.3177 145.892C75.2344 145.702 75.1914 145.497 75.1914 145.29C75.1914 145.083 75.2344 144.878 75.3177 144.688C75.4011 144.498 75.5228 144.328 75.6754 144.188C75.828 144.048 76.008 143.941 76.204 143.874C76.4 143.807 76.6078 143.782 76.8142 143.799H81.1194V139.494C81.1194 139.1 81.2758 138.722 81.5544 138.444C81.8329 138.165 82.2107 138.009 82.6046 138.009C82.9985 138.009 83.3763 138.165 83.6549 138.444C83.9334 138.722 84.0899 139.1 84.0899 139.494V143.799H88.395C88.5901 143.799 88.7832 143.838 88.9634 143.912C89.1436 143.987 89.3073 144.096 89.4453 144.234C89.5832 144.372 89.6926 144.536 89.7672 144.716C89.8419 144.896 89.8803 145.089 89.8803 145.284Z" fill="#F0F0F0"/>
<path d="M455.473 248.122C455.473 248.516 455.317 248.894 455.038 249.172C454.76 249.451 454.382 249.607 453.988 249.607H449.683V253.912C449.683 254.306 449.526 254.684 449.248 254.963C448.969 255.241 448.591 255.398 448.198 255.398C447.804 255.398 447.426 255.241 447.147 254.963C446.869 254.684 446.712 254.306 446.712 253.912V249.607H442.407C442.013 249.607 441.635 249.451 441.357 249.172C441.078 248.894 440.922 248.516 440.922 248.122C440.922 247.728 441.078 247.35 441.357 247.072C441.635 246.793 442.013 246.637 442.407 246.637H446.712V242.331C446.712 241.938 446.869 241.56 447.147 241.281C447.426 241.003 447.804 240.846 448.198 240.846C448.591 240.846 448.969 241.003 449.248 241.281C449.526 241.56 449.683 241.938 449.683 242.331V246.637H453.988C454.382 246.637 454.76 246.793 455.038 247.072C455.317 247.35 455.473 247.728 455.473 248.122Z" fill="#F0F0F0"/>
<path d="M311.638 108.701C311.639 108.897 311.602 109.091 311.528 109.272C311.454 109.454 311.345 109.619 311.207 109.758C311.069 109.897 310.905 110.007 310.724 110.083C310.543 110.158 310.349 110.197 310.153 110.197H305.848V114.502C305.848 114.697 305.809 114.89 305.735 115.07C305.66 115.25 305.551 115.414 305.413 115.552C305.275 115.69 305.111 115.799 304.931 115.874C304.751 115.949 304.557 115.987 304.362 115.987C304.167 115.987 303.974 115.949 303.794 115.874C303.614 115.799 303.45 115.69 303.312 115.552C303.174 115.414 303.065 115.25 302.99 115.07C302.916 114.89 302.877 114.697 302.877 114.502V110.197H298.572C298.366 110.214 298.158 110.189 297.962 110.122C297.766 110.055 297.586 109.948 297.433 109.808C297.281 109.668 297.159 109.497 297.076 109.308C296.992 109.118 296.949 108.913 296.949 108.706C296.949 108.499 296.992 108.294 297.076 108.104C297.159 107.915 297.281 107.744 297.433 107.604C297.586 107.464 297.766 107.357 297.962 107.29C298.158 107.223 298.366 107.198 298.572 107.215H302.877V102.953C302.877 102.758 302.916 102.565 302.99 102.385C303.065 102.205 303.174 102.041 303.312 101.903C303.45 101.765 303.614 101.656 303.794 101.581C303.974 101.506 304.167 101.468 304.362 101.468C304.557 101.468 304.751 101.506 304.931 101.581C305.111 101.656 305.275 101.765 305.413 101.903C305.551 102.041 305.66 102.205 305.735 102.385C305.809 102.565 305.848 102.758 305.848 102.953V107.258H310.153C310.539 107.258 310.911 107.409 311.188 107.678C311.465 107.947 311.627 108.314 311.638 108.701Z" fill="#F0F0F0"/>
<path d="M88.7743 329.78H61.8672V342.157H88.7743V329.78Z" fill="#F5F5F5"/>
<path d="M117.962 329.78H91.0547V342.157H117.962V329.78Z" fill="#F5F5F5"/>
<path d="M103.368 344.31H76.4609V356.687H103.368V344.31Z" fill="#F5F5F5"/>
<path d="M438.684 98.2184H411.777V110.596H438.684V98.2184Z" fill="#F5F5F5"/>
<path d="M467.884 98.2184H440.977V110.596H467.884V98.2184Z" fill="#F5F5F5"/>
<path d="M453.29 112.749H426.383V125.126H453.29V112.749Z" fill="#F5F5F5"/>
<path d="M118.964 275.89H103.078V300.053H118.964V275.89Z" fill="#F5F5F5"/>
<path d="M142.976 261.845H127.09V300.053H142.976V261.845Z" fill="#F5F5F5"/>
<path d="M166.987 240.201H151.102V300.054H166.987V240.201Z" fill="#F5F5F5"/>
<path d="M190.999 217.298H175.113V300.053H190.999V217.298Z" fill="#F5F5F5"/>
<path d="M399.753 343.234H383.867V367.396H399.753V343.234Z" fill="#F5F5F5"/>
<path d="M423.765 329.178H407.879V367.386H423.765V329.178Z" fill="#F5F5F5"/>
<path d="M447.777 307.533H431.891V367.385H447.777V307.533Z" fill="#F5F5F5"/>
<path d="M471.788 284.642H455.902V367.397H471.788V284.642Z" fill="#F5F5F5"/>
<path d="M482.896 486.766C482.896 489.058 388.872 490.92 272.892 490.92C156.912 490.92 62.8984 489.058 62.8984 486.766C62.8984 484.473 156.912 482.622 272.892 482.622C388.872 482.622 482.896 484.473 482.896 486.766Z" fill="#F5F5F5"/>
<path d="M410.312 369.289L417.373 376.296L418.341 377.254L369.424 426.709L353.603 410.716L278.059 487.121H289.241L353.603 422.027L369.424 438.032L423.992 382.851L424.412 383.27L431.472 390.266L436.595 363.596L410.312 369.289Z" fill="#4F549B"/>
<path d="M142.596 482.569L149.689 444.135H101.461L108.554 482.548C108.77 483.726 109.392 484.791 110.313 485.558C111.233 486.325 112.393 486.745 113.591 486.745H137.559C138.754 486.746 139.912 486.329 140.831 485.566C141.751 484.804 142.376 483.744 142.596 482.569Z" fill="#263238"/>
<path d="M144.578 409.392C138.228 407.713 128.531 420.898 125.582 433.749V415.075C128.031 410.931 131.232 407.281 135.021 404.312C142.986 397.855 150.326 389.492 143.965 387.813C138.002 386.241 129.091 397.758 125.582 409.812V385.725C127.057 383.496 128.873 381.513 130.964 379.848C135.99 375.758 140.65 370.506 136.603 369.441C133.127 368.526 127.993 374.693 125.561 381.635V373.843C126.004 370.616 126.877 367.464 128.154 364.468C131.846 356.31 133.837 347.904 128.972 348.539C124.108 349.174 120.933 363.683 123.591 374.833V378.847C121.794 370.689 115.616 362.24 111.58 363.295C107.544 364.35 112.193 369.602 117.219 373.703C119.871 375.742 122.045 378.335 123.591 381.301V400.233C120.707 387.318 110.934 373.993 104.552 375.672C98.1692 377.351 105.531 385.682 113.506 392.183C117.693 395.41 121.133 399.504 123.591 404.183V426.914C120.513 414.236 110.988 401.449 104.724 403.096C98.4598 404.743 103.82 410.856 112.774 418.229C117.218 421.841 120.88 426.319 123.537 431.392V444.135H125.507V437.785C127.995 433.149 131.44 429.095 135.613 425.892C143.599 419.38 150.939 411.071 144.578 409.392Z" fill="#4F549B"/>
<path d="M152.662 442.347H98.4922V447.621H152.662V442.347Z" fill="#263238"/>
<path opacity="0.2" d="M152.662 442.347H98.4922V447.621H152.662V442.347Z" fill="white"/>
<path d="M433.301 198.56C430.266 209.37 423.751 218.878 414.766 225.61C405.78 232.343 394.825 235.924 383.598 235.8H377.291V235.337C374.968 235.02 372.67 234.542 370.414 233.906C359.121 230.736 349.265 223.772 342.506 214.186C335.747 204.6 332.497 192.977 333.305 181.276C334.112 169.574 338.927 158.508 346.939 149.941C354.951 141.375 365.67 135.83 377.291 134.242V133.768H383.598C391.519 133.685 399.351 135.446 406.474 138.912C413.596 142.379 419.815 147.455 424.637 153.74C429.459 160.024 432.752 167.345 434.255 175.122C435.759 182.9 435.432 190.92 433.301 198.55V198.56Z" fill="#4F549B"/>
<path opacity="0.3" d="M433.301 198.56C430.266 209.37 423.751 218.878 414.766 225.61C405.78 232.343 394.825 235.924 383.598 235.8H377.291V235.337C374.968 235.02 372.67 234.542 370.414 233.906C359.121 230.736 349.265 223.772 342.506 214.186C335.747 204.6 332.497 192.977 333.305 181.276C334.112 169.574 338.927 158.508 346.939 149.941C354.951 141.375 365.67 135.83 377.291 134.242V133.768H383.598C391.519 133.685 399.351 135.446 406.474 138.912C413.596 142.379 419.815 147.455 424.637 153.74C429.459 160.024 432.752 167.345 434.255 175.122C435.759 182.9 435.432 190.92 433.301 198.55V198.56Z" fill="#3F3F3F"/>
<path d="M396.989 232.033C423.067 221.381 435.571 191.605 424.918 165.528C414.266 139.45 384.49 126.946 358.413 137.598C332.335 148.251 319.831 178.027 330.484 204.104C341.136 230.181 370.912 242.686 396.989 232.033Z" fill="#4F549B"/>
<path d="M394.239 221.539C414.546 212.404 423.603 188.537 414.468 168.23C405.333 147.924 381.466 138.867 361.159 148.002C340.853 157.136 331.796 181.003 340.931 201.31C350.065 221.617 373.932 230.674 394.239 221.539Z" fill="white"/>
<path d="M407.028 189.13C409.415 172.947 398.231 157.893 382.047 155.506C365.864 153.119 350.81 164.303 348.423 180.486C346.036 196.669 357.221 211.723 373.404 214.11C389.587 216.497 404.641 205.313 407.028 189.13Z" fill="#4F549B"/>
<path d="M396.427 187.63C397.993 177.292 390.881 167.643 380.543 166.077C370.205 164.512 360.556 171.624 358.99 181.961C357.425 192.299 364.537 201.949 374.875 203.514C385.213 205.079 394.862 197.968 396.427 187.63Z" fill="white"/>
<path d="M375.472 192.727C377.04 193.166 378.703 193.131 380.25 192.625C381.798 192.12 383.161 191.167 384.167 189.887C385.173 188.607 385.777 187.058 385.902 185.435C386.028 183.811 385.67 182.187 384.873 180.768C384.076 179.348 382.876 178.197 381.425 177.459C379.974 176.721 378.336 176.43 376.72 176.623C375.103 176.816 373.58 177.483 372.343 178.541C371.105 179.599 370.209 181 369.768 182.567C369.182 184.671 369.453 186.921 370.522 188.825C371.591 190.729 373.371 192.133 375.472 192.727Z" fill="#4F549B"/>
<path d="M320.615 153.377L332.927 151.494L331.054 139.181C331.019 139.008 331.02 138.83 331.056 138.657C331.092 138.484 331.163 138.321 331.264 138.176C331.365 138.031 331.495 137.909 331.645 137.816C331.795 137.723 331.962 137.661 332.137 137.635C332.311 137.609 332.49 137.618 332.66 137.663C332.831 137.708 332.991 137.787 333.13 137.895C333.27 138.003 333.386 138.139 333.471 138.293C333.556 138.448 333.609 138.618 333.627 138.794L335.661 152.097L340.386 155.573L338.75 144.81C338.697 144.468 338.782 144.118 338.987 143.839C339.192 143.559 339.5 143.372 339.842 143.319C340.185 143.267 340.534 143.352 340.814 143.557C341.093 143.762 341.28 144.069 341.333 144.412L343.335 157.769L349.308 162.16L347.683 151.397C347.655 151.229 347.661 151.057 347.701 150.891C347.74 150.725 347.812 150.568 347.912 150.43C348.012 150.292 348.138 150.175 348.284 150.086C348.429 149.997 348.591 149.938 348.759 149.912C349.098 149.862 349.444 149.946 349.721 150.148C349.999 150.349 350.186 150.65 350.245 150.988L352.311 164.302L378.26 183.406C379.885 184.751 378.82 186.452 377.485 186.075L350.492 166.207L337.652 168.165C337.31 168.218 336.96 168.133 336.68 167.928C336.401 167.723 336.214 167.416 336.161 167.073C336.109 166.73 336.194 166.381 336.399 166.101C336.604 165.822 336.911 165.635 337.254 165.582L347.511 164.022L341.537 159.631L328.708 161.579C328.366 161.631 328.016 161.546 327.737 161.341C327.457 161.136 327.27 160.829 327.217 160.486C327.165 160.144 327.25 159.794 327.455 159.515C327.66 159.235 327.967 159.048 328.31 158.996L338.567 157.435L333.842 153.959L321.002 155.907C320.829 155.942 320.651 155.941 320.478 155.905C320.305 155.869 320.141 155.798 319.997 155.697C319.852 155.596 319.73 155.466 319.637 155.316C319.544 155.166 319.482 154.999 319.456 154.824C319.43 154.65 319.439 154.472 319.484 154.301C319.528 154.13 319.607 153.97 319.716 153.831C319.824 153.691 319.96 153.576 320.114 153.49C320.269 153.405 320.439 153.352 320.615 153.334V153.377Z" fill="#263238"/>
<path d="M207.604 487.123H206.527V454.522H244.1V422.406H281.684V390.332H319.257V358.216H356.841V326.154H394.414V294.037H432.525V295.114H395.49V327.187L394.952 327.23H357.917V359.292H320.334V391.366L319.795 391.409H282.76V423.482H245.177V455.544L244.639 455.598H207.604V487.123Z" fill="#263238"/>
<path d="M440.018 294.575L432.527 302.324V286.826L440.018 294.575Z" fill="#263238"/>
<path d="M259.385 162.795C261.968 168.65 264.433 174.634 266.919 180.543L270.589 189.379C271.838 192.264 273.065 195.256 274.324 197.763C274.701 198.689 275.233 199.544 275.895 200.293C276.838 201.347 277.837 202.349 278.887 203.295C281.04 205.383 283.505 207.418 285.926 209.484L300.757 221.786L296.764 228.093C290.802 225.209 285.022 222.13 279.35 218.676C276.498 216.953 273.7 215.135 270.869 213.133C269.374 212.07 267.937 210.927 266.564 209.71C265.701 208.952 264.899 208.128 264.164 207.245L263.572 206.449L263.109 205.76C262.797 205.297 262.582 204.931 262.313 204.501C261.344 202.908 260.526 201.423 259.719 199.927C258.912 198.431 258.137 196.956 257.405 195.471C255.93 192.5 254.488 189.541 253.1 186.559C250.355 180.597 247.783 174.634 245.426 168.499L259.385 162.795Z" fill="#9E6141"/>
<path d="M259.096 161.848L269.137 180.683C266.458 186.975 262.111 192.416 256.566 196.419L249.398 188.131L259.096 161.848Z" fill="#4F549B"/>
<g opacity="0.5">
<path d="M259.096 161.848L269.137 180.683C266.458 186.975 262.111 192.416 256.566 196.419L249.398 188.131L259.096 161.848Z" fill="white"/>
</g>
<path d="M244.315 109.175C241.284 108.942 238.265 109.764 235.77 111.502C233.275 113.24 231.457 115.786 230.625 118.711C227.59 127.73 224.027 132.918 219.862 134.693C213.071 137.621 206.57 143.562 210.714 152C217.268 165.346 245.155 164.001 250.612 158.296C256.068 152.592 250.289 153.991 255.885 148.782C261.482 143.573 267.412 128.806 263.473 118.399C261.277 112.64 252.926 107.259 244.315 109.175Z" fill="#263238"/>
<path d="M256.479 139.461C256.35 140.002 256.064 140.493 255.656 140.871C255.248 141.249 254.737 141.497 254.187 141.584C253.638 141.672 253.075 141.594 252.57 141.361C252.065 141.128 251.64 140.75 251.35 140.275C251.06 139.801 250.917 139.251 250.94 138.695C250.963 138.139 251.15 137.603 251.478 137.153C251.806 136.704 252.26 136.362 252.783 136.172C253.305 135.981 253.872 135.949 254.413 136.081C255.134 136.257 255.756 136.711 256.143 137.345C256.53 137.978 256.651 138.739 256.479 139.461Z" fill="white"/>
<path d="M218.035 433.793L218.606 446.181H225.225L226.732 433.793H218.035Z" fill="#9E6141"/>
<path d="M243.575 454.898C243.575 450.862 241.939 449.656 239.722 449.516C237.505 449.376 229.454 446.653 229.454 446.653C229.454 446.653 227.98 444.092 226.516 443.564C225.052 443.037 223.427 444.576 223.427 444.576L219.316 444.07C219.316 444.07 218.239 442.23 217.239 443.844C215.667 446.352 215.151 453.272 215.086 454.898H243.575Z" fill="#4F549B"/>
<path d="M243.143 453.887H237.977L215.375 453.768C215.084 453.768 215.181 453.338 215.472 453.349H217C217 453.349 217 453.349 217 453.284C217.366 452.853 217.634 452.347 217.785 451.802C217.936 451.257 217.967 450.685 217.875 450.127C217.782 449.569 217.57 449.037 217.251 448.569C216.933 448.102 216.517 447.709 216.031 447.418C215.805 447.289 216.128 446.912 216.343 447.052C218.388 448.322 219.077 450.852 217.42 453.338H220.648L243.25 453.456C243.53 453.467 243.423 453.898 243.143 453.887Z" fill="#3F3F3F"/>
<path d="M228.032 448.44C229.334 447.084 231.089 446.697 232.24 447.719C232.423 447.891 232.735 447.514 232.552 447.353C231.229 446.18 229.184 446.686 227.698 448.225C227.483 448.451 227.817 448.666 228.032 448.44Z" fill="white"/>
<path d="M230.324 449.163C231.626 447.807 233.38 447.419 234.532 448.452C234.715 448.614 235.027 448.237 234.844 448.076C233.52 446.903 231.475 447.408 230.001 448.947C229.785 449.174 230.108 449.389 230.324 449.163Z" fill="white"/>
<path d="M232.638 449.894C233.94 448.527 235.694 448.151 236.846 449.173C237.029 449.335 237.341 448.958 237.147 448.796C235.834 447.623 233.789 448.129 232.304 449.668C232.089 449.894 232.422 450.109 232.638 449.894Z" fill="white"/>
<path d="M250.407 228.975C250.407 228.975 249.858 249.791 247.835 279.033C247.437 284.694 246.985 290.689 246.479 296.91C245.403 309.826 244.068 323.71 242.4 337.809C238.364 371.766 227.095 436.709 227.095 436.709L216.838 436.935C216.838 436.935 206.732 378.815 217.796 338.595C217.096 331.642 216.526 325.12 216.085 318.985C214.718 302.311 214.359 285.569 215.008 268.852C215.008 267.84 215.105 266.85 215.159 265.881C215.256 264.267 215.374 262.706 215.493 261.21C215.676 258.767 215.912 256.485 216.149 254.365C218.463 234.572 222.607 228.868 222.607 228.868L250.407 228.975Z" fill="#263238"/>
<g opacity="0.2">
<path d="M247.836 279.034C247.438 284.695 246.986 290.69 246.48 296.911C236.137 288.548 222.145 273.555 215.16 265.882C215.257 264.267 215.375 262.706 215.494 261.21L247.836 279.034Z" fill="#3F3F3F"/>
</g>
<path d="M275.606 370.807L287.962 370.452C294.56 338.68 312.857 278.172 303.321 268.959C269.87 236.616 206.649 221.344 206.649 221.344C199.018 222.862 193.508 225.229 191.829 232.559C190.096 240.093 191.161 250.285 200.342 256.743C205.949 260.693 212.967 263.308 227.045 269.777C240.794 276.298 255.012 281.781 269.579 286.179C275.316 287.934 277.232 288.504 280.342 289.408C273.863 312.828 275.531 361.702 275.606 370.807Z" fill="#263238"/>
<path d="M277.369 370.023L277.219 381.766H283.827L286.077 370.023H277.369Z" fill="#9E6141"/>
<path d="M289.659 373.747L290.499 369.367H274.505L274.43 373.747H289.659Z" fill="#263238"/>
<path d="M302.188 390.537C302.188 386.49 300.542 385.284 298.335 385.155C296.129 385.026 288.057 382.281 288.057 382.281C288.057 382.281 286.593 379.72 285.119 379.203C283.644 378.687 282.04 380.204 282.04 380.204L277.929 379.709C277.929 379.709 276.853 377.858 275.852 379.472C274.28 381.98 273.764 388.911 273.699 390.537H302.188Z" fill="#4F549B"/>
<path d="M301.756 389.471H296.59L273.988 389.363C273.697 389.363 273.794 388.922 274.085 388.932H275.613C275.606 388.912 275.606 388.889 275.613 388.868C275.979 388.437 276.247 387.931 276.399 387.386C276.55 386.84 276.58 386.269 276.488 385.711C276.396 385.152 276.183 384.621 275.865 384.153C275.546 383.685 275.13 383.293 274.644 383.002C274.418 382.873 274.741 382.496 274.957 382.636C276.991 383.906 277.69 386.435 276.033 388.932H279.262L301.864 389.051C302.144 389.051 302.036 389.481 301.756 389.471Z" fill="#3F3F3F"/>
<path d="M286.645 384.037C287.948 382.67 289.702 382.282 290.854 383.316C291.037 383.477 291.349 383.1 291.155 382.939C289.842 381.766 287.797 382.272 286.312 383.811C286.096 384.037 286.43 384.252 286.645 384.037Z" fill="white"/>
<path d="M288.906 384.758C290.208 383.391 291.963 383.014 293.114 384.037C293.297 384.198 293.609 383.832 293.427 383.66C292.103 382.487 290.058 383.004 288.583 384.543C288.357 384.769 288.691 384.973 288.906 384.758Z" fill="white"/>
<path d="M291.242 385.478C292.555 384.122 294.309 383.734 295.461 384.757C295.644 384.918 295.945 384.552 295.762 384.391C294.449 383.207 292.404 383.724 290.919 385.263C290.703 385.489 291.026 385.704 291.242 385.478Z" fill="white"/>
<path d="M227.883 439.109L228.884 434.74H215.258L215.355 439.109H227.883Z" fill="#263238"/>
<path d="M191.816 227.974C212.739 237.822 250.108 239.943 250.861 234.97C253.014 220.978 250.377 204.608 253.111 195.643C264.616 189.723 257.48 182.243 260.01 171.706C260.93 167.844 260.325 163.776 258.32 160.349C256.315 156.923 253.065 154.402 249.247 153.313C247.417 152.774 245.512 152.236 243.639 151.741L242.499 151.461C237.463 150.266 232.354 149.403 227.205 148.878C225.332 148.652 223.373 148.448 221.339 148.222C219.305 147.996 217.303 147.856 215.409 147.77C213.735 147.678 212.06 147.931 210.488 148.513C208.916 149.095 207.48 149.994 206.27 151.153C205.059 152.312 204.099 153.708 203.45 155.253C202.8 156.798 202.474 158.46 202.493 160.136C202.763 169.703 202.404 179.278 201.417 188.798C201.212 190.767 200.986 192.661 200.728 194.513C199.868 201.048 198.577 207.52 196.864 213.886C196.84 214.006 196.807 214.125 196.767 214.241C196.05 216.767 195.304 219.088 194.529 221.204C194.292 221.872 194.044 222.507 193.786 223.12C193.28 224.39 192.387 226.726 191.816 227.974Z" fill="#4F549B"/>
<g opacity="0.3">
<path d="M191.816 227.974C212.739 237.822 250.108 239.943 250.861 234.97C253.014 220.978 250.377 204.608 253.111 195.643C264.616 189.723 257.48 182.243 260.01 171.706C260.93 167.844 260.325 163.776 258.32 160.349C256.315 156.923 253.065 154.402 249.247 153.313C247.417 152.774 245.512 152.236 243.639 151.741L242.499 151.461C237.463 150.266 232.354 149.403 227.205 148.878C225.332 148.652 223.373 148.448 221.339 148.222C219.305 147.996 217.303 147.856 215.409 147.77C213.735 147.678 212.06 147.931 210.488 148.513C208.916 149.095 207.48 149.994 206.27 151.153C205.059 152.312 204.099 153.708 203.45 155.253C202.8 156.798 202.474 158.46 202.493 160.136C202.763 169.703 202.404 179.278 201.417 188.798C201.212 190.767 200.986 192.661 200.728 194.513C199.868 201.048 198.577 207.52 196.864 213.886C196.84 214.006 196.807 214.125 196.767 214.241C196.05 216.767 195.304 219.088 194.529 221.204C194.292 221.872 194.044 222.507 193.786 223.12C193.28 224.39 192.387 226.726 191.816 227.974Z" fill="white"/>
</g>
<path d="M190.848 164.355C190.848 164.355 199.856 147.436 211.986 148.082C219.735 148.49 218.659 165.108 210.038 177.593C202.009 174.386 196.014 170.533 190.848 164.355Z" fill="#4F549B"/>
<g opacity="0.5">
<path d="M190.848 164.355C190.848 164.355 199.856 147.436 211.986 148.082C219.735 148.49 218.659 165.108 210.038 177.593C202.009 174.386 196.014 170.533 190.848 164.355Z" fill="white"/>
</g>
<path d="M227.258 148.878C231.358 158.673 242.961 165.647 242.961 165.647C245.113 161.74 245.393 155.089 243.703 151.752L242.563 151.472C237.524 150.271 232.411 149.404 227.258 148.878Z" fill="#9E6141"/>
<path d="M243.52 154.496C243.543 154.65 243.591 154.799 243.66 154.938C245.091 157.951 242.853 160.319 239.828 159.684C239.536 159.63 239.248 159.555 238.967 159.458C237.894 159.102 236.957 158.421 236.287 157.51C234.244 154.707 231.988 152.066 229.539 149.61C234.425 147.705 237.159 139.181 238.246 133.778L244.263 143.701L245.339 145.854C244.551 146.875 243.89 147.988 243.369 149.169C242.957 150.001 242.755 150.922 242.781 151.851C242.808 152.78 243.061 153.688 243.52 154.496Z" fill="#9E6141"/>
<g opacity="0.2">
<path d="M243.392 149.148C243.912 147.968 244.574 146.855 245.361 145.833L244.285 143.681L239.797 143.239C240.304 145.554 241.569 147.634 243.392 149.148Z" fill="#3F3F3F"/>
</g>
<path d="M238.118 123.887C236.32 132.766 235.373 136.479 238.505 142.119C243.219 150.6 254.305 150.794 258.675 142.625C262.603 135.263 264.885 121.982 257.426 116.277C249.968 110.573 239.915 115.007 238.118 123.887Z" fill="#9E6141"/>
<path d="M252.613 113.878C252.613 113.878 255.218 123.134 260.47 124.06C265.722 124.986 262.214 117.602 257.317 114.007C255.196 112.436 252.613 113.878 252.613 113.878Z" fill="#263238"/>
<path d="M250.107 126.631C250.164 126.657 250.227 126.671 250.29 126.671C250.353 126.671 250.415 126.657 250.473 126.631C250.965 126.32 251.523 126.128 252.102 126.072C252.682 126.016 253.267 126.097 253.809 126.308C253.865 126.337 253.926 126.354 253.988 126.359C254.05 126.364 254.113 126.356 254.172 126.336C254.231 126.315 254.286 126.283 254.332 126.241C254.379 126.199 254.416 126.148 254.443 126.092C254.469 126.035 254.483 125.973 254.485 125.911C254.487 125.848 254.476 125.786 254.453 125.728C254.43 125.669 254.395 125.616 254.351 125.572C254.307 125.527 254.255 125.492 254.197 125.469C253.514 125.192 252.775 125.082 252.042 125.148C251.308 125.213 250.6 125.452 249.978 125.846C249.924 125.875 249.877 125.916 249.84 125.965C249.803 126.014 249.776 126.07 249.762 126.13C249.748 126.19 249.746 126.252 249.757 126.312C249.769 126.372 249.792 126.43 249.827 126.481C249.894 126.578 249.993 126.65 250.107 126.685" fill="#263238"/>
<path d="M261.926 129.183C261.977 129.196 262.031 129.198 262.083 129.188C262.135 129.179 262.184 129.159 262.228 129.129C262.275 129.102 262.316 129.065 262.349 129.021C262.382 128.977 262.405 128.927 262.418 128.874C262.431 128.821 262.434 128.765 262.425 128.711C262.416 128.657 262.397 128.605 262.367 128.559C262.031 127.987 261.562 127.505 261 127.153C260.438 126.801 259.8 126.589 259.139 126.536C259.084 126.534 259.03 126.544 258.979 126.564C258.928 126.583 258.882 126.613 258.842 126.651C258.803 126.69 258.772 126.735 258.751 126.785C258.73 126.836 258.719 126.89 258.719 126.945C258.717 126.999 258.727 127.053 258.747 127.104C258.767 127.155 258.797 127.202 258.835 127.241C258.873 127.28 258.918 127.311 258.969 127.332C259.019 127.353 259.073 127.364 259.128 127.364C259.648 127.419 260.149 127.595 260.588 127.879C261.028 128.164 261.394 128.548 261.657 129C261.688 129.047 261.727 129.087 261.773 129.119C261.819 129.15 261.871 129.172 261.926 129.183Z" fill="#263238"/>
<path d="M235.449 122.401C235.449 122.401 232.112 128.041 236.31 129.58C240.507 131.119 242.961 128.246 242.929 125.727C242.897 123.209 242.143 120.55 248.31 121.788C253.789 122.864 257.179 111.488 249.892 111.671C245.394 111.779 237.117 114.545 235.449 122.401Z" fill="#263238"/>
<path d="M255.197 139.977C255.197 139.977 251.075 137.47 250.343 135.457C250.343 135.457 249.267 138.772 251.42 140.311C251.974 140.745 252.673 140.952 253.374 140.89C254.076 140.828 254.727 140.502 255.197 139.977Z" fill="white"/>
<path d="M251.98 130.431C251.787 131.141 251.98 131.819 252.475 131.948C252.97 132.077 253.476 131.593 253.67 130.872C253.864 130.151 253.67 129.484 253.164 129.354C252.658 129.225 252.174 129.71 251.98 130.431Z" fill="#263238"/>
<path d="M259.105 132.54C258.912 133.251 259.105 133.929 259.6 134.047C260.095 134.165 260.591 133.692 260.784 132.971C260.978 132.25 260.784 131.582 260.289 131.464C259.794 131.346 259.288 131.819 259.105 132.54Z" fill="#263238"/>
<path d="M260.074 131.454H261.915C261.915 131.454 260.677 132.53 260.074 131.454Z" fill="#263238"/>
<path d="M256.38 131.218C256.38 131.218 257.101 133.435 257.994 135.426C258.069 135.576 258.107 135.741 258.107 135.908C258.107 136.075 258.067 136.24 257.992 136.39C257.917 136.539 257.808 136.669 257.674 136.769C257.54 136.869 257.384 136.936 257.219 136.965C256.424 137.109 255.616 137.163 254.809 137.127L256.38 131.218Z" fill="#7A4224"/>
<path d="M233.405 129.108C233.533 129.923 233.832 130.701 234.283 131.391C234.734 132.081 235.326 132.668 236.021 133.112C237.818 134.188 239.346 132.294 239.379 129.991C239.379 127.914 238.507 124.868 236.451 124.771C234.395 124.674 233.018 126.923 233.405 129.076" fill="#9E6141"/>
<path d="M237.051 132.907C237.051 133.122 236.986 133.332 236.865 133.51C236.744 133.688 236.573 133.826 236.373 133.906C236.173 133.985 235.954 134.003 235.744 133.957C235.534 133.911 235.343 133.803 235.194 133.647C235.046 133.491 234.948 133.294 234.913 133.082C234.878 132.87 234.907 132.652 234.997 132.457C235.086 132.261 235.233 132.097 235.417 131.986C235.601 131.874 235.814 131.82 236.029 131.831C236.305 131.845 236.565 131.964 236.755 132.165C236.945 132.365 237.051 132.631 237.051 132.907Z" fill="white"/>
<path d="M252.926 129.356H254.766C254.766 129.356 253.539 130.432 252.926 129.356Z" fill="#263238"/>
<path d="M362.191 287.784L395.836 294.016L375.699 266.344L362.191 287.784Z" fill="#4F549B"/>
<g opacity="0.6">
<path d="M375.698 266.344L389.991 285.987L395.835 294.016L386.181 292.24L362.18 287.784L375.698 266.344Z" fill="white"/>
</g>
<path d="M389.991 285.986L395.835 294.015L386.148 292.239C387.271 290.062 388.556 287.972 389.991 285.986Z" fill="#263238"/>
<path d="M162.371 131.885L375.701 266.345L381.093 273.761L371.191 273.492L376.12 281.811L366.692 280.638L370.61 289.345L362.183 287.785L148.863 153.314L162.371 131.885Z" fill="#4F549B"/>
<path d="M162.373 131.863L148.859 153.307L159.303 159.889L172.817 138.445L162.373 131.863Z" fill="#263238"/>
<path d="M142.102 137.192L144.92 132.721C146.338 130.471 148.593 128.875 151.187 128.287C153.782 127.698 156.503 128.165 158.754 129.583L162.396 131.879L148.882 153.322L145.24 151.026C142.989 149.608 141.394 147.354 140.806 144.759C140.217 142.165 140.684 139.443 142.102 137.192Z" fill="#4F549B"/>
<g opacity="0.6">
<path d="M142.102 137.194L144.92 132.723C146.338 130.472 148.593 128.877 151.187 128.289C153.782 127.7 156.503 128.167 158.754 129.585L162.396 131.88L148.882 153.324L145.24 151.028C142.989 149.61 141.394 147.356 140.806 144.761C140.217 142.167 140.684 139.445 142.102 137.194Z" fill="white"/>
</g>
<path d="M366.549 280.541C366.503 280.611 366.432 280.661 366.35 280.681C366.268 280.701 366.182 280.689 366.108 280.648L163.595 153.033C163.522 152.986 163.471 152.912 163.453 152.828C163.434 152.743 163.451 152.654 163.498 152.581C163.545 152.509 163.619 152.458 163.704 152.439C163.788 152.421 163.877 152.437 163.95 152.485L366.452 280.11C366.522 280.154 366.572 280.225 366.59 280.305C366.608 280.386 366.594 280.471 366.549 280.541Z" fill="#263238"/>
<path d="M371.061 273.404C371.013 273.475 370.94 273.526 370.856 273.546C370.773 273.566 370.685 273.554 370.609 273.512L168.139 145.886C168.068 145.838 168.018 145.764 168 145.68C167.982 145.595 167.997 145.507 168.042 145.434C168.064 145.398 168.093 145.367 168.127 145.342C168.162 145.318 168.201 145.3 168.242 145.291C168.283 145.282 168.326 145.282 168.367 145.289C168.409 145.297 168.448 145.314 168.483 145.337L370.954 273.006C371.017 273.048 371.063 273.111 371.083 273.185C371.103 273.258 371.095 273.336 371.061 273.404Z" fill="#263238"/>
<path d="M235.341 204.437C234.264 204.942 233.242 205.405 232.209 205.846C231.606 206.116 231.014 206.363 230.411 206.611C228.765 207.299 227.107 207.967 225.428 208.58C222.092 209.829 218.691 210.937 215.214 211.938C211.673 212.952 208.08 213.778 204.451 214.414C202.589 214.747 200.695 214.973 198.704 215.135C196.825 215.31 194.935 215.328 193.053 215.189L192.354 215.135C191.463 215.038 190.593 214.794 189.782 214.414C188.748 213.923 187.825 213.228 187.069 212.369C186.242 211.406 185.626 210.281 185.261 209.065C184.94 208.016 184.756 206.931 184.712 205.836C184.661 204.579 184.704 203.319 184.841 202.069C185.034 200.082 185.329 198.106 185.724 196.149C186.445 192.414 187.285 188.863 188.21 185.386C188.759 183.32 189.286 181.275 189.932 179.23L203.698 187.905C203.536 188.421 203.397 188.981 203.257 189.465C202.353 192.77 201.448 196.063 200.749 199.26C200.641 199.755 200.534 200.25 200.437 200.734C201.255 200.734 202.094 200.734 202.934 200.68C206.163 200.562 209.391 200.239 212.771 199.884C215.516 199.582 218.282 199.227 221.058 198.808L222.856 198.56L233.016 197.107L235.341 204.437Z" fill="#9E6141"/>
<path d="M232.207 197.259C232.207 197.259 241.043 194.471 242.97 194.794C245.069 195.16 244.455 206.213 241.797 207.817C239.138 209.421 232.756 204.588 232.756 204.588L232.207 197.259Z" fill="#9E6141"/>
<path d="M232.219 197.355C233.249 196.061 234.549 195.007 236.029 194.266C237.998 193.502 239.785 192.254 240.711 192.576C241.636 192.899 238.375 195.902 238.375 195.902L232.219 197.355Z" fill="#9E6141"/>
<path d="M242.928 194.792C242.928 194.792 248.406 196.159 250.204 198.344C252.001 200.529 247.093 199.334 247.093 199.334C247.093 199.334 252.83 201.207 250.634 205.609C249.558 207.762 243.036 208.407 240.022 208.106C240.011 208.106 239.807 198.904 242.928 194.792Z" fill="#9E6141"/>
<path d="M294.288 212.433C294.288 212.433 294.137 211.69 292.071 211.206C290.67 210.82 289.205 210.725 287.766 210.926L292.77 214.155C292.77 214.155 292.221 218.557 294.589 220.527C299.346 224.487 303.017 222.13 304.039 221.28C305.061 220.43 303.361 216.609 300.369 214.392C298.614 213.084 296.476 212.395 294.288 212.433Z" fill="#9E6141"/>
</g>
<defs>
<clipPath id="clip0_1456_860">
<rect width="538.141" height="538.141" fill="white" transform="translate(0 0.706055)"/>
</clipPath>
</defs>
</svg>
