<svg width="50" height="50" viewBox="0 0 50 50" fill="none" xmlns="http://www.w3.org/2000/svg">
<path d="M0 25C0 11.1929 11.1929 0 25 0C38.8071 0 50 11.1929 50 25C50 38.8071 38.8071 50 25 50C11.1929 50 0 38.8071 0 25Z" fill="url(#paint0_linear_2895_1276)"/>
<path d="M19.7814 35.9997H13.343L20.4638 21.6478L23.6903 28.0528L19.7814 35.9997ZM20.9285 20.2764C20.8857 20.192 20.8191 20.1208 20.7364 20.0709C20.6537 20.0211 20.5582 19.9946 20.4607 19.9944H20.4591C20.3613 19.9944 20.2654 20.0212 20.1827 20.0715C20.0999 20.1218 20.0336 20.1937 19.9914 20.2788L12.0504 36.2844C12.0127 36.3607 11.9957 36.4449 12.0009 36.5293C12.0061 36.6136 12.0334 36.6954 12.0802 36.7668C12.127 36.8383 12.1918 36.8971 12.2686 36.9379C12.3453 36.9787 12.4316 37 12.5192 37L20.1104 36.9998C20.2087 36.9999 20.3051 36.9731 20.3883 36.9224C20.4714 36.8718 20.538 36.7995 20.5803 36.7139L24.7366 28.264C24.7698 28.1965 24.7869 28.1227 24.7864 28.0479C24.786 27.9732 24.7681 27.8996 24.734 27.8324L20.9285 20.2764ZM38.9605 35.9997H32.5637L22.3011 15.2849C22.2588 15.1996 22.1922 15.1275 22.1091 15.0771C22.0261 15.0266 21.9299 14.9999 21.8317 14.9999H17.6463L17.6511 9.99999H25.8545L36.0697 30.7143C36.1121 30.7998 36.1786 30.8719 36.2617 30.9224C36.3448 30.973 36.441 30.9998 36.5392 30.9998H38.9605V35.9997ZM39.4803 29.9998H36.8681L26.6529 9.28547C26.6105 9.19993 26.5439 9.12772 26.4607 9.07719C26.3776 9.02667 26.2812 8.99991 26.183 9H17.1319C16.9944 8.99992 16.8624 9.05246 16.7649 9.14611C16.6675 9.23976 16.6125 9.36686 16.6121 9.49953L16.6065 15.4995C16.6065 15.6324 16.6604 15.7595 16.7588 15.8534C16.856 15.9474 16.9879 15.9999 17.1261 15.9999H21.5039L31.767 36.7147C31.8092 36.8001 31.8756 36.8722 31.9586 36.9226C32.0415 36.9731 32.1377 36.9998 32.2357 36.9997H39.4803C39.5485 36.9998 39.616 36.9869 39.679 36.9618C39.7421 36.9367 39.7993 36.8999 39.8476 36.8535C39.8958 36.8071 39.9341 36.7519 39.9603 36.6912C39.9864 36.6305 39.9999 36.5654 40 36.4997V30.4998C40 30.2238 39.7676 29.9998 39.4803 29.9998Z" fill="white"/>
<defs>
<linearGradient id="paint0_linear_2895_1276" x1="0" y1="5000" x2="5000" y2="0" gradientUnits="userSpaceOnUse">
<stop stop-color="#C8511B"/>
<stop offset="1" stop-color="#FF9900"/>
</linearGradient>
</defs>
</svg>
