<svg width="42" height="50" viewBox="0 0 42 50" fill="none" xmlns="http://www.w3.org/2000/svg">
<path d="M41.5273 22.0707L31.4452 22.4873L24.9097 22.0715L35.7198 21.0381L41.5273 22.0707Z" fill="#634B1E"/>
<path d="M35.6967 21.4897L41.5276 22.0709V10.3556L35.6967 7.44727L35.249 7.92943V20.9912L35.6967 21.4897Z" fill="#D9A740"/>
<path d="M24.9097 10.3484L35.6964 7.43652V21.4894L24.9097 22.0714V10.3484Z" fill="#886A2A"/>
<path d="M0 22.0706L10.0821 22.4873L16.6176 22.0715L5.83833 20.9199L0 22.0706Z" fill="#634B1E"/>
<path d="M5.83087 21.4898L0 22.0537V10.3029L5.83087 7.39941L6.09934 7.89954V21.0508L5.83087 21.4898Z" fill="#886A2A"/>
<path d="M16.6178 10.3484L5.83105 7.43652V21.4894L16.6178 22.0714V10.3484Z" fill="#D9A740"/>
<path d="M41.5278 28.1287L31.4457 27.7119L24.9102 28.1279L35.6732 29.2131L41.5278 28.1287Z" fill="#FAD791"/>
<path d="M35.6969 28.7101L41.5278 28.1289V39.8441L35.6969 42.7524L35.3906 42.0873V29.3078L35.6969 28.7101Z" fill="#D9A740"/>
<path d="M24.9102 39.8508L35.6969 42.7628V28.7099L24.9102 28.1279V39.8508Z" fill="#886A2A"/>
<path d="M0 28.1287L10.0821 27.7119L16.6176 28.1279L5.76031 29.3071L0 28.1287Z" fill="#FAD791"/>
<path d="M5.83087 28.7101L0 28.1289V39.8441L5.83087 42.7524L6.18434 42.2282V29.3073L5.83087 28.7101Z" fill="#886A2A"/>
<path d="M16.6178 39.8508L5.83105 42.7628V28.7099L16.6178 28.1279V39.8508Z" fill="#D9A740"/>
<path d="M15.5005 17.1502L20.8481 16.2148L31.5242 17.7227L32.4438 18.2503L27.2584 18.8163L15.5005 17.1502Z" fill="#634B1E"/>
<path d="M26.0273 17.1502L20.6797 16.2148L9.54387 17.9383L9.08398 18.2503L14.2694 18.8163L26.0273 17.1502Z" fill="#634B1E"/>
<path d="M15.5005 33.0498L20.8481 33.9852L31.4973 32.4999L32.4438 31.9498L27.2584 31.3838L15.5005 33.0498Z" fill="#FAD791"/>
<path d="M26.0273 33.0498L20.6797 33.9852L9.46276 32.392L9.08398 31.9498L14.2694 31.3838L26.0273 33.0498Z" fill="#FAD791"/>
<path d="M32.4437 18.2501V12.4598L26.9749 10.6759V3.09718L20.7638 0L20.5047 0.41162L20.4575 49.3704L20.7638 50L26.9749 46.9028V39.5242L32.4437 37.7404V31.95L26.9749 32.9103V17.2898L32.4437 18.2501Z" fill="#D9A740"/>
<path d="M14.5528 3.09718V10.6759L9.08398 12.4598V18.2501L14.5528 17.2898V32.9103L9.08398 31.95V37.7404L14.5528 39.5242V46.9028L20.7639 50V0L14.5528 3.09718Z" fill="#886A2A"/>
</svg>
