<svg width="64" height="39" viewBox="0 0 64 39" fill="none" xmlns="http://www.w3.org/2000/svg">
<path d="M18.0355 13.8994C18.0355 14.6872 18.1209 15.3257 18.2698 15.794C18.4588 16.3209 18.6865 16.8331 18.9508 17.3265C19.0572 17.4968 19.0997 17.667 19.0997 17.8162C19.0997 18.0289 18.9721 18.2418 18.6954 18.4548L17.3545 19.3487C17.1629 19.4765 16.9713 19.5403 16.8008 19.5403C16.5881 19.5403 16.3752 19.4338 16.1623 19.2422C15.8752 18.9342 15.6187 18.5992 15.3961 18.2418C15.1832 17.8802 14.9703 17.4754 14.7362 16.986C13.0757 18.9442 10.9897 19.9233 8.47817 19.9235C6.6903 19.9235 5.26402 19.4125 4.22093 18.391C3.17809 17.369 2.646 16.0067 2.646 14.304C2.646 12.4948 3.28456 11.026 4.58302 9.91917C5.88124 8.8123 7.60558 8.25886 9.79798 8.25886C10.5217 8.25886 11.2667 8.32264 12.0542 8.42911C12.8419 8.53558 13.6507 8.70583 14.5022 8.89742V7.34358C14.5022 5.72571 14.1614 4.59774 13.5015 3.93784C12.8205 3.27793 11.671 2.95853 10.032 2.95853C9.28698 2.95853 8.52086 3.0439 7.73314 3.23549C6.94543 3.42709 6.1793 3.66112 5.43427 3.95918C5.09377 4.10809 4.8384 4.19321 4.68924 4.2359C4.54009 4.27859 4.43387 4.29968 4.34874 4.29968C4.05068 4.29968 3.90178 4.08674 3.90178 3.63977V2.59668C3.90178 2.25618 3.94446 2.00081 4.05068 1.8519C4.15715 1.70275 4.34874 1.55384 4.64681 1.40494C5.39175 1.02158 6.28569 0.702258 7.32861 0.446968C8.37196 0.17025 9.47883 0.0426879 10.6495 0.0426879C13.1826 0.0426879 15.0345 0.617217 16.2265 1.76678C17.3972 2.91609 17.9933 4.66152 17.9933 7.00308V13.8994H18.0355ZM9.39345 17.1349C10.096 17.1349 10.8197 17.0074 11.5859 16.7518C12.3522 16.4964 13.0335 16.0281 13.608 15.3895C13.9488 14.9852 14.2041 14.5383 14.3317 14.0273C14.4595 13.5165 14.5446 12.899 14.5446 12.1754V11.2814C13.8991 11.1244 13.2453 11.0036 12.5863 10.9196C11.9226 10.8354 11.2544 10.7927 10.5855 10.7918C9.15917 10.7918 8.11633 11.0685 7.41399 11.6433C6.71165 12.218 6.3709 13.0269 6.3709 14.091C6.3709 15.0914 6.62627 15.8365 7.15836 16.3475C7.66936 16.8796 8.41439 17.1349 9.39345 17.1349ZM26.486 19.4338C26.1028 19.4338 25.8474 19.37 25.6771 19.2209C25.5069 19.0933 25.3577 18.7952 25.2302 18.391L20.2282 1.93703C20.1001 1.51115 20.0363 1.23443 20.0363 1.08553C20.0363 0.74503 20.2066 0.553185 20.5473 0.553185H22.6332C23.0375 0.553185 23.3145 0.617217 23.4634 0.766123C23.6336 0.893936 23.7615 1.192 23.889 1.59628L27.465 15.6876L30.7856 1.59628C30.8921 1.17065 31.0199 0.893936 31.1899 0.766123C31.3604 0.638561 31.6585 0.553437 32.0417 0.553437H33.7444C34.1487 0.553437 34.4257 0.617217 34.5957 0.766123C34.7662 0.893936 34.9151 1.192 35.0002 1.59628L38.3635 15.8578L42.0457 1.59628C42.1733 1.17065 42.3224 0.893936 42.4713 0.766123C42.6416 0.638561 42.9183 0.553437 43.3015 0.553437H45.281C45.6217 0.553437 45.8133 0.723686 45.8133 1.08553C45.8133 1.192 45.792 1.29847 45.7706 1.42603C45.7493 1.55359 45.7068 1.72409 45.6217 1.95837L40.4916 18.4121C40.3641 18.8379 40.2151 19.1147 40.0446 19.2422C39.8744 19.37 39.5977 19.4552 39.2361 19.4552H37.4055C37.001 19.4552 36.7243 19.3914 36.5538 19.2422C36.3835 19.0933 36.2346 18.8166 36.1495 18.391L32.85 4.66152L29.572 18.3694C29.4658 18.7952 29.338 19.072 29.1678 19.2209C28.9975 19.37 28.6994 19.4338 28.3165 19.4338H26.486ZM53.8381 20.0086C52.7313 20.0086 51.6244 19.8808 50.5602 19.6254C49.4958 19.37 48.6659 19.0931 48.1124 18.7742C47.7717 18.5823 47.5374 18.3696 47.4525 18.178C47.3697 17.9901 47.3262 17.7872 47.3247 17.5819V16.4964C47.3247 16.0494 47.4949 15.8365 47.8144 15.8365C47.9447 15.837 48.0741 15.8586 48.1975 15.9005C48.3251 15.9432 48.5167 16.0281 48.7296 16.1132C49.4814 16.4441 50.2662 16.6938 51.0709 16.8582C51.9047 17.0273 52.7533 17.1128 53.6041 17.1136C54.945 17.1136 55.9881 16.8796 56.7118 16.4113C57.4355 15.9429 57.8187 15.2619 57.8187 14.3891C57.8187 13.7932 57.6271 13.3036 57.2439 12.899C56.8607 12.4945 56.137 12.1329 55.0942 11.7922L52.0076 10.8344C50.4537 10.3448 49.3044 9.62111 48.6018 8.66314C47.8995 7.72652 47.5376 6.68368 47.5376 5.5768C47.5376 4.68287 47.7292 3.89523 48.1124 3.2139C48.4954 2.5329 49.0064 1.93703 49.6449 1.46872C50.2835 0.97906 51.0072 0.617217 51.8587 0.361843C52.7099 0.106469 53.6038 0 54.5405 0C55.0088 0 55.4984 0.021344 55.9667 0.0851248C56.4564 0.148906 56.9034 0.23403 57.3503 0.319155C57.776 0.425624 58.1805 0.532093 58.5637 0.659905C58.9467 0.787467 59.2447 0.915112 59.4576 1.04284C59.7557 1.21334 59.9684 1.38359 60.0962 1.57518C60.2239 1.74543 60.2878 1.97955 60.2878 2.27753V3.27793C60.2878 3.7249 60.1175 3.95918 59.7981 3.95918C59.6279 3.95918 59.3511 3.8738 58.9896 3.70356C57.7759 3.15012 56.4135 2.8734 54.9026 2.8734C53.6892 2.8734 52.7313 3.06499 52.0714 3.46953C51.4117 3.8738 51.0709 4.49127 51.0709 5.36386C51.0709 5.95999 51.2839 6.47074 51.7095 6.87527C52.1351 7.2798 52.9228 7.68408 54.0511 8.04592L57.0736 9.00389C58.6061 9.49355 59.713 10.1745 60.3729 11.0471C61.0328 11.9197 61.3522 12.9204 61.3522 14.0273C61.3522 14.9425 61.1604 15.7727 60.7985 16.4964C60.4156 17.2201 59.9046 17.8586 59.2447 18.3696C58.5848 18.9017 57.7973 19.2849 56.882 19.5616C55.9241 19.8597 54.9237 20.0086 53.8381 20.0086Z" fill="#252F3E"/>
<path d="M57.8613 30.3531C50.8585 35.5257 40.6837 38.2715 31.9354 38.2715C19.6747 38.2715 8.62758 33.7375 0.283591 26.2024C-0.376314 25.6065 0.21956 24.7977 1.00703 25.2657C10.0323 30.5023 21.1648 33.6738 32.6805 33.6738C40.4497 33.6738 48.9853 32.0561 56.8398 28.7355C58.0105 28.2032 59.0109 29.5019 57.8613 30.3531ZM60.7777 27.0325C59.8837 25.8832 54.8601 26.4791 52.5826 26.7558C51.9013 26.8412 51.7949 26.2451 52.4123 25.7981C56.414 22.9882 62.9914 23.7973 63.7575 24.7336C64.5239 25.6916 63.5446 32.2688 59.7984 35.4192C59.2238 35.9089 58.6704 35.6535 58.9258 35.0149C59.777 32.9074 61.6716 28.1607 60.7777 27.0325Z" fill="#FF9900"/>
</svg>
