<svg width="50" height="50" viewBox="0 0 50 50" fill="none" xmlns="http://www.w3.org/2000/svg">
<path d="M25.0555 40.2733H15.3282V30.6932H25.0559L25.0555 40.2733ZM15.3282 47.7886H7.95823V40.2725H15.3282V47.7886ZM7.95862 40.2725H1.76954V34.0821H7.95823L7.95862 40.2725ZM24.9094 50V40.2725C35.2259 40.2725 43.1845 30.1036 39.2052 19.3435C37.7306 15.3645 34.6372 12.1225 30.5099 10.6482C19.8977 6.81737 9.72854 14.7749 9.72854 24.9442H0C0 8.73276 15.7696 -4.09012 33.0157 1.21544C40.5321 3.57421 46.4275 9.46936 48.7853 16.9863C54.0904 34.2292 41.2677 49.9996 24.9091 49.9996L24.9094 50Z" fill="#0080FF"/>
</svg>
