<svg width="61" height="49" viewBox="0 0 61 49" fill="none" xmlns="http://www.w3.org/2000/svg">
<path d="M40.5368 13.5285L45.8351 8.22981L46.1883 5.99893C36.5334 -2.78045 21.1854 -1.78478 12.4813 8.07621C10.0639 10.8148 8.27032 14.2294 7.31396 17.7556L9.21143 17.488L19.8081 15.7408L20.6261 14.9042C25.3396 9.72743 33.3095 9.03074 38.7521 13.4352L40.5368 13.5285Z" fill="#EA4335"/>
<path d="M53.3831 17.5996C52.1656 13.1147 49.6651 9.08284 46.1885 5.99902L38.7522 13.4353C40.302 14.7016 41.544 16.3033 42.3846 18.1197C43.2251 19.936 43.6422 21.9194 43.6044 23.9205V25.2404C47.2594 25.2404 50.2227 28.2033 50.2227 31.8584C50.2227 35.5134 47.2594 38.4026 43.6044 38.4026H30.3492L29.0479 39.8155V47.7537L30.3492 48.9993H43.6044C53.1115 49.0734 60.8788 41.5005 60.9528 31.9934C60.9751 29.1561 60.2957 26.3574 58.975 23.8462C57.6544 21.3349 55.7334 19.1891 53.3831 17.5996Z" fill="#4285F4"/>
<path d="M17.1124 48.9992H30.349V38.4025H17.1124C16.1753 38.4024 15.2494 38.1995 14.3982 37.8076L12.5205 38.3839L7.18498 43.6823L6.72021 45.4856C9.7124 47.7448 13.3629 49.0154 17.1124 48.9992Z" fill="#34A853"/>
<path d="M17.1126 14.6254C7.60512 14.6821 -0.0560724 22.4353 0.000309213 31.9425C0.0160464 34.5624 0.629533 37.1442 1.79404 39.4912C2.95854 41.8381 4.64333 43.8884 6.72008 45.4857L14.398 37.8077C11.067 36.3028 9.58671 32.3823 11.0916 29.0515C12.5966 25.7207 16.5171 24.2402 19.8476 25.7448C21.3154 26.408 22.491 27.5837 23.1543 29.0515L30.8322 21.3735C29.2208 19.2667 27.1437 17.5612 24.7636 16.3905C22.3835 15.2197 19.7647 14.6155 17.1123 14.6251" fill="#FBBC05"/>
</svg>
