<svg width="97" height="97" viewBox="0 0 97 97" fill="none" xmlns="http://www.w3.org/2000/svg">
<circle cx="48.5" cy="48.5" r="47" stroke="#4F549B" stroke-width="3"/>
<path fill-rule="evenodd" clip-rule="evenodd" d="M47.6258 33.9623H48.3922V30.1468C45.9912 29.6671 45.0459 26.6749 46.8065 24.9107C47.3879 24.3273 48.1767 24 49.0001 24C49.8234 24 50.6123 24.3273 51.1937 24.9107C52.9563 26.6751 52.0089 29.6674 49.6079 30.1468V33.9623H50.3744H50.3723C51.1083 33.9644 51.7039 34.56 51.7039 35.2938V37.414C52.9705 37.7067 54.1801 38.2088 55.282 38.8959L56.7804 37.3977C57.3008 36.8794 58.1425 36.8794 58.665 37.3977L59.2058 37.9385L61.9056 35.239H61.9036C61.0192 33.9115 61.2855 32.1329 62.5196 31.1226C63.7516 30.1123 65.5508 30.2017 66.6771 31.3279C67.8034 32.4541 67.8928 34.253 66.8824 35.4849C65.872 36.7188 64.0931 36.9851 62.7656 36.1008L60.0657 38.8004L60.6065 39.3411V39.3391C61.1249 39.8595 61.1249 40.701 60.6065 41.2214L59.1082 42.7196V42.7216C59.7953 43.8234 60.2955 45.0329 60.5903 46.2993H62.7087C63.0624 46.2993 63.3999 46.4395 63.65 46.6896C63.9 46.9376 64.0403 47.277 64.0403 47.6287V48.3951H67.8562C68.1693 46.8319 69.6168 45.7606 71.2026 45.9172C72.7904 46.0737 74 47.4092 74 49.0029C74 50.5966 72.7904 51.9321 71.2026 52.0887C69.6168 52.2452 68.1693 51.1739 67.8562 49.6107H64.0423V50.3771C64.0383 51.111 63.4446 51.7045 62.7107 51.7086H60.5923C60.2975 52.975 59.7974 54.1825 59.1082 55.2863L60.6065 56.7844C61.127 57.3048 61.127 58.1464 60.6065 58.6668L60.0657 59.2075L62.7656 61.907V61.905C64.0931 61.0228 65.872 61.289 66.8824 62.5209C67.8928 63.7548 67.8034 65.5518 66.6771 66.6779C65.5508 67.8061 63.7516 67.8955 62.5196 66.8853C61.2855 65.875 61.0192 64.0943 61.9036 62.7689L59.2037 60.0694L58.6629 60.6101H58.665C58.1445 61.1285 57.3029 61.1285 56.7824 60.6101L55.282 59.1099C54.1801 59.799 52.9705 60.2991 51.7039 60.5939V62.712C51.7039 63.4459 51.1083 64.0415 50.3744 64.0435H49.6079V67.859C51.1713 68.172 52.2427 69.6173 52.0861 71.2049C51.9296 72.7905 50.5939 74 49 74C47.4061 74 46.0704 72.7905 45.9139 71.2049C45.7573 69.6173 46.8287 68.1721 48.3921 67.859V64.0435H47.6256C46.8917 64.0415 46.2961 63.4459 46.294 62.712V60.5939C45.0275 60.2991 43.8199 59.7971 42.7159 59.1099L41.2176 60.6081C40.6972 61.1264 39.8555 61.1264 39.335 60.6081L38.7942 60.0673L36.0964 62.7669C36.9808 64.0943 36.7145 65.875 35.4804 66.8833C34.2484 67.8935 32.4492 67.8061 31.3229 66.6779C30.1946 65.5518 30.1072 63.7528 31.1176 62.5209C32.1259 61.287 33.9069 61.0207 35.2344 61.905L37.9343 59.2055L37.3935 58.6647V58.6668C36.873 58.1464 36.873 57.3048 37.3935 56.7844L38.8918 55.2863C38.2046 54.1825 37.7025 52.973 37.4077 51.7086H35.2893C34.5554 51.7045 33.9617 51.111 33.9577 50.3771V49.6107H30.1417C29.8307 51.1739 28.3832 52.2452 26.7954 52.0887C25.2096 51.9321 24 50.5966 24 49.0029C24 47.4092 25.2096 46.0737 26.7954 45.9172C28.3832 45.7606 29.8307 46.8319 30.1417 48.3951H33.9577C33.9577 47.7324 33.8642 47.1043 34.3948 46.6469C34.6408 46.4233 34.9579 46.2973 35.2893 46.2973H37.4097C37.7045 45.0329 38.2046 43.8234 38.8918 42.7196L37.3935 41.2214C36.8751 40.701 36.8751 39.8595 37.3935 39.3391L37.9343 38.7983L35.2345 36.1009C33.9069 36.9851 32.126 36.7188 31.1176 35.4849C30.1072 34.2531 30.1946 32.4541 31.3229 31.3279C32.4492 30.1997 34.2484 30.1123 35.4804 31.1226C36.7145 32.1308 36.9808 33.9116 36.0964 35.239L38.7963 37.9385L39.3371 37.3978H39.335C39.8555 36.8774 40.6972 36.8774 41.2176 37.3978L42.7159 38.8959C43.8199 38.2088 45.0295 37.7088 46.294 37.412V35.2938C46.2961 34.56 46.8918 33.9644 47.6258 33.9623ZM53.8389 28.2646C56.1057 28.7911 58.2708 29.6896 60.2451 30.9214C60.3813 31.0089 60.548 31.0373 60.7066 31.0007C60.8652 30.9641 61.0014 30.8666 61.0868 30.7283C61.1722 30.5901 61.2006 30.4234 61.162 30.2669C61.1254 30.1083 61.0258 29.9721 60.8875 29.8868C58.7997 28.5858 56.5084 27.6365 54.1113 27.0795C53.9527 27.0389 53.784 27.0633 53.6437 27.1486C53.5034 27.234 53.4038 27.3722 53.3672 27.5328C53.3306 27.6914 53.3591 27.8601 53.4485 27.9983C53.538 28.1366 53.6783 28.2321 53.8389 28.2646ZM67.0838 37.7596C68.3158 39.7355 69.2124 41.8983 69.741 44.1651C69.7756 44.3237 69.8731 44.4599 70.0093 44.5452C70.1456 44.6326 70.3123 44.6611 70.4688 44.6245C70.6274 44.5879 70.7636 44.4903 70.849 44.3541C70.9364 44.2159 70.9628 44.0513 70.9262 43.8927C70.3692 41.496 69.4198 39.2072 68.1187 37.1172C67.9398 36.8347 67.5657 36.7493 67.2811 36.9261C66.9964 37.103 66.909 37.475 67.0838 37.7596ZM69.741 53.8407C69.2124 56.1073 68.3158 58.2701 67.0838 60.2462C66.9964 60.3824 66.9679 60.5491 67.0045 60.7076C67.0411 60.8641 67.1387 61.0024 67.277 61.0877C67.4152 61.1731 67.5819 61.1995 67.7385 61.163C67.897 61.1264 68.0333 61.0268 68.1186 60.8885C69.4198 58.7989 70.3692 56.5099 70.9262 54.1131C70.9994 53.7858 70.7941 53.4626 70.4688 53.3874C70.1415 53.3122 69.8162 53.5154 69.7389 53.8407L69.741 53.8407ZM60.2449 67.0841C58.2708 68.316 56.1057 69.2124 53.8386 69.7409C53.5113 69.8162 53.308 70.1434 53.3832 70.4687C53.4585 70.7959 53.7837 71.0012 54.111 70.9281C56.508 70.3691 58.7991 69.4218 60.8873 68.1188C61.1699 67.9399 61.2553 67.5659 61.0784 67.2813C60.9036 66.9987 60.5295 66.9093 60.2449 67.0841ZM44.1619 69.7409C41.8951 69.2145 39.73 68.316 37.7557 67.0841C37.4711 66.9093 37.097 66.9967 36.9201 67.2813C36.7432 67.5659 36.8306 67.9399 37.1132 68.1188C39.2011 69.4198 41.4923 70.3691 43.8895 70.926C44.2148 70.9951 44.534 70.7898 44.6071 70.4666C44.6803 70.1434 44.4831 69.8222 44.1619 69.7409ZM30.917 60.2459C29.6849 58.27 28.7884 56.1072 28.2598 53.8404C28.1785 53.5213 27.8573 53.3241 27.5361 53.3973C27.2128 53.4725 27.0095 53.7876 27.0746 54.1128C27.6316 56.5095 28.581 58.7984 29.8842 60.8883C30.0651 61.1648 30.4331 61.2461 30.7137 61.0712C30.9942 60.8964 31.0837 60.5305 30.917 60.2459ZM28.2598 44.1648C28.7884 41.8983 29.6849 39.7354 30.917 37.7594C31.0918 37.4748 31.0044 37.1028 30.7198 36.9259C30.4351 36.7491 30.0611 36.8344 29.8821 37.117C28.581 39.2067 27.6316 41.4956 27.0746 43.8925C27.0095 44.2177 27.2128 44.5348 27.534 44.608C27.8573 44.6812 28.1785 44.484 28.2598 44.1648ZM37.7559 30.9214C39.73 29.6896 41.8951 28.7932 44.1622 28.2646C44.4895 28.1894 44.6928 27.8621 44.6176 27.5369C44.5423 27.2096 44.2171 27.0043 43.8898 27.0775C41.4928 27.6344 39.2016 28.5837 37.1135 29.8867C36.8268 30.0656 36.7394 30.4397 36.9183 30.7263C37.0952 31.0109 37.4713 31.0983 37.7559 30.9214ZM45.1234 49.4317L47.4228 51.7308C47.6606 51.9686 48.0469 51.9686 48.2847 51.7308L52.8773 47.1388C53.1091 46.8989 53.105 46.5188 52.8692 46.283C52.6354 46.0472 52.2552 46.0451 52.0153 46.2769L47.8538 50.438L45.9854 48.5699C45.8716 48.452 45.715 48.3849 45.5524 48.3829C45.3877 48.3808 45.2312 48.4459 45.1153 48.5617C44.9994 48.6776 44.9364 48.8341 44.9364 48.9988C44.9384 49.1614 45.0055 49.3179 45.1234 49.4317ZM31.6282 33.5171C31.6282 35.1759 33.653 36.0439 34.8464 34.8506C36.0398 33.6574 35.1697 31.6328 33.5128 31.6328C32.4719 31.6348 31.6302 32.4764 31.6282 33.5171ZM25.7627 50.332C26.9398 51.5069 28.983 50.6857 28.983 49.0025C28.983 47.3194 26.9398 46.4982 25.7627 47.6731C25.0308 48.4069 25.0308 49.5981 25.7627 50.332ZM33.5127 66.3725C35.1716 66.3725 36.0398 64.3478 34.8464 63.1546C33.653 61.9613 31.6301 62.8314 31.6281 64.4881C31.6301 65.5289 32.4718 66.3704 33.5127 66.3725ZM50.3316 72.2372C51.5066 71.0603 50.6853 69.0173 49.002 69.0173C47.3186 69.0173 46.4973 71.0603 47.6724 72.2372H47.6704C48.4043 72.969 49.5956 72.969 50.3295 72.2372H50.3316ZM66.3719 64.4881C66.3719 62.8294 64.347 61.9614 63.1536 63.1546C61.9602 64.3479 62.8303 66.3705 64.4873 66.3725C65.5282 66.3705 66.3698 65.5289 66.3719 64.4881ZM72.2373 47.6712C71.0602 46.4963 69.017 47.3175 69.017 49.0007C69.017 50.6838 71.0602 51.505 72.2373 50.3301V50.3321C72.9692 49.5983 72.9692 48.4071 72.2373 47.6733V47.6712ZM64.4873 31.6328C62.8284 31.6328 61.9603 33.6574 63.1537 34.8507C64.347 36.0439 66.3699 35.1739 66.3719 33.5172C66.3699 32.4764 65.5282 31.6348 64.4873 31.6328ZM47.6705 25.768C46.4954 26.945 47.3168 28.9879 49.0001 28.9879C50.6834 28.9879 51.5048 26.945 50.3297 25.768C49.5958 25.0363 48.4045 25.0363 47.6705 25.768ZM50.3744 35.1819H47.6258C47.5648 35.1839 47.516 35.2327 47.514 35.2937V37.9058C47.514 38.1985 47.3046 38.4506 47.0159 38.5054C45.5806 38.7737 44.2165 39.3348 43.0089 40.156C42.7669 40.3451 42.4213 40.3248 42.2038 40.1072L40.3558 38.2594C40.311 38.2168 40.2419 38.2168 40.1972 38.2594L38.2556 40.2008C38.219 40.2414 38.2129 40.3024 38.2455 40.3492L40.1036 42.2071H40.1016C40.309 42.4144 40.3395 42.7397 40.1748 42.9816C39.3494 44.185 38.7822 45.5449 38.5077 46.978C38.4732 47.285 38.2109 47.5167 37.9019 47.5167H35.2895C35.2285 47.5167 35.1777 47.5676 35.1777 47.6285V50.3768C35.1777 50.4378 35.2285 50.4886 35.2895 50.4886H37.9019C38.1946 50.4886 38.4467 50.698 38.4996 50.9867C38.77 52.4198 39.3331 53.7837 40.1524 54.9932C40.3415 55.2351 40.3212 55.5807 40.1036 55.7982L38.2556 57.646C38.2129 57.6907 38.2129 57.7599 38.2556 57.8046L40.1971 59.7459C40.2378 59.7845 40.2988 59.7886 40.3456 59.7561L42.2037 57.8981V57.9001C42.4111 57.6928 42.7364 57.6623 42.9783 57.827C44.1818 58.6502 45.5419 59.2174 46.9752 59.4938C47.2822 59.5304 47.514 59.7906 47.514 60.0996V62.7117C47.516 62.7727 47.5648 62.8215 47.6258 62.8235H50.3744C50.4354 62.8215 50.4842 62.7727 50.4862 62.7117V60.0996C50.4862 59.8069 50.6956 59.5548 50.9843 59.502C52.4176 59.2316 53.7817 58.6685 54.9913 57.8493C55.2333 57.6603 55.5789 57.6806 55.7964 57.8981L57.6444 59.7459C57.6892 59.7886 57.7583 59.7886 57.803 59.7459L59.7446 57.8046C59.7873 57.7599 59.7873 57.6908 59.7446 57.6461L57.8965 55.7983H57.8986C57.6912 55.5909 57.6607 55.2657 57.8254 55.0238C58.6487 53.8204 59.216 52.4604 59.4925 51.0273C59.527 50.7204 59.7872 50.4886 60.0983 50.4886H62.7107C62.7717 50.4886 62.8225 50.4378 62.8225 50.3768V47.6285C62.8205 47.6001 62.8103 47.5716 62.788 47.5513L62.79 47.5493L62.7107 47.5167H60.0983C59.8056 47.5167 59.5534 47.3074 59.5006 47.0187C59.2302 45.5836 58.6691 44.2196 57.8478 43.0121C57.6587 42.7702 57.679 42.4247 57.8966 42.2071L59.7446 40.3593C59.7873 40.3146 59.7873 40.2455 59.7446 40.2008L57.803 38.2595C57.7624 38.2229 57.7014 38.2168 57.6546 38.2493L55.7965 40.1072V40.1052C55.5891 40.3126 55.2638 40.343 55.0219 40.1784C53.8183 39.3551 52.4582 38.788 51.025 38.5115C50.718 38.477 50.4862 38.2147 50.4862 37.9057V35.2937C50.4842 35.2327 50.4354 35.1839 50.3744 35.1819ZM49.0001 42.3981C46.3287 42.3981 43.9196 44.006 42.8968 46.4758C41.8742 48.9436 42.4394 51.7833 44.328 53.6739C46.2187 55.5623 49.0588 56.1274 51.5269 55.1049C53.997 54.0825 55.6051 51.6736 55.6051 49.0023C55.6051 47.2501 54.9098 45.571 53.6717 44.331C52.4316 43.093 50.7526 42.3981 49.0001 42.3981ZM43.4662 43.4694C41.9983 44.937 41.175 46.9271 41.175 49.0027C41.175 51.0783 41.9983 53.0682 43.4662 54.536C44.934 56.0036 46.9243 56.8269 49.0001 56.8269C51.0759 56.8269 53.0661 56.0036 54.5341 54.536C56.0019 53.0683 56.8252 51.0783 56.8252 49.0027C56.8252 46.9271 56.0019 44.9371 54.5341 43.4694C53.0662 42.0017 51.0759 41.1785 49.0001 41.1785C46.9243 41.1785 44.9341 42.0017 43.4662 43.4694Z" fill="url(#paint0_linear_1972_16)"/>
<path d="M63.65 46.6896C63.3999 46.4395 63.0624 46.2993 62.7087 46.2993H60.5903C60.2955 45.0329 59.7953 43.8234 59.1082 42.7216V42.7196L60.6065 41.2214C61.1249 40.701 61.1249 39.8595 60.6065 39.3391V39.3411L60.0657 38.8004L62.7656 36.1008C64.0931 36.9851 65.872 36.7188 66.8824 35.4849C67.8928 34.253 67.8034 32.4541 66.6771 31.3279C65.5508 30.2017 63.7516 30.1123 62.5196 31.1226C61.2855 32.1329 61.0192 33.9115 61.9036 35.239H61.9056L59.2058 37.9385L58.665 37.3977C58.1425 36.8794 57.3008 36.8794 56.7804 37.3977L55.282 38.8959C54.1801 38.2088 52.9705 37.7067 51.7039 37.414V35.2938C51.7039 34.56 51.1083 33.9644 50.3723 33.9623H50.3744H49.6079V30.1468C52.0089 29.6674 52.9563 26.6751 51.1937 24.9107C50.6123 24.3273 49.8234 24 49.0001 24C48.1767 24 47.3879 24.3273 46.8065 24.9107C45.0459 26.6749 45.9912 29.6671 48.3922 30.1468V33.9623H47.6258C46.8918 33.9644 46.2961 34.56 46.294 35.2938V37.412C45.0295 37.7088 43.8199 38.2088 42.7159 38.8959L41.2176 37.3978C40.6972 36.8774 39.8555 36.8774 39.335 37.3978H39.3371L38.7963 37.9385L36.0964 35.239C36.9808 33.9116 36.7145 32.1308 35.4804 31.1226C34.2484 30.1123 32.4492 30.1997 31.3229 31.3279C30.1946 32.4541 30.1072 34.2531 31.1176 35.4849C32.126 36.7188 33.9069 36.9851 35.2345 36.1009L37.9343 38.7983L37.3935 39.3391C36.8751 39.8595 36.8751 40.701 37.3935 41.2214L38.8918 42.7196C38.2046 43.8234 37.7045 45.0329 37.4097 46.2973H35.2893C34.9579 46.2973 34.6408 46.4233 34.3948 46.6469C33.8642 47.1043 33.9577 47.7324 33.9577 48.3951H30.1417C29.8307 46.8319 28.3832 45.7606 26.7954 45.9172C25.2096 46.0737 24 47.4092 24 49.0029C24 50.5966 25.2096 51.9321 26.7954 52.0887C28.3832 52.2452 29.8307 51.1739 30.1417 49.6107H33.9577V50.3771C33.9617 51.111 34.5554 51.7045 35.2893 51.7086H37.4077C37.7025 52.973 38.2046 54.1825 38.8918 55.2863L37.3935 56.7844C36.873 57.3048 36.873 58.1464 37.3935 58.6668V58.6647L37.9343 59.2055L35.2344 61.905C33.9069 61.0207 32.1259 61.287 31.1176 62.5209C30.1072 63.7528 30.1946 65.5518 31.3229 66.6779C32.4492 67.8061 34.2484 67.8935 35.4804 66.8833C36.7145 65.875 36.9808 64.0943 36.0964 62.7669L38.7942 60.0673L39.335 60.6081C39.8555 61.1264 40.6972 61.1264 41.2176 60.6081L42.7159 59.1099C43.8199 59.7971 45.0275 60.2991 46.294 60.5939V62.712C46.2961 63.4459 46.8917 64.0415 47.6256 64.0435H48.3921V67.859C46.8287 68.172 45.7573 69.6173 45.9139 71.2049C46.0704 72.7905 47.4061 74 49 74C50.5939 74 51.9296 72.7905 52.0861 71.2049C52.2427 69.6173 51.1713 68.172 49.6079 67.859V64.0435H50.3744C51.1083 64.0415 51.7039 63.4459 51.7039 62.712V60.5939C52.9705 60.2991 54.1801 59.799 55.282 59.1099L56.7824 60.6101C57.3029 61.1285 58.1445 61.1285 58.665 60.6101H58.6629L59.2037 60.0694L61.9036 62.7689C61.0192 64.0943 61.2855 65.875 62.5196 66.8853C63.7516 67.8955 65.5508 67.8061 66.6771 66.6779C67.8034 65.5518 67.8928 63.7548 66.8824 62.5209C65.872 61.289 64.0931 61.0228 62.7656 61.905V61.907L60.0657 59.2075L60.6065 58.6668C61.127 58.1464 61.127 57.3048 60.6065 56.7844L59.1082 55.2863C59.7974 54.1825 60.2975 52.975 60.5923 51.7086H62.7107C63.4446 51.7045 64.0383 51.111 64.0423 50.3771V49.6107H67.8562C68.1693 51.1739 69.6168 52.2452 71.2026 52.0887C72.7904 51.9321 74 50.5966 74 49.0029C74 47.4092 72.7904 46.0737 71.2026 45.9172C69.6168 45.7606 68.1693 46.8319 67.8562 48.3951H64.0403V47.6287C64.0403 47.277 63.9 46.9376 63.65 46.6896ZM63.65 46.6896L63.652 46.6875M47.514 37.9058V35.2937C47.516 35.2327 47.5648 35.1839 47.6258 35.1819H50.3744C50.4354 35.1839 50.4842 35.2327 50.4862 35.2937V37.9057C50.4862 38.2147 50.718 38.477 51.025 38.5115C52.4582 38.788 53.8183 39.3551 55.0219 40.1784C55.2638 40.343 55.5891 40.3126 55.7965 40.1052V40.1072L57.6546 38.2493C57.7014 38.2168 57.7624 38.2229 57.803 38.2595L59.7446 40.2008C59.7873 40.2455 59.7873 40.3146 59.7446 40.3593L57.8966 42.2071C57.679 42.4247 57.6587 42.7702 57.8478 43.0121C58.6691 44.2196 59.2302 45.5836 59.5006 47.0187C59.5534 47.3074 59.8056 47.5167 60.0983 47.5167M47.514 37.9058H47.512M47.514 37.9058C47.514 38.1985 47.3046 38.4506 47.0159 38.5054C45.5806 38.7737 44.2165 39.3348 43.0089 40.156C42.7669 40.3451 42.4213 40.3248 42.2038 40.1072L40.3558 38.2594C40.311 38.2168 40.2419 38.2168 40.1972 38.2594L38.2556 40.2008C38.219 40.2414 38.2129 40.3024 38.2455 40.3492L40.1036 42.2071H40.1016C40.309 42.4144 40.3395 42.7397 40.1748 42.9816C39.3494 44.185 38.7822 45.5449 38.5077 46.978C38.4732 47.285 38.2109 47.5167 37.9019 47.5167H35.2895C35.2285 47.5167 35.1777 47.5676 35.1777 47.6285V50.3768C35.1777 50.4378 35.2285 50.4886 35.2895 50.4886H37.9019M37.9019 50.4886V50.4907M37.9019 50.4886C38.1946 50.4886 38.4467 50.698 38.4996 50.9867C38.77 52.4198 39.3331 53.7837 40.1524 54.9932C40.3415 55.2351 40.3212 55.5807 40.1036 55.7982L38.2556 57.646C38.2129 57.6907 38.2129 57.7599 38.2556 57.8046L40.1971 59.7459C40.2378 59.7845 40.2988 59.7886 40.3456 59.7561L42.2037 57.8981V57.9001C42.4111 57.6928 42.7364 57.6623 42.9783 57.827C44.1818 58.6502 45.5419 59.2174 46.9752 59.4938C47.2822 59.5304 47.514 59.7906 47.514 60.0996V62.7117C47.516 62.7727 47.5648 62.8215 47.6258 62.8235H50.3744C50.4354 62.8215 50.4842 62.7727 50.4862 62.7117V60.0996M50.4862 60.0996H50.4882M50.4862 60.0996C50.4862 59.8069 50.6956 59.5548 50.9843 59.502C52.4176 59.2316 53.7817 58.6685 54.9913 57.8493C55.2333 57.6603 55.5789 57.6806 55.7964 57.8981L57.6444 59.7459C57.6892 59.7886 57.7583 59.7886 57.803 59.7459L59.7446 57.8046C59.7873 57.7599 59.7873 57.6908 59.7446 57.6461L57.8965 55.7983H57.8986C57.6912 55.5909 57.6607 55.2657 57.8254 55.0238C58.6487 53.8204 59.216 52.4604 59.4924 51.0273C59.527 50.7204 59.7872 50.4886 60.0983 50.4886H62.7107C62.7717 50.4886 62.8225 50.4378 62.8225 50.3768V47.6285C62.8205 47.6001 62.8103 47.5716 62.788 47.5513L62.79 47.5493L62.7107 47.5167H60.0983M60.0983 47.5167V47.5147M53.8389 28.2646C56.1057 28.7911 58.2708 29.6896 60.2451 30.9214C60.3813 31.0089 60.548 31.0373 60.7066 31.0007C60.8652 30.9641 61.0014 30.8666 61.0868 30.7283C61.1722 30.5901 61.2006 30.4234 61.162 30.2669C61.1254 30.1083 61.0258 29.9721 60.8875 29.8868C58.7997 28.5858 56.5084 27.6365 54.1113 27.0795C53.9527 27.0389 53.784 27.0633 53.6437 27.1486C53.5034 27.234 53.4038 27.3722 53.3672 27.5328C53.3306 27.6914 53.3591 27.8601 53.4485 27.9983C53.538 28.1366 53.6783 28.2321 53.8389 28.2646ZM67.0838 37.7596C68.3158 39.7355 69.2124 41.8983 69.741 44.1651C69.7756 44.3237 69.8731 44.4599 70.0093 44.5452C70.1456 44.6326 70.3123 44.6611 70.4688 44.6245C70.6274 44.5879 70.7636 44.4903 70.849 44.3541C70.9364 44.2159 70.9628 44.0513 70.9262 43.8927C70.3692 41.496 69.4198 39.2072 68.1187 37.1172C67.9398 36.8347 67.5657 36.7493 67.2811 36.9261C66.9964 37.103 66.909 37.475 67.0838 37.7596ZM69.741 53.8407C69.2124 56.1073 68.3158 58.2701 67.0838 60.2462C66.9964 60.3824 66.9679 60.5491 67.0045 60.7076C67.0411 60.8641 67.1387 61.0024 67.277 61.0877C67.4152 61.1731 67.5819 61.1995 67.7385 61.163C67.897 61.1264 68.0333 61.0268 68.1186 60.8885C69.4198 58.7989 70.3692 56.5099 70.9262 54.1131C70.9994 53.7858 70.7941 53.4626 70.4688 53.3874C70.1415 53.3122 69.8162 53.5154 69.7389 53.8407L69.741 53.8407ZM60.2449 67.0841C58.2708 68.316 56.1057 69.2124 53.8386 69.7409C53.5113 69.8162 53.308 70.1434 53.3832 70.4687C53.4585 70.7959 53.7837 71.0012 54.111 70.9281C56.508 70.3691 58.7991 69.4218 60.8873 68.1188C61.1699 67.9399 61.2553 67.5659 61.0784 67.2813C60.9036 66.9987 60.5295 66.9093 60.2449 67.0841ZM44.1619 69.7409C41.8951 69.2145 39.73 68.316 37.7557 67.0841C37.4711 66.9093 37.097 66.9967 36.9201 67.2813C36.7432 67.5659 36.8306 67.9399 37.1132 68.1188C39.2011 69.4198 41.4923 70.3691 43.8895 70.926C44.2148 70.9951 44.534 70.7898 44.6071 70.4666C44.6803 70.1434 44.4831 69.8222 44.1619 69.7409ZM30.917 60.2459C29.6849 58.27 28.7884 56.1072 28.2598 53.8404C28.1785 53.5213 27.8573 53.3241 27.5361 53.3973C27.2128 53.4725 27.0095 53.7876 27.0746 54.1128C27.6316 56.5095 28.581 58.7984 29.8842 60.8883C30.0651 61.1648 30.4331 61.2461 30.7137 61.0712C30.9942 60.8964 31.0837 60.5305 30.917 60.2459ZM28.2598 44.1648C28.7884 41.8983 29.6849 39.7354 30.917 37.7594C31.0918 37.4748 31.0044 37.1028 30.7198 36.9259C30.4351 36.7491 30.0611 36.8344 29.8821 37.117C28.581 39.2067 27.6316 41.4956 27.0746 43.8925C27.0095 44.2177 27.2128 44.5348 27.534 44.608C27.8573 44.6812 28.1785 44.484 28.2598 44.1648ZM37.7559 30.9214C39.73 29.6896 41.8951 28.7932 44.1622 28.2646C44.4895 28.1894 44.6928 27.8621 44.6176 27.5369C44.5423 27.2096 44.2171 27.0043 43.8898 27.0775C41.4928 27.6344 39.2016 28.5837 37.1135 29.8867C36.8268 30.0656 36.7394 30.4397 36.9183 30.7263C37.0952 31.0109 37.4713 31.0983 37.7559 30.9214ZM45.1234 49.4317L47.4228 51.7308C47.6606 51.9686 48.0469 51.9686 48.2847 51.7308L52.8773 47.1388C53.1091 46.8989 53.105 46.5188 52.8692 46.283C52.6354 46.0472 52.2552 46.0451 52.0153 46.2769L47.8538 50.438L45.9854 48.5699C45.8716 48.452 45.715 48.3849 45.5524 48.3829C45.3877 48.3808 45.2312 48.4459 45.1153 48.5617C44.9994 48.6776 44.9364 48.8341 44.9364 48.9988C44.9384 49.1614 45.0055 49.3179 45.1234 49.4317ZM31.6282 33.5171C31.6282 35.1759 33.653 36.0439 34.8464 34.8506C36.0398 33.6574 35.1697 31.6328 33.5128 31.6328C32.4719 31.6348 31.6302 32.4764 31.6282 33.5171ZM25.7627 50.332C26.9398 51.5069 28.983 50.6857 28.983 49.0025C28.983 47.3194 26.9398 46.4982 25.7627 47.6731C25.0308 48.4069 25.0308 49.5981 25.7627 50.332ZM33.5127 66.3725C35.1716 66.3725 36.0398 64.3478 34.8464 63.1546C33.653 61.9613 31.6301 62.8314 31.6281 64.4881C31.6301 65.5289 32.4718 66.3704 33.5127 66.3725ZM50.3316 72.2372C51.5066 71.0603 50.6853 69.0173 49.002 69.0173C47.3186 69.0173 46.4973 71.0603 47.6724 72.2372H47.6704C48.4043 72.969 49.5956 72.969 50.3295 72.2372H50.3316ZM66.3719 64.4881C66.3719 62.8294 64.347 61.9614 63.1536 63.1546C61.9602 64.3479 62.8304 66.3705 64.4873 66.3725C65.5282 66.3705 66.3698 65.5289 66.3719 64.4881ZM72.2373 47.6712C71.0602 46.4963 69.017 47.3175 69.017 49.0007C69.017 50.6838 71.0602 51.505 72.2373 50.3301V50.3321C72.9692 49.5983 72.9692 48.4071 72.2373 47.6733V47.6712ZM64.4873 31.6328C62.8284 31.6328 61.9603 33.6574 63.1537 34.8507C64.347 36.0439 66.3699 35.1739 66.3719 33.5172C66.3699 32.4764 65.5282 31.6348 64.4873 31.6328ZM47.6705 25.768C46.4954 26.945 47.3168 28.9879 49.0001 28.9879C50.6834 28.9879 51.5048 26.945 50.3297 25.768C49.5958 25.0363 48.4045 25.0363 47.6705 25.768ZM49.0001 42.3981C46.3287 42.3981 43.9196 44.006 42.8968 46.4758C41.8742 48.9436 42.4394 51.7833 44.328 53.6739C46.2187 55.5623 49.0588 56.1274 51.5269 55.1049C53.997 54.0825 55.6051 51.6736 55.6051 49.0023C55.6051 47.2501 54.9098 45.571 53.6717 44.331C52.4316 43.093 50.7526 42.3981 49.0001 42.3981ZM43.4662 43.4694C41.9983 44.937 41.175 46.9271 41.175 49.0027C41.175 51.0783 41.9983 53.0682 43.4662 54.536C44.934 56.0036 46.9243 56.8269 49.0001 56.8269C51.0759 56.8269 53.0661 56.0036 54.5341 54.536C56.0019 53.0683 56.8252 51.0783 56.8252 49.0027C56.8252 46.9271 56.0019 44.9371 54.5341 43.4694C53.0662 42.0017 51.0759 41.1785 49.0001 41.1785C46.9243 41.1785 44.9341 42.0017 43.4662 43.4694Z" stroke="url(#paint1_linear_1972_16)" stroke-width="0.5"/>
<defs>
<linearGradient id="paint0_linear_1972_16" x1="49" y1="24" x2="49" y2="74" gradientUnits="userSpaceOnUse">
<stop offset="0.16" stop-color="#63388B"/>
<stop offset="1" stop-color="#327EB2" stop-opacity="0.921569"/>
</linearGradient>
<linearGradient id="paint1_linear_1972_16" x1="49" y1="24" x2="49" y2="74" gradientUnits="userSpaceOnUse">
<stop stop-color="#63388B"/>
<stop offset="1" stop-color="#4387B7"/>
</linearGradient>
</defs>
</svg>
