<svg width="97" height="97" viewBox="0 0 97 97" fill="none" xmlns="http://www.w3.org/2000/svg">
<circle cx="48.5" cy="48.5" r="47" stroke="#574690" stroke-width="3"/>
<path fill-rule="evenodd" clip-rule="evenodd" d="M61.9768 69.2615L71.5342 64.2108L66.2928 57.8471C65.3912 59.0496 64.7145 60.8641 63.6732 61.8994C62.656 62.913 61.8242 64.7883 60.7611 65.9886L61.9793 69.2594L61.9768 69.2615ZM61.8545 47.2183L61.2258 46.5302L56.6809 50.6454C56.9821 50.7648 57.2266 50.9905 57.3685 51.2813L61.8545 47.2183ZM63.7363 45.5145L61.7018 43.2919L60.6692 44.2252L62.7037 46.4456L63.7363 45.5123V45.5145ZM63.9568 44.0581L64.5877 44.7461L65.629 43.7933L65.0133 43.1053L63.959 44.0603L63.9568 44.0581ZM62.5531 42.5258L63.6075 41.5816L64.2362 42.2566L63.1818 43.2116L62.5509 42.5236L62.5531 42.5258ZM50.8872 57.1501C50.7432 56.0606 49.9311 55.175 48.8527 54.9319L48.0886 55.6243L46.8792 58.7476L50.1254 57.8403L50.8872 57.1501ZM52.411 52.9416C52.4153 53.0219 52.4241 53.1022 52.4372 53.1825L52.8039 55.4116L51.8543 56.2732C51.516 55.2857 50.7781 54.4804 49.8198 54.0507L51.7954 52.2666L52.411 52.9416ZM58.8707 45.8572L59.8203 44.9977L60.4511 45.6858L55.2272 50.4173L54.3388 50.5584V50.5541C53.6817 50.6626 53.101 51.0489 52.7518 51.6155L52.6426 51.4961L58.8726 45.8575L58.8707 45.8572ZM56.8754 65.2134C57.1985 65.4217 57.5369 65.6084 57.8862 65.769V69.5044C57.884 69.6976 57.7268 69.8538 57.5325 69.8538H25.504C25.3097 69.8538 25.1525 69.6976 25.1525 69.5044V30.3732C25.1525 30.18 25.3097 30.0259 25.504 30.0237H32.7494C32.7559 30.2147 32.7778 30.4057 32.8127 30.5945H27.8617C26.9273 30.5967 26.1677 31.3477 26.1611 32.2788V67.2272C26.1677 68.1583 26.9273 68.9092 27.8617 68.9114H55.1752C56.1117 68.9092 56.8692 68.1583 56.8758 67.2272L56.8754 65.2134ZM56.6375 63.6029C55.7992 62.8823 55.1836 61.9382 54.8692 60.879L53.9939 55.5571C53.9939 55.5397 53.9895 55.5245 53.9851 55.5072L53.5725 52.9981C53.4721 52.3731 53.8956 51.7849 54.5221 51.6807L55.2884 51.557V51.5548C55.6311 51.5374 55.976 51.583 56.3013 51.6937L57.384 58.2769C57.4386 58.5829 57.7333 58.7913 58.0433 58.7414C58.3533 58.6893 58.565 58.4006 58.5192 58.0924L57.6154 52.6033L61.9094 48.7138H61.9116C62.3067 49.2 62.6538 49.7231 62.9485 50.2744C62.9616 50.3026 62.9769 50.3308 62.9943 50.3569C64.2692 52.3233 65.1773 54.5024 65.6751 56.7878C64.5617 58.051 63.8304 60.1216 62.8568 61.0897C61.702 62.2378 60.9161 64.0849 59.8901 65.2396H59.8923C58.7484 64.9987 57.6831 64.4821 56.7903 63.7333L56.6375 63.6029ZM50.2236 30.5948H55.1746C56.1112 30.597 56.8686 31.348 56.8752 32.279V44.972C57.2136 44.9785 57.5519 45.0067 57.8881 45.0523V30.3735C57.8859 30.1803 57.7288 30.0262 57.5367 30.0241H50.2868C50.2802 30.2151 50.2585 30.406 50.2236 30.5948ZM48.9051 30.9703C48.9138 30.9421 48.9269 30.916 48.94 30.8922C49.0753 30.5688 49.143 30.2215 49.1408 29.8721C49.1518 29.3967 49.0208 28.9301 48.7632 28.5307C48.6235 28.2811 48.3702 28.1161 48.0843 28.0858H34.9514C34.6655 28.1161 34.4122 28.2811 34.2725 28.5307C34.0171 28.9301 33.8862 29.3967 33.8971 29.8721C33.8883 30.3452 34.0193 30.8119 34.2725 31.2113C34.4123 31.4609 34.6655 31.6258 34.9514 31.6562H48.0843C48.4401 31.6562 48.7348 31.3176 48.9029 30.9703L48.9051 30.9703ZM44.2662 23.4542H46.7352C47.0539 23.4542 47.3115 23.7103 47.3115 24.0272V26.9421H48.0864C49.1561 26.9421 49.8939 27.8819 50.1624 28.8781H57.5325C58.362 28.8825 59.0344 29.5488 59.0365 30.3736V44.1623L62.8109 40.7438C63.2934 40.3097 64.0378 40.3445 64.4766 40.822L66.4718 42.9968C66.9084 43.4764 66.8735 44.2166 66.3932 44.6528L62.7607 47.9433C62.9354 48.1538 63.0991 48.3708 63.2584 48.5944L63.2563 48.5922C63.516 48.9612 63.7518 49.3454 63.9635 49.7426C64.649 50.7801 65.2297 51.8827 65.6969 53.033C66.1793 54.2224 66.5613 55.4487 66.8364 56.7011L72.8725 64.0266C72.9795 64.159 73.0231 64.3326 72.9882 64.5019C72.9554 64.6691 72.8485 64.8123 72.6978 64.8948L61.9378 70.5789C61.7872 70.6592 61.6082 70.6679 61.4489 70.6028C61.2917 70.5399 61.1694 70.4075 61.1192 70.2469L59.6763 66.3639C59.4624 66.3205 59.2506 66.2684 59.0389 66.2076V69.5046C59.0367 70.3315 58.3643 70.9978 57.5326 71H25.5041C24.6745 70.9978 24.0044 70.3293 24 69.5046V30.3733C24.0044 29.5485 24.6745 28.8822 25.5041 28.8779H32.8758C33.1443 27.8773 33.8822 26.9418 34.9518 26.9418H35.7268V24.0269C35.7268 23.71 35.9843 23.4539 36.303 23.4539H38.7764C38.8877 22.3991 39.5994 21.5049 40.6057 21.1554C41.6099 20.8038 42.7276 21.0599 43.4785 21.8109C43.9195 22.2537 44.1964 22.8334 44.2662 23.4542ZM46.1589 26.9421V24.598H43.6921C43.524 24.6001 43.3624 24.5242 43.2533 24.3961C43.1441 24.2681 43.0961 24.0988 43.1245 23.9316C43.1703 23.4455 42.9979 22.9636 42.6573 22.612C42.1792 22.1388 41.4567 22.0108 40.8454 22.2908C40.2342 22.5708 39.8609 23.198 39.9089 23.8665L39.922 24.025C39.922 24.3418 39.6644 24.5979 39.3457 24.5979H36.8789V26.942L46.1589 26.9421ZM39.4505 30.443H43.5894C43.9081 30.443 44.1657 30.1869 44.1657 29.8701C44.1657 29.5532 43.9081 29.2971 43.5894 29.2971H39.4482C39.1295 29.2971 38.872 29.5532 38.872 29.8701C38.872 30.187 39.1296 30.443 39.4482 30.443H39.4505ZM40.3477 37.4991H49.7715C49.9287 37.5034 50.0793 37.4448 50.1906 37.3385C50.302 37.2299 50.3653 37.0823 50.3653 36.9261C50.3653 36.772 50.302 36.6222 50.1906 36.5159C50.0793 36.4073 49.9287 36.3487 49.7715 36.3531H40.3455C40.0355 36.3639 39.7866 36.6179 39.7866 36.926C39.7866 37.2364 40.0355 37.4903 40.3455 37.499L40.3477 37.4991ZM40.3477 40.4704H53.4761C53.7861 40.4596 54.0328 40.2057 54.0328 39.8975C54.0328 39.5871 53.7861 39.3332 53.4761 39.3245H40.3455C40.0355 39.3332 39.7866 39.5871 39.7866 39.8975C39.7866 40.2057 40.0355 40.4596 40.3455 40.4704H40.3477ZM35.8966 36.0405C34.9317 35.0812 33.4822 34.7947 32.2205 35.3134C30.9609 35.8322 30.1379 37.0563 30.1379 38.4128C30.1379 39.7693 30.9609 40.9913 32.2205 41.51C33.4822 42.0309 34.9318 41.7423 35.8966 40.7829C37.2151 39.4741 37.2151 37.3493 35.8966 36.0405ZM33.5128 33.9135C31.6813 33.9135 30.0309 35.0096 29.3302 36.6917C28.6294 38.3716 29.0158 40.3076 30.3103 41.5947C31.6048 42.8818 33.5521 43.2681 35.2439 42.5714C36.9357 41.8747 38.0381 40.2339 38.0381 38.4128C38.0381 35.9276 36.0124 33.9135 33.5128 33.9135ZM31.3342 38.975L32.3755 40.0038H32.3777C32.5982 40.2209 32.9518 40.2252 33.1788 40.0125L35.6806 37.6402H35.6784C35.7941 37.536 35.8617 37.3906 35.8661 37.2387C35.8727 37.0846 35.8159 36.9348 35.7089 36.8241C35.602 36.7113 35.4557 36.6483 35.3007 36.6461C35.1457 36.644 34.9973 36.7048 34.8881 36.8133L32.7903 38.8014L32.1463 38.1633C31.9215 37.9419 31.5569 37.9419 31.3343 38.1655C31.1094 38.389 31.1116 38.7515 31.3365 38.9729L31.3342 38.975ZM49.1189 51.3185C49.383 50.0943 50.0444 48.9917 50.9985 48.1778C52.6401 46.7974 54.7335 46.0638 56.8814 46.1159L49.0464 53.2092C48.9722 52.6014 48.9918 51.9851 49.1032 51.3838L49.1163 51.3187L49.1189 51.3185ZM35.8966 47.3813C34.9317 46.4219 33.4801 46.1354 32.2183 46.6542C30.9587 47.1729 30.1357 48.397 30.1357 49.7536C30.1357 51.1101 30.9587 52.3321 32.2183 52.853C33.4801 53.3717 34.9318 53.083 35.8966 52.1237C37.213 50.8149 37.213 48.6923 35.8966 47.3813ZM33.5106 45.2543C31.6791 45.2543 30.0287 46.3504 29.328 48.0324C28.6273 49.7145 29.0158 51.6506 30.3103 52.9376C31.6048 54.2247 33.5521 54.6089 35.2417 53.9122C36.9335 53.2155 38.0359 51.5746 38.0359 49.7536C38.0359 47.2684 36.0102 45.2543 33.5106 45.2543ZM31.3342 50.3158L32.3755 51.3446C32.596 51.5616 32.9496 51.566 33.1767 51.3533L35.6784 48.981C35.9076 48.7639 35.9163 48.4014 35.698 48.1736C35.4797 47.9457 35.1152 47.9348 34.886 48.154L32.7881 50.1422L32.1442 49.5041C31.9193 49.2827 31.5547 49.2827 31.3321 49.5062C31.1095 49.7298 31.1094 50.0923 31.3343 50.3136L31.3342 50.3158ZM40.3456 60.1805H45.934C45.9995 60.1805 46.065 60.1697 46.1283 60.148L50.5554 58.9108L50.5532 58.9086C50.6449 58.8869 50.7301 58.8413 50.7999 58.7784L53.0266 56.7599L53.736 61.0747V61.0726C53.7382 61.1029 53.7448 61.1312 53.7513 61.1594C54.1028 62.3727 54.7861 63.4665 55.7225 64.3174V67.228C55.7225 67.3712 55.6636 67.508 55.561 67.61C55.4562 67.712 55.3187 67.7663 55.1724 67.7663H27.8611C27.717 67.7663 27.5773 67.712 27.4747 67.61C27.3721 67.5101 27.3132 67.3712 27.3132 67.228V32.2773C27.3132 32.1341 27.3721 31.9974 27.4747 31.8953C27.5773 31.7955 27.717 31.7391 27.8611 31.7391H33.2487C33.5893 32.3663 34.2354 32.7701 34.9515 32.8004H48.0843C48.8003 32.7701 49.4465 32.3664 49.7871 31.7391H55.1747C55.3187 31.7391 55.4585 31.7955 55.5611 31.8953C55.6637 31.9974 55.7226 32.1341 55.7226 32.2773V45.0181C53.5112 45.2113 51.433 46.1576 49.8396 47.6964H40.346C40.036 47.7051 39.7871 47.959 39.7871 48.2672C39.7871 48.5776 40.036 48.8315 40.346 48.8402H48.9164C48.5519 49.4023 48.2746 50.0188 48.0956 50.6634H40.3461C40.0361 50.6742 39.7872 50.9281 39.7872 51.2363C39.7872 51.5467 40.0361 51.8006 40.3461 51.8093H47.8838C47.8161 52.5841 47.8663 53.3655 48.0366 54.1252L47.218 54.8675C47.1503 54.9282 47.1001 55.002 47.0674 55.0845L45.5393 59.0326H40.3416H40.3437C40.0316 59.0434 39.7849 59.2974 39.7849 59.6055C39.7849 59.9159 40.0316 60.1677 40.3437 60.1785L40.3456 60.1805ZM40.3456 63.1519L53.4762 63.1497C53.7862 63.1411 54.0329 62.8871 54.0329 62.5768C54.0329 62.2686 53.7862 62.0146 53.4762 62.006H40.3456C40.0356 62.0146 39.7867 62.2686 39.7867 62.5768C39.7867 62.8871 40.0356 63.1411 40.3456 63.1497V63.1519ZM35.8967 58.7198C34.9318 57.7605 33.4801 57.474 32.2183 57.9927C30.9588 58.5115 30.1358 59.7356 30.1358 61.0921C30.1358 62.4486 30.9588 63.6728 32.2183 64.1915C33.4801 64.7102 34.9318 64.4237 35.8967 63.4644C37.213 62.1534 37.213 60.0308 35.8967 58.7198ZM33.5107 56.5928C31.6792 56.5928 30.0288 57.6889 29.3281 59.371C28.6273 61.053 29.0159 62.9891 30.3104 64.2762C31.6049 65.5633 33.5521 65.9474 35.2418 65.2529C36.9335 64.5562 38.036 62.9132 38.036 61.0943C38.036 58.6091 36.0102 56.5928 33.5107 56.5928ZM31.3343 61.6543L32.3755 62.6831C32.596 62.9002 32.9497 62.9045 33.1767 62.6918L35.6784 60.3195C35.9077 60.1025 35.9164 59.7421 35.6981 59.5121C35.4798 59.2842 35.1152 59.2755 34.886 59.4926L32.7882 61.4807L32.1442 60.8426V60.8448C31.9172 60.6299 31.5613 60.6342 31.3409 60.8535C31.1204 61.0748 31.116 61.4308 31.3343 61.6543Z" fill="url(#paint0_linear_1972_15)"/>
<path d="M33.5106 33.9135H33.5128M33.5128 33.9135C31.6813 33.9135 30.0309 35.0096 29.3302 36.6917C28.6294 38.3716 29.0158 40.3076 30.3103 41.5947C31.6048 42.8818 33.5521 43.2681 35.2439 42.5714C36.9357 41.8747 38.0381 40.2339 38.0381 38.4128C38.0381 35.9276 36.0124 33.9135 33.5128 33.9135ZM61.9768 69.2615L71.5342 64.2108L66.2928 57.8471C65.3912 59.0496 64.7145 60.8641 63.6732 61.8994C62.656 62.913 61.8242 64.7883 60.7611 65.9886L61.9793 69.2594L61.9768 69.2615ZM61.8545 47.2183L61.2258 46.5302L56.6809 50.6454C56.9821 50.7648 57.2266 50.9905 57.3685 51.2813L61.8545 47.2183ZM63.7363 45.5145L61.7018 43.2919L60.6692 44.2252L62.7037 46.4456L63.7363 45.5123V45.5145ZM63.9568 44.0581L64.5877 44.7461L65.629 43.7933L65.0133 43.1053L63.959 44.0603L63.9568 44.0581ZM62.5531 42.5258L63.6075 41.5816L64.2362 42.2566L63.1818 43.2116L62.5509 42.5236L62.5531 42.5258ZM50.8872 57.1501C50.7432 56.0606 49.9311 55.175 48.8527 54.9319L48.0886 55.6243L46.8792 58.7476L50.1254 57.8403L50.8872 57.1501ZM52.411 52.9416C52.4153 53.0219 52.4241 53.1022 52.4372 53.1825L52.8039 55.4116L51.8543 56.2732C51.516 55.2857 50.7781 54.4804 49.8198 54.0507L51.7954 52.2666L52.411 52.9416ZM58.8707 45.8572L59.8203 44.9977L60.4511 45.6858L55.2272 50.4173L54.3388 50.5584V50.5541C53.6817 50.6626 53.101 51.0489 52.7518 51.6155L52.6426 51.4961L58.8726 45.8575L58.8707 45.8572ZM56.8754 65.2134C57.1985 65.4218 57.5369 65.6084 57.8861 65.769V69.5044C57.884 69.6976 57.7268 69.8538 57.5325 69.8538H25.504C25.3097 69.8538 25.1525 69.6976 25.1525 69.5044V30.3732C25.1525 30.18 25.3097 30.0259 25.504 30.0237H32.7494C32.7559 30.2147 32.7778 30.4057 32.8127 30.5945H27.8617C26.9273 30.5967 26.1677 31.3477 26.1611 32.2788V67.2272C26.1677 68.1583 26.9273 68.9092 27.8617 68.9114H55.1752C56.1117 68.9092 56.8692 68.1583 56.8758 67.2272L56.8754 65.2134ZM56.6375 63.6029C55.7992 62.8823 55.1836 61.9382 54.8692 60.879L53.9939 55.5571C53.9939 55.5397 53.9895 55.5245 53.9851 55.5072L53.5725 52.9981C53.4721 52.3731 53.8956 51.7849 54.5221 51.6807L55.2884 51.557V51.5548C55.6311 51.5374 55.976 51.583 56.3013 51.6937L57.384 58.2769C57.4386 58.5829 57.7333 58.7913 58.0433 58.7414C58.3533 58.6893 58.565 58.4006 58.5192 58.0924L57.6154 52.6033L61.9094 48.7138H61.9116C62.3067 49.2 62.6538 49.7231 62.9485 50.2744C62.9616 50.3026 62.9769 50.3308 62.9943 50.3569C64.2692 52.3233 65.1773 54.5024 65.6751 56.7878C64.5617 58.051 63.8304 60.1216 62.8568 61.0897C61.702 62.2378 60.9161 64.0849 59.8901 65.2396H59.8923C58.7484 64.9987 57.6831 64.4821 56.7903 63.7333L56.6375 63.6029ZM50.2236 30.5948H55.1746C56.1112 30.597 56.8686 31.348 56.8752 32.279V44.972C57.2136 44.9785 57.5519 45.0067 57.8881 45.0523V30.3735C57.8859 30.1803 57.7288 30.0262 57.5367 30.0241H50.2868C50.2802 30.2151 50.2585 30.406 50.2236 30.5948ZM48.9051 30.9703C48.9138 30.9421 48.9269 30.916 48.94 30.8922C49.0753 30.5688 49.143 30.2215 49.1408 29.8721C49.1518 29.3967 49.0208 28.9301 48.7632 28.5307C48.6235 28.2811 48.3702 28.1161 48.0843 28.0858H34.9514C34.6655 28.1161 34.4122 28.2811 34.2725 28.5307C34.0171 28.9301 33.8862 29.3967 33.8971 29.8721C33.8883 30.3452 34.0193 30.8119 34.2725 31.2113C34.4123 31.4609 34.6655 31.6258 34.9514 31.6562H48.0843C48.4401 31.6562 48.7348 31.3176 48.9029 30.9703L48.9051 30.9703ZM44.2662 23.4542H46.7352C47.0539 23.4542 47.3115 23.7103 47.3115 24.0272V26.9421H48.0864C49.1561 26.9421 49.8939 27.8819 50.1624 28.8782H57.5325C58.362 28.8825 59.0344 29.5488 59.0365 30.3736V44.1623L62.8109 40.7438C63.2934 40.3097 64.0378 40.3445 64.4766 40.822L66.4718 42.9968C66.9084 43.4764 66.8735 44.2166 66.3932 44.6528L62.7607 47.9433C62.9354 48.1538 63.0991 48.3708 63.2585 48.5944L63.2563 48.5922C63.516 48.9612 63.7518 49.3454 63.9635 49.7426C64.649 50.7801 65.2297 51.8827 65.6969 53.033C66.1793 54.2224 66.5613 55.4487 66.8364 56.7011L72.8725 64.0266C72.9795 64.159 73.0231 64.3326 72.9882 64.5019C72.9554 64.6691 72.8485 64.8123 72.6978 64.8948L61.9378 70.5789C61.7872 70.6592 61.6082 70.6679 61.4489 70.6028C61.2917 70.5399 61.1694 70.4075 61.1192 70.2469L59.6763 66.3639C59.4624 66.3205 59.2506 66.2684 59.0389 66.2076V69.5046C59.0367 70.3315 58.3643 70.9978 57.5326 71H25.5041C24.6745 70.9978 24.0044 70.3293 24 69.5046V30.3733C24.0044 29.5485 24.6745 28.8822 25.5041 28.8779H32.8758C33.1443 27.8773 33.8822 26.9418 34.9518 26.9418H35.7268V24.0269C35.7268 23.71 35.9843 23.4539 36.303 23.4539H38.7764C38.8877 22.3991 39.5994 21.5049 40.6057 21.1554C41.6099 20.8038 42.7276 21.0599 43.4785 21.8109C43.9195 22.2537 44.1964 22.8334 44.2662 23.4542ZM46.1589 26.9421V24.598H43.6921C43.524 24.6001 43.3624 24.5242 43.2533 24.3961C43.1441 24.2681 43.0961 24.0988 43.1245 23.9316C43.1703 23.4455 42.9979 22.9636 42.6573 22.612C42.1792 22.1388 41.4567 22.0108 40.8454 22.2908C40.2342 22.5708 39.8609 23.198 39.9089 23.8665L39.922 24.025C39.922 24.3418 39.6644 24.5979 39.3457 24.5979H36.8789V26.942L46.1589 26.9421ZM39.4505 30.443H43.5894C43.9081 30.443 44.1657 30.1869 44.1657 29.8701C44.1657 29.5532 43.9081 29.2971 43.5894 29.2971H39.4482C39.1295 29.2971 38.872 29.5532 38.872 29.8701C38.872 30.187 39.1296 30.443 39.4482 30.443H39.4505ZM40.3477 37.4991H49.7715C49.9287 37.5034 50.0793 37.4448 50.1906 37.3385C50.302 37.2299 50.3653 37.0823 50.3653 36.9261C50.3653 36.772 50.302 36.6222 50.1906 36.5159C50.0793 36.4073 49.9287 36.3487 49.7715 36.3531H40.3455C40.0355 36.3639 39.7866 36.6179 39.7866 36.926C39.7866 37.2364 40.0355 37.4903 40.3455 37.499L40.3477 37.4991ZM40.3477 40.4704H53.4761C53.7861 40.4596 54.0328 40.2057 54.0328 39.8975C54.0328 39.5871 53.7861 39.3332 53.4761 39.3245H40.3455C40.0355 39.3332 39.7866 39.5871 39.7866 39.8975C39.7866 40.2057 40.0355 40.4596 40.3455 40.4704H40.3477ZM35.8966 36.0405C34.9317 35.0812 33.4822 34.7947 32.2205 35.3134C30.9609 35.8322 30.1379 37.0563 30.1379 38.4128C30.1379 39.7693 30.9609 40.9913 32.2205 41.51C33.4822 42.0309 34.9318 41.7423 35.8966 40.7829C37.2151 39.4741 37.2151 37.3493 35.8966 36.0405ZM31.3342 38.975L32.3755 40.0038H32.3777C32.5982 40.2209 32.9518 40.2252 33.1788 40.0125L35.6806 37.6402H35.6784C35.7941 37.536 35.8617 37.3906 35.8661 37.2387C35.8727 37.0846 35.8159 36.9348 35.7089 36.8241C35.602 36.7113 35.4557 36.6483 35.3007 36.6461C35.1457 36.644 34.9973 36.7048 34.8881 36.8133L32.7903 38.8014L32.1463 38.1633C31.9215 37.9419 31.5569 37.9419 31.3343 38.1655C31.1094 38.389 31.1116 38.7515 31.3365 38.9729L31.3342 38.975ZM49.1189 51.3185C49.383 50.0943 50.0444 48.9917 50.9985 48.1778C52.6401 46.7974 54.7335 46.0638 56.8814 46.1159L49.0464 53.2092C48.9722 52.6014 48.9918 51.9851 49.1032 51.3838L49.1163 51.3187L49.1189 51.3185ZM35.8966 47.3813C34.9317 46.4219 33.4801 46.1354 32.2183 46.6542C30.9587 47.1729 30.1357 48.397 30.1357 49.7536C30.1357 51.1101 30.9587 52.3321 32.2183 52.853C33.4801 53.3717 34.9318 53.083 35.8966 52.1237C37.213 50.8149 37.213 48.6923 35.8966 47.3813ZM33.5106 45.2543C31.6791 45.2543 30.0287 46.3504 29.328 48.0324C28.6273 49.7145 29.0158 51.6506 30.3103 52.9376C31.6048 54.2247 33.5521 54.6089 35.2417 53.9122C36.9335 53.2155 38.0359 51.5746 38.0359 49.7536C38.0359 47.2684 36.0102 45.2543 33.5106 45.2543ZM31.3342 50.3158L32.3755 51.3446C32.596 51.5616 32.9496 51.566 33.1767 51.3533L35.6784 48.981C35.9076 48.7639 35.9163 48.4014 35.698 48.1736C35.4797 47.9457 35.1152 47.9348 34.886 48.154L32.7881 50.1422L32.1442 49.5041C31.9193 49.2827 31.5547 49.2827 31.3321 49.5062C31.1095 49.7298 31.1094 50.0923 31.3343 50.3136L31.3342 50.3158ZM40.3456 60.1805H45.934C45.9995 60.1805 46.065 60.1697 46.1283 60.148L50.5554 58.9108L50.5532 58.9086C50.6449 58.8869 50.7301 58.8413 50.7999 58.7784L53.0266 56.7599L53.736 61.0747V61.0726C53.7382 61.1029 53.7448 61.1312 53.7513 61.1594C54.1028 62.3727 54.7861 63.4665 55.7225 64.3174V67.228C55.7225 67.3712 55.6636 67.508 55.561 67.61C55.4562 67.712 55.3187 67.7663 55.1724 67.7663H27.8611C27.717 67.7663 27.5773 67.712 27.4747 67.61C27.3721 67.5101 27.3132 67.3712 27.3132 67.228V32.2773C27.3132 32.1341 27.3721 31.9974 27.4747 31.8953C27.5773 31.7955 27.717 31.7391 27.8611 31.7391H33.2487C33.5893 32.3663 34.2354 32.7701 34.9515 32.8004H48.0843C48.8003 32.7701 49.4465 32.3664 49.7871 31.7391H55.1747C55.3187 31.7391 55.4585 31.7955 55.5611 31.8953C55.6637 31.9974 55.7226 32.1341 55.7226 32.2773V45.0181C53.5112 45.2113 51.433 46.1576 49.8396 47.6964H40.346C40.036 47.7051 39.7871 47.959 39.7871 48.2672C39.7871 48.5776 40.036 48.8315 40.346 48.8402H48.9164C48.5519 49.4023 48.2746 50.0188 48.0956 50.6634H40.3461C40.0361 50.6742 39.7872 50.9281 39.7872 51.2363C39.7872 51.5467 40.0361 51.8006 40.3461 51.8093H47.8838C47.8161 52.5841 47.8663 53.3655 48.0366 54.1252L47.218 54.8675C47.1503 54.9282 47.1001 55.002 47.0674 55.0845L45.5393 59.0326H40.3416H40.3437C40.0316 59.0434 39.7849 59.2974 39.7849 59.6055C39.7849 59.9159 40.0316 60.1677 40.3437 60.1785L40.3456 60.1805ZM40.3456 63.1519L53.4762 63.1497C53.7862 63.1411 54.0329 62.8871 54.0329 62.5768C54.0329 62.2686 53.7862 62.0146 53.4762 62.006H40.3456C40.0356 62.0146 39.7867 62.2686 39.7867 62.5768C39.7867 62.8871 40.0356 63.1411 40.3456 63.1497V63.1519ZM35.8967 58.7198C34.9318 57.7605 33.4801 57.474 32.2183 57.9927C30.9588 58.5114 30.1358 59.7356 30.1358 61.0921C30.1358 62.4486 30.9588 63.6728 32.2183 64.1915C33.4801 64.7102 34.9318 64.4237 35.8967 63.4644C37.213 62.1534 37.213 60.0308 35.8967 58.7198ZM33.5107 56.5928C31.6792 56.5928 30.0288 57.6889 29.3281 59.371C28.6273 61.053 29.0159 62.9891 30.3104 64.2762C31.6049 65.5633 33.5521 65.9474 35.2418 65.2529C36.9335 64.5562 38.036 62.9132 38.036 61.0943C38.036 58.6091 36.0102 56.5928 33.5107 56.5928ZM31.3343 61.6543L32.3755 62.6831C32.596 62.9002 32.9497 62.9045 33.1767 62.6918L35.6784 60.3195C35.9077 60.1025 35.9164 59.7421 35.6981 59.5121C35.4798 59.2842 35.1152 59.2755 34.886 59.4926L32.7882 61.4807L32.1442 60.8426V60.8448C31.9172 60.6299 31.5613 60.6342 31.3409 60.8535C31.1204 61.0748 31.116 61.4308 31.3343 61.6543Z" stroke="url(#paint1_linear_1972_15)" stroke-width="0.5"/>
<defs>
<linearGradient id="paint0_linear_1972_15" x1="48.5" y1="21" x2="48.5" y2="71" gradientUnits="userSpaceOnUse">
<stop offset="0.16" stop-color="#63388B"/>
<stop offset="1" stop-color="#327EB2" stop-opacity="0.921569"/>
</linearGradient>
<linearGradient id="paint1_linear_1972_15" x1="48.5" y1="21" x2="48.5" y2="71" gradientUnits="userSpaceOnUse">
<stop stop-color="#63388B"/>
<stop offset="1" stop-color="#4387B7"/>
</linearGradient>
</defs>
</svg>
