<svg width="97" height="97" viewBox="0 0 97 97" fill="none" xmlns="http://www.w3.org/2000/svg">
<circle cx="48.5" cy="48.5" r="47" stroke="#406AA7" stroke-width="3"/>
<path d="M73.5563 26H24.9177C24.4109 26 24 26.4109 24 26.9177V60.8729C24 61.3797 24.4109 61.7906 24.9177 61.7906H47.8604V69.1646H34.913C34.4062 69.1646 33.9953 69.5755 33.9953 70.0823C33.9953 70.5891 34.4062 71 34.913 71H62.6433C63.1501 71 63.561 70.5891 63.561 70.0823C63.561 69.5755 63.1501 69.1646 62.6433 69.1646H49.6959V61.7906H73.5563C74.0631 61.7906 74.474 61.3797 74.474 60.8729V26.9177C74.474 26.4109 74.0631 26 73.5563 26ZM72.6386 27.8354V31.5063H25.8354V27.8354H72.6386ZM25.8354 59.9552V33.3417H72.6386V59.9552H25.8354Z" fill="url(#paint0_linear_1972_17)" stroke="url(#paint1_linear_1972_17)" stroke-width="0.5"/>
<path d="M28.5896 30.5854C29.0964 30.5854 29.5073 30.1745 29.5073 29.6677C29.5073 29.1609 29.0964 28.75 28.5896 28.75C28.0827 28.75 27.6719 29.1609 27.6719 29.6677C27.6719 30.1745 28.0827 30.5854 28.5896 30.5854Z" fill="url(#paint2_linear_1972_17)" stroke="url(#paint3_linear_1972_17)" stroke-width="0.5"/>
<path d="M62.6532 45.4656L64.0015 43.1306L62.4117 42.2129L61.0149 44.6317H57.341L55.9926 42.2967L54.4028 43.2144L55.7991 45.6328L53.9618 48.8152H51.2656V50.6506H54.0582L55.8954 53.833L54.5475 56.1685L56.1374 57.0862L57.5336 54.6674H61.2081L62.5564 57.0029L64.1463 56.0852L62.75 53.6663L64.5872 50.4839H67.2834V48.6485H64.4908L62.6532 45.4656ZM61.1122 52.832H57.4369L55.5996 49.6496L57.4369 46.4672H61.1122L62.9494 49.6496L61.1122 52.832Z" fill="url(#paint4_linear_1972_17)" stroke="url(#paint5_linear_1972_17)" stroke-width="0.5"/>
<path d="M59.2748 50.7019C59.8559 50.7019 60.3269 50.2309 60.3269 49.6498C60.3269 49.0687 59.8559 48.5977 59.2748 48.5977C58.6937 48.5977 58.2227 49.0687 58.2227 49.6498C58.2227 50.2309 58.6937 50.7019 59.2748 50.7019Z" fill="url(#paint6_linear_1972_17)" stroke="url(#paint7_linear_1972_17)" stroke-width="0.5"/>
<path d="M41.6695 47.4328C42.4298 47.4328 43.0461 46.8165 43.0461 46.0563C43.0461 45.296 42.4298 44.6797 41.6695 44.6797C40.9093 44.6797 40.293 45.296 40.293 46.0563C40.293 46.8165 40.9093 47.4328 41.6695 47.4328Z" fill="url(#paint8_linear_1972_17)" stroke="url(#paint9_linear_1972_17)" stroke-width="0.5"/>
<path d="M52.8345 46.9719V45.1365H50.0899L46.6745 39.2207L48.047 36.8435L46.4572 35.9258L45.0846 38.303H38.2542L36.8817 35.9258L35.2919 36.8435L36.6644 39.2207L33.2485 45.1365H30.5039V46.9719H33.2485L36.6644 52.8877L35.2919 55.2649L36.8817 56.1826L38.2542 53.8054H45.0846L46.4572 56.1826L48.047 55.2649L46.6745 52.8877L50.0899 46.9719H52.8345ZM45.0851 51.97H38.2538L34.8384 46.0542L38.2538 40.1384H45.0851L48.5001 46.0542L45.0851 51.97Z" fill="url(#paint10_linear_1972_17)" stroke="url(#paint11_linear_1972_17)" stroke-width="0.5"/>
<defs>
<linearGradient id="paint0_linear_1972_17" x1="49.237" y1="26" x2="49.237" y2="71" gradientUnits="userSpaceOnUse">
<stop offset="0.16" stop-color="#63388B"/>
<stop offset="1" stop-color="#327EB2" stop-opacity="0.921569"/>
</linearGradient>
<linearGradient id="paint1_linear_1972_17" x1="49.237" y1="26" x2="49.237" y2="71" gradientUnits="userSpaceOnUse">
<stop stop-color="#63388B"/>
<stop offset="1" stop-color="#4387B7"/>
</linearGradient>
<linearGradient id="paint2_linear_1972_17" x1="28.5896" y1="28.75" x2="28.5896" y2="30.5854" gradientUnits="userSpaceOnUse">
<stop offset="0.16" stop-color="#63388B"/>
<stop offset="1" stop-color="#327EB2" stop-opacity="0.921569"/>
</linearGradient>
<linearGradient id="paint3_linear_1972_17" x1="28.5896" y1="28.75" x2="28.5896" y2="30.5854" gradientUnits="userSpaceOnUse">
<stop stop-color="#63388B"/>
<stop offset="1" stop-color="#4387B7"/>
</linearGradient>
<linearGradient id="paint4_linear_1972_17" x1="59.2745" y1="42.2129" x2="59.2745" y2="57.0862" gradientUnits="userSpaceOnUse">
<stop offset="0.16" stop-color="#63388B"/>
<stop offset="1" stop-color="#327EB2" stop-opacity="0.921569"/>
</linearGradient>
<linearGradient id="paint5_linear_1972_17" x1="59.2745" y1="42.2129" x2="59.2745" y2="57.0862" gradientUnits="userSpaceOnUse">
<stop stop-color="#63388B"/>
<stop offset="1" stop-color="#4387B7"/>
</linearGradient>
<linearGradient id="paint6_linear_1972_17" x1="59.2748" y1="48.5977" x2="59.2748" y2="50.7019" gradientUnits="userSpaceOnUse">
<stop offset="0.16" stop-color="#63388B"/>
<stop offset="1" stop-color="#327EB2" stop-opacity="0.921569"/>
</linearGradient>
<linearGradient id="paint7_linear_1972_17" x1="59.2748" y1="48.5977" x2="59.2748" y2="50.7019" gradientUnits="userSpaceOnUse">
<stop stop-color="#63388B"/>
<stop offset="1" stop-color="#4387B7"/>
</linearGradient>
<linearGradient id="paint8_linear_1972_17" x1="41.6695" y1="44.6797" x2="41.6695" y2="47.4328" gradientUnits="userSpaceOnUse">
<stop offset="0.16" stop-color="#63388B"/>
<stop offset="1" stop-color="#327EB2" stop-opacity="0.921569"/>
</linearGradient>
<linearGradient id="paint9_linear_1972_17" x1="41.6695" y1="44.6797" x2="41.6695" y2="47.4328" gradientUnits="userSpaceOnUse">
<stop stop-color="#63388B"/>
<stop offset="1" stop-color="#4387B7"/>
</linearGradient>
<linearGradient id="paint10_linear_1972_17" x1="41.6692" y1="35.9258" x2="41.6692" y2="56.1826" gradientUnits="userSpaceOnUse">
<stop offset="0.16" stop-color="#63388B"/>
<stop offset="1" stop-color="#327EB2" stop-opacity="0.921569"/>
</linearGradient>
<linearGradient id="paint11_linear_1972_17" x1="41.6692" y1="35.9258" x2="41.6692" y2="56.1826" gradientUnits="userSpaceOnUse">
<stop stop-color="#63388B"/>
<stop offset="1" stop-color="#4387B7"/>
</linearGradient>
</defs>
</svg>
