<svg width="97" height="97" viewBox="0 0 97 97" fill="none" xmlns="http://www.w3.org/2000/svg">
<circle cx="48.5" cy="48.5" r="47" stroke="#307AAC" stroke-width="3"/>
<path d="M72.3711 49.9222H67.1742C66.6546 49.9222 66.3081 50.2686 66.3081 50.7883V51.0482C64.6624 49.9222 63.7096 48.1032 63.7096 46.1111V43.8591C63.7096 41.9536 62.1506 40.3945 60.245 40.3945C58.3395 40.3945 56.7804 41.9536 56.7804 43.8591V49.9225H50.7171C49.6777 49.9225 48.7249 50.3555 48.1186 51.1351C47.5123 50.4422 46.5596 49.9225 45.5202 49.9225H39.4569V43.8591C39.4569 41.9536 37.8978 40.3945 35.9923 40.3945C34.0867 40.3945 32.5277 41.9536 32.5277 43.8591V46.1111C32.5277 48.1033 31.5749 49.9222 29.9292 51.0482V50.7883C29.9292 50.2686 29.5827 49.9222 29.0631 49.9222H23.8662C23.3465 49.9222 23 50.2686 23 50.7883V64.6467C23 65.1664 23.3465 65.5129 23.8662 65.5129H29.0631C29.5827 65.5129 29.9292 65.1664 29.9292 64.6467V64.3003L32.441 65.5129C33.4804 66.0326 34.693 66.2924 35.9056 66.2924H45.52C46.5594 66.2924 47.5122 65.8593 48.1185 65.0798C48.7248 65.7727 49.6776 66.2924 50.7169 66.2924H60.3313C61.544 66.2924 62.7566 66.0325 63.796 65.5129L66.3078 64.3003V64.6467C66.3078 65.1664 66.6542 65.5129 67.1739 65.5129H72.3708C72.8905 65.5129 73.237 65.1664 73.237 64.6467V50.7883C73.237 50.2686 72.8908 49.9222 72.3711 49.9222ZM24.7326 63.7806V51.6545H28.1972V63.7806H24.7326ZM45.5202 64.6467H35.9058C34.953 64.6467 34.0869 64.3869 33.2207 64.0404L29.9293 62.3947V53.0402C32.6144 51.741 34.2601 49.056 34.2601 46.111V43.8591C34.2601 42.9063 35.0396 42.1268 35.9924 42.1268C36.9452 42.1268 37.7247 42.9063 37.7247 43.8591V50.7883C37.7247 51.3079 38.0711 51.6544 38.5908 51.6544H45.52C46.4728 51.6544 47.2523 52.4339 47.2523 53.3867V62.9146C47.2523 63.8674 46.473 64.6467 45.5202 64.6467ZM63.0162 64.0404C62.15 64.4735 61.2839 64.6467 60.3311 64.6467H50.7167C49.7639 64.6467 48.9844 63.8672 48.9844 62.9144V53.3865C48.9844 52.4337 49.7639 51.6542 50.7167 51.6542H57.6459C58.1656 51.6542 58.512 51.3077 58.512 50.788V43.8588C58.512 42.906 59.2915 42.1265 60.2443 42.1265C61.1971 42.1265 61.9766 42.906 61.9766 43.8588V46.1108C61.9766 49.0557 63.6223 51.7407 66.3074 53.04V62.3945L63.0162 64.0404ZM71.5042 63.7805H68.0396V51.6544H71.5042V63.7805Z" fill="url(#paint0_linear_1972_19)" stroke="url(#paint1_linear_1972_19)" stroke-width="0.5"/>
<path d="M34.0864 37.1893C34.2596 38.0555 35.1258 38.6617 35.9919 38.6617C36.8581 38.6617 37.7242 38.0554 37.8975 37.1893L39.4565 31.126C39.5432 30.8661 39.4565 30.6063 39.2833 30.3465C39.1101 30.0866 38.8502 30 38.5904 30H33.3935C33.1336 30 32.8738 30.0866 32.7006 30.3465C32.5273 30.6063 32.5273 30.7795 32.5273 31.0394L34.0864 37.1893ZM37.4644 31.7325L36.2518 36.7562C36.1652 37.016 35.8187 37.016 35.8187 36.7562L34.5195 31.7325H37.4644Z" fill="url(#paint2_linear_1972_19)" stroke="url(#paint3_linear_1972_19)" stroke-width="0.5"/>
<path d="M24.9949 37.8819L30.365 41.0866C30.7115 41.2599 31.058 41.3465 31.4044 41.3465C31.9241 41.3465 32.4438 41.1733 32.7903 40.7402C33.3966 40.1338 33.5698 39.0944 33.0501 38.3149L29.8454 32.9448C29.6721 32.6849 29.4989 32.5983 29.239 32.5117C28.9792 32.5117 28.7193 32.5983 28.5461 32.7716L24.9083 36.4094C24.7351 36.5826 24.6484 36.8425 24.6484 37.1023C24.6484 37.3622 24.8217 37.7087 24.9949 37.8819ZM28.9792 34.8504L31.6643 39.2677C31.7509 39.3544 31.6643 39.5276 31.6643 39.5276C31.5777 39.6142 31.4911 39.6142 31.4044 39.5276L26.9005 36.9291L28.9792 34.8504Z" fill="url(#paint4_linear_1972_19)" stroke="url(#paint5_linear_1972_19)" stroke-width="0.5"/>
<path d="M39.1959 40.8286C39.5423 41.1751 40.062 41.4349 40.5817 41.4349C40.9282 41.4349 41.2746 41.3483 41.6211 41.1751L46.9912 37.9704C47.2511 37.7971 47.3377 37.6239 47.4243 37.364C47.5109 37.1042 47.3377 36.8443 47.1645 36.6711L43.5266 33.0333C43.3534 32.8601 43.0936 32.7734 42.8337 32.7734C42.5739 32.7734 42.314 32.9467 42.2274 33.2065L39.0227 38.5766C38.4163 39.183 38.503 40.1357 39.1959 40.8286ZM40.3219 39.2695L43.0069 34.8521L45.0857 36.9309L40.6683 39.616C40.5817 39.7026 40.4085 39.616 40.4085 39.616C40.4085 39.616 40.3219 39.3562 40.3219 39.2695Z" fill="url(#paint6_linear_1972_19)" stroke="url(#paint7_linear_1972_19)" stroke-width="0.5"/>
<path d="M58.3403 37.1893C58.5136 38.0555 59.3797 38.6617 60.2459 38.6617C61.112 38.6617 61.9782 38.0554 62.1514 37.1893L63.7105 31.126C63.7971 30.8661 63.7105 30.6063 63.5372 30.3465C63.364 30.0866 63.1042 30 62.8443 30H57.6474C57.3876 30 57.1277 30.0866 56.9545 30.3465C56.7812 30.6063 56.7812 30.7795 56.7812 31.0394L58.3403 37.1893ZM61.7183 31.7325L60.5057 36.7562C60.4191 37.016 60.0726 37.016 60.0726 36.7562L58.7734 31.7325H61.7183Z" fill="url(#paint8_linear_1972_19)" stroke="url(#paint9_linear_1972_19)" stroke-width="0.5"/>
<path d="M49.2449 37.8819L54.615 41.0866C54.9615 41.2599 55.308 41.3465 55.6544 41.3465C56.1741 41.3465 56.6938 41.1733 57.0403 40.7402C57.6466 40.1338 57.8198 39.0944 57.3001 38.3149L54.0954 32.9448C53.9221 32.6849 53.7489 32.5983 53.489 32.5117C53.2292 32.5117 52.9693 32.5983 52.7961 32.7716L49.1583 36.4094C48.9851 36.5826 48.8984 36.8425 48.8984 37.1023C48.8984 37.3622 49.0717 37.7087 49.2449 37.8819ZM53.2292 34.8504L55.9143 39.2677C56.0009 39.3544 55.9143 39.5276 55.9143 39.5276C55.8277 39.6142 55.7411 39.6142 55.6544 39.5276L51.1505 36.9291L53.2292 34.8504Z" fill="url(#paint10_linear_1972_19)" stroke="url(#paint11_linear_1972_19)" stroke-width="0.5"/>
<path d="M63.4498 40.8286C63.7963 41.1751 64.3159 41.4349 64.8356 41.4349C65.1821 41.4349 65.5286 41.3483 65.875 41.1751L71.2451 37.9704C71.505 37.7971 71.5916 37.6239 71.6782 37.364C71.6782 37.1042 71.5916 36.8443 71.4184 36.6711L67.7805 33.0333C67.6073 32.8601 67.3475 32.7734 67.0876 32.7734C66.8278 32.7734 66.5679 32.9467 66.4813 33.2065L63.2766 38.5766C62.6702 39.183 62.7569 40.1357 63.4498 40.8286ZM64.5758 39.2695L67.2609 34.8521L69.3396 36.9309L64.9222 39.616C64.8356 39.7026 64.6624 39.616 64.6624 39.616C64.5758 39.5294 64.5758 39.3562 64.5758 39.2695Z" fill="url(#paint12_linear_1972_19)" stroke="url(#paint13_linear_1972_19)" stroke-width="0.5"/>
<defs>
<linearGradient id="paint0_linear_1972_19" x1="48.1185" y1="40.3945" x2="48.1185" y2="66.2924" gradientUnits="userSpaceOnUse">
<stop offset="0.16" stop-color="#63388B"/>
<stop offset="1" stop-color="#327EB2" stop-opacity="0.921569"/>
</linearGradient>
<linearGradient id="paint1_linear_1972_19" x1="48.1185" y1="40.3945" x2="48.1185" y2="66.2924" gradientUnits="userSpaceOnUse">
<stop stop-color="#63388B"/>
<stop offset="1" stop-color="#4387B7"/>
</linearGradient>
<linearGradient id="paint2_linear_1972_19" x1="36.0089" y1="30" x2="36.0089" y2="38.6617" gradientUnits="userSpaceOnUse">
<stop offset="0.16" stop-color="#63388B"/>
<stop offset="1" stop-color="#327EB2" stop-opacity="0.921569"/>
</linearGradient>
<linearGradient id="paint3_linear_1972_19" x1="36.0089" y1="30" x2="36.0089" y2="38.6617" gradientUnits="userSpaceOnUse">
<stop stop-color="#63388B"/>
<stop offset="1" stop-color="#4387B7"/>
</linearGradient>
<linearGradient id="paint4_linear_1972_19" x1="29.0031" y1="32.5117" x2="29.0031" y2="41.3465" gradientUnits="userSpaceOnUse">
<stop offset="0.16" stop-color="#63388B"/>
<stop offset="1" stop-color="#327EB2" stop-opacity="0.921569"/>
</linearGradient>
<linearGradient id="paint5_linear_1972_19" x1="29.0031" y1="32.5117" x2="29.0031" y2="41.3465" gradientUnits="userSpaceOnUse">
<stop stop-color="#63388B"/>
<stop offset="1" stop-color="#4387B7"/>
</linearGradient>
<linearGradient id="paint6_linear_1972_19" x1="43.0323" y1="32.7734" x2="43.0323" y2="41.4349" gradientUnits="userSpaceOnUse">
<stop offset="0.16" stop-color="#63388B"/>
<stop offset="1" stop-color="#327EB2" stop-opacity="0.921569"/>
</linearGradient>
<linearGradient id="paint7_linear_1972_19" x1="43.0323" y1="32.7734" x2="43.0323" y2="41.4349" gradientUnits="userSpaceOnUse">
<stop stop-color="#63388B"/>
<stop offset="1" stop-color="#4387B7"/>
</linearGradient>
<linearGradient id="paint8_linear_1972_19" x1="60.2628" y1="30" x2="60.2628" y2="38.6617" gradientUnits="userSpaceOnUse">
<stop offset="0.16" stop-color="#63388B"/>
<stop offset="1" stop-color="#327EB2" stop-opacity="0.921569"/>
</linearGradient>
<linearGradient id="paint9_linear_1972_19" x1="60.2628" y1="30" x2="60.2628" y2="38.6617" gradientUnits="userSpaceOnUse">
<stop stop-color="#63388B"/>
<stop offset="1" stop-color="#4387B7"/>
</linearGradient>
<linearGradient id="paint10_linear_1972_19" x1="53.2531" y1="32.5117" x2="53.2531" y2="41.3465" gradientUnits="userSpaceOnUse">
<stop offset="0.16" stop-color="#63388B"/>
<stop offset="1" stop-color="#327EB2" stop-opacity="0.921569"/>
</linearGradient>
<linearGradient id="paint11_linear_1972_19" x1="53.2531" y1="32.5117" x2="53.2531" y2="41.3465" gradientUnits="userSpaceOnUse">
<stop stop-color="#63388B"/>
<stop offset="1" stop-color="#4387B7"/>
</linearGradient>
<linearGradient id="paint12_linear_1972_19" x1="67.2747" y1="32.7734" x2="67.2747" y2="41.4349" gradientUnits="userSpaceOnUse">
<stop offset="0.16" stop-color="#63388B"/>
<stop offset="1" stop-color="#327EB2" stop-opacity="0.921569"/>
</linearGradient>
<linearGradient id="paint13_linear_1972_19" x1="67.2747" y1="32.7734" x2="67.2747" y2="41.4349" gradientUnits="userSpaceOnUse">
<stop stop-color="#63388B"/>
<stop offset="1" stop-color="#4387B7"/>
</linearGradient>
</defs>
</svg>
