<svg width="43" height="35" viewBox="0 0 43 35" fill="none" xmlns="http://www.w3.org/2000/svg">
<path fill-rule="evenodd" clip-rule="evenodd" d="M2.25724 23.3515C2.25902 23.3427 2.26259 23.3322 2.26437 23.3235L2.66379 21.8485L2.66558 21.8433C2.83854 21.2327 3.31287 20.6798 4.03147 20.3002C4.65202 19.9712 5.46155 19.7665 6.41195 19.7665H9.83916L9.83738 12.434H7.69226C7.44975 12.434 7.2536 12.2416 7.2536 12.0036V10.6599H6.97721C6.73471 10.6599 6.53856 10.4675 6.53856 10.2295C6.53856 10.0703 6.62771 9.93035 6.75967 9.85512L13.9904 4.97529L21.2513 0.0761946C21.4082 -0.0305302 21.6097 -0.0217829 21.7559 0.0814434L29.0099 4.97516L36.2708 9.87425C36.4687 10.009 36.5187 10.2767 36.3813 10.4708C36.2975 10.5916 36.1602 10.6563 36.0212 10.6563V10.6581H35.7448V12.0017C35.7448 12.2397 35.5486 12.4321 35.3061 12.4321H33.161V19.7647H35.718C36.6542 19.7647 37.4316 19.9641 38.0379 20.2843C38.7512 20.6622 39.2291 21.2098 39.4537 21.8064L39.4555 21.8134L42.5885 30.5788C43.1288 32.0887 43.1484 33.1787 42.5796 33.9258C42.0161 34.6658 40.9213 34.9982 39.2255 34.9982L3.78028 35C2.18792 35 1.12161 34.7078 0.526036 34.015C-0.0784422 33.3117 -0.151571 32.2636 0.253213 30.7642L2.25724 23.3515ZM19.7498 6.76004V6.77053C19.7498 6.77928 19.748 6.78628 19.748 6.79328V6.80028C19.7337 7.20793 19.9192 7.5806 20.2312 7.85704C20.4523 8.05125 20.7394 8.19822 21.0622 8.2717V8.4519C21.0622 8.68985 21.2583 8.88231 21.5008 8.88231C21.7433 8.88231 21.9395 8.68985 21.9395 8.4519V8.2752C22.0429 8.25245 22.141 8.22271 22.2337 8.18422C22.5101 8.07224 22.7437 7.89903 22.9077 7.68034C23.0968 7.43014 23.1806 7.10295 23.1645 6.78804C23.1485 6.46961 23.029 6.15292 22.8079 5.92897C22.4709 5.58605 22.009 5.50382 21.5525 5.42159C21.1692 5.35336 20.7894 5.28512 20.7305 5.03843C20.7091 4.9492 20.7055 4.86347 20.7198 4.78474C20.7323 4.71651 20.7608 4.65352 20.8018 4.59753C20.8714 4.5083 20.9748 4.43482 21.1032 4.38408C21.2137 4.34034 21.3403 4.31585 21.4741 4.31235H21.499H21.5187C21.5347 4.31235 21.549 4.3141 21.565 4.3141C21.8129 4.32984 22.0322 4.42082 22.1838 4.55379C22.3104 4.66577 22.3853 4.80398 22.3782 4.94395V4.95795C22.3621 5.19414 22.5458 5.39885 22.7883 5.41458C23.029 5.43032 23.2376 5.25011 23.2537 5.01217V4.98243C23.2733 4.57127 23.086 4.19337 22.7704 3.91343C22.5493 3.71923 22.2622 3.57226 21.9395 3.49878V3.31507C21.9395 3.07712 21.7433 2.88467 21.5008 2.88467C21.2583 2.88467 21.0622 3.07712 21.0622 3.31507V3.49528C20.9623 3.51802 20.866 3.54601 20.7751 3.58275C20.5023 3.69123 20.2687 3.86269 20.1046 4.07616C19.978 4.24062 19.8978 4.42783 19.8603 4.62729C19.8229 4.825 19.83 5.0297 19.8781 5.23092C20.0689 6.02522 20.7287 6.14248 21.3956 6.26319C21.7148 6.32093 22.0357 6.37866 22.1784 6.52213C22.2461 6.59211 22.2854 6.70409 22.2907 6.82656C22.2978 6.95603 22.2675 7.082 22.2016 7.17123C22.1338 7.26221 22.0286 7.33744 21.902 7.38818C21.7914 7.43192 21.6648 7.45817 21.5275 7.45992C21.5186 7.45992 21.5097 7.45817 21.5008 7.45817H21.4812C21.4669 7.45817 21.4508 7.45642 21.4366 7.45642C21.1887 7.44067 20.9694 7.34969 20.8178 7.21672C20.6948 7.10825 20.6199 6.97178 20.6235 6.83356V6.81256C20.6395 6.57637 20.4558 6.37166 20.2133 6.35593C19.9726 6.34369 19.764 6.52384 19.7498 6.76004ZM9.83718 20.6292H6.40998C5.60935 20.6292 4.94425 20.7936 4.44494 21.0578C3.94386 21.322 3.61934 21.6824 3.50878 22.0673L3.22348 23.1223L3.71028 23.2238C3.88681 23.2605 4.04551 23.3323 4.18639 23.439C4.32013 23.5405 4.43425 23.6717 4.5234 23.8292C4.61078 23.9849 4.66606 24.1476 4.68924 24.3155C4.71242 24.4853 4.7035 24.6567 4.66249 24.8282L4.00807 27.5733C3.94566 27.834 3.82084 28.0614 3.64966 28.2399C3.47134 28.4236 3.24488 28.5513 2.98634 28.6055L1.66504 28.8837L1.09799 30.9815C1.02845 31.2404 0.973171 31.4819 0.935726 31.7041C0.944641 31.7128 0.953557 31.7233 0.96069 31.7338C1.14257 31.9735 1.51883 32.1887 2.00024 32.3514C2.51913 32.5264 3.14324 32.6296 3.77803 32.6296H39.2287C39.8189 32.6296 40.3967 32.5334 40.8924 32.3724C41.3881 32.2115 41.7929 31.9945 42.0265 31.7583L42.0318 31.7531C41.9712 31.4819 41.882 31.1862 41.7661 30.8608L38.6349 22.1057C38.4816 21.6981 38.1428 21.3167 37.6274 21.0437C37.1424 20.7865 36.5059 20.6273 35.7213 20.6273H33.1642V22.7933H34.5729C34.8956 22.7933 35.1899 22.9228 35.402 23.131C35.6142 23.3392 35.7462 23.6279 35.7462 23.9445V26.1C35.7462 26.338 35.55 26.5304 35.3075 26.5304L7.69379 26.5322C7.45128 26.5322 7.25513 26.3397 7.25513 26.1018V23.9463C7.25513 23.6296 7.38709 23.3409 7.59928 23.1327C7.81148 22.9245 8.10571 22.7951 8.42844 22.7951H9.83711L9.83718 20.6292ZM10.7145 22.7951H12.922V12.4339H10.7145V22.7951ZM13.8011 22.7951H16.2939L16.2922 12.4339H13.7993L13.8011 22.7951ZM17.1695 22.7951H19.377V12.4339H17.1695V22.7951ZM20.2543 22.7951H22.7471V12.4339H20.2543V22.7951ZM23.6245 22.7951H25.832V12.4339H23.6245V22.7951ZM26.7093 22.7951H29.2021V12.4339H26.7093V22.7951ZM32.2871 22.7951V12.4339H30.0796V22.7951H32.2871ZM28.514 5.68235L21.501 0.951671L8.38752 9.79763H34.6122L28.514 5.68235ZM34.871 10.6598H8.1328V11.5731H34.8728L34.871 10.6598ZM34.5732 23.656H8.42708C8.34684 23.656 8.27195 23.6892 8.21845 23.7417C8.16496 23.7942 8.13108 23.8677 8.13108 23.9464V25.6715H34.8693V23.9464C34.8693 23.8677 34.8354 23.7942 34.7819 23.7417C34.7284 23.6892 34.6552 23.656 34.5732 23.656ZM1.9185 27.9548L2.80651 27.7676C2.88853 27.7501 2.95986 27.7098 3.01692 27.6503C3.08112 27.5838 3.12926 27.4929 3.15601 27.3809L3.81042 24.6358C3.82825 24.5623 3.83182 24.4941 3.82291 24.4311C3.81399 24.3681 3.79259 24.3069 3.7605 24.2474C3.7284 24.1914 3.69273 24.1476 3.6535 24.1179C3.61962 24.0917 3.57861 24.0742 3.53047 24.0637L3.00085 23.9534L1.9185 27.9548ZM0.902094 32.7974C0.948454 33.0669 1.04475 33.2855 1.19275 33.4588C1.60287 33.9364 2.4552 34.1376 3.77833 34.1376H39.229C40.6306 34.1376 41.499 33.9119 41.8788 33.4115C42.0107 33.2401 42.0892 33.0249 42.1177 32.7677C41.8431 32.9321 41.5204 33.0774 41.1655 33.1911C40.586 33.3783 39.9138 33.492 39.229 33.492L3.78017 33.4955C3.04907 33.4955 2.32334 33.3748 1.71709 33.1701C1.41573 33.0669 1.13928 32.9409 0.902094 32.7974Z" fill="#3F3F3F"/>
</svg>
