<svg width="62" height="58" viewBox="0 0 62 58" fill="none" xmlns="http://www.w3.org/2000/svg">
<rect width="62" height="58" rx="5" fill="url(#paint0_linear_1972_12)" fill-opacity="0.3"/>
<path d="M44.8271 44.9958H21.8714C21.4871 44.9958 21.1758 44.6845 21.1758 44.3001V17.1702C21.1758 16.7859 21.4871 16.4746 21.8714 16.4746H44.8271C45.2114 16.4746 45.5227 16.7859 45.5227 17.1702V44.3001C45.5227 44.6845 45.2114 44.9958 44.8271 44.9958ZM22.5668 43.6045H44.1316V17.8663H22.5668V43.6045Z" fill="#3F3F3F"/>
<path d="M21.8707 44.998H17.6969C17.4934 44.998 17.3004 44.9093 17.1682 44.7563C17.036 44.6015 16.9769 44.398 17.0082 44.198L21.182 17.0682C21.2377 16.7082 21.5611 16.4543 21.9229 16.4804C22.2863 16.5082 22.5663 16.8108 22.5663 17.1743V44.3041C22.5663 44.6885 22.255 44.9998 21.8707 44.9998L21.8707 44.998ZM18.5073 43.6068H21.1751V26.27L18.5073 43.6068Z" fill="#3F3F3F"/>
<path d="M37.8687 28.3014H26.7386C26.3543 28.3014 26.043 27.9901 26.043 27.6058C26.043 27.2215 26.3543 26.9102 26.7386 26.9102H37.8687C38.2531 26.9102 38.5644 27.2215 38.5644 27.6058C38.5644 27.9901 38.2531 28.3014 37.8687 28.3014Z" fill="#3F3F3F"/>
<path d="M37.8687 37.3463H26.7386C26.3543 37.3463 26.043 37.035 26.043 36.6507C26.043 36.2664 26.3543 35.9551 26.7386 35.9551H37.8687C38.2531 35.9551 38.5644 36.2664 38.5644 36.6507C38.5644 37.035 38.2531 37.3463 37.8687 37.3463Z" fill="#3F3F3F"/>
<path d="M35.0862 33.1725H26.7386C26.3543 33.1725 26.043 32.8612 26.043 32.4769C26.043 32.0925 26.3543 31.7812 26.7386 31.7812H35.0862C35.4705 31.7812 35.7818 32.0925 35.7818 32.4769C35.7818 32.8612 35.4705 33.1725 35.0862 33.1725Z" fill="#3F3F3F"/>
<path d="M41.3478 24.1289H33.6956C33.3113 24.1289 33 23.8176 33 23.4332V20.6507C33 20.2664 33.3113 19.9551 33.6956 19.9551H41.3478C41.7321 19.9551 42.0434 20.2664 42.0434 20.6507V23.4332C42.0434 23.8176 41.7321 24.1289 41.3478 24.1289ZM34.3915 22.7376H40.652V21.3463H34.3915V22.7376Z" fill="#3F3F3F"/>
<path d="M26.0467 23.2014C24.8955 23.2014 23.9598 22.2657 23.9598 21.1145V19.9545C23.9598 19.5702 24.2711 19.2589 24.6555 19.2589C25.0398 19.2589 25.3511 19.5702 25.3511 19.9545V21.1145C25.3511 21.4988 25.6624 21.8101 26.0467 21.8101C26.4311 21.8101 26.7424 21.4988 26.7424 21.1145V15.1443C26.7424 14.7286 26.405 14.3913 25.9894 14.3913H24.7146C24.299 14.3913 23.9616 14.7286 23.9616 15.1443V17.1738C23.9616 17.5581 23.6503 17.8694 23.2659 17.8694C22.8816 17.8694 22.5703 17.5581 22.5703 17.1738V15.1443C22.5703 13.9617 23.532 13 24.7146 13H25.9894C27.1719 13 28.1336 13.9617 28.1336 15.1443V21.1145C28.1336 22.2657 27.198 23.2014 26.0467 23.2014Z" fill="#3F3F3F"/>
<defs>
<linearGradient id="paint0_linear_1972_12" x1="121.66" y1="29.7838" x2="28.2579" y2="76.9061" gradientUnits="userSpaceOnUse">
<stop stop-color="#04BFD7"/>
<stop offset="1" stop-color="#63388B"/>
</linearGradient>
</defs>
</svg>
