<svg width="38" height="35" viewBox="0 0 38 35" fill="none" xmlns="http://www.w3.org/2000/svg">
<path fill-rule="evenodd" clip-rule="evenodd" d="M3.88806 23.0862L9.8495 17.6362C11.3395 16.1093 14.0297 16.1015 16.8201 16.4844C12.104 12.1569 10.5374 8.35423 10.8037 5.5057C10.9181 4.28289 11.3646 3.23458 12.0446 2.38543C12.7246 1.54091 13.6317 0.904807 14.6752 0.500313C17.0473 -0.419857 20.1212 -0.111092 22.7019 1.78178C24.687 0.325852 26.9571 -0.194449 28.9846 0.0633695C30.2129 0.21776 31.3535 0.657779 32.2779 1.34946C33.2148 2.04422 33.9371 2.99217 34.321 4.15325C34.8662 5.79596 34.7346 7.85559 33.5783 10.2238C34.0844 11.0097 34.3805 11.9376 34.3805 12.9411C34.3805 14.3384 33.8071 15.6075 32.8733 16.523C31.9442 17.4386 30.6563 18.0083 29.2384 18.0083C28.5459 18.0083 27.8878 17.8755 27.2878 17.63C26.9791 17.8879 26.6501 18.155 26.2992 18.4328C25.9529 18.7077 25.6114 18.9701 25.2823 19.2156C25.3371 19.3901 25.3669 19.5692 25.3794 19.756C25.4092 20.2964 25.24 20.8121 24.9313 21.2289C24.6227 21.6412 24.1762 21.953 23.6387 22.0904C23.5964 22.1028 23.5541 22.1074 23.5165 22.1028L19.0841 22.1491C18.9822 22.2495 18.907 22.3483 18.8647 22.4409C18.8396 22.4996 18.8271 22.549 18.8302 22.5907C18.8302 22.6246 18.8506 22.6571 18.8804 22.691C18.9227 22.7404 18.9853 22.7868 19.0794 22.8331L23.6261 22.8948C24.1369 22.9026 24.6179 22.8331 25.066 22.6864C25.5141 22.5413 25.9402 22.3159 26.3492 22.0117L33.7285 16.5075C33.7786 16.4705 33.8334 16.4458 33.893 16.4319C35.079 16.0613 36.0974 15.9486 36.7978 16.0953C37.2036 16.1787 37.5201 16.3485 37.7315 16.6033C37.9556 16.8781 38.048 17.2239 37.976 17.6393C37.8867 18.1596 37.5326 18.8049 36.8495 19.5692C36.8369 19.5861 36.8197 19.5985 36.8072 19.6108L27.7685 28.3604C27.2656 28.8467 26.7125 29.2126 26.114 29.4628C25.514 29.7129 24.8606 29.841 24.1556 29.858L14.7909 30.0371C14.2503 30.0448 13.7474 30.1405 13.2836 30.3166C12.8199 30.4956 12.3843 30.7581 11.9754 31.107L11.4975 31.5193C11.6573 31.7185 11.7341 31.9609 11.7169 32.197C11.6996 32.4503 11.59 32.7004 11.3832 32.8841L9.2633 34.7399C9.2633 34.7399 9.23823 34.76 9.2257 34.7692C9.02358 34.936 8.76977 35.0147 8.52066 34.9977C8.27154 34.9854 8.02711 34.8773 7.84538 34.6859C7.83284 34.6735 7.82501 34.6658 7.81561 34.6519L0.268648 26.2944C0.268648 26.2944 0.24828 26.2697 0.234179 26.2574C0.0649657 26.0582 -0.014936 25.8081 0.00229899 25.5626C0.0148331 25.3171 0.124508 25.0763 0.318785 24.8972C0.331319 24.8848 0.339153 24.8771 0.353254 24.8679L2.45586 23.0244C2.45586 23.0244 2.48093 23.0043 2.49346 22.9904C2.69558 22.8237 2.94939 22.7449 3.1985 22.7619C3.44762 22.7743 3.69205 22.8824 3.87378 23.0738L3.88632 23.0862L3.88806 23.0862ZM13.3121 10.1637C13.0677 10.1637 12.8687 9.96762 12.8687 9.72676C12.8687 9.4859 13.0677 9.28981 13.3121 9.28981H15.9756L16.947 7.37532C17.0567 7.15917 17.3231 7.07117 17.5424 7.17925C17.6223 7.22093 17.6866 7.2796 17.7289 7.34908L19.0293 9.57079H19.6247L21.0175 7.19161C21.1397 6.98319 21.4139 6.91216 21.6254 7.03413C21.7304 7.09589 21.8025 7.19161 21.8323 7.29969L22.8365 10.9943H24.4911C24.7527 10.3737 25.1334 9.82092 25.605 9.35468C26.5341 8.43914 27.822 7.86943 29.2399 7.86943C30.6579 7.86943 31.9457 8.43451 32.8748 9.35468C32.9046 9.38402 32.9343 9.41335 32.9641 9.44578C33.8431 7.47418 33.9261 5.77276 33.4749 4.4234C33.1506 3.44145 32.538 2.63863 31.7389 2.0473C30.932 1.44827 29.9402 1.06536 28.8686 0.932593C26.9728 0.691738 24.828 1.21513 22.9838 2.6757C22.824 2.80539 22.5905 2.81311 22.4229 2.6757C20.0539 0.802913 17.1838 0.466361 14.9963 1.31551C14.0969 1.66443 13.3151 2.20943 12.737 2.93044C12.1588 3.6499 11.7781 4.54075 11.681 5.58443C11.4193 8.3851 13.1584 12.2542 18.437 16.7422C19.0245 16.8456 19.6058 16.9583 20.1761 17.0664C21.3543 17.2918 22.4651 17.5034 23.3848 17.6037H23.4052C23.9504 17.6871 24.4267 17.9526 24.7777 18.3325C24.8075 18.3618 24.8325 18.3942 24.8576 18.4236C25.1788 18.1827 25.4734 17.9573 25.7444 17.7411C25.9763 17.5574 26.2081 17.3706 26.4369 17.1838C26.1376 16.9923 25.8541 16.7684 25.6003 16.5183C24.6712 15.6028 24.093 14.3337 24.093 12.9364C24.093 12.5705 24.1306 12.2169 24.2074 11.8711H22.4886C22.2897 11.8711 22.1126 11.7414 22.0578 11.5469L21.2431 8.54706L20.2717 10.2037C20.1996 10.3488 20.0476 10.4492 19.8706 10.4492H18.7645C18.6125 10.4492 18.4605 10.3704 18.3806 10.2284L17.3638 8.48994L16.6587 9.88409C16.596 10.0462 16.43 10.1635 16.2451 10.1635H13.3059L13.3121 10.1637ZM28.2621 9.83484C28.1304 9.83484 28.0129 9.88116 27.9158 9.95064C27.8986 9.96299 27.8813 9.97997 27.8657 9.99696C27.7638 10.0973 27.7012 10.2347 27.7012 10.3876V11.4158H26.6577C26.5261 11.4158 26.4086 11.4622 26.3114 11.5316C26.2942 11.544 26.2769 11.561 26.2613 11.578C26.1594 11.6783 26.0968 11.8157 26.0968 11.9686V13.8985C26.0968 14.0482 26.1594 14.1856 26.2613 14.2891C26.3631 14.3894 26.5026 14.4512 26.6545 14.4512H27.698V15.4795C27.698 15.6292 27.7607 15.7666 27.8625 15.867C27.9644 15.9673 28.1038 16.0291 28.2589 16.0291H30.2174C30.3741 16.0291 30.5135 15.9673 30.6138 15.867C30.7156 15.7666 30.7783 15.6292 30.7783 15.4795V14.4512H31.8218C31.9784 14.4512 32.1179 14.3894 32.2182 14.2891C32.32 14.1887 32.3827 14.0513 32.3827 13.8985V11.9686C32.3827 11.8142 32.32 11.6768 32.2182 11.578C32.1163 11.4776 31.9769 11.4158 31.8218 11.4158H30.7783V10.3876C30.7783 10.2332 30.7156 10.0958 30.6138 9.99696C30.5119 9.8966 30.3725 9.83484 30.2174 9.83484H28.2589H28.2621ZM29.8915 10.7134H28.5911V11.8528C28.5911 12.0936 28.3921 12.2897 28.1477 12.2897H26.9914V13.5712H28.1477C28.3921 13.5712 28.5911 13.7673 28.5911 14.0081V15.1475H29.8915V14.0081C29.8915 13.7673 30.0905 13.5712 30.3349 13.5712H31.4912V12.2897H30.3349C30.0905 12.2897 29.8915 12.0936 29.8915 11.8528V10.7134ZM32.2479 9.97227C31.4802 9.21573 30.4148 8.74484 29.2413 8.74484C28.0678 8.74484 27.004 9.21573 26.2347 9.97227C25.4669 10.7288 24.9891 11.7787 24.9891 12.9351C24.9891 14.0915 25.4669 15.1398 26.2347 15.8979C27.0024 16.6544 28.0678 17.1253 29.2413 17.1253C30.4148 17.1253 31.4786 16.6544 32.2479 15.8979C33.0156 15.1413 33.4935 14.0915 33.4935 12.9351C33.4935 11.7787 33.0156 10.7304 32.2479 9.97227ZM10.9054 30.8586L11.3864 30.4433C11.8768 30.0233 12.3954 29.7068 12.9563 29.4953C13.5172 29.2838 14.1219 29.1711 14.7721 29.1587L24.1369 28.9797C24.7197 28.9673 25.2634 28.8592 25.7663 28.6508C26.2692 28.4424 26.7252 28.1397 27.1419 27.7306L36.1805 18.9811C36.7509 18.345 37.0376 17.8494 37.0971 17.4881C37.1222 17.3337 37.1018 17.2226 37.0423 17.1469C36.9655 17.0558 36.8182 16.9848 36.6161 16.9431C36.0678 16.8304 35.2264 16.9261 34.2049 17.2426L26.8833 22.7049C26.3929 23.0708 25.8822 23.338 25.3385 23.5124C24.7979 23.6869 24.2245 23.7703 23.6119 23.7625L18.9929 23.7008C18.9255 23.7008 18.8535 23.6931 18.7861 23.6637C18.537 23.551 18.3427 23.4136 18.2033 23.2561C18.0513 23.0817 17.9667 22.8856 17.9463 22.6741C17.926 22.4749 17.9636 22.2742 18.0513 22.075C18.161 21.8342 18.3553 21.5964 18.6169 21.3756C18.6937 21.3139 18.794 21.2722 18.9005 21.2722L23.4645 21.2259C23.7732 21.1348 24.0302 20.9464 24.2119 20.7056C24.4015 20.4524 24.5033 20.1313 24.4861 19.7947C24.4688 19.4581 24.3341 19.1539 24.1195 18.9162C23.9048 18.683 23.6087 18.5163 23.2703 18.4669C22.3083 18.3634 21.188 18.1473 20.0067 17.9219C16.4345 17.2394 12.2263 16.4366 10.4775 18.2507C10.4697 18.2584 10.4603 18.2677 10.4572 18.2708L4.47848 23.7331L10.904 30.8522L10.9054 30.8586ZM3.06522 23.6608L0.932848 25.529C0.90778 25.549 0.895246 25.5784 0.895246 25.6077C0.895246 25.637 0.903079 25.6695 0.925014 25.6911L8.49564 34.0794C8.51601 34.1041 8.54577 34.1164 8.57554 34.1164C8.60531 34.1164 8.63821 34.1087 8.66015 34.0871L10.7925 32.2189C10.8176 32.1988 10.8301 32.1695 10.8301 32.1402C10.8301 32.1108 10.8223 32.0784 10.8004 32.0568L3.22973 23.6685C3.20936 23.6438 3.17959 23.6315 3.14982 23.6315C3.12006 23.6315 3.08715 23.6392 3.06522 23.6608Z" fill="#3F3F3F"/>
</svg>
