<svg width="62" height="58" viewBox="0 0 62 58" fill="none" xmlns="http://www.w3.org/2000/svg">
<rect width="62" height="58" rx="5" fill="url(#paint0_linear_1972_10)" fill-opacity="0.3"/>
<path d="M37.1739 34.0109C37.1793 33.6913 37.3724 33.4275 37.6743 33.3228C38.3828 33.0766 38.9594 32.4592 39.2164 31.6692C39.4734 30.8791 39.3701 30.0401 38.9403 29.4254C38.7568 29.163 38.7568 28.8366 38.9403 28.5742C39.3701 27.9595 39.4734 27.1205 39.2164 26.3304C38.9594 25.5404 38.3828 24.923 37.6743 24.6769C37.3724 24.5721 37.1807 24.3083 37.1739 23.9888C37.1603 23.2381 36.7496 22.4997 36.0779 22.0115C35.4061 21.5234 34.5766 21.3615 33.8586 21.5805C33.5526 21.6729 33.2426 21.5737 33.0495 21.318C32.5967 20.7197 31.8311 20.362 31.0002 20.362C30.1693 20.362 29.4038 20.7197 28.9509 21.318C28.7578 21.5737 28.4478 21.6743 28.1418 21.5805C27.4238 21.3629 26.5943 21.5233 25.9225 22.0115C25.2508 22.4997 24.8415 23.2395 24.8265 23.9888C24.8211 24.3083 24.628 24.5721 24.3261 24.6769C23.6176 24.923 23.041 25.5404 22.784 26.3304C22.527 27.1205 22.6304 27.9595 23.0601 28.5742C23.2437 28.8366 23.2437 29.163 23.0601 29.4254C22.6304 30.0401 22.527 30.8791 22.784 31.6692C23.041 32.4592 23.6176 33.0766 24.3261 33.3228C24.628 33.4275 24.8197 33.6913 24.8265 34.0109C24.8401 34.7615 25.2508 35.4999 25.9225 35.9881C26.5943 36.4763 27.4238 36.6381 28.1418 36.4192C28.4478 36.3267 28.7578 36.4273 28.9509 36.6816C29.4038 37.28 30.1693 37.6376 31.0002 37.6376C31.8311 37.6376 32.5967 37.28 33.0495 36.6816C33.2426 36.426 33.5526 36.3253 33.8586 36.4192C34.5766 36.6367 35.4061 36.4763 36.0779 35.9881C36.7496 35.5013 37.1603 34.7615 37.1739 34.0109ZM35.4877 35.1763C35.0688 35.4809 34.5684 35.5856 34.1496 35.4591C33.4411 35.2443 32.6945 35.4863 32.2471 36.0778C31.9833 36.4273 31.5169 36.6354 30.9988 36.6354C30.4807 36.6354 30.0143 36.4273 29.7505 36.0778C29.4119 35.6304 28.9006 35.3829 28.3648 35.3829C28.1934 35.3829 28.0194 35.4088 27.848 35.4605C27.4292 35.5883 26.9288 35.4822 26.5099 35.1776C26.0911 34.873 25.8354 34.4297 25.8273 33.9932C25.8137 33.2534 25.3514 32.6184 24.6524 32.375C24.239 32.2322 23.8963 31.8528 23.7372 31.3592C23.5768 30.8669 23.6311 30.3583 23.8814 29.9993C24.3057 29.3915 24.3057 28.6069 23.8814 27.999C23.6311 27.64 23.5768 27.1314 23.7372 26.6392C23.8977 26.1469 24.239 25.7675 24.6524 25.6247C25.3527 25.3827 25.8137 24.7476 25.8273 24.0065C25.8355 23.5686 26.0911 23.1267 26.5099 22.8221C26.9288 22.5175 27.4292 22.4128 27.848 22.5392C28.5565 22.7541 29.3031 22.512 29.7505 21.9205C30.0143 21.571 30.4807 21.363 30.9988 21.363C31.5169 21.363 31.9833 21.571 32.2471 21.9205C32.6931 22.5107 33.4397 22.7541 34.1495 22.5392C34.5683 22.4114 35.0688 22.5175 35.4876 22.8221C35.9065 23.1267 36.1621 23.5686 36.1703 24.0065C36.1839 24.7476 36.6462 25.3813 37.3452 25.6247C37.7586 25.7675 38.1013 26.1469 38.2603 26.6392C38.4208 27.1314 38.3664 27.64 38.1162 27.999C37.6919 28.6069 37.6919 29.3915 38.1162 29.9993C38.3664 30.3583 38.4208 30.8669 38.2603 31.3592C38.0999 31.8514 37.7586 32.2308 37.3452 32.3736C36.6449 32.6157 36.1839 33.2507 36.1703 33.9918C36.1621 34.4297 35.9065 34.873 35.4877 35.1763ZM31 23.933C28.2056 23.933 25.9331 26.2066 25.9331 28.9999C25.9331 31.7944 28.2054 34.0668 31 34.0668C33.7946 34.0668 36.0669 31.7932 36.0669 28.9999C36.0669 26.2054 33.7946 23.933 31 23.933ZM31 33.0632C28.759 33.0632 26.9368 31.241 26.9368 28.9999C26.9368 26.7602 28.759 24.9366 31 24.9366C33.2411 24.9366 35.0633 26.7588 35.0633 28.9999C35.0633 31.2396 33.2411 33.0632 31 33.0632ZM32.1042 26.6936L32.1029 26.695L30.2943 28.5199L29.8795 28.116C29.6266 27.8699 29.2962 27.7352 28.9412 27.742C28.5891 27.7475 28.26 27.8889 28.0138 28.1418C27.7677 28.3947 27.6358 28.7266 27.6399 29.0801C27.6453 29.4323 27.7867 29.7614 28.0383 30.0075L29.3886 31.3239C29.6443 31.5713 29.9761 31.6951 30.3079 31.6951C30.6478 31.6951 30.9878 31.5659 31.2434 31.3075L33.9713 28.5538C34.2201 28.3036 34.3561 27.9718 34.3548 27.621C34.3534 27.2688 34.2161 26.9383 33.9659 26.6895C33.4532 26.1754 32.6169 26.1768 32.1042 26.6936ZM33.2615 27.3993C33.3213 27.4592 33.3539 27.538 33.3539 27.6224C33.3539 27.7067 33.3213 27.7855 33.2615 27.8454L30.5336 30.5991C30.4126 30.7215 30.2141 30.7228 30.0917 30.6032L28.7414 29.2868C28.6815 29.2284 28.6475 29.1495 28.6462 29.0652C28.6448 28.9809 28.6761 28.902 28.7359 28.8408C28.7944 28.781 28.8733 28.747 28.9576 28.7456H28.9616C29.0446 28.7456 29.1221 28.7769 29.1806 28.834L29.9502 29.5846C30.1474 29.7777 30.4629 29.7736 30.6574 29.5792L32.8154 27.4007C32.9392 27.2783 33.1377 27.277 33.2615 27.3993ZM44.2694 35.0744C45.1465 33.1651 45.5912 31.1239 45.5912 29C45.5912 26.8745 45.1465 24.8333 44.2694 22.9256C45.8958 22.0213 47 20.2848 47 18.2953C47 15.3757 44.6244 13 41.7047 13C39.7153 13 37.9788 14.1042 37.0744 15.7306C35.1665 14.8535 33.1253 14.4088 31 14.4088C28.8747 14.4088 26.8333 14.8535 24.9256 15.7306C24.0213 14.1042 22.2848 13 20.2953 13C17.3757 13 15 15.3756 15 18.2953C15 20.2847 16.1042 22.0212 17.7306 22.9256C16.8535 24.8335 16.4088 26.8747 16.4088 29C16.4088 31.1253 16.8535 33.1667 17.7306 35.0744C16.1042 35.9787 15 37.7152 15 39.7047C15 42.6243 17.3756 45 20.2953 45C22.2847 45 24.0212 43.8958 24.9256 42.2694C26.8349 43.1465 28.8761 43.5912 31 43.5912C33.1255 43.5912 35.1667 43.1465 37.0744 42.2694C37.9787 43.8958 39.7152 45 41.7047 45C44.6243 45 47 42.6244 47 39.7047C47 37.7153 45.8972 35.9802 44.2694 35.0744ZM41.7061 19.3981C40.9215 19.3981 40.2837 18.7604 40.2837 17.9757C40.2837 17.1911 40.9215 16.5533 41.7061 16.5533C42.4907 16.5533 43.1285 17.1911 43.1285 17.9757C43.1285 18.7604 42.4907 19.3981 41.7061 19.3981ZM44.1524 21.8173C43.4576 22.3014 42.6144 22.5856 41.7061 22.5856C40.7977 22.5856 39.9546 22.3 39.2597 21.8173C39.8349 21.0517 40.7392 20.5894 41.7061 20.5894C42.6729 20.588 43.5759 21.0503 44.1524 21.8173ZM41.7061 14.0037C44.0722 14.0037 45.9977 15.9292 45.9977 18.2953C45.9977 19.3914 45.5843 20.3909 44.9071 21.1497C44.4611 20.5785 43.875 20.142 43.2141 19.8769C43.7744 19.4322 44.1347 18.7455 44.1347 17.9758C44.1347 16.6377 43.0455 15.5485 41.7074 15.5485C40.3693 15.5485 39.28 16.6377 39.28 17.9758C39.28 18.7455 39.6404 19.4322 40.2006 19.8769C39.5398 20.142 38.9537 20.5799 38.5076 21.1497C37.8291 20.3909 37.417 19.39 37.417 18.294C37.4143 15.9278 39.34 14.0037 41.7061 14.0037ZM16.0036 18.2939C16.0036 15.9278 17.9291 14.0023 20.2952 14.0023C22.6613 14.0023 24.5869 15.9278 24.5869 18.2939C24.5869 19.39 24.1735 20.3895 23.4963 21.1496C23.0503 20.5785 22.4642 20.142 21.8033 19.8768C22.3635 19.4322 22.7239 18.7454 22.7239 17.9758C22.7239 16.6377 21.6346 15.5484 20.2965 15.5484C18.9584 15.5484 17.8692 16.6377 17.8692 17.9758C17.8692 18.7454 18.2296 19.4322 18.7898 19.8768C18.1289 20.142 17.5428 20.5799 17.0968 21.1496C16.4169 20.3908 16.0036 19.39 16.0036 18.2939ZM20.2938 19.3982C19.5092 19.3982 18.8715 18.7604 18.8715 17.9758C18.8715 17.1911 19.5092 16.5534 20.2938 16.5534C21.0785 16.5534 21.7162 17.1911 21.7162 17.9758C21.7176 18.7604 21.0798 19.3982 20.2938 19.3982ZM20.2938 20.588C21.2607 20.588 22.165 21.0504 22.7402 21.816C22.0453 22.3001 21.2022 22.5843 20.2938 22.5843C19.3855 22.5843 18.5424 22.2987 17.8475 21.816C18.4241 21.0504 19.327 20.588 20.2938 20.588ZM17.8475 43.2281C18.4227 42.4625 19.327 42.0002 20.2938 42.0002C21.2607 42.0002 22.165 42.4625 22.7402 43.2281C22.0453 43.7122 21.2022 43.9964 20.2938 43.9964C19.3855 43.9964 18.5424 43.7122 17.8475 43.2281ZM20.2938 40.8103C19.5092 40.8103 18.8715 40.1725 18.8715 39.3879C18.8715 38.6033 19.5092 37.9655 20.2938 37.9655C21.0785 37.9655 21.7162 38.6033 21.7162 39.3879C21.7176 40.1712 21.0798 40.8103 20.2938 40.8103ZM23.4936 42.5604C23.0476 41.9893 22.4615 41.5528 21.8005 41.2876C22.3608 40.8429 22.7212 40.1562 22.7212 39.3865C22.7212 38.0484 21.6319 36.9592 20.2938 36.9592C18.9557 36.9592 17.8665 38.0484 17.8665 39.3865C17.8665 40.1562 18.2268 40.8429 18.7871 41.2876C18.1262 41.5528 17.5401 41.9906 17.0941 42.5604C16.4155 41.8016 16.0035 40.8008 16.0035 39.7047C16.0035 37.3386 17.929 35.4131 20.2951 35.4131C22.6612 35.4131 24.5867 37.3386 24.5867 39.7047C24.5854 40.8008 24.1721 41.8016 23.4936 42.5604ZM30.9998 42.5876C29.0144 42.5876 27.1078 42.1715 25.3264 41.3501C25.4964 40.832 25.5889 40.2799 25.5889 39.7061C25.5889 36.7865 23.2132 34.4108 20.2936 34.4108C19.7198 34.4108 19.1676 34.5033 18.6495 34.6732C17.8282 32.8918 17.4121 30.9852 17.4121 28.9999C17.4121 27.0146 17.8282 25.1079 18.6495 23.3266C19.1676 23.4966 19.7197 23.589 20.2936 23.589C23.2132 23.589 25.5889 21.2134 25.5889 18.2938C25.5889 17.7199 25.4964 17.1678 25.3264 16.6497C27.1078 15.8283 29.0144 15.4122 30.9998 15.4122C32.9851 15.4122 34.8918 15.8283 36.6731 16.6497C36.5031 17.1678 36.4106 17.7199 36.4106 18.2938C36.4106 21.2133 38.7863 23.589 41.7059 23.589C42.2798 23.589 42.8319 23.4966 43.35 23.3266C44.1713 25.108 44.5874 27.0146 44.5874 28.9999C44.5874 30.9852 44.1713 32.8919 43.35 34.6732C42.8319 34.5033 42.2798 34.4108 41.7059 34.4108C38.7863 34.4108 36.4106 36.7864 36.4106 39.7061C36.4106 40.2799 36.5031 40.832 36.6731 41.3501C34.8917 42.1715 32.9851 42.5876 30.9998 42.5876ZM39.2582 43.2281C39.8334 42.4625 40.7378 42.0001 41.7046 42.0001C42.6714 42.0001 43.5757 42.4625 44.1509 43.2281C43.4561 43.7122 42.6129 43.9964 41.7046 43.9964C40.7962 43.9964 39.9531 43.7122 39.2582 43.2281ZM41.7059 40.8103C40.9213 40.8103 40.2836 40.1725 40.2836 39.3879C40.2836 38.6032 40.9213 37.9655 41.7059 37.9655C42.4906 37.9655 43.1283 38.6032 43.1283 39.3879C43.1283 40.1712 42.4906 40.8103 41.7059 40.8103ZM44.9057 42.5604C44.4597 41.9892 43.8736 41.5527 43.2127 41.2876C43.7729 40.8429 44.1333 40.1562 44.1333 39.3865C44.1333 38.0484 43.044 36.9592 41.7059 36.9592C40.3678 36.9592 39.2786 38.0484 39.2786 39.3865C39.2786 40.1562 39.6389 40.8429 40.1992 41.2876C39.5383 41.5527 38.9522 41.9906 38.5062 42.5604C37.8276 41.8016 37.4156 40.8007 37.4156 39.7047C37.4156 37.3386 39.3411 35.4131 41.7072 35.4131C44.0733 35.4131 45.9988 37.3386 45.9988 39.7047C45.9961 40.8007 45.5829 41.8016 44.9057 42.5604Z" fill="#3F3F3F"/>
<defs>
<linearGradient id="paint0_linear_1972_10" x1="121.66" y1="29.7838" x2="28.2579" y2="76.9061" gradientUnits="userSpaceOnUse">
<stop stop-color="#04BFD7"/>
<stop offset="1" stop-color="#63388B"/>
</linearGradient>
</defs>
</svg>
