<svg width="28" height="35" viewBox="0 0 28 35" fill="none" xmlns="http://www.w3.org/2000/svg">
<path d="M27.4167 33.8333H25.6667V9.91667C25.6667 9.59452 25.4055 9.33333 25.0833 9.33333H23.3333V4.08333C23.3333 3.76119 23.0721 3.5 22.75 3.5H21V0.583333C21 0.26119 20.7388 0 20.4167 0C20.0945 0 19.8333 0.26119 19.8333 0.583333V3.5H18.0833C17.7612 3.5 17.5 3.76119 17.5 4.08333V9.33333H2.91667C2.59452 9.33333 2.33333 9.59452 2.33333 9.91667V33.8333H0.583333C0.26119 33.8333 0 34.0942 0 34.4167C0 34.7391 0.26119 35 0.583333 35H2.91667H6.41667H12.25H25.0833H27.4167C27.7388 35 28 34.7391 28 34.4167C28 34.0942 27.7388 33.8333 27.4167 33.8333ZM18.6667 4.66667H22.1667V9.33333H18.6667V4.66667ZM7 33.8333V26.8333H11.6667V33.8333H7ZM12.8333 33.8333V26.25C12.8333 25.9276 12.5721 25.6667 12.25 25.6667H6.41667C6.09452 25.6667 5.83333 25.9276 5.83333 26.25V33.8333H3.5V10.5H18.0833H22.75H24.5V33.8333H12.8333Z" fill="#3F3F3F"/>
<path d="M17.5399 16.918H17.4601C17.1605 16.918 16.9167 16.7086 16.9167 16.4514C16.9167 16.1939 17.1605 15.9846 17.4601 15.9846C17.6609 15.9846 17.8449 16.0803 17.9403 16.2341C18.1101 16.5072 18.4693 16.5913 18.7439 16.4218C19.0176 16.2517 19.1013 15.892 18.9316 15.6183C18.7361 15.3037 18.4307 15.0773 18.0833 14.9455V14.0013C18.0833 13.6792 17.8221 13.418 17.5 13.418C17.1779 13.418 16.9167 13.6792 16.9167 14.0013V14.9103C16.2409 15.1287 15.75 15.7333 15.75 16.4514C15.75 17.3521 16.517 18.0846 17.4601 18.0846H17.5399C17.8395 18.0846 18.0833 18.2937 18.0833 18.5512C18.0833 18.8087 17.8395 19.0177 17.5399 19.0177C17.3391 19.0177 17.1551 18.9226 17.0597 18.7688C16.889 18.4954 16.5296 18.4111 16.2564 18.5808C15.9827 18.7506 15.8984 19.1106 16.0684 19.384C16.2638 19.6988 16.5692 19.9254 16.9167 20.057V21.0013C16.9167 21.3237 17.1779 21.5846 17.5 21.5846C17.8221 21.5846 18.0833 21.3237 18.0833 21.0013V20.092C18.7591 19.8737 19.25 19.2694 19.25 18.5512C19.25 17.6506 18.483 16.918 17.5399 16.918Z" fill="#3F3F3F"/>
<path d="M17.4993 11.668C14.2828 11.668 11.666 14.2847 11.666 17.5013C11.666 20.7176 14.2828 23.3346 17.4993 23.3346C20.7159 23.3346 23.3327 20.7176 23.3327 17.5013C23.3327 14.2847 20.7159 11.668 17.4993 11.668ZM17.4993 22.168C14.9262 22.168 12.8327 20.0745 12.8327 17.5013C12.8327 14.9281 14.9262 12.8346 17.4993 12.8346C20.0725 12.8346 22.166 14.9281 22.166 17.5013C22.166 20.0745 20.0725 22.168 17.4993 22.168Z" fill="#3F3F3F"/>
</svg>
