<svg width="62" height="58" viewBox="0 0 62 58" fill="none" xmlns="http://www.w3.org/2000/svg">
<rect width="62" height="58" rx="5" fill="url(#paint0_linear_1972_13)" fill-opacity="0.3"/>
<path d="M42.7459 32.314C42.1729 31.4232 39.9168 28.9644 39.7735 28.1091C39.7377 27.7528 39.7019 27.3964 39.7019 27.0401C39.6303 25.5078 39.5587 23.441 37.0876 21.8018C35.9417 21.1247 34.7241 20.5902 33.4348 20.3051V16.1715C33.4348 14.436 31.9917 13 30.2476 13H21.1872C19.4432 13 18 14.436 18 16.1715V22.6214C18 24.2738 19.3376 25.6158 20.9724 25.7572C19.5757 31.3519 22.3332 35.8775 24.84 37.6236L24.8758 44.1091C24.8758 44.4225 25.1048 44.6437 25.413 44.6437C25.7279 44.6437 25.9502 44.4159 25.9502 44.1091L25.9144 37.4098C25.9144 37.2712 25.8737 37.0867 25.7353 37.0178C25.0191 36.5902 20.471 33.098 22.0467 25.8285H23.8731C24.3029 26.3987 25.5205 27.7884 28.3496 28.9644C28.723 29.1873 29.1976 29.0827 29.4956 28.7862C29.7821 28.3942 29.5314 27.9666 29.2449 27.5033C28.6361 26.5056 28.5645 26.1136 28.9584 25.7929L30.2118 25.8285C31.9465 25.8285 33.399 24.3888 33.399 22.657V21.4454C34.4734 21.7305 35.5119 22.1581 36.4788 22.7283C38.4843 24.0468 38.5559 25.5791 38.6275 27.1114C38.6275 27.5033 38.6992 27.8953 38.735 28.2873C38.7708 29.7127 41.206 31.7795 41.8506 32.9198C42.2087 33.5969 42.2803 33.882 42.2445 33.9889C42.2087 34.0958 41.9222 34.1314 41.7074 34.1314H39.7735C39.4544 34.1314 39.2363 34.3496 39.2363 34.6659C39.2363 34.7016 39.2722 36.804 39.2722 38.4432C39.2722 38.7996 39.2722 39.441 37.9471 39.441H35.2254C34.9105 39.441 34.6883 39.6688 34.6883 39.9755V44.5367C34.7509 44.786 34.9462 45 35.2254 45C35.4668 45 35.7626 44.8002 35.7626 44.5367V40.51H37.8755C38.3769 40.51 40.3107 40.4744 40.3107 38.4432C40.3107 37.2673 40.3107 35.9131 40.2749 35.1648H41.6357C41.7432 35.1648 42.7101 35.2004 43.1398 34.4877C43.4979 33.9532 43.3547 33.2405 42.7459 32.314ZM32.3605 22.6214C32.3605 23.2628 31.8591 24.7238 30.2834 24.7238L28.8509 24.6882C27.4185 24.7951 27.4543 26.6837 28.1705 27.6815C25.4846 26.3987 24.9833 25.3653 24.6968 25.0445C24.6093 24.8704 24.3912 24.839 24.2312 24.7595L21.2589 24.7238C20.0748 24.7238 19.146 23.7996 19.146 22.6214V16.1715C19.146 15.0937 20.0667 14.069 21.1872 14.069H30.2476C31.3889 14.069 32.3247 14.9976 32.3247 16.1359L32.3605 22.6214ZM30.1402 16.1359C26.9171 16.1359 21.4737 16.1002 21.2231 16.1359C20.9242 16.2102 20.7575 16.4398 20.7575 16.7416C20.7575 17.0399 21.0946 17.2762 21.3663 17.2762C21.6886 17.2405 26.8097 17.2762 30.1402 17.2762C30.3906 17.2138 30.6057 17.0195 30.6057 16.7416C30.6057 16.4822 30.3946 16.1991 30.1402 16.1359ZM30.1402 19.0223C26.9171 19.0223 21.4737 18.9866 21.2231 19.0223C20.9537 19.0223 20.6927 19.3703 20.7575 19.6281C20.7575 19.8961 21.1072 20.1557 21.3663 20.0913C21.6886 20.0557 26.8097 20.0913 30.1402 20.0913C30.3906 20.029 30.6057 19.8346 30.6057 19.5568C30.6057 19.3119 30.4065 19.0223 30.1402 19.0223ZM30.1402 21.8731C26.9171 21.8731 21.4737 21.8374 21.2231 21.8731C20.9348 21.8731 20.6531 22.2059 20.7217 22.4788C20.7861 22.7351 21.0323 23.0162 21.3305 22.9421C21.6528 22.9065 26.7739 22.9421 30.1044 22.9421C30.3548 22.8798 30.5699 22.6853 30.5699 22.4076C30.5699 22.1146 30.3745 21.9896 30.1402 21.8731Z" fill="#3F3F3F"/>
<defs>
<linearGradient id="paint0_linear_1972_13" x1="121.66" y1="29.7838" x2="28.2579" y2="76.9061" gradientUnits="userSpaceOnUse">
<stop stop-color="#04BFD7"/>
<stop offset="1" stop-color="#63388B"/>
</linearGradient>
</defs>
</svg>
