<svg width="38" height="37" viewBox="0 0 38 37" fill="none" xmlns="http://www.w3.org/2000/svg">
<path d="M29.9989 32.0147L30.2609 35.3551H10.6826C10.4738 35.3551 10.3121 35.5252 10.3121 35.7255C10.3121 35.9343 10.4822 36.096 10.6826 36.096H30.6564C30.7605 36.096 30.8565 36.0578 30.9278 35.9729C31.0043 35.8943 31.0341 35.793 31.0266 35.6952L31.0265 35.6951L30.7336 31.9598L30.6339 31.9674L30.7336 31.9596L30.7336 31.9597C30.7181 31.759 30.5412 31.6043 30.3388 31.6198C30.1381 31.6353 29.9833 31.8122 29.9989 32.0146L29.9989 32.0147Z" fill="#3F3F3F" stroke="#3F3F3F" stroke-width="0.2"/>
<path d="M2.67238 8.01315L2.67237 8.01315L2.67227 8.01476L0.908819 35.7005C0.9088 35.7008 0.908782 35.701 0.908765 35.7012C0.901006 35.8049 0.940972 35.9041 1.00744 35.9779C1.07941 36.0579 1.18101 36.0955 1.27897 36.0955H10.6826C10.781 36.0955 10.878 36.0581 10.9524 35.9911L10.9528 35.9915L10.9598 35.9837C11.0263 35.9099 11.0662 35.8107 11.0585 35.7072C11.0585 35.7069 11.0585 35.7066 11.0585 35.7063L9.36264 8.01501L9.36266 8.01501L9.36251 8.01315C9.34723 7.82215 9.18719 7.66758 8.99238 7.66758H3.04251C2.84076 7.66758 2.68756 7.82349 2.67238 8.01315ZM10.2947 35.3603H1.67292L3.38446 8.40833H8.64481L10.2947 35.3603Z" fill="#3F3F3F" stroke="#3F3F3F" stroke-width="0.2"/>
<path d="M28.8907 8.00782L28.8907 8.00751C28.8752 7.81369 28.7126 7.66758 28.5206 7.66758H8.98627C8.77891 7.66758 8.61582 7.83067 8.61582 8.03803C8.61582 8.24674 8.78591 8.40848 8.98627 8.40848H28.1799L29.0967 20.2932C29.1056 20.49 29.2708 20.6351 29.4613 20.6351C29.4616 20.6351 29.4621 20.6351 29.4627 20.6351C29.4687 20.6353 29.4898 20.6359 29.5139 20.6266C29.7037 20.6004 29.8467 20.4291 29.8317 20.2343L28.8907 8.00782Z" fill="#3F3F3F" stroke="#3F3F3F" stroke-width="0.2"/>
<path d="M10.4432 36.0154L10.4432 36.0155L10.446 36.0176C10.5128 36.0696 10.5961 36.1007 10.682 36.1007C10.7833 36.1007 10.8975 36.0583 10.9608 35.9574C11.0875 35.8011 11.061 35.5738 10.91 35.4455L10.9094 35.445L5.88945 31.2475C5.88942 31.2475 5.88939 31.2475 5.88936 31.2474C5.74282 31.1241 5.53353 31.1325 5.39578 31.2626L5.39577 31.2626L5.39527 31.263L1.01184 35.4608L1.01183 35.4607L1.0103 35.4623C0.864502 35.6081 0.864525 35.839 1.00278 35.9849L1.00267 35.985L1.0066 35.9887C1.14947 36.1241 1.37897 36.1349 1.52728 35.9944L1.52766 35.994L5.67192 32.0273L10.4432 36.0154Z" fill="#3F3F3F" stroke="#3F3F3F" stroke-width="0.2"/>
<path d="M5.29063 31.5305H5.29062L5.98223 7.77192C5.84137 7.74938 5.71178 7.89024 5.71178 8.03673L5.61179 8.03537L5.61178 8.03599C5.61178 8.03624 5.61178 8.03649 5.61178 8.03673L5.29063 31.5305ZM6.34705 8.04237C6.34705 7.84592 6.19071 7.67627 5.98999 7.672L5.92589 31.5375L6.02588 31.5389L6.02589 31.5382C6.02589 31.538 6.02589 31.5377 6.02589 31.5375L6.34704 8.04373L6.34705 8.04373V8.04237Z" fill="#3F3F3F" stroke="#3F3F3F" stroke-width="0.2"/>
<path d="M15.3402 12.8361C15.34 11.9527 14.6192 11.232 13.7358 11.232C12.8523 11.232 12.1314 11.9529 12.1314 12.8364C12.1314 13.7199 12.8523 14.4408 13.7358 14.4408C14.6244 14.4408 15.346 13.7203 15.3402 12.8361ZM15.3402 12.8361C15.3402 12.836 15.3402 12.8358 15.3402 12.8357L15.2402 12.8364H15.3402C15.3402 12.8363 15.3402 12.8362 15.3402 12.8361ZM12.8667 12.8364C12.8667 12.3564 13.2558 11.9673 13.7358 11.9673C14.2159 11.9673 14.6049 12.3564 14.6049 12.8364C14.6049 13.3165 14.2159 13.7055 13.7358 13.7055C13.2558 13.7055 12.8667 13.3165 12.8667 12.8364Z" fill="#3F3F3F" stroke="#3F3F3F" stroke-width="0.2"/>
<path d="M22.7584 12.8364C22.7584 13.7199 23.4793 14.4408 24.3628 14.4408C25.2463 14.4408 25.9672 13.7199 25.9672 12.8364C25.9672 11.9529 25.2463 11.232 24.3628 11.232C23.4793 11.232 22.7584 11.9529 22.7584 12.8364ZM23.4937 12.8364C23.4937 12.3564 23.8827 11.9673 24.3628 11.9673C24.8428 11.9673 25.2319 12.3564 25.2319 12.8364C25.2319 13.3165 24.8428 13.7055 24.3628 13.7055C23.8827 13.7055 23.4937 13.3165 23.4937 12.8364Z" fill="#3F3F3F" stroke="#3F3F3F" stroke-width="0.2"/>
<path d="M23.9919 11.5981C23.9919 11.8068 24.162 11.9686 24.3624 11.9686C24.5627 11.9686 24.7328 11.8068 24.7328 11.5981V7.4624C24.7328 4.32533 22.1864 1.77891 19.0493 1.77891C15.9122 1.77891 13.3658 4.33091 13.3658 7.4624V11.5981C13.3658 11.8068 13.5359 11.9686 13.7363 11.9686C13.945 11.9686 14.1067 11.7985 14.1067 11.5981V7.4624C14.1067 4.74002 16.3269 2.5198 19.0493 2.5198C21.7718 2.5198 23.9919 4.73432 23.9919 7.4624V11.5981Z" fill="#3F3F3F" stroke="#3F3F3F" stroke-width="0.2"/>
<path d="M18.059 8.03166C18.059 8.24037 18.2291 8.40211 18.4295 8.40211C18.6342 8.40211 18.8019 8.24057 18.7884 8.02825V6.45404C18.7884 3.39006 16.2983 0.9 13.2343 0.9C10.1703 0.9 7.68027 3.39006 7.68027 6.45404V8.03166C7.68027 8.23902 7.84336 8.40211 8.05072 8.40211C8.25943 8.40211 8.42117 8.23202 8.42117 8.03166V6.45404C8.42117 3.79339 10.5794 1.63513 13.2401 1.63513C15.9007 1.63513 18.059 3.79909 18.059 6.45404V8.03166Z" fill="#3F3F3F" stroke="#3F3F3F" stroke-width="0.2"/>
<path d="M19.9554 21.1268C19.9554 20.8801 20.1369 20.6759 20.3738 20.6406H20.4469H35.9357C36.2073 20.6406 36.4273 20.8606 36.4273 21.1322V31.1276C36.4273 31.3992 36.2073 31.6192 35.9357 31.6192H20.4469C20.1754 31.6192 19.9554 31.3992 19.9554 31.1276V21.1268ZM20.4469 32.3604H35.9357C36.6161 32.3604 37.1682 31.8086 37.1682 31.1333V21.1325C37.1682 20.4518 36.6164 19.9 35.9357 19.9H20.4469C19.7663 19.9 19.2145 20.4518 19.2145 21.1325V31.1279C19.2145 31.8086 19.7663 32.3604 20.4469 32.3604Z" fill="#3F3F3F" stroke="#3F3F3F" stroke-width="0.2"/>
<path d="M19.5849 22.8772H36.7977C37.0064 22.8772 37.1681 22.7071 37.1681 22.5068C37.1681 22.2981 36.998 22.1363 36.7977 22.1363H19.5849C19.3762 22.1363 19.2145 22.3064 19.2145 22.5068C19.2145 22.7155 19.3845 22.8772 19.5849 22.8772Z" fill="#3F3F3F" stroke="#3F3F3F" stroke-width="0.2"/>
<path d="M19.5849 24.2737H36.7977C37.005 24.2737 37.1681 24.1106 37.1681 23.9033C37.1681 23.6946 36.998 23.5328 36.7977 23.5328H19.5849C19.3775 23.5328 19.2145 23.6959 19.2145 23.9033C19.2145 24.112 19.3845 24.2737 19.5849 24.2737Z" fill="#3F3F3F" stroke="#3F3F3F" stroke-width="0.2"/>
<path d="M21.2701 29.9713C21.2701 30.18 21.4402 30.3418 21.6406 30.3418C21.8479 30.3418 22.011 30.1787 22.011 29.9713V28.5458C22.011 28.3385 21.8479 28.1754 21.6406 28.1754C21.4319 28.1754 21.2701 28.3455 21.2701 28.5458V29.9713Z" fill="#3F3F3F" stroke="#3F3F3F" stroke-width="0.2"/>
<path d="M23.3717 29.9713C23.3717 30.18 23.5418 30.3418 23.7421 30.3418C23.9425 30.3418 24.1126 30.18 24.1126 29.9713V28.5458C24.1126 28.3371 23.9425 28.1754 23.7421 28.1754C23.5334 28.1754 23.3717 28.3455 23.3717 28.5458V29.9713Z" fill="#3F3F3F" stroke="#3F3F3F" stroke-width="0.2"/>
<path d="M26.2141 29.975L26.2141 29.975V29.9713V28.5458C26.2141 28.3371 26.0441 28.1754 25.8437 28.1754C25.635 28.1754 25.4732 28.3455 25.4732 28.5458V29.9713C25.4732 30.18 25.6433 30.3418 25.8437 30.3418C26.0474 30.3418 26.2066 30.1774 26.2141 29.975Z" fill="#3F3F3F" stroke="#3F3F3F" stroke-width="0.2"/>
<path d="M27.5699 29.9713C27.5699 30.18 27.74 30.3418 27.9404 30.3418C28.1477 30.3418 28.3108 30.1787 28.3108 29.9713V28.5458C28.3108 28.3371 28.1407 28.1754 27.9404 28.1754C27.7317 28.1754 27.5699 28.3455 27.5699 28.5458V29.9713Z" fill="#3F3F3F" stroke="#3F3F3F" stroke-width="0.2"/>
<path d="M32.0651 28.9858H34.702C34.9488 28.9858 35.1514 28.7832 35.1514 28.5365V26.5644C35.1514 26.3176 34.9488 26.1151 34.702 26.1151H32.0651C31.8184 26.1151 31.6158 26.3176 31.6158 26.5644V28.5365C31.6158 28.7832 31.8184 28.9858 32.0651 28.9858ZM34.4161 26.8504V28.2449H32.3511V26.8504H34.4161Z" fill="#3F3F3F" stroke="#3F3F3F" stroke-width="0.2"/>
</svg>
