<svg width="62" height="58" viewBox="0 0 62 58" fill="none" xmlns="http://www.w3.org/2000/svg">
<rect width="62" height="58" rx="5" fill="url(#paint0_linear_1972_14)" fill-opacity="0.3"/>
<path fill-rule="evenodd" clip-rule="evenodd" d="M36.1285 19.6247C34.9312 20.4225 35.9921 21.9711 37.1165 21.3415C38.1692 20.7518 37.297 19.0474 36.1575 19.6095V19.6082L36.1285 19.6247ZM29.6318 37.0954C29.5037 38.9803 28.7555 40.3416 27.5181 41.576H34.4833C33.246 40.3401 32.4978 38.9802 32.3696 37.0954H29.6318ZM26.012 41.5775C27.4905 40.3291 28.4591 39.1098 28.6162 37.0968L17.1977 37.0954C15.9948 37.0954 15 36.1103 15 34.8978V18.802C15 18.1972 15.2466 17.6474 15.6448 17.2492L15.6462 17.2506C16.0458 16.8524 16.5942 16.6044 17.1977 16.6044H20.331C20.331 15.4112 20.1588 14.4302 20.9607 13.6297C21.3493 13.2411 21.8853 13 22.475 13H39.5264C40.7059 13 41.669 13.9631 41.669 15.1425V16.6044H44.8023C46.0052 16.6044 47 17.5895 47 18.802V34.8978C47 35.5027 46.7534 36.0524 46.3552 36.4506L46.3538 36.4492C45.9542 36.8474 45.4058 37.0954 44.8023 37.0954H33.3838C33.461 38.0806 33.7352 38.8742 34.1513 39.5603C34.606 40.3099 35.244 40.9492 35.988 41.5775H37.5257C39.0207 41.5775 39.824 43.4072 38.7314 44.4985C38.42 44.8085 37.9942 45 37.5257 45L24.4758 44.9986C22.9726 44.9986 22.183 43.1661 23.2674 42.0804L23.2661 42.079C23.9412 41.4039 24.9042 41.5775 26.012 41.5775ZM37.5257 42.5929H24.4758C24.2857 42.5929 24.1107 42.6715 23.9853 42.7968L23.984 42.7955C23.5182 43.3121 23.9178 43.9818 24.4758 43.9818H37.5257C38.4393 43.9832 38.4393 42.5929 37.5257 42.5929ZM20.3312 17.6198H17.1979C16.8424 17.6198 16.5999 17.7534 16.3629 17.967L16.3643 17.9684C16.1493 18.1819 16.0156 18.4782 16.0156 18.802V32.7084H20.3931C20.3518 32.5431 20.3297 32.3709 20.3297 32.1931L20.3312 17.6198ZM16.0158 33.7237C16.0158 34.436 15.7939 36.0798 17.198 36.0798H44.804C45.1595 36.0798 45.402 35.9461 45.639 35.7339L45.6376 35.7326C46.1144 35.2558 45.9848 34.5353 45.9848 33.7251H41.0232C40.636 34.104 40.1069 34.3382 39.5255 34.3382L22.4741 34.3368C21.8927 34.3368 21.3636 34.1026 20.9777 33.7237L16.0161 33.7251L16.0158 33.7237ZM45.9847 32.7082V18.8018C45.9847 18.1542 45.457 17.6196 44.8025 17.6196H41.6692V32.1927C41.6692 32.3704 41.6472 32.5427 41.6058 32.708L45.9847 32.7082ZM39.5265 14.0153C40.1451 14.0153 40.6536 14.5238 40.6536 15.1424V32.193C40.6536 32.813 40.1451 33.3201 39.5265 33.3201L22.4737 33.3215C21.8537 33.3215 21.3466 32.813 21.3466 32.1944V15.1424C21.3466 14.5237 21.855 14.0153 22.4737 14.0153L39.5265 14.0153ZM25.8759 28.2689C26.9355 27.5758 26.2176 26.2366 25.2227 26.4226C23.8545 26.7106 24.3932 28.6932 25.6623 28.3529C25.7381 28.3323 25.8097 28.3033 25.8759 28.2689ZM26.6626 28.9564C27.6575 28.1518 27.6588 26.6389 26.6626 25.8356V17.3632C26.6626 15.7126 24.148 15.7071 24.148 17.3632V25.8356C23.1504 26.6389 23.1532 28.1517 24.148 28.9564V30.0118C24.148 31.0397 25.3757 31.7079 26.2589 30.9308C26.7867 30.4665 26.6626 29.7239 26.6626 28.9564ZM25.6471 30.0118V29.3877H25.1649C25.1649 29.7983 25.0712 30.2529 25.406 30.2529L25.6471 30.0118ZM25.1635 17.3635V25.406H25.6458L25.6472 17.3635C25.6472 17.0453 25.1635 17.048 25.1635 17.3635ZM32.2567 25.1605C33.2515 24.3544 33.2529 22.8457 32.2567 22.0397V17.3633C32.2567 15.7127 29.7421 15.7071 29.7421 17.3633V22.0397C28.7473 22.8443 28.7445 24.3558 29.7421 25.1591V30.0104C29.7421 31.6611 32.2567 31.6666 32.2567 30.0104V25.1605ZM31.2412 30.0118V25.5904H30.759V30.0118C30.759 30.3301 31.2412 30.3273 31.2412 30.0118ZM31.0001 24.5901C32.3174 24.5901 32.2939 22.6116 31.0001 22.6116C29.6842 22.6116 29.7104 24.5901 31.0001 24.5901ZM30.759 17.3635V21.61H31.2412V17.3635C31.2412 17.0453 30.759 17.048 30.759 17.3635ZM35.3375 18.9384V17.3442C35.3375 15.7074 37.8521 15.6798 37.8521 17.3442V18.9384C38.8483 19.7444 38.847 21.2531 37.8521 22.0592V29.9926C37.8521 31.6115 35.3375 31.668 35.3375 29.9926V22.0592C34.3427 21.2531 34.3427 19.743 35.3375 18.9384ZM36.3544 17.3442V18.5085H36.8366C36.8366 18.1737 36.8973 17.3043 36.7677 17.1748C36.6162 17.0232 36.3544 17.1279 36.3544 17.3442ZM36.8366 29.9925V22.4891H36.3544V29.9925C36.3544 30.3108 36.8366 30.3081 36.8366 29.9925Z" fill="#3F3F3F"/>
<defs>
<linearGradient id="paint0_linear_1972_14" x1="121.66" y1="29.7838" x2="28.2579" y2="76.9061" gradientUnits="userSpaceOnUse">
<stop stop-color="#04BFD7"/>
<stop offset="1" stop-color="#63388B"/>
</linearGradient>
</defs>
</svg>
