<svg width="45" height="32" viewBox="0 0 45 32" fill="none" xmlns="http://www.w3.org/2000/svg">
<path d="M39.2027 3.72002C38.4194 3.47356 37.6229 3.26817 36.8177 3.10818V1.37001C36.8177 1.14085 36.6668 0.937629 36.4458 0.866283C30.7789 -0.91079 24.5955 0.0793329 19.7862 3.53192C14.9769 0.0793329 8.79354 -0.91079 3.12888 0.866283C2.90789 0.937629 2.75691 1.14084 2.75691 1.37001V3.11033C1.95172 3.26816 1.15526 3.47354 0.371964 3.72002C0.150973 3.79136 0 3.99458 0 4.2259V31.4706C0 31.6544 0.0962758 31.8251 0.253809 31.9203C0.411347 32.0176 0.608269 32.0262 0.774562 31.944C6.49859 29.0752 13.0645 28.2926 19.3162 29.7367C19.3687 29.7735 19.419 29.8081 19.4694 29.847C19.6575 29.9853 19.9157 29.9853 20.1039 29.847C20.1542 29.8102 20.2067 29.7756 20.257 29.7367C26.5082 28.2926 33.0746 29.0752 38.7987 31.944C38.965 32.0262 39.1619 32.0176 39.3194 31.9203C39.477 31.8251 39.5732 31.6544 39.5732 31.4706V4.2259C39.5732 3.99458 39.4245 3.79136 39.2035 3.72002H39.2027ZM35.7456 1.75914V25.8945C30.4812 24.4634 24.8448 25.38 20.3222 28.4067V21.8561H24.0944C26.9126 21.8561 29.2057 19.331 29.2057 16.2286V13.6624L31.5119 12.8539V16.9485H31.514C30.8314 17.1755 30.3697 17.8068 30.3697 18.5202V20.6497C30.3697 20.9416 30.6082 21.1794 30.9058 21.1794H33.1944H33.1922C33.4876 21.1794 33.7283 20.9416 33.7283 20.6497V18.5202C33.7261 17.8089 33.2666 17.1755 32.5839 16.9485V12.4777L33.2404 12.2485V12.2464C33.4526 12.1707 33.5948 11.9718 33.5948 11.7491C33.5948 11.5265 33.4526 11.3276 33.2404 11.2519L20.3225 6.71836V4.45486C24.7577 1.23146 30.4621 0.234804 35.7458 1.76111L35.7456 1.75914ZM19.7229 7.6307L31.4617 11.747L19.7229 15.8654L7.98187 11.747L19.7229 7.6307ZM11.308 14.0385L19.5414 16.9269V16.9247C19.6574 16.9658 19.7843 16.9658 19.9002 16.9247L28.1337 14.0364V16.2264C28.1337 18.745 26.322 20.7945 24.0924 20.7945L15.347 20.7967C13.1196 20.7967 11.3057 18.7493 11.3057 16.2285L11.308 14.0385ZM32.0481 17.9192C32.3851 17.9213 32.6564 18.1894 32.6564 18.5202V20.1221H31.4398V18.5202C31.4398 18.1894 31.7134 17.9192 32.0481 17.9192ZM3.82902 1.76113C9.11313 0.23483 14.815 1.23147 19.2501 4.45489V6.67301L6.1984 11.2498H6.20059C5.98835 11.3254 5.84613 11.5243 5.84613 11.747C5.84613 11.9697 5.98835 12.1707 6.20059 12.2464L10.2331 13.6603V16.2265C10.2331 19.3288 12.5262 21.854 15.3444 21.854H19.2478V28.4046C16.143 26.3486 12.4954 25.2439 8.75817 25.2266C7.09087 25.2266 5.43018 25.4514 3.82415 25.8946L3.82902 1.76113ZM9.9558 28.1518C6.87942 28.5021 3.87944 29.3387 1.07259 30.6294V4.61506C1.62836 4.44859 2.19287 4.30806 2.75737 4.18916V26.6039C2.75737 26.7725 2.83833 26.9325 2.97836 27.0319C3.11621 27.1314 3.29344 27.1595 3.45754 27.1076C7.86862 25.7132 12.6606 26.1066 16.7759 28.2037C14.5135 27.914 12.2227 27.8967 9.9558 28.1518ZM38.5031 30.6294C35.6937 29.3388 32.694 28.5021 29.6177 28.1518C27.3509 27.8967 25.06 27.9162 22.7975 28.2081C26.9154 26.1088 31.707 25.7154 36.1181 27.112C36.2822 27.1617 36.4594 27.1336 36.5973 27.0341C36.7351 26.9347 36.8183 26.7769 36.8183 26.6082V4.19349C37.3828 4.3124 37.9473 4.45292 38.503 4.61939L38.5031 30.6294ZM22.4166 5.41313C25.3354 3.95817 28.591 3.28362 31.856 3.45879C32.1514 3.47608 32.3768 3.7247 32.3593 4.01655C32.3439 4.30841 32.0901 4.53109 31.7947 4.51595C28.7162 4.35165 25.6484 4.98725 22.8959 6.36005C22.769 6.42275 22.6202 6.43355 22.4867 6.38816C22.351 6.34492 22.2395 6.24979 22.176 6.1244C22.0447 5.86281 22.1518 5.54502 22.4166 5.41313ZM7.21393 4.01655C7.19861 3.7247 7.42398 3.47608 7.71936 3.45879C10.9839 3.28367 14.2399 3.95819 17.1588 5.41313C17.4235 5.54501 17.5307 5.86281 17.3973 6.12442C17.266 6.38602 16.9444 6.49195 16.6796 6.36007C13.9271 4.98724 10.8593 4.35166 7.78074 4.51598C7.63852 4.52246 7.49848 4.4749 7.39346 4.38194C7.28624 4.28897 7.22268 4.15708 7.21393 4.01655ZM7.78062 23.1493C7.48961 23.1558 7.24674 22.9352 7.22923 22.6499C7.21173 22.3645 7.42834 22.1159 7.71716 22.0921C10.9839 21.917 14.2399 22.5915 17.1583 24.0464C17.423 24.1783 17.5302 24.4961 17.3968 24.7555C17.2655 25.0171 16.9438 25.1231 16.6791 24.9933C13.9265 23.6205 10.8591 22.985 7.78062 23.1493ZM32.3589 22.6499C32.3436 22.9417 32.0898 23.1644 31.7944 23.1493C28.7158 22.985 25.648 23.6206 22.8955 24.9934C22.7686 25.0561 22.6198 25.0669 22.4863 25.0215C22.3507 24.9782 22.2391 24.8831 22.1756 24.7556C22.0443 24.4961 22.1516 24.1783 22.4163 24.0465C25.3351 22.5915 28.5907 21.917 31.8557 22.0921C31.998 22.0986 32.1314 22.1635 32.2255 22.2672C32.3196 22.3732 32.3676 22.5093 32.3589 22.6499ZM43.0037 3.573H42.4588C41.4217 3.61623 40.6143 4.47667 40.6515 5.50144V22.4575V22.5007V22.518C40.6515 22.531 40.6537 22.544 40.6581 22.5569V22.5699L42.205 29.0425L42.2028 29.0403C42.2597 29.2803 42.4763 29.4489 42.7258 29.4489C42.973 29.4489 43.1896 29.2803 43.2465 29.0403L44.7934 22.5677V22.5548C44.7956 22.5418 44.7978 22.5288 44.8 22.518V22.4986V22.4575L44.7978 5.50144C44.835 4.48099 44.0342 3.62059 43.0037 3.573ZM42.9227 21.3653L42.9118 21.3631L42.8811 21.3523L42.8593 21.3459L42.833 21.3394L42.8067 21.335H42.6798L42.6492 21.3394L42.6295 21.3437L42.5989 21.3502L42.5792 21.3567L42.5486 21.3675L42.5398 21.3718L41.7215 21.6831L41.7193 8.95155H43.7389V21.6765L42.9227 21.3653ZM43.741 7.89212L41.7193 7.89428V7.0122H43.7388L43.741 7.89212ZM42.4588 4.63197H43.0058C43.4478 4.67953 43.7716 5.06219 43.7432 5.50105V5.95505H41.7192V5.50105C41.6886 5.06218 42.0146 4.67735 42.4588 4.63197ZM42.7323 26.6167L41.8155 22.7771L42.7323 22.429L43.6491 22.7771L42.7323 26.6167Z" fill="#3F3F3F"/>
</svg>
