<svg width="38" height="50" viewBox="0 0 38 50" fill="none" xmlns="http://www.w3.org/2000/svg">
<mask id="mask0_2895_1371" style="mask-type:luminance" maskUnits="userSpaceOnUse" x="0" y="0" width="38" height="50">
<path d="M20.8333 2.0833C20.8333 0.932813 21.7661 0 22.9166 0H35.4167C36.5672 0 37.5 0.932813 37.5 2.0833V47.9168C37.5 49.0673 36.5672 50 35.4167 50H2.0833C0.932813 50 0 49.0673 0 47.9167V27.0835C0 25.9329 0.932813 25.0002 2.0833 25.0002H10.4168V14.5834C10.4168 13.4328 11.3495 12.5 12.5001 12.5H20.8333V2.0833Z" fill="white"/>
</mask>
<g mask="url(#mask0_2895_1371)">
<path d="M37.5002 0V50H20.8335V0H37.5002Z" fill="url(#paint0_linear_2895_1371)"/>
</g>
<mask id="mask1_2895_1371" style="mask-type:luminance" maskUnits="userSpaceOnUse" x="0" y="0" width="38" height="50">
<path d="M20.8333 2.0833C20.8333 0.932813 21.7661 0 22.9166 0H35.4167C36.5672 0 37.5 0.932813 37.5 2.0833V47.9168C37.5 49.0673 36.5672 50 35.4167 50H2.0833C0.932813 50 0 49.0673 0 47.9167V27.0835C0 25.9329 0.932813 25.0002 2.0833 25.0002H10.4168V14.5834C10.4168 13.4328 11.3495 12.5 12.5001 12.5H20.8333V2.0833Z" fill="white"/>
</mask>
<g mask="url(#mask1_2895_1371)">
<path d="M27.0834 14.7923V50.209H10.4165V12.709H24.9999C26.1504 12.709 27.0832 13.6417 27.0832 14.7923" fill="black" fill-opacity="0.2"/>
</g>
<mask id="mask2_2895_1371" style="mask-type:luminance" maskUnits="userSpaceOnUse" x="0" y="0" width="38" height="50">
<path d="M20.8333 2.0833C20.8333 0.932813 21.7661 0 22.9166 0H35.4167C36.5672 0 37.5 0.932813 37.5 2.0833V47.9168C37.5 49.0673 36.5672 50 35.4167 50H2.0833C0.932813 50 0 49.0673 0 47.9167V27.0835C0 25.9329 0.932813 25.0002 2.0833 25.0002H10.4168V14.5834C10.4168 13.4328 11.3495 12.5 12.5001 12.5H20.8333V2.0833Z" fill="white"/>
</mask>
<g mask="url(#mask2_2895_1371)">
<path d="M27.0834 15.6254V51.042H10.4165V13.542H24.9999C26.1504 13.542 27.0832 14.4748 27.0832 15.6254" fill="black" fill-opacity="0.18"/>
</g>
<mask id="mask3_2895_1371" style="mask-type:luminance" maskUnits="userSpaceOnUse" x="0" y="0" width="38" height="50">
<path d="M20.8333 2.0833C20.8333 0.932813 21.7661 0 22.9166 0H35.4167C36.5672 0 37.5 0.932813 37.5 2.0833V47.9168C37.5 49.0673 36.5672 50 35.4167 50H2.0833C0.932813 50 0 49.0673 0 47.9167V27.0835C0 25.9329 0.932813 25.0002 2.0833 25.0002H10.4168V14.5834C10.4168 13.4328 11.3495 12.5 12.5001 12.5H20.8333V2.0833Z" fill="white"/>
</mask>
<g mask="url(#mask3_2895_1371)">
<path d="M27.0834 14.5834V50H10.4165V12.5H24.9999C26.1504 12.5 27.0832 13.4328 27.0832 14.5834" fill="url(#paint1_linear_2895_1371)"/>
</g>
<mask id="mask4_2895_1371" style="mask-type:luminance" maskUnits="userSpaceOnUse" x="0" y="0" width="38" height="50">
<path d="M20.8333 2.0833C20.8333 0.932813 21.7661 0 22.9166 0H35.4167C36.5672 0 37.5 0.932813 37.5 2.0833V47.9168C37.5 49.0673 36.5672 50 35.4167 50H2.0833C0.932813 50 0 49.0673 0 47.9167V27.0835C0 25.9329 0.932813 25.0002 2.0833 25.0002H10.4168V14.5834C10.4168 13.4328 11.3495 12.5 12.5001 12.5H20.8333V2.0833Z" fill="white"/>
</mask>
<g mask="url(#mask4_2895_1371)">
<path d="M0 25V49.9999H16.6667V27.0834C16.6667 25.9328 15.7339 25.0001 14.5834 25.0001L0 25Z" fill="url(#paint2_linear_2895_1371)"/>
</g>
<defs>
<linearGradient id="paint0_linear_2895_1371" x1="730.719" y1="-1.21425e-05" x2="2572.87" y2="3904.85" gradientUnits="userSpaceOnUse">
<stop stop-color="#E6AD10"/>
<stop offset="1" stop-color="#C87E0E"/>
</linearGradient>
<linearGradient id="paint1_linear_2895_1371" x1="679.124" y1="12.5" x2="2215.93" y2="2993.07" gradientUnits="userSpaceOnUse">
<stop stop-color="#F6D751"/>
<stop offset="1" stop-color="#E6AD10"/>
</linearGradient>
<linearGradient id="paint2_linear_2895_1371" x1="462.901" y1="25" x2="1398.56" y2="2242.44" gradientUnits="userSpaceOnUse">
<stop stop-color="#F9E589"/>
<stop offset="1" stop-color="#F6D751"/>
</linearGradient>
</defs>
</svg>
