<svg width="54" height="50" viewBox="0 0 54 50" fill="none" xmlns="http://www.w3.org/2000/svg">
<path d="M17.69 0.00077189H33.3922L17.0922 48.296C16.9248 48.7924 16.6059 49.2238 16.1803 49.5294C15.7548 49.8349 15.244 49.9993 14.7202 49.9992H2.50037C2.10349 49.9991 1.71232 49.9047 1.35919 49.7235C1.00606 49.5424 0.7011 49.2798 0.469527 48.9575C0.237861 48.6352 0.086349 48.2624 0.0275527 47.8699C-0.0312436 47.4774 0.00436946 47.0765 0.131439 46.7005L15.318 1.70356C15.4856 1.20722 15.8045 0.775911 16.23 0.470321C16.6555 0.164732 17.1661 0.000242983 17.69 0V0.00077189Z" fill="url(#paint0_linear_2895_1334)"/>
<path d="M40.5075 32.3945H15.6078C15.3762 32.3941 15.1499 32.4634 14.9584 32.5935C14.7668 32.7236 14.6189 32.9084 14.534 33.1238C14.449 33.3392 14.4309 33.5752 14.4821 33.801C14.5333 34.0268 14.6513 34.2319 14.8208 34.3897L30.8206 49.3237C31.2867 49.7579 31.8999 49.9995 32.5369 49.9998H46.6361L40.5075 32.3945Z" fill="#0078D4"/>
<path d="M17.69 0.000998612C17.1603 -0.0012335 16.6439 0.16606 16.2161 0.478412C15.7883 0.790763 15.4717 1.23179 15.3126 1.73698L0.150337 46.6598C0.0150715 47.0372 -0.0273408 47.4416 0.0266853 47.8389C0.0807113 48.2361 0.229587 48.6145 0.460728 48.942C0.691868 49.2696 0.998476 49.5367 1.35463 49.7207C1.71079 49.9048 2.10602 50.0004 2.50692 49.9994H15.0424C15.5093 49.9161 15.9457 49.7103 16.307 49.403C16.6683 49.0958 16.9415 48.6981 17.0987 48.2507L20.1222 39.3396L30.9229 49.4132C31.3754 49.7875 31.9431 49.9945 32.5303 49.9994H46.5772L40.4164 32.3941L22.4572 32.3984L33.4489 0.000998612H17.69Z" fill="url(#paint1_linear_2895_1334)"/>
<path d="M37.7454 1.70145C37.578 1.20587 37.2594 0.775259 36.8344 0.47022C36.4095 0.165181 35.8996 0.00106783 35.3765 0.000976562H17.877C18.4 0.00114854 18.9098 0.165299 19.3347 0.470332C19.7595 0.775366 20.0781 1.20593 20.2455 1.70145L35.4324 46.7003C35.5596 47.0764 35.5953 47.4774 35.5367 47.87C35.478 48.2627 35.3267 48.6357 35.0952 48.9582C34.8637 49.2807 34.5587 49.5435 34.2054 49.7246C33.8522 49.9058 33.4609 50.0003 33.0639 50.0002H50.5642C50.961 49.9999 51.3521 49.9052 51.7051 49.7239C52.0581 49.5425 52.3629 49.2798 52.5943 48.9574C52.8257 48.635 52.977 48.2621 53.0358 47.8697C53.0946 47.4772 53.0591 47.0764 52.9323 46.7003L37.7454 1.70145Z" fill="url(#paint2_linear_2895_1334)"/>
<defs>
<linearGradient id="paint0_linear_2895_1334" x1="23.4132" y1="3.70584" x2="7.10624" y2="51.8799" gradientUnits="userSpaceOnUse">
<stop stop-color="#114A8B"/>
<stop offset="1" stop-color="#0669BC"/>
</linearGradient>
<linearGradient id="paint1_linear_2895_1334" x1="28.5069" y1="26.1565" x2="24.735" y2="27.4317" gradientUnits="userSpaceOnUse">
<stop stop-opacity="0.3"/>
<stop offset="0.071" stop-opacity="0.2"/>
<stop offset="0.321" stop-opacity="0.1"/>
<stop offset="0.623" stop-opacity="0.05"/>
<stop offset="1" stop-opacity="0"/>
</linearGradient>
<linearGradient id="paint2_linear_2895_1334" x1="26.4322" y1="2.30082" x2="44.3323" y2="49.9897" gradientUnits="userSpaceOnUse">
<stop stop-color="#3CCBF4"/>
<stop offset="1" stop-color="#2892DF"/>
</linearGradient>
</defs>
</svg>
