<svg width="123" height="123" viewBox="0 0 123 123" fill="none" xmlns="http://www.w3.org/2000/svg">
<circle cx="61.5" cy="61.5" r="61.5" fill="url(#paint0_linear_1972_8)"/>
<path fill-rule="evenodd" clip-rule="evenodd" d="M61.9995 52.4601C62.6533 52.4601 63.2438 52.7237 63.6708 53.1534C64.0979 53.5804 64.3641 54.1709 64.3641 54.8247C64.3641 55.4785 64.1005 56.069 63.6708 56.496C63.4389 56.728 63.1568 56.9125 62.8431 57.0338V71.1901H64.0083V65.0321C64.0083 64.8502 64.0663 64.6815 64.1638 64.5444L65.9537 61.4443C65.6216 61.0383 65.4238 60.519 65.4238 59.9523C65.4238 59.2985 65.6874 58.708 66.1171 58.2809C66.5442 57.8539 67.1347 57.5877 67.7884 57.5877C68.4422 57.5877 69.0327 57.8513 69.4598 58.2809C69.8868 58.708 70.153 59.2985 70.153 59.9523C70.153 60.6061 69.8894 61.1966 69.4598 61.6236C69.0327 62.0507 68.4422 62.3169 67.7884 62.3169C67.6593 62.3169 67.5327 62.3063 67.4115 62.2879L65.7006 65.2535V71.1927H66.821C66.763 67.0092 67.9045 65.0611 69.1197 63.3901C69.1302 63.3743 69.1434 63.3558 69.1539 63.3427C69.2752 63.1766 69.3965 63.0131 69.5177 62.8523C70.5801 61.4314 71.6029 60.0633 71.6029 57.0528C71.6029 54.3851 70.522 51.9704 68.7743 50.2227C67.0266 48.4749 64.6118 47.3941 61.9441 47.3941C59.2765 47.3941 56.8617 48.4749 55.114 50.2227C53.3663 51.9704 52.2854 54.3851 52.2854 57.0528C52.2854 59.0299 53.1976 60.6643 54.1887 62.4411C54.3653 62.7574 54.542 63.0764 54.7186 63.4033C54.7423 63.4402 54.7634 63.4797 54.7818 63.5219C55.8811 65.5702 56.9013 67.9005 56.9118 71.1902H58.3063V65.251L56.5954 62.2854C56.4715 62.3038 56.3476 62.3144 56.2185 62.3144C55.5647 62.3144 54.9742 62.0508 54.5471 61.6211C54.1201 61.1941 53.8539 60.6036 53.8539 59.9498C53.8539 59.296 54.1175 58.7055 54.5471 58.2785C54.9742 57.8514 55.5647 57.5852 56.2185 57.5852C56.8723 57.5852 57.4628 57.8488 57.8898 58.2785C58.3169 58.7055 58.5831 59.296 58.5831 59.9498C58.5831 60.5165 58.3827 61.0359 58.0532 61.4418L59.8431 64.5419C59.9406 64.679 59.9986 64.8477 59.9986 65.0296V71.1876H61.1638L61.1586 57.0313C60.8449 56.91 60.5654 56.7281 60.3308 56.4935C59.9037 56.0665 59.6375 55.476 59.6375 54.8222C59.6375 54.1684 59.9011 53.5779 60.3308 53.1509C60.7552 52.7264 61.3457 52.4601 61.9995 52.4601ZM60.9978 38.5278C60.9978 38.0612 61.3747 37.6843 61.8413 37.6843C62.3079 37.6843 62.6849 38.0612 62.6849 38.5278V44.1032C62.6849 44.5698 62.3079 44.9468 61.8413 44.9468C61.3747 44.9468 60.9978 44.5698 60.9978 44.1032V38.5278ZM80.3261 55.8526C80.7927 55.8526 81.1697 56.2295 81.1697 56.6961C81.1697 57.1627 80.7927 57.5397 80.3261 57.5397H74.7507C74.2841 57.5397 73.9072 57.1627 73.9072 56.6961C73.9072 56.2295 74.2841 55.8526 74.7507 55.8526H80.3261ZM48.3342 44.6042C48.0047 44.2746 48.0047 43.7395 48.3342 43.41C48.6637 43.0805 49.1988 43.0805 49.5284 43.41L53.4693 47.3537C53.7989 47.6832 53.7989 48.2183 53.4693 48.5478C53.1398 48.8774 52.6047 48.8774 52.2752 48.5478L48.3342 44.6042ZM33.7777 70.7202C34.8216 70.7202 35.7653 71.1446 36.4481 71.8273C36.941 72.3203 37.2995 72.9503 37.4604 73.6541H48.424L51.6005 68.1526C51.8325 67.7492 52.3465 67.6122 52.7472 67.8415C53.1505 68.0735 53.2876 68.5875 53.0583 68.9882L49.6366 74.9142C49.481 75.1831 49.199 75.336 48.909 75.336V75.3386L37.4602 75.3412C37.2994 76.0451 36.9409 76.6751 36.4479 77.1681C35.7652 77.8508 34.8214 78.2752 33.7775 78.2752C32.7336 78.2752 31.7899 77.8534 31.1072 77.1681C30.4244 76.4827 30 75.5389 30 74.4977C30 73.4538 30.4218 72.51 31.1072 71.8273C31.7899 71.1419 32.7339 70.7202 33.7777 70.7202ZM35.2566 73.0188C34.8796 72.6419 34.355 72.4073 33.7777 72.4073C33.2004 72.4073 32.6785 72.6419 32.2988 73.0188C31.9219 73.3984 31.6873 73.9204 31.6873 74.4977C31.6873 75.075 31.9219 75.597 32.2988 75.9766C32.6758 76.3535 33.2004 76.5881 33.7777 76.5881C34.355 76.5881 34.877 76.3535 35.2566 75.9766C35.6335 75.5996 35.8682 75.075 35.8682 74.4977C35.8682 73.9204 35.6335 73.3984 35.2566 73.0188ZM90.2224 72.4073C89.6451 72.4073 89.1231 72.6419 88.7435 73.0188C88.3666 73.3984 88.1319 73.9204 88.1319 74.4977C88.1319 75.075 88.3666 75.597 88.7435 75.9766C89.1205 76.3535 89.6451 76.5881 90.2224 76.5881C90.7997 76.5881 91.3217 76.3535 91.7013 75.9766C92.0782 75.5996 92.3128 75.075 92.3128 74.4977C92.3128 73.9204 92.0782 73.3984 91.7013 73.0188C91.3217 72.6419 90.7997 72.4073 90.2224 72.4073ZM87.552 71.8247C88.2348 71.1419 89.1785 70.7175 90.2224 70.7175C91.2663 70.7175 92.21 71.1419 92.8928 71.8247C93.5755 72.5074 93.9999 73.4538 93.9999 74.495C93.9999 75.539 93.5755 76.4827 92.8928 77.1654C92.21 77.8482 91.2636 78.2726 90.2224 78.2726C89.1785 78.2726 88.2348 77.8508 87.552 77.1654C87.0591 76.6725 86.7006 76.0424 86.5397 75.3386L75.0909 75.3412V75.3386C74.8009 75.3386 74.5189 75.1883 74.3634 74.9195L70.9417 68.9935C70.7097 68.5901 70.8468 68.0761 71.2475 67.8441C71.6508 67.6122 72.1649 67.7492 72.3968 68.1499L75.5759 73.6541H86.5396C86.7004 72.9476 87.0591 72.3176 87.552 71.8247ZM37.2784 83.1392C36.2345 83.1392 35.2908 83.5636 34.608 84.2464C33.9253 84.9291 33.5009 85.8729 33.5009 86.9167C33.5009 87.9606 33.9253 88.9044 34.608 89.5871C35.2908 90.2699 36.2346 90.6943 37.2784 90.6943C38.3224 90.6943 39.2661 90.2699 39.9488 89.5871C40.4418 89.0942 40.8003 88.4641 40.9611 87.7603H49.9636C50.2588 87.7603 50.5435 87.6048 50.699 87.3306L55.3992 78.9793C55.6259 78.5734 55.4809 78.0593 55.0776 77.8326C54.6716 77.6059 54.1576 77.7509 53.9309 78.1569L49.4732 86.0756L40.9613 86.0729C40.8005 85.3691 40.442 84.739 39.949 84.2461C39.2663 83.5607 38.3197 83.1392 37.2784 83.1392ZM38.7573 85.4379C39.1343 85.8148 39.3689 86.3394 39.3689 86.9167C39.3689 87.4941 39.1343 88.016 38.7573 88.3956C38.3777 88.7726 37.8558 89.0072 37.2784 89.0072C36.7011 89.0072 36.1792 88.7726 35.7996 88.3956C35.4226 88.0186 35.188 87.4941 35.188 86.9167C35.188 86.3394 35.4226 85.8175 35.7996 85.4379C36.1765 85.0609 36.7011 84.8263 37.2784 84.8263C37.8557 84.8263 38.3777 85.0609 38.7573 85.4379ZM86.6028 84.8263C86.0255 84.8263 85.5035 85.0609 85.1239 85.4379C84.7469 85.8148 84.5123 86.3394 84.5123 86.9167C84.5123 87.4941 84.7469 88.016 85.1239 88.3956C85.5009 88.7726 86.0254 89.0072 86.6028 89.0072C87.1801 89.0072 87.702 88.7726 88.0816 88.3956C88.4586 88.0186 88.6932 87.4941 88.6932 86.9167C88.6932 86.3394 88.4586 85.8175 88.0816 85.4379C87.7047 85.0609 87.1801 84.8263 86.6028 84.8263ZM83.9324 84.2463C83.4394 84.7393 83.0809 85.3694 82.9201 86.0732H74.4109L69.9532 78.1545C69.7265 77.7485 69.2124 77.6035 68.8065 77.8302C68.4006 78.0569 68.2556 78.571 68.4823 78.9769L73.1825 87.3282C73.338 87.6023 73.6227 87.7579 73.9179 87.7579V87.7605H82.9204C83.0812 88.4644 83.4397 89.0944 83.9327 89.5873C84.6154 90.2701 85.5618 90.6945 86.6031 90.6945C87.647 90.6945 88.5907 90.2701 89.2734 89.5873C89.9562 88.9046 90.3806 87.9582 90.3806 86.917C90.3806 85.873 89.9562 84.9293 89.2734 84.2466C88.5907 83.5638 87.6443 83.1394 86.6031 83.1394C85.5618 83.1394 84.6178 83.561 83.9324 84.2463ZM62.8433 86.8297C63.5077 86.9879 64.1008 87.3279 64.57 87.7946C65.229 88.4536 65.635 89.3604 65.635 90.3648C65.635 91.3692 65.229 92.2786 64.57 92.935C63.9136 93.5941 63.0042 94 61.9998 94C60.9954 94 60.0886 93.594 59.4295 92.935C58.7731 92.276 58.3646 91.3692 58.3646 90.3648C58.3646 89.3604 58.7705 88.451 59.4295 87.7946C59.8961 87.328 60.4919 86.9879 61.1562 86.8297V82.662C61.1562 82.1954 61.5332 81.8184 61.9998 81.8184C62.4664 81.8184 62.8433 82.1954 62.8433 82.662V86.8297ZM63.3758 88.9887C63.0226 88.6355 62.5375 88.4193 61.9998 88.4193C61.462 88.4193 60.9743 88.6381 60.6237 88.9887C60.2704 89.3419 60.0543 89.827 60.0543 90.3648C60.0543 90.9026 60.2731 91.3902 60.6237 91.7409C60.9769 92.0941 61.462 92.3103 61.9998 92.3103C62.5375 92.3103 63.0252 92.0915 63.3758 91.7409C63.7291 91.3876 63.9452 90.9026 63.9452 90.3648C63.9479 89.827 63.7291 89.342 63.3758 88.9887ZM43.6736 57.8559C43.207 57.8559 42.83 57.4789 42.83 57.0123C42.83 56.5457 43.207 56.1687 43.6736 56.1687H49.249C49.7156 56.1687 50.0926 56.5457 50.0926 57.0123C50.0926 57.4789 49.7156 57.8559 49.249 57.8559H43.6736ZM74.2504 43.1887C74.5799 42.8592 75.115 42.8592 75.4445 43.1887C75.774 43.5182 75.774 44.0533 75.4445 44.3828L71.5008 48.3265C71.1713 48.656 70.6362 48.656 70.3067 48.3265C69.9772 47.997 69.9772 47.4619 70.3067 47.1324L74.2504 43.1887ZM61.9425 45.701C58.8081 45.701 55.9716 46.9716 53.9178 49.0251C51.8643 51.0787 50.5937 53.9152 50.5937 57.0498C50.5937 59.3538 51.5295 61.1252 52.5787 63.0153L43.6605 63.0127C41.3143 63.0127 39.187 62.061 37.6502 60.5215C36.1107 58.9821 35.159 56.8573 35.159 54.5112C35.159 52.1624 36.1107 50.0377 37.6502 48.5008C39.1896 46.9614 41.3144 46.0097 43.6605 46.0097C43.8081 46.0097 43.9452 46.0123 44.0928 46.0176C44.5515 46.0387 44.9417 45.6907 44.9733 45.232C45.2211 41.523 47.0137 38.1879 49.6182 35.7578C52.3149 33.2376 55.8711 31.6876 59.4696 31.6876C63.0653 31.6876 65.9176 32.2966 68.0821 33.6305C70.212 34.9433 71.712 36.9916 72.6399 39.8886C72.7796 40.3315 73.2515 40.5766 73.6944 40.4369C73.6996 40.4343 73.7339 40.4238 73.7339 40.4238C74.7357 40.0468 75.8955 39.8543 77.1187 39.8543C79.2038 39.8543 81.4446 40.4237 83.4032 41.6311C85.3539 42.8358 87.0279 44.6758 87.9822 47.2224C88.5279 48.6802 88.8416 50.3778 88.8416 52.3312C88.8416 55.281 87.6448 57.9514 85.7125 59.8861C83.7802 61.8184 81.1072 63.0152 78.1576 63.0152H71.4829C72.4688 61.6128 73.2886 60.0126 73.2886 57.0496C73.2886 53.9153 72.018 51.0788 69.9645 49.025C67.9109 46.9688 65.0744 45.701 61.9425 45.701ZM70.2512 64.6993C69.2179 66.194 68.3294 68.0683 68.5272 71.9884C68.5377 72.2309 68.4454 72.4576 68.2873 72.6184V73.4725C68.2873 74.6508 67.8049 75.7185 67.0325 76.4935C66.6634 76.8626 66.2311 77.1631 65.7513 77.3793V78.4838C65.7513 79.1507 65.4798 79.757 65.0422 80.1947C64.6046 80.6323 63.9983 80.9038 63.3313 80.9038H60.6609C59.994 80.9038 59.3877 80.6323 58.9501 80.1947C58.5125 79.7571 58.2409 79.1507 58.2409 78.4838V77.3793C57.7612 77.1631 57.3262 76.8626 56.9598 76.4935C56.1848 75.7185 55.705 74.6482 55.705 73.4725L55.6971 72.7976C55.4071 72.6658 55.2041 72.3706 55.2041 72.0305C55.2041 71.9963 55.2068 71.962 55.2094 71.9304C55.3517 68.8514 54.495 66.6291 53.5012 64.702L43.6606 64.6994C40.8478 64.6994 38.3013 63.558 36.4559 61.7153C34.6132 59.8726 33.4717 57.3235 33.4717 54.5106C33.4717 51.6978 34.6132 49.1514 36.4559 47.3059C38.2352 45.5265 40.671 44.4009 43.3677 44.3271C43.8316 40.4888 45.756 37.0643 48.4712 34.5262C51.4685 31.724 55.4384 30 59.4692 30C63.3707 30 66.5133 30.688 68.9644 32.1985C71.242 33.6036 72.8922 35.6967 73.9624 38.5779C74.9483 38.3038 76.016 38.1614 77.1179 38.1614C79.4878 38.1614 82.0448 38.8126 84.2855 40.1939C86.5314 41.5805 88.4585 43.6973 89.5577 46.6287C90.1746 48.2763 90.5305 50.1717 90.5305 52.3227C90.5305 55.7392 89.1465 58.8313 86.9058 61.0722C84.6677 63.3102 81.5729 64.6969 78.1564 64.6969L70.2505 64.7021L70.2512 64.6993ZM66.5975 72.8738H57.3845V73.4748C57.3845 74.1866 57.6771 74.835 58.1463 75.3043C58.6155 75.7735 59.264 76.0661 59.9757 76.0661H64.0091C64.7208 76.0661 65.3693 75.7735 65.8385 75.3043C66.3077 74.835 66.6003 74.1866 66.6003 73.4748V72.8738H66.5975ZM59.9228 77.7506V78.4835C59.9228 78.6838 60.0046 78.8683 60.139 79.0001C60.2734 79.1346 60.4553 79.2163 60.6557 79.2163H63.3261C63.5264 79.2163 63.7109 79.1346 63.8427 79.0001C63.9772 78.8683 64.0589 78.6838 64.0589 78.4835V77.7506H64.0062H59.9729H59.9228Z" fill="white"/>
<defs>
<linearGradient id="paint0_linear_1972_8" x1="241.358" y1="63.1622" x2="51.2435" y2="152.889" gradientUnits="userSpaceOnUse">
<stop stop-color="#04BFD7"/>
<stop offset="1" stop-color="#63388B"/>
</linearGradient>
</defs>
</svg>
