<svg width="123" height="123" viewBox="0 0 123 123" fill="none" xmlns="http://www.w3.org/2000/svg">
<circle cx="61.5" cy="61.5" r="61.5" fill="url(#paint0_linear_1972_7)"/>
<path fill-rule="evenodd" clip-rule="evenodd" d="M76.5777 32.1819V35.8554C77.3279 35.4062 78.1836 35.1635 79.058 35.1522C80.2787 35.1673 81.4444 35.6628 82.3023 36.5314C83.1602 37.4 83.6413 38.5717 83.6413 39.7925C83.6413 41.0133 83.1602 42.185 82.3023 43.0536C81.4444 43.9222 80.2787 44.4177 79.058 44.4328C78.1837 44.4211 77.328 44.1785 76.5777 43.7296V47.433H81.5405C81.8258 47.4332 82.0993 47.5466 82.3011 47.7483C82.5028 47.9501 82.6162 48.2236 82.6164 48.5089C82.6164 50.633 81.7247 50.8172 81.7247 52.0687C81.7247 52.7288 81.9869 53.3619 82.4536 53.8286C82.9204 54.2954 83.5534 54.5576 84.2135 54.5576C84.8736 54.5576 85.5067 54.2954 85.9734 53.8286C86.4402 53.3619 86.7024 52.7288 86.7024 52.0687C86.7024 50.8172 85.8114 50.633 85.8114 48.5089C85.8114 48.3675 85.8393 48.2275 85.8934 48.0969C85.9476 47.9662 86.027 47.8476 86.127 47.7476C86.2271 47.6477 86.3459 47.5685 86.4766 47.5145C86.6073 47.4605 86.7473 47.4328 86.8887 47.433H91.8288C91.5694 43.4734 89.8793 39.7431 87.0734 36.9373C84.2675 34.1314 80.5373 32.4413 76.5777 32.1819ZM43.7813 61.4852H48.7342C48.8754 61.4852 49.0153 61.5131 49.1458 61.5672C49.2763 61.6212 49.3948 61.7005 49.4947 61.8004C49.5946 61.9003 49.6737 62.0189 49.7277 62.1495C49.7817 62.28 49.8095 62.4199 49.8094 62.5611V64.1114C51.0633 64.4393 52.2663 64.9377 53.3848 65.5926L54.4814 64.4961C54.5812 64.3962 54.6998 64.3169 54.8303 64.2628C54.9608 64.2087 55.1006 64.1809 55.2419 64.1809C55.3831 64.1809 55.523 64.2087 55.6535 64.2628C55.784 64.3169 55.9026 64.3962 56.0024 64.4961L59.5039 67.9976C59.6038 68.0974 59.6831 68.216 59.7372 68.3465C59.7913 68.477 59.8191 68.6169 59.8191 68.7581C59.8191 68.8994 59.7913 69.0392 59.7372 69.1697C59.6831 69.3002 59.6038 69.4188 59.5039 69.5186L58.4074 70.6152C59.0625 71.7335 59.5607 72.9366 59.8879 74.1906H61.4388C61.5801 74.1905 61.72 74.2183 61.8505 74.2723C61.9811 74.3263 62.0997 74.4054 62.1996 74.5053C62.2995 74.6051 62.3788 74.7237 62.4328 74.8542C62.4869 74.9847 62.5148 75.1246 62.5148 75.2658V80.2187C62.5148 80.36 62.4869 80.4998 62.4328 80.6303C62.3788 80.7608 62.2995 80.8794 62.1996 80.9792C62.0997 81.0791 61.9811 81.1583 61.8505 81.2123C61.72 81.2663 61.5801 81.294 61.4388 81.2939H59.8879C59.5607 82.548 59.0625 83.751 58.4074 84.8694L59.5039 85.9645C59.6038 86.0643 59.6831 86.1829 59.7372 86.3134C59.7913 86.4439 59.8191 86.5837 59.8191 86.725C59.8191 86.8663 59.7913 87.0061 59.7372 87.1366C59.6831 87.2671 59.6038 87.3857 59.5039 87.4855L58.908 88.0814C59.4357 88.3919 60.0381 88.5524 60.6502 88.5458H69.3165C70.1975 88.5426 71.0415 88.1913 71.6645 87.5684C72.2875 86.9455 72.639 86.1016 72.6424 85.2206V81.8962H64.9972C64.8537 81.8999 64.7108 81.8748 64.5771 81.8224C64.4434 81.77 64.3215 81.6914 64.2186 81.5912C64.1158 81.4909 64.034 81.3711 63.9782 81.2388C63.9224 81.1064 63.8937 80.9643 63.8937 80.8207C63.8937 80.677 63.9224 80.5349 63.9782 80.4025C64.034 80.2702 64.1158 80.1504 64.2186 80.0502C64.3215 79.9499 64.4434 79.8713 64.5771 79.8189C64.7108 79.7665 64.8537 79.7414 64.9972 79.7451H72.6836C73.3065 71.7629 80.7519 68.9099 81.3229 60.0801H77.65C78.1002 60.8302 78.3436 61.6863 78.3554 62.5611C78.3554 63.7918 77.8666 64.9719 76.9964 65.8421C76.1262 66.7123 74.946 67.2011 73.7154 67.2011C72.4848 67.2011 71.3046 66.7123 70.4345 65.8421C69.5643 64.9719 69.0755 63.7918 69.0754 62.5611C69.0869 61.6869 69.3293 60.8312 69.778 60.0808H64.9994C64.857 60.0814 64.716 60.0537 64.5844 59.9993C64.4529 59.945 64.3335 59.865 64.233 59.7641C64.1326 59.6633 64.0532 59.5434 63.9995 59.4116C63.9457 59.2799 63.9187 59.1387 63.9199 58.9964C63.92 58.9488 63.9231 58.9013 63.9292 58.8541V52.9519C63.9292 52.6668 64.0424 52.3933 64.2441 52.1917C64.4457 51.99 64.7192 51.8767 65.0043 51.8767C67.1284 51.8767 67.3133 52.7678 68.5649 52.7678C69.225 52.7678 69.858 52.5055 70.3248 52.0388C70.7915 51.572 71.0538 50.939 71.0538 50.2789C71.0538 49.6188 70.7915 48.9857 70.3248 48.519C69.858 48.0522 69.225 47.79 68.5649 47.79C67.3133 47.79 67.1284 48.681 65.0043 48.681C64.8631 48.681 64.7232 48.6532 64.5927 48.5991C64.4622 48.545 64.3437 48.4658 64.2438 48.3658C64.144 48.2659 64.0648 48.1473 64.0108 48.0168C63.9568 47.8862 63.9291 47.7464 63.9292 47.6051V42.6835C59.7885 42.9566 55.9067 44.794 53.0707 47.8232C50.2347 50.8524 48.6567 54.8468 48.6567 58.9964C48.6494 59.2768 48.533 59.5434 48.332 59.7392C48.1311 59.935 47.8617 60.0446 47.5811 60.0446C47.3005 60.0446 47.0311 59.935 46.8302 59.7392C46.6292 59.5434 46.5128 59.2768 46.5056 58.9964C46.5056 56.5669 46.9841 54.1612 47.9138 51.9167C48.8435 49.6722 50.2063 47.6328 51.9242 45.915C53.6421 44.1971 55.6816 42.8345 57.9261 41.9048C60.1706 40.9752 62.5763 40.4968 65.0058 40.4969C65.2911 40.4969 65.5648 40.6102 65.7666 40.812C65.9683 41.0138 66.0817 41.2874 66.0817 41.5728V46.3486C66.8336 45.8997 67.6906 45.6568 68.5663 45.6446C69.787 45.6597 70.9527 46.1552 71.8106 47.0238C72.6685 47.8924 73.1495 49.0641 73.1495 50.2849C73.1495 51.5058 72.6685 52.6774 71.8106 53.546C70.9527 54.4146 69.787 54.9101 68.5663 54.9253C67.6906 54.9128 66.8336 54.6697 66.0817 54.2206V57.9304H71.0395V57.9347C71.3236 57.9347 71.5961 58.0475 71.797 58.2483C71.998 58.4491 72.111 58.7215 72.1112 59.0056C72.1112 61.1389 71.2244 61.3103 71.2244 62.5611C71.2244 63.2212 71.4866 63.8543 71.9534 64.3211C72.4202 64.7878 73.0532 65.05 73.7133 65.05C74.3734 65.05 75.0065 64.7878 75.4732 64.3211C75.94 63.8543 76.2022 63.2212 76.2022 62.5611C76.2022 61.3274 75.3112 61.0892 75.3112 59.0056C75.3112 58.8643 75.339 58.7245 75.3931 58.594C75.4472 58.4635 75.5264 58.3449 75.6263 58.2451C75.7262 58.1452 75.8449 58.066 75.9754 58.012C76.1059 57.9581 76.2458 57.9303 76.3871 57.9304H82.4315V57.9347C82.7156 57.9347 82.9881 58.0475 83.189 58.2483C83.39 58.4491 83.503 58.7215 83.5031 59.0056C83.5031 69.9254 74.7956 72.6497 74.7956 80.8217V85.2228C74.7922 86.4958 74.3468 87.7282 73.5355 88.7093C72.7242 89.6903 71.5974 90.3592 70.3476 90.6016C69.7894 92.5472 67.6099 94 65.0058 94C62.6932 94 60.2833 92.7698 59.6675 90.6123C58.8349 90.4637 58.0475 90.1263 57.3656 89.626L56.0024 90.9892C55.9026 91.0891 55.784 91.1683 55.6535 91.2224C55.523 91.2765 55.3831 91.3043 55.2419 91.3043C55.1006 91.3043 54.9608 91.2765 54.8303 91.2224C54.6998 91.1683 54.5812 91.0891 54.4814 90.9892L53.3848 89.8926C52.2665 90.5478 51.0634 91.0462 49.8094 91.3739V92.9248C49.8094 93.066 49.7816 93.2058 49.7275 93.3363C49.6735 93.4667 49.5943 93.5852 49.4945 93.6851C49.3946 93.7849 49.2761 93.8641 49.1456 93.9182C49.0152 93.9722 48.8754 94 48.7342 94H43.7813C43.6401 94 43.5003 93.9722 43.3698 93.9182C43.2394 93.8641 43.1209 93.7849 43.021 93.6851C42.9212 93.5852 42.842 93.4667 42.7879 93.3363C42.7339 93.2058 42.7061 93.066 42.7061 92.9248V91.3732C41.452 91.0457 40.2489 90.5472 39.1306 89.8919L38.0355 90.9884C37.9357 91.0884 37.8171 91.1676 37.6866 91.2217C37.5561 91.2758 37.4163 91.3036 37.275 91.3036C37.1337 91.3036 36.9939 91.2758 36.8634 91.2217C36.7329 91.1676 36.6143 91.0884 36.5145 90.9884L33.0115 87.4869C32.9116 87.3871 32.8324 87.2685 32.7783 87.138C32.7242 87.0075 32.6964 86.8677 32.6964 86.7264C32.6964 86.5852 32.7242 86.4453 32.7783 86.3148C32.8324 86.1843 32.9116 86.0657 33.0115 85.9659L34.1081 84.8694C33.4528 83.7511 32.9543 82.548 32.6268 81.2939H31.0759C30.9347 81.294 30.7948 81.2663 30.6642 81.2123C30.5337 81.1583 30.4151 81.0791 30.3152 80.9792C30.2153 80.8794 30.136 80.7608 30.0819 80.6303C30.0278 80.4998 30 80.36 30 80.2187V75.2658C30 74.9807 30.1133 74.7072 30.3149 74.5055C30.5166 74.3039 30.79 74.1906 31.0752 74.1906H32.6268C32.9548 72.9367 33.4532 71.7337 34.1081 70.6152L33.0115 69.5186C32.9116 69.4188 32.8324 69.3002 32.7783 69.1697C32.7242 69.0392 32.6964 68.8994 32.6964 68.7581C32.6964 68.6169 32.7242 68.477 32.7783 68.3465C32.8324 68.216 32.9116 68.0974 33.0115 67.9976L36.513 64.4961C36.6129 64.3962 36.7315 64.3169 36.862 64.2628C36.9925 64.2087 37.1323 64.1809 37.2736 64.1809C37.4148 64.1809 37.5547 64.2087 37.6852 64.2628C37.8157 64.3169 37.9343 64.3962 38.0341 64.4961L39.1306 65.5926C40.2491 64.9376 41.4521 64.4392 42.7061 64.1114V62.5611C42.706 62.4199 42.7337 62.28 42.7877 62.1495C42.8417 62.0189 42.9209 61.9003 43.0208 61.8004C43.1206 61.7005 43.2392 61.6212 43.3697 61.5672C43.5002 61.5131 43.64 61.4852 43.7813 61.4852ZM47.6583 63.6356H44.8572V64.9675C44.8573 65.2173 44.7703 65.4593 44.6112 65.6518C44.452 65.8443 44.2307 65.9753 43.9854 66.0221C42.4243 66.3234 40.9397 66.9355 39.6199 67.8219C39.4126 67.9758 39.157 68.0501 38.8996 68.0311C38.6421 68.0122 38.4001 67.9014 38.2176 67.7188L37.2761 66.7766L35.2928 68.7556L36.235 69.6971C36.4112 69.8737 36.5206 70.1059 36.5444 70.3542C36.5683 70.6025 36.5052 70.8513 36.3658 71.0582C35.4737 72.3711 34.8564 73.851 34.5511 75.4088C34.5166 75.6672 34.3894 75.9042 34.1932 76.0758C33.997 76.2475 33.7451 76.342 33.4844 76.3417H32.1518V79.1428H33.4844C33.7342 79.1427 33.9762 79.2297 34.1687 79.3888C34.3612 79.548 34.4922 79.7693 34.539 80.0146C34.8403 81.5757 35.4524 83.0603 36.3388 84.3801C36.4926 84.5874 36.5667 84.843 36.5478 85.1004C36.5289 85.3578 36.4181 85.5998 36.2357 85.7824L35.2935 86.7239L37.2746 88.7051L38.2162 87.7629C38.3927 87.5867 38.625 87.4773 38.8732 87.4534C39.1215 87.4296 39.3703 87.4927 39.5772 87.632C40.8888 88.5243 42.3671 89.1423 43.9235 89.4489C44.182 89.4832 44.4193 89.6103 44.591 89.8066C44.7628 90.0028 44.8574 90.2548 44.8572 90.5156V91.8475H47.6583V90.5156C47.6584 90.2658 47.7456 90.0238 47.9049 89.8314C48.0641 89.6389 48.2854 89.5079 48.5308 89.461C50.0923 89.1601 51.5774 88.5482 52.8977 87.6619C53.105 87.5081 53.3606 87.434 53.618 87.4529C53.8754 87.4718 54.1174 87.5826 54.3 87.765L55.2444 88.7072L57.2255 86.7261L56.2833 85.7846C56.107 85.6081 55.9975 85.3758 55.9737 85.1275C55.9498 84.8792 56.013 84.6303 56.1525 84.4235C57.0448 83.1122 57.6621 81.6337 57.9672 80.0772C58.0017 79.8187 58.1288 79.5816 58.325 79.4098C58.5212 79.2381 58.7731 79.1435 59.0339 79.1435H60.3644V76.3417H59.0317C58.7819 76.3416 58.54 76.2543 58.3475 76.0951C58.1551 75.9359 58.0241 75.7146 57.9772 75.4692C57.6759 73.9077 57.0638 72.4226 56.1774 71.1023C56.0235 70.895 55.9492 70.6394 55.9681 70.382C55.9871 70.1245 56.0979 69.8825 56.2805 69.7L57.2227 68.7556L55.2444 66.7773L54.3029 67.7195C54.1264 67.8958 53.8941 68.0053 53.6458 68.0292C53.3975 68.0531 53.1486 67.9898 52.9418 67.8504C51.6303 66.9584 50.1519 66.3411 48.5955 66.0356C48.337 66.0012 48.0999 65.874 47.9282 65.6778C47.7564 65.4816 47.6618 65.2297 47.6618 64.969V63.6356H47.6583ZM46.2574 71.1094C44.9454 71.1094 43.663 71.4984 42.5722 72.2273C41.4813 72.9562 40.6311 73.9921 40.1291 75.2042C39.627 76.4163 39.4957 77.75 39.7516 79.0367C40.0076 80.3234 40.6393 81.5053 41.567 82.433C42.4947 83.3607 43.6766 83.9924 44.9633 84.2484C46.25 84.5043 47.5837 84.373 48.7958 83.8709C50.0079 83.3689 51.0438 82.5187 51.7727 81.4278C52.5016 80.337 52.8906 79.0546 52.8906 77.7426C52.8907 76.8715 52.7192 76.0089 52.3859 75.2041C52.0526 74.3993 51.564 73.668 50.948 73.052C50.332 72.436 49.6007 71.9474 48.7959 71.6141C47.9911 71.2808 47.1285 71.1093 46.2574 71.1094ZM40.0466 71.5311C38.8182 72.7595 37.9817 74.3246 37.6428 76.0285C37.304 77.7323 37.478 79.4983 38.1428 81.1033C38.8076 82.7083 39.9334 84.08 41.3779 85.0452C42.8223 86.0103 44.5205 86.5254 46.2577 86.5254C47.9949 86.5254 49.6931 86.0103 51.1376 85.0452C52.582 84.08 53.7078 82.7083 54.3727 81.1033C55.0375 79.4983 55.2115 77.7323 54.8726 76.0285C54.5338 74.3246 53.6973 72.7595 52.4689 71.5311C51.6533 70.7154 50.6849 70.0683 49.6192 69.6269C48.5535 69.1854 47.4113 68.9582 46.2577 68.9582C45.1042 68.9582 43.962 69.1854 42.8962 69.6269C41.8305 70.0683 40.8622 70.7154 40.0466 71.5311ZM57.4829 35.0697C57.4434 34.9324 57.4315 34.7886 57.4482 34.6467C57.4649 34.5048 57.5097 34.3676 57.58 34.2432C57.6503 34.1188 57.7447 34.0097 57.8577 33.9223C57.9706 33.8348 58.0999 33.7708 58.238 33.7339C58.376 33.697 58.52 33.688 58.6616 33.7075C58.8031 33.7269 58.9394 33.7744 59.0624 33.8471C59.1853 33.9198 59.2926 34.0164 59.3778 34.1311C59.463 34.2457 59.5245 34.3763 59.5587 34.515L60.2989 37.2791C60.3662 37.5522 60.3237 37.8409 60.1805 38.083C60.0373 38.3252 59.8048 38.5015 59.533 38.5741C59.2612 38.6467 58.9718 38.6099 58.7269 38.4714C58.482 38.333 58.3012 38.1041 58.2232 37.8338L57.4829 35.0697ZM46.5269 42.0385L48.5507 44.0624C48.6496 44.1665 48.7684 44.2497 48.9 44.3073C49.0316 44.3648 49.1734 44.3953 49.317 44.3972C49.4606 44.399 49.6031 44.3721 49.7361 44.318C49.8691 44.2639 49.99 44.1837 50.0915 44.0821C50.1931 43.9806 50.2733 43.8597 50.3274 43.7267C50.3815 43.5937 50.4084 43.4511 50.4066 43.3075C50.4047 43.1639 50.3742 43.0222 50.3167 42.8906C50.2592 42.759 50.1759 42.6402 50.0718 42.5413L48.048 40.5168C47.949 40.4126 47.8303 40.3294 47.6987 40.2719C47.5671 40.2144 47.4253 40.1838 47.2817 40.1819C47.1381 40.1801 46.9956 40.207 46.8625 40.2611C46.7295 40.3152 46.6087 40.3954 46.5071 40.497C46.4056 40.5985 46.3254 40.7194 46.2713 40.8524C46.2172 40.9855 46.1902 41.128 46.1921 41.2716C46.1939 41.4152 46.2245 41.557 46.282 41.6886C46.3395 41.8202 46.4228 41.9389 46.5269 42.0378V42.0385ZM40.5244 53.5486L43.2892 54.2895C43.5624 54.3568 43.851 54.3143 44.0931 54.1711C44.3353 54.0278 44.5116 53.7954 44.5842 53.5236C44.6568 53.2518 44.62 52.9624 44.4816 52.7175C44.3431 52.4726 44.1142 52.2917 43.8439 52.2138L41.0791 51.4757C40.8059 51.4084 40.5173 51.4509 40.2751 51.5941C40.033 51.7374 39.8567 51.9698 39.7841 52.2416C39.7114 52.5134 39.7483 52.8028 39.8867 53.0477C40.0252 53.2926 40.2541 53.4734 40.5244 53.5514V53.5486ZM62.108 90.6983C63.4143 92.2514 66.6712 92.2066 67.9178 90.6983H62.108ZM74.4244 37.1191V31.0747C74.4244 30.9319 74.4528 30.7906 74.508 30.659C74.5632 30.5274 74.6441 30.408 74.7459 30.308C74.8477 30.208 74.9684 30.1292 75.101 30.0764C75.2336 30.0235 75.3754 29.9976 75.5181 30.0002V30.0044C77.947 30.0048 80.3519 30.4839 82.5956 31.4142C84.8392 32.3446 86.8775 33.708 88.5939 35.4265C90.3103 37.145 91.6712 39.185 92.5988 41.4297C93.5263 43.6745 94.0024 46.0801 93.9998 48.5089C93.9998 48.7941 93.8866 49.0677 93.6849 49.2695C93.4833 49.4712 93.2099 49.5846 92.9246 49.5848H88.1474C88.5967 50.3364 88.8398 51.1932 88.8521 52.0687C88.8597 52.6829 88.7453 53.2926 88.5155 53.8622C88.2857 54.4319 87.9451 54.9502 87.5135 55.3873C87.0818 55.8243 86.5677 56.1713 86.0009 56.4081C85.4342 56.6449 84.826 56.7669 84.2118 56.7669C83.5975 56.7669 82.9894 56.6449 82.4226 56.4081C81.8558 56.1713 81.3417 55.8243 80.91 55.3873C80.4784 54.9502 80.1378 54.4319 79.908 53.8622C79.6782 53.2926 79.5638 52.6829 79.5714 52.0687C79.5838 51.1932 79.8268 50.3364 80.2761 49.5848H75.5003C75.215 49.5846 74.9415 49.4712 74.7397 49.2695C74.538 49.0678 74.4246 48.7942 74.4244 48.5089V42.4645H74.4287C74.4289 42.1804 74.5419 41.908 74.7428 41.7072C74.9438 41.5064 75.2162 41.3936 75.5003 41.3936C77.6336 41.3936 77.8043 42.2803 79.0559 42.2803C79.716 42.2803 80.349 42.0181 80.8158 41.5513C81.2825 41.0846 81.5447 40.4515 81.5447 39.7914C81.5447 39.1313 81.2825 38.4983 80.8158 38.0315C80.349 37.5648 79.716 37.3026 79.0559 37.3026C77.8228 37.3026 77.5846 38.1943 75.5003 38.1943C75.2151 38.1943 74.9415 38.081 74.7398 37.8794C74.538 37.6778 74.4246 37.4043 74.4244 37.1191Z" fill="white"/>
<defs>
<linearGradient id="paint0_linear_1972_7" x1="241.358" y1="63.1622" x2="51.2435" y2="152.889" gradientUnits="userSpaceOnUse">
<stop stop-color="#04BFD7"/>
<stop offset="1" stop-color="#63388B"/>
</linearGradient>
</defs>
</svg>
