<svg width="131" height="96" viewBox="0 0 131 96" fill="none" xmlns="http://www.w3.org/2000/svg">
<g clip-path="url(#clip0_1438_13729)">
<path d="M129.316 5.69187H0.720306C0.529333 5.69166 0.346242 5.61551 0.211203 5.48014C0.0761648 5.34476 0.000208734 5.16121 0 4.96976V0.722109C0.000208734 0.530657 0.0761648 0.347107 0.211203 0.21173C0.346242 0.0763535 0.529333 0.000208827 0.720306 0H129.316C129.507 0.000209258 129.69 0.076356 129.825 0.211733C129.96 0.347109 130.036 0.530658 130.036 0.722109V4.96977C130.036 5.16122 129.96 5.34477 129.825 5.48014C129.69 5.61552 129.507 5.69166 129.316 5.69187Z" fill="#E4E4E4"/>
<path d="M4.1789 3.66372C4.7437 3.66372 5.20156 3.20471 5.20156 2.6385C5.20156 2.07229 4.7437 1.61328 4.1789 1.61328C3.61411 1.61328 3.15625 2.07229 3.15625 2.6385C3.15625 3.20471 3.61411 3.66372 4.1789 3.66372Z" fill="white"/>
<path d="M8.06172 3.66372C8.62651 3.66372 9.08437 3.20471 9.08437 2.6385C9.08437 2.07229 8.62651 1.61328 8.06172 1.61328C7.49692 1.61328 7.03906 2.07229 7.03906 2.6385C7.03906 3.20471 7.49692 3.66372 8.06172 3.66372Z" fill="white"/>
<path d="M11.9445 3.66372C12.5093 3.66372 12.9672 3.20471 12.9672 2.6385C12.9672 2.07229 12.5093 1.61328 11.9445 1.61328C11.3797 1.61328 10.9219 2.07229 10.9219 2.6385C10.9219 3.20471 11.3797 3.66372 11.9445 3.66372Z" fill="white"/>
<path d="M125.511 1.93339H121.041C120.954 1.9332 120.87 1.89814 120.808 1.83591C120.746 1.77368 120.711 1.68937 120.711 1.60146C120.711 1.51355 120.746 1.42924 120.808 1.36701C120.87 1.30478 120.954 1.26973 121.041 1.26953H125.511C125.599 1.26947 125.683 1.30433 125.745 1.36645C125.807 1.42857 125.842 1.51287 125.843 1.60084C125.843 1.68881 125.808 1.77324 125.746 1.8356C125.684 1.89795 125.6 1.93313 125.512 1.93339H125.511Z" fill="white"/>
<path d="M125.511 3.17753H121.041C120.954 3.17734 120.87 3.14228 120.808 3.08005C120.746 3.01783 120.711 2.93351 120.711 2.8456C120.711 2.7577 120.746 2.67338 120.808 2.61115C120.87 2.54892 120.954 2.51387 121.041 2.51367H125.511C125.599 2.51361 125.683 2.54847 125.745 2.61059C125.807 2.67271 125.842 2.75701 125.843 2.84498C125.843 2.93295 125.808 3.01738 125.746 3.07974C125.684 3.14209 125.6 3.17727 125.512 3.17753H125.511Z" fill="white"/>
<path d="M125.512 4.42167H121.042C120.954 4.42167 120.87 4.3867 120.808 4.32445C120.746 4.26221 120.711 4.17778 120.711 4.08975C120.711 4.00171 120.746 3.91728 120.808 3.85503C120.87 3.79278 120.954 3.75781 121.042 3.75781H125.512C125.6 3.75765 125.684 3.79246 125.746 3.85459C125.808 3.91672 125.843 4.00109 125.844 4.08912C125.844 4.17715 125.809 4.26165 125.747 4.32401C125.685 4.38638 125.601 4.42151 125.513 4.42167H125.512Z" fill="white"/>
<path d="M36.6681 84.4081C37.1412 80.5935 39.4994 76.8351 43.1282 75.5938C41.6971 79.52 41.6974 83.8271 43.1291 87.7531C43.6867 89.2652 44.4639 90.8888 43.9394 92.4128C43.6131 93.3611 42.8147 94.0866 41.9223 94.5402C41.0299 94.9938 40.0395 95.21 39.0614 95.4219L38.8689 95.5815C37.3163 92.0668 36.1949 88.2226 36.6681 84.4081Z" fill="#F0F0F0"/>
<path d="M43.163 75.6647C41.0498 78.0385 39.7363 81.0195 39.4092 84.1842C39.3268 84.8642 39.3517 85.5531 39.4832 86.2253C39.6324 86.876 39.9527 87.4748 40.4108 87.9594C40.8288 88.4199 41.3097 88.8424 41.6088 89.3968C41.7577 89.6828 41.8447 89.9972 41.8639 90.3193C41.8831 90.6414 41.8342 90.9639 41.7204 91.2657C41.4563 92.0251 40.9357 92.644 40.4057 93.2316C39.8172 93.884 39.1957 94.5523 38.9455 95.4172C38.9152 95.522 38.7548 95.4687 38.785 95.3641C39.2203 93.8593 40.6773 93.0046 41.3722 91.6492C41.6964 91.0168 41.8325 90.2826 41.5286 89.615C41.2628 89.0313 40.7673 88.5952 40.34 88.1326C39.8862 87.6664 39.5531 87.0958 39.37 86.4708C39.2048 85.8075 39.1534 85.1208 39.218 84.4401C39.3391 82.9054 39.7002 81.3993 40.2879 79.9771C40.9498 78.3501 41.8843 76.8487 43.0512 75.5377C43.1235 75.4566 43.2348 75.5841 43.163 75.6647Z" fill="white"/>
<path d="M39.4575 83.1598C38.9353 83.0327 38.4752 82.7237 38.1593 82.2879C37.8434 81.8521 37.6924 81.3179 37.7331 80.7807C37.7349 80.7588 37.7452 80.7385 37.7617 80.7241C37.7782 80.7096 37.7997 80.7021 37.8216 80.7032C37.8434 80.7043 37.8641 80.7139 37.879 80.7299C37.894 80.746 37.9022 80.7672 37.9019 80.7892C37.8631 81.2893 38.0038 81.7869 38.2988 82.1921C38.5938 82.5973 39.0236 82.8835 39.5105 82.9989C39.6163 83.0241 39.5627 83.1849 39.4575 83.1598Z" fill="white"/>
<path d="M40.1676 87.7556C41.1107 87.191 41.807 86.2908 42.1175 85.2345C42.1482 85.1298 42.3086 85.1831 42.2779 85.2876C41.9528 86.3863 41.2263 87.3216 40.2436 87.9069C40.1499 87.9626 40.0744 87.811 40.1676 87.7556Z" fill="white"/>
<path d="M41.1064 78.5119C41.2982 78.6033 41.5097 78.6455 41.7218 78.6347C41.9339 78.6239 42.14 78.5604 42.3216 78.4501C42.4146 78.3932 42.49 78.5449 42.3976 78.6014C42.1964 78.7224 41.9687 78.7922 41.7344 78.8046C41.5001 78.8171 41.2663 78.7718 41.0534 78.6728C41.0326 78.6651 41.0154 78.6498 41.0054 78.6299C40.9954 78.6101 40.9934 78.5871 40.9997 78.5658C41.0068 78.5445 41.022 78.5269 41.042 78.5168C41.062 78.5068 41.0851 78.505 41.1064 78.5119Z" fill="white"/>
<path d="M54.1888 82.4056C54.1317 82.4428 54.0747 82.48 54.0176 82.5186C53.2534 83.0224 52.5312 83.5876 51.8583 84.2086C51.8055 84.2558 51.7527 84.3044 51.7014 84.3531C50.0961 85.8666 48.785 87.6658 47.8348 89.6592C47.4574 90.4527 47.1408 91.2739 46.8878 92.1156C46.5383 93.2781 46.2516 94.5664 45.5599 95.5172C45.4888 95.6172 45.4117 95.7127 45.3288 95.8032H39.0775C39.0633 95.796 39.049 95.7903 39.0348 95.7832L38.7852 95.7946C38.7952 95.7503 38.8065 95.7045 38.8166 95.6602C38.8223 95.6345 38.8294 95.6087 38.8351 95.583C38.8393 95.5658 38.8437 95.5487 38.8465 95.5329C38.8479 95.5272 38.8494 95.5215 38.8508 95.5172C38.8536 95.5015 38.8579 95.4872 38.8608 95.4729C38.9235 95.2169 38.9882 94.961 39.0547 94.7051C39.0547 94.7036 39.0547 94.7036 39.0561 94.7022C39.5447 92.7471 40.2628 90.857 41.1955 89.0715C41.2241 89.0186 41.2526 88.9643 41.284 88.9114C41.7159 88.121 42.2115 87.3673 42.7659 86.6579C43.0707 86.2704 43.3949 85.8987 43.7372 85.5441C44.6234 84.6295 45.6476 83.8604 46.7722 83.2649C49.0143 82.0782 51.6101 81.6235 54.0062 82.3484C54.0675 82.367 54.1275 82.3856 54.1888 82.4056Z" fill="#F0F0F0"/>
<path d="M54.173 82.4852C51.0601 83.105 48.2211 84.6924 46.0594 87.0218C45.5851 87.515 45.1913 88.0801 44.8926 88.6962C44.6209 89.3058 44.517 89.9772 44.5917 90.6407C44.649 91.2607 44.7792 91.8882 44.6851 92.5114C44.6322 92.8297 44.5128 93.1332 44.3347 93.4019C44.1567 93.6707 43.9239 93.8987 43.6518 94.071C42.9848 94.5179 42.1975 94.6979 41.4214 94.8472C40.5597 95.0128 39.6621 95.1713 38.943 95.7108C38.8558 95.7762 38.7597 95.6369 38.8467 95.5716C40.098 94.6328 41.7747 94.8298 43.1434 94.1671C43.7821 93.8578 44.3317 93.3537 44.49 92.6372C44.6283 92.0107 44.4946 91.3634 44.4312 90.7362C44.3489 90.09 44.4256 89.4335 44.6547 88.8239C44.9212 88.1945 45.2926 87.6152 45.753 87.1107C46.7714 85.9585 47.9641 84.9739 49.2876 84.193C50.7931 83.2935 52.441 82.6587 54.16 82.3163C54.2664 82.2951 54.2787 82.4642 54.173 82.4852Z" fill="white"/>
<path d="M46.7125 86.2311C46.3718 85.8144 46.1901 85.2899 46.1996 84.7513C46.2091 84.2127 46.4093 83.695 46.7644 83.2906C46.8365 83.2091 46.9663 83.3176 46.8941 83.3993C46.5627 83.7752 46.3763 84.2574 46.3685 84.759C46.3606 85.2606 46.5319 85.7485 46.8514 86.1346C46.9207 86.2186 46.7814 86.3146 46.7125 86.2311Z" fill="white"/>
<path d="M44.5235 90.3314C45.6156 90.4499 46.7121 90.1514 47.5944 89.4954C47.6818 89.4303 47.7779 89.5697 47.6906 89.6347C46.7712 90.3156 45.6295 90.6239 44.4933 90.4981C44.385 90.4861 44.4158 90.3194 44.5235 90.3314Z" fill="white"/>
<path d="M50.8248 83.5168C50.9231 83.7055 51.0666 83.8668 51.2424 83.9862C51.4182 84.1057 51.6209 84.1794 51.8322 84.2009C51.9406 84.2116 51.9097 84.3782 51.802 84.3676C51.5687 84.3428 51.345 84.261 51.1504 84.1295C50.9558 83.998 50.7963 83.8208 50.6859 83.6132C50.6738 83.5946 50.6693 83.572 50.6733 83.5501C50.6772 83.5282 50.6894 83.5086 50.7072 83.4954C50.7257 83.4827 50.7484 83.4778 50.7704 83.4818C50.7924 83.4858 50.8119 83.4984 50.8248 83.5168Z" fill="white"/>
<path d="M42.1476 29.6164H21.4653C20.8262 29.6157 20.2135 29.3608 19.7615 28.9078C19.3096 28.4547 19.0554 27.8404 19.0547 27.1997V15.9069C19.0554 15.2661 19.3096 14.6519 19.7615 14.1988C20.2135 13.7458 20.8262 13.4909 21.4653 13.4902H42.1476C42.7868 13.4909 43.3995 13.7458 43.8514 14.1988C44.3034 14.6519 44.5576 15.2661 44.5583 15.9068V27.1996C44.5576 27.8404 44.3034 28.4547 43.8514 28.9078C43.3995 29.3608 42.7868 29.6157 42.1476 29.6164Z" fill="#E6E6E6"/>
<path d="M73.7258 29.6164H53.0435C52.4043 29.6157 51.7916 29.3608 51.3397 28.9078C50.8877 28.4547 50.6335 27.8404 50.6328 27.1997V15.9069C50.6335 15.2661 50.8877 14.6519 51.3397 14.1988C51.7916 13.7458 52.4044 13.4909 53.0435 13.4902H73.7258C74.3649 13.4909 74.9776 13.7458 75.4296 14.1988C75.8815 14.6519 76.1357 15.2661 76.1364 15.9068V27.1996C76.1357 27.8404 75.8815 28.4547 75.4296 28.9078C74.9776 29.3608 74.3649 29.6157 73.7258 29.6164Z" fill="#63388B"/>
<path d="M105.3 29.6164H84.6177C83.9785 29.6157 83.3658 29.3608 82.9139 28.9078C82.4619 28.4547 82.2077 27.8404 82.207 27.1997V15.9069C82.2077 15.2661 82.462 14.6519 82.9139 14.1988C83.3658 13.7458 83.9786 13.4909 84.6177 13.4902H105.3C105.939 13.4909 106.552 13.7458 107.004 14.1988C107.456 14.6519 107.71 15.2661 107.711 15.9068V27.1996C107.71 27.8404 107.456 28.4547 107.004 28.9078C106.552 29.3608 105.939 29.6157 105.3 29.6164Z" fill="#E6E6E6"/>
<path d="M42.1476 54.7785H21.4653C20.8262 54.7778 20.2135 54.5229 19.7615 54.0699C19.3096 53.6168 19.0554 53.0025 19.0547 52.3618V41.069C19.0554 40.4282 19.3096 39.814 19.7615 39.3609C20.2135 38.9079 20.8262 38.653 21.4653 38.6523H42.1476C42.7868 38.653 43.3995 38.9079 43.8514 39.3609C44.3034 39.814 44.5576 40.4282 44.5583 41.069V52.3618C44.5576 53.0025 44.3034 53.6168 43.8514 54.0699C43.3995 54.5229 42.7868 54.7778 42.1476 54.7785Z" fill="#F2F2F2"/>
<path d="M73.7258 54.7785H53.0435C52.4043 54.7778 51.7916 54.5229 51.3397 54.0699C50.8877 53.6168 50.6335 53.0025 50.6328 52.3618V41.069C50.6335 40.4282 50.8877 39.814 51.3397 39.3609C51.7916 38.9079 52.4044 38.653 53.0435 38.6523H73.7258C74.3649 38.653 74.9776 38.9079 75.4296 39.3609C75.8815 39.814 76.1357 40.4282 76.1364 41.069V52.3618C76.1357 53.0025 75.8815 53.6168 75.4296 54.0699C74.9776 54.5229 74.3649 54.7778 73.7258 54.7785Z" fill="#E6E6E6"/>
<path d="M75.1861 56.8556C77.2262 56.8556 78.88 55.1976 78.88 53.1524C78.88 51.1072 77.2262 49.4492 75.1861 49.4492C73.146 49.4492 71.4922 51.1072 71.4922 53.1524C71.4922 55.1976 73.146 56.8556 75.1861 56.8556Z" fill="#63388B"/>
<path d="M76.7188 52.8405H75.4628V51.5814C75.4628 51.5425 75.4552 51.504 75.4403 51.4681C75.4255 51.4321 75.4037 51.3994 75.3763 51.3719C75.3488 51.3444 75.3162 51.3226 75.2804 51.3077C75.2445 51.2928 75.2061 51.2852 75.1673 51.2852C75.1285 51.2852 75.0901 51.2928 75.0542 51.3077C75.0183 51.3226 74.9858 51.3444 74.9583 51.3719C74.9309 51.3994 74.9091 51.4321 74.8943 51.4681C74.8794 51.504 74.8718 51.5425 74.8718 51.5814V52.8405H73.6158C73.577 52.8405 73.5386 52.8482 73.5027 52.8631C73.4669 52.878 73.4343 52.8998 73.4069 52.9273C73.3794 52.9548 73.3577 52.9875 73.3428 53.0234C73.328 53.0594 73.3203 53.0979 73.3203 53.1368C73.3203 53.1757 73.328 53.2142 73.3428 53.2502C73.3577 53.2861 73.3794 53.3188 73.4069 53.3463C73.4343 53.3738 73.4669 53.3956 73.5027 53.4105C73.5386 53.4254 73.577 53.4331 73.6158 53.4331H74.8718V54.6921C74.8718 54.7311 74.8794 54.7696 74.8943 54.8055C74.9091 54.8415 74.9309 54.8741 74.9583 54.9016C74.9858 54.9292 75.0183 54.951 75.0542 54.9659C75.0901 54.9808 75.1285 54.9884 75.1673 54.9884C75.2457 54.9884 75.3209 54.9572 75.3763 54.9016C75.4317 54.8461 75.4628 54.7707 75.4628 54.6921V53.4331H76.7187C76.7576 53.4331 76.796 53.4254 76.8318 53.4105C76.8677 53.3956 76.9003 53.3738 76.9277 53.3463C76.9552 53.3188 76.9769 53.2861 76.9918 53.2502C77.0066 53.2142 77.0143 53.1757 77.0143 53.1368C77.0143 53.0979 77.0066 53.0593 76.9918 53.0234C76.9769 52.9875 76.9552 52.9548 76.9277 52.9273C76.9003 52.8998 76.8677 52.8779 76.8318 52.8631C76.796 52.8482 76.7576 52.8405 76.7188 52.8405Z" fill="white"/>
<path d="M107.249 32.3439C109.289 32.3439 110.943 30.6859 110.943 28.6407C110.943 26.5955 109.289 24.9375 107.249 24.9375C105.209 24.9375 103.555 26.5955 103.555 28.6407C103.555 30.6859 105.209 32.3439 107.249 32.3439Z" fill="#63388B"/>
<path d="M108.781 28.3288H107.525V27.0697C107.525 27.0308 107.518 26.9923 107.503 26.9563C107.488 26.9204 107.466 26.8877 107.439 26.8602C107.411 26.8327 107.379 26.8109 107.343 26.796C107.307 26.7811 107.269 26.7734 107.23 26.7734C107.191 26.7734 107.153 26.7811 107.117 26.796C107.081 26.8109 107.048 26.8327 107.021 26.8602C106.993 26.8877 106.972 26.9204 106.957 26.9563C106.942 26.9923 106.934 27.0308 106.934 27.0697V28.3288H105.678C105.64 28.3288 105.601 28.3365 105.565 28.3513C105.529 28.3662 105.497 28.3881 105.469 28.4156C105.442 28.4431 105.42 28.4757 105.405 28.5117C105.39 28.5476 105.383 28.5862 105.383 28.6251C105.383 28.664 105.39 28.7025 105.405 28.7385C105.42 28.7744 105.442 28.8071 105.469 28.8346C105.497 28.8621 105.529 28.8839 105.565 28.8988C105.601 28.9137 105.64 28.9213 105.678 28.9213H106.934V30.1804C106.934 30.2193 106.942 30.2579 106.957 30.2938C106.972 30.3298 106.993 30.3624 107.021 30.3899C107.048 30.4174 107.081 30.4393 107.117 30.4541C107.153 30.469 107.191 30.4767 107.23 30.4767C107.308 30.4767 107.383 30.4455 107.439 30.3899C107.494 30.3344 107.525 30.259 107.525 30.1804V28.9213H108.781C108.82 28.9213 108.858 28.9137 108.894 28.8988C108.93 28.8839 108.963 28.8621 108.99 28.8346C109.018 28.807 109.039 28.7744 109.054 28.7384C109.069 28.7025 109.077 28.664 109.077 28.6251C109.077 28.5862 109.069 28.5476 109.054 28.5117C109.039 28.4757 109.018 28.4431 108.99 28.4156C108.963 28.3881 108.93 28.3662 108.894 28.3513C108.858 28.3365 108.82 28.3288 108.781 28.3288Z" fill="white"/>
<path d="M71.2656 23.2006C71.333 23.405 71.3549 23.6217 71.3297 23.8354C71.3046 24.0492 71.233 24.2548 71.1199 24.4378C71.0069 24.6208 70.8552 24.7768 70.6756 24.8946C70.496 25.0125 70.2927 25.0895 70.0802 25.1201L68.3722 36.8083L65.5703 35.4364L68.3885 23.7694C68.3608 23.4081 68.4663 23.0492 68.685 22.7606C68.9037 22.4721 69.2204 22.274 69.575 22.2039C69.9297 22.1338 70.2977 22.1965 70.6093 22.3802C70.9208 22.5639 71.1544 22.8558 71.2656 23.2006Z" fill="#9E616A"/>
<path d="M50.8637 60.6354C50.9884 60.4602 51.0733 60.2597 51.1124 60.0481C51.1515 59.8364 51.1438 59.6188 51.0899 59.4104C51.036 59.2021 50.9371 59.0081 50.8004 58.8422C50.6636 58.6763 50.4922 58.5424 50.2982 58.4501L51.4506 46.0176L49.0371 47.2578L48.2835 59.2382C48.1503 59.5751 48.1451 59.9492 48.2688 60.2898C48.3925 60.6303 48.6365 60.9135 48.9545 61.0857C49.2726 61.2579 49.6426 61.3072 49.9944 61.2242C50.3463 61.1412 50.6556 60.9317 50.8637 60.6354Z" fill="#9E616A"/>
<path d="M52.5115 54.3458L62.8685 53.9464L63.466 43.1641H51.5156L52.5115 54.3458Z" fill="#9E616A"/>
<path d="M50.5902 92.4257L52.36 92.4255L53.2019 85.582H50.5898L50.5902 92.4257Z" fill="#9E616A"/>
<path d="M50.1496 91.5501L52.9474 91.3827V92.5844L55.6073 94.426C55.7387 94.5169 55.8376 94.6476 55.8897 94.7989C55.9418 94.9502 55.9442 95.1143 55.8967 95.2671C55.8492 95.4199 55.7542 95.5535 55.6256 95.6483C55.497 95.7432 55.3415 95.7943 55.1818 95.7943H51.851L51.2769 94.6057L51.0527 95.7943H49.7969L50.1496 91.5501Z" fill="#2F2E41"/>
<path d="M58.4613 92.4257L60.2311 92.4255L61.073 85.582H58.4609L58.4613 92.4257Z" fill="#9E616A"/>
<path d="M52.3708 51.8148C52.3708 51.8148 49.2719 54.3229 50.9518 63.2802C50.696 63.3108 50.9856 63.8163 50.9856 63.8163L51.228 71.1147L51.4154 71.9512L50.7926 73.3009L51.0493 74.7675L50.2578 88.0775L53.1818 88.4565L55.9799 74.6349L56.5128 73.0809L57.0473 71.7188L56.759 70.2663L56.9955 68.0119L58.6086 60.4099L59.0034 73.5943L58.4524 74.853L58.7591 76.2348L58.0759 76.9682L57.8059 89.3039L60.9237 89.4501L63.5034 77.0149L63.3034 75.428L63.6466 74.2547V71.514L64.2344 70.2205L65.5159 63.1675C65.5159 63.1675 65.9025 57.6549 63.0818 51.168L52.3708 51.8148Z" fill="#3F3F3F"/>
<path d="M53.5463 34.3257L54.1867 40.5625L51.7961 51.0591L48.1747 50.2173L48.0379 49.2405L48.0386 49.2285L48.0424 49.1646C48.0457 49.1084 48.0507 49.0255 48.0573 48.9188C48.0704 48.7053 48.09 48.3967 48.1156 48.0157C48.1668 47.2539 48.2421 46.2033 48.3384 45.0482C48.5312 42.7362 48.8079 40.012 49.1438 38.3453C49.4733 36.7108 50.5938 35.7005 51.6429 35.0961C52.167 34.7941 52.6708 34.5951 53.0436 34.4716C53.2299 34.4099 53.3832 34.3671 53.4896 34.3399C53.5103 34.3346 53.5293 34.3298 53.5463 34.3257Z" fill="white" stroke="#3F3F3F" stroke-width="0.2"/>
<path d="M69.0916 36.6927L63.4137 43.167L62.6663 35.3692C62.6784 35.358 62.6955 35.3432 62.719 35.3258C62.783 35.278 62.8942 35.2097 63.0756 35.1375C63.4388 34.9929 64.0815 34.8333 65.1849 34.7906C65.2133 34.7895 65.247 34.7807 65.2748 34.7546C65.3023 34.7288 65.3123 34.6971 65.3154 34.6729C65.3209 34.6299 65.3076 34.5873 65.2983 34.5621C65.288 34.534 65.2749 34.5075 65.2647 34.4885L66.2985 29.4231L69.682 31.3012L69.0916 36.6927Z" fill="white" stroke="#3F3F3F" stroke-width="0.2"/>
<path d="M51.4709 49.2013L51.4662 49.1705L51.4447 49.1478C51.3348 49.0314 51.2632 48.8839 51.2398 48.7252C51.2164 48.5666 51.2422 48.4045 51.3139 48.2612L51.3171 48.2549L51.3472 48.1956L51.3043 48.1449L51.2182 48.0432L51.2181 48.0431C51.0992 47.903 51.0292 47.7276 51.0191 47.5438C51.009 47.36 51.0593 47.178 51.1621 47.0256L51.1836 46.9938L51.1783 46.9558L50.0019 38.5186L50.0018 38.5183C49.8858 37.7039 50.0634 36.8748 50.5027 36.1801C50.942 35.4854 51.6141 34.9706 52.3981 34.7285L52.3984 34.7284L52.8327 34.5928L52.8631 34.5833L52.8824 34.558L54.4943 32.4444L59.701 32.5139L61.3825 34.6545L61.4041 34.682L61.4381 34.69L64.1396 35.3286L64.7779 39.0255C64.9417 39.9748 64.8355 40.6292 64.5713 41.2556C64.4381 41.5713 64.2641 41.8815 64.0606 42.2214C63.993 42.3343 63.9219 42.4509 63.8481 42.5719C63.701 42.813 63.5431 43.0719 63.38 43.3556L63.3651 43.3816L63.3669 43.4115L63.6538 48.1896L63.6552 48.2121L63.666 48.2318L63.7962 48.4689L63.7963 48.469C63.8573 48.5799 63.8777 48.7087 63.854 48.8331C63.8304 48.9575 63.7641 49.0696 63.6667 49.1501L63.613 49.1945L63.6359 49.2602C63.7163 49.4902 63.7217 49.7398 63.6516 49.9732L63.584 50.1972L63.5794 50.2123L63.5795 50.2149C63.5775 50.22 63.5737 50.2283 63.5671 50.2393C63.5514 50.2651 63.5192 50.3065 63.4552 50.3552L63.4552 50.3552C63.3398 50.443 63.101 50.5653 62.6181 50.6651C62.136 50.7648 61.4162 50.841 60.3443 50.841C58.6747 50.8411 56.1566 50.6564 52.3606 50.0914C52.1371 50.0576 51.9302 49.953 51.7702 49.7929C51.61 49.6328 51.5052 49.4255 51.4709 49.2013Z" fill="white" stroke="#3F3F3F" stroke-width="0.2"/>
<path d="M58.0246 91.5501L60.8224 91.3827V92.5844L63.4823 94.426C63.6137 94.5169 63.7126 94.6476 63.7647 94.7989C63.8168 94.9502 63.8192 95.1143 63.7717 95.2671C63.7242 95.4199 63.6292 95.5535 63.5006 95.6483C63.372 95.7432 63.2165 95.7943 63.0568 95.7943H59.726L59.1519 94.6057L58.9277 95.7943H57.6719L58.0246 91.5501Z" fill="#2F2E41"/>
<path d="M60.9629 27.6515C61.3286 25.3925 59.7983 23.264 57.5449 22.8974C55.2915 22.5308 53.1684 24.065 52.8027 26.324C52.4371 28.583 53.9673 30.7115 56.2207 31.0781C58.4741 31.4446 60.5972 29.9105 60.9629 27.6515Z" fill="#9E616A"/>
<path d="M59.3004 22.9386C57.7854 21.894 56.4513 21.7349 55.3554 22.0312C55.2133 21.8109 55.0141 21.6336 54.7791 21.5182C53.9244 19.3592 51.3233 18.0625 49.0911 18.6928C46.8444 19.3272 45.2943 21.8221 45.717 24.1233C45.979 25.5498 46.8744 26.7849 47.2346 28.1897C47.9318 30.909 46.231 34.024 43.5703 34.9006C46.0895 35.4077 48.8625 33.865 49.7663 31.4537C50.2053 30.2824 50.2317 29.0037 50.2876 27.7537C50.3022 26.891 50.4077 26.0322 50.6021 25.1916C50.6986 24.8145 50.8349 24.4488 51.0088 24.1007C51.3876 23.3355 52.0166 22.7237 52.791 22.3673C52.7216 22.5823 52.7043 22.8108 52.7404 23.0338C52.7765 23.2569 52.865 23.4681 52.9986 23.6501C52.4078 24.3921 52.0862 25.1945 52.0862 25.675C50.8589 27.9237 52.6139 29.8553 54.8571 31.0857C55.7518 31.579 56.7849 31.7595 57.7933 31.5988L57.8871 31.1972L58.0143 31.559L58.4387 32.7718C58.9284 33.0093 59.4138 33.2696 59.895 33.5527C59.7121 32.6921 59.5643 31.8331 59.4625 30.9932C59.3216 29.8501 59.8127 28.1482 60.167 27.1133C60.3867 26.4755 60.4994 25.8055 60.5007 25.1307V25.1013L60.8456 26.2121L62.1015 25.675C61.8678 24.3315 62.1015 22.8063 59.3004 22.9386Z" fill="#3F3F3F"/>
<path d="M43.1861 57.3439C45.2262 57.3439 46.8801 55.6859 46.8801 53.6407C46.8801 51.5955 45.2262 49.9375 43.1861 49.9375C41.146 49.9375 39.4922 51.5955 39.4922 53.6407C39.4922 55.6859 41.146 57.3439 43.1861 57.3439Z" fill="#E6E6E6"/>
<path d="M98.7672 51.5123H85.8109C85.4105 51.5118 85.0267 51.3522 84.7436 51.0684C84.4605 50.7845 84.3012 50.3997 84.3008 49.9983V42.924C84.3012 42.5227 84.4605 42.1379 84.7436 41.854C85.0267 41.5702 85.4106 41.4106 85.8109 41.4102H98.7672C99.1676 41.4106 99.5514 41.5702 99.8345 41.854C100.118 42.1378 100.277 42.5227 100.277 42.924V49.9983C100.277 50.3997 100.118 50.7845 99.8345 51.0684C99.5514 51.3522 99.1676 51.5118 98.7672 51.5123Z" fill="#F2F2F2"/>
<path d="M98.9578 48.6381C100.041 48.6381 100.919 47.7577 100.919 46.6716C100.919 45.5854 100.041 44.705 98.9578 44.705C97.8744 44.705 96.9961 45.5854 96.9961 46.6716C96.9961 47.7577 97.8744 48.6381 98.9578 48.6381Z" fill="#63388B"/>
<path d="M99.7735 46.5055H99.1066V45.8369C99.1066 45.8162 99.1025 45.7958 99.0946 45.7767C99.0867 45.7576 99.0752 45.7403 99.0606 45.7256C99.046 45.711 99.0287 45.6994 99.0097 45.6915C98.9906 45.6836 98.9702 45.6796 98.9496 45.6796C98.908 45.6796 98.8681 45.6961 98.8386 45.7256C98.8092 45.7552 98.7927 45.7952 98.7927 45.8369V46.5056H98.1257C98.0841 46.5056 98.0441 46.5221 98.0147 46.5516C97.9853 46.5811 97.9688 46.6212 97.9688 46.6629C97.9687 46.6835 97.9728 46.704 97.9807 46.7231C97.9886 46.7422 98.0001 46.7595 98.0147 46.7741C98.0293 46.7888 98.0466 46.8003 98.0656 46.8083C98.0847 46.8162 98.1051 46.8202 98.1257 46.8202H98.7927V47.4889C98.7927 47.5095 98.7967 47.53 98.8046 47.5491C98.8125 47.5682 98.8241 47.5855 98.8386 47.6001C98.8532 47.6147 98.8705 47.6263 98.8896 47.6342C98.9086 47.6421 98.929 47.6462 98.9496 47.6462C98.9912 47.6462 99.0312 47.6296 99.0606 47.6001C99.09 47.5706 99.1066 47.5306 99.1066 47.4889V46.8202H99.7735C99.8152 46.8202 99.8551 46.8036 99.8845 46.7741C99.9139 46.7446 99.9305 46.7046 99.9305 46.6629C99.9305 46.6422 99.9264 46.6218 99.9185 46.6027C99.9106 46.5836 99.8991 46.5662 99.8845 46.5516C99.8699 46.537 99.8526 46.5254 99.8336 46.5175C99.8146 46.5096 99.7941 46.5055 99.7735 46.5055Z" fill="white"/>
<path d="M104.043 49.5039H93.3656C92.9124 49.5034 92.4779 49.3227 92.1575 49.0014C91.837 48.6802 91.6568 48.2447 91.6562 47.7903V41.4009C91.6564 41.3173 91.6897 41.2372 91.7487 41.1782C91.8078 41.1191 91.8878 41.0859 91.9712 41.0859C92.0546 41.0859 92.1345 41.1191 92.1936 41.1782C92.2526 41.2372 92.2859 41.3173 92.2861 41.4009V43.1121L104.688 44.2423C104.936 44.2467 105.172 44.3484 105.346 44.5255C105.52 44.7026 105.617 44.9409 105.617 45.1893C105.617 45.2088 105.615 45.2283 105.612 45.2475L104.987 48.5891C104.978 48.8344 104.875 49.0669 104.699 49.2375C104.523 49.4081 104.288 49.5036 104.043 49.5039ZM92.2861 43.7461V47.7903C92.2864 48.0773 92.4003 48.3523 92.6026 48.5552C92.805 48.758 93.0794 48.8722 93.3656 48.8725H104.043C104.126 48.8724 104.206 48.8391 104.265 48.7799C104.324 48.7207 104.358 48.6405 104.358 48.5568C104.358 48.5373 104.359 48.5178 104.363 48.4986L104.987 45.165C104.98 45.0857 104.945 45.0117 104.886 44.9577C104.828 44.9037 104.752 44.8737 104.673 44.8736C104.663 44.8736 104.654 44.8732 104.644 44.8723L92.2861 43.7461Z" fill="#3F3F3F"/>
<path d="M90.5288 52.4508C90.8186 52.4508 91.0536 52.2152 91.0536 51.9246C91.0536 51.634 90.8186 51.3984 90.5288 51.3984C90.2389 51.3984 90.0039 51.634 90.0039 51.9246C90.0039 52.2152 90.2389 52.4508 90.5288 52.4508Z" fill="#3F3F3F"/>
<path d="M103.626 52.4506C103.916 52.4506 104.151 52.2151 104.151 51.9245C104.151 51.6339 103.916 51.3983 103.626 51.3983C103.337 51.3983 103.102 51.6339 103.102 51.9245C103.102 52.2151 103.337 52.4506 103.626 52.4506Z" fill="#3F3F3F"/>
<path d="M104.151 51.399H90.1118C90.0283 51.399 89.9482 51.3657 89.8891 51.3065C89.8301 51.2473 89.7969 51.167 89.7969 51.0833C89.7969 50.9995 89.8301 50.9193 89.8891 50.86C89.9482 50.8008 90.0283 50.7676 90.1118 50.7676H104.151C104.235 50.7676 104.315 50.8008 104.374 50.86C104.433 50.9193 104.466 50.9995 104.466 51.0833C104.466 51.167 104.433 51.2473 104.374 51.3065C104.315 51.3657 104.235 51.399 104.151 51.399Z" fill="#3F3F3F"/>
<path d="M92.813 41.6119H90.0837C90.0003 41.6117 89.9204 41.5783 89.8615 41.5191C89.8026 41.46 89.7695 41.3798 89.7695 41.2962C89.7695 41.2126 89.8026 41.1324 89.8615 41.0732C89.9204 41.014 90.0003 40.9807 90.0837 40.9805H92.813C92.8964 40.9807 92.9763 41.014 93.0352 41.0732C93.0941 41.1324 93.1271 41.2126 93.1271 41.2962C93.1271 41.3798 93.0941 41.46 93.0352 41.5191C92.9763 41.5783 92.8964 41.6117 92.813 41.6119Z" fill="#3F3F3F"/>
<path d="M95.0023 51.2373C94.9271 51.2374 94.8543 51.2103 94.7973 51.1611L92.7274 49.3778C92.6959 49.3509 92.6701 49.3179 92.6513 49.2809C92.6326 49.2439 92.6213 49.2035 92.6181 49.1621C92.6149 49.1207 92.6199 49.0791 92.6328 49.0397C92.6457 49.0002 92.6663 48.9637 92.6932 48.9322C92.7202 48.9007 92.7531 48.8749 92.7901 48.8562C92.8271 48.8375 92.8674 48.8262 92.9087 48.8231C92.9499 48.8201 92.9914 48.8252 93.0308 48.8382C93.0701 48.8512 93.1065 48.8718 93.1378 48.8989L95.2077 50.6822C95.2565 50.7242 95.2913 50.7802 95.3074 50.8426C95.3234 50.905 95.3201 50.9709 95.2977 51.0314C95.2754 51.0918 95.235 51.144 95.1822 51.1808C95.1294 51.2176 95.0666 51.2373 95.0023 51.2373Z" fill="#3F3F3F"/>
<path d="M95.4399 49.3105C95.3986 49.3105 95.3576 49.3023 95.3194 49.2864C95.2812 49.2706 95.2465 49.2473 95.2173 49.218C95.188 49.1887 95.1648 49.1539 95.149 49.1156C95.1331 49.0773 95.125 49.0363 95.125 48.9948V43.927C95.125 43.8433 95.1582 43.763 95.2172 43.7038C95.2763 43.6446 95.3564 43.6113 95.4399 43.6113C95.5234 43.6113 95.6035 43.6446 95.6626 43.7038C95.7216 43.763 95.7548 43.8433 95.7548 43.927V48.9948C95.7548 49.0362 95.7467 49.0773 95.7309 49.1156C95.715 49.1539 95.6918 49.1887 95.6626 49.218C95.6334 49.2473 95.5987 49.2706 95.5605 49.2864C95.5223 49.3023 95.4813 49.3105 95.4399 49.3105Z" fill="#3F3F3F"/>
<path d="M102.088 49.3107C102.047 49.3107 102.006 49.3025 101.968 49.2867C101.93 49.2708 101.895 49.2476 101.866 49.2182C101.836 49.1889 101.813 49.1541 101.797 49.1158C101.782 49.0775 101.773 49.0365 101.773 48.995V44.3482C101.774 44.2646 101.807 44.1845 101.866 44.1254C101.925 44.0664 102.005 44.0332 102.088 44.0332C102.172 44.0332 102.252 44.0664 102.311 44.1254C102.37 44.1845 102.403 44.2646 102.403 44.3482V48.995C102.403 49.0365 102.395 49.0775 102.379 49.1158C102.363 49.1541 102.34 49.1889 102.311 49.2182C102.282 49.2475 102.247 49.2708 102.209 49.2867C102.171 49.3025 102.13 49.3107 102.088 49.3107Z" fill="#3F3F3F"/>
</g>
<defs>
<clipPath id="clip0_1438_13729">
<rect width="130.036" height="96" fill="white"/>
</clipPath>
</defs>
</svg>
