<svg width="123" height="123" viewBox="0 0 123 123" fill="none" xmlns="http://www.w3.org/2000/svg">
<circle cx="61.5" cy="61.5" r="61.5" fill="url(#paint0_linear_1972_9)"/>
<path d="M44.2929 59.1929C44.4612 59.3772 44.6992 59.4818 44.9492 59.4818H77.0521C77.3015 59.4818 77.5401 59.3765 77.7084 59.1929C77.8767 59.0085 77.9598 58.7618 77.9377 58.5131C77.7748 56.7038 76.9455 55.0286 75.6035 53.7958C74.974 53.2173 74.2554 52.7614 73.4831 52.4383C74.1783 51.7271 74.6073 50.755 74.6073 49.6845C74.6073 47.5098 72.8376 45.7401 70.6629 45.7401C68.4883 45.7401 66.7185 47.5098 66.7185 49.6845C66.7185 50.7564 67.1489 51.7297 67.8461 52.4417C67.1797 52.7205 66.5556 53.0973 65.9959 53.5612C65.4334 53.0926 64.8093 52.7165 64.1443 52.4383C64.8395 51.7271 65.2685 50.755 65.2685 49.6845C65.2685 47.5098 63.4988 45.7401 61.3241 45.7401C59.1495 45.7401 57.3797 47.5098 57.3797 49.6845C57.3797 50.755 57.8094 51.7271 58.5039 52.4383C57.731 52.7621 57.013 53.2173 56.3836 53.7958C56.3655 53.8126 56.3487 53.83 56.3306 53.8467C55.6911 53.2461 54.957 52.7695 54.16 52.4363C54.8538 51.725 55.2828 50.7537 55.2828 49.6838C55.2828 47.5091 53.5131 45.7394 51.3384 45.7394C49.1638 45.7394 47.394 47.5091 47.394 49.6838C47.394 50.7544 47.8237 51.7264 48.5182 52.4376C47.7453 52.7614 47.0273 53.2166 46.3979 53.7951C45.0558 55.0286 44.2272 56.7038 44.0643 58.5124C44.0422 58.7612 44.1253 59.0078 44.2936 59.1922L44.2929 59.1929ZM70.6629 47.5179C71.8575 47.5179 72.8295 48.4899 72.8295 49.6845C72.8295 50.8791 71.8575 51.8511 70.6629 51.8511C69.4683 51.8511 68.4963 50.8791 68.4963 49.6845C68.4963 48.4899 69.4683 47.5179 70.6629 47.5179ZM70.6629 53.6497C73.2076 53.6497 75.3514 55.3363 75.9936 57.7047H68.4775C68.2664 56.673 67.8353 55.7036 67.2139 54.8576C68.1886 54.0747 69.3879 53.6497 70.6629 53.6497ZM61.3241 47.5179C62.5187 47.5179 63.4907 48.4899 63.4907 49.6845C63.4907 50.8791 62.5187 51.8511 61.3241 51.8511C60.1295 51.8511 59.1575 50.8791 59.1575 49.6845C59.1575 48.4899 60.1295 47.5179 61.3241 47.5179ZM61.3241 53.6497C63.8688 53.6497 66.0126 55.3363 66.6548 57.7047H55.9934C56.6356 55.3363 58.7794 53.6497 61.3241 53.6497ZM51.3378 47.5179C52.5323 47.5179 53.5044 48.4899 53.5044 49.6845C53.5044 50.8791 52.5323 51.8511 51.3378 51.8511C50.1432 51.8511 49.1712 50.8791 49.1712 49.6845C49.1712 48.4899 50.1432 47.5179 51.3378 47.5179ZM51.3378 53.6497C52.7918 53.6497 54.162 54.2134 55.189 55.2136C54.6983 55.9718 54.3524 56.8151 54.17 57.7047H46.007C46.6493 55.3363 48.7931 53.6497 51.3378 53.6497ZM73.4101 67.9478L74.4625 65.4098L77.2237 64.8655C77.64 64.783 77.9403 64.4177 77.9403 63.9933V61.3219C77.9403 60.8312 77.5422 60.433 77.0514 60.433H70.0837C69.593 60.433 69.1948 60.8312 69.1948 61.3219C69.1948 65.8402 65.5192 69.5164 61.0003 69.5164C56.4814 69.5164 52.8058 65.8402 52.8058 61.3219C52.8058 60.8312 52.4077 60.433 51.9169 60.433H44.9472C44.4565 60.433 44.0583 60.8312 44.0583 61.3219V63.9933C44.0583 64.4177 44.3586 64.783 44.7749 64.8655L47.5361 65.4098L48.5886 67.9478L47.0206 70.2867C46.784 70.6393 46.8303 71.1099 47.1306 71.4102L50.9101 75.1897C51.2104 75.49 51.681 75.5356 52.0336 75.2996L54.3725 73.7316L56.9105 74.7841L57.4548 77.5453C57.5373 77.9616 57.9026 78.2626 58.3269 78.2626H63.6724C64.0967 78.2626 64.4621 77.9623 64.5445 77.5453L65.0889 74.7841L67.6269 73.7316L69.9657 75.2996C70.3183 75.5363 70.7889 75.49 71.0893 75.1897L74.8688 71.4102C75.1691 71.1099 75.2147 70.6393 74.9787 70.2867L73.4101 67.9478ZM71.6685 68.5424L73.095 70.6694L70.3485 73.4152L68.2215 71.9887C67.9748 71.8231 67.6604 71.7923 67.3862 71.9063L63.9687 73.3241C63.6938 73.438 63.4947 73.6814 63.4371 73.973L62.9424 76.4841H59.059L58.5642 73.973C58.5066 73.6814 58.3075 73.438 58.0326 73.3241L54.6151 71.9063C54.3403 71.7923 54.0266 71.8231 53.7799 71.9887L51.6528 73.4152L48.9064 70.6694L50.3329 68.5424C50.4985 68.295 50.53 67.9813 50.416 67.7064L48.9989 64.2889C48.8849 64.0141 48.6416 63.815 48.35 63.7573L45.8395 63.2626V62.2108H51.0703C51.5214 67.2948 55.8037 71.2942 61.003 71.2942C66.2023 71.2942 70.4846 67.2948 70.9357 62.2108H76.1646V63.2626L73.6534 63.7573C73.3618 63.815 73.1184 64.0141 73.0045 64.2889L71.5873 67.7064C71.4734 67.9813 71.5042 68.295 71.6705 68.5424H71.6685ZM58.3899 37.6461C58.0977 37.252 58.1801 36.6949 58.5743 36.4026C58.9685 36.1103 59.5255 36.1928 59.8178 36.587L60.1108 36.9825V30.8889C60.1108 30.3982 60.509 30 60.9997 30C61.4904 30 61.8886 30.3982 61.8886 30.8889V36.9825L62.1815 36.587C62.4738 36.1928 63.0309 36.1097 63.425 36.4026C63.8192 36.6949 63.9023 37.252 63.6094 37.6461L61.7136 40.2036C61.546 40.4295 61.2812 40.5629 60.9997 40.5629C60.7181 40.5629 60.4533 40.4295 60.2857 40.2036L58.3899 37.6461ZM76.1585 46.8415C75.9594 46.6424 75.8663 46.3608 75.9078 46.0826L76.3757 42.9339C76.4475 42.4486 76.9006 42.1127 77.3853 42.1851C77.8706 42.2575 78.2058 42.7094 78.1341 43.1947L78.0617 43.6814L82.3708 39.3723C82.718 39.0251 83.2804 39.0251 83.6277 39.3723C83.9749 39.7196 83.9749 40.282 83.6277 40.6292L79.3186 44.9383L79.8053 44.8659C80.292 44.7935 80.7431 45.1287 80.8149 45.6147C80.8873 46.1 80.5521 46.5525 80.0661 46.6243L76.9167 47.0922C76.8731 47.0989 76.8296 47.1016 76.786 47.1016C76.552 47.1016 76.3255 47.0091 76.1572 46.8415H76.1585ZM93.0007 61.9997C93.0007 62.4904 92.6025 62.8886 92.1118 62.8886H86.0182L86.4137 63.1815C86.8079 63.4738 86.891 64.0309 86.5981 64.425C86.4238 64.6603 86.1549 64.7843 85.8835 64.7843C85.6998 64.7843 85.5141 64.7274 85.3545 64.6094L82.7971 62.7136C82.5712 62.546 82.4378 62.2812 82.4378 61.9997C82.4378 61.7181 82.5712 61.4533 82.7971 61.2857L85.3545 59.3899C85.7487 59.0977 86.3058 59.1801 86.5981 59.5743C86.8903 59.9685 86.8079 60.5255 86.4137 60.8178L86.0182 61.1108H92.1118C92.6025 61.1108 93.0007 61.509 93.0007 61.9997ZM83.6284 83.3701C83.9756 83.7173 83.9756 84.2798 83.6284 84.627C83.4547 84.8006 83.2275 84.8871 82.9996 84.8871C82.7716 84.8871 82.5444 84.8006 82.3708 84.627L78.0617 80.3179L78.1341 80.8046C78.2065 81.29 77.8713 81.7425 77.3853 81.8142C76.8993 81.8866 76.4475 81.5514 76.3757 81.0654L75.9078 77.9167C75.8663 77.6385 75.9594 77.357 76.1585 77.1579C76.3576 76.9588 76.6392 76.8656 76.9174 76.9071L80.0667 77.3751C80.5521 77.4475 80.8873 77.8993 80.8155 78.3846C80.7431 78.8706 80.2906 79.2051 79.806 79.1334L79.3193 79.061L83.6284 83.3701ZM63.6107 86.3539C63.903 86.748 63.8205 87.3051 63.4264 87.5974C63.0322 87.8897 62.4751 87.8072 62.1828 87.413L61.8899 87.0175V93.1111C61.8899 93.6018 61.4917 94 61.001 94C60.5103 94 60.1121 93.6018 60.1121 93.1111V87.0169L59.8192 87.4124C59.5269 87.8065 58.9705 87.8897 58.5756 87.5967C58.1815 87.3044 58.0983 86.7474 58.3913 86.3532L60.2871 83.7958C60.4547 83.5699 60.7195 83.4365 61.001 83.4365C61.2826 83.4365 61.5474 83.5699 61.7149 83.7958L63.6107 86.3539ZM45.8421 77.1579C46.0412 77.357 46.1344 77.6385 46.0929 77.9167L45.6249 81.0654C45.5532 81.5507 45.0994 81.8866 44.6154 81.8142C44.13 81.7418 43.7949 81.29 43.8666 80.8046L43.939 80.3179L39.6299 84.627C39.4563 84.8006 39.229 84.8871 39.0011 84.8871C38.7732 84.8871 38.5459 84.8006 38.3723 84.627C38.0251 84.2798 38.0251 83.7173 38.3723 83.3701L42.6814 79.061L42.1947 79.1334C41.708 79.2058 41.2569 78.8706 41.1851 78.3846C41.1127 77.8993 41.4479 77.4468 41.9339 77.3751L45.0826 76.9071C45.3608 76.8656 45.643 76.9588 45.8415 77.1579H45.8421ZM39.2042 62.7136L36.6468 64.6094C36.4879 64.7274 36.3022 64.7843 36.1179 64.7843C35.8457 64.7843 35.5776 64.6603 35.4033 64.425C35.111 64.0309 35.1935 63.4738 35.5876 63.1815L35.9831 62.8886H29.8889C29.3982 62.8886 29 62.4904 29 61.9997C29 61.509 29.3982 61.1108 29.8889 61.1108H35.9825L35.587 60.8178C35.1928 60.5255 35.1097 59.9685 35.4026 59.5743C35.6949 59.1801 36.2513 59.097 36.6461 59.3899L39.2036 61.2857C39.4295 61.4533 39.5629 61.7181 39.5629 61.9997C39.5629 62.2812 39.4301 62.546 39.2042 62.7136ZM38.373 40.6292C38.0257 40.282 38.0257 39.7196 38.373 39.3723C38.7202 39.0251 39.2827 39.0251 39.6299 39.3723L43.939 43.6814L43.8666 43.1947C43.7942 42.7094 44.1294 42.2569 44.6154 42.1851C45.1021 42.1134 45.5532 42.4486 45.6249 42.9339L46.0929 46.0826C46.1344 46.3608 46.0412 46.6424 45.8421 46.8415C45.6746 47.0091 45.4473 47.1016 45.2133 47.1016C45.1698 47.1016 45.1262 47.0982 45.0826 47.0922L41.9339 46.6243C41.4486 46.5519 41.1134 46.1 41.1851 45.6147C41.2569 45.1287 41.7094 44.7928 42.1947 44.8659L42.6814 44.9383L38.373 40.6292Z" fill="white"/>
<defs>
<linearGradient id="paint0_linear_1972_9" x1="241.358" y1="63.1622" x2="51.2435" y2="152.889" gradientUnits="userSpaceOnUse">
<stop stop-color="#04BFD7"/>
<stop offset="1" stop-color="#63388B"/>
</linearGradient>
</defs>
</svg>
