<svg width="118" height="96" viewBox="0 0 118 96" fill="none" xmlns="http://www.w3.org/2000/svg">
<path d="M57.3111 91.2383C57.1838 91.2442 57.0577 91.2108 56.9501 91.1426C56.8424 91.0744 56.7583 90.9748 56.7091 90.8572C56.6599 90.7396 56.6481 90.6098 56.6752 90.4853C56.7023 90.3607 56.767 90.2475 56.8606 90.161C56.8763 90.0987 56.8875 90.054 56.9032 89.9917C56.7814 89.6822 56.5699 89.4162 56.2959 89.2276C56.0218 89.0391 55.6977 88.9367 55.3651 88.9336C55.0325 88.9304 54.7066 89.0267 54.429 89.21C54.1515 89.3933 53.935 89.6554 53.8074 89.9625C53.0708 91.6868 52.1174 93.4717 52.5915 95.3709C49.4597 88.7334 50.5247 80.477 55.1531 74.8007C56.4325 74.096 57.4694 72.8439 57.7394 71.39C57.1062 71.6046 56.3168 71.0896 56.7928 70.4226C56.9992 70.1677 57.2075 69.9148 57.4139 69.6599C55.0087 67.0985 52.143 71.1242 54.7904 74.5813C53.9244 75.6671 53.1742 76.8405 52.5522 78.0823C52.6958 76.7637 52.5244 75.4298 52.0519 74.1904C51.5731 73.0353 50.6757 72.0625 49.8853 71.0639C48.9244 69.8472 46.9467 70.4085 46.8174 71.9526C47.7042 72.2441 47.8194 73.525 46.805 73.7004C47.0707 76.5728 48.9473 79.2125 51.5319 80.4722C50.5774 83.1502 50.2047 86.0009 50.4386 88.8343C49.9824 85.5229 46.4278 84.7194 43.9434 83.4032C43.7852 83.3018 43.601 83.2486 43.4132 83.2501C43.2253 83.2516 43.042 83.3078 42.8855 83.4117C42.729 83.5156 42.6062 83.6629 42.5319 83.8354C42.4577 84.008 42.4353 84.1984 42.4674 84.3835C42.8103 84.5229 43.1385 84.6961 43.4472 84.9004C43.5918 84.9976 43.7029 85.1372 43.765 85.3001C43.8272 85.4629 43.8375 85.6409 43.7946 85.8099C43.7516 85.9788 43.6574 86.1302 43.5249 86.2435C43.3925 86.3568 43.2282 86.4264 43.0547 86.4426C44.307 89.5421 47.5448 91.6234 50.8702 91.6117C51.1898 93.0004 51.6528 94.3521 52.2519 95.6451H57.1874C57.2051 95.5902 57.221 95.5336 57.2369 95.4788C56.7801 95.5075 56.3214 95.4802 55.8712 95.3974C57.0799 93.9663 58.0147 93.2362 57.3112 91.2384L57.3111 91.2383Z" fill="#F2F2F2"/>
<path d="M83.299 2.77836H40.6743C40.3059 2.77836 39.9526 2.632 39.692 2.37148C39.4315 2.11096 39.2852 1.75762 39.2852 1.38918C39.2852 1.02075 39.4315 0.667404 39.692 0.406882C39.9526 0.146359 40.3059 0 40.6743 0H83.299C83.6675 0 84.0208 0.146359 84.2813 0.406882C84.5418 0.667404 84.6882 1.02075 84.6882 1.38918C84.6882 1.75762 84.5418 2.11096 84.2813 2.37148C84.0208 2.632 83.6675 2.77836 83.299 2.77836Z" fill="#E6E6E6"/>
<path d="M83.299 10.1748H40.6743C40.3059 10.1748 39.9526 10.0285 39.692 9.76797C39.4315 9.50744 39.2852 9.1541 39.2852 8.78567C39.2852 8.41723 39.4315 8.06389 39.692 7.80337C39.9526 7.54284 40.3059 7.39648 40.6743 7.39648H83.299C83.6675 7.39648 84.0208 7.54284 84.2813 7.80337C84.5418 8.06389 84.6882 8.41723 84.6882 8.78567C84.6882 9.1541 84.5418 9.50744 84.2813 9.76797C84.0208 10.0285 83.6675 10.1748 83.299 10.1748Z" fill="#E6E6E6"/>
<path d="M85.1594 54.8614L66.5784 55.3411C66.1909 55.3506 65.8154 55.2061 65.5343 54.9391C65.2532 54.6722 65.0895 54.3046 65.079 53.9171L64.8403 44.669C64.8307 44.2814 64.9753 43.9059 65.2422 43.6248C65.5092 43.3437 65.8767 43.18 66.2642 43.1695L84.8452 42.6899C85.2328 42.6803 85.6083 42.8249 85.8894 43.0918C86.1705 43.3588 86.3342 43.7263 86.3447 44.1139L86.5834 53.362C86.593 53.7495 86.4484 54.125 86.1815 54.4061C85.9145 54.6872 85.547 54.851 85.1594 54.8614Z" fill="white"/>
<path d="M85.164 55.0335L66.583 55.5132C66.1499 55.5239 65.7302 55.3623 65.416 55.0639C65.1019 54.7656 64.9189 54.3548 64.9072 53.9217L64.6685 44.6735C64.6578 44.2404 64.8193 43.8207 65.1177 43.5066C65.416 43.1924 65.8268 43.0094 66.2599 42.9977L84.8409 42.5181C85.2741 42.5074 85.6938 42.6689 86.0079 42.9673C86.3221 43.2657 86.5051 43.6765 86.5168 44.1096L86.7555 53.3577C86.7662 53.7908 86.6046 54.2105 86.3063 54.5247C86.0079 54.8389 85.5971 55.0218 85.164 55.0335ZM66.2688 43.3417C65.9269 43.3509 65.6026 43.4953 65.367 43.7433C65.1315 43.9914 65.0039 44.3227 65.0124 44.6647L65.2511 53.9128C65.2603 54.2547 65.4048 54.5791 65.6528 54.8146C65.9008 55.0502 66.2322 55.1777 66.5741 55.1692L85.1551 54.6896C85.4971 54.6804 85.8214 54.5359 86.0569 54.2879C86.2925 54.0399 86.42 53.7085 86.4116 53.3666L86.1728 44.1184C86.1636 43.7765 86.0192 43.4522 85.7711 43.2166C85.5231 42.9811 85.1918 42.8536 84.8498 42.862L66.2688 43.3417Z" fill="#CCCCCC"/>
<path d="M73.7984 52.3596C73.6929 52.362 73.5885 52.3377 73.4949 52.2888C73.3949 52.2382 73.3106 52.1612 73.251 52.0662C73.1914 51.9712 73.1589 51.8618 73.1569 51.7496L73.0236 46.5884C73.0208 46.4765 73.048 46.3658 73.1025 46.268C73.157 46.1702 73.2367 46.0889 73.3334 46.0325C73.4301 45.976 73.5402 45.9466 73.6521 45.9473C73.7641 45.9479 73.8738 45.9787 73.9698 46.0362L78.9324 48.4905C79.0226 48.5446 79.0978 48.6206 79.1508 48.7115C79.2038 48.8024 79.233 48.9052 79.2358 49.0104C79.2385 49.1156 79.2146 49.2197 79.1663 49.3132C79.118 49.4067 79.047 49.4865 78.9596 49.5452L74.1303 52.2522C74.0321 52.3189 73.917 52.3562 73.7984 52.3596Z" fill="#63388B"/>
<path d="M61.9834 33.2012C66.4486 33.2012 70.0684 29.5814 70.0684 25.1162C70.0684 20.651 66.4486 17.0312 61.9834 17.0312C57.5182 17.0312 53.8984 20.651 53.8984 25.1162C53.8984 29.5814 57.5182 33.2012 61.9834 33.2012Z" fill="#63388B"/>
<path d="M61.9847 29.4662C61.8934 29.4662 61.8059 29.43 61.7414 29.3654C61.6769 29.3009 61.6406 29.2134 61.6406 29.1222V21.1604C61.6406 21.0692 61.6769 20.9817 61.7414 20.9172C61.8059 20.8527 61.8934 20.8164 61.9847 20.8164C62.0759 20.8164 62.1634 20.8527 62.2279 20.9172C62.2925 20.9817 62.3287 21.0692 62.3287 21.1604V29.1222C62.3287 29.2134 62.2925 29.3009 62.2279 29.3654C62.1634 29.43 62.0759 29.4662 61.9847 29.4662Z" fill="white"/>
<path d="M65.9659 25.485H58.0042C57.913 25.485 57.8254 25.4487 57.7609 25.3842C57.6964 25.3197 57.6602 25.2322 57.6602 25.1409C57.6602 25.0497 57.6964 24.9622 57.7609 24.8976C57.8254 24.8331 57.913 24.7969 58.0042 24.7969H65.9659C66.0571 24.7969 66.1446 24.8331 66.2091 24.8976C66.2737 24.9622 66.3099 25.0497 66.3099 25.1409C66.3099 25.2322 66.2737 25.3197 66.2091 25.3842C66.1446 25.4487 66.0571 25.485 65.9659 25.485Z" fill="white"/>
<path d="M32.2265 51.2631H18.4648V35.7812H32.2265C30.7235 37.802 31.4672 44.5163 32.2265 51.2631Z" fill="#FFB6B6"/>
<path d="M32.3052 90.7678H34.7823L35.9608 81.2129L32.3047 81.2131L32.3052 90.7678Z" fill="#FFB6B6"/>
<path d="M35.6051 90.9918V89.3125L34.9539 89.3523L32.303 89.5093L31.6895 89.547L31.2204 95.1713L31.1953 95.4729H32.9542L33.0108 95.1734L33.2662 93.8124L33.9258 95.1734L34.0703 95.4729H38.7335C39.011 95.4711 39.2766 95.3599 39.4726 95.1635C39.6686 94.9671 39.7792 94.7013 39.7804 94.4238C39.9773 93.5045 36.0993 91.5174 35.6051 90.9918Z" fill="#2F2E41"/>
<path d="M3.28516 88.0722L5.43971 89.2946L11.1799 81.5659L8.00006 79.7617L3.28516 88.0722Z" fill="#FFB6B6"/>
<path d="M6.04728 89.894L6.87438 88.4345L6.29227 88.1477L3.90728 86.9772L3.35448 86.705L0.638661 90.6813L0 91.6152L0.722409 92.0256L1.52858 92.4842L2.6216 91.1943L2.50015 93.0349L6.30901 95.1979H6.31111L6.55611 95.3361C6.79801 95.4728 7.08426 95.5079 7.35201 95.4337C7.61975 95.3595 7.84711 95.1821 7.98416 94.9404C8.60816 94.2368 6.21688 90.5976 6.04728 89.894Z" fill="#2F2E41"/>
<path d="M17.9482 43.866C14.6288 46.0656 13.407 67.1988 14.2694 66.8538L6.44531 81.4351L17.5817 86.4271L24.9041 61.0021L26.1245 70.3585L24.4973 85.2067L31.6957 86.9475L36.6746 86.5918C35.3809 68.8931 34.2149 50.2264 31.5379 43.0059L17.9482 43.866Z" fill="#3F3F3F"/>
<path d="M28.2621 18.7786C28.2621 18.7786 24.5768 18.3019 23.4541 18.7511C23.0546 18.9109 22.6551 20.3782 21.9059 20.8153C20.5494 21.6066 19.4425 21.4733 19.4425 21.4733C19.9723 28.2197 19.9435 33.4532 16.7735 43.2259C16.7706 43.4732 16.8312 43.7171 16.9495 43.9343C17.0678 44.1515 17.2399 44.3347 17.4493 44.4663C17.6586 44.5979 17.8983 44.6736 18.1453 44.686C18.3923 44.6985 18.6384 44.6473 18.86 44.5374L31.883 43.522L33.4269 35.3959L34.3881 33.3668C35.0581 31.9523 35.05 30.3102 34.366 28.9024L32.8295 25.7399L32.605 22.5961L29.3027 20.9873L28.2621 18.7786Z" fill="white"/>
<path fill-rule="evenodd" clip-rule="evenodd" d="M19.456 21.6473C19.4516 21.5894 19.447 21.5314 19.4425 21.4733C19.4425 21.4733 19.504 21.4807 19.6157 21.4817C19.9781 21.4848 20.8691 21.4202 21.9059 20.8153C22.3263 20.57 22.6366 20.0002 22.8986 19.5192C23.1035 19.143 23.2788 18.8212 23.4541 18.7511C24.5768 18.3019 28.2621 18.7786 28.2621 18.7786L29.3027 20.9873L32.605 22.5961L32.8295 25.7399L34.366 28.9024C35.05 30.3102 35.0581 31.9523 34.3881 33.3668L33.4269 35.3959L31.883 43.522L18.86 44.5374C18.6384 44.6473 18.3923 44.6985 18.1453 44.686C17.8983 44.6736 17.6586 44.5979 17.4493 44.4663C17.2399 44.3347 17.0678 44.1515 16.9495 43.9343C16.8312 43.7171 16.7706 43.4732 16.7735 43.2259C19.9162 33.5374 19.9716 28.3102 19.456 21.6473ZM19.6291 21.6538C20.1439 28.3195 20.085 33.5656 16.9455 43.2533C16.9472 43.4624 17.0003 43.6681 17.1005 43.852C17.2048 44.0433 17.3564 44.2047 17.5408 44.3206C17.7253 44.4366 17.9364 44.5032 18.154 44.5142C18.3716 44.5252 18.5884 44.4801 18.7835 44.3833L18.8134 44.3685L31.7386 43.3607L33.262 35.3422L34.2326 33.2931C34.8803 31.9258 34.8725 30.3384 34.2113 28.9776L32.6603 25.7852L32.4404 22.7073L29.1729 21.1154L28.1469 18.9377C28.1278 18.9353 28.1059 18.9327 28.0814 18.9298C27.9791 18.9178 27.8316 18.901 27.651 18.8822C27.2896 18.8447 26.7965 18.7994 26.2689 18.7681C25.7408 18.7368 25.181 18.7196 24.6853 18.7378C24.1835 18.7562 23.7688 18.8104 23.5179 18.9108C23.5031 18.9167 23.4742 18.9353 23.4314 18.9828C23.3901 19.0287 23.3447 19.0917 23.2944 19.1714C23.2181 19.2923 23.1393 19.437 23.052 19.5973C23.0229 19.6507 22.9929 19.7058 22.9617 19.7623C22.8394 19.984 22.7022 20.2219 22.546 20.4331C22.3904 20.6435 22.2085 20.8379 21.9926 20.9639C21.2927 21.3722 20.6554 21.5429 20.1905 21.6112C19.9582 21.6454 19.769 21.6539 19.6364 21.6538C19.634 21.6538 19.6315 21.6538 19.6291 21.6538Z" fill="#3F3F3F"/>
<path d="M29.8862 17.2879L29.8902 17.2883C30.1021 17.3066 30.3125 17.24 30.4753 17.1031C30.638 16.9662 30.7397 16.7703 30.758 16.5584L31.1459 12.1005C31.2162 11.3018 31.1251 10.4972 30.8782 9.73451C30.3942 8.24589 29.3545 7.00144 27.9756 6.26052C27.2637 5.87896 26.4818 5.64552 25.6772 5.57424C22.3855 5.28265 21.1879 5.97577 19.1891 11.0065C17.1903 16.0372 18.8007 15.4712 18.8007 15.4712C18.7912 15.5787 18.8035 15.6869 18.8367 15.7895C18.902 15.9897 19.0421 16.1569 19.2278 16.2562C19.323 16.307 19.4275 16.3382 19.5351 16.3478C23.4307 17.3106 27.3618 18.3251 29.8869 17.288L29.8862 17.2879Z" fill="#3F3F3F"/>
<path d="M22.5995 9.81641C22.1161 10.542 21.8585 11.3945 21.8594 12.2663C21.8602 13.1382 22.1194 13.9902 22.6042 14.7148C23.089 15.4394 23.7776 16.0041 24.5832 16.3376C25.3887 16.6711 26.275 16.7584 27.1301 16.5884C27.6962 16.4778 28.2347 16.2559 28.7144 15.9356C29.1941 15.6154 29.6054 15.2031 29.9247 14.7227C30.4071 13.9974 30.6639 13.1456 30.6628 12.2745C30.6617 11.4034 30.4027 10.5522 29.9185 9.82812C29.4343 9.10404 28.7465 8.53953 27.9419 8.20578C27.1373 7.87202 26.2519 7.78396 25.3974 7.95269C24.8309 8.06271 24.2918 8.28412 23.8115 8.60408C23.3312 8.92404 22.9193 9.33601 22.5995 9.81641Z" fill="#FFB6B6"/>
<path d="M32.5297 12.5856C32.5852 11.9539 32.5132 11.3176 32.3179 10.7144C32.2638 9.23591 31.8259 7.89936 30.0226 7.96755C29.4631 7.66796 28.849 7.48397 28.2169 7.42654L27.3251 7.34445C27.3151 7.34352 27.305 7.34262 27.295 7.34175C26.0472 7.23396 24.8076 7.62629 23.849 8.43244C22.8904 9.23859 22.2913 10.3925 22.1835 11.6404L22.1758 11.7297L24.0627 11.9015L24.8627 10.1594L24.8347 11.9722L25.8092 12.0613L26.2127 11.1824L26.1988 12.0964C27.6532 13.3603 29.8464 13.4125 32.5211 12.675L32.5297 12.5856Z" fill="#3F3F3F"/>
<path d="M26.5266 16.8542C26.5436 17.0009 26.5191 17.1494 26.4559 17.2828C26.4241 17.3512 26.3828 17.4147 26.3333 17.4716C26.291 17.5201 26.2431 17.5634 26.1906 17.6006C26.0351 17.7104 25.8456 17.7612 25.656 17.7439C25.6442 17.7427 25.6324 17.7414 25.6207 17.7398C25.6089 17.7382 25.5971 17.7363 25.5854 17.7342C25.5736 17.7322 25.5618 17.7298 25.5502 17.7271C25.5385 17.7245 25.5268 17.7215 25.515 17.7184L24.8557 17.5384L24.1045 15.4867L23.9474 17.2924L20.9492 16.4791L21.6159 8.81641L26.7199 9.28516L26.5809 9.42079C26.1191 9.87627 25.7919 10.4503 25.6354 11.0798C25.4801 11.7176 25.4352 12.3774 25.5027 13.0303C25.5662 13.6907 25.6928 14.3433 25.881 14.9794C26.0449 15.5427 26.241 16.0961 26.4686 16.6368C26.498 16.7062 26.5175 16.7794 26.5266 16.8542Z" fill="#3F3F3F"/>
<path d="M17.8193 69.2103L14.0702 46.6648C13.9949 46.2084 14.1036 45.7407 14.3726 45.3644C14.6416 44.9881 15.0489 44.7338 15.5052 44.6574L32.5321 41.8261C32.9885 41.7507 33.4561 41.8595 33.8325 42.1285C34.2088 42.3975 34.463 42.8048 34.5394 43.261L38.2884 65.8066C38.3638 66.263 38.2551 66.7306 37.986 67.107C37.717 67.4833 37.3097 67.7375 36.8535 67.8139L19.8266 70.6453C19.3702 70.7206 18.9025 70.6119 18.5262 70.3429C18.1499 70.0739 17.8957 69.6666 17.8193 69.2103Z" fill="#E6E6E6"/>
<path d="M17.9946 62.183L15.5844 47.6886C15.5138 47.2612 15.6156 46.8232 15.8676 46.4708C16.1195 46.1183 16.501 45.8802 16.9282 45.8087L31.5614 43.3754C31.9889 43.3048 32.4269 43.4066 32.7793 43.6586C33.1318 43.9105 33.3699 44.292 33.4415 44.7192L36.7776 64.7817C36.8482 65.2092 36.7463 65.6472 36.4943 65.9996C36.2424 66.352 35.8609 66.5901 35.4336 66.6617L26.3687 68.1691C24.4647 68.4835 22.5138 68.0298 20.9439 66.9076C19.3739 65.7854 18.3133 64.0862 17.9946 62.183Z" fill="white"/>
<path d="M18.6268 51.3394C18.5579 50.9217 18.6574 50.4937 18.9036 50.1493C19.1498 49.8049 19.5225 49.5722 19.9401 49.5023L30.0911 47.8143C30.5086 47.7453 30.9365 47.8449 31.2807 48.0912C31.6249 48.3375 31.8572 48.7103 31.9266 49.1278C31.996 49.5453 31.8969 49.9733 31.6509 50.3177C31.405 50.6621 31.0324 50.8948 30.6149 50.9647L20.4639 52.6526C20.0462 52.7216 19.6182 52.6221 19.2738 52.3759C18.9294 52.1297 18.6967 51.757 18.6268 51.3394Z" fill="#63388B"/>
<path d="M19.4393 56.2398C19.3704 55.8221 19.4699 55.3941 19.7161 55.0497C19.9623 54.7053 20.335 54.4726 20.7526 54.4027L30.9036 52.7148C31.3212 52.6457 31.7491 52.7453 32.0933 52.9916C32.4375 53.2378 32.6698 53.6107 32.7393 54.0282C32.8087 54.4457 32.7095 54.8737 32.4635 55.2182C32.2175 55.5626 31.8449 55.7953 31.4274 55.8651L21.2764 57.5531C20.8587 57.622 20.4307 57.5225 20.0863 57.2763C19.7419 57.0301 19.5092 56.6574 19.4393 56.2398Z" fill="#63388B"/>
<path d="M20.2557 61.14C20.1868 60.7223 20.2863 60.2943 20.5325 59.9498C20.7787 59.6054 21.1514 59.3728 21.569 59.3029L31.72 57.6149C32.1375 57.5459 32.5654 57.6455 32.9096 57.8917C33.2538 58.138 33.4861 58.5109 33.5555 58.9284C33.6249 59.3459 33.5258 59.7738 33.2798 60.1182C33.0339 60.4627 32.6613 60.6954 32.2438 60.7652L22.0928 62.4532C21.6751 62.5222 21.2471 62.4226 20.9027 62.1765C20.5583 61.9303 20.3256 61.5575 20.2557 61.14Z" fill="#63388B"/>
<path d="M15.7962 49.0169C15.9777 48.8269 16.1158 48.5996 16.2009 48.351C16.286 48.1023 16.316 47.8381 16.289 47.5767C16.2619 47.3153 16.1784 47.0629 16.0442 46.8369C15.9099 46.611 15.7283 46.4169 15.5116 46.268L17.2985 37.4019L14.9677 36.3047L12.9224 46.8507C12.699 47.2339 12.6239 47.6858 12.7114 48.1207C12.7989 48.5556 13.0429 48.9433 13.3971 49.2103C13.7513 49.4773 14.1912 49.6051 14.6334 49.5695C15.0756 49.5338 15.4893 49.3372 15.7962 49.0169Z" fill="#FFB6B6"/>
<path d="M19.4971 21.5039C19.4971 21.5039 15.4 23.0457 15.1754 25.2913C14.9509 27.5369 14.4348 29.5384 14.6594 30.4366C14.8839 31.3349 13.8874 32.3556 14.3365 33.0293C14.7856 33.7029 13.7086 33.9245 14.1577 35.0473C14.6068 36.1701 14.8314 36.3946 14.6068 36.6192C14.3823 36.8437 13.6484 41.4583 13.6484 41.4583L16.838 42.1662L20.9995 32.7017L19.4971 21.5039Z" fill="white"/>
<path fill-rule="evenodd" clip-rule="evenodd" d="M19.3324 21.5697C19.4376 21.5263 19.4971 21.5039 19.4971 21.5039L20.9995 32.7017L16.838 42.1662L13.6484 41.4583C13.6484 41.4583 14.3823 36.8437 14.6068 36.6192C14.7688 36.4572 14.6971 36.2951 14.4758 35.7958C14.3904 35.603 14.2828 35.36 14.1577 35.0473C13.9182 34.4484 14.1128 34.1059 14.2785 33.8145C14.4234 33.5595 14.5461 33.3436 14.3365 33.0293C14.0992 32.6732 14.2656 32.2203 14.4421 31.7397C14.5996 31.3109 14.7653 30.8602 14.6594 30.4366C14.5169 29.8667 14.6726 28.8524 14.8628 27.6135C14.9724 26.9 15.0934 26.1119 15.1754 25.2913C15.3729 23.3165 18.5654 21.886 19.3324 21.5697ZM19.3561 21.7461C19.2476 21.7914 19.1003 21.8551 18.9258 21.936C18.5426 22.1135 18.0305 22.3729 17.5125 22.7009C16.9936 23.0293 16.4745 23.423 16.0731 23.8675C15.671 24.3127 15.3977 24.797 15.3466 25.3084C15.264 26.134 15.142 26.929 15.0322 27.6437C14.9921 27.9053 14.9536 28.1562 14.9192 28.3938C14.8549 28.8395 14.8053 29.2381 14.7854 29.5795C14.7654 29.9233 14.7765 30.196 14.8263 30.3949C14.8916 30.6562 14.8661 30.9186 14.8079 31.1654C14.7568 31.3823 14.6771 31.599 14.6035 31.7992C14.594 31.8252 14.5846 31.8508 14.5753 31.8762C14.4922 32.1038 14.4236 32.3056 14.3996 32.4886C14.3763 32.6672 14.3978 32.8111 14.4796 32.9339C14.6161 33.1385 14.6448 33.3268 14.6025 33.5097C14.5696 33.6516 14.4928 33.7862 14.4265 33.9022C14.4164 33.9199 14.4066 33.9372 14.3972 33.954C14.3206 34.0906 14.2548 34.2227 14.2291 34.3807C14.2039 34.5355 14.2154 34.7283 14.3174 34.9834C14.4286 35.2613 14.5259 35.4836 14.6063 35.6654C14.6155 35.6862 14.6245 35.7066 14.6333 35.7265C14.7006 35.8785 14.7568 36.0051 14.796 36.1097C14.8394 36.2255 14.8717 36.3378 14.8663 36.4453C14.8605 36.5618 14.8122 36.6539 14.7369 36.7322C14.7369 36.7322 14.737 36.7321 14.7369 36.7322C14.733 36.7397 14.7272 36.7526 14.7197 36.7722C14.7047 36.8112 14.6869 36.8666 14.6668 36.9382C14.6266 37.0808 14.5804 37.2755 14.5305 37.5064C14.4308 37.9675 14.3184 38.563 14.2128 39.1532C14.1072 39.7431 14.0085 40.3262 13.9363 40.7619C13.9002 40.9797 13.8707 41.1606 13.8502 41.2871C13.848 41.3005 13.846 41.3133 13.844 41.3255L16.7374 41.9677L20.8226 32.6767L19.3561 21.7461Z" fill="#3F3F3F"/>
<path d="M34.3773 49.0169C34.1958 48.8269 34.0577 48.5996 33.9726 48.351C33.8875 48.1023 33.8575 47.8381 33.8846 47.5767C33.9116 47.3153 33.9951 47.0629 34.1294 46.8369C34.2636 46.611 34.4452 46.4169 34.6619 46.268L32.875 37.4019L35.2059 36.3047L37.2511 46.8507C37.4745 47.2339 37.5496 47.6858 37.4621 48.1207C37.3746 48.5556 37.1306 48.9433 36.7764 49.2103C36.4222 49.4773 35.9823 49.6051 35.5401 49.5695C35.0979 49.5338 34.6842 49.3372 34.3773 49.0169Z" fill="#FFB6B6"/>
<path d="M31.707 22.3711C32.1335 22.3949 32.5458 22.5324 32.9012 22.7693C33.2566 23.0062 33.5421 23.3339 33.7281 23.7184C34.4017 25.0658 36.9245 33.5588 36.6999 34.2325C36.4754 34.9061 37.493 37.0817 37.0439 37.5309C36.5948 37.98 36.1839 40.5972 36.1839 40.5972L32.9112 41.3483L31.8553 31.3534L31.707 22.3711Z" fill="white"/>
<path fill-rule="evenodd" clip-rule="evenodd" d="M36.1839 40.5972C36.1839 40.5972 36.5948 37.98 37.0439 37.5309C37.2883 37.2864 37.0982 36.5304 36.9104 35.7836C36.7532 35.1583 36.5976 34.5394 36.6999 34.2325C36.9245 33.5588 34.4017 25.0658 33.7281 23.7184C33.5421 23.3339 33.2566 23.0062 32.9012 22.7693C32.5939 22.5645 32.2441 22.4339 31.8793 22.387C31.8222 22.3796 31.7648 22.3743 31.707 22.3711L31.8553 31.3534L32.9112 41.3483L36.1839 40.5972ZM33.0618 41.1373L36.0328 40.4554C36.045 40.3823 36.0629 40.2777 36.0858 40.1507C36.1316 39.8968 36.1975 39.5532 36.2776 39.1949C36.3575 38.8373 36.4524 38.4619 36.5567 38.1456C36.6087 37.9876 36.6642 37.8412 36.7225 37.718C36.7794 37.5978 36.845 37.4864 36.9222 37.4092C36.9422 37.3893 36.966 37.3471 36.9787 37.2623C36.9913 37.1786 36.9906 37.0702 36.9769 36.9385C36.9496 36.6746 36.8746 36.3507 36.7892 36.0074C36.7744 35.9479 36.7593 35.8878 36.7441 35.8275C36.6731 35.5452 36.6008 35.2577 36.553 35.0003C36.5238 34.8435 36.5027 34.6927 36.4968 34.5567C36.4909 34.4227 36.4991 34.291 36.5367 34.1781C36.5367 34.1781 36.5367 34.1781 36.5367 34.1781C36.537 34.1771 36.5399 34.1657 36.5413 34.1383C36.5426 34.111 36.5422 34.0748 36.5393 34.029C36.5335 33.9375 36.5185 33.8172 36.4946 33.6702C36.4467 33.3767 36.365 32.9889 36.2576 32.5345C36.0431 31.6263 35.7286 30.4624 35.3856 29.2758C35.0426 28.0896 34.6718 26.8826 34.3448 25.8887C34.0161 24.8896 33.7359 24.1188 33.5742 23.7954L33.5732 23.7933C33.4006 23.4365 33.1356 23.1323 32.8058 22.9124C32.5276 22.727 32.2118 22.6071 31.8822 22.5609L32.0272 31.3429L33.0618 41.1373Z" fill="#3F3F3F"/>
<path d="M109.025 53.1279C108.96 52.9084 108.944 52.6775 108.978 52.4512C109.012 52.2249 109.095 52.0088 109.222 51.8181C109.348 51.6275 109.515 51.4668 109.711 51.3476C109.906 51.2284 110.125 51.1534 110.352 51.128L111.581 45.7031L113.583 47.788L112.109 52.62C112.127 53.0048 112.002 53.3827 111.76 53.6819C111.517 53.9812 111.173 54.1811 110.793 54.2437C110.413 54.3063 110.023 54.2273 109.697 54.0216C109.371 53.816 109.132 53.498 109.025 53.1279Z" fill="#A0616A"/>
<path d="M111.976 19.707L112.075 20.1733L117.203 35.8618L113.753 49.8424L110.93 48.5222L111.596 36.127C106.528 29.3612 105.038 26.9123 105.48 19.8705L111.976 19.707Z" fill="white"/>
<path fill-rule="evenodd" clip-rule="evenodd" d="M112.075 20.1733L111.976 19.707L105.48 19.8705C105.038 26.9123 106.528 29.3612 111.596 36.127L110.93 48.5222L113.753 49.8424L117.203 35.8618L112.075 20.1733ZM117.024 35.8684L111.908 20.2179L111.838 19.8826L105.642 20.0385C105.439 23.4582 105.708 25.7665 106.631 28.0375C107.572 30.3515 109.197 32.6376 111.733 36.0238L111.771 36.0738L111.108 48.4156L113.637 49.5979L117.024 35.8684Z" fill="#3F3F3F"/>
<path d="M107.606 93.1548L105.083 93.1547L103.883 83.4238L107.606 83.4242L107.606 93.1548Z" fill="#A0616A"/>
<path d="M107.695 95.7867L99.9375 95.7864V95.6883C99.9376 94.8875 100.256 94.1195 100.822 93.5532C101.388 92.987 102.156 92.6688 102.957 92.6688H102.957L104.374 91.5938L107.018 92.669L107.695 92.669L107.695 95.7867Z" fill="#2F2E41"/>
<path d="M93.7424 93.1548L91.2197 93.1547L90.0195 83.4238L93.7429 83.4242L93.7424 93.1548Z" fill="#A0616A"/>
<path d="M93.832 95.7867L86.0742 95.7864V95.6883C86.0743 94.8875 86.3924 94.1195 86.9587 93.5532C87.5249 92.987 88.2929 92.6688 89.0938 92.6688H89.0939L90.511 91.5938L93.1549 92.669L93.8321 92.669L93.832 95.7867Z" fill="#2F2E41"/>
<path d="M110.675 48.5207C110.675 48.5207 111.67 50.8841 110.675 54.7402C109.679 58.5964 109.431 68.2988 109.431 68.2988L107.835 90.0863H103.616L103.46 74.394L101.345 57.4769L97.116 73.5232C97.116 73.5232 95.4989 85.4647 94.877 85.9622C94.255 86.4598 93.9717 89.9356 93.9717 89.9356C92.6933 90.1272 90.7487 89.6273 89.6016 89.0315C90.0743 88.8271 92.0783 49.1091 92.1404 48.5207C92.3832 46.2197 110.675 48.5207 110.675 48.5207Z" fill="#3F3F3F"/>
<path d="M76.1061 44.3424C76.3342 44.3613 76.5636 44.33 76.7782 44.2507C76.9929 44.1713 77.1875 44.0459 77.3484 43.8832C77.5093 43.7205 77.6326 43.5245 77.7095 43.309C77.7865 43.0935 77.8153 42.8638 77.7938 42.636L82.8548 40.3283L80.4059 38.793L75.9753 41.2197C75.595 41.2811 75.2504 41.4798 75.0068 41.7783C74.7632 42.0768 74.6376 42.4542 74.6537 42.8391C74.6698 43.2241 74.8266 43.5897 75.0943 43.8668C75.362 44.1438 75.722 44.3131 76.1061 44.3424Z" fill="#A0616A"/>
<path d="M95.8102 25.0968L97.5286 25.7609L92.7132 35.3373L80.1018 42.2879L79.1562 39.318L88.7142 31.3977C92.0574 21.6715 94.0662 17.3258 96.4788 17.3854L95.8102 25.0968Z" fill="white"/>
<path fill-rule="evenodd" clip-rule="evenodd" d="M95.6277 25.2107L96.2908 17.5622C95.809 17.6001 95.3313 17.8364 94.8364 18.3066C94.2761 18.8391 93.7046 19.662 93.0973 20.8027C91.8829 23.0838 90.5489 26.5894 88.8769 31.4536L88.8612 31.4993L79.3554 39.3764L80.2022 42.0362L92.5835 35.2124L97.2898 25.853L95.6277 25.2107ZM97.5286 25.7609L92.7132 35.3373L80.1018 42.2879L79.1562 39.318L88.7142 31.3977C91.9772 21.9049 93.9691 17.5374 96.3058 17.3887C96.3632 17.385 96.4209 17.3839 96.4788 17.3854L95.8102 25.0968L97.5286 25.7609Z" fill="#3F3F3F"/>
<path d="M94.2761 19.5997C94.495 18.8195 94.9747 18.138 95.6352 17.6687C96.2958 17.1994 97.0973 16.9707 97.906 17.0208C97.9189 17.0217 97.9317 17.0226 97.9445 17.0236C99.0191 17.1052 100.394 14.498 101.819 14.6089C102.821 14.687 103.847 14.7678 104.81 14.8453C105.669 14.9143 106.477 17.6932 107.172 17.7524C108.486 17.8642 108.796 17.9506 108.89 17.9819C109.263 18.1063 110.699 18.2046 111.603 19.2594C112.008 19.7316 113.617 24.2014 112.622 28.9283C111.627 33.6551 110.488 39.7782 110.488 39.7782C110.488 39.7782 111.483 42.7356 110.986 43.9795C110.488 45.2234 111.483 46.0942 111.483 46.5917C111.483 47.0893 111.235 49.5771 111.235 49.5771C111.235 49.5771 93.5147 51.4578 91.954 49.5771C91.9028 49.5154 94.024 39.2053 93.1458 30.917C92.6637 26.3671 93.5622 22.1049 94.2761 19.5997Z" fill="white"/>
<path fill-rule="evenodd" clip-rule="evenodd" d="M94.4417 19.6462L94.4415 19.6469C93.7306 22.1417 92.8381 26.3799 93.3169 30.8989C93.7579 35.0616 93.4456 39.7258 93.031 43.3516C92.8235 45.1656 92.5902 46.7218 92.412 47.8283C92.3344 48.31 92.2672 48.7066 92.2173 49.0016C92.2099 49.0454 92.2028 49.0869 92.1962 49.1262C92.1704 49.2785 92.1509 49.3952 92.1386 49.4747C92.1363 49.49 92.1342 49.5036 92.1325 49.5156C92.2094 49.5868 92.3273 49.659 92.4937 49.7282C92.6954 49.8119 92.954 49.8854 93.2648 49.9485C93.8861 50.0745 94.6963 50.1548 95.6331 50.1987C97.5053 50.2864 99.86 50.228 102.171 50.1106C104.481 49.9932 106.742 49.817 108.426 49.6702C109.269 49.5968 109.966 49.5307 110.453 49.483C110.697 49.4592 110.888 49.4399 111.018 49.4266C111.039 49.4244 111.059 49.4224 111.077 49.4205C111.084 49.3543 111.092 49.267 111.102 49.164C111.126 48.9232 111.157 48.5971 111.188 48.2554C111.25 47.5668 111.311 46.8306 111.311 46.5917C111.311 46.5138 111.27 46.4011 111.182 46.2255C111.159 46.1803 111.134 46.1316 111.107 46.0799C111.038 45.9468 110.959 45.7943 110.89 45.6333C110.693 45.1748 110.554 44.5958 110.826 43.9156C110.937 43.6395 110.969 43.2513 110.946 42.8071C110.923 42.367 110.848 41.8902 110.755 41.4475C110.663 41.0054 110.555 40.6012 110.471 40.3073C110.428 40.1605 110.392 40.0415 110.366 39.9594C110.353 39.9183 110.343 39.8865 110.336 39.8651C110.332 39.8543 110.33 39.8462 110.328 39.8408L110.326 39.8348L110.326 39.8334L110.325 39.8331L110.311 39.7907L110.319 39.7467L110.488 39.7782C110.488 39.7782 111.483 42.7356 110.986 43.9795C110.648 44.8227 110.997 45.4944 111.257 45.9947C111.38 46.2324 111.483 46.4314 111.483 46.5917C111.483 47.0893 111.235 49.5771 111.235 49.5771C111.235 49.5771 93.5147 51.4578 91.954 49.5771C91.9468 49.5684 91.9829 49.3555 92.0477 48.9729C92.4419 46.645 93.9 38.0353 93.1458 30.917C92.6637 26.3671 93.5622 22.1049 94.2761 19.5997C94.495 18.8195 94.9747 18.138 95.6352 17.6687C96.2958 17.1994 97.0973 16.9707 97.906 17.0208C97.9189 17.0217 97.9317 17.0226 97.9445 17.0236L97.9315 17.1951C97.9193 17.1942 97.9071 17.1933 97.8948 17.1924C97.1255 17.1449 96.3632 17.3625 95.7349 17.8089C95.1064 18.2554 94.65 18.9039 94.4417 19.6462ZM108.89 17.9819C108.961 18.0053 109.068 18.0278 109.203 18.056C109.785 18.1772 110.869 18.4032 111.603 19.2594C112.008 19.7316 113.617 24.2014 112.622 28.9283C111.627 33.6551 110.488 39.7782 110.488 39.7782C110.319 39.7467 110.319 39.7468 110.319 39.7467L110.319 39.7465L110.332 39.6767C110.341 39.6307 110.354 39.5626 110.37 39.4742C110.403 39.2975 110.452 39.0397 110.513 38.7157C110.635 38.0676 110.809 37.1543 111.013 36.0932C111.422 33.9713 111.956 31.2577 112.454 28.8928C112.945 26.5573 112.794 24.2818 112.468 22.5298C112.306 21.6542 112.1 20.9117 111.91 20.3606C111.816 20.0849 111.725 19.8585 111.647 19.6881C111.567 19.5123 111.506 19.4104 111.472 19.3714C111.048 18.8764 110.496 18.6015 109.993 18.435C109.743 18.3519 109.507 18.2965 109.308 18.2539C109.264 18.2443 109.22 18.2352 109.178 18.2264C109.04 18.1976 108.917 18.172 108.836 18.1451C108.763 18.121 108.472 18.0356 107.158 17.9238C107.016 17.9117 106.893 17.8335 106.791 17.7408C106.686 17.6463 106.586 17.5205 106.489 17.3808C106.317 17.1321 106.14 16.8149 105.965 16.4999C105.944 16.4619 105.923 16.424 105.902 16.3863C105.703 16.0293 105.506 15.6845 105.307 15.4248C105.208 15.2953 105.113 15.1933 105.024 15.123C104.934 15.0525 104.859 15.0218 104.797 15.0168C103.834 14.9393 102.807 14.8585 101.805 14.7804C101.504 14.757 101.19 14.8763 100.858 15.0946C100.527 15.3125 100.198 15.6152 99.8694 15.9296C99.8237 15.9733 99.7779 16.0173 99.7321 16.0613C99.4539 16.3289 99.1753 16.5968 98.9074 16.8018C98.6005 17.0365 98.2682 17.2207 97.9315 17.1951L97.9445 17.0236C98.4438 17.0615 99.0079 16.519 99.6118 15.9384C100.308 15.2693 101.056 14.5495 101.819 14.6089C102.821 14.687 103.847 14.7678 104.81 14.8453C105.262 14.8817 105.7 15.6694 106.115 16.4158C106.488 17.0868 106.843 17.7243 107.172 17.7524C108.486 17.8642 108.796 17.9506 108.89 17.9819Z" fill="#3F3F3F"/>
<path d="M103.236 14.0686C106.064 14.0686 108.356 11.7766 108.356 8.94933C108.356 6.12205 106.064 3.83008 103.236 3.83008C100.409 3.83008 98.1172 6.12205 98.1172 8.94933C98.1172 11.7766 100.409 14.0686 103.236 14.0686Z" fill="#A0616A"/>
<path d="M99.7292 3.03854C100.096 3.02764 99.9701 2.33606 100.266 2.11545C100.267 2.12214 100.269 2.12882 100.27 2.13549C100.309 2.28487 100.395 2.41787 100.515 2.51489C100.635 2.61191 100.783 2.66783 100.937 2.6744C101.091 2.68098 101.243 2.63788 101.371 2.55143C101.499 2.46499 101.596 2.33977 101.647 2.19423C101.696 2.02587 101.785 1.87174 101.906 1.74481C102.027 1.61789 102.177 1.52187 102.342 1.46484C102.361 2.10585 102.846 2.66218 103.424 2.93904C104.002 3.21589 104.662 3.26197 105.303 3.27145C105.944 3.28092 106.595 3.25945 107.217 3.41637C107.838 3.57327 108.443 3.94218 108.709 4.52585C108.975 5.10951 108.785 5.91309 108.204 6.18473C108.654 6.18713 109.036 6.55847 109.192 6.98074C109.347 7.40301 109.323 7.86762 109.289 8.31633C109.163 9.97171 108.854 11.7539 107.649 12.8955C106.73 13.7656 105.415 14.1161 104.15 14.1111C102.885 14.106 103.107 13.9897 101.884 13.6668C101.884 13.6668 100.721 10.3324 101.014 10.0044C101.306 9.67636 101.55 9.25662 101.497 8.82008C101.444 8.38354 100.975 7.99249 100.567 8.15866C100.636 7.98366 100.687 7.95032 100.72 7.95921C100.699 7.90947 100.681 7.8587 100.666 7.80709C100.589 7.54408 100.451 7.30301 100.263 7.10371C100.075 6.9044 99.8429 6.75255 99.5848 6.66063C99.3242 6.57603 99.0438 6.57323 98.7815 6.65262C98.5192 6.732 98.2875 6.88976 98.1175 7.1047C96.7779 5.84834 97.609 3.1015 99.7292 3.03854Z" fill="#3F3F3F"/>
</svg>
