<svg width="123" height="123" viewBox="0 0 123 123" fill="none" xmlns="http://www.w3.org/2000/svg">
<circle cx="61.5" cy="61.5" r="61.5" fill="url(#paint0_linear_1972_6)"/>
<path d="M89.8214 61.7642C92.0506 60.2772 93.5376 57.7082 93.5376 54.8049C93.5376 50.2105 89.8214 46.4915 85.1593 46.4915C83.7402 46.4915 82.3891 46.8286 81.2392 47.4376C79.7521 44.7353 76.9819 42.9764 73.8717 42.9764C70.6964 42.9764 67.8582 44.7327 66.4394 47.5055C65.2895 46.8965 63.9384 46.4915 62.4514 46.4915C60.9643 46.4915 59.4773 46.8966 58.2621 47.6414C56.843 44.8032 53.9369 42.979 50.8298 42.979C47.7226 42.979 44.8816 44.8032 43.4623 47.5081C42.2471 46.8312 40.8934 46.4941 39.4063 46.4941C34.8119 46.4941 31.028 50.2104 31.028 54.8075C31.028 57.7137 32.515 60.2826 34.7443 61.7668C31.2972 63.4551 29 67.0381 29 71.0263V76.5667C29 77.5128 29.4051 78.7959 31.2972 79.8779C33.2573 81.0278 36.3646 81.5661 39.4066 81.5661C42.5139 81.5661 45.6239 81.0252 47.5842 79.8779C48.5303 79.3369 49.0713 78.728 49.4084 78.1217C49.8814 78.1217 50.3545 78.1896 50.7595 78.1896C51.3005 78.1896 51.9094 78.1896 52.4478 78.1217C52.7849 78.7306 53.3259 79.3369 54.2719 79.8779C56.164 80.9599 59.3394 81.5008 62.4496 81.5008C65.6249 81.5008 68.7348 80.9599 70.6948 79.8126C71.5729 79.2716 72.1139 78.6627 72.451 78.1243C72.924 78.1243 73.3291 78.1923 73.8021 78.1923C74.2751 78.1923 74.6802 78.1923 75.1532 78.1243C76.5043 80.6254 81.3026 81.5035 85.2229 81.5035C85.8318 81.5035 86.4381 81.5035 86.9791 81.4356C92.3183 81.0305 95.4939 79.2063 95.4939 76.5694V71.029C95.6324 66.9677 93.2673 63.4528 89.8228 61.7642L89.8214 61.7642ZM91.2404 54.8022C91.2404 58.1134 88.5381 60.8157 85.2269 60.8157C81.9158 60.8157 79.2788 58.1134 79.2788 54.8022C79.2788 51.4911 81.9811 48.8541 85.2269 48.8541C88.4676 48.8567 91.2404 51.4911 91.2404 54.8022ZM73.9399 45.2738C76.2371 45.2738 78.401 46.6929 79.347 48.8569C77.8599 50.3439 76.9139 52.5052 76.9139 54.8024C76.9139 55.4113 76.9819 55.9523 77.1178 56.4906C76.1717 57.0996 75.0218 57.3687 73.9425 57.3687C72.7925 57.3687 71.7132 57.0316 70.7671 56.4906C70.903 55.9496 70.971 55.3407 70.971 54.8024C70.971 52.5052 70.0249 50.4092 68.5379 48.9222C69.3428 46.7608 71.5747 45.2738 73.9399 45.2738ZM68.4647 54.8022C68.4647 58.1134 65.7624 60.8157 62.5166 60.8157C59.2733 60.8157 56.5031 58.1134 56.5031 54.8022C56.5031 51.4911 59.2054 48.8541 62.5166 48.8541C65.8304 48.8567 68.4647 51.4911 68.4647 54.8022ZM50.8945 45.2738C53.2597 45.2738 55.4889 46.8288 56.4349 49.058C55.0158 50.5451 54.1377 52.5731 54.1377 54.7344C54.1377 55.2754 54.2057 55.7484 54.2736 56.2894C53.2596 56.9662 52.1123 57.3713 50.8266 57.3713C49.7446 57.3713 48.5973 57.0342 47.5833 56.4253C47.7192 55.8843 47.7192 55.3433 47.7192 54.737C47.7192 52.4398 46.7731 50.4118 45.354 48.9248C46.368 46.7608 48.5294 45.2738 50.8945 45.2738ZM33.5257 54.8022C33.5257 51.4911 36.228 48.8541 39.5392 48.8541C42.8504 48.8541 45.5527 51.5564 45.5527 54.8022C45.5527 58.0455 42.8504 60.8157 39.5392 60.8157C36.2306 60.8183 33.5257 58.1134 33.5257 54.8022ZM47.5152 76.564C47.5152 76.969 47.1781 77.3741 46.5012 77.7792C43.3939 79.6034 35.7552 79.6034 32.5793 77.7792C31.837 77.3741 31.4973 76.9691 31.4973 76.496V70.9556C31.4973 66.8995 34.5393 63.5233 38.5249 63.0502C38.862 63.1182 39.2017 63.1182 39.5388 63.1182C39.876 63.1182 40.2157 63.1182 40.5528 63.0502C44.5409 63.5233 47.5804 66.9704 47.5804 70.9556L47.583 76.564H47.5152ZM52.1776 71.0209V75.6832C51.4354 75.7512 50.6226 75.7512 49.8804 75.6832V70.953C49.8804 67.3046 47.9883 63.9937 45.0142 62.1665C46.2974 60.8154 47.9204 59.8693 49.6766 59.5976C50.0817 59.6655 50.4867 59.6655 50.8918 59.6655C51.2969 59.6655 51.702 59.5976 52.1071 59.5976C53.9992 59.9347 55.6901 60.8128 56.9053 62.2319C54.0045 64.1972 52.1776 67.3724 52.1776 71.0209ZM70.4924 76.564C70.4924 76.969 70.1553 77.3741 69.5464 77.7792C66.439 79.6034 58.7347 79.6034 55.5568 77.7792C55.0838 77.51 54.5428 77.1023 54.5428 76.564V71.0235C54.5428 66.9675 57.5849 63.5912 61.5704 63.1182C61.9075 63.1862 62.2472 63.1862 62.5844 63.1862C62.9215 63.1862 63.2612 63.1862 63.5984 63.1182C67.5864 63.5912 70.6259 67.0384 70.6259 71.0235L70.6285 76.564H70.4924ZM74.8856 71.0209V75.7511H72.9255V71.0209C72.9255 67.3726 71.0334 64.0616 68.0594 62.2344C69.3426 60.8153 71.0334 59.9372 72.9255 59.6655C73.2627 59.7334 73.6024 59.7334 73.8716 59.7334C74.2767 59.7334 74.7497 59.6655 75.1548 59.6655C77.0469 59.9346 78.6699 60.8154 79.8172 62.1665C76.8457 63.9933 74.8856 67.3048 74.8856 71.0209ZM93.266 76.564C93.266 77.5779 91.1047 78.7932 86.9808 79.065C81.7775 79.4021 77.5882 78.1189 77.2483 76.6998V70.9556C77.2483 66.8995 80.2903 63.5233 84.2758 63.0502C84.613 63.1182 84.9527 63.1182 85.2898 63.1182C85.627 63.1182 85.9667 63.1182 86.3038 63.0502C90.2919 63.5233 93.3314 66.9704 93.3314 70.9556L93.334 76.564H93.266Z" fill="white"/>
<path d="M62.1781 87.2422C61.6371 87.2422 61.1641 87.7152 61.1641 88.2562V92.9865C61.1641 93.5274 61.6371 94.0005 62.1781 94.0005C62.719 94.0005 63.192 93.5274 63.192 92.9865V88.2562C63.192 87.7152 62.719 87.2422 62.1781 87.2422Z" fill="white"/>
<path d="M79.6851 86.3612C79.4159 85.8882 78.875 85.619 78.334 85.8882C77.793 86.1574 77.5918 86.6983 77.861 87.2393L79.889 91.5644C80.0928 91.9016 80.4299 92.1734 80.835 92.1734C80.9709 92.1734 81.1042 92.1734 81.2401 92.1054C81.7811 91.8363 81.9823 91.2953 81.7131 90.7543L79.6851 86.3612Z" fill="white"/>
<path d="M46.029 85.8217C45.488 85.5526 44.947 85.8217 44.6778 86.2948L42.6499 90.6199C42.3807 91.1609 42.6499 91.7019 43.1229 91.9711C43.2588 92.039 43.3921 92.039 43.528 92.039C43.9331 92.039 44.2702 91.8352 44.4741 91.4301L46.502 87.1049C46.7738 86.6998 46.5699 86.091 46.029 85.8217Z" fill="white"/>
<path d="M62.1781 36.7583C62.719 36.7583 63.192 36.2852 63.192 35.7443V31.014C63.192 30.473 62.719 30 62.1781 30C61.6371 30 61.1641 30.473 61.1641 31.014V35.7443C61.1667 36.2852 61.6397 36.7583 62.1781 36.7583Z" fill="white"/>
<path d="M44.6778 37.6376C44.8817 37.9747 45.2188 38.2465 45.6239 38.2465C45.7598 38.2465 45.8931 38.2465 46.029 38.1786C46.502 37.9094 46.7712 37.3004 46.502 36.8274L44.474 32.5702C44.2048 32.0971 43.5959 31.8279 43.1229 32.0971C42.6499 32.3663 42.3807 32.9752 42.6499 33.4483L44.6778 37.6376Z" fill="white"/>
<path d="M78.3312 38.1762C78.4671 38.2441 78.6004 38.2441 78.7363 38.2441C79.1414 38.2441 79.4785 38.0403 79.6824 37.6352L81.7103 33.3779C81.9795 32.9049 81.7103 32.296 81.2373 32.0268C80.7643 31.7576 80.1553 32.0268 79.8862 32.4998L77.8582 36.7571C77.5864 37.2981 77.7902 37.907 78.3312 38.1762Z" fill="white"/>
<defs>
<linearGradient id="paint0_linear_1972_6" x1="241.358" y1="63.1622" x2="51.2435" y2="152.889" gradientUnits="userSpaceOnUse">
<stop stop-color="#04BFD7"/>
<stop offset="1" stop-color="#63388B"/>
</linearGradient>
</defs>
</svg>
