<svg width="132" height="96" viewBox="0 0 132 96" fill="none" xmlns="http://www.w3.org/2000/svg">
<path d="M21.7095 79.3984H20.452C19.96 79.4442 19.7109 79.5358 19.7109 79.6446C19.7109 79.7534 19.9539 79.8449 20.452 79.8907H21.7095C22.2015 79.8449 22.4506 79.7534 22.4506 79.6446C22.4445 79.5358 22.2015 79.4385 21.7095 79.3984Z" fill="#3F3F3F"/>
<path d="M16.2368 79.3984H14.9794C14.4873 79.4442 14.2383 79.5358 14.2383 79.6446C14.2383 79.7534 14.4813 79.8449 14.9794 79.8907H16.2368C16.7289 79.8449 16.9779 79.7534 16.9779 79.6446C16.9779 79.5358 16.7289 79.4385 16.2368 79.3984Z" fill="#3F3F3F"/>
<path d="M10.7681 79.3984H9.51063C9.01858 79.4442 8.76953 79.5358 8.76953 79.6446C8.76953 79.7534 9.01252 79.8449 9.51063 79.8907H10.7681C11.2601 79.8449 11.5092 79.7534 11.5092 79.6446C11.5031 79.5358 11.2601 79.4385 10.7681 79.3984Z" fill="#3F3F3F"/>
<path d="M5.34871 79.3989H5.01461V79.0841C4.96601 78.6433 4.86882 78.4258 4.7534 78.4258C4.63798 78.4258 4.54078 78.6433 4.49219 79.0841V79.8913H5.34871C5.81646 79.8455 6.0473 79.7539 6.0473 79.6451C6.0473 79.5363 5.81646 79.439 5.34871 79.3989Z" fill="#3F3F3F"/>
<path d="M4.49219 75.3925C4.54082 75.8218 4.63808 76.0393 4.75358 76.0393C4.86908 76.0393 4.96634 75.8275 5.01497 75.3925V74.2934C4.96634 73.864 4.86908 73.6465 4.75358 73.6465C4.63808 73.6465 4.54082 73.8583 4.49219 74.2934V75.3925Z" fill="#3F3F3F"/>
<path d="M4.49219 70.6171C4.54082 71.0464 4.63808 71.2639 4.75358 71.2639C4.86908 71.2639 4.96634 71.0521 5.01497 70.6171V69.518C4.96634 69.0886 4.86908 68.8711 4.75358 68.8711C4.63808 68.8711 4.54082 69.0829 4.49219 69.518V70.6171Z" fill="#3F3F3F"/>
<path d="M4.49219 65.8436C4.54082 66.273 4.63808 66.4905 4.75358 66.4905C4.86908 66.4905 4.96634 66.2787 5.01497 65.8436V64.7445C4.96634 64.3152 4.86908 64.0977 4.75358 64.0977C4.63808 64.0977 4.54082 64.3095 4.49219 64.7445V65.8436Z" fill="#3F3F3F"/>
<path d="M5.01497 61.0682V59.9691C4.96634 59.5398 4.86908 59.3223 4.75358 59.3223C4.63808 59.3223 4.54082 59.5341 4.49219 59.9691V61.0682C4.54082 61.4976 4.63808 61.7151 4.75358 61.7151C4.86908 61.7151 4.96634 61.5033 5.01497 61.0682Z" fill="#3F3F3F"/>
<path d="M15.5668 51.194V50.3868C15.5182 49.946 15.421 49.7285 15.3056 49.7285C15.1902 49.7285 15.093 49.946 15.0444 50.3868V50.7017H14.7103C14.2426 50.7475 14.0117 50.8391 14.0117 50.9478C14.0117 51.0566 14.2426 51.1482 14.7103 51.194H15.5668Z" fill="#3F3F3F"/>
<path d="M15.0391 45.3432V46.5053C15.0877 46.9632 15.185 47.1922 15.3005 47.1922C15.416 47.1922 15.5132 46.9632 15.5618 46.5053V45.3432C15.5132 44.8852 15.416 44.6562 15.3005 44.6562C15.185 44.662 15.0877 44.8852 15.0391 45.3432Z" fill="#3F3F3F"/>
<path d="M15.5619 40.2768C15.5132 39.8188 15.416 39.5898 15.3005 39.5898C15.185 39.5898 15.0877 39.8188 15.0391 40.2768V41.4389C15.0877 41.8968 15.185 42.1258 15.3005 42.1258C15.416 42.1258 15.5132 41.8968 15.5619 41.4389V40.2768Z" fill="#3F3F3F"/>
<path d="M15.5619 35.2123C15.5132 34.7544 15.416 34.5254 15.3005 34.5254C15.185 34.5254 15.0877 34.7544 15.0391 35.2123V36.3744C15.0877 36.8324 15.185 37.0614 15.3005 37.0614C15.416 37.0614 15.5132 36.8324 15.5619 36.3744V35.2123Z" fill="#3F3F3F"/>
<path d="M15.5619 30.1518C15.5132 29.6938 15.416 29.4648 15.3005 29.4648C15.185 29.4648 15.0877 29.6938 15.0391 30.1518V31.3139C15.0877 31.7718 15.185 32.0008 15.3005 32.0008C15.416 32.0008 15.5132 31.7718 15.5619 31.3139V30.1518Z" fill="#3F3F3F"/>
<path d="M15.5619 25.0854C15.5132 24.6274 15.416 24.3984 15.3005 24.3984C15.185 24.3984 15.0877 24.6274 15.0391 25.0854V26.2475C15.0877 26.7054 15.185 26.9344 15.3005 26.9344C15.416 26.9344 15.5132 26.7054 15.5619 26.2475V25.0854Z" fill="#3F3F3F"/>
<path d="M15.5619 20.019C15.5132 19.561 15.416 19.332 15.3005 19.332C15.185 19.332 15.0877 19.561 15.0391 20.019V21.181C15.0877 21.639 15.185 21.868 15.3005 21.868C15.416 21.868 15.5132 21.639 15.5619 21.181V20.019Z" fill="#3F3F3F"/>
<path d="M15.5658 14.9523C15.5171 14.4944 15.4199 14.2654 15.3044 14.2654C15.1889 14.2654 15.0916 14.4944 15.043 14.9523V16.1144C15.0916 16.5724 15.1889 16.7956 15.3044 16.7956C15.4199 16.7956 15.5171 16.5666 15.5658 16.1144V14.9523Z" fill="#3F3F3F"/>
<path d="M70.9863 8.78149H32.6062C31.531 8.78149 30.6562 9.60009 30.6562 10.6133V47.8862C30.6562 48.8994 31.531 49.718 32.6062 49.718H70.9863C72.0554 49.718 72.9302 48.8994 72.9302 47.8862V10.6133C72.9302 9.60582 72.0615 8.78149 70.9863 8.78149ZM72.5657 47.8862C72.5657 48.7048 71.8549 49.3745 70.9863 49.3745H32.6062C31.7314 49.3745 31.0208 48.7048 31.0208 47.8862V10.6133C31.0208 9.79474 31.7315 9.125 32.6062 9.125H70.9863C71.861 9.125 72.5657 9.79477 72.5657 10.6133V47.8862Z" fill="#3F3F3F"/>
<path d="M70.9802 52.6777H32.6001C31.5249 52.6777 30.6562 53.5021 30.6562 54.5096V81.2838C30.6562 82.297 31.531 83.1156 32.6001 83.1156H70.9802C72.0554 83.1156 72.9302 82.297 72.9302 81.2838V54.5096C72.9302 53.4963 72.0554 52.6777 70.9802 52.6777ZM72.5656 81.2838C72.5656 82.1024 71.8549 82.7721 70.9802 82.7721H32.6001C31.7254 82.7721 31.0208 82.1024 31.0208 81.2838V54.5096C31.0208 53.6852 31.7315 53.0212 32.6001 53.0212H70.9802C71.855 53.0212 72.5656 53.691 72.5656 54.5096V81.2838Z" fill="#3F3F3F"/>
<path d="M61.1218 27.8438L60.1802 27.5462C59.9797 27.4775 59.8218 27.3172 59.7671 27.1226C59.2933 25.5312 58.7344 25.3766 59.0078 24.8671L59.4452 24.0255C59.5666 23.7908 59.518 23.5103 59.3237 23.3272L58.0905 22.1651C57.8961 21.9819 57.5924 21.9304 57.3433 22.0506L56.4564 22.4628C56.262 22.5486 56.0312 22.5429 55.8429 22.4399C54.2939 21.6155 53.8139 21.896 53.6074 21.3522L53.2794 20.4706C53.1883 20.2187 52.9453 20.0527 52.6659 20.0527H50.9224C50.643 20.0527 50.4 20.2187 50.3028 20.4706L49.9808 21.3522C49.914 21.5411 49.7439 21.6842 49.5374 21.7415C47.8182 22.1937 47.6786 22.7089 47.1379 22.457L46.2449 22.0449C45.9958 21.9304 45.6982 21.9819 45.5038 22.1594L44.2706 23.3271C44.0762 23.5103 44.0216 23.7908 44.1491 24.0255L44.5865 24.867C44.6837 25.0502 44.6716 25.262 44.5683 25.4452C43.7118 26.8763 43.9851 27.3629 43.4141 27.5518L42.4786 27.8495C42.2113 27.9354 42.0352 28.1643 42.0352 28.4334V30.0821C42.0352 30.3397 42.2113 30.5744 42.4786 30.6602L43.4141 30.9636C43.9912 31.1525 43.6875 31.5876 44.5622 33.076C44.6716 33.2534 44.6837 33.4652 44.5865 33.6541L44.1491 34.4899C44.0276 34.7246 44.0762 35.0051 44.2706 35.194L45.5099 36.3561C45.7042 36.5393 46.0019 36.5908 46.251 36.4706L47.1439 36.0584C47.3383 35.9668 47.5631 35.9783 47.7575 36.0756C49.3004 36.8885 49.8046 36.6251 49.9929 37.1633L50.3149 38.0448C50.406 38.2967 50.649 38.4627 50.9345 38.4627H52.6779C52.9513 38.4627 53.2004 38.2967 53.2915 38.0448L53.6195 37.1575C53.8078 36.6309 54.2938 36.8885 55.855 36.0756C56.0433 35.9726 56.2681 35.9611 56.4685 36.0527L57.3554 36.4706C57.6045 36.5851 57.9021 36.5393 58.1026 36.3561L59.3358 35.194C59.5301 35.0108 59.5848 34.7246 59.4572 34.4899L59.0199 33.6484C58.7465 33.1389 59.3175 32.9672 59.7853 31.3929C59.84 31.1925 59.9918 31.038 60.1984 30.9693L61.1338 30.6659C61.3951 30.58 61.5712 30.351 61.5712 30.0877V28.4391C61.5591 28.1643 61.383 27.9354 61.1218 27.8438ZM51.7911 33.5856C49.2519 33.5856 47.1866 31.645 47.1866 29.2522C47.1866 26.8536 49.2519 24.913 51.7911 24.913C54.3303 24.913 56.3956 26.8536 56.3956 29.2522C56.3956 31.645 54.3364 33.5856 51.7911 33.5856Z" fill="#3F3F3F"/>
<path d="M69.662 28.2169C68.8966 28.0967 68.3317 27.9307 67.961 27.7132C67.5966 27.4956 67.3657 27.2724 67.2746 27.0319C67.0377 26.408 67.1774 26.053 67.1349 20.6835C67.1349 19.5157 66.8008 18.7028 66.1326 18.2564C64.9662 17.4779 63.1195 17.5981 62.9676 17.5866C62.4513 17.5866 62.0078 18.0045 62.0078 18.4911C62.0078 18.9777 62.4513 19.3956 62.9676 19.3956C63.1863 19.4128 64.3466 19.3154 64.705 19.7047C64.8994 19.9108 64.9905 20.1684 64.9905 20.4775V26.2078C64.9905 27.6733 65.8106 28.6865 67.4567 29.2532C65.8105 29.8199 64.9905 30.8388 64.9905 32.2986V38.0289C64.9905 38.338 64.8933 38.5956 64.705 38.8017C64.3405 39.1967 63.1681 39.0994 62.9676 39.1108C62.1901 39.1108 61.6494 40.0325 62.2994 40.645C62.6943 41.0171 63.083 40.8912 63.3017 40.9141C64.5227 40.9141 65.4703 40.6908 66.1385 40.2443C66.8068 39.7978 67.1409 38.9907 67.1409 37.8172V32.3733C67.1409 31.4516 67.3717 31.131 67.9609 30.7876C68.3254 30.5701 68.8904 30.4041 69.6619 30.2839C70.7553 30.1007 70.7493 29.0187 70.3605 28.5665C70.2086 28.389 69.9718 28.2684 69.662 28.2169Z" fill="#63388B"/>
<path d="M38.5829 26.207V20.4767C38.5829 20.1676 38.6801 19.91 38.8684 19.7039C39.2329 19.3089 40.4053 19.4062 40.6058 19.3948C40.8609 19.3948 41.0857 19.3032 41.274 19.1257C41.924 18.5132 41.3833 17.5915 40.6058 17.5915L40.2777 17.5801C39.0567 17.5801 38.1091 17.8033 37.4409 18.2498C36.7727 18.6964 36.4386 19.5035 36.4386 20.677C36.3961 26.0523 36.5358 26.4073 36.2989 27.0254C36.0073 27.7925 34.683 28.0901 33.9177 28.2104C33.292 28.3134 32.9883 28.6969 32.9883 29.2408C32.9883 29.7846 33.292 30.1681 33.9177 30.2712C35.5336 30.5288 36.4387 30.9524 36.4387 32.3606V37.8046C36.4387 38.9724 36.7728 39.7853 37.441 40.2317C38.6073 41.0102 40.454 40.89 40.606 40.9015C41.3835 40.9015 41.9242 39.9798 41.2742 39.3673C40.8733 38.9894 40.4784 39.1268 40.1929 39.0982C39.5004 39.0982 39.0569 38.9952 38.8625 38.7891C38.6682 38.583 38.577 38.3254 38.577 38.0163V32.286C38.577 30.8262 37.757 29.8073 36.1108 29.2406C37.757 28.6853 38.5829 27.6668 38.5829 26.207Z" fill="#63388B"/>
<path d="M36.1775 58.7159H47.2759C48.0777 58.7159 48.7034 58.1091 48.7034 57.3707C48.7034 56.6265 48.0656 56.0254 47.2759 56.0254H36.1775C35.3696 56.0254 34.75 56.6379 34.75 57.3707C34.75 58.1148 35.3878 58.7159 36.1775 58.7159Z" fill="#63388B"/>
<path d="M43.4368 62.3281H35.9467C35.3453 62.3281 34.8594 62.7861 34.8594 63.3528V68.5907C34.8594 69.1517 35.3453 69.6097 35.9467 69.6097H43.4428C44.0442 69.6097 44.5302 69.1517 44.5302 68.5907V63.3528C44.5241 62.7861 44.0382 62.3281 43.4368 62.3281ZM44.1657 68.5907C44.1657 68.9628 43.8377 69.2719 43.4428 69.2719L35.9468 69.2662C35.5458 69.2662 35.2239 68.9628 35.2239 68.585V63.3471C35.2239 62.9692 35.5519 62.6658 35.9468 62.6658H43.4428C43.8498 62.6658 44.1657 62.9692 44.1657 63.3471V68.5907Z" fill="#3F3F3F"/>
<path d="M69.6813 64.2344H46.8523C46.5668 64.2344 46.3359 64.4519 46.3359 64.721C46.3359 64.99 46.5607 65.2075 46.8523 65.2075H69.6813C69.9668 65.2075 70.1915 64.99 70.1915 64.721C70.1976 64.4519 69.9668 64.2344 69.6813 64.2344Z" fill="#3F3F3F"/>
<path d="M46.8601 67.7036H65.2477C65.5332 67.7036 65.758 67.4861 65.758 67.217C65.758 66.948 65.5271 66.7305 65.2477 66.7305H46.8601C46.5746 66.7305 46.3438 66.948 46.3438 67.217C46.3438 67.4861 46.5685 67.7036 46.8601 67.7036Z" fill="#3F3F3F"/>
<path d="M43.4381 71.3789H35.9481C35.45 71.3789 35.043 71.7567 35.043 72.2318V77.4697C35.043 77.9392 35.45 78.317 35.9481 78.317H43.4442C43.9484 78.317 44.3493 77.9392 44.3493 77.4697V72.2318C44.3493 71.7567 43.9423 71.3789 43.4381 71.3789Z" fill="#63388B"/>
<path d="M69.6813 73.1135H46.8523C46.5668 73.1135 46.3359 73.3311 46.3359 73.6001C46.3359 73.8692 46.5607 74.0867 46.8523 74.0867H69.6813C69.9668 74.0867 70.1915 73.8692 70.1915 73.6001C70.1976 73.3311 69.9668 73.1135 69.6813 73.1135Z" fill="#3F3F3F"/>
<path d="M65.2399 75.615H46.8523C46.5668 75.615 46.3359 75.8325 46.3359 76.1016C46.3359 76.3706 46.5607 76.5881 46.8523 76.5881H65.2399C65.5254 76.5881 65.7501 76.3706 65.7501 76.1016C65.7562 75.8325 65.5254 75.615 65.2399 75.615Z" fill="#3F3F3F"/>
<path d="M131.566 40.0658C131.518 39.0869 131.05 37.7588 130.169 36.1159C129.039 33.9978 127.581 32.063 127.454 31.8912C127.478 31.7137 127.49 31.5077 127.442 31.4161C125.583 28.7485 123.53 26.0923 120.79 24.2146C123.785 21.9248 119.344 17.5856 119.071 15.6794C118.822 13.9048 120.699 11.9069 117.376 8.28326C113.78 4.36766 109.85 5.00309 106.138 6.27395C105.117 6.62314 104.674 7.34444 104.887 8.43215C104.024 9.90906 103.763 11.8784 103.726 12.2274C103.526 12.4392 102.499 13.1319 102.25 13.4525C101.965 13.8074 102.481 14.2997 102.852 14.5745C102.7 15.0496 102.214 16.8184 102.924 17.637C103.775 18.6159 105.494 18.3411 106.108 18.2038C106.144 18.6045 106.187 19.0624 106.229 19.5261C106.059 20.0642 105.98 20.6481 106.035 21.2492C106.071 21.6213 106.223 22.0106 106.46 22.3884C101.703 24.0485 98.0891 27.8266 96.7223 29.2521C96.4064 29.5841 96.3882 29.5784 96.3518 29.7043C94.3167 29.7272 88.9529 29.9619 85.5389 29.4467L82.696 23.3902C82.6353 23.27 82.5016 23.1727 82.3498 23.1727H79.6162L79.6101 8.46077C79.6101 3.80101 75.5827 0.00572451 70.6319 0.00572451L32.9687 0C28.0118 0 23.9844 3.79528 23.9844 8.46077V82.7368C23.9844 86.0627 26.8638 88.7705 30.3992 88.7705H73.2005C76.7358 88.7705 79.6153 86.0627 79.6153 82.7368L79.6092 32.0065C80.9821 32.9167 82.4826 32.6191 82.8409 32.5275C85.9389 34.0387 89.1828 35.3668 92.5421 36.1969C94.7715 36.7464 97.2864 37.13 99.5765 36.8437C100.056 37.4047 100.482 37.7139 100.87 37.7711C100.943 37.7826 100.834 37.794 102.559 37.2845L102.037 45.2416C102.031 45.2931 101.66 50.9603 101.666 50.9146C101.684 50.9661 101.545 51.281 102.14 51.613C102.152 52.8667 102.31 88.6499 103.209 89.4237C103.525 89.6927 104.442 89.9332 105.542 90.0877C105.548 90.3854 105.548 90.6487 105.554 90.8376C104.084 90.2823 102.966 92.2859 102 92.9271C100.925 93.6427 99.2908 93.179 98.4526 93.7171C97.9727 94.0319 97.8998 94.696 98.2522 95.5832C98.3554 95.8351 98.6045 95.9954 98.89 95.9954C108.512 95.9897 110.657 96.0183 110.991 95.9782C111.082 95.9897 111.349 95.9954 112.424 95.9954C113.639 95.9954 115 95.9897 123.103 95.9954C123.438 95.9954 123.723 95.7721 123.772 95.4687C123.93 94.5814 124.039 91.6618 123.389 91.181C123.061 90.9406 122.751 90.912 122.447 91.0436C122.447 90.3052 122.435 89.7556 122.417 89.3377C122.994 89.1602 123.31 88.9656 123.365 88.7652C123.547 88.0153 122.326 57.3836 122.101 51.0117C123.31 50.6511 123.869 50.2675 123.845 49.7981L123.353 45.7681C126.511 44.5545 131.658 42.2468 131.566 40.0658ZM106.369 17.855C106.339 17.8379 106.302 17.8264 106.266 17.8264C106.211 17.8264 104.079 18.4389 103.204 17.4314C102.524 16.6472 103.222 14.5921 103.234 14.5749C103.259 14.5062 103.234 14.4261 103.168 14.386C102.918 14.2143 102.56 13.8994 102.53 13.7162C102.524 13.6876 102.53 13.6762 102.536 13.6704C102.657 13.5216 103.064 13.2068 103.398 12.9549C103.994 12.4969 104.085 12.4225 104.085 12.3023C104.085 12.2794 104.279 10.4304 105.026 8.94196C105.737 11.0257 108.234 13.4758 108.367 13.6017C108.428 13.659 108.519 13.6704 108.592 13.6304C109.333 13.2812 109.916 13.4243 110.238 14.1398C111.016 15.8629 109.412 16.0404 108.659 16.4525C107.93 16.8475 107.061 17.7004 106.521 18.7996C106.442 17.9753 106.466 17.918 106.369 17.855ZM56.3131 1.35673C56.714 1.35673 57.0299 1.66013 57.0299 2.03223C57.0299 2.40432 56.7141 2.70772 56.3131 2.70772C55.9183 2.70772 55.5963 2.40432 55.5963 2.03223C55.5963 1.66013 55.9183 1.35673 56.3131 1.35673ZM47.4684 1.5628H54.4422C54.7216 1.5628 54.9464 1.77461 54.9464 2.03221C54.9464 2.28981 54.7216 2.50162 54.4422 2.50162H47.4684C47.2012 2.50162 46.9703 2.28981 46.9703 2.03221C46.9703 1.76888 47.2012 1.5628 47.4684 1.5628ZM73.3346 87.2637H30.5209C27.8724 87.2637 25.7159 85.2373 25.7159 82.7414V8.4712C25.7159 4.63576 29.0266 1.51591 33.0966 1.51591H42.2086C42.8161 1.51591 43.4174 1.66474 43.9399 1.93952C44.4745 2.23147 44.9179 2.6379 45.2217 3.12449C45.5072 3.57672 46.0174 3.84578 46.5702 3.84578H57.2919C57.8508 3.84578 58.355 3.57673 58.6344 3.12449C59.2662 2.13415 60.4203 1.51583 61.6535 1.51583H70.7655C74.8355 1.51583 78.1401 4.62997 78.1401 8.46541V23.189H77.5934C77.314 23.189 77.1257 23.4695 77.235 23.7042L78.1401 25.6277V27.5339C77.2229 28.0892 77.6663 29.3601 78.1401 30.2874V82.7353C78.1401 85.2311 75.9831 87.2637 73.3346 87.2637ZM92.6397 35.8695C87.3122 34.5529 83.0843 32.1773 82.8655 32.1773C82.7987 32.1773 81.1708 32.6925 79.725 31.6621C79.1843 31.2843 78.7287 30.7118 78.3825 29.9734C78.0423 29.2006 77.7203 28.2675 78.2549 27.8611C78.7409 27.4833 79.6885 27.7409 79.7675 27.7409C79.8951 27.758 80.0166 27.5863 79.9133 27.4604C79.9072 27.4088 79.7796 26.1723 79.7918 26.3326C80.132 26.3956 81.0796 27.2715 81.6082 27.7695C82.3614 28.4679 83.0722 29.1262 83.5884 29.338C86.2248 30.4085 93.9153 30.0879 96.327 30.0593C96.4545 31.2672 97.8821 34.6732 99.3157 36.5395C97.463 36.7284 95.2154 36.505 92.6397 35.8695ZM111.623 93.4524C111.605 92.5308 111.501 91.4603 111.125 91.1798C110.797 90.9336 110.487 90.9107 110.183 91.0424C110.183 90.6874 110.177 90.3726 110.171 90.0921C110.736 90.0062 111.289 89.8917 111.526 89.7315C112.279 89.222 112.467 73.4281 112.51 65.4075C113.391 72.3628 115.541 88.9811 115.997 89.6787C116.179 89.9649 116.786 90.0851 117.795 90.0451C117.801 90.3542 117.801 90.6404 117.807 90.835C116.343 90.2798 115.207 92.2833 114.253 92.9245C113.512 93.4168 112.504 93.3494 111.623 93.4524ZM105.919 91.0137C105.919 90.8534 105.913 90.5157 105.907 90.1264C107.516 90.3153 108.707 90.2752 109.8 90.1379C109.813 90.5672 109.813 90.9794 109.813 91.2656C109.308 91.6892 108.792 92.6051 108.312 92.8227C107.553 93.1776 106.447 91.3801 105.919 91.0137ZM98.8844 95.6506C98.7507 95.6506 98.6353 95.5762 98.5867 95.4617C97.554 92.8743 100.494 94.3512 102.207 93.2062C103.058 92.6395 104.042 91.0767 105.056 91.0767C105.111 91.0939 105.524 91.0366 106.052 91.5919C108.944 95.7652 109.509 90.4127 110.9 91.4488C111.07 91.5747 111.246 92.256 111.264 93.5038C110.165 93.7385 110.11 94.5743 110.499 95.5819C110.511 95.6048 110.517 95.6277 110.535 95.6506C109.576 95.6506 104.291 95.6449 98.8844 95.6506ZM123.152 91.4431C123.571 91.7522 123.583 94.3569 123.401 95.4101C123.377 95.5475 123.249 95.6448 123.091 95.6448C110.705 95.6391 110.954 95.7422 110.839 95.4559C109.836 92.8742 112.734 94.3454 114.465 93.2004C115.431 92.5536 117.095 89.9145 118.353 91.6548C118.663 92.0841 119.1 92.5764 119.537 92.8798C120.989 93.8931 121.445 92.1929 122.362 91.4773C122.642 91.2655 122.866 91.237 123.152 91.4431ZM122.071 91.2656C121.566 91.695 121.044 92.6109 120.564 92.8284C119.841 93.1547 118.535 91.3287 118.578 91.3801C118.438 91.2313 118.231 91.0653 118.165 91.0195C118.165 90.8478 118.159 90.4585 118.152 90.0234C119.07 89.9605 120.947 89.7143 122.028 89.4338C122.058 90.075 122.071 90.8249 122.071 91.2656ZM121.846 50.7189C112.606 53.3579 102.346 51.3372 102.401 51.3601C101.818 51.091 101.982 51.5318 102.395 45.2634C102.771 40.7411 102.82 34.6844 103.944 29.7675C103.962 29.6759 103.901 29.5843 103.804 29.5671C103.707 29.5442 103.61 29.6072 103.591 29.6988C103.166 31.5535 102.692 34.9538 102.583 36.9231L100.888 37.4326C99.3817 37.0949 96.6602 31.2617 96.6846 29.8878C96.6846 29.8076 96.6967 29.7905 96.6967 29.7905C96.7757 29.7103 96.8729 29.6073 96.9883 29.4928C98.3429 28.0731 101.945 24.3063 106.659 22.6921C108.275 24.7987 111.683 25.6173 114.483 25.6173C116.202 25.6173 119.027 25.3197 120.473 24.4381C123.2 26.2699 125.205 28.8459 127.112 31.5823C127.125 32.0173 126.833 32.9619 126.663 33.4141C125.381 36.7859 122.799 38.612 122.714 38.7607C122.654 38.8123 122.593 38.8581 122.532 38.9096C122.435 36.5453 122.034 32.6699 121.657 30.5174C121.621 30.2941 121.263 30.3514 121.299 30.5746C122.101 35.12 121.329 32.269 123.474 49.8266C123.474 49.9239 123.371 50.2838 121.846 50.7189ZM122.763 41.0903L122.55 39.3443C122.654 39.2642 122.751 39.1783 122.854 39.0925C123.018 39.3272 123.34 39.7393 123.814 40.3519C123.565 40.5293 123.067 40.8785 122.763 41.0903ZM123.292 45.4123L122.812 41.4795C123.601 40.93 123.966 40.6724 124.13 40.5407C124.209 40.4835 124.282 40.3518 124.172 40.2259C123.972 39.9683 123.267 39.0524 123.121 38.8635C125.126 37.1289 126.803 34.759 127.362 32.3604C127.823 32.9958 128.941 34.5701 129.846 36.2589C130.703 37.8618 131.164 39.1441 131.207 40.0714C131.292 42.0922 125.873 44.4221 123.292 45.4123Z" fill="#3F3F3F"/>
<path d="M105.148 11.334C104.766 11.3626 104.614 11.3626 104.596 11.3855C104.571 11.4256 104.784 11.4943 105.142 11.4943C105.847 11.5229 106.224 12.2442 106.303 12.1984C106.4 12.164 105.95 11.3683 105.148 11.334Z" fill="#3F3F3F"/>
<path d="M105.432 12.8222C105.469 12.5531 105.311 12.3127 105.08 12.284C104.849 12.2554 104.624 12.4501 104.587 12.7134C104.551 12.9824 104.709 13.2229 104.94 13.2515C105.171 13.2801 105.396 13.0912 105.432 12.8222Z" fill="#3F3F3F"/>
<path d="M103.65 16.2908C103.632 16.3137 103.771 16.4683 104.166 16.5542C104.5 16.6114 104.853 16.5656 105.157 16.4225C105.509 16.2336 105.6 16.0504 105.576 16.0332C105.545 16.0046 105.412 16.1363 105.084 16.2737C104.361 16.6057 103.693 16.2221 103.65 16.2908Z" fill="#3F3F3F"/>
<path d="M98.5207 32.149C98.2048 31.0785 98.217 30.5118 98.1258 30.5118C98.0651 30.506 97.9193 31.0899 98.1866 32.2349C98.8305 34.582 100.616 36.2535 100.738 36.1447C100.805 36.0875 100.416 35.6582 99.7781 34.7136C99.2132 33.9236 98.7697 33.0592 98.5207 32.149Z" fill="#3F3F3F"/>
<path d="M124.705 35.5486C125.246 34.8159 125.684 34.0201 125.987 33.1786C126.315 32.1711 126.297 31.6387 126.23 31.633C126.145 31.6216 126.03 32.1196 125.659 33.0699C124.863 35.2452 123.381 36.5218 123.521 36.6477C123.57 36.6935 124.037 36.3901 124.705 35.5486Z" fill="#3F3F3F"/>
<path d="M11.7058 47.125H0.716812C0.321954 47.125 0 47.4284 0 47.8005V57.0113C0 57.3834 0.321954 57.6868 0.716812 57.6868H11.7058C12.1007 57.6868 12.4226 57.3834 12.4226 57.0113V47.8005C12.4287 47.4284 12.1068 47.125 11.7058 47.125ZM12.0642 57.0112C12.0642 57.1944 11.9002 57.349 11.7058 57.349H0.716812C0.522423 57.349 0.358406 57.2001 0.358406 57.0112V47.8004C0.358406 47.6173 0.516343 47.4684 0.716812 47.4684H11.7058C11.9002 47.4684 12.0642 47.6173 12.0642 47.8004V57.0112Z" fill="#3F3F3F"/>
<path d="M7.86478 53.4727H7.80399C7.68849 53.4727 7.59123 53.5127 7.5122 53.5871C7.4271 53.6616 7.39062 53.7532 7.39062 53.8619V53.8963C7.39062 54.005 7.43318 54.0966 7.5122 54.1768C7.59123 54.2569 7.68849 54.2913 7.80399 54.2913H7.86478C7.98027 54.2913 8.07754 54.2569 8.15656 54.1768C8.24167 54.0966 8.27814 54.005 8.27814 53.8963V53.8619C8.27814 53.7532 8.23559 53.6616 8.15656 53.5871C8.07754 53.5127 7.98028 53.4727 7.86478 53.4727Z" fill="#63388B"/>
<path d="M2.9892 51.7158V50.4049C2.9892 50.3534 3.00742 50.3076 3.04387 50.2675C3.05602 50.2503 3.10462 50.216 3.299 50.216H3.39012C3.46302 50.216 3.52984 50.1931 3.58451 50.1358C3.63918 50.0843 3.66955 50.0213 3.66955 49.9527C3.66955 49.8782 3.64526 49.8153 3.58451 49.7637C3.52984 49.7122 3.46302 49.6836 3.39012 49.6836H3.31115C3.01957 49.6836 2.79481 49.7351 2.62471 49.8496C2.46069 49.9641 2.36958 50.1644 2.36958 50.4507V51.6929C2.36958 51.7673 2.35743 51.8303 2.34528 51.8761C2.32706 51.9162 2.28454 51.962 2.21771 51.9963C2.13874 52.0478 2.02333 52.0822 1.85323 52.1051C1.76211 52.1222 1.69529 52.1566 1.65276 52.2081C1.61024 52.2596 1.58594 52.3226 1.58594 52.4027C1.58594 52.4772 1.61024 52.5459 1.65276 52.5974C1.70136 52.6489 1.76818 52.6832 1.85323 52.6947C2.01725 52.7176 2.13873 52.7577 2.21771 52.8035C2.28454 52.8435 2.33313 52.8893 2.34528 52.9237C2.36351 52.9752 2.36958 53.0382 2.36958 53.1069V54.3491C2.36958 54.6353 2.4607 54.8414 2.62471 54.9559C2.78873 55.0646 3.01957 55.1162 3.31115 55.1162H3.39012C3.46302 55.1162 3.52984 55.0933 3.58451 55.036C3.63918 54.9845 3.66955 54.9215 3.66955 54.8528C3.66955 54.7784 3.64526 54.7154 3.58451 54.6639C3.52984 54.6124 3.46302 54.5838 3.39012 54.5838H3.299C3.10461 54.5838 3.05602 54.5494 3.04387 54.5323C3.00742 54.4979 2.9892 54.4464 2.9892 54.3949V53.0897C2.9892 52.7749 2.83126 52.5401 2.52752 52.397C2.83125 52.2654 2.9892 52.0306 2.9892 51.7158Z" fill="#63388B"/>
<path d="M10.5702 52.1109C10.4062 52.088 10.2847 52.0537 10.2057 52.0022C10.1389 51.9621 10.0903 51.9163 10.0782 51.882C10.06 51.8304 10.0539 51.7675 10.0539 51.6988V50.4565C10.0539 50.1703 9.96276 49.97 9.79875 49.8555C9.63474 49.741 9.40389 49.6895 9.11231 49.6895H9.03334C8.96045 49.6895 8.89362 49.7124 8.83895 49.7696C8.78428 49.8211 8.75391 49.8841 8.75391 49.9585C8.75391 50.0272 8.77821 50.0902 8.83895 50.1417C8.89362 50.1932 8.96045 50.2218 9.03334 50.2218H9.12446C9.31885 50.2218 9.36744 50.2562 9.37959 50.2734C9.41604 50.3134 9.43426 50.3592 9.43426 50.4107V51.7217C9.43426 52.0365 9.5922 52.2712 9.89594 52.4143C9.59221 52.5632 9.43426 52.7921 9.43426 53.107V54.4122C9.43426 54.4637 9.41604 54.5152 9.37959 54.5496C9.36744 54.5667 9.31884 54.6011 9.12446 54.6011H9.03334C8.96045 54.6011 8.89362 54.6297 8.83895 54.6812C8.78428 54.7327 8.75391 54.7957 8.75391 54.8701C8.75391 54.9388 8.77821 55.0018 8.83895 55.0533C8.89362 55.1048 8.96045 55.1335 9.03334 55.1335H9.11231C9.40389 55.1335 9.62865 55.082 9.79875 54.9732C9.96277 54.8587 10.0539 54.6583 10.0539 54.3664V53.1242C10.0539 53.0497 10.066 52.9868 10.0782 52.941C10.0964 52.9009 10.1389 52.8551 10.2057 52.8208C10.2847 52.775 10.4001 52.7349 10.5702 52.712C10.6614 52.6948 10.7282 52.6605 10.7707 52.609C10.8132 52.5574 10.8375 52.4945 10.8375 52.42C10.8375 52.3399 10.8132 52.2769 10.7707 52.2254C10.7282 52.1624 10.6614 52.1281 10.5702 52.1109Z" fill="#63388B"/>
<path d="M4.62259 53.4727H4.5618C4.4463 53.4727 4.34904 53.5127 4.27001 53.5871C4.18491 53.6616 4.14844 53.7532 4.14844 53.8619V53.8963C4.14844 54.005 4.19099 54.0966 4.27001 54.1768C4.34904 54.2569 4.4463 54.2913 4.5618 54.2913H4.62259C4.73809 54.2913 4.83535 54.2569 4.91437 54.1768C4.99948 54.0966 5.03595 54.005 5.03595 53.8963V53.8619C5.03595 53.7532 4.9934 53.6616 4.91437 53.5871C4.83535 53.5127 4.732 53.4727 4.62259 53.4727Z" fill="#63388B"/>
<path d="M6.24586 53.4727H6.17899C6.06349 53.4727 5.96623 53.5127 5.8872 53.5871C5.8021 53.6616 5.76562 53.7532 5.76562 53.8619V53.8963C5.76562 54.005 5.80818 54.0966 5.8872 54.1768C5.96623 54.2569 6.06349 54.2913 6.17899 54.2913H6.23978C6.35527 54.2913 6.45254 54.2569 6.53156 54.1768C6.61666 54.0966 6.65314 54.005 6.65314 53.8963V53.8619C6.65314 53.7532 6.61059 53.6616 6.53156 53.5871C6.45861 53.5127 6.35527 53.4727 6.24586 53.4727Z" fill="#63388B"/>
<path d="M8.33267 12.8919H20.7735C21.2109 12.8919 21.5632 12.5885 21.5632 12.2164V3.00557C21.5632 2.63347 21.2109 2.3358 20.7735 2.3358L8.33267 2.33008C7.89529 2.33008 7.54297 2.63347 7.54297 2.99984V12.2106C7.54297 12.5885 7.89529 12.8919 8.33267 12.8919ZM7.90744 3.00563C7.90744 2.82244 8.09575 2.67361 8.33267 2.67361H20.7735C21.0044 2.67361 21.1988 2.82817 21.1988 3.00563V12.2164C21.1988 12.3996 21.0044 12.5542 20.7735 12.5542L8.33267 12.5484C8.09576 12.5484 7.90744 12.3996 7.90744 12.2107V3.00563Z" fill="#3F3F3F"/>
<path d="M10.6379 10.3849H18.0126C19.1425 10.3849 20.0597 9.52052 20.0597 8.45577C20.0597 7.39101 19.1425 6.52661 18.0126 6.52661C17.5934 6.52661 17.2046 6.64683 16.8766 6.85292C16.5304 5.69084 15.3944 4.83789 14.0519 4.83789C12.4725 4.83789 11.1908 6.0057 11.1179 7.47692C10.966 7.43112 10.8081 7.40822 10.638 7.40822C9.76325 7.40822 9.05863 8.07226 9.05863 8.89656C9.05256 9.72089 9.76322 10.3849 10.6379 10.3849Z" fill="#63388B"/>
</svg>
