<svg width="122" height="96" viewBox="0 0 122 96" fill="none" xmlns="http://www.w3.org/2000/svg">
<path d="M98.7659 42.6879L98.8076 42.6741L98.8257 42.6341L100.842 38.1753L104.844 41.3348L99.8243 46.7976L89.9384 48.3029L89.896 48.3094L89.8715 48.3445C89.6738 48.628 89.3979 48.8477 89.0775 48.977C88.7571 49.1063 88.406 49.1395 88.0671 49.0726C87.7281 49.0057 87.416 48.8417 87.1686 48.6004C86.9213 48.3591 86.7494 48.051 86.6741 47.7137C86.5988 47.3764 86.6231 47.0245 86.7443 46.7008C86.8654 46.3771 87.0781 46.0957 87.3564 45.8909C87.6346 45.686 87.9664 45.5666 88.3114 45.5472C88.6563 45.5277 88.9994 45.6091 89.2989 45.7813L89.3377 45.8036L89.3802 45.7896L98.7659 42.6879Z" fill="#FFB6B6" stroke="#3F3F3F" stroke-width="0.2"/>
<path d="M98.7727 41.6915L98.8619 41.7369L98.8619 41.7368L98.8623 41.7361L98.8636 41.7336L98.8688 41.7234L98.8892 41.6833L98.9683 41.5291C99.0371 41.395 99.137 41.2006 99.2616 40.9597C99.5108 40.478 99.8586 39.81 100.253 39.0654C101.041 37.5756 102.014 35.7812 102.754 34.5565L102.754 34.5565L102.755 34.5549C103.153 33.8678 103.718 33.2926 104.398 32.8828C105.076 32.4742 105.846 32.2433 106.637 32.2115L106.647 32.2126C106.659 32.2139 106.676 32.2162 106.698 32.2197C106.743 32.2269 106.81 32.2394 106.893 32.2609C107.059 32.3037 107.291 32.3819 107.551 32.5231C108.071 32.8047 108.708 33.3387 109.163 34.3515C109.267 34.5848 109.282 34.8808 109.218 35.2295C109.155 35.5774 109.013 35.9694 108.815 36.3875C108.42 37.2237 107.804 38.1503 107.156 39.0164C106.509 39.8817 105.832 40.683 105.317 41.2683C105.06 41.5608 104.843 41.7992 104.69 41.9643C104.614 42.0469 104.554 42.1112 104.513 42.1548L104.466 42.2043L104.455 42.2165C104.056 42.5406 103.745 42.9819 103.473 43.4596C103.284 43.791 103.111 44.1458 102.941 44.4943C102.866 44.6487 102.792 44.8019 102.717 44.9513C102.219 45.9404 101.698 46.762 100.793 46.9265C99.5003 47.1617 98.7341 47.2761 98.2909 47.3237C98.1579 47.338 98.0552 47.3462 97.977 47.3499C97.9783 47.3391 97.978 47.3266 97.9745 47.3129C97.9664 47.2817 97.946 47.2622 97.9292 47.252C97.9039 47.2365 97.8789 47.2368 97.8743 47.2368L97.8739 47.2368C97.8652 47.2368 97.8578 47.2379 97.8531 47.2386C97.8227 47.2435 97.7755 47.2609 97.7387 47.2792C97.7197 47.2886 97.6968 47.3015 97.6774 47.3176C97.6732 47.3211 97.6684 47.3253 97.6635 47.3304C97.6162 47.3499 97.5566 47.3736 97.4824 47.4021C97.3459 47.4546 97.2654 47.4372 97.2111 47.3966C97.1487 47.3501 97.0949 47.2548 97.0559 47.0996C96.9785 46.791 96.978 46.3248 96.9917 45.8176C96.9942 45.7235 96.9973 45.6282 97.0003 45.5326C97.0133 45.1205 97.0265 44.7031 97.0023 44.3588C96.9874 44.1467 96.9579 43.9539 96.9016 43.8029C96.8482 43.6598 96.7636 43.5366 96.6273 43.4853C96.6479 43.4419 96.7003 43.3749 96.7882 43.2869C96.9658 43.109 97.2501 42.8821 97.5542 42.6566C97.8571 42.4319 98.1753 42.2116 98.4181 42.0473C98.5394 41.9652 98.6418 41.8972 98.7137 41.8497L98.7975 41.7948L98.8196 41.7804L98.8252 41.7767L98.8266 41.7758L98.827 41.7756L98.827 41.7755L98.7727 41.6915ZM98.7727 41.6915L98.8618 41.737L98.8496 41.7609L98.8271 41.7755L98.7727 41.6915Z" fill="white" stroke="#3F3F3F" stroke-width="0.2"/>
<path d="M85.2947 95.8141H26.4985C25.1049 95.8125 23.7689 95.258 22.7835 94.2723C21.7981 93.2865 21.2438 91.95 21.2422 90.5559V5.25818C21.2438 3.86411 21.7981 2.52758 22.7835 1.54182C23.7689 0.556066 25.1049 0.00157435 26.4985 0H85.2947C86.6882 0.00157477 88.0243 0.556066 89.0097 1.54182C89.9951 2.52758 90.5494 3.86411 90.551 5.25818V90.5559C90.5494 91.95 89.9951 93.2865 89.0097 94.2723C88.0243 95.258 86.6882 95.8125 85.2947 95.8141Z" fill="#3F3F3F"/>
<path d="M85.4008 92.4599H26.3977C25.9681 92.4594 25.5562 92.2885 25.2525 91.9846C24.9487 91.6807 24.7778 91.2687 24.7773 90.839V4.97636C24.7778 4.54662 24.9487 4.13463 25.2525 3.83076C25.5562 3.52689 25.9681 3.35596 26.3977 3.35547H85.4008C85.8304 3.35596 86.2422 3.52689 86.546 3.83076C86.8498 4.13463 87.0206 4.54662 87.0211 4.97636V90.839C87.0206 91.2687 86.8498 91.6807 86.546 91.9846C86.2422 92.2885 85.8304 92.4594 85.4008 92.4599Z" fill="white"/>
<path d="M29.2759 42.864C29.4406 40.6268 29.7125 37.8764 31.9253 36.6812C32.9694 36.1172 34.0749 36.3167 35.1246 36.7563C36.1389 37.1811 37.0945 37.6874 38.187 37.8871C40.0702 38.2122 42.008 37.9215 43.7131 37.0582C45.4305 36.2039 46.8083 34.7933 47.6222 33.0559C48.0412 32.1723 48.3874 31.2147 49.0047 30.4436C49.3152 30.0387 49.7269 29.7228 50.1983 29.5276C50.6697 29.3325 51.1842 29.265 51.6899 29.3319C54.0101 29.6184 55.5498 31.6521 57.3994 32.8493C58.289 33.425 59.3105 33.8454 60.3876 33.7939C61.4924 33.741 62.4939 33.2178 63.3406 32.5348C65.1371 31.0856 66.1194 28.8443 68.0048 27.4938C68.8987 26.8695 69.936 26.4817 71.0201 26.3664C72.1041 26.2512 73.1997 26.4123 74.2048 26.8347C76.1372 27.6685 77.5053 29.5369 77.8667 31.593C77.9533 32.0996 77.9757 32.615 77.9333 33.1272C77.9097 33.4292 78.3803 33.4277 78.4037 33.1272C78.4743 32.0616 78.2976 30.9941 77.8876 30.008C77.4775 29.022 76.8452 28.1441 76.0399 27.443C74.3719 26.0034 72.0414 25.5356 69.9218 26.0895C68.8424 26.3758 67.8505 26.9242 67.0341 27.6863C66.162 28.4908 65.4742 29.4656 64.7381 30.3896C64.02 31.291 63.2277 32.1615 62.2198 32.7437C61.7372 33.0379 61.1963 33.2234 60.6348 33.2873C60.0733 33.3512 59.5046 33.2919 58.9683 33.1136C57.8803 32.7464 56.9584 31.99 56.088 31.2658C55.1906 30.5192 54.2976 29.7723 53.219 29.2979C52.2162 28.8569 51.0661 28.6429 50.0222 29.0773C49.0811 29.4689 48.4581 30.2818 47.9964 31.161C47.5278 32.0534 47.194 33.0157 46.6472 33.8667C46.1183 34.6812 45.4395 35.3879 44.647 35.9491C43.0373 37.0996 41.0799 37.6591 39.1055 37.5329C38.0328 37.4567 37.0574 37.1176 36.086 36.6734C35.0139 36.1831 33.8846 35.6732 32.6783 35.9107C31.6377 36.1156 30.7622 36.8228 30.1544 37.6677C29.4526 38.6431 29.1442 39.8389 28.9833 41.0133C28.8991 41.6277 28.851 42.2458 28.8055 42.864C28.7832 43.1661 29.2537 43.1647 29.2759 42.864Z" fill="#E4E4E4"/>
<path d="M112.429 93.5467L110.195 93.5465L109.133 84.9277L112.43 84.9279L112.429 93.5467Z" fill="#FFB6B6"/>
<path d="M112.37 92.8177L109.987 91.8492L109.916 91.8203L108.6 92.8177C107.878 92.8176 107.184 93.0964 106.662 93.5961C106.14 94.0958 105.832 94.7776 105.8 95.4994C105.797 95.5391 105.797 95.5806 105.797 95.6221V95.714H112.999V92.8177H112.37Z" fill="#2F2E41"/>
<path d="M107.196 91.4681L105.089 92.2097L101.227 84.4323L104.336 83.3379L107.196 91.4681Z" fill="#FFB6B6"/>
<path d="M106.901 90.7988L104.332 90.6765L104.256 90.6726L103.345 92.0504C102.664 92.2901 102.101 92.7837 101.775 93.4283C101.449 94.0728 101.384 94.8185 101.594 95.5098C101.603 95.5484 101.617 95.5876 101.631 95.6267L101.662 95.7134L108.456 93.3221L107.495 90.5898L106.901 90.7988Z" fill="#2F2E41"/>
<path d="M113.218 56.3856C115.261 56.3064 112.73 72.5972 112.73 72.5972C112.73 72.5972 113.47 86.8998 113.314 87.6504C113.157 88.401 113.294 90.4253 113.294 90.4253C112.893 89.6964 108.763 90.2465 108.763 90.2465L108.201 75.7508L105.332 64.1364L101.354 71.9217L105.167 83.8717C105.167 83.8717 106.71 85.3008 106.546 85.8656C106.382 86.4303 102.338 87.7039 101.595 87.7327C100.852 87.7616 101.188 86.8179 101.152 85.8887C101.116 84.9595 97.6188 76.3474 96.3888 73.4172C95.1589 70.4869 96.1151 66.3552 96.7429 63.3529C97.3708 60.3506 100.674 54.7162 100.674 54.7162C104.774 50.0902 111.174 56.4649 113.218 56.3856Z" fill="#3F3F3F"/>
<path d="M107.499 29.3196C109.652 29.3196 111.397 27.5739 111.397 25.4205C111.397 23.2671 109.652 21.5215 107.499 21.5215C105.347 21.5215 103.602 23.2671 103.602 25.4205C103.602 27.5739 105.347 29.3196 107.499 29.3196Z" fill="#FFB6B6"/>
<path d="M105.603 31.981L105.631 31.9645L105.644 31.9348L106.305 30.4086L110.101 30.1048L110.854 31.4603L110.872 31.4928L110.907 31.5057L110.907 31.5057L110.908 31.5058L110.909 31.5064L110.915 31.5087L110.941 31.5182C110.963 31.5266 110.996 31.5393 111.038 31.5562C111.123 31.5899 111.247 31.6403 111.4 31.7067C111.706 31.8396 112.129 32.0363 112.6 32.2916C113.532 32.7975 114.64 33.5286 115.381 34.4417L114.128 47.7306L113.123 54.3374L113.115 54.3865L113.15 54.4221L113.222 54.3525L113.15 54.4221L113.15 54.4222L113.15 54.4223L113.151 54.4229L113.153 54.4252L113.162 54.4346L113.196 54.4704C113.226 54.5014 113.268 54.5459 113.318 54.5996C113.419 54.7072 113.552 54.8516 113.68 54.9997C113.809 55.1484 113.932 55.2983 114.014 55.4174C114.05 55.4703 114.076 55.5136 114.091 55.5459C114.081 55.5438 114.065 55.5417 114.038 55.5417C114.015 55.5417 113.964 55.5484 113.934 55.5992C113.913 55.6359 113.917 55.6753 113.919 55.6934C113.924 55.7365 113.944 55.8014 113.974 55.8934C113.999 55.9673 114.031 56.0238 114.071 56.0636C114.051 56.0816 114.03 56.1021 114.007 56.1254C113.96 56.1724 113.923 56.2099 113.896 56.2395C113.872 56.2662 113.846 56.2961 113.832 56.326C113.825 56.3417 113.814 56.3715 113.822 56.407C113.832 56.4473 113.859 56.4708 113.88 56.4826C113.898 56.4931 113.917 56.4976 113.929 56.4999C113.942 56.5025 113.955 56.5042 113.967 56.5056C113.972 56.5062 113.977 56.5068 113.983 56.5074C114.075 56.5176 114.221 56.5339 114.374 56.6871C114.462 56.7747 114.496 56.8387 114.508 56.8805C114.518 56.9184 114.511 56.9415 114.501 56.9581C114.489 56.978 114.469 56.9951 114.447 57.0083C114.442 57.0111 114.437 57.0136 114.433 57.0157L114.348 57.0003C114.272 56.9867 114.161 56.9668 114.017 56.9416C113.73 56.8913 113.316 56.82 112.804 56.7355C111.78 56.5667 110.366 56.3457 108.81 56.1371C105.773 55.7301 102.178 55.3687 99.8681 55.5385L101.948 50.3825L101.954 50.3694L101.955 50.3553L103.064 39.5781L103.064 39.5781L103.065 39.5735C103.166 37.7752 103.486 35.996 104.017 34.2752C104.302 33.3517 104.794 32.462 105.603 31.981Z" fill="white" stroke="#3F3F3F" stroke-width="0.2"/>
<path d="M113.024 46.7108L113.025 46.7008L113.025 46.6908L112.734 41.7904L115.914 41.2141L116.86 46.7966L113.812 58.3416L113.805 58.3672L113.812 58.3928C113.901 58.7268 113.89 59.0795 113.782 59.4077C113.674 59.7359 113.472 60.0256 113.203 60.2413C112.933 60.457 112.606 60.5896 112.262 60.6227C111.918 60.6558 111.572 60.5882 111.266 60.428L111.221 60.5147L111.266 60.428C110.96 60.2677 110.707 60.0219 110.538 59.7204C110.369 59.4188 110.292 59.0747 110.315 58.7298C110.338 58.385 110.461 58.0544 110.669 57.7784C110.877 57.5023 111.161 57.2927 111.486 57.1752L111.542 57.1547L111.551 57.0952L113.024 46.7108Z" fill="#FFB6B6" stroke="#3F3F3F" stroke-width="0.2"/>
<path d="M112.517 44.2195L112.606 44.1728L112.606 44.1727L112.606 44.1723L112.605 44.1708L112.602 44.1646L112.589 44.1401C112.577 44.1184 112.561 44.0861 112.539 44.0441C112.496 43.9601 112.432 43.8368 112.354 43.6804C112.197 43.3676 111.978 42.9222 111.73 42.3919C111.234 41.331 110.625 39.9326 110.169 38.5787L110.169 38.5787L110.168 38.5769C109.901 37.8293 109.827 37.026 109.953 36.242C110.079 35.4601 110.4 34.7228 110.886 34.0981L110.894 34.0908C110.902 34.0831 110.915 34.0714 110.932 34.0565C110.967 34.0267 111.019 33.9841 111.089 33.9345C111.229 33.8354 111.438 33.7087 111.714 33.6008C112.265 33.3855 113.084 33.2435 114.15 33.5506C114.396 33.6213 114.632 33.8008 114.857 34.0748C115.081 34.3482 115.289 34.7091 115.48 35.1303C115.863 35.9726 116.173 37.0413 116.416 38.0954C116.658 39.1486 116.833 40.1828 116.947 40.954C117.004 41.3395 117.046 41.6591 117.074 41.8822C117.088 41.9938 117.098 42.0812 117.105 42.1407L117.112 42.2084L117.114 42.2257L117.115 42.23L117.115 42.2311L117.115 42.2313L117.214 42.2209L117.114 42.2315L117.117 42.2452C117.606 44.1911 117.386 45.5633 116.993 46.4421C116.797 46.8822 116.557 47.199 116.341 47.4033C116.233 47.5056 116.132 47.5786 116.047 47.6249C115.959 47.6726 115.897 47.6871 115.864 47.6859C115.259 47.6639 114.78 47.4107 114.35 47.1835C114.321 47.1678 114.291 47.1522 114.262 47.1369C114.039 47.0199 113.823 46.9119 113.612 46.8663C113.397 46.8196 113.184 46.837 112.973 46.9694C112.97 46.9662 112.965 46.9611 112.96 46.9534C112.928 46.9102 112.894 46.8264 112.861 46.7015C112.796 46.4566 112.746 46.1003 112.71 45.7296C112.674 45.3603 112.65 44.9821 112.636 44.6959C112.629 44.5529 112.625 44.433 112.622 44.349C112.62 44.3069 112.619 44.2739 112.618 44.2513L112.618 44.2256L112.618 44.2191L112.617 44.2175L112.617 44.2171L112.617 44.217L112.517 44.2195ZM112.517 44.2195L112.606 44.1728L112.617 44.1935L112.617 44.217L112.517 44.2195Z" fill="white" stroke="#3F3F3F" stroke-width="0.2"/>
<path d="M111.958 24.2275C111.945 23.5941 111.874 22.7838 111.43 22.1376C111.056 21.594 110.301 21.1632 109.597 21.3786C109.605 21.2378 109.574 21.0976 109.507 20.9736C109.44 20.8496 109.34 20.7465 109.218 20.676C108.948 20.5379 108.651 20.463 108.348 20.4567C107.634 20.3901 106.894 20.3208 106.171 20.458C105.36 20.6119 104.696 21.0298 104.351 21.6055L104.344 21.6235L104.273 21.9645C104.264 22.0103 104.245 22.0534 104.217 22.091C104.189 22.1287 104.154 22.1599 104.113 22.1825C104.072 22.2054 104.027 22.219 103.98 22.2224C103.933 22.2257 103.886 22.2186 103.843 22.2017C103.795 22.1838 103.743 22.1786 103.693 22.1868C103.642 22.1949 103.595 22.2161 103.555 22.2482C103.515 22.2803 103.485 22.3223 103.466 22.3699C103.447 22.4175 103.442 22.4691 103.449 22.5197L103.468 22.6556L103.265 22.6171C103.213 22.6072 103.16 22.6111 103.111 22.6285C103.062 22.6459 103.019 22.676 102.985 22.7159C102.951 22.7558 102.929 22.8039 102.92 22.8552C102.912 22.9066 102.917 22.9594 102.935 23.0082L102.992 23.1633C102.949 23.1639 102.908 23.1729 102.869 23.1899C102.831 23.2068 102.796 23.2314 102.767 23.262C102.726 23.3067 102.7 23.3634 102.693 23.4237C102.686 23.4841 102.699 23.5451 102.729 23.598C102.957 23.988 103.281 24.3136 103.67 24.5442C103.844 24.6495 104.033 24.7302 104.23 24.7839C104.271 24.7955 104.313 24.8057 104.357 24.8147C105.93 25.1539 107.552 25.2026 109.144 24.9583C109.05 25.2723 109.014 25.6007 109.037 25.9276C109.051 26.1129 109.115 26.291 109.223 26.4424C109.331 26.5939 109.478 26.7129 109.649 26.7866C109.721 26.8112 109.796 26.8292 109.872 26.8404C109.944 26.8522 110.016 26.8698 110.086 26.893C110.189 26.9308 110.28 26.9951 110.35 27.0795C110.42 27.1639 110.467 27.2654 110.486 27.3736C110.504 27.4819 110.494 27.5931 110.455 27.696C110.417 27.7989 110.352 27.8899 110.268 27.9598C110.268 27.9598 110.603 28.238 110.646 28.2239C110.811 28.1509 110.949 28.0281 111.04 27.8726C111.68 26.952 111.989 25.7263 111.958 24.2275Z" fill="#2F2E41"/>
<path d="M9.846 83.0363L9.38812 85.3344C9.35362 85.5101 9.31756 85.6889 9.27836 85.8661C8.89566 85.7868 8.49887 85.809 8.12739 85.9305C8.42211 86.3518 8.68622 86.7937 8.9177 87.2528C8.62917 88.1422 8.20579 88.9642 7.49702 89.5587C7.02364 89.9469 6.45825 90.2066 5.85538 90.3126C5.2525 90.4187 4.63248 90.3676 4.0551 90.1642L4.07549 90.0732C3.3134 88.594 3.72737 86.7289 4.67449 85.3626C5.15755 84.6886 5.72991 84.0833 6.37585 83.5634C7.01562 83.0301 7.70714 82.5516 8.39239 82.0795C8.5463 81.9736 8.72826 81.916 8.91504 81.9141C9.10182 81.9122 9.28491 81.9661 9.44095 82.0688C9.59698 82.1715 9.71886 82.3184 9.79101 82.4907C9.86316 82.6631 9.88231 82.853 9.846 83.0363Z" fill="#E4E4E4"/>
<path d="M4.2182 95.6937C4.02549 94.2893 3.82728 92.867 3.96245 91.4476C4.08257 90.187 4.4669 88.9558 5.24968 87.9462C5.66515 87.4114 6.1707 86.9531 6.74359 86.592C6.89303 86.4979 7.03039 86.7346 6.88173 86.8284C5.89051 87.4551 5.12383 88.3804 4.69223 89.4711C4.21554 90.6839 4.13902 92.0061 4.22181 93.2945C4.27152 94.0736 4.37674 94.8474 4.4829 95.6207C4.49144 95.6557 4.4863 95.6927 4.46852 95.724C4.45074 95.7553 4.42166 95.7786 4.38724 95.7892C4.35223 95.7987 4.31491 95.7939 4.28337 95.776C4.25184 95.7581 4.22865 95.7284 4.21883 95.6935L4.2182 95.6937Z" fill="#F2F2F2"/>
<path d="M55.6737 2.05674C55.9207 2.05674 56.1209 1.85647 56.1209 1.60942C56.1209 1.36238 55.9207 1.16211 55.6737 1.16211C55.4268 1.16211 55.2266 1.36238 55.2266 1.60942C55.2266 1.85647 55.4268 2.05674 55.6737 2.05674Z" fill="white"/>
<path d="M81.8181 43.0168H28.7793C28.7352 43.0168 28.693 42.9993 28.6619 42.9682C28.6308 42.9371 28.6133 42.8948 28.6133 42.8508L28.6938 42.666L81.8181 42.6847C81.8621 42.6846 81.9044 42.7019 81.9357 42.7329C81.9669 42.764 81.9845 42.8061 81.9847 42.8502C81.9849 42.8942 81.9675 42.9365 81.9365 42.9678C81.9055 42.999 81.8634 43.0167 81.8193 43.0168L81.8181 43.0168Z" fill="#3F3F3F"/>
<path d="M38.8685 41.8555H38.543V42.7834H38.8685V41.8555Z" fill="#3F3F3F"/>
<path d="M48.6146 36.5234H48.2891V42.7847H48.6146V36.5234Z" fill="#3F3F3F"/>
<path d="M58.3802 28.9922H58.0547V42.7829H58.3802V28.9922Z" fill="#3F3F3F"/>
<path d="M68.1459 22.5625H67.8203V42.7846H68.1459V22.5625Z" fill="#3F3F3F"/>
<path d="M77.9154 37.3066H77.5898V42.7836H77.9154V37.3066Z" fill="#3F3F3F"/>
<path d="M68.0037 21.434C68.5538 21.434 68.9997 20.9879 68.9997 20.4377C68.9997 19.8875 68.5538 19.4414 68.0037 19.4414C67.4537 19.4414 67.0078 19.8875 67.0078 20.4377C67.0078 20.9879 67.4537 21.434 68.0037 21.434Z" fill="#63388B"/>
<path d="M58.3944 27.2797C58.9444 27.2797 59.3903 26.8336 59.3903 26.2834C59.3903 25.7332 58.9444 25.2871 58.3944 25.2871C57.8443 25.2871 57.3984 25.7332 57.3984 26.2834C57.3984 26.8336 57.8443 27.2797 58.3944 27.2797Z" fill="#63388B"/>
<path d="M77.7733 36.4672C78.3233 36.4672 78.7692 36.0211 78.7692 35.4709C78.7692 34.9207 78.3233 34.4746 77.7733 34.4746C77.2232 34.4746 76.7773 34.9207 76.7773 35.4709C76.7773 36.0211 77.2232 36.4672 77.7733 36.4672Z" fill="#63388B"/>
<path d="M48.1914 77.571V65.8159C48.1914 65.6652 48.3667 65.543 48.5829 65.543H50.3301C50.5463 65.543 50.7216 65.6652 50.7216 65.8159V77.6017L48.1914 77.571Z" fill="#63388B"/>
<path d="M53.9609 77.6093V68.6275C53.9609 68.4827 54.1362 68.3652 54.3524 68.3652H56.0996C56.3158 68.3652 56.4911 68.4827 56.4911 68.6275V77.59L53.9609 77.6093Z" fill="#63388B"/>
<path d="M65.5048 77.5883V73.0201C65.4896 72.9655 65.6642 72.9182 65.8963 72.9141H67.6435C67.8757 72.9182 68.0503 72.9655 68.035 73.0201V77.6002L65.5048 77.5883Z" fill="#63388B"/>
<path d="M42.4219 77.5883V73.0201C42.4219 72.9616 42.5972 72.9141 42.8134 72.9141H44.5606C44.7768 72.9141 44.9521 72.9616 44.9521 73.0201V77.6002L42.4219 77.5883Z" fill="#63388B"/>
<path d="M59.7344 77.544V55.4849C59.7344 55.202 59.9097 54.9727 60.1259 54.9727H61.873C62.0893 54.9727 62.2646 55.202 62.2646 55.4849V77.6015L59.7344 77.544Z" fill="#63388B"/>
<path d="M75.5629 77.804H36.0474C36.0058 77.804 35.966 77.7874 35.9366 77.758C35.9071 77.7286 35.8906 77.6887 35.8906 77.6471C35.8906 77.6055 35.9071 77.5656 35.9366 77.5362C35.966 77.5068 36.0058 77.4902 36.0474 77.4902H75.5629C75.6045 77.4902 75.6444 77.5068 75.6738 77.5362C75.7032 77.5656 75.7197 77.6055 75.7197 77.6471C75.7197 77.6887 75.7032 77.7286 75.6738 77.758C75.6444 77.7874 75.6045 77.804 75.5629 77.804Z" fill="#3F3F3F"/>
<path d="M38.7498 40.8246C39.2999 40.8246 39.7458 40.3785 39.7458 39.8283C39.7458 39.2781 39.2999 38.832 38.7498 38.832C38.1998 38.832 37.7539 39.2781 37.7539 39.8283C37.7539 40.3785 38.1998 40.8246 38.7498 40.8246Z" fill="#63388B"/>
<path d="M48.4725 35.3343C49.0225 35.3343 49.4684 34.8883 49.4684 34.3381C49.4684 33.7878 49.0225 33.3418 48.4725 33.3418C47.9225 33.3418 47.4766 33.7878 47.4766 34.3381C47.4766 34.8883 47.9225 35.3343 48.4725 35.3343Z" fill="#63388B"/>
</svg>
