<svg width="113" height="96" viewBox="0 0 113 96" fill="none" xmlns="http://www.w3.org/2000/svg">
<g clip-path="url(#clip0_1438_13663)">
<path d="M87.7283 15.4785H80.098V80.4101C80.098 81.4289 79.8969 82.4376 79.5063 83.3789C79.1157 84.3201 78.5432 85.1753 77.8215 85.8956C77.0998 86.616 76.243 87.1874 75.3 87.5773C74.357 87.9672 73.3464 88.1678 72.3257 88.1678H13.9883V88.2421C13.9883 89.2608 14.1893 90.2696 14.5799 91.2108C14.9705 92.152 15.543 93.0072 16.2647 93.7276C16.9864 94.448 17.8432 95.0194 18.7862 95.4092C19.7292 95.7991 20.7399 95.9998 21.7605 95.9998H87.7283C88.749 95.9998 89.7597 95.7991 90.7027 95.4092C91.6456 95.0194 92.5024 94.448 93.2242 93.7276C93.9459 93.0072 94.5184 92.152 94.909 91.2108C95.2996 90.2696 95.5006 89.2608 95.5006 88.2421V23.2362C95.5006 22.2175 95.2996 21.2087 94.909 20.2675C94.5184 19.3263 93.9459 18.4711 93.2242 17.7507C92.5024 17.0303 91.6456 16.4589 90.7027 16.069C89.7597 15.6792 88.749 15.4785 87.7283 15.4785Z" fill="#D8D8D8"/>
<path d="M78.2863 8.81836H3.22606C1.44435 8.81836 0 10.26 0 12.0384V86.1196C0 87.898 1.44435 89.3396 3.22606 89.3396H78.2863C80.068 89.3396 81.5123 87.898 81.5123 86.1196V12.0384C81.5123 10.26 80.068 8.81836 78.2863 8.81836Z" fill="#F2F2F2"/>
<path d="M7.77154 10.4141C6.13413 10.4141 4.56378 11.0633 3.40595 12.219C2.24812 13.3746 1.59766 14.942 1.59766 16.5764V81.5823C1.59766 83.2166 2.24812 84.7841 3.40595 85.9397C4.56377 87.0954 6.13413 87.7446 7.77154 87.7446H49.8738C66.4641 87.7446 79.9131 74.3207 79.9131 57.7615V16.5764C79.9131 14.942 79.2627 13.3746 78.1048 12.219C76.947 11.0633 75.3767 10.4141 73.7392 10.4141H7.77154Z" fill="white"/>
<path d="M83.2968 54.0391C82.9596 54.1324 82.6062 54.1514 82.2608 54.0949C81.9155 54.0384 81.5867 53.9077 81.2969 53.7118C81.0072 53.516 80.7636 53.2596 80.5829 52.9606C80.4022 52.6615 80.2887 52.3268 80.2503 51.9796L68.7227 48.5048L68.9016 45.0859L82.563 49.3129C83.1533 49.2919 83.7307 49.4878 84.186 49.8634C84.6412 50.2389 84.9426 50.7681 85.0331 51.3507C85.1235 51.9333 84.9967 52.5287 84.6767 53.0242C84.3567 53.5197 83.8658 53.8808 83.2968 54.0391Z" fill="#FFB6B6"/>
<path d="M44.4862 36.4029C43.319 35.4307 45.0281 30.6118 44.5673 29.215C44.5397 29.1305 44.5135 29.0457 44.4887 28.9606C44.4365 28.7804 44.4482 28.5877 44.5217 28.415L48.8544 26.3809C49.9834 26.8412 51.0235 27.494 51.9286 28.3099L58.6218 35.9402L65.2713 41.9344L68.1889 43.2327L77.8573 47.5369L77.7571 47.8254L77.7563 47.8263L76.6935 50.9069L76.6935 50.9086L78.8195 52.3878L71.8594 51.3414L67.2563 49.4462L62.8239 47.6216C56.2797 43.6906 45.5125 41.6529 44.4862 36.4029Z" fill="#CBCBCB"/>
<path d="M75.3305 71.764C75.2028 71.8221 75.0603 71.8395 74.9223 71.814C74.7843 71.7884 74.6575 71.7212 74.559 71.6213C74.4606 71.5214 74.3953 71.3938 74.372 71.2556C74.3487 71.1175 74.3685 70.9755 74.4287 70.849C74.4192 70.779 74.4124 70.7288 74.4029 70.6588C74.3916 70.6473 74.3803 70.6358 74.3689 70.6243C73.225 69.466 71.2463 70.2687 71.2261 71.895C71.2082 73.3384 71.0506 74.8402 71.4146 76.2132C71.5757 76.82 71.8411 77.3943 72.1989 77.9106C69.9328 75.7617 68.1562 73.1516 66.9894 70.2573C66.6973 69.5307 66.4462 68.7883 66.2372 68.0337C66.0664 67.4149 65.9232 66.79 65.8076 66.1588C65.1842 62.7329 65.3838 59.2083 66.3902 55.8743C67.1542 54.9506 67.6162 53.8153 67.7139 52.6214C67.7505 52.1917 67.7245 51.7589 67.6368 51.3367C67.5322 51.3952 66.5533 49.8406 66.5952 49.7044C66.348 49.5331 66.0264 49.5274 65.7672 49.3674C64.4785 48.5714 63.4073 49.2289 63.4233 51.0047C62.3998 52.1642 62.8178 53.241 64.0189 53.957C64.7831 54.4125 65.2082 55.2724 65.9296 55.7988C65.9076 55.8746 65.883 55.9494 65.861 56.0253C65.4604 57.4166 65.1974 58.8437 65.0758 60.2862C64.7118 58.8859 63.8153 57.3821 62.97 56.5197C62.0073 55.5369 60.6913 54.9113 59.4743 54.2156C58.0125 53.3799 56.2369 54.71 56.6889 56.3299C56.6933 56.3455 56.6977 56.3612 56.7021 56.3768C56.8493 56.3964 56.9955 56.4211 57.1409 56.451C57.324 56.4896 57.4911 56.5824 57.6204 56.7173C57.7497 56.8523 57.8351 57.0231 57.8655 57.2073C57.8959 57.3916 57.8698 57.5807 57.7906 57.7499C57.7115 57.9191 57.583 58.0605 57.422 58.1555L57.4055 58.1653C57.6216 58.5798 57.8689 58.9774 58.1454 59.3546C58.7153 63.77 61.538 64.332 64.7594 63.1194C64.8444 63.1273 64.9276 63.1359 65.0119 63.142C65.0942 65.1007 65.4314 67.0405 66.0149 68.9124C66.3626 70.0155 66.7991 71.0886 67.3202 72.1214L67.2995 72.0857C66.5905 70.9891 65.5241 70.1703 64.2804 69.7676C62.4398 69.1861 60.3156 69.5506 58.4553 69.2356C57.5598 69.0839 56.8663 70.0202 57.3259 70.8022C57.3333 70.8146 57.3406 70.8271 57.348 70.8396C57.6071 70.841 57.8658 70.8586 58.1226 70.8921C58.2698 70.9117 58.416 70.9364 58.5614 70.9663C58.7445 71.0049 58.9116 71.0977 59.0409 71.2326C59.1701 71.3676 59.2556 71.5384 59.286 71.7226C59.3163 71.9069 59.2903 72.096 59.2111 72.2652C59.132 72.4344 59.0035 72.5757 58.8425 72.6708L58.826 72.6805C58.8141 72.6874 58.8039 72.6936 58.792 72.7004C59.5366 73.455 60.4058 74.0761 61.3615 74.5364C63.4118 77.7696 66.3284 76.9876 68.8974 74.7795L68.8993 74.7788C69.7949 76.0651 70.822 77.2549 71.964 78.3293L77.0095 76.311C77.0051 76.2478 76.9982 76.1835 76.992 76.1211C76.5368 76.3372 76.0567 76.4969 75.5626 76.5965C75.7528 75.9883 75.9416 75.3765 76.1319 74.7682C76.1368 74.7563 76.141 74.7442 76.1445 74.7318C76.2402 74.4212 76.3384 74.1116 76.4341 73.801L76.434 73.8007C76.1554 73.0774 75.7846 72.3929 75.3307 71.7641L75.3305 71.764Z" fill="#F2F2F2"/>
<path d="M47.5999 76.1954L47.5419 76.1232C47.3755 75.054 47.5999 76.1954 47.5999 76.1954Z" fill="#2F2E41"/>
<path d="M50.5554 87.729H34.3916C33.1358 84.613 32.2641 82.3844 32.2641 82.3844C32.2641 82.3844 32.0525 84.5673 31.7504 87.729H17.1374C17.0006 79.1372 16.8091 70.3154 16.7461 67.5137L44.7948 68.1373L47.5847 71.6687C47.5943 71.7277 47.6038 71.7927 47.6157 71.8662C47.7286 72.5838 49.2473 80.2858 50.5554 87.729Z" fill="#3F3F3F"/>
<path d="M50.3108 27.2993L50.3081 27.2943C50.219 27.1291 50.0755 26.9997 49.9019 26.9277C48.1272 25.5533 46.1841 24.9268 44.0034 25.3553C43.6463 24.2765 43.3134 24.2765 43.3134 24.2765L38.5836 22.7173L37.9033 18.5695L26.2495 18.1758L25.1904 23.3518C25.1904 23.3518 18.6766 24.5173 18.6766 25.3601C18.6766 26.2029 19.7622 26.2029 18.6766 26.2029C17.5909 26.2029 17.3002 25.2397 16.3605 26.2029C16.28 26.2839 16.195 26.3602 16.106 26.4317C16.0951 26.4413 16.0831 26.4498 16.0722 26.4594C15.0102 27.2931 14.1757 28.3803 13.6455 29.6208C13.1153 30.8612 12.9065 32.2149 13.0385 33.557L15.0421 53.4509L17.1808 74.6788L46.4497 75.8949L48.4099 57.8311L50.4037 27.7762C50.4215 27.6115 50.3891 27.4453 50.3108 27.2993Z" fill="#CBCBCB"/>
<path d="M2.26416 80.6488C2.43126 81.0685 2.5999 81.3759 2.77004 81.528L59.5346 81.6484C59.7048 81.4963 59.8734 81.1889 60.0405 80.7692C62.0259 75.7838 58.2806 70.3778 52.9057 70.3676L9.4019 70.2852C4.03431 70.275 0.281451 75.6702 2.26416 80.6488Z" fill="white"/>
<path d="M59.581 81.7681L59.5348 81.768L2.72418 81.6474L2.68995 81.6169C2.51302 81.4587 2.3372 81.1564 2.15244 80.6926C1.68251 79.5327 1.50918 78.2744 1.64808 77.031C1.78697 75.7877 2.23373 74.5984 2.94805 73.5703C3.66126 72.521 4.62103 71.6619 5.74353 71.0682C6.86604 70.4744 8.11712 70.164 9.38751 70.1641H9.40247L52.9063 70.2465C54.1813 70.2489 55.4363 70.5629 56.5617 71.1609C57.6871 71.7589 58.6488 72.6228 59.3627 73.6772C60.076 74.7083 60.5217 75.9001 60.6596 77.1456C60.7976 78.3911 60.6235 79.6512 60.153 80.813C59.9682 81.2768 59.7923 81.5791 59.6155 81.7373L59.581 81.7681ZM6.56302 81.3956L54.6947 81.2499C58.0921 81.2397 60.5914 77.9662 59.5846 74.7274C59.4895 74.4034 59.3475 74.0951 59.1629 73.8122C58.4711 72.7904 57.5391 71.9531 56.4484 71.3735C55.3577 70.794 54.1415 70.4897 52.9058 70.4873L9.402 70.4049H9.38751C8.8351 70.4232 8.29036 70.5395 7.77871 70.7482C4.96862 71.8095 3.08954 74.4774 2.9333 77.4722C2.93131 77.5104 2.92932 77.5485 2.92735 77.5867C2.90281 78.0618 2.97227 78.537 3.13174 78.9853C3.29122 79.4336 3.53759 79.8461 3.8568 80.1993C4.17601 80.5526 4.56179 80.8396 4.99213 81.044C5.42247 81.2485 5.88894 81.3663 6.3649 81.3908C6.43088 81.3942 6.49692 81.3958 6.56302 81.3956Z" fill="#E6E6E6"/>
<path d="M70.5742 38.1021C69.9525 35.4959 70.0562 32.929 71.1207 30.4141C71.132 30.2585 71.2046 30.1137 71.3226 30.0115C71.4407 29.9092 71.5946 29.8579 71.7505 29.8688L77.5676 30.2808C77.7234 30.292 77.8685 30.3645 77.9709 30.4823C78.0733 30.6002 78.1247 30.7537 78.1138 30.9094L77.5673 38.5974C77.5561 38.753 77.4835 38.8978 77.3654 39C77.2473 39.1022 77.0935 39.1535 76.9376 39.1427L71.1205 38.7307C70.9646 38.7195 70.8195 38.647 70.7171 38.5292C70.6147 38.4113 70.5633 38.2578 70.5742 38.1021Z" fill="#F2F2F2"/>
<path d="M71.186 35.812C70.6885 34.5277 71.0066 32.7614 71.5374 30.8694C71.5479 30.7237 71.6159 30.5881 71.7265 30.4924C71.837 30.3966 71.9811 30.3486 72.1271 30.3588L77.1264 30.7128C77.2724 30.7233 77.4083 30.7912 77.5042 30.9016C77.6001 31.0119 77.6483 31.1558 77.6381 31.3015L77.1517 38.1428C77.1412 38.2885 77.0732 38.4241 76.9626 38.5199C76.8521 38.6156 76.7079 38.6637 76.5619 38.6535L73.465 38.4341C72.8147 38.3874 72.2095 38.085 71.7823 37.5934C71.355 37.1019 71.1406 36.4612 71.186 35.812Z" fill="white"/>
<path d="M74.6466 36.1468C74.4939 36.1206 74.3412 36.0944 74.1885 36.0682C74.2588 35.9025 74.2994 35.7257 74.3084 35.5459C74.3807 34.5837 74.388 33.6123 74.4266 32.6481C74.4256 32.6129 74.4144 32.5787 74.3943 32.5496C74.3743 32.5206 74.3462 32.4979 74.3136 32.4844C74.2809 32.4709 74.245 32.4672 74.2103 32.4735C74.1755 32.4799 74.1434 32.4962 74.1177 32.5204C73.7342 32.8375 73.3507 33.1546 72.9672 33.4716C72.7876 33.62 73.0449 33.8743 73.223 33.727C73.4983 33.4994 73.7736 33.2719 74.0488 33.0443C74.0236 33.6761 73.9983 34.3078 73.973 34.9396C73.9609 35.2428 73.9978 35.611 73.8735 35.896C73.8565 35.9345 73.8343 35.9704 73.8075 36.0029C73.6384 35.9739 73.4694 35.9449 73.3003 35.9159C73.1787 35.895 73.0242 35.9964 73.0777 36.1381C73.1941 36.4462 73.5371 36.5435 73.8313 36.4248C73.8572 36.4131 73.8823 36.3997 73.9064 36.3846L74.5504 36.4951C74.7782 36.5341 74.876 36.1861 74.6466 36.1468Z" fill="#3F3F3F"/>
<path d="M104.352 63.9887C103.73 61.3825 103.834 58.8155 104.898 56.3006C104.909 56.145 104.982 56.0002 105.1 55.898C105.218 55.7958 105.372 55.7445 105.528 55.7553L111.345 56.1673C111.501 56.1785 111.646 56.251 111.748 56.3689C111.851 56.4867 111.902 56.6403 111.891 56.7959L111.345 64.4839C111.333 64.6395 111.261 64.7843 111.143 64.8866C111.025 64.9888 110.871 65.0401 110.715 65.0292L104.898 64.6172C104.742 64.606 104.597 64.5335 104.494 64.4157C104.392 64.2979 104.341 64.1443 104.352 63.9887Z" fill="#F2F2F2"/>
<path d="M104.959 61.6987C104.462 60.4145 104.78 58.6482 105.311 56.7561C105.321 56.6104 105.389 56.4748 105.5 56.3791C105.61 56.2834 105.755 56.2353 105.901 56.2455L110.9 56.5995C111.046 56.61 111.182 56.6779 111.278 56.7883C111.374 56.8986 111.422 57.0425 111.412 57.1882L110.925 64.0295C110.915 64.1753 110.847 64.3109 110.736 64.4066C110.625 64.5023 110.481 64.5504 110.335 64.5402L107.238 64.3209C106.588 64.2741 105.983 63.9717 105.556 63.4801C105.128 62.9886 104.914 62.3479 104.959 61.6987Z" fill="white"/>
<path d="M108.226 60.3933C108.292 60.3623 108.355 60.3243 108.413 60.2798C108.568 60.1522 108.683 59.9825 108.743 59.7912C108.803 59.5999 108.807 59.3952 108.753 59.202C108.518 58.3419 107.487 58.3366 106.776 58.4401C106.546 58.4735 106.644 58.8216 106.872 58.7884C107.351 58.7187 108.104 58.6623 108.362 59.1852C108.421 59.308 108.442 59.4455 108.422 59.5802C108.403 59.7149 108.343 59.8408 108.252 59.9418C108.143 60.0513 107.999 60.1196 107.845 60.1351C107.695 60.0703 107.533 60.0402 107.371 60.0469C107.203 60.0548 107.11 60.2982 107.279 60.3834C107.43 60.4581 107.595 60.4971 107.763 60.4973C107.902 60.5643 108.019 60.6709 108.097 60.8037C108.176 60.9364 108.214 61.0895 108.205 61.2435C108.189 61.3486 108.153 61.4495 108.098 61.5405C108.043 61.6315 107.97 61.7108 107.885 61.7738C107.799 61.8369 107.702 61.8824 107.598 61.9079C107.495 61.9334 107.387 61.9383 107.282 61.9224L107.278 61.9217C107.05 61.876 106.953 62.2241 107.181 62.27C107.488 62.3276 107.805 62.2614 108.062 62.0858C108.32 61.9102 108.497 61.6397 108.555 61.3338C108.558 61.3172 108.561 61.3006 108.563 61.2839C108.578 61.1197 108.555 60.9543 108.496 60.8001C108.438 60.646 108.345 60.5069 108.226 60.3933Z" fill="#3F3F3F"/>
<path d="M97.8359 22.8112C97.2142 20.205 97.3179 17.6381 98.3825 15.1231C98.3937 14.9675 98.4663 14.8227 98.5844 14.7205C98.7024 14.6183 98.8563 14.567 99.0122 14.5778L104.829 14.9898C104.985 15.0011 105.13 15.0735 105.233 15.1914C105.335 15.3092 105.386 15.4628 105.376 15.6184L104.829 23.3065C104.818 23.462 104.745 23.6068 104.627 23.7091C104.509 23.8113 104.355 23.8626 104.199 23.8517L98.3822 23.4397C98.2263 23.4285 98.0813 23.356 97.9788 23.2382C97.8764 23.1204 97.825 22.9668 97.8359 22.8112Z" fill="#F2F2F2"/>
<path d="M98.4477 20.521C97.9502 19.2367 98.2683 17.4704 98.7991 15.5784C98.8096 15.4327 98.8776 15.2971 98.9882 15.2014C99.0987 15.1056 99.2428 15.0576 99.3889 15.0677L104.388 15.4218C104.534 15.4323 104.67 15.5002 104.766 15.6105C104.862 15.7209 104.91 15.8647 104.9 16.0105L104.413 22.8518C104.403 22.9975 104.335 23.1331 104.224 23.2289C104.114 23.3246 103.97 23.3727 103.824 23.3625L100.727 23.1431C100.076 23.0963 99.4712 22.794 99.044 22.3024C98.6168 21.8108 98.4023 21.1702 98.4477 20.521Z" fill="white"/>
<path d="M101.52 17.0776C101.008 16.9001 100.438 17.3046 100.38 17.8291C100.314 18.4235 100.954 18.8928 101.509 18.7312C101.732 18.6662 101.637 18.3176 101.413 18.3829C101.006 18.5014 100.573 18.0632 100.806 17.6715C100.859 17.577 100.94 17.5008 101.038 17.4532C101.135 17.4055 101.245 17.3887 101.352 17.4048C101.444 17.43 101.528 17.4762 101.598 17.5397C101.668 17.6031 101.722 17.6821 101.756 17.7702C101.955 18.2189 101.718 18.6744 101.404 19.0005C101.225 19.1864 101.015 19.331 100.821 19.5005C100.728 19.5713 100.65 19.661 100.593 19.7637C100.535 19.8664 100.501 19.98 100.49 20.097C100.495 20.2286 100.536 20.3562 100.609 20.4662C100.681 20.5762 100.783 20.6643 100.902 20.7209C101.21 20.8793 101.561 20.829 101.889 20.7762C102.119 20.7394 102.021 20.3913 101.793 20.4279C101.506 20.474 101.076 20.5439 100.895 20.2451C100.739 19.9893 101.06 19.7646 101.235 19.6285C101.674 19.2865 102.118 18.8448 102.184 18.2632C102.239 17.7868 101.996 17.2424 101.52 17.0776Z" fill="#3F3F3F"/>
<path d="M13.2461 52.269L16.1122 53.5573C14.7647 54.6481 12.7129 56.1158 10.7032 56.7948L7.51025 54.6216C6.32087 50.0439 7.04946 45.3266 8.47889 41.3377C9.27085 39.1212 10.3211 37.0053 11.6079 35.0335C11.4761 33.6914 11.685 32.3377 12.2151 31.0973C12.7453 29.8569 13.5798 28.7697 14.6417 27.9359C14.6538 27.9263 14.6646 27.9178 14.6755 27.9082C15.7332 28.8243 16.5971 29.9418 17.2168 31.1953C17.8366 32.4487 18.1996 33.8129 18.2846 35.2081L18.3486 36.2628L18.4764 38.341L18.8009 43.6482L14.9529 49.6201L13.2461 52.269Z" fill="#CBCBCB"/>
<path d="M21.4912 74.9267C21.5247 74.9687 21.5673 75.0025 21.6157 75.0256C21.6642 75.0488 21.7173 75.0607 21.771 75.0604H41.3536C41.4071 75.0603 41.46 75.0483 41.5084 75.0253C41.5567 75.0023 41.5993 74.9688 41.633 74.9273C41.6667 74.8858 41.6908 74.8373 41.7034 74.7853C41.716 74.7334 41.7168 74.6793 41.7058 74.6269L41.4018 73.1857C41.3892 73.127 41.3621 73.0723 41.3229 73.0266C41.2837 72.981 41.2337 72.9459 41.1775 72.9245C41.1367 72.9085 41.0934 72.9003 41.0496 72.9004H22.0738C22.03 72.9003 21.9867 72.9085 21.9459 72.9245C21.8897 72.9459 21.8397 72.981 21.8005 73.0266C21.7613 73.0723 21.7342 73.127 21.7216 73.1857L21.4176 74.6269C21.4068 74.6792 21.4078 74.7333 21.4205 74.7851C21.4332 74.837 21.4574 74.8854 21.4912 74.9267Z" fill="#3F3F3F"/>
<path d="M13.9922 42.6644V65.2107C13.9924 65.4981 14.1069 65.7736 14.3104 65.9767C14.514 66.1799 14.79 66.2941 15.0778 66.2944H48.5518C48.8396 66.2941 49.1156 66.1799 49.3192 65.9767C49.5227 65.7736 49.6372 65.4981 49.6374 65.2107V42.6644C49.6367 42.3774 49.5221 42.1023 49.3186 41.8994C49.1151 41.6965 48.8394 41.5824 48.5518 41.582H15.0778C14.7902 41.5824 14.5145 41.6965 14.311 41.8994C14.1075 42.1023 13.9929 42.3774 13.9922 42.6644Z" fill="#63388B"/>
<path d="M27.625 61.8717V74.22H36.292V61.8717C36.2922 61.7829 36.2638 61.6964 36.211 61.6248C36.1583 61.5533 36.0839 61.5006 35.9989 61.4744C35.9588 61.4612 35.9169 61.4546 35.8747 61.4551H28.0436C27.9328 61.4549 27.8264 61.4986 27.7479 61.5767C27.6694 61.6547 27.6252 61.7607 27.625 61.8713V61.8717ZM31.0074 66.1146C31.0097 65.8712 31.1082 65.6385 31.2814 65.4672C31.4547 65.2959 31.6887 65.1998 31.9326 65.1998C32.1765 65.1998 32.4105 65.2959 32.5837 65.4672C32.757 65.6385 32.8555 65.8712 32.8578 66.1146V67.5474C32.8565 67.7915 32.7585 68.0252 32.5851 68.1973C32.4118 68.3695 32.1771 68.4662 31.9326 68.4662C31.688 68.4662 31.4534 68.3695 31.28 68.1973C31.1067 68.0252 31.0086 67.7915 31.0074 67.5474V66.1146Z" fill="#3F3F3F"/>
<path d="M32.6869 17.7148C36.8525 17.7148 40.2293 14.3442 40.2293 10.1865C40.2293 6.02873 36.8525 2.6582 32.6869 2.6582C28.5214 2.6582 25.1445 6.02873 25.1445 10.1865C25.1445 14.3442 28.5214 17.7148 32.6869 17.7148Z" fill="#FFB6B6"/>
<path d="M41.7175 8.86894C40.9043 9.12092 40.1204 9.26945 39.5916 8.6037C39.0627 7.93794 39.2009 7.1767 38.4143 6.85576C37.7792 6.59583 37.0458 6.70723 36.4054 6.9486C36.2911 6.99104 36.1795 7.03878 36.0705 7.08652C36.0094 7.03347 35.9483 6.98309 35.8819 6.93533C35.3819 6.58046 34.7647 6.43048 34.1572 6.51626C34.6012 6.73033 34.9666 7.07827 35.2016 7.51091C34.9837 7.61965 34.7496 7.70093 34.5399 7.82124C31.6595 9.47418 28.4562 10.1399 28.7176 7.38095C29.5892 9.6726 28.9116 10.4895 27.6334 12.5823L27.5829 12.7043C27.7105 12.1553 26.8137 12.1292 26.039 12.317C25.4668 12.4558 25.8371 13.7871 26.5705 14.7042C24.9309 12.2401 22.4751 8.47796 24.5987 6.59052C24.9119 6.31214 25.1084 5.91939 25.1647 4.91421C25.1981 4.31822 26.2144 4.16888 26.7512 4.43412C26.8288 3.53799 27.1426 2.67831 27.6607 1.94231C28.1787 1.2063 28.8826 0.620159 29.7008 0.243343C31.3431 -0.486065 33.0133 0.635982 34.7977 0.853389C35.7877 0.974017 36.5386 1.37202 36.5781 2.63315C36.6044 3.47298 37.8722 3.77368 38.7013 3.92221C39.2275 4.01506 39.8201 3.95935 40.2399 4.2909C40.7262 4.6755 40.7316 5.35186 40.7289 6.00169C40.2531 5.98814 39.784 6.1165 39.3816 6.37036C39.8742 6.38272 40.3503 6.54979 40.7422 6.84781C40.7497 6.85245 40.7569 6.85778 40.7634 6.86372C40.907 7.95652 40.8485 8.18729 41.7175 8.86894Z" fill="#2F2E41"/>
<path d="M47.156 45.5761C50.1032 44.662 53.2582 45.6505 56.2216 44.8068C56.9031 44.6207 57.5474 44.3186 58.1261 43.9139C58.6198 43.5403 59.0833 43.1286 59.5124 42.6826C60.4038 41.8026 61.3718 40.8785 62.7111 40.8887C64.4747 40.9021 65.8289 42.2097 67.0044 43.3644C67.1706 43.5275 67.4266 43.2723 67.2603 43.109C66.1801 42.048 65.0131 40.9287 63.4755 40.612C62.7858 40.4593 62.0659 40.519 61.4108 40.7832C60.8425 41.0409 60.3234 41.3952 59.8766 41.8303C59.4031 42.2637 58.9664 42.7356 58.4865 43.1622C57.9854 43.6171 57.4083 43.9807 56.7813 44.2364C55.4228 44.7764 53.9326 44.8415 52.4878 44.8258C50.674 44.8061 48.817 44.6828 47.0598 45.2278C46.8381 45.2965 46.9327 45.6453 47.156 45.5761Z" fill="#3F3D56"/>
<path d="M67.6491 40.9306L68.5551 42.5247L68.9934 43.296C69.0714 43.4331 69.1514 43.5692 69.2272 43.7074C69.2738 43.7923 69.3756 43.9454 69.2784 44.0259C69.193 44.0675 69.0971 44.0824 69.003 44.0687C68.8433 44.0691 68.6835 44.0655 68.5239 44.0639L67.6254 44.0548L65.7685 44.036C65.7216 44.0377 65.6772 44.0574 65.6446 44.0911C65.612 44.1248 65.5938 44.1698 65.5938 44.2166C65.5938 44.2635 65.612 44.3085 65.6446 44.3422C65.6772 44.3759 65.7216 44.3956 65.7685 44.3972C66.8465 44.4081 67.9251 44.4309 69.003 44.4299C69.1911 44.4479 69.3793 44.3965 69.532 44.2855C69.6068 44.2112 69.6563 44.1153 69.6735 44.0114C69.6908 43.9075 69.6748 43.8008 69.628 43.7065C69.5217 43.475 69.3994 43.2511 69.2621 43.0366L68.8675 42.3424L67.9616 40.7483C67.9365 40.7087 67.897 40.6803 67.8514 40.6692C67.8058 40.6581 67.7576 40.6651 67.7171 40.6888C67.6766 40.7124 67.6468 40.7508 67.6341 40.796C67.6215 40.8411 67.6268 40.8894 67.6491 40.9306Z" fill="#3F3D56"/>
<path d="M79.6246 44.8372H71.2976C71.252 44.8373 71.2068 44.8286 71.1646 44.8113C71.1224 44.7941 71.0841 44.7687 71.0517 44.7366C71.0194 44.7045 70.9937 44.6664 70.9761 44.6244C70.9585 44.5824 70.9494 44.5374 70.9492 44.4919C70.9491 44.4464 70.9579 44.4013 70.9753 44.3592C70.9926 44.3171 71.0181 44.2788 71.0502 44.2466C71.0824 44.2143 71.1206 44.1887 71.1627 44.1712C71.2048 44.1537 71.2499 44.1446 71.2955 44.1445C71.2962 44.1445 71.2969 44.1445 71.2976 44.1445H79.6246C79.6702 44.1443 79.7154 44.1531 79.7575 44.1704C79.7997 44.1876 79.8381 44.213 79.8705 44.2451C79.9028 44.2772 79.9285 44.3153 79.9461 44.3573C79.9637 44.3992 79.9728 44.4443 79.973 44.4898C79.9731 44.5353 79.9643 44.5804 79.9469 44.6225C79.9296 44.6646 79.9041 44.7029 79.872 44.7351C79.8398 44.7674 79.8016 44.793 79.7595 44.8105C79.7174 44.828 79.6723 44.8371 79.6267 44.8372C79.626 44.8372 79.6253 44.8372 79.6246 44.8372Z" fill="#E6E6E6"/>
<path d="M79.6242 50.4153H71.2972C71.2517 50.4154 71.2065 50.4066 71.1644 50.3893C71.1222 50.372 71.0839 50.3466 71.0516 50.3146C71.0193 50.2825 70.9936 50.2444 70.976 50.2025C70.9585 50.1605 70.9494 50.1155 70.9492 50.07C70.9491 50.0245 70.9579 49.9795 70.9752 49.9374C70.9925 49.8953 71.018 49.8571 71.0501 49.8248C71.0822 49.7926 71.1204 49.7669 71.1624 49.7494C71.2045 49.7319 71.2496 49.7228 71.2951 49.7227C71.2958 49.7227 71.2965 49.7227 71.2972 49.7227H79.6242C79.6698 49.7225 79.7149 49.7313 79.757 49.7486C79.7992 49.7659 79.8375 49.7913 79.8698 49.8233C79.9021 49.8554 79.9278 49.8935 79.9454 49.9355C79.9629 49.9774 79.9721 50.0224 79.9722 50.0679C79.9723 50.1134 79.9635 50.1585 79.9462 50.2005C79.9289 50.2426 79.9034 50.2808 79.8713 50.3131C79.8392 50.3454 79.801 50.371 79.759 50.3885C79.7169 50.406 79.6718 50.4151 79.6263 50.4153C79.6256 50.4153 79.6249 50.4153 79.6242 50.4153Z" fill="#E6E6E6"/>
<path d="M87.7989 47.6262H71.2976C71.252 47.6264 71.2068 47.6176 71.1646 47.6004C71.1225 47.5831 71.0841 47.5577 71.0517 47.5257C71.0194 47.4936 70.9937 47.4555 70.9761 47.4135C70.9585 47.3715 70.9494 47.3265 70.9492 47.281C70.9491 47.2354 70.9579 47.1904 70.9753 47.1483C70.9926 47.1062 71.0181 47.0679 71.0502 47.0356C71.0824 47.0034 71.1206 46.9778 71.1627 46.9602C71.2048 46.9427 71.2499 46.9337 71.2955 46.9336C71.2962 46.9336 71.2969 46.9336 71.2976 46.9336H87.7989C87.8445 46.9334 87.8897 46.9422 87.9319 46.9594C87.9741 46.9767 88.0124 47.0021 88.0448 47.0341C88.0771 47.0662 88.1029 47.1043 88.1204 47.1463C88.138 47.1883 88.1472 47.2333 88.1473 47.2789C88.1474 47.3244 88.1386 47.3695 88.1212 47.4116C88.1039 47.4537 88.0784 47.4919 88.0463 47.5242C88.0141 47.5564 87.9759 47.5821 87.9338 47.5996C87.8917 47.6171 87.8466 47.6261 87.801 47.6262C87.8003 47.6262 87.7996 47.6262 87.7989 47.6262Z" fill="#E6E6E6"/>
<path d="M76.7507 41.5662C78.5827 39.0872 81.7114 38.0183 83.5982 35.5864C84.0369 35.0336 84.3767 34.4093 84.6028 33.7411C84.7788 33.1482 84.9079 32.5425 84.9889 31.9294C85.1849 30.6934 85.4165 29.3765 86.5016 28.5929C87.9305 27.561 89.7975 27.8139 91.4298 28.0492C91.4764 28.0547 91.5234 28.0419 91.5607 28.0135C91.5981 27.9851 91.6229 27.9433 91.63 27.897C91.6371 27.8506 91.6259 27.8034 91.5987 27.7651C91.5715 27.7269 91.5305 27.7007 91.4844 27.6921C89.9845 27.4759 88.3799 27.2641 86.9532 27.918C86.3069 28.2028 85.7623 28.6765 85.3913 29.2766C85.0864 29.8203 84.8784 30.4127 84.7766 31.0274C84.6524 31.6565 84.5805 32.2949 84.447 32.9224C84.3133 33.5851 84.0641 34.2193 83.7107 34.796C82.9366 36.0342 81.7746 36.9677 80.6012 37.8093C79.1281 38.8658 77.5588 39.8644 76.4665 41.3424C76.3287 41.5289 76.6119 41.754 76.7507 41.5662Z" fill="#3F3D56"/>
<path d="M90.506 25.7057L92.1819 26.4544L92.9929 26.8166C93.137 26.881 93.2822 26.9433 93.4254 27.0099C93.5133 27.0507 93.6862 27.1139 93.6556 27.2362C93.6348 27.3195 93.523 27.3865 93.4592 27.4336C93.3307 27.5282 93.1999 27.6199 93.0703 27.713L92.341 28.2369L90.8338 29.3196C90.797 29.3486 90.7729 29.3908 90.7666 29.4372C90.7604 29.4836 90.7724 29.5306 90.8002 29.5684C90.828 29.6061 90.8694 29.6316 90.9156 29.6395C90.9619 29.6473 91.0094 29.637 91.0481 29.6106C91.9231 28.982 92.8056 28.3627 93.6736 27.7246C93.8357 27.6278 93.9569 27.4752 94.014 27.2954C94.0302 27.1914 94.0132 27.0849 93.9654 26.991C93.9176 26.8971 93.8415 26.8205 93.7477 26.7722C93.5247 26.6485 93.2934 26.5405 93.0553 26.4488L92.3255 26.1227L90.6496 25.3741C90.6058 25.3569 90.5572 25.3574 90.5138 25.3755C90.4705 25.3935 90.4358 25.4276 90.4172 25.4706C90.3986 25.5136 90.3974 25.5622 90.414 25.6061C90.4306 25.6499 90.4636 25.6856 90.506 25.7057Z" fill="#3F3D56"/>
<path d="M105.558 27.6184H97.2312C97.1856 27.6186 97.1404 27.6098 97.0982 27.5926C97.056 27.5753 97.0177 27.5499 96.9853 27.5179C96.953 27.4858 96.9272 27.4477 96.9097 27.4057C96.8921 27.3637 96.883 27.3187 96.8828 27.2731C96.8827 27.2276 96.8915 27.1825 96.9089 27.1404C96.9262 27.0983 96.9517 27.0601 96.9838 27.0278C97.016 26.9956 97.0542 26.9699 97.0963 26.9524C97.1384 26.9349 97.1835 26.9259 97.2291 26.9258C97.2298 26.9258 97.2305 26.9258 97.2312 26.9258H105.558C105.604 26.9256 105.649 26.9344 105.691 26.9516C105.733 26.9689 105.772 26.9943 105.804 27.0263C105.836 27.0584 105.862 27.0965 105.88 27.1385C105.897 27.1805 105.906 27.2255 105.907 27.271C105.907 27.3166 105.898 27.3616 105.881 27.4037C105.863 27.4458 105.838 27.4841 105.806 27.5164C105.773 27.5486 105.735 27.5742 105.693 27.5918C105.651 27.6093 105.606 27.6183 105.56 27.6184C105.56 27.6184 105.559 27.6184 105.558 27.6184Z" fill="#3F3F3F"/>
<path d="M83.1453 52.5004C84.9773 54.9794 88.1059 56.0483 89.9927 58.4801C90.4314 59.033 90.7713 59.6573 90.9974 60.3255C91.1734 60.9183 91.3025 61.5241 91.3835 62.1371C91.5794 63.3732 91.811 64.69 92.8961 65.4736C94.325 66.5055 96.192 66.2526 97.8243 66.0174C97.871 66.0119 97.9179 66.0247 97.9553 66.0531C97.9927 66.0815 98.0175 66.1232 98.0246 66.1696C98.0317 66.2159 98.0204 66.2632 97.9933 66.3014C97.9661 66.3396 97.9251 66.3658 97.8789 66.3745C96.379 66.5906 94.7745 66.8024 93.3477 66.1485C92.7014 65.8638 92.1568 65.39 91.7858 64.7899C91.4809 64.2462 91.2729 63.6539 91.1711 63.0392C91.0469 62.41 90.9751 61.7716 90.8415 61.1442C90.7078 60.4814 90.4586 59.8473 90.1052 59.2705C89.3311 58.0323 88.1692 57.0988 86.9957 56.2572C85.5227 55.2008 83.9533 54.2022 82.8611 52.7242C82.7233 52.5377 83.0065 52.3126 83.1453 52.5004Z" fill="#3F3D56"/>
<path d="M96.9005 68.3602L98.5764 67.6115L99.3874 67.2492C99.5315 67.1849 99.6767 67.1225 99.8199 67.056C99.9078 67.0152 100.081 66.952 100.05 66.8297C100.029 66.7464 99.9175 66.6794 99.8537 66.6323C99.7252 66.5376 99.5943 66.446 99.4647 66.3529L98.7354 65.829L97.2283 64.7463C97.1914 64.7173 97.1674 64.6751 97.1611 64.6287C97.1548 64.5823 97.1669 64.5352 97.1947 64.4975C97.2224 64.4598 97.2638 64.4343 97.3101 64.4264C97.3563 64.4185 97.4039 64.4289 97.4426 64.4553C98.3176 65.0838 99.2 65.7032 100.068 66.3413C100.23 66.438 100.351 66.5907 100.408 66.7704C100.425 66.8745 100.408 66.981 100.36 67.0749C100.312 67.1688 100.236 67.2453 100.142 67.2937C99.9192 67.4173 99.6878 67.5254 99.4498 67.6171L98.72 67.9431L97.044 68.6918C97.0003 68.7089 96.9517 68.7084 96.9083 68.6904C96.865 68.6724 96.8304 68.6383 96.8117 68.5952C96.7931 68.5522 96.792 68.5037 96.8085 68.4598C96.8251 68.416 96.858 68.3802 96.9005 68.3602Z" fill="#3F3D56"/>
<path d="M111.952 67.472H103.625C103.534 67.4724 103.445 67.4362 103.38 67.3716C103.315 67.3069 103.278 67.2191 103.277 67.1273C103.277 67.0355 103.313 66.9473 103.378 66.8821C103.442 66.8168 103.53 66.7799 103.622 66.7794C103.623 66.7794 103.624 66.7794 103.625 66.7794H111.952C112.044 66.7791 112.133 66.8153 112.198 66.8799C112.263 66.9446 112.3 67.0324 112.301 67.1242C112.301 67.216 112.265 67.3042 112.2 67.3694C112.135 67.4346 112.047 67.4715 111.956 67.472C111.955 67.4721 111.953 67.4721 111.952 67.472Z" fill="#3F3F3F"/>
<path d="M17.0289 54.0111C16.8712 54.3229 16.6476 54.5968 16.3734 54.8139C16.0993 55.0309 15.7812 55.1859 15.4411 55.2682C15.1011 55.3505 14.7471 55.358 14.4039 55.2904C14.0606 55.2227 13.7361 55.0814 13.4529 54.8762L4.78043 58.9956L4.19922 56.5694L13.0313 51.3745C13.4127 50.9244 13.9463 50.6295 14.5309 50.5459C15.1155 50.4622 15.7106 50.5955 16.2034 50.9205C16.6961 51.2455 17.0523 51.7396 17.2045 52.3093C17.3566 52.8789 17.2941 53.4844 17.0289 54.0111Z" fill="#FFB6B6"/>
<path d="M13.6887 41.4989L7.58616 53.9448L10.1652 52.7781L11.9601 51.9654L12.86 55.3776C12.86 55.3776 12.2641 55.9555 11.3244 56.7152C9.97698 57.8061 7.92512 59.2738 5.91548 59.9528C4.3425 60.485 2.79727 60.5344 1.63684 59.5423C-0.565804 57.6592 1.58739 50.1811 3.6682 44.4873C5.06144 40.6742 6.4209 37.663 6.4209 37.663C6.4209 33.6416 14.2398 27.8591 15.6909 27.0681C16.5196 26.6178 16.7488 27.2736 16.7488 27.2736L12.2013 33.9185L13.5608 39.4208L13.9456 40.9752L13.6887 41.4989Z" fill="#CBCBCB"/>
</g>
<defs>
<clipPath id="clip0_1438_13663">
<rect width="112.302" height="96" fill="white"/>
</clipPath>
</defs>
</svg>
