<svg width="51" height="51" viewBox="0 0 51 51" fill="none" xmlns="http://www.w3.org/2000/svg">
<path d="M45.6815 9.91483C37.074 -1.23151 21.0592 -3.28919 9.9124 5.31996C-1.2327 13.9291 -3.28833 29.944 5.32083 41.0891C13.9316 52.2338 29.9477 54.2882 41.0912 45.6774C52.2318 37.0682 54.2878 21.0583 45.6815 9.91483Z" fill="#F37036"/>
<path d="M36.6263 9.13234C35.7484 9.20255 34.9161 9.55185 34.251 10.1291C33.4727 10.8051 32.976 11.7482 32.8588 12.7723C32.7417 13.7965 33.0126 14.8274 33.6182 15.6616C34.2233 16.496 35.119 17.0734 36.1288 17.2799C37.1385 17.4864 38.189 17.307 39.0731 16.7772H39.0739L39.138 16.8413C39.4292 16.6744 39.7001 16.4745 39.9454 16.2455C40.7021 15.4451 41.1184 14.382 41.1065 13.2806C41.0945 12.1791 40.6552 11.1254 39.8813 10.3416V10.3407L36.2475 13.952L36.1834 13.8883L39.8172 10.2754C39.3965 9.86991 38.8945 9.55838 38.3444 9.36146C37.7944 9.16455 37.2087 9.08673 36.6263 9.13317V9.13234ZM31.842 15.0437C30.0999 15.0408 27.2554 17.0155 20.3098 23.961L20.3444 23.9963C20.3066 23.9832 20.2684 23.9819 20.2684 23.9819L17.6535 26.5738C17.5864 26.6376 17.5419 26.7217 17.5269 26.8131C17.512 26.9046 17.5273 26.9984 17.5705 27.0804C17.6138 27.1624 17.6826 27.2279 17.7666 27.2672C17.8505 27.3064 17.945 27.3171 18.0356 27.2977L22.52 26.3412C22.5399 26.3227 22.5532 26.2982 22.5578 26.2714L22.6572 26.3741L21.1287 27.8902H21.0548L11.9801 37.0364L14.8916 39.8402C14.9729 39.9139 15.0756 39.9595 15.1847 39.9705C15.2939 39.9816 15.4037 39.9574 15.498 39.9015C15.5932 39.8461 15.6694 39.7633 15.7167 39.6639C15.764 39.5644 15.7801 39.4531 15.7631 39.3443L15.3378 37.4954C15.3111 37.4583 15.2967 37.4137 15.2967 37.368C15.2967 37.3223 15.3111 37.2777 15.3378 37.2406C19.3127 35.3456 23.0091 32.9148 26.3239 30.0161L24.4606 28.152L24.4959 28.1462L23.3906 27.0413L23.4613 26.9699L23.5361 27.0463L23.4975 27.0837L26.4299 30.0802V30.079C32.0507 24.7564 36.0404 20.478 35.0029 17.5985C34.9556 17.2542 34.7957 16.9352 34.5481 16.6913V16.6929C34.485 16.6463 34.4187 16.6043 34.3496 16.5672C34.3155 16.5311 34.2855 16.4941 34.2493 16.4587L34.2222 16.4859C34.1459 16.4397 34.0659 16.3999 33.9831 16.3667L34.1018 16.2467C33.3639 15.5893 32.7542 15.0453 31.842 15.0428V15.0437ZM11.9168 37.091L9.79216 39.2161V39.2178C9.71593 39.265 9.65666 39.3352 9.62291 39.4183C9.58916 39.5013 9.58268 39.593 9.60439 39.68C9.62535 39.767 9.6732 39.8451 9.74114 39.9033C9.80908 39.9615 9.89365 39.9968 9.98281 40.0042L15.1895 40.3637L11.9168 37.091Z" fill="white"/>
<path d="M36.9843 8.78223C35.7919 8.78088 34.6467 9.24874 33.7963 10.0847C33.1914 10.704 32.7772 11.4841 32.6031 12.3321C32.429 13.1801 32.5023 14.0603 32.8143 14.8678C30.8663 14.0337 28.231 15.4882 20.0335 23.684C20.0278 23.6966 20.0227 23.7095 20.0183 23.7226C20.0015 23.73 19.9851 23.7385 19.9694 23.7481L17.3772 26.3629C17.2529 26.4849 17.1713 26.6437 17.1444 26.8157C17.1176 26.9877 17.1469 27.1638 17.228 27.3178C17.3004 27.4397 17.4029 27.541 17.5258 27.6118C17.6486 27.6826 17.7876 27.7206 17.9294 27.7221L18.058 27.6387L21.5192 26.9004L19.8634 28.5714C19.854 28.5935 19.8466 28.6163 19.8412 28.6396L11.7263 36.7746C11.694 36.8018 11.6672 36.835 11.6475 36.8724L9.55773 38.9638C9.4537 39.0738 9.38262 39.2108 9.35255 39.3592C9.32248 39.5075 9.33463 39.6614 9.38762 39.8032C9.44231 39.944 9.53475 40.067 9.65479 40.1587C9.77482 40.2504 9.91781 40.3072 10.068 40.323L15.2525 40.6846C15.3411 40.6538 15.4165 40.5936 15.4662 40.514C15.5105 40.452 15.5343 40.3777 15.5343 40.3014C15.5343 40.2252 15.5105 40.1508 15.4662 40.0888L15.4555 40.0785C15.5676 40.0202 15.6663 39.939 15.7452 39.8402C15.8283 39.7321 15.8865 39.6069 15.9153 39.4736C15.9442 39.3403 15.943 39.2022 15.912 39.0694L15.5077 37.349C19.3866 35.4954 23.021 33.1684 26.3278 30.4212C26.3597 30.4398 26.394 30.4541 26.4297 30.4635C26.534 30.4557 26.6318 30.4109 26.7058 30.337C32.2732 25.0654 35.5458 21.4529 35.5458 18.585C35.5582 18.1872 35.4982 17.7904 35.3688 17.414C35.8706 17.6217 36.4058 17.7372 36.9486 17.755L36.9424 17.7567C37.6902 17.7341 38.4211 17.5296 39.072 17.1609L39.0737 17.1613C39.158 17.1863 39.2486 17.1782 39.3272 17.1387C39.6413 16.9537 39.9276 16.7252 40.1777 16.4599C40.6015 16.0442 40.9381 15.5482 41.168 15.0009C41.3978 14.4536 41.5162 13.8659 41.5163 13.2723C41.5163 12.6787 41.3979 12.0911 41.1681 11.5438C40.9384 10.9965 40.6018 10.5004 40.1781 10.0847C40.1629 10.0711 40.1467 10.0586 40.1296 10.0473C39.2837 9.23539 38.1565 8.78219 36.9839 8.78264L36.9843 8.78223ZM36.9486 9.51031C37.7789 9.51526 38.5849 9.79142 39.2438 10.2967L35.9288 13.6318C35.9176 13.6446 35.9071 13.658 35.8976 13.6721C35.8378 13.7326 35.8028 13.8132 35.7994 13.8981C35.7993 13.9494 35.8109 14.0001 35.8331 14.0463C35.8554 14.0926 35.8878 14.1332 35.928 14.1652H35.9288L38.4352 16.6715C37.7491 16.9709 36.9887 17.0561 36.2534 16.9158C35.5182 16.7755 34.8425 16.4164 34.3149 15.8855C33.2523 14.8172 32.9442 13.2132 33.5124 11.8215C34.0807 10.4286 35.4353 9.51853 36.9486 9.51031ZM39.8741 10.9204C40.4161 11.5762 40.7116 12.401 40.7094 13.2518C40.7078 14.2485 40.3106 15.2038 39.6049 15.9077C39.4634 16.0408 39.3127 16.1637 39.1538 16.2754L37.131 14.2839L36.7353 13.8882L36.8442 13.7793L39.8736 10.9196L39.8741 10.9204ZM39.7237 12.6433C39.6493 12.6199 39.569 12.6244 39.4977 12.656C39.4272 12.6925 39.374 12.7554 39.3498 12.831C39.3379 12.8688 39.3336 12.9085 39.3371 12.9479C39.3406 12.9873 39.3519 13.0257 39.3703 13.0607C39.4432 13.2143 39.4718 13.385 39.4532 13.554C39.4346 13.7229 39.3693 13.8833 39.2647 14.0172C39.2379 14.0431 39.2169 14.0743 39.2031 14.1089C39.1893 14.1435 39.183 14.1806 39.1846 14.2178C39.1862 14.2934 39.2134 14.3657 39.2647 14.4199C39.3195 14.4408 39.3801 14.4408 39.4348 14.4199C39.4842 14.4322 39.5361 14.4308 39.5847 14.4158C39.6334 14.4008 39.677 14.3728 39.7109 14.3349C39.8859 14.1205 39.9967 13.8611 40.0305 13.5865C40.0643 13.3119 40.0197 13.0333 39.902 12.783V12.7846C39.8618 12.7173 39.7984 12.667 39.7237 12.6433ZM31.8031 15.4056C32.2989 15.4225 32.776 15.5992 33.1632 15.9093C32.7463 15.9695 32.3599 16.1626 32.0616 16.4599L22.6907 25.7889L20.8516 23.9498C25.7114 19.113 28.6829 16.5865 30.5302 15.7586C30.9109 15.5189 31.3534 15.3964 31.8031 15.4056ZM33.4323 16.6218C33.7469 16.622 34.0487 16.7467 34.2717 16.9686C34.3901 17.0801 34.4835 17.2154 34.5457 17.3656C34.608 17.5158 34.6377 17.6775 34.6329 17.8401C34.6275 18.002 34.5888 18.1612 34.5191 18.3075C34.4495 18.4538 34.3504 18.5842 34.2282 18.6906L24.2643 27.3626L23.1891 26.2873L32.5929 16.9686C32.816 16.7469 33.1177 16.6219 33.4323 16.6218ZM34.6625 19.3739C33.9681 22.1276 30.2878 25.8588 26.4502 29.4844L24.8983 27.9341L34.6625 19.3739ZM20.3096 24.493L20.4222 24.604L21.8656 26.0474L17.9088 26.8938L20.3096 24.493ZM22.6898 26.8926L22.6915 26.8942L23.1714 27.3852L23.1788 27.4197L23.2108 27.4246L23.3127 27.529L23.6497 27.8742L21.4371 28.1453L22.6898 26.8926ZM24.2787 28.5673L25.7488 30.0366C22.4981 32.7397 18.9308 35.0378 15.1256 36.8802C15.002 36.939 14.9027 37.0389 14.8445 37.1627C14.7863 37.2866 14.7728 37.4267 14.8063 37.5594L15.2316 39.4084C15.2472 39.4301 15.2557 39.4562 15.2557 39.4829C15.2557 39.5097 15.2472 39.5358 15.2316 39.5575C15.2082 39.5785 15.1779 39.5901 15.1465 39.5901C15.1151 39.5901 15.0848 39.5785 15.0615 39.5575L12.5543 37.0298L20.2821 29.1886L24.2787 28.5673ZM11.9799 37.582L12.3369 37.9165L14.1826 39.7621L10.0672 39.4959L11.9799 37.582Z" fill="#F37036"/>
</svg>
