<svg width="68" height="48" viewBox="0 0 68 48" fill="none" xmlns="http://www.w3.org/2000/svg">
<path d="M28.2975 5.19099C30.4905 2.90592 33.5437 1.48872 36.9203 1.48872C41.4093 1.48872 45.3256 3.99182 47.411 7.70764C49.2765 6.87422 51.2972 6.44472 53.3404 6.44732C61.4365 6.44732 68 13.068 68 21.2348C68 29.4027 61.4365 36.0237 53.3404 36.0237C52.3707 36.0242 51.4033 35.9277 50.4528 35.7357C48.616 39.0118 45.1164 41.225 41.0993 41.225C39.4748 41.2272 37.8712 40.8582 36.4111 40.1461C34.5493 44.5253 30.2116 47.5961 25.156 47.5961C19.8913 47.5961 15.4047 44.2647 13.6822 39.5927C12.9298 39.7528 12.1499 39.836 11.3498 39.836C5.08173 39.836 2.83859e-05 34.7022 2.83859e-05 28.3682C-0.00443364 26.3608 0.517222 24.3874 1.51301 22.6445C2.5088 20.9015 3.94396 19.45 5.67547 18.4345C4.95669 16.7793 4.58668 14.9938 4.58851 13.1892C4.58851 5.9049 10.5022 0 17.7966 0C22.0791 0 25.8848 2.03619 28.2975 5.19099Z" fill="#00A1E0"/>
<path d="M9.84933 24.6823C9.80678 24.7937 9.86475 24.8168 9.87858 24.8365C10.0062 24.9293 10.136 24.9961 10.2668 25.0705C10.9605 25.4388 11.6151 25.5465 12.3 25.5465C13.6949 25.5465 14.5609 24.8046 14.5609 23.61V23.5868C14.5609 22.4826 13.5835 22.0814 12.6662 21.7921L12.5471 21.753C11.8555 21.5283 11.2588 21.3347 11.2588 20.8793V20.8553C11.2588 20.4658 11.6074 20.1789 12.148 20.1789C12.7486 20.1789 13.4615 20.3783 13.9206 20.6323C13.9206 20.6323 14.0552 20.7195 14.1046 20.5887C14.1318 20.519 14.3642 19.8933 14.3886 19.8255C14.4147 19.7519 14.3681 19.6977 14.3208 19.6687C13.7967 19.3496 13.0722 19.1318 12.3224 19.1318L12.1828 19.1329C10.9062 19.1329 10.015 19.904 10.015 21.0093V21.0324C10.015 22.1978 10.9982 22.5754 11.9193 22.8389L12.0677 22.8846C12.7388 23.0907 13.3173 23.268 13.3173 23.7408V23.7639C13.3173 24.196 12.9414 24.5177 12.3349 24.5177C12.0996 24.5177 11.349 24.5129 10.538 24.0003C10.4401 23.9431 10.383 23.9017 10.3075 23.8562C10.2676 23.8309 10.1681 23.7871 10.1245 23.9189L9.84933 24.6823ZM30.2697 24.6823C30.2272 24.7937 30.2852 24.8168 30.299 24.8365C30.4266 24.9293 30.5564 24.9961 30.6872 25.0705C31.3806 25.4388 32.0355 25.5465 32.7205 25.5465C34.1153 25.5465 34.9813 24.8046 34.9813 23.61V23.5868C34.9813 22.4826 34.0039 22.0814 33.0866 21.7921L32.9675 21.753C32.2759 21.5283 31.679 21.3347 31.679 20.8793V20.8553C31.679 20.4658 32.0278 20.1789 32.5684 20.1789C33.169 20.1789 33.8819 20.3783 34.3411 20.6323C34.3411 20.6323 34.4756 20.7195 34.5251 20.5887C34.5522 20.519 34.7846 19.8933 34.8088 19.8255C34.8351 19.7519 34.7886 19.6977 34.741 19.6687C34.2172 19.3496 33.4923 19.1318 32.7428 19.1318L32.6032 19.1329C31.3264 19.1329 30.4354 19.904 30.4354 21.0093V21.0324C30.4354 22.1978 31.4184 22.5754 32.3397 22.8389L32.4878 22.8846C33.1592 23.0907 33.7386 23.268 33.7386 23.7408V23.7639C33.7386 24.196 33.3615 24.5177 32.7553 24.5177C32.1189 24.5223 31.4949 24.3426 30.9584 24.0003C30.8605 23.9431 30.8023 23.9035 30.7289 23.8562C30.7037 23.8397 30.5854 23.794 30.5447 23.9189L30.2697 24.6823ZM44.2101 22.3427C44.2101 23.0181 44.0841 23.5499 43.8363 23.9256C43.5911 24.2978 43.2202 24.4786 42.7028 24.4786C42.1846 24.4786 41.8155 24.2986 41.5744 23.9256C41.3303 23.5507 41.2064 23.0181 41.2064 22.3427C41.2064 21.6687 41.3303 21.1377 41.5744 20.766C41.8155 20.3977 42.1846 20.2185 42.7028 20.2185C43.2202 20.2185 43.5909 20.3977 43.8371 20.7657C44.0844 21.138 44.2101 21.6687 44.2101 22.3427ZM45.3745 21.0912C45.2601 20.7048 45.082 20.364 44.8445 20.08C44.6071 19.7952 44.3069 19.5668 43.9504 19.4001C43.5949 19.2345 43.1745 19.1502 42.7028 19.1502C42.23 19.1502 41.8097 19.2345 41.4542 19.4001C41.0979 19.5666 40.7974 19.7952 40.5592 20.08C40.3228 20.3648 40.1444 20.7059 40.0293 21.0912C39.916 21.4759 39.8591 21.8963 39.8591 22.3427C39.8591 22.7894 39.916 23.2109 40.0293 23.5943C40.1447 23.9798 40.3217 24.3207 40.5602 24.6057C40.8034 24.8951 41.1091 25.1256 41.4542 25.2798C41.8105 25.4417 42.23 25.5239 42.7028 25.5239C43.1745 25.5239 43.5941 25.4414 43.9504 25.2798C44.2956 25.1256 44.6013 24.8951 44.8445 24.6057C45.082 24.3218 45.2601 23.9809 45.3745 23.5943C45.4888 23.2098 45.546 22.7886 45.546 22.3427C45.546 21.8974 45.4888 21.4759 45.3745 21.0912ZM54.9356 24.2986C54.8971 24.1854 54.7875 24.2279 54.7875 24.2279C54.6182 24.2928 54.4379 24.3529 54.2462 24.3829C54.0348 24.4141 53.8214 24.4293 53.6078 24.4284C53.0441 24.4284 52.5963 24.2609 52.2757 23.9296C51.9542 23.5983 51.7739 23.0628 51.7758 22.3379C51.7779 21.6785 51.9369 21.1824 52.2225 20.8046C52.5065 20.4289 52.9383 20.2361 53.5147 20.2361C53.9952 20.2361 54.3613 20.2911 54.745 20.4124C54.745 20.4124 54.837 20.4522 54.8806 20.3318C54.9822 20.0492 55.0579 19.8465 55.1664 19.5357C55.1973 19.4474 55.1218 19.4097 55.0946 19.3991C54.9436 19.34 54.5871 19.244 54.3177 19.2034C54.0659 19.1648 53.7716 19.1443 53.444 19.1443C52.9548 19.1443 52.519 19.2276 52.1459 19.3943C51.7739 19.5599 51.4583 19.7886 51.2084 20.0734C50.9584 20.3581 50.7686 20.699 50.6418 21.0845C50.5157 21.469 50.4519 21.8915 50.4519 22.3379C50.4519 23.3037 50.7125 24.0846 51.2267 24.656C51.742 25.2295 52.5163 25.5209 53.5253 25.5209C54.122 25.5209 54.7344 25.3999 55.1739 25.2266C55.1739 25.2266 55.2584 25.1859 55.2217 25.0881L54.9356 24.2986ZM56.9732 21.6961C57.0282 21.3212 57.1319 21.0093 57.2917 20.7663C57.5329 20.3972 57.9009 20.1946 58.4183 20.1946C58.9354 20.1946 59.2774 20.398 59.5225 20.7663C59.6852 21.0093 59.756 21.3347 59.7839 21.6961H56.9732ZM60.8932 20.8718C60.7943 20.4988 60.5491 20.122 60.3885 19.9497C60.1346 19.6764 59.8868 19.4855 59.6406 19.3791C59.2834 19.2274 58.8992 19.1496 58.5111 19.1504C58.0192 19.1504 57.5725 19.2329 57.2103 19.403C56.8471 19.5737 56.5419 19.8061 56.3026 20.096C56.0633 20.3844 55.8833 20.7285 55.7689 21.1188C55.6535 21.507 55.5956 21.9306 55.5956 22.377C55.5956 22.8314 55.6557 23.2545 55.7748 23.6352C55.8947 24.0189 56.0867 24.3571 56.3465 24.6368C56.6049 24.9187 56.9381 25.1396 57.3372 25.2936C57.7333 25.4467 58.2146 25.5262 58.7677 25.5252C59.9059 25.5212 60.5058 25.2675 60.7525 25.1309C60.7961 25.1069 60.8379 25.0641 60.7855 24.9421L60.5279 24.2205C60.4893 24.1128 60.3798 24.1527 60.3798 24.1527C60.0979 24.2571 59.6969 24.4451 58.7621 24.4433C58.1508 24.4422 57.6974 24.2619 57.4137 23.9801C57.1221 23.6916 56.9798 23.2675 56.9545 22.6687L60.8961 22.6724C60.8961 22.6724 60.9998 22.6706 61.0104 22.5698C61.0142 22.5273 61.146 21.7599 60.8932 20.8718ZM25.4074 21.6961C25.4635 21.3212 25.5661 21.0093 25.7262 20.7663C25.9674 20.3972 26.3354 20.1946 26.8525 20.1946C27.3699 20.1946 27.7119 20.398 27.9578 20.7663C28.1197 21.0093 28.1905 21.3347 28.2184 21.6961H25.4074ZM29.3266 20.8718C29.2277 20.4988 28.9836 20.122 28.8228 19.9497C28.5691 19.6764 28.321 19.4855 28.0751 19.3791C27.7179 19.2274 27.3337 19.1496 26.9456 19.1504C26.4545 19.1504 26.007 19.2329 25.6448 19.403C25.2814 19.5737 24.9764 19.8061 24.7371 20.096C24.4978 20.3844 24.3178 20.7285 24.2034 21.1188C24.0891 21.507 24.0301 21.9306 24.0301 22.377C24.0301 22.8314 24.0899 23.2545 24.2093 23.6352C24.3292 24.0189 24.5212 24.3571 24.7807 24.6368C25.0394 24.9187 25.3726 25.1396 25.7717 25.2936C26.1678 25.4467 26.6491 25.5262 27.2022 25.5252C28.3404 25.5212 28.94 25.2675 29.187 25.1309C29.2306 25.1069 29.2721 25.0641 29.22 24.9421L28.9634 24.2205C28.9235 24.1128 28.8143 24.1527 28.8143 24.1527C28.5324 24.2571 28.1322 24.4451 27.1955 24.4433C26.5853 24.4422 26.1319 24.2619 25.8482 23.9801C25.5566 23.6916 25.414 23.2675 25.389 22.6687L29.3303 22.6724C29.3303 22.6724 29.434 22.6706 29.4447 22.5698C29.4487 22.5273 29.5803 21.7599 29.3266 20.8718ZM16.888 24.2768C16.7338 24.154 16.7125 24.1229 16.6604 24.0434C16.5827 23.9224 16.5431 23.7498 16.5431 23.531C16.5431 23.1843 16.6575 22.9354 16.8946 22.7679C16.892 22.7687 17.2336 22.4722 18.038 22.4829C18.6025 22.4908 19.1071 22.5741 19.1071 22.5741V24.3662H19.1082C19.1082 24.3662 18.6072 24.4736 18.0436 24.5073C17.2414 24.5557 16.8851 24.276 16.888 24.2768ZM18.4562 21.5076C18.2964 21.4959 18.0893 21.489 17.8412 21.489C17.503 21.489 17.1765 21.5315 16.8707 21.6139C16.5754 21.6904 16.2964 21.8198 16.0472 21.9957C15.8093 22.1655 15.6136 22.3879 15.4756 22.6456C15.3363 22.9054 15.2655 23.2114 15.2655 23.5541C15.2655 23.903 15.3253 24.2061 15.4455 24.4542C15.5627 24.6994 15.7396 24.9112 15.96 25.0702C16.1789 25.23 16.4493 25.3473 16.763 25.418C17.072 25.4888 17.4224 25.5244 17.8061 25.5244C18.2103 25.5244 18.6131 25.4917 19.0034 25.4247C19.3356 25.3675 19.6666 25.3036 19.9963 25.233C20.1271 25.2019 20.2725 25.1622 20.2725 25.1622C20.3704 25.138 20.3624 25.0333 20.3624 25.0333L20.3605 21.4291C20.3605 20.6386 20.1494 20.0526 19.7338 19.6894C19.3204 19.327 18.7109 19.1441 17.9234 19.1441C17.6282 19.1441 17.1523 19.1847 16.8678 19.2419C16.8678 19.2419 16.0063 19.4084 15.6519 19.6854C15.6519 19.6854 15.5745 19.7338 15.617 19.8423L15.8962 20.5921C15.9308 20.6889 16.0249 20.6559 16.0249 20.6559C16.0249 20.6559 16.055 20.6445 16.0898 20.624C16.8481 20.2114 17.8072 20.2241 17.8072 20.2241C18.2334 20.2241 18.5607 20.3092 18.7817 20.4788C18.9968 20.6434 19.106 20.8923 19.106 21.4174V21.5839C18.767 21.5355 18.4562 21.5076 18.4562 21.5076ZM50.2461 19.4764C50.2518 19.4633 50.2548 19.4491 50.2549 19.4348C50.2549 19.4205 50.2521 19.4063 50.2466 19.3931C50.2411 19.3799 50.2329 19.3679 50.2226 19.3579C50.2124 19.3479 50.2002 19.3401 50.1868 19.335C50.1201 19.3089 49.7848 19.2382 49.5261 19.2217C49.0313 19.1917 48.7561 19.2749 48.5101 19.3855C48.266 19.4958 47.9948 19.674 47.8435 19.8766V19.3969C47.8435 19.3302 47.7962 19.277 47.7303 19.277H46.7199C46.6542 19.277 46.6066 19.3302 46.6066 19.3969V25.2758C46.6066 25.3417 46.6608 25.396 46.7268 25.396H47.7622C47.7779 25.3959 47.7934 25.3927 47.8079 25.3866C47.8224 25.3806 47.8356 25.3717 47.8466 25.3605C47.8577 25.3494 47.8664 25.3361 47.8724 25.3216C47.8783 25.3071 47.8814 25.2915 47.8813 25.2758V22.3387C47.8813 21.9447 47.9249 21.5512 48.0121 21.3044C48.0972 21.0601 48.2136 20.8646 48.357 20.724C48.4939 20.5892 48.661 20.4889 48.8443 20.4315C49.0273 20.3754 49.2299 20.3571 49.3732 20.3571C49.5795 20.3571 49.8061 20.4102 49.8061 20.4102C49.8816 20.419 49.9244 20.3725 49.9496 20.3039C50.0172 20.1236 50.2092 19.5838 50.2459 19.4764" fill="white"/>
<path d="M40.5262 16.7519C40.3983 16.7133 40.2682 16.6823 40.1367 16.6588C39.9597 16.6298 39.7805 16.6163 39.6012 16.6184C38.8881 16.6184 38.3263 16.8197 37.9322 17.2169C37.5398 17.612 37.2733 18.2137 37.1399 19.005L37.0912 19.2714H36.1962C36.1962 19.2714 36.0877 19.2675 36.0646 19.3858L35.9184 20.2063C35.9077 20.2837 35.9415 20.3331 36.046 20.3331H36.917L36.0335 25.2654C35.9649 25.6627 35.8854 25.9892 35.7971 26.237C35.711 26.4811 35.6269 26.6643 35.5222 26.798C35.4211 26.9256 35.3265 27.0208 35.1616 27.0759C35.026 27.1216 34.8691 27.1429 34.6976 27.1429C34.6027 27.1429 34.4759 27.1272 34.382 27.108C34.3084 27.0937 34.2368 27.0705 34.1688 27.0389C34.1688 27.0389 34.0672 27.0004 34.0265 27.1022C33.9946 27.1865 33.762 27.8246 33.7341 27.9033C33.7069 27.9818 33.7455 28.0426 33.7949 28.061C33.9111 28.1017 33.9973 28.1288 34.1552 28.1665C34.3743 28.2181 34.5594 28.2208 34.7327 28.2208C35.0949 28.2208 35.4262 28.1695 35.7003 28.0708C35.9755 27.9711 36.2156 27.7975 36.4289 27.563C36.6583 27.3093 36.8027 27.044 36.9402 26.6808C37.0768 26.3223 37.1941 25.8767 37.2869 25.3577L38.1752 20.3331H39.4733C39.4733 20.3331 39.5826 20.3369 39.6049 20.2177L39.7522 19.3983C39.7618 19.3198 39.7291 19.2714 39.6233 19.2714H38.363C38.3699 19.2433 38.427 18.7997 38.5714 18.3823C38.6334 18.205 38.7496 18.0606 38.8474 17.9619C38.9396 17.868 39.0529 17.7975 39.1779 17.7564C39.3029 17.7157 39.4451 17.6963 39.6012 17.6963C39.7193 17.6963 39.8365 17.7099 39.9245 17.7282C40.0468 17.7545 40.0942 17.7681 40.1261 17.7777C40.255 17.8165 40.2723 17.7787 40.2976 17.7165L40.5988 16.8896C40.6299 16.8005 40.5534 16.7625 40.5262 16.7519ZM22.9184 25.2763C22.9184 25.342 22.8708 25.3954 22.8052 25.3954H21.7599C21.694 25.3954 21.6475 25.3423 21.6475 25.2763V16.8643C21.6475 16.7987 21.694 16.7452 21.7599 16.7452H22.8049C22.8708 16.7452 22.9184 16.7984 22.9184 16.8643V25.2763Z" fill="white"/>
</svg>
