<svg width="54" height="54" viewBox="0 0 54 54" fill="none" xmlns="http://www.w3.org/2000/svg">
<path d="M54 27.002C53.9995 33.2485 51.8332 39.3017 47.8701 44.1301C43.907 48.9585 38.3923 52.2633 32.2657 53.4816C26.139 54.6998 19.7795 53.756 14.2708 50.8111C8.76197 47.8661 4.44472 43.1022 2.05462 37.3309C-0.335479 31.5597 -0.650555 25.1383 1.16308 19.1608C2.97671 13.1833 6.80684 8.01963 12.0009 4.54952C17.1949 1.0794 23.4314 -0.482407 29.6479 0.130197C35.8643 0.742801 41.6761 3.49191 46.0928 7.90913C48.6034 10.414 50.5943 13.3901 51.9513 16.6667C53.3082 19.9432 54.0044 23.4556 54 27.002Z" fill="white"/>
<path d="M49.9498 27.0025C49.9494 32.312 48.108 37.4572 44.7394 41.5614C41.3707 45.6655 36.6832 48.4746 31.4756 49.5101C26.268 50.5456 20.8624 49.7434 16.1799 47.2402C11.4975 44.737 7.82782 40.6876 5.79623 35.7821C3.76465 30.8765 3.49683 25.4183 5.03842 20.3375C6.58001 15.2566 9.83562 10.8675 14.2505 7.91787C18.6655 4.96827 23.9665 3.64074 29.2505 4.16145C34.5345 4.68216 39.4745 7.01891 43.2287 10.7735C45.3632 12.9023 47.0558 15.4319 48.2093 18.2171C49.3627 21.0022 49.9542 23.9879 49.9498 27.0025Z" fill="#6D9A00"/>
<path d="M18.6298 26.9687C18.62 26.7187 18.6621 26.4694 18.7533 26.2365C18.8446 26.0036 18.9831 25.7921 19.16 25.6153C19.337 25.4385 19.5487 25.3002 19.7817 25.2092C20.0147 25.1182 20.2641 25.0764 20.514 25.0864C20.8862 25.0868 21.2499 25.1975 21.5592 25.4046C21.8685 25.6116 22.1095 25.9057 22.2516 26.2497C22.3938 26.5937 22.4308 26.9721 22.358 27.3371C22.2851 27.7021 22.1057 28.0373 21.8424 28.3004C21.5791 28.5634 21.2437 28.7425 20.8786 28.815C20.5135 28.8874 20.1352 28.85 19.7913 28.7075C19.4475 28.565 19.1536 28.3237 18.9469 28.0142C18.7402 27.7047 18.6298 27.3409 18.6298 26.9687ZM25.131 26.9687C25.1212 26.7187 25.1633 26.4694 25.2545 26.2365C25.3458 26.0036 25.4843 25.7921 25.6613 25.6153C25.8382 25.4385 26.0499 25.3002 26.2829 25.2092C26.5159 25.1182 26.7653 25.0764 27.0152 25.0864C27.3874 25.0868 27.7512 25.1975 28.0604 25.4046C28.3697 25.6116 28.6107 25.9057 28.7529 26.2497C28.895 26.5937 28.932 26.9721 28.8592 27.3371C28.7863 27.7021 28.6069 28.0373 28.3436 28.3004C28.0803 28.5634 27.7449 28.7425 27.3798 28.815C27.0147 28.8874 26.6364 28.85 26.2925 28.7075C25.9487 28.565 25.6548 28.3237 25.4481 28.0142C25.2414 27.7047 25.131 27.3409 25.131 26.9687ZM31.6284 26.9687C31.6186 26.7187 31.6606 26.4694 31.7519 26.2365C31.8432 26.0036 31.9816 25.7921 32.1586 25.6153C32.3356 25.4385 32.5473 25.3002 32.7803 25.2092C33.0133 25.1182 33.2626 25.0764 33.5126 25.0864C33.8848 25.0868 34.2485 25.1975 34.5578 25.4046C34.8671 25.6116 35.108 25.9057 35.2502 26.2497C35.3924 26.5937 35.4294 26.9721 35.3565 27.3371C35.2837 27.7021 35.1043 28.0373 34.8409 28.3004C34.5776 28.5634 34.2422 28.7425 33.8772 28.815C33.5121 28.8874 33.1337 28.85 32.7899 28.7075C32.4461 28.565 32.1522 28.3237 31.9455 28.0142C31.7387 27.7047 31.6284 27.3409 31.6284 26.9687Z" fill="white"/>
<path d="M10.8369 28.7189V25.3478C11.4143 25.3479 11.9879 25.2554 12.536 25.0739C12.8922 24.8752 13.1856 24.5806 13.3826 24.2234C13.6423 23.7614 13.8087 23.2529 13.8725 22.7268C13.9607 21.9484 13.9962 21.1649 13.9786 20.3817C13.9393 19.1107 14.0187 17.8387 14.2158 16.5824C14.3369 15.9356 14.6346 15.3349 15.0759 14.8467C15.4808 14.3462 16.0241 13.9759 16.6381 13.7821C17.4683 13.5812 18.3224 13.4962 19.1761 13.5295H19.8761V16.3009C19.2428 16.2621 18.6072 16.3213 17.9919 16.4763C17.7315 16.5783 17.5142 16.767 17.3767 17.0106C17.2281 17.6035 17.1632 18.2144 17.1838 18.8253C17.1838 19.4155 17.144 20.5347 17.0643 22.183C17.0473 22.9461 16.9319 23.7039 16.721 24.4375C16.5691 24.9499 16.3296 25.4321 16.0132 25.8627C15.636 26.3129 15.1925 26.7031 14.6979 27.0198C15.1886 27.3102 15.6215 27.6888 15.9746 28.1365C16.3221 28.5988 16.5798 29.1221 16.7345 29.6793C16.9387 30.4787 17.0538 31.2982 17.0778 32.1228C17.1395 33.6773 17.1703 34.6698 17.1703 35.1006C17.1463 35.7071 17.2179 36.3137 17.3825 36.898C17.5312 37.1474 17.7565 37.3422 18.0247 37.4534C18.6292 37.6178 19.2565 37.683 19.8819 37.6463V40.5121H19.1818C18.3361 40.5334 17.4931 40.4082 16.6901 40.1418C16.0768 39.9582 15.5222 39.6171 15.0817 39.1525C14.6375 38.6637 14.3336 38.064 14.2023 37.4168C14.0217 36.3428 13.9461 35.2538 13.9766 34.1652C14.0226 33.0417 13.9515 31.9164 13.7645 30.8076C13.647 30.1925 13.3394 29.6299 12.8851 29.1991C12.2566 28.8614 11.55 28.6958 10.8369 28.7189ZM41.0499 29.2068C40.5955 29.6377 40.2879 30.2003 40.1705 30.8153C39.9834 31.9241 39.9123 33.0494 39.9583 34.1729C39.987 35.2591 39.9102 36.3455 39.7288 37.4168C39.5975 38.064 39.2936 38.6637 38.8494 39.1525C38.4113 39.6225 37.8572 39.969 37.2429 40.1573C36.4399 40.4236 35.5969 40.5489 34.7512 40.5276H34.0511V37.6675C34.6765 37.7042 35.3038 37.639 35.9083 37.4746C36.1766 37.3634 36.4018 37.1686 36.5505 36.9192C36.7151 36.3349 36.7867 35.7283 36.7627 35.1218C36.7627 34.6911 36.7935 33.6985 36.8553 32.1441C36.8806 31.3199 36.9971 30.5011 37.2024 29.7025C37.3571 29.1452 37.6148 28.6219 37.9623 28.1596C38.3154 27.712 38.7483 27.3334 39.239 27.043C38.7444 26.7263 38.3008 26.3361 37.9237 25.8858C37.6073 25.4552 37.3678 24.973 37.2159 24.4606C37.005 23.727 36.8896 22.9693 36.8726 22.2061C36.7929 20.5578 36.753 19.4386 36.753 18.8485C36.7737 18.2375 36.7088 17.6267 36.5602 17.0337C36.4227 16.7901 36.2054 16.6014 35.945 16.4995C35.3297 16.3445 34.6941 16.2853 34.0608 16.324V13.5334H34.7608C35.6144 13.5001 36.4685 13.5851 37.2988 13.786C37.9128 13.9798 38.4561 14.35 38.861 14.8506C39.3023 15.3387 39.6 15.9395 39.7211 16.5863C39.9182 17.8426 39.9976 19.1145 39.9583 20.3856C39.9407 21.1688 39.9762 21.9523 40.0644 22.7307C40.1282 23.2568 40.2946 23.7653 40.5543 24.2273C40.7513 24.5844 41.0447 24.8791 41.4009 25.0778C41.95 25.261 42.525 25.3548 43.1038 25.3555V28.7189C42.3881 28.6971 41.6794 28.8655 41.0499 29.2068Z" fill="white"/>
</svg>
