<svg width="52" height="50" viewBox="0 0 52 50" fill="none" xmlns="http://www.w3.org/2000/svg">
<path d="M24.7075 2.31126V4.6321H20.5566V6.14151H24.7075V10.764H26.3301V6.14151H30.5848V4.6321H26.3301V0H24.7075V2.31126Z" fill="#7099A6"/>
<path d="M11.1415 8.19799V11.5659H4.8584V13.679H11.1415V20.5187H13.4717V13.679H19.849V11.5659H13.4717V4.83008H11.1415V8.19799Z" fill="#EB912C"/>
<path d="M37.4715 8.19799V11.5659H31.1885V13.7829H37.4715V20.5187H39.896V13.7829H46.1789V11.5659H39.896V4.83008H37.4715V8.19799Z" fill="#59879B"/>
<path d="M24.1039 19.6701V23.4437H17.1133V26.255H24.1039V33.8021H26.9341V26.255H33.9245V23.4437H26.9341V15.8965H24.1039V19.6701Z" fill="#E8762C"/>
<path d="M44.6605 21.5751V23.9432H40.4058V25.8581H44.6605V30.5845H46.7831V25.8581H51.0378V23.9432H46.7831V19.2168H44.6605V21.5751Z" fill="#5B6591"/>
<path d="M4.15103 21.7826V24.0468H0V25.6505H4.15103V30.1789H5.77348V25.6505L10.0282 25.4996V24.0468H5.77348V19.5186H4.15103V21.7826Z" fill="#7099A6"/>
<path d="M11.1415 32.4431V35.811H4.8584V38.028H11.1415V44.7638H13.566V38.028H19.849V35.811H13.566V29.0752H11.1415V32.4431Z" fill="#C72035"/>
<path d="M37.4715 32.4431V35.811H31.1885V37.9243H37.4715V44.7638H39.896V37.9243H46.1789V35.811H39.896V29.0752H37.4715V32.4431Z" fill="#1F447E"/>
<path d="M24.5096 40.9997V43.3582H20.2549V45.2734H24.5096V49.9998H26.6322V45.2734H30.8869V43.3582H26.6322V38.6318H24.5096V40.9997Z" fill="#5B6591"/>
</svg>
