<svg width="31" height="50" viewBox="0 0 31 50" fill="none" xmlns="http://www.w3.org/2000/svg">
<path d="M24.3252 27.6937C22.3735 27.6937 20.6248 28.557 19.4272 29.9144L16.3578 27.7457C16.6953 26.8292 16.8689 25.8605 16.8707 24.8839C16.8707 23.8944 16.6909 22.9486 16.3742 22.0678L19.4382 19.9222C20.6353 21.2738 22.3794 22.1319 24.3252 22.1319C27.9248 22.1319 30.8554 19.2075 30.8554 15.6138C30.8554 12.0189 27.9248 9.09571 24.3252 9.09571C20.7241 9.09571 17.7934 12.0189 17.7934 15.6138C17.7934 16.2569 17.8912 16.8766 18.0667 17.465L15.0016 19.6106C13.6937 17.9914 11.8334 16.9128 9.77833 16.5822V12.8955C12.7367 12.2754 14.9664 9.65322 14.9664 6.5181C14.9664 2.92243 12.0357 0 8.43616 0C4.83541 0 1.90437 2.92282 1.90437 6.5181C1.90437 9.6106 4.07616 12.2023 6.97474 12.8665V16.599C3.01939 17.2922 0 20.7393 0 24.8839C0 29.0484 3.04832 32.5076 7.03417 33.1766V37.1198C4.10509 37.761 1.90476 40.3683 1.90476 43.4819C1.90476 47.0772 4.83501 50 8.43616 50C12.0357 50 14.9664 47.0772 14.9664 43.4819C14.9664 40.3683 12.7657 37.7614 9.83814 37.1198V33.1766C11.854 32.8371 13.6784 31.7779 14.9726 30.1955L18.062 32.3794C17.8848 32.9742 17.7943 33.5915 17.7934 34.2122C17.7934 37.8071 20.7241 40.7299 24.3252 40.7299C27.9248 40.7299 30.8554 37.8071 30.8554 34.2122C30.8554 30.6173 27.9248 27.6937 24.3252 27.6937ZM24.3252 12.4525C26.0708 12.4525 27.4908 13.8717 27.4908 15.6138C27.4908 17.3548 26.0708 18.7736 24.3252 18.7736C22.578 18.7736 21.1576 17.3548 21.1576 15.6138C21.1576 13.8713 22.578 12.4525 24.3252 12.4525ZM5.26898 6.51771C5.26898 4.77559 6.68895 3.35836 8.43616 3.35836C10.1818 3.35836 11.6022 4.77559 11.6022 6.5181C11.6022 8.26061 10.1818 9.67785 8.43616 9.67785C6.68895 9.67785 5.26898 8.26022 5.26898 6.51771ZM11.6022 43.4819C11.6022 45.2244 10.1818 46.6416 8.43616 46.6416C6.68895 46.6416 5.26898 45.2244 5.26898 43.4819C5.26898 41.7394 6.68895 40.3222 8.43616 40.3222C10.1818 40.3222 11.6022 41.7394 11.6022 43.4819ZM8.43459 29.2916C6.00047 29.2916 4.01947 27.3137 4.01947 24.8839C4.01947 22.4525 6.00047 20.475 8.43459 20.475C10.8703 20.475 12.8513 22.4525 12.8513 24.8839C12.8513 27.3137 10.8707 29.2916 8.43459 29.2916ZM24.3252 37.372C22.578 37.372 21.1576 35.9547 21.1576 34.2122C21.1576 32.4697 22.578 31.0521 24.3252 31.0521C26.0708 31.0521 27.4908 32.4693 27.4908 34.2118C27.4908 35.9543 26.0708 37.372 24.3252 37.372Z" fill="#231F20"/>
</svg>
