<svg width="46" height="46" viewBox="0 0 46 46" fill="none" xmlns="http://www.w3.org/2000/svg">
<path d="M27.3782 3.48969C27.4398 3.25949 27.5461 3.04369 27.6911 2.8546C27.8361 2.66551 28.0169 2.50684 28.2233 2.38767C28.4296 2.26849 28.6574 2.19114 28.8937 2.16004C29.1299 2.12894 29.37 2.14469 29.6001 2.2064C32.9627 3.08373 36.0306 4.84156 38.4879 7.29884C40.9451 9.75612 42.703 12.824 43.5803 16.1866C43.642 16.4167 43.6577 16.6568 43.6266 16.8931C43.5955 17.1293 43.5182 17.3571 43.399 17.5635C43.2798 17.7698 43.1212 17.9506 42.9321 18.0956C42.743 18.2407 42.5272 18.347 42.297 18.4085C42.1438 18.4488 41.9861 18.4694 41.8277 18.4698C41.4283 18.4699 41.04 18.3382 40.7231 18.0951C40.4062 17.852 40.1784 17.5111 40.075 17.1253C39.3599 14.3799 37.9254 11.8749 35.9195 9.86862C33.9137 7.86235 31.409 6.42737 28.6637 5.71165C28.4333 5.65032 28.2173 5.54417 28.0279 5.39927C27.8386 5.25437 27.6797 5.07357 27.5603 4.86719C27.4409 4.66082 27.3634 4.43294 27.3321 4.19657C27.3009 3.96021 27.3165 3.72 27.3782 3.48969ZM26.8499 12.967C29.9765 13.8014 31.9853 15.8125 32.8197 18.9391C32.923 19.3249 33.1508 19.6658 33.4677 19.9089C33.7846 20.152 34.1729 20.2837 34.5723 20.2836C34.7307 20.2832 34.8884 20.2626 35.0416 20.2224C35.2718 20.1608 35.4876 20.0545 35.6767 19.9095C35.8658 19.7645 36.0245 19.5836 36.1437 19.3773C36.2628 19.171 36.3402 18.9431 36.3713 18.7069C36.4024 18.4707 36.3866 18.2306 36.3249 18.0004C35.1641 13.6563 32.1304 10.6226 27.7863 9.46177C27.3215 9.33759 26.8264 9.40316 26.4099 9.64403C25.9934 9.88491 25.6896 10.2814 25.5655 10.7462C25.4413 11.211 25.5069 11.7061 25.7477 12.1226C25.9886 12.5391 26.3851 12.8428 26.8499 12.967ZM43.2719 30.8175L32.5907 26.0312L32.5612 26.0176C32.0067 25.7804 31.4018 25.6853 30.8013 25.7407C30.2007 25.7961 29.6235 26.0004 29.1217 26.335C29.0627 26.3741 29.0059 26.4164 28.9517 26.462L23.4331 31.1667C19.9369 29.4684 16.3274 25.8861 14.6292 22.4353L19.3406 16.8328C19.386 16.7761 19.429 16.7194 19.4698 16.6582C19.7973 16.1578 19.996 15.5842 20.0482 14.9885C20.1004 14.3928 20.0045 13.7934 19.7691 13.2436V13.2164L14.9693 2.51702C14.6581 1.79888 14.1229 1.20065 13.4438 0.811638C12.7647 0.422622 11.9779 0.263682 11.201 0.358544C8.12876 0.762819 5.30871 2.27162 3.26759 4.60315C1.22646 6.93468 0.103841 9.92949 0.109396 13.0282C0.109396 31.0306 14.7561 45.6774 32.7585 45.6774C35.8572 45.683 38.852 44.5603 41.1835 42.5192C43.5151 40.4781 45.0239 37.658 45.4281 34.5858C45.5232 33.8091 45.3646 33.0226 44.976 32.3435C44.5874 31.6643 43.9896 31.1291 43.2719 30.8175Z" fill="white"/>
</svg>
