<svg width="86" height="86" viewBox="0 0 86 86" fill="none" xmlns="http://www.w3.org/2000/svg">
<rect width="86" height="86" rx="11" fill="url(#paint0_linear_1155_979)"/>
<path d="M43 23.5C39.1433 23.5 35.3731 24.6437 32.1664 26.7863C28.9596 28.929 26.4603 31.9745 24.9844 35.5377C23.5084 39.1008 23.1223 43.0216 23.8747 46.8043C24.6271 50.5869 26.4843 54.0615 29.2114 56.7886C31.9386 59.5157 35.4131 61.3729 39.1957 62.1253C42.9784 62.8777 46.8992 62.4916 50.4623 61.0156C54.0255 59.5397 57.071 57.0404 59.2137 53.8336C61.3564 50.6269 62.5 46.8567 62.5 43C62.4941 37.8301 60.4377 32.8737 56.782 29.218C53.1263 25.5623 48.1699 23.506 43 23.5ZM51.5605 51.5605C51.2792 51.8417 50.8978 51.9997 50.5 51.9997C50.1023 51.9997 49.7208 51.8417 49.4395 51.5605L41.9395 44.0605C41.6582 43.7793 41.5001 43.3978 41.5 43V32.5C41.5 32.1022 41.658 31.7206 41.9393 31.4393C42.2207 31.158 42.6022 31 43 31C43.3978 31 43.7794 31.158 44.0607 31.4393C44.342 31.7206 44.5 32.1022 44.5 32.5V42.379L51.5605 49.4395C51.8417 49.7208 51.9997 50.1023 51.9997 50.5C51.9997 50.8977 51.8417 51.2792 51.5605 51.5605Z" fill="white"/>
<defs>
<linearGradient id="paint0_linear_1155_979" x1="168.755" y1="44.1622" x2="35.8288" y2="106.898" gradientUnits="userSpaceOnUse">
<stop stop-color="#04BFD7"/>
<stop offset="1" stop-color="#63388B"/>
</linearGradient>
</defs>
</svg>
