<svg width="33" height="45" viewBox="0 0 33 45" fill="none" xmlns="http://www.w3.org/2000/svg">
<path d="M16.115 21.6636C14.596 21.6636 13.1392 21.081 12.0651 20.0439C10.991 19.0068 10.3875 17.6003 10.3875 16.1336C10.3875 14.667 10.991 13.2604 12.0651 12.2234C13.1392 11.1863 14.596 10.6037 16.115 10.6037C17.634 10.6037 19.0908 11.1863 20.1649 12.2234C21.239 13.2604 21.8424 14.667 21.8424 16.1336C21.8424 16.8598 21.6943 17.5789 21.4065 18.2499C21.1186 18.9208 20.6968 19.5304 20.1649 20.0439C19.6331 20.5574 19.0017 20.9647 18.3068 21.2427C17.6119 21.5206 16.8671 21.6636 16.115 21.6636ZM16.115 0.649773C11.8618 0.649773 7.78271 2.2811 4.77521 5.18489C1.76772 8.08868 0.078125 12.0271 0.078125 16.1336C0.078125 27.7465 16.115 44.8894 16.115 44.8894C16.115 44.8894 32.1519 27.7465 32.1519 16.1336C32.1519 12.0271 30.4623 8.08868 27.4548 5.18489C24.4473 2.2811 20.3682 0.649773 16.115 0.649773Z" fill="white"/>
</svg>
