<svg width="41" height="32" viewBox="0 0 41 32" fill="none" xmlns="http://www.w3.org/2000/svg">
<path d="M0.201 6.13074C0.273176 4.50027 0.978305 2.9603 2.16939 1.83186C3.36047 0.703427 4.94558 0.0736165 6.59426 0.0737305H33.612C35.2607 0.0736165 36.8458 0.703427 38.0369 1.83186C39.228 2.9603 39.9331 4.50027 40.0053 6.13074L37.9064 7.28499L20.1031 16.7738L2.29986 7.28499L0.201 6.13074ZM0.195312 9.34716V24.7072C0.195313 26.3871 0.869485 27.9983 2.06952 29.1862C3.26956 30.3741 4.89715 31.0415 6.59426 31.0415H33.612C35.3091 31.0415 36.9367 30.3741 38.1368 29.1862C39.3368 27.9983 40.011 26.3871 40.011 24.7072V9.34716L39.263 9.7596L20.7772 19.613C20.57 19.7234 20.3384 19.7811 20.1031 19.7811C19.8679 19.7811 19.6363 19.7234 19.4291 19.613L0.926214 9.74974L0.195312 9.34716Z" fill="white"/>
</svg>
