<svg width="25" height="30" viewBox="0 0 25 30" fill="none" xmlns="http://www.w3.org/2000/svg">
<path d="M2.77778 26.6515L2.77778 18.3182C2.77778 17.5543 2.15278 16.9293 1.38889 16.9293C0.625 16.9293 0 17.5543 0 18.3182L0 26.6515C0 28.1793 1.25 29.4293 2.77778 29.4293L22.2222 29.4293C23.75 29.4293 25 28.1793 25 26.6515L25 18.3182C25 17.5543 24.375 16.9293 23.6111 16.9293C22.8472 16.9293 22.2222 17.5543 22.2222 18.3182L22.2222 26.6515L2.77778 26.6515Z" fill="#3F3F3F"/>
<path d="M12.1675 0.196276L8.29251 4.07127C8.19327 4.16787 8.12512 4.29188 8.09677 4.42743C8.06842 4.56299 8.08116 4.70392 8.13336 4.83219C8.18557 4.96045 8.27485 5.07023 8.3898 5.14746C8.50475 5.22469 8.64013 5.26587 8.77862 5.26572H11.2647L11.2647 14.9879C11.2647 15.7518 11.8897 16.3768 12.6536 16.3768C13.4175 16.3768 14.0425 15.7518 14.0425 14.9879L14.0425 5.26572H16.5286C17.1536 5.26572 17.4592 4.51572 17.0147 4.08516L13.1397 0.210165C12.8758 -0.0676117 12.4314 -0.0676117 12.1675 0.196276Z" fill="#3F3F3F"/>
</svg>
