<svg width="155" height="133" viewBox="0 0 155 133" fill="none" xmlns="http://www.w3.org/2000/svg">
<path d="M130.868 128.763C130.835 130.005 130.627 131.236 130.25 132.419C130.242 132.447 130.232 132.474 130.223 132.501H127.918C127.92 132.477 127.923 132.449 127.925 132.419C128.079 130.652 127.2 120.023 126.141 118.184C126.233 118.333 131.047 123.147 130.868 128.763Z" fill="#E6E6E6"/>
<path d="M130.696 132.419C130.677 132.447 130.657 132.474 130.636 132.501H128.906C128.919 132.478 128.935 132.45 128.952 132.419C129.238 131.904 130.084 130.362 130.869 128.763C131.712 127.045 132.487 125.262 132.421 124.617C132.442 124.763 133.025 129.199 130.696 132.419Z" fill="#E6E6E6"/>
<path d="M112.84 29.7693C112.708 29.7691 112.581 29.7191 112.485 29.6293C112.389 29.5394 112.33 29.4165 112.321 29.2851C111.98 24.6598 109.906 20.3336 106.513 17.1723C103.119 14.0109 98.6573 12.2475 94.0195 12.235C93.4645 12.235 92.8814 12.2633 92.2864 12.3189C92.1869 12.3283 92.0868 12.3088 91.9981 12.2627C91.9094 12.2167 91.8358 12.1461 91.7861 12.0594C89.6558 8.33047 86.4744 5.31151 82.6391 3.37928C78.8038 1.44705 74.4843 0.687111 70.2198 1.1943C65.9553 1.7015 61.9346 3.45336 58.6595 6.23127C55.3843 9.00918 52.9998 12.6901 51.8035 16.8147C51.7719 16.9252 51.7045 17.0221 51.6118 17.0901C51.5191 17.1581 51.4064 17.1933 51.2915 17.1903L51.1531 17.1861C51.0811 17.1837 51.0091 17.1811 50.9366 17.1811C47.4188 17.1921 44.0106 18.4056 41.2774 20.6201C38.5442 22.8346 36.6504 25.9171 35.9101 29.356C35.8854 29.4729 35.8214 29.5777 35.7286 29.653C35.6359 29.7282 35.5201 29.7693 35.4006 29.7693H0.52064C0.382557 29.7693 0.25013 29.7144 0.152491 29.6168C0.0548526 29.5191 0 29.3867 0 29.2486C0 29.1105 0.0548526 28.9781 0.152491 28.8805C0.25013 28.7828 0.382557 28.728 0.52064 28.728H34.984C35.8516 25.151 37.8923 21.9677 40.7805 19.686C43.6687 17.4044 47.2379 16.1559 50.9186 16.1398C52.2289 11.9013 54.7419 8.13458 58.1524 5.29717C61.5628 2.45977 65.7238 0.673844 70.13 0.156366C74.5361 -0.361111 78.9977 0.412131 82.9728 2.38215C86.9478 4.35218 90.2652 7.43419 92.5219 11.2538C93.034 11.2139 93.5364 11.1938 94.0195 11.1938C98.9206 11.207 103.636 13.0706 107.222 16.4115C110.808 19.7524 113 24.3242 113.36 29.2121C113.364 29.2804 113.356 29.3488 113.334 29.4137C113.312 29.4785 113.278 29.5385 113.233 29.5901C113.188 29.6417 113.134 29.684 113.073 29.7145C113.011 29.7451 112.945 29.7632 112.877 29.768C112.864 29.7689 112.852 29.7693 112.84 29.7693Z" fill="#E5E5E5"/>
<path d="M106.648 36.4436H21.2628C21.1247 36.4436 20.9923 36.3888 20.8947 36.2911C20.797 36.1935 20.7422 36.0611 20.7422 35.923C20.7422 35.7849 20.797 35.6525 20.8947 35.5548C20.9923 35.4572 21.1247 35.4023 21.2628 35.4023H106.648C106.786 35.4023 106.918 35.4572 107.016 35.5548C107.114 35.6525 107.168 35.7849 107.168 35.923C107.168 36.0611 107.114 36.1935 107.016 36.2911C106.918 36.3888 106.786 36.4436 106.648 36.4436Z" fill="#E5E5E5"/>
<path d="M42.0855 43.2132H13.4503C13.3122 43.2132 13.1798 43.1583 13.0822 43.0607C12.9845 42.963 12.9297 42.8306 12.9297 42.6925C12.9297 42.5544 12.9845 42.422 13.0822 42.3244C13.1798 42.2267 13.3122 42.1719 13.4503 42.1719H42.0855C42.2236 42.1719 42.356 42.2267 42.4537 42.3244C42.5513 42.422 42.6061 42.5544 42.6061 42.6925C42.6061 42.8306 42.5513 42.963 42.4537 43.0607C42.356 43.1583 42.2236 43.2132 42.0855 43.2132Z" fill="#E5E5E5"/>
<path d="M96.0486 126.451L97.1417 123.639L86.8166 118.084L85.2031 122.234L96.0486 126.451Z" fill="#9F616A"/>
<path d="M101.908 119.113C101.445 118.933 100.951 118.846 100.453 118.856C99.9563 118.867 99.4662 118.976 99.011 119.176C98.5559 119.376 98.1447 119.665 97.801 120.024C97.4573 120.383 97.1877 120.807 97.0078 121.27L96.2703 123.166L95.1334 126.092L94.8555 126.809L98.4988 128.226L102.023 119.159L101.908 119.113Z" fill="#2F2E41"/>
<path d="M95.1322 121.038L94.6568 122.299L93.4703 125.446L93.4418 125.525C90.4188 125.913 87.1049 125.152 84.0397 123.969C82.8133 123.496 81.6122 122.96 80.441 122.363C78.7077 121.487 77.1556 120.563 75.9174 119.772C74.0532 118.575 72.9005 117.677 72.9005 117.677C72.9005 117.677 72.596 117.952 72.0449 118.424C71.3063 119.056 70.1262 120.043 68.6312 121.205C68.0609 121.651 67.4487 122.118 66.7943 122.605C61.9711 126.182 55.7812 116.636 55.7812 116.636C55.7812 116.636 57.5221 115.528 57.9769 115.313C59.4413 114.62 62.8817 112.985 65.8498 111.532C67.3789 110.782 68.7809 110.08 69.7223 109.58C73.0555 107.805 77.1989 111.164 77.1989 111.164L95.1322 121.038Z" fill="#3F3F3F"/>
<path d="M60.4616 102.299C60.1293 102.358 59.8139 102.488 59.5376 102.682C59.2612 102.875 59.0306 103.127 58.862 103.419C58.6935 103.711 58.591 104.037 58.5619 104.373C58.5327 104.709 58.5776 105.047 58.6934 105.364L54.8125 108.933L56.4064 111.821L61.8163 106.703C62.3356 106.473 62.7526 106.061 62.9883 105.544C63.224 105.028 63.2619 104.442 63.0949 103.9C62.928 103.357 62.5677 102.894 62.0823 102.599C61.597 102.304 61.0203 102.197 60.4616 102.299Z" fill="#9F616A"/>
<path d="M48.7818 118.43C48.7818 118.43 48.7819 118.43 48.7819 118.43V118.53C48.6066 118.53 48.4311 118.522 48.2552 118.507C47.2083 118.42 46.2008 118.068 45.3271 117.484C44.4535 116.901 43.7424 116.105 43.2606 115.172L48.7818 118.43ZM48.7818 118.43C49.6391 118.429 50.4868 118.249 51.2708 117.902C52.0547 117.555 52.7578 117.048 53.3352 116.415L60.8697 108.097L56.5399 106.411L48.7799 112.716L48.6786 112.798L48.6255 112.679L42.8924 99.8157C42.4292 99.0967 41.7074 98.5832 40.8761 98.3815C40.0423 98.1792 39.1627 98.3061 38.4201 98.7359C37.6776 99.1656 37.1293 99.8651 36.8893 100.689C36.6493 101.512 36.7362 102.397 37.1317 103.158L37.043 103.204L37.1317 103.158L43.3493 115.125L43.3494 115.126C43.8235 116.044 44.5231 116.827 45.3826 117.401C46.2422 117.975 47.2335 118.321 48.2636 118.407L48.2638 118.407C48.4368 118.422 48.6094 118.43 48.7818 118.43Z" fill="white" stroke="#3F3F3F" stroke-width="0.2"/>
<path d="M23.8534 132.578C24.1822 132.502 24.4904 132.356 24.7564 132.148C25.0224 131.941 25.2397 131.678 25.3929 131.377C25.5461 131.077 25.6316 130.746 25.6433 130.409C25.6551 130.072 25.5927 129.736 25.4607 129.426L29.1519 125.661L27.4108 122.859L22.2728 128.25C21.766 128.506 21.3709 128.94 21.1622 129.468C20.9536 129.996 20.946 130.583 21.1408 131.116C21.3356 131.649 21.7193 132.093 22.2193 132.362C22.7192 132.632 23.3007 132.708 23.8534 132.578Z" fill="#9F616A"/>
<path d="M58.9727 66.1475H59.3344V56.2388C59.3344 55.4857 59.4827 54.7399 59.7709 54.0441C60.0591 53.3484 60.4815 52.7161 61.0141 52.1836C61.5466 51.6511 62.1788 51.2287 62.8746 50.9404C63.5704 50.6522 64.3161 50.5039 65.0692 50.5039H86.0621C87.5831 50.5039 89.0418 51.1081 90.1173 52.1836C91.1928 53.2591 91.797 54.7178 91.797 56.2388V110.599C91.797 112.12 91.1928 113.578 90.1173 114.654C89.0418 115.729 87.5831 116.333 86.0621 116.333H65.0692C63.5483 116.333 62.0896 115.729 61.0141 114.654C59.9386 113.578 59.3344 112.12 59.3344 110.599V73.2006H58.9727V66.1475Z" fill="#3F3D56"/>
<path d="M64.8374 51.9941H67.5777C67.4517 52.3031 67.4036 52.6383 67.4376 52.9702C67.4717 53.3022 67.5868 53.6206 67.7729 53.8975C67.959 54.1745 68.2104 54.4014 68.5049 54.5583C68.7993 54.7152 69.1279 54.7973 69.4616 54.7973H81.4881C81.8218 54.7973 82.1503 54.7152 82.4448 54.5583C82.7393 54.4014 82.9906 54.1745 83.1767 53.8976C83.3629 53.6206 83.478 53.3022 83.5121 52.9702C83.5461 52.6383 83.498 52.3031 83.372 51.9941H85.9314C87.0672 51.9941 88.1566 52.4454 88.9597 53.2485C89.7629 54.0517 90.2141 55.141 90.2141 56.2769V110.557C90.2141 111.119 90.1034 111.676 89.8881 112.196C89.6729 112.715 89.3574 113.188 88.9598 113.585C88.5621 113.983 88.09 114.298 87.5703 114.514C87.0507 114.729 86.4938 114.84 85.9314 114.84H64.8374C64.275 114.84 63.7181 114.729 63.1985 114.514C62.6789 114.298 62.2068 113.983 61.8091 113.585C61.4114 113.188 61.0959 112.715 60.8807 112.196C60.6655 111.676 60.5547 111.119 60.5547 110.557V56.2769C60.5547 55.141 61.0059 54.0517 61.8091 53.2485C62.6122 52.4454 63.7016 51.9941 64.8374 51.9941Z" fill="white"/>
<path d="M75.3968 95.6354C82.1096 95.6354 87.5514 90.1936 87.5514 83.4808C87.5514 76.768 82.1096 71.3262 75.3968 71.3262C68.684 71.3262 63.2422 76.768 63.2422 83.4808C63.2422 90.1936 68.684 95.6354 75.3968 95.6354Z" fill="#63388B"/>
<path d="M74.2393 88.6105L70.6016 83.9328L72.7169 82.2873L74.4395 84.5021L80.2586 78.3594L82.2045 80.203L74.2393 88.6105Z" fill="white"/>
<path d="M46.8873 93.3983H32.6151C32.3216 93.398 32.0401 93.2812 31.8325 93.0736C31.6249 92.866 31.5081 92.5845 31.5078 92.291V86.1392C31.509 83.9537 32.3781 81.8581 33.9239 80.3132C35.4697 78.7683 37.5657 77.9004 39.7512 77.9004C41.9367 77.9004 44.0327 78.7683 45.5785 80.3132C47.1244 81.8581 47.9934 83.9537 47.9946 86.1392V92.291C47.9943 92.5845 47.8775 92.866 47.6699 93.0736C47.4623 93.2812 47.1809 93.398 46.8873 93.3983Z" fill="#3F3F3F"/>
<path d="M95.1771 130.402L96.4829 127.683L86.6149 121.351L84.6875 125.365L95.1771 130.402Z" fill="#9F616A"/>
<path d="M101.58 123.538C101.132 123.322 100.646 123.197 100.149 123.17C99.6529 123.142 99.1559 123.213 98.6867 123.378C98.2175 123.543 97.7854 123.798 97.4151 124.13C97.0448 124.462 96.7435 124.864 96.5285 125.312L95.6476 127.145L94.2892 129.975L93.957 130.669L97.4807 132.362L101.691 123.592L101.58 123.538Z" fill="#2F2E41"/>
<path d="M94.6762 124.94L94.1053 126.16L92.6805 129.207L92.6461 129.283C89.6022 129.438 86.3565 128.424 83.3913 127.009C82.2049 126.444 81.0485 125.817 79.9266 125.132C78.2656 124.125 76.7892 123.085 75.6155 122.201C73.8487 120.865 72.7684 119.881 72.7684 119.881C72.7684 119.881 72.4436 120.132 71.8579 120.56C71.073 121.133 69.8205 122.026 68.2407 123.07C67.6378 123.471 66.9915 123.889 66.3017 124.325C61.2178 127.521 53.9882 131.414 47.8388 132.236C37.0388 133.68 39.5807 119.268 39.5807 119.268L48.176 114.804L51.8252 115.545L55.8879 116.367L57.3274 116.66C57.3274 116.66 57.6005 116.556 58.0705 116.377C59.5838 115.798 63.1396 114.433 66.2106 113.212C67.7928 112.582 69.2447 111.989 70.2216 111.563C73.6813 110.05 77.5545 113.717 77.5545 113.717L94.6762 124.94Z" fill="#3F3F3F"/>
<path d="M41.7703 94.8473C44.9485 94.8473 47.525 92.2708 47.525 89.0926C47.525 85.9144 44.9485 83.3379 41.7703 83.3379C38.5921 83.3379 36.0156 85.9144 36.0156 89.0926C36.0156 92.2708 38.5921 94.8473 41.7703 94.8473Z" fill="#9F616A"/>
<path d="M39.3836 119.331L39.4081 119.291L39.3924 119.246L34.3886 105.06L35.8807 97.5972L43.6651 96.2142L49.5448 103.37L49.5517 103.379L49.5602 103.385L49.6015 103.418L49.6099 103.424L49.6194 103.429C49.6193 103.429 49.621 103.43 49.6245 103.432L49.6392 103.439C49.652 103.446 49.6707 103.456 49.6946 103.47C49.7424 103.496 49.8109 103.536 49.8945 103.59C50.0618 103.698 50.2892 103.86 50.5327 104.08C51.02 104.519 51.5679 105.184 51.83 106.096C52.2334 107.5 51.876 109.132 50.7376 110.953L50.7375 110.954L50.7144 110.991L50.6957 111.021L50.7001 111.056L51.108 114.319L39.3347 122.549C39.203 122.504 39.0809 122.435 38.9755 122.344C38.8584 122.243 38.7645 122.118 38.7004 121.977C38.5794 121.701 38.5667 121.342 38.6744 120.902C38.782 120.463 39.0081 119.952 39.3535 119.381L39.3836 119.331Z" fill="white" stroke="#3F3F3F" stroke-width="0.2"/>
<path d="M31.4858 112.566L31.4919 112.556L31.4955 112.545L35.2699 100.878C35.4717 100.255 35.8048 99.6815 36.2469 99.1974C36.689 98.7132 37.2297 98.3295 37.8326 98.072C38.4355 97.8146 39.0866 97.6893 39.742 97.7048C40.3975 97.7202 41.0419 97.876 41.6321 98.1616C42.2222 98.4472 42.7442 98.8559 43.163 99.3603C43.5818 99.8647 43.8876 100.453 44.0598 101.086C44.232 101.718 44.2665 102.38 44.1612 103.027C44.0558 103.674 43.813 104.291 43.449 104.837L36.52 115.218L36.5197 115.218L26.6555 129.844L23.4267 125.87L31.4858 112.566Z" fill="white" stroke="#3F3F3F" stroke-width="0.2"/>
<path d="M49.944 87.9271H41.217L41.1274 86.6742L40.68 87.9271H39.3362L39.1589 85.4438L38.272 87.9271H35.6719V87.8041C35.6738 86.0753 36.3615 84.4178 37.5839 83.1953C38.8064 81.9728 40.4639 81.2852 42.1927 81.2832H43.4231C45.152 81.2852 46.8095 81.9728 48.032 83.1953C49.2544 84.4178 49.9421 86.0752 49.944 87.8041L49.944 87.9271Z" fill="#3F3F3F"/>
<path d="M41.1449 95.7199C41.0792 95.7198 41.0137 95.714 40.949 95.7026L34.5586 94.575V84.0137H41.5931L41.419 84.2167C38.9959 87.0427 40.8214 91.6251 42.1252 94.105C42.2213 94.2866 42.2642 94.4917 42.2489 94.6966C42.2335 94.9016 42.1606 95.098 42.0386 95.2633C41.9363 95.4046 41.802 95.5197 41.6467 95.5991C41.4913 95.6785 41.3194 95.7198 41.1449 95.7199Z" fill="#3F3F3F"/>
<path d="M154.741 132.761H14.4283C14.3592 132.761 14.293 132.733 14.2442 132.685C14.1954 132.636 14.168 132.57 14.168 132.501C14.168 132.432 14.1954 132.365 14.2442 132.316C14.293 132.268 14.3592 132.24 14.4283 132.24H154.741C154.81 132.24 154.876 132.268 154.925 132.316C154.974 132.365 155.001 132.432 155.001 132.501C155.001 132.57 154.974 132.636 154.925 132.685C154.876 132.733 154.81 132.761 154.741 132.761Z" fill="#CBCBCB"/>
</svg>
