<svg width="74" height="66" viewBox="0 0 74 66" fill="none" xmlns="http://www.w3.org/2000/svg">
<path d="M54.8315 14.0821H23.5811L22.2263 9.73305C22.0557 9.17952 21.5402 8.80134 20.9516 8.80134H15.6022C14.8639 8.80134 14.2649 9.39268 14.2649 10.1215C14.2649 10.8504 14.8639 11.4417 15.6022 11.4417H19.9625L26.6771 32.9874L25.0263 37.8626C24.894 38.2682 24.9566 38.7083 25.2144 39.0522C25.4651 39.396 25.8656 39.5988 26.301 39.5988H26.9975C26.8443 40.0114 26.7468 40.4514 26.7468 40.919C26.7468 43.1022 28.5473 44.8796 30.7589 44.8796C32.9704 44.8796 34.7709 43.1022 34.7709 40.919C34.7709 40.4514 34.6734 40.0114 34.5202 39.5988H43.0354C42.8821 40.0114 42.7846 40.4514 42.7846 40.919C42.7846 43.1022 44.5852 44.8796 46.7967 44.8796C49.0082 44.8796 50.8088 43.1022 50.8088 40.919C50.8088 40.3105 50.6555 39.7398 50.4083 39.2206C50.659 38.9834 50.8088 38.6499 50.8088 38.2786C50.8088 37.5497 50.2097 36.9584 49.4714 36.9584L28.154 36.955L29.0455 34.3146H49.4821C50.0707 34.3146 50.5966 33.9364 50.7672 33.3725L56.1166 15.7699C56.242 15.3745 56.1619 14.9344 55.9112 14.601C55.6534 14.2744 55.2494 14.0821 54.8315 14.0821ZM32.0965 40.9262C32.0965 41.6551 31.4974 42.2464 30.7591 42.2464C30.0208 42.2464 29.4217 41.6551 29.4217 40.9262C29.4217 40.1974 30.0208 39.606 30.7591 39.606C31.4974 39.606 32.0965 40.1974 32.0965 40.9262ZM46.8074 42.2464C46.069 42.2464 45.47 41.6551 45.47 40.9262C45.47 40.1974 46.069 39.606 46.8074 39.606C47.5457 39.606 48.1447 40.1974 48.1447 40.9262C48.1447 41.6551 47.5457 42.2464 46.8074 42.2464ZM48.4825 31.6848H29.073L24.4097 16.7225H53.0371L48.4825 31.6848ZM70.1308 0H3.86924C1.73089 0 0 1.71556 0 3.8196V49.8585C0 51.9694 1.73785 53.6781 3.86924 53.6781H28.5301V63.3596H22.7349C21.9965 63.3596 21.3975 63.9509 21.3975 64.6798C21.3975 65.4087 21.9965 66 22.7349 66H51.2651C52.0035 66 52.6025 65.4087 52.6025 64.6798C52.6025 63.9509 52.0035 63.3596 51.2651 63.3596H45.4699V53.6781H70.1308C72.2691 53.6781 74 51.9626 74 49.8585V3.8196C74 1.71556 72.2621 0 70.1308 0ZM42.7952 63.3696H31.2048V53.6882H42.7952V63.3696ZM70.1308 51.0478H3.86924C3.21101 51.0478 2.67471 50.5183 2.67471 49.8686V43.1266H17.3856C18.124 43.1266 18.723 42.5352 18.723 41.8064C18.723 41.0775 18.124 40.4862 17.3856 40.4862H2.67471V3.81978C2.67471 3.17 3.21104 2.64058 3.86924 2.64058H70.121C70.7792 2.64058 71.3155 3.17003 71.3155 3.81978V40.4862H58.3984C57.6601 40.4862 57.0611 41.0775 57.0611 41.8064C57.0611 42.5352 57.6601 43.1266 58.3984 43.1266H71.3262V49.8686C71.3262 50.5183 70.7889 51.0478 70.1308 51.0478Z" fill="white"/>
</svg>
