<svg width="70" height="67" viewBox="0 0 70 67" fill="none" xmlns="http://www.w3.org/2000/svg">
<path d="M21.9232 67H1.45652C0.651452 67 0 66.3478 0 65.5435V1.45652C0 0.652163 0.651452 0 1.45652 0H31.7661C32.5712 0 33.2226 0.652163 33.2226 1.45652V25.8682C33.2226 26.6726 32.5712 27.3247 31.7661 27.3247C30.961 27.3247 30.3096 26.6726 30.3096 25.8682V2.91304H2.91304V64.087H21.9232C22.7283 64.087 23.3797 64.7391 23.3797 65.5435C23.3797 66.3478 22.7283 67 21.9232 67Z" fill="white"/>
<path d="M31.7643 67.0009H21.9214C21.1163 67.0009 20.4648 66.3488 20.4648 65.5444C20.4648 64.7401 21.1163 64.0879 21.9214 64.0879H31.7643C32.5693 64.0879 33.2208 64.7401 33.2208 65.5444C33.2208 66.3488 32.5693 67.0009 31.7643 67.0009Z" fill="white"/>
<path d="M48.446 66.9944H21.9214C21.1163 66.9944 20.4648 66.3422 20.4648 65.5379V25.8647C20.4648 25.0604 21.1163 24.4082 21.9214 24.4082H48.446C49.2511 24.4082 49.9025 25.0604 49.9025 25.8647V65.5379C49.9025 66.3422 49.2511 66.9944 48.446 66.9944ZM23.3779 64.0814H46.9895V27.3212H23.3779V64.0814Z" fill="white"/>
<path d="M68.4614 66.9972H38.1518C37.3468 66.9972 36.6953 66.345 36.6953 65.5406C36.6953 64.7363 37.3468 64.0841 38.1518 64.0841H67.0049V12.0654H39.6084V25.8561C39.6084 26.6605 38.9569 27.3126 38.1518 27.3126C37.3468 27.3126 36.6953 26.6605 36.6953 25.8561V10.6089C36.6953 9.80451 37.3468 9.15234 38.1518 9.15234H68.4614C69.2665 9.15234 69.9179 9.80451 69.9179 10.6089V65.5406C69.9179 66.345 69.2665 66.9972 68.4614 66.9972Z" fill="white"/>
<path d="M15.8122 39.5398H7.83543C7.03036 39.5398 6.37891 38.8876 6.37891 38.0832V27.4018C6.37891 26.5975 7.03036 25.9453 7.83543 25.9453H15.8122C16.6172 25.9453 17.2687 26.5975 17.2687 27.4018V38.0832C17.2687 38.8876 16.6172 39.5398 15.8122 39.5398ZM9.29195 36.6267H14.3556V28.8584H9.29195V36.6267Z" fill="white"/>
<path d="M15.8122 18.1699H7.83543C7.03036 18.1699 6.37891 17.5177 6.37891 16.7134V6.03269C6.37891 5.22834 7.03036 4.57617 7.83543 4.57617H15.8122C16.6172 4.57617 17.2687 5.22834 17.2687 6.03269V16.7134C17.2687 17.5177 16.6172 18.1699 15.8122 18.1699ZM9.29195 15.2569H14.3556V7.48922H9.29195V15.2569Z" fill="white"/>
<path d="M15.8122 59.3652H7.83543C7.03036 59.3652 6.37891 58.713 6.37891 57.9087V47.228C6.37891 46.4236 7.03036 45.7715 7.83543 45.7715H15.8122C16.6172 45.7715 17.2687 46.4236 17.2687 47.228V57.9087C17.2687 58.713 16.6172 59.3652 15.8122 59.3652ZM9.29195 56.4522H14.3556V48.6845H9.29195V56.4522Z" fill="white"/>
<path d="M63.0348 44.5645H55.0581C54.253 44.5645 53.6016 43.9124 53.6016 43.108V34.312C53.6016 33.5076 54.253 32.8555 55.0581 32.8555H63.0348C63.8399 32.8555 64.4913 33.5076 64.4913 34.312V43.108C64.4913 43.9124 63.8399 44.5645 63.0348 44.5645ZM56.5146 41.6515H61.5783V35.7685H56.5146V41.6515Z" fill="white"/>
<path d="M39.424 43.9363H31.4487C30.6436 43.9363 29.9922 43.2842 29.9922 42.4798V33.6831C29.9922 32.8787 30.6436 32.2266 31.4487 32.2266H39.424C40.2291 32.2266 40.8805 32.8787 40.8805 33.6831V42.4798C40.8805 43.2842 40.2291 43.9363 39.424 43.9363ZM32.9052 41.0233H37.9675V35.1396H32.9052V41.0233Z" fill="white"/>
<path d="M63.0348 26.9656H55.0581C54.253 26.9656 53.6016 26.3135 53.6016 25.5091V16.7124C53.6016 15.908 54.253 15.2559 55.0581 15.2559H63.0348C63.8399 15.2559 64.4913 15.908 64.4913 16.7124V25.5091C64.4913 26.3135 63.8399 26.9656 63.0348 26.9656ZM56.5146 24.0526H61.5783V18.1689H56.5146V24.0526Z" fill="white"/>
<path d="M63.0348 60.8927H55.0581C54.253 60.8927 53.6016 60.2405 53.6016 59.4361V50.6401C53.6016 49.8358 54.253 49.1836 55.0581 49.1836H63.0348C63.8399 49.1836 64.4913 49.8358 64.4913 50.6401V59.4361C64.4913 60.2405 63.8399 60.8927 63.0348 60.8927ZM56.5146 57.9796H61.5783V52.0966H56.5146V57.9796Z" fill="white"/>
<path d="M39.425 66.9963H30.4682C29.6632 66.9963 29.0117 66.3442 29.0117 65.5398V52.5698C29.0117 51.7654 29.6632 51.1133 30.4682 51.1133H39.425C40.2301 51.1133 40.8815 51.7654 40.8815 52.5698V65.5398C40.8815 66.3442 40.2301 66.9963 39.425 66.9963ZM31.9248 64.0833H37.9685V54.0263H31.9248V64.0833Z" fill="white"/>
</svg>
