<svg width="71" height="71" viewBox="0 0 71 71" fill="none" xmlns="http://www.w3.org/2000/svg">
<path d="M69.1408 68.0749H67.2417V41.6106C67.2417 41.0212 66.7642 40.548 66.1792 40.548H51.1452C50.5602 40.548 50.0827 41.0212 50.0827 41.6106V68.0749H44.0778L44.0811 51.3615C44.0811 50.7721 43.6036 50.299 43.0186 50.299H27.9846C27.3996 50.299 26.9221 50.7721 26.9221 51.3615V68.0749H20.9171V57.1965C20.9171 56.6071 20.4396 56.134 19.8546 56.134H4.82412C4.23911 56.134 3.76159 56.6071 3.76159 57.1965V68.0749H1.86253C1.27752 68.0749 0.8 68.548 0.8 69.1374C0.8 69.7268 1.27752 70.1999 1.86253 70.1999H69.14C69.725 70.1999 70.2025 69.7268 70.2025 69.1374C70.2025 68.5482 69.726 68.0749 69.1408 68.0749ZM52.2083 42.6731H65.1172V68.0749H52.2083V42.6731ZM29.0476 52.424H41.9565V68.0749H29.0476V52.424ZM5.88691 58.2596H18.7957L18.7925 68.0754H5.88698L5.88691 58.2596Z" fill="#3F3F3F" stroke="#3F3F3F" stroke-width="0.4"/>
<path d="M42.5232 0.8H28.4769C27.8919 0.8 27.4144 1.27313 27.4144 1.86253V10.594H18.6828C18.0978 10.594 17.6203 11.0672 17.6203 11.6566V25.7064C17.6203 26.2958 18.0978 26.7689 18.6828 26.7689H27.4144V35.5004C27.4144 36.0898 27.8919 36.5629 28.4769 36.5629H42.5232C43.1082 36.5629 43.5857 36.0898 43.5857 35.5004V26.7689H52.3173C52.9023 26.7689 53.3798 26.2958 53.3798 25.7064L53.3832 11.6566C53.3832 11.0672 52.9056 10.594 52.3206 10.594H43.5857V1.86253C43.5857 1.27366 43.1121 0.8 42.5232 0.8ZM51.2582 12.7191V24.6438H42.5232C41.9382 24.6438 41.4607 25.1169 41.4607 25.7064V34.4379H29.5394V25.7064C29.5394 25.1169 29.0619 24.6438 28.4769 24.6438H19.7454V12.7191H28.4769C29.0619 12.7191 29.5394 12.246 29.5394 11.6566V2.92506H41.4607V11.6566C41.4607 12.246 41.9382 12.7191 42.5232 12.7191H51.2582Z" fill="#3F3F3F" stroke="#3F3F3F" stroke-width="0.4"/>
</svg>
