<svg width="78" height="84" viewBox="0 0 78 84" fill="none" xmlns="http://www.w3.org/2000/svg">
<path d="M75.5799 69.1021H54.6278C54.7235 68.796 54.812 68.4899 54.89 68.1768L56.4877 67.5646C57.2352 67.2478 57.7206 66.4862 57.7206 65.6249V65.1836H61.3696C61.7628 66.1516 62.7053 66.8385 63.807 66.8385C64.9088 66.8385 65.8547 66.1516 66.2444 65.1836H71.5868C72.1359 65.1836 72.5788 64.7387 72.5788 64.1906C72.5788 63.6425 72.136 63.1977 71.5868 63.1977H69.2486L69.2416 27.9909H72.4052C72.9544 27.9909 73.3972 27.546 73.3972 26.9943C73.3972 26.4462 72.9544 26.0014 72.4052 26.0014H55.8073C55.2582 26.0014 54.8153 26.4463 54.8153 26.9943C54.8153 27.5424 55.2582 27.9909 55.8073 27.9909H58.971V57.289H53.8553C53.6109 56.7552 53.3452 56.232 53.044 55.7267L53.7384 54.1606C54.0502 53.4168 53.8518 52.5341 53.2318 51.9112L51.2514 49.9252C50.6598 49.2953 49.7741 49.0568 48.9486 49.4056L47.4287 50.0925C46.3908 49.4661 45.2889 48.9572 44.1305 48.5692V27.9905H47.2942C47.8397 27.9905 48.2862 27.5457 48.2862 26.994C48.2862 26.4459 47.8433 26.001 47.2942 26.001H30.6999C30.1508 26.001 29.7115 26.4459 29.7115 26.994C29.7115 27.542 30.1508 27.9905 30.6999 27.9905H33.8636V48.5619C32.7122 48.9499 31.6068 49.4588 30.5618 50.0888L29.0029 49.3877C28.2483 49.0673 27.3343 49.288 26.7638 49.8966L24.7799 51.8861C24.1387 52.4947 23.9332 53.388 24.2662 54.1746L24.9535 55.7192C24.6488 56.2246 24.3867 56.7514 24.1422 57.2816L19.0301 57.2852V27.9907H22.1938C22.7429 27.9907 23.1858 27.5458 23.1858 26.9941C23.1858 26.446 22.7429 26.0012 22.1938 26.0012H5.59585C5.05027 26.0012 4.60746 26.4461 4.60746 26.9941C4.60746 27.5422 5.0503 27.9907 5.59585 27.9907H8.76306V63.1938H6.42134C5.87576 63.1938 5.43296 63.6387 5.43296 64.1868C5.43296 64.7349 5.8758 65.1797 6.42134 65.1797H11.7425C12.1358 66.1478 13.0782 66.8347 14.1799 66.8347C15.2853 66.8347 16.2276 66.1478 16.6209 65.1797H20.2876V65.621C20.2876 66.5144 20.7659 67.2583 21.5524 67.575L23.1147 68.1729C23.1891 68.4861 23.2848 68.7922 23.3734 69.0982H17.6695L2.41844 69.1018C1.87286 69.1018 1.43005 69.5467 1.43005 70.0947C1.43005 70.6428 1.87289 71.0913 2.41844 71.0913H15.9554L15.3461 72.152C15.2256 72.1342 15.1052 72.1164 14.9812 72.1164C13.5286 72.1164 12.3454 73.3051 12.3454 74.7643C12.3454 76.2342 13.5287 77.4336 14.9812 77.4336C16.4336 77.4336 17.6169 76.2377 17.6169 74.7643C17.6169 74.1557 17.4043 73.6005 17.0572 73.152L18.2404 71.0914H24.1391C24.3871 71.6288 24.6492 72.1591 24.9575 72.6716L24.2631 74.2198C23.9407 74.985 24.1533 75.9068 24.7697 76.4905L26.7713 78.4978C27.3842 79.1135 28.2309 79.3377 29.0281 78.9996L30.5656 78.3092C31.9615 79.1527 33.4565 79.772 35.0259 80.1635L35.6317 81.7223C35.9116 82.4875 36.6981 83 37.5802 83H40.4215C41.2788 83 42.0369 82.516 42.3664 81.7294L42.9616 80.1598C44.5346 79.7719 46.0366 79.149 47.4325 78.3092L48.9736 79.0068C49.7034 79.3128 50.6245 79.1064 51.2339 78.4978L53.2284 76.4905C53.8519 75.8641 54.0503 74.9743 53.7244 74.1985L53.0406 72.6752C53.3453 72.1627 53.611 71.6324 53.859 71.0949H59.7577L60.9409 73.1556C60.5938 73.604 60.3812 74.1593 60.3812 74.7678C60.3812 76.2378 61.5645 77.4372 63.0169 77.4372C64.473 77.4372 65.6527 76.2413 65.6527 74.7678C65.6527 73.3086 64.4694 72.1199 63.0169 72.1199C62.8929 72.1199 62.7725 72.1413 62.6556 72.1555L62.0462 71.0949H75.5832C76.1323 71.0949 76.5752 70.65 76.5752 70.0983C76.5717 69.5431 76.1291 69.1021 75.5799 69.1021ZM14.9855 75.4408C14.6241 75.4408 14.3301 75.1347 14.3301 74.761C14.3301 74.4051 14.6276 74.099 14.9855 74.099C15.3433 74.099 15.6444 74.4016 15.6444 74.761C15.6409 75.1347 15.3468 75.4408 14.9855 75.4408ZM63.0179 54.2754C62.6601 54.2754 62.3625 53.9729 62.3625 53.6169C62.3625 53.2539 62.6566 52.9585 63.0179 52.9585C63.3793 52.9585 63.6769 53.2539 63.6769 53.6169C63.6733 53.9728 63.3757 54.2754 63.0179 54.2754ZM63.8044 64.849C63.4466 64.849 63.149 64.5465 63.149 64.1905C63.149 63.8311 63.4466 63.5321 63.8044 63.5321C64.1658 63.5321 64.4634 63.8275 64.4634 64.1905C64.4598 64.5536 64.1658 64.849 63.8044 64.849ZM67.2586 27.9912V63.1944H66.2418C65.8486 62.2263 64.9062 61.5394 63.8044 61.5394C62.7027 61.5394 61.7567 62.2263 61.367 63.1944H60.9561V59.048C61.0482 58.9733 61.1332 58.8843 61.1969 58.7775L62.6601 56.2257C62.7806 56.2435 62.901 56.2612 63.0215 56.2612C64.4776 56.2612 65.6572 55.0725 65.6572 53.6133C65.6572 52.1541 64.4739 50.9654 63.0215 50.9654C62.1783 50.9654 61.4379 51.3712 60.9561 51.9904L60.9526 27.9914L67.2586 27.9912ZM58.9721 59.2756V63.1942H57.718V62.7707C57.718 61.8809 57.2079 61.0944 56.4604 60.8203L54.8909 60.2046C54.813 59.8914 54.7209 59.5818 54.6252 59.2757L58.9721 59.2756ZM42.1584 27.9912V46.2775C41.7864 45.7259 41.1558 45.3949 40.4259 45.3949H37.5847C36.8478 45.3949 36.2066 45.733 35.8487 46.2597V27.9908L42.1584 27.9912ZM14.9856 54.2754C14.6313 54.2754 14.3301 53.9729 14.3301 53.6169C14.3301 53.2539 14.6242 52.9585 14.9856 52.9585C15.3469 52.9585 15.6445 53.2539 15.6445 53.6169C15.641 53.9728 15.3398 54.2754 14.9856 54.2754ZM14.1813 64.849C13.8271 64.849 13.5224 64.5465 13.5224 64.1905C13.5224 63.8311 13.8235 63.5321 14.1813 63.5321C14.5427 63.5321 14.8403 63.8275 14.8403 64.1905C14.8368 64.5536 14.5427 64.849 14.1813 64.849ZM16.6187 63.194C16.2255 62.2259 15.2831 61.539 14.1778 61.539C13.0761 61.539 12.1301 62.2259 11.7404 63.194H10.7413V27.9909H17.0509V51.9936C16.5691 51.3743 15.8251 50.9685 14.9855 50.9685C13.533 50.9685 12.3498 52.1573 12.3498 53.6165C12.3498 55.0756 13.5331 56.2644 14.9855 56.2644C15.1131 56.2644 15.23 56.243 15.3504 56.2288L16.8101 58.7807C16.8703 58.8874 16.9553 58.9764 17.051 59.0511V63.1975L16.6187 63.194ZM19.0314 63.194V59.2754H23.3784C23.2827 59.5815 23.187 59.8912 23.1126 60.2043L21.5751 60.8058C20.7922 61.0834 20.2855 61.8522 20.2855 62.7668V63.1904L19.0314 63.194ZM51.8336 75.0815L49.8355 77.0888C49.7788 77.1457 49.7257 77.1599 49.7611 77.1777L47.7666 76.2737C47.4584 76.1349 47.1076 76.1634 46.8242 76.3449C45.3469 77.3059 43.7313 77.9714 42.0202 78.3344C41.6907 78.4021 41.4215 78.637 41.301 78.9537L40.5323 80.9789C40.5252 80.9896 40.4897 81.0109 40.4224 81.0109H37.5812C37.5351 81.0109 37.5032 81.0002 37.4891 81.0002C37.482 81.0002 37.4784 81.0002 37.4784 81.0038L36.6778 78.9431C36.5538 78.6299 36.2845 78.4021 35.9621 78.3309C34.2652 77.9679 32.6533 77.2988 31.1795 76.3414C30.8961 76.1599 30.5453 76.1314 30.2406 76.2702L28.2851 77.16C28.2709 77.1564 28.2284 77.1422 28.1717 77.0853L26.1523 75.0565C26.1063 75.0138 26.0956 74.9747 26.0815 75.0067L26.9813 72.9994C27.1195 72.6898 27.0911 72.3339 26.914 72.0491C26.7085 71.7323 26.5279 71.4085 26.3543 71.081H26.6518C27.1974 71.081 27.6402 70.6361 27.6402 70.0844C27.6402 69.5363 27.1974 69.0915 26.6518 69.0915H25.4721C25.256 68.4829 25.0647 67.86 24.9301 67.223C24.8627 66.892 24.6289 66.6179 24.3172 66.4969L22.2907 65.7281C22.2836 65.721 22.2694 65.6819 22.2694 65.6143V65.1729H23.0807C23.6298 65.1729 24.0727 64.728 24.0727 64.18C24.0727 63.6319 23.6299 63.187 23.0807 63.187H22.2694V62.7635C22.2694 62.7137 22.2801 62.6781 22.2836 62.6603L24.3207 61.8595C24.6324 61.7385 24.8592 61.468 24.93 61.1406C25.0647 60.5035 25.2595 59.8807 25.4792 59.2685H26.6518C27.1974 59.2685 27.6402 58.8236 27.6402 58.2755C27.6402 57.7274 27.1974 57.2826 26.6518 57.2826H26.3649C26.5385 56.9623 26.7191 56.6455 26.914 56.3358C27.0947 56.0547 27.123 55.6988 26.9849 55.3926L26.0992 53.4102C26.0992 53.4102 26.1063 53.3782 26.1736 53.3106L28.193 51.2819C28.2284 51.2427 28.2532 51.2285 28.2496 51.2214L30.2442 52.1182C30.5524 52.2535 30.9031 52.2286 31.1831 52.0471C32.6462 51.0968 34.2617 50.4205 35.9764 50.0362C36.2953 49.965 36.561 49.7373 36.6814 49.4312L37.4785 47.3989C37.4998 47.3918 37.5352 47.3811 37.5848 47.3811H40.4261C40.4934 47.3811 40.5288 47.3989 40.5217 47.374L41.3047 49.4205C41.4251 49.7301 41.6908 49.9614 42.0168 50.0362C43.742 50.4206 45.3611 51.0968 46.8278 52.047C47.1112 52.2286 47.4655 52.257 47.7702 52.1182L49.7258 51.2285C49.7364 51.2285 49.7754 51.2391 49.8356 51.3068L51.8337 53.3141C51.8868 53.3674 51.9045 53.4066 51.9222 53.3781L51.0259 55.3961C50.8913 55.7022 50.9161 56.0581 51.0968 56.3393C51.2952 56.6489 51.4758 56.9657 51.6459 57.286H51.3589C50.8098 57.286 50.3669 57.7309 50.3669 58.279C50.3669 58.8271 50.8098 59.2719 51.3589 59.2719H52.5281C52.7477 59.8841 52.939 60.5034 53.0736 61.144C53.1445 61.4714 53.3712 61.7419 53.683 61.8629L55.7059 62.6459C55.7166 62.6566 55.7378 62.6993 55.7378 62.7669V63.1905H54.923C54.3739 63.1905 53.931 63.6353 53.931 64.1834C53.931 64.7315 54.3738 65.1764 54.923 65.1764H55.7378V65.6177C55.7378 65.6889 55.7166 65.7245 55.7484 65.7138L53.6901 66.5003C53.3748 66.6213 53.1446 66.8954 53.0737 67.2264C52.9426 67.8635 52.7513 68.4863 52.5317 69.0949H51.359C50.8099 69.0949 50.367 69.5398 50.367 70.0879C50.367 70.6359 50.8098 71.0845 51.359 71.0845H51.6566C51.483 71.4119 51.2988 71.7358 51.0968 72.0525C50.9161 72.3373 50.8878 72.6932 51.0295 73.0028L51.9117 74.9532C51.9081 74.9674 51.8938 75.021 51.8336 75.0815ZM63.6737 74.7611C63.6737 75.1348 63.3796 75.4409 63.0147 75.4409C62.6534 75.4409 62.3593 75.1348 62.3593 74.7611C62.3593 74.4052 62.6569 74.0992 63.0147 74.0992C63.3761 74.1027 63.6737 74.4052 63.6737 74.7611ZM76.4661 20.2075L39.4412 1.10944C39.1577 0.963519 38.8212 0.963519 38.5378 1.10944L1.53735 20.2075C1.13348 20.4175 0.920909 20.8802 1.02719 21.3251C1.13348 21.77 1.5338 22.0868 1.99082 22.0868H76.0089C76.4695 22.0868 76.8627 21.7736 76.9725 21.3251C77.0788 20.8767 76.8699 20.4176 76.4661 20.2075ZM6.08301 20.0972L38.9913 3.10928L71.9214 20.0972H6.08301ZM38.9913 52.0722C32.3381 52.0722 26.9281 57.5069 26.9281 64.1911C26.9281 70.875 32.3415 76.31 38.9913 76.31C45.6517 76.31 51.0718 70.8753 51.0718 64.1911C51.0718 57.5072 45.6549 52.0722 38.9913 52.0722ZM38.9913 74.3201C33.4292 74.3201 28.9089 69.7751 28.9089 64.1911C28.9089 58.6069 33.433 54.0621 38.9913 54.0621C44.5605 54.0621 49.0955 58.6071 49.0955 64.1911C49.0955 69.7753 44.5644 74.3201 38.9913 74.3201ZM43.1788 65.0594C43.9476 66.1128 44.1566 67.3977 43.7599 68.5829C43.3099 69.9247 42.1621 70.9319 40.5289 71.4231C40.3482 71.4764 40.164 71.5049 39.9798 71.5405V72.1242C39.9798 72.6723 39.5405 73.1208 38.9914 73.1208C38.4423 73.1208 37.9994 72.6759 37.9994 72.1242V71.633C36.5433 71.4658 35.2042 70.8109 34.3575 69.7574C34.0138 69.3303 34.0811 68.704 34.5062 68.3587C34.9314 68.0134 35.5513 68.081 35.895 68.5081C36.7204 69.5367 38.4351 69.9603 39.9656 69.5154C40.9576 69.22 41.6413 68.6612 41.8787 67.9493C42.07 67.3834 41.9602 66.757 41.574 66.2339C40.9115 65.3192 40.0506 65.1661 38.7043 64.9953C37.2589 64.8102 35.4628 64.5789 34.4318 62.511C33.9429 61.5252 33.9075 60.3969 34.3326 59.4111C34.8286 58.2686 35.8843 57.4073 37.3085 56.9802C37.5352 56.9126 37.7655 56.8699 37.9958 56.8307V56.2791C37.9958 55.731 38.4386 55.2861 38.9878 55.2861C39.537 55.2861 39.9762 55.731 39.9762 56.2791V56.8201C41.2551 57.0229 42.4242 57.6244 43.1824 58.564C43.5296 58.9911 43.4623 59.6175 43.0407 59.9628C42.6155 60.308 41.9956 60.244 41.652 59.8169C40.8761 58.8595 39.2854 58.468 37.8754 58.8844C37.0216 59.1407 36.4087 59.6069 36.1536 60.1977C35.9588 60.6497 35.9801 61.1551 36.2103 61.6178C36.7453 62.6891 37.5211 62.835 38.9631 63.0201C40.3058 63.1945 41.9779 63.408 43.1788 65.0594Z" fill="white" stroke="white" stroke-width="0.5"/>
</svg>
