<svg width="71" height="72" viewBox="0 0 71 72" fill="none" xmlns="http://www.w3.org/2000/svg">
<path d="M52.5155 27.7299C56.2336 27.7299 59.5847 25.4918 61.0043 22.0564C62.4272 18.6241 61.639 14.6714 59.0099 12.0421C56.3807 9.41596 52.428 8.63385 48.9956 10.0568C45.5633 11.4827 43.3251 14.8337 43.3281 18.5486C43.3372 23.6204 47.4465 27.7268 52.5155 27.7299ZM59.3862 18.5488C59.3862 21.3314 57.7076 23.8402 55.1387 24.9051C52.5667 25.967 49.6096 25.3774 47.6423 23.41C45.6779 21.4427 45.0913 18.4827 46.1562 15.9136C47.2241 13.3447 49.7329 11.6691 52.5155 11.6721C56.3118 11.6781 59.3862 14.7555 59.3862 18.5488Z" fill="white"/>
<path d="M15.8985 60.1214C10.4537 60.8915 6.05587 62.7566 6.05587 65.6806C6.05587 69.5762 13.85 71.6187 21.5417 71.6187C25.8464 71.6187 30.1814 70.981 33.1717 69.7326C33.8485 70.8967 35.0909 71.6157 36.4386 71.6187H66.232C68.3347 71.6187 70.0373 69.9161 70.0373 67.8133V48.561C70.0373 46.4612 68.3347 44.7586 66.232 44.7586H59.5027V40.4299C59.5027 38.9228 58.2814 37.7014 56.7742 37.6954H45.8728C44.3657 37.7014 43.1443 38.9228 43.1443 40.4299V44.7255H40.3889C42.287 41.4526 43.2917 37.7315 43.2977 33.9442L45.4005 32.5574V32.5604C46.1014 32.9244 46.8264 33.2403 47.5724 33.499L48.1108 36.071C48.2191 36.6064 48.6884 36.9945 49.2359 36.9945H55.7757C56.3232 36.9915 56.7954 36.6064 56.9068 36.071L57.4392 33.499C58.1822 33.2493 58.9103 32.9455 59.6111 32.5905L61.8131 34.0375C62.2704 34.3383 62.878 34.2781 63.2691 33.8931L67.8896 29.2725C68.2777 28.8874 68.3439 28.2798 68.0431 27.8226L66.572 25.5905C66.918 24.8986 67.2158 24.1827 67.4564 23.4487L70.0735 22.9103H70.0765C70.612 22.799 71 22.3267 71 21.7792V15.2183C71 14.6678 70.6119 14.1956 70.0765 14.0842L67.4113 13.5367C67.1706 12.8238 66.8788 12.1259 66.5419 11.4521L68.0821 9.14179C68.3799 8.68455 68.3168 8.07691 67.9257 7.69186L63.3051 3.07129C62.9171 2.68624 62.3094 2.62608 61.8522 2.9269L59.5419 4.46709C58.8771 4.13619 58.1882 3.85643 57.4843 3.62784L56.9067 0.923498C56.7954 0.388043 56.3231 0.00300337 55.7756 0H49.2358C48.6883 0 48.219 0.388058 48.1108 0.923498L47.5513 3.62784C46.8473 3.85947 46.1645 4.14224 45.5026 4.47317L43.1924 2.93298C42.7321 2.63217 42.1245 2.69534 41.7364 3.08039L37.1159 7.70095C36.7248 8.086 36.6616 8.69068 36.9624 9.14789L38.5026 11.4582C38.1627 12.132 37.8709 12.8299 37.6303 13.5458L34.965 14.0933H34.968C34.4326 14.2046 34.0506 14.6769 34.0506 15.2244V16.2111C28.2237 12.0718 20.7241 11.0882 14.0281 13.588C7.33189 16.0848 2.30803 21.7371 0.614589 28.6803C-1.079 35.6232 0.777033 42.954 5.57207 48.2546L15.8985 60.1214ZM21.7283 14.6404C26.418 14.6404 30.9456 16.3521 34.4618 19.4565C37.9784 22.5579 40.2405 26.8385 40.8271 31.4923C41.4107 36.143 40.2766 40.8505 37.6385 44.7256H36.4142C34.3114 44.7256 32.6088 46.4312 32.6088 48.5309V50.748L21.7043 63.3013L7.30428 46.7235C3.98024 43.0024 2.22951 38.1407 2.41895 33.1567C2.61147 28.1751 4.72623 23.4581 8.32403 20.005C11.9218 16.5516 16.7165 14.6294 21.7044 14.6415L21.7283 14.6404ZM38.7636 15.6632C39.1847 15.5759 39.5216 15.2601 39.6389 14.8479C39.9187 13.8342 40.3188 12.8565 40.8272 11.936C41.0528 11.5691 41.0528 11.1028 40.8272 10.7358L39.4645 8.67215L42.7524 5.38424L44.8401 6.75593L44.8371 6.75292C45.198 6.99056 45.6613 7.00861 46.0403 6.79804C46.9428 6.29267 47.8994 5.89857 48.8981 5.62188C49.3102 5.50155 49.6231 5.16463 49.7133 4.74351L50.2217 2.28583H54.8423L55.3506 4.74351C55.4409 5.16164 55.7537 5.49856 56.1659 5.62188C57.1646 5.90465 58.1242 6.30774 59.0236 6.82215C59.4026 7.03272 59.8629 7.01467 60.2239 6.77702L62.3115 5.40533L65.5994 8.69325L64.2368 10.7569C64.0112 11.1269 64.0112 11.5901 64.2368 11.9601C64.7542 12.8686 65.1603 13.8403 65.446 14.848C65.5634 15.2601 65.9033 15.576 66.3244 15.6632L68.734 16.1566V20.7771L66.3545 21.2614C65.9304 21.3517 65.5935 21.6706 65.4762 22.0857C65.1964 23.1145 64.7903 24.1042 64.2669 25.0367C64.0593 25.4097 64.0774 25.8699 64.315 26.2279L65.6386 28.2374L62.3507 31.5253L60.3563 30.2168C59.9954 29.9792 59.5291 29.9641 59.1561 30.1807C58.2175 30.7132 57.2188 31.1283 56.181 31.4201C55.7658 31.5344 55.45 31.8743 55.3657 32.2985L54.8814 34.6087H50.2608L49.7765 32.2985H49.7735C49.6893 31.8743 49.3734 31.5344 48.9583 31.4201C47.9054 31.1403 46.8887 30.7342 45.9321 30.2108C45.556 29.9972 45.0928 30.0093 44.7318 30.2499L43.1916 31.2908V31.2878C42.5418 26.219 40.1142 21.5415 36.336 18.0968V16.1566L38.7636 15.6632ZM45.4538 40.4294C45.4538 40.1978 45.6403 40.0113 45.8719 40.0052H56.7734C57.005 40.0113 57.1915 40.1978 57.1915 40.4294V44.7251H45.4537L45.4538 40.4294ZM67.7264 48.5308V67.7831C67.7264 68.6074 67.0556 69.2782 66.2314 69.2782H63.876V47.0356H66.2314C67.0556 47.0356 67.7264 47.7065 67.7264 48.5308ZM61.5657 69.3233H59.5021V47.036H61.5657V69.3233ZM41.0796 69.3233V47.036H43.1432V69.3087L41.0796 69.3233ZM45.4535 47.0507L57.1913 47.0537V69.3079H45.4535V47.0507ZM38.7693 69.3079H36.4139C35.5897 69.3079 34.9189 68.6401 34.9189 67.8129V48.5605C34.9189 47.7363 35.5897 47.0685 36.4139 47.0685H38.7693V69.3079ZM21.5208 69.3079C12.9958 69.3079 8.34521 66.9134 8.34521 65.6801C8.34521 64.6483 11.6271 62.8013 17.7096 62.2297L20.7899 65.8275C21.0125 66.0772 21.3314 66.2186 21.6653 66.2186C22.0112 66.2336 22.3422 66.0952 22.5768 65.8425L25.6572 62.2778C28.0397 62.4644 30.377 63.0239 32.588 63.9323V67.4579C30.4613 68.4145 26.7188 69.3079 21.5208 69.3079ZM27.489 60.1661L32.6089 54.2912V61.4386C30.9514 60.8369 29.2337 60.4098 27.489 60.1661Z" fill="white"/>
<path d="M21.5177 43.6349C25.7712 43.6379 29.6099 41.078 31.2401 37.1463C32.8706 33.2145 31.9741 28.6906 28.966 25.6788C25.9578 22.6706 21.4335 21.7682 17.5016 23.3956C13.5699 25.023 11.0039 28.8585 11.0039 33.115C11.0129 38.9178 15.7152 43.6234 21.5177 43.6349ZM21.5177 24.9062C24.8387 24.9032 27.8349 26.9006 29.1074 29.969C30.3798 33.0373 29.6789 36.5689 27.3325 38.9182C24.9861 41.2676 21.4546 41.9715 18.3863 40.6991C15.318 39.4297 13.3146 36.4365 13.3146 33.1154C13.3236 28.5881 16.9906 24.9178 21.5177 24.9062Z" fill="white"/>
</svg>
