<svg width="52" height="55" viewBox="0 0 52 55" fill="none" xmlns="http://www.w3.org/2000/svg">
<path d="M50.3498 10.2902H39.5479C39.0319 9.81175 38.3415 9.51503 37.5791 9.51503H36.6864L36.6888 1.64402C36.6888 1.28749 36.3982 1.0023 36.0379 1.0023L15.5006 1C15.1403 1 14.8497 1.28752 14.8497 1.64172V7.22191H13.9548C12.3694 7.22191 11.0817 8.50311 11.0817 10.0787V10.288L1.65089 10.2903C1.29059 10.2903 1 10.5779 1 10.9321V43.2399C1 43.5964 1.29056 43.884 1.65089 43.884H19.9424V47.6539C19.9307 49.2962 18.622 50.5935 16.9647 50.6027H14.3426C13.9847 50.6027 13.6941 50.8902 13.6941 51.2468V53.3583C13.6941 53.7125 13.9847 54 14.3426 54H37.6434C38.0014 54 38.2943 53.7125 38.2943 53.3583V51.2468C38.2943 50.8902 38.0038 50.6027 37.6434 50.6027H35.0261C33.3873 50.5912 32.0576 49.2709 32.0576 47.6562V43.884H50.3515C50.7095 43.884 51 43.5965 51 43.2399V10.9321C51 10.5778 50.7071 10.2903 50.3491 10.2903L50.3498 10.2902ZM18.3293 21.8185C18.5292 21.8185 18.7175 21.7265 18.8407 21.5701L23.6222 15.5297H42.2089C42.3228 15.5297 42.4018 15.5666 42.4832 15.6678C42.5529 15.7506 42.5738 15.8334 42.5506 15.9484L39.3079 32.4359C39.2474 32.7625 38.9685 32.9879 38.6222 32.9879L12.9155 32.9902C12.5714 32.9902 12.2878 32.7625 12.2297 32.429L10.2121 22.2532C10.1935 22.1336 10.2167 22.0439 10.2981 21.9427C10.3678 21.8576 10.4469 21.8185 10.5608 21.8185L18.3293 21.8185ZM37.5812 10.7983C38.4505 10.7983 39.1572 11.4976 39.1572 12.3578V14.2485H36.6886V10.8006L37.5812 10.7983ZM16.1489 2.2855H35.3866V14.246H23.3059C23.106 14.246 22.9177 14.3357 22.7945 14.4921L18.013 20.5324H16.1487L16.151 2.28548L16.1489 2.2855ZM12.3809 10.0782C12.3809 9.21101 13.0875 8.50718 13.9569 8.50718H14.8518V20.5324H12.3832L12.3809 10.0782ZM35.0218 51.8858H36.9953V52.7115L14.9935 52.7138V51.8881H16.9717C18.8011 51.8766 20.3306 50.7725 20.9489 49.19H27.2924C27.6527 49.19 27.9433 48.9025 27.9433 48.5483C27.9433 48.1918 27.6528 47.9042 27.2924 47.9042L21.228 47.9019C21.2327 47.8191 21.242 47.7386 21.242 47.6535V43.8813H30.7584V47.6535C30.7584 49.9721 32.6693 51.872 35.0218 51.8858ZM49.7011 42.598H2.2997V11.5733H11.0842V20.5324H10.5635C10.0521 20.5324 9.59885 20.751 9.29203 21.1328C8.97822 21.5054 8.85037 21.9792 8.93638 22.4807L10.9517 32.6635C11.1214 33.5973 11.949 34.2736 12.916 34.2736L38.6227 34.2759C39.592 34.2759 40.4172 33.5997 40.5846 32.675L43.8226 16.2034C43.9272 15.7134 43.804 15.2327 43.4902 14.8601C43.1741 14.4645 42.7185 14.2459 42.2094 14.2459H40.4544V12.3552C40.4544 12.0838 40.4126 11.8216 40.3405 11.5732H49.7011L49.7011 42.598ZM4.19621 37.8505H47.7903C48.1506 37.8505 48.4412 38.138 48.4412 38.4922C48.4412 38.8487 48.1507 39.1339 47.7903 39.1339L4.19621 39.1362C3.83591 39.1362 3.5477 38.8487 3.5477 38.4945C3.5477 38.138 3.83826 37.8505 4.19621 37.8505ZM27.3762 40.8729C27.3762 41.2294 27.0857 41.517 26.7277 41.517H25.3911C25.0308 41.517 24.7402 41.2295 24.7402 40.8729C24.7402 40.5187 25.0308 40.2312 25.3911 40.2312H26.7277C27.0857 40.2312 27.3762 40.5187 27.3762 40.8729ZM18.406 25.2551H19.8147C20.44 27.5392 22.7041 29.7864 26.0886 31.4609C26.1793 31.5069 26.2792 31.5276 26.3792 31.5276C26.4768 31.5276 26.5768 31.5046 26.6697 31.4609C30.0078 29.8163 32.2625 27.6081 32.9276 25.3588H34.3641C34.7244 25.3588 35.0126 25.0712 35.0126 24.717C35.0126 24.3628 34.7221 24.0753 34.3641 24.0753H33.1484C33.2437 22.6147 32.7393 21.6073 32.2395 20.9931C31.4492 20.0179 30.2079 19.4336 28.9225 19.4336C27.9322 19.4336 27.0303 19.7855 26.3818 20.4043C25.7356 19.7855 24.8359 19.4336 23.8457 19.4336C22.5626 19.4336 21.3236 20.0156 20.531 20.9931C20.0452 21.5934 19.5524 22.571 19.6174 23.9764H18.4087C18.0507 23.9764 17.7602 24.2639 17.7602 24.6181C17.7579 24.9677 18.0481 25.2551 18.406 25.2551ZM26.3813 30.1636C23.6639 28.7628 21.8113 27.0101 21.1767 25.2528H26.1163L26.7857 26.8307C26.8671 27.0216 27.0391 27.1643 27.2437 27.2103C27.2902 27.2218 27.3366 27.2241 27.3831 27.2241C27.5412 27.2241 27.6993 27.1666 27.8202 27.0584L29.717 25.3541H31.5603C30.8909 27.0792 29.0521 28.7927 26.3813 30.1636ZM21.5439 21.7909C22.0902 21.117 22.9503 20.7145 23.8452 20.7145C24.7123 20.7145 25.4306 21.094 25.8187 21.7541C25.935 21.9519 26.1488 22.0738 26.3789 22.0738H26.3813C26.6114 22.0738 26.8253 21.9542 26.9415 21.7564C27.332 21.094 28.0549 20.7145 28.9243 20.7145C29.8215 20.7145 30.6816 21.1193 31.2279 21.7932C31.716 22.3958 31.9252 23.1756 31.8509 24.0727H29.4659C29.3055 24.0727 29.1498 24.1325 29.0289 24.2383L27.6272 25.4988L27.146 24.3648C27.0437 24.1256 26.809 23.9714 26.5463 23.9714H20.9116C20.8628 23.1135 21.0744 22.3705 21.5439 21.7909ZM17.7782 9.27337H18.8894V10.3866C18.8894 10.7409 19.1799 11.0283 19.5403 11.0283H21.5068C21.8671 11.0283 22.1577 10.7408 22.1577 10.3866V9.27337H23.2828C23.6431 9.27337 23.9313 8.98585 23.9313 8.6293V6.68107C23.9313 6.32454 23.6407 6.03699 23.2828 6.03699L22.1554 6.03929V4.93981C22.1554 4.58329 21.8648 4.29574 21.5045 4.29574H19.5379C19.1776 4.29574 18.887 4.58326 18.887 4.93981V6.03929H17.7759C17.4156 6.03929 17.1274 6.32681 17.1274 6.68337V8.6316C17.1274 8.98353 17.4179 9.27337 17.7782 9.27337ZM18.4268 7.32514H19.5402C19.8982 7.32514 20.1887 7.03762 20.1887 6.68342V5.58394H20.8582V6.68342C20.8582 7.03764 21.1487 7.32514 21.5067 7.32514H22.6317V7.98758H21.5067C21.1487 7.98758 20.8582 8.2751 20.8582 8.63166V9.74492H20.1887V8.63166C20.1887 8.27743 19.8982 7.98758 19.5402 7.98758H18.4268V7.32514ZM26.7459 5.93124C26.7459 5.57702 27.0365 5.28952 27.3944 5.28952H33.6059C33.9662 5.28952 34.2544 5.57704 34.2544 5.93124C34.2544 6.28546 33.9638 6.57531 33.6059 6.57531H27.3944C27.0365 6.57531 26.7459 6.28549 26.7459 5.93124ZM25.3442 9.11232C25.3442 8.7581 25.6348 8.46825 25.9927 8.46825H33.6056C33.9659 8.46825 34.2541 8.75577 34.2541 9.11232C34.2541 9.46885 33.9635 9.7564 33.6056 9.7564L25.9927 9.7541C25.6348 9.7541 25.3442 9.46882 25.3442 9.11232ZM25.3442 12.2819C25.3442 11.9254 25.6348 11.6379 25.9927 11.6379H33.6056C33.9659 11.6379 34.2541 11.9254 34.2541 12.2819C34.2541 12.6362 33.9635 12.9236 33.6056 12.9236H25.9927C25.6348 12.9236 25.3442 12.6361 25.3442 12.2819Z" fill="url(#paint0_linear_1438_23478)" stroke="url(#paint1_linear_1438_23478)" stroke-width="0.5"/>
<defs>
<linearGradient id="paint0_linear_1438_23478" x1="26" y1="1" x2="26" y2="54" gradientUnits="userSpaceOnUse">
<stop stop-color="#63388B"/>
<stop offset="1" stop-color="#327EB2"/>
</linearGradient>
<linearGradient id="paint1_linear_1438_23478" x1="26" y1="1" x2="26" y2="54" gradientUnits="userSpaceOnUse">
<stop stop-color="#63388B"/>
<stop offset="1" stop-color="#327EB2"/>
</linearGradient>
</defs>
</svg>
