<svg width="40" height="64" viewBox="0 0 40 64" fill="none" xmlns="http://www.w3.org/2000/svg">
<path d="M39 6.48639V4.87735C39 2.73819 37.2433 1 35.0815 1H4.91882C2.75693 1 1.00028 2.73819 1.00028 4.87735V54.699C1.00028 55.1134 1.34019 55.4497 1.75894 55.4497L37.4796 55.4524V59.1361C37.4796 60.4384 36.4027 61.4959 35.0812 61.4959H4.91854C3.59697 61.4959 2.52011 60.4384 2.52011 59.1361V57.3656C2.52011 56.9512 2.18019 56.6149 1.75866 56.6149C1.33989 56.6149 1 56.9512 1 57.3656V59.1361C1 61.2672 2.75666 63 4.91854 63H35.0812C37.2431 63 38.9997 61.2672 38.9997 59.1361V9.15045C38.9997 8.73607 38.6598 8.39976 38.2411 8.39976C37.8196 8.39976 37.4796 8.7361 37.4796 9.15045V53.9485H2.51983V7.23757H38.2405C38.6593 7.23757 38.9992 6.90122 38.9992 6.48688L39 6.48639ZM37.4799 5.73571H2.52011V4.88004C2.52011 3.56968 3.59697 2.50682 4.91854 2.50682H35.0812C36.381 2.50682 37.4796 3.59386 37.4796 4.88004L37.4799 5.73571ZM18.3219 59.233C17.9004 59.233 17.5605 58.8966 17.5605 58.4795C17.5605 58.0652 17.9004 57.7289 18.3219 57.7289H21.6749C22.0964 57.7289 22.4363 58.0652 22.4363 58.4795C22.4363 58.8939 22.0964 59.233 21.6749 59.233H18.3219ZM13.1335 30.028C12.2225 30.028 11.4285 30.5338 11.0233 31.3088H10.7432C9.12254 31.3088 7.80091 32.6138 7.80091 34.2202V34.2713C6.34881 34.9951 5.36439 35.7539 4.88579 36.5396C4.85588 36.5881 4.83141 36.6419 4.81237 36.6957C4.42895 37.8608 4.21956 39.1604 4.18965 40.5489C4.16789 41.1758 4.38816 41.7409 4.81781 42.166C5.24474 42.61 5.80494 42.8468 6.43579 42.8468L33.5611 42.8441C34.192 42.8441 34.7522 42.6073 35.1791 42.1634C35.6142 41.7113 35.8318 41.1516 35.81 40.557C35.7774 39.1605 35.568 37.8609 35.1873 36.6958C35.171 36.642 35.1438 36.5908 35.1166 36.5397C34.5211 35.5603 33.2022 34.6481 31.0784 33.7494C30.695 33.588 30.2463 33.7628 30.0804 34.1449C29.9145 34.527 30.094 34.9683 30.4801 35.1324C32.6121 36.0338 33.4496 36.7711 33.7705 37.2474C34.0887 38.251 34.2655 39.3757 34.2926 40.6C34.3008 40.8045 34.2328 40.966 34.0805 41.1274C33.9391 41.2754 33.7787 41.34 33.5639 41.34L6.43851 41.3427C6.22096 41.3427 6.06324 41.2781 5.90824 41.1166C5.76139 40.9713 5.70157 40.818 5.70972 40.5919C5.73692 39.3758 5.91095 38.2537 6.22911 37.25C6.41674 36.9783 6.84368 36.5289 7.80087 35.9773V39.042C7.80087 39.8062 8.33114 40.4466 9.04363 40.6376C9.12522 40.9632 9.42434 41.2081 9.77786 41.2081C10.1966 41.2081 10.5393 40.8717 10.5393 40.4546V39.4429C10.5393 39.0285 10.1994 38.6894 9.77786 38.6894C9.60382 38.6894 9.4461 38.7486 9.31829 38.8455V34.2174C9.31829 33.4424 9.95461 32.8101 10.7405 32.8101H12.2742C13.0574 32.8101 13.6937 33.4397 13.6937 34.2174V38.8455C13.5659 38.7486 13.4082 38.6894 13.2369 38.6894C12.8154 38.6894 12.4754 39.0258 12.4754 39.4429V40.4546C12.4754 40.869 12.8153 41.2081 13.2369 41.2081C13.5931 41.2081 13.8895 40.9659 13.9711 40.6376C14.6835 40.4466 15.2139 39.8062 15.2139 39.042L15.2166 34.2175C15.2166 33.8812 15.154 33.5556 15.048 33.2569C15.3036 33.1843 15.5646 33.1116 15.8311 33.039C15.9508 33.0067 16.0596 32.9448 16.1493 32.8614C16.7666 32.291 17.1582 31.2685 17.3458 29.7402C17.3812 29.455 17.2479 29.1724 17.0032 29.0164C15.3852 27.9912 14.4199 26.2503 14.4199 24.3641V19.3486C14.4199 16.308 16.9189 13.8325 19.9945 13.8325C23.0755 13.8325 25.5826 16.3081 25.5826 19.3486V24.3641C25.5826 26.2503 24.6173 27.9885 22.9993 29.0164C22.7519 29.1724 22.6186 29.455 22.6567 29.7402C22.7083 30.1519 22.7736 30.5232 22.8552 30.8622C22.8634 30.9402 22.8824 31.0156 22.915 31.0855C23.1326 31.8901 23.4426 32.4793 23.8559 32.8614C23.9457 32.9421 24.0517 33.004 24.1687 33.0363C25.7023 33.4641 26.8064 33.7924 27.7364 34.1019V34.6723C26.9722 34.9737 26.4284 35.7109 26.4284 36.572C26.4284 37.7021 27.3557 38.6196 28.4979 38.6196C29.64 38.6196 30.5673 37.7021 30.5673 36.572C30.5673 35.7109 30.0234 34.9737 29.2593 34.6723V32.3879C29.2593 31.0883 28.1906 30.0281 26.8744 30.0281H24.2367C24.2339 30.0173 24.2339 30.0119 24.2312 30.0039C26.0396 28.6773 27.1055 26.6028 27.1055 24.3641V19.3486C27.1055 15.4793 23.9185 12.3308 19.9972 12.3308C16.0868 12.3308 12.9049 15.4789 12.9049 19.3486V24.3641C12.9049 26.6028 13.9708 28.6746 15.7792 30.0039C15.7765 30.0119 15.7765 30.02 15.7737 30.0281L13.1335 30.028ZM28.4919 37.1126C28.19 37.1126 27.9426 36.8677 27.9426 36.5691C27.9426 36.2704 28.19 36.0255 28.4919 36.0255C28.7964 36.0255 29.0412 36.2704 29.0412 36.5691C29.0412 36.8704 28.7937 37.1126 28.4919 37.1126ZM26.8657 31.532C27.3335 31.532 27.7305 31.9221 27.7305 32.3876V32.5195C26.9256 32.2639 25.9874 31.9867 24.7854 31.6477C24.761 31.6154 24.7365 31.5751 24.7093 31.532L26.8657 31.532ZM14.1228 31.9571C13.9052 31.7822 13.6632 31.6396 13.4021 31.532H15.2893C15.2621 31.575 15.2376 31.6154 15.2132 31.6477C14.8379 31.7499 14.4763 31.8549 14.1228 31.9571Z" fill="url(#paint0_linear_1438_23472)" stroke="url(#paint1_linear_1438_23472)" stroke-width="0.5"/>
<defs>
<linearGradient id="paint0_linear_1438_23472" x1="20" y1="1" x2="20" y2="63" gradientUnits="userSpaceOnUse">
<stop stop-color="#63388B"/>
<stop offset="1" stop-color="#327EB2"/>
</linearGradient>
<linearGradient id="paint1_linear_1438_23472" x1="20" y1="1" x2="20" y2="63" gradientUnits="userSpaceOnUse">
<stop stop-color="#63388B"/>
<stop offset="1" stop-color="#327EB2"/>
</linearGradient>
</defs>
</svg>
