<svg width="53" height="55" viewBox="0 0 53 55" fill="none" xmlns="http://www.w3.org/2000/svg">
<path d="M14.477 17.0765H18.4032V21.0027C18.4032 21.5036 18.8089 21.9094 19.3099 21.9094H23.83C24.3309 21.9094 24.7367 21.5036 24.7367 21.0027V17.0765H28.6628C29.1638 17.0765 29.5695 16.6708 29.5695 16.1698V11.6497C29.5695 11.1488 29.1638 10.743 28.6628 10.743H24.7367V6.81689C24.7367 6.31592 24.3309 5.91016 23.83 5.91016H19.3099C18.8089 5.91016 18.4032 6.31592 18.4032 6.81689V10.743H14.477C13.9761 10.743 13.5703 11.1488 13.5703 11.6497V16.1698C13.5703 16.6708 13.9761 17.0765 14.477 17.0765ZM15.3838 12.5565H19.3099C19.8109 12.5565 20.2166 12.1507 20.2166 11.6497V7.72361H22.9232V11.6497C22.9232 12.1507 23.329 12.5565 23.83 12.5565H27.7561V15.2631H23.83C23.329 15.2631 22.9232 15.6688 22.9232 16.1698V20.0959H20.2166V16.1698C20.2166 15.6688 19.8109 15.2631 19.3099 15.2631H15.3838V12.5565Z" fill="url(#paint0_linear_1438_23464)"/>
<path d="M42.224 0.000290132H0.906729C0.405762 0.000290132 0 0.406052 0 0.907019V48.5647C0 51.7859 2.62043 54.4038 5.83905 54.4038H47.161C50.3821 54.4038 53 51.7833 53 48.5647V39.7626C53 39.2617 52.5942 38.8559 52.0933 38.8559H43.1258L43.1281 0.906729C43.1281 0.405762 42.7223 0 42.2213 0L42.224 0.000290132ZM1.81317 48.565V1.81433H41.317V38.8542H10.783C10.282 38.8542 9.87624 39.2599 9.87624 39.7609V48.563C9.87624 49.6397 9.45688 50.6485 8.69067 51.4101C7.93581 52.1717 6.92254 52.5911 5.84357 52.5911C3.6221 52.5911 1.8177 50.7844 1.8177 48.5652L1.81317 48.565ZM51.1938 40.6676V48.5627C51.1938 50.7842 49.3871 52.5886 47.1679 52.5886L10.0643 52.5908C11.1093 51.505 11.6896 50.0815 11.6896 48.5649V40.6699H51.1934L51.1938 40.6676Z" fill="url(#paint1_linear_1438_23464)"/>
<path d="M14.4805 25.561C14.4805 26.062 14.8862 26.4678 15.3872 26.4678H36.4506C36.9516 26.4678 37.3573 26.062 37.3573 25.561C37.3573 25.0601 36.9516 24.6543 36.4506 24.6543H15.3872C14.8862 24.6543 14.4805 25.0601 14.4805 25.561Z" fill="url(#paint2_linear_1438_23464)"/>
<path d="M6.68017 26.4668H11.5583C12.0593 26.4668 12.4651 26.061 12.4651 25.56C12.4651 25.0591 12.0593 24.6533 11.5583 24.6533H6.68017C6.1792 24.6533 5.77344 25.0591 5.77344 25.56C5.77344 26.061 6.1792 26.4668 6.68017 26.4668Z" fill="url(#paint3_linear_1438_23464)"/>
<path d="M6.68017 30.9961H27.7436C28.2445 30.9961 28.6503 30.5903 28.6503 30.0893C28.6503 29.5884 28.2445 29.1826 27.7436 29.1826H6.68017C6.1792 29.1826 5.77344 29.5884 5.77344 30.0893C5.77344 30.5903 6.1792 30.9961 6.68017 30.9961Z" fill="url(#paint4_linear_1438_23464)"/>
<path d="M36.449 29.1826H31.5708C31.0698 29.1826 30.6641 29.5884 30.6641 30.0893C30.6641 30.5903 31.0698 30.9961 31.5708 30.9961H36.449C36.9499 30.9961 37.3557 30.5903 37.3557 30.0893C37.3557 29.5884 36.9499 29.1826 36.449 29.1826Z" fill="url(#paint5_linear_1438_23464)"/>
<path d="M6.68017 35.5303H30.8674C31.3683 35.5303 31.7741 35.1245 31.7741 34.6235C31.7741 34.1226 31.3683 33.7168 30.8674 33.7168H6.68017C6.1792 33.7168 5.77344 34.1226 5.77344 34.6235C5.77344 35.1245 6.1792 35.5303 6.68017 35.5303Z" fill="url(#paint6_linear_1438_23464)"/>
<defs>
<linearGradient id="paint0_linear_1438_23464" x1="21.5699" y1="5.91016" x2="21.5699" y2="21.9094" gradientUnits="userSpaceOnUse">
<stop stop-color="#63388B"/>
<stop offset="1" stop-color="#327EB2"/>
</linearGradient>
<linearGradient id="paint1_linear_1438_23464" x1="26.5" y1="0" x2="26.5" y2="54.4038" gradientUnits="userSpaceOnUse">
<stop stop-color="#63388B"/>
<stop offset="1" stop-color="#327EB2"/>
</linearGradient>
<linearGradient id="paint2_linear_1438_23464" x1="25.9189" y1="24.6543" x2="25.9189" y2="26.4678" gradientUnits="userSpaceOnUse">
<stop stop-color="#63388B"/>
<stop offset="1" stop-color="#327EB2"/>
</linearGradient>
<linearGradient id="paint3_linear_1438_23464" x1="9.11925" y1="24.6533" x2="9.11925" y2="26.4668" gradientUnits="userSpaceOnUse">
<stop stop-color="#63388B"/>
<stop offset="1" stop-color="#327EB2"/>
</linearGradient>
<linearGradient id="paint4_linear_1438_23464" x1="17.2119" y1="29.1826" x2="17.2119" y2="30.9961" gradientUnits="userSpaceOnUse">
<stop stop-color="#63388B"/>
<stop offset="1" stop-color="#327EB2"/>
</linearGradient>
<linearGradient id="paint5_linear_1438_23464" x1="34.0099" y1="29.1826" x2="34.0099" y2="30.9961" gradientUnits="userSpaceOnUse">
<stop stop-color="#63388B"/>
<stop offset="1" stop-color="#327EB2"/>
</linearGradient>
<linearGradient id="paint6_linear_1438_23464" x1="18.7738" y1="33.7168" x2="18.7738" y2="35.5303" gradientUnits="userSpaceOnUse">
<stop stop-color="#63388B"/>
<stop offset="1" stop-color="#327EB2"/>
</linearGradient>
</defs>
</svg>
