<svg width="50" height="53" viewBox="0 0 50 53" fill="none" xmlns="http://www.w3.org/2000/svg">
<path d="M10.242 46.7075V46.9001V51.901C10.242 52.0023 10.2822 52.0992 10.3528 52.1699C10.4235 52.2405 10.5204 52.2807 10.6217 52.2807H22.4247C22.526 52.2807 22.6229 52.2405 22.6935 52.1698C22.7642 52.0992 22.8044 52.0023 22.8044 51.901V46.5614C22.8044 46.4602 22.7642 46.3632 22.6935 46.2926C22.6229 46.2219 22.526 46.1817 22.4247 46.1817H22.1806H21.6806V45.6817V43.2723C21.6765 40.8042 20.4952 38.4865 18.5018 37.0296L10.242 46.7075ZM10.242 46.7075L10.1128 46.5647L0.599678 36.046C0.599364 36.0456 0.599051 36.0453 0.598739 36.0449C0.534007 35.9718 0.5 35.8811 0.5 35.7894V17.8047C0.5 17.6497 0.592385 17.5117 0.734189 17.4531L0.73419 17.4531L0.735292 17.4527C0.875286 17.3944 1.03825 17.4257 1.14847 17.5359L5.22352 21.611C5.29512 21.6826 5.3344 21.7777 5.3344 21.8776V27.1908V27.4453L5.54015 27.5951L18.5011 37.0291L10.242 46.7075ZM21.545 51.5213H22.045V51.0213V47.4411V46.9411H21.545H11.5013H11.0013V47.4411V51.0213V51.5213H11.5013H21.545ZM2.11235 19.5739L1.25883 18.7204L1.25879 19.9275L1.25826 35.4517L1.25825 35.6443L1.38745 35.7871L10.6419 46.0178L10.7907 46.1823H11.0127H20.4208H20.9208V45.6823L20.9208 43.2721L20.9208 43.271C20.917 41.5048 20.2455 39.8236 19.0689 38.5491H19.2988L18.0561 37.6448L6.12753 28.9646L5.33334 28.3867V29.3689V31.8188V32.0259L5.47974 32.1723L11.962 38.6562C12.1036 38.8049 12.102 39.0386 11.9567 39.1862C11.8152 39.3258 11.5939 39.3331 11.4447 39.2098L11.4299 39.1951L4.68541 32.4522C4.6854 32.4522 4.68538 32.4522 4.68537 32.4522C4.61474 32.3815 4.57453 32.2846 4.57453 32.1834V22.2432V22.0361L4.42809 21.8897L2.11235 19.5739Z" fill="url(#paint0_linear_1438_23473)" stroke="url(#paint1_linear_1438_23473)"/>
<path d="M27.8191 46.1825H28.3191V45.6825V43.2727C28.3233 40.8043 29.5047 38.4867 31.4982 37.0302C31.4983 37.0301 31.4984 37.03 31.4986 37.0299L44.4597 27.5961L44.6654 27.4463V27.1918V21.8786C44.6654 21.7786 44.7047 21.6835 44.7763 21.612L44.4227 21.2584L44.7763 21.612L48.8514 17.5369L48.4978 17.1833L48.8514 17.5369C48.9616 17.4267 49.1245 17.3954 49.2645 17.4536L49.2656 17.4541C49.4074 17.5127 49.4998 17.6507 49.4998 17.8057V35.7903C49.4998 35.8718 49.473 35.9525 49.4217 36.0207L49.4002 36.0444L39.8869 46.5655L39.7577 46.7083V46.9009V51.9018C39.7577 52.0031 39.7175 52.1 39.6469 52.1706C39.5762 52.2413 39.4793 52.2815 39.378 52.2815H27.575C27.4737 52.2815 27.3768 52.2412 27.3062 52.1706C27.2355 52.1 27.1953 52.003 27.1953 51.9018V46.5622C27.1953 46.3523 27.3651 46.1825 27.575 46.1825H27.8191ZM38.4982 51.5218H38.9982V51.0218V47.4415V46.9415H38.4982H28.4545H27.9545V47.4415V51.0218V51.5218H28.4545H38.4982ZM45.5711 21.8899L45.4245 22.0365L45.4246 22.2437L45.4291 32.1832C45.4291 32.1833 45.4291 32.1834 45.4291 32.1834C45.4291 32.2846 45.3888 32.3815 45.3182 32.4521L38.5682 39.1915C38.4186 39.3339 38.1835 39.3305 38.0392 39.1851L38.038 39.184C37.8935 39.0395 37.8899 38.8053 38.0311 38.6554L44.5143 32.1722L44.6608 32.0258V31.8187V29.3688V28.3866L43.8666 28.9645L31.938 37.6447L31.9372 37.6453C30.1416 38.9575 29.0781 41.0467 29.0734 43.2709V43.272V45.6822V46.1822H29.5734H38.986H39.2079L39.3568 46.0176L48.6112 35.787L48.7404 35.6442V35.4516V19.9278V18.7207L47.8868 19.5742L45.5711 21.8899Z" fill="url(#paint2_linear_1438_23473)" stroke="url(#paint3_linear_1438_23473)"/>
<path d="M22.7465 17.4959V17.9959V20.9582C22.7465 21.0581 22.7857 21.1532 22.8573 21.2248C22.9302 21.2977 23.0281 21.3379 23.1262 21.3379H26.8735C26.9716 21.3379 27.0694 21.2977 27.1423 21.2248C27.2139 21.1533 27.2532 21.0581 27.2532 20.9582V17.9959V17.4959H27.7532H30.7177C30.8189 17.4959 30.9158 17.4557 30.9865 17.3851C31.0571 17.3144 31.0974 17.2175 31.0974 17.1162V13.3711C31.0974 13.2698 31.0571 13.1729 30.9865 13.1022L31.3401 12.7487L30.9865 13.1022C30.9159 13.0316 30.819 12.9914 30.7177 12.9914H27.7532H27.2532V12.4914V9.5291C27.2532 9.42785 27.213 9.33093 27.1423 9.26027C27.1423 9.26026 27.1423 9.26026 27.1423 9.26025M22.7465 17.4959L22.2465 9.52908C22.2465 9.04307 22.6401 8.64941 23.1262 8.64941H26.8735C27.1066 8.64941 27.331 8.74178 27.4959 8.90672L27.1423 9.26025M22.7465 17.4959H22.2465H19.282C19.0705 17.4959 18.9023 17.3267 18.9023 17.1184V13.371C18.9023 13.1612 19.0721 12.9914 19.282 12.9914H22.2465H22.7465V12.4914V9.52908C22.7465 9.31921 22.9163 9.14941 23.1262 9.14941H26.8735C26.9748 9.14941 27.0717 9.18963 27.1423 9.26025M22.7465 17.4959L27.1423 9.26025M19.6617 13.7486H20.1617H23.1261C23.2274 13.7486 23.3243 13.7083 23.395 13.6377C23.4656 13.567 23.5058 13.4701 23.5058 13.3689V10.4088V9.90879H24.0058H25.9938H26.4938V10.4088V13.3711C26.4938 13.4723 26.5341 13.5692 26.6047 13.6399C26.6047 13.6399 26.6047 13.6399 26.6047 13.6399M19.6617 13.7486L26.6047 13.6399M19.6617 13.7486L19.6617 14.2486L19.6617 16.2366L19.6617 16.7366H20.1617H23.1262C23.2274 16.7366 23.3243 16.7768 23.395 16.8474M19.6617 13.7486L23.395 16.8474M26.6047 13.6399C26.6753 13.7105 26.7723 13.7507 26.8735 13.7507H29.838H30.338V14.2507V16.2388V16.7388H29.838H26.8735C26.6637 16.7388 26.4939 16.9086 26.4939 17.1184V20.0785V20.5785H25.9939H24.0058H23.5058V20.0785V17.1162C23.5058 17.015 23.4656 16.9181 23.395 16.8474M26.6047 13.6399L23.395 16.8474" fill="url(#paint4_linear_1438_23473)" stroke="url(#paint5_linear_1438_23473)"/>
<path d="M24.9999 1.26013L25.0006 1.26013C28.7089 1.26013 32.2666 2.73337 34.8877 5.35627L24.9999 1.26013ZM24.9999 1.26013C21.2916 1.26468 17.7384 2.73797 15.1178 5.36077C12.4949 7.98126 11.0218 11.537 11.0172 15.2429V15.2435C11.0172 18.9522 12.4905 22.5101 15.1134 25.1329L15.1134 25.1329C17.7344 27.7536 21.2919 29.2269 25.0006 29.2269C28.7092 29.2269 32.2671 27.7536 34.8877 25.1329L34.8878 25.1329C37.5106 22.5096 38.9839 18.9519 38.9839 15.2435C38.9839 11.5348 37.5106 7.97917 34.8879 5.3564L24.9999 1.26013ZM35.4254 25.6676C32.6599 28.4326 28.9104 29.9853 25.0011 29.9855C21.0913 29.9812 17.3453 28.4262 14.5799 25.663C11.817 22.8995 10.2621 19.152 10.2578 15.2425C10.2579 11.3329 11.8106 7.58296 14.5757 4.81791C17.3413 2.05275 21.0909 0.5 25.0006 0.5C28.9102 0.5 32.6603 2.05276 35.4254 4.81788C38.1906 7.58353 39.7433 11.3333 39.7433 15.2427C39.7433 19.1525 38.191 22.9025 35.4254 25.6676Z" fill="url(#paint6_linear_1438_23473)" stroke="url(#paint7_linear_1438_23473)"/>
<defs>
<linearGradient id="paint0_linear_1438_23473" x1="11.6522" y1="16.9238" x2="11.6522" y2="52.7807" gradientUnits="userSpaceOnUse">
<stop stop-color="#63388B"/>
<stop offset="1" stop-color="#327EB2"/>
</linearGradient>
<linearGradient id="paint1_linear_1438_23473" x1="11.6522" y1="16.9238" x2="11.6522" y2="52.7807" gradientUnits="userSpaceOnUse">
<stop stop-color="#63388B"/>
<stop offset="1" stop-color="#327EB2"/>
</linearGradient>
<linearGradient id="paint2_linear_1438_23473" x1="38.3476" y1="16.9248" x2="38.3476" y2="52.7815" gradientUnits="userSpaceOnUse">
<stop stop-color="#63388B"/>
<stop offset="1" stop-color="#327EB2"/>
</linearGradient>
<linearGradient id="paint3_linear_1438_23473" x1="38.3476" y1="16.9248" x2="38.3476" y2="52.7815" gradientUnits="userSpaceOnUse">
<stop stop-color="#63388B"/>
<stop offset="1" stop-color="#327EB2"/>
</linearGradient>
<linearGradient id="paint4_linear_1438_23473" x1="24.9999" y1="8.64941" x2="24.9999" y2="21.8379" gradientUnits="userSpaceOnUse">
<stop stop-color="#63388B"/>
<stop offset="1" stop-color="#327EB2"/>
</linearGradient>
<linearGradient id="paint5_linear_1438_23473" x1="24.9999" y1="8.64941" x2="24.9999" y2="21.8379" gradientUnits="userSpaceOnUse">
<stop stop-color="#63388B"/>
<stop offset="1" stop-color="#327EB2"/>
</linearGradient>
<linearGradient id="paint6_linear_1438_23473" x1="25.0006" y1="0" x2="25.0006" y2="30.4855" gradientUnits="userSpaceOnUse">
<stop stop-color="#63388B"/>
<stop offset="1" stop-color="#327EB2"/>
</linearGradient>
<linearGradient id="paint7_linear_1438_23473" x1="25.0006" y1="0" x2="25.0006" y2="30.4855" gradientUnits="userSpaceOnUse">
<stop stop-color="#63388B"/>
<stop offset="1" stop-color="#327EB2"/>
</linearGradient>
</defs>
</svg>
