<svg width="78" height="67" viewBox="0 0 78 67" fill="none" xmlns="http://www.w3.org/2000/svg">
<path fill-rule="evenodd" clip-rule="evenodd" d="M33.868 53.2201L12.8816 40.1515L9.49341 41.9032C9.37182 41.9766 9.22953 42.0196 9.07775 42.0196C8.92425 42.0196 8.78196 41.9766 8.66209 41.9032L4.87116 39.9442L1.08022 37.9843C0.803406 37.8646 0.609375 37.594 0.609375 37.2787V31.1486C0.609375 30.8334 0.803406 30.5628 1.08022 30.4431L4.87116 28.4832L8.71039 26.4988C8.9484 26.3757 9.22263 26.385 9.44426 26.4988L9.45202 26.5022L12.8592 28.2632L33.9258 13.8113L31.274 12.4406C30.9972 12.3209 30.8032 12.0495 30.8032 11.7342V5.60416C30.8032 5.28889 30.9972 5.01829 31.274 4.89859L35.065 2.93869L38.9042 0.95434C39.1422 0.831267 39.4164 0.84054 39.6381 0.95434L39.6458 0.957712L43.4773 2.93869L47.2682 4.89859C47.5451 5.01829 47.7382 5.28889 47.7382 5.60416V11.7342C47.7382 12.0495 47.5451 12.3209 47.2682 12.4406L44.6156 13.8113L65.6831 28.2632L69.098 26.4988C69.3352 26.3757 69.6094 26.385 69.831 26.4988L69.8388 26.5022L73.6711 28.4832L77.4621 30.4431C77.7389 30.5628 77.9329 30.8334 77.9329 31.1486V37.2787C77.9329 37.594 77.7389 37.8646 77.4621 37.9843L73.6711 39.9442L69.8802 41.9032C69.7595 41.9766 69.6163 42.0196 69.4645 42.0196C69.311 42.0196 69.1687 41.9766 69.0489 41.9032L65.6598 40.1515L44.6734 53.2201L47.2691 54.5613C47.5459 54.6818 47.7391 54.9524 47.7391 55.2677V61.3977C47.7391 61.713 47.5459 61.9836 47.2691 62.1041L43.4782 64.0632L39.6872 66.0223C39.5665 66.0956 39.4242 66.1386 39.2716 66.1386C39.1189 66.1386 38.9766 66.0956 38.8559 66.0223L35.0658 64.0632L31.2749 62.1041C30.9981 61.9836 30.8041 61.713 30.8041 61.3977V55.2668C30.8041 54.9515 30.9981 54.681 31.2749 54.5604L33.868 53.2201ZM41.3585 30.0831C42.364 30.0831 43.1789 30.8797 43.1789 31.8626C43.1789 31.9587 43.1703 32.0531 43.1565 32.1442L44.801 33.2611H48.7575V31.0036L44.2586 28.0086C44.2448 27.9993 44.2319 27.99 44.2181 27.9799L39.2707 24.6932L34.2785 28.0103L34.2768 28.0111L34.2785 28.0128L29.7503 31.0062V42.9645H48.7575V40.0436H41.1791C40.8842 40.6396 40.2607 41.0518 39.538 41.0518C38.5317 41.0518 37.7167 40.2552 37.7167 39.2723C37.7167 38.2886 38.5317 37.4928 39.538 37.4928C40.2607 37.4928 40.885 37.9042 41.1791 38.501H48.7575V37.7027H44.5553C44.3759 37.7027 44.2103 37.6446 44.0775 37.5451L41.9777 36.1213H37.8702C37.5762 36.7173 36.9527 37.1287 36.2292 37.1287C35.2237 37.1287 34.4087 36.3329 34.4087 35.35C34.4087 34.3671 35.2237 33.5705 36.2292 33.5705C36.9527 33.5705 37.577 33.9819 37.8702 34.5787H42.2234C42.4037 34.5787 42.5684 34.6368 42.702 34.7363L44.801 36.1609H48.7575V34.8037H44.5553C44.3759 34.8037 44.2103 34.7456 44.0775 34.6461L42.2571 33.4103C41.9915 33.5578 41.6853 33.6421 41.3585 33.6421C40.353 33.6421 39.538 32.8447 39.538 31.8626C39.538 30.8797 40.353 30.0831 41.3585 30.0831ZM28.1721 31.3375V43.7358C28.1721 44.1615 28.5257 44.5072 28.9612 44.5072H49.5466C49.9821 44.5072 50.3357 44.1615 50.3357 43.7358V39.2723V36.9322V34.0324V31.3375H54.9036V31.3341C55.1554 31.3341 55.402 31.2152 55.5547 30.9969C55.797 30.6462 55.7038 30.1691 55.3442 29.9305L39.7269 19.5536C39.4673 19.3732 39.1095 19.3589 38.8309 19.5435L23.2584 29.8901C23.0152 30.0216 22.8496 30.2753 22.8496 30.5661C22.8496 30.9918 23.2024 31.3375 23.6378 31.3375H28.1721ZM33.398 26.7374L38.8154 23.1379C39.075 22.9575 39.432 22.9432 39.7114 23.1286L45.1011 26.7096C45.1166 26.7188 45.1313 26.7273 45.1468 26.7382L49.5078 29.6423C49.5207 29.6414 49.5328 29.6414 49.5466 29.6414C49.7242 29.6414 49.8881 29.6987 50.02 29.7957H52.3458L39.2707 21.108L26.1965 29.7948H28.4878C28.6197 29.6979 28.7835 29.6406 28.9612 29.6406C28.975 29.6406 28.9879 29.6406 29.0017 29.6414L33.3972 26.7357L33.398 26.7374ZM2.18836 32.4266V36.8159L5.60503 38.5828L8.28869 39.9703V35.5801L4.87116 33.8133L2.18836 32.4266ZM9.86681 35.5793V39.9695L12.5505 38.5819L15.9671 36.8151V32.4257L13.2835 33.8133L9.86681 35.5793ZM17.0753 30.4422C17.3521 30.5619 17.5461 30.8325 17.5461 31.1478V37.2779C17.5461 37.5931 17.3521 37.8637 17.0753 37.9834L14.4804 39.3254L35.4668 52.3931L38.9042 50.617C39.1422 50.4939 39.4164 50.5032 39.6381 50.617L39.6458 50.6212L43.0763 52.394L64.0627 39.3263L61.4679 37.9843C61.1902 37.8646 60.997 37.594 60.997 37.2787V31.1486C60.997 30.8334 61.1902 30.5628 61.4679 30.4431L64.1196 29.0724L43.0522 14.6189L39.6872 16.3579C39.5665 16.4312 39.4242 16.4742 39.2716 16.4742C39.1189 16.4742 38.9766 16.4312 38.8559 16.3579L35.4893 14.6189L14.4218 29.0707L17.0753 30.4422ZM12.5712 29.8547C12.5557 29.8471 12.541 29.8395 12.5255 29.8311L9.07775 28.0482L5.60503 29.8429L3.08262 31.147L5.60503 32.451L9.07775 34.2457L12.5505 32.451L15.0729 31.147L12.5712 29.8547ZM62.5734 32.4266V36.8159L65.9909 38.5828L68.6746 39.9703V35.5801L65.2571 33.8141L62.5734 32.4266ZM70.2536 35.5793V39.9695L72.9364 38.5819L76.3539 36.8151V32.4257L73.6711 33.8133L70.2536 35.5793ZM72.9364 29.8437L69.4645 28.049L66.016 29.8319C66.0013 29.8404 65.9866 29.8479 65.9702 29.8555L63.4694 31.1486L65.9918 32.4527L69.4645 34.2474L72.9364 32.4527L75.4588 31.1486L72.9364 29.8437ZM46.161 56.5456L43.4773 57.9331L40.0598 59.6992V64.0893L42.7434 62.7018L46.161 60.9349V56.5456ZM38.4825 59.6983L35.065 57.9323L32.3813 56.5448V60.9341L35.7988 62.701L38.4825 64.0885V59.6983ZM42.7434 53.9627L39.2707 52.1681L35.7988 53.9636L33.2764 55.2677L35.7988 56.5717L39.2707 58.3656L42.7434 56.5709L45.2658 55.2668L42.7434 53.9627ZM46.161 6.88125L43.4773 8.26878L40.0598 10.0348V14.425L42.7193 13.0501C42.7339 13.0417 42.7486 13.0341 42.765 13.0265L46.161 11.2706V6.88125ZM38.4825 10.0348L35.065 8.26878L32.3813 6.88125V11.2714L35.7773 13.0273C35.7928 13.0349 35.8075 13.0425 35.823 13.0509L38.4825 14.4258V10.0348ZM42.7434 4.29924L39.2707 2.50456L35.7988 4.29924L33.2764 5.60331L35.7988 6.90739L39.2707 8.70207L42.7434 6.90739L45.2658 5.60331L42.7434 4.29924Z" fill="url(#paint0_linear_1438_23571)"/>
<defs>
<linearGradient id="paint0_linear_1438_23571" x1="39.2711" y1="0.865479" x2="39.2711" y2="66.1386" gradientUnits="userSpaceOnUse">
<stop stop-color="#63388B"/>
<stop offset="1" stop-color="#327EB2"/>
</linearGradient>
</defs>
</svg>
