<svg width="69" height="67" viewBox="0 0 69 67" fill="none" xmlns="http://www.w3.org/2000/svg">
<path d="M14.117 35.4799H5.06815C4.26845 35.4791 3.50176 35.1662 2.93628 34.61C2.37081 34.0538 2.05274 33.2996 2.05187 32.513V8.77736H28.193C28.4596 8.77736 28.7154 8.67316 28.9039 8.48769C29.0925 8.30222 29.1984 8.05067 29.1984 7.78837C29.1984 7.52608 29.0925 7.27452 28.9039 7.08905C28.7154 6.90358 28.4596 6.79939 28.193 6.79939H2.05187V5.8104C2.05274 5.02378 2.37081 4.26962 2.93628 3.7134C3.50176 3.15717 4.26845 2.84431 5.06815 2.84345H39.2527C40.0524 2.84431 40.8191 3.15717 41.3846 3.7134C41.95 4.26962 42.2681 5.02378 42.269 5.8104V12.7333C42.269 12.9956 42.3749 13.2471 42.5635 13.4326C42.752 13.6181 43.0077 13.7223 43.2744 13.7223C43.5411 13.7223 43.7968 13.6181 43.9853 13.4326C44.1739 13.2471 44.2798 12.9956 44.2798 12.7333V5.8104C44.2783 4.4994 43.7481 3.24253 42.8057 2.31551C41.8632 1.38849 40.5855 0.867018 39.2527 0.865479H5.06815C3.73535 0.867018 2.45759 1.38849 1.51516 2.31551C0.572726 3.24253 0.0425802 4.4994 0.0410156 5.8104V32.513C0.0425802 33.824 0.572726 35.0809 1.51516 36.0079C2.45759 36.9349 3.73535 37.4564 5.06815 37.4579H14.117C14.3837 37.4579 14.6394 37.3537 14.8279 37.1682C15.0165 36.9828 15.1224 36.7312 15.1224 36.4689C15.1224 36.2066 15.0165 35.9551 14.8279 35.7696C14.6394 35.5841 14.3837 35.4799 14.117 35.4799Z" fill="url(#paint0_linear_1438_23549)"/>
<path d="M6.07379 3.83191C5.80713 3.83191 5.5514 3.93611 5.36284 4.12158C5.17429 4.30705 5.06836 4.5586 5.06836 4.82089C5.06836 5.08319 5.17429 5.33474 5.36284 5.52021C5.5514 5.70568 5.80713 5.80988 6.07379 5.80988H7.07921C7.34587 5.80988 7.6016 5.70568 7.79016 5.52021C7.97871 5.33474 8.08464 5.08319 8.08464 4.82089C8.08464 4.5586 7.97871 4.30705 7.79016 4.12158C7.6016 3.93611 7.34587 3.83191 7.07921 3.83191H6.07379Z" fill="url(#paint1_linear_1438_23549)"/>
<path d="M10.0953 3.83191C9.82862 3.83191 9.57288 3.93611 9.38433 4.12158C9.19577 4.30705 9.08984 4.5586 9.08984 4.82089C9.08984 5.08319 9.19577 5.33474 9.38433 5.52021C9.57288 5.70568 9.82862 5.80988 10.0953 5.80988H11.1007C11.3674 5.80988 11.6231 5.70568 11.8116 5.52021C12.0002 5.33474 12.1061 5.08319 12.1061 4.82089C12.1061 4.5586 12.0002 4.30705 11.8116 4.12158C11.6231 3.93611 11.3674 3.83191 11.1007 3.83191H10.0953Z" fill="url(#paint2_linear_1438_23549)"/>
<path d="M14.1168 3.83191C13.8501 3.83191 13.5944 3.93611 13.4058 4.12158C13.2173 4.30705 13.1113 4.5586 13.1113 4.82089C13.1113 5.08319 13.2173 5.33474 13.4058 5.52021C13.5944 5.70568 13.8501 5.80988 14.1168 5.80988H15.1222C15.3888 5.80988 15.6446 5.70568 15.8331 5.52021C16.0217 5.33474 16.1276 5.08319 16.1276 4.82089C16.1276 4.5586 16.0217 4.30705 15.8331 4.12158C15.6446 3.93611 15.3888 3.83191 15.1222 3.83191H14.1168Z" fill="url(#paint3_linear_1438_23549)"/>
<path d="M31.2086 6.79919C30.9419 6.79919 30.6862 6.90339 30.4976 7.08886C30.3091 7.27433 30.2031 7.52588 30.2031 7.78818C30.2031 8.05047 30.3091 8.30203 30.4976 8.4875C30.6862 8.67297 30.9419 8.77716 31.2086 8.77716H36.2357C36.5023 8.77716 36.7581 8.67297 36.9466 8.4875C37.1352 8.30203 37.2411 8.05047 37.2411 7.78818C37.2411 7.52588 37.1352 7.27433 36.9466 7.08886C36.7581 6.90339 36.5023 6.79919 36.2357 6.79919H31.2086Z" fill="url(#paint4_linear_1438_23549)"/>
<path d="M39.2535 6.79919C38.9868 6.79919 38.7311 6.90339 38.5425 7.08886C38.354 7.27433 38.248 7.52588 38.248 7.78818C38.248 8.05047 38.354 8.30203 38.5425 8.4875C38.7311 8.67297 38.9868 8.77716 39.2535 8.77716H40.2589C40.5256 8.77716 40.7813 8.67297 40.9698 8.4875C41.1584 8.30203 41.2643 8.05047 41.2643 7.78818C41.2643 7.52588 41.1584 7.27433 40.9698 7.08886C40.7813 6.90339 40.5256 6.79919 40.2589 6.79919H39.2535Z" fill="url(#paint5_linear_1438_23549)"/>
<path d="M65.3949 35.4802H64.8401C64.2632 32.9032 63.2288 30.4464 61.7845 28.2227L62.1763 27.8373C62.7412 27.2805 63.0585 26.526 63.0585 25.7394C63.0585 24.9527 62.7412 24.1982 62.1763 23.6414L59.3328 20.8444C58.7669 20.2885 57.9998 19.9763 57.2 19.9763C56.4002 19.9763 55.6331 20.2885 55.0671 20.8444L54.6754 21.2298C52.4147 19.8091 49.917 18.7917 47.2972 18.2242V17.6785C47.2963 16.8919 46.9782 16.1377 46.4127 15.5815C45.8473 15.0253 45.0806 14.7124 44.2809 14.7115H40.2592C39.4595 14.7124 38.6928 15.0253 38.1273 15.5815C37.5618 16.1377 37.2438 16.8919 37.2429 17.6785V18.2242C34.623 18.7917 32.1254 19.8091 29.8647 21.2298L29.4729 20.8444C28.907 20.2885 28.1399 19.9763 27.3401 19.9763C26.5403 19.9763 25.7732 20.2885 25.2072 20.8444L22.3637 23.6414C21.7988 24.1982 21.4815 24.9527 21.4815 25.7394C21.4815 26.526 21.7988 27.2805 22.3637 27.8373L22.7555 28.2227C21.3112 30.4464 20.2769 32.9032 19.6999 35.4802H19.1452C18.3455 35.4811 17.5788 35.7939 17.0133 36.3502C16.4478 36.9064 16.1298 37.6606 16.1289 38.4472V42.4031C16.1298 43.1897 16.4478 43.9439 17.0133 44.5001C17.5788 45.0563 18.3455 45.3692 19.1452 45.3701H19.6999C20.2769 47.9471 21.3112 50.4039 22.7555 52.6276L22.3637 53.013C21.7988 53.5698 21.4815 54.3243 21.4815 55.1109C21.4815 55.8976 21.7988 56.6521 22.3637 57.2089L25.2072 60.0059C25.7734 60.5614 26.5404 60.8733 27.3401 60.8733C28.1397 60.8733 28.9067 60.5614 29.4729 60.0059L29.8647 59.6205C32.1254 61.0412 34.623 62.0586 37.2429 62.6261V63.1718C37.2438 63.9584 37.5618 64.7126 38.1273 65.2688C38.6928 65.825 39.4595 66.1379 40.2592 66.1387H44.2809C45.0806 66.1379 45.8473 65.825 46.4127 65.2688C46.9782 64.7126 47.2963 63.9584 47.2972 63.1718V62.6261C49.917 62.0586 52.4147 61.0412 54.6754 59.6205L55.0671 60.0059C55.6333 60.5614 56.4003 60.8733 57.2 60.8733C57.9996 60.8733 58.7667 60.5614 59.3328 60.0059L62.1763 57.2089C62.7412 56.6521 63.0585 55.8976 63.0585 55.1109C63.0585 54.3243 62.7412 53.5698 62.1763 53.013L61.7845 52.6276C63.2288 50.4039 64.2632 47.9471 64.8401 45.3701H65.3949C66.1946 45.3692 66.9613 45.0563 67.5267 44.5001C68.0922 43.9439 68.4103 43.1897 68.4111 42.4031V38.4472C68.4103 37.6606 68.0922 36.9064 67.5267 36.3502C66.9613 35.7939 66.1946 35.4811 65.3949 35.4802ZM66.4003 42.4031C66.3999 42.6653 66.2939 42.9167 66.1054 43.1021C65.9169 43.2875 65.6614 43.3918 65.3949 43.3921H64.0178C63.7827 43.3921 63.555 43.4732 63.3743 43.6212C63.1937 43.7693 63.0715 43.9749 63.0291 44.2024C62.4972 47.071 61.3503 49.7953 59.6647 52.194C59.5312 52.3843 59.4698 52.6147 59.4912 52.845C59.5125 53.0752 59.6153 53.2909 59.7815 53.4543L60.7546 54.4115C60.9427 54.5972 61.0484 54.8487 61.0484 55.1109C61.0484 55.3732 60.9427 55.6247 60.7546 55.8104L57.9111 58.6074C57.7221 58.7923 57.4665 58.8961 57.2 58.8961C56.9335 58.8961 56.6778 58.7923 56.4889 58.6074L55.5158 57.6503C55.3496 57.4868 55.1304 57.3858 54.8963 57.3648C54.6622 57.3438 54.4281 57.4042 54.2345 57.5354C51.796 59.1934 49.0264 60.3215 46.1101 60.8447C45.8788 60.8865 45.6698 61.0066 45.5192 61.1843C45.3687 61.362 45.2863 61.586 45.2863 61.8173V63.1718C45.286 63.434 45.1799 63.6853 44.9914 63.8707C44.803 64.0561 44.5474 64.1604 44.2809 64.1608H40.2592C39.9926 64.1604 39.7371 64.0561 39.5486 63.8707C39.3601 63.6853 39.2541 63.434 39.2537 63.1718V61.8173C39.2537 61.586 39.1713 61.362 39.0208 61.1843C38.8703 61.0066 38.6612 60.8864 38.43 60.8447C35.5136 60.3215 32.7441 59.1934 30.3055 57.5354C30.112 57.404 29.8778 57.3436 29.6437 57.3646C29.4096 57.3856 29.1904 57.4867 29.0242 57.6503L28.0512 58.6074C27.8623 58.7925 27.6066 58.8964 27.3401 58.8964C27.0735 58.8964 26.8178 58.7925 26.6289 58.6074L23.7855 55.8104C23.5973 55.6247 23.4916 55.3732 23.4916 55.1109C23.4916 54.8487 23.5973 54.5972 23.7855 54.4115L24.7585 53.4543C24.9248 53.2909 25.0275 53.0752 25.0489 52.845C25.0702 52.6147 25.0088 52.3843 24.8753 52.194C23.1897 49.7953 22.0428 47.071 21.511 44.2024C21.4685 43.9749 21.3463 43.7693 21.1657 43.6212C20.9851 43.4732 20.7574 43.3921 20.5223 43.3921H19.1452C18.8786 43.3918 18.6231 43.2875 18.4346 43.1021C18.2461 42.9167 18.1401 42.6653 18.1398 42.4031V38.4472C18.1401 38.185 18.2461 37.9336 18.4346 37.7482C18.6231 37.5628 18.8786 37.4585 19.1452 37.4582H20.5223C20.7574 37.4582 20.9851 37.3771 21.1657 37.2291C21.3464 37.081 21.4685 36.8754 21.511 36.6479C22.0429 33.7793 23.1897 31.055 24.8753 28.6563C25.0088 28.466 25.0702 28.2356 25.0489 28.0053C25.0275 27.7751 24.9248 27.5594 24.7585 27.3959L23.7855 26.4388C23.5973 26.2531 23.4916 26.0016 23.4916 25.7394C23.4916 25.4771 23.5973 25.2256 23.7855 25.0399L26.6289 22.2429C26.8177 22.0576 27.0734 21.9535 27.3401 21.9535C27.6067 21.9535 27.8625 22.0576 28.0512 22.2429L29.0242 23.2C29.1903 23.3637 29.4096 23.4648 29.6437 23.4858C29.8778 23.5068 30.1121 23.4463 30.3055 23.3149C32.7441 21.6569 35.5136 20.5288 38.43 20.0056C38.6612 19.9638 38.8703 19.8437 39.0208 19.666C39.1713 19.4883 39.2537 19.2643 39.2537 19.033V17.6785C39.2541 17.4163 39.3601 17.165 39.5486 16.9796C39.7371 16.7942 39.9926 16.6899 40.2592 16.6895H44.2809C44.5474 16.6899 44.803 16.7942 44.9914 16.9796C45.1799 17.165 45.286 17.4163 45.2863 17.6785V19.033C45.2863 19.2643 45.3687 19.4883 45.5192 19.666C45.6697 19.8437 45.8788 19.9639 46.1101 20.0056C49.0264 20.5288 51.796 21.6569 54.2345 23.3149C54.428 23.4464 54.6622 23.5068 54.8963 23.4858C55.1305 23.4648 55.3497 23.3637 55.5158 23.2L56.4889 22.2429C56.6777 22.0578 56.9334 21.9539 57.2 21.9539C57.4666 21.9539 57.7223 22.0578 57.9111 22.2429L60.7546 25.0399C60.9427 25.2256 61.0484 25.4771 61.0484 25.7394C61.0484 26.0016 60.9427 26.2531 60.7546 26.4388L59.7815 27.3959C59.6153 27.5594 59.5125 27.7751 59.4912 28.0053C59.4698 28.2356 59.5312 28.466 59.6647 28.6563C61.3503 31.055 62.4972 33.7793 63.0291 36.6479C63.0715 36.8754 63.1937 37.081 63.3743 37.2291C63.555 37.3771 63.7827 37.4582 64.0178 37.4582H65.3949C65.6614 37.4585 65.9169 37.5628 66.1054 37.7482C66.2939 37.9336 66.3999 38.185 66.4003 38.4472V42.4031Z" fill="url(#paint6_linear_1438_23549)"/>
<path d="M6.3668 18.3773C6.46013 18.4691 6.57095 18.542 6.69293 18.5917C6.8149 18.6414 6.94564 18.667 7.07767 18.667C7.2097 18.667 7.34043 18.6414 7.46241 18.5917C7.58438 18.542 7.6952 18.4691 7.78853 18.3773L10.8048 15.4103C10.8982 15.3185 10.9723 15.2095 11.0228 15.0895C11.0734 14.9696 11.0994 14.841 11.0994 14.7111C11.0994 14.5812 11.0734 14.4526 11.0228 14.3326C10.9723 14.2127 10.8982 14.1036 10.8048 14.0118L7.78853 11.0449C7.6 10.8594 7.34429 10.7552 7.07767 10.7552C6.81104 10.7552 6.55533 10.8594 6.3668 11.0449C6.17827 11.2303 6.07235 11.4819 6.07235 11.7441C6.07235 12.0064 6.17827 12.2579 6.3668 12.4434L8.67218 14.7111L6.3668 16.9789C6.27342 17.0707 6.19935 17.1797 6.14881 17.2996C6.09828 17.4196 6.07227 17.5482 6.07227 17.6781C6.07227 17.8079 6.09828 17.9365 6.14881 18.0565C6.19935 18.1765 6.27342 18.2855 6.3668 18.3773Z" fill="url(#paint7_linear_1438_23549)"/>
<path d="M17.1326 18.6669C17.3993 18.6669 17.655 18.5627 17.8436 18.3773C18.0321 18.1918 18.138 17.9402 18.138 17.6779C18.138 17.4157 18.0321 17.1641 17.8436 16.9786C17.655 16.7932 17.3993 16.689 17.1326 16.689H13.1109C12.8442 16.689 12.5885 16.7932 12.4 16.9786C12.2114 17.1641 12.1055 17.4157 12.1055 17.6779C12.1055 17.9402 12.2114 18.1918 12.4 18.3773C12.5885 18.5627 12.8442 18.6669 13.1109 18.6669H17.1326Z" fill="url(#paint8_linear_1438_23549)"/>
<path d="M20.1498 22.6234C20.1498 22.3611 20.0438 22.1095 19.8553 21.9241C19.6667 21.7386 19.411 21.6344 19.1443 21.6344H6.07379C5.80713 21.6344 5.5514 21.7386 5.36284 21.9241C5.17429 22.1095 5.06836 22.3611 5.06836 22.6234C5.06836 22.8857 5.17429 23.1372 5.36284 23.3227C5.5514 23.5082 5.80713 23.6124 6.07379 23.6124H19.1443C19.411 23.6124 19.6667 23.5082 19.8553 23.3227C20.0438 23.1372 20.1498 22.8857 20.1498 22.6234Z" fill="url(#paint9_linear_1438_23549)"/>
<path d="M9.09136 26.5797H15.1239C15.3906 26.5797 15.6463 26.4755 15.8349 26.29C16.0234 26.1045 16.1294 25.853 16.1294 25.5907C16.1294 25.3284 16.0234 25.0768 15.8349 24.8914C15.6463 24.7059 15.3906 24.6017 15.1239 24.6017H9.09136C8.82471 24.6017 8.56897 24.7059 8.38042 24.8914C8.19187 25.0768 8.08594 25.3284 8.08594 25.5907C8.08594 25.853 8.19187 26.1045 8.38042 26.29C8.56897 26.4755 8.82471 26.5797 9.09136 26.5797Z" fill="url(#paint10_linear_1438_23549)"/>
<path d="M9.09136 29.5461H15.1239C15.3906 29.5461 15.6463 29.4419 15.8349 29.2564C16.0234 29.0709 16.1294 28.8194 16.1294 28.5571C16.1294 28.2948 16.0234 28.0433 15.8349 27.8578C15.6463 27.6723 15.3906 27.5681 15.1239 27.5681H9.09136C8.82471 27.5681 8.56897 27.6723 8.38042 27.8578C8.19187 28.0433 8.08594 28.2948 8.08594 28.5571C8.08594 28.8194 8.19187 29.0709 8.38042 29.2564C8.56897 29.4419 8.82471 29.5461 9.09136 29.5461Z" fill="url(#paint11_linear_1438_23549)"/>
<path d="M5.06836 31.5243C5.06836 31.7866 5.17429 32.0381 5.36284 32.2236C5.5514 32.4091 5.80713 32.5132 6.07379 32.5132H17.1335C17.4001 32.5132 17.6559 32.4091 17.8444 32.2236C18.033 32.0381 18.1389 31.7866 18.1389 31.5243C18.1389 31.262 18.033 31.0104 17.8444 30.8249C17.6559 30.6395 17.4001 30.5353 17.1335 30.5353H6.07379C5.80713 30.5353 5.5514 30.6395 5.36284 30.8249C5.17429 31.0104 5.06836 31.262 5.06836 31.5243Z" fill="url(#paint12_linear_1438_23549)"/>
<path d="M33.9323 29.836L30.916 26.869C30.7269 26.6863 30.4721 26.5845 30.207 26.5857C29.942 26.5869 29.6881 26.691 29.5007 26.8753C29.3133 27.0597 29.2075 27.3094 29.2063 27.5701C29.2051 27.8308 29.3086 28.0814 29.4943 28.2674L31.7997 30.5352L29.4942 32.8029C29.3999 32.8945 29.325 33.0036 29.2737 33.1238C29.2224 33.2441 29.1957 33.3731 29.1953 33.5035C29.1949 33.6338 29.2207 33.763 29.2712 33.8836C29.3218 34.0041 29.396 34.1136 29.4898 34.2058C29.5835 34.298 29.6948 34.371 29.8174 34.4208C29.9399 34.4705 30.0713 34.4958 30.2038 34.4954C30.3364 34.495 30.4675 34.4688 30.5897 34.4183C30.712 34.3679 30.8228 34.2941 30.916 34.2014L33.9323 31.2344C34.0256 31.1426 34.0997 31.0336 34.1502 30.9136C34.2008 30.7936 34.2268 30.6651 34.2268 30.5352C34.2268 30.4053 34.2008 30.2767 34.1502 30.1568C34.0997 30.0368 34.0256 29.9278 33.9323 29.836Z" fill="url(#paint13_linear_1438_23549)"/>
<path d="M36.2359 34.4919H40.2576C40.5243 34.4919 40.78 34.3877 40.9686 34.2022C41.1571 34.0167 41.263 33.7652 41.263 33.5029C41.263 33.2406 41.1571 32.9891 40.9686 32.8036C40.78 32.6181 40.5243 32.5139 40.2576 32.5139H36.2359C35.9692 32.5139 35.7135 32.6181 35.525 32.8036C35.3364 32.9891 35.2305 33.2406 35.2305 33.5029C35.2305 33.7652 35.3364 34.0167 35.525 34.2022C35.7135 34.3877 35.9692 34.4919 36.2359 34.4919Z" fill="url(#paint14_linear_1438_23549)"/>
<path d="M51.318 37.4579H33.2203C32.9536 37.4579 32.6979 37.5621 32.5093 37.7476C32.3208 37.933 32.2148 38.1846 32.2148 38.4469C32.2148 38.7092 32.3208 38.9607 32.5093 39.1462C32.6979 39.3317 32.9536 39.4359 33.2203 39.4359H51.318C51.5846 39.4359 51.8404 39.3317 52.0289 39.1462C52.2175 38.9607 52.3234 38.7092 52.3234 38.4469C52.3234 38.1846 52.2175 37.933 52.0289 37.7476C51.8404 37.5621 51.5846 37.4579 51.318 37.4579Z" fill="url(#paint15_linear_1438_23549)"/>
<path d="M36.2359 42.4023H43.2739C43.5405 42.4023 43.7963 42.2981 43.9848 42.1126C44.1734 41.9271 44.2793 41.6756 44.2793 41.4133C44.2793 41.151 44.1734 40.8995 43.9848 40.714C43.7963 40.5285 43.5405 40.4243 43.2739 40.4243H36.2359C35.9692 40.4243 35.7135 40.5285 35.525 40.714C35.3364 40.8995 35.2305 41.151 35.2305 41.4133C35.2305 41.6756 35.3364 41.9271 35.525 42.1126C35.7135 42.2981 35.9692 42.4023 36.2359 42.4023Z" fill="url(#paint16_linear_1438_23549)"/>
<path d="M36.2359 45.3694H43.2739C43.5405 45.3694 43.7963 45.2653 43.9848 45.0798C44.1734 44.8943 44.2793 44.6428 44.2793 44.3805C44.2793 44.1182 44.1734 43.8666 43.9848 43.6811C43.7963 43.4957 43.5405 43.3915 43.2739 43.3915H36.2359C35.9692 43.3915 35.7135 43.4957 35.525 43.6811C35.3364 43.8666 35.2305 44.1182 35.2305 44.3805C35.2305 44.6428 35.3364 44.8943 35.525 45.0798C35.7135 45.2653 35.9692 45.3694 36.2359 45.3694Z" fill="url(#paint17_linear_1438_23549)"/>
<path d="M43.2739 49.3264H36.2359C35.9692 49.3264 35.7135 49.4306 35.525 49.6161C35.3364 49.8016 35.2305 50.0531 35.2305 50.3154C35.2305 50.5777 35.3364 50.8292 35.525 51.0147C35.7135 51.2002 35.9692 51.3044 36.2359 51.3044H43.2739C43.5405 51.3044 43.7963 51.2002 43.9848 51.0147C44.1734 50.8292 44.2793 50.5777 44.2793 50.3154C44.2793 50.0531 44.1734 49.8016 43.9848 49.6161C43.7963 49.4306 43.5405 49.3264 43.2739 49.3264Z" fill="url(#paint18_linear_1438_23549)"/>
<path d="M43.2739 52.2931H36.2359C35.9692 52.2931 35.7135 52.3973 35.525 52.5828C35.3364 52.7682 35.2305 53.0198 35.2305 53.2821C35.2305 53.5444 35.3364 53.7959 35.525 53.9814C35.7135 54.1669 35.9692 54.2711 36.2359 54.2711H43.2739C43.5405 54.2711 43.7963 54.1669 43.9848 53.9814C44.1734 53.7959 44.2793 53.5444 44.2793 53.2821C44.2793 53.0198 44.1734 52.7682 43.9848 52.5828C43.7963 52.3973 43.5405 52.2931 43.2739 52.2931Z" fill="url(#paint19_linear_1438_23549)"/>
<path d="M51.318 46.3579H33.2203C32.9536 46.3579 32.6979 46.4621 32.5093 46.6476C32.3208 46.833 32.2148 47.0846 32.2148 47.3469C32.2148 47.6092 32.3208 47.8607 32.5093 48.0462C32.6979 48.2317 32.9536 48.3359 33.2203 48.3359H51.318C51.5846 48.3359 51.8404 48.2317 52.0289 48.0462C52.2175 47.8607 52.3234 47.6092 52.3234 47.3469C52.3234 47.0846 52.2175 46.833 52.0289 46.6476C51.8404 46.4621 51.5846 46.3579 51.318 46.3579Z" fill="url(#paint20_linear_1438_23549)"/>
<defs>
<linearGradient id="paint0_linear_1438_23549" x1="22.1604" y1="0.865479" x2="22.1604" y2="37.4579" gradientUnits="userSpaceOnUse">
<stop offset="0.21" stop-color="#63388B"/>
<stop offset="1" stop-color="#327EB2"/>
</linearGradient>
<linearGradient id="paint1_linear_1438_23549" x1="6.5765" y1="3.83191" x2="6.5765" y2="5.80988" gradientUnits="userSpaceOnUse">
<stop offset="0.21" stop-color="#63388B"/>
<stop offset="1" stop-color="#327EB2"/>
</linearGradient>
<linearGradient id="paint2_linear_1438_23549" x1="10.598" y1="3.83191" x2="10.598" y2="5.80988" gradientUnits="userSpaceOnUse">
<stop offset="0.21" stop-color="#63388B"/>
<stop offset="1" stop-color="#327EB2"/>
</linearGradient>
<linearGradient id="paint3_linear_1438_23549" x1="14.6195" y1="3.83191" x2="14.6195" y2="5.80988" gradientUnits="userSpaceOnUse">
<stop offset="0.21" stop-color="#63388B"/>
<stop offset="1" stop-color="#327EB2"/>
</linearGradient>
<linearGradient id="paint4_linear_1438_23549" x1="33.7221" y1="6.79919" x2="33.7221" y2="8.77716" gradientUnits="userSpaceOnUse">
<stop offset="0.21" stop-color="#63388B"/>
<stop offset="1" stop-color="#327EB2"/>
</linearGradient>
<linearGradient id="paint5_linear_1438_23549" x1="39.7562" y1="6.79919" x2="39.7562" y2="8.77716" gradientUnits="userSpaceOnUse">
<stop offset="0.21" stop-color="#63388B"/>
<stop offset="1" stop-color="#327EB2"/>
</linearGradient>
<linearGradient id="paint6_linear_1438_23549" x1="42.27" y1="14.7115" x2="42.27" y2="66.1387" gradientUnits="userSpaceOnUse">
<stop offset="0.21" stop-color="#63388B"/>
<stop offset="1" stop-color="#327EB2"/>
</linearGradient>
<linearGradient id="paint7_linear_1438_23549" x1="8.58582" y1="10.7552" x2="8.58582" y2="18.667" gradientUnits="userSpaceOnUse">
<stop offset="0.21" stop-color="#63388B"/>
<stop offset="1" stop-color="#327EB2"/>
</linearGradient>
<linearGradient id="paint8_linear_1438_23549" x1="15.1218" y1="16.689" x2="15.1218" y2="18.6669" gradientUnits="userSpaceOnUse">
<stop offset="0.21" stop-color="#63388B"/>
<stop offset="1" stop-color="#327EB2"/>
</linearGradient>
<linearGradient id="paint9_linear_1438_23549" x1="12.6091" y1="21.6344" x2="12.6091" y2="23.6124" gradientUnits="userSpaceOnUse">
<stop offset="0.21" stop-color="#63388B"/>
<stop offset="1" stop-color="#327EB2"/>
</linearGradient>
<linearGradient id="paint10_linear_1438_23549" x1="12.1076" y1="24.6017" x2="12.1076" y2="26.5797" gradientUnits="userSpaceOnUse">
<stop offset="0.21" stop-color="#63388B"/>
<stop offset="1" stop-color="#327EB2"/>
</linearGradient>
<linearGradient id="paint11_linear_1438_23549" x1="12.1076" y1="27.5681" x2="12.1076" y2="29.5461" gradientUnits="userSpaceOnUse">
<stop offset="0.21" stop-color="#63388B"/>
<stop offset="1" stop-color="#327EB2"/>
</linearGradient>
<linearGradient id="paint12_linear_1438_23549" x1="11.6036" y1="30.5353" x2="11.6036" y2="32.5132" gradientUnits="userSpaceOnUse">
<stop offset="0.21" stop-color="#63388B"/>
<stop offset="1" stop-color="#327EB2"/>
</linearGradient>
<linearGradient id="paint13_linear_1438_23549" x1="31.711" y1="26.5857" x2="31.711" y2="34.4954" gradientUnits="userSpaceOnUse">
<stop offset="0.21" stop-color="#63388B"/>
<stop offset="1" stop-color="#327EB2"/>
</linearGradient>
<linearGradient id="paint14_linear_1438_23549" x1="38.2468" y1="32.5139" x2="38.2468" y2="34.4919" gradientUnits="userSpaceOnUse">
<stop offset="0.21" stop-color="#63388B"/>
<stop offset="1" stop-color="#327EB2"/>
</linearGradient>
<linearGradient id="paint15_linear_1438_23549" x1="42.2691" y1="37.4579" x2="42.2691" y2="39.4359" gradientUnits="userSpaceOnUse">
<stop offset="0.21" stop-color="#63388B"/>
<stop offset="1" stop-color="#327EB2"/>
</linearGradient>
<linearGradient id="paint16_linear_1438_23549" x1="39.7549" y1="40.4243" x2="39.7549" y2="42.4023" gradientUnits="userSpaceOnUse">
<stop offset="0.21" stop-color="#63388B"/>
<stop offset="1" stop-color="#327EB2"/>
</linearGradient>
<linearGradient id="paint17_linear_1438_23549" x1="39.7549" y1="43.3915" x2="39.7549" y2="45.3694" gradientUnits="userSpaceOnUse">
<stop offset="0.21" stop-color="#63388B"/>
<stop offset="1" stop-color="#327EB2"/>
</linearGradient>
<linearGradient id="paint18_linear_1438_23549" x1="39.7549" y1="49.3264" x2="39.7549" y2="51.3044" gradientUnits="userSpaceOnUse">
<stop offset="0.21" stop-color="#63388B"/>
<stop offset="1" stop-color="#327EB2"/>
</linearGradient>
<linearGradient id="paint19_linear_1438_23549" x1="39.7549" y1="52.2931" x2="39.7549" y2="54.2711" gradientUnits="userSpaceOnUse">
<stop offset="0.21" stop-color="#63388B"/>
<stop offset="1" stop-color="#327EB2"/>
</linearGradient>
<linearGradient id="paint20_linear_1438_23549" x1="42.2691" y1="46.3579" x2="42.2691" y2="48.3359" gradientUnits="userSpaceOnUse">
<stop offset="0.21" stop-color="#63388B"/>
<stop offset="1" stop-color="#327EB2"/>
</linearGradient>
</defs>
</svg>
