<svg width="68" height="67" viewBox="0 0 68 67" fill="none" xmlns="http://www.w3.org/2000/svg">
<path d="M61.1701 10.1906H58.1346C57.4769 10.1906 56.9442 10.7122 56.9442 11.3561C56.9442 12.0001 57.4769 12.5217 58.1346 12.5217H61.1701C63.1401 12.5217 64.7412 14.0895 64.7412 16.0185V46.3237H7.60319C6.94551 46.3237 6.41281 46.8453 6.41281 47.4893C6.41281 48.1333 6.94551 48.6549 7.60319 48.6549H64.7412V50.9861C64.7412 52.9151 63.1401 54.4828 61.1701 54.4828H6.41281C4.44277 54.4828 2.84169 52.9151 2.84169 50.9861V16.0185C2.84169 14.0895 4.44277 12.5217 6.41281 12.5217H9.84109C11.4124 12.5013 11.3975 10.208 9.84109 10.1906H6.41281C3.13035 10.1906 0.460938 12.8044 0.460938 16.0185V50.9861C0.460938 54.2002 3.13035 56.814 6.41281 56.814H27.5066L25.721 63.8075H23.0784C21.5249 63.8192 21.5071 66.1212 23.0784 66.1387H44.5051C45.1628 66.1387 45.6955 65.6171 45.6955 64.9731C45.6955 64.3291 45.1628 63.8075 44.5051 63.8075H41.8625L40.0769 56.814H61.1707C64.4531 56.814 67.1226 54.2002 67.1226 50.9861V16.0185C67.1226 12.8044 64.4525 10.1906 61.1701 10.1906ZM39.4104 63.8075H28.1763L29.9619 56.814H37.6253L39.4104 63.8075Z" fill="url(#paint0_linear_1438_23546)"/>
<path d="M45.9324 24.1773C50.5272 24.1773 54.2654 20.5174 54.2654 16.0178C54.316 11.0378 49.5515 7.08624 44.5459 7.98141C42.7008 3.68623 38.4274 0.865479 33.5822 0.865479C28.1839 0.865479 23.5564 4.37097 22.131 9.35393C21.7382 9.29274 21.3364 9.25777 20.9347 9.25777C10.8555 9.60744 10.8495 23.8244 20.9347 24.1773H32.6V29.0553C31.5912 29.4079 30.7995 30.183 30.4395 31.1708H25.8357C24.5054 27.5225 18.9464 28.4229 18.9137 32.3364C18.9524 36.2498 24.4995 37.1502 25.8357 33.502H30.4395C31.487 36.5675 36.0938 36.5733 37.1443 33.502H41.7481C42.2421 34.8569 43.5485 35.8331 45.099 35.8331C49.8039 35.7107 49.8128 28.962 45.099 28.8396C43.5485 28.8396 42.2391 29.8158 41.7481 31.1708H37.1443C36.7842 30.183 35.9926 29.4078 34.9838 29.0553V24.1773H45.9352L45.9324 24.1773ZM22.4822 33.502C20.9169 33.4757 20.9169 31.1971 22.4822 31.1708C24.0476 31.197 24.0476 33.4757 22.4822 33.502ZM33.791 33.502C32.2256 33.4757 32.2256 31.1971 33.791 31.1708C35.3563 31.197 35.3563 33.4757 33.791 33.502ZM45.0997 31.1708C46.6651 31.197 46.6651 33.4757 45.0997 33.502C43.5344 33.4757 43.5344 31.1971 45.0997 31.1708ZM15.6973 16.7175C15.7062 12.9876 19.4916 10.7235 22.9585 11.9124C23.5537 11.9678 24.0775 11.5015 24.1935 10.9625C26.4046 -0.215216 42.8411 1.14246 43.1055 12.5244C42.9805 13.2878 43.4328 14.0892 44.2899 14.0804C46.1617 13.9114 45.3761 11.4637 45.2481 10.2428C48.7389 9.79109 51.9083 12.5798 51.8844 16.0212C51.8844 19.2353 49.215 21.8491 45.9326 21.8491H20.9351C18.0454 21.8491 15.6974 19.55 15.6974 16.7205L15.6973 16.7175Z" fill="url(#paint1_linear_1438_23546)"/>
<defs>
<linearGradient id="paint0_linear_1438_23546" x1="33.7917" y1="10.1906" x2="33.7917" y2="66.1387" gradientUnits="userSpaceOnUse">
<stop offset="0.35" stop-color="#63388B"/>
<stop offset="1" stop-color="#327EB2"/>
</linearGradient>
<linearGradient id="paint1_linear_1438_23546" x1="33.8194" y1="0.865479" x2="33.8194" y2="35.8331" gradientUnits="userSpaceOnUse">
<stop offset="0.35" stop-color="#63388B"/>
<stop offset="1" stop-color="#327EB2"/>
</linearGradient>
</defs>
</svg>
