<svg width="67" height="67" viewBox="0 0 67 67" fill="none" xmlns="http://www.w3.org/2000/svg">
<path d="M62.352 50.792C61.5005 50.792 60.7149 51.0491 60.0529 51.4766L49.7166 41.2938C51.0021 40.8852 52.186 40.1789 53.1776 39.2075C54.8505 37.573 55.7734 35.3892 55.7734 33.0755C55.7734 31.5033 55.3312 29.9797 54.5291 28.6565H58.2978C58.6769 30.5263 60.3525 31.9389 62.3549 31.9389C64.6403 31.9389 66.4972 30.1097 66.4972 27.8582C66.4972 25.6148 64.6403 23.7775 62.3549 23.7775C60.3497 23.7775 58.6769 25.1901 58.2978 27.0599H53.2848C53.1502 26.9273 53.0239 26.7893 52.8838 26.6649C51.2109 25.1765 49.0244 24.3863 46.7802 24.435C46.077 22.4541 44.6706 20.8251 42.7643 19.813C40.8168 18.782 38.5534 18.5303 36.4355 19.1068C35.8724 18.0189 35.1006 17.0501 34.1639 16.2599L34.1611 8.94307C36.0592 8.56963 37.4931 6.91891 37.4931 4.94622C37.4931 2.70287 35.6362 0.865479 33.3508 0.865479C31.0654 0.865479 29.2086 2.69477 29.2086 4.94622C29.2086 6.92168 30.6424 8.56968 32.5405 8.94307V15.1698C32.4691 15.1292 32.4004 15.0859 32.329 15.0507C30.3183 14.0251 27.9889 13.7491 25.7832 14.2686C22.9429 14.9397 20.707 16.8449 19.5094 19.2695L8.27998 12.8831C8.42007 12.4745 8.50522 12.0307 8.50522 11.5734C8.50522 9.32195 6.64836 7.49266 4.36296 7.49266C2.07757 7.49266 0.220703 9.32195 0.220703 11.5734C0.220703 13.8168 2.07757 15.6541 4.36296 15.6541C5.60179 15.6541 6.7115 15.1129 7.47243 14.2605L18.9268 20.7795C18.5835 21.9512 18.4626 23.196 18.6164 24.4652C16.6607 24.7087 14.8532 25.5882 13.4551 26.9926C11.8372 28.6217 10.9445 30.7757 10.9445 33.0542C10.9445 35.3761 11.8729 37.5652 13.5457 39.2051C14.5456 40.182 15.7405 40.8883 17.0342 41.305L6.67331 51.485C6.01132 51.0493 5.22571 50.7923 4.36598 50.7923C2.08059 50.7923 0.22372 52.6216 0.22372 54.873C0.22372 57.1164 2.08059 58.9538 4.36598 58.9538C6.64315 58.9538 8.50824 57.1245 8.50824 54.873C8.50824 54.0423 8.25552 53.2656 7.81328 52.6135L18.9519 41.6839C19.1992 41.7055 19.4436 41.719 19.6963 41.719H19.7513H21.5724V63.0483C21.5724 64.7531 22.9788 66.1386 24.7093 66.1386H42.0094C43.7399 66.1386 45.1463 64.7531 45.1463 63.0483V41.7246H46.9895C47.2696 41.7246 47.5443 41.7111 47.819 41.6894L58.9085 52.6142C58.4662 53.2663 58.2135 54.0403 58.2135 54.8791C58.2135 57.1225 60.0704 58.9599 62.3558 58.9599C64.6412 58.9599 66.498 57.1306 66.498 54.8791C66.487 52.6223 64.6302 50.793 62.353 50.793L62.352 50.792ZM62.352 25.3818C63.7447 25.3818 64.8763 26.4967 64.8763 27.8686C64.8763 29.2405 63.7446 30.3555 62.352 30.3555C60.9594 30.3555 59.8276 29.2405 59.8276 27.8686C59.8276 26.4967 60.9594 25.3818 62.352 25.3818ZM30.8346 4.94548C30.8346 3.57348 31.9664 2.45863 33.359 2.45863C34.7516 2.45863 35.8833 3.57355 35.8833 4.94548C35.8833 6.31741 34.7516 7.43233 33.359 7.43233C31.9664 7.43233 30.8346 6.31741 30.8346 4.94548ZM4.36555 14.0621C2.97287 14.0621 1.84121 12.9472 1.84121 11.5753C1.84121 10.2033 2.97294 9.08843 4.36555 9.08843C5.75817 9.08843 6.8899 10.2034 6.8899 11.5753C6.8899 12.9527 5.75817 14.0621 4.36555 14.0621ZM4.36555 57.3593C2.97287 57.3593 1.84121 56.2444 1.84121 54.8725C1.84121 53.5005 2.97294 52.3856 4.36555 52.3856C5.75817 52.3856 6.8899 53.5005 6.8899 54.8725C6.8899 56.2445 5.75817 57.3593 4.36555 57.3593ZM43.533 63.0529C43.533 63.8783 42.8518 64.5575 42.0057 64.5575H24.7084C23.8707 64.5575 23.1812 63.8864 23.1812 63.0529V30.9105C23.1812 30.0851 23.8624 29.4059 24.7084 29.4059H42.0085C42.8463 29.4059 43.5358 30.077 43.5358 30.9105L43.533 63.0529ZM45.1509 40.1297V30.9098C45.1509 29.205 43.7445 27.8195 42.014 27.8195H24.709C22.9785 27.8195 21.5721 29.205 21.5721 30.9098V40.1297H19.7427H19.7015C17.8226 40.1297 16.0509 39.4017 14.7022 38.0785C13.3315 36.7336 12.5788 34.953 12.5788 33.056C12.5788 29.2378 15.7295 26.0661 19.5971 25.9906C19.8361 25.9825 20.0696 25.8715 20.2152 25.6848C20.3635 25.4981 20.4184 25.2546 20.369 25.0191C19.4406 20.9167 22.0418 16.7899 26.1786 15.8186C29.9693 14.9256 33.7872 16.8497 35.271 20.3919C35.4385 20.787 35.889 20.9873 36.2983 20.8357C38.1689 20.1511 40.251 20.2945 42.009 21.2227C43.7176 22.1292 44.9261 23.6392 45.4261 25.4766C45.525 25.8582 45.8903 26.1071 46.2914 26.0666C48.3021 25.8663 50.3211 26.5158 51.8181 27.8525C53.3152 29.184 54.175 31.089 54.175 33.0753C54.175 34.9669 53.4223 36.7393 52.0571 38.0762C50.7002 39.4076 48.9147 40.1328 47.0139 40.1192L45.1515 40.1246L45.1509 40.1297ZM62.3518 57.3592C60.9592 57.3592 59.8275 56.2443 59.8275 54.8723C59.8275 53.5003 60.9592 52.3855 62.3518 52.3855C63.7445 52.3855 64.8762 53.5004 64.8762 54.8723C64.8679 56.2443 63.7445 57.3592 62.3518 57.3592ZM41.1075 30.9992H25.6097C25.1675 30.9992 24.8022 31.3537 24.8022 31.7947V59.5132C24.8022 59.9489 25.162 60.3088 25.6097 60.3088H41.1075C41.5498 60.3088 41.9151 59.9543 41.9151 59.5132L41.9178 31.7975C41.9178 31.3591 41.558 30.9992 41.1075 30.9992ZM40.3 58.7177H26.4174V32.5932H40.3056V58.7177H40.3ZM36.0313 62.4304C36.0313 62.8661 35.6715 63.226 35.2238 63.226H31.4908C31.0485 63.226 30.6832 62.8715 30.6832 62.4304C30.6832 61.9866 31.0431 61.6349 31.4908 61.6349H35.2238C35.6715 61.6349 36.0313 61.9948 36.0313 62.4304ZM43.2448 1.64949C43.3162 1.21381 43.731 0.921543 44.1732 0.991913C48.3375 1.66302 52.1116 3.57624 55.1086 6.52585C58.1054 9.47816 60.0447 13.2044 60.726 17.2989C60.7974 17.7346 60.5007 18.1432 60.0585 18.2135C60.0173 18.2216 59.9678 18.2271 59.9239 18.2271C59.5366 18.2271 59.1932 17.951 59.1301 17.5614C57.8582 9.85169 51.7408 3.82264 43.915 2.56183C43.47 2.49418 43.1761 2.08516 43.2448 1.64949ZM42.3603 6.95613C42.4317 6.52045 42.8465 6.22819 43.2887 6.29856C49.4911 7.29709 54.3367 12.076 55.3471 18.1779C55.4186 18.6136 55.1219 19.0222 54.6797 19.0926C54.6385 19.1007 54.589 19.1061 54.5451 19.1061C54.1577 19.1061 53.8144 18.8301 53.7512 18.4404C52.8447 13.0093 48.5322 8.7633 43.019 7.86757C42.585 7.7918 42.2883 7.38318 42.3598 6.95563L42.3603 6.95613ZM41.4676 12.2546C41.539 11.8189 41.9538 11.5267 42.396 11.597C46.2855 12.2275 49.3291 15.2205 49.9638 19.0525C50.0352 19.4881 49.7386 19.8968 49.2963 19.9671C49.2551 19.9752 49.2057 19.9806 49.1617 19.9806C48.7744 19.9806 48.431 19.7046 48.3679 19.3149C47.8405 16.1569 45.3381 13.689 42.1297 13.1694C41.6985 13.0991 41.3961 12.6903 41.4676 12.2546Z" fill="url(#paint0_linear_1438_23572)"/>
<defs>
<linearGradient id="paint0_linear_1438_23572" x1="33.3594" y1="0.865479" x2="33.3594" y2="66.1386" gradientUnits="userSpaceOnUse">
<stop offset="0.16" stop-color="#63388B"/>
<stop offset="1" stop-color="#327EB2" stop-opacity="0.921569"/>
</linearGradient>
</defs>
</svg>
