<svg width="49" height="52" viewBox="0 0 49 52" fill="none" xmlns="http://www.w3.org/2000/svg">
<path d="M14.5507 3.79646C14.5507 3.34622 14.9514 2.98083 15.4452 2.98083H20.1967C20.6904 2.98083 21.0912 3.34622 21.0912 3.79646C21.0912 4.2467 20.6904 4.61209 20.1967 4.61209H15.4452C14.9514 4.61209 14.5507 4.24728 14.5507 3.79646ZM22.1603 46.5353C22.1603 47.7839 21.0462 48.7998 19.677 48.7998H15.9655C14.5963 48.7998 13.4822 47.7839 13.4822 46.5353C13.4822 45.2868 14.5963 44.2709 15.9655 44.2709H19.677C21.0462 44.2709 22.1603 45.2868 22.1603 46.5353ZM20.3708 46.5353C20.3708 46.1861 20.0593 45.9027 19.6763 45.9027H15.9649C15.5819 45.9027 15.2711 46.1867 15.2711 46.5353C15.2711 46.8846 15.5826 47.168 15.9649 47.168H19.6763C20.0593 47.168 20.3708 46.884 20.3708 46.5353ZM4.47296 16.8604V11.5885C4.47296 10.7354 5.23386 10.0415 6.16947 10.0415H11.7781C12.7137 10.0415 13.4746 10.7354 13.4746 11.5885V16.8604C13.4746 17.7135 12.7137 18.4074 11.7781 18.4074H6.16947C5.23386 18.4074 4.47296 17.7135 4.47296 16.8604ZM6.26189 16.7761H11.6863V11.6722H6.26189V16.7761ZM49 32.6777V36.7426C49 37.1928 48.5993 37.5582 48.1055 37.5582H46.5799C46.3001 38.5291 45.8792 39.4556 45.3228 40.3243L46.4021 41.3085C46.5698 41.4615 46.6641 41.6687 46.6641 41.8852C46.6641 42.1016 46.5698 42.3088 46.4021 42.4618L43.2496 45.3364C42.9002 45.6551 42.3336 45.6551 41.9848 45.3364L40.9055 44.3522C39.9528 44.8596 38.9374 45.2435 37.872 45.4986V46.8898C37.872 47.34 37.4713 47.7054 36.9776 47.7054H35.6432V48.4373C35.6432 50.4016 33.7808 52 31.4911 52H4.15202C1.86236 52 0 50.4016 0 48.4373V3.56268C0 1.59836 1.86236 0 4.15202 0H31.4911C33.7808 0 35.6432 1.59836 35.6432 3.56268V21.7143H36.9776C37.4713 21.7143 37.872 22.0797 37.872 22.53V23.9211C38.9368 24.1762 39.9528 24.5601 40.9055 25.0675L41.9848 24.0833C42.1526 23.9303 42.3798 23.8443 42.6172 23.8443C42.8546 23.8443 43.0818 23.9303 43.2496 24.0833L46.4021 26.9579C46.7515 27.2765 46.7515 27.7932 46.4021 28.1112L45.3228 29.0954C45.8792 29.9641 46.3001 30.89 46.5799 31.8615H48.1055C48.5993 31.8621 49 32.2269 49 32.6777ZM33.8536 21.7143V7.59407H1.78893V41.0701H23.3561L24.1734 40.3249C23.6169 39.4562 23.196 38.5303 22.9162 37.5588H21.3906C20.8968 37.5588 20.4961 37.1934 20.4961 36.7432V32.6783C20.4961 32.2281 20.8968 31.8627 21.3906 31.8627H22.9162C23.196 30.8918 23.6169 29.9653 24.1734 29.0966L23.094 28.1124C22.7446 27.7937 22.7446 27.2771 23.094 26.9591L26.2465 24.0845C26.5959 23.7658 27.1625 23.7658 27.5113 24.0845L28.5906 25.0686C29.5433 24.5612 30.5587 24.1774 31.6241 23.9223V22.5311C31.6241 22.0809 32.0248 21.7155 32.5185 21.7155H33.8536V21.7143ZM1.78893 3.56268V5.96224H33.8536V3.56268C33.8536 2.49769 32.7939 1.63126 31.4905 1.63126H4.15202C2.84925 1.63126 1.78893 2.49769 1.78893 3.56268ZM33.8536 47.706H32.5192C32.0254 47.706 31.6247 47.3406 31.6247 46.8903V45.4992C30.56 45.2441 29.5439 44.8602 28.5912 44.3528L27.5119 45.337C27.3442 45.49 27.1169 45.576 26.8795 45.576C26.6422 45.576 26.4149 45.49 26.2471 45.337L23.3568 42.7014H1.78956V48.4379C1.78956 49.5029 2.84925 50.3693 4.15265 50.3693H31.4918C32.7945 50.3693 33.8549 49.5029 33.8549 48.4379V47.706H33.8536ZM47.2111 33.4933H45.8691C45.4424 33.4933 45.0752 33.2186 44.9917 32.837C44.7245 31.615 44.2036 30.4692 43.4433 29.4302C43.2065 29.1064 43.2534 28.6758 43.5547 28.4004L44.5042 27.5346L42.6172 25.8138L41.667 26.6797C41.3657 26.955 40.8928 26.9972 40.5377 26.7813C39.3976 26.088 38.1411 25.613 36.8016 25.3694C36.3832 25.2932 36.0818 24.9584 36.0818 24.5693V23.3456H33.413V24.5693C33.413 24.9584 33.1117 25.2932 32.6933 25.3694C31.3531 25.613 30.0966 26.088 28.9571 26.7813C28.6026 26.9972 28.1298 26.9545 27.8278 26.6797L26.8783 25.8138L24.9912 27.5346L25.9408 28.401C26.2427 28.6758 26.2889 29.107 26.0522 29.4308C25.2913 30.4704 24.7703 31.6162 24.5038 32.8376C24.4202 33.2192 24.0531 33.4939 23.6264 33.4939H22.2844V35.9275H23.6264C24.0531 35.9275 24.4202 36.2023 24.5038 36.5838C24.7709 37.8058 25.2919 38.9517 26.0522 39.9907C26.2889 40.3139 26.2421 40.7451 25.9408 41.0205L24.9912 41.8863L26.8783 43.607L27.8278 42.7412C28.1291 42.4658 28.602 42.4237 28.9571 42.6396C30.0966 43.3328 31.3538 43.8079 32.6933 44.0515C33.1117 44.1277 33.413 44.4625 33.413 44.8515V46.0753H36.0818V44.8515C36.0818 44.4625 36.3832 44.1277 36.8016 44.0515C38.1417 43.8079 39.3983 43.3328 40.5377 42.6396C40.8928 42.4237 41.3651 42.4664 41.667 42.7412L42.6166 43.607L44.5036 41.8863L43.5541 41.0205C43.2521 40.7457 43.2059 40.3145 43.4427 39.9907C44.2029 38.9517 44.7239 37.8053 44.991 36.5838C45.0746 36.2023 45.4418 35.9275 45.8684 35.9275H47.2104L47.2111 33.4933ZM43.0274 34.7101C43.0274 38.8731 39.3134 42.2598 34.7481 42.2598C30.1827 42.2598 26.4687 38.8731 26.4687 34.7101C26.4687 30.5471 30.1827 27.1605 34.7481 27.1605C39.3134 27.1605 43.0274 30.5471 43.0274 34.7101ZM41.2385 34.7101C41.2385 31.4465 38.3272 28.7918 34.7481 28.7918C31.1689 28.7918 28.2576 31.4465 28.2576 34.7101C28.2576 37.9738 31.1689 40.6285 34.7481 40.6285C38.3272 40.6285 41.2385 37.9738 41.2385 34.7101ZM31.0898 34.7101L32.3571 33.5389C32.704 33.218 32.7002 32.702 32.3489 32.3856C31.9976 32.0693 31.431 32.0728 31.0841 32.3931L29.197 34.137C28.8533 34.4544 28.8533 34.9653 29.197 35.2828L31.0841 37.0266C31.2594 37.1882 31.4899 37.2696 31.7209 37.2696C31.9475 37.2696 32.1748 37.1911 32.3489 37.0347C32.7008 36.7183 32.704 36.2017 32.3571 35.8814L31.0898 34.7101ZM35.683 31.5284C35.2057 31.4124 34.7151 31.6699 34.5873 32.1051L33.18 36.8932C33.0522 37.3285 33.3351 37.7758 33.8124 37.8924C33.8903 37.9115 33.9682 37.9201 34.0448 37.9201C34.4398 37.9201 34.8012 37.68 34.9082 37.3152L36.3154 32.5271C36.4439 32.0924 36.1603 31.645 35.683 31.5284ZM37.1485 32.3856C36.7965 32.702 36.7927 33.2186 37.1403 33.5389L38.4076 34.7101L37.1403 35.8814C36.7934 36.2017 36.7972 36.7183 37.1485 37.0347C37.3226 37.1917 37.5498 37.2696 37.7764 37.2696C38.0075 37.2696 38.2379 37.1888 38.4133 37.0266L40.3003 35.2828C40.6441 34.9653 40.6441 34.4544 40.3003 34.137L38.4133 32.3931C38.0664 32.0728 37.4998 32.0693 37.1485 32.3856ZM5.36743 32.8734H12.2864C12.7802 32.8734 13.1809 32.508 13.1809 32.0578C13.1809 31.6075 12.7802 31.2421 12.2864 31.2421H5.36743C4.87367 31.2421 4.47296 31.6075 4.47296 32.0578C4.47296 32.508 4.87303 32.8734 5.36743 32.8734ZM5.36743 22.5721H14.4627C14.9565 22.5721 15.3572 22.2067 15.3572 21.7565C15.3572 21.3062 14.9565 20.9408 14.4627 20.9408H5.36743C4.87367 20.9408 4.47296 21.3062 4.47296 21.7565C4.47296 22.2067 4.87303 22.5721 5.36743 22.5721ZM5.36743 27.7227H7.04241C7.53617 27.7227 7.93688 27.3574 7.93688 26.9071C7.93688 26.4569 7.53617 26.0915 7.04241 26.0915H5.36743C4.87367 26.0915 4.47296 26.4569 4.47296 26.9071C4.47296 27.3574 4.87303 27.7227 5.36743 27.7227ZM17.6678 17.4215H24.255C24.7488 17.4215 25.1495 17.0561 25.1495 16.6058C25.1495 16.1556 24.7488 15.7902 24.255 15.7902H17.6678C17.174 15.7902 16.7733 16.1556 16.7733 16.6058C16.7733 17.0566 17.1734 17.4215 17.6678 17.4215ZM17.6678 12.2708H20.1707C20.6645 12.2708 21.0652 11.9054 21.0652 11.4552C21.0652 11.0049 20.6645 10.6396 20.1707 10.6396H17.6678C17.174 10.6396 16.7733 11.0049 16.7733 11.4552C16.7733 11.9054 17.1734 12.2708 17.6678 12.2708ZM20.0479 26.0915H10.8393C10.3455 26.0915 9.94484 26.4569 9.94484 26.9071C9.94484 27.3574 10.3455 27.7227 10.8393 27.7227H20.0479C20.5417 27.7227 20.9424 27.3574 20.9424 26.9071C20.9424 26.4569 20.5423 26.0915 20.0479 26.0915ZM7.26461 36.3928H5.36743C4.87367 36.3928 4.47296 36.7582 4.47296 37.2084C4.47296 37.6587 4.87367 38.024 5.36743 38.024H7.26461C7.75837 38.024 8.15907 37.6587 8.15907 37.2084C8.15907 36.7582 7.759 36.3928 7.26461 36.3928ZM30.2757 15.7902H28.2095C27.7158 15.7902 27.3151 16.1556 27.3151 16.6058C27.3151 17.0561 27.7158 17.4215 28.2095 17.4215H30.2757C30.7695 17.4215 31.1702 17.0561 31.1702 16.6058C31.1702 16.1556 30.7695 15.7902 30.2757 15.7902ZM30.2757 10.6396H25.0355C24.5418 10.6396 24.1411 11.0049 24.1411 11.4552C24.1411 11.9054 24.5418 12.2708 25.0355 12.2708H30.2757C30.7695 12.2708 31.1702 11.9054 31.1702 11.4552C31.1702 11.0049 30.7695 10.6396 30.2757 10.6396ZM30.2757 20.9408H28.9021C28.4083 20.9408 28.0076 21.3062 28.0076 21.7565C28.0076 22.2067 28.4083 22.5721 28.9021 22.5721H30.2757C30.7695 22.5721 31.1702 22.2067 31.1702 21.7565C31.1702 21.3062 30.7695 20.9408 30.2757 20.9408ZM17.9748 36.3928H11.8692C11.3755 36.3928 10.9748 36.7582 10.9748 37.2084C10.9748 37.6587 11.3755 38.024 11.8692 38.024H17.9748C18.4685 38.024 18.8692 37.6587 18.8692 37.2084C18.8692 36.7582 18.4692 36.3928 17.9748 36.3928ZM17.9748 31.2421H16.2409C15.7471 31.2421 15.3464 31.6075 15.3464 32.0578C15.3464 32.508 15.7471 32.8734 16.2409 32.8734H17.9748C18.4685 32.8734 18.8692 32.508 18.8692 32.0578C18.8692 31.6075 18.4692 31.2421 17.9748 31.2421ZM25.8148 20.9408H20.1081C19.6143 20.9408 19.2136 21.3062 19.2136 21.7565C19.2136 22.2067 19.6143 22.5721 20.1081 22.5721H25.8148C26.3086 22.5721 26.7093 22.2067 26.7093 21.7565C26.7093 21.3062 26.3092 20.9408 25.8148 20.9408Z" fill="url(#paint0_linear_3030_9264)"/>
<defs>
<linearGradient id="paint0_linear_3030_9264" x1="24.5" y1="0" x2="24.5" y2="52" gradientUnits="userSpaceOnUse">
<stop stop-color="#63388B"/>
<stop offset="1" stop-color="#347BB0"/>
</linearGradient>
</defs>
</svg>
