<svg width="55" height="54" viewBox="0 0 55 54" fill="none" xmlns="http://www.w3.org/2000/svg">
<path fill-rule="evenodd" clip-rule="evenodd" d="M39.8195 36.3814L45.6588 34.3046V19.208L32.1133 7.37713L18.5677 19.208V28.5006C19.7131 28.5573 20.8263 28.8971 21.8068 29.4891C23.6867 30.5891 25.3534 31.9951 27.2922 32.8898V25.8633C27.293 25.3303 27.506 24.8194 27.8846 24.4425C28.2631 24.0656 28.7763 23.8536 29.3117 23.8528H34.9066C35.4419 23.8536 35.9551 24.0656 36.3337 24.4425C36.7123 24.8194 36.9253 25.3303 36.9261 25.8633V34.6388C38.0209 34.9501 39.2465 35.4737 39.8118 36.3837L39.8195 36.3814ZM23.1043 10.0613L31.3282 2.87827C31.5512 2.6945 31.8319 2.59444 32.1214 2.59551C32.4109 2.59659 32.6908 2.69872 32.9124 2.88413L50.1978 17.9855C50.2223 18.0097 50.2482 18.0324 50.2755 18.0535C50.502 18.2602 50.6367 18.5481 50.65 18.8537C50.6633 19.1593 50.5541 19.4577 50.3465 19.6832C50.1388 19.9086 49.8497 20.0428 49.5427 20.056C49.2357 20.0693 48.936 19.9606 48.7095 19.7538L32.6427 5.71666C32.4956 5.58886 32.3068 5.51893 32.1116 5.52001C31.9163 5.52109 31.7283 5.5931 31.5826 5.72252L17.2915 18.2053C17.2562 18.2314 17.2231 18.2602 17.1925 18.2915L15.5229 19.7503C15.4067 19.8499 15.2717 19.9255 15.126 19.9728C14.9802 20.02 14.8264 20.038 14.6736 20.0257C14.5207 20.0133 14.3719 19.9709 14.2357 19.9008C14.0994 19.8308 13.9785 19.7345 13.8799 19.6176C13.7814 19.5007 13.7071 19.3654 13.6614 19.2197C13.6157 19.074 13.5996 18.9207 13.6138 18.7687C13.6281 18.6167 13.6726 18.4691 13.7446 18.3343C13.8166 18.1996 13.9148 18.0804 14.0335 17.9837L18.2467 14.3016C18.2822 14.2754 18.3155 14.2464 18.3462 14.2148L23.0042 10.1457C23.0396 10.1195 23.0729 10.0905 23.1037 10.059L23.1043 10.0613ZM21.7238 9.14723L18.5724 11.8994V5.2476H21.7238V9.14723ZM16.9664 13.3031V4.44961C16.9665 4.23761 17.0512 4.03434 17.2019 3.88449C17.3525 3.73463 17.5567 3.65046 17.7697 3.65046H22.5265C22.7395 3.65046 22.9437 3.73463 23.0943 3.88449C23.245 4.03434 23.3297 4.23761 23.3298 4.44961V7.74651L30.2728 1.67865C30.7872 1.23961 31.4428 0.998821 32.1203 1C32.7979 1.00119 33.4526 1.24427 33.9655 1.6851C39.7441 6.73334 45.6135 11.7488 51.3321 16.8568L51.3503 16.8756C51.6163 17.1206 51.8312 17.4153 51.9827 17.743C52.1343 18.0707 52.2195 18.4249 52.2336 18.7854C52.2476 19.1459 52.1902 19.5056 52.0646 19.844C51.9391 20.1824 51.7478 20.4928 51.5017 20.7576C51.2556 21.0224 50.9595 21.2363 50.6303 21.3872C50.3012 21.5381 49.9454 21.623 49.5833 21.6369C49.2212 21.6509 48.8599 21.5938 48.52 21.4688C48.1801 21.3437 47.8683 21.1533 47.6023 20.9083L47.2643 20.6151V33.7359L50.07 32.7391C52.5135 31.8708 55.0094 34.7707 53.583 37.1254C53.1347 37.8132 52.4976 38.3586 51.7473 38.6967L32.1433 48.4491C32.0714 48.4924 31.9931 48.5241 31.9112 48.5429C27.6503 49.5461 24.4582 49.1878 20.4988 48.744C18.8109 48.5546 16.9805 48.3494 14.8857 48.2315L15.3444 50.0738C15.3695 50.1756 15.3741 50.2814 15.3581 50.3851C15.342 50.4887 15.3056 50.5882 15.2509 50.6778C15.1962 50.7675 15.1243 50.8455 15.0393 50.9074C14.9543 50.9694 14.8579 51.014 14.7555 51.0388L6.89318 52.9772C6.68653 53.0274 6.46832 52.9939 6.28653 52.8839C6.10474 52.774 5.97426 52.5966 5.92379 52.3909L1.02324 32.6822C0.998027 32.5804 0.993274 32.4745 1.00925 32.3708C1.02523 32.2671 1.06162 32.1676 1.11634 32.0779C1.17106 31.9882 1.24303 31.9102 1.32812 31.8483C1.41321 31.7864 1.50974 31.7418 1.61218 31.7172L9.4739 29.7788C9.57623 29.7537 9.68253 29.7489 9.78671 29.7648C9.89088 29.7808 9.99087 29.817 10.0809 29.8715C10.171 29.9259 10.2494 29.9976 10.3116 30.0823C10.3737 30.167 10.4185 30.2631 10.4433 30.3651L10.8084 31.8309C12.4287 30.3338 14.402 29.2676 16.5459 28.731C16.6872 28.6935 16.8274 28.6601 16.9675 28.6319V20.6093L16.5765 20.9511C16.0327 21.4237 15.3247 21.6658 14.604 21.6253C13.8833 21.5849 13.2071 21.2652 12.7201 20.7347C12.6895 20.704 12.6613 20.6708 12.6359 20.6357C12.1842 20.0917 11.9598 19.3957 12.0092 18.6916C12.0587 17.9875 12.3781 17.3293 12.9015 16.8533C12.9297 16.8254 12.9598 16.7996 12.9916 16.7759L16.9699 13.3007L16.9664 13.3031ZM27.7946 21.5034C27.5815 21.5034 27.3772 21.4191 27.2265 21.2692C27.0759 21.1192 26.9913 20.9158 26.9913 20.7037C26.9913 20.4916 27.0759 20.2881 27.2265 20.1382C27.3772 19.9882 27.5815 19.9039 27.7946 19.9039H36.4343C36.6473 19.9039 36.8517 19.9882 37.0023 20.1382C37.153 20.2881 37.2376 20.4916 37.2376 20.7037C37.2376 20.9158 37.153 21.1192 37.0023 21.2692C36.8517 21.4191 36.6473 21.5034 36.4343 21.5034H27.7946ZM26.3052 17.1171C26.0959 17.1115 25.8972 17.0248 25.7512 16.8755C25.6053 16.7262 25.5236 16.526 25.5236 16.3177C25.5236 16.1093 25.6053 15.9092 25.7512 15.7599C25.8972 15.6106 26.0959 15.5239 26.3052 15.5182H37.9243C38.1335 15.5239 38.3322 15.6106 38.4782 15.7599C38.6242 15.9092 38.7059 16.1093 38.7059 16.3177C38.7059 16.526 38.6242 16.7262 38.4782 16.8755C38.3322 17.0248 38.1335 17.1115 37.9243 17.1171H26.3052ZM46.7584 35.6127L50.6088 34.2436C50.8763 34.1838 51.1554 34.2011 51.4134 34.2935C51.6713 34.3859 51.8975 34.5496 52.0653 34.7654C52.2332 34.9812 52.3358 35.2401 52.3612 35.5119C52.3865 35.7837 52.3335 36.057 52.2084 36.2999C51.9146 36.7269 51.5066 37.0634 51.0305 37.2714L31.4637 47.0044C27.506 47.9214 24.4553 47.5795 20.6726 47.155C18.8468 46.9504 16.8515 46.7264 14.4811 46.6115L11.2578 33.6462C12.7819 31.9861 14.7656 30.8126 16.9587 30.2736C17.6373 30.0894 18.3467 30.0466 19.0426 30.148C19.7385 30.2494 20.4059 30.4928 21.0029 30.8629C23.2704 32.1903 25.0348 33.8391 27.7245 34.7807C29.6527 35.4556 35.621 35.4034 37.8424 36.7038C37.9828 36.7621 38.1076 36.8523 38.2068 36.9672C38.306 37.082 38.3769 37.2183 38.4138 37.3653C38.4507 37.5122 38.4526 37.6657 38.4194 37.8135C38.3861 37.9613 38.3186 38.0993 38.2223 38.2165C37.853 38.8416 36.6434 38.627 35.7423 38.6393C34.7246 38.6545 33.8094 38.6721 32.9619 38.6879C27.7245 38.7876 25.0766 38.8375 21.3009 37.8794C21.0944 37.827 20.8754 37.8584 20.6921 37.9668C20.5088 38.0752 20.3762 38.2516 20.3236 38.4572C20.271 38.6629 20.3025 38.8809 20.4114 39.0634C20.5202 39.2459 20.6974 39.3778 20.904 39.4302C24.8699 40.437 27.5955 40.3848 32.9855 40.2827C33.8438 40.2663 34.7686 40.2501 35.76 40.2341C37.2017 40.213 38.6828 40.5794 39.6016 39.0239C39.7956 38.7065 39.9432 38.3632 40.0398 38.0043L46.7024 35.6344C46.7213 35.6285 46.7401 35.6221 46.7584 35.6144V35.6127ZM28.9041 33.4363V25.8633C28.9049 25.7547 28.9486 25.6507 29.0257 25.5739C29.1029 25.4971 29.2073 25.4536 29.3164 25.4529H34.9113C35.0204 25.4536 35.1248 25.4971 35.202 25.5739C35.2791 25.6507 35.3228 25.7547 35.3236 25.8633V34.2735C34.0815 34.0466 32.744 33.903 31.5261 33.7722C30.5013 33.662 29.5673 33.5617 28.9006 33.4363H28.9041ZM9.84258 47.2647C9.61381 47.2647 9.39018 47.3322 9.19997 47.4588C9.00975 47.5853 8.8615 47.7651 8.77395 47.9755C8.68641 48.186 8.6635 48.4175 8.70813 48.6409C8.75276 48.8643 8.86292 49.0694 9.02469 49.2305C9.18645 49.3915 9.39255 49.5012 9.61692 49.5456C9.8413 49.5901 10.0739 49.5673 10.2852 49.4801C10.4966 49.3929 10.6772 49.2454 10.8043 49.056C10.9314 48.8666 10.9993 48.644 10.9993 48.4162C10.9993 48.1108 10.8774 47.8179 10.6605 47.602C10.4436 47.386 10.1493 47.2647 9.84258 47.2647ZM13.0717 47.5743L9.07814 31.519L2.77121 33.0739L7.28953 51.2364L13.5959 49.6815L13.0717 47.5743Z" fill="url(#paint0_linear_3030_9248)" stroke="url(#paint1_linear_3030_9248)" stroke-width="0.5"/>
<defs>
<linearGradient id="paint0_linear_3030_9248" x1="27.5" y1="1" x2="27.5" y2="53" gradientUnits="userSpaceOnUse">
<stop stop-color="#63388B"/>
<stop offset="1" stop-color="#327EB2"/>
</linearGradient>
<linearGradient id="paint1_linear_3030_9248" x1="27.5" y1="1" x2="27.5" y2="53" gradientUnits="userSpaceOnUse">
<stop stop-color="#63388B"/>
<stop offset="1" stop-color="#327EB2"/>
</linearGradient>
</defs>
</svg>
