<svg width="47" height="47" viewBox="0 0 47 47" fill="none" xmlns="http://www.w3.org/2000/svg">
<path d="M41.9499 16.1807H35.4218C33.5833 16.1807 31.9905 17.4387 31.5118 19.1563C31.2788 19.1838 31.0458 19.2495 30.8234 19.3575V15.8991C30.8234 13.6648 29.006 11.8434 26.7671 11.8434H20.239C18.0044 11.8434 16.1828 13.6605 16.1828 15.8991V19.3575C15.9604 19.2495 15.7274 19.1838 15.4944 19.1563C15.0178 17.4218 13.4441 16.1807 11.5843 16.1807H5.05626C2.82162 16.1807 1 18.0021 1 20.2364V31.0905C1 31.8868 1.30925 32.6365 1.87903 33.2041C2.24759 33.5683 2.6924 33.8225 3.16898 33.958V43.0181C3.16898 44.6615 4.50767 46 6.15132 46H10.4893C12.1329 46 13.4716 44.6615 13.4716 43.0181V42.1455L13.7364 42.4103C14.446 43.1261 15.541 43.2447 16.3989 42.7131L18.0574 41.6711C18.2036 41.5779 18.3879 41.5631 18.534 41.633C18.8602 41.7897 19.2012 41.9316 19.5486 42.0566C19.7011 42.1116 19.8197 42.2514 19.8578 42.4208L20.2963 44.3353C20.5251 45.3159 21.3871 45.9999 22.389 45.9999H24.6004C25.6086 45.9999 26.4707 45.3159 26.6931 44.3353L27.1316 42.4272C27.1697 42.2599 27.2883 42.118 27.4408 42.0629C27.7818 41.938 28.125 41.7982 28.4554 41.6457C28.6015 41.5758 28.7858 41.5906 28.932 41.6838L30.5968 42.7258C31.4483 43.2574 32.5434 43.1324 33.2594 42.423L33.5241 42.1582L33.5284 43.0181C33.5284 44.6615 34.8671 46 36.5107 46H40.8487C42.4923 46 43.831 44.6615 43.831 43.0181V33.958C45.0828 33.6064 46 32.4501 46 31.0904V20.2363C46.0063 18.002 44.1846 16.1807 41.9499 16.1807ZM20.239 13.4699H26.7736C28.1123 13.4699 29.2031 14.5606 29.2031 15.8991V20.3444L28.9532 20.5011C28.807 20.5943 28.6227 20.6091 28.4766 20.5392C28.1461 20.3825 27.8051 20.2406 27.462 20.122C27.3095 20.067 27.1909 19.9272 27.1527 19.7578L26.7143 17.8496C26.4855 16.8691 25.6235 16.185 24.6215 16.185H22.4102C21.402 16.185 20.5399 16.8691 20.3175 17.8496L19.879 19.7578C19.8409 19.9251 19.7223 20.067 19.5698 20.122C19.2224 20.247 18.8814 20.3867 18.5552 20.5456C18.409 20.6155 18.2248 20.6006 18.0786 20.5075L17.8287 20.3507V15.8991C17.8096 14.5606 18.9004 13.4699 20.239 13.4699ZM11.845 43.0178C11.845 43.7654 11.2371 44.3732 10.4894 44.3732H6.15148C5.40378 44.3732 4.79587 43.7654 4.79587 43.0178V33.2589C4.79587 32.8099 4.43155 32.4456 3.98251 32.4456C3.62454 32.4456 3.2835 32.3037 3.02301 32.0496C2.76883 31.7955 2.62691 31.4524 2.62691 31.0903V20.2361C2.62691 18.8976 3.71774 17.807 5.05644 17.807H11.5845C12.7071 17.807 13.6497 18.5609 13.9272 19.6071C13.8615 19.6558 13.798 19.7045 13.7365 19.7638L12.1797 21.3204C11.4701 22.0299 11.3451 23.1248 11.8768 23.9826L12.919 25.6408C13.0122 25.787 13.027 25.9712 12.9571 26.1173C12.8003 26.4477 12.6584 26.7887 12.5335 27.1318C12.4784 27.2843 12.3386 27.4029 12.1691 27.441L10.2544 27.8794C9.27365 28.1081 8.5895 28.97 8.5895 29.9718V32.1828C8.5895 33.1909 9.27365 34.0528 10.2544 34.2752L12.1628 34.7136C12.3301 34.7517 12.472 34.8703 12.5271 35.0228C12.6521 35.3638 12.7919 35.7069 12.9444 36.0373C13.0143 36.1834 12.9994 36.3676 12.9062 36.5138L11.8641 38.1784C11.4087 38.9112 11.4362 39.8154 11.9022 40.5101C11.8599 40.6075 11.8323 40.7219 11.8323 40.8363L11.8345 43.0176L11.845 43.0178ZM32.1201 41.2621C31.9464 41.4358 31.6817 41.4676 31.4698 41.3384L29.805 40.2964C29.1823 39.9067 28.4218 39.8622 27.7716 40.1672C27.4899 40.3027 27.1976 40.4213 26.9031 40.5251C26.2253 40.7687 25.7212 41.3384 25.5581 42.0542L25.1196 43.9623C25.0646 44.2016 24.8549 44.369 24.6092 44.369H22.3978C22.1542 44.369 21.9424 44.2016 21.8874 43.9623L21.4489 42.0478C21.2858 41.332 20.7817 40.7623 20.1039 40.5188C19.8116 40.4108 19.5193 40.2901 19.2354 40.1545C18.9473 40.019 18.6445 39.9533 18.3352 39.9533C17.9391 39.9533 17.543 40.0677 17.1956 40.2837L15.5371 41.3257C15.3316 41.4549 15.0605 41.4295 14.8868 41.2494L13.3258 39.6928C13.1521 39.5192 13.1203 39.2545 13.2495 39.0427L14.2916 37.3781C14.6814 36.7555 14.7301 35.9951 14.4208 35.345C14.2853 35.0633 14.1667 34.771 14.0629 34.4766C13.8193 33.7989 13.2495 33.2949 12.5336 33.1318L10.6252 32.6934C10.3858 32.6383 10.2185 32.4287 10.2185 32.183V29.972C10.2185 29.7285 10.3858 29.5167 10.6252 29.4616L12.5399 29.0232C13.2559 28.8602 13.8256 28.3561 14.0692 27.6784C14.1773 27.3861 14.298 27.0939 14.4272 26.8101C14.7364 26.1599 14.6877 25.3953 14.298 24.7706L13.2558 23.1123C13.1266 22.9069 13.1521 22.6358 13.3321 22.4622L14.8889 20.9056C15.0626 20.7319 15.3274 20.7001 15.5392 20.8293L17.1977 21.8713C17.8204 22.261 18.5851 22.3097 19.2375 22.0005C19.5192 21.865 19.8073 21.7464 20.1059 21.6426C20.7837 21.399 21.2836 20.8294 21.451 20.1135L21.8894 18.199C21.9445 17.9597 22.1542 17.7924 22.3999 17.7924H24.6112C24.8548 17.7924 25.0666 17.9597 25.1217 18.199L25.5601 20.1072C25.7275 20.823 26.2274 21.3927 26.9052 21.6363C27.1975 21.74 27.4898 21.865 27.7736 21.9942C28.4239 22.3034 29.1843 22.2547 29.8071 21.865L31.4719 20.823C31.6774 20.6938 31.9485 20.7256 32.1222 20.8992L33.6832 22.4601C33.8569 22.6337 33.8887 22.8985 33.7595 23.1102L32.7174 24.7685C32.3276 25.3911 32.2789 26.1557 32.5881 26.808C32.7237 27.0896 32.8423 27.3777 32.9461 27.6763C33.1897 28.354 33.7595 28.8538 34.4754 29.0211L36.3902 29.4595C36.6295 29.5146 36.7969 29.7242 36.7969 29.9699V32.1809C36.7969 32.4244 36.6295 32.6362 36.3902 32.6913L34.4817 33.1297C33.7658 33.297 33.196 33.7968 32.9525 34.4745C32.8487 34.7668 32.7237 35.059 32.5945 35.3428C32.2852 35.993 32.334 36.7533 32.7237 37.376L33.7658 39.0406C33.895 39.246 33.8633 39.5171 33.6896 39.6907L32.1201 41.2621ZM44.3797 31.0901C44.3797 31.8377 43.7718 32.4455 43.0241 32.4455C42.5751 32.4455 42.2107 32.8097 42.2107 33.2587V43.0177C42.2107 43.7653 41.6028 44.3731 40.8551 44.3731H36.5172C35.7695 44.3731 35.1616 43.7653 35.1616 43.0177V40.849C35.1616 40.7346 35.134 40.6203 35.0917 40.5229C35.5576 39.8282 35.5852 38.9239 35.1298 38.1911L34.0876 36.5265C33.9944 36.3804 33.9796 36.1961 34.0495 36.05C34.2063 35.7196 34.3482 35.3787 34.4668 35.0356C34.5219 34.8831 34.6617 34.7645 34.8311 34.7264L36.7395 34.288C37.7202 34.0593 38.4044 33.1973 38.4044 32.1956V29.9846C38.4044 28.9765 37.7202 28.1145 36.7395 27.8921L34.8311 27.4537C34.6638 27.4156 34.5219 27.297 34.4668 27.1445C34.3418 26.7972 34.202 26.4563 34.0432 26.1301C33.9733 25.984 33.9881 25.7997 34.0813 25.6536L35.1234 23.9953C35.6593 23.1397 35.5365 22.0491 34.8205 21.3332L33.2595 19.7724C33.2002 19.7131 33.1345 19.6644 33.0688 19.6093C33.3505 18.5737 34.3058 17.8091 35.4115 17.8091H41.9396C43.2783 17.8091 44.3691 18.8998 44.3691 20.2383V31.0903L44.3797 31.0901ZM23.5033 24.8552C20.0656 24.8552 17.2675 27.6529 17.2675 31.0901C17.2675 34.5273 20.0656 37.325 23.5033 37.325C26.941 37.325 29.7391 34.5273 29.7391 31.0901C29.7391 27.6529 26.941 24.8552 23.5033 24.8552ZM23.5033 35.6985C20.9594 35.6985 18.8942 33.6336 18.8942 31.0901C18.8942 28.5466 20.9594 26.4817 23.5033 26.4817C26.0472 26.4817 28.1124 28.5466 28.1124 31.0901C28.1124 33.6336 26.0472 35.6985 23.5033 35.6985ZM8.39041 15.6384C11.2308 15.6384 13.5417 13.3279 13.5417 10.4879C13.5417 7.64785 11.2308 5.33731 8.39041 5.33731C5.54997 5.33731 3.23909 7.64785 3.23909 10.4879C3.23909 13.3279 5.54997 15.6384 8.39041 15.6384ZM8.39041 6.9638C10.3306 6.9638 11.915 8.54795 11.915 10.4879C11.915 12.4278 10.3306 14.0119 8.39041 14.0119C6.45021 14.0119 4.86582 12.4278 4.86582 10.4879C4.86582 8.54795 6.44386 6.9638 8.39041 6.9638ZM38.7561 15.6384C41.5965 15.6384 43.9074 13.3279 43.9074 10.4879C43.9074 7.64785 41.5965 5.33731 38.7561 5.33731C35.9156 5.33731 33.6048 7.64785 33.6048 10.4879C33.6048 13.3279 35.9156 15.6384 38.7561 15.6384ZM38.7561 6.9638C40.6963 6.9638 42.2807 8.54795 42.2807 10.4879C42.2807 12.4278 40.6963 14.0119 38.7561 14.0119C36.8159 14.0119 35.2315 12.4278 35.2315 10.4879C35.2315 8.54795 36.8095 6.9638 38.7561 6.9638ZM23.5733 11.3011C26.4137 11.3011 28.7246 8.99057 28.7246 6.15055C28.7246 3.31054 26.4137 1 23.5733 1C20.7328 1 18.4219 3.31054 18.4219 6.15055C18.4219 8.99057 20.7328 11.3011 23.5733 11.3011ZM23.5733 2.62649C25.5135 2.62649 27.0978 4.21064 27.0978 6.15055C27.0978 8.09047 25.5135 9.67461 23.5733 9.67461C21.633 9.67461 20.0487 8.09047 20.0487 6.15055C20.0487 4.21064 21.6267 2.62649 23.5733 2.62649Z" fill="url(#paint0_linear_3030_9263)" stroke="url(#paint1_linear_3030_9263)" stroke-width="0.5"/>
<defs>
<linearGradient id="paint0_linear_3030_9263" x1="23.5" y1="1" x2="23.5" y2="46" gradientUnits="userSpaceOnUse">
<stop stop-color="#63388B"/>
<stop offset="1" stop-color="#327EB2"/>
</linearGradient>
<linearGradient id="paint1_linear_3030_9263" x1="23.5" y1="1" x2="23.5" y2="46" gradientUnits="userSpaceOnUse">
<stop stop-color="#63388B"/>
<stop offset="1" stop-color="#327EB2"/>
</linearGradient>
</defs>
</svg>
