<svg width="51" height="54" viewBox="0 0 51 54" fill="none" xmlns="http://www.w3.org/2000/svg">
<path d="M6.89826 21.4966C6.59493 21.7662 6.1343 21.7438 5.86466 21.4516C5.59503 21.1595 5.6175 20.6989 5.9096 20.418L14.6727 12.4526C14.9761 12.1717 15.4592 12.2054 15.7288 12.5425L18.6386 15.9354L28.0309 8.10472C28.3005 7.88002 28.6938 7.88002 28.9634 8.10472L31.0306 9.745L38.1535 4.94774L36.9963 3.67821C36.6255 3.27376 36.8277 2.62214 37.3445 2.48732L42.7372 1.0268C43.299 0.86951 43.8383 1.43125 43.5911 2.01546L41.5913 7.16099C41.3891 7.67779 40.715 7.79014 40.3442 7.34075L39.1421 6.03751L31.4013 11.2505C31.1429 11.419 30.7947 11.419 30.5475 11.2168L28.514 9.61018L19.0655 17.497C18.7285 17.7891 18.2791 17.7442 18.0095 17.4408L15.0997 14.0592L6.89826 21.4966ZM41.7261 2.80189L38.8725 3.5771L40.6476 5.54318L41.7261 2.80189ZM11.3809 36.3265C11.3809 35.9221 11.7068 35.5963 12.1112 35.5963C12.5157 35.5963 12.8415 35.9221 12.8415 36.3265V36.9781C14.3245 37.1804 15.8861 38.1353 15.8861 39.6632C15.8861 40.0677 15.5603 40.3935 15.1558 40.3935C14.7514 40.3935 14.4256 40.0677 14.4256 39.6632C14.4256 39.0116 13.4931 38.5847 12.8415 38.4611V41.0564C14.448 41.3372 15.8861 41.7754 15.8861 43.6853C15.8861 45.2132 14.3245 46.1682 12.8415 46.3704V47.022C12.8415 47.4265 12.5157 47.7523 12.1112 47.7523C11.7068 47.7523 11.3809 47.4265 11.3809 47.022V46.3704C9.89795 46.157 8.33632 45.2132 8.33632 43.6853C8.33632 43.2808 8.66213 42.955 9.06658 42.955C9.47103 42.955 9.79684 43.2808 9.79684 43.6853C9.79684 44.3369 10.7293 44.7638 11.3809 44.8987V42.3034C9.77437 42.0338 8.33632 41.5844 8.33632 39.6745C8.33632 38.1465 9.89795 37.1916 11.3809 36.9894V36.3265ZM12.8415 42.5393V44.8874C13.4931 44.7638 14.4256 44.3257 14.4256 43.6741C14.4368 42.9887 13.7178 42.7079 12.8415 42.5393ZM11.3809 40.8092V38.4611C10.7293 38.5847 9.79684 39.0116 9.79684 39.6632C9.79684 40.3598 10.5046 40.6294 11.3809 40.8092ZM8.67336 28.0352H15.5715C15.9984 27.0353 16.4254 25.6647 16.4254 24.6985C16.4254 23.3616 13.5043 23.1481 12.819 24.8783C12.5943 25.44 11.8191 25.5074 11.5158 24.9794C10.3586 22.9683 7.81952 23.8559 7.81952 24.6985C7.81952 25.6647 8.24644 27.0353 8.67336 28.0352ZM17.0545 28.215C18.6499 28.8891 19.0655 30.99 17.7848 32.2033C21.0316 35.0907 23.2224 40.1463 23.2224 44.4043C23.2224 45.6626 23.0314 46.7524 22.6831 47.6961H25.0762V39.0678C25.0762 38.6633 25.402 38.3375 25.8064 38.3375H30.2779C30.6823 38.3375 31.0081 38.6633 31.0081 39.0678V47.7074H33.0079V33.6751C33.0079 33.2706 33.3337 32.9448 33.7382 32.9448H38.2096C38.6141 32.9448 38.9399 33.2706 38.9399 33.6751V47.6961H40.9397V21.3505C40.9397 20.9461 41.2655 20.6203 41.6699 20.6203H46.1414C46.5458 20.6203 46.8716 20.9461 46.8716 21.3505V47.6961H49.3096C49.7141 47.6961 50.0399 48.0219 50.0399 48.4264V52.2687C50.0399 52.6844 49.7028 53.0214 49.2422 52.9989H12.6168C12.4483 52.9989 12.291 52.9989 12.1224 52.9989C6.21294 52.9989 1 51.0104 1 44.4043C1 40.1463 3.20202 35.0907 6.43764 32.2033C5.15687 30.99 5.57256 28.8891 7.1679 28.215C6.72974 27.114 6.34776 25.7321 6.34776 24.6873C6.34776 22.519 9.95413 21.2719 12.0663 23.3391C13.9088 21.2944 17.8747 22.0359 17.8747 24.6873C17.8747 25.7433 17.4927 27.1252 17.0545 28.215ZM16.3018 32.855C16.2456 32.8662 16.1894 32.8662 16.1333 32.8662L7.93187 32.855C6.3927 34.0571 5.06699 35.8209 4.11204 37.787C3.0672 39.9329 2.46052 42.2922 2.46052 44.4043C2.46052 50.0891 6.99938 51.5497 12.1112 51.5497C17.223 51.5497 21.7619 50.1004 21.7619 44.4043C21.7731 40.371 19.5262 35.3828 16.3018 32.855ZM16.1333 29.4958H8.10039C7.26901 29.4958 6.81962 30.5181 7.4263 31.1248C7.60606 31.3046 7.84199 31.4057 8.10039 31.4057H16.1333C16.9646 31.4057 17.414 30.3833 16.8073 29.7766C16.6276 29.6081 16.3917 29.4958 16.1333 29.4958ZM21.9529 49.1566C21.2788 50.179 20.3575 50.9654 19.279 51.5384H48.5793V49.1454H21.9529V49.1566ZM29.1656 17.9127C32.4462 17.9127 35.1088 20.5753 35.1088 23.8559C35.1088 27.1365 32.4462 29.7991 29.1656 29.7991C25.8851 29.7991 23.2224 27.1365 23.2224 23.8559C23.2337 20.5641 25.8851 17.9127 29.1656 17.9127ZM32.3338 20.6764C30.5812 18.9238 27.75 18.9238 25.9974 20.6764C24.2448 22.4291 24.2448 25.2602 25.9974 27.0129C27.75 28.7655 30.5812 28.7655 32.3338 27.0129C34.0865 25.2715 34.0865 22.4291 32.3338 20.6764ZM25.1211 15.9915C25.5592 15.7668 26.0086 15.5759 26.4805 15.4298L26.8288 14.1041C26.9187 13.7783 27.2108 13.5648 27.5366 13.5648H30.8171C31.1766 13.5648 31.4688 13.8232 31.5362 14.1603L31.8732 15.4298L32.5585 15.6882C32.7832 15.7893 33.0079 15.8904 33.2214 16.0028L34.401 15.3175C34.6931 15.1489 35.0527 15.2051 35.2773 15.4298L37.6029 17.7442C37.8501 17.9913 37.8838 18.3845 37.6928 18.6654L37.03 19.8001C37.2547 20.2383 37.4457 20.6877 37.5917 21.1595L38.9062 21.5078C39.232 21.5977 39.4455 21.8898 39.4455 22.2156V25.4962C39.4455 25.8557 39.187 26.1478 38.85 26.2152L37.5805 26.5522C37.4344 27.0241 37.2434 27.4735 37.0187 27.9117L37.7041 29.0913C37.8726 29.3834 37.8164 29.7429 37.5917 29.9676L35.2661 32.282C35.0189 32.5292 34.6257 32.5629 34.3449 32.3719L33.2101 31.709C32.772 31.9337 32.3226 32.1247 31.8507 32.2708L31.5025 33.5852C31.4126 33.911 31.1205 34.1245 30.7947 34.1245H27.5141C27.1546 34.1245 26.8625 33.8661 26.7951 33.529L26.458 32.2595L25.7615 32.0011C25.5368 31.9112 25.3121 31.8101 25.0874 31.6978L23.9077 32.3831C23.6156 32.5516 23.2561 32.4954 23.0202 32.2708L20.7395 29.9676C20.4924 29.7205 20.4587 29.3272 20.6496 29.0464L21.3125 27.9117C21.2002 27.6982 21.099 27.4735 21.0092 27.2488C20.9193 27.0241 20.8294 26.7882 20.762 26.5522L19.4363 26.204C19.1105 26.1141 18.897 25.822 18.897 25.4962V22.2156C18.897 21.8561 19.1554 21.564 19.4925 21.4966L20.762 21.1595C20.908 20.6989 21.099 20.2383 21.3237 19.8001L20.6384 18.6205C20.4699 18.3284 20.5261 17.9689 20.7508 17.7329L23.0651 15.4186C23.3123 15.1714 23.7055 15.1377 23.9864 15.3287L25.1211 15.9915ZM26.3457 17.0251C26.0536 17.1487 25.7615 17.2948 25.4806 17.4521C25.2559 17.5869 24.975 17.5869 24.7391 17.4521L23.683 16.8454L22.1551 18.3733L22.7618 19.4181C22.8966 19.6428 22.9078 19.9237 22.773 20.1596C22.4585 20.7101 22.1888 21.3281 22.0315 21.9347C21.9641 22.1819 21.7731 22.3954 21.5147 22.4628L20.3463 22.7774V24.9344L21.5035 25.2378C21.7507 25.2939 21.9641 25.4962 22.0315 25.7546C22.1102 26.0691 22.2225 26.3725 22.3461 26.6758L22.773 27.5409C22.9078 27.7656 22.9078 28.0465 22.773 28.2824L22.1663 29.3385L23.6943 30.8664L24.7391 30.2597C24.9638 30.1249 25.2447 30.1137 25.4806 30.2597C25.7615 30.417 26.0536 30.5631 26.3457 30.6866C26.6378 30.8102 26.9411 30.9113 27.2557 30.99C27.5029 31.0462 27.7163 31.2484 27.7837 31.5068L28.0983 32.6864H30.2554L30.5587 31.518C30.6261 31.2709 30.8171 31.0574 31.0755 30.99C31.6822 30.8327 32.3226 30.5743 32.8506 30.2597C33.0753 30.1249 33.3562 30.1137 33.5921 30.2597L34.6482 30.8664L36.1761 29.3385L35.5695 28.2936C35.4346 28.0689 35.4234 27.7881 35.5582 27.5521C35.8728 27.0129 36.1424 26.3725 36.2997 25.777C36.3671 25.5299 36.5581 25.3164 36.8165 25.249L37.9962 24.9457V22.7886L36.8277 22.4852C36.5806 22.4291 36.3671 22.2268 36.2997 21.9684C36.1424 21.373 35.8728 20.7214 35.5695 20.1933C35.4346 19.9799 35.4234 19.6878 35.5582 19.4631L36.1649 18.407L34.637 16.8791L33.5921 17.4858C33.3674 17.6206 33.0866 17.6318 32.8506 17.497C32.5698 17.3397 32.2777 17.1937 31.9743 17.0701C31.6822 16.9465 31.3789 16.8454 31.0643 16.7667C30.8171 16.6993 30.6037 16.5083 30.5363 16.2499L30.2217 15.0815H28.0646L27.7613 16.2387C27.6939 16.4859 27.5029 16.6993 27.2445 16.7667L26.3457 17.0251ZM29.5588 39.7868H26.5479V47.6961H29.5588V39.7868ZM45.4111 22.0808H42.4002V47.6961H45.4111V22.0808ZM37.4906 34.4054H34.4797V47.6961H37.4906V34.4054Z" fill="url(#paint0_linear_3030_9247)" stroke="url(#paint1_linear_3030_9247)" stroke-width="0.5"/>
<defs>
<linearGradient id="paint0_linear_3030_9247" x1="25.5199" y1="1" x2="25.5199" y2="53" gradientUnits="userSpaceOnUse">
<stop stop-color="#63388B"/>
<stop offset="1" stop-color="#327EB2"/>
</linearGradient>
<linearGradient id="paint1_linear_3030_9247" x1="25.5199" y1="1" x2="25.5199" y2="53" gradientUnits="userSpaceOnUse">
<stop stop-color="#63388B"/>
<stop offset="1" stop-color="#327EB2"/>
</linearGradient>
</defs>
</svg>
