<svg width="25" height="25" viewBox="0 0 25 25" fill="none" xmlns="http://www.w3.org/2000/svg">
<path d="M24.4279 10.4971C23.665 9.7491 22.427 9.7491 21.6641 10.4971L18.7162 13.3871C18.6638 13.3095 18.6114 13.2319 18.5579 13.1553C18.2155 12.7682 17.7415 12.5363 17.1894 12.5101H8.13394C7.37102 12.5101 6.63378 12.8196 6.10734 13.3357L3.63346 15.8649L3.42267 15.6583C2.633 14.9355 1.42176 14.9355 0.63198 15.6583C-0.183407 16.4073 -0.210124 17.6452 0.553834 18.4456L6.66035 24.4325C7.05519 24.8196 7.58163 25 8.08134 25C8.60778 25 9.10748 24.7933 9.50232 24.4325C10.292 23.6583 10.292 22.3942 9.50232 21.6201L9.345 21.4648L11.5557 19.3227C11.8981 18.987 12.3721 18.8066 12.845 18.8066H17.5038C18.2667 18.8066 18.9783 18.5223 19.5304 17.981L24.4269 13.1805C25.1909 12.4587 25.1909 11.2197 24.4279 10.4971ZM8.81852 23.736C8.45043 24.0969 7.76563 24.0969 7.39754 23.736L1.28997 17.7742C0.895135 17.3871 0.921878 16.742 1.3167 16.3811C1.50075 16.2006 1.76397 16.0968 2.0015 16.0968C2.23799 16.0968 2.50121 16.1744 2.68631 16.3549L8.81862 22.3427C9.00267 22.5232 9.10859 22.7812 9.10859 23.0393C9.10859 23.3226 9.00259 23.5556 8.81852 23.736ZM23.7175 12.4839L18.821 17.2844C18.4786 17.6201 18.0046 17.8268 17.5049 17.8268H12.8716C12.1087 17.8268 11.3972 18.111 10.8707 18.6272L8.63435 20.7683L4.34354 16.5616L6.84417 14.0586C7.18657 13.7229 7.66058 13.5162 8.13354 13.5162H17.1624C17.3989 13.5424 17.6364 13.6453 17.7937 13.8257C17.952 14.0062 18.0302 14.239 18.0302 14.4709C18.0034 14.9094 17.6353 15.2713 17.2138 15.2965L12.3986 15.2975C12.1086 15.2975 11.8989 15.5293 11.8989 15.7874C11.8989 16.0717 12.1354 16.2773 12.3986 16.2773H17.2414C18.2151 16.2259 18.9791 15.4517 19.0315 14.5222V14.4708C19.0315 14.4708 19.0583 14.4708 19.0583 14.4446L22.4009 11.1675C22.769 10.8066 23.3746 10.8066 23.717 11.1675C23.9011 11.3479 23.9803 11.5808 23.9803 11.8126C23.9803 12.0969 23.9011 12.3035 23.717 12.484L23.7175 12.4839ZM7.55505 7.99411C7.63423 8.04552 7.7134 8.07173 7.81828 8.07173C8.00233 8.07173 8.16068 7.99411 8.26554 7.81366L8.55551 7.34894C9.00278 8.53645 9.84488 9.51627 10.977 10.1613C11.8458 10.6512 12.7928 10.9093 13.7676 10.9093C14.2417 10.9093 14.7157 10.8579 15.1886 10.7289C18.1633 9.95466 19.9267 6.98693 19.137 4.07055C18.7689 2.65119 17.8476 1.48991 16.5572 0.742037C15.2678 0.0192516 13.7665 -0.187406 12.3456 0.174503C10.8979 0.535379 9.71338 1.4386 8.95056 2.70374C8.81894 2.93559 8.89812 3.24608 9.13461 3.37511C9.3711 3.50415 9.6878 3.42653 9.81941 3.19467C10.425 2.16242 11.4255 1.43963 12.5833 1.13016C13.7678 0.82069 14.979 1.00113 16.032 1.59488C17.085 2.18863 17.8221 3.16948 18.1378 4.30455C18.7691 6.67853 17.3214 9.13009 14.8999 9.75022C13.7154 10.0597 12.5041 9.87925 11.4511 9.2855C10.5823 8.79559 9.92422 8.04658 9.55613 7.14336L10.0034 7.40142C10.2399 7.53045 10.5566 7.45283 10.6882 7.22098C10.8198 6.98912 10.7406 6.67863 10.5042 6.5496L8.50324 5.41453L7.37116 7.32379C7.23955 7.52944 7.31856 7.83886 7.55505 7.99411ZM12.7148 6.18766C12.4248 6.18766 12.2151 6.41952 12.2151 6.67757V6.90942C12.2151 7.60599 12.7682 8.19974 13.452 8.27737V8.48402C13.452 8.7683 13.6885 8.97393 13.9517 8.97393C14.2417 8.97393 14.4514 8.74207 14.4514 8.48402V8.25217C14.8987 8.17455 15.2678 7.91648 15.4775 7.52938C15.6359 7.19369 15.6616 6.83281 15.5567 6.47091C15.4251 6.11003 15.1886 5.82575 14.8462 5.6705L13.4509 4.97393C13.3193 4.89631 13.2401 4.76728 13.2401 4.61305V4.35499C13.2401 4.14834 13.4242 3.96789 13.635 3.96789H14.2139C14.4246 3.96789 14.6087 4.14834 14.6087 4.35499V4.63927C14.6087 4.92355 14.8452 5.12918 15.1084 5.12918C15.3716 5.12918 15.6081 4.89733 15.6081 4.63927V4.35499C15.6081 3.68361 15.1084 3.11608 14.4503 2.98704V2.75519C14.4503 2.47091 14.2139 2.26528 13.9506 2.26528C13.6607 2.26528 13.4509 2.49713 13.4509 2.75519V2.96184C12.7661 3.03946 12.214 3.63322 12.214 4.32979V4.58785C12.214 5.10398 12.504 5.59389 13.0037 5.82676L14.399 6.52333C14.6097 6.62615 14.6889 6.85902 14.583 7.06568C14.5038 7.19471 14.3722 7.27233 14.2149 7.27233H13.636C13.4253 7.27233 13.2412 7.09189 13.2412 6.88523V6.65338C13.2412 6.39431 13.0037 6.18766 12.7148 6.18766Z" fill="#3F3F3F"/>
</svg>
