<svg width="44" height="44" viewBox="0 0 44 44" fill="none" xmlns="http://www.w3.org/2000/svg">
<path d="M36.4858 13.2179C38.5449 16.3652 39.6259 20.0006 39.6259 23.8115C39.6259 29 37.6057 33.8842 33.9333 37.5569C30.2625 41.228 25.382 43.25 20.1889 43.25C14.999 43.25 10.115 41.2282 6.44265 37.5555C2.77188 33.8845 0.75 29.0041 0.75 23.8101C0.75 18.6163 2.7718 13.7321 6.45511 10.0664C10.1259 6.39547 15.0063 4.37349 20.1994 4.37349C24.0056 4.37349 27.6407 5.45816 30.7922 7.51467L30.7374 6.50186C30.7374 6.50135 30.7374 6.50083 30.7373 6.50032C30.7097 6.0758 30.8608 5.68725 31.1614 5.3866L35.4806 1.06709L35.4806 1.06707C35.7827 0.765034 36.2188 0.667275 36.6202 0.823646M36.4858 13.2179L36.5295 1.05659M36.4858 13.2179L36.9017 13.2404L36.8614 13.2717H37.48L37.5007 13.2728L37.5157 13.2737L37.5308 13.2727C37.5377 13.2722 37.5451 13.2719 37.553 13.2717H37.5905C37.9825 13.2717 38.3383 13.1215 38.6161 12.8418L36.4858 13.2179ZM36.6202 0.823646L36.5295 1.05659M36.6202 0.823646C36.62 0.823553 36.6197 0.823458 36.6195 0.823366L36.5295 1.05659M36.6202 0.823646C37.0158 0.976672 37.2801 1.33663 37.3034 1.76344L37.0537 1.7771M36.5295 1.05659C36.8344 1.1743 37.0359 1.44894 37.0537 1.7771M37.0537 1.7771L37.3034 1.76353M37.0537 1.7771L37.3034 1.76353M37.3034 1.76353L37.4706 4.81948C37.9139 4.80054 38.3633 4.95895 38.7035 5.29919C39.0419 5.63612 39.1987 6.08884 39.1816 6.53214L42.2389 6.69945C42.2389 6.69945 42.239 6.69945 42.239 6.69946C42.6663 6.72269 43.0241 6.98566 43.1787 7.38267L43.1801 7.38621L43.1801 7.38622C43.3275 7.78247 43.2397 8.21788 42.9353 8.5223L38.6168 12.8411L37.3034 1.76353ZM19.2275 23.1157C19.2255 23.5565 19.3979 23.9774 19.7114 24.2889C20.0354 24.6125 20.4601 24.7717 20.8827 24.7717C21.3064 24.7717 21.7307 24.6101 22.054 24.2888L22.0546 24.2883L23.9538 22.3889C24.1256 22.8403 24.2172 23.3207 24.2172 23.8101C24.2172 26.0282 22.4119 27.8386 20.189 27.8386C17.9711 27.8386 16.1608 26.0331 16.1608 23.8101C16.1608 21.592 17.9662 19.7816 20.189 19.7816C20.679 19.7816 21.1595 19.8723 21.6106 20.0445L19.7109 21.9444C19.3999 22.2554 19.2276 22.672 19.2275 23.1157ZM19.2275 23.1157C19.2275 23.1155 19.2275 23.1153 19.2275 23.1151L19.4775 23.1163H19.2275C19.2275 23.1161 19.2275 23.1159 19.2275 23.1157ZM31.0519 7.68707L31.0689 8.00133C30.9827 7.94186 30.896 7.88314 30.809 7.82519L31.0519 7.68707ZM21.0926 23.3283L21.2694 23.5051L21.0926 23.3283C20.9762 23.4447 20.7867 23.4447 20.6704 23.3283L20.4936 23.5051L20.6704 23.3283C20.6129 23.2708 20.5831 23.1975 20.5831 23.1163C20.5831 23.0351 20.6129 22.9617 20.6704 22.9043L37.3172 6.25624C37.3816 6.19581 37.4568 6.16832 37.5316 6.16832C37.6087 6.16832 37.687 6.19903 37.7436 6.2556C37.86 6.37199 37.86 6.56149 37.7436 6.67784L21.0926 23.3283ZM37.6562 11.8819C37.6371 11.901 37.6256 11.9065 37.6197 11.9088C37.6137 11.9111 37.6012 11.9147 37.5743 11.9141L34.589 11.749L38.4872 7.85048L41.5194 8.01846L37.6562 11.8819ZM29.0777 17.2537C30.4745 19.1448 31.2415 21.4413 31.2415 23.8049C31.2415 29.898 26.2818 34.8603 20.1869 34.8603C14.0943 34.8603 9.13233 29.9003 9.13233 23.8049C9.13233 17.7117 14.092 12.7494 20.1869 12.7494C22.552 12.7494 24.8469 13.5166 26.7377 14.9135L22.6398 19.0152C21.8833 18.6282 21.0491 18.4239 20.189 18.4239C17.2208 18.4239 14.8085 20.8365 14.8085 23.8047C14.8085 26.773 17.2209 29.1856 20.189 29.1856C23.1571 29.1856 25.5695 26.773 25.5695 23.8047C25.5695 22.9452 25.367 22.1092 24.9784 21.3533L29.0777 17.2537ZM32.1163 6.34163L35.9794 2.47826L36.1474 5.5107L32.2492 9.40915L32.0841 6.42361C32.0831 6.38368 32.0904 6.36752 32.1163 6.34164L31.9395 6.16486L32.1163 6.34163ZM38.2736 23.8102C38.2736 33.7809 30.1625 41.8958 20.1894 41.8958C10.2194 41.8958 2.10509 33.7841 2.10509 23.8102C2.10509 13.8394 10.2162 5.72454 20.1894 5.72454C24.0771 5.72454 27.7649 6.93314 30.8798 9.22608L30.9632 10.6952L27.7101 13.9485C25.5561 12.306 22.9144 11.3971 20.1891 11.3971C13.3441 11.3971 7.77662 16.9645 7.77662 23.8104C7.77662 30.6563 13.3436 36.2238 20.1891 36.2238C27.0345 36.2238 32.6015 30.6563 32.6015 23.8104C32.6015 21.0885 31.6926 18.4435 30.0502 16.2888L33.3033 13.0355L34.7723 13.1188C37.0634 16.2341 38.2736 19.9221 38.2736 23.8102Z" fill="url(#paint0_linear_1438_19107)" stroke="url(#paint1_linear_1438_19107)" stroke-width="0.5"/>
<defs>
<linearGradient id="paint0_linear_1438_19107" x1="22" y1="1" x2="22" y2="43" gradientUnits="userSpaceOnUse">
<stop stop-color="#63388B"/>
<stop offset="1" stop-color="#327EB2"/>
</linearGradient>
<linearGradient id="paint1_linear_1438_19107" x1="22" y1="1" x2="22" y2="43" gradientUnits="userSpaceOnUse">
<stop stop-color="#63388B"/>
<stop offset="1" stop-color="#327EB2"/>
</linearGradient>
</defs>
</svg>
