<svg width="23" height="25" viewBox="0 0 23 25" fill="none" xmlns="http://www.w3.org/2000/svg">
<path d="M6.22656 12.5633C6.22656 15.3209 8.46971 17.564 11.2273 17.564C17.8605 17.2898 17.8593 7.83672 11.2273 7.5625C8.46971 7.5625 6.22656 9.80565 6.22656 12.5633ZM14.9776 12.5633C14.9776 14.6318 13.2958 16.3136 11.2273 16.3136C6.26407 16.1378 6.26527 8.98761 11.2273 8.81299C13.2958 8.81299 14.9776 10.4948 14.9776 12.5633Z" fill="#3F3F3F"/>
<path d="M9.52772 12.5564C8.92885 12.002 8.07918 12.9103 8.67572 13.4705L9.89573 14.6073C10.0164 14.7198 10.1688 14.7749 10.3223 14.7749C10.4817 14.7749 10.6423 14.714 10.7642 14.5921L13.3706 11.9856C13.9449 11.4067 13.0683 10.5254 12.487 11.102L10.3083 13.2806L9.52892 12.5552L9.52772 12.5564Z" fill="#3F3F3F"/>
<path d="M20.6864 3.0178C16.0958 2.77052 13.5141 1.26924 12.3866 0.39963C11.7045 -0.1336 10.7505 -0.1336 10.0649 0.401974C9.59849 0.769981 8.76991 1.31962 7.47373 1.84466C7.15378 1.97358 6.99909 2.33805 7.12918 2.65916C7.2581 2.97911 7.62257 3.13263 7.94251 3.00371C9.37581 2.42358 10.3087 1.80245 10.8361 1.38524C11.0658 1.20593 11.3869 1.20593 11.6201 1.38758C12.8659 2.34858 15.6914 4.00222 20.6232 4.26711C20.949 4.28234 21.2033 4.54955 21.2033 4.87417V11.5497C21.2115 16.3677 18.4199 20.6733 14.1117 22.4291C13.6687 22.6248 12.5319 23.1405 11.5252 23.6784C11.34 23.7757 11.1173 23.7757 10.9345 23.6807C9.2738 22.79 8.49797 22.5451 7.24271 21.9076C3.54644 19.907 1.25036 15.9386 1.25036 11.5499V4.87438C1.25036 4.54976 1.50468 4.28253 1.83517 4.26732C3.14309 4.19349 4.3631 4.02589 5.46004 3.77042C5.79639 3.6919 6.00617 3.35555 5.92648 3.0192C5.84796 2.68284 5.51044 2.47424 5.17643 2.55275C4.14861 2.79183 3.00126 2.94887 1.76967 3.01803C0.777019 3.0649 2.13133e-05 3.88059 2.13133e-05 4.87324V11.5487C-0.00935438 16.8531 3.07525 21.6172 7.83571 23.5706C8.26582 23.7617 9.36981 24.2609 10.3484 24.7836C10.9004 25.0731 11.5567 25.0719 12.1099 24.7813C13.0838 24.2598 14.1877 23.7605 14.6214 23.5683C19.3782 21.6135 22.4631 16.8529 22.4535 11.5476V4.8721C22.4535 3.87828 21.6753 3.06378 20.6873 3.01688L20.6864 3.0178Z" fill="#3F3F3F"/>
<path d="M17.3322 16.5439C17.1517 16.8381 17.2443 17.2236 17.5384 17.403C17.8338 17.5834 18.2182 17.4897 18.3975 17.1967C19.423 15.5231 19.9656 13.5706 19.9656 11.5503V6.03735C19.9656 5.71624 19.723 5.44787 19.403 5.41505C15.5579 5.02829 13.0195 3.81767 11.5685 2.86954C11.3611 2.73359 11.0927 2.73359 10.8853 2.86954C9.43326 3.81767 6.89591 5.02829 3.05082 5.41505C2.73205 5.44786 2.48828 5.71624 2.48828 6.03735V11.5503C2.48828 15.4812 4.53452 19.0322 7.83708 20.824C8.8766 21.3361 9.71222 21.6596 10.9462 22.2912C11.1232 22.3803 11.3318 22.3803 11.5088 22.2912C12.3959 21.8471 13.1237 21.5072 13.7472 21.2353C14.4551 20.9271 17.6592 19.332 16.7287 18.4132C16.4884 18.1624 16.0935 18.1554 15.845 18.3945C14.4762 19.7423 13.0054 20.1302 11.2262 21.0349C10.4398 20.6482 9.79169 20.3446 9.21391 20.0938C5.85966 18.7051 3.7409 15.331 3.7373 11.5513V6.59734C7.24726 6.16138 9.69665 5.06909 11.2262 4.13389C12.7556 5.06912 15.2051 6.16138 18.715 6.59734V11.5513C18.715 13.3409 18.2369 15.0672 17.3322 16.5439Z" fill="#3F3F3F"/>
</svg>
