<svg width="44" height="44" viewBox="0 0 44 44" fill="none" xmlns="http://www.w3.org/2000/svg">
<path d="M22 1C18.9274 1.00723 15.8935 1.68623 13.111 2.98942C10.3284 4.29262 7.86447 6.18848 5.89176 8.54419L5.61012 4.13962C5.588 3.81412 5.43843 3.51048 5.19384 3.29457C4.94926 3.07866 4.6294 2.96791 4.30367 2.98635H4.29675C3.96988 3.00768 3.66483 3.15787 3.44859 3.40393C3.23236 3.65 3.12262 3.97182 3.14348 4.29873L3.65341 12.1987C3.65341 12.2303 3.67219 12.256 3.67614 12.2866C3.68954 12.3817 3.71409 12.475 3.74927 12.5643C3.772 12.6225 3.79943 12.6786 3.83129 12.7323C3.91074 12.8723 4.01924 12.9936 4.14951 13.0881C4.18451 13.1231 4.22146 13.1561 4.26019 13.1869C4.29873 13.2087 4.34221 13.2195 4.38273 13.2373C4.42325 13.2551 4.43906 13.262 4.46969 13.2739C4.60026 13.3232 4.73828 13.35 4.87783 13.3529H12.1176C12.4453 13.3529 12.7595 13.2228 12.9911 12.9911C13.2228 12.7595 13.3529 12.4453 13.3529 12.1176C13.3529 11.79 13.2228 11.4758 12.9911 11.2442C12.7595 11.0125 12.4453 10.8824 12.1176 10.8824H7.1824C9.82345 7.36578 13.6296 4.90366 17.9198 3.93652C22.21 2.96939 26.7044 3.56034 30.5988 5.60364C34.4932 7.64695 37.5335 11.0093 39.1757 15.089C40.818 19.1688 40.955 23.6998 39.5622 27.8713C38.1695 32.0429 35.3379 35.5828 31.5741 37.8576C27.8102 40.1325 23.3598 40.9939 19.019 40.2877C14.6781 39.5816 10.7302 37.3539 7.8815 34.0033C5.03281 30.6528 3.46926 26.3979 3.47059 22C3.47059 21.6724 3.34044 21.3582 3.10878 21.1265C2.87712 20.8948 2.56291 20.7647 2.23529 20.7647C1.90767 20.7647 1.59347 20.8948 1.36181 21.1265C1.13015 21.3582 1 21.6724 1 22C1 26.1534 2.23163 30.2135 4.53914 33.667C6.84665 37.1204 10.1264 39.812 13.9636 41.4015C17.8009 42.9909 22.0233 43.4068 26.0969 42.5965C30.1705 41.7862 33.9123 39.7861 36.8492 36.8492C39.7861 33.9123 41.7862 30.1705 42.5965 26.0969C43.4068 22.0233 42.9909 17.8009 41.4015 13.9636C39.812 10.1264 37.1204 6.84665 33.667 4.53914C30.2135 2.23163 26.1534 1 22 1Z" fill="url(#paint0_linear_1438_19099)" stroke="url(#paint1_linear_1438_19099)" stroke-width="0.5"/>
<path d="M22.0009 10.8828C21.6735 10.8833 21.3596 11.0137 21.128 11.2452C20.8965 11.4767 20.7661 11.7906 20.7656 12.1181V22.0005C20.7659 22.1922 20.8107 22.3812 20.8965 22.5527C20.9822 22.7242 21.1066 22.8734 21.2597 22.9887L29.1656 28.9181C29.3787 29.0792 29.6387 29.166 29.9058 29.1652C30.0975 29.1646 30.2864 29.1197 30.4579 29.034C30.6293 28.9483 30.7786 28.8241 30.894 28.671C31.0905 28.409 31.1749 28.0797 31.1287 27.7554C31.0826 27.4312 30.9097 27.1385 30.648 26.9416L23.2362 21.3828V12.1181C23.2357 11.7906 23.1054 11.4767 22.8738 11.2452C22.6423 11.0137 22.3284 10.8833 22.0009 10.8828Z" fill="url(#paint2_linear_1438_19099)" stroke="url(#paint3_linear_1438_19099)" stroke-width="0.5"/>
<defs>
<linearGradient id="paint0_linear_1438_19099" x1="22" y1="1" x2="22" y2="43" gradientUnits="userSpaceOnUse">
<stop stop-color="#63388B"/>
<stop offset="1" stop-color="#327EB2"/>
</linearGradient>
<linearGradient id="paint1_linear_1438_19099" x1="22" y1="1" x2="22" y2="43" gradientUnits="userSpaceOnUse">
<stop stop-color="#63388B"/>
<stop offset="1" stop-color="#327EB2"/>
</linearGradient>
<linearGradient id="paint2_linear_1438_19099" x1="25.9533" y1="10.8828" x2="25.9533" y2="29.1652" gradientUnits="userSpaceOnUse">
<stop stop-color="#63388B"/>
<stop offset="1" stop-color="#327EB2"/>
</linearGradient>
<linearGradient id="paint3_linear_1438_19099" x1="25.9533" y1="10.8828" x2="25.9533" y2="29.1652" gradientUnits="userSpaceOnUse">
<stop stop-color="#63388B"/>
<stop offset="1" stop-color="#327EB2"/>
</linearGradient>
</defs>
</svg>
