<svg width="25" height="25" viewBox="0 0 25 25" fill="none" xmlns="http://www.w3.org/2000/svg">
<path fill-rule="evenodd" clip-rule="evenodd" d="M1.69653 4.34e-06C1.70395 4.34e-06 1.71137 4.34e-06 1.71875 4.34e-06H6.25C6.68149 4.34e-06 7.03125 0.34977 7.03125 0.781254C7.03125 1.21274 6.68149 1.5625 6.25 1.5625H2.66743L6.80242 5.69754C7.10754 6.00262 7.10754 6.49731 6.80242 6.80238C6.49735 7.1075 6.00266 7.1075 5.69758 6.80238L1.5625 2.66731V6.25C1.5625 6.68149 1.21274 7.03125 0.781254 7.03125C0.34977 7.03125 4.34e-06 6.68149 4.34e-06 6.25V1.71875C4.34e-06 1.71137 4.34e-06 1.70395 4.34e-06 1.69653C-3.47225e-05 1.55196 -3.48751e-05 1.40051 0.0105901 1.27032C0.0225042 1.12426 0.051606 0.93766 0.149028 0.746488C0.280082 0.489262 0.489262 0.280082 0.746488 0.149028C0.93766 0.051606 1.12426 0.0225042 1.27032 0.0105901C1.40051 -3.48751e-05 1.55196 -3.47225e-05 1.69653 4.34e-06ZM23.4375 2.66731V6.25C23.4375 6.68149 23.7873 7.03125 24.2187 7.03125C24.6502 7.03125 25 6.68149 25 6.25V1.69653C25 1.55196 25.0001 1.40051 24.9894 1.27032C24.9775 1.12426 24.9484 0.93766 24.851 0.746488C24.7199 0.489262 24.5108 0.280082 24.2535 0.149028C24.0623 0.051606 23.8757 0.0225042 23.7297 0.0105901C23.5995 -3.48751e-05 23.448 -3.47225e-05 23.3035 4.34e-06H18.75C18.3185 4.34e-06 17.9687 0.34977 17.9687 0.781254C17.9687 1.21274 18.3185 1.5625 18.75 1.5625H22.3326L18.1976 5.69754C17.8925 6.00262 17.8925 6.49731 18.1976 6.80238C18.5027 7.1075 18.9973 7.1075 19.3024 6.80238L23.4375 2.66731ZM11.0637 7.8125H13.9364C14.3482 7.8125 14.7035 7.81246 14.9961 7.83641C15.305 7.86164 15.6122 7.91735 15.9078 8.06797C16.3488 8.29266 16.7073 8.65121 16.9321 9.09223C17.0827 9.38781 17.1384 9.69504 17.1636 10.0039C17.1875 10.2965 17.1875 10.6518 17.1875 11.0636V13.9364C17.1875 14.3482 17.1875 14.7035 17.1636 14.9961C17.1384 15.305 17.0827 15.6122 16.9321 15.9078C16.7073 16.3488 16.3488 16.7073 15.9078 16.9321C15.6122 17.0827 15.305 17.1384 14.9961 17.1636C14.7035 17.1875 14.3482 17.1875 13.9364 17.1875H11.0636C10.6518 17.1875 10.2965 17.1875 10.0039 17.1636C9.69504 17.1384 9.38781 17.0827 9.09223 16.9321C8.65121 16.7073 8.29266 16.3488 8.06797 15.9078C7.91735 15.6122 7.86164 15.305 7.83641 14.9961C7.81246 14.7035 7.8125 14.3482 7.8125 13.9364V11.0637C7.8125 10.6518 7.81246 10.2965 7.83641 10.0039C7.86164 9.69504 7.91735 9.38781 8.06797 9.09223C8.29266 8.65121 8.65121 8.29266 9.09223 8.06797C9.38781 7.91735 9.69504 7.86164 10.0039 7.83641C10.2965 7.81246 10.6518 7.8125 11.0637 7.8125ZM10.1311 9.39371C9.91891 9.41106 9.8402 9.44047 9.80156 9.46016C9.65457 9.53504 9.53504 9.65457 9.46016 9.80156C9.44047 9.8402 9.41106 9.91891 9.39371 10.1311C9.37563 10.3525 9.375 10.6433 9.375 11.0938V13.9062C9.375 14.3567 9.37563 14.6475 9.39371 14.8689C9.41106 15.0811 9.44047 15.1598 9.46016 15.1984C9.53504 15.3454 9.65457 15.465 9.80156 15.5398C9.8402 15.5595 9.91891 15.589 10.1311 15.6063C10.3525 15.6244 10.6433 15.625 11.0938 15.625H13.9062C14.3567 15.625 14.6475 15.6244 14.8689 15.6063C15.0811 15.589 15.1598 15.5595 15.1984 15.5398C15.3454 15.465 15.465 15.3454 15.5398 15.1984C15.5595 15.1598 15.589 15.0811 15.6063 14.8689C15.6244 14.6475 15.625 14.3567 15.625 13.9062V11.0938C15.625 10.6433 15.6244 10.3525 15.6063 10.1311C15.589 9.91891 15.5595 9.8402 15.5398 9.80156C15.465 9.65457 15.3454 9.53504 15.1984 9.46016C15.1598 9.44047 15.0811 9.41106 14.8689 9.39371C14.6475 9.37563 14.3567 9.375 13.9062 9.375H11.0938C10.6433 9.375 10.3525 9.37563 10.1311 9.39371ZM4.34e-06 18.75C4.34e-06 18.3185 0.34977 17.9687 0.781254 17.9687C1.21274 17.9687 1.5625 18.3185 1.5625 18.75V22.3327L5.69758 18.1976C6.00266 17.8925 6.49735 17.8925 6.80242 18.1976C7.10754 18.5027 7.10754 18.9973 6.80242 19.3024L2.66735 23.4375H6.25C6.68149 23.4375 7.03125 23.7873 7.03125 24.2187C7.03125 24.6502 6.68149 25 6.25 25H1.69653C1.55196 25 1.40051 25.0001 1.27032 24.9894C1.12426 24.9775 0.93766 24.9484 0.746488 24.851C0.489262 24.7199 0.280082 24.5107 0.149028 24.2535C0.051606 24.0623 0.0225042 23.8757 0.0105901 23.7297C-3.48751e-05 23.5995 -3.47225e-05 23.448 4.34e-06 23.3035V18.75ZM24.2187 17.9687C24.6502 17.9687 25 18.3185 25 18.75V23.3035C25 23.4481 25.0001 23.5995 24.9894 23.7297C24.9775 23.8757 24.9484 24.0623 24.851 24.2535C24.7199 24.5107 24.5108 24.7199 24.2535 24.851C24.0623 24.9484 23.8757 24.9775 23.7297 24.9894C23.5995 25.0001 23.4481 25 23.3035 25H18.75C18.3185 25 17.9687 24.6502 17.9687 24.2187C17.9687 23.7873 18.3185 23.4375 18.75 23.4375H22.3327L18.1976 19.3024C17.8925 18.9973 17.8925 18.5027 18.1976 18.1976C18.5027 17.8925 18.9973 17.8925 19.3024 18.1976L23.4375 22.3327V18.75C23.4375 18.3185 23.7873 17.9687 24.2187 17.9687Z" fill="#3F3F3F"/>
</svg>
