<svg width="44" height="44" viewBox="0 0 44 44" fill="none" xmlns="http://www.w3.org/2000/svg">
<path d="M3.3339 21.9993C4.16805 22.6325 4.99855 23.2207 5.82276 23.7625L6.11728 23.9561L6.06413 23.9967C6.29018 24.3065 6.31341 24.7366 6.09058 25.0766L6.09022 25.0771C5.80272 25.5133 5.21594 25.6341 4.77835 25.3473L4.77811 25.3472C3.57554 24.5571 2.37908 23.6867 1.19423 22.7436L1.19376 22.7432C0.785937 22.4169 0.716261 21.8209 1.04305 21.4099L1.04352 21.4093C1.0935 21.3468 1.14758 21.2955 1.20361 21.2512C7.17602 16.4976 14.2995 12.9373 22.1321 13.0031C22.1322 13.0031 22.1323 13.0031 22.1325 13.0031L22.1304 13.2531C28.9859 13.2878 35.8274 16.0202 42.6502 21.4521L3.3339 21.9993ZM3.3339 21.9993C7.40971 18.9107 11.4699 16.8343 15.5167 15.7629C13.962 17.3794 13.0055 19.5782 13.0055 21.9992C13.0055 24.4222 13.9636 26.6226 15.5207 28.2395C13.7651 27.7754 12.0083 27.1228 10.2499 26.2798L10.2498 26.2798C9.77865 26.0541 9.21209 26.2548 8.98673 26.7253C8.76105 27.1965 8.96178 27.7631 9.43232 27.9885L9.43237 27.9885C13.5223 29.9462 17.4586 30.9271 21.9974 30.9951L21.9974 30.9952L22.005 30.9951C23.4258 30.9731 24.7634 30.8869 26.1765 30.6621C31.7435 29.779 37.2849 27.1353 42.7961 22.7489" fill="url(#paint0_linear_1438_19113)" stroke="url(#paint1_linear_1438_19113)" stroke-width="0.5"/>
<defs>
<linearGradient id="paint0_linear_1438_19113" x1="22" y1="1" x2="22" y2="43" gradientUnits="userSpaceOnUse">
<stop stop-color="#63388B"/>
<stop offset="1" stop-color="#327EB2"/>
</linearGradient>
<linearGradient id="paint1_linear_1438_19113" x1="22" y1="1" x2="22" y2="43" gradientUnits="userSpaceOnUse">
<stop stop-color="#63388B"/>
<stop offset="1" stop-color="#327EB2"/>
</linearGradient>
</defs>
</svg>
