<svg width="26" height="25" viewBox="0 0 26 25" fill="none" xmlns="http://www.w3.org/2000/svg">
<path d="M19.7561 16.5801C19.6532 16.5801 19.5514 16.5411 19.4724 16.4631L15.6847 12.7176C15.2786 12.3158 14.7394 12.0939 14.1676 12.0939H13.4746C12.8986 12.0939 12.3366 12.3299 11.9327 12.7425L11.4996 13.1843C10.6799 14.0213 9.37072 14.1025 8.45476 13.3738L7.81264 12.8638C7.72385 12.7934 7.66863 12.6873 7.66105 12.5736C7.65347 12.4599 7.69461 12.3483 7.77474 12.2671L10.6183 9.34344C11.1608 8.78471 11.9177 8.46527 12.6952 8.46527H15.542C16.2729 8.46527 16.9378 8.09387 17.3211 7.47232C17.3861 7.36729 17.4955 7.29799 17.6178 7.28391C17.7402 7.26983 17.8625 7.31206 17.9502 7.39977L23.2928 12.7423C23.3696 12.8192 23.4119 12.9221 23.4108 13.0304C23.4097 13.1386 23.3653 13.2415 23.2884 13.3162L20.0377 16.4661C19.9586 16.5419 19.8579 16.5798 19.7561 16.5798L19.7561 16.5801ZM13.4747 11.2872H14.1677C14.9527 11.2872 15.6934 11.5914 16.2521 12.1437L19.7593 15.612L22.4327 13.0219L17.7095 8.29863C17.1648 8.91477 16.3852 9.27101 15.5417 9.27101H12.6948C12.1339 9.27101 11.5871 9.50165 11.1962 9.90447L8.66238 12.5087L8.95583 12.7415C9.54813 13.2125 10.3938 13.1594 10.9233 12.6191L11.3565 12.1773C11.9109 11.6121 12.682 11.2872 13.4747 11.2872Z" fill="#3F3F3F"/>
<path d="M5.15562 15.663C5.05275 15.663 4.94988 15.624 4.87085 15.5461L4.18541 14.865C3.69382 14.3766 3.08852 13.9998 2.43232 13.7746C2.22225 13.702 2.10963 13.4725 2.18219 13.2624C2.25474 13.0523 2.48429 12.9397 2.69438 13.0123C3.46425 13.2776 4.1757 13.7204 4.75283 14.2933L5.43827 14.9743C5.59636 15.1313 5.59745 15.3869 5.44044 15.545C5.36356 15.623 5.25956 15.663 5.15562 15.663Z" fill="#3F3F3F"/>
<path d="M15.0271 25C14.5962 25 14.1912 24.8322 13.8869 24.5279L11.731 22.372C11.574 22.215 11.574 21.9594 11.731 21.8014C11.888 21.6443 12.1436 21.6443 12.3017 21.8014L14.4576 23.9572C14.6103 24.1099 14.8127 24.1933 15.0282 24.1933C15.2437 24.1933 15.4462 24.1099 15.5989 23.9572C15.9129 23.6432 15.9129 23.131 15.5989 22.817C15.4419 22.66 15.4419 22.4045 15.5989 22.2464C15.7559 22.0894 16.0114 22.0894 16.1695 22.2464C16.7986 22.8755 16.7986 23.8988 16.1695 24.5268C15.8631 24.8322 15.4581 25 15.0271 25Z" fill="#3F3F3F"/>
<path d="M17.5896 24.1446C17.1771 24.1446 16.7634 23.9876 16.4494 23.6725L14.4343 21.6563C14.2773 21.4982 14.2773 21.2438 14.4343 21.0857C14.5924 20.9287 14.8468 20.9287 15.0049 21.0857L17.0201 23.1019C17.3341 23.4159 17.8463 23.4159 18.1603 23.1019C18.4743 22.7879 18.4743 22.2757 18.1603 21.9617L13.6178 17.4169C13.4607 17.2599 13.4607 17.0044 13.6178 16.8463C13.7758 16.6893 14.0303 16.6893 14.1884 16.8463L18.7309 21.391C19.0352 21.6953 19.203 22.1003 19.203 22.5312C19.203 22.9622 19.0352 23.3672 18.7309 23.6715C18.4158 23.9876 18.0033 24.1446 17.5896 24.1446Z" fill="#3F3F3F"/>
<path d="M19.8039 22.9318C19.3913 22.9318 18.9777 22.7748 18.6637 22.4597L13.6178 17.4138C13.4607 17.2568 13.4607 17.0012 13.6178 16.8431C13.7748 16.6861 14.0303 16.6861 14.1884 16.8431L19.2343 21.8891C19.5483 22.2031 20.0605 22.2031 20.3746 21.8891C20.6886 21.5751 20.6886 21.0629 20.3746 20.7489L15.3286 15.704C15.1716 15.547 15.1716 15.2915 15.3286 15.1334C15.4856 14.9764 15.7412 14.9764 15.8993 15.1334L20.9452 20.1793C21.5743 20.8084 21.5743 21.8317 20.9452 22.4597C20.6301 22.7748 20.2175 22.9318 19.8039 22.9318Z" fill="#3F3F3F"/>
<path d="M20.1597 19.9157C19.8651 19.9157 19.576 19.8356 19.327 19.684C19.1364 19.5682 19.0758 19.3202 19.1916 19.1307C19.3075 18.9401 19.5554 18.8795 19.7449 18.9953C19.8684 19.0701 20.0124 19.1101 20.1597 19.1101C20.3751 19.1101 20.5776 19.0267 20.7303 18.8741C21.0443 18.56 21.0443 18.0479 20.7303 17.7338C20.7282 17.7317 20.7271 17.7295 20.7249 17.7284L19.4861 16.4388C19.3313 16.2785 19.3367 16.023 19.498 15.8681C19.6583 15.7144 19.9139 15.7187 20.0687 15.8801L21.3053 17.1664C21.9311 17.7956 21.9301 18.8156 21.302 19.4436C20.9945 19.7479 20.5895 19.9157 20.1597 19.9157Z" fill="#3F3F3F"/>
<path d="M23.6906 14.1106C23.5877 14.1106 23.4838 14.0716 23.4058 13.9926L16.5633 7.15012C16.4875 7.07432 16.4453 6.97146 16.4453 6.86535C16.4453 6.75815 16.4875 6.65637 16.5633 6.58058L18.2742 4.86971C18.4323 4.7127 18.6868 4.7127 18.8449 4.86971L25.6873 11.7122C25.7631 11.788 25.8054 11.8909 25.8054 11.997C25.8054 12.1042 25.7631 12.2059 25.6873 12.2817L23.9765 13.9926C23.8974 14.0706 23.7945 14.1106 23.6906 14.1106ZM17.4189 6.86426L23.6917 13.1371L24.8319 11.9969L18.5591 5.72405L17.4189 6.86426Z" fill="#3F3F3F"/>
<path d="M2.1134 14.2475C2.0062 14.2475 1.90441 14.2053 1.82863 14.1295L0.117758 12.4187C-0.0392526 12.2616 -0.0392526 12.0061 0.117758 11.848L6.97105 4.99471C7.12806 4.8377 7.38361 4.8377 7.5417 4.99471L9.25257 6.70558C9.40958 6.86259 9.40958 7.11814 9.25257 7.27623L2.39817 14.1295C2.32237 14.2053 2.2195 14.2475 2.1134 14.2475ZM0.972098 12.1339L2.11232 13.2741L8.39596 6.99046L7.25574 5.85024L0.972098 12.1339Z" fill="#3F3F3F"/>
<path d="M10.3701 23.6324C9.93917 23.6324 9.5342 23.4646 9.22992 23.1603C8.92563 22.8561 8.75781 22.4511 8.75781 22.0201C8.75781 21.5892 8.92565 21.1842 9.22992 20.8799L10.3701 19.7397C10.6744 19.4354 11.0794 19.2676 11.5104 19.2676C11.9413 19.2676 12.3463 19.4354 12.6506 19.7397C12.9549 20.044 13.1227 20.4489 13.1227 20.8799C13.1227 21.3109 12.9548 21.7158 12.6506 22.0201L11.5104 23.1603C11.2061 23.4646 10.8011 23.6324 10.3701 23.6324ZM11.5114 20.0732C11.296 20.0732 11.0935 20.1565 10.9408 20.3092L9.80057 21.4494C9.64789 21.6021 9.56451 21.8046 9.56451 22.0201C9.56451 22.2356 9.64789 22.438 9.80057 22.5907C9.95324 22.7434 10.1557 22.8268 10.3712 22.8268C10.5867 22.8268 10.7892 22.7434 10.9419 22.5907L12.0821 21.4505C12.2348 21.2978 12.3181 21.0954 12.3181 20.8799C12.3181 20.6644 12.2348 20.4619 12.0821 20.3092C11.9294 20.1565 11.7269 20.0732 11.5114 20.0732Z" fill="#3F3F3F"/>
<path d="M8.66311 21.9179C8.23214 21.9179 7.82717 21.7501 7.52289 21.4458C7.2186 21.1416 7.05078 20.7366 7.05078 20.3056C7.05078 19.8746 7.21862 19.4697 7.52289 19.1654L9.23375 17.4545C9.53804 17.1502 9.94301 16.9824 10.374 16.9824C10.8049 16.9824 11.2099 17.1503 11.5142 17.4545C12.1433 18.0836 12.1433 19.1069 11.5142 19.735L9.80332 21.4458C9.49904 21.7501 9.09407 21.9179 8.66311 21.9179ZM10.3729 17.7882C10.1574 17.7882 9.95493 17.8715 9.80224 18.0242L8.09137 19.7351C7.9387 19.8878 7.85532 20.0902 7.85532 20.3057C7.85532 20.5212 7.9387 20.7237 8.09137 20.8764C8.24405 21.0291 8.44653 21.1124 8.66202 21.1124C8.87752 21.1124 9.07999 21.0291 9.23267 20.8764L10.9435 19.1655C11.2576 18.8515 11.2576 18.3393 10.9435 18.0253C10.7909 17.8726 10.5884 17.7882 10.3729 17.7882Z" fill="#3F3F3F"/>
<path d="M6.9519 20.2096C6.53934 20.2096 6.12569 20.0525 5.81168 19.7385C5.18257 19.1094 5.18257 18.0862 5.81168 17.4581L7.52255 15.7472C8.15166 15.1181 9.17493 15.1181 9.80299 15.7472C10.4321 16.3763 10.4321 17.3996 9.80299 18.0277L8.09212 19.7385C7.7781 20.0525 7.36446 20.2096 6.9519 20.2096ZM6.38125 19.1679C6.69526 19.4819 7.20745 19.4819 7.52147 19.1679L9.23234 17.457C9.54635 17.143 9.54635 16.6308 9.23234 16.3168C8.91832 16.0028 8.40613 16.0028 8.09212 16.3168L6.38125 18.0277C6.06723 18.3417 6.06723 18.8528 6.38125 19.1679Z" fill="#3F3F3F"/>
<path d="M5.24096 18.4988C4.80999 18.4988 4.40503 18.3309 4.10074 18.0267C3.47163 17.3975 3.47163 16.3743 4.10074 15.7462L5.24096 14.6049C5.54525 14.3006 5.95021 14.1328 6.38118 14.1328C6.81215 14.1328 7.21711 14.3007 7.5214 14.6049C7.82568 14.9092 7.9935 15.3142 7.9935 15.7451C7.9935 16.1761 7.82566 16.5811 7.5214 16.8854L6.38118 18.0256C6.07689 18.3309 5.67193 18.4988 5.24096 18.4988ZM6.38118 14.9384C6.1657 14.9384 5.96321 15.0217 5.81053 15.1744L4.67031 16.3146C4.35629 16.6287 4.35629 17.1408 4.67031 17.4549C4.82299 17.6075 5.02546 17.6909 5.24096 17.6909C5.45644 17.6909 5.65893 17.6075 5.81161 17.4549L6.95183 16.3146C7.10451 16.162 7.18788 15.9595 7.18788 15.744C7.18788 15.5285 7.10451 15.326 6.95183 15.1733C6.79915 15.0228 6.59668 14.9384 6.38118 14.9384Z" fill="#3F3F3F"/>
<path d="M12.6949 9.27514C12.6776 9.27514 12.6592 9.27406 12.6408 9.27189L11.1692 9.07482C10.0886 8.9308 9.05771 8.50849 8.18485 7.85449C8.00619 7.7213 7.97045 7.46793 8.10473 7.29032C8.23791 7.11166 8.49128 7.07592 8.66889 7.21019C9.43012 7.78192 10.3321 8.15008 11.2752 8.27571L12.7468 8.47278C12.9677 8.50202 13.1225 8.70559 13.0933 8.9254C13.0662 9.1268 12.8931 9.27514 12.6949 9.27514Z" fill="#3F3F3F"/>
<path d="M6.34186 6.5978C6.26822 6.5978 6.19351 6.57723 6.12637 6.535L0.187021 2.75921C-0.00139092 2.6401 -0.0566153 2.39106 0.06358 2.20265C0.182691 2.01423 0.432814 1.95901 0.620148 2.0792L6.5595 5.85499C6.74791 5.9741 6.80314 6.22314 6.68294 6.41156C6.60498 6.53175 6.47505 6.5978 6.34186 6.5978Z" fill="#3F3F3F"/>
<path d="M1.22873 11.7127C1.12587 11.7127 1.02191 11.6737 0.943962 11.5947L0.117758 10.7685C-0.0392526 10.6115 -0.0392526 10.3559 0.117758 10.1978C0.274769 10.0408 0.530319 10.0408 0.688408 10.1978L1.51461 11.024C1.67162 11.1811 1.67162 11.4366 1.51461 11.5947C1.43448 11.6727 1.33159 11.7127 1.22873 11.7127Z" fill="#3F3F3F"/>
<path d="M19.2854 6.28765C19.175 6.28765 19.0645 6.24217 18.9855 6.15338C18.8371 5.98771 18.8512 5.73217 19.0169 5.58381L25.1306 0.102674C25.2963 -0.0456739 25.5518 -0.0315975 25.7002 0.134076C25.8485 0.299749 25.8344 0.555286 25.6688 0.703645L19.5551 6.18478C19.4782 6.25408 19.3818 6.28765 19.2854 6.28765Z" fill="#3F3F3F"/>
<path d="M24.3441 11.345C24.2532 11.345 24.1611 11.3147 24.0864 11.2519C23.9153 11.109 23.8926 10.8556 24.0344 10.6845L25.0902 9.41869C25.2331 9.2476 25.4876 9.22486 25.6576 9.36671C25.8287 9.50965 25.8514 9.76303 25.7096 9.93412L24.6538 11.1999C24.5748 11.2963 24.46 11.345 24.3441 11.345Z" fill="#3F3F3F"/>
</svg>
