<svg width="29" height="25" viewBox="0 0 29 25" fill="none" xmlns="http://www.w3.org/2000/svg">
<path d="M28.7758 23.6258L26.2117 15.939V1.54891C26.2117 0.696031 25.5183 0 24.6627 0H4.16636C3.31348 0 2.61745 0.69332 2.61745 1.54891V15.9375L0.0533518 23.6258C-0.0525689 23.9421 0.00107821 24.2943 0.197791 24.5667C0.3945 24.8377 0.712252 25 1.04655 25L10.8931 24.9986H27.7827C28.117 24.9986 28.4348 24.8363 28.6315 24.5653C28.8282 24.2984 28.8803 23.9463 28.7758 23.6258ZM3.67391 1.54891C3.67391 1.27792 3.89538 1.05646 4.16636 1.05646H13.9249C13.9043 1.11286 13.8932 1.16926 13.8932 1.23254C13.8932 1.52416 14.1326 1.76077 14.4215 1.76077C14.7103 1.76077 14.9497 1.52416 14.9497 1.23254C14.9497 1.16926 14.9359 1.11286 14.9181 1.05646H24.6629C24.9338 1.05646 25.1553 1.27793 25.1553 1.54891V15.4949H3.67395L3.67391 1.54891ZM22.9473 19.7207H5.88156L6.40979 16.5513H22.419L22.9473 19.7207ZM16.8518 22.8901L17.204 23.9466H11.6245L11.9766 22.8901H16.8518ZM18.3196 23.9507L17.8093 22.4155C17.6937 22.0675 17.365 21.8309 16.999 21.8309L11.8337 21.8295C11.4636 21.8295 11.1403 22.0661 11.0234 22.4141L10.509 23.9534L1.05717 23.9576L3.52636 16.5486H5.33939L4.80017 19.7785C4.75753 20.0289 4.82768 20.2792 4.99 20.4718C5.15232 20.6658 5.39167 20.7745 5.64205 20.7745L23.1825 20.7731C23.4328 20.7731 23.6722 20.6644 23.8345 20.4705C23.9968 20.2765 24.067 20.0262 24.0243 19.7771L23.4851 16.5472H25.2981L27.777 23.9424L18.3196 23.9507ZM17.6648 9.93463L20.4284 8.27567L17.6607 6.61672C17.4103 6.4654 17.3292 6.14075 17.4805 5.89177C17.6318 5.64141 17.9565 5.56025 18.2054 5.71157L21.727 7.82449C21.8852 7.91941 21.9842 8.09273 21.9842 8.27845C21.9842 8.46553 21.8852 8.63747 21.727 8.73241L18.2054 10.8453C18.1215 10.8976 18.0252 10.9196 17.9345 10.9196C17.7542 10.9196 17.5782 10.8274 17.4805 10.6624C17.3333 10.4093 17.4145 10.086 17.6648 9.93463ZM6.84315 8.27567C6.84315 8.08859 6.94219 7.91665 7.10039 7.82171L10.6219 5.70879C10.8723 5.55748 11.1955 5.63864 11.3469 5.889C11.4982 6.13936 11.417 6.46262 11.1667 6.61394L8.40032 8.27568L11.168 9.93464C11.4184 10.086 11.4996 10.4106 11.3482 10.6596C11.2451 10.8247 11.0731 10.9168 10.8929 10.9168C10.8007 10.9168 10.7058 10.8921 10.6219 10.8425L7.10038 8.72962C6.94218 8.6347 6.84315 8.46277 6.84315 8.27567ZM12.516 11.6005L15.3332 4.55743C15.4419 4.28644 15.7487 4.15576 16.0196 4.26168C16.2906 4.37035 16.4213 4.67711 16.3154 4.94809L13.4982 11.9912C13.417 12.1989 13.2162 12.3227 13.0085 12.3227C12.941 12.3227 12.8778 12.3117 12.8117 12.2842C12.538 12.1769 12.4073 11.8715 12.516 11.6005Z" fill="#3F3F3F"/>
</svg>
