<svg width="25" height="25" viewBox="0 0 25 25" fill="none" xmlns="http://www.w3.org/2000/svg">
<path fill-rule="evenodd" clip-rule="evenodd" d="M24.4858 18.7547H0.42918C0.19219 18.7547 0 18.5625 0 18.3255C0 18.0885 0.19219 17.8964 0.42918 17.8964H24.4858C24.7228 17.8964 24.915 18.0885 24.915 18.3255C24.915 18.5625 24.7228 18.7547 24.4858 18.7547Z" fill="#3F3F3F"/>
<path fill-rule="evenodd" clip-rule="evenodd" d="M17.3261 20.1806H16.6518C16.4148 20.1806 16.2227 19.9884 16.2227 19.7514C16.2227 19.5144 16.4148 19.3223 16.6518 19.3223H17.3261C17.5631 19.3223 17.7553 19.5144 17.7553 19.7514C17.7553 19.9884 17.5631 20.1806 17.3261 20.1806Z" fill="#3F3F3F"/>
<path fill-rule="evenodd" clip-rule="evenodd" d="M19.7753 20.1806H19.1011C18.8641 20.1806 18.6719 19.9884 18.6719 19.7514C18.6719 19.5144 18.8641 19.3223 19.1011 19.3223H19.7753C20.0123 19.3223 20.2045 19.5144 20.2045 19.7514C20.2045 19.9884 20.0123 20.1806 19.7753 20.1806Z" fill="#3F3F3F"/>
<path fill-rule="evenodd" clip-rule="evenodd" d="M22.221 20.1806H21.4995C21.2625 20.1806 21.0703 19.9884 21.0703 19.7514C21.0703 19.5144 21.2625 19.3223 21.4995 19.3223H22.221C22.458 19.3223 22.6502 19.5144 22.6502 19.7514C22.6502 19.9884 22.458 20.1806 22.221 20.1806Z" fill="#3F3F3F"/>
<path fill-rule="evenodd" clip-rule="evenodd" d="M9.65617 24.9999C9.62307 24.9999 9.58935 24.9961 9.55584 24.988C9.32531 24.9329 9.18319 24.7011 9.2385 24.4706L10.0514 21.0794C10.1065 20.8489 10.3383 20.7068 10.5688 20.7621C10.7994 20.8172 10.9415 21.0489 10.8862 21.2795L10.0732 24.6707C10.026 24.8677 9.85016 24.9999 9.65617 24.9999Z" fill="#3F3F3F"/>
<path fill-rule="evenodd" clip-rule="evenodd" d="M15.2598 24.9996C15.06 24.9996 14.8811 24.8593 14.8397 24.656L14.1493 21.2648C14.1021 21.0326 14.2521 20.8059 14.4842 20.7587C14.7166 20.7115 14.9431 20.8615 14.9903 21.0936L15.6807 24.4848C15.7279 24.717 15.578 24.9437 15.3458 24.9909C15.3171 24.9968 15.2883 24.9996 15.2598 24.9996Z" fill="#3F3F3F"/>
<path fill-rule="evenodd" clip-rule="evenodd" d="M17.1953 24.999H7.68699C7.45 24.999 7.25781 24.8068 7.25781 24.5698C7.25781 24.3328 7.45 24.1406 7.68699 24.1406H17.1953C17.4323 24.1406 17.6244 24.3328 17.6244 24.5698C17.6244 24.8068 17.4322 24.999 17.1953 24.999Z" fill="#3F3F3F"/>
<path fill-rule="evenodd" clip-rule="evenodd" d="M23.6452 21.6076H1.26977C0.533954 21.6076 0 21.0734 0 20.3378V6.65728C0 5.93176 0.557773 5.36329 1.26977 5.36329H6.03692C6.27391 5.36329 6.4661 5.55548 6.4661 5.79248C6.4661 6.02947 6.27391 6.22164 6.03692 6.22164H1.26977C0.987152 6.22164 0.858346 6.44755 0.858346 6.65708V20.3376C0.858346 20.5952 1.01219 20.749 1.26977 20.749L23.6452 20.7492C23.8798 20.7492 24.0566 20.5724 24.0566 20.3378V6.65728C24.0566 6.42109 23.8683 6.22185 23.6452 6.22185L18.8781 6.22163C18.6411 6.22163 18.4489 6.02946 18.4489 5.79247C18.4489 5.55548 18.6411 5.36328 18.8781 5.36328H23.6452C24.3453 5.36328 24.915 5.94366 24.915 6.65728V20.3378C24.915 21.0498 24.3572 21.6076 23.6452 21.6076Z" fill="#3F3F3F"/>
<path fill-rule="evenodd" clip-rule="evenodd" d="M17.6939 16.3615H7.22475C6.33409 16.3615 5.60938 15.6368 5.60938 14.7462V1.61537C5.60938 0.724725 6.3341 0 7.22475 0H15.7124C15.9494 0 16.1415 0.192176 16.1415 0.429188V3.16754H18.8799C19.1169 3.16754 19.3091 3.35973 19.3091 3.59672V14.7462C19.3091 15.6368 18.5846 16.3615 17.6939 16.3615ZM7.22475 0.858353C6.80728 0.858353 6.46772 1.1979 6.46772 1.61537V14.7462C6.46772 15.1637 6.80727 15.5032 7.22475 15.5032H17.6939C18.1114 15.5032 18.4509 15.1637 18.4509 14.7462L18.4507 4.02589H15.7124C15.4754 4.02589 15.2832 3.83372 15.2832 3.59673V0.858353H7.22475Z" fill="#3F3F3F"/>
<path fill-rule="evenodd" clip-rule="evenodd" d="M18.8817 4.02596H15.7143C15.4773 4.02596 15.2852 3.83379 15.2852 3.5968V0.429266C15.2852 0.255646 15.3897 0.0991984 15.55 0.0327923C15.7103 -0.0336285 15.895 0.00311429 16.0177 0.125855L19.1853 3.29339C19.308 3.41613 19.3448 3.60064 19.2783 3.76113C19.2117 3.9214 19.0553 4.02596 18.8817 4.02596ZM16.1435 3.16761H17.8457L16.1435 1.46544V3.16761Z" fill="#3F3F3F"/>
<path fill-rule="evenodd" clip-rule="evenodd" d="M15.2521 9.71357H11.7573C11.5203 9.71357 11.3281 9.5214 11.3281 9.2844C11.3281 9.04741 11.5203 8.85522 11.7573 8.85522H15.2521C15.4891 8.85522 15.6813 9.04741 15.6813 9.2844C15.6813 9.5214 15.4891 9.71357 15.2521 9.71357Z" fill="#3F3F3F"/>
<path fill-rule="evenodd" clip-rule="evenodd" d="M8.63745 10.3978C8.52764 10.3978 8.41782 10.3558 8.33404 10.272L7.6491 9.5871C7.48155 9.41955 7.48155 9.14783 7.6491 8.98028C7.81666 8.81273 8.08838 8.81273 8.25593 8.98028L8.63745 9.36181L9.70394 8.29534C9.8715 8.12779 10.1432 8.12779 10.3108 8.29534C10.4783 8.4629 10.4783 8.7346 10.3108 8.90215L8.94086 10.2721C8.85729 10.3558 8.74728 10.3978 8.63745 10.3978Z" fill="#3F3F3F"/>
<path fill-rule="evenodd" clip-rule="evenodd" d="M16.9629 6.42072H11.7573C11.5203 6.42072 11.3281 6.22855 11.3281 5.99156C11.3281 5.75456 11.5203 5.56238 11.7573 5.56238H16.9629C17.1999 5.56238 17.3921 5.75457 17.3921 5.99156C17.3921 6.22855 17.1999 6.42072 16.9629 6.42072Z" fill="#3F3F3F"/>
<path fill-rule="evenodd" clip-rule="evenodd" d="M8.63745 7.1051C8.52361 7.1051 8.41459 7.05987 8.33404 6.97933L7.6491 6.29439C7.48155 6.12683 7.48155 5.85511 7.6491 5.68757C7.81666 5.52001 8.08838 5.52001 8.25593 5.68757L8.63745 6.06911L9.70394 5.00262C9.8715 4.83506 10.1432 4.83506 10.3108 5.00262C10.4783 5.17017 10.4783 5.44189 10.3108 5.60944L8.94086 6.97933C8.86052 7.05968 8.75132 7.1051 8.63745 7.1051Z" fill="#3F3F3F"/>
<path fill-rule="evenodd" clip-rule="evenodd" d="M16.5352 13.0031H11.7573C11.5203 13.0031 11.3281 12.8109 11.3281 12.5739C11.3281 12.337 11.5203 12.1448 11.7573 12.1448H16.5352C16.7721 12.1448 16.9643 12.337 16.9643 12.5739C16.9643 12.8109 16.7721 13.0031 16.5352 13.0031Z" fill="#3F3F3F"/>
<path fill-rule="evenodd" clip-rule="evenodd" d="M8.63745 13.6888C8.52361 13.6888 8.41459 13.6436 8.33404 13.5631L7.6491 12.8781C7.48155 12.7106 7.48155 12.4389 7.6491 12.2713C7.81666 12.1038 8.08838 12.1038 8.25593 12.2713L8.63745 12.6528L9.70394 11.5864C9.8715 11.4188 10.1432 11.4188 10.3108 11.5864C10.4783 11.7539 10.4783 12.0256 10.3108 12.1932L8.94086 13.5631C8.86052 13.6436 8.75132 13.6888 8.63745 13.6888Z" fill="#3F3F3F"/>
</svg>
