<svg width="49" height="49" viewBox="0 0 49 49" fill="none" xmlns="http://www.w3.org/2000/svg">
<rect width="49" height="49" rx="5" fill="url(#paint0_linear_1808_7)" fill-opacity="0.3"/>
<path fill-rule="evenodd" clip-rule="evenodd" d="M37.4858 30.7547H13.4292C13.1922 30.7547 13 30.5625 13 30.3255C13 30.0885 13.1922 29.8964 13.4292 29.8964H37.4858C37.7228 29.8964 37.915 30.0885 37.915 30.3255C37.915 30.5625 37.7228 30.7547 37.4858 30.7547Z" fill="#3F3F3F"/>
<path fill-rule="evenodd" clip-rule="evenodd" d="M30.3261 32.1806H29.6518C29.4148 32.1806 29.2227 31.9884 29.2227 31.7514C29.2227 31.5144 29.4148 31.3223 29.6518 31.3223H30.3261C30.5631 31.3223 30.7553 31.5144 30.7553 31.7514C30.7553 31.9884 30.5631 32.1806 30.3261 32.1806Z" fill="#3F3F3F"/>
<path fill-rule="evenodd" clip-rule="evenodd" d="M32.7753 32.1806H32.1011C31.8641 32.1806 31.6719 31.9884 31.6719 31.7514C31.6719 31.5144 31.8641 31.3223 32.1011 31.3223H32.7753C33.0123 31.3223 33.2045 31.5144 33.2045 31.7514C33.2045 31.9884 33.0123 32.1806 32.7753 32.1806Z" fill="#3F3F3F"/>
<path fill-rule="evenodd" clip-rule="evenodd" d="M35.221 32.1806H34.4995C34.2625 32.1806 34.0703 31.9884 34.0703 31.7514C34.0703 31.5144 34.2625 31.3223 34.4995 31.3223H35.221C35.458 31.3223 35.6502 31.5144 35.6502 31.7514C35.6502 31.9884 35.458 32.1806 35.221 32.1806Z" fill="#3F3F3F"/>
<path fill-rule="evenodd" clip-rule="evenodd" d="M22.6562 36.9999C22.6231 36.9999 22.5894 36.9961 22.5558 36.988C22.3253 36.9329 22.1832 36.7011 22.2385 36.4706L23.0514 33.0794C23.1065 32.8489 23.3383 32.7068 23.5688 32.7621C23.7994 32.8172 23.9415 33.0489 23.8862 33.2795L23.0732 36.6707C23.026 36.8677 22.8502 36.9999 22.6562 36.9999Z" fill="#3F3F3F"/>
<path fill-rule="evenodd" clip-rule="evenodd" d="M28.2598 36.9996C28.06 36.9996 27.8811 36.8593 27.8397 36.656L27.1493 33.2648C27.1021 33.0326 27.2521 32.8059 27.4842 32.7587C27.7166 32.7115 27.9431 32.8615 27.9903 33.0936L28.6807 36.4848C28.7279 36.717 28.578 36.9437 28.3458 36.9909C28.3171 36.9968 28.2883 36.9996 28.2598 36.9996Z" fill="#3F3F3F"/>
<path fill-rule="evenodd" clip-rule="evenodd" d="M30.1953 36.999H20.687C20.45 36.999 20.2578 36.8068 20.2578 36.5698C20.2578 36.3328 20.45 36.1406 20.687 36.1406H30.1953C30.4323 36.1406 30.6244 36.3328 30.6244 36.5698C30.6244 36.8068 30.4322 36.999 30.1953 36.999Z" fill="#3F3F3F"/>
<path fill-rule="evenodd" clip-rule="evenodd" d="M36.6452 33.6076H14.2698C13.534 33.6076 13 33.0734 13 32.3378V18.6573C13 17.9318 13.5578 17.3633 14.2698 17.3633H19.0369C19.2739 17.3633 19.4661 17.5555 19.4661 17.7925C19.4661 18.0295 19.2739 18.2216 19.0369 18.2216H14.2698C13.9872 18.2216 13.8583 18.4475 13.8583 18.6571V32.3376C13.8583 32.5952 14.0122 32.749 14.2698 32.749L36.6452 32.7492C36.8798 32.7492 37.0566 32.5724 37.0566 32.3378V18.6573C37.0566 18.4211 36.8683 18.2218 36.6452 18.2218L31.8781 18.2216C31.6411 18.2216 31.4489 18.0295 31.4489 17.7925C31.4489 17.5555 31.6411 17.3633 31.8781 17.3633H36.6452C37.3453 17.3633 37.915 17.9437 37.915 18.6573V32.3378C37.915 33.0498 37.3572 33.6076 36.6452 33.6076Z" fill="#3F3F3F"/>
<path fill-rule="evenodd" clip-rule="evenodd" d="M30.6939 28.3615H20.2247C19.3341 28.3615 18.6094 27.6368 18.6094 26.7462V13.6154C18.6094 12.7247 19.3341 12 20.2247 12H28.7124C28.9494 12 29.1415 12.1922 29.1415 12.4292V15.1675H31.8799C32.1169 15.1675 32.3091 15.3597 32.3091 15.5967V26.7462C32.3091 27.6368 31.5846 28.3615 30.6939 28.3615ZM20.2247 12.8584C19.8073 12.8584 19.4677 13.1979 19.4677 13.6154V26.7462C19.4677 27.1637 19.8073 27.5032 20.2247 27.5032H30.6939C31.1114 27.5032 31.4509 27.1637 31.4509 26.7462L31.4507 16.0259H28.7124C28.4754 16.0259 28.2832 15.8337 28.2832 15.5967V12.8584H20.2247Z" fill="#3F3F3F"/>
<path fill-rule="evenodd" clip-rule="evenodd" d="M31.8817 16.026H28.7143C28.4773 16.026 28.2852 15.8338 28.2852 15.5968V12.4293C28.2852 12.2556 28.3897 12.0992 28.55 12.0328C28.7103 11.9664 28.895 12.0031 29.0177 12.1259L32.1853 15.2934C32.308 15.4161 32.3448 15.6006 32.2783 15.7611C32.2117 15.9214 32.0553 16.026 31.8817 16.026ZM29.1435 15.1676H30.8457L29.1435 13.4654V15.1676Z" fill="#3F3F3F"/>
<path fill-rule="evenodd" clip-rule="evenodd" d="M28.2521 21.7136H24.7573C24.5203 21.7136 24.3281 21.5214 24.3281 21.2844C24.3281 21.0474 24.5203 20.8552 24.7573 20.8552H28.2521C28.4891 20.8552 28.6813 21.0474 28.6813 21.2844C28.6813 21.5214 28.4891 21.7136 28.2521 21.7136Z" fill="#3F3F3F"/>
<path fill-rule="evenodd" clip-rule="evenodd" d="M21.6375 22.3978C21.5276 22.3978 21.4178 22.3558 21.334 22.272L20.6491 21.5871C20.4815 21.4195 20.4815 21.1478 20.6491 20.9803C20.8167 20.8127 21.0884 20.8127 21.2559 20.9803L21.6375 21.3618L22.7039 20.2953C22.8715 20.1278 23.1432 20.1278 23.3108 20.2953C23.4783 20.4629 23.4783 20.7346 23.3108 20.9022L21.9409 22.2721C21.8573 22.3558 21.7473 22.3978 21.6375 22.3978Z" fill="#3F3F3F"/>
<path fill-rule="evenodd" clip-rule="evenodd" d="M29.9629 18.4207H24.7573C24.5203 18.4207 24.3281 18.2285 24.3281 17.9916C24.3281 17.7546 24.5203 17.5624 24.7573 17.5624H29.9629C30.1999 17.5624 30.3921 17.7546 30.3921 17.9916C30.3921 18.2285 30.1999 18.4207 29.9629 18.4207Z" fill="#3F3F3F"/>
<path fill-rule="evenodd" clip-rule="evenodd" d="M21.6375 19.1051C21.5236 19.1051 21.4146 19.0599 21.334 18.9793L20.6491 18.2944C20.4815 18.1268 20.4815 17.8551 20.6491 17.6876C20.8167 17.52 21.0884 17.52 21.2559 17.6876L21.6375 18.0691L22.7039 17.0026C22.8715 16.8351 23.1432 16.8351 23.3108 17.0026C23.4783 17.1702 23.4783 17.4419 23.3108 17.6094L21.9409 18.9793C21.8605 19.0597 21.7513 19.1051 21.6375 19.1051Z" fill="#3F3F3F"/>
<path fill-rule="evenodd" clip-rule="evenodd" d="M29.5352 25.0031H24.7573C24.5203 25.0031 24.3281 24.8109 24.3281 24.5739C24.3281 24.337 24.5203 24.1448 24.7573 24.1448H29.5352C29.7721 24.1448 29.9643 24.337 29.9643 24.5739C29.9643 24.8109 29.7721 25.0031 29.5352 25.0031Z" fill="#3F3F3F"/>
<path fill-rule="evenodd" clip-rule="evenodd" d="M21.6375 25.6888C21.5236 25.6888 21.4146 25.6436 21.334 25.5631L20.6491 24.8781C20.4815 24.7106 20.4815 24.4389 20.6491 24.2713C20.8167 24.1038 21.0884 24.1038 21.2559 24.2713L21.6375 24.6528L22.7039 23.5864C22.8715 23.4188 23.1432 23.4188 23.3108 23.5864C23.4783 23.7539 23.4783 24.0256 23.3108 24.1932L21.9409 25.5631C21.8605 25.6436 21.7513 25.6888 21.6375 25.6888Z" fill="#3F3F3F"/>
<defs>
<linearGradient id="paint0_linear_1808_7" x1="96.1509" y1="25.1622" x2="20.4141" y2="60.9069" gradientUnits="userSpaceOnUse">
<stop stop-color="#04BFD7"/>
<stop offset="1" stop-color="#63388B"/>
</linearGradient>
</defs>
</svg>
