<svg width="49" height="49" viewBox="0 0 49 49" fill="none" xmlns="http://www.w3.org/2000/svg">
<rect width="49" height="49" rx="5" fill="url(#paint0_linear_1808_11)" fill-opacity="0.3"/>
<path d="M31.7561 28.5801C31.6532 28.5801 31.5514 28.5411 31.4724 28.4631L27.6847 24.7176C27.2786 24.3158 26.7394 24.0939 26.1676 24.0939H25.4746C24.8986 24.0939 24.3366 24.3299 23.9327 24.7425L23.4996 25.1843C22.6799 26.0213 21.3707 26.1025 20.4548 25.3738L19.8126 24.8638C19.7239 24.7934 19.6686 24.6873 19.661 24.5736C19.6535 24.4599 19.6946 24.3483 19.7747 24.2671L22.6183 21.3434C23.1608 20.7847 23.9177 20.4653 24.6952 20.4653H27.542C28.2729 20.4653 28.9378 20.0939 29.3211 19.4723C29.3861 19.3673 29.4955 19.298 29.6178 19.2839C29.7402 19.2698 29.8625 19.3121 29.9502 19.3998L35.2928 24.7423C35.3696 24.8192 35.4119 24.9221 35.4108 25.0304C35.4097 25.1386 35.3653 25.2415 35.2884 25.3162L32.0377 28.4661C31.9586 28.5419 31.8579 28.5798 31.7561 28.5798L31.7561 28.5801ZM25.4747 23.2872H26.1677C26.9527 23.2872 27.6934 23.5914 28.2521 24.1437L31.7593 27.612L34.4327 25.0219L29.7095 20.2986C29.1648 20.9148 28.3852 21.271 27.5417 21.271H24.6948C24.1339 21.271 23.5871 21.5016 23.1962 21.9045L20.6624 24.5087L20.9558 24.7415C21.5481 25.2125 22.3938 25.1594 22.9233 24.6191L23.3565 24.1773C23.9109 23.6121 24.682 23.2872 25.4747 23.2872Z" fill="#3F3F3F"/>
<path d="M17.1556 27.663C17.0528 27.663 16.9499 27.624 16.8708 27.5461L16.1854 26.865C15.6938 26.3766 15.0885 25.9998 14.4323 25.7746C14.2223 25.702 14.1096 25.4725 14.1822 25.2624C14.2547 25.0523 14.4843 24.9397 14.6944 25.0123C15.4643 25.2776 16.1757 25.7204 16.7528 26.2933L17.4383 26.9743C17.5964 27.1313 17.5974 27.3869 17.4404 27.545C17.3636 27.623 17.2596 27.663 17.1556 27.663Z" fill="#3F3F3F"/>
<path d="M27.0271 37C26.5962 37 26.1912 36.8322 25.8869 36.5279L23.731 34.372C23.574 34.215 23.574 33.9594 23.731 33.8014C23.888 33.6443 24.1436 33.6443 24.3017 33.8014L26.4576 35.9572C26.6103 36.1099 26.8127 36.1933 27.0282 36.1933C27.2437 36.1933 27.4462 36.1099 27.5989 35.9572C27.9129 35.6432 27.9129 35.131 27.5989 34.817C27.4419 34.66 27.4419 34.4045 27.5989 34.2464C27.7559 34.0894 28.0114 34.0894 28.1695 34.2464C28.7986 34.8755 28.7986 35.8988 28.1695 36.5268C27.8631 36.8322 27.4581 37 27.0271 37Z" fill="#3F3F3F"/>
<path d="M29.5896 36.1446C29.1771 36.1446 28.7634 35.9876 28.4494 35.6725L26.4343 33.6563C26.2773 33.4982 26.2773 33.2438 26.4343 33.0857C26.5924 32.9287 26.8468 32.9287 27.0049 33.0857L29.0201 35.1019C29.3341 35.4159 29.8463 35.4159 30.1603 35.1019C30.4743 34.7879 30.4743 34.2757 30.1603 33.9617L25.6178 29.4169C25.4607 29.2599 25.4607 29.0044 25.6178 28.8463C25.7758 28.6893 26.0303 28.6893 26.1884 28.8463L30.7309 33.391C31.0352 33.6953 31.203 34.1003 31.203 34.5312C31.203 34.9622 31.0352 35.3672 30.7309 35.6715C30.4158 35.9876 30.0033 36.1446 29.5896 36.1446Z" fill="#3F3F3F"/>
<path d="M31.8039 34.9318C31.3913 34.9318 30.9777 34.7748 30.6637 34.4597L25.6178 29.4138C25.4607 29.2568 25.4607 29.0012 25.6178 28.8431C25.7748 28.6861 26.0303 28.6861 26.1884 28.8431L31.2343 33.8891C31.5483 34.2031 32.0605 34.2031 32.3746 33.8891C32.6886 33.5751 32.6886 33.0629 32.3746 32.7489L27.3286 27.704C27.1716 27.547 27.1716 27.2915 27.3286 27.1334C27.4856 26.9764 27.7412 26.9764 27.8993 27.1334L32.9452 32.1793C33.5743 32.8084 33.5743 33.8317 32.9452 34.4597C32.6301 34.7748 32.2175 34.9318 31.8039 34.9318Z" fill="#3F3F3F"/>
<path d="M32.1597 31.9157C31.8651 31.9157 31.576 31.8356 31.327 31.684C31.1364 31.5682 31.0758 31.3202 31.1916 31.1307C31.3075 30.9401 31.5554 30.8795 31.7449 30.9953C31.8684 31.0701 32.0124 31.1101 32.1597 31.1101C32.3751 31.1101 32.5776 31.0267 32.7303 30.8741C33.0443 30.56 33.0443 30.0479 32.7303 29.7338C32.7282 29.7317 32.7271 29.7295 32.7249 29.7284L31.4861 28.4388C31.3313 28.2785 31.3367 28.023 31.498 27.8681C31.6583 27.7144 31.9139 27.7187 32.0687 27.8801L33.3053 29.1664C33.9311 29.7956 33.9301 30.8156 33.302 31.4436C32.9945 31.7479 32.5895 31.9157 32.1597 31.9157Z" fill="#3F3F3F"/>
<path d="M35.6906 26.1106C35.5877 26.1106 35.4838 26.0716 35.4058 25.9926L28.5633 19.1501C28.4875 19.0743 28.4453 18.9715 28.4453 18.8654C28.4453 18.7582 28.4875 18.6564 28.5633 18.5806L30.2742 16.8697C30.4323 16.7127 30.6868 16.7127 30.8449 16.8697L37.6873 23.7122C37.7631 23.788 37.8054 23.8909 37.8054 23.997C37.8054 24.1042 37.7631 24.2059 37.6873 24.2817L35.9765 25.9926C35.8974 26.0706 35.7945 26.1106 35.6906 26.1106ZM29.4189 18.8643L35.6917 25.1371L36.8319 23.9969L30.5591 17.724L29.4189 18.8643Z" fill="#3F3F3F"/>
<path d="M14.1134 26.2475C14.0062 26.2475 13.9044 26.2053 13.8286 26.1295L12.1178 24.4187C11.9607 24.2616 11.9607 24.0061 12.1178 23.848L18.971 16.9947C19.1281 16.8377 19.3836 16.8377 19.5417 16.9947L21.2526 18.7056C21.4096 18.8626 21.4096 19.1181 21.2526 19.2762L14.3982 26.1295C14.3224 26.2053 14.2195 26.2475 14.1134 26.2475ZM12.9721 24.1339L14.1123 25.2741L20.396 18.9905L19.2557 17.8502L12.9721 24.1339Z" fill="#3F3F3F"/>
<path d="M22.3701 35.6324C21.9392 35.6324 21.5342 35.4646 21.2299 35.1603C20.9256 34.8561 20.7578 34.4511 20.7578 34.0201C20.7578 33.5892 20.9257 33.1842 21.2299 32.8799L22.3701 31.7397C22.6744 31.4354 23.0794 31.2676 23.5104 31.2676C23.9413 31.2676 24.3463 31.4354 24.6506 31.7397C24.9549 32.044 25.1227 32.4489 25.1227 32.8799C25.1227 33.3109 24.9548 33.7158 24.6506 34.0201L23.5104 35.1603C23.2061 35.4646 22.8011 35.6324 22.3701 35.6324ZM23.5114 32.0732C23.296 32.0732 23.0935 32.1565 22.9408 32.3092L21.8006 33.4494C21.6479 33.6021 21.5645 33.8046 21.5645 34.0201C21.5645 34.2356 21.6479 34.438 21.8006 34.5907C21.9532 34.7434 22.1557 34.8268 22.3712 34.8268C22.5867 34.8268 22.7892 34.7434 22.9419 34.5907L24.0821 33.4505C24.2348 33.2978 24.3181 33.0954 24.3181 32.8799C24.3181 32.6644 24.2348 32.4619 24.0821 32.3092C23.9294 32.1565 23.7269 32.0732 23.5114 32.0732Z" fill="#3F3F3F"/>
<path d="M20.6631 33.9179C20.2321 33.9179 19.8272 33.7501 19.5229 33.4458C19.2186 33.1416 19.0508 32.7366 19.0508 32.3056C19.0508 31.8746 19.2186 31.4697 19.5229 31.1654L21.2338 29.4545C21.538 29.1502 21.943 28.9824 22.374 28.9824C22.8049 28.9824 23.2099 29.1503 23.5142 29.4545C24.1433 30.0836 24.1433 31.1069 23.5142 31.735L21.8033 33.4458C21.499 33.7501 21.0941 33.9179 20.6631 33.9179ZM22.3729 29.7882C22.1574 29.7882 21.9549 29.8715 21.8022 30.0242L20.0914 31.7351C19.9387 31.8878 19.8553 32.0902 19.8553 32.3057C19.8553 32.5212 19.9387 32.7237 20.0914 32.8764C20.2441 33.0291 20.4465 33.1124 20.662 33.1124C20.8775 33.1124 21.08 33.0291 21.2327 32.8764L22.9435 31.1655C23.2576 30.8515 23.2576 30.3393 22.9435 30.0253C22.7909 29.8726 22.5884 29.7882 22.3729 29.7882Z" fill="#3F3F3F"/>
<path d="M18.9519 32.2096C18.5393 32.2096 18.1257 32.0525 17.8117 31.7385C17.1826 31.1094 17.1826 30.0862 17.8117 29.4581L19.5225 27.7472C20.1517 27.1181 21.1749 27.1181 21.803 27.7472C22.4321 28.3763 22.4321 29.3996 21.803 30.0277L20.0921 31.7385C19.7781 32.0525 19.3645 32.2096 18.9519 32.2096ZM18.3812 31.1679C18.6953 31.4819 19.2075 31.4819 19.5215 31.1679L21.2323 29.457C21.5464 29.143 21.5464 28.6308 21.2323 28.3168C20.9183 28.0028 20.4061 28.0028 20.0921 28.3168L18.3812 30.0277C18.0672 30.3417 18.0672 30.8528 18.3812 31.1679Z" fill="#3F3F3F"/>
<path d="M17.241 30.4988C16.81 30.4988 16.405 30.3309 16.1007 30.0267C15.4716 29.3975 15.4716 28.3743 16.1007 27.7462L17.241 26.6049C17.5452 26.3006 17.9502 26.1328 18.3812 26.1328C18.8121 26.1328 19.2171 26.3007 19.5214 26.6049C19.8257 26.9092 19.9935 27.3142 19.9935 27.7451C19.9935 28.1761 19.8257 28.5811 19.5214 28.8854L18.3812 30.0256C18.0769 30.3309 17.6719 30.4988 17.241 30.4988ZM18.3812 26.9384C18.1657 26.9384 17.9632 27.0217 17.8105 27.1744L16.6703 28.3146C16.3563 28.6287 16.3563 29.1408 16.6703 29.4549C16.823 29.6075 17.0255 29.6909 17.241 29.6909C17.4564 29.6909 17.6589 29.6075 17.8116 29.4549L18.9518 28.3146C19.1045 28.162 19.1879 27.9595 19.1879 27.744C19.1879 27.5285 19.1045 27.326 18.9518 27.1733C18.7992 27.0228 18.5967 26.9384 18.3812 26.9384Z" fill="#3F3F3F"/>
<path d="M24.6949 21.2751C24.6776 21.2751 24.6592 21.2741 24.6408 21.2719L23.1692 21.0748C22.0886 20.9308 21.0577 20.5085 20.1849 19.8545C20.0062 19.7213 19.9705 19.4679 20.1047 19.2903C20.2379 19.1117 20.4913 19.0759 20.6689 19.2102C21.4301 19.7819 22.3321 20.1501 23.2752 20.2757L24.7468 20.4728C24.9677 20.502 25.1225 20.7056 25.0933 20.9254C25.0662 21.1268 24.8931 21.2751 24.6949 21.2751Z" fill="#3F3F3F"/>
<path d="M18.3419 18.5978C18.2682 18.5978 18.1935 18.5772 18.1264 18.535L12.187 14.7592C11.9986 14.6401 11.9434 14.3911 12.0636 14.2026C12.1827 14.0142 12.4328 13.959 12.6201 14.0792L18.5595 17.855C18.7479 17.9741 18.8031 18.2231 18.6829 18.4116C18.605 18.5317 18.4751 18.5978 18.3419 18.5978Z" fill="#3F3F3F"/>
<path d="M13.2287 23.7127C13.1259 23.7127 13.0219 23.6737 12.944 23.5947L12.1178 22.7685C11.9607 22.6115 11.9607 22.3559 12.1178 22.1978C12.2748 22.0408 12.5303 22.0408 12.6884 22.1978L13.5146 23.024C13.6716 23.1811 13.6716 23.4366 13.5146 23.5947C13.4345 23.6727 13.3316 23.7127 13.2287 23.7127Z" fill="#3F3F3F"/>
<path d="M31.2854 18.2877C31.175 18.2877 31.0645 18.2422 30.9855 18.1534C30.8371 17.9877 30.8512 17.7322 31.0169 17.5838L37.1306 12.1027C37.2963 11.9543 37.5518 11.9684 37.7002 12.1341C37.8485 12.2997 37.8344 12.5553 37.6688 12.7036L31.5551 18.1848C31.4782 18.2541 31.3818 18.2877 31.2854 18.2877Z" fill="#3F3F3F"/>
<path d="M36.3441 23.345C36.2532 23.345 36.1611 23.3147 36.0864 23.2519C35.9153 23.109 35.8926 22.8556 36.0344 22.6845L37.0902 21.4187C37.2331 21.2476 37.4876 21.2249 37.6576 21.3667C37.8287 21.5096 37.8514 21.763 37.7096 21.9341L36.6538 23.1999C36.5748 23.2963 36.46 23.345 36.3441 23.345Z" fill="#3F3F3F"/>
<defs>
<linearGradient id="paint0_linear_1808_11" x1="96.1509" y1="25.1622" x2="20.4141" y2="60.9069" gradientUnits="userSpaceOnUse">
<stop stop-color="#04BFD7"/>
<stop offset="1" stop-color="#63388B"/>
</linearGradient>
</defs>
</svg>
