<svg width="49" height="49" viewBox="0 0 49 49" fill="none" xmlns="http://www.w3.org/2000/svg">
<rect width="49" height="49" rx="5" fill="url(#paint0_linear_1808_6)" fill-opacity="0.3"/>
<path d="M20.2266 24.5633C20.2266 27.3209 22.4697 29.564 25.2273 29.564C31.8605 29.2898 31.8593 19.8367 25.2273 19.5625C22.4697 19.5625 20.2266 21.8056 20.2266 24.5633ZM28.9776 24.5633C28.9776 26.6318 27.2958 28.3136 25.2273 28.3136C20.2641 28.1378 20.2653 20.9876 25.2273 20.813C27.2958 20.813 28.9776 22.4948 28.9776 24.5633Z" fill="#3F3F3F"/>
<path d="M23.5277 24.5564C22.9288 24.002 22.0792 24.9103 22.6757 25.4705L23.8957 26.6073C24.0164 26.7198 24.1688 26.7749 24.3223 26.7749C24.4817 26.7749 24.6423 26.714 24.7642 26.5921L27.3706 23.9856C27.9449 23.4067 27.0683 22.5254 26.487 23.102L24.3083 25.2806L23.5289 24.5552L23.5277 24.5564Z" fill="#3F3F3F"/>
<path d="M34.6864 15.0178C30.0958 14.7705 27.5141 13.2692 26.3866 12.3996C25.7045 11.8664 24.7505 11.8664 24.0649 12.402C23.5985 12.77 22.7699 13.3196 21.4737 13.8447C21.1538 13.9736 20.9991 14.338 21.1292 14.6592C21.2581 14.9791 21.6226 15.1326 21.9425 15.0037C23.3758 14.4236 24.3087 13.8024 24.8361 13.3852C25.0658 13.2059 25.3869 13.2059 25.6201 13.3876C26.8659 14.3486 29.6914 16.0022 34.6232 16.2671C34.949 16.2823 35.2033 16.5495 35.2033 16.8742V23.5497C35.2115 28.3677 32.4199 32.6733 28.1117 34.4291C27.6687 34.6248 26.5319 35.1405 25.5252 35.6784C25.34 35.7757 25.1173 35.7757 24.9345 35.6807C23.2738 34.79 22.498 34.5451 21.2427 33.9076C17.5464 31.907 15.2504 27.9386 15.2504 23.5499V16.8744C15.2504 16.5498 15.5047 16.2825 15.8352 16.2673C17.1431 16.1935 18.3631 16.0259 19.46 15.7704C19.7964 15.6919 20.0062 15.3556 19.9265 15.0192C19.848 14.6828 19.5104 14.4742 19.1764 14.5528C18.1486 14.7918 17.0013 14.9489 15.7697 15.018C14.777 15.0649 14 15.8806 14 16.8732V23.5487C13.9906 28.8531 17.0753 33.6172 21.8357 35.5706C22.2658 35.7617 23.3698 36.2609 24.3484 36.7836C24.9004 37.0731 25.5567 37.0719 26.1099 36.7813C27.0838 36.2598 28.1877 35.7605 28.6214 35.5683C33.3782 33.6135 36.4631 28.8529 36.4535 23.5476V16.8721C36.4535 15.8783 35.6753 15.0638 34.6873 15.0169L34.6864 15.0178Z" fill="#3F3F3F"/>
<path d="M31.3322 28.5439C31.1517 28.8381 31.2443 29.2236 31.5384 29.403C31.8338 29.5834 32.2182 29.4897 32.3975 29.1967C33.423 27.5231 33.9656 25.5706 33.9656 23.5503V18.0374C33.9656 17.7162 33.723 17.4479 33.403 17.415C29.5579 17.0283 27.0195 15.8177 25.5685 14.8695C25.3611 14.7336 25.0927 14.7336 24.8853 14.8695C23.4333 15.8177 20.8959 17.0283 17.0508 17.415C16.732 17.4479 16.4883 17.7162 16.4883 18.0374V23.5503C16.4883 27.4812 18.5345 31.0322 21.8371 32.824C22.8766 33.3361 23.7122 33.6596 24.9462 34.2912C25.1232 34.3803 25.3318 34.3803 25.5088 34.2912C26.3959 33.8471 27.1237 33.5072 27.7472 33.2353C28.4551 32.9271 31.6592 31.332 30.7287 30.4132C30.4884 30.1624 30.0935 30.1554 29.845 30.3945C28.4762 31.7423 27.0054 32.1302 25.2262 33.0349C24.4398 32.6482 23.7917 32.3446 23.2139 32.0938C19.8597 30.7051 17.7409 27.331 17.7373 23.5513V18.5973C21.2473 18.1614 23.6966 17.0691 25.2262 16.1339C26.7556 17.0691 29.2051 18.1614 32.715 18.5973V23.5513C32.715 25.3409 32.2369 27.0672 31.3322 28.5439Z" fill="#3F3F3F"/>
<defs>
<linearGradient id="paint0_linear_1808_6" x1="96.1509" y1="25.1622" x2="20.4141" y2="60.9069" gradientUnits="userSpaceOnUse">
<stop stop-color="#04BFD7"/>
<stop offset="1" stop-color="#63388B"/>
</linearGradient>
</defs>
</svg>
