<svg width="49" height="49" viewBox="0 0 49 49" fill="none" xmlns="http://www.w3.org/2000/svg">
<rect width="49" height="49" rx="5" fill="url(#paint0_linear_1808_10)" fill-opacity="0.3"/>
<path d="M36.4279 22.4971C35.665 21.7491 34.427 21.7491 33.6641 22.4971L30.7162 25.3871C30.6638 25.3095 30.6114 25.2319 30.5579 25.1553C30.2155 24.7682 29.7415 24.5363 29.1894 24.5101H20.1339C19.371 24.5101 18.6338 24.8196 18.1073 25.3357L15.6335 27.8649L15.4227 27.6583C14.633 26.9355 13.4218 26.9355 12.632 27.6583C11.8166 28.4073 11.7899 29.6452 12.5538 30.4456L18.6604 36.4325C19.0552 36.8196 19.5816 37 20.0813 37C20.6078 37 21.1075 36.7933 21.5023 36.4325C22.292 35.6583 22.292 34.3942 21.5023 33.6201L21.345 33.4648L23.5557 31.3227C23.8981 30.987 24.3721 30.8066 24.845 30.8066H29.5038C30.2667 30.8066 30.9783 30.5223 31.5304 29.981L36.4269 25.1805C37.1909 24.4587 37.1909 23.2197 36.4279 22.4971ZM20.8185 35.736C20.4504 36.0969 19.7656 36.0969 19.3975 35.736L13.29 29.7742C12.8951 29.3871 12.9219 28.742 13.3167 28.3811C13.5008 28.2006 13.764 28.0968 14.0015 28.0968C14.238 28.0968 14.5012 28.1744 14.6863 28.3549L20.8186 34.3427C21.0027 34.5232 21.1086 34.7812 21.1086 35.0393C21.1086 35.3226 21.0026 35.5556 20.8185 35.736ZM35.7175 24.4839L30.821 29.2844C30.4786 29.6201 30.0046 29.8268 29.5049 29.8268H24.8716C24.1087 29.8268 23.3972 30.111 22.8707 30.6272L20.6343 32.7683L16.3435 28.5616L18.8442 26.0586C19.1866 25.7229 19.6606 25.5162 20.1335 25.5162H29.1624C29.3989 25.5424 29.6364 25.6453 29.7937 25.8257C29.952 26.0062 30.0302 26.239 30.0302 26.4709C30.0034 26.9094 29.6353 27.2713 29.2138 27.2965L24.3986 27.2975C24.1086 27.2975 23.8989 27.5293 23.8989 27.7874C23.8989 28.0717 24.1354 28.2773 24.3986 28.2773H29.2414C30.2151 28.2259 30.9791 27.4517 31.0315 26.5222V26.4708C31.0315 26.4708 31.0583 26.4708 31.0583 26.4446L34.4009 23.1675C34.769 22.8066 35.3746 22.8066 35.717 23.1675C35.9011 23.3479 35.9803 23.5808 35.9803 23.8126C35.9803 24.0969 35.9011 24.3035 35.717 24.484L35.7175 24.4839ZM19.5551 19.9941C19.6342 20.0455 19.7134 20.0717 19.8183 20.0717C20.0023 20.0717 20.1607 19.9941 20.2655 19.8137L20.5555 19.3489C21.0028 20.5364 21.8449 21.5163 22.977 22.1613C23.8458 22.6512 24.7928 22.9093 25.7676 22.9093C26.2417 22.9093 26.7157 22.8579 27.1886 22.7289C30.1633 21.9547 31.9267 18.9869 31.137 16.0705C30.7689 14.6512 29.8476 13.4899 28.5572 12.742C27.2678 12.0193 25.7665 11.8126 24.3456 12.1745C22.8979 12.5354 21.7134 13.4386 20.9506 14.7037C20.8189 14.9356 20.8981 15.2461 21.1346 15.3751C21.3711 15.5041 21.6878 15.4265 21.8194 15.1947C22.425 14.1624 23.4255 13.4396 24.5833 13.1302C25.7678 12.8207 26.979 13.0011 28.032 13.5949C29.085 14.1886 29.8221 15.1695 30.1378 16.3046C30.7691 18.6785 29.3214 21.1301 26.8999 21.7502C25.7154 22.0597 24.5041 21.8792 23.4511 21.2855C22.5823 20.7956 21.9242 20.0466 21.5561 19.1434L22.0034 19.4014C22.2399 19.5305 22.5566 19.4528 22.6882 19.221C22.8198 18.9891 22.7406 18.6786 22.5042 18.5496L20.5032 17.4145L19.3712 19.3238C19.2396 19.5294 19.3186 19.8389 19.5551 19.9941ZM24.7148 18.1877C24.4248 18.1877 24.2151 18.4195 24.2151 18.6776V18.9094C24.2151 19.606 24.7682 20.1997 25.452 20.2774V20.484C25.452 20.7683 25.6885 20.9739 25.9517 20.9739C26.2417 20.9739 26.4514 20.7421 26.4514 20.484V20.2522C26.8987 20.1745 27.2678 19.9165 27.4775 19.5294C27.6359 19.1937 27.6616 18.8328 27.5567 18.4709C27.4251 18.11 27.1886 17.8257 26.8462 17.6705L25.4509 16.9739C25.3193 16.8963 25.2401 16.7673 25.2401 16.6131V16.355C25.2401 16.1483 25.4242 15.9679 25.635 15.9679H26.2139C26.4246 15.9679 26.6087 16.1483 26.6087 16.355V16.6393C26.6087 16.9236 26.8452 17.1292 27.1084 17.1292C27.3716 17.1292 27.6081 16.8973 27.6081 16.6393V16.355C27.6081 15.6836 27.1084 15.1161 26.4503 14.987V14.7552C26.4503 14.4709 26.2139 14.2653 25.9506 14.2653C25.6607 14.2653 25.4509 14.4971 25.4509 14.7552V14.9618C24.7661 15.0395 24.214 15.6332 24.214 16.3298V16.5879C24.214 17.104 24.504 17.5939 25.0037 17.8268L26.399 18.5233C26.6097 18.6262 26.6889 18.859 26.583 19.0657C26.5038 19.1947 26.3722 19.2723 26.2149 19.2723H25.636C25.4253 19.2723 25.2412 19.0919 25.2412 18.8852V18.6534C25.2412 18.3943 25.0037 18.1877 24.7148 18.1877Z" fill="#3F3F3F"/>
<defs>
<linearGradient id="paint0_linear_1808_10" x1="96.1509" y1="25.1622" x2="20.4141" y2="60.9069" gradientUnits="userSpaceOnUse">
<stop stop-color="#04BFD7"/>
<stop offset="1" stop-color="#63388B"/>
</linearGradient>
</defs>
</svg>
