<svg width="49" height="49" viewBox="0 0 49 49" fill="none" xmlns="http://www.w3.org/2000/svg">
<rect width="49" height="49" rx="5" fill="url(#paint0_linear_1808_9)" fill-opacity="0.3"/>
<path fill-rule="evenodd" clip-rule="evenodd" d="M14.6965 12C14.7039 12 14.7114 12 14.7188 12H19.25C19.6815 12 20.0313 12.3498 20.0313 12.7813C20.0313 13.2127 19.6815 13.5625 19.25 13.5625H15.6674L19.8024 17.6975C20.1075 18.0026 20.1075 18.4973 19.8024 18.8024C19.4973 19.1075 19.0027 19.1075 18.6976 18.8024L14.5625 14.6673V18.25C14.5625 18.6815 14.2127 19.0313 13.7813 19.0313C13.3498 19.0313 13 18.6815 13 18.25V13.7188C13 13.7114 13 13.7039 13 13.6965C13 13.552 13 13.4005 13.0106 13.2703C13.0225 13.1243 13.0516 12.9377 13.149 12.7465C13.2801 12.4893 13.4893 12.2801 13.7465 12.149C13.9377 12.0516 14.1243 12.0225 14.2703 12.0106C14.4005 12 14.552 12 14.6965 12ZM36.4375 14.6673V18.25C36.4375 18.6815 36.7873 19.0313 37.2187 19.0313C37.6502 19.0313 38 18.6815 38 18.25V13.6965C38 13.552 38.0001 13.4005 37.9894 13.2703C37.9775 13.1243 37.9484 12.9377 37.851 12.7465C37.7199 12.4893 37.5108 12.2801 37.2535 12.149C37.0623 12.0516 36.8757 12.0225 36.7297 12.0106C36.5995 12 36.448 12 36.3035 12H31.75C31.3185 12 30.9687 12.3498 30.9687 12.7813C30.9687 13.2127 31.3185 13.5625 31.75 13.5625H35.3326L31.1976 17.6975C30.8925 18.0026 30.8925 18.4973 31.1976 18.8024C31.5027 19.1075 31.9973 19.1075 32.3024 18.8024L36.4375 14.6673ZM24.0637 19.8125H26.9364C27.3482 19.8125 27.7035 19.8125 27.9961 19.8364C28.305 19.8616 28.6122 19.9173 28.9078 20.068C29.3488 20.2927 29.7073 20.6512 29.9321 21.0922C30.0827 21.3878 30.1384 21.695 30.1636 22.0039C30.1875 22.2965 30.1875 22.6518 30.1875 23.0636V25.9364C30.1875 26.3482 30.1875 26.7035 30.1636 26.9961C30.1384 27.305 30.0827 27.6122 29.9321 27.9078C29.7073 28.3488 29.3488 28.7073 28.9078 28.9321C28.6122 29.0827 28.305 29.1384 27.9961 29.1636C27.7035 29.1875 27.3482 29.1875 26.9364 29.1875H24.0636C23.6518 29.1875 23.2965 29.1875 23.0039 29.1636C22.695 29.1384 22.3878 29.0827 22.0922 28.9321C21.6512 28.7073 21.2927 28.3488 21.068 27.9078C20.9173 27.6122 20.8616 27.305 20.8364 26.9961C20.8125 26.7035 20.8125 26.3482 20.8125 25.9364V23.0637C20.8125 22.6518 20.8125 22.2965 20.8364 22.0039C20.8616 21.695 20.9173 21.3878 21.068 21.0922C21.2927 20.6512 21.6512 20.2927 22.0922 20.068C22.3878 19.9173 22.695 19.8616 23.0039 19.8364C23.2965 19.8125 23.6518 19.8125 24.0637 19.8125ZM23.1311 21.3937C22.9189 21.4111 22.8402 21.4405 22.8016 21.4602C22.6546 21.535 22.535 21.6546 22.4602 21.8016C22.4405 21.8402 22.4111 21.9189 22.3937 22.1311C22.3756 22.3525 22.375 22.6433 22.375 23.0938V25.9062C22.375 26.3567 22.3756 26.6475 22.3937 26.8689C22.4111 27.0811 22.4405 27.1598 22.4602 27.1984C22.535 27.3454 22.6546 27.465 22.8016 27.5398C22.8402 27.5595 22.9189 27.589 23.1311 27.6063C23.3525 27.6244 23.6433 27.625 24.0938 27.625H26.9062C27.3567 27.625 27.6475 27.6244 27.8689 27.6063C28.0811 27.589 28.1598 27.5595 28.1984 27.5398C28.3454 27.465 28.465 27.3454 28.5398 27.1984C28.5595 27.1598 28.589 27.0811 28.6063 26.8689C28.6244 26.6475 28.625 26.3567 28.625 25.9062V23.0938C28.625 22.6433 28.6244 22.3525 28.6063 22.1311C28.589 21.9189 28.5595 21.8402 28.5398 21.8016C28.465 21.6546 28.3454 21.535 28.1984 21.4602C28.1598 21.4405 28.0811 21.4111 27.8689 21.3937C27.6475 21.3756 27.3567 21.375 26.9062 21.375H24.0938C23.6433 21.375 23.3525 21.3756 23.1311 21.3937ZM13 30.75C13 30.3185 13.3498 29.9687 13.7813 29.9687C14.2127 29.9687 14.5625 30.3185 14.5625 30.75V34.3327L18.6976 30.1976C19.0027 29.8925 19.4973 29.8925 19.8024 30.1976C20.1075 30.5027 20.1075 30.9973 19.8024 31.3024L15.6673 35.4375H19.25C19.6815 35.4375 20.0313 35.7873 20.0313 36.2187C20.0313 36.6502 19.6815 37 19.25 37H14.6965C14.552 37 14.4005 37.0001 14.2703 36.9894C14.1243 36.9775 13.9377 36.9484 13.7465 36.851C13.4893 36.7199 13.2801 36.5107 13.149 36.2535C13.0516 36.0623 13.0225 35.8757 13.0106 35.7297C13 35.5995 13 35.448 13 35.3035V30.75ZM37.2187 29.9687C37.6502 29.9687 38 30.3185 38 30.75V35.3035C38 35.4481 38.0001 35.5995 37.9894 35.7297C37.9775 35.8757 37.9484 36.0623 37.851 36.2535C37.7199 36.5107 37.5108 36.7199 37.2535 36.851C37.0623 36.9484 36.8757 36.9775 36.7297 36.9894C36.5995 37.0001 36.4481 37 36.3035 37H31.75C31.3185 37 30.9687 36.6502 30.9687 36.2187C30.9687 35.7873 31.3185 35.4375 31.75 35.4375H35.3327L31.1976 31.3024C30.8925 30.9973 30.8925 30.5027 31.1976 30.1976C31.5027 29.8925 31.9973 29.8925 32.3024 30.1976L36.4375 34.3327V30.75C36.4375 30.3185 36.7873 29.9687 37.2187 29.9687Z" fill="#3F3F3F"/>
<defs>
<linearGradient id="paint0_linear_1808_9" x1="96.1509" y1="25.1622" x2="20.4141" y2="60.9069" gradientUnits="userSpaceOnUse">
<stop stop-color="#04BFD7"/>
<stop offset="1" stop-color="#63388B"/>
</linearGradient>
</defs>
</svg>
