<svg width="49" height="49" viewBox="0 0 49 49" fill="none" xmlns="http://www.w3.org/2000/svg">
<rect width="49" height="49" rx="5" fill="url(#paint0_linear_1808_8)" fill-opacity="0.3"/>
<path d="M39.7758 35.6258L37.2117 27.939V13.5489C37.2117 12.696 36.5183 12 35.6627 12H15.1664C14.3135 12 13.6175 12.6933 13.6175 13.5489V27.9375L11.0534 35.6258C10.9474 35.9421 11.0011 36.2943 11.1978 36.5667C11.3945 36.8377 11.7123 37 12.0466 37L21.8931 36.9986H38.7827C39.117 36.9986 39.4348 36.8363 39.6315 36.5653C39.8282 36.2984 39.8803 35.9463 39.7758 35.6258ZM14.6739 13.5489C14.6739 13.2779 14.8954 13.0565 15.1664 13.0565H24.9249C24.9043 13.1129 24.8932 13.1693 24.8932 13.2325C24.8932 13.5242 25.1326 13.7608 25.4215 13.7608C25.7103 13.7608 25.9497 13.5242 25.9497 13.2325C25.9497 13.1693 25.9359 13.1129 25.9181 13.0565H35.6629C35.9338 13.0565 36.1553 13.2779 36.1553 13.5489V27.4949H14.674L14.6739 13.5489ZM33.9473 31.7207H16.8816L17.4098 28.5513H33.419L33.9473 31.7207ZM27.8518 34.8901L28.204 35.9466H22.6245L22.9766 34.8901H27.8518ZM29.3196 35.9507L28.8093 34.4155C28.6937 34.0675 28.365 33.8309 27.999 33.8309L22.8337 33.8295C22.4636 33.8295 22.1403 34.0661 22.0234 34.4141L21.509 35.9534L12.0572 35.9576L14.5264 28.5486H16.3394L15.8002 31.7785C15.7575 32.0289 15.8277 32.2792 15.99 32.4718C16.1523 32.6658 16.3917 32.7745 16.642 32.7745L34.1825 32.7731C34.4328 32.7731 34.6722 32.6644 34.8345 32.4705C34.9968 32.2765 35.067 32.0262 35.0243 31.7771L34.4851 28.5472H36.2981L38.777 35.9424L29.3196 35.9507ZM28.6648 21.9346L31.4284 20.2757L28.6607 18.6167C28.4103 18.4654 28.3292 18.1407 28.4805 17.8918C28.6318 17.6414 28.9565 17.5603 29.2054 17.7116L32.727 19.8245C32.8852 19.9194 32.9842 20.0927 32.9842 20.2784C32.9842 20.4655 32.8852 20.6375 32.727 20.7324L29.2054 22.8453C29.1215 22.8976 29.0252 22.9196 28.9345 22.9196C28.7542 22.9196 28.5782 22.8274 28.4805 22.6624C28.3333 22.4093 28.4145 22.086 28.6648 21.9346ZM17.8432 20.2757C17.8432 20.0886 17.9422 19.9167 18.1004 19.8217L21.6219 17.7088C21.8723 17.5575 22.1955 17.6386 22.3469 17.889C22.4982 18.1394 22.417 18.4626 22.1667 18.6139L19.4003 20.2757L22.168 21.9346C22.4184 22.086 22.4996 22.4106 22.3482 22.6596C22.2451 22.8247 22.0731 22.9168 21.8929 22.9168C21.8007 22.9168 21.7058 22.8921 21.6219 22.8425L18.1004 20.7296C17.9422 20.6347 17.8432 20.4628 17.8432 20.2757ZM23.516 23.6005L26.3332 16.5574C26.4419 16.2864 26.7487 16.1558 27.0196 16.2617C27.2906 16.3703 27.4213 16.6771 27.3154 16.9481L24.4982 23.9912C24.417 24.1989 24.2162 24.3227 24.0085 24.3227C23.941 24.3227 23.8778 24.3117 23.8117 24.2842C23.538 24.1769 23.4073 23.8715 23.516 23.6005Z" fill="#3F3F3F"/>
<defs>
<linearGradient id="paint0_linear_1808_8" x1="96.1509" y1="25.1622" x2="20.4141" y2="60.9069" gradientUnits="userSpaceOnUse">
<stop stop-color="#04BFD7"/>
<stop offset="1" stop-color="#63388B"/>
</linearGradient>
</defs>
</svg>
