<svg width="44" height="54" viewBox="0 0 44 54" fill="none" xmlns="http://www.w3.org/2000/svg">
<path d="M32.6373 16.8566L43.368 16.8631C43.7184 16.8653 44 17.1522 44 17.5017L43.9871 38.7637L43.9828 44.8243L43.985 44.8265C43.985 45.1781 43.7012 45.4629 43.3508 45.465L29.2754 45.4564V49.1565L37.4115 49.1608C37.7619 49.1608 38.0477 49.4456 38.0499 49.7972V53.3636C38.0478 53.7152 37.7619 54 37.4115 54L6.57345 53.9827H6.5756C6.40793 53.9806 6.24671 53.9137 6.12634 53.795C6.00811 53.6764 5.94147 53.5146 5.94147 53.3463V49.78C5.94147 49.6095 6.01026 49.4499 6.12848 49.3291C6.24671 49.2104 6.40793 49.1435 6.5756 49.1435L14.7117 49.1478V45.4477L0.636253 45.4391V45.4413C0.285868 45.4413 0 45.1543 0 44.8027L0.00429919 38.7399L0.0171968 17.4779H0.0150472C0.0150472 17.124 0.300943 16.8371 0.653501 16.8371L11.3843 16.8435H11.3821C11.4036 16.7421 11.4144 16.6407 11.4122 16.5372C11.4079 16.2847 11.3434 16.0388 11.2274 15.8166L11.107 15.5792C10.7437 14.8694 10.8791 14.0043 11.4445 13.4433L12.889 11.9892C13.1641 11.7152 13.5188 11.5339 13.9014 11.4714C14.2841 11.411 14.6775 11.4735 15.0214 11.6548L15.2578 11.7756V11.7734C15.4792 11.8921 15.7243 11.9547 15.9758 11.9611C16.2273 11.959 16.4745 11.9007 16.6981 11.7864C16.9388 11.6655 17.1753 11.5577 17.416 11.4584C17.6568 11.3592 17.9019 11.2664 18.1555 11.178V11.1801C18.392 11.1024 18.6091 10.9708 18.7854 10.7939C18.9595 10.6127 19.0906 10.3948 19.1637 10.1553L19.2475 9.90291V9.90075C19.4883 9.13916 20.1955 8.62352 20.993 8.62782H23.0372C23.8304 8.62567 24.5355 9.14346 24.7741 9.9029L24.8579 10.1553V10.1575C25.0041 10.6472 25.3846 11.0334 25.8725 11.1845C26.1219 11.2708 26.367 11.3657 26.6077 11.4649C26.8484 11.5642 27.087 11.6721 27.3257 11.795C27.5492 11.9072 27.7964 11.9676 28.0479 11.9698C28.2994 11.9633 28.5445 11.9008 28.7659 11.7821L29.0067 11.6613V11.6634C29.3506 11.4822 29.7418 11.4196 30.1244 11.4822C30.507 11.5448 30.8596 11.726 31.1347 12L32.5835 13.4541H32.5814C32.8565 13.7281 33.0371 14.0841 33.0973 14.466C33.1553 14.8522 33.093 15.2449 32.9167 15.5901L32.7942 15.8274C32.6781 16.0496 32.6158 16.2977 32.6093 16.548C32.6093 16.6516 32.6179 16.7551 32.6394 16.8544L32.6373 16.8566ZM25.55 24.8956C25.4339 25.0337 25.2684 25.1178 25.09 25.1243C24.9094 25.1329 24.7375 25.0639 24.6106 24.9388C24.4838 24.8115 24.4172 24.6367 24.4236 24.4576C24.4322 24.2786 24.516 24.1103 24.6515 23.9959L26.2787 22.3649L24.6536 20.7274C24.5182 20.6109 24.4344 20.4448 24.4279 20.2635C24.4193 20.0845 24.4859 19.9097 24.6128 19.7846C24.7396 19.6573 24.9137 19.5882 25.0921 19.5969C25.2705 19.6055 25.4382 19.6875 25.5521 19.8256L27.6286 21.9118C27.7469 22.0305 27.8156 22.1923 27.8156 22.3627C27.8156 22.531 27.7469 22.6928 27.6286 22.8137L25.55 24.8956ZM23.7143 18.3733C23.8884 18.0691 24.2731 17.9655 24.5763 18.1403C24.8793 18.3151 24.9825 18.7034 24.8084 19.0054L20.3007 26.8329C20.1266 27.1393 19.7397 27.245 19.4366 27.0681C19.1313 26.8933 19.026 26.505 19.2001 26.2008L23.7143 18.3733ZM19.3592 23.9915H19.357C19.4946 24.108 19.5784 24.2741 19.587 24.4553C19.5956 24.6344 19.5268 24.8092 19.4 24.9365C19.2732 25.0637 19.0991 25.1306 18.9207 25.122C18.7422 25.1134 18.5746 25.0314 18.4606 24.8911L16.382 22.807C16.137 22.5568 16.137 22.1555 16.382 21.9052L18.4606 19.8211C18.7143 19.6097 19.0862 19.6269 19.3205 19.8621C19.5526 20.0951 19.5698 20.4705 19.357 20.7229L17.7298 22.3561L19.3592 23.9915ZM22.5965 2.26772C22.5965 1.40903 23.0801 0.623694 23.8453 0.239668C24.6106 -0.144364 25.5263 -0.0623835 26.2121 0.45326C26.8956 0.968898 27.231 1.82759 27.0783 2.6733C26.9257 3.51686 26.3109 4.20294 25.4898 4.44458V7.57081C25.4898 7.92464 25.2039 8.21161 24.8513 8.21161C24.501 8.21161 24.2151 7.92466 24.2151 7.57081V4.44458C23.8518 4.33671 23.5229 4.14038 23.2542 3.87067C22.8307 3.44565 22.5943 2.86959 22.5943 2.26768L22.5965 2.26772ZM24.1549 1.56871C23.97 1.75425 23.8668 2.00452 23.8647 2.26772C23.8647 2.53093 23.9679 2.78336 24.1527 2.96889C24.3376 3.15443 24.5891 3.26015 24.8513 3.26015C25.3952 3.25799 25.8359 2.81786 25.838 2.26984C25.8359 1.72616 25.3974 1.28384 24.8535 1.27953C24.5912 1.27953 24.3397 1.38316 24.1549 1.56871ZM16.9279 2.26772C16.9279 1.41119 17.4094 0.625848 18.1746 0.243976C18.9377 -0.140056 19.8534 -0.0580754 20.5349 0.457568C21.2185 0.971052 21.5538 1.82975 21.4011 2.6733C21.2507 3.51686 20.6359 4.20079 19.8169 4.44028V7.56866C19.832 7.74773 19.7718 7.92464 19.6514 8.05625C19.5289 8.18785 19.359 8.26337 19.1806 8.26337C19.0022 8.26337 18.8324 8.18785 18.712 8.05625C18.5916 7.92464 18.5314 7.74773 18.5465 7.56866V4.44028C17.5835 4.15764 16.9236 3.27091 16.9236 2.26552L16.9279 2.26772ZM18.4863 1.57086V1.56871C18.2993 1.75425 18.1961 2.00452 18.1961 2.26772C18.1939 2.66901 18.4326 3.03146 18.8023 3.18683C19.1721 3.3422 19.5976 3.25587 19.8792 2.97108C20.0641 2.78554 20.1694 2.53311 20.1694 2.26776C20.1673 1.72407 19.7266 1.28177 19.1849 1.27961C18.9226 1.27961 18.669 1.38533 18.4841 1.57087L18.4863 1.57086ZM33.888 6.55895C33.8923 6.1555 33.6516 5.79306 33.2818 5.63984C32.9121 5.4845 32.4865 5.5708 32.2049 5.85559C31.9749 6.0886 31.8739 6.42298 31.9383 6.74449C32.0028 7.06811 32.2221 7.33779 32.5252 7.4651C32.8283 7.59023 33.1744 7.55787 33.4474 7.37664C33.7225 7.19325 33.8859 6.88691 33.888 6.55895ZM34.5007 4.95596H34.4985C34.9435 5.37667 35.2014 5.95919 35.2101 6.57193C35.2187 7.18467 34.9801 7.77582 34.548 8.20944C34.1159 8.6431 33.5269 8.8804 32.9165 8.86963C32.3038 8.85884 31.7234 8.6021 31.3064 8.15333C31.0377 7.8858 30.8421 7.55357 30.7368 7.18893H29.4771V10.1058C29.4921 10.2827 29.4319 10.4597 29.3116 10.5913C29.189 10.725 29.0192 10.7984 28.8408 10.7984C28.6624 10.7984 28.4926 10.725 28.3722 10.5913C28.2518 10.4597 28.1916 10.2827 28.2067 10.1058V6.55244C28.2045 6.38415 28.2712 6.22234 28.3915 6.10152C28.5098 5.9807 28.671 5.91382 28.8408 5.91382H30.7389H30.7367C30.8421 5.5492 31.0398 5.21696 31.3085 4.94942C32.1899 4.06698 33.6172 4.06698 34.4986 4.94942L34.5007 4.95596ZM8.87118 6.53957C8.87763 5.41549 9.70092 4.46622 10.8101 4.30655C11.9193 4.14689 12.9769 4.82651 13.295 5.90308H15.191C15.5413 5.90308 15.8272 6.19002 15.8272 6.54388V10.0951C15.8423 10.2742 15.7842 10.4511 15.6638 10.5849C15.5413 10.7165 15.3715 10.792 15.1931 10.792C15.0125 10.792 14.8427 10.7165 14.7223 10.5849C14.6019 10.4511 14.5417 10.2742 14.5589 10.0951V7.17821H13.295C12.9747 8.25694 11.9171 8.93442 10.8079 8.77474C9.70087 8.61509 8.87548 7.66364 8.87118 6.53957ZM10.4361 5.84271C10.2491 6.02825 10.1438 6.28068 10.1438 6.54172C10.1438 6.80493 10.2491 7.05736 10.4361 7.24289C10.6188 7.43059 10.8703 7.53415 11.1304 7.53415C11.3927 7.53415 11.6442 7.43059 11.829 7.24504C12.0139 7.0595 12.1192 6.80707 12.1192 6.54603C12.1192 6.28282 12.016 6.03039 11.8312 5.84486C11.6463 5.65716 11.3948 5.5536 11.1347 5.5536C10.8725 5.5536 10.6231 5.65932 10.4383 5.84486L10.4361 5.84271ZM22.0138 13.795C24.7438 13.7971 27.319 15.0744 28.9805 17.2491C30.64 19.426 31.1989 22.2523 30.4896 24.8998C29.7802 27.5471 27.8842 29.7132 25.3606 30.7594C22.837 31.8057 19.9716 31.6137 17.6092 30.2416C15.2446 28.8694 13.6518 26.4703 13.2971 23.754C12.9446 21.0356 13.8689 18.3064 15.8035 16.3712C17.4458 14.7164 19.6793 13.7887 22.0092 13.793L22.0138 13.795ZM27.3211 17.2836C24.791 14.7378 20.821 14.343 17.8395 16.3387C14.858 18.3322 13.6973 22.164 15.0665 25.4884C16.4358 28.8109 19.9526 30.7009 23.4673 30.0019C26.9819 29.3007 29.514 26.2068 29.5162 22.6102C29.5205 20.6123 28.7291 18.6968 27.3211 17.2836ZM10.8552 18.1207L1.28937 18.1164L1.27647 38.1037L42.7187 38.1274L42.7295 18.1424L33.1615 18.138C33.2389 18.3344 33.3141 18.535 33.3829 18.74C33.4603 18.9773 33.5914 19.1952 33.7677 19.3721C33.9482 19.5468 34.1653 19.6784 34.4039 19.7561L34.6597 19.8381V19.8359C35.4185 20.0776 35.9323 20.7874 35.9258 21.5878V23.6396C35.9237 24.0279 35.8033 24.4055 35.5776 24.7205C35.3476 25.0355 35.0252 25.2685 34.6554 25.385L34.3996 25.4691C33.9117 25.6158 33.5269 25.9955 33.3764 26.4853C33.2926 26.7355 33.2001 26.9815 33.0991 27.2231C33.0002 27.4647 32.8884 27.7042 32.7702 27.9437L32.7724 27.9416C32.5359 28.3968 32.5402 28.9362 32.7809 29.3892L32.9035 29.6309V29.6287C33.0776 29.9761 33.1421 30.3687 33.0819 30.7528C33.0217 31.1369 32.8411 31.4906 32.566 31.7646L31.1172 33.2188C30.5583 33.784 29.6963 33.9199 28.9891 33.5554L28.7483 33.4324V33.4302C28.299 33.1886 27.7616 33.1864 27.3081 33.4216C27.0716 33.5381 26.8309 33.6503 26.5901 33.7495C26.3494 33.8488 26.1043 33.9415 25.855 34.0257C25.6164 34.1033 25.3993 34.2371 25.223 34.414C25.0467 34.5931 24.9178 34.8132 24.8425 35.0526L24.7587 35.3094C24.5201 36.0709 23.8128 36.5866 23.0175 36.5801H20.9733C20.1779 36.5866 19.4685 36.0688 19.2299 35.3072L19.1461 35.0505C19.073 34.811 18.944 34.5909 18.7678 34.4119C18.5915 34.2328 18.3765 34.1012 18.1379 34.0235C17.8864 33.9394 17.6392 33.8466 17.3985 33.7452C17.1577 33.646 16.9212 33.5338 16.6805 33.4173L16.6826 33.4151C16.2312 33.1799 15.6917 33.1821 15.2424 33.4237L15.0059 33.5467C14.2966 33.9135 13.4346 33.7754 12.8736 33.2101L11.4312 31.756C11.156 31.482 10.9776 31.126 10.9153 30.742C10.8551 30.3558 10.9196 29.961 11.1001 29.6158L11.2205 29.3741C11.3387 29.1519 11.4011 28.906 11.4075 28.6535C11.4054 28.4011 11.3452 28.153 11.2334 27.9286C11.113 27.6913 11.0055 27.4496 10.9067 27.2123C10.8078 26.975 10.7153 26.7204 10.6272 26.4701C10.5498 26.2306 10.4187 26.0149 10.2424 25.8358C10.0619 25.6611 9.84476 25.5295 9.60399 25.4561L9.34819 25.372H9.35034C8.59368 25.1282 8.07992 24.4205 8.08422 23.6222V21.5705V21.5726C8.08207 21.1821 8.20459 20.8024 8.43245 20.4874C8.66031 20.1746 8.98275 19.9416 9.35034 19.8229L9.60614 19.7431V19.741C9.84475 19.6655 10.0619 19.5338 10.2424 19.3591C10.4187 19.1822 10.5519 18.9643 10.6272 18.727C10.696 18.522 10.7712 18.3192 10.8486 18.125L10.8552 18.1207ZM29.5823 12.8004L29.3415 12.9212C28.5355 13.344 27.5724 13.3505 26.762 12.9341C26.5578 12.8327 26.3407 12.7356 26.1193 12.6429C25.8979 12.5501 25.6851 12.4681 25.4615 12.3948H25.4637C24.5995 12.1121 23.9245 11.426 23.6537 10.5544L23.572 10.2977H23.5741C23.5376 10.1833 23.4667 10.0819 23.3699 10.0107C23.2711 9.94171 23.155 9.90719 23.0367 9.90935H20.9925C20.8721 9.90719 20.7539 9.94171 20.6572 10.0107C20.5626 10.0841 20.4917 10.1833 20.4551 10.2977L20.3713 10.5544V10.5523C20.238 10.9816 20.0037 11.3721 19.6898 11.6914C19.3717 12.0107 18.9848 12.2502 18.5591 12.3926C18.3377 12.4681 18.1185 12.5479 17.9014 12.6407C17.6843 12.7313 17.465 12.8306 17.2586 12.932L17.2608 12.9298C16.4504 13.3441 15.4895 13.3376 14.6856 12.9126L14.4448 12.7917V12.7939C14.3373 12.7356 14.2148 12.7162 14.0966 12.7356C13.9784 12.7551 13.8709 12.8112 13.787 12.8975L12.3382 14.3516H12.3404C12.1619 14.522 12.119 14.7896 12.2372 15.0075L12.3576 15.2491C12.7789 16.056 12.7853 17.0204 12.3705 17.8338C12.2694 18.0409 12.1727 18.2545 12.0803 18.4789C11.9878 18.7011 11.9061 18.9147 11.8331 19.1412C11.6912 19.5663 11.4526 19.9525 11.1345 20.2696C10.8163 20.5846 10.4272 20.8198 9.99948 20.9536L9.74368 21.0377C9.50722 21.1067 9.34815 21.329 9.35675 21.5771V23.6288C9.3503 23.8748 9.50723 24.0948 9.74368 24.1682L9.99948 24.2502V24.248C10.8658 24.522 11.5493 25.1995 11.8309 26.0668C11.9062 26.289 11.9878 26.5091 12.0781 26.727C12.1684 26.9449 12.2673 27.1671 12.3683 27.3742H12.3662C12.7789 28.1876 12.7746 29.1498 12.3511 29.9589L12.2307 30.1962C12.1749 30.3041 12.1534 30.4249 12.1727 30.5458C12.1942 30.6644 12.2501 30.7723 12.3361 30.8564L13.7849 32.3063H13.7827C13.8666 32.3926 13.9741 32.4508 14.0923 32.4724C14.2127 32.4897 14.333 32.4702 14.4405 32.4141L14.6813 32.2912V32.289C15.4873 31.8705 16.4439 31.864 17.2543 32.2761C17.4607 32.3775 17.6757 32.4789 17.8971 32.5673C18.1185 32.6558 18.3313 32.7421 18.5549 32.8176C18.9805 32.96 19.3674 33.1995 19.6834 33.5209C19.9972 33.8402 20.2316 34.2307 20.3627 34.6601L20.4465 34.9125H20.4487C20.5175 35.1498 20.7389 35.3095 20.9839 35.3052H23.0282C23.2754 35.3095 23.4946 35.1498 23.5656 34.9125L23.6472 34.6601C23.9202 33.7906 24.5952 33.1045 25.4572 32.8197C25.6786 32.7442 25.8979 32.6601 26.115 32.5695C26.3321 32.4789 26.5535 32.3796 26.7577 32.2782V32.2804C27.5703 31.8705 28.529 31.8748 29.3373 32.2976L29.578 32.4206H29.5759C29.793 32.5393 30.0617 32.4961 30.2315 32.3149L31.676 30.8672C31.8566 30.6989 31.8996 30.4271 31.7813 30.2113L31.6502 29.9632C31.2332 29.1542 31.2267 28.1941 31.6373 27.3807C31.7383 27.1736 31.8394 26.9557 31.9275 26.7334C32.0156 26.5112 32.1016 26.2976 32.1769 26.0733V26.0711C32.4585 25.2038 33.142 24.5285 34.0083 24.2566L34.2641 24.1746C34.4984 24.1034 34.6575 23.8834 34.6553 23.6374V21.5857C34.6618 21.3376 34.5006 21.1153 34.2641 21.0463L34.0083 20.9622H34.0105C33.5827 20.8262 33.1936 20.5932 32.8755 20.2761C32.5595 19.9589 32.3209 19.5727 32.1812 19.1455C32.1059 18.919 32.0221 18.6989 31.9318 18.4832C31.8415 18.2653 31.7427 18.0452 31.6416 17.8381C31.2332 17.0247 31.2396 16.0625 31.6588 15.2534L31.7813 15.0118V15.0139C31.8372 14.9061 31.8566 14.7831 31.8394 14.6644C31.82 14.5458 31.762 14.4357 31.6739 14.3537L30.2315 12.8996C30.1477 12.8154 30.0402 12.7594 29.9219 12.7378C29.8037 12.7184 29.6812 12.7378 29.5759 12.796L29.5823 12.8004ZM1.27616 39.3784L1.27401 44.1616L15.3495 44.1702L42.7157 44.1875L42.7179 39.4043L1.27616 39.3784ZM28.6341 50.4292L15.3434 50.4206L7.20505 50.4163V52.7053L36.7725 52.7226V50.4335L28.6341 50.4292ZM28.0043 45.4562L15.9837 45.4497V49.1498L28.0043 49.1563V45.4562Z" fill="#3F3F3F"/>
</svg>
