<svg width="59" height="68" viewBox="0 0 59 68" fill="none" xmlns="http://www.w3.org/2000/svg">
<path d="M4.0557 42.849H0.158203V38.9516C0.158203 38.2563 0.727029 37.6875 1.42226 37.6875H5.21441V41.6903C5.21441 42.3292 4.69462 42.849 4.0557 42.849Z" fill="#3F3D56"/>
<path d="M57.3565 5.24162H53.459V1.34413C53.459 0.648897 54.0278 0.0800781 54.723 0.0800781H58.5152V4.08291C58.5152 4.72183 57.9954 5.24162 57.3565 5.24162Z" fill="#3F3D56"/>
<path d="M30.0463 66.3388L28.6424 66.3387L27.9746 60.9238L30.0465 60.924L30.0463 66.3388Z" fill="#A0616A"/>
<path d="M30.0963 67.804L25.7793 67.8038V67.7492C25.7794 66.8212 26.5316 66.069 27.4596 66.0689L28.2483 65.4707L29.7195 66.069L30.0964 66.069L30.0963 67.804Z" fill="#2F2E41"/>
<path d="M29.1575 38.3922L28.231 41.6088C28.231 41.6088 26.2296 52.1357 26.7563 53.6104C27.283 55.0852 27.6711 64.3617 27.6711 64.3617H30.4116C30.4116 64.3617 30.7807 62.0084 30.7699 61.6543C30.7591 61.3001 31.3911 55.6118 30.5484 54.7691L34.2352 45.4994L40.0288 40.6539L37.757 37.834L29.1575 38.3922Z" fill="#2F2E41"/>
<path opacity="0.5" d="M42.5569 43.6103V41.9249L40.8715 39.6074C40.1762 39.6074 39.6074 40.1762 39.6074 40.8715V46.5597C39.6074 47.2549 40.1762 47.8238 40.8715 47.8238H46.5597C47.2549 47.8238 47.8238 47.2549 47.8238 46.5597L45.5063 44.9796H43.9263C43.1712 44.9796 42.5569 44.3653 42.5569 43.6103Z" fill="#63388B"/>
<path opacity="0.5" d="M50.6907 29.652H16.3043C15.1844 29.652 14.2734 28.7409 14.2734 27.621V15.6715C14.2734 14.5517 15.1844 13.6406 16.3043 13.6406H50.6907C51.8106 13.6406 52.7217 14.5517 52.7217 15.6715V27.621C52.7217 28.7409 51.8106 29.652 50.6907 29.652Z" fill="#63388B"/>
<path d="M35.8975 27.3881H13.4606C12.3117 27.3881 11.377 26.4534 11.377 25.3045V13.355C11.377 12.2062 12.3116 11.2715 13.4605 11.2715H47.8469C48.9958 11.2715 49.9305 12.2062 49.9305 13.3551C49.9305 21.0929 43.6353 27.3881 35.8975 27.3881ZM13.4605 11.4822C12.4278 11.4822 11.5876 12.3223 11.5876 13.355V25.3045C11.5876 26.3373 12.4278 27.1775 13.4606 27.1775H35.8975C43.5192 27.1775 49.7199 20.9768 49.7199 13.3551C49.7199 12.3223 48.8797 11.4822 47.8469 11.4822H13.4605Z" fill="#63388B"/>
<path d="M38.7406 39.7168L38.5176 36.5606L40.3028 36.1816L40.4198 39.527C40.4902 39.6012 40.5511 39.6867 40.5991 39.7829C40.8602 40.3063 40.6477 40.9423 40.1243 41.2034C39.601 41.4646 38.965 41.2521 38.7038 40.7287C38.5372 40.3949 38.564 40.0158 38.7406 39.7168Z" fill="#A0616A"/>
<path d="M35.9076 19.4785L35.2207 19.9904L36.9087 29.616L36.6619 30.2054L36.9911 30.5149L37.092 31.2552L38.4212 38.1314H40.4481C40.4184 37.8926 41.0044 37.6477 40.9748 37.3941C40.941 37.104 40.7036 36.6653 40.6698 36.3589C40.6594 36.2641 40.6489 36.1685 40.6385 36.0722C40.6231 35.931 40.6077 35.7883 40.5923 35.6443C40.5804 35.5328 40.5684 35.4205 40.5565 35.3076C40.2973 32.862 40.1908 30.11 40.0411 27.7337C39.8503 24.7043 39.5893 22.2853 38.8526 21.8901L35.9076 19.4785Z" fill="#3F3D56"/>
<path d="M41.0319 66.1744C41.2495 66.188 41.3698 65.9177 41.2051 65.7601L41.1888 65.695C41.1909 65.6897 41.1931 65.6845 41.1953 65.6793C41.4153 65.1546 42.1612 65.1582 42.3794 65.6837C42.5731 66.1502 42.8197 66.6174 42.8804 67.1106C42.9076 67.3283 42.8953 67.5501 42.847 67.7638C43.3008 66.7725 43.5397 65.69 43.5397 64.6015C43.5397 64.3279 43.5247 64.0544 43.4941 63.7816C43.4689 63.5585 43.4342 63.3367 43.3893 63.1169C43.1464 61.929 42.6205 60.7975 41.8619 59.8525C41.4972 59.6532 41.1931 59.3416 41.0094 58.9681C40.9434 58.8333 40.8917 58.6884 40.8672 58.5408C40.9087 58.5462 41.0237 57.9142 40.9924 57.8754C41.0502 57.7876 41.1537 57.744 41.2169 57.6584C41.531 57.2324 41.9639 57.3068 42.1898 57.8856C42.6725 58.1292 42.6772 58.5332 42.381 58.9218C42.1926 59.169 42.1667 59.5035 42.0014 59.7682C42.0184 59.7899 42.0361 59.811 42.0531 59.8328C42.365 60.2329 42.6347 60.6629 42.8622 61.1146C42.7979 60.6125 42.8928 60.0077 43.0546 59.6178C43.2387 59.1736 43.5839 58.7994 43.8878 58.4154C44.2529 57.9541 45.0016 58.1554 45.0659 58.7402C45.0665 58.7458 45.0671 58.7515 45.0677 58.7571C45.0226 58.7826 44.9784 58.8097 44.9352 58.8382C44.6887 59.0012 44.7739 59.3832 45.0659 59.4283L45.0725 59.4293C45.0562 59.5919 45.0283 59.7532 44.9875 59.9117C45.3774 61.4197 44.5356 61.9689 43.3335 61.9936C43.307 62.0072 43.2811 62.0208 43.2546 62.0338C43.3764 62.3767 43.4737 62.7284 43.5458 63.0849C43.6104 63.3999 43.6553 63.7183 43.6805 64.0381C43.7118 64.4416 43.7091 64.8471 43.675 65.2498L43.6771 65.2355C43.7635 64.792 44.0043 64.3776 44.354 64.0905C44.875 63.6625 45.611 63.505 46.173 63.161C46.4436 62.9954 46.7903 63.2094 46.743 63.523L46.7407 63.538C46.6571 63.5721 46.5754 63.6115 46.4965 63.6557C46.4514 63.6812 46.4071 63.7083 46.3639 63.7368C46.1175 63.8998 46.2027 64.2819 46.4947 64.3269L46.5013 64.3279C46.506 64.3286 46.5101 64.3293 46.5149 64.33C46.3713 64.6708 46.1713 64.9872 45.9209 65.26C45.6771 66.5765 44.6299 66.7014 43.5097 66.318H43.509C43.3866 66.8514 43.2076 67.3726 42.9777 67.8692H41.0795C41.0727 67.8481 41.0665 67.8264 41.0604 67.8053C41.2359 67.8162 41.4128 67.806 41.5857 67.774C41.4448 67.6012 41.304 67.427 41.1631 67.2542C41.1597 67.2508 41.157 67.2474 41.1543 67.244C41.0829 67.1555 41.0107 67.0678 40.9393 66.9793L40.9393 66.9792C40.9348 66.7077 40.9674 66.437 41.0319 66.1744Z" fill="#F2F2F2"/>
<path d="M19.8008 67.8754C19.8008 67.9449 19.8566 68.0007 19.9261 68.0007H46.6071C46.6766 68.0007 46.7325 67.9449 46.7325 67.8754C46.7325 67.8058 46.6766 67.75 46.6071 67.75H19.9261C19.8566 67.75 19.8008 67.8058 19.8008 67.8754Z" fill="#CCCCCC"/>
<path d="M2.39011 0C1.07009 0 0 1.07009 0 2.39011V42.8724H0.210675V16.6096C0.210675 7.55271 7.55271 0.210675 16.6096 0.210675L58.5007 0.172367L58.4624 0H2.39011Z" fill="#3F3D56"/>
<path d="M19.9094 26.9671C19.9094 27.1083 19.9052 27.2494 19.8979 27.3885H13.4607C12.3683 27.3885 11.4824 26.5026 11.4824 25.4102V19.4292C11.7595 19.3986 12.0407 19.3828 12.3251 19.3828C16.5134 19.3828 19.9094 22.7789 19.9094 26.9671Z" fill="#63388B"/>
<path d="M43.7741 19.2773H23.1944C22.8437 19.2773 22.5586 19.5624 22.5586 19.9132C22.5586 20.2639 22.8437 20.549 23.1944 20.549H43.7741C44.1248 20.549 44.4099 20.2639 44.4099 19.9132C44.4099 19.5624 44.1248 19.2773 43.7741 19.2773Z" fill="#63388B"/>
<path d="M29.5752 15.7109H23.1944C22.8437 15.7109 22.5586 15.996 22.5586 16.3468C22.5586 16.6975 22.8437 16.9826 23.1944 16.9826H29.5752C29.9259 16.9826 30.211 16.6975 30.211 16.3468C30.211 15.996 29.9259 15.7109 29.5752 15.7109Z" fill="#63388B"/>
<path d="M35.8392 66.3388L34.4354 66.3387L33.7676 60.9238L35.8395 60.924L35.8392 66.3388Z" fill="#A0616A"/>
<path d="M35.8893 67.804L31.5723 67.8038V67.7492C31.5723 66.8212 32.3246 66.069 33.2526 66.0689L34.0412 65.4707L35.5125 66.069L35.8893 66.069L35.8893 67.804Z" fill="#2F2E41"/>
<path d="M32.9188 39.6602L33.6562 46.0858L32.0234 52.7747L33.4455 64.4145L36.0789 64.6252C36.0789 64.6252 37.343 56.0928 36.1843 53.1434L39.1337 41.5562L36.9216 40.2922L32.9188 39.6602Z" fill="#2F2E41"/>
<path d="M35.6659 17.9488C35.2012 17.4527 35.3603 17.0007 34.6418 16.874C34.1548 16.7882 33.5685 16.8743 33.0698 16.8738C31.8162 16.8727 31.6278 17.5658 30.9061 18.4867C29.0473 20.8586 30.7767 22.7619 30.3376 25.5978C29.9297 28.2327 31.023 29.6676 30.5388 32.3096C30.3083 33.5673 29.8615 35.3382 29.0797 36.7845C28.648 37.5831 28.441 38.5121 28.5469 39.397C28.6406 40.1802 38.7548 40.2715 39.0347 40.0788C39.3642 39.8519 39.2528 39.3654 39.285 39.0265C39.3722 38.1084 39.4609 37.4652 39.2404 36.5274C39.0332 35.6462 39.0371 34.6223 39.0342 33.7115C39.0314 32.8335 37.7946 34.2831 37.8665 33.4064C37.9581 32.2884 38.1398 31.1945 38.34 30.0866C38.4949 29.2291 38.5556 28.3479 38.7832 27.5083C39.0454 26.5411 39.3579 25.6903 39.3685 24.6759C39.3766 23.8864 39.5672 22.7826 39.2533 22.0592C38.7908 20.9935 37.8582 20.0339 37.0715 19.1804C36.6803 18.7559 36.2919 18.4797 35.845 18.1279" fill="#3F3D56"/>
<path d="M19.7888 22.8074L22.6366 24.1863L22.0758 25.9231L19.1169 24.358C19.0175 24.382 18.913 24.3922 18.8057 24.3859C18.2218 24.3516 17.7762 23.8505 17.8104 23.2666C17.8447 22.6827 18.3458 22.2371 18.9297 22.2714C19.3021 22.2932 19.6176 22.5054 19.7888 22.8074Z" fill="#A0616A"/>
<path d="M28.5243 30.6771C28.2515 30.5326 24.0964 27.8828 21.9117 26.6519C21.8707 26.6288 21.5887 26.7799 21.5494 26.7578C21.4893 26.7239 21.5464 26.4728 21.4903 26.4412C21.3687 26.3727 21.1414 26.5279 21.0406 26.4711C20.6756 26.2654 20.7529 25.3879 20.7529 25.3879L21.4903 23.5971L22.6958 23.5586L22.965 24.0185L23.5366 23.9496L23.9131 24.4398L28.2522 26.1423C28.4208 23.8798 29.3255 22.0134 30.3056 20.1875L30.7018 20.2623C31.7008 20.4511 32.3672 21.4019 32.2037 22.4054L31.0595 29.429C30.9487 30.0824 30.4864 30.6094 29.8529 30.8041C29.3951 30.9449 28.9201 30.8867 28.5243 30.6771Z" fill="#3F3D56"/>
<path d="M32.8313 16.2075C34.6118 16.2075 36.0551 14.7641 36.0551 12.9836C36.0551 11.2031 34.6118 9.75977 32.8313 9.75977C31.0508 9.75977 29.6074 11.2031 29.6074 12.9836C29.6074 14.7641 31.0508 16.2075 32.8313 16.2075Z" fill="#A0616A"/>
<path d="M36.4103 13.0816C36.2976 13.0363 36.1849 12.9984 36.0869 12.9742C36.6402 13.6706 35.7062 14.2818 35.5613 14.9946C35.5734 15.5604 35.264 15.8171 34.7228 15.9721L34.7355 15.9279C30.3333 17.0555 34.977 13.3019 31.5352 13.1984C31.0107 13.2291 31.7112 11.5798 31.1719 11.6627C29.8025 11.8734 29.7386 11.7286 29.5919 12.7162C29.3253 12.8035 28.9598 12.4001 29.003 11.9787C28.9054 11.8014 28.6505 11.9149 28.5479 11.6458C28.4394 11.4405 28.233 10.0974 28.7038 10.7252C28.7349 10.2966 28.6137 9.42041 29.1483 10.169C29.0788 9.82847 29.3744 9.97596 29.498 10.1785C29.5855 9.97943 29.6729 9.7814 29.7593 9.58231C29.7351 9.67185 29.7508 9.76981 29.7951 9.8583C30.0436 9.33043 30.4229 9.28261 31.0149 9.13357C31.008 9.29528 31.0117 9.48448 31.0339 9.63076C31.7212 8.49194 33.3859 8.81011 34.0496 9.81622C34.4703 9.91226 34.648 9.76665 35.0694 9.87199C36.2015 10.155 36.7191 11.9007 36.4103 13.0816Z" fill="#2F2E41"/>
<path d="M44.979 43.5053H48.8765V39.6078C48.8765 38.9126 48.3077 38.3438 47.6125 38.3438H43.8203V42.3466C43.8203 42.9855 44.3401 43.5053 44.979 43.5053Z" fill="#63388B"/>
<path d="M13.4513 6.7256C13.9433 6.7256 14.3421 6.31789 14.3421 5.81495C14.3421 5.31201 13.9433 4.9043 13.4513 4.9043C12.9594 4.9043 12.5605 5.31201 12.5605 5.81495C12.5605 6.31789 12.9594 6.7256 13.4513 6.7256Z" fill="#3F3D56"/>
<path d="M16.5295 6.7256C17.0214 6.7256 17.4203 6.31789 17.4203 5.81495C17.4203 5.31201 17.0214 4.9043 16.5295 4.9043C16.0375 4.9043 15.6387 5.31201 15.6387 5.81495C15.6387 6.31789 16.0375 6.7256 16.5295 6.7256Z" fill="#3F3D56"/>
<path d="M19.6076 6.7256C20.0996 6.7256 20.4984 6.31789 20.4984 5.81495C20.4984 5.31201 20.0996 4.9043 19.6076 4.9043C19.1156 4.9043 18.7168 5.31201 18.7168 5.81495C18.7168 6.31789 19.1156 6.7256 19.6076 6.7256Z" fill="#3F3D56"/>
<path d="M41.451 8.87695C41.3638 8.87695 41.293 8.94783 41.293 9.03496V10.0883C41.293 10.1755 41.3638 10.2463 41.451 10.2463H42.5044C42.5915 10.2463 42.6624 10.1755 42.6624 10.0883V9.03496C42.6624 8.94783 42.5915 8.87695 42.5044 8.87695H41.451Z" fill="#63388B"/>
<path d="M43.8729 8.87695C43.7857 8.87695 43.7148 8.94783 43.7148 9.03496V10.0883C43.7148 10.1755 43.7857 10.2463 43.8729 10.2463H44.9262C45.0134 10.2463 45.0842 10.1755 45.0842 10.0883V9.03496C45.0842 8.94783 45.0134 8.87695 44.9262 8.87695H43.8729Z" fill="#63388B"/>
<path d="M46.2967 8.87695C46.2095 8.87695 46.1387 8.94783 46.1387 9.03496V10.0883C46.1387 10.1755 46.2095 10.2463 46.2967 10.2463H47.3501C47.4372 10.2463 47.5081 10.1755 47.5081 10.0883V9.03496C47.5081 8.94783 47.4372 8.87695 47.3501 8.87695H46.2967Z" fill="#63388B"/>
</svg>
