<svg width="64" height="68" viewBox="0 0 64 68" fill="none" xmlns="http://www.w3.org/2000/svg">
<path d="M53.7295 24.1062C53.7295 24.2579 53.712 24.4132 53.6753 24.5686L52.1413 31.1064C51.9238 32.0359 50.9938 32.6115 50.0666 32.3918L43.9189 30.4812L43.6187 30.3884C43.2689 30.6421 42.7806 30.7589 42.2702 30.6688C41.3779 30.5107 40.7601 29.7834 40.8904 29.0433C41.0208 28.3041 41.8497 27.8325 42.742 27.9897C43.2524 28.0798 43.6719 28.3565 43.9143 28.7142L43.9189 28.7151L43.9345 28.7178L49.2855 29.3807L49.7353 23.9453C49.8207 22.9064 50.6872 22.1074 51.7282 22.1074C52.8574 22.1074 53.7295 23.0314 53.7295 24.1062Z" fill="#ED9DA0"/>
<path d="M53.7285 24.1062C53.7285 24.2579 53.7111 24.4132 53.6744 24.5686L52.4158 31.3823C52.1983 32.3118 51.2683 32.8873 50.3411 32.6676L44.1934 30.9557L44.4688 28.2894L49.1505 28.933L49.7343 23.9453C49.8197 22.9064 50.6863 22.1074 51.7273 22.1074C52.8565 22.1074 53.7285 23.0314 53.7285 24.1062Z" fill="#2F2E43"/>
<path d="M61.7134 60.0093L60.2285 61.1057L61.3232 62.5929L62.8082 61.4965L61.7134 60.0093Z" fill="#ED9DA0"/>
<path d="M63.5507 63.0367L60.3943 65.3673C60.1245 65.5665 59.8079 65.7048 59.4785 65.7673L58.6904 65.9168C58.5275 65.9477 58.3586 65.8813 58.2602 65.7476C58.1448 65.5908 58.148 65.3743 58.2681 65.221L59.2237 64.002L60.4816 61.4044L60.4889 61.4111C60.6707 61.5775 60.9469 61.8279 60.9676 61.8402C61.3561 61.9263 61.6544 61.8779 61.8543 61.6964C62.2031 61.3798 62.1328 60.7589 62.1321 60.7527L62.1315 60.7479L62.1356 60.7455C62.2306 60.6894 62.3221 60.6769 62.4077 60.7082C62.5892 60.7745 62.684 61.0132 62.6976 61.0498C62.8748 61.0746 63.3358 61.604 63.3729 61.6469C63.6381 61.695 63.8207 61.7947 63.9156 61.9432C63.9985 62.0731 64.0146 62.2387 63.9634 62.4355C63.9018 62.6722 63.7552 62.8857 63.5507 63.0367Z" fill="#2F2E43"/>
<path d="M48.9796 64.3496H47.1348V66.1973H48.9796V64.3496Z" fill="#ED9DA0"/>
<path d="M48.6654 67.8781H44.7439C44.4087 67.8781 44.0719 67.8012 43.7698 67.6558L43.0468 67.3077C42.8974 67.2358 42.8008 67.0819 42.8008 66.9158C42.8008 66.721 42.9317 66.5487 43.1192 66.4968L44.6106 66.0834L47.1622 64.7402L47.1641 64.7499C47.2118 64.9919 47.2857 65.3576 47.2951 65.3798C47.5568 65.68 47.8256 65.8183 48.0941 65.7911C48.5623 65.7435 48.8736 65.2019 48.8767 65.1965L48.8791 65.1923L48.8839 65.1928C48.9935 65.2042 49.0746 65.2485 49.125 65.3244C49.2318 65.4858 49.1666 65.7342 49.1559 65.7717C49.2838 65.897 49.3412 66.5971 49.3457 66.6536C49.5307 66.85 49.6186 67.0388 49.6069 67.2147C49.5967 67.3686 49.5116 67.5114 49.3538 67.6394C49.1639 67.7933 48.9194 67.8781 48.6654 67.8781Z" fill="#2F2E43"/>
<path d="M56.5069 35.4668H47.6652L46.2559 64.8436H49.3696L51.3814 51.4905L59.4542 62.173L62.4014 59.5023L56.5069 51.4905V35.4668Z" fill="#2F2E43"/>
<path d="M54.2298 16.1607C54.2298 16.1607 56.6658 16.1555 55.7558 13.8046C54.8458 11.4538 53.1513 12.5064 53.1513 12.5064C53.1513 12.5064 52.4372 12.8841 52.5844 13.7269" fill="#2F2E43"/>
<path d="M54.4741 17.2889C54.4741 15.4865 53.0152 14.0254 51.2156 14.0254C49.416 14.0254 47.957 15.4865 47.957 17.2889C47.957 18.7507 48.9166 19.9878 50.2393 20.4032L50.8693 24.5727L54.0806 21.8925C54.0806 21.8925 53.3868 21.0075 53.0148 20.0096C53.8941 19.4252 54.4741 18.4251 54.4741 17.2889Z" fill="#ED9DA0"/>
<path d="M52.782 20.0464C52.782 20.0464 53.2147 18.3848 52.5072 17.6208C51.8012 16.8586 51.71 18.0446 51.71 18.0446L51.2006 17.9337C51.2006 17.9337 51.2892 16.7803 50.2926 16.5806L50.9349 15.2054C50.9349 15.2054 48.4759 15.6836 48.4081 15.4451C47.8749 13.5683 52.9623 11.9651 54.3677 14.8283C56.5535 19.2817 52.782 20.0464 52.782 20.0464Z" fill="#2F2E43"/>
<path d="M54.5659 31.4395L56.01 35.7013L47.8398 35.6094L49.058 31.7153L54.5659 31.4395Z" fill="#ED9DA0"/>
<path d="M53.8276 20.6211L50.2045 21.8826L46.7793 39.5924L53.8276 40.4543L54.3416 37.7541L54.8315 40.4543H57.2731L54.6408 22.8432C54.523 22.0549 54.2463 21.2989 53.8276 20.6211Z" fill="#63388B"/>
<path d="M52.8125 41.4322L52.8756 38.5212L51.1785 38.4844L51.1155 41.3954C50.7988 41.6897 50.5898 42.1471 50.5786 42.6657C50.5589 43.5731 51.1508 44.3219 51.9006 44.3382C52.6504 44.3545 53.2742 43.6321 53.2939 42.7247C53.3051 42.2061 53.1161 41.7401 52.8125 41.4322Z" fill="#ED9DA0"/>
<path d="M50.4688 26.8613V40.9711H53.416L54.287 26.9804" fill="#2F2E43"/>
<path d="M56.404 41.8281C56.3522 41.8281 56.3005 41.8263 56.2486 41.8223C55.6293 41.7757 55.0965 41.4432 54.6647 40.834C53.0399 38.5411 49.7637 30.9531 49.7637 28.7953C49.7637 26.7333 50.2119 22.0073 50.2274 21.9365L53.5364 20.1016C55.1239 20.4748 56.2289 21.9308 56.164 23.5635C56.0054 27.5527 56.4137 36.6465 59.0855 40.415L59.1075 40.4461L59.0812 40.4735C59.026 40.5308 57.7605 41.8281 56.404 41.8281Z" fill="#2F2E43"/>
<path d="M37.5187 68H15.2757C12.3775 68 10.0195 65.6385 10.0195 62.7358V5.26419C10.0195 2.36149 12.3775 0 15.2757 0H37.5187C40.417 0 42.7749 2.36149 42.7749 5.26419V62.7358C42.7749 65.6385 40.417 68 37.5187 68Z" fill="#2F2E41"/>
<path d="M37.5408 66.5791H15.2525C13.0778 66.5791 11.3086 64.8072 11.3086 62.6292V5.0476C11.3086 2.86963 13.0778 1.09766 15.2525 1.09766H37.5408C39.7155 1.09766 41.4848 2.86962 41.4848 5.0476V62.6292C41.4848 64.8072 39.7155 66.5791 37.5408 66.5791Z" fill="white"/>
<path d="M29.8784 4.84361H22.7858C21.968 4.84361 21.3027 4.17734 21.3027 3.35833C21.3027 2.53932 21.968 1.87305 22.7858 1.87305H29.8784C30.6962 1.87305 31.3615 2.53932 31.3615 3.35833C31.3615 4.17734 30.6962 4.84361 29.8784 4.84361Z" fill="#2F2E41"/>
<path d="M16.3516 16.0801H24.0003" stroke="#3F3F3F" stroke-miterlimit="10"/>
<path d="M16.3516 18.9844H32.4411" stroke="#3F3F3F" stroke-width="0.2" stroke-miterlimit="10"/>
<path d="M16.3516 17.6777H39.3987" stroke="#3F3F3F" stroke-width="0.2" stroke-miterlimit="10"/>
<path d="M14.6112 18.1131C15.3317 18.1131 15.9157 17.5281 15.9157 16.8065C15.9157 16.085 15.3317 15.5 14.6112 15.5C13.8907 15.5 13.3066 16.085 13.3066 16.8065C13.3066 17.5281 13.8907 18.1131 14.6112 18.1131Z" fill="#63388B"/>
<path d="M16.3516 24.6758H24.0003" stroke="#3F3F3F" stroke-miterlimit="10"/>
<path d="M16.3516 27.5801H32.4411" stroke="#3F3F3F" stroke-width="0.2" stroke-miterlimit="10"/>
<path d="M16.3516 26.2734H39.3987" stroke="#3F3F3F" stroke-width="0.2" stroke-miterlimit="10"/>
<path d="M14.6112 26.7088C15.3317 26.7088 15.9157 26.1238 15.9157 25.4022C15.9157 24.6807 15.3317 24.0957 14.6112 24.0957C13.8907 24.0957 13.3066 24.6807 13.3066 25.4022C13.3066 26.1238 13.8907 26.7088 14.6112 26.7088Z" fill="#63388B"/>
<path d="M16.3516 33.2715H24.0003" stroke="#3F3F3F" stroke-miterlimit="10"/>
<path d="M16.3516 36.1758H32.4411" stroke="#3F3F3F" stroke-width="0.2" stroke-miterlimit="10"/>
<path d="M16.3516 34.8691H39.3987" stroke="#3F3F3F" stroke-width="0.2" stroke-miterlimit="10"/>
<path d="M14.6112 35.3045C15.3317 35.3045 15.9157 34.7195 15.9157 33.9979C15.9157 33.2764 15.3317 32.6914 14.6112 32.6914C13.8907 32.6914 13.3066 33.2764 13.3066 33.9979C13.3066 34.7195 13.8907 35.3045 14.6112 35.3045Z" fill="#63388B"/>
</svg>
