<svg width="84" height="68" viewBox="0 0 84 68" fill="none" xmlns="http://www.w3.org/2000/svg">
<path d="M40.6865 64.771C40.5961 64.7751 40.5066 64.7514 40.4302 64.703C40.3538 64.6546 40.2941 64.5839 40.2591 64.5004C40.2242 64.4169 40.2158 64.3247 40.2351 64.2363C40.2543 64.1479 40.3003 64.0676 40.3667 64.0062C40.3778 63.9619 40.3858 63.9302 40.3969 63.886C40.3105 63.6663 40.1603 63.4774 39.9658 63.3435C39.7712 63.2097 39.5412 63.137 39.3051 63.1348C39.0689 63.1326 38.8375 63.2009 38.6405 63.331C38.4435 63.4612 38.2898 63.6472 38.1992 63.8652C37.6762 65.0893 36.9994 66.3565 37.336 67.7047C35.1127 62.9927 35.8688 57.1314 39.1545 53.1017C40.0628 52.6014 40.7989 51.7125 40.9905 50.6804C40.541 50.8327 39.9806 50.4671 40.3186 49.9937C40.4651 49.8127 40.613 49.6332 40.7595 49.4522C39.052 47.6338 37.0176 50.4917 38.897 52.946C38.2822 53.7168 37.7497 54.5498 37.3081 55.4313C37.4101 54.4952 37.2884 53.5483 36.953 52.6684C36.6131 51.8484 35.9759 51.1578 35.4149 50.4489C34.7327 49.5852 33.3287 49.9837 33.2369 51.0798C33.8665 51.2867 33.9483 52.1961 33.2281 52.3206C33.4168 54.3597 34.7489 56.2337 36.5838 57.1279C35.9062 59.0291 35.6416 61.0529 35.8077 63.0643C35.4838 60.7135 32.9604 60.1431 31.1966 59.2087C31.0843 59.1367 30.9536 59.099 30.8202 59.1C30.6869 59.1011 30.5567 59.141 30.4456 59.2147C30.3345 59.2885 30.2473 59.393 30.1946 59.5155C30.1419 59.638 30.126 59.7732 30.1488 59.9046C30.3922 60.0036 30.6252 60.1265 30.8444 60.2716C30.9471 60.3406 31.0259 60.4397 31.07 60.5553C31.1142 60.6709 31.1215 60.7973 31.091 60.9172C31.0605 61.0371 30.9936 61.1447 30.8996 61.2251C30.8055 61.3055 30.6889 61.3549 30.5657 61.3664C31.4548 63.5668 33.7533 65.0443 36.1141 65.036C36.3409 66.0219 36.6696 66.9815 37.0949 67.8993H40.5987C40.6113 67.8604 40.6226 67.8202 40.6339 67.7813C40.3095 67.8017 39.9839 67.7823 39.6643 67.7235C40.5224 66.7076 41.186 66.1893 40.6866 64.771L40.6865 64.771Z" fill="#F2F2F2"/>
<path d="M59.1346 1.97239H28.8749C28.6133 1.97239 28.3625 1.86849 28.1775 1.68354C27.9926 1.49859 27.8887 1.24775 27.8887 0.986195C27.8887 0.72464 27.9926 0.473797 28.1775 0.28885C28.3625 0.103902 28.6133 0 28.8749 0H59.1346C59.3962 0 59.647 0.103902 59.8319 0.28885C60.0169 0.473797 60.1208 0.72464 60.1208 0.986195C60.1208 1.24775 60.0169 1.49859 59.8319 1.68354C59.647 1.86849 59.3962 1.97239 59.1346 1.97239Z" fill="#E6E6E6"/>
<path d="M59.1346 7.22434H28.8749C28.6133 7.22434 28.3625 7.12044 28.1775 6.93549C27.9926 6.75055 27.8887 6.4997 27.8887 6.23815C27.8887 5.97659 27.9926 5.72575 28.1775 5.5408C28.3625 5.35586 28.6133 5.25195 28.8749 5.25195H59.1346C59.3962 5.25195 59.647 5.35586 59.8319 5.5408C60.0169 5.72575 60.1208 5.97659 60.1208 6.23815C60.1208 6.4997 60.0169 6.75055 59.8319 6.93549C59.647 7.12044 59.3962 7.22434 59.1346 7.22434Z" fill="#E6E6E6"/>
<path d="M60.4544 38.9457L47.2635 39.2862C46.9884 39.293 46.7218 39.1904 46.5223 39.0009C46.3227 38.8114 46.2065 38.5504 46.1991 38.2753L46.0296 31.71C46.0228 31.4348 46.1254 31.1683 46.3149 30.9687C46.5045 30.7692 46.7654 30.6529 47.0405 30.6455L60.2313 30.305C60.5065 30.2982 60.773 30.4008 60.9726 30.5903C61.1722 30.7799 61.2884 31.0408 61.2958 31.3159L61.4653 37.8812C61.4721 38.1564 61.3695 38.4229 61.1799 38.6225C60.9904 38.8221 60.7295 38.9383 60.4544 38.9457Z" fill="white"/>
<path d="M60.4586 39.0688L47.2677 39.4093C46.9602 39.4169 46.6623 39.3022 46.4393 39.0904C46.2162 38.8786 46.0863 38.587 46.078 38.2795L45.9086 31.7141C45.901 31.4067 46.0157 31.1087 46.2275 30.8857C46.4393 30.6627 46.7309 30.5327 47.0384 30.5245L60.2292 30.1839C60.5367 30.1764 60.8346 30.291 61.0577 30.5029C61.2807 30.7147 61.4106 31.0063 61.4189 31.3138L61.5884 37.8791C61.596 38.1866 61.4813 38.4845 61.2695 38.7076C61.0577 38.9306 60.766 39.0605 60.4586 39.0688ZM47.0447 30.7686C46.8019 30.7751 46.5717 30.8777 46.4045 31.0538C46.2372 31.2299 46.1467 31.4651 46.1527 31.7078L46.3222 38.2732C46.3287 38.5159 46.4313 38.7462 46.6074 38.9134C46.7834 39.0806 47.0186 39.1711 47.2614 39.1651L60.4523 38.8246C60.695 38.8181 60.9252 38.7156 61.0925 38.5395C61.2597 38.3634 61.3502 38.1282 61.3442 37.8854L61.1747 31.3201C61.1682 31.0773 61.0657 30.8471 60.8896 30.6799C60.7135 30.5127 60.4783 30.4221 60.2355 30.4281L47.0447 30.7686Z" fill="#CCCCCC"/>
<path d="M52.39 37.1713C52.3151 37.173 52.241 37.1558 52.1746 37.1211C52.1036 37.0851 52.0437 37.0305 52.0014 36.963C51.9591 36.8956 51.936 36.8179 51.9346 36.7383L51.84 33.0743C51.8379 32.9948 51.8573 32.9163 51.896 32.8469C51.9346 32.7774 51.9913 32.7197 52.0599 32.6796C52.1285 32.6396 52.2067 32.6187 52.2862 32.6191C52.3656 32.6196 52.4435 32.6414 52.5117 32.6823L56.0347 34.4246C56.0987 34.463 56.1521 34.517 56.1897 34.5815C56.2274 34.646 56.2481 34.719 56.25 34.7937C56.252 34.8683 56.235 34.9423 56.2007 35.0087C56.1665 35.075 56.116 35.1317 56.054 35.1734L52.6256 37.0951C52.5559 37.1425 52.4742 37.1689 52.39 37.1713Z" fill="#63388B"/>
<path d="M44.0033 23.571C47.1732 23.571 49.7429 21.0013 49.7429 17.8314C49.7429 14.6615 47.1732 12.0918 44.0033 12.0918C40.8334 12.0918 38.2637 14.6615 38.2637 17.8314C38.2637 21.0013 40.8334 23.571 44.0033 23.571Z" fill="#63388B"/>
<path d="M44.004 20.9179C43.9392 20.9179 43.8771 20.8922 43.8313 20.8464C43.7855 20.8006 43.7598 20.7385 43.7598 20.6737V15.0216C43.7598 14.9568 43.7855 14.8947 43.8313 14.8489C43.8771 14.8031 43.9392 14.7773 44.004 14.7773C44.0688 14.7773 44.1309 14.8031 44.1767 14.8489C44.2225 14.8947 44.2482 14.9568 44.2482 15.0216V20.6737C44.2482 20.7385 44.2225 20.8006 44.1767 20.8464C44.1309 20.8922 44.0688 20.9179 44.004 20.9179Z" fill="white"/>
<path d="M46.8299 18.092H41.1778C41.1131 18.092 41.0509 18.0663 41.0051 18.0205C40.9593 17.9747 40.9336 17.9125 40.9336 17.8478C40.9336 17.783 40.9593 17.7209 41.0051 17.6751C41.0509 17.6293 41.1131 17.6035 41.1778 17.6035H46.8299C46.8947 17.6035 46.9568 17.6293 47.0026 17.6751C47.0484 17.7209 47.0741 17.783 47.0741 17.8478C47.0741 17.9125 47.0484 17.9747 47.0026 18.0205C46.9568 18.0663 46.8947 18.092 46.8299 18.092Z" fill="white"/>
<path d="M22.8789 36.3931H13.1094V25.4023H22.8789C21.8119 26.8369 22.3399 31.6035 22.8789 36.3931Z" fill="#FFB6B6"/>
<path d="M22.934 64.4374H24.6925L25.5291 57.6543L22.9336 57.6544L22.934 64.4374Z" fill="#FFB6B6"/>
<path d="M25.279 64.5965V63.4043L24.8167 63.4325L22.9348 63.544L22.4992 63.5708L22.1663 67.5635L22.1484 67.7776H23.3971L23.4372 67.565L23.6186 66.5988L24.0868 67.565L24.1894 67.7776H27.4999C27.6969 67.7764 27.8854 67.6974 28.0246 67.558C28.1637 67.4186 28.2423 67.2299 28.2431 67.0329C28.3828 66.3803 25.6298 64.9696 25.279 64.5965Z" fill="#2F2E41"/>
<path d="M2.33203 62.523L3.86157 63.3908L7.93657 57.9041L5.67919 56.6233L2.33203 62.523Z" fill="#FFB6B6"/>
<path d="M4.29303 63.8167L4.8802 62.7806L4.46695 62.5769L2.77382 61.746L2.38138 61.5527L0.453393 64.3756L0 65.0386L0.512846 65.3299L1.08516 65.6555L1.8611 64.7398L1.77489 66.0464L4.47884 67.582H4.48033L4.65425 67.6801C4.82598 67.7771 5.02919 67.802 5.21927 67.7494C5.40935 67.6967 5.57075 67.5707 5.66804 67.3991C6.11103 66.8997 4.41343 64.3161 4.29303 63.8167Z" fill="#2F2E41"/>
<path d="M12.7422 31.1418C10.3857 32.7034 9.51831 47.7061 10.1305 47.4612L4.57617 57.8126L12.482 61.3564L17.6803 43.307L18.5466 49.9492L17.3915 60.4901L22.5017 61.7259L26.0363 61.4734C25.1178 48.9089 24.2901 35.6572 22.3896 30.5312L12.7422 31.1418Z" fill="#3F3F3F"/>
<path d="M20.0641 13.3321C20.0641 13.3321 17.4479 12.9938 16.6508 13.3126C16.3672 13.426 16.0836 14.4677 15.5518 14.778C14.5888 15.3398 13.803 15.2451 13.803 15.2451C14.1791 20.0345 14.1587 23.7498 11.9083 30.6875C11.9062 30.8631 11.9492 31.0363 12.0332 31.1904C12.1172 31.3446 12.2393 31.4747 12.388 31.5681C12.5366 31.6615 12.7068 31.7153 12.8821 31.7241C13.0575 31.7329 13.2322 31.6966 13.3895 31.6186L22.6347 30.8977L23.7307 25.1289L24.413 23.6884C24.8887 22.6843 24.8829 21.5185 24.3974 20.5191L23.3066 18.274L23.1472 16.0422L20.8029 14.9001L20.0641 13.3321Z" fill="white"/>
<path fill-rule="evenodd" clip-rule="evenodd" d="M13.8126 15.3687C13.8094 15.3276 13.8062 15.2864 13.803 15.2451C13.803 15.2451 13.8466 15.2504 13.9259 15.2511C14.1832 15.2533 14.8157 15.2074 15.5518 14.778C15.8503 14.6039 16.0706 14.1994 16.2565 13.8579C16.402 13.5909 16.5264 13.3624 16.6508 13.3126C17.4479 12.9938 20.0641 13.3321 20.0641 13.3321L20.8029 14.9001L23.1472 16.0422L23.3066 18.274L24.3974 20.5191C24.8829 21.5185 24.8887 22.6843 24.413 23.6884L23.7307 25.1289L22.6347 30.8977L13.3895 31.6186C13.2322 31.6966 13.0575 31.7329 12.8821 31.7241C12.7068 31.7153 12.5366 31.6615 12.388 31.5681C12.2393 31.4747 12.1172 31.3446 12.0332 31.1904C11.9492 31.0363 11.9062 30.8631 11.9083 30.6875C14.1393 23.8096 14.1786 20.0987 13.8126 15.3687ZM13.9355 15.3733C14.3009 20.1054 14.2591 23.8296 12.0304 30.707C12.0315 30.8555 12.0693 31.0015 12.1404 31.132C12.2144 31.2678 12.322 31.3824 12.453 31.4647C12.5839 31.547 12.7338 31.5943 12.8883 31.6021C13.0427 31.6099 13.1966 31.5779 13.3352 31.5092L13.3564 31.4987L22.5321 30.7832L23.6136 25.0908L24.3027 23.6362C24.7625 22.6655 24.7569 21.5386 24.2875 20.5725L23.1865 18.3062L23.0304 16.1211L20.7108 14.9911L19.9823 13.4451C19.9688 13.4434 19.9532 13.4416 19.9358 13.4395C19.8632 13.4309 19.7585 13.419 19.6303 13.4057C19.3737 13.3791 19.0237 13.3469 18.6492 13.3247C18.2742 13.3024 17.8768 13.2903 17.5249 13.3032C17.1687 13.3162 16.8743 13.3547 16.6962 13.426C16.6857 13.4302 16.6651 13.4434 16.6348 13.4771C16.6054 13.5097 16.5732 13.5544 16.5375 13.611C16.4833 13.6968 16.4274 13.7995 16.3654 13.9134C16.3448 13.9512 16.3235 13.9903 16.3013 14.0305C16.2145 14.1879 16.1171 14.3567 16.0062 14.5067C15.8957 14.656 15.7666 14.7941 15.6133 14.8835C15.1165 15.1733 14.664 15.2946 14.334 15.3431C14.1691 15.3673 14.0348 15.3734 13.9407 15.3733C13.9389 15.3733 13.9372 15.3733 13.9355 15.3733Z" fill="#3F3F3F"/>
<path d="M21.2171 12.2739L21.22 12.2741C21.3704 12.2871 21.5198 12.2398 21.6353 12.1427C21.7509 12.0455 21.8231 11.9064 21.8361 11.756L22.1114 8.59123C22.1613 8.02428 22.0967 7.45309 21.9214 6.91162C21.5778 5.85482 20.8397 4.97138 19.8608 4.44539C19.3554 4.17452 18.8004 4.00879 18.2292 3.9582C15.8923 3.75119 15.0421 4.24324 13.6231 7.81459C12.2042 11.3859 13.3474 10.9842 13.3474 10.9842C13.3407 11.0604 13.3494 11.1373 13.373 11.2101C13.4193 11.3522 13.5188 11.4709 13.6506 11.5414C13.7182 11.5775 13.7924 11.5996 13.8688 11.6065C16.6343 12.2899 19.4251 13.0102 21.2176 12.2739L21.2171 12.2739Z" fill="#3F3F3F"/>
<path d="M16.043 6.96857C15.6998 7.48365 15.517 8.08887 15.5176 8.70779C15.5182 9.32672 15.7022 9.93159 16.0463 10.446C16.3905 10.9604 16.8794 11.3613 17.4512 11.598C18.0231 11.8348 18.6523 11.8967 19.2593 11.7761C19.6612 11.6975 20.0435 11.54 20.384 11.3127C20.7246 11.0853 21.0166 10.7927 21.2432 10.4516C21.5857 9.93673 21.768 9.33196 21.7672 8.71359C21.7664 8.09521 21.5826 7.49091 21.2388 6.97688C20.8951 6.46285 20.4068 6.0621 19.8356 5.82516C19.2645 5.58823 18.6359 5.52571 18.0292 5.64549C17.6271 5.7236 17.2444 5.88078 16.9034 6.10792C16.5625 6.33506 16.27 6.62752 16.043 6.96857Z" fill="#FFB6B6"/>
<path d="M23.0945 8.9343C23.1339 8.48591 23.0828 8.03417 22.9442 7.60592C22.9057 6.55635 22.5948 5.60752 21.3147 5.65593C20.9175 5.44324 20.4816 5.31263 20.0328 5.27186L19.3997 5.21358C19.3926 5.21292 19.3855 5.21228 19.3783 5.21167C18.4925 5.13514 17.6125 5.41366 16.932 5.98596C16.2515 6.55825 15.8262 7.37743 15.7497 8.2633L15.7441 8.32669L17.0837 8.44869L17.6516 7.21195L17.6317 8.49886L18.3236 8.56213L18.61 7.93817L18.6001 8.58702C19.6327 9.48432 21.1896 9.52138 23.0884 8.99777L23.0945 8.9343Z" fill="#3F3F3F"/>
<path d="M18.8325 11.9639C18.8446 12.068 18.8272 12.1735 18.7823 12.2682C18.7597 12.3167 18.7304 12.3619 18.6953 12.4022C18.6652 12.4367 18.6312 12.4674 18.594 12.4938C18.4836 12.5717 18.349 12.6078 18.2145 12.5955C18.2061 12.5947 18.1977 12.5937 18.1893 12.5926C18.181 12.5915 18.1727 12.5902 18.1643 12.5887C18.1559 12.5872 18.1476 12.5855 18.1393 12.5836C18.131 12.5817 18.1227 12.5797 18.1144 12.5774L17.6463 12.4496L17.113 10.9931L17.0015 12.275L14.873 11.6976L15.3463 6.25781L18.9697 6.59059L18.8711 6.68687C18.5432 7.01022 18.311 7.41776 18.1998 7.86461C18.0896 8.31742 18.0577 8.78577 18.1056 9.24933C18.1507 9.71809 18.2406 10.1814 18.3742 10.633C18.4905 11.0329 18.6298 11.4257 18.7913 11.8096C18.8122 11.8588 18.826 11.9108 18.8325 11.9639Z" fill="#3F3F3F"/>
<path d="M12.6488 49.1327L9.98728 33.1274C9.93377 32.8034 10.011 32.4714 10.202 32.2042C10.3929 31.9371 10.6821 31.7566 11.006 31.7024L23.0935 29.6924C23.4175 29.6389 23.7495 29.7161 24.0167 29.907C24.2839 30.098 24.4643 30.3872 24.5186 30.711L27.1801 46.7164C27.2336 47.0404 27.1564 47.3724 26.9654 47.6395C26.7744 47.9067 26.4853 48.0872 26.1614 48.1414L14.0738 50.1514C13.7498 50.2049 13.4178 50.1277 13.1506 49.9367C12.8835 49.7458 12.703 49.4566 12.6488 49.1327Z" fill="#E6E6E6"/>
<path d="M12.7734 44.1446L11.0624 33.8549C11.0123 33.5515 11.0846 33.2405 11.2634 32.9903C11.4423 32.7401 11.7131 32.5711 12.0164 32.5203L22.4047 30.7929C22.7081 30.7428 23.0191 30.8151 23.2693 30.9939C23.5195 31.1728 23.6885 31.4436 23.7393 31.7469L26.1077 45.9895C26.1578 46.2929 26.0855 46.6038 25.9066 46.854C25.7278 47.1042 25.4569 47.2733 25.1536 47.3241L18.7183 48.3942C17.3666 48.6174 15.9816 48.2953 14.8672 47.4986C13.7527 46.702 12.9997 45.4957 12.7734 44.1446Z" fill="white"/>
<path d="M13.2242 36.4454C13.1752 36.1489 13.2458 35.845 13.4206 35.6005C13.5954 35.356 13.86 35.1908 14.1564 35.1412L21.3627 33.9429C21.6592 33.8939 21.9629 33.9646 22.2073 34.1395C22.4516 34.3143 22.6165 34.579 22.6658 34.8754C22.7151 35.1717 22.6447 35.4756 22.4701 35.7201C22.2955 35.9646 22.031 36.1298 21.7346 36.1794L14.5283 37.3777C14.2318 37.4266 13.928 37.356 13.6835 37.1812C13.439 37.0064 13.2738 36.7418 13.2242 36.4454Z" fill="#63388B"/>
<path d="M13.8003 39.9259C13.7514 39.6294 13.822 39.3255 13.9968 39.081C14.1716 38.8365 14.4362 38.6713 14.7326 38.6217L21.9389 37.4234C22.2354 37.3744 22.5391 37.4451 22.7835 37.6199C23.0278 37.7947 23.1928 38.0594 23.2421 38.3558C23.2914 38.6522 23.221 38.9561 23.0463 39.2006C22.8717 39.4451 22.6072 39.6103 22.3108 39.6598L15.1045 40.8582C14.808 40.9071 14.5041 40.8365 14.2596 40.6617C14.0151 40.4869 13.85 40.2223 13.8003 39.9259Z" fill="#63388B"/>
<path d="M14.3804 43.4044C14.3314 43.1079 14.4021 42.804 14.5769 42.5595C14.7516 42.315 15.0163 42.1498 15.3127 42.1002L22.519 40.9019C22.8154 40.8529 23.1192 40.9236 23.3635 41.0984C23.6078 41.2733 23.7728 41.538 23.8221 41.8344C23.8713 42.1307 23.8009 42.4346 23.6263 42.6791C23.4517 42.9236 23.1872 43.0888 22.8909 43.1383L15.6846 44.3366C15.3881 44.3856 15.0842 44.315 14.8397 44.1402C14.5952 43.9654 14.43 43.7008 14.3804 43.4044Z" fill="#63388B"/>
<path d="M11.2152 34.798C11.3441 34.6631 11.4421 34.5018 11.5025 34.3252C11.5629 34.1487 11.5842 33.9612 11.565 33.7756C11.5458 33.59 11.4865 33.4108 11.3912 33.2504C11.296 33.09 11.167 32.9522 11.0132 32.8465L12.2817 26.5523L10.627 25.7734L9.17506 33.2601C9.01645 33.5322 8.96316 33.853 9.02527 34.1617C9.08739 34.4705 9.2606 34.7457 9.51208 34.9353C9.76356 35.1248 10.0758 35.2155 10.3897 35.1902C10.7036 35.1649 10.9974 35.0254 11.2152 34.798Z" fill="#FFB6B6"/>
<path d="M13.8415 15.2656C13.8415 15.2656 10.9329 16.3602 10.7735 17.9543C10.6141 19.5485 10.2477 20.9694 10.4071 21.6071C10.5665 22.2447 9.8591 22.9694 10.1779 23.4476C10.4968 23.9259 9.73216 24.0831 10.051 24.8802C10.3698 25.6773 10.5292 25.8367 10.3698 25.9961C10.2104 26.1555 9.68945 29.4314 9.68945 29.4314L11.9538 29.934L14.9081 23.2151L13.8415 15.2656Z" fill="white"/>
<path fill-rule="evenodd" clip-rule="evenodd" d="M13.7246 15.3123C13.7992 15.2815 13.8415 15.2656 13.8415 15.2656L14.9081 23.2151L11.9538 29.934L9.68945 29.4314C9.68945 29.4314 10.2104 26.1555 10.3698 25.9961C10.4848 25.8811 10.4339 25.7661 10.2768 25.4116C10.2162 25.2747 10.1398 25.1022 10.051 24.8802C9.88093 24.4551 10.0191 24.2119 10.1367 24.005C10.2396 23.824 10.3267 23.6708 10.1779 23.4476C10.0094 23.1949 10.1276 22.8733 10.2529 22.5321C10.3647 22.2278 10.4823 21.9077 10.4071 21.6071C10.306 21.2024 10.4165 20.4824 10.5516 19.6029C10.6293 19.0964 10.7152 18.5369 10.7735 17.9543C10.9137 16.5524 13.18 15.5368 13.7246 15.3123ZM13.7414 15.4376C13.6644 15.4697 13.5598 15.5149 13.4359 15.5724C13.1639 15.6984 12.8003 15.8826 12.4326 16.1154C12.0642 16.3486 11.6957 16.628 11.4107 16.9435C11.1253 17.2596 10.9313 17.6034 10.895 17.9665C10.8364 18.5525 10.7497 19.1169 10.6718 19.6243C10.6433 19.81 10.616 19.9881 10.5916 20.1568C10.5459 20.4732 10.5107 20.7562 10.4966 20.9986C10.4824 21.2427 10.4903 21.4362 10.5256 21.5775C10.572 21.7629 10.5539 21.9492 10.5126 22.1244C10.4763 22.2784 10.4197 22.4322 10.3675 22.5744C10.3607 22.5928 10.354 22.611 10.3475 22.629C10.2885 22.7906 10.2397 22.9339 10.2227 23.0638C10.2061 23.1906 10.2214 23.2927 10.2795 23.3799C10.3764 23.5251 10.3968 23.6588 10.3667 23.7887C10.3434 23.8894 10.2889 23.985 10.2418 24.0673C10.2347 24.0799 10.2277 24.0922 10.221 24.1041C10.1666 24.201 10.1199 24.2948 10.1017 24.407C10.0838 24.5169 10.0919 24.6537 10.1644 24.8349C10.2433 25.0321 10.3123 25.19 10.3694 25.319C10.3759 25.3338 10.3824 25.3482 10.3886 25.3624C10.4364 25.4703 10.4763 25.5602 10.5041 25.6344C10.5349 25.7167 10.5579 25.7964 10.5541 25.8727C10.5499 25.9554 10.5156 26.0208 10.4622 26.0763C10.4622 26.0764 10.4622 26.0763 10.4622 26.0763C10.4594 26.0817 10.4553 26.0909 10.4499 26.1047C10.4393 26.1325 10.4267 26.1718 10.4124 26.2226C10.3839 26.3238 10.3511 26.462 10.3156 26.626C10.2448 26.9533 10.1651 27.376 10.0901 27.7951C10.0151 28.2138 9.9451 28.6278 9.89382 28.9371C9.86818 29.0917 9.84723 29.2201 9.8327 29.3099C9.83115 29.3194 9.82968 29.3285 9.82829 29.3372L11.8823 29.7931L14.7825 23.1973L13.7414 15.4376Z" fill="#3F3F3F"/>
<path d="M24.4063 34.798C24.2775 34.6631 24.1794 34.5018 24.1191 34.3252C24.0587 34.1487 24.0373 33.9612 24.0565 33.7756C24.0757 33.59 24.135 33.4108 24.2303 33.2504C24.3256 33.09 24.4546 32.9522 24.6084 32.8465L23.3398 26.5523L24.9945 25.7734L26.4465 33.2601C26.6051 33.5322 26.6584 33.853 26.5963 34.1617C26.5342 34.4705 26.361 34.7457 26.1095 34.9353C25.858 35.1248 25.5457 35.2155 25.2318 35.1902C24.9179 35.1649 24.6242 35.0254 24.4063 34.798Z" fill="#FFB6B6"/>
<path d="M22.5098 15.8809C22.8125 15.8978 23.1052 15.9954 23.3575 16.1636C23.6098 16.3317 23.8125 16.5644 23.9445 16.8374C24.4228 17.7938 26.2137 23.8231 26.0543 24.3014C25.8949 24.7796 26.6173 26.3241 26.2985 26.6429C25.9796 26.9618 25.6879 28.8198 25.6879 28.8198L23.3646 29.353L22.615 22.2575L22.5098 15.8809Z" fill="white"/>
<path fill-rule="evenodd" clip-rule="evenodd" d="M25.6879 28.8198C25.6879 28.8198 25.9796 26.9618 26.2985 26.6429C26.472 26.4694 26.337 25.9327 26.2037 25.4025C26.0921 24.9587 25.9816 24.5193 26.0543 24.3014C26.2137 23.8231 24.4228 17.7938 23.9445 16.8374C23.8125 16.5644 23.6098 16.3317 23.3575 16.1636C23.1394 16.0181 22.891 15.9255 22.6321 15.8921C22.5915 15.8869 22.5507 15.8831 22.5098 15.8809L22.615 22.2575L23.3646 29.353L25.6879 28.8198ZM23.4716 29.2032L25.5806 28.7191C25.5893 28.6672 25.602 28.5929 25.6183 28.5028C25.6508 28.3226 25.6976 28.0786 25.7544 27.8243C25.8112 27.5704 25.8786 27.3039 25.9526 27.0794C25.9895 26.9672 26.0289 26.8633 26.0703 26.7758C26.1107 26.6904 26.1573 26.6114 26.2121 26.5566C26.2262 26.5425 26.2431 26.5125 26.2522 26.4523C26.2611 26.3929 26.2606 26.3159 26.2509 26.2224C26.2315 26.0351 26.1783 25.8052 26.1176 25.5614C26.1071 25.5192 26.0964 25.4765 26.0856 25.4337C26.0352 25.2333 25.9839 25.0292 25.9499 24.8465C25.9293 24.7351 25.9143 24.6281 25.9101 24.5315C25.9059 24.4364 25.9117 24.3429 25.9384 24.2628C25.9384 24.2628 25.9384 24.2628 25.9384 24.2628C25.9386 24.262 25.9407 24.2539 25.9416 24.2345C25.9426 24.2151 25.9423 24.1895 25.9402 24.157C25.9361 24.0919 25.9255 24.0066 25.9085 23.9022C25.8745 23.6939 25.8165 23.4186 25.7403 23.0959C25.588 22.4512 25.3647 21.625 25.1212 20.7826C24.8778 19.9405 24.6145 19.0836 24.3823 18.378C24.149 17.6688 23.9501 17.1216 23.8353 16.892L23.8346 16.8905C23.712 16.6372 23.5239 16.4213 23.2898 16.2652C23.0923 16.1335 22.8681 16.0484 22.6341 16.0156L22.737 22.2501L23.4716 29.2032Z" fill="#3F3F3F"/>
<path d="M77.3992 37.7162C77.3531 37.5604 77.3417 37.3965 77.3658 37.2358C77.3899 37.0752 77.449 36.9218 77.5388 36.7864C77.6286 36.6511 77.747 36.537 77.8857 36.4524C78.0243 36.3677 78.1798 36.3145 78.3413 36.2965L79.2135 32.4453L80.6346 33.9254L79.5885 37.3556C79.6009 37.6289 79.5125 37.8971 79.3403 38.1096C79.1681 38.322 78.9239 38.4639 78.654 38.5083C78.3842 38.5528 78.1074 38.4967 77.8761 38.3507C77.6449 38.2047 77.4752 37.979 77.3992 37.7162Z" fill="#A0616A"/>
<path d="M79.4942 13.9902L79.5641 14.3212L83.2047 25.4587L80.7558 35.3837L78.7514 34.4464L79.224 25.6469C75.6266 20.8438 74.5686 19.1053 74.8822 14.1063L79.4942 13.9902Z" fill="white"/>
<path fill-rule="evenodd" clip-rule="evenodd" d="M79.5641 14.3212L79.4942 13.9902L74.8822 14.1063C74.5686 19.1053 75.6266 20.8438 79.224 25.6469L78.7514 34.4464L80.7558 35.3837L83.2047 25.4587L79.5641 14.3212ZM83.0778 25.4634L79.446 14.3529L79.3957 14.1149L74.9973 14.2256C74.8536 16.6532 75.044 18.2919 75.6996 19.9041C76.3676 21.5469 77.5213 23.1698 79.3217 25.5737L79.3483 25.6092L78.8778 34.3707L80.6729 35.2101L83.0778 25.4634Z" fill="#3F3F3F"/>
<path d="M76.3909 66.1328L74.6001 66.1326L73.748 59.2246L76.3913 59.2249L76.3909 66.1328Z" fill="#A0616A"/>
<path d="M76.4526 67.9981L70.9453 67.9979V67.9282C70.9454 67.3597 71.1712 66.8145 71.5732 66.4125C71.9752 66.0105 72.5204 65.7847 73.0889 65.7847H73.089L74.095 65.0215L75.972 65.7848L76.4527 65.7848L76.4526 67.9981Z" fill="#2F2E41"/>
<path d="M66.5491 66.1328L64.7583 66.1326L63.9062 59.2246L66.5495 59.2249L66.5491 66.1328Z" fill="#A0616A"/>
<path d="M66.6108 67.9981L61.1035 67.9979V67.9282C61.1036 67.3597 61.3294 66.8145 61.7314 66.4125C62.1334 66.0105 62.6786 65.7847 63.2471 65.7847H63.2472L64.2532 65.0215L66.1302 65.7848L66.6109 65.7848L66.6108 67.9981Z" fill="#2F2E41"/>
<path d="M78.5693 34.4448C78.5693 34.4448 79.2758 36.1226 78.5693 38.8601C77.8629 41.5976 77.6863 48.4854 77.6863 48.4854L76.5538 63.9526H73.5584L73.4476 52.8124L71.9463 40.8028L68.9439 52.1943C68.9439 52.1943 67.796 60.6717 67.3544 61.0249C66.9129 61.3781 66.7118 63.8457 66.7118 63.8457C65.8042 63.9816 64.4237 63.6267 63.6094 63.2038C63.945 63.0587 65.3676 34.8624 65.4117 34.4448C65.5841 32.8112 78.5693 34.4448 78.5693 34.4448Z" fill="#3F3F3F"/>
<path d="M54.0301 31.4787C54.192 31.4921 54.3549 31.4699 54.5072 31.4135C54.6596 31.3572 54.7978 31.2682 54.912 31.1527C55.0262 31.0372 55.1137 30.898 55.1684 30.745C55.223 30.5921 55.2434 30.429 55.2282 30.2672L58.8211 28.629L57.0826 27.5391L53.9373 29.2618C53.6673 29.3054 53.4226 29.4465 53.2497 29.6584C53.0768 29.8703 52.9876 30.1382 52.999 30.4115C53.0105 30.6847 53.1218 30.9443 53.3118 31.141C53.5018 31.3377 53.7574 31.4578 54.0301 31.4787Z" fill="#A0616A"/>
<path d="M68.0162 17.8167L69.2361 18.2881L65.8176 25.0865L56.8646 30.0208L56.1934 27.9124L62.9787 22.2897C65.352 15.385 66.7781 12.3 68.4908 12.3422L68.0162 17.8167Z" fill="white"/>
<path fill-rule="evenodd" clip-rule="evenodd" d="M67.8866 17.8975L68.3573 12.4678C68.0153 12.4947 67.6762 12.6624 67.3249 12.9962C66.9271 13.3742 66.5214 13.9584 66.0903 14.7682C65.2282 16.3876 64.2811 18.8763 63.0942 22.3294L63.083 22.3619L56.3347 27.9539L56.9359 29.8421L65.7255 24.9978L69.0665 18.3535L67.8866 17.8975ZM69.2361 18.2881L65.8176 25.0865L56.8646 30.0208L56.1934 27.9124L62.9787 22.2897C65.2951 15.5507 66.7091 12.4502 68.368 12.3446C68.4088 12.342 68.4497 12.3412 68.4908 12.3422L68.0162 17.8167L69.2361 18.2881Z" fill="#3F3F3F"/>
<path d="M66.9264 13.9129C67.0818 13.3591 67.4224 12.8752 67.8913 12.5421C68.3603 12.2089 68.9292 12.0465 69.5034 12.0821C69.5125 12.0827 69.5216 12.0834 69.5307 12.0841C70.2935 12.142 71.2699 10.2911 72.281 10.3699C72.9925 10.4253 73.7212 10.4827 74.4049 10.5377C75.0142 10.5867 75.5878 12.5594 76.0816 12.6014C77.0143 12.6808 77.2346 12.7422 77.3012 12.7644C77.5661 12.8527 78.5852 12.9225 79.227 13.6713C79.5144 14.0065 80.6569 17.1797 79.9504 20.5354C79.244 23.891 78.4358 28.2378 78.4358 28.2378C78.4358 28.2378 79.142 30.3373 78.7888 31.2204C78.4356 32.1035 79.1421 32.7216 79.1421 33.0748C79.1421 33.428 78.9654 35.1942 78.9654 35.1942C78.9654 35.1942 66.3859 36.5293 65.278 35.1942C65.2416 35.1504 66.7475 27.8311 66.124 21.9472C65.7818 18.7172 66.4197 15.6914 66.9264 13.9129Z" fill="white"/>
<path fill-rule="evenodd" clip-rule="evenodd" d="M67.044 13.9459L67.0439 13.9464C66.5392 15.7175 65.9056 18.7262 66.2455 21.9343C66.5586 24.8895 66.3369 28.2006 66.0425 30.7746C65.8952 32.0624 65.7296 33.1672 65.6031 33.9527C65.548 34.2946 65.5003 34.5762 65.4649 34.7856C65.4596 34.8167 65.4546 34.8462 65.4499 34.8741C65.4316 34.9822 65.4178 35.065 65.409 35.1215C65.4074 35.1323 65.4059 35.142 65.4047 35.1505C65.4592 35.2011 65.543 35.2523 65.6611 35.3014C65.8043 35.3609 65.9879 35.4131 66.2085 35.4578C66.6496 35.5473 67.2248 35.6043 67.8898 35.6354C69.2189 35.6977 70.8905 35.6563 72.531 35.5729C74.1707 35.4895 75.7762 35.3645 76.972 35.2603C77.5698 35.2082 78.0651 35.1613 78.4108 35.1274C78.5837 35.1105 78.7192 35.0968 78.8115 35.0874C78.8267 35.0858 78.8408 35.0843 78.8537 35.083C78.8583 35.036 78.8644 34.974 78.8715 34.9009C78.888 34.73 78.9101 34.4984 78.9321 34.2559C78.9766 33.767 79.0199 33.2444 79.0199 33.0748C79.0199 33.0195 78.9903 32.9395 78.928 32.8148C78.9119 32.7828 78.894 32.7481 78.8749 32.7114C78.8259 32.617 78.7697 32.5088 78.7207 32.3944C78.5813 32.069 78.4823 31.6579 78.6754 31.175C78.7539 30.979 78.777 30.7034 78.7607 30.3881C78.7446 30.0757 78.6907 29.7371 78.6252 29.4229C78.5598 29.1091 78.4834 28.8221 78.4232 28.6135C78.3932 28.5092 78.3673 28.4247 78.3489 28.3664C78.3398 28.3373 78.3325 28.3147 78.3275 28.2995C78.325 28.2919 78.3231 28.2861 78.3219 28.2823L78.3204 28.278L78.3201 28.277L78.32 28.2768L78.3099 28.2467L78.3157 28.2155L78.4358 28.2378C78.4358 28.2378 79.142 30.3373 78.7888 31.2204C78.5494 31.819 78.7969 32.2958 78.9811 32.651C79.0687 32.8197 79.1421 32.961 79.1421 33.0748C79.1421 33.428 78.9654 35.1942 78.9654 35.1942C78.9654 35.1942 66.3859 36.5293 65.278 35.1942C65.2729 35.188 65.2985 35.0368 65.3445 34.7652C65.6243 33.1126 66.6595 27.0006 66.124 21.9472C65.7818 18.7172 66.4197 15.6914 66.9264 13.9129C67.0818 13.3591 67.4224 12.8752 67.8913 12.5421C68.3603 12.2089 68.9292 12.0465 69.5034 12.0821C69.5125 12.0827 69.5216 12.0834 69.5307 12.0841L69.5215 12.2058C69.5128 12.2052 69.5041 12.2045 69.4954 12.2039C68.9493 12.1702 68.4081 12.3247 67.962 12.6416C67.5159 12.9586 67.1919 13.4189 67.044 13.9459ZM77.3012 12.7644C77.3511 12.781 77.4277 12.797 77.5235 12.817C77.9365 12.9031 78.706 13.0635 79.227 13.6713C79.5144 14.0065 80.6569 17.1797 79.9504 20.5354C79.244 23.891 78.4358 28.2378 78.4358 28.2378C78.3157 28.2155 78.3157 28.2155 78.3157 28.2155L78.3157 28.2153L78.325 28.1658C78.3311 28.1331 78.3401 28.0847 78.3518 28.022C78.3753 27.8965 78.4097 27.7136 78.4531 27.4835C78.5399 27.0235 78.663 26.3751 78.8083 25.6218C79.0987 24.1154 79.4775 22.189 79.8309 20.5102C80.18 18.8522 80.0726 17.2368 79.8413 15.993C79.7258 15.3714 79.5796 14.8443 79.4452 14.4531C79.3779 14.2573 79.3139 14.0966 79.2586 13.9757C79.2015 13.8508 79.1581 13.7785 79.1343 13.7508C78.8332 13.3994 78.4408 13.2043 78.0843 13.0861C77.9064 13.0271 77.7391 12.9877 77.598 12.9575C77.5665 12.9507 77.5355 12.9442 77.5055 12.938C77.4072 12.9175 77.3199 12.8994 77.2626 12.8803C77.2111 12.8631 77.004 12.8025 76.0712 12.7231C75.9709 12.7146 75.8835 12.659 75.8108 12.5932C75.7367 12.5261 75.6652 12.4368 75.5966 12.3377C75.4743 12.1611 75.3491 11.9359 75.2247 11.7123C75.2098 11.6853 75.1948 11.6584 75.1799 11.6317C75.0386 11.3782 74.8984 11.1335 74.7575 10.9491C74.6872 10.8572 74.62 10.7847 74.5563 10.7349C74.4924 10.6848 74.4391 10.663 74.3951 10.6594C73.7115 10.6044 72.9829 10.547 72.2715 10.4916C72.0578 10.475 71.8348 10.5597 71.5991 10.7147C71.3639 10.8694 71.1304 11.0842 70.8972 11.3074C70.8647 11.3385 70.8322 11.3697 70.7997 11.4009C70.6022 11.5909 70.4045 11.7811 70.2143 11.9266C69.9964 12.0933 69.7605 12.224 69.5215 12.2058L69.5307 12.0841C69.8851 12.111 70.2856 11.7259 70.7143 11.3137C71.2083 10.8387 71.7397 10.3277 72.281 10.3699C72.9925 10.4253 73.7212 10.4827 74.4049 10.5377C74.7258 10.5635 75.0367 11.1227 75.3313 11.6526C75.5962 12.1289 75.8478 12.5815 76.0816 12.6014C77.0143 12.6808 77.2346 12.7422 77.3012 12.7644Z" fill="#3F3F3F"/>
<path d="M73.2885 9.98913C75.2956 9.98913 76.9227 8.36204 76.9227 6.35492C76.9227 4.3478 75.2956 2.7207 73.2885 2.7207C71.2814 2.7207 69.6543 4.3478 69.6543 6.35492C69.6543 8.36204 71.2814 9.98913 73.2885 9.98913Z" fill="#A0616A"/>
<path d="M70.7981 2.15624C71.0585 2.14851 70.9691 1.65755 71.179 1.50093C71.18 1.50568 71.181 1.51043 71.1821 1.51516C71.2096 1.62121 71.2705 1.71562 71.3557 1.7845C71.4409 1.85338 71.546 1.89307 71.6554 1.89774C71.7649 1.90241 71.873 1.87181 71.9637 1.81044C72.0545 1.74907 72.1231 1.66018 72.1596 1.55686C72.1944 1.43734 72.2574 1.32792 72.3433 1.23782C72.4292 1.14771 72.5354 1.07955 72.6532 1.03906C72.6662 1.49412 73.0104 1.88906 73.4211 2.08561C73.8317 2.28215 74.2999 2.31486 74.7551 2.32159C75.2103 2.32832 75.6721 2.31308 76.1135 2.42447C76.5549 2.53586 76.9843 2.79775 77.1729 3.2121C77.3615 3.62645 77.2269 4.19692 76.8145 4.38976C77.134 4.39146 77.4051 4.65509 77.5155 4.95485C77.626 5.25463 77.6091 5.58446 77.5848 5.90301C77.495 7.07818 77.2761 8.34339 76.4204 9.15384C75.7682 9.77152 74.8347 10.0204 73.9365 10.0168C73.0382 10.0132 73.1962 9.9306 72.3276 9.70133C72.3276 9.70133 71.5019 7.33422 71.7099 7.10136C71.9178 6.86851 72.0905 6.57053 72.0528 6.26062C72.0152 5.95072 71.6822 5.67311 71.3931 5.79108C71.4418 5.66684 71.4784 5.64317 71.5013 5.64948C71.4867 5.61417 71.4739 5.57813 71.4631 5.54149C71.4087 5.35478 71.3108 5.18364 71.1773 5.04215C71.0439 4.90067 70.8788 4.79286 70.6956 4.72761C70.5105 4.66755 70.3115 4.66556 70.1253 4.72192C69.9391 4.77827 69.7746 4.89027 69.6539 5.04286C68.7029 4.15095 69.2929 2.20094 70.7981 2.15624Z" fill="#3F3F3F"/>
</svg>
