<svg width="109" height="68" viewBox="0 0 109 68" fill="none" xmlns="http://www.w3.org/2000/svg">
<path d="M93.9828 45.3781C93.8724 45.1981 93.8027 44.9961 93.7788 44.7862C93.7549 44.5764 93.7773 44.3639 93.8444 44.1636C93.9115 43.9634 94.0217 43.7803 94.1672 43.6273C94.3127 43.4742 94.49 43.3549 94.6866 43.2778L94.4824 38.1484L96.7661 39.5273L96.6099 44.1868C96.7175 44.5257 96.6971 44.8923 96.5525 45.2171C96.408 45.542 96.1493 45.8025 95.8254 45.9493C95.5016 46.0961 95.1352 46.1191 94.7956 46.0138C94.456 45.9085 94.1668 45.6823 93.9828 45.3781Z" fill="#A0616A"/>
<path d="M97.0309 42.0505L95.0008 42.3749C94.9155 42.3885 94.8284 42.3849 94.7446 42.3643C94.6608 42.3437 94.5819 42.3066 94.5127 42.255C94.4435 42.2034 94.3853 42.1385 94.3415 42.0641C94.2978 41.9897 94.2694 41.9072 94.258 41.8217L93.3991 35.353L89.1549 29.5448C88.9977 29.3297 88.8863 29.0847 88.8275 28.8249C88.7686 28.565 88.7636 28.2959 88.8128 28.0341C88.862 27.7723 88.9642 27.5233 89.1133 27.3025C89.2624 27.0817 89.4551 26.8938 89.6796 26.7503C90.1155 26.4718 90.6441 26.3778 91.1493 26.489C91.6546 26.6003 92.0949 26.9077 92.3735 27.3436L96.7082 34.1267L97.5709 41.3354C97.5764 41.3814 97.5771 41.4279 97.5728 41.474C97.5594 41.6167 97.4989 41.7508 97.4008 41.8552C97.3026 41.9596 97.1725 42.0284 97.0309 42.0505Z" fill="#63388B"/>
<path d="M90.0326 66.0607H88.2714L87.4336 59.2676L90.0329 59.2677L90.0326 66.0607Z" fill="#A0616A"/>
<path d="M87.0116 65.5566H90.4081V67.6952H84.873C84.873 67.128 85.0984 66.5841 85.4994 66.183C85.9005 65.782 86.4444 65.5566 87.0116 65.5566Z" fill="#2F2E41"/>
<path d="M97.4612 63.0463L96.1453 64.2168L91.2402 59.3804L92.9463 57.9707L97.4612 63.0463Z" fill="#A0616A"/>
<path d="M94.8713 64.6782L97.4091 62.4208L98.8304 64.0186L94.6948 67.6975C94.5082 67.4876 94.3647 67.2431 94.2725 66.9778C94.1804 66.7125 94.1414 66.4317 94.1577 66.1513C94.1741 65.8709 94.2456 65.5966 94.368 65.3438C94.4904 65.0911 94.6615 64.8649 94.8713 64.6782Z" fill="#2F2E41"/>
<path d="M72.3331 27.2174C72.5388 27.1695 72.7525 27.1672 72.9591 27.2108C73.1657 27.2544 73.3603 27.3427 73.5291 27.4697C73.6979 27.5966 73.8368 27.759 73.936 27.9454C74.0353 28.1318 74.0925 28.3377 74.1035 28.5486L79.0348 29.9751L77.0052 31.7063L72.6335 30.0862C72.278 30.0813 71.9366 29.9462 71.6741 29.7064C71.4116 29.4666 71.2461 29.1389 71.2091 28.7852C71.172 28.4316 71.266 28.0767 71.4732 27.7877C71.6803 27.4988 71.9863 27.2958 72.3331 27.2174Z" fill="#A0616A"/>
<path d="M87.708 22.2929C89.6566 22.2929 91.2363 20.7132 91.2363 18.7646C91.2363 16.816 89.6566 15.2363 87.708 15.2363C85.7594 15.2363 84.1797 16.816 84.1797 18.7646C84.1797 20.7132 85.7594 22.2929 87.708 22.2929Z" fill="#A0616A"/>
<path d="M90.248 64.7901L87.7967 64.5939C87.6383 64.5814 87.4902 64.5109 87.3805 64.3959C87.2708 64.281 87.2073 64.1297 87.2022 63.9709L86.518 43.3087C86.5124 43.1491 86.5662 42.993 86.6691 42.8708C86.7719 42.7486 86.9165 42.6689 87.0747 42.6471L91.9618 41.9652C92.0625 41.9511 92.1651 41.961 92.2612 41.9941C92.3574 42.0271 92.4444 42.0823 92.5152 42.1553C92.586 42.2283 92.6385 42.3169 92.6686 42.414C92.6987 42.5111 92.7055 42.614 92.6884 42.7142L90.8183 53.6677C90.8131 53.6978 90.8107 53.7283 90.8111 53.7589L90.9459 64.1372C90.947 64.2228 90.9311 64.3078 90.8991 64.3872C90.8671 64.4667 90.8196 64.539 90.7595 64.5999C90.6993 64.6608 90.6276 64.7092 90.5486 64.7422C90.4695 64.7752 90.3847 64.7922 90.2991 64.7922C90.2821 64.7922 90.265 64.7915 90.248 64.7901Z" fill="#2F2E41"/>
<path d="M93.3872 62.311L84.9664 52.9392C84.9058 52.8718 84.8601 52.7924 84.8322 52.7061C84.8043 52.6199 84.7948 52.5288 84.8044 52.4387L85.8679 42.4683C85.8854 42.3022 85.9666 42.1492 86.0945 42.0417C86.2224 41.9342 86.387 41.8805 86.5537 41.8919L91.7217 42.2364C91.8205 42.243 91.9165 42.2722 92.0022 42.3218C92.088 42.3713 92.1612 42.4399 92.2162 42.5222C92.2712 42.6045 92.3066 42.6984 92.3196 42.7966C92.3326 42.8947 92.3228 42.9946 92.2911 43.0884L89.1946 52.2489C89.1649 52.3362 89.1599 52.43 89.1801 52.52C89.2003 52.61 89.245 52.6927 89.3092 52.7589L96.4621 60.172C96.5299 60.2423 96.5809 60.327 96.6113 60.4197C96.6416 60.5125 96.6506 60.611 96.6375 60.7077C96.6244 60.8045 96.5895 60.897 96.5355 60.9784C96.4815 61.0597 96.4098 61.1278 96.3258 61.1774L94.1969 62.4354C94.0683 62.5111 93.9175 62.54 93.7699 62.5174C93.6224 62.4947 93.4872 62.4218 93.3872 62.311Z" fill="#2F2E41"/>
<path d="M87.0756 24.4737C87.0756 24.4737 89.2304 22.6062 90.236 23.6118C90.236 23.6118 94.9048 26.5567 92.8936 34.6013C92.8936 34.6013 94.6175 42.3586 93.8992 42.646C93.1809 42.9333 85.9264 44.0107 85.3518 43.1487C84.7772 42.2868 84.4899 29.0706 87.0756 24.4737Z" fill="#63388B"/>
<path d="M74.5264 31.1583L74.86 29.1296C74.874 29.0444 74.9049 28.9629 74.9509 28.8898C74.9969 28.8168 75.0571 28.7537 75.1279 28.7043C75.1987 28.655 75.2787 28.6202 75.3631 28.6023C75.4475 28.5843 75.5347 28.5834 75.6195 28.5996L82.0283 29.828L88.8797 27.6357C89.1335 27.5545 89.4012 27.5262 89.6663 27.5525C89.9314 27.5787 90.1883 27.659 90.4212 27.7883C90.6541 27.9177 90.858 28.0934 91.0204 28.3046C91.1828 28.5158 91.3002 28.758 91.3654 29.0163C91.492 29.5179 91.4142 30.0491 91.1491 30.4933C90.8839 30.9375 90.4532 31.2582 89.9516 31.3848L82.1466 33.355L75.0344 31.8965C74.989 31.8872 74.9447 31.8731 74.9023 31.8545C74.7712 31.7967 74.663 31.6969 74.5949 31.5708C74.5269 31.4448 74.5028 31.2996 74.5264 31.1583Z" fill="#63388B"/>
<path d="M89.2206 21.6282C89.543 20.882 89.8159 19.8882 89.1974 19.3606C88.8387 19.0546 88.322 19.054 87.8521 19.0159C86.528 18.9086 85.1649 18.2994 84.5177 17.1393C83.8705 15.9791 84.232 14.2541 85.453 13.7307C86.276 13.3778 87.2195 13.6182 88.081 13.8625L90.6676 14.596C91.4362 14.8139 92.2431 15.0543 92.7964 15.6305C93.6789 16.5495 93.6129 18.103 92.912 19.167C92.2111 20.2309 91.1557 21.3406 89.9473 21.7445L89.2206 21.6282Z" fill="#2F2E41"/>
<path d="M108.596 68.0004H72.9698C72.9317 68.0004 72.8952 67.9853 72.8682 67.9584C72.8413 67.9314 72.8262 67.8949 72.8262 67.8568C72.8262 67.8187 72.8413 67.7822 72.8682 67.7552C72.8952 67.7283 72.9317 67.7131 72.9698 67.7131H108.596C108.634 67.7131 108.671 67.7283 108.698 67.7552C108.725 67.7822 108.74 67.8187 108.74 67.8568C108.74 67.8949 108.725 67.9314 108.698 67.9584C108.671 67.9853 108.634 68.0004 108.596 68.0004Z" fill="#3F3D56"/>
<path d="M70.9651 0H1.00558C0.738973 0.00029582 0.483371 0.106334 0.294853 0.294853C0.106334 0.483371 0.00029582 0.738973 0 1.00558V52.721C0.00029582 52.9876 0.106334 53.2432 0.294853 53.4318C0.483371 53.6203 0.738973 53.7263 1.00558 53.7266H70.9651C71.2317 53.7263 71.4873 53.6203 71.6758 53.4318C71.8643 53.2432 71.9704 52.9876 71.9707 52.721V1.00558C71.9704 0.738973 71.8643 0.483371 71.6758 0.294853C71.4873 0.106334 71.2317 0.00029582 70.9651 0ZM71.6834 52.721C71.6833 52.9115 71.6076 53.0942 71.4729 53.2288C71.3382 53.3635 71.1556 53.4392 70.9651 53.4393H1.00558C0.815105 53.4392 0.632453 53.3635 0.497767 53.2288C0.363082 53.0942 0.287384 52.9115 0.287308 52.721V1.00558C0.287384 0.815105 0.363082 0.632453 0.497767 0.497767C0.632453 0.363082 0.815105 0.287384 1.00558 0.287308H70.9651C71.1556 0.287384 71.3382 0.363082 71.4729 0.497767C71.6076 0.632453 71.6833 0.815105 71.6834 1.00558V52.721Z" fill="#3F3D56"/>
<path d="M71.826 4.02734H0.142578V4.31465H71.826V4.02734Z" fill="#3F3D56"/>
<path d="M2.58653 3.01682C3.06256 3.01682 3.44846 2.63092 3.44846 2.15489C3.44846 1.67887 3.06256 1.29297 2.58653 1.29297C2.11051 1.29297 1.72461 1.67887 1.72461 2.15489C1.72461 2.63092 2.11051 3.01682 2.58653 3.01682Z" fill="#3F3D56"/>
<path d="M5.06505 3.01682C5.54108 3.01682 5.92697 2.63092 5.92697 2.15489C5.92697 1.67887 5.54108 1.29297 5.06505 1.29297C4.58902 1.29297 4.20312 1.67887 4.20312 2.15489C4.20312 2.63092 4.58902 3.01682 5.06505 3.01682Z" fill="#3F3D56"/>
<path d="M7.54161 3.01682C8.01764 3.01682 8.40354 2.63092 8.40354 2.15489C8.40354 1.67887 8.01764 1.29297 7.54161 1.29297C7.06558 1.29297 6.67969 1.67887 6.67969 2.15489C6.67969 2.63092 7.06558 3.01682 7.54161 3.01682Z" fill="#3F3D56"/>
<path d="M43.3585 44.7201C43.3204 44.7201 43.2839 44.705 43.2569 44.678C43.23 44.6511 43.2148 44.6145 43.2148 44.5764V38.6866C43.2148 38.6485 43.23 38.612 43.2569 38.585C43.2839 38.5581 43.3204 38.543 43.3585 38.543C43.3966 38.543 43.4331 38.5581 43.4601 38.585C43.487 38.612 43.5022 38.6485 43.5022 38.6866V44.5764C43.5021 44.6145 43.487 44.6511 43.4601 44.678C43.4331 44.705 43.3966 44.7201 43.3585 44.7201Z" fill="#3F3D56"/>
<path d="M43.1625 36.3884C43.1371 36.3885 43.1122 36.3817 43.0903 36.3689L34.9286 31.6134C34.8957 31.5942 34.8718 31.5627 34.8621 31.5259C34.8525 31.4891 34.8578 31.45 34.8769 31.4171C34.8961 31.3842 34.9275 31.3602 34.9643 31.3505C35.0011 31.3407 35.0403 31.346 35.0732 31.3651L43.2349 36.1206C43.2622 36.1365 43.2835 36.161 43.2955 36.1902C43.3075 36.2194 43.3095 36.2518 43.3013 36.2823C43.293 36.3128 43.275 36.3397 43.2499 36.3589C43.2248 36.3781 43.1941 36.3885 43.1625 36.3884Z" fill="#3F3D56"/>
<path d="M26.8372 36.3883C26.8056 36.3883 26.7748 36.3779 26.7498 36.3587C26.7247 36.3395 26.7066 36.3126 26.6983 36.2821C26.6901 36.2516 26.6921 36.2192 26.7041 36.19C26.7161 36.1608 26.7374 36.1363 26.7647 36.1204L34.9264 31.3649C34.9593 31.3459 34.9984 31.3408 35.0351 31.3505C35.0719 31.3603 35.1032 31.3842 35.1223 31.4171C35.1415 31.4499 35.1468 31.489 35.1372 31.5257C35.1276 31.5625 35.1038 31.594 35.071 31.6132L26.9093 36.3688C26.8874 36.3815 26.8625 36.3882 26.8372 36.3883Z" fill="#3F3D56"/>
<path d="M51.6371 43.5701C51.6117 43.5701 51.5868 43.5634 51.5649 43.5506L43.4032 38.7951C43.3703 38.7758 43.3464 38.7444 43.3368 38.7076C43.3271 38.6707 43.3324 38.6316 43.3516 38.5987C43.3707 38.5658 43.4021 38.5419 43.4389 38.5321C43.4757 38.5224 43.5149 38.5276 43.5478 38.5467L51.7095 43.3023C51.7368 43.3182 51.7581 43.3426 51.7701 43.3718C51.7821 43.4011 51.7842 43.4334 51.7759 43.4639C51.7677 43.4944 51.7496 43.5213 51.7245 43.5405C51.6994 43.5597 51.6687 43.5701 51.6371 43.5701Z" fill="#3F3D56"/>
<path d="M35.3137 43.5719C35.2821 43.5719 35.2514 43.5615 35.2263 43.5423C35.2012 43.5231 35.1832 43.4962 35.1749 43.4657C35.1667 43.4352 35.1687 43.4028 35.1807 43.3736C35.1927 43.3444 35.214 43.3199 35.2413 43.304L43.403 38.5485C43.4359 38.5295 43.475 38.5244 43.5117 38.5341C43.5484 38.5439 43.5798 38.5678 43.5989 38.6007C43.618 38.6335 43.6234 38.6726 43.6138 38.7093C43.6041 38.7461 43.5803 38.7776 43.5476 38.7968L35.3859 43.5524C35.364 43.5651 35.3391 43.5718 35.3137 43.5719Z" fill="#3F3D56"/>
<path d="M35.0261 29.0613C34.988 29.0614 34.9516 29.0463 34.9246 29.0194C34.8977 28.9925 34.8825 28.9561 34.8824 28.918L34.8691 23.6909C34.8691 23.672 34.8728 23.6533 34.8799 23.6359C34.8871 23.6184 34.8977 23.6026 34.911 23.5892C34.9243 23.5758 34.9401 23.5652 34.9575 23.5579C34.9749 23.5507 34.9936 23.5469 35.0124 23.5469H35.0128C35.0508 23.5469 35.0873 23.562 35.1143 23.5888C35.1412 23.6157 35.1564 23.6521 35.1564 23.6902L35.1697 28.9173C35.1698 28.9362 35.1661 28.9549 35.1589 28.9724C35.1518 28.9898 35.1412 29.0057 35.1279 29.019C35.1146 29.0324 35.0988 29.043 35.0814 29.0503C35.064 29.0575 35.0453 29.0613 35.0264 29.0614L35.0261 29.0613Z" fill="#3F3D56"/>
<path d="M36.885 31.7796H33.1425C32.9711 31.7794 32.8068 31.7113 32.6856 31.5901C32.5645 31.4689 32.4963 31.3046 32.4961 31.1332V29.2109C32.4963 29.0395 32.5645 28.8752 32.6856 28.754C32.8068 28.6328 32.9711 28.5646 33.1425 28.5645H36.885C37.0564 28.5646 37.2207 28.6328 37.3419 28.754C37.4631 28.8752 37.5313 29.0395 37.5315 29.2109V31.1332C37.5313 31.3046 37.4631 31.4689 37.3419 31.5901C37.2207 31.7113 37.0564 31.7794 36.885 31.7796Z" fill="#CCCCCC"/>
<path d="M30.6909 22.008H22.7276C22.6895 22.008 22.653 21.9929 22.6261 21.9659C22.5991 21.939 22.584 21.9025 22.584 21.8644C22.584 21.8263 22.5991 21.7897 22.6261 21.7628C22.653 21.7358 22.6895 21.7207 22.7276 21.7207H30.6909C30.729 21.7207 30.7655 21.7358 30.7925 21.7628C30.8194 21.7897 30.8345 21.8263 30.8345 21.8644C30.8345 21.9025 30.8194 21.939 30.7925 21.9659C30.7655 21.9929 30.729 22.008 30.6909 22.008Z" fill="#3F3D56"/>
<path d="M35.0128 19.9568C34.9747 19.9568 34.9382 19.9417 34.9112 19.9148C34.8843 19.8878 34.8691 19.8513 34.8691 19.8132V14.8409C34.8691 14.8028 34.8843 14.7663 34.9112 14.7393C34.9382 14.7124 34.9747 14.6973 35.0128 14.6973C35.0509 14.6973 35.0874 14.7124 35.1144 14.7393C35.1413 14.7663 35.1564 14.8028 35.1564 14.8409V19.8132C35.1564 19.8513 35.1413 19.8878 35.1144 19.9148C35.0874 19.9417 35.0509 19.9568 35.0128 19.9568Z" fill="#3F3D56"/>
<path d="M19.6279 22.0078C19.6021 22.0078 19.5769 22.0009 19.5548 21.9877L11.824 17.4057C11.7913 17.3863 11.7677 17.3546 11.7583 17.3178C11.749 17.2809 11.7546 17.2418 11.774 17.2091C11.7934 17.1764 11.825 17.1527 11.8618 17.1432C11.8986 17.1337 11.9377 17.1393 11.9705 17.1586L19.7013 21.7405C19.7284 21.7566 19.7494 21.7811 19.7612 21.8103C19.773 21.8395 19.7749 21.8718 19.7665 21.9022C19.7582 21.9325 19.7401 21.9593 19.715 21.9784C19.69 21.9975 19.6594 22.0078 19.6279 22.0078Z" fill="#3F3D56"/>
<path d="M11.8977 26.59C11.8662 26.59 11.8356 26.5797 11.8105 26.5606C11.7855 26.5416 11.7674 26.5148 11.759 26.4844C11.7507 26.454 11.7526 26.4218 11.7644 26.3926C11.7762 26.3633 11.7972 26.3388 11.8243 26.3228L19.5551 21.7408C19.5878 21.7214 19.627 21.7157 19.6639 21.7252C19.7008 21.7346 19.7325 21.7583 19.7519 21.7911C19.7713 21.8239 19.7769 21.8631 19.7675 21.9C19.7581 21.9369 19.7343 21.9685 19.7016 21.988L11.9708 26.57C11.9487 26.5831 11.9234 26.59 11.8977 26.59Z" fill="#3F3D56"/>
<path d="M22.1527 24.3244H20.2304C20.059 24.3242 19.8947 24.256 19.7735 24.1348C19.6523 24.0136 19.5842 23.8493 19.584 23.6779V19.9355C19.5842 19.7641 19.6523 19.5998 19.7735 19.4786C19.8947 19.3574 20.059 19.2893 20.2304 19.2891H22.1527C22.3241 19.2893 22.4884 19.3574 22.6096 19.4786C22.7308 19.5998 22.799 19.7641 22.7992 19.9355V23.6779C22.799 23.8493 22.7308 24.0136 22.6096 24.1348C22.4884 24.256 22.3241 24.3242 22.1527 24.3244Z" fill="#CCCCCC"/>
<path d="M36.885 15.227H33.1425C32.9711 15.2268 32.8068 15.1586 32.6856 15.0374C32.5645 14.9162 32.4963 14.7519 32.4961 14.5805V12.6582C32.4963 12.4868 32.5645 12.3225 32.6856 12.2013C32.8068 12.0801 32.9711 12.0119 33.1425 12.0117H36.885C37.0564 12.0119 37.2207 12.0801 37.3419 12.2013C37.4631 12.3225 37.5313 12.4868 37.5315 12.6582V14.5805C37.5313 14.7519 37.4631 14.9162 37.3419 15.0374C37.2207 15.1586 37.0564 15.2268 36.885 15.227Z" fill="#CCCCCC"/>
<path d="M11.3773 19.8713H9.45504C9.28365 19.8711 9.11933 19.8029 8.99814 19.6817C8.87695 19.5605 8.80878 19.3962 8.80859 19.2248V15.4824C8.80878 15.311 8.87695 15.1467 8.99814 15.0255C9.11933 14.9043 9.28365 14.8361 9.45504 14.8359H11.3773C11.5487 14.8361 11.713 14.9043 11.8342 15.0255C11.9554 15.1467 12.0236 15.311 12.0238 15.4824V19.2248C12.0236 19.3962 11.9554 19.5605 11.8342 19.6817C11.713 19.8029 11.5487 19.8711 11.3773 19.8713Z" fill="#CCCCCC"/>
<path d="M11.3773 28.922H9.45504C9.28365 28.9219 9.11933 28.8537 8.99814 28.7325C8.87695 28.6113 8.80878 28.447 8.80859 28.2756V24.5332C8.80878 24.3618 8.87695 24.1975 8.99814 24.0763C9.11933 23.9551 9.28365 23.8869 9.45504 23.8867H11.3773C11.5487 23.8869 11.713 23.9551 11.8342 24.0763C11.9554 24.1975 12.0236 24.3618 12.0238 24.5332V28.2756C12.0236 28.447 11.9554 28.6113 11.8342 28.7325C11.713 28.8537 11.5487 28.9219 11.3773 28.922Z" fill="#CCCCCC"/>
<path d="M47.2983 22.008H39.3351C39.297 22.008 39.2604 21.9929 39.2335 21.9659C39.2065 21.939 39.1914 21.9025 39.1914 21.8644C39.1914 21.8263 39.2065 21.7897 39.2335 21.7628C39.2604 21.7358 39.297 21.7207 39.3351 21.7207H47.2983C47.3364 21.7207 47.373 21.7358 47.3999 21.7628C47.4268 21.7897 47.442 21.8263 47.442 21.8644C47.442 21.9025 47.4268 21.939 47.3999 21.9659C47.373 21.9929 47.3364 22.008 47.2983 22.008Z" fill="#3F3D56"/>
<path d="M50.3977 22.008C50.3662 22.008 50.3356 21.9977 50.3105 21.9786C50.2855 21.9595 50.2674 21.9327 50.259 21.9023C50.2507 21.872 50.2526 21.8397 50.2644 21.8105C50.2762 21.7813 50.2972 21.7568 50.3243 21.7407L58.0551 17.1587C58.0713 17.1491 58.0893 17.1428 58.1079 17.1401C58.1266 17.1374 58.1456 17.1385 58.1639 17.1432C58.1822 17.1478 58.1994 17.1561 58.2145 17.1674C58.2296 17.1787 58.2423 17.1929 58.2519 17.2091C58.2615 17.2253 58.2678 17.2433 58.2705 17.262C58.2732 17.2806 58.2722 17.2997 58.2675 17.3179C58.2628 17.3362 58.2546 17.3534 58.2433 17.3685C58.2319 17.3836 58.2178 17.3963 58.2015 17.4059L50.4708 21.9879C50.4487 22.0011 50.4234 22.008 50.3977 22.008Z" fill="#3F3D56"/>
<path d="M58.1282 26.59C58.1024 26.59 58.0772 26.5831 58.0551 26.5699L50.3243 21.988C50.2916 21.9685 50.2678 21.9369 50.2584 21.9C50.2489 21.8631 50.2545 21.8239 50.274 21.7911C50.2934 21.7584 50.325 21.7346 50.362 21.7252C50.3989 21.7157 50.438 21.7213 50.4708 21.7408L58.2015 26.3228C58.2286 26.3388 58.2497 26.3633 58.2615 26.3925C58.2733 26.4217 58.2752 26.454 58.2668 26.4844C58.2585 26.5148 58.2404 26.5416 58.2154 26.5606C58.1903 26.5797 58.1597 26.59 58.1282 26.59Z" fill="#3F3D56"/>
<path d="M49.7953 24.3244H47.873C47.7016 24.3242 47.5373 24.256 47.4161 24.1348C47.2949 24.0137 47.2268 23.8493 47.2266 23.6779V19.9355C47.2268 19.7641 47.2949 19.5998 47.4161 19.4786C47.5373 19.3574 47.7016 19.2893 47.873 19.2891H49.7953C49.9667 19.2893 50.131 19.3574 50.2522 19.4786C50.3734 19.5998 50.4415 19.7641 50.4417 19.9355V23.6779C50.4415 23.8493 50.3734 24.0137 50.2522 24.1348C50.131 24.256 49.9667 24.3242 49.7953 24.3244Z" fill="#CCCCCC"/>
<path d="M60.5687 19.8713H58.6464C58.4751 19.8711 58.3107 19.8029 58.1896 19.6817C58.0684 19.5605 58.0002 19.3962 58 19.2248V15.4824C58.0002 15.311 58.0684 15.1467 58.1896 15.0255C58.3107 14.9043 58.4751 14.8361 58.6464 14.8359H60.5687C60.7401 14.8361 60.9044 14.9043 61.0256 15.0255C61.1468 15.1467 61.215 15.311 61.2152 15.4824V19.2248C61.215 19.3962 61.1468 19.5605 61.0256 19.6817C60.9044 19.8029 60.7401 19.8711 60.5687 19.8713Z" fill="#CCCCCC"/>
<path d="M60.5687 28.922H58.6464C58.4751 28.9219 58.3107 28.8537 58.1896 28.7325C58.0684 28.6113 58.0002 28.447 58 28.2756V24.5332C58.0002 24.3618 58.0684 24.1975 58.1896 24.0763C58.3107 23.9551 58.4751 23.8869 58.6464 23.8867H60.5687C60.7401 23.8869 60.9044 23.9551 61.0256 24.0763C61.1468 24.1975 61.215 24.3618 61.2152 24.5332V28.2756C61.215 28.447 61.1468 28.6113 61.0256 28.7325C60.9044 28.8537 60.7401 28.9219 60.5687 28.922Z" fill="#CCCCCC"/>
<path d="M28.553 39.1058H24.8105C24.6391 39.1056 24.4748 39.0374 24.3536 38.9163C24.2324 38.7951 24.1643 38.6307 24.1641 38.4594V36.5371C24.1643 36.3657 24.2324 36.2014 24.3536 36.0802C24.4748 35.959 24.6391 35.8908 24.8105 35.8906H28.553C28.7244 35.8908 28.8887 35.959 29.0099 36.0802C29.1311 36.2014 29.1992 36.3657 29.1994 36.5371V38.4594C29.1992 38.6307 29.1311 38.7951 29.0099 38.9163C28.8887 39.0374 28.7244 39.1056 28.553 39.1058Z" fill="#CCCCCC"/>
<path d="M45.1897 39.1058H41.4472C41.2758 39.1056 41.1115 39.0374 40.9903 38.9162C40.8691 38.7951 40.801 38.6307 40.8008 38.4594V36.5371C40.801 36.3657 40.8691 36.2014 40.9903 36.0802C41.1115 35.959 41.2758 35.8908 41.4472 35.8906H45.1897C45.3611 35.8908 45.5254 35.959 45.6466 36.0802C45.7678 36.2014 45.8359 36.3657 45.8361 36.5371V38.4594C45.8359 38.6307 45.7678 38.7951 45.6466 38.9162C45.5254 39.0374 45.3611 39.1056 45.1897 39.1058Z" fill="#CCCCCC"/>
<path d="M37.5764 46.1449H33.8339C33.6626 46.1447 33.4982 46.0765 33.377 45.9553C33.2559 45.8341 33.1877 45.6698 33.1875 45.4984V43.5761C33.1877 43.4047 33.2559 43.2404 33.377 43.1192C33.4982 42.998 33.6626 42.9299 33.8339 42.9297H37.5764C37.7478 42.9299 37.9121 42.998 38.0333 43.1192C38.1545 43.2404 38.2227 43.4047 38.2229 43.5761V45.4984C38.2227 45.6698 38.1545 45.8341 38.0333 45.9553C37.9121 46.0765 37.7478 46.1447 37.5764 46.1449Z" fill="#CCCCCC"/>
<path d="M53.5217 46.1449H49.7793C49.6079 46.1447 49.4436 46.0765 49.3224 45.9553C49.2012 45.8341 49.133 45.6698 49.1328 45.4984V43.5761C49.133 43.4047 49.2012 43.2404 49.3224 43.1192C49.4436 42.998 49.6079 42.9299 49.7793 42.9297H53.5217C53.6931 42.9299 53.8574 42.998 53.9786 43.1192C54.0998 43.2404 54.168 43.4047 54.1682 43.5761V45.4984C54.168 45.6698 54.0998 45.8341 53.9786 45.9553C53.8574 46.0765 53.6931 46.1447 53.5217 46.1449Z" fill="#CCCCCC"/>
<path d="M45.1897 46.1449H41.4472C41.2758 46.1447 41.1115 46.0765 40.9903 45.9553C40.8691 45.8341 40.801 45.6698 40.8008 45.4984V43.5761C40.801 43.4047 40.8691 43.2404 40.9903 43.1192C41.1115 42.998 41.2758 42.9299 41.4472 42.9297H45.1897C45.3611 42.9299 45.5254 42.998 45.6466 43.1192C45.7678 43.2404 45.8359 43.4047 45.8361 43.5761V45.4984C45.8359 45.6698 45.7678 45.8341 45.6466 45.9553C45.5254 46.0765 45.3611 46.1447 45.1897 46.1449Z" fill="#CCCCCC"/>
<path d="M39.5617 24.3635H30.4628C30.2915 24.3633 30.1272 24.2951 30.006 24.1739C29.8848 24.0528 29.8166 23.8884 29.8164 23.717V20.0119C29.8166 19.8405 29.8848 19.6762 30.006 19.555C30.1272 19.4338 30.2915 19.3657 30.4628 19.3655H39.5617C39.7331 19.3657 39.8974 19.4338 40.0186 19.555C40.1397 19.6762 40.2079 19.8405 40.2081 20.0119V23.717C40.2079 23.8884 40.1397 24.0527 40.0186 24.1739C39.8974 24.2951 39.7331 24.3633 39.5617 24.3635Z" fill="#63388B"/>
</svg>
