<svg width="82" height="68" viewBox="0 0 82 68" fill="none" xmlns="http://www.w3.org/2000/svg">
<path d="M54.0999 55.5934H5.24414V0H54.0999V55.5934Z" fill="white"/>
<path d="M54.0999 55.5934H5.24414V0H54.0999V55.5934ZM5.95994 54.9294H53.3841V0.66396H5.95994V54.9294Z" fill="#E6E6E6"/>
<path d="M54.1195 0H5.32617V7.1117H54.1195V0Z" fill="#63388B"/>
<path d="M12.3222 17.658C14.6165 17.658 16.4764 15.7981 16.4764 13.5038C16.4764 11.2095 14.6165 9.34961 12.3222 9.34961C10.0279 9.34961 8.16797 11.2095 8.16797 13.5038C8.16797 15.7981 10.0279 17.658 12.3222 17.658Z" fill="#E6E6E6"/>
<path d="M34.0465 10.5684H19.8164V11.7902H34.0465V10.5684Z" fill="#E6E6E6"/>
<path d="M51.1766 13.502H19.8164V14.7238H51.1766V13.502Z" fill="#E6E6E6"/>
<path d="M51.1766 16.4336H19.8164V17.6554H51.1766V16.4336Z" fill="#E6E6E6"/>
<path d="M12.3222 51.66C14.6165 51.66 16.4764 49.8001 16.4764 47.5058C16.4764 45.2115 14.6165 43.3516 12.3222 43.3516C10.0279 43.3516 8.16797 45.2115 8.16797 47.5058C8.16797 49.8001 10.0279 51.66 12.3222 51.66Z" fill="#E6E6E6"/>
<path d="M34.0465 44.5742H19.8164V45.796H34.0465V44.5742Z" fill="#E6E6E6"/>
<path d="M51.1766 47.5059H19.8164V48.7277H51.1766V47.5059Z" fill="#E6E6E6"/>
<path d="M51.1766 50.4395H19.8164V51.6613H51.1766V50.4395Z" fill="#E6E6E6"/>
<path d="M13.0148 3.36523H6.82422V4.26124H13.0148V3.36523Z" fill="white"/>
<path d="M13.0148 4.91211H6.82422V5.80812H13.0148V4.91211Z" fill="white"/>
<path d="M59.3433 38.4098H0V22.5996H59.3433V38.4098Z" fill="white"/>
<path d="M59.3433 38.4098H0V22.5996H59.3433V38.4098ZM0.715794 37.694H58.6275V23.3154H0.715794V37.694Z" fill="#CCCCCC"/>
<path d="M7.36301 34.5893C9.63132 34.5893 11.4702 32.7505 11.4702 30.4821C11.4702 28.2138 9.63132 26.375 7.36301 26.375C5.09469 26.375 3.25586 28.2138 3.25586 30.4821C3.25586 32.7505 5.09469 34.5893 7.36301 34.5893Z" fill="#63388B"/>
<path d="M32.9728 27.0176H15.9805V28.2256H32.9728V27.0176Z" fill="#3F3D56"/>
<path d="M53.428 29.918H15.9805V31.126H53.428V29.918Z" fill="#3F3D56"/>
<path d="M53.428 32.8164H15.9805V34.0244H53.428V32.8164Z" fill="#3F3D56"/>
<path d="M68.8368 42.5781C68.8891 42.5572 68.9429 42.5405 68.9978 42.5281L70.8098 37.8204L70.0409 36.8661L71.3295 35.5176C71.7016 36.0654 73.5432 37.2197 72.9828 38.0427L70.1707 43.0456C70.2495 43.1866 70.2954 43.3436 70.3048 43.5049C70.3141 43.6662 70.2869 43.8276 70.2249 43.9768C70.163 44.126 70.068 44.2593 69.9472 44.3665C69.8264 44.4738 69.6828 44.5522 69.5273 44.596C68.272 44.9723 67.6154 43.0408 68.8368 42.5781Z" fill="#A0616A"/>
<path d="M70.5519 37.7989C70.2269 37.8927 68.9993 35.9838 68.7942 35.8178C68.5497 35.5865 68.4068 35.2677 68.397 34.9313C68.3872 34.5949 68.5112 34.2684 68.7418 34.0232C68.9724 33.7781 69.2908 33.6344 69.6271 33.6237C69.9635 33.613 70.2904 33.736 70.5362 33.966L72.4243 35.2876C72.4778 35.3256 72.5226 35.3746 72.5556 35.4313C72.5886 35.4881 72.6091 35.5512 72.6157 35.6165C72.6223 35.6818 72.6149 35.7477 72.594 35.8099C72.573 35.8721 72.539 35.9292 72.4943 35.9771C72.2685 36.1307 70.8728 37.9161 70.5519 37.7989Z" fill="#63388B"/>
<path d="M71.1948 66.4365L69.7322 66.4363L69.5137 60.7949L71.1951 60.795L71.1948 66.4365Z" fill="#A0616A"/>
<path d="M71.566 67.8532L66.8501 67.853C66.8059 65.3568 69.996 66.0374 71.5661 65.9579L71.566 67.8532Z" fill="#2F2E41"/>
<path d="M75.9563 65.9554L74.5035 66.1238L73.1621 60.6003L75.3064 60.3516L75.9563 65.9554Z" fill="#A0616A"/>
<path d="M76.4914 67.3201L71.8068 67.8636C71.4752 65.3891 74.7225 65.6974 76.273 65.4375L76.4914 67.3201Z" fill="#2F2E41"/>
<path d="M71.455 65.0961H69.0501V56.0317L67.6458 48.4647L65.7246 41.7414L70.2315 39.5488L71.0909 40.8992C71.2238 41.0204 73.3771 43.0129 73.6094 44.9872C73.8461 46.9995 71.5594 64.3084 71.4619 65.0442L71.455 65.0961Z" fill="#2F2E41"/>
<path d="M65.8887 43.15L65.1462 39.8957C64.9721 39.7282 63.3242 38.039 65.1483 35.8802L66.1094 33.3742L68.9253 32.502L70.0262 33.3543C70.4697 33.6971 70.8221 34.1437 71.0524 34.6547C71.2826 35.1658 71.3838 35.7256 71.3469 36.2849L71.0462 40.8891L65.8887 43.15Z" fill="#2F2E41"/>
<path d="M68.2999 27.1058C71.2016 28.757 68.8194 33.1137 65.8636 31.5623C62.962 29.9112 65.3441 25.5545 68.2999 27.1058Z" fill="#A0616A"/>
<path d="M60.3165 32.9751C60.3257 33.0356 60.3302 33.0967 60.3298 33.1579L64.8692 36.2323L66.0684 35.6526L67.1797 37.348C66.5083 37.6075 64.834 39.2738 64.1002 38.4784L59.494 34.2726C59.3253 34.3214 59.1478 34.3314 58.9747 34.3017C58.8016 34.272 58.6375 34.2035 58.4948 34.1013C58.352 33.9991 58.2342 33.8659 58.1503 33.7116C58.0665 33.5573 58.0187 33.386 58.0105 33.2106C57.9203 31.7892 60.1265 31.5683 60.3165 32.9751Z" fill="#A0616A"/>
<path d="M64.9539 35.9638C64.9344 35.5967 67.2569 34.7657 67.483 34.5893C67.7879 34.3873 68.1605 34.3144 68.5191 34.3866C68.8776 34.4588 69.1929 34.6703 69.3958 34.9746C69.5987 35.2789 69.6726 35.6512 69.6014 36.01C69.5302 36.3688 69.3197 36.6846 69.0159 36.8884L67.153 38.5629C67.0996 38.6102 67.0367 38.6456 66.9685 38.6666C66.9004 38.6876 66.8285 38.6938 66.7577 38.6848C66.687 38.6758 66.619 38.6518 66.5583 38.6143C66.4975 38.5769 66.4455 38.5269 66.4057 38.4677C66.2986 38.1909 64.751 36.2749 64.9539 35.9638Z" fill="#63388B"/>
<path d="M73.3808 63.3006L70.3965 55.8249L72.3847 52.9668L76.7554 63.0437L73.3808 63.3006Z" fill="#2F2E41"/>
<path d="M81.6747 68.0003H61.9904C61.9588 68.0003 61.9284 67.9877 61.906 67.9654C61.8837 67.943 61.8711 67.9127 61.8711 67.881C61.8711 67.8494 61.8837 67.819 61.906 67.7967C61.9284 67.7743 61.9588 67.7617 61.9904 67.7617H81.6747C81.7064 67.7617 81.7367 67.7743 81.7591 67.7967C81.7815 67.819 81.794 67.8494 81.794 67.881C81.794 67.9127 81.7815 67.943 81.7591 67.9654C81.7367 67.9877 81.7064 68.0003 81.6747 68.0003Z" fill="#CCCCCC"/>
<path d="M76.0785 29.2728C75.1091 29.4516 74.0949 29.1559 73.2642 28.6252C72.4336 28.0944 71.7661 27.3442 71.1739 26.5562C70.8405 26.1127 70.518 25.6448 70.0642 25.3256C69.6104 25.0063 68.9825 24.8647 68.4977 25.1347C68.0703 25.3726 67.8819 25.9973 68.1327 26.3882C67.4594 26.2195 66.7453 26.2702 66.0648 26.4142C65.4093 26.5529 64.7432 26.7922 64.2894 27.2853C63.8358 27.7784 63.6642 28.5797 64.0475 29.1292L64.6164 29.2273C65.6549 28.9904 66.1348 29.0956 67.1733 29.3325C67.1382 29.1488 67.4266 29.0511 67.5724 29.1682C67.7183 29.2852 67.6658 29.5181 67.76 29.6796C68.1613 30.3678 68.1618 31.2122 67.9567 31.8519C68.9857 31.4246 69.7398 30.2678 69.9506 29.1738C70.0546 28.696 70.0162 28.1982 69.8401 27.742C69.7553 27.5422 69.6389 27.3573 69.4956 27.1943C69.8813 27.3075 70.2372 27.5046 70.5378 27.7715C71.0676 28.2323 71.4507 28.8338 71.8742 29.3938C72.2977 29.9538 72.7922 30.4964 73.4429 30.7601C74.4408 31.1645 75.6259 30.8108 76.445 30.1121C77.0842 29.5669 77.536 28.8442 77.8958 28.0789C77.6884 28.3896 77.4207 28.6554 77.1085 28.8605C76.7963 29.0656 76.446 29.2058 76.0785 29.2728Z" fill="#2F2E41"/>
<path d="M77.8984 28.0791C78.0282 27.8782 78.1242 27.6576 78.1829 27.4258C78.0942 27.645 77.9997 27.8637 77.8984 28.0791Z" fill="#2F2E41"/>
</svg>
