<svg width="75" height="68" viewBox="0 0 75 68" fill="none" xmlns="http://www.w3.org/2000/svg">
<path d="M69.1805 52.4915C72.5721 50.2189 75.0075 46.1806 74.4467 42.1367C71.408 45.3736 67.3224 47.4314 62.9126 47.9459C61.2112 48.1381 59.2988 48.1748 58.1045 49.4018C57.3613 50.1652 57.0556 51.271 57.0528 52.3364C57.05 53.4018 57.3193 54.4469 57.5868 55.4782L57.5276 55.7375C61.6052 55.5345 65.7888 54.7641 69.1805 52.4915Z" fill="#F0F0F0"/>
<path d="M74.3611 42.1352C73.1217 45.279 70.9233 47.9524 68.0781 49.7756C67.4725 50.1789 66.8072 50.4843 66.1065 50.6805C65.4178 50.8496 64.6965 50.8311 64.0173 50.6271C63.3802 50.4495 62.7492 50.1942 62.08 50.1746C61.7374 50.1697 61.3975 50.2372 61.0828 50.3728C60.7681 50.5085 60.4856 50.7091 60.2539 50.9615C59.6601 51.5755 59.3223 52.3663 59.0188 53.151C58.6819 54.0224 58.3457 54.9327 57.6452 55.5839C57.5603 55.6628 57.6877 55.7899 57.7724 55.7111C58.9913 54.5782 59.1041 52.7842 60.0568 51.4759C60.5014 50.8654 61.1326 50.3851 61.9115 50.3552C62.5925 50.329 63.2435 50.5918 63.887 50.7771C64.5466 50.9859 65.2473 51.03 65.9279 50.9055C66.6363 50.7456 67.3123 50.4664 67.9269 50.0797C69.3247 49.2312 70.5803 48.1683 71.6478 46.9298C72.874 45.523 73.8505 43.9169 74.5351 42.1809C74.5775 42.0734 74.4031 42.0285 74.3611 42.1352Z" fill="white"/>
<path d="M69.0283 49.2431C69.399 49.679 69.9126 49.9688 70.4773 50.061C71.042 50.1531 71.6211 50.0415 72.1111 49.7462C72.21 49.6861 72.1213 49.5295 72.0222 49.5897C71.5664 49.8656 71.027 49.9695 70.5013 49.8826C69.9756 49.7957 69.4983 49.5238 69.1556 49.1159C69.081 49.0273 68.9542 49.1551 69.0283 49.2431Z" fill="white"/>
<path d="M64.3286 50.7598C64.4124 49.5932 64.9327 48.501 65.786 47.701C65.8706 47.6218 65.7432 47.4947 65.6587 47.5738C64.7724 48.408 64.2332 49.5457 64.1487 50.7599C64.1407 50.8756 64.3207 50.8749 64.3286 50.7598Z" fill="white"/>
<path d="M72.647 45.4512C72.4684 45.3125 72.3271 45.1316 72.2358 44.9247C72.1444 44.7178 72.1058 44.4915 72.1235 44.2661C72.133 44.1505 71.953 44.1513 71.9436 44.2661C71.9252 44.5153 71.9681 44.7652 72.0685 44.9939C72.169 45.2227 72.3239 45.4234 72.5198 45.5785C72.537 45.5946 72.5598 45.6036 72.5834 45.6036C72.607 45.6036 72.6298 45.5946 72.647 45.5785C72.6638 45.5615 72.6732 45.5387 72.6732 45.5148C72.6732 45.491 72.6638 45.4682 72.647 45.4512Z" fill="white"/>
<path d="M62.6849 34.873C62.6769 34.945 62.669 35.017 62.6597 35.0898C62.5479 36.0573 62.3577 37.014 62.091 37.9507C62.0715 38.0234 62.0507 38.0969 62.0292 38.1689C61.3624 40.4187 60.2838 42.5251 58.8482 44.3811C58.2762 45.1191 57.6489 45.8126 56.9718 46.4554C56.0365 47.3432 54.9518 48.2313 54.3813 49.3434C54.3204 49.4588 54.2668 49.5778 54.2207 49.6998L57.2152 55.6443C57.2288 55.6544 57.241 55.6653 57.2547 55.6754L57.3634 55.9183C57.4006 55.8875 57.4386 55.8549 57.4758 55.8242C57.4975 55.8064 57.5185 55.7874 57.5402 55.7697C57.5544 55.7574 57.5686 55.7451 57.5822 55.7349C57.5869 55.7308 57.5917 55.7267 57.5951 55.7233C57.6086 55.7131 57.6201 55.7022 57.6323 55.6926C57.845 55.5107 58.0568 55.3269 58.2677 55.1413C58.2691 55.1406 58.2691 55.1406 58.2697 55.1386C59.8731 53.7205 61.3721 52.156 62.5859 50.4138C62.6224 50.3613 62.6603 50.3083 62.6955 50.2531C63.2383 49.4648 63.7157 48.6334 64.1231 47.7672C64.3446 47.2922 64.542 46.8063 64.7144 46.3114C65.1573 45.0317 65.3963 43.6902 65.4224 42.3362C65.4741 39.6371 64.662 36.9515 62.8266 35.0193C62.7796 34.9699 62.7332 34.9218 62.6849 34.873Z" fill="#F0F0F0"/>
<path d="M62.6163 34.9237C63.5196 38.1801 63.3738 41.6382 62.1997 44.8069C61.9591 45.4936 61.6117 46.138 61.1704 46.7165C60.7223 47.2661 60.1352 47.6857 59.4701 47.9317C58.8546 48.1735 58.1969 48.3495 57.6509 48.7368C57.3743 48.9391 57.1437 49.1977 56.974 49.4954C56.8044 49.7932 56.6996 50.1234 56.6665 50.4645C56.5621 51.3123 56.7685 52.147 56.9987 52.9563C57.2543 53.8549 57.534 54.7842 57.3666 55.7258C57.3464 55.8399 57.5246 55.8647 57.5448 55.7508C57.836 54.1124 56.8459 52.6121 56.8189 50.9939C56.8063 50.2387 57.0212 49.4753 57.625 48.9824C58.153 48.5515 58.831 48.3694 59.4564 48.1299C60.1087 47.8995 60.6948 47.5128 61.1632 47.0037C61.6326 46.4495 62.0042 45.8196 62.2621 45.1407C62.8673 43.6218 63.2299 42.0171 63.3366 40.3855C63.4687 38.524 63.2814 36.6537 62.7828 34.8554C62.7519 34.7441 62.5856 34.8132 62.6163 34.9237Z" fill="white"/>
<path d="M62.6374 43.8096C63.1958 43.9344 63.7803 43.8567 64.2867 43.5903C64.7931 43.3239 65.1882 42.8861 65.4016 42.3553C65.4445 42.2477 65.2793 42.1761 65.2365 42.2838C65.0386 42.7785 64.6705 43.1862 64.1985 43.4334C63.7264 43.6805 63.1816 43.7507 62.6623 43.6314C62.5495 43.6056 62.5252 43.784 62.6374 43.8096Z" fill="white"/>
<path d="M59.7987 47.8504C59.1632 46.8685 58.9211 45.6832 59.1207 44.5307C59.1405 44.4165 58.9623 44.3917 58.9425 44.5057C58.737 45.7054 58.9914 46.9384 59.655 47.9588C59.7184 48.056 59.8617 47.9471 59.7987 47.8504Z" fill="white"/>
<path d="M63.2434 38.6031C63.0172 38.5999 62.7955 38.5405 62.598 38.4303C62.4005 38.3202 62.2334 38.1627 62.1119 37.972C62.0498 37.874 61.9066 37.983 61.9682 38.0804C62.1035 38.2904 62.2882 38.4641 62.5061 38.5863C62.7241 38.7085 62.9686 38.7754 63.2184 38.7813C63.2419 38.7839 63.2655 38.7773 63.2843 38.7631C63.3032 38.7489 63.3159 38.728 63.32 38.7047C63.3232 38.6811 63.3169 38.6572 63.3025 38.6382C63.2882 38.6191 63.2669 38.6066 63.2434 38.6031Z" fill="white"/>
<path d="M0.0441153 60.1279C0.294462 57.5015 1.84237 54.8764 4.31381 53.9531C3.40681 56.6751 3.49183 59.6301 4.55383 62.2954C4.96712 63.3218 5.53368 64.4204 5.20294 65.4763C4.99716 66.1333 4.46234 66.6468 3.85749 66.9756C3.2526 67.3045 2.57564 67.4724 1.90712 67.637L1.77788 67.7503C0.640793 65.3696 -0.206233 62.7543 0.0441153 60.1279Z" fill="#F0F0F0"/>
<path d="M4.34024 54.0006C2.93349 55.6709 2.08881 57.742 1.92616 59.9197C1.88282 60.3878 1.91355 60.8599 2.01722 61.3185C2.13264 61.762 2.36472 62.1665 2.68934 62.49C2.98596 62.7977 3.325 63.078 3.54165 63.4525C3.64971 63.6458 3.71568 63.8597 3.73525 64.0803C3.75481 64.3009 3.72753 64.5231 3.65518 64.7324C3.48849 65.2587 3.14265 65.6936 2.78967 66.1072C2.39776 66.5664 1.9834 67.0372 1.82838 67.6355C1.8096 67.708 1.69821 67.6746 1.71696 67.6022C1.98668 66.5612 2.97202 65.946 3.42326 65.0025C3.63382 64.5622 3.71297 64.0558 3.49076 63.6038C3.29644 63.2085 2.94707 62.9191 2.64405 62.6102C2.32275 62.2993 2.08246 61.9144 1.94418 61.4892C1.81749 61.0374 1.76862 60.5672 1.79967 60.099C1.85274 59.0437 2.07141 58.0033 2.44767 57.0159C2.87084 55.8866 3.48407 54.8381 4.26082 53.9156C4.30892 53.8585 4.38802 53.9439 4.34024 54.0006Z" fill="white"/>
<path d="M1.93777 59.2156C1.57611 59.1387 1.25355 58.9358 1.02771 58.643C0.80186 58.3503 0.687432 57.9868 0.704858 57.6174C0.705706 57.6024 0.712366 57.5882 0.723434 57.578C0.734503 57.5677 0.749114 57.5622 0.764191 57.5625C0.779268 57.5628 0.79363 57.569 0.804254 57.5797C0.814878 57.5904 0.820932 57.6048 0.82114 57.6199C0.804279 57.9638 0.910903 58.3024 1.12177 58.5746C1.33263 58.8468 1.63385 59.0346 1.97105 59.1042C2.04431 59.1194 2.01061 59.2307 1.93777 59.2156Z" fill="white"/>
<path d="M2.5181 62.3535C3.15568 61.9475 3.61682 61.3162 3.80958 60.5854C3.82862 60.5129 3.94002 60.5463 3.921 60.6186C3.71899 61.3788 3.23776 62.0348 2.57336 62.4558C2.51 62.4959 2.45509 62.3934 2.5181 62.3535Z" fill="white"/>
<path d="M2.98254 55.9938C3.11628 56.0527 3.26255 56.0775 3.40823 56.0659C3.55391 56.0543 3.69442 56.0067 3.81716 55.9274C3.87997 55.8865 3.93482 55.9891 3.87241 56.0297C3.7364 56.1167 3.58115 56.1691 3.42023 56.1823C3.25931 56.1954 3.09761 56.169 2.94927 56.1052C2.93478 56.1004 2.92268 56.0902 2.91542 56.0768C2.90816 56.0634 2.9063 56.0477 2.9102 56.0329C2.91468 56.0182 2.92479 56.0058 2.93833 55.9985C2.95188 55.9912 2.96777 55.9895 2.98254 55.9938Z" fill="white"/>
<path d="M11.5555 58.4075C11.517 58.4341 11.4786 58.4608 11.44 58.4884C10.9242 58.8488 10.9389 59.2515 10.4881 59.6905C10.4527 59.7239 10.4174 59.7583 10.383 59.7927C9.3087 60.8628 8.44237 62.1231 7.8281 63.5094C7.58417 64.0613 7.38259 64.631 7.22509 65.2134C7.00762 66.0179 6.83583 66.9074 6.37878 67.5734C6.33187 67.6434 6.28068 67.7105 6.22548 67.7742L1.92586 67.8976C1.91595 67.8929 1.90602 67.8893 1.89606 67.8847L1.72461 67.8974C1.73063 67.8668 1.73754 67.8352 1.74357 67.8046C1.74699 67.7868 1.75136 67.769 1.75479 67.7513C1.75737 67.7394 1.76 67.7276 1.76166 67.7167C1.76251 67.7128 1.7634 67.7088 1.76428 67.7058C1.76593 67.695 1.76862 67.6851 1.7703 67.6752C1.80842 67.4984 1.84784 67.3215 1.88858 67.1446C1.88855 67.1436 1.88855 67.1436 1.88948 67.1426C2.18699 65.7916 2.64371 64.4807 3.25007 63.2373C3.26867 63.2004 3.28719 63.1626 3.30775 63.1257C3.58925 62.5749 3.91529 62.0481 4.28263 61.5504C4.48464 61.2786 4.70029 61.0171 4.92874 60.7671C5.52027 60.1221 6.20957 59.5742 6.97136 59.1435C8.49011 58.285 9.76654 57.9218 11.4289 58.3719C11.4714 58.3834 11.513 58.395 11.5555 58.4075Z" fill="#F0F0F0"/>
<path d="M11.5462 58.463C9.43962 58.9439 7.97299 60.1009 6.55497 61.7356C6.23848 62.0833 5.97878 62.4788 5.78544 62.9074C5.61059 63.331 5.55236 63.7937 5.6168 64.2474C5.66839 64.6716 5.77029 65.0996 5.71785 65.529C5.68775 65.7484 5.6116 65.959 5.49442 66.1469C5.37723 66.3348 5.22164 66.4958 5.03786 66.6194C4.58794 66.9391 4.04994 67.0782 3.51911 67.1959C2.92971 67.3266 2.31545 67.453 1.83144 67.8374C1.77279 67.884 1.70396 67.7902 1.76251 67.7437C2.6046 67.075 3.76171 67.177 4.6901 66.6953C5.1233 66.4706 5.49139 66.1139 5.58611 65.6192C5.66893 65.1866 5.56424 64.7452 5.50828 64.316C5.43893 63.8744 5.47878 63.4224 5.62436 62.9997C5.79526 62.5626 6.03929 62.1578 6.34599 61.8026C7.02374 60.992 7.82472 60.2929 8.71961 59.7311C9.73649 59.0849 10.3594 58.6155 11.534 58.3473C11.6067 58.3307 11.6185 58.4465 11.5462 58.463Z" fill="white"/>
<path d="M6.98941 61.1801C6.74694 60.9009 6.61158 60.5447 6.60752 60.1749C6.60345 59.8052 6.73094 59.4461 6.96722 59.1617C7.01523 59.1043 7.10665 59.1762 7.05858 59.2337C6.83807 59.4981 6.71934 59.8326 6.72383 60.1769C6.72832 60.5212 6.85573 60.8525 7.08307 61.1111C7.1324 61.1674 7.03847 61.236 6.98941 61.1801Z" fill="white"/>
<path d="M5.56346 64.0354C6.31693 64.0951 7.06524 63.8687 7.65917 63.4012C7.71798 63.3549 7.78683 63.4486 7.7281 63.4949C7.10913 63.9802 6.32992 64.2143 5.54597 64.1504C5.47125 64.1442 5.48915 64.0293 5.56346 64.0354Z" fill="white"/>
<path d="M9.76439 59.2364C9.8357 59.364 9.93758 59.4718 10.0609 59.5503C10.1842 59.6287 10.325 59.6754 10.4708 59.6859C10.5455 59.6911 10.5276 59.806 10.4533 59.8009C10.2923 59.7885 10.1368 59.7368 10.0004 59.6504C9.86399 59.5641 9.75081 59.4456 9.67074 59.3054C9.66208 59.2928 9.65854 59.2774 9.66084 59.2623C9.66314 59.2472 9.67109 59.2335 9.6831 59.2241C9.69554 59.215 9.71106 59.2112 9.72628 59.2136C9.7415 59.2159 9.7552 59.2241 9.76439 59.2364Z" fill="white"/>
<path d="M53.68 0.250004H50.7389C50.8741 0.581602 50.9258 0.941373 50.8892 1.29762C50.8527 1.65388 50.7291 1.99567 50.5293 2.29291C50.3296 2.59014 50.0598 2.83369 49.7437 3.0021C49.4277 3.1705 49.075 3.2586 48.7169 3.25863H35.8089C35.4508 3.25861 35.0982 3.17051 34.7821 3.0021C34.4661 2.83369 34.1963 2.59014 33.9965 2.29291C33.7968 1.99567 33.6732 1.65388 33.6366 1.29762C33.6001 0.94137 33.6517 0.581598 33.787 0.25H31.04C29.8209 0.249999 28.6517 0.734284 27.7897 1.59632C26.9276 2.45835 26.4434 3.62752 26.4434 4.84662V63.1049C26.4434 63.7085 26.5623 64.3063 26.7933 64.864C27.0243 65.4217 27.3628 65.9284 27.7897 66.3552C28.2165 66.7821 28.7232 67.1206 29.2809 67.3516C29.8386 67.5826 30.4363 67.7015 31.04 67.7015H53.68C54.2836 67.7015 54.8813 67.5826 55.439 67.3516C55.9967 67.1206 56.5034 66.7821 56.9303 66.3552C57.3571 65.9284 57.6957 65.4217 57.9267 64.864C58.1577 64.3063 58.2766 63.7085 58.2766 63.1049V4.84662C58.2766 4.24299 58.1577 3.64526 57.9267 3.08757C57.6957 2.52988 57.3571 2.02316 56.9303 1.59632C56.5034 1.16949 55.9967 0.830901 55.439 0.599899C54.8813 0.368898 54.2836 0.250003 53.68 0.250004Z" fill="white"/>
<path d="M53.6819 67.9515H31.042C29.757 67.95 28.5251 67.4389 27.6165 66.5303C26.7079 65.6217 26.1968 64.3898 26.1953 63.1049V4.84661C26.1968 3.56166 26.7079 2.32976 27.6165 1.42116C28.5251 0.512563 29.757 0.00146814 31.0419 0H34.1609L34.0204 0.344395C33.9006 0.638034 33.8549 0.956623 33.8873 1.2721C33.9196 1.58757 34.0291 1.89025 34.2059 2.15346C34.3828 2.41667 34.6217 2.63234 34.9016 2.78146C35.1815 2.93059 35.4938 3.0086 35.8109 3.00862H48.7189C49.036 3.00858 49.3482 2.93056 49.6281 2.78142C49.908 2.63229 50.1469 2.41662 50.3237 2.15342C50.5006 1.89022 50.6101 1.58755 50.6425 1.27209C50.6748 0.956621 50.6291 0.638037 50.5094 0.344395L50.3689 0H53.6819C54.9669 0.00145758 56.1988 0.512549 57.1074 1.42115C58.016 2.32975 58.5271 3.56166 58.5285 4.84661V63.1049C58.5271 64.3899 58.016 65.6218 57.1074 66.5304C56.1988 67.4389 54.9669 67.95 53.6819 67.9515ZM31.0419 0.499962C29.8895 0.501277 28.7847 0.959648 27.9698 1.77452C27.155 2.58939 26.6966 3.69421 26.6953 4.84661V63.1049C26.6966 64.2573 27.155 65.3621 27.9698 66.177C28.7847 66.9918 29.8895 67.4502 31.0419 67.4515H53.6819C54.8343 67.4502 55.9391 66.9919 56.754 66.177C57.5689 65.3621 58.0273 64.2573 58.0286 63.1049V4.84662C58.0273 3.69422 57.5689 2.58939 56.754 1.77451C55.9392 0.959642 54.8343 0.501274 53.6819 0.499967H51.0839C51.1709 0.858062 51.1755 1.23124 51.0972 1.59135C51.019 1.95146 50.86 2.28911 50.6323 2.57882C50.4045 2.86853 50.114 3.10275 49.7825 3.26381C49.4511 3.42487 49.0874 3.50857 48.7189 3.50859H35.8109C35.4424 3.50844 35.0788 3.42466 34.7474 3.26356C34.416 3.10246 34.1255 2.86824 33.8978 2.57856C33.6701 2.28888 33.5111 1.95129 33.4328 1.59123C33.3545 1.23118 33.359 0.858049 33.4459 0.499967L31.0419 0.499962Z" fill="#E4E4E4"/>
<path d="M53.8511 9.20409H47.0239C46.9471 9.20409 46.8735 9.17358 46.8192 9.11928C46.7649 9.06498 46.7344 8.99134 46.7344 8.91454C46.7344 8.83775 46.7649 8.76411 46.8192 8.70981C46.8735 8.65551 46.9471 8.625 47.0239 8.625H53.8511C53.8892 8.62492 53.9269 8.63235 53.9621 8.64687C53.9973 8.66138 54.0293 8.6827 54.0562 8.70959C54.0832 8.73649 54.1046 8.76843 54.1192 8.8036C54.1337 8.83877 54.1413 8.87647 54.1413 8.91454C54.1413 8.95262 54.1337 8.99032 54.1192 9.02549C54.1046 9.06066 54.0832 9.0926 54.0562 9.1195C54.0293 9.14639 53.9973 9.16771 53.9621 9.18222C53.9269 9.19674 53.8892 9.20417 53.8511 9.20409Z" fill="#63388B"/>
<path d="M53.8511 10.5029H47.0239C46.9471 10.5029 46.8735 10.4724 46.8192 10.4181C46.7649 10.3638 46.7344 10.2902 46.7344 10.2134C46.7344 10.1366 46.7649 10.0629 46.8192 10.0086C46.8735 9.95433 46.9471 9.92383 47.0239 9.92383H53.8511C53.8892 9.92375 53.9269 9.93118 53.9621 9.9457C53.9973 9.96021 54.0293 9.98153 54.0562 10.0084C54.0832 10.0353 54.1046 10.0673 54.1192 10.1024C54.1337 10.1376 54.1413 10.1753 54.1413 10.2134C54.1413 10.2514 54.1337 10.2891 54.1192 10.3243C54.1046 10.3595 54.0832 10.3914 54.0562 10.4183C54.0293 10.4452 53.9973 10.4665 53.9621 10.481C53.9269 10.4956 53.8892 10.503 53.8511 10.5029Z" fill="#63388B"/>
<path d="M53.8511 11.8017H47.0239C46.9471 11.8017 46.8735 11.7712 46.8192 11.7169C46.7649 11.6626 46.7344 11.589 46.7344 11.5122C46.7344 11.4354 46.7649 11.3618 46.8192 11.3075C46.8735 11.2532 46.9471 11.2227 47.0239 11.2227H53.8511C53.8892 11.2226 53.9269 11.23 53.9621 11.2445C53.9973 11.259 54.0293 11.2804 54.0562 11.3072C54.0832 11.3341 54.1046 11.3661 54.1192 11.4013C54.1337 11.4364 54.1413 11.4741 54.1413 11.5122C54.1413 11.5503 54.1337 11.588 54.1192 11.6231C54.1046 11.6583 54.0832 11.6903 54.0562 11.7172C54.0293 11.744 53.9973 11.7654 53.9621 11.7799C53.9269 11.7944 53.8892 11.8018 53.8511 11.8017Z" fill="#63388B"/>
<path d="M19.3204 66.6878L20.4643 66.6877L21.0086 62.2754H19.3203L19.3204 66.6878Z" fill="#FFB6B6"/>
<path d="M19.0273 66.3126L21.2802 66.3125C21.6609 66.3125 22.0262 66.4638 22.2954 66.733C22.5646 67.0022 22.7159 67.3674 22.7159 67.7482V67.7948L19.0274 67.7949L19.0273 66.3126Z" fill="#2F2E41"/>
<path d="M14.8477 65.623L15.9267 66.0027L17.9049 62.0214L16.3123 61.4609L14.8477 65.623Z" fill="#FFB6B6"/>
<path d="M14.6971 65.1719L16.8222 65.9197C17.1814 66.0461 17.4757 66.3101 17.6403 66.6534C17.8048 66.9968 17.8263 67.3914 17.6999 67.7506L17.6844 67.7946L14.2051 66.5702L14.6971 65.1719Z" fill="#2F2E41"/>
<path d="M14.1672 41.041L13.4746 41.7953L16.274 53.4483L19.1502 64.8123H21.4496L20.1271 53.9678V42.8148L14.1672 41.041Z" fill="#2F2E41"/>
<path d="M21.3227 41.9747L21.6258 43.1032L20.0061 53.1676L17.706 63.832H15.1016L17.0569 50.7559L19.4462 41.1309L21.3227 41.9747Z" fill="#2F2E41"/>
<path d="M22.7551 25.2535L21.7427 23.436L19.341 23.043C18.1439 23.3596 17.0723 24.0348 16.27 24.978C15.4678 25.9213 14.9733 27.0874 14.853 28.3198L13.5508 41.6568C13.5508 41.6568 20.2138 44.7235 21.6267 42.9969L23.5915 27.8585C23.6692 27.3891 23.6339 26.9079 23.4884 26.4549C23.3429 26.0018 23.0916 25.59 22.7551 25.2535Z" fill="#3F3D56"/>
<path d="M21.0484 22.4543C22.4559 22.4543 23.5968 21.3133 23.5968 19.9058C23.5968 18.4984 22.4559 17.3574 21.0484 17.3574C19.641 17.3574 18.5 18.4984 18.5 19.9058C18.5 21.3133 19.641 22.4543 21.0484 22.4543Z" fill="#FFB6B6"/>
<path d="M24.3954 18.5169C24.2385 18.473 24.1047 18.37 24.0219 18.2297C23.9658 18.1358 23.9359 18.0285 23.9354 17.9191C23.9348 17.8096 23.9638 17.7021 24.0191 17.6076C23.9018 17.5468 23.7729 17.5119 23.641 17.5052C23.5091 17.4985 23.3773 17.5201 23.2544 17.5688C23.3582 17.4782 23.439 17.3643 23.4902 17.2364C23.5414 17.1086 23.5615 16.9704 23.5489 16.8332C23.2431 16.9367 22.9373 17.0402 22.6315 17.1437C22.7424 17.0589 22.8242 16.9417 22.8657 16.8083C22.9072 16.675 22.9062 16.532 22.8629 16.3992C22.6119 16.7568 22.092 16.8049 21.6684 16.6982C21.2447 16.5915 20.8532 16.3678 20.4216 16.3004C20.1821 16.2631 19.9375 16.2753 19.7029 16.3364C19.4684 16.3974 19.2488 16.506 19.058 16.6554C18.8671 16.8048 18.7089 16.9918 18.5933 17.2048C18.4777 17.4178 18.407 17.6523 18.3857 17.8938C18.2744 17.9079 18.1684 17.9501 18.0779 18.0164C17.9873 18.0827 17.9151 18.171 17.868 18.2729C17.7762 18.4781 17.7344 18.7021 17.746 18.9265C17.7537 19.4622 17.8841 19.989 18.1274 20.4663C18.3706 20.9436 18.7202 21.3587 19.1491 21.6796L19.29 21.6312C19.2738 21.3415 19.3698 21.0567 19.5582 20.8361C19.7465 20.6154 20.0127 20.4758 20.3013 20.4463C20.6751 20.4229 21.1165 20.5726 21.3833 20.3097C21.6273 20.0692 21.54 19.6387 21.7392 19.3599C21.9124 19.1174 22.2571 19.0608 22.5494 19.1189C22.8417 19.177 23.1077 19.325 23.3916 19.4157C23.6755 19.5064 24.008 19.532 24.2521 19.3609C24.3528 19.28 24.4343 19.1777 24.4907 19.0613C24.547 18.945 24.5768 18.8176 24.5778 18.6884C24.5807 18.6361 24.5802 18.5838 24.5765 18.5316C24.5158 18.5348 24.4549 18.5299 24.3954 18.5169Z" fill="#2F2E41"/>
<path d="M33.6261 42.3127H7.38281V49.9123H33.6261V42.3127Z" fill="white"/>
<path d="M33.8649 50.1509H7.14453V42.0742H33.8649V50.1509ZM7.62168 49.6737H33.3878V42.5514H7.62168L7.62168 49.6737Z" fill="#E4E4E4"/>
<path d="M28.5285 44.9266H12.4809C12.3906 44.9266 12.3041 44.8907 12.2403 44.8269C12.1765 44.7631 12.1406 44.6766 12.1406 44.5863C12.1406 44.4961 12.1765 44.4096 12.2403 44.3457C12.3041 44.2819 12.3906 44.2461 12.4809 44.2461H28.5285C28.6188 44.2461 28.7053 44.2819 28.7691 44.3457C28.8329 44.4096 28.8688 44.4961 28.8688 44.5863C28.8688 44.6766 28.8329 44.7631 28.7691 44.8269C28.7053 44.8907 28.6188 44.9266 28.5285 44.9266Z" fill="#63388B"/>
<path d="M28.5279 46.4521H12.4803C12.3901 46.4519 12.3037 46.416 12.2401 46.3522C12.1764 46.2884 12.1406 46.2019 12.1406 46.1118C12.1406 46.0216 12.1764 45.9352 12.2401 45.8714C12.3037 45.8076 12.3901 45.7717 12.4803 45.7715H28.5279C28.618 45.7717 28.7044 45.8076 28.7681 45.8714C28.8318 45.9352 28.8676 46.0216 28.8676 46.1118C28.8676 46.2019 28.8318 46.2884 28.7681 46.3522C28.7044 46.416 28.618 46.4519 28.5279 46.4521Z" fill="#63388B"/>
<path d="M22.0329 47.9793H12.4809C12.3906 47.9793 12.3041 47.9435 12.2403 47.8797C12.1765 47.8159 12.1406 47.7293 12.1406 47.6391C12.1406 47.5488 12.1765 47.4623 12.2403 47.3985C12.3041 47.3347 12.3906 47.2988 12.4809 47.2988H22.0329C22.1232 47.2988 22.2097 47.3347 22.2735 47.3985C22.3373 47.4623 22.3732 47.5488 22.3732 47.6391C22.3732 47.7293 22.3373 47.8159 22.2735 47.8797C22.2097 47.9435 22.1232 47.9793 22.0329 47.9793Z" fill="#63388B"/>
<path d="M23.0256 43.2624C22.9236 43.1707 22.8429 43.0577 22.7893 42.9315C22.7356 42.8052 22.7103 42.6688 22.7152 42.5317C22.72 42.3946 22.7548 42.2602 22.8172 42.1381C22.8795 42.0159 22.9679 41.9089 23.0761 41.8245L22.002 38.668L23.6786 39.105L24.4416 42.0356C24.5712 42.2267 24.6262 42.4588 24.5961 42.6877C24.5661 42.9167 24.4531 43.1267 24.2785 43.2779C24.104 43.4292 23.88 43.5111 23.6491 43.5082C23.4182 43.5054 23.1963 43.4179 23.0256 43.2624Z" fill="#FFB6B6"/>
<path d="M22.2835 41.1575L20.5452 34.7314L20.393 26.9024C20.3853 26.5819 20.4819 26.2676 20.6682 26.0068C20.8545 25.746 21.1205 25.5527 21.4261 25.4561C21.6548 25.3826 21.8979 25.3656 22.1346 25.4065C22.3714 25.4473 22.5947 25.5449 22.7855 25.6908C22.9764 25.8367 23.1291 26.0266 23.2306 26.2443C23.3321 26.4621 23.3794 26.7011 23.3685 26.9411L23.0885 33.1014L24.4676 40.4548L22.2835 41.1575Z" fill="#3F3D56"/>
<path d="M16.7463 43.4479C16.6443 43.3562 16.5636 43.2433 16.51 43.117C16.4563 42.9908 16.431 42.8543 16.4359 42.7172C16.4407 42.5801 16.4755 42.4458 16.5379 42.3236C16.6002 42.2014 16.6886 42.0944 16.7968 42.0101L15.7227 38.8535L17.3993 39.2906L18.1623 42.2211C18.2919 42.4122 18.3469 42.6443 18.3168 42.8733C18.2868 43.1023 18.1738 43.3123 17.9992 43.4635C17.8247 43.6147 17.6007 43.6966 17.3698 43.6938C17.1389 43.6909 16.917 43.6035 16.7463 43.4479Z" fill="#FFB6B6"/>
<path d="M15.7397 40.8597L14.9961 34.2524L16.0354 26.4827C16.0618 26.2849 16.1278 26.0945 16.2293 25.9227C16.3308 25.7509 16.4659 25.6012 16.6264 25.4827C16.7869 25.3641 16.9696 25.279 17.1637 25.2325C17.3577 25.1859 17.5592 25.1789 17.756 25.2117C17.9529 25.2446 18.1411 25.3167 18.3095 25.4237C18.4779 25.5308 18.6231 25.6706 18.7364 25.8349C18.8497 25.9992 18.9288 26.1845 18.969 26.38C19.0092 26.5755 19.0098 26.777 18.9705 26.9727L17.7585 33.0191L18.0053 40.4967L15.7397 40.8597Z" fill="#3F3D56"/>
<path d="M72.4946 63.937H32.3203V54.6914H72.4946V63.937Z" fill="white"/>
<path d="M38.118 57.75C38.0142 57.75 37.9146 57.7912 37.8412 57.8647C37.7678 57.9381 37.7266 58.0376 37.7266 58.1414C37.7266 58.2453 37.7678 58.3448 37.8412 58.4182C37.9146 58.4916 38.0142 58.5329 38.118 58.5329H66.6978C66.8015 58.5327 66.9009 58.4914 66.9742 58.418C67.0474 58.3446 67.0886 58.2451 67.0886 58.1414C67.0886 58.0377 67.0474 57.9383 66.9742 57.8649C66.9009 57.7915 66.8015 57.7502 66.6978 57.75H38.118Z" fill="#E6E6E6"/>
<path d="M38.1169 60.0977C38.0131 60.0974 37.9134 60.1385 37.8398 60.2117C37.7663 60.285 37.7248 60.3845 37.7246 60.4883C37.7244 60.5921 37.7654 60.6917 37.8387 60.7653C37.9119 60.8389 38.0114 60.8803 38.1152 60.8805H56.1837C56.2352 60.8806 56.2861 60.8706 56.3337 60.8509C56.3813 60.8313 56.4245 60.8025 56.4609 60.7661C56.4974 60.7298 56.5263 60.6866 56.546 60.6391C56.5657 60.5915 56.5758 60.5406 56.5758 60.4891C56.5758 60.4376 56.5657 60.3867 56.546 60.3391C56.5263 60.2916 56.4974 60.2484 56.4609 60.2121C56.4245 60.1757 56.3813 60.1469 56.3337 60.1272C56.2861 60.1076 56.2352 60.0976 56.1837 60.0977H38.1169Z" fill="#E6E6E6"/>
<path d="M72.4946 63.937H32.3203V54.6914H72.4946V63.937ZM32.9807 63.2766H71.8342V55.3518H32.9807V63.2766Z" fill="#E5E5E5"/>
<path d="M9.18727 37.3472C8.85549 37.3472 8.53117 37.2488 8.2553 37.0645C7.97944 36.8802 7.76443 36.6182 7.63746 36.3117C7.51049 36.0051 7.47727 35.6678 7.542 35.3424C7.60673 35.017 7.76649 34.7181 8.0011 34.4835C8.2357 34.2489 8.53461 34.0891 8.86001 34.0244C9.18542 33.9597 9.52271 33.9929 9.82923 34.1199C10.1358 34.2468 10.3977 34.4619 10.5821 34.7377C10.7664 35.0136 10.8648 35.3379 10.8648 35.6697C10.8648 36.1146 10.688 36.5413 10.3735 36.8559C10.0589 37.1705 9.63218 37.3472 9.18727 37.3472Z" fill="#F0F0F0"/>
<path d="M16.8416 13.5758C16.4754 13.5758 16.1175 13.4672 15.813 13.2638C15.5086 13.0603 15.2713 12.7712 15.1312 12.4329C14.991 12.0946 14.9544 11.7223 15.0258 11.3632C15.0972 11.0041 15.2736 10.6742 15.5325 10.4153C15.7914 10.1564 16.1213 9.98006 16.4804 9.90862C16.8395 9.83719 17.2118 9.87385 17.5501 10.014C17.8884 10.1541 18.1775 10.3914 18.3809 10.6958C18.5844 11.0003 18.693 11.3582 18.693 11.7244C18.693 11.9675 18.6451 12.2083 18.552 12.4329C18.459 12.6575 18.3226 12.8616 18.1507 13.0335C17.9788 13.2054 17.7747 13.3418 17.5501 13.4348C17.3255 13.5279 17.0847 13.5758 16.8416 13.5758Z" fill="#F0F0F0"/>
<path d="M64.5961 26.8074C64.2812 26.8074 63.9734 26.7141 63.7115 26.5391C63.4497 26.3642 63.2456 26.1155 63.1251 25.8246C63.0046 25.5336 62.9731 25.2135 63.0345 24.9046C63.0959 24.5958 63.2476 24.3121 63.4703 24.0894C63.6929 23.8667 63.9766 23.7151 64.2855 23.6536C64.5943 23.5922 64.9145 23.6237 65.2054 23.7442C65.4963 23.8648 65.745 24.0688 65.92 24.3307C66.0949 24.5925 66.1883 24.9003 66.1883 25.2152C66.1883 25.6375 66.0205 26.0425 65.722 26.3411C65.4234 26.6397 65.0184 26.8074 64.5961 26.8074Z" fill="#F0F0F0"/>
<path d="M54.5144 16.6582H30.1094V35.0875H54.5144V16.6582Z" fill="white"/>
<path d="M54.8332 35.4064H29.7891V16.3379H54.8332V35.4064ZM30.4282 34.7672H54.1941V16.9771H30.4282V34.7672Z" fill="#E4E4E4"/>
<path d="M54.2377 17.0352H30.5254L54.2377 34.9088V17.0352Z" fill="#F0F0F0"/>
<path d="M67.9628 67.8024C67.2524 67.8024 66.558 67.5918 65.9673 67.1971C65.3767 66.8025 64.9163 66.2415 64.6445 65.5853C64.3726 64.929 64.3015 64.2068 64.4401 63.5101C64.5787 62.8134 64.9208 62.1734 65.4231 61.6711C65.9254 61.1688 66.5653 60.8267 67.2621 60.6882C67.9588 60.5496 68.6809 60.6207 69.3372 60.8925C69.9935 61.1644 70.5544 61.6247 70.9491 62.2154C71.3438 62.806 71.5544 63.5004 71.5544 64.2108C71.5544 64.6825 71.4615 65.1495 71.281 65.5853C71.1005 66.021 70.8359 66.417 70.5024 66.7505C70.1689 67.084 69.773 67.3486 69.3372 67.529C68.9015 67.7095 68.4344 67.8024 67.9628 67.8024Z" fill="#63388B"/>
<path d="M69.3794 63.8566H68.3165V62.7938C68.3165 62.6998 68.2792 62.6097 68.2127 62.5432C68.1463 62.4768 68.0562 62.4395 67.9622 62.4395C67.8683 62.4395 67.7781 62.4768 67.7117 62.5432C67.6452 62.6097 67.6079 62.6998 67.6079 62.7938V63.8566H66.545C66.4512 63.8568 66.3612 63.8942 66.2949 63.9606C66.2286 64.0271 66.1914 64.1171 66.1914 64.2109C66.1914 64.3048 66.2286 64.3948 66.2949 64.4612C66.3612 64.5276 66.4512 64.5651 66.545 64.5652H67.6079V65.6281C67.6079 65.7221 67.6452 65.8122 67.7117 65.8786C67.7781 65.9451 67.8682 65.9824 67.9622 65.9824C68.0562 65.9824 68.1463 65.9451 68.2127 65.8786C68.2792 65.8122 68.3165 65.7221 68.3165 65.6281V64.5652H69.3794C69.426 64.5653 69.4721 64.5562 69.5152 64.5385C69.5582 64.5207 69.5974 64.4946 69.6303 64.4617C69.6633 64.4288 69.6895 64.3897 69.7073 64.3467C69.7252 64.3036 69.7343 64.2575 69.7343 64.2109C69.7343 64.1643 69.7252 64.1182 69.7073 64.0752C69.6895 64.0322 69.6633 63.9931 69.6303 63.9602C69.5974 63.9273 69.5582 63.9012 69.5152 63.8834C69.4721 63.8657 69.426 63.8566 69.3794 63.8566Z" fill="white"/>
<path d="M72.3437 68.0008H0.187458C0.148062 68.0007 0.110318 67.9849 0.082501 67.957C0.0546841 67.9291 0.0390625 67.8913 0.0390625 67.8519C0.0390625 67.8126 0.0546841 67.7748 0.082501 67.7469C0.110318 67.719 0.148062 67.7032 0.187458 67.7031H72.3437C72.3831 67.7032 72.4208 67.719 72.4486 67.7469C72.4765 67.7748 72.4921 67.8126 72.4921 67.8519C72.4921 67.8913 72.4765 67.9291 72.4486 67.957C72.4208 67.9849 72.3831 68.0007 72.3437 68.0008Z" fill="#CACACA"/>
</svg>
