<svg width="92" height="68" viewBox="0 0 92 68" fill="none" xmlns="http://www.w3.org/2000/svg">
<path d="M30.7503 63.2543L29.3619 64.5324L30.4653 62.681C29.596 61.1046 28.1742 59.7422 28.1742 59.7422C28.1742 59.7422 25.2246 62.5682 25.2246 64.7896C25.2246 67.011 26.5452 67.7866 28.1742 67.7866C29.8033 67.7866 31.1238 67.011 31.1238 64.7896C31.1055 64.2577 30.9784 63.7351 30.7503 63.2543Z" fill="#F2F2F2"/>
<path d="M29.0054 64.6018V64.7113C28.9989 65.984 28.7843 66.9771 28.3631 67.6764C28.3571 67.6867 28.3506 67.6964 28.3447 67.7067L28.2975 67.678L28.2525 67.6498C28.7198 66.8947 28.8851 65.8274 28.8911 64.7172C28.8916 64.6815 28.8922 64.6451 28.8916 64.6088C28.89 64.1389 28.8613 63.6635 28.8152 63.2016C28.8119 63.1659 28.8081 63.1295 28.8043 63.0932C28.7404 62.4839 28.6482 61.9018 28.5539 61.396C28.5474 61.3602 28.5404 61.3245 28.5333 61.2892C28.3702 60.4339 28.2037 59.8143 28.1658 59.6771C28.1615 59.6603 28.1587 59.6511 28.1582 59.649L28.2097 59.6343L28.2102 59.6338L28.2623 59.6191C28.2628 59.6213 28.272 59.6522 28.2872 59.7097C28.3452 59.9243 28.4959 60.507 28.6439 61.2757C28.6504 61.3104 28.6574 61.3461 28.6639 61.3819C28.7409 61.7923 28.8163 62.2509 28.8759 62.7322C28.8911 62.8531 28.9046 62.9723 28.9166 63.09C28.9209 63.1263 28.9247 63.1626 28.9279 63.1984C28.9778 63.6976 29.0036 64.1654 29.0054 64.6018Z" fill="white"/>
<path d="M28.6431 61.2762C28.6068 61.2811 28.5699 61.286 28.5325 61.2898C28.431 61.3003 28.3289 61.3055 28.2268 61.3055C27.7917 61.3061 27.3619 61.209 26.9692 61.0215C26.9465 61.0502 26.9237 61.0789 26.9004 61.1082C27.3135 61.3098 27.7672 61.4144 28.2268 61.4139C28.3358 61.4139 28.4447 61.4081 28.5531 61.3966C28.59 61.3928 28.6269 61.3879 28.6632 61.3825C28.963 61.3395 29.2545 61.2512 29.5278 61.1207C29.5045 61.0909 29.4817 61.0616 29.4595 61.0329C29.2008 61.1537 28.9257 61.2358 28.6431 61.2762Z" fill="white"/>
<path d="M28.9163 63.0879C28.8789 63.0901 28.8415 63.0911 28.8041 63.0911C28.7927 63.0917 28.7808 63.0917 28.7694 63.0917C28.2979 63.0917 27.8334 62.9777 27.4154 62.7594C26.9975 62.541 26.6386 62.2249 26.3692 61.8379C26.3475 61.8699 26.3258 61.9018 26.3047 61.9344C26.5854 62.326 26.9555 62.645 27.3841 62.8651C27.8127 63.0853 28.2876 63.2001 28.7694 63.2001C28.7846 63.2001 28.7998 63.2001 28.815 63.1995C28.8529 63.199 28.8903 63.1979 28.9277 63.1963C29.5065 63.1667 30.0645 62.9709 30.5349 62.6326C30.5176 62.6006 30.5002 62.5686 30.4824 62.5366C30.0251 62.8688 29.4809 63.0604 28.9163 63.0879Z" fill="white"/>
<path d="M29.0038 64.6019C28.9658 64.6052 28.9279 64.6073 28.89 64.6089C28.8493 64.6106 28.8086 64.6117 28.768 64.6117C28.1344 64.6109 27.5181 64.405 27.0113 64.0247C26.5045 63.6444 26.1346 63.1101 25.9569 62.502C25.9325 62.5459 25.9081 62.5892 25.8848 62.6331C26.085 63.2399 26.4714 63.7681 26.989 64.1427C27.5066 64.5174 28.129 64.7194 28.768 64.7201C28.8086 64.7201 28.8493 64.7195 28.8894 64.7174C28.9279 64.7163 28.9659 64.7141 29.0038 64.7114C29.7702 64.6514 30.4852 64.3025 31.004 63.7351C30.9926 63.695 30.9796 63.6555 30.9666 63.6154C30.4655 64.1869 29.7615 64.5408 29.0038 64.6019Z" fill="white"/>
<path d="M82.8352 65.1989L80.9511 65.3075L82.9781 64.5749C83.3048 62.8046 83.0687 60.8496 83.0687 60.8496C83.0687 60.8496 78.996 61.1659 77.5881 62.8841C76.1801 64.6023 76.7099 66.0393 77.9699 67.0718C79.2299 68.1043 80.743 68.3414 82.151 66.6232C82.4739 66.2001 82.7068 65.7154 82.8352 65.1989Z" fill="#F2F2F2"/>
<path d="M80.6315 65.1355L80.5621 65.2202C79.7503 66.2005 78.9549 66.8325 78.1859 67.1064C78.1747 67.1106 78.1635 67.1141 78.1524 67.1182L78.1341 67.0661L78.1172 67.0158C78.9572 66.7279 79.7616 66.0072 80.4698 65.1523C80.4929 65.125 80.5164 65.0972 80.5389 65.0688C80.8356 64.7042 81.1147 64.3183 81.3718 63.9319C81.3919 63.9022 81.412 63.8717 81.4321 63.8412C81.7688 63.3294 82.0665 62.8207 82.3141 62.3697C82.3317 62.3379 82.349 62.3058 82.3659 62.274C82.7818 61.509 83.0458 60.9243 83.1034 60.7942C83.1107 60.7784 83.1144 60.7696 83.1154 60.7676L83.1645 60.7889L83.1652 60.7888L83.2148 60.8105C83.2138 60.8125 83.2014 60.8422 83.1767 60.8963C83.0855 61.0991 82.8327 61.6453 82.46 62.3337C82.443 62.3646 82.4258 62.3968 82.4081 62.4285C82.2076 62.7947 81.9752 63.1972 81.7162 63.6073C81.6514 63.7104 81.5863 63.8112 81.5209 63.9098C81.5013 63.9406 81.4812 63.9711 81.461 64.0008C81.1832 64.4186 80.9066 64.7968 80.6315 65.1355Z" fill="white"/>
<path d="M82.4602 62.3322C82.429 62.313 82.3974 62.2934 82.3661 62.2726C82.2809 62.2163 82.1986 62.1557 82.1196 62.091C81.7827 61.8156 81.5118 61.4682 81.327 61.0742C81.2912 61.082 81.2553 61.0898 81.2188 61.0977C81.4105 61.5154 81.6951 61.8839 82.0509 62.1749C82.1353 62.2439 82.2232 62.3085 82.3143 62.3683C82.3452 62.3887 82.3769 62.4083 82.4084 62.4271C82.6675 62.5839 82.9489 62.7004 83.2431 62.7726C83.2439 62.7348 83.2449 62.6977 83.2459 62.6614C82.9692 62.591 82.7045 62.48 82.4602 62.3322Z" fill="white"/>
<path d="M81.5198 63.9094C81.4895 63.8874 81.4599 63.8645 81.431 63.8408C81.4218 63.834 81.4126 63.8265 81.4038 63.8192C81.0391 63.5204 80.7521 63.1378 80.5672 62.704C80.3823 62.2702 80.305 61.7982 80.342 61.3281C80.3049 61.3391 80.2679 61.3501 80.2309 61.3619C80.1999 61.8427 80.2838 62.324 80.4759 62.7659C80.6679 63.2079 80.9624 63.5977 81.3351 63.9031C81.3468 63.9127 81.3586 63.9223 81.3707 63.9315C81.4004 63.9552 81.43 63.978 81.4599 64.0005C81.9264 64.3444 82.482 64.5467 83.0604 64.5831C83.0672 64.5474 83.0741 64.5117 83.0805 64.4756C82.5163 64.4428 81.9739 64.246 81.5198 63.9094Z" fill="white"/>
<path d="M80.6315 65.1353C80.6001 65.1138 80.5693 65.0914 80.539 65.0686C80.5065 65.0441 80.4744 65.0192 80.4429 64.9934C79.9533 64.5913 79.6071 64.0413 79.4562 63.426C79.3053 62.8106 79.3578 62.1629 79.6058 61.5798C79.5591 61.5983 79.5127 61.6164 79.4668 61.6356C79.2372 62.2318 79.2012 62.8853 79.3641 63.5031C79.527 64.121 79.8804 64.6718 80.3742 65.0773C80.4056 65.103 80.4374 65.1284 80.4698 65.1521C80.5003 65.1757 80.531 65.1981 80.5621 65.22C81.1929 65.6594 81.9671 65.8427 82.728 65.7327C82.7446 65.6944 82.7596 65.6556 82.775 65.6163C82.0251 65.7408 81.2562 65.5683 80.6315 65.1353Z" fill="white"/>
<path d="M17.473 66.4764L18.9421 66.4763L19.2147 60.7793L17.4727 60.8099L17.473 66.4764Z" fill="#FFB6B6"/>
<path d="M17.0977 65.9962L19.9909 65.9961H19.991C20.48 65.9961 20.9489 66.1904 21.2947 66.5361C21.6405 66.8819 21.8347 67.3509 21.8348 67.8398V67.8998L17.0977 67.8999L17.0977 65.9962Z" fill="#2F2E41"/>
<path d="M11.5335 66.4764L13.0026 66.4763L13.2938 60.7793L11.5332 60.8099L11.5335 66.4764Z" fill="#FFB6B6"/>
<path d="M11.1582 65.9962L14.0514 65.9961H14.0515C14.5405 65.9961 15.0095 66.1904 15.3552 66.5361C15.701 66.8819 15.8953 67.3509 15.8953 67.8398V67.8998L11.1583 67.8999L11.1582 65.9962Z" fill="#2F2E41"/>
<path d="M25.8458 42.0685C25.84 41.8983 25.7969 41.7315 25.7196 41.5798C25.6423 41.428 25.5327 41.2951 25.3985 41.1903C25.2643 41.0855 25.1087 41.0115 24.9428 40.9733C24.7769 40.9351 24.6046 40.9338 24.4381 40.9695L22.2931 37.4297L21.3711 39.3729L23.5494 42.4364C23.6278 42.7122 23.8046 42.9496 24.0463 43.1037C24.2881 43.2577 24.578 43.3178 24.861 43.2724C25.1441 43.2271 25.4007 43.0795 25.5822 42.8576C25.7637 42.6357 25.8575 42.3549 25.8458 42.0685Z" fill="#FFB6B6"/>
<path d="M7.92159 45.7724C8.02168 45.6347 8.09036 45.4767 8.12278 45.3095C8.1552 45.1424 8.15058 44.9701 8.10924 44.805C8.06789 44.6398 7.99084 44.4857 7.8835 44.3535C7.77615 44.2213 7.64114 44.1143 7.48795 44.0399L7.97472 39.9297L6.05238 40.8944L5.88486 44.6496C5.77701 44.9153 5.77034 45.2112 5.86611 45.4814C5.96189 45.7516 6.15346 45.9773 6.40451 46.1157C6.65557 46.2541 6.94867 46.2956 7.22828 46.2323C7.50789 46.1691 7.75456 46.0054 7.92159 45.7724Z" fill="#FFB6B6"/>
<path d="M18.3343 41.6074L19.3747 42.2237C19.3747 42.2237 20.22 42.7618 19.9357 46.5046C19.6514 50.2474 19.3117 65.2427 19.3117 65.2427H17.4677L14.481 47.33L13.3913 65.4368L11.4501 65.3398C11.4501 65.3398 7.48416 44.7251 9.20024 42.4878L18.3343 41.6074Z" fill="#2F2E41"/>
<path d="M8.57227 28.3621C8.57227 28.3621 13.6315 26.7356 17.7134 28.252L17.3792 36.1257L19.8971 42.2674C19.8971 42.2674 11.8925 45.3725 9.22492 42.763L10.0029 36.611L8.57227 28.3621Z" fill="#63388B"/>
<path d="M16.3535 29.1786L17.4137 28.2539C17.4137 28.2539 18.1209 28.2455 18.7295 29.3336C19.3381 30.4216 20.4407 33.9335 20.4407 33.9335L23.9706 39.9128L22.4177 40.9804L16.8192 33.1508L16.3535 29.1786Z" fill="#63388B"/>
<path d="M8.76013 28.7511L8.83244 28.2578C8.83244 28.2578 6.86118 28.4037 6.69442 30.3031C6.52767 32.2025 5.91797 42.9205 5.91797 42.9205L7.86784 43.3087L9.80755 32.3083L8.76013 28.7511Z" fill="#63388B"/>
<path d="M15.595 25.5168L9.6809 26.6814C9.55922 26.7052 9.43306 26.6798 9.3301 26.6107C9.22714 26.5416 9.15578 26.4345 9.13169 26.3129L8.62971 23.7637C8.45185 22.858 8.64095 21.9187 9.15543 21.1523C9.66992 20.386 10.4677 19.8553 11.3733 19.6769C12.279 19.4986 13.2184 19.6872 13.985 20.2013C14.7516 20.7154 15.2827 21.5129 15.4615 22.4184L15.9635 24.9676C15.9873 25.0893 15.9619 25.2155 15.8928 25.3184C15.8237 25.4214 15.7166 25.4927 15.595 25.5168Z" fill="#2F2E41"/>
<path d="M12.8357 25.9507C14.2454 25.9507 15.3882 24.8079 15.3882 23.3982C15.3882 21.9885 14.2454 20.8457 12.8357 20.8457C11.426 20.8457 10.2832 21.9885 10.2832 23.3982C10.2832 24.8079 11.426 25.9507 12.8357 25.9507Z" fill="#FFB6B6"/>
<path d="M16.3193 22.5146L12.7029 23.2267L12.5636 22.7148L12.4804 23.2705L11.9236 23.3802L11.6475 22.3656L11.4826 23.467L10.4052 23.6792L10.3951 23.6282C10.2548 22.9116 10.4045 22.1687 10.8114 21.5624C11.2182 20.956 11.8489 20.5358 12.5651 20.3939L13.075 20.2935C13.7916 20.1533 14.5345 20.303 15.1408 20.7098C15.7472 21.1166 16.1673 21.7473 16.3092 22.4636L16.3193 22.5146Z" fill="#2F2E41"/>
<path d="M13.3094 26.4614C13.2822 26.4667 13.2546 26.4697 13.2268 26.4702L10.4868 26.5244L9.625 22.148L12.54 21.574L12.4844 21.6723C11.7109 23.0411 12.8413 24.791 13.5839 25.7122C13.6386 25.7796 13.673 25.8611 13.6834 25.9473C13.6938 26.0335 13.6796 26.1208 13.6425 26.1993C13.6117 26.2662 13.5654 26.3248 13.5075 26.3704C13.4496 26.416 13.3817 26.4471 13.3094 26.4614Z" fill="#2F2E41"/>
<path d="M52.2202 0.0292969H16.9043V18.5727H52.2202V0.0292969Z" fill="#F2F2F2"/>
<path d="M52.1987 0H16.8828V2.14969H52.1987V0Z" fill="#E6E6E6"/>
<path d="M51.5594 3.02148H17.7031V17.5948H51.5594V3.02148Z" fill="white"/>
<path d="M23.4705 14.0347C23.8155 14.0347 24.0953 13.755 24.0953 13.4099C24.0953 13.0649 23.8155 12.7852 23.4705 12.7852C23.1254 12.7852 22.8457 13.0649 22.8457 13.4099C22.8457 13.755 23.1254 14.0347 23.4705 14.0347Z" fill="#E4E4E4"/>
<path d="M28.99 12.3999C29.3351 12.3999 29.6148 12.1202 29.6148 11.7752C29.6148 11.4301 29.3351 11.1504 28.99 11.1504C28.645 11.1504 28.3652 11.4301 28.3652 11.7752C28.3652 12.1202 28.645 12.3999 28.99 12.3999Z" fill="#E4E4E4"/>
<path d="M34.5095 14.0347C34.8546 14.0347 35.1343 13.755 35.1343 13.4099C35.1343 13.0649 34.8546 12.7852 34.5095 12.7852C34.1645 12.7852 33.8848 13.0649 33.8848 13.4099C33.8848 13.755 34.1645 14.0347 34.5095 14.0347Z" fill="#E4E4E4"/>
<path d="M40.0271 5.78276C40.3722 5.78276 40.6519 5.50304 40.6519 5.15798C40.6519 4.81293 40.3722 4.5332 40.0271 4.5332C39.6821 4.5332 39.4023 4.81293 39.4023 5.15798C39.4023 5.50304 39.6821 5.78276 40.0271 5.78276Z" fill="#E4E4E4"/>
<path d="M45.5467 5.70464C45.8917 5.70464 46.1714 5.42491 46.1714 5.07986C46.1714 4.7348 45.8917 4.45508 45.5467 4.45508C45.2016 4.45508 44.9219 4.7348 44.9219 5.07986C44.9219 5.42491 45.2016 5.70464 45.5467 5.70464Z" fill="#E4E4E4"/>
<path d="M34.5235 13.5506L28.9914 11.8318L23.5351 13.494L23.4102 13.3273L28.9914 11.5716L34.4972 13.2707L39.9683 5.06944L39.9903 5.06048L45.5092 5.05078L45.587 5.24403L40.0901 5.24487L34.5235 13.5506Z" fill="#E4E4E4"/>
<path d="M58.1348 24.3145H24.9004V41.7649H58.1348V24.3145Z" fill="#F2F2F2"/>
<path d="M58.1152 24.2871H24.8809V26.3101H58.1152V24.2871Z" fill="#E6E6E6"/>
<path d="M57.5131 27.0137H25.6016V40.8761H57.5131V27.0137Z" fill="white"/>
<path d="M28.03 25.6283C28.2148 25.6283 28.3646 25.4784 28.3646 25.2936C28.3646 25.1088 28.2148 24.959 28.03 24.959C27.8451 24.959 27.6953 25.1088 27.6953 25.2936C27.6953 25.4784 27.8451 25.6283 28.03 25.6283Z" fill="white"/>
<path d="M29.2995 25.6283C29.4843 25.6283 29.6341 25.4784 29.6341 25.2936C29.6341 25.1088 29.4843 24.959 29.2995 24.959C29.1147 24.959 28.9648 25.1088 28.9648 25.2936C28.9648 25.4784 29.1147 25.6283 29.2995 25.6283Z" fill="white"/>
<path d="M26.7565 25.6283C26.9413 25.6283 27.0912 25.4784 27.0912 25.2936C27.0912 25.1088 26.9413 24.959 26.7565 24.959C26.5717 24.959 26.4219 25.1088 26.4219 25.2936C26.4219 25.4784 26.5717 25.6283 26.7565 25.6283Z" fill="white"/>
<path d="M80.3221 7.64648H40.9004V28.3457H80.3221V7.64648Z" fill="#E6E6E6"/>
<path d="M80.2967 7.61523H40.875V10.0148H80.2967V7.61523Z" fill="#63388B"/>
<path d="M79.3736 10.752H41.7852V27.1913H79.3736V10.752Z" fill="white"/>
<path d="M44.6118 9.20624C44.831 9.20624 45.0087 9.02852 45.0087 8.8093C45.0087 8.59007 44.831 8.41235 44.6118 8.41235C44.3926 8.41235 44.2148 8.59007 44.2148 8.8093C44.2148 9.02852 44.3926 9.20624 44.6118 9.20624Z" fill="white"/>
<path d="M46.1176 9.20624C46.3369 9.20624 46.5146 9.02852 46.5146 8.8093C46.5146 8.59007 46.3369 8.41235 46.1176 8.41235C45.8984 8.41235 45.7207 8.59007 45.7207 8.8093C45.7207 9.02852 45.8984 9.20624 46.1176 9.20624Z" fill="white"/>
<path d="M43.1001 9.20624C43.3193 9.20624 43.497 9.02852 43.497 8.8093C43.497 8.59007 43.3193 8.41235 43.1001 8.41235C42.8808 8.41235 42.7031 8.59007 42.7031 8.8093C42.7031 9.02852 42.8808 9.20624 43.1001 9.20624Z" fill="white"/>
<path d="M60.8468 14.3535C60.7687 14.3639 60.697 14.4023 60.645 14.4616C60.5931 14.5208 60.5645 14.597 60.5645 14.6758C60.5645 14.7546 60.5931 14.8307 60.645 14.89C60.697 14.9493 60.7687 14.9877 60.8468 14.998H74.1572C74.2353 14.9877 74.307 14.9493 74.359 14.89C74.4109 14.8307 74.4396 14.7546 74.4396 14.6758C74.4396 14.597 74.4109 14.5208 74.359 14.4616C74.307 14.4023 74.2353 14.3639 74.1572 14.3535H60.8468Z" fill="#E6E6E6"/>
<path d="M60.8468 21.9551C60.7687 21.9654 60.697 22.0038 60.645 22.0631C60.5931 22.1224 60.5645 22.1985 60.5645 22.2773C60.5645 22.3562 60.5931 22.4323 60.645 22.4916C60.697 22.5509 60.7687 22.5892 60.8468 22.5996H74.1572C74.2353 22.5892 74.307 22.5509 74.359 22.4916C74.4109 22.4323 74.4396 22.3562 74.4396 22.2773C74.4396 22.1985 74.4109 22.1224 74.359 22.0631C74.307 22.0038 74.2353 21.9654 74.1572 21.9551H60.8468Z" fill="#E6E6E6"/>
<path d="M60.8468 16.2891C60.7687 16.2994 60.697 16.3378 60.645 16.3971C60.5931 16.4564 60.5645 16.5325 60.5645 16.6113C60.5645 16.6901 60.5931 16.7663 60.645 16.8256C60.697 16.8848 60.7687 16.9232 60.8468 16.9336H66.5743C66.6524 16.9232 66.7241 16.8848 66.7761 16.8256C66.828 16.7663 66.8567 16.6901 66.8567 16.6113C66.8567 16.5325 66.828 16.4564 66.7761 16.3971C66.7241 16.3378 66.6524 16.2994 66.5743 16.2891H60.8468Z" fill="#E6E6E6"/>
<path d="M60.8468 18.1309C60.7687 18.1412 60.697 18.1796 60.645 18.2389C60.5931 18.2982 60.5645 18.3743 60.5645 18.4531C60.5645 18.5319 60.5931 18.6081 60.645 18.6674C60.697 18.7266 60.7687 18.765 60.8468 18.7754H74.1572C74.2353 18.765 74.307 18.7266 74.359 18.6674C74.4109 18.6081 74.4395 18.5319 74.4395 18.4531C74.4395 18.3743 74.4109 18.2982 74.359 18.2389C74.307 18.1796 74.2353 18.1412 74.1572 18.1309H60.8468Z" fill="#E6E6E6"/>
<path d="M60.8468 20.0645C60.7687 20.0748 60.697 20.1132 60.645 20.1725C60.5931 20.2318 60.5645 20.3079 60.5645 20.3867C60.5645 20.4655 60.5931 20.5417 60.645 20.6009C60.697 20.6602 60.7687 20.6986 60.8468 20.709H66.5743C66.6524 20.6986 66.7241 20.6602 66.7761 20.6009C66.828 20.5417 66.8567 20.4655 66.8567 20.3867C66.8567 20.3079 66.828 20.2318 66.7761 20.1725C66.7241 20.1132 66.6524 20.0748 66.5743 20.0645H60.8468Z" fill="#E6E6E6"/>
<path d="M53.0906 22.2483C53.1309 22.2484 53.1708 22.2405 53.2081 22.2251C53.2454 22.2098 53.2793 22.1872 53.3079 22.1587C53.3364 22.1302 53.3591 22.0964 53.3745 22.0592C53.39 22.0219 53.398 21.982 53.398 21.9417C53.398 21.9013 53.3901 21.8614 53.3747 21.8241C53.3592 21.7869 53.3366 21.753 53.3081 21.7245C53.2795 21.696 53.2457 21.6734 53.2084 21.658C53.1711 21.6426 53.1312 21.6347 53.0909 21.6348H46.868C46.8277 21.6347 46.7877 21.6425 46.7504 21.6579C46.7131 21.6733 46.6792 21.6958 46.6507 21.7243C46.6221 21.7528 46.5995 21.7866 46.584 21.8239C46.5685 21.8611 46.5606 21.901 46.5605 21.9414C46.5605 21.9817 46.5685 22.0216 46.5839 22.0589C46.5993 22.0961 46.622 22.13 46.6505 22.1585C46.679 22.187 46.7129 22.2096 46.7501 22.225C46.7874 22.2404 46.8274 22.2483 46.8677 22.2483H53.0906Z" fill="#E4E4E4"/>
<path d="M53.0906 20.4397C53.1718 20.4395 53.2497 20.4071 53.3071 20.3496C53.3645 20.2921 53.3967 20.2142 53.3967 20.1329C53.3967 20.0517 53.3645 19.9737 53.3071 19.9162C53.2497 19.8587 53.1718 19.8263 53.0906 19.8262H46.868C46.8277 19.8261 46.7877 19.8339 46.7504 19.8493C46.7131 19.8647 46.6792 19.8872 46.6507 19.9157C46.6221 19.9442 46.5995 19.978 46.584 20.0153C46.5685 20.0525 46.5606 20.0924 46.5605 20.1328C46.5605 20.1731 46.5685 20.213 46.5839 20.2503C46.5993 20.2876 46.622 20.3214 46.6505 20.3499C46.679 20.3784 46.7129 20.401 46.7501 20.4164C46.7874 20.4318 46.8274 20.4397 46.8677 20.4397H53.0906Z" fill="#E4E4E4"/>
<path d="M49.9777 14.707C50.3596 14.707 50.7329 14.8203 51.0504 15.0324C51.3679 15.2446 51.6154 15.5461 51.7616 15.899C51.9077 16.2518 51.9459 16.64 51.8714 17.0145C51.7969 17.3891 51.613 17.7331 51.343 18.0032C51.073 18.2732 50.7289 18.4571 50.3544 18.5316C49.9799 18.6061 49.5916 18.5679 49.2388 18.4217C48.886 18.2756 48.5844 18.0281 48.3723 17.7106C48.1601 17.3931 48.0469 17.0197 48.0469 16.6379C48.0475 16.126 48.2511 15.6352 48.613 15.2732C48.975 14.9112 49.4658 14.7076 49.9777 14.707Z" fill="#63388B"/>
<path d="M34.3629 31.7824C34.7801 31.7824 35.1183 31.4442 35.1183 31.0269C35.1183 30.6097 34.7801 30.2715 34.3629 30.2715C33.9456 30.2715 33.6074 30.6097 33.6074 31.0269C33.6074 31.4442 33.9456 31.7824 34.3629 31.7824Z" fill="#E4E4E4"/>
<path d="M46.503 30.4399C46.5704 30.4398 46.6371 30.453 46.6993 30.4787C46.7616 30.5044 46.8181 30.5421 46.8658 30.5897C46.9134 30.6373 46.9512 30.6938 46.977 30.756C47.0028 30.8182 47.0161 30.8849 47.0161 30.9523C47.0161 31.0196 47.0028 31.0863 46.977 31.1485C46.9512 31.2107 46.9134 31.2672 46.8658 31.3148C46.8181 31.3624 46.7616 31.4001 46.6993 31.4258C46.6371 31.4515 46.5704 31.4647 46.503 31.4646H38.5577C38.4904 31.4647 38.4237 31.4515 38.3614 31.4258C38.2992 31.4001 38.2426 31.3624 38.195 31.3148C38.1473 31.2672 38.1095 31.2107 38.0837 31.1485C38.0579 31.0863 38.0447 31.0196 38.0447 30.9523C38.0447 30.8849 38.0579 30.8182 38.0837 30.756C38.1095 30.6938 38.1473 30.6373 38.195 30.5897C38.2426 30.5421 38.2992 30.5044 38.3614 30.4787C38.4237 30.453 38.4904 30.4398 38.5577 30.4399H46.503ZM46.503 30.3145H38.5577C38.3886 30.3145 38.2263 30.3817 38.1067 30.5013C37.9871 30.6209 37.9199 30.7831 37.9199 30.9523C37.9199 31.1214 37.9871 31.2836 38.1067 31.4033C38.2263 31.5229 38.3886 31.5901 38.5577 31.5901H46.503C46.6722 31.5901 46.8344 31.5229 46.954 31.4033C47.0737 31.2836 47.1409 31.1214 47.1409 30.9523C47.1409 30.7831 47.0737 30.6209 46.954 30.5013C46.8344 30.3817 46.6722 30.3145 46.503 30.3145Z" fill="#E4E4E4"/>
<path d="M43.367 31.5901H37.3859C37.2167 31.5901 37.0545 31.5229 36.9349 31.4033C36.8152 31.2836 36.748 31.1214 36.748 30.9523C36.748 30.7831 36.8152 30.6209 36.9349 30.5013C37.0545 30.3817 37.2167 30.3145 37.3859 30.3145H43.367C43.5362 30.3145 43.6984 30.3817 43.818 30.5013C43.9376 30.6209 44.0048 30.7831 44.0048 30.9523C44.0048 31.1214 43.9376 31.2836 43.818 31.4033C43.6984 31.5229 43.5362 31.5901 43.367 31.5901Z" fill="#E4E4E4"/>
<path d="M34.3629 34.9191C34.7801 34.9191 35.1183 34.5809 35.1183 34.1636C35.1183 33.7464 34.7801 33.4082 34.3629 33.4082C33.9456 33.4082 33.6074 33.7464 33.6074 34.1636C33.6074 34.5809 33.9456 34.9191 34.3629 34.9191Z" fill="#E4E4E4"/>
<path d="M46.503 33.5767C46.5704 33.5766 46.6371 33.5897 46.6993 33.6154C46.7616 33.6411 46.8181 33.6789 46.8658 33.7265C46.9134 33.774 46.9512 33.8305 46.977 33.8928C47.0028 33.955 47.0161 34.0216 47.0161 34.089C47.0161 34.1563 47.0028 34.223 46.977 34.2852C46.9512 34.3474 46.9134 34.4039 46.8658 34.4515C46.8181 34.4991 46.7616 34.5368 46.6993 34.5625C46.6371 34.5882 46.5704 34.6014 46.503 34.6013H38.5577C38.4904 34.6014 38.4237 34.5882 38.3614 34.5625C38.2992 34.5368 38.2426 34.4991 38.195 34.4515C38.1473 34.4039 38.1095 34.3474 38.0837 34.2852C38.0579 34.223 38.0447 34.1563 38.0447 34.089C38.0447 34.0216 38.0579 33.955 38.0837 33.8928C38.1095 33.8305 38.1473 33.774 38.195 33.7265C38.2426 33.6789 38.2992 33.6411 38.3614 33.6154C38.4237 33.5897 38.4904 33.5766 38.5577 33.5767H46.503ZM46.503 33.4512H38.5577C38.3886 33.4512 38.2263 33.5184 38.1067 33.638C37.9871 33.7576 37.9199 33.9198 37.9199 34.089C37.9199 34.2581 37.9871 34.4204 38.1067 34.54C38.2263 34.6596 38.3886 34.7268 38.5577 34.7268H46.503C46.6722 34.7268 46.8344 34.6596 46.954 34.54C47.0737 34.4204 47.1409 34.2581 47.1409 34.089C47.1409 33.9198 47.0737 33.7576 46.954 33.638C46.8344 33.5184 46.6722 33.4512 46.503 33.4512Z" fill="#E4E4E4"/>
<path d="M45.6256 34.7268H37.3859C37.2167 34.7268 37.0545 34.6596 36.9349 34.54C36.8152 34.4204 36.748 34.2581 36.748 34.089C36.748 33.9198 36.8152 33.7576 36.9349 33.638C37.0545 33.5184 37.2167 33.4512 37.3859 33.4512H45.6256C45.7947 33.4514 45.9567 33.5187 46.0761 33.6383C46.1955 33.7579 46.2626 33.92 46.2626 34.089C46.2626 34.258 46.1955 34.4201 46.0761 34.5397C45.9567 34.6593 45.7947 34.7266 45.6256 34.7268Z" fill="#E4E4E4"/>
<path d="M34.3629 38.0578C34.7801 38.0578 35.1183 37.7195 35.1183 37.3023C35.1183 36.8851 34.7801 36.5469 34.3629 36.5469C33.9456 36.5469 33.6074 36.8851 33.6074 37.3023C33.6074 37.7195 33.9456 38.0578 34.3629 38.0578Z" fill="#E4E4E4"/>
<path d="M46.503 36.7134C46.6389 36.7134 46.7692 36.7673 46.8653 36.8634C46.9614 36.9595 47.0154 37.0898 47.0154 37.2257C47.0154 37.3616 46.9614 37.4919 46.8653 37.588C46.7692 37.6841 46.6389 37.738 46.503 37.738H38.5577C38.4219 37.738 38.2915 37.6841 38.1955 37.588C38.0994 37.4919 38.0454 37.3616 38.0454 37.2257C38.0454 37.0898 38.0994 36.9595 38.1955 36.8634C38.2915 36.7673 38.4219 36.7134 38.5577 36.7134H46.503ZM46.503 36.5879H38.5577C38.3886 36.5879 38.2263 36.6551 38.1067 36.7747C37.9871 36.8943 37.9199 37.0565 37.9199 37.2257C37.9199 37.3949 37.9871 37.5571 38.1067 37.6767C38.2263 37.7963 38.3886 37.8635 38.5577 37.8635H46.503C46.6722 37.8635 46.8344 37.7963 46.954 37.6767C47.0737 37.5571 47.1409 37.3949 47.1409 37.2257C47.1409 37.0565 47.0737 36.8943 46.954 36.7747C46.8344 36.6551 46.6722 36.5879 46.503 36.5879Z" fill="#E4E4E4"/>
<path d="M46.5304 37.8635H37.3859C37.2167 37.8635 37.0545 37.7963 36.9349 37.6767C36.8152 37.5571 36.748 37.3949 36.748 37.2257C36.748 37.0565 36.8152 36.8943 36.9349 36.7747C37.0545 36.6551 37.2167 36.5879 37.3859 36.5879H46.5304C46.6996 36.5879 46.8618 36.6551 46.9814 36.7747C47.101 36.8943 47.1682 37.0565 47.1682 37.2257C47.1682 37.3949 47.101 37.5571 46.9814 37.6767C46.8618 37.7963 46.6996 37.8635 46.5304 37.8635Z" fill="#E4E4E4"/>
<path d="M70.3053 45.4989C70.3977 45.389 70.4647 45.2602 70.5019 45.1216C70.539 44.983 70.5453 44.8379 70.5204 44.6966C70.4954 44.5553 70.4397 44.4212 70.3573 44.3037C70.2748 44.1862 70.1677 44.0882 70.0433 44.0167L70.6957 40.5898L69.0224 41.2872L68.6594 44.4344C68.553 44.6514 68.5299 44.8998 68.5945 45.1326C68.659 45.3655 68.8067 45.5665 69.0096 45.6977C69.2125 45.8289 69.4564 45.8812 69.6952 45.8445C69.9341 45.8079 70.1511 45.6849 70.3053 45.4989Z" fill="#FFB7B7"/>
<path d="M78.6494 66.5275L77.2326 66.5274L76.5586 61.0625L78.6497 61.0626L78.6494 66.5275Z" fill="#FFB7B7"/>
<path d="M79.0098 67.9005L74.4414 67.9004V67.8426C74.4414 67.371 74.6288 66.9187 74.9623 66.5853C75.2957 66.2518 75.748 66.0645 76.2196 66.0645H76.2197L79.0099 66.0646L79.0098 67.9005Z" fill="#2F2E41"/>
<path d="M70.9053 66.5275L69.4884 66.5274L68.8145 61.0625L70.9056 61.0626L70.9053 66.5275Z" fill="#FFB7B7"/>
<path d="M70.92 67.9005L66.3516 67.9004V67.8426C66.3516 67.371 66.5389 66.9187 66.8724 66.5853C67.2059 66.2518 67.6581 66.0645 68.1297 66.0645H68.1298L70.9201 66.0646L70.92 67.9005Z" fill="#2F2E41"/>
<path d="M70.7905 43.4453L69.4037 46.6403L68.2598 65.0036L71.149 64.8881L71.938 56.1342L74.3722 48.3373L75.7716 57.0296L76.3494 64.6569L78.74 64.7604L79.6927 43.4453H70.7905Z" fill="#2F2E41"/>
<path d="M77.7207 27.6816L73.7013 27.7822L71.3415 28.9936L71.212 37.9312L69.7402 44.1019C69.7402 44.1019 78.9359 44.7347 80.2072 43.8102L78.7048 36.7607L80.7198 29.1422L77.7207 27.6816Z" fill="#3F3D56"/>
<path d="M71.7722 29.1319L71.3428 28.9922C71.3428 28.9922 69.9809 29.8663 70.1105 31.9795C70.1105 31.9795 70.0594 33.073 70.1082 33.8007C70.1641 34.6355 68.4902 42.9305 68.4902 42.9305H70.9171L71.9572 35.4187L71.7722 29.1319Z" fill="#3F3D56"/>
<path d="M80.6579 45.6141C80.5656 45.5043 80.4985 45.3755 80.4614 45.2369C80.4242 45.0982 80.4179 44.9532 80.4429 44.8118C80.4679 44.6705 80.5236 44.5364 80.606 44.4189C80.6884 44.3015 80.7956 44.2035 80.92 44.1319L80.2676 40.7051L81.9408 41.4024L82.3039 44.5497C82.4102 44.7666 82.4334 45.015 82.3688 45.2479C82.3043 45.4807 82.1566 45.6818 81.9537 45.813C81.7508 45.9442 81.5069 45.9964 81.268 45.9598C81.0292 45.9231 80.8121 45.8001 80.6579 45.6141Z" fill="#FFB7B7"/>
<path d="M80.1155 29.2491L80.5448 29.1094C80.5448 29.1094 81.9067 29.9834 81.7771 32.0967C81.7771 32.0967 81.8282 33.1902 81.7794 33.9179C81.7235 34.7527 82.4728 43.0476 82.4728 43.0476H80.046L79.0059 35.5358L80.1155 29.2491Z" fill="#3F3D56"/>
<path d="M78.7093 23.9308C78.7093 24.4819 78.5459 25.0206 78.2397 25.4788C77.9336 25.937 77.4984 26.2942 76.9893 26.505C76.4802 26.7159 75.9199 26.7711 75.3794 26.6636C74.839 26.5561 74.3425 26.2907 73.9528 25.9011C73.5631 25.5114 73.2978 25.0149 73.1903 24.4744C73.0827 23.9339 73.1379 23.3737 73.3488 22.8646C73.5597 22.3554 73.9168 21.9203 74.375 21.6141C74.8332 21.308 75.3719 21.1445 75.923 21.1445C76.288 21.1436 76.6496 21.2146 76.9872 21.3534C77.3247 21.4923 77.6316 21.6962 77.8903 21.9537C78.1491 22.2111 78.3546 22.517 78.4951 22.8539C78.6356 23.1907 78.7084 23.552 78.7093 23.917C78.7093 23.9216 78.7093 23.9262 78.7093 23.9308Z" fill="#FFB7B7"/>
<path d="M73.145 20.1889C73.4714 19.4871 74.103 19.6258 74.6554 19.8637C75.355 19.7086 76.0203 19.244 76.774 19.5187C77.5165 20.5986 80.0093 20.2809 79.4789 22.0389C79.4782 22.4602 80.2716 22.215 80.1331 22.9049C80.5534 24.2327 78.6161 26.7472 77.5039 26.2177C77.779 25.7136 78.4073 24.5686 77.4543 24.4551C75.4043 26.3625 77.2428 20.8228 74.667 22.4338C73.8141 23.2143 72.6465 20.9696 73.145 20.1889Z" fill="#2F2E41"/>
<path d="M90.9829 67.9997H0.105426C0.0774655 67.9997 0.0506499 67.9886 0.0308786 67.9688C0.0111073 67.949 0 67.9222 0 67.8942C0 67.8663 0.0111073 67.8395 0.0308786 67.8197C0.0506499 67.7999 0.0774655 67.7888 0.105426 67.7888H90.9829C91.0109 67.7888 91.0377 67.7999 91.0575 67.8197C91.0773 67.8395 91.0884 67.8663 91.0884 67.8942C91.0884 67.9222 91.0773 67.949 91.0575 67.9688C91.0377 67.9886 91.0109 67.9997 90.9829 67.9997Z" fill="#CACACA"/>
</svg>
