<svg width="91" height="68" viewBox="0 0 91 68" fill="none" xmlns="http://www.w3.org/2000/svg">
<path d="M4.82361 68.0005L4.7234 67.8152C6.06703 67.0885 7.73925 66.1842 8.61267 64.7001C9.47367 63.2371 9.49298 61.2505 8.66308 59.5155C7.95683 58.0389 6.65947 56.716 4.91129 55.6898C4.56646 55.4873 4.20449 55.2955 3.85442 55.1099C3.00827 54.6615 2.13331 54.1978 1.41185 53.5399C0.418179 52.6337 -0.333655 51.1131 0.226713 49.7586C0.411006 49.3262 0.712824 48.9542 1.0979 48.6848C1.48297 48.4154 1.93588 48.2593 2.40518 48.2344L2.41707 48.4448C1.98713 48.4676 1.57219 48.6104 1.21934 48.8572C0.866485 49.1039 0.589853 49.4445 0.420832 49.8405C-0.0998966 51.0992 0.61454 52.5276 1.55383 53.3842C2.25556 54.0241 3.11854 54.4815 3.95309 54.9238C4.30514 55.1104 4.6692 55.3033 5.01798 55.5081C6.80253 56.5556 8.12873 57.9099 8.85317 59.4245C9.7129 61.222 9.69034 63.2844 8.79426 64.807C7.89108 66.3416 6.19026 67.2614 4.82361 68.0005Z" fill="#F1F1F1"/>
<path d="M3.74019 49.3438C4.75844 49.3438 5.5839 48.9428 5.5839 48.4482C5.5839 47.9537 4.75844 47.5527 3.74019 47.5527C2.72194 47.5527 1.89648 47.9537 1.89648 48.4482C1.89648 48.9428 2.72194 49.3438 3.74019 49.3438Z" fill="#F1F1F1"/>
<path d="M5.2148 55.2442C6.23305 55.2442 7.05851 54.8432 7.05851 54.3486C7.05851 53.8541 6.23305 53.4531 5.2148 53.4531C4.19655 53.4531 3.37109 53.8541 3.37109 54.3486C3.37109 54.8432 4.19655 55.2442 5.2148 55.2442Z" fill="#F1F1F1"/>
<path d="M1.84371 56.1914C2.86196 56.1914 3.68741 55.7905 3.68741 55.2959C3.68741 54.8013 2.86196 54.4004 1.84371 54.4004C0.825455 54.4004 0 54.8013 0 55.2959C0 55.7905 0.825455 56.1914 1.84371 56.1914Z" fill="#F1F1F1"/>
<path d="M7.11128 61.1445C8.12954 61.1445 8.95499 60.7436 8.95499 60.249C8.95499 59.7545 8.12954 59.3535 7.11128 59.3535C6.09303 59.3535 5.26758 59.7545 5.26758 60.249C5.26758 60.7436 6.09303 61.1445 7.11128 61.1445Z" fill="#F1F1F1"/>
<path d="M10.7988 61.1445C11.817 61.1445 12.6425 60.7436 12.6425 60.249C12.6425 59.7545 11.817 59.3535 10.7988 59.3535C9.78053 59.3535 8.95508 59.7545 8.95508 60.249C8.95508 60.7436 9.78053 61.1445 10.7988 61.1445Z" fill="#F1F1F1"/>
<path d="M23.2285 46.1337H27.58C27.877 44.417 27.877 42.662 27.58 40.9453H23.2285C23.7188 42.64 23.7188 44.439 23.2285 46.1337Z" fill="#63388B"/>
<path d="M9.79904 66.7321H10.994L11.5625 62.123L9.79883 62.1231L9.79904 66.7321Z" fill="#FFB7B7"/>
<path d="M9.49414 66.3419L11.8474 66.3418C12.2451 66.3418 12.6266 66.4998 12.9079 66.7811C13.1891 67.0623 13.3471 67.4437 13.3472 67.8414V67.8902L9.49421 67.8903L9.49414 66.3419Z" fill="#2F2E41"/>
<path d="M24.1542 66.6938L25.3145 66.4083L24.7653 61.7969L23.0527 62.2184L24.1542 66.6938Z" fill="#FFB7B7"/>
<path d="M23.7656 66.3871L26.0507 65.8247C26.4369 65.7297 26.8451 65.792 27.1854 65.9978C27.5257 66.2037 27.7703 66.5364 27.8653 66.9226L27.877 66.9699L24.1357 67.8906L23.7656 66.3871Z" fill="#2F2E41"/>
<path d="M9.06445 65.6327L9.31268 64.3627C9.31268 64.3627 9.7696 59.459 13.0488 54.565L14.1162 49.2487C14.1162 49.2487 13.7992 45.2245 16.8587 43.0463L17.802 42.3965L21.109 42.586L21.8728 46.7677L23.4118 56.662C23.4118 56.662 23.809 56.6992 23.9579 57.8434C24.2606 58.3239 24.4397 58.8718 24.4792 59.4383C24.4792 59.4383 25.2668 61.6111 25.4778 63.2108L25.453 64.7762L23.7899 65.6623L20.3235 55.8592L17.8443 50.3788C17.8443 50.3788 16.651 54.2401 14.8233 57.5481C14.8233 57.5481 12.3199 62.9665 11.8197 64.0674L11.2737 65.869L9.06445 65.6327Z" fill="#2F2E41"/>
<path d="M20.1216 33.9815C21.4271 33.9815 22.4854 32.9232 22.4854 31.6177C22.4854 30.3122 21.4271 29.2539 20.1216 29.2539C18.8161 29.2539 17.7578 30.3122 17.7578 31.6177C17.7578 32.9232 18.8161 33.9815 20.1216 33.9815Z" fill="#FFB7B7"/>
<path d="M20.1216 33.9815C21.4271 33.9815 22.4854 32.9232 22.4854 31.6177C22.4854 30.3122 21.4271 29.2539 20.1216 29.2539C18.8161 29.2539 17.7578 30.3122 17.7578 31.6177C17.7578 32.9232 18.8161 33.9815 20.1216 33.9815Z" fill="#FFB8B8"/>
<path d="M16.8652 43.0715L17.6456 41.1223C17.0942 39.3366 17.128 37.4214 17.742 35.6562L17.8913 35.5333C19.1919 34.4622 20.3334 34.6572 21.3927 35.9674C21.5633 36.1804 21.7628 36.3685 21.9855 36.5263C22.4527 36.8541 23.1939 38.6349 22.2152 39.6788L21.4323 44.2459C21.5147 46.7674 19.685 45.8179 16.8652 43.0715Z" fill="#3F3D56"/>
<path d="M23.7943 45.764C23.7785 45.6384 23.7353 45.5179 23.6678 45.4109C23.6004 45.3038 23.5103 45.2129 23.4039 45.1444C23.2975 45.076 23.1774 45.0317 23.052 45.0147C22.9266 44.9977 22.7991 45.0083 22.6783 45.046L21.4114 43.5273L20.3008 44.0721L22.1199 46.1916C22.1966 46.3903 22.3435 46.554 22.5328 46.6517C22.7221 46.7493 22.9407 46.7742 23.147 46.7214C23.3534 46.6687 23.5333 46.5422 23.6526 46.3657C23.7719 46.1892 23.8223 45.9751 23.7943 45.764Z" fill="#FFB7B7"/>
<path d="M21.1115 45.7447L17.9395 40.9903L18.8567 37.543C19.0079 37.2319 19.2764 36.9936 19.6033 36.8804C19.9302 36.7672 20.2886 36.7885 20.5998 36.9395C20.911 37.0905 21.1495 37.3588 21.263 37.6856C21.3764 38.0124 21.3554 38.3708 21.2047 38.6822L20.1064 40.9506L22.6825 44.6449L21.1115 45.7447Z" fill="#CCCCCC"/>
<path d="M15.9084 31.1C17.1608 31.1 18.1761 30.0847 18.1761 28.8322C18.1761 27.5798 17.1608 26.5645 15.9084 26.5645C14.6559 26.5645 13.6406 27.5798 13.6406 28.8322C13.6406 30.0847 14.6559 31.1 15.9084 31.1Z" fill="#2F2E41"/>
<path d="M13.9516 30.7106C14.2451 30.9227 14.5852 31.0615 14.9433 31.1153C15.3014 31.1691 15.6673 31.1363 16.0101 31.0197C16.353 30.9031 16.663 30.7061 16.9141 30.4452C17.1652 30.1842 17.3502 29.8669 17.4536 29.5198C17.4145 29.8309 17.3113 30.1305 17.1506 30.3996C16.9898 30.6688 16.7751 30.9017 16.5198 31.0837C16.2645 31.2656 15.9742 31.3927 15.6674 31.4568C15.3605 31.5209 15.0437 31.5208 14.7369 31.4563C14.4301 31.3918 14.14 31.2644 13.8849 31.0821C13.6298 30.8998 13.4153 30.6667 13.2549 30.3973C13.0945 30.1279 12.9917 29.8283 12.9529 29.5172C12.9142 29.2061 12.9404 28.8903 13.0298 28.5898C12.979 28.9935 13.0378 29.4034 13.2 29.7766C13.3621 30.1497 13.6218 30.4723 13.9516 30.7106Z" fill="#2F2E41"/>
<path d="M22.9006 30.7135C22.5047 30.0048 22.3533 29.7087 21.8428 29.2777C21.3914 28.8965 20.8362 28.7846 20.3883 29.1458C19.8585 28.9169 19.269 28.865 18.7074 28.9978C18.1458 29.1306 17.6419 29.441 17.2708 29.8829C16.8996 30.3249 16.6809 30.8748 16.6472 31.4509C16.6134 32.0271 16.7664 32.5987 17.0834 33.081C17.4004 33.5632 17.8645 33.9304 18.4068 34.1279C18.9491 34.3254 19.5406 34.3426 20.0935 34.1772C20.6464 34.0117 21.1312 33.6723 21.4759 33.2094C21.8205 32.7465 22.0066 32.1847 22.0066 31.6076C22.0062 31.5062 22.0001 31.405 21.9883 31.3043C22.3776 31.2497 22.5114 30.7682 22.9006 30.7135Z" fill="#2F2E41"/>
<path d="M83.2764 8.49692H83.1782V5.80691C83.1782 5.60245 83.1379 5.4 83.0597 5.21111C82.9815 5.02221 82.8668 4.85058 82.7222 4.70601C82.5776 4.56144 82.406 4.44675 82.2171 4.36851C82.0282 4.29027 81.8258 4.25 81.6213 4.25H75.9221C75.7177 4.25 75.5152 4.29027 75.3263 4.36851C75.1375 4.44675 74.9658 4.56143 74.8212 4.706C74.6767 4.85057 74.562 5.02221 74.4837 5.2111C74.4055 5.39999 74.3652 5.60245 74.3652 5.8069V20.5645C74.3652 20.9774 74.5293 21.3734 74.8212 21.6654C75.1132 21.9574 75.5092 22.1214 75.9221 22.1214H81.6213C82.0342 22.1214 82.4302 21.9574 82.7222 21.6654C83.0142 21.3735 83.1782 20.9774 83.1782 20.5645V10.4117H83.2764V8.49692Z" fill="#E5E5E5"/>
<path d="M81.6198 4.6543H80.8758C80.91 4.73817 80.9231 4.82918 80.9139 4.91929C80.9046 5.0094 80.8733 5.09585 80.8228 5.17103C80.7723 5.24622 80.7041 5.30782 80.6241 5.35042C80.5442 5.39302 80.455 5.4153 80.3644 5.41531H77.0994C77.0088 5.4153 76.9196 5.39302 76.8397 5.35042C76.7598 5.30782 76.6915 5.24622 76.641 5.17104C76.5905 5.09585 76.5592 5.0094 76.55 4.91929C76.5407 4.82917 76.5538 4.73817 76.588 4.6543H75.8932C75.5848 4.6543 75.2891 4.77679 75.071 4.99484C74.853 5.21288 74.7305 5.50861 74.7305 5.81698V20.5529C74.7305 20.8613 74.853 21.157 75.071 21.3751C75.2891 21.5931 75.5848 21.7156 75.8931 21.7156H81.6198C81.7724 21.7156 81.9236 21.6856 82.0647 21.6271C82.2058 21.5687 82.3339 21.483 82.4419 21.3751C82.5499 21.2671 82.6355 21.1389 82.6939 20.9979C82.7524 20.8568 82.7824 20.7056 82.7824 20.5529V5.81698C82.7824 5.6643 82.7524 5.51311 82.6939 5.37204C82.6355 5.23098 82.5499 5.10281 82.4419 4.99484C82.3339 4.88688 82.2058 4.80123 82.0647 4.7428C81.9236 4.68437 81.7724 4.6543 81.6198 4.6543Z" fill="white"/>
<path d="M81.7967 10.0586H78.2461V10.3399H81.7967V10.0586Z" fill="#E5E5E5"/>
<path d="M81.7967 10.9473H78.2461V11.2286H81.7967V10.9473Z" fill="#E5E5E5"/>
<path d="M81.7967 11.8398H78.2461V12.1212H81.7967V11.8398Z" fill="#E5E5E5"/>
<path d="M77.5609 10.2305H75.8457V11.9457H77.5609V10.2305Z" fill="#E5E5E5"/>
<path d="M77.0179 16.3134C77.4302 16.3134 77.7643 15.9792 77.7643 15.567C77.7643 15.1547 77.4302 14.8206 77.0179 14.8206C76.6057 14.8206 76.2715 15.1547 76.2715 15.567C76.2715 15.9792 76.6057 16.3134 77.0179 16.3134Z" fill="#63388B"/>
<path d="M79.0084 16.175C79.3452 16.175 79.6183 15.9019 79.6183 15.565C79.6183 15.2282 79.3452 14.9551 79.0084 14.9551C78.6715 14.9551 78.3984 15.2282 78.3984 15.565C78.3984 15.9019 78.6715 16.175 79.0084 16.175Z" fill="#63388B"/>
<path d="M80.998 15.9375C81.203 15.9375 81.3691 15.7713 81.3691 15.5664C81.3691 15.3615 81.203 15.1953 80.998 15.1953C80.7931 15.1953 80.627 15.3615 80.627 15.5664C80.627 15.7713 80.7931 15.9375 80.998 15.9375Z" fill="#63388B"/>
<path d="M57.2623 21.3125H44.1794C43.8693 21.3121 43.572 21.1888 43.3527 20.9695C43.1335 20.7502 43.0101 20.4529 43.0098 20.1429V1.16961C43.0101 0.859515 43.1335 0.562224 43.3527 0.342956C43.572 0.123688 43.8693 0.000349955 44.1794 0H57.2623C57.5724 0.000349955 57.8697 0.123688 58.089 0.342956C58.3083 0.562224 58.4316 0.859515 58.4319 1.16961V20.1429C58.4316 20.4529 58.3083 20.7502 58.089 20.9695C57.8697 21.1888 57.5724 21.3121 57.2623 21.3125Z" fill="#E5E5E5"/>
<path d="M57.2864 20.5661H44.1574C44.0618 20.566 43.9702 20.528 43.9026 20.4604C43.835 20.3928 43.797 20.3011 43.7969 20.2055V1.10664C43.797 1.01105 43.835 0.919408 43.9026 0.851817C43.9702 0.784225 44.0618 0.746203 44.1574 0.746094H57.2864C57.382 0.746203 57.4737 0.784225 57.5413 0.851817C57.6089 0.919408 57.6469 1.01105 57.647 1.10664V20.2055C57.6469 20.3011 57.6089 20.3928 57.5413 20.4604C57.4737 20.528 57.382 20.566 57.2864 20.5661Z" fill="white"/>
<path d="M56.1635 6.60352H48.8613V7.02308H56.1635V6.60352Z" fill="#E5E5E5"/>
<path d="M56.1635 7.93359H48.8613V8.35316H56.1635V7.93359Z" fill="#E5E5E5"/>
<path d="M56.1635 9.26172H48.8613V9.68129H56.1635V9.26172Z" fill="#E5E5E5"/>
<path d="M47.8395 6.86328H45.2812V9.4215H47.8395V6.86328Z" fill="#E5E5E5"/>
<path d="M48.2665 14.7088C48.8279 14.7088 49.283 14.2537 49.283 13.6923C49.283 13.1309 48.8279 12.6758 48.2665 12.6758C47.7051 12.6758 47.25 13.1309 47.25 13.6923C47.25 14.2537 47.7051 14.7088 48.2665 14.7088Z" fill="#63388B"/>
<path d="M50.9771 14.5226C51.4358 14.5226 51.8077 14.1507 51.8077 13.6919C51.8077 13.2332 51.4358 12.8613 50.9771 12.8613C50.5184 12.8613 50.1465 13.2332 50.1465 13.6919C50.1465 14.1507 50.5184 14.5226 50.9771 14.5226Z" fill="#63388B"/>
<path d="M53.687 14.1982C53.9661 14.1982 54.1923 13.9719 54.1923 13.6928C54.1923 13.4137 53.9661 13.1875 53.687 13.1875C53.4079 13.1875 53.1816 13.4137 53.1816 13.6928C53.1816 13.9719 53.4079 14.1982 53.687 14.1982Z" fill="#63388B"/>
<path d="M82.1398 23.0684H43.539C43.3995 23.0684 43.2613 23.0958 43.1324 23.1492C43.0035 23.2026 42.8864 23.2809 42.7878 23.3795C42.6891 23.4782 42.6108 23.5953 42.5574 23.7242C42.504 23.8531 42.4766 23.9913 42.4766 24.1308V45.6384C42.4766 45.9202 42.5885 46.1905 42.7878 46.3897C42.987 46.589 43.2572 46.7009 43.539 46.7009H82.1398C82.4216 46.7009 82.6918 46.589 82.891 46.3897C83.0903 46.1905 83.2022 45.9202 83.2022 45.6384V24.1308C83.2022 23.849 83.0903 23.5788 82.891 23.3795C82.6918 23.1803 82.4216 23.0684 82.1398 23.0684Z" fill="#3F3D56"/>
<path d="M81.7772 24.9453H43.9004V46.3117H81.7772V24.9453Z" fill="white"/>
<path d="M62.8084 24.3629C63.0229 24.3629 63.1969 24.189 63.1969 23.9744C63.1969 23.7599 63.0229 23.5859 62.8084 23.5859C62.5938 23.5859 62.4199 23.7599 62.4199 23.9744C62.4199 24.189 62.5938 24.3629 62.8084 24.3629Z" fill="white"/>
<path d="M84.2672 45.9227H80.5707V45.6563C80.5707 45.6494 80.5693 45.6425 80.5666 45.6361C80.564 45.6297 80.5601 45.6239 80.5552 45.619C80.5503 45.6141 80.5445 45.6102 80.5381 45.6075C80.5317 45.6049 80.5248 45.6035 80.5179 45.6035H79.2505C79.2435 45.6035 79.2367 45.6049 79.2303 45.6075C79.2239 45.6102 79.218 45.6141 79.2131 45.619C79.2082 45.6239 79.2043 45.6297 79.2017 45.6361C79.199 45.6425 79.1977 45.6494 79.1977 45.6563V45.9227H78.4056V45.6563C78.4056 45.6494 78.4042 45.6425 78.4015 45.6361C78.3989 45.6297 78.395 45.6239 78.3901 45.619C78.3852 45.6141 78.3794 45.6102 78.373 45.6075C78.3666 45.6049 78.3597 45.6035 78.3528 45.6035H77.0854C77.0784 45.6035 77.0716 45.6049 77.0652 45.6075C77.0588 45.6102 77.0529 45.6141 77.048 45.619C77.0431 45.6239 77.0392 45.6297 77.0366 45.6361C77.0339 45.6425 77.0326 45.6494 77.0326 45.6563V45.9227H76.2404V45.6563C76.2404 45.6494 76.2391 45.6425 76.2364 45.6361C76.2338 45.6297 76.2299 45.6239 76.225 45.619C76.2201 45.6141 76.2143 45.6102 76.2078 45.6075C76.2014 45.6049 76.1946 45.6035 76.1876 45.6035H74.9203C74.9133 45.6035 74.9065 45.6049 74.9001 45.6075C74.8936 45.6102 74.8878 45.6141 74.8829 45.619C74.878 45.6239 74.8741 45.6297 74.8715 45.6361C74.8688 45.6425 74.8675 45.6494 74.8675 45.6563V45.9227H74.0753V45.6563C74.0753 45.6494 74.074 45.6425 74.0713 45.6361C74.0687 45.6297 74.0648 45.6239 74.0599 45.619C74.055 45.6141 74.0491 45.6102 74.0427 45.6075C74.0363 45.6049 74.0295 45.6035 74.0225 45.6035H72.7551C72.7482 45.6035 72.7414 45.6049 72.7349 45.6075C72.7285 45.6102 72.7227 45.6141 72.7178 45.619C72.7129 45.6239 72.709 45.6297 72.7064 45.6361C72.7037 45.6425 72.7023 45.6494 72.7023 45.6563V45.9227H71.9102V45.6563C71.9102 45.6494 71.9089 45.6425 71.9062 45.6361C71.9036 45.6297 71.8997 45.6239 71.8948 45.619C71.8899 45.6141 71.884 45.6102 71.8776 45.6075C71.8712 45.6049 71.8644 45.6035 71.8574 45.6035H70.59C70.5831 45.6035 70.5762 45.6049 70.5698 45.6075C70.5634 45.6102 70.5576 45.6141 70.5527 45.619C70.5478 45.6239 70.5439 45.6297 70.5413 45.6361C70.5386 45.6425 70.5372 45.6494 70.5372 45.6563V45.9227H69.7451V45.6563C69.7451 45.6494 69.7438 45.6425 69.7411 45.6361C69.7384 45.6297 69.7346 45.6239 69.7297 45.619C69.7248 45.6141 69.7189 45.6102 69.7125 45.6075C69.7061 45.6049 69.6992 45.6035 69.6923 45.6035H68.4249C68.418 45.6035 68.4111 45.6049 68.4047 45.6075C68.3983 45.6102 68.3925 45.6141 68.3876 45.619C68.3827 45.6239 68.3788 45.6297 68.3761 45.6361C68.3735 45.6425 68.3721 45.6494 68.3721 45.6563V45.9227H67.58V45.6563C67.58 45.6494 67.5786 45.6425 67.576 45.6361C67.5733 45.6297 67.5694 45.6239 67.5645 45.619C67.5596 45.6141 67.5538 45.6102 67.5474 45.6075C67.541 45.6049 67.5341 45.6035 67.5272 45.6035H57.5994C57.5924 45.6035 57.5856 45.6049 57.5792 45.6075C57.5728 45.6102 57.5669 45.6141 57.562 45.619C57.5571 45.6239 57.5532 45.6297 57.5506 45.6361C57.5479 45.6425 57.5466 45.6494 57.5466 45.6563V45.9227H56.7545V45.6563C56.7545 45.6494 56.7531 45.6425 56.7504 45.6361C56.7478 45.6297 56.7439 45.6239 56.739 45.619C56.7341 45.6141 56.7283 45.6102 56.7219 45.6075C56.7154 45.6049 56.7086 45.6035 56.7016 45.6035H55.4343C55.4273 45.6035 55.4205 45.6049 55.4141 45.6075C55.4077 45.6102 55.4018 45.6141 55.3969 45.619C55.392 45.6239 55.3881 45.6297 55.3855 45.6361C55.3828 45.6425 55.3815 45.6494 55.3815 45.6563V45.9227H54.5893V45.6563C54.5893 45.6494 54.588 45.6425 54.5853 45.6361C54.5827 45.6297 54.5788 45.6239 54.5739 45.619C54.569 45.6141 54.5632 45.6102 54.5568 45.6075C54.5503 45.6049 54.5435 45.6035 54.5365 45.6035H53.2692C53.2622 45.6035 53.2554 45.6049 53.249 45.6075C53.2425 45.6102 53.2367 45.6141 53.2318 45.619C53.2269 45.6239 53.223 45.6297 53.2204 45.6361C53.2177 45.6425 53.2163 45.6494 53.2163 45.6563V45.9227H52.4242V45.6563C52.4242 45.6494 52.4229 45.6425 52.4202 45.6361C52.4176 45.6297 52.4137 45.6239 52.4088 45.619C52.4039 45.6141 52.398 45.6102 52.3916 45.6075C52.3852 45.6049 52.3784 45.6035 52.3714 45.6035H51.104C51.0971 45.6035 51.0902 45.6049 51.0838 45.6075C51.0774 45.6102 51.0716 45.6141 51.0667 45.619C51.0618 45.6239 51.0579 45.6297 51.0553 45.6361C51.0526 45.6425 51.0512 45.6494 51.0512 45.6563V45.9227H50.2591V45.6563C50.2591 45.6494 50.2578 45.6425 50.2551 45.6361C50.2525 45.6297 50.2486 45.6239 50.2437 45.619C50.2388 45.6141 50.2329 45.6102 50.2265 45.6075C50.2201 45.6049 50.2132 45.6035 50.2063 45.6035H48.9389C48.932 45.6035 48.9251 45.6049 48.9187 45.6075C48.9123 45.6102 48.9065 45.6141 48.9016 45.619C48.8967 45.6239 48.8928 45.6297 48.8901 45.6361C48.8875 45.6425 48.8861 45.6494 48.8861 45.6563V45.9227H48.094V45.6563C48.094 45.6494 48.0926 45.6425 48.09 45.6361C48.0873 45.6297 48.0835 45.6239 48.0785 45.619C48.0736 45.6141 48.0678 45.6102 48.0614 45.6075C48.055 45.6049 48.0481 45.6035 48.0412 45.6035H46.7738C46.7598 45.6035 46.7464 45.6091 46.7365 45.619C46.7266 45.6289 46.721 45.6423 46.721 45.6563V45.9227H45.9289V45.6563C45.9289 45.6494 45.9275 45.6425 45.9249 45.6361C45.9222 45.6297 45.9183 45.6239 45.9134 45.619C45.9085 45.6141 45.9027 45.6102 45.8963 45.6075C45.8899 45.6049 45.883 45.6035 45.8761 45.6035H44.6087C44.5947 45.6035 44.5813 45.6091 44.5714 45.619C44.5615 45.6289 44.5559 45.6423 44.5559 45.6563V45.9227H42.1268C41.9603 45.9227 41.7955 45.9554 41.6417 46.0191C41.488 46.0828 41.3483 46.1762 41.2306 46.2939C41.1129 46.4116 41.0195 46.5513 40.9558 46.705C40.8922 46.8588 40.8594 47.0236 40.8594 47.19V47.7631C40.8594 48.0993 40.9929 48.4216 41.2306 48.6593C41.4683 48.897 41.7906 49.0305 42.1268 49.0305H84.2672C84.6033 49.0305 84.9257 48.897 85.1634 48.6593C85.4011 48.4216 85.5346 48.0993 85.5346 47.7631V47.19C85.5346 47.0236 85.5018 46.8588 85.4381 46.705C85.3744 46.5513 85.2811 46.4116 85.1634 46.2939C85.0457 46.1762 84.906 46.0828 84.7522 46.0191C84.5984 45.9554 84.4336 45.9227 84.2672 45.9227Z" fill="#3F3D56"/>
<path d="M71.2817 26.9805H59.0332V27.4356H71.2817V26.9805Z" fill="#CBCBCB"/>
<path d="M71.2817 28.4199H59.0332V28.8751H71.2817V28.4199Z" fill="#CBCBCB"/>
<path d="M71.2817 29.8633H59.0332V30.3184H71.2817V29.8633Z" fill="#CBCBCB"/>
<path d="M57.9255 27.2617H55.1504V30.0368H57.9255V27.2617Z" fill="#CBCBCB"/>
<path d="M62.8095 42.3319C65.4916 42.3319 67.6658 40.1576 67.6658 37.4755C67.6658 34.7934 65.4916 32.6191 62.8095 32.6191C60.1274 32.6191 57.9531 34.7934 57.9531 37.4755C57.9531 40.1576 60.1274 42.3319 62.8095 42.3319Z" fill="#63388B"/>
<path d="M62.0222 38.1991H61.0039L62.8059 34.5371L64.6174 38.1958H63.5983V39.7182H62.0222V38.1991Z" fill="white"/>
<path d="M37.174 19.9134C37.8649 19.1043 38.8142 18.5588 39.8611 18.3694L39.3959 17.9786L39.8934 17.9355L40.5301 18.4707L39.9949 19.1073L39.4975 19.1504L39.856 18.7241C38.8006 18.9337 37.8628 19.5331 37.2295 20.403C36.5961 21.2729 36.3136 22.3494 36.4382 23.4182C36.5628 24.487 37.0853 25.4696 37.9018 26.1705C38.7183 26.8713 39.7688 27.239 40.8441 27.2002L40.8566 27.5469C39.9583 27.5792 39.0701 27.3492 38.3004 26.885C37.5306 26.4208 36.9128 25.7425 36.5222 24.9329C36.1316 24.1233 35.9853 23.2175 36.101 22.3261C36.2168 21.4347 36.5896 20.5964 37.174 19.9134Z" fill="#E5E5E5"/>
<path d="M89.5489 23.0884C89.5048 24.315 88.9753 25.4738 88.0767 26.3099C87.1782 27.146 85.9844 27.591 84.7578 27.5469L84.7703 27.2002C85.8456 27.239 86.8961 26.8713 87.7126 26.1705C88.5291 25.4696 89.0516 24.487 89.1762 23.4182C89.3008 22.3494 89.0183 21.2729 88.385 20.403C87.7516 19.5331 86.8138 18.9337 85.7584 18.7241L86.117 19.1504L85.6195 19.1073L85.0844 18.4707L85.721 17.9355L86.2185 17.9786L85.7533 18.3694C86.8475 18.5686 87.8333 19.1551 88.5303 20.0217C89.2274 20.8883 89.589 21.977 89.5489 23.0884Z" fill="#E5E5E5"/>
<path d="M90.516 49.0955H35.0995C35.0716 49.0955 35.0448 49.0844 35.025 49.0646C35.0052 49.0449 34.9941 49.0181 34.9941 48.9901C34.9941 48.9622 35.0052 48.9354 35.025 48.9156C35.0448 48.8959 35.0716 48.8848 35.0995 48.8848H90.516C90.544 48.8848 90.5708 48.8959 90.5905 48.9156C90.6103 48.9354 90.6214 48.9622 90.6214 48.9901C90.6214 49.0181 90.6103 49.0449 90.5905 49.0646C90.5708 49.0844 90.544 49.0955 90.516 49.0955Z" fill="#CBCBCB"/>
</svg>
