<svg width="55" height="50" viewBox="0 0 55 50" fill="none" xmlns="http://www.w3.org/2000/svg">
<path d="M42.3298 26.4703C35.8324 26.4703 30.5654 31.7375 30.5654 38.2351C30.5654 44.7328 35.8324 50 42.3298 50C48.8273 50 54.0943 44.7326 54.0943 38.2351C54.0943 31.7375 48.8273 26.4703 42.3298 26.4703ZM11.7644 26.4713C5.26722 26.4713 0 31.7375 0 38.2351C0 44.7328 5.26722 50 11.7644 50C18.2621 50 23.5295 44.7326 23.5295 38.2351C23.5295 31.7375 18.2621 26.4713 11.7644 26.4713ZM38.8116 11.7644C38.8116 18.2621 33.5444 23.5299 27.0473 23.5299C20.5497 23.5299 15.2827 18.2621 15.2827 11.7644C15.2827 5.26743 20.5495 0 27.0471 0C33.5441 0 38.8112 5.26785 38.8112 11.7642" fill="#F06A6A"/>
</svg>
