<svg width="46" height="50" viewBox="0 0 46 50" fill="none" xmlns="http://www.w3.org/2000/svg">
<path d="M45.1671 43.7434C45.1717 44.624 44.989 45.4956 44.6312 46.3003C44.2735 47.105 43.7487 47.8245 43.0919 48.4111C42.435 48.9977 41.6609 49.4379 40.821 49.7027C39.981 49.9675 39.0944 50.0507 38.2199 49.9469C35.0363 49.4758 32.7035 46.7057 32.7812 43.4884V6.5005C32.7043 3.27989 35.0429 0.508134 38.2305 0.0421753C39.1042 -0.0601415 39.9897 0.0242178 40.8284 0.289673C41.667 0.555129 42.4398 0.99563 43.0955 1.58204C43.7513 2.16845 44.275 2.8874 44.6321 3.69134C44.9892 4.49528 45.1716 5.36588 45.1671 6.24555V43.7434Z" fill="#F9AB00"/>
<path d="M6.19297 37.6145C9.6133 37.6145 12.3859 40.3873 12.3859 43.8074C12.3859 47.2278 9.6133 50.0004 6.19297 50.0004C2.77264 50.0004 0 47.2278 0 43.8076C0 40.3875 2.77264 37.6145 6.19297 37.6145ZM22.488 18.8443C19.0516 19.0327 16.3851 21.9153 16.4651 25.3561V41.9911C16.4651 46.5056 18.4515 49.2463 21.362 49.8305C22.2643 50.0134 23.196 49.9932 24.0896 49.7714C24.9831 49.5495 25.8161 49.1315 26.528 48.5477C27.2399 47.9639 27.813 47.2289 28.2056 46.3962C28.5982 45.5634 28.8005 44.6537 28.7979 43.733V25.0694C28.7995 24.2443 28.6367 23.4272 28.3191 22.6657C28.0014 21.9042 27.5353 21.2135 26.948 20.6341C26.3606 20.0546 25.6637 19.5979 24.898 19.2907C24.1322 18.9834 23.3129 18.8316 22.488 18.8443Z" fill="#E37400"/>
</svg>
