<svg width="112" height="96" viewBox="0 0 112 96" fill="none" xmlns="http://www.w3.org/2000/svg">
<path d="M18.4806 79.3984H17.4102C16.9913 79.4442 16.7793 79.5358 16.7793 79.6446C16.7793 79.7534 16.9861 79.8449 17.4102 79.8907H18.4806C18.8995 79.8449 19.1115 79.7534 19.1115 79.6446C19.1063 79.5358 18.8995 79.4385 18.4806 79.3984Z" fill="#3F3F3F"/>
<path d="M13.8224 79.3984H12.752C12.3331 79.4442 12.1211 79.5358 12.1211 79.6446C12.1211 79.7534 12.3279 79.8449 12.752 79.8907H13.8224C14.2413 79.8449 14.4533 79.7534 14.4533 79.6446C14.4533 79.5358 14.2413 79.4385 13.8224 79.3984Z" fill="#3F3F3F"/>
<path d="M9.16615 79.3984H8.09572C7.67685 79.4442 7.46484 79.5358 7.46484 79.6446C7.46484 79.7534 7.67169 79.8449 8.09572 79.8907H9.16615C9.58502 79.8449 9.79703 79.7534 9.79703 79.6446C9.79186 79.5358 9.58501 79.4385 9.16615 79.3984Z" fill="#3F3F3F"/>
<path d="M4.55335 79.3989H4.26894V79.0841C4.22757 78.6433 4.14484 78.4258 4.04658 78.4258C3.94833 78.4258 3.86559 78.6433 3.82422 79.0841V79.8913H4.55335C4.95153 79.8455 5.14804 79.7539 5.14804 79.6451C5.14804 79.5363 4.95153 79.439 4.55335 79.3989Z" fill="#3F3F3F"/>
<path d="M3.82422 75.3925C3.86562 75.8218 3.94841 76.0393 4.04674 76.0393C4.14506 76.0393 4.22785 75.8275 4.26925 75.3925V74.2934C4.22785 73.864 4.14506 73.6465 4.04674 73.6465C3.94842 73.6465 3.86562 73.8583 3.82422 74.2934V75.3925Z" fill="#3F3F3F"/>
<path d="M3.82422 70.6171C3.86562 71.0464 3.94841 71.2639 4.04674 71.2639C4.14506 71.2639 4.22785 71.0521 4.26925 70.6171V69.518C4.22785 69.0886 4.14506 68.8711 4.04674 68.8711C3.94842 68.8711 3.86562 69.0829 3.82422 69.518V70.6171Z" fill="#3F3F3F"/>
<path d="M3.82422 65.8436C3.86562 66.273 3.94841 66.4905 4.04674 66.4905C4.14506 66.4905 4.22785 66.2787 4.26925 65.8436V64.7445C4.22785 64.3152 4.14506 64.0977 4.04674 64.0977C3.94842 64.0977 3.86562 64.3095 3.82422 64.7445V65.8436Z" fill="#3F3F3F"/>
<path d="M4.26925 61.0682V59.9691C4.22785 59.5398 4.14506 59.3223 4.04674 59.3223C3.94842 59.3223 3.86562 59.5341 3.82422 59.9691V61.0682C3.86562 61.4976 3.94841 61.7151 4.04674 61.7151C4.14506 61.7151 4.22785 61.5033 4.26925 61.0682Z" fill="#3F3F3F"/>
<path d="M13.2516 51.194V50.3868C13.2102 49.946 13.1274 49.7285 13.0292 49.7285C12.9309 49.7285 12.8482 49.946 12.8068 50.3868V50.7017H12.5224C12.1242 50.7475 11.9277 50.8391 11.9277 50.9478C11.9277 51.0566 12.1242 51.1482 12.5224 51.194H13.2516Z" fill="#3F3F3F"/>
<path d="M12.8027 45.3432V46.5053C12.8441 46.9632 12.9269 47.1922 13.0253 47.1922C13.1236 47.1922 13.2064 46.9632 13.2478 46.5053V45.3432C13.2064 44.8852 13.1236 44.6562 13.0253 44.6562C12.9269 44.662 12.8441 44.8852 12.8027 45.3432Z" fill="#3F3F3F"/>
<path d="M13.2478 40.2768C13.2064 39.8188 13.1236 39.5898 13.0253 39.5898C12.9269 39.5898 12.8441 39.8188 12.8027 40.2768V41.4389C12.8441 41.8968 12.9269 42.1258 13.0253 42.1258C13.1236 42.1258 13.2064 41.8968 13.2478 41.4389V40.2768Z" fill="#3F3F3F"/>
<path d="M13.2478 35.2123C13.2064 34.7544 13.1236 34.5254 13.0253 34.5254C12.9269 34.5254 12.8441 34.7544 12.8027 35.2123V36.3744C12.8441 36.8324 12.9269 37.0614 13.0253 37.0614C13.1236 37.0614 13.2064 36.8324 13.2478 36.3744V35.2123Z" fill="#3F3F3F"/>
<path d="M13.2478 30.1518C13.2064 29.6938 13.1236 29.4648 13.0253 29.4648C12.9269 29.4648 12.8441 29.6938 12.8027 30.1518V31.3139C12.8441 31.7718 12.9269 32.0008 13.0253 32.0008C13.1236 32.0008 13.2064 31.7718 13.2478 31.3139V30.1518Z" fill="#3F3F3F"/>
<path d="M13.2478 25.0854C13.2064 24.6274 13.1236 24.3984 13.0253 24.3984C12.9269 24.3984 12.8441 24.6274 12.8027 25.0854V26.2475C12.8441 26.7054 12.9269 26.9344 13.0253 26.9344C13.1236 26.9344 13.2064 26.7054 13.2478 26.2475V25.0854Z" fill="#3F3F3F"/>
<path d="M13.2478 20.019C13.2064 19.561 13.1236 19.332 13.0253 19.332C12.9269 19.332 12.8441 19.561 12.8027 20.019V21.181C12.8441 21.639 12.9269 21.868 13.0253 21.868C13.1236 21.868 13.2064 21.639 13.2478 21.181V20.019Z" fill="#3F3F3F"/>
<path d="M13.2517 14.9523C13.2103 14.4944 13.1275 14.2654 13.0292 14.2654C12.9308 14.2654 12.848 14.4944 12.8066 14.9523V16.1144C12.848 16.5724 12.9308 16.7956 13.0292 16.7956C13.1275 16.7956 13.2103 16.5666 13.2517 16.1144V14.9523Z" fill="#3F3F3F"/>
<path d="M60.4295 8.78149H27.7576C26.8423 8.78149 26.0977 9.60009 26.0977 10.6133V47.8862C26.0977 48.8994 26.8423 49.718 27.7576 49.718H60.4295C61.3397 49.718 62.0843 48.8994 62.0843 47.8862V10.6133C62.0843 9.60582 61.3448 8.78149 60.4295 8.78149ZM61.774 47.8862C61.774 48.7048 61.169 49.3745 60.4295 49.3745H27.7576C27.0129 49.3745 26.408 48.7048 26.408 47.8862V10.6133C26.408 9.79474 27.013 9.125 27.7576 9.125H60.4295C61.1742 9.125 61.774 9.79477 61.774 10.6133V47.8862Z" fill="#3F3F3F"/>
<path d="M60.4244 52.6777H27.7524C26.8371 52.6777 26.0977 53.5021 26.0977 54.5096V81.2838C26.0977 82.297 26.8423 83.1156 27.7524 83.1156H60.4244C61.3397 83.1156 62.0843 82.297 62.0843 81.2838V54.5096C62.0843 53.4963 61.3397 52.6777 60.4244 52.6777ZM61.774 81.2838C61.774 82.1024 61.169 82.7721 60.4244 82.7721H27.7524C27.0078 82.7721 26.408 82.1024 26.408 81.2838V54.5096C26.408 53.6852 27.013 53.0212 27.7524 53.0212H60.4244C61.169 53.0212 61.774 53.691 61.774 54.5096V81.2838Z" fill="#3F3F3F"/>
<path d="M52.0311 27.8438L51.2296 27.5462C51.0589 27.4775 50.9245 27.3172 50.8779 27.1226C50.4746 25.5312 49.9988 25.3766 50.2315 24.8671L50.6039 24.0255C50.7073 23.7908 50.6659 23.5103 50.5004 23.3272L49.4507 22.1651C49.2852 21.9819 49.0267 21.9304 48.8146 22.0506L48.0597 22.4628C47.8942 22.5486 47.6977 22.5429 47.5374 22.4399C46.2187 21.6155 45.8102 21.896 45.6344 21.3522L45.3551 20.4706C45.2776 20.2187 45.0707 20.0527 44.8328 20.0527H43.3487C43.1108 20.0527 42.904 20.2187 42.8212 20.4706L42.5472 21.3522C42.4903 21.5411 42.3455 21.6842 42.1697 21.7415C40.7062 22.1937 40.5873 22.7089 40.127 22.457L39.3668 22.0449C39.1548 21.9304 38.9014 21.9819 38.736 22.1594L37.6862 23.3271C37.5207 23.5103 37.4742 23.7908 37.5828 24.0255L37.9551 24.867C38.0378 25.0502 38.0275 25.262 37.9396 25.4452C37.2105 26.8763 37.4432 27.3629 36.9571 27.5518L36.1607 27.8495C35.9332 27.9354 35.7832 28.1643 35.7832 28.4334V30.0821C35.7832 30.3397 35.9332 30.5744 36.1607 30.6602L36.9571 30.9636C37.4483 31.1525 37.1898 31.5876 37.9344 33.076C38.0275 33.2534 38.0378 33.4652 37.9551 33.6541L37.5828 34.4899C37.4794 34.7246 37.5207 35.0051 37.6862 35.194L38.7411 36.3561C38.9066 36.5393 39.16 36.5908 39.372 36.4706L40.1322 36.0584C40.2977 35.9668 40.489 35.9783 40.6545 36.0756C41.9679 36.8885 42.3971 36.6251 42.5575 37.1633L42.8315 38.0448C42.9091 38.2967 43.1159 38.4627 43.359 38.4627H44.8431C45.0758 38.4627 45.2879 38.2967 45.3654 38.0448L45.6447 37.1575C45.805 36.6309 46.2187 36.8885 47.5477 36.0756C47.708 35.9726 47.8993 35.9611 48.0699 36.0527L48.8249 36.4706C49.037 36.5851 49.2903 36.5393 49.461 36.3561L50.5107 35.194C50.6762 35.0108 50.7228 34.7246 50.6142 34.4899L50.2418 33.6484C50.0091 33.1389 50.4952 32.9672 50.8934 31.3929C50.94 31.1925 51.0692 31.038 51.245 30.9693L52.0414 30.6659C52.2638 30.58 52.4137 30.351 52.4137 30.0877V28.4391C52.4034 28.1643 52.2535 27.9354 52.0311 27.8438ZM44.0882 33.5856C41.9267 33.5856 40.1685 31.645 40.1685 29.2522C40.1685 26.8536 41.9267 24.913 44.0882 24.913C46.2497 24.913 48.0079 26.8536 48.0079 29.2522C48.0079 31.645 46.2549 33.5856 44.0882 33.5856Z" fill="#3F3F3F"/>
<path d="M59.301 28.2169C58.6494 28.0967 58.1685 27.9307 57.853 27.7132C57.5427 27.4956 57.3462 27.2724 57.2686 27.0319C57.067 26.408 57.1859 26.053 57.1497 20.6835C57.1497 19.5157 56.8653 18.7028 56.2965 18.2564C55.3036 17.4779 53.7315 17.5981 53.6022 17.5866C53.1627 17.5866 52.7852 18.0045 52.7852 18.4911C52.7852 18.9777 53.1627 19.3956 53.6022 19.3956C53.7884 19.4128 54.7761 19.3154 55.0812 19.7047C55.2467 19.9108 55.3242 20.1684 55.3242 20.4775V26.2078C55.3242 27.6733 56.0223 28.6865 57.4237 29.2532C56.0223 29.8199 55.3242 30.8388 55.3242 32.2986V38.0289C55.3242 38.338 55.2415 38.5956 55.0812 38.8017C54.7709 39.1967 53.7729 39.0994 53.6022 39.1108C52.9403 39.1108 52.4801 40.0325 53.0334 40.645C53.3695 41.0171 53.7005 40.8912 53.8866 40.9141C54.926 40.9141 55.7327 40.6908 56.3015 40.2443C56.8704 39.7978 57.1548 38.9907 57.1548 37.8172V32.3733C57.1548 31.4516 57.3513 31.131 57.8529 30.7876C58.1632 30.5701 58.6441 30.4041 59.3009 30.2839C60.2317 30.1007 60.2265 29.0187 59.8956 28.5665C59.7663 28.389 59.5647 28.2684 59.301 28.2169Z" fill="#63388B"/>
<path d="M32.8446 26.207V20.4767C32.8446 20.1676 32.9273 19.91 33.0876 19.7039C33.3979 19.3089 34.3959 19.4062 34.5666 19.3948C34.7838 19.3948 34.9751 19.3032 35.1354 19.1257C35.6888 18.5132 35.2285 17.5915 34.5666 17.5915L34.2874 17.5801C33.2479 17.5801 32.4413 17.8033 31.8724 18.2498C31.3036 18.6964 31.0192 19.5035 31.0192 20.677C30.983 26.0523 31.1019 26.4073 30.9003 27.0254C30.652 27.7925 29.5247 28.0901 28.8732 28.2104C28.3406 28.3134 28.082 28.6969 28.082 29.2408C28.082 29.7846 28.3406 30.1681 28.8732 30.2712C30.2488 30.5288 31.0193 30.9524 31.0193 32.3606V37.8046C31.0193 38.9724 31.3037 39.7853 31.8725 40.2317C32.8654 41.0102 34.4374 40.89 34.5668 40.9015C35.2287 40.9015 35.6889 39.9798 35.1356 39.3673C34.7943 38.9894 34.4582 39.1268 34.2151 39.0982C33.6256 39.0982 33.2481 38.9952 33.0826 38.7891C32.9172 38.583 32.8396 38.3254 32.8396 38.0163V32.286C32.8396 30.8262 32.1415 29.8073 30.7401 29.2406C32.1415 28.6853 32.8446 27.6668 32.8446 26.207Z" fill="#63388B"/>
<path d="M30.7973 58.7159H40.245C40.9276 58.7159 41.4602 58.1091 41.4602 57.3707C41.4602 56.6265 40.9172 56.0254 40.245 56.0254H30.7973C30.1095 56.0254 29.582 56.6379 29.582 57.3707C29.582 58.1148 30.125 58.7159 30.7973 58.7159Z" fill="#63388B"/>
<path d="M36.9775 62.3281H30.6014C30.0895 62.3281 29.6758 62.7861 29.6758 63.3528V68.5907C29.6758 69.1517 30.0895 69.6097 30.6014 69.6097H36.9826C37.4946 69.6097 37.9083 69.1517 37.9083 68.5907V63.3528C37.9031 62.7861 37.4894 62.3281 36.9775 62.3281ZM37.598 68.5907C37.598 68.9628 37.3188 69.2719 36.9827 69.2719L30.6014 69.2662C30.2601 69.2662 29.9861 68.9628 29.9861 68.585V63.3471C29.9861 62.9692 30.2653 62.6658 30.6014 62.6658H36.9827C37.3291 62.6658 37.598 62.9692 37.598 63.3471V68.5907Z" fill="#3F3F3F"/>
<path d="M59.3186 64.2344H39.8849C39.6418 64.2344 39.4453 64.4519 39.4453 64.721C39.4453 64.99 39.6366 65.2075 39.8849 65.2075H59.3186C59.5616 65.2075 59.753 64.99 59.753 64.721C59.7581 64.4519 59.5616 64.2344 59.3186 64.2344Z" fill="#3F3F3F"/>
<path d="M39.8907 67.7036H55.5436C55.7866 67.7036 55.978 67.4861 55.978 67.217C55.978 66.948 55.7815 66.7305 55.5436 66.7305H39.8907C39.6477 66.7305 39.4512 66.948 39.4512 67.217C39.4512 67.4861 39.6425 67.7036 39.8907 67.7036Z" fill="#3F3F3F"/>
<path d="M36.9786 71.3789H30.6025C30.1785 71.3789 29.832 71.7567 29.832 72.2318V77.4697C29.832 77.9392 30.1785 78.317 30.6025 78.317H36.9838C37.413 78.317 37.7543 77.9392 37.7543 77.4697V72.2318C37.7543 71.7567 37.4078 71.3789 36.9786 71.3789Z" fill="#63388B"/>
<path d="M59.3186 73.1135H39.8849C39.6418 73.1135 39.4453 73.3311 39.4453 73.6001C39.4453 73.8692 39.6366 74.0867 39.8849 74.0867H59.3186C59.5616 74.0867 59.753 73.8692 59.753 73.6001C59.7581 73.3311 59.5616 73.1135 59.3186 73.1135Z" fill="#3F3F3F"/>
<path d="M55.5377 75.615H39.8849C39.6418 75.615 39.4453 75.8325 39.4453 76.1016C39.4453 76.3706 39.6366 76.5881 39.8849 76.5881H55.5377C55.7808 76.5881 55.9721 76.3706 55.9721 76.1016C55.9773 75.8325 55.7808 75.615 55.5377 75.615Z" fill="#3F3F3F"/>
<path d="M112 40.0658C111.958 39.0869 111.56 37.7588 110.81 36.1159C109.848 33.9978 108.607 32.063 108.499 31.8912C108.519 31.7137 108.53 31.5077 108.488 31.4161C106.906 28.7485 105.158 26.0923 102.826 24.2146C105.375 21.9248 101.595 17.5856 101.363 15.6794C101.151 13.9048 102.748 11.9069 99.9199 8.28326C96.8585 4.36766 93.5128 5.00309 90.3531 6.27395C89.4844 6.62314 89.1069 7.34444 89.2879 8.43215C88.5536 9.90906 88.3312 11.8784 88.3002 12.2274C88.1295 12.4392 87.2556 13.1319 87.0436 13.4525C86.8005 13.8074 87.2401 14.2997 87.5555 14.5745C87.4262 15.0496 87.0125 16.8184 87.6176 17.637C88.3415 18.6159 89.8049 18.3411 90.3273 18.2038C90.3583 18.6045 90.3945 19.0624 90.4307 19.5261C90.2859 20.0642 90.2187 20.6481 90.2652 21.2492C90.2963 21.6213 90.4256 22.0106 90.6272 22.3884C86.5782 24.0485 83.5014 27.8266 82.3379 29.2521C82.069 29.5841 82.0534 29.5784 82.0224 29.7043C80.2901 29.7272 75.7239 29.9619 72.8177 29.4467L70.3977 23.3902C70.3459 23.27 70.2322 23.1727 70.1029 23.1727H67.7759L67.7707 8.46077C67.7707 3.80101 64.3423 0.00572451 60.1278 0.00572451L28.0661 0C23.8464 0 20.418 3.79528 20.418 8.46077V82.7368C20.418 86.0627 22.8692 88.7705 25.8787 88.7705H62.3143C65.3239 88.7705 67.7751 86.0627 67.7751 82.7368L67.7699 32.0065C68.9386 32.9167 70.2159 32.6191 70.5209 32.5275C73.1583 34.0387 75.9196 35.3668 78.7793 36.1969C80.6772 36.7464 82.8181 37.13 84.7675 36.8437C85.176 37.4047 85.538 37.7139 85.869 37.7711C85.931 37.7826 85.838 37.794 87.3065 37.2845L86.8618 45.2416C86.8566 45.2931 86.5412 50.9603 86.5464 50.9146C86.5619 50.9661 86.4429 51.281 86.9497 51.613C86.9601 52.8667 87.0945 88.6499 87.8598 89.4237C88.1287 89.6927 88.9096 89.9332 89.8456 90.0877C89.8507 90.3854 89.8508 90.6487 89.8559 90.8376C88.6045 90.2823 87.6529 92.2859 86.8307 92.9271C85.9154 93.6427 84.5244 93.179 83.8108 93.7171C83.4023 94.0319 83.3402 94.696 83.6402 95.5832C83.7281 95.8351 83.9401 95.9954 84.1831 95.9954C92.3743 95.9897 94.1997 96.0183 94.4841 95.9782C94.5616 95.9897 94.7892 95.9954 95.7045 95.9954C96.7387 95.9954 97.897 95.9897 104.795 95.9954C105.08 95.9954 105.323 95.7721 105.364 95.4687C105.499 94.5814 105.592 91.6618 105.038 91.181C104.759 90.9406 104.495 90.912 104.237 91.0436C104.237 90.3052 104.227 89.7556 104.211 89.3377C104.702 89.1602 104.971 88.9656 105.018 88.7652C105.173 88.0153 104.134 57.3836 103.942 51.0117C104.971 50.6511 105.447 50.2675 105.426 49.7981L105.007 45.7681C107.696 44.5545 112.077 42.2468 112 40.0658ZM90.5498 17.855C90.5239 17.8379 90.4929 17.8264 90.4619 17.8264C90.4153 17.8264 88.6003 18.4389 87.8555 17.4314C87.2764 16.6472 87.871 14.5921 87.8814 14.5749C87.9021 14.5062 87.8814 14.4261 87.8245 14.386C87.6125 14.2143 87.3074 13.8994 87.2815 13.7162C87.2764 13.6876 87.2815 13.6762 87.2867 13.6704C87.3901 13.5216 87.7366 13.2068 88.021 12.9549C88.5278 12.4969 88.6054 12.4225 88.6054 12.3023C88.6054 12.2794 88.7708 10.4304 89.4069 8.94196C90.0119 11.0257 92.1373 13.4758 92.251 13.6017C92.3027 13.659 92.3803 13.6704 92.4423 13.6304C93.0732 13.2812 93.5696 13.4243 93.8437 14.1398C94.5056 15.8629 93.1404 16.0404 92.4992 16.4525C91.8787 16.8475 91.1393 17.7004 90.679 18.7996C90.6118 17.9753 90.6325 17.918 90.5498 17.855ZM47.9386 1.35673C48.2799 1.35673 48.5488 1.66013 48.5488 2.03223C48.5488 2.40432 48.2799 2.70772 47.9386 2.70772C47.6024 2.70772 47.3284 2.40432 47.3284 2.03223C47.3284 1.66013 47.6024 1.35673 47.9386 1.35673ZM40.4093 1.5628H46.3459C46.5838 1.5628 46.7751 1.77461 46.7751 2.03221C46.7751 2.28981 46.5838 2.50162 46.3459 2.50162H40.4093C40.1818 2.50162 39.9853 2.28981 39.9853 2.03221C39.9853 1.76888 40.1818 1.5628 40.4093 1.5628ZM62.4285 87.2637H25.9823C23.7277 87.2637 21.892 85.2373 21.892 82.7414V8.4712C21.892 4.63576 24.7103 1.51591 28.175 1.51591H35.9318C36.4489 1.51591 36.9608 1.66474 37.4056 1.93952C37.8606 2.23147 38.2381 2.6379 38.4967 3.12449C38.7397 3.57672 39.1741 3.84578 39.6447 3.84578H48.7718C49.2476 3.84578 49.6768 3.57673 49.9146 3.12449C50.4524 2.13415 51.4349 1.51583 52.4847 1.51583H60.2415C63.7062 1.51583 66.5193 4.62997 66.5193 8.46541V23.189H66.0539C65.8161 23.189 65.6558 23.4695 65.7488 23.7042L66.5193 25.6277V27.5339C65.7385 28.0892 66.116 29.3601 66.5193 30.2874V82.7353C66.5193 85.2311 64.6831 87.2637 62.4285 87.2637ZM78.8624 35.8695C74.3273 34.5529 70.7282 32.1773 70.5419 32.1773C70.485 32.1773 69.0992 32.6925 67.8685 31.6621C67.4082 31.2843 67.0204 30.7118 66.7256 29.9734C66.4361 29.2006 66.162 28.2675 66.617 27.8611C67.0307 27.4833 67.8374 27.7409 67.9047 27.7409C68.0133 27.758 68.1167 27.5863 68.0288 27.4604C68.0236 27.4088 67.915 26.1723 67.9254 26.3326C68.2149 26.3956 69.0216 27.2715 69.4716 27.7695C70.1128 28.4679 70.7178 29.1262 71.1573 29.338C73.4016 30.4085 79.9483 30.0879 82.0013 30.0593C82.1099 31.2672 83.3251 34.6732 84.5455 36.5395C82.9683 36.7284 81.0551 36.505 78.8624 35.8695ZM95.0223 93.4524C95.0068 92.5308 94.9189 91.4603 94.5983 91.1798C94.319 90.9336 94.0553 90.9107 93.7967 91.0424C93.7967 90.6874 93.7916 90.3726 93.7864 90.0921C94.2673 90.0062 94.7379 89.8917 94.9396 89.7315C95.5808 89.222 95.7411 73.4281 95.7773 65.4075C96.5271 72.3628 98.3577 88.9811 98.7456 89.6787C98.9007 89.9649 99.4178 90.0851 100.276 90.0451C100.281 90.3542 100.281 90.6404 100.287 90.835C99.0403 90.2798 98.0732 92.2833 97.2613 92.9245C96.6304 93.4168 95.7721 93.3494 95.0223 93.4524ZM90.1665 91.0137C90.1665 90.8534 90.1614 90.5157 90.1562 90.1264C91.5266 90.3153 92.5401 90.2752 93.4709 90.1379C93.4813 90.5672 93.4813 90.9794 93.4813 91.2656C93.052 91.6892 92.6125 92.6051 92.204 92.8227C91.5576 93.1776 90.6165 91.3801 90.1665 91.0137ZM84.1784 95.6506C84.0646 95.6506 83.9663 95.5762 83.925 95.4617C83.0459 92.8743 85.5488 94.3512 87.007 93.2062C87.7309 92.6395 88.5687 91.0767 89.4322 91.0767C89.4787 91.0939 89.8304 91.0366 90.2803 91.5919C92.7418 95.7652 93.2227 90.4127 94.4069 91.4488C94.5517 91.5747 94.7016 92.256 94.7172 93.5038C93.7812 93.7385 93.7346 94.5743 94.0656 95.5819C94.0759 95.6048 94.0811 95.6277 94.0966 95.6506C93.2796 95.6506 88.7808 95.6449 84.1784 95.6506ZM104.837 91.4431C105.193 91.7522 105.204 94.3569 105.049 95.4101C105.028 95.5475 104.919 95.6448 104.785 95.6448C94.2409 95.6391 94.4529 95.7422 94.3546 95.4559C93.5014 92.8742 95.9681 94.3454 97.4418 93.2004C98.264 92.5536 99.6809 89.9145 100.751 91.6548C101.015 92.0841 101.387 92.5764 101.76 92.8798C102.996 93.8931 103.384 92.1929 104.164 91.4773C104.402 91.2655 104.594 91.237 104.837 91.4431ZM103.916 91.2656C103.487 91.695 103.042 92.6109 102.634 92.8284C102.018 93.1547 100.906 91.3287 100.943 91.3801C100.824 91.2313 100.648 91.0653 100.591 91.0195C100.591 90.8478 100.586 90.4585 100.581 90.0234C101.362 89.9605 102.96 89.7143 103.88 89.4338C103.906 90.075 103.916 90.8249 103.916 91.2656ZM103.725 50.7189C95.8595 53.3579 87.1254 51.3372 87.1717 51.3601C86.6753 51.091 86.8149 51.5318 87.1666 45.2634C87.4872 40.7411 87.5285 34.6844 88.4852 29.7675C88.5007 29.6759 88.449 29.5843 88.3663 29.5671C88.2835 29.5442 88.2008 29.6072 88.1853 29.6988C87.8233 31.5535 87.42 34.9538 87.3269 36.9231L85.8841 37.4326C84.6017 37.0949 82.285 31.2617 82.3057 29.8878C82.3057 29.8076 82.3161 29.7905 82.3161 29.7905C82.3833 29.7103 82.466 29.6073 82.5643 29.4928C83.7174 28.0731 86.784 24.3063 90.7969 22.6921C92.1725 24.7987 95.0735 25.6173 97.4573 25.6173C98.9208 25.6173 101.325 25.3197 102.556 24.4381C104.878 26.2699 106.585 28.8459 108.208 31.5823C108.219 32.0173 107.97 32.9619 107.826 33.4141C106.734 36.7859 104.537 38.612 104.464 38.7607C104.412 38.8123 104.361 38.8581 104.309 38.9096C104.226 36.5453 103.885 32.6699 103.564 30.5174C103.533 30.2941 103.228 30.3514 103.259 30.5746C103.942 35.12 103.285 32.269 105.111 49.8266C105.111 49.9239 105.023 50.2838 103.725 50.7189ZM104.506 41.0903L104.325 39.3443C104.413 39.2642 104.495 39.1783 104.583 39.0925C104.723 39.3272 104.997 39.7393 105.4 40.3519C105.188 40.5293 104.764 40.8785 104.506 41.0903ZM104.956 45.4123L104.547 41.4795C105.219 40.93 105.53 40.6724 105.669 40.5407C105.736 40.4835 105.798 40.3518 105.705 40.2259C105.535 39.9683 104.935 39.0524 104.811 38.8635C106.517 37.1289 107.945 34.759 108.42 32.3604C108.813 32.9958 109.765 34.5701 110.535 36.2589C111.265 37.8618 111.658 39.1441 111.694 40.0714C111.766 42.0922 107.153 44.4221 104.956 45.4123Z" fill="#3F3F3F"/>
<path d="M89.5093 11.334C89.1835 11.3626 89.0542 11.3626 89.0387 11.3855C89.018 11.4256 89.199 11.4943 89.5041 11.4943C90.104 11.5229 90.4246 12.2442 90.4918 12.1984C90.5745 12.164 90.1919 11.3683 89.5093 11.334Z" fill="#3F3F3F"/>
<path d="M89.7511 12.8222C89.7821 12.5531 89.6476 12.3127 89.451 12.284C89.2543 12.2554 89.0629 12.4501 89.0318 12.7134C89.0008 12.9824 89.1353 13.2229 89.3319 13.2515C89.5286 13.2801 89.72 13.0912 89.7511 12.8222Z" fill="#3F3F3F"/>
<path d="M88.2337 16.2908C88.2182 16.3137 88.3372 16.4683 88.6733 16.5542C88.9577 16.6114 89.2576 16.5656 89.5162 16.4225C89.8161 16.2336 89.8937 16.0504 89.873 16.0332C89.8472 16.0046 89.7334 16.1363 89.4541 16.2737C88.8388 16.6057 88.27 16.2221 88.2337 16.2908Z" fill="#3F3F3F"/>
<path d="M83.8678 32.149C83.5989 31.0785 83.6093 30.5118 83.5317 30.5118C83.48 30.506 83.3559 31.0899 83.5834 32.2349C84.1315 34.582 85.6519 36.2535 85.7553 36.1447C85.8122 36.0875 85.4812 35.6582 84.9382 34.7136C84.4573 33.9236 84.0798 33.0592 83.8678 32.149Z" fill="#3F3F3F"/>
<path d="M106.159 35.5486C106.619 34.8159 106.991 34.0201 107.25 33.1786C107.529 32.1711 107.514 31.6387 107.457 31.633C107.384 31.6216 107.286 32.1196 106.971 33.0699C106.293 35.2452 105.032 36.5218 105.15 36.6477C105.192 36.6935 105.59 36.3901 106.159 35.5486Z" fill="#3F3F3F"/>
<path d="M9.96487 47.125H0.610203C0.274071 47.125 0 47.4284 0 47.8005V57.0113C0 57.3834 0.274071 57.6868 0.610203 57.6868H9.96487C10.301 57.6868 10.5751 57.3834 10.5751 57.0113V47.8005C10.5802 47.4284 10.3062 47.125 9.96487 47.125ZM10.27 57.0112C10.27 57.1944 10.1303 57.349 9.96487 57.349H0.610203C0.444725 57.349 0.305102 57.2001 0.305102 57.0112V47.8004C0.305102 47.6173 0.439549 47.4684 0.610203 47.4684H9.96487C10.1303 47.4684 10.27 47.6173 10.27 47.8004V57.0112Z" fill="#3F3F3F"/>
<path d="M6.69465 53.4727H6.6429C6.54458 53.4727 6.46178 53.5127 6.39451 53.5871C6.32206 53.6616 6.29102 53.7532 6.29102 53.8619V53.8963C6.29102 54.005 6.32724 54.0966 6.39451 54.1768C6.46178 54.2569 6.54458 54.2913 6.6429 54.2913H6.69465C6.79297 54.2913 6.87577 54.2569 6.94304 54.1768C7.01548 54.0966 7.04653 54.005 7.04653 53.8963V53.8619C7.04653 53.7532 7.01031 53.6616 6.94304 53.5871C6.87577 53.5127 6.79297 53.4727 6.69465 53.4727Z" fill="#63388B"/>
<path d="M2.54417 51.7158V50.4049C2.54417 50.3534 2.55968 50.3076 2.59071 50.2675C2.60105 50.2503 2.64242 50.216 2.8079 50.216H2.88546C2.94752 50.216 3.0044 50.1931 3.05094 50.1358C3.09748 50.0843 3.12334 50.0213 3.12334 49.9527C3.12334 49.8782 3.10265 49.8153 3.05094 49.7637C3.0044 49.7122 2.94752 49.6836 2.88546 49.6836H2.81824C2.57002 49.6836 2.37869 49.7351 2.23389 49.8496C2.09427 49.9641 2.0167 50.1644 2.0167 50.4507V51.6929C2.0167 51.7673 2.00636 51.8303 1.99602 51.8761C1.9805 51.9162 1.94431 51.962 1.88742 51.9963C1.8202 52.0478 1.72195 52.0822 1.57715 52.1051C1.49958 52.1222 1.4427 52.1566 1.40649 52.2081C1.37029 52.2596 1.34961 52.3226 1.34961 52.4027C1.34961 52.4772 1.37029 52.5459 1.40649 52.5974C1.44786 52.6489 1.50475 52.6832 1.57715 52.6947C1.71677 52.7176 1.82019 52.7577 1.88742 52.8035C1.94431 52.8435 1.98568 52.8893 1.99602 52.9237C2.01153 52.9752 2.0167 53.0382 2.0167 53.1069V54.3491C2.0167 54.6353 2.09427 54.8414 2.23389 54.9559C2.37351 55.0646 2.57002 55.1162 2.81824 55.1162H2.88546C2.94752 55.1162 3.0044 55.0933 3.05094 55.036C3.09748 54.9845 3.12334 54.9215 3.12334 54.8528C3.12334 54.7784 3.10265 54.7154 3.05094 54.6639C3.0044 54.6124 2.94752 54.5838 2.88546 54.5838H2.8079C2.64242 54.5838 2.60105 54.5494 2.59071 54.5323C2.55968 54.4979 2.54417 54.4464 2.54417 54.3949V53.0897C2.54417 52.7749 2.40972 52.5401 2.15115 52.397C2.40971 52.2654 2.54417 52.0306 2.54417 51.7158Z" fill="#63388B"/>
<path d="M8.99737 52.1109C8.85774 52.088 8.75432 52.0537 8.68709 52.0022C8.6302 51.9621 8.58884 51.9163 8.57849 51.882C8.56298 51.8304 8.55781 51.7675 8.55781 51.6988V50.4565C8.55781 50.1703 8.48024 49.97 8.34062 49.8555C8.201 49.741 8.00449 49.6895 7.75627 49.6895H7.68905C7.62699 49.6895 7.57011 49.7124 7.52357 49.7696C7.47703 49.8211 7.45117 49.8841 7.45117 49.9585C7.45117 50.0272 7.47186 50.0902 7.52357 50.1417C7.57011 50.1932 7.62699 50.2218 7.68905 50.2218H7.76661C7.93209 50.2218 7.97346 50.2562 7.9838 50.2734C8.01483 50.3134 8.03034 50.3592 8.03034 50.4107V51.7217C8.03034 52.0365 8.16479 52.2712 8.42336 52.4143C8.1648 52.5632 8.03034 52.7921 8.03034 53.107V54.4122C8.03034 54.4637 8.01483 54.5152 7.9838 54.5496C7.97346 54.5667 7.93209 54.6011 7.76661 54.6011H7.68905C7.62699 54.6011 7.57011 54.6297 7.52357 54.6812C7.47703 54.7327 7.45117 54.7957 7.45117 54.8701C7.45117 54.9388 7.47186 55.0018 7.52357 55.0533C7.57011 55.1048 7.62699 55.1335 7.68905 55.1335H7.75627C8.00449 55.1335 8.19582 55.082 8.34062 54.9732C8.48024 54.8587 8.55781 54.6583 8.55781 54.3664V53.1242C8.55781 53.0497 8.56815 52.9868 8.57849 52.941C8.59401 52.9009 8.6302 52.8551 8.68709 52.8208C8.75431 52.775 8.85257 52.7349 8.99737 52.712C9.07493 52.6948 9.13181 52.6605 9.16802 52.609C9.20422 52.5574 9.2249 52.4945 9.2249 52.42C9.2249 52.3399 9.20422 52.2769 9.16802 52.2254C9.13182 52.1624 9.07494 52.1281 8.99737 52.1109Z" fill="#63388B"/>
<path d="M3.93488 53.4727H3.88313C3.78481 53.4727 3.70201 53.5127 3.63474 53.5871C3.5623 53.6616 3.53125 53.7532 3.53125 53.8619V53.8963C3.53125 54.005 3.56747 54.0966 3.63474 54.1768C3.70202 54.2569 3.78481 54.2913 3.88313 54.2913H3.93488C4.0332 54.2913 4.116 54.2569 4.18327 54.1768C4.25572 54.0966 4.28677 54.005 4.28677 53.8963V53.8619C4.28677 53.7532 4.25054 53.6616 4.18327 53.5871C4.116 53.5127 4.02802 53.4727 3.93488 53.4727Z" fill="#63388B"/>
<path d="M5.31701 53.4727H5.26009C5.16177 53.4727 5.07897 53.5127 5.0117 53.5871C4.93925 53.6616 4.9082 53.7532 4.9082 53.8619V53.8963C4.9082 54.005 4.94443 54.0966 5.0117 54.1768C5.07897 54.2569 5.16177 54.2913 5.26009 54.2913H5.31184C5.41016 54.2913 5.49295 54.2569 5.56022 54.1768C5.63267 54.0966 5.66372 54.005 5.66372 53.8963V53.8619C5.66372 53.7532 5.6275 53.6616 5.56022 53.5871C5.49813 53.5127 5.41015 53.4727 5.31701 53.4727Z" fill="#63388B"/>
<path d="M7.09412 12.8919H17.6847C18.057 12.8919 18.357 12.5885 18.357 12.2164V3.00557C18.357 2.63347 18.057 2.3358 17.6847 2.3358L7.09412 2.33008C6.7218 2.33008 6.42188 2.63347 6.42188 2.99984V12.2106C6.42188 12.5885 6.7218 12.8919 7.09412 12.8919ZM6.73214 3.00563C6.73214 2.82244 6.89244 2.67361 7.09412 2.67361H17.6847C17.8812 2.67361 18.0467 2.82817 18.0467 3.00563V12.2164C18.0467 12.3996 17.8812 12.5542 17.6847 12.5542L7.09412 12.5484C6.89245 12.5484 6.73214 12.3996 6.73214 12.2107V3.00563Z" fill="#3F3F3F"/>
<path d="M9.05539 10.3849H15.3332C16.2951 10.3849 17.0759 9.52052 17.0759 8.45577C17.0759 7.39101 16.2951 6.52661 15.3332 6.52661C14.9764 6.52661 14.6455 6.64683 14.3662 6.85292C14.0714 5.69084 13.1044 4.83789 11.9616 4.83789C10.6171 4.83789 9.52605 6.0057 9.46396 7.47692C9.33468 7.43112 9.20023 7.40822 9.05544 7.40822C8.31079 7.40822 7.71097 8.07226 7.71097 8.89656C7.7058 9.72089 8.31077 10.3849 9.05539 10.3849Z" fill="#63388B"/>
</svg>
