<svg width="50" height="50" viewBox="0 0 50 50" fill="none" xmlns="http://www.w3.org/2000/svg">
<path d="M48.1812 28.1102C48.327 27.089 48.4022 26.059 48.4064 25.0275C48.4063 18.8177 45.9394 12.8624 41.5484 8.47141C37.1574 4.08048 31.202 1.61363 24.9923 1.61353C23.9609 1.61782 22.9309 1.69303 21.9097 1.83855C16.1382 -1.27193 9.00956 -0.227095 4.37373 4.40913C-0.262097 9.04535 -1.30713 16.1734 1.80335 21.9449C1.65783 22.9661 1.58262 23.9959 1.57813 25.0275C1.57813 37.9589 12.0611 48.4416 24.9923 48.4416C26.0236 48.4373 27.0538 48.3621 28.075 48.2166C33.8463 51.3271 40.9748 50.2822 45.611 45.646C50.2468 41.0102 51.2919 33.8815 48.1812 28.1102Z" fill="white"/>
<path d="M14.8439 29.7035C23.0312 29.7035 29.6683 23.0664 29.6683 14.8791C29.6683 6.69179 23.0312 0.0546875 14.8439 0.0546875C6.65664 0.0546875 0.0195312 6.69179 0.0195312 14.8791C0.0195312 23.0664 6.65664 29.7035 14.8439 29.7035Z" fill="url(#paint0_linear_2895_1715)"/>
<path d="M35.1408 50.0003C43.3281 50.0003 49.9652 43.3632 49.9652 35.1759C49.9652 26.9887 43.3281 20.3516 35.1408 20.3516C26.9535 20.3516 20.3164 26.9887 20.3164 35.1759C20.3164 43.3632 26.9535 50.0003 35.1408 50.0003Z" fill="url(#paint1_linear_2895_1715)"/>
<mask id="mask0_2895_1715" style="mask-type:luminance" maskUnits="userSpaceOnUse" x="0" y="0" width="51" height="50">
<path d="M35.1409 20.3513C32.4905 20.3506 29.8886 21.0624 27.6076 22.412C31.4234 15.9778 29.8537 7.70876 23.9453 3.1202C18.037 -1.46875 9.63714 -0.942718 4.34714 4.34728C-0.942668 9.63709 -1.4687 18.0372 3.12006 23.9454C7.70862 29.8538 15.9774 31.4235 22.4121 27.6077C18.9957 33.3978 19.9034 40.7622 24.6236 45.5494C29.3441 50.3366 36.6948 51.3479 42.5325 48.0131C48.3702 44.6784 51.233 37.8328 49.5069 31.3352C47.7809 24.8375 41.8987 20.315 35.1753 20.3167L35.1409 20.3513Z" fill="white"/>
</mask>
<g mask="url(#mask0_2895_1715)">
<path d="M24.5238 53.7927C39.8223 53.7927 52.2243 41.3907 52.2243 26.0921C52.2243 10.7935 39.8223 -1.6084 24.5238 -1.6084C9.22519 -1.6084 -3.17676 10.7935 -3.17676 26.0921C-3.17676 41.3907 9.22519 53.7927 24.5238 53.7927Z" fill="url(#paint2_radial_2895_1715)"/>
</g>
<path d="M24.9923 48.4416C37.9235 48.4416 48.4064 37.9587 48.4064 25.0274C48.4064 12.0961 37.9235 1.61328 24.9923 1.61328C12.061 1.61328 1.57812 12.0961 1.57812 25.0274C1.57812 37.9587 12.061 48.4416 24.9923 48.4416Z" fill="url(#paint3_linear_2895_1715)"/>
<path d="M24.9923 48.4416C37.9235 48.4416 48.4064 37.9587 48.4064 25.0274C48.4064 12.0961 37.9235 1.61328 24.9923 1.61328C12.061 1.61328 1.57812 12.0961 1.57812 25.0274C1.57812 37.9587 12.061 48.4416 24.9923 48.4416Z" fill="url(#paint4_linear_2895_1715)"/>
<path d="M16.4548 22.1525C15.9042 21.12 15.6298 19.9627 15.6583 18.7928C15.6229 17.3143 16.1277 15.8735 17.0783 14.7404C18.0785 13.612 19.356 12.7643 20.7844 12.2812C22.336 11.7335 23.9707 11.4581 25.6161 11.4673C26.6946 11.4599 27.7719 11.541 28.8372 11.7097C29.5967 11.8369 30.3441 12.0281 31.0714 12.2812C31.7319 12.5094 32.3265 12.8959 32.8032 13.4069C33.1671 13.817 33.3647 14.3481 33.3573 14.8963C33.3707 15.1837 33.3271 15.4709 33.229 15.7414C33.1309 16.0118 32.9803 16.2602 32.7858 16.4723C32.6044 16.6655 32.3839 16.8179 32.1391 16.9194C31.8943 17.0209 31.6306 17.0691 31.3657 17.061C30.9949 17.0555 30.6292 16.9729 30.292 16.8186C29.4762 16.4572 28.6373 16.1505 27.7808 15.9005C26.984 15.6922 26.1626 15.5933 25.3391 15.6064C24.2719 15.5705 23.2159 15.8344 22.291 16.3682C21.9017 16.6046 21.5835 16.9419 21.3701 17.3444C21.1567 17.7468 21.0561 18.1994 21.0787 18.6543C21.0725 19.2461 21.296 19.8172 21.7022 20.2475C22.1992 20.7601 22.7863 21.1769 23.4341 21.4771C24.1441 21.8234 25.1659 22.291 26.6205 22.88L27.0708 23.053C28.4445 23.5766 29.7617 24.2381 31.002 25.0273C31.9902 25.6679 32.8242 26.5196 33.4439 27.5211C34.0531 28.5717 34.3589 29.7707 34.3272 30.9847C34.3763 32.4719 33.9451 33.9353 33.0976 35.1584C32.2281 36.3349 31.0194 37.2173 29.6339 37.687C27.9954 38.2712 26.2643 38.5529 24.525 38.5181C22.147 38.5968 19.7811 38.1473 17.5977 37.202C17.0384 36.9502 16.5461 36.5706 16.1605 36.0936C15.8572 35.644 15.7 35.1119 15.7102 34.5696C15.6912 34.2839 15.7357 33.9976 15.8405 33.7311C15.9453 33.4647 16.1078 33.2247 16.3163 33.0285C16.7493 32.6453 17.3148 32.4463 17.8923 32.4741C18.5379 32.4834 19.1725 32.6435 19.7452 32.9417C20.4552 33.2881 21.0094 33.5652 21.477 33.7383C21.9406 33.9343 22.4219 34.0851 22.9145 34.1886C23.5222 34.3267 24.1445 34.3907 24.7676 34.3792C25.8705 34.4604 26.9687 34.1675 27.8847 33.5479C28.2307 33.283 28.5075 32.9383 28.6914 32.5433C28.8754 32.1482 28.961 31.7146 28.9411 31.2793C28.9577 30.638 28.7213 30.0159 28.283 29.5475C27.7181 28.9716 27.0629 28.4919 26.3433 28.1274C25.4948 27.6769 24.2826 27.1402 22.7414 26.4821C21.3564 25.9308 20.0282 25.2464 18.7754 24.4385C17.8386 23.8154 17.0219 23.1245 16.4548 22.1525Z" fill="white"/>
<defs>
<linearGradient id="paint0_linear_2895_1715" x1="1250.4" y1="17.3696" x2="1714.52" y2="2947.62" gradientUnits="userSpaceOnUse">
<stop offset="0.01" stop-color="#00B7F0"/>
<stop offset="0.34" stop-color="#009DE5"/>
<stop offset="0.76" stop-color="#0082D9"/>
<stop offset="1" stop-color="#0078D4"/>
</linearGradient>
<linearGradient id="paint1_linear_2895_1715" x1="217.748" y1="2244.01" x2="2787.76" y2="761.571" gradientUnits="userSpaceOnUse">
<stop stop-color="#0078D4"/>
<stop offset="0.37" stop-color="#007AD5"/>
<stop offset="0.57" stop-color="#0082D9"/>
<stop offset="0.74" stop-color="#0090DF"/>
<stop offset="0.88" stop-color="#00A3E7"/>
<stop offset="1" stop-color="#00BCF2"/>
</linearGradient>
<radialGradient id="paint2_radial_2895_1715" cx="0" cy="0" r="1" gradientUnits="userSpaceOnUse" gradientTransform="translate(2685.93 2768.44) scale(2771.22 2771.22)">
<stop/>
<stop offset="1" stop-opacity="0"/>
</radialGradient>
<linearGradient id="paint3_linear_2895_1715" x1="1426.84" y1="756.672" x2="3768.26" y2="4812.61" gradientUnits="userSpaceOnUse">
<stop stop-color="#00B7F0"/>
<stop offset="1" stop-color="#007CC1"/>
</linearGradient>
<linearGradient id="paint4_linear_2895_1715" x1="2138.63" y1="4675.78" x2="2547.35" y2="10.2766" gradientUnits="userSpaceOnUse">
<stop stop-color="#0078D4"/>
<stop offset="1" stop-color="#00BCF2"/>
</linearGradient>
</defs>
</svg>
