<svg width="50" height="50" viewBox="0 0 50 50" fill="none" xmlns="http://www.w3.org/2000/svg">
<path d="M10.5037 31.5954C10.5037 34.4871 8.14532 36.849 5.25321 36.849C2.36111 36.849 0 34.4871 0 31.5954C0 28.7037 2.36189 26.3418 5.25361 26.3418H10.5041L10.5037 31.5954ZM13.1504 31.5954C13.1504 28.7037 15.5123 26.3418 18.404 26.3418C21.2957 26.3418 23.6576 28.7033 23.6576 31.5954V44.7462C23.6576 47.6379 21.2961 49.9998 18.404 49.9998C15.5123 49.9998 13.1504 47.6379 13.1504 44.7462V31.5954Z" fill="#DE1C59"/>
<path d="M18.404 10.5037C15.5123 10.5037 13.1504 8.14532 13.1504 5.25321C13.1504 2.36111 15.5123 0 18.404 0C21.2957 0 23.6576 2.36189 23.6576 5.25361V10.5041L18.404 10.5037ZM18.404 13.1504C21.2957 13.1504 23.6576 15.5123 23.6576 18.404C23.6576 21.2957 21.2961 23.6576 18.404 23.6576H5.25321C2.3615 23.6576 0 21.2961 0 18.404C0 15.5123 2.36189 13.1504 5.25361 13.1504H18.404Z" fill="#35C5F0"/>
<path d="M39.4957 18.404C39.4957 15.5123 41.8541 13.1504 44.7462 13.1504C47.6383 13.1504 49.9998 15.5123 49.9998 18.404C49.9998 21.2957 47.6379 23.6576 44.7462 23.6576H39.4957V18.404ZM36.849 18.404C36.849 21.2957 34.4871 23.6576 31.5954 23.6576C28.7037 23.6576 26.3418 21.2961 26.3418 18.404V5.25321C26.3418 2.3615 28.7033 0 31.5954 0C34.4871 0 36.849 2.36189 36.849 5.25361V18.404Z" fill="#2EB57D"/>
<path d="M31.5954 39.4957C34.4871 39.4957 36.849 41.8541 36.849 44.7462C36.849 47.6383 34.4871 49.9998 31.5954 49.9998C28.7037 49.9998 26.3418 47.6379 26.3418 44.7462V39.4957H31.5954ZM31.5954 36.849C28.7037 36.849 26.3418 34.4871 26.3418 31.5954C26.3418 28.7037 28.7033 26.3418 31.5954 26.3418H44.7462C47.6379 26.3418 49.9998 28.7033 49.9998 31.5954C49.9998 34.4871 47.6379 36.849 44.7462 36.849H31.5954Z" fill="#EBB02E"/>
</svg>
