<svg width="56" height="56" viewBox="0 0 56 56" fill="none" xmlns="http://www.w3.org/2000/svg">
<circle cx="28" cy="28" r="28" fill="white"/>
<path d="M27.1968 33.5163H32.9918V36.6001H26.753V33.5163H27.1968ZM32.1229 34.3974H27.6407V35.719H32.1229V34.3974ZM27.1968 29.2115H32.9918V32.2953H26.753V29.2115H27.1968ZM32.1229 30.0926H27.6407V31.408H32.1229V30.0926ZM15.5318 21.0236L17.8073 19.702L18.7325 21.0928C19.0075 21.0299 19.2826 20.9858 19.5639 20.967V18.4684C19.5639 17.2726 20.5391 16.2909 21.7269 16.2909H26.6592C27.5031 14.9 29.0097 14 30.6976 14H37.274C39.8745 14 42 16.1398 42 18.7579C42 21.376 39.8745 23.5158 37.274 23.5158H36.9114C36.9427 24.8123 36.2988 25.8885 35.2736 26.5305V39.8224C35.2736 41.0182 34.2983 42 33.1106 42H21.7331C20.5454 42 19.5702 41.0245 19.5702 39.8224V32.1632C19.2889 32.1443 19.0138 32.1002 18.7387 32.0373L17.8135 33.4345L15.1817 31.9051L15.9194 30.3947C15.3443 29.7716 14.9129 29.0164 14.6629 28.2045L13 28.0913V25.0326L14.6629 24.9193C14.9067 24.1074 15.338 23.3522 15.9194 22.7292L15.1817 21.225L15.5318 21.0236ZM20.4454 20.967C20.7204 20.9858 20.983 21.0299 21.2518 21.0928L22.177 19.702L24.8088 21.2313L24.0711 22.7354C24.3587 23.0438 24.6088 23.39 24.8213 23.7613C25.0338 24.1263 25.2026 24.5228 25.3277 24.9319L26.9905 25.0452V28.1038L25.3277 28.2171C25.0839 29.029 24.6525 29.7842 24.0711 30.4073L24.8088 31.9114L22.177 33.4408L21.2518 32.0499C20.983 32.1128 20.7142 32.1506 20.4454 32.1758V38.3057C25.0964 37.7015 29.7536 37.7015 34.3984 38.3057V26.927C33.6607 27.1535 32.823 27.1598 32.1916 26.7948L31.6915 26.5053L32.1354 26.071C32.548 25.6682 33.5419 24.6927 33.3606 23.5158H30.6976C28.2533 23.5158 26.2216 21.6278 25.9903 19.2048H24.8401C23.7148 19.2048 22.7834 18.2985 22.7458 17.1719H21.7331C21.0267 17.1719 20.4454 17.7572 20.4454 18.4684V20.967ZM17.5385 20.8726L16.3257 21.5774L16.9821 22.9117C16.532 23.3459 16.2444 23.6291 15.9256 24.1893C15.6006 24.7557 15.4943 25.1522 15.3505 25.7564L13.8752 25.857V27.2731L15.3505 27.3738C15.5005 27.978 15.6006 28.3682 15.9256 28.9346C16.2507 29.501 16.5383 29.7842 16.9821 30.2185L16.3257 31.5527L17.5385 32.2576L18.3637 31.0178C18.9763 31.194 19.3326 31.301 20.0078 31.301C20.6579 31.301 21.0267 31.2003 21.6269 31.0178L22.452 32.2576L23.671 31.5527L23.0147 30.2185C23.4648 29.7842 23.7461 29.501 24.0711 28.9409C24.3962 28.3745 24.5025 27.978 24.6463 27.3738L26.1216 27.2731V25.857L24.6463 25.7564L24.5712 25.4417C24.3587 24.5669 23.8961 23.7613 23.246 23.1319L23.0147 22.9117L23.671 21.5774L22.452 20.8726L21.6269 22.1124C21.0392 21.9425 20.6579 21.8292 20.0078 21.8292C19.3326 21.8292 18.9825 21.9299 18.3637 22.1124L17.5385 20.8726ZM18.7325 24.3655C19.3389 24.013 20.0265 23.9438 20.6454 24.1137C21.9894 24.4788 22.7896 25.8696 22.4333 27.229C22.2645 27.8521 21.8582 28.4185 21.2518 28.771C20.039 29.4758 18.5012 29.0605 17.801 27.8395C17.451 27.229 17.3822 26.5368 17.5447 25.9137C17.7198 25.278 18.1261 24.7116 18.7325 24.3655ZM20.4203 24.9571C20.014 24.8438 19.5639 24.8941 19.1701 25.1207C17.9011 25.857 18.1511 27.7829 19.5639 28.1668C20.9892 28.5507 22.152 27.0025 21.4268 25.7312C21.1955 25.3347 20.8329 25.0704 20.4203 24.9571ZM29.6786 19.1229H29.241V18.2419H31.4602V19.1229H29.6786ZM36.9552 19.1229H36.5176V18.2419H38.7368V19.1229H36.9552ZM33.3169 19.1229H32.8793V18.2419H35.0985V19.1229H33.3169ZM25.9903 18.3237C26.0278 17.9272 26.1153 17.537 26.2404 17.1719H23.621C23.6648 17.8139 24.1962 18.3237 24.8401 18.3237H25.9903ZM33.9858 14.8748H30.6976C28.5784 14.8748 26.8405 16.6244 26.8467 18.7705C26.853 20.8851 28.5846 22.6347 30.6976 22.6347H34.0233L34.1233 22.9368C34.5797 24.3529 33.842 25.4983 33.2231 26.2032C34.1796 26.2724 35.236 25.6997 35.7174 24.8564C35.98 24.3969 36.105 23.8242 36.005 23.1382L35.9299 22.6347H37.274C39.3932 22.6347 41.1248 20.8851 41.1248 18.7579C41.1248 16.6307 39.3932 14.8811 37.274 14.8811H33.9858V14.8748ZM34.3984 39.1805C29.7786 38.57 25.0651 38.57 20.4454 39.1805V39.8161C20.4454 40.5273 21.0267 41.1126 21.7331 41.1126H33.1106C33.817 41.1126 34.3984 40.5273 34.3984 39.8161V39.1805Z" fill="url(#paint0_linear_2085_8)" stroke="url(#paint1_linear_2085_8)" stroke-width="0.5"/>
<defs>
<linearGradient id="paint0_linear_2085_8" x1="27.5" y1="14" x2="27.5" y2="42" gradientUnits="userSpaceOnUse">
<stop offset="0.16" stop-color="#63388B"/>
<stop offset="1" stop-color="#327EB2" stop-opacity="0.921569"/>
</linearGradient>
<linearGradient id="paint1_linear_2085_8" x1="27.5" y1="14" x2="27.5" y2="42" gradientUnits="userSpaceOnUse">
<stop stop-color="#63388B"/>
<stop offset="1" stop-color="#4387B7"/>
</linearGradient>
</defs>
</svg>
