<svg width="54" height="50" viewBox="0 0 54 50" fill="none" xmlns="http://www.w3.org/2000/svg">
<path d="M37.4913 18.75H51.3749C52.6868 18.75 53.75 19.8135 53.75 21.1251V33.7712C53.75 38.5919 49.842 42.5001 45.0213 42.5001H44.98C40.1593 42.5008 36.2506 38.5934 36.25 33.7725V19.9915C36.2499 19.8285 36.282 19.667 36.3443 19.5163C36.4067 19.3657 36.4981 19.2288 36.6134 19.1135C36.7286 18.9982 36.8655 18.9068 37.0162 18.8444C37.1668 18.782 37.3282 18.7499 37.4913 18.75Z" fill="#5059C9"/>
<path d="M46.8751 16.2501C49.9817 16.2501 52.5001 13.7317 52.5001 10.6251C52.5001 7.51842 49.9817 5 46.8751 5C43.7684 5 41.25 7.51842 41.25 10.6251C41.25 13.7317 43.7684 16.2501 46.8751 16.2501Z" fill="#5059C9"/>
<path d="M29.3751 16.2501C33.8624 16.2501 37.5001 12.6124 37.5001 8.12506C37.5001 3.63771 33.8624 0 29.3751 0C24.8877 0 21.25 3.63771 21.25 8.12506C21.25 12.6124 24.8877 16.2501 29.3751 16.2501Z" fill="#7B83EB"/>
<path d="M40.2087 18.75H17.2913C15.9952 18.7821 14.97 19.8578 15 21.1538V35.5775C14.819 43.3553 20.9723 49.8097 28.7499 50.0001C36.5275 49.8097 42.6808 43.3553 42.5 35.5775V21.1538C42.53 19.8578 41.5048 18.7821 40.2087 18.75Z" fill="#7B83EB"/>
<path opacity="0.1" d="M29.9999 18.75V38.9625C29.9969 39.4159 29.86 39.8582 29.6065 40.2341C29.353 40.6099 28.9941 40.9025 28.5749 41.0751C28.3019 41.1906 28.0086 41.25 27.7124 41.25H16.0997C15.9371 40.8375 15.7872 40.4249 15.6621 40.0001C15.2245 38.5658 15.0013 37.0746 14.9997 35.575V21.1501C14.9696 19.8561 15.9932 18.7821 17.2872 18.7502L29.9999 18.75Z" fill="black"/>
<path opacity="0.2" d="M28.7494 18.75V40.2126C28.7494 40.5089 28.6899 40.8022 28.5745 41.0751C28.4019 41.4943 28.1093 41.8532 27.7334 42.1068C27.3576 42.3603 26.9152 42.4971 26.4618 42.5001H16.6871C16.4746 42.0876 16.2745 41.675 16.0997 41.25C15.9316 40.8415 15.7856 40.4243 15.6621 40.0001C15.2245 38.5658 15.0013 37.0746 14.9997 35.575V21.1501C14.9696 19.8561 15.9932 18.7821 17.2872 18.7502L28.7494 18.75Z" fill="black"/>
<path opacity="0.2" d="M28.7496 18.75V37.7126C28.7401 38.972 27.7216 39.9907 26.4621 40.0001H15.6621C15.2245 38.5658 15.0013 37.0746 14.9997 35.575V21.1501C14.9696 19.8561 15.9932 18.7821 17.2872 18.7502L28.7496 18.75Z" fill="black"/>
<path opacity="0.2" d="M27.4997 18.75V37.7126C27.49 38.972 26.4715 39.9907 25.2122 40.0001H15.6621C15.2245 38.5658 15.0013 37.0746 14.9997 35.575V21.1501C14.9696 19.8561 15.9932 18.7821 17.2872 18.7502L27.4997 18.75Z" fill="black"/>
<path opacity="0.1" d="M29.9996 12.2875V16.2249C29.7872 16.2375 29.5871 16.2501 29.3746 16.2501C29.1621 16.2501 28.962 16.2375 28.7495 16.2249C28.3276 16.1969 27.9092 16.13 27.4996 16.025C26.2518 15.7295 25.0915 15.1428 24.1139 14.3129C23.1362 13.483 22.3689 12.4334 21.8746 11.2501C21.702 10.847 21.5681 10.4284 21.4746 10H27.7121C28.9734 10.0048 29.9948 11.0261 29.9996 12.2875Z" fill="black"/>
<path opacity="0.2" d="M28.7497 13.5373V16.2248C28.3278 16.1968 27.9094 16.1299 27.4998 16.0249C26.252 15.7294 25.0918 15.1426 24.1142 14.3127C23.1366 13.4828 22.3693 12.4333 21.875 11.25H26.4622C27.7237 11.2546 28.7449 12.2761 28.7497 13.5373Z" fill="black"/>
<path opacity="0.2" d="M28.7497 13.5373V16.2248C28.3278 16.1968 27.9094 16.1299 27.4998 16.0249C26.252 15.7294 25.0918 15.1426 24.1142 14.3127C23.1366 13.4828 22.3693 12.4333 21.875 11.25H26.4622C27.7237 11.2546 28.7449 12.2761 28.7497 13.5373Z" fill="black"/>
<path opacity="0.2" d="M27.5001 13.5375V16.0251C26.2522 15.7296 25.0919 15.1428 24.1143 14.3129C23.1366 13.4829 22.3693 12.4334 21.875 11.25H25.2125C26.474 11.2548 27.4952 12.2763 27.5001 13.5375Z" fill="black"/>
<path d="M2.2913 11.2502H25.2085C26.4742 11.2502 27.5 12.2761 27.5 13.5415V36.4589C27.5 37.7244 26.4742 38.7502 25.2087 38.7502H2.2913C1.02587 38.7502 0 37.7244 0 36.4589V13.5417C0 12.2759 1.02587 11.2502 2.2913 11.2502Z" fill="url(#paint0_linear_2895_1716)"/>
<path d="M19.7797 19.9727H15.1983V32.4478H12.2797V19.9727H7.71973V17.5527H19.7797V19.9727Z" fill="white"/>
<defs>
<linearGradient id="paint0_linear_2895_1716" x1="477.73" y1="-167.777" x2="2272.29" y2="2940.29" gradientUnits="userSpaceOnUse">
<stop stop-color="#5A62C3"/>
<stop offset="0.5" stop-color="#4D55BD"/>
<stop offset="1" stop-color="#3940AB"/>
</linearGradient>
</defs>
</svg>
