<svg width="22" height="18" viewBox="0 0 22 18" fill="none" xmlns="http://www.w3.org/2000/svg">
<path d="M7.05862 6.3574C7.40494 5.92857 7.81831 5.55855 8.28271 5.26164C8.23271 5.14104 8.19081 5.01724 8.15729 4.89106C7.98537 5.19326 7.71832 5.4301 7.39774 5.56469C7.07717 5.69927 6.72108 5.72404 6.38496 5.63513C6.04885 5.54622 5.75158 5.34863 5.53947 5.07314C5.32737 4.79766 5.21235 4.45975 5.21233 4.11207C5.21231 3.76439 5.3273 3.42647 5.53937 3.15096C5.75144 2.87545 6.04869 2.67783 6.3848 2.58888C6.72091 2.49994 7.077 2.52467 7.39758 2.65922C7.71817 2.79377 7.98525 3.03058 8.15721 3.33276C8.2277 3.07609 8.33285 2.83022 8.46975 2.60195C8.21031 2.31033 7.87997 2.09065 7.51071 1.96419C7.14145 1.83772 6.74578 1.80876 6.36204 1.8801C5.9783 1.95145 5.61949 2.12068 5.32035 2.3714C5.02122 2.62213 4.7919 2.94586 4.65461 3.31123C4.51732 3.67661 4.47671 4.07124 4.53671 4.45692C4.59671 4.8426 4.7553 5.20624 4.9971 5.51264C5.2389 5.81903 5.55573 6.05779 5.9169 6.20579C6.27807 6.35379 6.67134 6.40601 7.05862 6.3574Z" fill="#3F3F3F"/>
<path d="M4.89442 6.3707C4.71512 6.21911 4.5544 6.04682 4.41564 5.85742C3.7996 6.25415 3.29288 6.79903 2.94184 7.44221C2.5908 8.08538 2.40666 8.80632 2.40625 9.53905C2.40766 9.71141 2.41975 9.88351 2.44246 10.0544C2.46333 10.2206 2.54415 10.3734 2.66976 10.4843C2.79536 10.5951 2.95711 10.6562 3.12461 10.6562H6.14657C6.05403 10.4977 5.99442 10.3221 5.9713 10.14C5.96378 10.0801 5.95747 10.0235 5.95206 9.96874H3.12461C3.10535 9.8263 3.09504 9.68279 3.09375 9.53905C3.09393 8.90025 3.25997 8.27243 3.57561 7.71705C3.89125 7.16166 4.34568 6.69775 4.89442 6.3707Z" fill="#3F3F3F"/>
<path d="M13.7494 12.375C14.3241 12.3742 14.8843 12.1939 15.3517 11.8594H12.1514C12.6169 12.1944 13.1758 12.3748 13.7494 12.375Z" fill="#3F3F3F"/>
<path d="M16.4749 9.96875H16.048C16.0426 10.0234 16.0363 10.0801 16.0288 10.1399C16.0057 10.3221 15.9461 10.4977 15.8535 10.6562H16.2962C16.3853 10.4358 16.4454 10.2047 16.4749 9.96875Z" fill="#3F3F3F"/>
<path d="M15.3465 10.0543C15.3818 9.77063 15.3882 9.48408 15.3657 9.19907C15.3029 8.40812 15.0276 7.64881 14.569 7.00138C14.3042 6.91815 14.0284 6.87554 13.7509 6.875C13.688 6.875 13.6257 6.8805 13.5633 6.88482C13.9214 7.22792 14.2063 7.63997 14.4008 8.09614C14.5954 8.5523 14.6955 9.04314 14.6953 9.53906C14.694 9.6828 14.6837 9.82631 14.6644 9.96875H11.0239C11.0541 10.2047 11.1147 10.4358 11.2043 10.6562H14.6644C14.8319 10.6563 14.9937 10.5951 15.1193 10.4843C15.2449 10.3734 15.3257 10.2206 15.3465 10.0543Z" fill="#3F3F3F"/>
<path d="M9.10758 6.36947C8.92778 6.21825 8.76641 6.04639 8.62681 5.85742C7.95619 6.29075 7.41664 6.89899 7.06639 7.61651C6.71615 8.33403 6.5685 9.13358 6.63938 9.92887C6.64358 9.96922 6.64815 10.0105 6.65366 10.0543C6.67451 10.2205 6.75532 10.3734 6.88093 10.4843C7.00653 10.5951 7.16828 10.6562 7.33579 10.6562H9.05243C9.00306 10.4297 8.97 10.2 8.95352 9.96873H7.33577C7.31651 9.82629 7.3062 9.68278 7.30491 9.53904C7.30509 8.89984 7.47133 8.27164 7.78734 7.71601C8.10335 7.16038 8.55829 6.69638 9.10758 6.36947Z" fill="#3F3F3F"/>
<path d="M10.3069 6.26527C10.515 6.0517 10.7426 5.85803 10.9867 5.68676C10.6318 5.68444 10.288 5.56261 10.0109 5.34093C9.73371 5.11925 9.53932 4.81066 9.45908 4.46495C9.37884 4.11923 9.41741 3.75657 9.56858 3.43547C9.71976 3.11437 9.97471 2.85357 10.2923 2.69516C10.6099 2.53675 10.9716 2.48995 11.319 2.56234C11.6665 2.63472 11.9794 2.82206 12.2073 3.09411C12.4352 3.36617 12.5648 3.70708 12.5752 4.06183C12.5855 4.41659 12.4761 4.76449 12.2645 5.04939C12.5483 4.9574 12.84 4.89195 13.1359 4.85388C13.2833 4.42917 13.3009 3.97015 13.1863 3.53542C13.0717 3.10068 12.8301 2.70996 12.4925 2.41314C12.1548 2.11632 11.7363 1.92685 11.2905 1.86894C10.8447 1.81103 10.3917 1.8873 9.9894 2.08801C9.5871 2.28871 9.25375 2.60476 9.03189 2.99579C8.81003 3.38682 8.70974 3.83509 8.74381 4.28338C8.77789 4.73167 8.94478 5.15964 9.22319 5.51264C9.50161 5.86564 9.8789 6.12767 10.3069 6.26527Z" fill="#3F3F3F"/>
<path d="M18.5467 9.96875C18.5304 10.2 18.4974 10.4297 18.4481 10.6563H18.8751C19.0426 10.6563 19.2043 10.5951 19.3299 10.4843C19.4555 10.3734 19.5363 10.2206 19.5572 10.0544C19.5799 9.88352 19.592 9.71142 19.5934 9.53907C19.593 8.80633 19.4089 8.08539 19.0578 7.44221C18.7068 6.79904 18.2001 6.25415 17.584 5.85742C17.4711 6.00838 17.3442 6.1484 17.2051 6.27566C17.3368 6.41193 17.4604 6.55587 17.5752 6.70674C17.9916 7.05194 18.3268 7.48475 18.5568 7.97432C18.7868 8.46388 18.906 8.99816 18.9059 9.53907C18.9046 9.6828 18.8943 9.82631 18.8751 9.96875H18.5467Z" fill="#3F3F3F"/>
<path d="M20.625 0H1.375C1.01045 0.000409425 0.660954 0.145407 0.40318 0.403181C0.145407 0.660954 0.000409425 1.01045 0 1.375L0 12.7188C0.000413511 13.0833 0.145412 13.4328 0.403185 13.6906C0.660958 13.9483 1.01045 14.0933 1.375 14.0938H8.76562V15.4688H7.90625C7.81508 15.4688 7.72765 15.505 7.66318 15.5694C7.59872 15.6339 7.5625 15.7213 7.5625 15.8125C7.5625 15.9037 7.59872 15.9911 7.66318 16.0556C7.72765 16.12 7.81508 16.1562 7.90625 16.1562H14.0938C14.1849 16.1562 14.2724 16.12 14.3368 16.0556C14.4013 15.9911 14.4375 15.9037 14.4375 15.8125C14.4375 15.7213 14.4013 15.6339 14.3368 15.5694C14.2724 15.505 14.1849 15.4688 14.0938 15.4688H13.2344V14.4091C13.0025 14.3842 12.7727 14.3425 12.5469 14.2843V15.4688H9.45312V14.0938H11.9627C11.5358 13.9227 11.1356 13.6912 10.7746 13.4062H1.375C1.19266 13.4062 1.0178 13.3338 0.888864 13.2049C0.759933 13.076 0.6875 12.9011 0.6875 12.7188V12.5469H9.92722C9.76155 12.3307 9.61471 12.1007 9.4883 11.8594H0.6875V1.375C0.6875 1.19266 0.759933 1.0178 0.888864 0.888864C1.0178 0.759933 1.19266 0.6875 1.375 0.6875H20.625C20.8073 0.6875 20.9822 0.759933 21.1111 0.888864C21.2401 1.0178 21.3125 1.19266 21.3125 1.375V11.8594H19.2419C19.256 11.8718 19.2708 11.8832 19.2844 11.8963L19.9657 12.5469H21.3125V12.7188C21.3122 12.8649 21.2651 13.0071 21.1782 13.1246C21.0913 13.242 20.9691 13.3287 20.8295 13.3718L21.3603 13.8787C21.556 13.7549 21.7173 13.5837 21.8291 13.3809C21.941 13.1781 21.9998 12.9503 22 12.7188V1.375C21.9996 1.01045 21.8546 0.660954 21.5968 0.403181C21.339 0.145407 20.9895 0.000409425 20.625 0Z" fill="#3F3F3F"/>
<path d="M15.2105 1.849C14.8932 1.8492 14.5794 1.91637 14.2898 2.04613C14.0002 2.17589 13.7412 2.36532 13.5298 2.60202C13.6667 2.8303 13.7718 3.07617 13.8423 3.33284C13.9598 3.12651 14.1225 2.94942 14.3181 2.81481C14.5137 2.6802 14.7372 2.59156 14.9719 2.55552C15.2066 2.51947 15.4464 2.53696 15.6734 2.60666C15.9003 2.67637 16.1086 2.79649 16.2826 2.95804C16.4567 3.1196 16.5919 3.3184 16.6782 3.53959C16.7646 3.76079 16.7998 3.99864 16.7813 4.23536C16.7627 4.47208 16.6909 4.70154 16.5711 4.90659C16.4514 5.11163 16.2869 5.28696 16.0898 5.41944C16.3005 5.53698 16.5021 5.67019 16.6928 5.81796C17.0414 5.51614 17.2894 5.11492 17.4034 4.66814C17.5174 4.22137 17.492 3.75041 17.3307 3.31845C17.1694 2.8865 16.8798 2.51422 16.5008 2.25156C16.1219 1.98891 15.6716 1.84844 15.2105 1.849Z" fill="#3F3F3F"/>
<path d="M10.9495 12.6537C11.6094 13.2646 12.4511 13.6427 13.3461 13.7304C14.2411 13.8181 15.1402 13.6105 15.9061 13.1393L16.6151 13.7957C16.5265 13.9296 16.4877 14.0905 16.5055 14.2501C16.5234 14.4098 16.5967 14.5581 16.7127 14.6692L19.6904 17.5129C19.8183 17.635 19.9884 17.7031 20.1652 17.7031C20.1742 17.7031 20.1831 17.703 20.1921 17.7026C20.2842 17.699 20.3746 17.6769 20.458 17.6377C20.5413 17.5985 20.616 17.5429 20.6774 17.4742L21.8247 16.1929C21.9438 16.0599 22.0065 15.8858 21.9995 15.7074C21.9925 15.529 21.9164 15.3604 21.7873 15.2371L18.8096 12.3934C18.6817 12.2713 18.5116 12.2031 18.3348 12.2031C18.3258 12.2031 18.3169 12.2033 18.3079 12.2037C18.2292 12.2076 18.1517 12.2252 18.079 12.2555L17.3725 11.6015C17.7151 10.9732 17.8883 10.2666 17.8752 9.55104C17.8621 8.83554 17.6632 8.13573 17.2979 7.52034C16.9327 6.90494 16.4136 6.39511 15.7918 6.04091C15.17 5.68671 14.4668 5.5003 13.7511 5.5H13.7508C12.9211 5.49984 12.1107 5.74987 11.4253 6.21744C10.74 6.685 10.2115 7.34836 9.909 8.12091C9.60648 8.89345 9.54394 9.73926 9.72956 10.5479C9.91518 11.3565 10.3403 12.0904 10.9495 12.6537ZM18.3348 12.8906L21.3125 15.7343L20.1652 17.0156L17.1875 14.172L18.3348 12.8906ZM17.5665 12.718L17.0664 13.2765L16.4708 12.7251C16.5786 12.6307 16.6814 12.5307 16.7786 12.4255C16.8517 12.3465 16.9203 12.2645 16.9864 12.181L17.5665 12.718ZM11.2261 7.29125C11.6877 6.79207 12.2869 6.44098 12.948 6.28236C13.6092 6.12375 14.3025 6.16475 14.9403 6.40016C15.5781 6.63558 16.1318 7.05484 16.5313 7.60494C16.9309 8.15503 17.1583 8.81125 17.1849 9.4906C17.2115 10.17 17.036 10.8419 16.6807 11.4216C16.3254 12.0012 15.8061 12.4625 15.1887 12.747C14.5712 13.0315 13.8832 13.1266 13.2117 13.0201C12.5402 12.9137 11.9154 12.6105 11.4162 12.1489C11.0838 11.843 10.815 11.4745 10.6255 11.0645C10.4359 10.6544 10.3292 10.211 10.3116 9.75957C10.2939 9.30818 10.3656 8.85775 10.5226 8.43415C10.6795 8.01056 10.9186 7.62215 11.2261 7.29125Z" fill="#3F3F3F"/>
</svg>
