<svg width="47" height="54" viewBox="0 0 47 54" fill="none" xmlns="http://www.w3.org/2000/svg">
<path d="M4.36151 38.7824C1.95597 38.7837 0.00130334 36.8264 0.000868966 34.4213L2.89532e-07 21.0692C-0.00086845 18.6663 1.95336 16.7094 4.35586 16.709C5.52388 16.7081 6.61763 17.1612 7.44206 17.9847C8.26649 18.8083 8.71998 19.9038 8.72085 21.0683L8.71954 34.4209C8.72266 34.9933 8.61167 35.5606 8.39308 36.0897C8.17449 36.6188 7.85266 37.099 7.4464 37.5023C7.04268 37.9094 6.56206 38.2323 6.03247 38.452C5.50287 38.6718 4.93488 38.7841 4.36151 38.7824ZM4.35803 17.8805C2.59753 17.8796 1.17063 19.31 1.17019 21.0692L1.17236 34.42C1.17225 35.266 1.50807 36.0774 2.106 36.6759C2.70394 37.2745 3.51506 37.611 4.36107 37.6117C4.77998 37.6117 5.19478 37.5291 5.58174 37.3686C5.96871 37.2082 6.32027 36.9731 6.61632 36.6767C6.91237 36.3803 7.14712 36.0285 7.30714 35.6414C7.46716 35.2542 7.54931 34.8393 7.54891 34.4204V21.0675C7.54799 20.2218 7.21139 19.4111 6.61307 18.8136C6.01475 18.216 5.20367 17.8804 4.35803 17.8805Z" fill="white"/>
<path d="M38.5594 18.5415L37.3875 18.5411L8.66737 18.545L7.49501 18.5454L7.49414 17.3731C7.49154 12.5603 10.1134 8.08407 14.408 5.43963L12.7383 2.39165C12.5341 2.0346 12.4829 1.58242 12.6019 1.1689C12.6622 0.96264 12.7629 0.77043 12.8982 0.603461C13.0334 0.436493 13.2006 0.298103 13.3898 0.196348C13.6238 0.0674366 13.8868 0.000591298 14.1539 0.00218454C14.7455 0.00218454 15.2872 0.323184 15.573 0.841821L17.3205 4.02532C19.143 3.35791 21.0694 3.01892 23.0103 3.0241C25.011 3.02323 26.9296 3.3616 28.7457 4.02792L30.4906 0.839215C30.6295 0.584786 30.8345 0.372542 31.0839 0.224848C31.3333 0.0771549 31.618 -0.000518639 31.9079 1.26955e-05C32.1747 -0.00104771 32.4376 0.0643367 32.6728 0.190267C32.8625 0.291904 33.0298 0.430589 33.1648 0.598098C33.2999 0.765608 33.3999 0.958531 33.459 1.16543C33.5185 1.36942 33.5369 1.58318 33.5132 1.79433C33.4894 2.00548 33.4241 2.20983 33.3209 2.39556L31.6521 5.4418C35.9397 8.09189 38.5585 12.5646 38.5581 17.3692L38.5594 18.5415ZM30.0692 5.89094L32.2945 1.82741C32.3263 1.77636 32.3473 1.71937 32.3563 1.65992C32.3653 1.60048 32.3622 1.53981 32.347 1.48164C32.3318 1.42346 32.3049 1.36899 32.2679 1.32155C32.231 1.27411 32.1848 1.23469 32.1321 1.20571C32.0794 1.17672 32.0214 1.15877 31.9615 1.15296C31.9017 1.14715 31.8413 1.15359 31.784 1.17189C31.7267 1.19019 31.6738 1.21997 31.6284 1.25941C31.583 1.29885 31.5461 1.34713 31.52 1.40129L29.2717 5.50608C27.3805 4.66601 25.2629 4.19385 23.0246 4.19603C20.7911 4.19385 18.6774 4.66428 16.7918 5.50131L14.5414 1.40563C14.5138 1.35449 14.4765 1.30932 14.4314 1.27273C14.3863 1.23615 14.3343 1.20889 14.2786 1.19252C14.2229 1.17616 14.1645 1.17102 14.1068 1.1774C14.049 1.18379 13.9932 1.20157 13.9424 1.22971C13.7265 1.34526 13.647 1.61674 13.7673 1.82871L15.9935 5.8892C11.6194 8.14532 8.6639 12.4412 8.66651 17.3735L37.3862 17.37C37.3875 12.4395 34.4372 8.15227 30.0692 5.89094ZM16.4925 12.1706C16.1732 12.1704 15.8669 12.0434 15.6412 11.8174C15.4155 11.5915 15.2887 11.2851 15.2889 10.9657C15.2891 10.6463 15.4161 10.34 15.6421 10.1143C15.8681 9.88858 16.1745 9.76187 16.4939 9.76204C16.8133 9.76261 17.1195 9.88973 17.3454 10.1156C17.5713 10.3414 17.6985 10.6475 17.6992 10.967C17.6988 11.2866 17.5714 11.5929 17.3451 11.8186C17.1188 12.0444 16.8122 12.171 16.4925 12.1706ZM29.5701 12.168C29.412 12.1683 29.2553 12.1374 29.1091 12.077C28.9629 12.0166 28.8301 11.928 28.7182 11.8161C28.6064 11.7043 28.5177 11.5715 28.4572 11.4254C28.3968 11.2792 28.3658 11.1225 28.366 10.9644C28.3674 10.6451 28.4947 10.3393 28.7202 10.1134C28.9458 9.88746 29.2513 9.75964 29.5706 9.7577C29.8894 9.76032 30.1944 9.88851 30.4194 10.1145C30.6443 10.3404 30.7712 10.6459 30.7725 10.9648C30.7725 11.2838 30.6458 11.5897 30.4204 11.8153C30.1949 12.0409 29.8891 12.1678 29.5701 12.168ZM17.6962 54C15.2928 53.9996 13.3369 52.0449 13.3364 49.6398L13.3355 43.7467L12.1897 43.748C11.5887 43.7502 10.9932 43.6329 10.4378 43.4031C9.88245 43.1733 9.37826 42.8355 8.95449 42.4093C8.52779 41.9855 8.18965 41.4811 7.95974 40.9253C7.72984 40.3696 7.61276 39.7737 7.61533 39.1724L7.61099 18.4846V17.3114H8.78335L37.288 17.307L38.4608 17.3062V18.4785L38.4638 39.1689C38.4643 41.6921 36.4114 43.7454 33.8891 43.745L32.7362 43.7458L32.7375 49.6368C32.7375 52.0406 30.782 53.9974 28.3795 53.9974C27.8066 54.0002 27.2389 53.8888 26.7096 53.6697C26.1802 53.4507 25.6998 53.1284 25.2964 52.7217C24.8893 52.3184 24.5665 51.8382 24.3468 51.3091C24.127 50.7799 24.0147 50.2123 24.0163 49.6394V43.7458H22.0568V49.6381C22.056 52.0423 20.1009 54.0004 17.6962 54Z" fill="white"/>
<path d="M8.78915 39.1719C8.78818 39.619 8.87548 40.0619 9.04604 40.4751C9.21661 40.8884 9.46709 41.264 9.78311 41.5802C10.0991 41.8965 10.4745 42.1473 10.8876 42.3181C11.3008 42.489 11.7436 42.5767 12.1907 42.576H14.5072L14.5098 49.6406C14.5094 51.3998 15.9384 52.8293 17.6959 52.8298C18.1148 52.8297 18.5296 52.747 18.9165 52.5865C19.3035 52.426 19.655 52.1908 19.951 51.8944C20.247 51.598 20.4817 51.2462 20.6417 50.859C20.8017 50.4718 20.8838 50.0569 20.8833 49.638L20.8837 42.5756L25.1879 42.5743L25.1875 49.6385C25.1892 51.3981 26.62 52.8293 28.3771 52.8259C30.1389 52.8272 31.5671 51.3959 31.5666 49.6359L31.5645 42.5734L33.8896 42.573C35.7657 42.5734 37.2916 41.0492 37.2916 39.1688L37.2877 18.4776L8.78394 18.4828L8.78915 39.1719ZM41.7105 38.7766C39.3058 38.777 37.3498 36.8228 37.3503 34.4173L37.3468 21.0656C37.3477 18.6605 39.3006 16.7041 41.704 16.7041C44.1104 16.7037 46.0676 18.6596 46.0672 21.0643L46.0685 34.4151C46.0689 36.8189 44.1147 38.777 41.7105 38.7766ZM41.7061 17.8765C39.9456 17.8747 38.5192 19.3042 38.5192 21.0656L38.5205 34.4168C38.5202 34.8357 38.6026 35.2504 38.7628 35.6374C38.923 36.0244 39.1579 36.376 39.4541 36.6721C39.7503 36.9682 40.1019 37.203 40.489 37.3631C40.876 37.5232 41.2908 37.6055 41.7096 37.6051C42.1283 37.605 42.5429 37.5224 42.9297 37.362C43.3165 37.2017 43.668 36.9667 43.964 36.6705C44.2599 36.3743 44.4947 36.0227 44.6548 35.6358C44.8149 35.2489 44.8972 34.8343 44.897 34.4155L44.8935 21.0647C44.8938 20.646 44.8116 20.2314 44.6515 19.8445C44.4914 19.4576 44.2567 19.1061 43.9607 18.81C43.6646 18.5139 43.3132 18.279 42.9263 18.1188C42.5395 17.9587 42.1248 17.8763 41.7061 17.8765Z" fill="white"/>
<path d="M4.35801 17.8803C2.59751 17.8795 1.1706 19.3098 1.17017 21.069L1.17234 34.4198C1.17217 34.8387 1.25454 35.2535 1.41474 35.6405C1.57494 36.0276 1.80984 36.3792 2.10601 36.6754C2.40218 36.9716 2.75381 37.2066 3.14081 37.3668C3.52782 37.5271 3.94261 37.6095 4.36148 37.6094C4.78033 37.6099 5.19516 37.5277 5.58219 37.3675C5.96923 37.2074 6.32086 36.9725 6.61695 36.6762C6.91305 36.38 7.14777 36.0282 7.30769 35.6411C7.46761 35.254 7.54957 34.8391 7.54889 34.4203V21.0673C7.54797 20.2217 7.21136 19.411 6.61305 18.8134C6.01473 18.2158 5.20364 17.8802 4.35801 17.8803ZM30.0692 5.89085L32.2945 1.82732C32.3512 1.72424 32.3647 1.60288 32.332 1.48986C32.2994 1.37684 32.2232 1.28138 32.1203 1.22441C32.0172 1.1684 31.8962 1.15556 31.7836 1.1887C31.6711 1.22184 31.5763 1.29826 31.52 1.4012L29.2722 5.5073C27.3809 4.66549 25.2642 4.19377 23.0246 4.19594C20.7911 4.19377 18.6753 4.66419 16.7918 5.50122L14.5414 1.40555C14.5139 1.35442 14.4766 1.30926 14.4315 1.27267C14.3865 1.23608 14.3346 1.20879 14.2789 1.19239C14.2232 1.17599 14.1649 1.17079 14.1072 1.17711C14.0495 1.18343 13.9936 1.20113 13.9428 1.22919C13.8915 1.25661 13.8462 1.29398 13.8095 1.33911C13.7729 1.38425 13.7455 1.43624 13.7292 1.49206C13.7129 1.54788 13.7078 1.60639 13.7144 1.66418C13.7209 1.72197 13.7389 1.77787 13.7673 1.82862L15.9935 5.88955C11.6194 8.14523 8.66391 12.4411 8.66652 17.3734L37.3862 17.3699C37.3875 12.4394 34.4372 8.15218 30.0692 5.89085ZM16.4926 12.1705C16.1732 12.1704 15.8669 12.0433 15.6412 11.8173C15.4155 11.5914 15.2888 11.285 15.2889 10.9656C15.2891 10.6462 15.4161 10.3399 15.6421 10.1142C15.8681 9.8885 16.1745 9.76178 16.4939 9.76195C16.8133 9.76253 17.1195 9.88965 17.3454 10.1155C17.5713 10.3413 17.6986 10.6475 17.6992 10.9669C17.6988 11.2865 17.5714 11.5928 17.3451 11.8186C17.1188 12.0443 16.8122 12.1709 16.4926 12.1705ZM29.5701 12.1679C29.412 12.168 29.2554 12.137 29.1093 12.0765C28.9632 12.0161 28.8305 11.9275 28.7186 11.8157C28.6068 11.7039 28.5181 11.5712 28.4576 11.4251C28.3971 11.279 28.366 11.1224 28.3661 10.9643C28.3678 10.6452 28.4952 10.3396 28.7206 10.1137C28.9461 9.88782 29.2514 9.75989 29.5706 9.75761C29.8894 9.76024 30.1944 9.88842 30.4194 10.1144C30.6444 10.3403 30.7712 10.6459 30.7725 10.9647C30.7726 11.1227 30.7417 11.2792 30.6813 11.4252C30.621 11.5712 30.5324 11.7038 30.4207 11.8156C30.3091 11.9273 30.1765 12.016 30.0305 12.0764C29.8846 12.1369 29.7281 12.168 29.5701 12.1679ZM8.7838 18.4828L8.78858 39.174C8.78795 39.6209 8.87552 40.0636 9.04627 40.4766C9.21701 40.8896 9.46759 41.2648 9.78362 41.5808C10.0997 41.8968 10.4749 42.1473 10.888 42.318C11.301 42.4887 11.7437 42.5762 12.1906 42.5756L14.5071 42.5764L14.5097 49.641C14.5092 51.4002 15.9392 52.8302 17.6958 52.8302C19.4576 52.8302 20.8849 51.3989 20.8853 49.6388L20.8836 42.576L25.1878 42.5747L25.1895 49.6388C25.1895 51.3967 26.6199 52.8297 28.3769 52.8263C30.1387 52.8276 31.5669 51.3963 31.5665 49.6362L31.5643 42.5738L33.8891 42.5721C34.336 42.5721 34.7786 42.4842 35.1915 42.3132C35.6044 42.1422 35.9796 41.8916 36.2957 41.5756C36.6118 41.2596 36.8625 40.8845 37.0336 40.4716C37.2047 40.0587 37.2927 39.6162 37.2928 39.1692L37.2889 18.478L8.7838 18.4828ZM44.8947 21.0643C44.8946 20.6456 44.8121 20.231 44.6518 19.8442C44.4916 19.4574 44.2567 19.106 43.9606 18.8099C43.6645 18.5139 43.313 18.2791 42.9261 18.1189C42.5393 17.9588 42.1247 17.8764 41.706 17.8764C39.9455 17.8747 38.519 19.3042 38.519 21.0656L38.5216 34.4172C38.5213 34.8359 38.6036 35.2506 38.7637 35.6375C38.9238 36.0244 39.1586 36.3759 39.4547 36.672C39.7508 36.9681 40.1023 37.2029 40.4892 37.363C40.8761 37.5231 41.2908 37.6053 41.7095 37.6051C42.1282 37.6051 42.5429 37.5226 42.9298 37.3623C43.3167 37.202 43.6682 36.9671 43.9642 36.6709C44.2602 36.3746 44.495 36.023 44.655 35.636C44.815 35.249 44.8972 34.8343 44.8969 34.4155L44.8947 21.0643Z" fill="#A4C439"/>
</svg>
