<svg width="45" height="45" viewBox="0 0 45 45" fill="none" xmlns="http://www.w3.org/2000/svg">
<path d="M42.75 20.25H42.6C42.0712 15.6986 40.0206 11.4593 36.7806 8.21938C33.5407 4.97944 29.3014 2.92882 24.75 2.4V2.25C24.75 1.65326 24.5129 1.08097 24.091 0.65901C23.669 0.237053 23.0967 0 22.5 0C21.9033 0 21.331 0.237053 20.909 0.65901C20.4871 1.08097 20.25 1.65326 20.25 2.25V2.4C15.6986 2.92882 11.4593 4.97944 8.21938 8.21938C4.97944 11.4593 2.92882 15.6986 2.4 20.25H2.25C1.65326 20.25 1.08097 20.4871 0.65901 20.909C0.237053 21.331 0 21.9033 0 22.5C0 23.0967 0.237053 23.669 0.65901 24.091C1.08097 24.5129 1.65326 24.75 2.25 24.75H2.4C2.92882 29.3014 4.97944 33.5407 8.21938 36.7806C11.4593 40.0206 15.6986 42.0712 20.25 42.6V42.75C20.25 43.3467 20.4871 43.919 20.909 44.341C21.331 44.7629 21.9033 45 22.5 45C23.0967 45 23.669 44.7629 24.091 44.341C24.5129 43.919 24.75 43.3467 24.75 42.75V42.6C29.3014 42.0712 33.5407 40.0206 36.7806 36.7806C40.0206 33.5407 42.0712 29.3014 42.6 24.75H42.75C43.3467 24.75 43.919 24.5129 44.341 24.091C44.7629 23.669 45 23.0967 45 22.5C45 21.9033 44.7629 21.331 44.341 20.909C43.919 20.4871 43.3467 20.25 42.75 20.25ZM41.0925 20.25H39.5925C39.1038 16.4854 37.3826 12.9885 34.6976 10.3048C32.0127 7.62119 28.5148 5.90182 24.75 5.415V3.915C28.9016 4.43547 32.7616 6.32367 35.7209 9.28158C38.6801 12.2395 40.5701 16.0987 41.0925 20.25ZM38.0925 24.75C37.6113 28.1166 36.0504 31.236 33.6443 33.6394C31.2383 36.0427 28.1171 37.6001 24.75 38.0775C24.75 37.4808 24.5129 36.9085 24.091 36.4865C23.669 36.0646 23.0967 35.8275 22.5 35.8275C21.9033 35.8275 21.331 36.0646 20.909 36.4865C20.4871 36.9085 20.25 37.4808 20.25 38.0775C16.8856 37.5971 13.7678 36.0384 11.3647 33.6353C8.96161 31.2322 7.40286 28.1144 6.9225 24.75C7.51924 24.75 8.09153 24.5129 8.51349 24.091C8.93545 23.669 9.1725 23.0967 9.1725 22.5C9.1725 21.9033 8.93545 21.331 8.51349 20.909C8.09153 20.4871 7.51924 20.25 6.9225 20.25C7.40286 16.8856 8.96161 13.7678 11.3647 11.3647C13.7678 8.96161 16.8856 7.40286 20.25 6.9225C20.25 7.51924 20.4871 8.09153 20.909 8.51349C21.331 8.93545 21.9033 9.1725 22.5 9.1725C23.0967 9.1725 23.669 8.93545 24.091 8.51349C24.5129 8.09153 24.75 7.51924 24.75 6.9225C28.1144 7.40286 31.2322 8.96161 33.6353 11.3647C36.0384 13.7678 37.5971 16.8856 38.0775 20.25C37.4808 20.25 36.9085 20.4871 36.4865 20.909C36.0646 21.331 35.8275 21.9033 35.8275 22.5C35.8275 23.0967 36.0646 23.669 36.4865 24.091C36.9085 24.5129 37.4808 24.75 38.0775 24.75H38.0925ZM21.75 2.25C21.75 2.05109 21.829 1.86032 21.9697 1.71967C22.1103 1.57902 22.3011 1.5 22.5 1.5C22.6989 1.5 22.8897 1.57902 23.0303 1.71967C23.171 1.86032 23.25 2.05109 23.25 2.25V6.75C23.25 6.94891 23.171 7.13968 23.0303 7.28033C22.8897 7.42098 22.6989 7.5 22.5 7.5C22.3011 7.5 22.1103 7.42098 21.9697 7.28033C21.829 7.13968 21.75 6.94891 21.75 6.75V2.25ZM20.25 3.9075V5.4075C16.4854 5.89623 12.9885 7.61736 10.3048 10.3024C7.62119 12.9873 5.90182 16.4852 5.415 20.25H3.915C4.43547 16.0984 6.32367 12.2384 9.28158 9.27912C12.2395 6.31985 16.0987 4.42988 20.25 3.9075ZM1.5 22.5C1.5 22.3011 1.57902 22.1103 1.71967 21.9697C1.86032 21.829 2.05109 21.75 2.25 21.75H6.75C6.94891 21.75 7.13968 21.829 7.28033 21.9697C7.42098 22.1103 7.5 22.3011 7.5 22.5C7.5 22.6989 7.42098 22.8897 7.28033 23.0303C7.13968 23.171 6.94891 23.25 6.75 23.25H2.25C2.05109 23.25 1.86032 23.171 1.71967 23.0303C1.57902 22.8897 1.5 22.6989 1.5 22.5ZM3.9075 24.75H5.4075C5.89623 28.5146 7.61736 32.0115 10.3024 34.6952C12.9873 37.3788 16.4852 39.0982 20.25 39.585V41.085C16.0984 40.5645 12.2384 38.6763 9.27912 35.7184C6.31985 32.7605 4.42988 28.9013 3.9075 24.75ZM23.25 42.75C23.25 42.9489 23.171 43.1397 23.0303 43.2803C22.8897 43.421 22.6989 43.5 22.5 43.5C22.3011 43.5 22.1103 43.421 21.9697 43.2803C21.829 43.1397 21.75 42.9489 21.75 42.75V38.25C21.75 38.0511 21.829 37.8603 21.9697 37.7197C22.1103 37.579 22.3011 37.5 22.5 37.5C22.6989 37.5 22.8897 37.579 23.0303 37.7197C23.171 37.8603 23.25 38.0511 23.25 38.25V42.75ZM24.75 41.0925V39.5925C28.5146 39.1038 32.0115 37.3826 34.6952 34.6976C37.3788 32.0127 39.0982 28.5148 39.585 24.75H41.085C40.5645 28.9016 38.6763 32.7616 35.7184 35.7209C32.7605 38.6801 28.9013 40.5701 24.75 41.0925ZM42.75 23.25H38.25C38.0511 23.25 37.8603 23.171 37.7197 23.0303C37.579 22.8897 37.5 22.6989 37.5 22.5C37.5 22.3011 37.579 22.1103 37.7197 21.9697C37.8603 21.829 38.0511 21.75 38.25 21.75H42.75C42.9489 21.75 43.1397 21.829 43.2803 21.9697C43.421 22.1103 43.5 22.3011 43.5 22.5C43.5 22.6989 43.421 22.8897 43.2803 23.0303C43.1397 23.171 42.9489 23.25 42.75 23.25Z" fill="url(#paint0_linear_1438_20465)"/>
<path d="M22.5 18C23.0933 18 23.6734 17.8241 24.1667 17.4944C24.6601 17.1648 25.0446 16.6962 25.2716 16.1481C25.4987 15.5999 25.5581 14.9967 25.4424 14.4147C25.3266 13.8328 25.0409 13.2982 24.6213 12.8787C24.2018 12.4591 23.6672 12.1734 23.0853 12.0576C22.5033 11.9419 21.9001 12.0013 21.352 12.2284C20.8038 12.4554 20.3352 12.8399 20.0056 13.3333C19.6759 13.8266 19.5 14.4067 19.5 15C19.5 15.7957 19.8161 16.5587 20.3787 17.1213C20.9413 17.6839 21.7044 18 22.5 18ZM22.5 13.5C22.7967 13.5 23.0867 13.588 23.3334 13.7528C23.58 13.9176 23.7723 14.1519 23.8858 14.426C23.9994 14.7001 24.0291 15.0017 23.9712 15.2926C23.9133 15.5836 23.7704 15.8509 23.5607 16.0607C23.3509 16.2704 23.0836 16.4133 22.7926 16.4712C22.5017 16.5291 22.2001 16.4994 21.926 16.3858C21.6519 16.2723 21.4176 16.08 21.2528 15.8334C21.088 15.5867 21 15.2967 21 15C21 14.6022 21.158 14.2206 21.4393 13.9393C21.7206 13.658 22.1022 13.5 22.5 13.5Z" fill="url(#paint1_linear_1438_20465)"/>
<path d="M30 19.5C30.445 19.5 30.88 19.368 31.25 19.1208C31.62 18.8736 31.9084 18.5222 32.0787 18.111C32.249 17.6999 32.2936 17.2475 32.2068 16.811C32.12 16.3746 31.9057 15.9737 31.591 15.659C31.2763 15.3443 30.8754 15.1301 30.439 15.0432C30.0025 14.9564 29.5501 15.001 29.139 15.1713C28.7278 15.3416 28.3764 15.63 28.1292 16C27.882 16.37 27.75 16.805 27.75 17.25C27.75 17.8467 27.9871 18.419 28.409 18.841C28.831 19.2629 29.4033 19.5 30 19.5ZM30 16.5C30.1483 16.5 30.2933 16.544 30.4167 16.6264C30.54 16.7088 30.6361 16.8259 30.6929 16.963C30.7497 17.1 30.7645 17.2508 30.7356 17.3963C30.7067 17.5418 30.6352 17.6754 30.5303 17.7803C30.4254 17.8852 30.2918 17.9567 30.1463 17.9856C30.0008 18.0145 29.85 17.9997 29.713 17.9429C29.5759 17.8861 29.4588 17.79 29.3764 17.6667C29.294 17.5433 29.25 17.3983 29.25 17.25C29.25 17.0511 29.329 16.8603 29.4697 16.7197C29.6103 16.579 29.8011 16.5 30 16.5Z" fill="url(#paint2_linear_1438_20465)"/>
<path d="M30 20.2499C29.4178 20.2499 28.8436 20.3855 28.3229 20.6458C27.8022 20.9062 27.3493 21.2842 27 21.7499C26.6097 20.8831 25.9775 20.1475 25.1792 19.6314C24.3809 19.1154 23.4506 18.8408 22.5 18.8408C21.5494 18.8408 20.619 19.1154 19.8208 19.6314C19.0225 20.1475 18.3902 20.8831 18 21.7499C17.5498 21.1396 16.9252 20.6802 16.2086 20.4321C15.492 20.1841 14.717 20.1592 13.9859 20.3606C13.2548 20.5621 12.6019 20.9805 12.1135 21.5606C11.6251 22.1406 11.324 22.8552 11.25 23.6099L10.5 29.9474C10.4872 30.0521 10.4966 30.1583 10.5276 30.2591C10.5586 30.3599 10.6105 30.4531 10.68 30.5324C10.7544 30.6066 10.8437 30.6643 10.9419 30.7018C11.0401 30.7392 11.145 30.7556 11.25 30.7499H16.6725L16.5 32.1599C16.4872 32.2646 16.4966 32.3708 16.5276 32.4716C16.5586 32.5724 16.6105 32.6656 16.68 32.7449C16.7511 32.8259 16.8388 32.8906 16.9372 32.9346C17.0355 32.9786 17.1422 33.0009 17.25 32.9999H27.75C27.8565 32.9998 27.9617 32.977 28.0587 32.933C28.1557 32.889 28.2422 32.8249 28.3125 32.7449C28.3819 32.6656 28.4338 32.5724 28.4649 32.4716C28.4959 32.3708 28.5053 32.2646 28.4925 32.1599L28.3275 30.7499H33.75C33.8565 30.7498 33.9617 30.727 34.0587 30.683C34.1557 30.639 34.2422 30.5749 34.3125 30.4949C34.3819 30.4156 34.4338 30.3224 34.4649 30.2216C34.4959 30.1208 34.5053 30.0146 34.4925 29.9099L33.7425 23.5724C33.6372 22.655 33.1971 21.8086 32.5065 21.1956C31.8159 20.5825 30.9234 20.2458 30 20.2499ZM12.0975 29.2499L12.75 23.7524C12.75 23.1557 12.987 22.5834 13.409 22.1614C13.8309 21.7395 14.4032 21.5024 15 21.5024C15.5967 21.5024 16.169 21.7395 16.591 22.1614C17.0129 22.5834 17.25 23.1557 17.25 23.7524L17.385 24.8549L16.8525 29.2499H12.0975ZM18.0975 31.4999L19.08 23.3099C19.1764 22.4705 19.5782 21.6958 20.2089 21.1335C20.8396 20.5711 21.655 20.2604 22.5 20.2604C23.3449 20.2604 24.1604 20.5711 24.7911 21.1335C25.4217 21.6958 25.8235 22.4705 25.92 23.3099L26.9025 31.4999H18.0975ZM28.1475 29.2499L27.615 24.8474L27.75 23.7449C27.75 23.1482 27.987 22.5759 28.409 22.1539C28.8309 21.732 29.4032 21.4949 30 21.4949C30.5967 21.4949 31.169 21.732 31.591 22.1539C32.0129 22.5759 32.25 23.1482 32.25 23.7449L32.9025 29.2499H28.1475Z" fill="url(#paint3_linear_1438_20465)"/>
<path d="M15 19.5C15.445 19.5 15.88 19.368 16.25 19.1208C16.62 18.8736 16.9084 18.5222 17.0787 18.111C17.249 17.6999 17.2936 17.2475 17.2068 16.811C17.12 16.3746 16.9057 15.9737 16.591 15.659C16.2763 15.3443 15.8754 15.1301 15.439 15.0432C15.0025 14.9564 14.5501 15.001 14.139 15.1713C13.7278 15.3416 13.3764 15.63 13.1292 16C12.882 16.37 12.75 16.805 12.75 17.25C12.75 17.8467 12.9871 18.419 13.409 18.841C13.831 19.2629 14.4033 19.5 15 19.5ZM15 16.5C15.1483 16.5 15.2933 16.544 15.4167 16.6264C15.54 16.7088 15.6361 16.8259 15.6929 16.963C15.7497 17.1 15.7645 17.2508 15.7356 17.3963C15.7067 17.5418 15.6352 17.6754 15.5303 17.7803C15.4254 17.8852 15.2918 17.9567 15.1463 17.9856C15.0008 18.0145 14.85 17.9997 14.713 17.9429C14.5759 17.8861 14.4588 17.79 14.3764 17.6667C14.294 17.5433 14.25 17.3983 14.25 17.25C14.25 17.0511 14.329 16.8603 14.4697 16.7197C14.6103 16.579 14.8011 16.5 15 16.5Z" fill="url(#paint4_linear_1438_20465)"/>
<defs>
<linearGradient id="paint0_linear_1438_20465" x1="22.5" y1="0" x2="22.5" y2="45" gradientUnits="userSpaceOnUse">
<stop stop-color="#5F3E8E"/>
<stop offset="1" stop-color="#3A73AC"/>
</linearGradient>
<linearGradient id="paint1_linear_1438_20465" x1="22.5" y1="12" x2="22.5" y2="18" gradientUnits="userSpaceOnUse">
<stop stop-color="#5F3E8E"/>
<stop offset="1" stop-color="#3A73AC"/>
</linearGradient>
<linearGradient id="paint2_linear_1438_20465" x1="30" y1="15" x2="30" y2="19.5" gradientUnits="userSpaceOnUse">
<stop stop-color="#5F3E8E"/>
<stop offset="1" stop-color="#3A73AC"/>
</linearGradient>
<linearGradient id="paint3_linear_1438_20465" x1="22.4962" y1="18.8408" x2="22.4962" y2="33" gradientUnits="userSpaceOnUse">
<stop stop-color="#5F3E8E"/>
<stop offset="1" stop-color="#3A73AC"/>
</linearGradient>
<linearGradient id="paint4_linear_1438_20465" x1="15" y1="15" x2="15" y2="19.5" gradientUnits="userSpaceOnUse">
<stop stop-color="#5F3E8E"/>
<stop offset="1" stop-color="#3A73AC"/>
</linearGradient>
</defs>
</svg>
