<svg width="40" height="40" viewBox="0 0 40 40" fill="none" xmlns="http://www.w3.org/2000/svg">
<path d="M3.29919 13.878L4.67166 13.6684L4.67178 13.6684C4.90538 13.6324 5.10632 13.4829 5.20683 13.2684L5.78867 12.0292L6.36973 13.2684L6.36975 13.2684C6.47021 13.4825 6.67078 13.6324 6.9048 13.6684L6.90491 13.6684L8.2779 13.878L7.26115 14.9202C7.10383 15.0813 7.03251 15.3075 7.06887 15.5299L7.30111 16.9536L6.13244 16.3074C6.13239 16.3073 6.13234 16.3073 6.1323 16.3073C6.13229 16.3073 6.13229 16.3073 6.13228 16.3073C5.91883 16.1889 5.65905 16.1889 5.4456 16.3074M3.29919 13.878L4.50769 15.5296L4.27595 16.954M3.29919 13.878L4.31542 14.9202L3.29919 13.878ZM5.4456 16.3074L5.44576 16.3073L5.49414 16.3948L5.4456 16.3074ZM5.4456 16.3074L4.27595 16.954M4.27595 16.954L4.25552 17.0795L4.16462 17.0155L4.27595 16.954ZM3.05011 15.6546L2.64107 18.1673L3.68436 18.902L5.78902 17.7385L7.89335 18.902C8.1308 19.0333 8.4227 19.0173 8.64516 18.8612L8.64536 18.8611C8.86733 18.7045 8.98067 18.4351 8.93664 18.1668L8.52675 15.6546L10.2577 13.8805C10.2577 13.8804 10.2577 13.8804 10.2577 13.8804C10.4434 13.6902 10.5071 13.4121 10.4226 13.1599C10.3381 12.9079 10.12 12.7239 9.85702 12.6837L9.857 12.6837L7.4934 12.3228L6.43121 10.0581C6.31446 9.80897 6.06434 9.65 5.78903 9.65C5.51397 9.65 5.26388 9.809 5.14689 10.058L5.14688 10.058L4.08349 12.3228L1.72103 12.6837L1.72102 12.6837C1.4581 12.7239 1.23995 12.9078 1.15545 13.1596L1.15544 13.1596C1.07089 13.4118 1.13466 13.69 1.32028 13.8804L1.32029 13.8804L3.05011 15.6546ZM4.50771 15.5295C4.54403 15.3075 4.47269 15.0813 4.31547 14.9203L4.50771 15.5295Z" fill="url(#paint0_linear_1438_20476)" stroke="url(#paint1_linear_1438_20476)" stroke-width="0.2"/>
<path d="M1.07359 5.37337C1.26434 5.50728 1.51545 5.52095 1.71929 5.4082L2.74225 4.84257L3.7652 5.4082C3.85716 5.45908 3.95892 5.48437 4.06008 5.48437C4.18327 5.48437 4.30616 5.4469 4.41117 5.37309C4.60192 5.2386 4.69923 5.00711 4.66141 4.77679L4.45909 3.53755L5.31125 2.66393C5.47075 2.50056 5.5255 2.26135 5.4529 2.04504C5.3803 1.82842 5.19286 1.67041 4.96702 1.63589L3.81459 1.46006L3.29388 0.350509C3.19361 0.136555 2.9785 0 2.74225 0C2.506 0 2.29115 0.136555 2.19062 0.350212L1.6696 1.46006L0.51748 1.63589C0.291643 1.67041 0.104207 1.82812 0.0316058 2.04472C-0.041014 2.26135 0.0137345 2.50028 0.17294 2.66363L1.02452 3.53755L0.823079 4.7771C0.785569 5.00741 0.882886 5.23888 1.07359 5.37337ZM2.17483 2.61601C2.37568 2.58508 2.54795 2.45654 2.63454 2.27266L2.74195 2.04353L2.84937 2.27236C2.93566 2.45623 3.10823 2.58508 3.3091 2.61601L3.61079 2.66183L3.37186 2.90671C3.23676 3.04507 3.17548 3.23968 3.20672 3.43041L3.25641 3.73421L3.03712 3.6131C2.85383 3.51134 2.63067 3.51134 2.44737 3.6131L2.2272 3.7348L2.27659 3.43011C2.30783 3.23937 2.24652 3.04537 2.11175 2.90701L1.87312 2.66183L2.17483 2.61601Z" fill="url(#paint2_linear_1438_20476)"/>
<path d="M1.07359 5.37337C1.26434 5.50728 1.51545 5.52095 1.71929 5.4082L2.74225 4.84257L3.7652 5.4082C3.85716 5.45908 3.95892 5.48437 4.06008 5.48437C4.18327 5.48437 4.30616 5.4469 4.41117 5.37309C4.60192 5.2386 4.69923 5.00711 4.66141 4.77679L4.45909 3.53755L5.31125 2.66393C5.47075 2.50056 5.5255 2.26135 5.4529 2.04504C5.3803 1.82842 5.19286 1.67041 4.96702 1.63589L3.81459 1.46006L3.29388 0.350509C3.19361 0.136555 2.9785 0 2.74225 0C2.506 0 2.29115 0.136555 2.19062 0.350212L1.6696 1.46006L0.51748 1.63589C0.291643 1.67041 0.104207 1.82812 0.0316058 2.04472C-0.041014 2.26135 0.0137345 2.50028 0.17294 2.66363L1.02452 3.53755L0.823079 4.7771C0.785569 5.00741 0.882886 5.23888 1.07359 5.37337ZM2.17483 2.61601C2.37568 2.58508 2.54795 2.45654 2.63454 2.27266L2.74195 2.04353L2.84937 2.27236C2.93566 2.45623 3.10823 2.58508 3.3091 2.61601L3.61079 2.66183L3.37186 2.90671C3.23676 3.04507 3.17548 3.23968 3.20672 3.43041L3.25641 3.73421L3.03712 3.6131C2.85383 3.51134 2.63067 3.51134 2.44737 3.6131L2.2272 3.7348L2.27659 3.43011C2.30783 3.23937 2.24652 3.04537 2.11175 2.90701L1.87312 2.66183L2.17483 2.61601Z" stroke="url(#paint3_linear_1438_20476)"/>
<path d="M15.3263 3.69701L13.9632 3.48903L13.3485 2.17863C13.2482 1.96468 13.0331 1.82812 12.7968 1.82812C12.5606 1.82812 12.3455 1.96468 12.2452 2.17863L11.6302 3.48903L10.2674 3.69701C10.0416 3.73153 9.85412 3.88951 9.78151 4.10584C9.70889 4.32244 9.76364 4.56138 9.92285 4.72504L10.9268 5.75453L10.6893 7.2146C10.6519 7.44491 10.7491 7.67638 10.9399 7.81059C11.1306 7.94478 11.3808 7.95845 11.5855 7.8457L12.7968 7.1762L14.0082 7.8457C14.1004 7.89658 14.2018 7.92187 14.303 7.92187C14.4262 7.92187 14.5494 7.8844 14.6541 7.81059C14.8449 7.6761 14.9422 7.44461 14.9044 7.21429L14.666 5.75453L15.6705 4.72504C15.83 4.56168 15.8848 4.32275 15.8122 4.10614C15.7396 3.88951 15.5521 3.73153 15.3263 3.69701ZM13.5788 5.12375C13.4437 5.26211 13.3824 5.4564 13.4137 5.64743L13.4994 6.17198L13.0917 5.94676C12.9078 5.845 12.6858 5.845 12.502 5.94676L12.0934 6.1726L12.1788 5.64713C12.2101 5.4564 12.1488 5.26211 12.014 5.12375L11.623 4.72295L12.1354 4.64498C12.3362 4.61405 12.5088 4.48551 12.5951 4.30133L12.7966 3.87197L12.998 4.30133C13.0843 4.48521 13.2569 4.61405 13.4577 4.64498L13.9698 4.72295L13.5788 5.12375Z" fill="url(#paint4_linear_1438_20476)"/>
<path d="M15.3263 3.69701L13.9632 3.48903L13.3485 2.17863C13.2482 1.96468 13.0331 1.82812 12.7968 1.82812C12.5606 1.82812 12.3455 1.96468 12.2452 2.17863L11.6302 3.48903L10.2674 3.69701C10.0416 3.73153 9.85412 3.88951 9.78151 4.10584C9.70889 4.32244 9.76364 4.56138 9.92285 4.72504L10.9268 5.75453L10.6893 7.2146C10.6519 7.44491 10.7491 7.67638 10.9399 7.81059C11.1306 7.94478 11.3808 7.95845 11.5855 7.8457L12.7968 7.1762L14.0082 7.8457C14.1004 7.89658 14.2018 7.92187 14.303 7.92187C14.4262 7.92187 14.5494 7.8844 14.6541 7.81059C14.8449 7.6761 14.9422 7.44461 14.9044 7.21429L14.666 5.75453L15.6705 4.72504C15.83 4.56168 15.8848 4.32275 15.8122 4.10614C15.7396 3.88951 15.5521 3.73153 15.3263 3.69701ZM13.5788 5.12375C13.4437 5.26211 13.3824 5.4564 13.4137 5.64743L13.4994 6.17198L13.0917 5.94676C12.9078 5.845 12.6858 5.845 12.502 5.94676L12.0934 6.1726L12.1788 5.64713C12.2101 5.4564 12.1488 5.26211 12.014 5.12375L11.623 4.72295L12.1354 4.64498C12.3362 4.61405 12.5088 4.48551 12.5951 4.30133L12.7966 3.87197L12.998 4.30133C13.0843 4.48521 13.2569 4.61405 13.4577 4.64498L13.9698 4.72295L13.5788 5.12375Z" stroke="url(#paint5_linear_1438_20476)"/>
<path d="M38.4825 1.63589L37.3304 1.46006L36.8094 0.350212C36.7089 0.136555 36.494 0 36.2578 0C36.0215 0 35.8064 0.136555 35.7061 0.350509L35.1854 1.46006L34.033 1.63589C33.8072 1.67041 33.6197 1.82842 33.5471 2.04504C33.4745 2.26135 33.5293 2.50056 33.6888 2.66393L34.5409 3.53755L34.3386 4.77679C34.3008 5.00711 34.3981 5.2386 34.5888 5.37309C34.6939 5.4469 34.8168 5.48437 34.9399 5.48437C35.0411 5.48437 35.1429 5.45908 35.2348 5.4082L36.2578 4.84257L37.2807 5.4082C37.4846 5.52095 37.7357 5.50728 37.9264 5.37337C38.1171 5.23888 38.2144 5.00741 38.1769 4.7771L37.9755 3.53755L38.8271 2.66363C38.9863 2.50028 39.041 2.26135 38.9684 2.04472C38.8958 1.82812 38.7084 1.67041 38.4825 1.63589ZM36.8883 2.90701C36.7535 3.04537 36.6922 3.23937 36.7234 3.43011L36.7728 3.7348L36.5526 3.6131C36.461 3.56222 36.3592 3.53693 36.2578 3.53693C36.1563 3.53693 36.0546 3.56222 35.9629 3.6131L35.7436 3.73421L35.7933 3.43041C35.8245 3.23968 35.7633 3.04507 35.6282 2.90671L35.3892 2.66183L35.6909 2.61601C35.8918 2.58508 36.0644 2.45623 36.1506 2.27236L36.2581 2.04353L36.3655 2.27266C36.4521 2.45654 36.6243 2.58508 36.8252 2.61601L37.1269 2.66183L36.8883 2.90701Z" fill="url(#paint6_linear_1438_20476)"/>
<path d="M38.4825 1.63589L37.3304 1.46006L36.8094 0.350212C36.7089 0.136555 36.494 0 36.2578 0C36.0215 0 35.8064 0.136555 35.7061 0.350509L35.1854 1.46006L34.033 1.63589C33.8072 1.67041 33.6197 1.82842 33.5471 2.04504C33.4745 2.26135 33.5293 2.50056 33.6888 2.66393L34.5409 3.53755L34.3386 4.77679C34.3008 5.00711 34.3981 5.2386 34.5888 5.37309C34.6939 5.4469 34.8168 5.48437 34.9399 5.48437C35.0411 5.48437 35.1429 5.45908 35.2348 5.4082L36.2578 4.84257L37.2807 5.4082C37.4846 5.52095 37.7357 5.50728 37.9264 5.37337C38.1171 5.23888 38.2144 5.00741 38.1769 4.7771L37.9755 3.53755L38.8271 2.66363C38.9863 2.50028 39.041 2.26135 38.9684 2.04472C38.8958 1.82812 38.7084 1.67041 38.4825 1.63589ZM36.8883 2.90701C36.7535 3.04537 36.6922 3.23937 36.7234 3.43011L36.7728 3.7348L36.5526 3.6131C36.461 3.56222 36.3592 3.53693 36.2578 3.53693C36.1563 3.53693 36.0546 3.56222 35.9629 3.6131L35.7436 3.73421L35.7933 3.43041C35.8245 3.23968 35.7633 3.04507 35.6282 2.90671L35.3892 2.66183L35.6909 2.61601C35.8918 2.58508 36.0644 2.45623 36.1506 2.27236L36.2581 2.04353L36.3655 2.27266C36.4521 2.45654 36.6243 2.58508 36.8252 2.61601L37.1269 2.66183L36.8883 2.90701Z" stroke="url(#paint7_linear_1438_20476)"/>
<path d="M29.2184 3.11977C29.1458 2.90346 28.9584 2.74544 28.7325 2.71094L27.1594 2.47082L26.45 0.959884C26.3495 0.74593 26.1347 0.609375 25.8984 0.609375C25.6618 0.609375 25.447 0.74593 25.3468 0.959884L24.638 2.47082L23.0643 2.71094C22.8384 2.74544 22.651 2.90346 22.5784 3.12005C22.5058 3.33668 22.5605 3.57563 22.72 3.73897L23.8769 4.92469L23.6025 6.60491C23.5647 6.83523 23.6621 7.06672 23.8528 7.20122C23.9578 7.27503 24.0807 7.3125 24.2039 7.3125C24.305 7.3125 24.4065 7.28721 24.4988 7.23633L25.8984 6.46269L27.2981 7.23633C27.5028 7.34908 27.753 7.33571 27.9437 7.20122C28.1345 7.067 28.2318 6.83553 28.1943 6.60523L27.9208 4.92469L29.0771 3.73897C29.2363 3.57532 29.291 3.33639 29.2184 3.11977ZM26.8336 4.29389C26.6988 4.43225 26.6375 4.62655 26.6687 4.81726L26.7899 5.56293L26.1933 5.23324C26.1013 5.18236 25.9999 5.15707 25.8984 5.15707C25.7969 5.15707 25.6955 5.18236 25.6035 5.23324L25.0075 5.56261L25.1292 4.81755C25.1605 4.62655 25.0992 4.43225 24.9641 4.29389L24.4208 3.73687L25.1435 3.62677C25.3444 3.59585 25.5169 3.46701 25.6033 3.28313L25.8987 2.65322L26.1945 3.28313C26.2807 3.46731 26.4533 3.59585 26.6542 3.62677L27.3766 3.73687L26.8336 4.29389Z" fill="url(#paint8_linear_1438_20476)"/>
<path d="M29.2184 3.11977C29.1458 2.90346 28.9584 2.74544 28.7325 2.71094L27.1594 2.47082L26.45 0.959884C26.3495 0.74593 26.1347 0.609375 25.8984 0.609375C25.6618 0.609375 25.447 0.74593 25.3468 0.959884L24.638 2.47082L23.0643 2.71094C22.8384 2.74544 22.651 2.90346 22.5784 3.12005C22.5058 3.33668 22.5605 3.57563 22.72 3.73897L23.8769 4.92469L23.6025 6.60491C23.5647 6.83523 23.6621 7.06672 23.8528 7.20122C23.9578 7.27503 24.0807 7.3125 24.2039 7.3125C24.305 7.3125 24.4065 7.28721 24.4988 7.23633L25.8984 6.46269L27.2981 7.23633C27.5028 7.34908 27.753 7.33571 27.9437 7.20122C28.1345 7.067 28.2318 6.83553 28.1943 6.60523L27.9208 4.92469L29.0771 3.73897C29.2363 3.57532 29.291 3.33639 29.2184 3.11977ZM26.8336 4.29389C26.6988 4.43225 26.6375 4.62655 26.6687 4.81726L26.7899 5.56293L26.1933 5.23324C26.1013 5.18236 25.9999 5.15707 25.8984 5.15707C25.7969 5.15707 25.6955 5.18236 25.6035 5.23324L25.0075 5.56261L25.1292 4.81755C25.1605 4.62655 25.0992 4.43225 24.9641 4.29389L24.4208 3.73687L25.1435 3.62677C25.3444 3.59585 25.5169 3.46701 25.6033 3.28313L25.8987 2.65322L26.1945 3.28313C26.2807 3.46731 26.4533 3.59585 26.6542 3.62677L27.3766 3.73687L26.8336 4.29389Z" stroke="url(#paint9_linear_1438_20476)"/>
<path d="M38.4976 11.4819L38.4976 11.4819C38.7606 11.5221 38.9788 11.7061 39.0632 11.9581C39.1478 12.2103 39.084 12.4885 38.8983 12.6787C38.8983 12.6787 38.8983 12.6787 38.8983 12.6787L36.5574 15.0776L37.1116 18.4715C37.1556 18.7397 37.0423 19.0092 36.8203 19.1658L36.8202 19.1658C36.6981 19.2517 36.5551 19.2953 36.4116 19.2953C36.2938 19.2953 36.1756 19.2658 36.0684 19.2067L36.0684 19.2067L33.2109 17.6269L30.3532 19.2067L30.3531 19.2067C30.1153 19.3379 29.8236 19.3224 29.6015 19.1658C29.3795 19.0095 29.2662 18.74 29.3099 18.472M38.4976 11.4819L30.3048 19.1191C30.1004 19.2319 29.8498 19.2185 29.6591 19.084C29.4684 18.9498 29.3711 18.7183 29.4086 18.488L29.9688 15.0439M38.4976 11.4819L35.292 10.9925M38.4976 11.4819L33.8531 7.92526M29.3099 18.472L29.4084 18.488L29.3099 18.472L29.3099 18.472ZM29.3099 18.472L29.862 15.0776M29.862 15.0776L29.8972 15.1137L29.9688 15.0439M29.862 15.0776L29.8701 15.0279L29.9688 15.0439M29.862 15.0776L27.5231 12.6786L27.523 12.6786C27.3378 12.4881 27.274 12.21 27.3586 11.9578L27.3586 11.9578C27.4431 11.706 27.6612 11.5221 27.9242 11.4819L27.9242 11.4819L31.1287 10.9925M29.9688 15.0439L27.5947 12.6088L32.6593 7.9677C32.7598 7.75374 32.9747 7.61719 33.2109 7.61719C33.4472 7.61719 33.6623 7.75374 33.7625 7.9677M36.7627 19.084C36.6577 19.1578 36.5348 19.1953 36.4116 19.1953C36.3105 19.1953 36.209 19.17 36.1167 19.1191L33.2109 17.5127L36.7627 19.084ZM36.7627 19.084C36.9534 18.9495 37.0507 18.718 37.013 18.4877L36.7627 19.084ZM31.1287 10.9925L31.106 11.0408L31.1965 11.0833L31.1814 10.9845L31.1287 10.9925ZM31.1287 10.9925L32.5688 7.9252L32.5688 7.92517C32.6858 7.67618 32.9358 7.51719 33.2109 7.51719C33.4859 7.51719 33.7363 7.67612 33.8531 7.92523L33.7625 7.9677M33.7625 7.9677L33.8531 7.92526M33.7625 7.9677L35.2241 11.0833M33.8531 7.92526L38.9684 11.9899C38.8958 11.7733 38.7084 11.6153 38.4825 11.5808L35.2241 11.0833M33.8531 7.92526L35.292 10.9925M35.2241 11.0833L35.3146 11.0408L35.292 10.9925M35.2241 11.0833L35.2392 10.9844L35.292 10.9925M29.5023 12.6762L31.1277 14.3433L31.1277 14.3434C31.2846 14.5044 31.356 14.7305 31.3196 14.9526L29.5023 12.6762ZM29.5023 12.6762L31.7168 12.3381L31.717 12.3381C31.9506 12.3021 32.1515 12.1526 32.252 11.938L33.2106 9.89641L34.1684 11.9381L34.2589 11.8956L34.1684 11.9381C34.2688 12.1522 34.4694 12.3021 34.7034 12.3381L34.7035 12.3381L36.9185 12.6762L35.2918 14.3433C35.2918 14.3433 35.2918 14.3433 35.2918 14.3433C35.1345 14.5044 35.0631 14.7306 35.0995 14.953L35.476 17.258L33.5543 16.1958C33.5543 16.1958 33.5543 16.1958 33.5543 16.1958L33.5542 16.1957L29.5023 12.6762ZM30.9444 17.2587L31.3196 14.9527L30.9444 17.2587ZM30.9444 17.2587L32.8675 16.1958L30.9444 17.2587Z" fill="url(#paint10_linear_1438_20476)" stroke="url(#paint11_linear_1438_20476)" stroke-width="0.2"/>
<path d="M17.5318 23.1188L17.4247 23.0921L17.4087 23.2013L16.3829 30.1973C16.3268 30.4622 16.3563 30.8227 16.4644 31.1617C16.5723 31.5003 16.764 31.8346 17.0484 32.0348L18.5041 33.3054L18.5039 33.3057L18.5111 33.3109L18.5962 33.3728L18.596 33.3731L18.6031 33.3774C18.8685 33.5385 19.1905 33.6172 19.5098 33.6172C19.8289 33.6172 20.1508 33.5385 20.4165 33.3778L20.4237 33.3734L20.4301 33.3679L21.9734 32.0335C22.2435 31.8405 22.4358 31.5114 22.5431 31.1706C22.6506 30.8295 22.6788 30.4587 22.6029 30.1714L21.348 23.2539L21.3295 23.152L21.2283 23.1741C20.8401 23.2587 20.4416 23.3148 20.035 23.3416L19.9231 23.3489L19.9431 23.4592L21.2134 30.4599L21.2132 30.4599L21.2148 30.4665L21.2285 30.5208C21.2321 30.5554 21.223 30.6288 21.1999 30.7139C21.1776 30.7957 21.1494 30.8629 21.1287 30.8938L19.65 32.1779C19.6144 32.1895 19.5645 32.1969 19.51 32.197C19.4556 32.1971 19.4059 32.1898 19.3704 32.1782L17.9462 30.9353L17.9464 30.9351L17.9413 30.9312L17.8859 30.8889C17.8631 30.8559 17.8318 30.7848 17.8058 30.6994C17.7925 30.6554 17.7818 30.6119 17.7752 30.5747C17.7684 30.537 17.7671 30.5124 17.7679 30.5009L18.8069 23.4366L18.8222 23.3325L18.7175 23.3225C18.3128 23.2837 17.9169 23.2149 17.5318 23.1188Z" fill="url(#paint12_linear_1438_20476)" stroke="url(#paint13_linear_1438_20476)" stroke-width="0.2"/>
<path d="M25.3048 20.9915L25.2474 20.9734L25.2045 21.0157C24.8565 21.3591 24.4778 21.6716 24.073 21.9485L23.8896 22.074L24.1052 22.128C26.1445 22.639 28.0669 23.6318 29.6326 25.0212L29.699 24.9464L29.6326 25.0212C32.074 27.1875 33.4156 30.0744 33.4156 33.1509V36.4909C33.4156 37.1491 32.8901 37.6817 32.248 37.6817H6.75162C6.10993 37.6817 5.58437 37.1491 5.58437 36.4909V33.1509C5.58437 30.0747 6.9263 27.1875 9.36794 25.0212C10.9336 23.632 12.8558 22.6394 14.8951 22.128L15.1109 22.0739L14.9271 21.9485C14.5221 21.6719 14.1438 21.3594 13.7958 21.016L13.7529 20.9737L13.6954 20.9919C8.39755 22.6637 4.16562 27.2939 4.16562 33.1509V36.4909C4.16562 37.93 5.32228 39.1004 6.75162 39.1004H32.248C33.6767 39.1004 34.8344 37.93 34.8344 36.4909V33.1509C34.8344 27.2936 30.603 22.6634 25.3048 20.9915Z" fill="url(#paint14_linear_1438_20476)" stroke="url(#paint15_linear_1438_20476)" stroke-width="0.2"/>
<path d="M26.6078 15.2347C26.6078 11.3092 23.4251 8.12656 19.5 8.12656C15.5743 8.12656 12.3922 11.3092 12.3922 15.2347C12.3922 19.1595 15.5743 22.3422 19.5 22.3422C23.4251 22.3422 26.6078 19.1595 26.6078 15.2347ZM19.5 20.9234C16.3631 20.9234 13.8109 18.3715 13.8109 15.2347C13.8109 12.0975 16.3631 9.54531 19.5 9.54531C22.6368 9.54531 25.1891 12.0975 25.1891 15.2347C25.1891 18.3715 22.6369 20.9234 19.5 20.9234Z" fill="url(#paint16_linear_1438_20476)" stroke="url(#paint17_linear_1438_20476)" stroke-width="0.2"/>
<defs>
<linearGradient id="paint0_linear_1438_20476" x1="5.78902" y1="9.75" x2="5.78902" y2="18.8906" gradientUnits="userSpaceOnUse">
<stop stop-color="#574A95"/>
<stop offset="1" stop-color="#3A73AC"/>
</linearGradient>
<linearGradient id="paint1_linear_1438_20476" x1="5.78902" y1="9.75" x2="5.78902" y2="18.8906" gradientUnits="userSpaceOnUse">
<stop stop-color="#5F3E8E"/>
<stop offset="1" stop-color="#3A73AC"/>
</linearGradient>
<linearGradient id="paint2_linear_1438_20476" x1="2.74224" y1="0" x2="2.74224" y2="5.48437" gradientUnits="userSpaceOnUse">
<stop stop-color="#574A95"/>
<stop offset="1" stop-color="#3A73AC"/>
</linearGradient>
<linearGradient id="paint3_linear_1438_20476" x1="2.74224" y1="0" x2="2.74224" y2="5.48437" gradientUnits="userSpaceOnUse">
<stop stop-color="#5F3E8E"/>
<stop offset="1" stop-color="#3A73AC"/>
</linearGradient>
<linearGradient id="paint4_linear_1438_20476" x1="12.7968" y1="1.82812" x2="12.7968" y2="7.92187" gradientUnits="userSpaceOnUse">
<stop stop-color="#574A95"/>
<stop offset="1" stop-color="#3A73AC"/>
</linearGradient>
<linearGradient id="paint5_linear_1438_20476" x1="12.7968" y1="1.82812" x2="12.7968" y2="7.92187" gradientUnits="userSpaceOnUse">
<stop stop-color="#5F3E8E"/>
<stop offset="1" stop-color="#3A73AC"/>
</linearGradient>
<linearGradient id="paint6_linear_1438_20476" x1="36.2578" y1="0" x2="36.2578" y2="5.48437" gradientUnits="userSpaceOnUse">
<stop stop-color="#574A95"/>
<stop offset="1" stop-color="#3A73AC"/>
</linearGradient>
<linearGradient id="paint7_linear_1438_20476" x1="36.2578" y1="0" x2="36.2578" y2="5.48437" gradientUnits="userSpaceOnUse">
<stop stop-color="#5F3E8E"/>
<stop offset="1" stop-color="#3A73AC"/>
</linearGradient>
<linearGradient id="paint8_linear_1438_20476" x1="25.8984" y1="0.609375" x2="25.8984" y2="7.3125" gradientUnits="userSpaceOnUse">
<stop stop-color="#574A95"/>
<stop offset="1" stop-color="#3A73AC"/>
</linearGradient>
<linearGradient id="paint9_linear_1438_20476" x1="25.8984" y1="0.609375" x2="25.8984" y2="7.3125" gradientUnits="userSpaceOnUse">
<stop stop-color="#5F3E8E"/>
<stop offset="1" stop-color="#3A73AC"/>
</linearGradient>
<linearGradient id="paint10_linear_1438_20476" x1="33.2109" y1="7.61719" x2="33.2109" y2="19.1953" gradientUnits="userSpaceOnUse">
<stop stop-color="#574A95"/>
<stop offset="1" stop-color="#3A73AC"/>
</linearGradient>
<linearGradient id="paint11_linear_1438_20476" x1="33.2109" y1="7.61719" x2="33.2109" y2="19.1953" gradientUnits="userSpaceOnUse">
<stop stop-color="#5F3E8E"/>
<stop offset="1" stop-color="#3A73AC"/>
</linearGradient>
<linearGradient id="paint12_linear_1438_20476" x1="19.5004" y1="23.2158" x2="19.5004" y2="33.5172" gradientUnits="userSpaceOnUse">
<stop stop-color="#574A95"/>
<stop offset="1" stop-color="#3A73AC"/>
</linearGradient>
<linearGradient id="paint13_linear_1438_20476" x1="19.5004" y1="23.2158" x2="19.5004" y2="33.5172" gradientUnits="userSpaceOnUse">
<stop stop-color="#5F3E8E"/>
<stop offset="1" stop-color="#3A73AC"/>
</linearGradient>
<linearGradient id="paint14_linear_1438_20476" x1="19.5" y1="21.0869" x2="19.5" y2="39.0004" gradientUnits="userSpaceOnUse">
<stop stop-color="#574A95"/>
<stop offset="1" stop-color="#3A73AC"/>
</linearGradient>
<linearGradient id="paint15_linear_1438_20476" x1="19.5" y1="21.0869" x2="19.5" y2="39.0004" gradientUnits="userSpaceOnUse">
<stop stop-color="#5F3E8E"/>
<stop offset="1" stop-color="#3A73AC"/>
</linearGradient>
<linearGradient id="paint16_linear_1438_20476" x1="19.5" y1="8.22656" x2="19.5" y2="22.2422" gradientUnits="userSpaceOnUse">
<stop stop-color="#574A95"/>
<stop offset="1" stop-color="#3A73AC"/>
</linearGradient>
<linearGradient id="paint17_linear_1438_20476" x1="19.5" y1="8.22656" x2="19.5" y2="22.2422" gradientUnits="userSpaceOnUse">
<stop stop-color="#5F3E8E"/>
<stop offset="1" stop-color="#3A73AC"/>
</linearGradient>
</defs>
</svg>
