<svg width="45" height="43" viewBox="0 0 45 43" fill="none" xmlns="http://www.w3.org/2000/svg">
<mask id="path-1-outside-1_1438_20473" maskUnits="userSpaceOnUse" x="0" y="0" width="45" height="43" fill="black">
<rect fill="white" width="45" height="43"/>
<path d="M23.4627 12.7128C23.5184 12.538 23.6399 12.3928 23.8005 12.3092C23.961 12.2256 24.1476 12.2104 24.3191 12.2668C25.5055 12.6567 26.5397 13.4209 27.2724 14.4489C28.0051 15.477 28.3985 16.7159 28.3958 17.9867C28.391 18.1673 28.3172 18.3388 28.1902 18.4647C28.0633 18.5907 27.8931 18.6612 27.716 18.6612C27.5388 18.6612 27.3686 18.5907 27.2417 18.4647C27.1147 18.3388 27.0409 18.1673 27.0361 17.9867C27.0383 17.009 26.7358 16.0558 26.1721 15.2648C25.6085 14.4738 24.8129 13.8859 23.9001 13.586C23.7287 13.5292 23.5863 13.4053 23.5043 13.2416C23.4223 13.0779 23.4073 12.8877 23.4627 12.7128ZM44 36.7901C43.9985 38.1714 43.4597 39.4957 42.5017 40.4724C41.5437 41.4491 40.2449 41.9985 38.8901 42H6.10992C4.75469 42 3.45496 41.4511 2.49666 40.4741C1.53837 39.497 1 38.1719 1 36.7901C1 35.4084 1.53837 34.0833 2.49666 33.1062C3.45496 32.1292 4.75469 31.5803 6.10992 31.5803H7.3266C6.86158 30.3378 6.6781 29.0041 6.78988 27.6791C6.90165 26.3541 7.30579 25.072 7.97207 23.9287C8.63834 22.7854 9.54952 21.8104 10.6375 21.0768C11.7254 20.3431 12.9619 19.8697 14.2546 19.6919C14.1676 19.1041 14.1261 18.5103 14.1305 17.9159C14.1305 15.6527 15.0122 13.4823 16.5818 11.882C18.1514 10.2817 20.2803 9.38266 22.5 9.38266C24.7197 9.38266 26.8486 10.2817 28.4182 11.882C29.9878 13.4823 30.8695 15.6527 30.8695 17.9159C30.9164 19.088 30.7164 20.2568 30.2829 21.3434C30.3829 21.6914 30.4616 22.0453 30.5185 22.4031C32.353 22.9102 33.9729 24.0188 35.128 25.5578C36.2831 27.0969 36.9093 28.9807 36.91 30.9186C36.91 31.1392 36.902 31.3597 36.886 31.5803H38.888C40.2432 31.5813 41.5426 32.1304 42.501 33.1072C43.4594 34.0839 43.9985 35.4085 44 36.7901ZM15.4902 17.9159C15.4823 18.5176 15.5307 19.1188 15.6348 19.7112C15.6462 19.7505 15.6542 19.7908 15.6588 19.8315C15.8767 20.8635 16.4445 21.784 17.2623 22.4313C18.3911 23.5128 19.664 24.7314 19.7923 28.7472H25.2083C25.3386 24.7309 26.6099 23.5128 27.7382 22.4313C28.2137 22.0236 28.6184 21.5371 28.9354 20.9923C28.9452 20.9704 28.9564 20.9491 28.9681 20.9277C29.384 19.9829 29.5702 18.9497 29.5108 17.9159C29.495 16.0309 28.7495 14.2286 27.4366 12.9014C26.1237 11.5742 24.3496 10.8295 22.5008 10.8295C20.6519 10.8295 18.8779 11.5742 17.5649 12.9014C16.252 14.2286 15.506 16.0309 15.4902 17.9159ZM18.7902 33.4412C18.7905 33.6112 18.8568 33.7741 18.9748 33.8943C19.0927 34.0144 19.2525 34.0819 19.4192 34.0821H23.5848C23.5848 34.0274 23.5808 33.9727 23.5808 33.9179C23.581 33.5421 23.6213 33.1674 23.7008 32.8004H19.4192C19.2524 32.8006 19.0924 32.8683 18.9744 32.9886C18.8565 33.109 18.7902 33.2721 18.7902 33.4423V33.4412ZM21.7672 35.4684L21.8521 35.8258C21.9236 36.1259 22.103 36.6302 22.5 36.6302C22.897 36.6302 23.0764 36.1259 23.1479 35.8258L23.2328 35.4684H21.7672ZM24.9405 33.9179C24.9405 34.6731 25.1601 35.4114 25.5717 36.0393C25.9832 36.6672 26.5681 37.1566 27.2524 37.4456C27.9367 37.7346 28.6897 37.8102 29.4162 37.6629C30.1427 37.5156 30.81 37.1519 31.3337 36.6179C31.8575 36.0839 32.2142 35.4035 32.3587 34.6629C32.5032 33.9222 32.429 33.1545 32.1456 32.4567C31.8621 31.759 31.3821 31.1627 30.7662 30.7431C30.1503 30.3236 29.4263 30.0996 28.6856 30.0996C27.6925 30.1009 26.7405 30.5037 26.0384 31.2197C25.3363 31.9358 24.9414 32.9065 24.9405 33.919V33.9179ZM25.1878 30.1325H19.4192C19.2525 30.1325 19.0927 30.2 18.9748 30.3202C18.8569 30.4403 18.7907 30.6033 18.7907 30.7733C18.7907 30.9432 18.8569 31.1062 18.9748 31.2264C19.0927 31.3466 19.2525 31.4141 19.4192 31.4141H24.2118C24.4699 30.9381 24.7992 30.506 25.1878 30.1335V30.1325ZM42.6403 36.7901C42.6392 35.7764 42.2437 34.8045 41.5407 34.0877C40.8376 33.3709 39.8844 32.9677 38.8901 32.9666H36.1215C36.0227 32.9667 35.9251 32.9447 35.8354 32.9023C35.7457 32.86 35.6662 32.7982 35.6024 32.7212C35.5386 32.6443 35.492 32.5541 35.4658 32.4569C35.4397 32.3598 35.4347 32.2579 35.4511 32.1586C35.7634 30.2656 35.3465 28.3227 34.2873 26.7357C33.2281 25.1486 31.6086 24.0401 29.7668 23.6415C29.626 23.6113 29.4981 23.5363 29.4017 23.4274C29.3053 23.3184 29.2453 23.181 29.2303 23.0351C29.2257 22.9903 29.2201 22.946 29.215 22.9012C29.0356 23.0898 28.8516 23.2659 28.6687 23.4415C27.6227 24.4438 26.6329 25.3946 26.5609 29.0118C26.6164 29.0438 26.6703 29.0786 26.7223 29.116C27.6241 28.7324 28.6148 28.6207 29.577 28.7942C30.5391 28.9677 31.4322 29.419 32.1503 30.0947C32.8683 30.7703 33.381 31.6418 33.6276 32.6058C33.8742 33.5697 33.8443 34.5855 33.5414 35.5327C33.2385 36.4798 32.6754 37.3184 31.919 37.9489C31.1625 38.5794 30.2444 38.9753 29.2738 39.0896C28.3032 39.2039 27.3208 39.0318 26.4432 38.5937C25.5657 38.1556 24.8299 37.47 24.3232 36.6182C24.2013 37.0167 23.9598 37.3662 23.6327 37.6173C23.3055 37.8683 22.9094 38.0084 22.5 38.0176C21.545 38.0176 20.8091 37.321 20.5311 36.154L20.3676 35.4694H19.4192C19.0372 35.4698 18.6632 35.3578 18.342 35.1469C18.0207 34.936 17.766 34.6352 17.6082 34.2805C17.4504 33.9257 17.3963 33.5321 17.4523 33.1468C17.5083 32.7615 17.6721 32.4009 17.9241 32.108C17.7294 31.882 17.5866 31.6145 17.5061 31.3251C17.4256 31.0356 17.4094 30.7315 17.4588 30.4349C17.5081 30.1383 17.6217 29.8567 17.7913 29.6105C17.9609 29.3643 18.1822 29.1598 18.4391 29.0118C18.3671 25.3946 17.3773 24.4438 16.3313 23.4415C15.5673 22.8015 14.9714 21.978 14.597 21.0449C13.4133 21.1809 12.2802 21.6103 11.2968 22.2957C10.3134 22.9811 9.5096 23.9016 8.9556 24.9768C8.40161 26.052 8.11429 27.2491 8.11875 28.4636C8.12321 29.6781 8.41932 30.873 8.98119 31.9439C9.03689 32.0495 9.06477 32.168 9.0621 32.2879C9.05942 32.4078 9.02629 32.5249 8.96595 32.6278C8.9056 32.7307 8.82009 32.8158 8.71779 32.875C8.61549 32.9341 8.4999 32.9651 8.38231 32.9651H6.10992C5.61379 32.9592 5.12145 33.0537 4.66141 33.2432C4.20137 33.4327 3.78278 33.7134 3.4299 34.069C3.07702 34.4246 2.79685 34.848 2.60564 35.3148C2.41443 35.7816 2.31598 36.2825 2.31598 36.7883C2.31598 37.2942 2.41443 37.795 2.60564 38.2618C2.79685 38.7286 3.07702 39.1521 3.4299 39.5077C3.78278 39.8633 4.20137 40.144 4.66141 40.3335C5.12145 40.5229 5.61379 40.6175 6.10992 40.6116H38.8901C39.884 40.6105 40.8369 40.2076 41.5399 39.4912C42.2429 38.7749 42.6386 37.8035 42.6403 36.7901ZM27.6099 35.9201C27.673 35.9845 27.7479 36.0356 27.8304 36.0705C27.9128 36.1053 28.0012 36.1233 28.0905 36.1233C28.1798 36.1233 28.2682 36.1053 28.3507 36.0705C28.4331 36.0356 28.508 35.9845 28.5711 35.9201L31.5349 32.8984C31.6557 32.7671 31.7217 32.593 31.7189 32.413C31.7161 32.233 31.6446 32.0611 31.5197 31.9339C31.3947 31.8066 31.2261 31.734 31.0496 31.7313C30.873 31.7286 30.7023 31.7961 30.5737 31.9195L28.0908 34.4514L27.2221 33.5658C27.0946 33.4357 26.9217 33.3627 26.7414 33.3626C26.5611 33.3626 26.3882 33.4355 26.2607 33.5655C26.1331 33.6955 26.0615 33.8717 26.0614 34.0556C26.0614 34.2394 26.1329 34.4157 26.2604 34.5457L27.6099 35.9201ZM22.9246 7.49825C23.0139 7.49825 23.1023 7.48031 23.1848 7.44546C23.2673 7.4106 23.3423 7.35952 23.4054 7.29512C23.4685 7.23072 23.5185 7.15427 23.5527 7.07015C23.5868 6.98602 23.6043 6.89586 23.6043 6.80482V1.69291C23.6043 1.50914 23.5327 1.33289 23.4052 1.20295C23.2778 1.073 23.1049 1 22.9246 1C22.7444 1 22.5715 1.073 22.4441 1.20295C22.3166 1.33289 22.245 1.50914 22.245 1.69291V6.80482C22.245 6.89586 22.2625 6.98602 22.2966 7.07015C22.3307 7.15427 22.3808 7.23072 22.4439 7.29512C22.507 7.35952 22.582 7.4106 22.6644 7.44546C22.7469 7.48031 22.8353 7.49825 22.9246 7.49825ZM30.542 10.8649C30.6313 10.865 30.7198 10.8471 30.8023 10.8122C30.8848 10.7774 30.9598 10.7262 31.0228 10.6617L34.5681 7.04708C34.6956 6.91713 34.7672 6.74087 34.7672 6.55709C34.7672 6.37331 34.6956 6.19706 34.5681 6.06711C34.4406 5.93715 34.2678 5.86415 34.0875 5.86415C33.9073 5.86415 33.7344 5.93715 33.6069 6.06711L30.0627 9.6817C29.9678 9.77868 29.9032 9.90213 29.8771 10.0365C29.8509 10.1708 29.8644 10.3101 29.9158 10.4366C29.9672 10.5632 30.0542 10.6714 30.1658 10.7476C30.2774 10.8238 30.4087 10.8646 30.543 10.8649H30.542ZM32.655 18.415C32.655 18.5988 32.7266 18.775 32.854 18.9049C32.9815 19.0349 33.1543 19.1079 33.3346 19.1079H38.3484C38.5255 19.1029 38.6937 19.0277 38.8173 18.8983C38.9408 18.7688 39.0099 18.5953 39.0099 18.4147C39.0099 18.2341 38.9408 18.0606 38.8173 17.9312C38.6937 17.8017 38.5255 17.7265 38.3484 17.7216H33.333C33.153 17.722 32.9804 17.7952 32.8533 17.9252C32.7262 18.0553 32.6548 18.2314 32.655 18.415ZM14.1581 10.6632C14.2212 10.7276 14.2961 10.7787 14.3786 10.8136C14.461 10.8484 14.5494 10.8664 14.6387 10.8664C14.728 10.8664 14.8164 10.8485 14.8989 10.8137C14.9814 10.7789 15.0563 10.7278 15.1195 10.6635C15.1826 10.5992 15.2327 10.5228 15.2669 10.4387C15.3011 10.3546 15.3187 10.2645 15.3187 10.1734C15.3188 10.0824 15.3012 9.99228 15.2671 9.90817C15.2329 9.82407 15.1829 9.74765 15.1197 9.68327L11.5745 6.06867C11.447 5.93865 11.2741 5.86557 11.0938 5.86553C10.9135 5.86548 10.7406 5.93846 10.613 6.06841C10.4855 6.19836 10.4138 6.37464 10.4138 6.55847C10.4137 6.7423 10.4853 6.91862 10.6128 7.04864L14.1581 10.6632ZM6.83298 19.1079H11.8468C12.0239 19.1029 12.1921 19.0277 12.3157 18.8983C12.4392 18.7688 12.5083 18.5953 12.5083 18.4147C12.5083 18.2341 12.4392 18.0606 12.3157 17.9312C12.1921 17.8017 12.0239 17.7265 11.8468 17.7216H6.83298C6.74213 17.719 6.6517 17.7351 6.56703 17.7688C6.48237 17.8024 6.40519 17.8531 6.34005 17.9177C6.27491 17.9823 6.22313 18.0596 6.18778 18.145C6.15242 18.2303 6.13421 18.3221 6.13421 18.4147C6.13421 18.5074 6.15242 18.5991 6.18778 18.6845C6.22313 18.7698 6.27491 18.8471 6.34005 18.9117C6.40519 18.9763 6.48237 19.027 6.56703 19.0607C6.6517 19.0944 6.74213 19.1104 6.83298 19.1079ZM13.9588 34.6807H8.0103C7.83322 34.6856 7.66501 34.7608 7.54147 34.8903C7.41794 35.0197 7.34881 35.1932 7.34881 35.3738C7.34881 35.5545 7.41794 35.728 7.54147 35.8574C7.66501 35.9869 7.83322 36.0621 8.0103 36.067H13.9588C14.0496 36.0696 14.14 36.0535 14.2247 36.0198C14.3094 35.9861 14.3866 35.9355 14.4517 35.8708C14.5168 35.8062 14.5686 35.729 14.604 35.6436C14.6393 35.5582 14.6575 35.4665 14.6575 35.3738C14.6575 35.2812 14.6393 35.1895 14.604 35.1041C14.5686 35.0187 14.5168 34.9415 14.4517 34.8768C14.3866 34.8122 14.3094 34.7616 14.2247 34.7279C14.14 34.6942 14.0496 34.6781 13.9588 34.6807ZM13.9588 37.7998H8.0103C7.83322 37.8048 7.66501 37.88 7.54147 38.0094C7.41794 38.1389 7.34881 38.3124 7.34881 38.493C7.34881 38.6736 7.41794 38.8471 7.54147 38.9765C7.66501 39.106 7.83322 39.1812 8.0103 39.1862H13.9588C14.0496 39.1887 14.14 39.1726 14.2247 39.139C14.3094 39.1053 14.3866 39.0546 14.4517 38.99C14.5168 38.9254 14.5686 38.8481 14.604 38.7627C14.6393 38.6774 14.6575 38.5856 14.6575 38.493C14.6575 38.4003 14.6393 38.3086 14.604 38.2232C14.5686 38.1379 14.5168 38.0606 14.4517 37.996C14.3866 37.9314 14.3094 37.8807 14.2247 37.847C14.14 37.8133 14.0496 37.7973 13.9588 37.7998Z"/>
</mask>
<path d="M23.4627 12.7128C23.5184 12.538 23.6399 12.3928 23.8005 12.3092C23.961 12.2256 24.1476 12.2104 24.3191 12.2668C25.5055 12.6567 26.5397 13.4209 27.2724 14.4489C28.0051 15.477 28.3985 16.7159 28.3958 17.9867C28.391 18.1673 28.3172 18.3388 28.1902 18.4647C28.0633 18.5907 27.8931 18.6612 27.716 18.6612C27.5388 18.6612 27.3686 18.5907 27.2417 18.4647C27.1147 18.3388 27.0409 18.1673 27.0361 17.9867C27.0383 17.009 26.7358 16.0558 26.1721 15.2648C25.6085 14.4738 24.8129 13.8859 23.9001 13.586C23.7287 13.5292 23.5863 13.4053 23.5043 13.2416C23.4223 13.0779 23.4073 12.8877 23.4627 12.7128ZM44 36.7901C43.9985 38.1714 43.4597 39.4957 42.5017 40.4724C41.5437 41.4491 40.2449 41.9985 38.8901 42H6.10992C4.75469 42 3.45496 41.4511 2.49666 40.4741C1.53837 39.497 1 38.1719 1 36.7901C1 35.4084 1.53837 34.0833 2.49666 33.1062C3.45496 32.1292 4.75469 31.5803 6.10992 31.5803H7.3266C6.86158 30.3378 6.6781 29.0041 6.78988 27.6791C6.90165 26.3541 7.30579 25.072 7.97207 23.9287C8.63834 22.7854 9.54952 21.8104 10.6375 21.0768C11.7254 20.3431 12.9619 19.8697 14.2546 19.6919C14.1676 19.1041 14.1261 18.5103 14.1305 17.9159C14.1305 15.6527 15.0122 13.4823 16.5818 11.882C18.1514 10.2817 20.2803 9.38266 22.5 9.38266C24.7197 9.38266 26.8486 10.2817 28.4182 11.882C29.9878 13.4823 30.8695 15.6527 30.8695 17.9159C30.9164 19.088 30.7164 20.2568 30.2829 21.3434C30.3829 21.6914 30.4616 22.0453 30.5185 22.4031C32.353 22.9102 33.9729 24.0188 35.128 25.5578C36.2831 27.0969 36.9093 28.9807 36.91 30.9186C36.91 31.1392 36.902 31.3597 36.886 31.5803H38.888C40.2432 31.5813 41.5426 32.1304 42.501 33.1072C43.4594 34.0839 43.9985 35.4085 44 36.7901ZM15.4902 17.9159C15.4823 18.5176 15.5307 19.1188 15.6348 19.7112C15.6462 19.7505 15.6542 19.7908 15.6588 19.8315C15.8767 20.8635 16.4445 21.784 17.2623 22.4313C18.3911 23.5128 19.664 24.7314 19.7923 28.7472H25.2083C25.3386 24.7309 26.6099 23.5128 27.7382 22.4313C28.2137 22.0236 28.6184 21.5371 28.9354 20.9923C28.9452 20.9704 28.9564 20.9491 28.9681 20.9277C29.384 19.9829 29.5702 18.9497 29.5108 17.9159C29.495 16.0309 28.7495 14.2286 27.4366 12.9014C26.1237 11.5742 24.3496 10.8295 22.5008 10.8295C20.6519 10.8295 18.8779 11.5742 17.5649 12.9014C16.252 14.2286 15.506 16.0309 15.4902 17.9159ZM18.7902 33.4412C18.7905 33.6112 18.8568 33.7741 18.9748 33.8943C19.0927 34.0144 19.2525 34.0819 19.4192 34.0821H23.5848C23.5848 34.0274 23.5808 33.9727 23.5808 33.9179C23.581 33.5421 23.6213 33.1674 23.7008 32.8004H19.4192C19.2524 32.8006 19.0924 32.8683 18.9744 32.9886C18.8565 33.109 18.7902 33.2721 18.7902 33.4423V33.4412ZM21.7672 35.4684L21.8521 35.8258C21.9236 36.1259 22.103 36.6302 22.5 36.6302C22.897 36.6302 23.0764 36.1259 23.1479 35.8258L23.2328 35.4684H21.7672ZM24.9405 33.9179C24.9405 34.6731 25.1601 35.4114 25.5717 36.0393C25.9832 36.6672 26.5681 37.1566 27.2524 37.4456C27.9367 37.7346 28.6897 37.8102 29.4162 37.6629C30.1427 37.5156 30.81 37.1519 31.3337 36.6179C31.8575 36.0839 32.2142 35.4035 32.3587 34.6629C32.5032 33.9222 32.429 33.1545 32.1456 32.4567C31.8621 31.759 31.3821 31.1627 30.7662 30.7431C30.1503 30.3236 29.4263 30.0996 28.6856 30.0996C27.6925 30.1009 26.7405 30.5037 26.0384 31.2197C25.3363 31.9358 24.9414 32.9065 24.9405 33.919V33.9179ZM25.1878 30.1325H19.4192C19.2525 30.1325 19.0927 30.2 18.9748 30.3202C18.8569 30.4403 18.7907 30.6033 18.7907 30.7733C18.7907 30.9432 18.8569 31.1062 18.9748 31.2264C19.0927 31.3466 19.2525 31.4141 19.4192 31.4141H24.2118C24.4699 30.9381 24.7992 30.506 25.1878 30.1335V30.1325ZM42.6403 36.7901C42.6392 35.7764 42.2437 34.8045 41.5407 34.0877C40.8376 33.3709 39.8844 32.9677 38.8901 32.9666H36.1215C36.0227 32.9667 35.9251 32.9447 35.8354 32.9023C35.7457 32.86 35.6662 32.7982 35.6024 32.7212C35.5386 32.6443 35.492 32.5541 35.4658 32.4569C35.4397 32.3598 35.4347 32.2579 35.4511 32.1586C35.7634 30.2656 35.3465 28.3227 34.2873 26.7357C33.2281 25.1486 31.6086 24.0401 29.7668 23.6415C29.626 23.6113 29.4981 23.5363 29.4017 23.4274C29.3053 23.3184 29.2453 23.181 29.2303 23.0351C29.2257 22.9903 29.2201 22.946 29.215 22.9012C29.0356 23.0898 28.8516 23.2659 28.6687 23.4415C27.6227 24.4438 26.6329 25.3946 26.5609 29.0118C26.6164 29.0438 26.6703 29.0786 26.7223 29.116C27.6241 28.7324 28.6148 28.6207 29.577 28.7942C30.5391 28.9677 31.4322 29.419 32.1503 30.0947C32.8683 30.7703 33.381 31.6418 33.6276 32.6058C33.8742 33.5697 33.8443 34.5855 33.5414 35.5327C33.2385 36.4798 32.6754 37.3184 31.919 37.9489C31.1625 38.5794 30.2444 38.9753 29.2738 39.0896C28.3032 39.2039 27.3208 39.0318 26.4432 38.5937C25.5657 38.1556 24.8299 37.47 24.3232 36.6182C24.2013 37.0167 23.9598 37.3662 23.6327 37.6173C23.3055 37.8683 22.9094 38.0084 22.5 38.0176C21.545 38.0176 20.8091 37.321 20.5311 36.154L20.3676 35.4694H19.4192C19.0372 35.4698 18.6632 35.3578 18.342 35.1469C18.0207 34.936 17.766 34.6352 17.6082 34.2805C17.4504 33.9257 17.3963 33.5321 17.4523 33.1468C17.5083 32.7615 17.6721 32.4009 17.9241 32.108C17.7294 31.882 17.5866 31.6145 17.5061 31.3251C17.4256 31.0356 17.4094 30.7315 17.4588 30.4349C17.5081 30.1383 17.6217 29.8567 17.7913 29.6105C17.9609 29.3643 18.1822 29.1598 18.4391 29.0118C18.3671 25.3946 17.3773 24.4438 16.3313 23.4415C15.5673 22.8015 14.9714 21.978 14.597 21.0449C13.4133 21.1809 12.2802 21.6103 11.2968 22.2957C10.3134 22.9811 9.5096 23.9016 8.9556 24.9768C8.40161 26.052 8.11429 27.2491 8.11875 28.4636C8.12321 29.6781 8.41932 30.873 8.98119 31.9439C9.03689 32.0495 9.06477 32.168 9.0621 32.2879C9.05942 32.4078 9.02629 32.5249 8.96595 32.6278C8.9056 32.7307 8.82009 32.8158 8.71779 32.875C8.61549 32.9341 8.4999 32.9651 8.38231 32.9651H6.10992C5.61379 32.9592 5.12145 33.0537 4.66141 33.2432C4.20137 33.4327 3.78278 33.7134 3.4299 34.069C3.07702 34.4246 2.79685 34.848 2.60564 35.3148C2.41443 35.7816 2.31598 36.2825 2.31598 36.7883C2.31598 37.2942 2.41443 37.795 2.60564 38.2618C2.79685 38.7286 3.07702 39.1521 3.4299 39.5077C3.78278 39.8633 4.20137 40.144 4.66141 40.3335C5.12145 40.5229 5.61379 40.6175 6.10992 40.6116H38.8901C39.884 40.6105 40.8369 40.2076 41.5399 39.4912C42.2429 38.7749 42.6386 37.8035 42.6403 36.7901ZM27.6099 35.9201C27.673 35.9845 27.7479 36.0356 27.8304 36.0705C27.9128 36.1053 28.0012 36.1233 28.0905 36.1233C28.1798 36.1233 28.2682 36.1053 28.3507 36.0705C28.4331 36.0356 28.508 35.9845 28.5711 35.9201L31.5349 32.8984C31.6557 32.7671 31.7217 32.593 31.7189 32.413C31.7161 32.233 31.6446 32.0611 31.5197 31.9339C31.3947 31.8066 31.2261 31.734 31.0496 31.7313C30.873 31.7286 30.7023 31.7961 30.5737 31.9195L28.0908 34.4514L27.2221 33.5658C27.0946 33.4357 26.9217 33.3627 26.7414 33.3626C26.5611 33.3626 26.3882 33.4355 26.2607 33.5655C26.1331 33.6955 26.0615 33.8717 26.0614 34.0556C26.0614 34.2394 26.1329 34.4157 26.2604 34.5457L27.6099 35.9201ZM22.9246 7.49825C23.0139 7.49825 23.1023 7.48031 23.1848 7.44546C23.2673 7.4106 23.3423 7.35952 23.4054 7.29512C23.4685 7.23072 23.5185 7.15427 23.5527 7.07015C23.5868 6.98602 23.6043 6.89586 23.6043 6.80482V1.69291C23.6043 1.50914 23.5327 1.33289 23.4052 1.20295C23.2778 1.073 23.1049 1 22.9246 1C22.7444 1 22.5715 1.073 22.4441 1.20295C22.3166 1.33289 22.245 1.50914 22.245 1.69291V6.80482C22.245 6.89586 22.2625 6.98602 22.2966 7.07015C22.3307 7.15427 22.3808 7.23072 22.4439 7.29512C22.507 7.35952 22.582 7.4106 22.6644 7.44546C22.7469 7.48031 22.8353 7.49825 22.9246 7.49825ZM30.542 10.8649C30.6313 10.865 30.7198 10.8471 30.8023 10.8122C30.8848 10.7774 30.9598 10.7262 31.0228 10.6617L34.5681 7.04708C34.6956 6.91713 34.7672 6.74087 34.7672 6.55709C34.7672 6.37331 34.6956 6.19706 34.5681 6.06711C34.4406 5.93715 34.2678 5.86415 34.0875 5.86415C33.9073 5.86415 33.7344 5.93715 33.6069 6.06711L30.0627 9.6817C29.9678 9.77868 29.9032 9.90213 29.8771 10.0365C29.8509 10.1708 29.8644 10.3101 29.9158 10.4366C29.9672 10.5632 30.0542 10.6714 30.1658 10.7476C30.2774 10.8238 30.4087 10.8646 30.543 10.8649H30.542ZM32.655 18.415C32.655 18.5988 32.7266 18.775 32.854 18.9049C32.9815 19.0349 33.1543 19.1079 33.3346 19.1079H38.3484C38.5255 19.1029 38.6937 19.0277 38.8173 18.8983C38.9408 18.7688 39.0099 18.5953 39.0099 18.4147C39.0099 18.2341 38.9408 18.0606 38.8173 17.9312C38.6937 17.8017 38.5255 17.7265 38.3484 17.7216H33.333C33.153 17.722 32.9804 17.7952 32.8533 17.9252C32.7262 18.0553 32.6548 18.2314 32.655 18.415ZM14.1581 10.6632C14.2212 10.7276 14.2961 10.7787 14.3786 10.8136C14.461 10.8484 14.5494 10.8664 14.6387 10.8664C14.728 10.8664 14.8164 10.8485 14.8989 10.8137C14.9814 10.7789 15.0563 10.7278 15.1195 10.6635C15.1826 10.5992 15.2327 10.5228 15.2669 10.4387C15.3011 10.3546 15.3187 10.2645 15.3187 10.1734C15.3188 10.0824 15.3012 9.99228 15.2671 9.90817C15.2329 9.82407 15.1829 9.74765 15.1197 9.68327L11.5745 6.06867C11.447 5.93865 11.2741 5.86557 11.0938 5.86553C10.9135 5.86548 10.7406 5.93846 10.613 6.06841C10.4855 6.19836 10.4138 6.37464 10.4138 6.55847C10.4137 6.7423 10.4853 6.91862 10.6128 7.04864L14.1581 10.6632ZM6.83298 19.1079H11.8468C12.0239 19.1029 12.1921 19.0277 12.3157 18.8983C12.4392 18.7688 12.5083 18.5953 12.5083 18.4147C12.5083 18.2341 12.4392 18.0606 12.3157 17.9312C12.1921 17.8017 12.0239 17.7265 11.8468 17.7216H6.83298C6.74213 17.719 6.6517 17.7351 6.56703 17.7688C6.48237 17.8024 6.40519 17.8531 6.34005 17.9177C6.27491 17.9823 6.22313 18.0596 6.18778 18.145C6.15242 18.2303 6.13421 18.3221 6.13421 18.4147C6.13421 18.5074 6.15242 18.5991 6.18778 18.6845C6.22313 18.7698 6.27491 18.8471 6.34005 18.9117C6.40519 18.9763 6.48237 19.027 6.56703 19.0607C6.6517 19.0944 6.74213 19.1104 6.83298 19.1079ZM13.9588 34.6807H8.0103C7.83322 34.6856 7.66501 34.7608 7.54147 34.8903C7.41794 35.0197 7.34881 35.1932 7.34881 35.3738C7.34881 35.5545 7.41794 35.728 7.54147 35.8574C7.66501 35.9869 7.83322 36.0621 8.0103 36.067H13.9588C14.0496 36.0696 14.14 36.0535 14.2247 36.0198C14.3094 35.9861 14.3866 35.9355 14.4517 35.8708C14.5168 35.8062 14.5686 35.729 14.604 35.6436C14.6393 35.5582 14.6575 35.4665 14.6575 35.3738C14.6575 35.2812 14.6393 35.1895 14.604 35.1041C14.5686 35.0187 14.5168 34.9415 14.4517 34.8768C14.3866 34.8122 14.3094 34.7616 14.2247 34.7279C14.14 34.6942 14.0496 34.6781 13.9588 34.6807ZM13.9588 37.7998H8.0103C7.83322 37.8048 7.66501 37.88 7.54147 38.0094C7.41794 38.1389 7.34881 38.3124 7.34881 38.493C7.34881 38.6736 7.41794 38.8471 7.54147 38.9765C7.66501 39.106 7.83322 39.1812 8.0103 39.1862H13.9588C14.0496 39.1887 14.14 39.1726 14.2247 39.139C14.3094 39.1053 14.3866 39.0546 14.4517 38.99C14.5168 38.9254 14.5686 38.8481 14.604 38.7627C14.6393 38.6774 14.6575 38.5856 14.6575 38.493C14.6575 38.4003 14.6393 38.3086 14.604 38.2232C14.5686 38.1379 14.5168 38.0606 14.4517 37.996C14.3866 37.9314 14.3094 37.8807 14.2247 37.847C14.14 37.8133 14.0496 37.7973 13.9588 37.7998Z" fill="url(#paint0_linear_1438_20473)"/>
<path d="M23.4627 12.7128C23.5184 12.538 23.6399 12.3928 23.8005 12.3092C23.961 12.2256 24.1476 12.2104 24.3191 12.2668C25.5055 12.6567 26.5397 13.4209 27.2724 14.4489C28.0051 15.477 28.3985 16.7159 28.3958 17.9867C28.391 18.1673 28.3172 18.3388 28.1902 18.4647C28.0633 18.5907 27.8931 18.6612 27.716 18.6612C27.5388 18.6612 27.3686 18.5907 27.2417 18.4647C27.1147 18.3388 27.0409 18.1673 27.0361 17.9867C27.0383 17.009 26.7358 16.0558 26.1721 15.2648C25.6085 14.4738 24.8129 13.8859 23.9001 13.586C23.7287 13.5292 23.5863 13.4053 23.5043 13.2416C23.4223 13.0779 23.4073 12.8877 23.4627 12.7128ZM44 36.7901C43.9985 38.1714 43.4597 39.4957 42.5017 40.4724C41.5437 41.4491 40.2449 41.9985 38.8901 42H6.10992C4.75469 42 3.45496 41.4511 2.49666 40.4741C1.53837 39.497 1 38.1719 1 36.7901C1 35.4084 1.53837 34.0833 2.49666 33.1062C3.45496 32.1292 4.75469 31.5803 6.10992 31.5803H7.3266C6.86158 30.3378 6.6781 29.0041 6.78988 27.6791C6.90165 26.3541 7.30579 25.072 7.97207 23.9287C8.63834 22.7854 9.54952 21.8104 10.6375 21.0768C11.7254 20.3431 12.9619 19.8697 14.2546 19.6919C14.1676 19.1041 14.1261 18.5103 14.1305 17.9159C14.1305 15.6527 15.0122 13.4823 16.5818 11.882C18.1514 10.2817 20.2803 9.38266 22.5 9.38266C24.7197 9.38266 26.8486 10.2817 28.4182 11.882C29.9878 13.4823 30.8695 15.6527 30.8695 17.9159C30.9164 19.088 30.7164 20.2568 30.2829 21.3434C30.3829 21.6914 30.4616 22.0453 30.5185 22.4031C32.353 22.9102 33.9729 24.0188 35.128 25.5578C36.2831 27.0969 36.9093 28.9807 36.91 30.9186C36.91 31.1392 36.902 31.3597 36.886 31.5803H38.888C40.2432 31.5813 41.5426 32.1304 42.501 33.1072C43.4594 34.0839 43.9985 35.4085 44 36.7901ZM15.4902 17.9159C15.4823 18.5176 15.5307 19.1188 15.6348 19.7112C15.6462 19.7505 15.6542 19.7908 15.6588 19.8315C15.8767 20.8635 16.4445 21.784 17.2623 22.4313C18.3911 23.5128 19.664 24.7314 19.7923 28.7472H25.2083C25.3386 24.7309 26.6099 23.5128 27.7382 22.4313C28.2137 22.0236 28.6184 21.5371 28.9354 20.9923C28.9452 20.9704 28.9564 20.9491 28.9681 20.9277C29.384 19.9829 29.5702 18.9497 29.5108 17.9159C29.495 16.0309 28.7495 14.2286 27.4366 12.9014C26.1237 11.5742 24.3496 10.8295 22.5008 10.8295C20.6519 10.8295 18.8779 11.5742 17.5649 12.9014C16.252 14.2286 15.506 16.0309 15.4902 17.9159ZM18.7902 33.4412C18.7905 33.6112 18.8568 33.7741 18.9748 33.8943C19.0927 34.0144 19.2525 34.0819 19.4192 34.0821H23.5848C23.5848 34.0274 23.5808 33.9727 23.5808 33.9179C23.581 33.5421 23.6213 33.1674 23.7008 32.8004H19.4192C19.2524 32.8006 19.0924 32.8683 18.9744 32.9886C18.8565 33.109 18.7902 33.2721 18.7902 33.4423V33.4412ZM21.7672 35.4684L21.8521 35.8258C21.9236 36.1259 22.103 36.6302 22.5 36.6302C22.897 36.6302 23.0764 36.1259 23.1479 35.8258L23.2328 35.4684H21.7672ZM24.9405 33.9179C24.9405 34.6731 25.1601 35.4114 25.5717 36.0393C25.9832 36.6672 26.5681 37.1566 27.2524 37.4456C27.9367 37.7346 28.6897 37.8102 29.4162 37.6629C30.1427 37.5156 30.81 37.1519 31.3337 36.6179C31.8575 36.0839 32.2142 35.4035 32.3587 34.6629C32.5032 33.9222 32.429 33.1545 32.1456 32.4567C31.8621 31.759 31.3821 31.1627 30.7662 30.7431C30.1503 30.3236 29.4263 30.0996 28.6856 30.0996C27.6925 30.1009 26.7405 30.5037 26.0384 31.2197C25.3363 31.9358 24.9414 32.9065 24.9405 33.919V33.9179ZM25.1878 30.1325H19.4192C19.2525 30.1325 19.0927 30.2 18.9748 30.3202C18.8569 30.4403 18.7907 30.6033 18.7907 30.7733C18.7907 30.9432 18.8569 31.1062 18.9748 31.2264C19.0927 31.3466 19.2525 31.4141 19.4192 31.4141H24.2118C24.4699 30.9381 24.7992 30.506 25.1878 30.1335V30.1325ZM42.6403 36.7901C42.6392 35.7764 42.2437 34.8045 41.5407 34.0877C40.8376 33.3709 39.8844 32.9677 38.8901 32.9666H36.1215C36.0227 32.9667 35.9251 32.9447 35.8354 32.9023C35.7457 32.86 35.6662 32.7982 35.6024 32.7212C35.5386 32.6443 35.492 32.5541 35.4658 32.4569C35.4397 32.3598 35.4347 32.2579 35.4511 32.1586C35.7634 30.2656 35.3465 28.3227 34.2873 26.7357C33.2281 25.1486 31.6086 24.0401 29.7668 23.6415C29.626 23.6113 29.4981 23.5363 29.4017 23.4274C29.3053 23.3184 29.2453 23.181 29.2303 23.0351C29.2257 22.9903 29.2201 22.946 29.215 22.9012C29.0356 23.0898 28.8516 23.2659 28.6687 23.4415C27.6227 24.4438 26.6329 25.3946 26.5609 29.0118C26.6164 29.0438 26.6703 29.0786 26.7223 29.116C27.6241 28.7324 28.6148 28.6207 29.577 28.7942C30.5391 28.9677 31.4322 29.419 32.1503 30.0947C32.8683 30.7703 33.381 31.6418 33.6276 32.6058C33.8742 33.5697 33.8443 34.5855 33.5414 35.5327C33.2385 36.4798 32.6754 37.3184 31.919 37.9489C31.1625 38.5794 30.2444 38.9753 29.2738 39.0896C28.3032 39.2039 27.3208 39.0318 26.4432 38.5937C25.5657 38.1556 24.8299 37.47 24.3232 36.6182C24.2013 37.0167 23.9598 37.3662 23.6327 37.6173C23.3055 37.8683 22.9094 38.0084 22.5 38.0176C21.545 38.0176 20.8091 37.321 20.5311 36.154L20.3676 35.4694H19.4192C19.0372 35.4698 18.6632 35.3578 18.342 35.1469C18.0207 34.936 17.766 34.6352 17.6082 34.2805C17.4504 33.9257 17.3963 33.5321 17.4523 33.1468C17.5083 32.7615 17.6721 32.4009 17.9241 32.108C17.7294 31.882 17.5866 31.6145 17.5061 31.3251C17.4256 31.0356 17.4094 30.7315 17.4588 30.4349C17.5081 30.1383 17.6217 29.8567 17.7913 29.6105C17.9609 29.3643 18.1822 29.1598 18.4391 29.0118C18.3671 25.3946 17.3773 24.4438 16.3313 23.4415C15.5673 22.8015 14.9714 21.978 14.597 21.0449C13.4133 21.1809 12.2802 21.6103 11.2968 22.2957C10.3134 22.9811 9.5096 23.9016 8.9556 24.9768C8.40161 26.052 8.11429 27.2491 8.11875 28.4636C8.12321 29.6781 8.41932 30.873 8.98119 31.9439C9.03689 32.0495 9.06477 32.168 9.0621 32.2879C9.05942 32.4078 9.02629 32.5249 8.96595 32.6278C8.9056 32.7307 8.82009 32.8158 8.71779 32.875C8.61549 32.9341 8.4999 32.9651 8.38231 32.9651H6.10992C5.61379 32.9592 5.12145 33.0537 4.66141 33.2432C4.20137 33.4327 3.78278 33.7134 3.4299 34.069C3.07702 34.4246 2.79685 34.848 2.60564 35.3148C2.41443 35.7816 2.31598 36.2825 2.31598 36.7883C2.31598 37.2942 2.41443 37.795 2.60564 38.2618C2.79685 38.7286 3.07702 39.1521 3.4299 39.5077C3.78278 39.8633 4.20137 40.144 4.66141 40.3335C5.12145 40.5229 5.61379 40.6175 6.10992 40.6116H38.8901C39.884 40.6105 40.8369 40.2076 41.5399 39.4912C42.2429 38.7749 42.6386 37.8035 42.6403 36.7901ZM27.6099 35.9201C27.673 35.9845 27.7479 36.0356 27.8304 36.0705C27.9128 36.1053 28.0012 36.1233 28.0905 36.1233C28.1798 36.1233 28.2682 36.1053 28.3507 36.0705C28.4331 36.0356 28.508 35.9845 28.5711 35.9201L31.5349 32.8984C31.6557 32.7671 31.7217 32.593 31.7189 32.413C31.7161 32.233 31.6446 32.0611 31.5197 31.9339C31.3947 31.8066 31.2261 31.734 31.0496 31.7313C30.873 31.7286 30.7023 31.7961 30.5737 31.9195L28.0908 34.4514L27.2221 33.5658C27.0946 33.4357 26.9217 33.3627 26.7414 33.3626C26.5611 33.3626 26.3882 33.4355 26.2607 33.5655C26.1331 33.6955 26.0615 33.8717 26.0614 34.0556C26.0614 34.2394 26.1329 34.4157 26.2604 34.5457L27.6099 35.9201ZM22.9246 7.49825C23.0139 7.49825 23.1023 7.48031 23.1848 7.44546C23.2673 7.4106 23.3423 7.35952 23.4054 7.29512C23.4685 7.23072 23.5185 7.15427 23.5527 7.07015C23.5868 6.98602 23.6043 6.89586 23.6043 6.80482V1.69291C23.6043 1.50914 23.5327 1.33289 23.4052 1.20295C23.2778 1.073 23.1049 1 22.9246 1C22.7444 1 22.5715 1.073 22.4441 1.20295C22.3166 1.33289 22.245 1.50914 22.245 1.69291V6.80482C22.245 6.89586 22.2625 6.98602 22.2966 7.07015C22.3307 7.15427 22.3808 7.23072 22.4439 7.29512C22.507 7.35952 22.582 7.4106 22.6644 7.44546C22.7469 7.48031 22.8353 7.49825 22.9246 7.49825ZM30.542 10.8649C30.6313 10.865 30.7198 10.8471 30.8023 10.8122C30.8848 10.7774 30.9598 10.7262 31.0228 10.6617L34.5681 7.04708C34.6956 6.91713 34.7672 6.74087 34.7672 6.55709C34.7672 6.37331 34.6956 6.19706 34.5681 6.06711C34.4406 5.93715 34.2678 5.86415 34.0875 5.86415C33.9073 5.86415 33.7344 5.93715 33.6069 6.06711L30.0627 9.6817C29.9678 9.77868 29.9032 9.90213 29.8771 10.0365C29.8509 10.1708 29.8644 10.3101 29.9158 10.4366C29.9672 10.5632 30.0542 10.6714 30.1658 10.7476C30.2774 10.8238 30.4087 10.8646 30.543 10.8649H30.542ZM32.655 18.415C32.655 18.5988 32.7266 18.775 32.854 18.9049C32.9815 19.0349 33.1543 19.1079 33.3346 19.1079H38.3484C38.5255 19.1029 38.6937 19.0277 38.8173 18.8983C38.9408 18.7688 39.0099 18.5953 39.0099 18.4147C39.0099 18.2341 38.9408 18.0606 38.8173 17.9312C38.6937 17.8017 38.5255 17.7265 38.3484 17.7216H33.333C33.153 17.722 32.9804 17.7952 32.8533 17.9252C32.7262 18.0553 32.6548 18.2314 32.655 18.415ZM14.1581 10.6632C14.2212 10.7276 14.2961 10.7787 14.3786 10.8136C14.461 10.8484 14.5494 10.8664 14.6387 10.8664C14.728 10.8664 14.8164 10.8485 14.8989 10.8137C14.9814 10.7789 15.0563 10.7278 15.1195 10.6635C15.1826 10.5992 15.2327 10.5228 15.2669 10.4387C15.3011 10.3546 15.3187 10.2645 15.3187 10.1734C15.3188 10.0824 15.3012 9.99228 15.2671 9.90817C15.2329 9.82407 15.1829 9.74765 15.1197 9.68327L11.5745 6.06867C11.447 5.93865 11.2741 5.86557 11.0938 5.86553C10.9135 5.86548 10.7406 5.93846 10.613 6.06841C10.4855 6.19836 10.4138 6.37464 10.4138 6.55847C10.4137 6.7423 10.4853 6.91862 10.6128 7.04864L14.1581 10.6632ZM6.83298 19.1079H11.8468C12.0239 19.1029 12.1921 19.0277 12.3157 18.8983C12.4392 18.7688 12.5083 18.5953 12.5083 18.4147C12.5083 18.2341 12.4392 18.0606 12.3157 17.9312C12.1921 17.8017 12.0239 17.7265 11.8468 17.7216H6.83298C6.74213 17.719 6.6517 17.7351 6.56703 17.7688C6.48237 17.8024 6.40519 17.8531 6.34005 17.9177C6.27491 17.9823 6.22313 18.0596 6.18778 18.145C6.15242 18.2303 6.13421 18.3221 6.13421 18.4147C6.13421 18.5074 6.15242 18.5991 6.18778 18.6845C6.22313 18.7698 6.27491 18.8471 6.34005 18.9117C6.40519 18.9763 6.48237 19.027 6.56703 19.0607C6.6517 19.0944 6.74213 19.1104 6.83298 19.1079ZM13.9588 34.6807H8.0103C7.83322 34.6856 7.66501 34.7608 7.54147 34.8903C7.41794 35.0197 7.34881 35.1932 7.34881 35.3738C7.34881 35.5545 7.41794 35.728 7.54147 35.8574C7.66501 35.9869 7.83322 36.0621 8.0103 36.067H13.9588C14.0496 36.0696 14.14 36.0535 14.2247 36.0198C14.3094 35.9861 14.3866 35.9355 14.4517 35.8708C14.5168 35.8062 14.5686 35.729 14.604 35.6436C14.6393 35.5582 14.6575 35.4665 14.6575 35.3738C14.6575 35.2812 14.6393 35.1895 14.604 35.1041C14.5686 35.0187 14.5168 34.9415 14.4517 34.8768C14.3866 34.8122 14.3094 34.7616 14.2247 34.7279C14.14 34.6942 14.0496 34.6781 13.9588 34.6807ZM13.9588 37.7998H8.0103C7.83322 37.8048 7.66501 37.88 7.54147 38.0094C7.41794 38.1389 7.34881 38.3124 7.34881 38.493C7.34881 38.6736 7.41794 38.8471 7.54147 38.9765C7.66501 39.106 7.83322 39.1812 8.0103 39.1862H13.9588C14.0496 39.1887 14.14 39.1726 14.2247 39.139C14.3094 39.1053 14.3866 39.0546 14.4517 38.99C14.5168 38.9254 14.5686 38.8481 14.604 38.7627C14.6393 38.6774 14.6575 38.5856 14.6575 38.493C14.6575 38.4003 14.6393 38.3086 14.604 38.2232C14.5686 38.1379 14.5168 38.0606 14.4517 37.996C14.3866 37.9314 14.3094 37.8807 14.2247 37.847C14.14 37.8133 14.0496 37.7973 13.9588 37.7998Z" stroke="url(#paint1_linear_1438_20473)" stroke-width="0.4" mask="url(#path-1-outside-1_1438_20473)"/>
<defs>
<linearGradient id="paint0_linear_1438_20473" x1="22.5" y1="1" x2="22.5" y2="42" gradientUnits="userSpaceOnUse">
<stop stop-color="#5F3E8E"/>
<stop offset="1" stop-color="#3A73AC"/>
</linearGradient>
<linearGradient id="paint1_linear_1438_20473" x1="22.5" y1="1" x2="22.5" y2="42" gradientUnits="userSpaceOnUse">
<stop stop-color="#574A95"/>
<stop offset="1" stop-color="#3A72AC"/>
</linearGradient>
</defs>
</svg>
