<svg width="58" height="60" viewBox="0 0 58 60" fill="none" xmlns="http://www.w3.org/2000/svg">
<mask id="mask0_447_2562" style="mask-type:luminance" maskUnits="userSpaceOnUse" x="0" y="0" width="58" height="60">
<path d="M58 0H0V60H58V0Z" fill="white"/>
</mask>
<g mask="url(#mask0_447_2562)">
<path d="M57.8642 13.6892C57.8857 13.7687 57.8967 13.8507 57.8969 13.9331V26.7335C57.8969 26.8978 57.8535 27.0592 57.7712 27.2014C57.6889 27.3435 57.5706 27.4614 57.4281 27.5432L46.6904 33.7288V45.9891C46.6904 46.3227 46.5131 46.6307 46.224 46.7987L23.8098 59.7089C23.7585 59.738 23.7026 59.7567 23.6466 59.7765C23.6256 59.7835 23.6058 59.7964 23.5836 59.8022C23.427 59.8435 23.2623 59.8435 23.1056 59.8022C23.0799 59.7952 23.0566 59.7812 23.0321 59.7719C22.9808 59.7532 22.9272 59.7369 22.8782 59.7089L0.4687 46.7987C0.3264 46.7169 0.208099 46.599 0.125799 46.4568C0.0434992 46.3147 0.0001 46.1533 0 45.9891V7.58764C0 7.50364 0.0117004 7.42204 0.0326004 7.34274C0.0396004 7.31584 0.056 7.29134 0.0653 7.26454C0.0828 7.21554 0.0990997 7.16534 0.1248 7.11984C0.1423 7.08954 0.1679 7.06504 0.1889 7.03704C0.2157 6.99974 0.2402 6.96124 0.2717 6.92854C0.2985 6.90174 0.3335 6.88184 0.3638 6.85854C0.3976 6.83054 0.4279 6.80024 0.4664 6.77804L11.6729 0.322942C11.8148 0.241242 11.9756 0.198242 12.1393 0.198242C12.303 0.198242 12.4638 0.241242 12.6057 0.322942L23.811 6.77804H23.8133C23.8507 6.80134 23.8821 6.83054 23.9159 6.85734C23.9463 6.88074 23.9801 6.90174 24.0069 6.92734C24.0395 6.96124 24.0629 6.99974 24.0908 7.03704C24.1107 7.06504 24.1375 7.08954 24.1538 7.11984C24.1806 7.16654 24.1958 7.21554 24.2144 7.26454C24.2238 7.29134 24.2401 7.31584 24.2471 7.34384C24.2686 7.42334 24.2795 7.50534 24.2797 7.58764V31.5728L33.6171 26.1934V13.9319C33.6171 13.8502 33.6288 13.7674 33.6498 13.6892C33.6579 13.6612 33.6731 13.6367 33.6824 13.6099C33.7011 13.5609 33.7174 13.5107 33.743 13.4652C33.7605 13.4349 33.7862 13.4104 33.806 13.3824C33.834 13.3451 33.8573 13.3066 33.89 13.2739C33.9168 13.2471 33.9506 13.2272 33.9809 13.2039C34.0159 13.1759 34.0462 13.1456 34.0835 13.1234L45.2912 6.66834C45.433 6.58654 45.5939 6.54354 45.7576 6.54354C45.9213 6.54354 46.0821 6.58654 46.224 6.66834L57.4293 13.1234C57.4689 13.1467 57.4993 13.1759 57.5342 13.2027C57.5634 13.2261 57.5972 13.2471 57.624 13.2727C57.6567 13.3066 57.68 13.3451 57.708 13.3824C57.729 13.4104 57.7546 13.4349 57.7709 13.4652C57.7978 13.5107 57.8129 13.5609 57.8316 13.6099C57.8421 13.6367 57.8572 13.6612 57.8642 13.6892ZM56.0289 26.1934V15.5489L52.1076 17.8075L46.6904 20.9283V31.5728L56.0301 26.1934H56.0289ZM44.8236 45.4489V34.7974L39.495 37.8424L24.2786 46.5316V57.2834L44.8236 45.4489ZM1.8679 9.20354V45.4489L22.4106 57.2822V46.5327L11.6787 40.4557L11.6752 40.4533L11.6706 40.451C11.6344 40.43 11.6041 40.3997 11.5703 40.374C11.5411 40.3507 11.5073 40.332 11.4817 40.3063L11.4793 40.3028C11.449 40.2737 11.428 40.2375 11.4024 40.2048C11.3791 40.1733 11.3511 40.1465 11.3324 40.1138L11.3312 40.1103C11.3103 40.0753 11.2974 40.0333 11.2823 39.9937C11.2671 39.9587 11.2473 39.926 11.238 39.8887C11.2263 39.8443 11.224 39.7965 11.2193 39.751C11.2146 39.716 11.2053 39.681 11.2053 39.646V14.5829L5.7892 11.4609L1.8679 9.20354ZM12.1405 2.21064L2.8042 7.58764L12.1381 12.9647L21.4732 7.58654L12.1381 2.21064H12.1405ZM16.9957 35.7681L22.4118 32.6484V9.20354L18.4905 11.4621L13.0733 14.5829V38.0279L16.9957 35.7681ZM45.7576 8.55604L36.4225 13.9331L45.7576 19.3101L55.0915 13.9319L45.7576 8.55604ZM44.8236 20.9283L39.4063 17.8075L35.4851 15.5489V26.1934L40.9012 29.313L44.8236 31.5728V20.9283ZM23.3434 44.9158L37.0358 37.0945L43.8803 33.1863L34.5523 27.8127L23.8122 33.9994L14.0236 39.6378L23.3434 44.9158Z" fill="#FF2D20"/>
</g>
</svg>
