<svg width="55" height="55" viewBox="0 0 55 55" fill="none" xmlns="http://www.w3.org/2000/svg">
<mask id="mask0_447_2570" style="mask-type:luminance" maskUnits="userSpaceOnUse" x="0" y="0" width="55" height="55">
<path d="M55 0H0V55H55V0Z" fill="white"/>
</mask>
<g mask="url(#mask0_447_2570)">
<path d="M3.89345 27.5C3.89345 36.8384 9.29839 44.9082 17.1364 48.7326L5.92781 17.8989C4.58416 20.9199 3.89098 24.1916 3.89345 27.5ZM43.2537 26.3094C43.2537 23.394 42.2105 21.3747 41.3159 19.8032C40.1247 17.8599 39.0083 16.2142 39.0083 14.2708C39.0083 12.1022 40.6466 10.0833 42.9542 10.0833C43.0584 10.0833 43.1569 10.0963 43.2586 10.1023C39.0781 6.2568 33.5084 3.90912 27.3911 3.90912C19.182 3.90912 11.9598 8.1378 7.75839 14.5428C8.30958 14.5595 8.82906 14.5709 9.27053 14.5709C11.7281 14.5709 15.5326 14.2718 15.5326 14.2718C16.7994 14.1967 16.9487 16.0645 15.6834 16.2151C15.6834 16.2151 14.4104 16.3654 12.9938 16.4399L21.5511 41.9941L26.6933 26.51L23.0324 16.4391C21.767 16.3648 20.5683 16.2145 20.5683 16.2145C19.3021 16.1398 19.4506 14.1961 20.7168 14.2711C20.7168 14.2711 24.5973 14.5705 26.906 14.5705C29.3636 14.5705 33.1683 14.2711 33.1683 14.2711C34.4358 14.1961 34.5849 16.0639 33.3191 16.2145C33.3191 16.2145 32.0436 16.3648 30.6295 16.4391L39.1213 41.7998L41.465 33.9363C42.4807 30.6731 43.2537 28.3293 43.2537 26.3094ZM27.8033 29.5637L20.7532 50.1321C22.9087 50.7696 25.1441 51.0933 27.3911 51.0933C30.1273 51.0933 32.7513 50.6183 35.1941 49.756C35.1289 49.6528 35.0729 49.5441 35.0267 49.431L27.8033 29.5637ZM48.0092 16.1815C48.1102 16.9328 48.1675 17.7395 48.1675 18.6072C48.1675 21.0014 47.7222 23.6925 46.3809 27.0574L39.2034 47.8927C46.189 43.8026 50.8877 36.204 50.8877 27.5006C50.888 23.3989 49.8447 19.5419 48.0092 16.1815ZM27.3911 0C12.2879 0 0 12.3364 0 27.5C0 42.6655 12.2879 55.0015 27.3911 55.0015C42.4936 55.0015 54.7832 42.6655 54.7832 27.5C54.783 12.3364 42.4936 0 27.3911 0ZM27.3911 53.7411C12.9807 53.7411 1.25583 41.9693 1.25583 27.5C1.25583 13.0318 12.9801 1.26087 27.3911 1.26087C41.801 1.26087 53.5248 13.0318 53.5248 27.5C53.5248 41.9693 41.801 53.7411 27.3911 53.7411Z" fill="#464342"/>
</g>
</svg>
