<svg width="20" height="20" viewBox="0 0 20 20" fill="none" xmlns="http://www.w3.org/2000/svg">
<path d="M19.9915 16.2725C19.9532 16.1267 19.8044 16.039 19.6582 16.0772L15.4733 17.1605L15.2844 16.434C15.2818 16.4227 15.2792 16.4123 15.2757 16.4018L14.0957 11.8723C14.0931 11.8601 14.0904 11.848 14.0861 11.8367L14.0043 11.5207L18.1892 10.4365C18.3354 10.3983 18.4233 10.2499 18.385 10.1041C18.3467 9.95823 18.1979 9.87056 18.0517 9.90876L13.6021 11.0615C13.5316 11.0798 13.4716 11.1249 13.435 11.1874C13.3985 11.2499 13.388 11.3237 13.4063 11.394L13.4507 11.5633L9.76703 10.7864C9.16047 10.6596 8.5574 10.8818 8.17711 11.3654L6.46536 11.6049L6.59502 11.1058C6.63332 10.96 6.54542 10.8115 6.39922 10.7733L1.95052 9.62056C1.80432 9.58237 1.65551 9.67004 1.61722 9.81587C1.57892 9.96171 1.66682 10.1101 1.81302 10.1483L5.99706 11.2325L4.52809 16.8741L0.342271 15.7899C0.196071 15.7517 0.047265 15.8394 0.00896908 15.9852C-0.0293269 16.131 0.0585734 16.2795 0.204773 16.3177L4.65347 17.4704C4.6761 17.4765 4.69872 17.4791 4.72222 17.4791C4.77095 17.4791 4.81882 17.4661 4.86059 17.4418C4.92324 17.4053 4.9685 17.3454 4.98677 17.2751L5.08511 16.8967L8.76789 19.7786C8.95935 19.928 9.18647 20 9.41186 20C9.72253 20 10.0297 19.8628 10.2351 19.6007C10.3439 19.4627 10.4144 19.3021 10.4422 19.1328L10.5815 19.2413C10.8008 19.4123 11.074 19.4878 11.3516 19.4549C11.6292 19.421 11.8764 19.2821 12.0469 19.0642C12.1662 18.9123 12.2366 18.7378 12.2601 18.559C12.6866 18.7439 13.2009 18.6276 13.4993 18.2465C13.6873 18.007 13.7535 17.7109 13.7073 17.4314C13.723 17.4306 13.7395 17.4288 13.7552 17.4271C14.0328 17.3932 14.28 17.2544 14.4505 17.0365C14.5297 16.9358 14.5889 16.8221 14.6263 16.7023C14.6837 16.7162 14.7403 16.7283 14.7969 16.7379L15.0118 17.5634C15.044 17.6866 15.1545 17.7674 15.2764 17.7674C15.299 17.7674 15.3225 17.7648 15.3451 17.7587L19.7947 16.6068C19.9409 16.5677 20.0289 16.4183 19.9915 16.2725ZM13.6892 16.8845C13.5561 16.9001 13.4264 16.8645 13.3229 16.7838L10.0264 14.2056C9.90718 14.1127 9.73574 14.1335 9.64262 14.2524C9.54951 14.3714 9.57039 14.5424 9.68962 14.6353L12.9861 17.2135C13.0897 17.2942 13.1558 17.4123 13.1715 17.5442C13.1871 17.6762 13.1514 17.8064 13.0696 17.9097C12.9008 18.1249 12.5875 18.1631 12.3708 17.9947L11.8713 17.6032C11.8705 17.6024 11.8705 17.6024 11.8696 17.6024L9.05342 15.3992C8.93507 15.3064 8.76276 15.3272 8.66963 15.4461C8.57652 15.565 8.5974 15.736 8.71663 15.8289L11.5337 18.0321C11.7495 18.2005 11.7869 18.513 11.6181 18.7282C11.5372 18.8315 11.4197 18.8975 11.2874 18.914C11.1551 18.9305 11.0246 18.894 10.921 18.8133L10.0595 18.1397L8.08146 16.5928C7.96224 16.5 7.7908 16.5208 7.69768 16.6397C7.60456 16.7586 7.62545 16.9297 7.74467 17.0225L9.72358 18.5703C9.82714 18.651 9.89328 18.7682 9.90894 18.901C9.92461 19.0329 9.88893 19.1632 9.80713 19.2664C9.7262 19.3706 9.60784 19.4357 9.47556 19.4522C9.34329 19.4678 9.21275 19.4322 9.10833 19.3515L5.23841 16.3238L6.31752 12.1798L7.72729 11.9818L6.72131 13.3577C6.69781 13.3907 6.67693 13.415 6.65952 13.4367C6.60992 13.4975 6.53421 13.5895 6.54987 13.7249C6.56554 13.8629 6.65865 13.935 6.74916 14.0044L6.78919 14.0348C7.09985 14.277 7.91267 14.7909 8.74636 14.3317C9.26588 14.0452 9.61747 13.6381 9.87505 13.3395C9.93423 13.2709 9.98557 13.211 10.0317 13.1624C10.0421 13.1511 10.0526 13.1407 10.0613 13.1303C10.0621 13.1303 10.0621 13.1312 10.0621 13.1312L14.1234 16.4671C14.1113 16.5513 14.0773 16.6321 14.0234 16.7007C13.9389 16.8031 13.8215 16.8688 13.6892 16.8845ZM14.5377 16.1024L10.398 12.7013C10.3919 12.6961 10.3858 12.6917 10.3789 12.6874C10.3354 12.6579 10.3023 12.6327 10.2753 12.6127C10.1265 12.5025 9.9307 12.4087 9.72795 12.6717C9.70446 12.7021 9.67574 12.7395 9.62875 12.7889C9.57566 12.8462 9.51823 12.9122 9.45731 12.9825C9.22758 13.249 8.91168 13.6136 8.4783 13.8532C7.98489 14.1258 7.47405 13.8619 7.18165 13.6483L8.58361 11.7299C8.83597 11.3862 9.23542 11.2325 9.65226 11.3202L13.6022 12.1535L14.6404 16.1388C14.6073 16.1276 14.5734 16.1154 14.5377 16.1024ZM5.48639 9.76038H14.5134C14.8946 9.76038 15.2044 9.45136 15.2044 9.07114V3.08938C15.2044 2.70918 14.8946 2.40013 14.5134 2.40013H12.7617V2.39666C12.7625 1.07549 11.6843 0 10.3599 0H9.64104C8.31654 0 7.23835 1.07551 7.23835 2.39666V2.40013H5.48657C5.10541 2.40013 4.79559 2.70915 4.79559 3.08938V9.07114C4.79646 9.45047 5.10608 9.76038 5.48639 9.76038ZM7.78548 2.39662C7.78548 1.37578 8.6183 0.545937 9.64082 0.545937H10.3596C11.383 0.545937 12.215 1.37667 12.215 2.39662V2.40009H7.78544L7.78548 2.39662ZM5.34269 3.08933C5.34269 3.01034 5.40709 2.9461 5.48628 2.9461H14.5133C14.5917 2.9461 14.6569 3.01208 14.6569 3.08933V3.12926C14.6569 4.85755 13.2472 6.2637 11.5146 6.2637H10.2728V5.92168C10.2728 5.77063 10.1501 5.6491 9.99953 5.6491C9.84811 5.6491 9.72627 5.77149 9.72627 5.92168V6.2637H8.48531C6.75268 6.2637 5.343 4.85746 5.343 3.12926L5.34269 3.08933ZM8.48501 6.80888H9.72596V7.15003C9.72596 7.30107 9.84867 7.42261 9.99923 7.42261C10.1506 7.42261 10.2725 7.30021 10.2725 7.15003L10.2734 6.80888H11.5152C12.8423 6.80888 14.0076 6.10661 14.6575 5.05541V9.07096C14.6575 9.14908 14.5914 9.21419 14.5139 9.21419H5.48618C5.40699 9.21419 5.34259 9.14995 5.34259 9.07096V5.05453C5.99267 6.10661 7.158 6.80888 8.48501 6.80888Z" fill="#3F3F3F"/>
</svg>
