<svg width="21" height="18" viewBox="0 0 21 18" fill="none" xmlns="http://www.w3.org/2000/svg">
<path fill-rule="evenodd" clip-rule="evenodd" d="M2.57891 7.58598C2.57891 7.40761 2.72038 7.26682 2.89747 7.26682H9.00086C9.17795 7.26682 9.31943 7.4076 9.31943 7.58598C9.31943 7.75954 9.17795 7.90515 9.00086 7.90515H2.89747C2.72039 7.90515 2.57891 7.75955 2.57891 7.58598ZM2.57891 10.0341C2.57891 9.86056 2.72038 9.71592 2.89747 9.71592H9.00086C9.17795 9.71592 9.31943 9.86055 9.31943 10.0341C9.31943 10.2135 9.17795 10.3533 9.00086 10.3533H2.89747C2.72039 10.3533 2.57891 10.2144 2.57891 10.0341ZM2.89747 12.1698H14.3499C14.5269 12.1698 14.6684 12.3145 14.6684 12.489C14.6684 12.6625 14.527 12.8081 14.3499 12.8081H2.89747C2.72039 12.8081 2.57891 12.6625 2.57891 12.489C2.57891 12.3135 2.72038 12.1698 2.89747 12.1698ZM2.57891 5.13102C2.57891 4.95746 2.72038 4.81282 2.89747 4.81282H9.00086C9.17795 4.81282 9.31943 4.95745 9.31943 5.13102C9.31943 5.30651 9.17795 5.45018 9.00086 5.45018H2.89747C2.72039 5.45018 2.57891 5.30651 2.57891 5.13102ZM20.2409 2.9336L19.3786 3.78884L17.218 1.61937L18.0678 0.76509C18.2362 0.597317 18.5086 0.593461 18.6818 0.76509L20.2399 2.32517C20.417 2.49873 20.4122 2.76681 20.2409 2.9336ZM16.0853 13.028C16.5338 11.1921 16.6993 9.34075 16.5694 7.51662L14.149 9.93679C14.1018 9.98307 14.0547 10.013 13.996 10.0255L10.666 10.7313C10.6419 10.74 10.6188 10.74 10.5948 10.74C10.4042 10.74 10.2435 10.5577 10.2878 10.3533L10.9961 7.024C11.0076 6.96518 11.0432 6.90926 11.0788 6.86683L14.5377 3.40247C10.4878 2.85674 6.41501 2.87024 2.41243 3.44008C1.79842 3.52878 1.31435 3.96268 1.16133 4.57108C0.453005 7.37787 0.453005 10.2261 1.16133 13.0329C1.31435 13.6365 1.79842 14.0704 2.41243 14.1639C3.84063 14.3722 5.29278 14.513 6.70942 14.5766C6.81529 14.5805 6.91056 14.6325 6.95772 14.7174L8.62266 17.1183L10.2751 14.7174C10.3338 14.6354 10.4281 14.5853 10.5234 14.5804C11.9516 14.5168 13.4037 14.377 14.8329 14.1639C15.4595 14.0704 15.932 13.6365 16.085 13.0281L16.0853 13.028ZM13.9248 9.26077L18.931 4.23912L16.7705 2.06965L11.7642 7.09229L13.9248 9.26077ZM11.5043 7.73443L13.2867 9.524L11.0203 10.009L11.5043 7.73443ZM20.6903 1.87008L19.1322 0.313847C18.7117 -0.104616 18.0418 -0.104616 17.6213 0.313847L15.095 2.84393C15.0478 2.83236 14.9891 2.81886 14.9294 2.81114C10.7266 2.21525 6.48821 2.21525 2.33165 2.81114C1.44624 2.93456 0.761027 3.55069 0.549295 4.41366C-0.183098 7.32757 -0.183098 10.277 0.549295 13.1909C0.761983 14.05 1.44624 14.6662 2.3201 14.7934C3.71363 14.9979 5.13023 15.1377 6.53529 15.2061L8.36577 17.8596C8.49762 18.0554 8.76517 18.038 8.88547 17.8596L10.7159 15.2101C12.121 15.1426 13.5377 15.0018 14.9311 14.7935C15.8166 14.6663 16.4893 14.0443 16.7019 13.1824C17.2216 11.0978 17.3747 8.99774 17.1504 6.93048L20.692 3.38418C21.103 2.96764 21.103 2.29172 20.6901 1.87037L20.6903 1.87008Z" fill="#3F3F3F"/>
</svg>
