<svg width="26" height="26" viewBox="0 0 26 26" fill="none" xmlns="http://www.w3.org/2000/svg">
<path d="M19.2411 26C18.5654 26 17.3171 25.9051 15.6464 25.371C12.5629 24.3854 9.51219 22.397 6.57935 19.4614C2.01405 14.8914 0.0461728 11.3733 6.2384e-05 7.69656C-0.00514363 7.29495 0.316142 6.96517 0.717748 6.95996C0.720723 6.95996 0.72407 6.95996 0.727045 6.95996C1.12419 6.95996 1.44845 7.27969 1.45366 7.67832C1.49493 10.94 3.33526 14.1563 7.60753 18.4326C14.153 24.9846 19.3348 24.5584 19.6078 24.5305C20.0659 24.4754 20.5032 24.3649 20.9446 24.1933C21.415 24.0094 21.8661 23.7537 22.2483 23.4545C22.2825 23.4277 22.319 23.4042 22.3562 23.3841L23.2479 22.5102C23.7138 22.0401 23.7346 21.2982 23.2936 20.8553L19.6479 17.2062C19.2058 16.7655 18.4639 16.7874 17.9954 17.2568L16.158 19.0955C15.9293 19.3244 15.5768 19.3743 15.2935 19.2183C15.176 19.1536 15.054 19.0858 14.9261 19.0136C13.7331 18.3522 12.0951 17.4433 10.3489 15.6942C8.60448 13.9482 7.6938 12.3071 7.02892 11.109L6.99211 11.0427C6.93745 10.9437 6.88427 10.8477 6.83184 10.7558C6.66896 10.4706 6.7173 10.1118 6.94934 9.87995L8.78781 8.04086C9.25709 7.57113 9.27866 6.82857 8.83689 6.38564L5.19083 2.735C4.98147 2.52545 4.69737 2.41304 4.38873 2.41862C4.07377 2.42458 3.77442 2.55225 3.54498 2.77855L2.57704 3.80734C2.3978 4.03922 2.23604 4.29382 2.09511 4.56404C1.90955 4.92025 1.47076 5.05871 1.11452 4.87298C0.758653 4.68724 0.620321 4.24803 0.805879 3.89146C0.992923 3.53227 1.21046 3.19319 1.45217 2.88463C1.46555 2.86751 1.48006 2.85076 1.49493 2.83475L2.49449 1.77246C2.49932 1.76725 2.50453 1.76204 2.50973 1.75683C3.00728 1.25844 3.66509 0.977052 4.36121 0.964024C5.06811 0.94988 5.72705 1.21452 6.21827 1.70621L9.86471 5.35685C10.8732 6.3674 10.8509 8.03267 9.81563 9.0689L8.36501 10.5205C8.98266 11.6319 9.83161 13.1189 11.3763 14.6651C12.9232 16.2146 14.4081 17.0617 15.5177 17.6778L16.9672 16.2272C18.0013 15.1918 19.6643 15.1687 20.6746 16.1759L24.3222 19.8273C25.3292 20.8386 25.3072 22.5038 24.2742 23.5404C24.2723 23.5423 24.2701 23.5445 24.2683 23.5464L23.2271 24.567C23.1531 24.6396 23.0668 24.6935 22.9749 24.7282C22.519 25.0613 22.0148 25.3367 21.4723 25.5489C20.9122 25.7666 20.3578 25.9058 19.7747 25.9758C19.7714 25.9762 19.7684 25.9765 19.7651 25.9769C19.6862 25.9851 19.5081 26 19.2411 26ZM26 13.4811C26 6.04767 19.9581 0 12.5317 0C12.1304 0 11.8047 0.325684 11.8047 0.727671C11.8047 1.12966 12.1301 1.45534 12.5317 1.45534C19.1567 1.45534 24.5464 6.85016 24.5464 13.4815C24.5464 13.8831 24.8718 14.2091 25.2734 14.2091C25.675 14.2091 26 13.8831 26 13.4811ZM21.2722 12.9216C21.2722 8.406 17.602 4.73228 13.0906 4.73228C12.6893 4.73228 12.3636 5.05796 12.3636 5.45995C12.3636 5.86194 12.689 6.18762 13.0906 6.18762C16.8002 6.18762 19.8186 9.20885 19.8186 12.922C19.8186 13.3236 20.144 13.6497 20.5456 13.6497C20.9472 13.6497 21.2722 13.3236 21.2722 12.9216Z" fill="#3F3F3F"/>
</svg>
