<svg width="18" height="17" viewBox="0 0 18 17" fill="none" xmlns="http://www.w3.org/2000/svg">
<path d="M15.5434 11.5928L13.1198 11.3184C12.8349 11.2852 12.546 11.3165 12.275 11.4099C12.004 11.5034 11.7578 11.6565 11.555 11.8578L9.79937 13.5991C7.09069 12.2328 4.88905 10.0492 3.51146 7.36264L5.27665 5.61188C5.68694 5.20495 5.88731 4.63714 5.82052 4.05986L5.54382 1.67505C5.48972 1.21339 5.26634 0.787591 4.91621 0.478712C4.56607 0.169833 4.11364 -0.00055102 3.64504 1.3388e-06H1.99434C0.916144 1.3388e-06 0.0192334 0.889574 0.0860246 1.95895C0.591729 10.0408 7.10864 16.495 15.2476 16.9965C16.3258 17.0628 17.2227 16.1732 17.2227 15.1038V13.4666C17.2323 12.5108 16.5071 11.7064 15.5434 11.5928Z" fill="#3F3F3F"/>
</svg>
