<svg width="20" height="22" viewBox="0 0 20 22" fill="none" xmlns="http://www.w3.org/2000/svg">
<path d="M19.7115 14.7476H15.2449C15.0854 14.7476 14.9555 14.875 14.9555 15.0336V16.6835C14.9555 16.8411 15.0845 16.9695 15.2449 16.9695H19.7106C19.8701 16.9695 20 16.8421 20 16.6835V15.0336C20.0009 14.8759 19.8711 14.7476 19.7115 14.7476ZM19.4221 16.3975H15.5345V15.3195L19.4221 15.3186V16.3975ZM11.4614 3.88557C12.5458 3.88557 13.427 3.01386 13.427 1.94324C13.427 0.870788 12.5448 0 11.4614 0C10.377 0 9.49577 0.871703 9.49577 1.94233C9.49485 3.01386 10.377 3.88557 11.4614 3.88557ZM11.4614 0.571038C12.2267 0.571038 12.8491 1.1861 12.8491 1.94233C12.8491 2.69855 12.2267 3.31361 11.4614 3.31361C10.6961 3.31361 10.0737 2.69855 10.0737 1.94233C10.0737 1.1861 10.6961 0.571038 11.4614 0.571038ZM7.61461 18.3655C7.6545 18.3848 7.69809 18.3949 7.74262 18.3949C7.77416 18.3949 7.80477 18.3894 7.83538 18.3793C7.90773 18.3545 7.96803 18.3032 8.00142 18.2354L9.94756 14.3361C10.0264 14.1775 10.0709 14.029 10.0904 13.853L10.3511 11.5385L11.9651 12.5661V15.8733C11.9651 16.5461 12.5198 17.0943 13.2007 17.0943H14.1469C14.3064 17.0943 14.4363 16.9669 14.4363 16.8083V12.0271C14.4363 11.523 14.1905 11.0775 13.761 10.8044L11.5254 9.38175L12.0727 6.63462L13.2091 7.63375C13.5096 7.89773 13.8658 8.02055 14.2675 7.99948L15.9539 7.90965C16.3453 7.88857 16.7062 7.71808 16.9687 7.42842C17.2312 7.13876 17.3648 6.76661 17.3435 6.37887L17.3295 6.13229C17.3212 5.97463 17.1839 5.85455 17.0253 5.86281L14.3796 6.00489L12.6413 4.47687C12.4363 4.29721 12.2164 4.18904 11.9474 4.13681L9.19705 3.60242C8.92527 3.54926 8.67666 3.56759 8.41599 3.66017L6.01636 4.50989C5.6416 4.6428 5.36239 4.88937 5.18892 5.2441L4.4496 6.74922C4.27799 7.09846 4.2548 7.49261 4.38374 7.86018C4.42085 7.96651 4.47001 8.06642 4.52845 8.15899C4.46352 8.17274 4.39951 8.19015 4.33643 8.21215C3.91623 8.35606 3.57857 8.65305 3.38378 9.0472C3.38378 9.0472 3.38378 9.04812 3.38285 9.04812L3.3476 9.11962L2.36618 8.64847C2.03874 8.49173 1.64356 8.62647 1.48496 8.95005L0.971973 9.99226C0.971045 9.99501 0.970118 9.99776 0.968263 10.0005C0.966407 10.0051 0.963624 10.0106 0.961769 10.0152C0.959914 10.0198 0.958986 10.0243 0.957131 10.028C0.955276 10.0326 0.954348 10.0363 0.953421 10.0408C0.951565 10.0454 0.950638 10.0509 0.94971 10.0555C0.948782 10.0592 0.947855 10.0638 0.946927 10.0674C0.946 10.0729 0.945072 10.0775 0.945072 10.083C0.944144 10.0867 0.944144 10.0913 0.944144 10.0949C0.943217 10.0995 0.943217 10.105 0.943217 10.1096V10.1224C0.943217 10.127 0.943217 10.1316 0.944144 10.1362C0.944144 10.1408 0.945072 10.1463 0.946 10.1508C0.946927 10.1554 0.946927 10.1591 0.947855 10.1628C0.948782 10.1683 0.94971 10.1728 0.950638 10.1783C0.951565 10.182 0.952493 10.1866 0.953421 10.1903C0.954348 10.1948 0.956203 10.2003 0.958059 10.2049C0.959914 10.2095 0.960841 10.2132 0.962697 10.2178C0.964552 10.2223 0.96548 10.226 0.968263 10.2306C0.970118 10.2352 0.972901 10.2407 0.975683 10.2452C0.976611 10.248 0.977539 10.2507 0.979394 10.2526C0.980321 10.2544 0.981249 10.2553 0.982177 10.2572C0.983104 10.259 0.984032 10.2599 0.984959 10.2617C1.00537 10.2984 1.02763 10.336 1.05082 10.3727L0.0740341 12.3581C-0.00110371 12.5102 -0.0196548 12.6798 0.0211592 12.8375C0.0656848 13.0089 0.179782 13.15 0.332839 13.2234L4.94213 15.4343C5.02005 15.4719 5.10539 15.4902 5.19259 15.4902C5.27607 15.4902 5.36142 15.4728 5.44212 15.437C5.5924 15.372 5.71576 15.2519 5.79092 15.0997L6.76585 13.1152C6.80945 13.1097 6.85305 13.1042 6.89479 13.0978C6.89572 13.0978 6.89665 13.0978 6.89757 13.0969C6.89943 13.0969 6.90221 13.096 6.90407 13.096C6.91427 13.0941 6.92447 13.0923 6.93375 13.0896C6.93468 13.0896 6.93561 13.0886 6.93653 13.0886C6.94674 13.0859 6.95787 13.0822 6.96807 13.0776C6.97085 13.0767 6.97364 13.0758 6.97642 13.074C6.9857 13.0694 6.99497 13.0648 7.00425 13.0602C7.0061 13.0593 7.00703 13.0584 7.00889 13.0575C7.01909 13.0511 7.02837 13.0446 7.03764 13.0373C7.04043 13.0355 7.04228 13.0327 7.04506 13.0309C7.05156 13.0254 7.05898 13.019 7.06454 13.0126L7.07196 13.0052C7.07939 12.997 7.08681 12.9878 7.0933 12.9777C7.09515 12.9759 7.09608 12.9731 7.09794 12.9704C7.1035 12.9621 7.10907 12.953 7.11371 12.9438C7.11463 12.942 7.11556 12.9411 7.11649 12.9392L7.62947 11.8952C7.7881 11.5716 7.65081 11.1811 7.32428 11.0235L6.34286 10.5523L6.37811 10.4808C6.57198 10.0858 6.59888 9.63939 6.45325 9.22414C6.34008 8.90057 6.13136 8.62649 5.85587 8.43034L6.90036 6.30376L8.11554 5.87296L7.55896 8.6696C7.45413 9.19575 7.63409 9.70448 8.03204 10.0445L7.65356 13.4114L6.20369 16.3162C5.90222 16.9203 6.15453 17.6536 6.7649 17.9515L7.61461 18.3655ZM2.18343 11.2719C2.18343 11.2728 2.18251 11.2728 2.18251 11.2737L2.12407 11.3919L1.98214 11.3241L2.17416 10.9336L2.31608 11.0014L2.18343 11.2719ZM5.27054 14.8513C5.2455 14.9017 5.20468 14.9201 5.19448 14.9201L0.588749 12.711C0.5804 12.7018 0.569269 12.6587 0.594314 12.6074L1.44123 10.8841C1.46534 10.9107 1.49132 10.9373 1.51636 10.9639L1.33641 11.3305C1.30301 11.3984 1.29837 11.4772 1.32342 11.5487C1.34847 11.6202 1.40134 11.6788 1.46999 11.7118L2.13231 12.0299C2.17313 12.0492 2.2158 12.0583 2.25847 12.0583C2.36607 12.0583 2.46904 11.9988 2.51914 11.897L2.55624 11.8218C2.87441 12.0345 3.21857 12.2307 3.58311 12.4057C3.94768 12.5808 4.31685 12.7266 4.68234 12.8421L4.64523 12.9172C4.61184 12.9851 4.6072 13.0639 4.63224 13.1354C4.65729 13.2069 4.71016 13.2655 4.77881 13.2985L5.44114 13.6166C5.48102 13.6359 5.5237 13.645 5.56729 13.645C5.59883 13.645 5.6313 13.6395 5.66191 13.6295C5.73426 13.6047 5.79363 13.5525 5.82702 13.4846L6.00698 13.118C6.04409 13.1207 6.08026 13.1244 6.11737 13.1271L5.27054 14.8513ZM5.4338 12.9796L5.29188 12.9117L5.48389 12.5212L5.62582 12.5891L5.4338 12.9796ZM7.11001 11.6468L6.66475 12.5524C6.54509 12.5643 6.41614 12.5689 6.27886 12.5643C6.30484 12.5002 6.30762 12.4296 6.28443 12.3636C6.25938 12.2921 6.20651 12.2334 6.13786 12.2004L5.47554 11.8823C5.33176 11.8136 5.15923 11.8723 5.08872 12.0143L4.93752 12.3232C4.57203 12.2123 4.20191 12.0684 3.83459 11.8924C3.46727 11.7164 3.12403 11.5184 2.8105 11.303L2.9617 10.9941C2.9951 10.9263 2.99974 10.8475 2.97469 10.776C2.94964 10.7045 2.89677 10.6458 2.82813 10.6128L2.1658 10.2948C2.09716 10.2618 2.01738 10.2572 1.94503 10.2819C1.87917 10.3048 1.82444 10.3507 1.79012 10.4112C1.70199 10.3076 1.625 10.2049 1.56007 10.1041L2.00532 9.19846C2.0248 9.15904 2.07489 9.14254 2.11385 9.16087L5.83073 10.9437L7.07189 11.5395C7.11178 11.5579 7.12949 11.6074 7.11001 11.6468ZM5.85866 10.2333L5.82341 10.3048L3.86799 9.36713L3.90324 9.29563C4.03032 9.03805 4.25108 8.84373 4.52474 8.75024C4.79931 8.65674 5.09429 8.67416 5.35496 8.79882C5.61656 8.9244 5.81228 9.14255 5.90689 9.41296C6.00243 9.68336 5.98481 9.97484 5.85866 10.2333ZM8.12761 8.7814L8.78251 5.49081C8.78251 5.48897 8.78344 5.48714 8.78344 5.48622C8.78436 5.48072 8.78529 5.47522 8.78622 5.46973C8.78715 5.46606 8.78715 5.46148 8.78715 5.45781C8.78807 5.45231 8.78807 5.44773 8.78807 5.44223V5.42939C8.78807 5.42481 8.78715 5.42023 8.78715 5.41564C8.78622 5.41106 8.78622 5.40556 8.78529 5.40098C8.78436 5.39731 8.78436 5.39273 8.78344 5.38906C8.78251 5.38356 8.78158 5.37806 8.78065 5.37256C8.77973 5.3689 8.7788 5.36523 8.77787 5.36156C8.77602 5.35606 8.77509 5.34965 8.7723 5.34506C8.77138 5.34323 8.77138 5.34231 8.77045 5.34048C8.76952 5.33865 8.76859 5.33681 8.76767 5.33498C8.76581 5.32948 8.76303 5.3249 8.76117 5.3194C8.75932 5.31573 8.75746 5.31115 8.75561 5.30748C8.75375 5.3029 8.75097 5.29923 8.74911 5.29557C8.74633 5.29098 8.74355 5.2864 8.74077 5.28273C8.73891 5.27907 8.73613 5.27632 8.73427 5.27265C8.73149 5.26807 8.72778 5.26348 8.72407 5.25982C8.72129 5.25707 8.71943 5.25432 8.71665 5.25065C8.71294 5.24698 8.70923 5.2424 8.70552 5.23873C8.70273 5.23598 8.69995 5.23323 8.69624 5.22957C8.69253 5.22682 8.68975 5.22315 8.68604 5.21949C8.68233 5.21674 8.67862 5.21307 8.6749 5.21032C8.67212 5.20757 8.66841 5.20482 8.6647 5.20299C8.66006 5.20024 8.65542 5.19657 8.65079 5.19382C8.648 5.19199 8.64429 5.19015 8.64151 5.18832C8.63687 5.18557 8.63131 5.18282 8.62667 5.18007C8.62296 5.17824 8.62018 5.17732 8.61646 5.17549C8.61183 5.17365 8.60626 5.1709 8.60162 5.16907C8.59791 5.16724 8.59327 5.16632 8.58956 5.16449C8.58493 5.16265 8.58029 5.16174 8.57565 5.1599C8.57101 5.15807 8.56545 5.15715 8.56081 5.15624C8.55802 5.15532 8.55617 5.15532 8.55339 5.1544C8.55153 5.1544 8.54968 5.15349 8.54782 5.15349C8.54226 5.15257 8.53669 5.15165 8.53112 5.15165C8.52649 5.15074 8.52278 5.15074 8.51814 5.15074C8.5135 5.14982 8.50793 5.14982 8.5033 5.14982H8.48938C8.48474 5.14982 8.48103 5.15074 8.47639 5.15074C8.47083 5.15165 8.46619 5.15165 8.46063 5.15257C8.45691 5.15349 8.4532 5.15349 8.44949 5.1544C8.44393 5.15532 8.43743 5.15624 8.43187 5.15807C8.42816 5.15899 8.42538 5.1599 8.42167 5.16082C8.4161 5.16265 8.40961 5.16449 8.40404 5.16632C8.40219 5.16724 8.40126 5.16724 8.3994 5.16724L6.59333 5.80705C6.58869 5.80889 6.58498 5.81072 6.58127 5.81164C6.57663 5.81347 6.57292 5.81439 6.56921 5.81714C6.56457 5.81897 6.559 5.82172 6.55437 5.82447C6.55065 5.8263 6.54787 5.82814 6.54416 5.82997C6.53952 5.83272 6.53489 5.83639 6.53025 5.83913C6.52746 5.84097 6.52375 5.84372 6.52097 5.84555C6.51633 5.8483 6.51262 5.85197 6.50798 5.85563C6.5052 5.85838 6.50149 5.86022 6.49871 5.86297L6.48758 5.87397C6.48479 5.87672 6.48201 5.87947 6.47923 5.88313C6.47552 5.8868 6.47273 5.89138 6.46902 5.89505C6.46624 5.8978 6.46346 5.90147 6.46068 5.90513C6.45789 5.90972 6.45418 5.9143 6.4514 5.91796C6.44954 5.92163 6.44676 5.92438 6.44491 5.92805C6.44212 5.93355 6.43934 5.93813 6.43656 5.94363C6.4347 5.94638 6.43378 5.94913 6.43192 5.95188L5.34661 8.16005C5.14996 8.05555 5.00247 7.88322 4.92826 7.67241C4.84941 7.44875 4.86425 7.2095 4.96815 6.99868L5.70746 5.49357C5.81414 5.27541 5.97925 5.12967 6.21023 5.0481L8.60987 4.19838C8.77035 4.14155 8.91692 4.13055 9.08388 4.16355L11.8343 4.69793C11.9994 4.73002 12.1302 4.79418 12.2554 4.90509L14.0828 6.51104L14.0837 6.51195C14.0837 6.51195 14.0846 6.51195 14.0846 6.51287L14.0856 6.51379L14.0865 6.5147L14.0874 6.51562C14.1162 6.53945 14.1477 6.55779 14.182 6.56878C14.2136 6.57978 14.2479 6.58437 14.2832 6.58437H14.2841C14.2869 6.58437 14.2896 6.58437 14.2924 6.58345L16.7664 6.45054C16.7692 6.67145 16.6885 6.88226 16.5373 7.0491C16.3777 7.22509 16.1588 7.32867 15.9213 7.34151L14.2349 7.43134C13.9872 7.44417 13.7776 7.37175 13.593 7.20951L12.0828 5.88131C12.0634 5.86389 12.042 5.84831 12.0179 5.83639C11.9854 5.81989 11.9502 5.80981 11.9149 5.80706C11.8732 5.80248 11.8315 5.80798 11.7934 5.82081C11.7563 5.83364 11.7211 5.85381 11.6905 5.88131C11.6654 5.90422 11.6431 5.93264 11.6274 5.9638C11.6153 5.98855 11.607 6.01422 11.6023 6.03988L10.9205 9.46165V9.46348C10.9196 9.4699 10.9187 9.47632 10.9177 9.48273C10.9168 9.48548 10.9168 9.48915 10.9168 9.4919C10.9159 9.4974 10.9159 9.50198 10.9159 9.50748C10.9159 9.51206 10.915 9.51665 10.9159 9.52031C10.9159 9.52398 10.9168 9.52765 10.9168 9.53131C10.9168 9.53681 10.9177 9.54323 10.9177 9.54873C10.9177 9.55056 10.9187 9.5524 10.9187 9.55423C10.9196 9.56156 10.9205 9.5689 10.9224 9.57531C10.9224 9.57623 10.9233 9.57714 10.9233 9.57898C10.9252 9.58723 10.927 9.59456 10.9298 9.60189C10.9307 9.60464 10.9317 9.60648 10.9326 9.60831C10.9344 9.61473 10.9372 9.62114 10.9391 9.62664C10.9409 9.63214 10.9437 9.63673 10.9465 9.64131C10.9484 9.64406 10.9493 9.64773 10.9511 9.65048C10.9549 9.65689 10.9586 9.66239 10.9623 9.66881C10.9632 9.67064 10.9641 9.67247 10.9651 9.67431C10.9688 9.67981 10.9734 9.68531 10.9771 9.69081C10.979 9.69264 10.9799 9.69539 10.9818 9.69722C10.9855 9.70181 10.9892 9.70547 10.9929 9.70914C10.9957 9.71189 10.9985 9.71556 11.0012 9.71831C11.004 9.72106 11.0068 9.72381 11.0105 9.72656C11.0151 9.73022 11.0189 9.73389 11.0235 9.73755C11.0254 9.73939 11.0281 9.74122 11.0309 9.74305C11.0365 9.74764 11.042 9.7513 11.0476 9.75497C11.0485 9.75497 11.0485 9.75589 11.0495 9.75589L13.4501 11.2839C13.7144 11.4516 13.8601 11.7156 13.8601 12.0264V16.5224H13.2024C12.8397 16.5224 12.5447 16.2309 12.5447 15.8725L12.5438 12.4104V12.4076C12.5438 12.4021 12.5429 12.3957 12.5429 12.3902C12.5429 12.3866 12.5419 12.382 12.5419 12.3783C12.541 12.3737 12.541 12.3701 12.5401 12.3655C12.5392 12.36 12.5382 12.3554 12.5373 12.3499C12.5364 12.3471 12.5354 12.3444 12.5354 12.3417C12.5336 12.3352 12.5327 12.3288 12.5299 12.3224C12.529 12.3206 12.529 12.3197 12.528 12.3178C12.5252 12.3105 12.5225 12.3032 12.5197 12.2958C12.5187 12.294 12.5178 12.2912 12.5169 12.2894C12.5141 12.283 12.5113 12.2775 12.5085 12.272C12.5058 12.2665 12.5021 12.2619 12.4993 12.2564C12.4974 12.2537 12.4965 12.2509 12.4946 12.2482C12.4909 12.2427 12.4863 12.2362 12.4816 12.2307C12.4807 12.2289 12.4789 12.2271 12.4779 12.2262C12.4742 12.2216 12.4696 12.217 12.4659 12.2124C12.464 12.2097 12.4612 12.2078 12.4594 12.2051C12.4557 12.2023 12.4529 12.1987 12.4492 12.1959C12.4455 12.1932 12.4418 12.1895 12.438 12.1867C12.4353 12.1849 12.4325 12.1822 12.4297 12.1803C12.4251 12.1767 12.4195 12.173 12.4149 12.1693C12.4139 12.1684 12.4139 12.1684 12.413 12.1684L8.52158 9.69254C8.20527 9.49363 8.055 9.14441 8.12733 8.78142L8.12761 8.7814ZM6.72319 16.5699L8.19532 13.6203C8.20181 13.6074 8.20645 13.5955 8.21109 13.5818C8.21201 13.579 8.21294 13.5772 8.21294 13.5744C8.21758 13.5588 8.22129 13.5433 8.22315 13.5277C8.22315 13.5268 8.22407 13.5258 8.22407 13.5249L8.57472 10.4085L9.80937 11.194L9.51717 13.7907C9.50511 13.8989 9.47913 13.986 9.42997 14.084L7.6109 17.7266L7.02186 17.4388C6.69626 17.2811 6.56271 16.8907 6.72319 16.5699ZM15.0541 17.2629H10.5885C10.4289 17.2629 10.2991 17.3903 10.2991 17.5489V19.1988C10.2991 19.3564 10.428 19.4848 10.5885 19.4848H15.0541C15.2137 19.4848 15.3435 19.3574 15.3435 19.1988V17.5489C15.3435 17.3912 15.2137 17.2629 15.0541 17.2629ZM14.7656 18.9128H10.878V17.8348H14.7656V18.9128ZM11.5144 19.7781H7.04881C6.88926 19.7781 6.75938 19.9055 6.75938 20.0641V21.714C6.75938 21.8717 6.88832 22 7.04881 22H11.5144C11.674 22 11.8039 21.8726 11.8039 21.714V20.0641C11.8039 19.9064 11.6749 19.7781 11.5144 19.7781ZM11.226 21.428H7.33833V20.35H11.226V21.428Z" fill="#3F3F3F"/>
</svg>
