<svg width="232" height="41" viewBox="0 0 232 41" fill="none" xmlns="http://www.w3.org/2000/svg">
<g clip-path="url(#clip0_3794_2027)">
<path fill-rule="evenodd" clip-rule="evenodd" d="M96.3231 16.28C95.0431 15.04 93.5431 14.36 91.4731 14.36C90.0031 14.36 88.3331 14.81 87.2231 15.79V6.07H82.7831V33H87.2231V22.91C87.2231 18.79 90.2431 18.46 91.3031 18.46C93.9531 18.46 93.8831 20.87 93.8831 22.32V32.99H98.3231V22.34C98.3231 19.79 97.7731 17.68 96.3231 16.27V16.28ZM76.8331 27.53C75.8631 28.37 74.5831 28.84 73.1831 28.84C70.0931 28.84 67.8231 26.64 67.8231 23.62C67.8231 20.6 70.0231 18.5 73.1831 18.5C74.5631 18.5 75.8631 18.94 76.8531 19.79L77.5331 20.35L80.5331 17.45L79.7831 16.79C78.0231 15.25 75.6831 14.38 73.1931 14.38C67.6331 14.38 63.6031 18.26 63.6031 23.6C63.6031 28.94 67.7331 32.93 73.1931 32.93C75.7331 32.93 78.0931 32.06 79.8331 30.5L80.5631 29.85L77.5231 26.95L76.8431 27.53H76.8331ZM59.5331 8.27H55.1031V14.72H51.7831V19.02H55.1031V33H59.5331V19.02H62.8531V14.72H59.5331V8.27ZM46.2631 24.43C46.2631 28.54 42.7031 28.87 41.6431 28.87C38.9931 28.87 38.5131 26.46 38.5131 25.01V14.72H34.0831V24.98C34.0831 27.53 34.9031 29.63 36.3531 31.03C37.6331 32.27 39.5431 32.95 41.6131 32.95C43.0831 32.95 45.1631 32.51 46.2731 31.52V32.99H50.7031V14.73H46.2731V24.43H46.2631ZM26.4531 32.93H30.9831V6H26.4531V32.93Z" fill="#17313B"/>
<path fill-rule="evenodd" clip-rule="evenodd" d="M73.0225 20.5698C74.7925 20.5698 76.2325 21.9698 76.2325 23.6998C76.2325 25.4298 74.7925 26.8298 73.0225 26.8298C71.2525 26.8298 69.8125 25.4298 69.8125 23.6998C69.8125 21.9698 71.2525 20.5698 73.0225 20.5698Z" fill="#E62415"/>
<path fill-rule="evenodd" clip-rule="evenodd" d="M20.1144 26.2701C18.4244 27.9601 16.1444 28.8701 13.7344 28.8701C8.79437 28.8701 5.20437 25.0901 5.20437 19.9101C5.20437 14.7301 8.78437 10.9301 13.7244 10.9301C14.9144 10.9301 16.0544 11.1501 17.1544 11.6001C18.2544 12.0501 19.2344 12.6801 20.0844 13.5101L20.7544 14.1701L23.7144 11.2901L23.0644 10.6301C20.6044 8.17009 17.2844 6.83009 13.7144 6.83009C6.45437 6.82009 0.984375 12.4501 0.984375 19.9301C0.984375 27.4101 6.47437 33.0001 13.7244 33.0001C17.3144 33.0001 20.6344 31.6401 23.0944 29.1801L23.7444 28.5201L20.8044 25.5901L20.1044 26.2701H20.1144Z" fill="#17313B"/>
</g>
<path d="M163.074 18.2356C163.478 17.8445 163.764 17.3475 163.899 16.8015C164.033 16.2555 164.012 15.6825 163.836 15.1483C163.664 14.6125 163.345 14.136 162.915 13.7733C162.484 13.4107 161.961 13.1766 161.404 13.0979L151.234 11.6202C151.021 11.5893 150.818 11.5068 150.644 11.3801C150.47 11.2534 150.329 11.0861 150.233 10.8928L145.687 1.67868C145.44 1.17337 145.055 0.747899 144.578 0.451008C144.1 0.154118 143.548 -0.00217957 142.986 2.2961e-05C142.423 -0.00202134 141.872 0.154351 141.394 0.451232C140.916 0.748113 140.532 1.1735 140.285 1.67868L135.738 10.8936C135.544 11.2864 135.169 11.558 134.736 11.6211L124.567 13.0987C124.009 13.1774 123.486 13.4115 123.056 13.7742C122.625 14.1368 122.306 14.6134 122.134 15.1491C121.959 15.6834 121.937 16.2563 122.072 16.8023C122.206 17.3483 122.492 17.8454 122.896 18.2365L130.254 25.4086C130.568 25.7147 130.712 26.1554 130.638 26.586L128.902 36.7134C128.823 37.1438 128.842 37.5862 128.955 38.0086C129.069 38.431 129.275 38.8229 129.559 39.1557C130.455 40.2213 132.02 40.5459 133.272 39.8883L142.367 35.1063C142.558 35.0084 142.77 34.9574 142.986 34.9574C143.201 34.9574 143.413 35.0084 143.605 35.1063L152.7 39.8883C153.131 40.1183 153.612 40.2387 154.101 40.239C154.99 40.239 155.833 39.8437 156.412 39.1557C156.696 38.8229 156.902 38.431 157.016 38.0086C157.129 37.5862 157.148 37.1438 157.069 36.7134L155.332 26.586C155.296 26.3734 155.312 26.1551 155.379 25.95C155.446 25.7449 155.561 25.5591 155.716 25.4086L163.074 18.2356Z" fill="url(#paint0_linear_3794_2027)"/>
<path d="M190.6 18.4892C190.674 16.5138 191.32 14.9908 192.539 13.92C193.757 12.8492 195.409 12.3138 197.495 12.3138C198.88 12.3138 200.062 12.5538 201.04 13.0338C202.037 13.5138 202.785 14.1692 203.283 15C203.8 15.8308 204.059 16.7631 204.059 17.7969C204.059 19.0154 203.754 20.0123 203.145 20.7877C202.535 21.5446 201.825 22.0615 201.012 22.3385V22.4492C202.065 22.8 202.895 23.3815 203.505 24.1938C204.114 25.0062 204.419 26.0492 204.419 27.3231C204.419 28.4677 204.151 29.4831 203.615 30.3692C203.099 31.2369 202.332 31.92 201.317 32.4185C200.32 32.9169 199.129 33.1662 197.745 33.1662C195.529 33.1662 193.757 32.6215 192.428 31.5323C191.117 30.4431 190.425 28.8 190.351 26.6031H194.948C194.966 27.4154 195.197 28.0615 195.64 28.5415C196.083 29.0031 196.729 29.2338 197.579 29.2338C198.299 29.2338 198.852 29.0308 199.24 28.6246C199.646 28.2 199.849 27.6462 199.849 26.9631C199.849 26.0769 199.563 25.44 198.991 25.0523C198.437 24.6462 197.542 24.4431 196.305 24.4431H195.419V20.5938H196.305C197.246 20.5938 198.003 20.4369 198.575 20.1231C199.166 19.7908 199.462 19.2092 199.462 18.3785C199.462 17.7138 199.277 17.1969 198.908 16.8277C198.539 16.4585 198.031 16.2738 197.385 16.2738C196.683 16.2738 196.157 16.4862 195.806 16.9108C195.474 17.3354 195.28 17.8615 195.225 18.4892H190.6ZM209.887 33.2215C209.056 33.2215 208.373 32.9815 207.838 32.5015C207.321 32.0031 207.062 31.3938 207.062 30.6738C207.062 29.9354 207.321 29.3169 207.838 28.8185C208.373 28.32 209.056 28.0708 209.887 28.0708C210.699 28.0708 211.364 28.32 211.881 28.8185C212.416 29.3169 212.684 29.9354 212.684 30.6738C212.684 31.3938 212.416 32.0031 211.881 32.5015C211.364 32.9815 210.699 33.2215 209.887 33.2215ZM229.25 16.9108H220.61V20.7323C220.979 20.3262 221.496 19.9938 222.161 19.7354C222.826 19.4769 223.546 19.3477 224.321 19.3477C225.706 19.3477 226.85 19.6615 227.755 20.2892C228.678 20.9169 229.352 21.7292 229.776 22.7262C230.201 23.7231 230.413 24.8031 230.413 25.9662C230.413 28.1262 229.804 29.8431 228.586 31.1169C227.367 32.3723 225.65 33 223.435 33C221.958 33 220.675 32.7508 219.586 32.2523C218.496 31.7354 217.656 31.0246 217.066 30.12C216.475 29.2154 216.152 28.1723 216.096 26.9908H220.721C220.832 27.5631 221.099 28.0431 221.524 28.4308C221.949 28.8 222.53 28.9846 223.269 28.9846C224.136 28.9846 224.782 28.7077 225.207 28.1538C225.632 27.6 225.844 26.8615 225.844 25.9385C225.844 25.0338 225.622 24.3415 225.179 23.8615C224.736 23.3815 224.09 23.1415 223.241 23.1415C222.613 23.1415 222.096 23.2985 221.69 23.6123C221.284 23.9077 221.016 24.3046 220.887 24.8031H216.318V12.7569H229.25V16.9108Z" fill="black"/>
<defs>
<linearGradient id="paint0_linear_3794_2027" x1="160.176" y1="-3711.61" x2="118.133" y2="-3711.57" gradientUnits="userSpaceOnUse">
<stop stop-color="#04BFD7"/>
<stop offset="0.7949" stop-color="#63388B"/>
</linearGradient>
<clipPath id="clip0_3794_2027">
<rect width="97.34" height="27" fill="white" transform="translate(0.984375 6)"/>
</clipPath>
</defs>
</svg>
