<svg width="14" height="15" viewBox="0 0 14 15" fill="none" xmlns="http://www.w3.org/2000/svg">
<path d="M12.8538 1.6739H10.9361C10.9368 1.63728 10.9368 1.59992 10.9368 1.56257C10.9368 1.43438 10.8398 1.32964 10.7195 1.32817C9.30788 1.31206 8.10327 0.882824 7.13849 0.0521887C7.05805 -0.0173962 6.94253 -0.0173962 6.86209 0.0521887C5.8974 0.882093 4.69279 1.31131 3.28109 1.32817C3.16076 1.32964 3.06381 1.43438 3.06381 1.56257C3.06381 1.59992 3.0645 1.63655 3.0645 1.6739H1.1462C0.514319 1.6739 0 2.2218 0 2.89568V11.3845C0 12.0576 0.514319 12.6055 1.1462 12.6055H5.72278L5.61208 13.6749C5.56945 14.0873 5.30679 14.5312 4.83098 14.5312H3.82986C3.70815 14.5312 3.60983 14.636 3.60983 14.7656C3.60983 14.8953 3.70815 15 3.82986 15H10.1695C10.2912 15 10.3895 14.8953 10.3895 14.7656C10.3895 14.636 10.2912 14.5312 10.1695 14.5312H9.16903C8.69323 14.5312 8.42988 14.0873 8.38793 13.6749L8.27723 12.6055H12.8531C13.485 12.6055 13.9993 12.0576 13.9993 11.3845L14 2.89568C14 2.22179 13.4857 1.6739 12.8538 1.6739ZM7.0004 0.532705C7.96784 1.31354 9.14154 1.73618 10.4953 1.79183C10.4321 5.87329 8.67526 8.13078 7.0004 8.90709C5.32545 8.13067 3.56867 5.87235 3.50548 1.79183C4.85934 1.73616 6.03299 1.31352 7.0004 0.532705ZM1.14625 2.14269H3.07564C3.14577 3.87136 3.53081 5.43452 4.19984 6.69293C4.87986 7.97184 5.81979 8.90055 6.91727 9.37815C6.94408 9.38987 6.97228 9.39573 7.00047 9.39573C7.02866 9.39573 7.05685 9.38987 7.08367 9.37815C8.18106 8.90057 9.12095 7.97252 9.8011 6.69293C10.4701 5.43454 10.8552 3.87139 10.9253 2.14269H12.854C13.2431 2.14269 13.5601 2.48037 13.5601 2.89568V10.6629H0.440303V2.89568C0.440303 2.48037 0.757284 2.14269 1.14645 2.14269H1.14625ZM7.95057 13.7255C7.98289 14.039 8.09428 14.3159 8.25998 14.5312H5.74075C5.90646 14.3159 6.01716 14.0397 6.05016 13.7255L6.16568 12.6048H7.83583L7.95135 13.7255H7.95057ZM12.8531 12.136H1.14555C0.756383 12.136 0.439402 11.7983 0.439402 11.3838V11.1318H13.5592V11.3838C13.5592 11.7983 13.2423 12.136 12.8531 12.136ZM7.39927 11.6335C7.39927 11.7632 7.30095 11.8679 7.17924 11.8679H6.821C6.6993 11.8679 6.60097 11.7632 6.60097 11.6335C6.60097 11.5039 6.6993 11.3991 6.821 11.3991H7.17924C7.30095 11.3991 7.39927 11.5039 7.39927 11.6335ZM6.8987 8.44145C6.93033 8.45903 6.96539 8.46782 6.99977 8.46782C7.03415 8.46782 7.06922 8.45903 7.10085 8.44145C7.89638 8.00344 8.59155 7.25484 9.11208 6.27697C9.69172 5.18777 10.0314 3.87302 10.1215 2.3699C10.129 2.24465 10.0431 2.13551 9.9255 2.12233C8.87762 2.00073 7.93433 1.65061 7.12005 1.08147C7.04648 1.03019 6.95228 1.03019 6.87871 1.08147C6.06461 1.64986 5.12123 2.00072 4.07327 2.12233C3.95638 2.13624 3.87044 2.24538 3.8773 2.3699C3.96806 3.87368 4.30704 5.18769 4.88668 6.27697C5.40718 7.25482 6.10233 8.00342 6.89791 8.44145H6.8987ZM4.33265 2.56042C5.31589 2.41685 6.21186 2.07991 6.99973 1.55545C7.7884 2.07991 8.68363 2.41686 9.66682 2.56042C9.56231 3.90012 9.24671 5.07218 8.72896 6.04632C8.40786 6.64915 7.85091 7.46148 6.99968 7.9676C6.14777 7.46146 5.5915 6.64915 5.2704 6.04632C4.75197 5.07213 4.43715 3.90096 4.33265 2.56042ZM6.4993 5.49334L5.71889 4.69348C5.63157 4.60338 5.62882 4.45543 5.7127 4.3624C5.79728 4.26938 5.93616 4.26645 6.02349 4.35581L6.64094 4.98867L7.96591 3.4424C8.04773 3.34645 8.18731 3.33986 8.2767 3.42775C8.36677 3.51492 8.37296 3.66361 8.29045 3.75883L6.81352 5.48309C6.77364 5.52997 6.71725 5.55707 6.65812 5.55927H6.65125C6.59418 5.55927 6.53986 5.53583 6.4986 5.49407L6.4993 5.49334Z" fill="#3F3F3F"/>
</svg>
