<svg width="16" height="16" viewBox="0 0 16 16" fill="none" xmlns="http://www.w3.org/2000/svg">
<path d="M14.9993 4.73074V5.80781C14.9993 6.06924 14.7892 6.25998 14.4991 6.25998H14.1169C14.0709 6.25998 14.0282 6.28933 14.0162 6.32801C13.9602 6.50407 13.8882 6.67615 13.8048 6.8402C13.7861 6.87755 13.7948 6.9289 13.8268 6.96158L14.0962 7.23102C14.301 7.43576 14.315 7.71921 14.1303 7.90394L13.3686 8.66556C13.1825 8.84962 12.9011 8.83629 12.6957 8.63154L12.4262 8.36211C12.3935 8.32943 12.3428 8.31943 12.3048 8.3401C12.1408 8.42347 11.9687 8.4955 11.7946 8.55152C11.7539 8.56486 11.7246 8.60754 11.7246 8.65423V9.08439C11.7246 9.33381 11.5212 9.53655 11.2724 9.53655H10.1953C9.94584 9.53655 9.74308 9.33314 9.74308 9.08439V8.44414C9.74308 8.3501 9.81978 8.27341 9.91382 8.27341C10.0079 8.27341 10.0846 8.3501 10.0846 8.44414V9.08439C10.0846 9.14574 10.1339 9.1951 10.1953 9.1951H11.2724C11.3338 9.1951 11.3831 9.14574 11.3831 9.08439V8.65423C11.3831 8.45816 11.5058 8.28541 11.6906 8.2274C11.8493 8.17604 12.0027 8.11269 12.1514 8.03599C12.3242 7.94862 12.5323 7.9833 12.6703 8.12136L12.9398 8.39079C12.9771 8.42813 13.0198 8.45081 13.0578 8.45414C13.0852 8.45614 13.1105 8.44547 13.1312 8.4248L13.8928 7.66318C13.9135 7.64251 13.9235 7.6185 13.9222 7.58982C13.9202 7.55247 13.8982 7.51112 13.8588 7.47177L13.5894 7.20234C13.4513 7.06429 13.4166 6.85555 13.504 6.68347C13.5794 6.53675 13.6441 6.38136 13.6954 6.22063C13.7535 6.0379 13.9262 5.91517 14.1223 5.91517H14.5044C14.5811 5.91517 14.6632 5.88583 14.6632 5.80447V4.72739C14.6632 4.64535 14.5811 4.61668 14.5044 4.61668H14.1223C13.9262 4.61668 13.7534 4.49396 13.6954 4.31122C13.6441 4.15249 13.5794 3.99711 13.504 3.84838C13.4166 3.67765 13.4513 3.46956 13.5894 3.33086L13.8608 3.05943C13.9155 3.00474 13.9529 2.92605 13.8948 2.87002L13.1332 2.1084C13.0752 2.05038 12.9965 2.08773 12.9418 2.14241L12.6703 2.41384C12.5303 2.5539 12.3222 2.58791 12.1494 2.49921C12.0027 2.42385 11.8487 2.35916 11.6919 2.3078C11.5092 2.24778 11.3864 2.07704 11.3864 1.88097V1.45081C11.3864 1.38946 11.3371 1.3401 11.2757 1.3401H10.1986C10.1372 1.3401 10.0879 1.38946 10.0879 1.45081V1.88097C10.0879 2.07704 9.96518 2.24979 9.78242 2.3078C9.62369 2.35916 9.4703 2.42385 9.3229 2.49921C9.15016 2.58791 8.94206 2.5539 8.80201 2.41384L8.53057 2.14241C8.49322 2.10507 8.45053 2.08239 8.41252 2.07906C8.38517 2.07706 8.35983 2.08773 8.33915 2.1084L7.5775 2.87002C7.55683 2.8907 7.54682 2.91471 7.54815 2.94338C7.55016 2.98073 7.57216 3.02208 7.61151 3.06143L7.88296 3.33286C8.02301 3.47291 8.05569 3.681 7.96632 3.85173C7.89096 3.99845 7.82626 4.15251 7.77491 4.31124C7.71488 4.49397 7.54414 4.61669 7.34806 4.61669H6.9639C6.8872 4.61669 6.80516 4.64604 6.80516 4.7274V5.80448C6.80516 5.88652 6.8872 5.91519 6.9639 5.91519H7.34606C7.54214 5.91519 7.71288 6.03791 7.77291 6.22065C7.8256 6.38271 7.89229 6.54011 7.971 6.69216C7.98101 6.71283 7.98834 6.73284 7.98968 6.75552L8.01902 7.08698C8.02102 7.11099 8.01902 7.13499 8.01035 7.157L7.90764 7.45379C7.87496 7.54916 7.89897 7.6572 7.971 7.72723L8.26979 8.02601C8.43186 8.18808 8.48989 8.43416 8.41519 8.65292L8.31448 8.94838C8.29381 9.00973 8.30114 9.07976 8.33316 9.14646C8.42186 9.31719 8.49522 9.4966 8.55525 9.68066C8.56726 9.71668 8.59594 9.74068 8.63062 9.74068H9.03679C9.32691 9.74068 9.537 9.93009 9.537 10.1929V11.2699C9.537 11.5194 9.33359 11.7221 9.08482 11.7221H8.65264C8.60663 11.7221 8.56394 11.7514 8.55194 11.7901C8.49591 11.9662 8.42388 12.1403 8.33851 12.3043C8.31984 12.3417 8.32851 12.3917 8.36052 12.4237L8.63196 12.6951C8.83671 12.8999 8.85071 13.1833 8.66598 13.368L7.90433 14.1297C7.72826 14.3057 7.44147 14.3057 7.26605 14.1297L6.96193 13.8256C6.92792 13.7929 6.87857 13.7829 6.83922 13.8036C6.67515 13.8869 6.50306 13.9589 6.329 14.015C6.28831 14.0283 6.25897 14.071 6.25897 14.1177V14.5478C6.25897 14.7973 6.05555 15 5.80678 15H4.72966C4.48022 15 4.27747 14.7966 4.27747 14.5478V14.1177C4.27747 14.0697 4.24813 14.029 4.20744 14.015C4.03138 13.9589 3.85929 13.8869 3.69722 13.8036C3.65787 13.7829 3.60852 13.7935 3.57584 13.8256L3.30639 14.095C3.10164 14.2997 2.81818 14.3137 2.63344 14.129L1.87179 13.3674C1.69573 13.1913 1.69573 12.9046 1.87179 12.7291L2.17726 12.4237C2.21128 12.3897 2.21995 12.3403 2.19927 12.301C2.1159 12.1389 2.04387 11.9662 1.98585 11.7908C1.97251 11.7501 1.93116 11.7207 1.88314 11.7207H1.50097C1.21085 11.7207 1.00076 11.5313 1.00076 11.2686V10.1915C1.00076 9.94207 1.20418 9.73933 1.45295 9.73933H1.88312C1.93114 9.73933 1.97183 9.70999 1.98583 9.6693C2.04386 9.4919 2.11589 9.32116 2.19926 9.15711C2.21793 9.11976 2.20926 9.06974 2.17725 9.03773L1.90379 8.76428C1.69904 8.55954 1.68504 8.27609 1.86978 8.09136L2.63143 7.32974C2.80749 7.15368 3.09428 7.15368 3.2697 7.32974L3.57517 7.6352C3.60918 7.66921 3.65854 7.67788 3.69789 7.65721C3.85996 7.57384 4.03069 7.50181 4.20677 7.44579C4.24746 7.43245 4.2768 7.38977 4.2768 7.34309V6.91293C4.2768 6.6635 4.48022 6.46076 4.72899 6.46076H5.80611C6.05555 6.46076 6.2583 6.66417 6.2583 6.91293V7.55317C6.2583 7.64721 6.1816 7.7239 6.08756 7.7239C5.99352 7.7239 5.91682 7.64721 5.91682 7.55317V6.91293C5.91682 6.85157 5.86747 6.80222 5.80611 6.80222H4.72898C4.66762 6.80222 4.61827 6.85157 4.61827 6.91293V7.34309C4.61827 7.53915 4.49555 7.7119 4.3128 7.76992C4.15407 7.82127 4.00067 7.88596 3.85527 7.96132C3.68253 8.05002 3.47444 8.01601 3.33438 7.87596L3.02891 7.5705C2.98823 7.52982 2.91419 7.52982 2.87151 7.5705L2.10986 8.33212C2.08919 8.35279 2.07918 8.3768 2.08052 8.40548C2.08252 8.44283 2.10452 8.48418 2.14387 8.52353L2.41733 8.79697C2.55539 8.93502 2.59007 9.14376 2.5007 9.31449C2.42533 9.46122 2.36064 9.61527 2.30928 9.77533C2.24926 9.95807 2.07851 10.0808 1.88244 10.0808H1.45226C1.3909 10.0808 1.34155 10.1301 1.34155 10.1915V11.2686C1.34155 11.3506 1.42358 11.3793 1.50028 11.3793H1.88244C2.07852 11.3793 2.24926 11.502 2.30929 11.6847C2.36065 11.8421 2.42534 11.9969 2.50071 12.1423C2.58941 12.315 2.5554 12.5244 2.41534 12.6631L2.10987 12.9686C2.06718 13.0113 2.06718 13.0813 2.10987 13.126L2.87152 13.8876C2.92954 13.9456 3.00824 13.9083 3.06094 13.8536L3.33038 13.5841C3.46844 13.4461 3.67718 13.4114 3.84927 13.4988C3.996 13.5741 4.15139 13.6388 4.31013 13.6902C4.49287 13.7502 4.6176 13.921 4.6176 14.117V14.5472C4.6176 14.6085 4.66695 14.6579 4.72831 14.6579H5.80544C5.8668 14.6579 5.91615 14.6085 5.91615 14.5472V14.117C5.91615 13.921 6.03887 13.7482 6.22362 13.6902C6.38235 13.6388 6.53574 13.5755 6.68447 13.4988C6.85521 13.4101 7.06531 13.4461 7.20337 13.5841L7.50749 13.8883C7.54817 13.9289 7.6222 13.9289 7.66489 13.8883L8.42654 13.1266C8.44721 13.106 8.45722 13.082 8.45588 13.0533C8.45388 13.0159 8.43188 12.9746 8.39253 12.9352L8.12108 12.6638C7.98303 12.5257 7.94835 12.319 8.03572 12.1483C8.11108 11.9996 8.17577 11.8442 8.22713 11.6854C8.28515 11.5027 8.4579 11.38 8.65398 11.38H9.08615C9.14751 11.38 9.19687 11.3306 9.19687 11.2693V10.1922C9.19687 10.1102 9.11483 10.0815 9.03813 10.0815H8.63196C8.44922 10.0815 8.28849 9.9621 8.23247 9.7847C8.17978 9.6193 8.11308 9.45657 8.03238 9.30318C7.95568 9.15446 7.94167 8.98907 7.99303 8.839L8.09374 8.54355C8.12642 8.44618 8.10241 8.34213 8.03038 8.2701L7.73158 7.97132C7.56951 7.80926 7.51148 7.56317 7.58619 7.34441L7.67689 7.08164L7.65288 6.82021C7.57285 6.66148 7.50415 6.49609 7.44947 6.32669C7.43613 6.28601 7.39478 6.25667 7.34676 6.25667H6.96459C6.67447 6.25667 6.46438 6.06726 6.46438 5.8045V4.72742C6.46438 4.46599 6.67447 4.27525 6.96459 4.27525H7.34875C7.39477 4.27525 7.43746 4.24591 7.44946 4.20723C7.50749 4.03117 7.57952 3.85909 7.66289 3.69703C7.68356 3.65968 7.67289 3.60833 7.64088 3.57565L7.36944 3.30422C7.27073 3.20551 7.21404 3.08747 7.20737 2.96475C7.2007 2.84004 7.24672 2.72066 7.33542 2.63196L8.09707 1.87034C8.28114 1.68628 8.5646 1.69961 8.77002 1.90436L9.04146 2.17579C9.07414 2.2098 9.12483 2.21847 9.16418 2.19779C9.32625 2.11443 9.49898 2.0424 9.6744 1.98638C9.71508 1.97304 9.74443 1.93036 9.74443 1.88367V1.45351C9.74443 1.20409 9.94785 1.00135 10.1966 1.00135H11.2737C11.5232 1.00135 11.7259 1.20476 11.7259 1.45351V1.88367C11.7259 1.93169 11.7553 1.97237 11.796 1.98638C11.972 2.0424 12.1428 2.11443 12.3062 2.19779C12.3455 2.21847 12.3949 2.2078 12.4289 2.17579L12.7003 1.90436C12.9051 1.69961 13.1885 1.68561 13.3733 1.87034L14.1349 2.63196C14.319 2.81603 14.3057 3.09948 14.1009 3.30488L13.8295 3.57631C13.7968 3.60899 13.7868 3.65835 13.8075 3.69569C13.8908 3.85976 13.9629 4.03183 14.0189 4.20789C14.0322 4.24857 14.0736 4.27792 14.1216 4.27792H14.5038C14.7892 4.27792 14.9993 4.46731 14.9993 4.73074ZM2.07248 5.73112C2.08782 5.74646 2.1065 5.76047 2.12851 5.76847C2.14918 5.77514 2.17186 5.78047 2.19387 5.78047C2.21588 5.78047 2.23856 5.77514 2.25856 5.76714C2.27924 5.75847 2.29791 5.74646 2.31459 5.72979L3.33902 4.7054C3.40571 4.63871 3.40571 4.53133 3.33902 4.46463C3.27233 4.39792 3.16495 4.39794 3.09824 4.46463L2.36728 5.19557C2.40529 3.06415 4.15065 1.34146 6.29154 1.34146C6.38558 1.34146 6.46228 1.26477 6.46228 1.17073C6.46228 1.0767 6.38558 1 6.29154 1C3.9613 1 2.06234 2.87805 2.02512 5.20035L1.2908 4.46606C1.22411 4.39937 1.11673 4.39937 1.05003 4.46606C0.983318 4.53276 0.983332 4.64013 1.05003 4.70683L2.07248 5.73112ZM13.9255 10.2688C13.9102 10.2535 13.8915 10.2395 13.8695 10.2315C13.8288 10.2141 13.7808 10.2141 13.7394 10.2315C13.7188 10.2402 13.7001 10.2522 13.6834 10.2688L12.659 11.2932C12.5923 11.3599 12.5923 11.4673 12.659 11.534C12.7257 11.6007 12.8331 11.6007 12.8998 11.534L13.6307 10.8031C13.5927 12.9358 11.8474 14.6585 9.70647 14.6585C9.61243 14.6585 9.53573 14.7352 9.53573 14.8293C9.53573 14.9233 9.61243 15 9.70647 15C12.0367 15 13.9357 13.1219 13.9729 10.7996L14.7072 11.5339C14.7412 11.5679 14.7839 11.5853 14.8286 11.5853C14.8733 11.5853 14.916 11.5679 14.95 11.5359C15.0167 11.4692 15.0167 11.3619 14.95 11.2952L13.9255 10.2688ZM5.26718 9.19509C6.1142 9.19509 6.80383 9.88469 6.80383 10.7317C6.80383 11.5787 6.1142 12.2683 5.26718 12.2683C4.42016 12.2683 3.73053 11.5787 3.73053 10.7317C3.73053 9.88469 4.42016 9.19509 5.26718 9.19509ZM5.26718 9.53655C4.60823 9.53655 4.07201 10.0728 4.07201 10.7317C4.07201 11.3906 4.60823 11.9268 5.26718 11.9268C5.92613 11.9268 6.46235 11.3906 6.46235 10.7317C6.46235 10.0728 5.92613 9.53655 5.26718 9.53655ZM10.7308 6.80484C9.88381 6.80484 9.19418 6.11524 9.19418 5.26825C9.19418 4.42127 9.88381 3.73166 10.7308 3.73166C11.5778 3.73166 12.2675 4.42127 12.2675 5.26825C12.2675 6.11524 11.5778 6.80484 10.7308 6.80484ZM10.7308 6.46338C11.3898 6.46338 11.926 5.92717 11.926 5.26825C11.926 4.60933 11.3898 4.07313 10.7308 4.07313C10.0719 4.07313 9.53566 4.60933 9.53566 5.26825C9.53566 5.92717 10.0719 6.46338 10.7308 6.46338Z" fill="#3F3F3F" stroke="#3F3F3F" stroke-width="0.1"/>
</svg>
