<svg width="14" height="16" viewBox="0 0 14 16" fill="none" xmlns="http://www.w3.org/2000/svg">
<path d="M13.1236 2.24028H12.6001V1.0403C12.6001 0.466132 12.1386 0 11.5701 0H2.43003C1.86154 0 1.40002 0.466132 1.40002 1.0403V2.24028H0.876604C0.392885 2.24028 0 2.63847 0 3.12565V11.529C0 12.0175 0.394246 12.4143 0.876604 12.4143H5.35108L5.04766 14.1538L4.74291 14.1545C4.07485 14.1545 3.53194 14.7022 3.53194 15.3776V15.5114C3.53194 15.7812 3.74924 16 4.01566 16H9.983C10.2501 16 10.4667 15.7805 10.4667 15.5114V15.3776C10.4667 14.7029 9.92447 14.1545 9.25575 14.1545H8.95099L8.64758 12.415H13.1221C13.6058 12.415 13.9987 12.0168 13.9987 11.5297L14 3.12772C14 2.63916 13.608 2.24028 13.1236 2.24028ZM1.78617 2.02488H12.2127V8.02405C12.2127 8.38214 11.9234 8.67432 11.5688 8.67432L2.43008 8.675C2.07553 8.675 1.78624 8.38282 1.78624 8.02472L1.78617 2.02488ZM2.43001 0.389351H11.5701C11.9247 0.389351 12.214 0.681534 12.214 1.03963V1.63486H1.7861V1.0403C1.7861 0.682212 2.07345 0.389351 2.43001 0.389351ZM0.875261 2.63034H1.39868V8.02486C1.39868 8.59904 1.8602 9.06517 2.42868 9.06517H11.5688C12.1373 9.06517 12.5988 8.59904 12.5988 8.02486V2.63034H13.1222C13.3927 2.63034 13.6133 2.85321 13.6133 3.12638V10.5382L0.384205 10.5375V3.12761C0.384205 2.85242 0.604794 2.63034 0.875261 2.63034ZM10.0807 15.381V15.5149C10.0807 15.5686 10.0376 15.6141 9.98243 15.6141H4.01509C3.96194 15.6141 3.91686 15.5706 3.91686 15.5149V15.381C3.91686 14.9217 4.28688 14.548 4.74168 14.548H9.25456C9.71001 14.5473 10.0807 14.9217 10.0807 15.381ZM8.55954 14.1579H5.43929L5.7427 12.4184H8.25688L8.55954 14.1579ZM13.1236 12.0271H0.875261C0.604812 12.0271 0.384136 11.8042 0.384136 11.531V10.929H13.6147V11.531C13.6147 11.8042 13.394 12.0271 13.1236 12.0271ZM2.39569 1.01258C2.39569 0.857654 2.51947 0.730588 2.67488 0.730588C2.82827 0.730588 2.95408 0.855614 2.95408 1.01258C2.95408 1.1675 2.83029 1.29457 2.67488 1.29457C2.52149 1.29457 2.39569 1.16886 2.39569 1.01258ZM3.51181 1.01258C3.51181 0.857654 3.63559 0.730588 3.791 0.730588C3.94439 0.730588 4.0702 0.855614 4.0702 1.01258C4.0702 1.1675 3.94641 1.29457 3.791 1.29457C3.63761 1.29457 3.51181 1.16886 3.51181 1.01258ZM4.62793 1.01258C4.62793 0.857654 4.75171 0.730588 4.90712 0.730588C5.06186 0.730588 5.18632 0.855614 5.18632 1.01258C5.18632 1.1675 5.06253 1.29457 4.90712 1.29457C4.75172 1.29457 4.62793 1.16886 4.62793 1.01258ZM7.86735 1.01258C7.86735 0.904539 7.95347 0.817562 8.06044 0.817562H11.6032C11.7101 0.817562 11.7962 0.904537 11.7962 1.01258C11.7962 1.12062 11.7101 1.20759 11.6032 1.20759H8.06044C7.95347 1.20759 7.86735 1.12062 7.86735 1.01258ZM3.56167 6.43423L3.91149 7.87271C3.97877 8.14925 4.22298 8.34223 4.5042 8.34223H4.79349C4.94015 8.34223 5.07605 8.27632 5.16553 8.15945C5.25501 8.04257 5.28596 7.89513 5.25165 7.75244L4.9415 6.48111C6.1074 6.48451 6.89456 6.78349 7.48392 7.44464V7.52821C7.48392 7.84825 7.74227 8.10917 8.05913 8.10917C8.37599 8.10917 8.63434 7.84825 8.63434 7.52821V5.96606H8.95659C9.19946 5.96606 9.39591 5.76765 9.39591 5.52235V4.94818C9.39591 4.70288 9.19946 4.50447 8.95659 4.50447L8.63568 4.50515V2.9396C8.63568 2.61957 8.37734 2.35865 8.06047 2.35865C7.74361 2.35865 7.48527 2.61957 7.48527 2.9396V3.02318C6.89256 3.68772 6.0987 3.9867 4.91942 3.9867H3.88606C3.2059 3.9867 2.65287 4.54524 2.65287 5.23222C2.65085 5.80842 3.03827 6.29017 3.56167 6.43423ZM4.86011 7.91823C4.85136 7.93046 4.82916 7.95153 4.79283 7.95153H4.50354C4.39859 7.95153 4.31046 7.88222 4.28624 7.77962L3.96938 6.48042H4.54122L4.87357 7.8462C4.88434 7.88154 4.87087 7.906 4.86011 7.91823ZM8.95792 4.89308C8.98752 4.89308 9.01106 4.91754 9.01106 4.94676V5.52093C9.01106 5.55083 8.98684 5.57461 8.95792 5.57461L8.63566 5.57529V4.89511H8.95792V4.89308ZM7.87073 2.93962C7.87073 2.83362 7.95483 2.748 8.06046 2.748C8.16541 2.748 8.25018 2.83294 8.25018 2.93962V7.52685C8.25018 7.63285 8.16609 7.71847 8.06046 7.71847C7.9555 7.71847 7.87073 7.63353 7.87073 7.52685V2.93962ZM7.48523 3.57155V6.89555C6.72568 6.2412 5.81611 6.10938 5.11176 6.09171V4.37464C5.81614 4.35765 6.72573 4.22522 7.48523 3.57155ZM3.88602 4.37878H4.7263V6.08837H3.88602C3.4171 6.08837 3.03833 5.70582 3.03833 5.23424C3.03833 4.76268 3.4171 4.37878 3.88602 4.37878ZM10.2376 5.03789H11.1539C11.2609 5.03789 11.347 5.12486 11.347 5.2329C11.347 5.34094 11.2609 5.42792 11.1539 5.42792L10.2376 5.42724C10.1306 5.42724 10.0445 5.34027 10.0445 5.23222C10.0445 5.12622 10.1306 5.03789 10.2376 5.03789ZM9.79493 4.22725C9.74178 4.13348 9.77272 4.01524 9.86557 3.9609L10.6594 3.49816C10.7523 3.44448 10.8693 3.47573 10.9231 3.56951C10.9763 3.66327 10.9453 3.78152 10.8525 3.83586L10.0586 4.2986C10.0277 4.31626 9.99473 4.32442 9.96244 4.32442C9.89449 4.32442 9.82924 4.28976 9.79493 4.22725ZM9.76398 6.23115C9.81712 6.13738 9.9362 6.10612 10.0277 6.1598L10.8216 6.62254C10.9144 6.67622 10.9453 6.79649 10.8922 6.88889C10.8559 6.95141 10.7926 6.98606 10.7254 6.98606C10.6924 6.98606 10.6601 6.97723 10.6291 6.96024L9.83528 6.4975C9.74177 6.44518 9.71016 6.32491 9.76398 6.23115Z" fill="#3F3F3F"/>
</svg>
