<?xml version="1.0" encoding="utf-8"?>
<!-- Generator: Adobe Illustrator 25.1.0, SVG Export Plug-In . SVG Version: 6.00 Build 0)  -->
<svg version="1.1" id="Layer_1" xmlns="http://www.w3.org/2000/svg" xmlns:xlink="http://www.w3.org/1999/xlink" x="0px" y="0px"
	 viewBox="0 0 512 512" style="enable-background:new 0 0 512 512;" xml:space="preserve">
<style type="text/css">
	.st0{fill:url(#SVGID_1_);}
	.st1{opacity:0.5;fill:url(#SVGID_2_);}
	.st2{fill:url(#SVGID_3_);}
	.st3{opacity:0.5;fill:url(#SVGID_4_);}
	.st4{fill:url(#SVGID_5_);}
	.st5{fill:url(#SVGID_6_);}
	.st6{display:none;opacity:0.5;}
	.st7{display:inline;fill:#FFFFFF;}
	.st8{display:none;opacity:0.3;}
	.st9{fill:#999999;}
	.st10{fill:#E6E6E6;}
	.st11{fill:#4D4D4D;}
	.st12{fill:#F0EFF4;}
	.st13{opacity:0.5;fill:url(#SVGID_7_);}
	.st14{fill:url(#SVGID_8_);}
	.st15{display:none;opacity:0.5;fill:#FFFFFF;}
</style>
<g>
	<linearGradient id="SVGID_1_" gradientUnits="userSpaceOnUse" x1="427.8019" y1="153.9978" x2="341.612" y2="27.0808">
		<stop  offset="0" style="stop-color:#00C6DB"/>
		<stop  offset="1" style="stop-color:#72227F"/>
	</linearGradient>
	<path class="st0" d="M508.01,4.93v90.71H256.48c-15.77,0-30.97,2.26-45.35,6.47v-6.47c0-50.08,40.63-90.71,90.71-90.71H508.01z"/>
	<linearGradient id="SVGID_2_" gradientUnits="userSpaceOnUse" x1="414.0909" y1="134.7713" x2="352.3105" y2="42.7064">
		<stop  offset="0.2081" style="stop-color:#72227F;stop-opacity:0"/>
		<stop  offset="1" style="stop-color:#72227F"/>
	</linearGradient>
	<path class="st1" d="M508.01,4.93v90.71H256.48c-15.77,0-30.97,2.26-45.35,6.47v-6.47c0-50.08,40.63-90.71,90.71-90.71H508.01z"/>
	<linearGradient id="SVGID_3_" gradientUnits="userSpaceOnUse" x1="14.9002" y1="-15.0936" x2="142.3284" y2="63.4872">
		<stop  offset="0" style="stop-color:#00C6DB"/>
		<stop  offset="1" style="stop-color:#72227F"/>
	</linearGradient>
	<path class="st2" d="M4.96,4.93v90.71h251.53c15.77,0,30.97,2.26,45.35,6.47v-6.47c0-50.08-40.63-90.71-90.71-90.71H4.96z"/>
	<linearGradient id="SVGID_4_" gradientUnits="userSpaceOnUse" x1="79.611" y1="11.6967" x2="137.1805" y2="60.8706">
		<stop  offset="0.2081" style="stop-color:#72227F;stop-opacity:0"/>
		<stop  offset="1" style="stop-color:#72227F"/>
	</linearGradient>
	<path class="st3" d="M4.96,7.72v85.12c0,1.54,1.25,2.8,2.8,2.8h248.73c14.48,0,28.49,1.91,41.81,5.48
		c1.79,0.48,3.54-0.84,3.54-2.68v0c0-51.64-41.86-93.5-93.5-93.5H7.76C6.21,4.93,4.96,6.18,4.96,7.72z"/>
	<g>
		<g>
			<g>
				<linearGradient id="SVGID_5_" gradientUnits="userSpaceOnUse" x1="63.2541" y1="93.9914" x2="418.9327" y2="449.67">
					<stop  offset="0" style="stop-color:#FFDC81"/>
					<stop  offset="1" style="stop-color:#FF4EA6"/>
				</linearGradient>
				<path class="st4" d="M256.48,417.3c-88.82,0-160.82-72-160.82-160.82s72-160.83,160.82-160.83h42.69V4.95h-42.69
					C117.57,4.95,4.96,117.56,4.96,256.47S117.57,508,256.48,508c102.8,0,191.15-61.71,230.16-150.07H381.25
					C351.76,394.15,306.83,417.3,256.48,417.3z"/>
				<linearGradient id="SVGID_6_" gradientUnits="userSpaceOnUse" x1="63.2541" y1="93.9914" x2="418.9327" y2="449.67">
					<stop  offset="0" style="stop-color:#FFDC81"/>
					<stop  offset="1" style="stop-color:#FF4EA6"/>
				</linearGradient>
				<path class="st5" d="M256.48,417.3c-88.82,0-160.82-72-160.82-160.82s72-160.83,160.82-160.83h42.69V4.95h-42.69
					C117.57,4.95,4.96,117.56,4.96,256.47S117.57,508,256.48,508c102.8,0,191.15-61.71,230.16-150.07H381.25
					C351.76,394.15,306.83,417.3,256.48,417.3z"/>
			</g>
			<g class="st6">
				<path class="st7" d="M37.61,175.94c0-120.6,97.76-218.36,218.36-218.36h27.63v-9.44h-37.06c-120.6,0-218.36,97.76-218.36,218.36
					c0,62.7,26.47,119.18,68.79,159.01C60.18,286.43,37.61,233.84,37.61,175.94z"/>
				<path class="st7" d="M152.64,269.83c25.54,28.09,62.38,45.72,103.33,45.72c43.71,0,82.71-20.1,108.32-51.54h77.58
					c1.55-3.11,3.06-6.24,4.47-9.44h-91.49c-25.6,31.45-64.6,51.54-108.32,51.54C210.38,306.12,177.44,292.38,152.64,269.83z"/>
			</g>
			<g class="st8">
				<path class="st9" d="M257.99-47.76c0.58,0.58,1.37,0.88,2.16,0.88c0.76,0,1.55-0.31,2.13-0.88c1.12-1.12,1.14-2.9,0.15-4.09
					h-4.6C256.85-50.66,256.88-48.89,257.99-47.76z"/>
				<path class="st10" d="M270.93-39.12c-1.19,1.19-1.19,3.1,0,4.29c0.61,0.61,1.37,0.88,2.16,0.88c0.79,0,1.55-0.27,2.16-0.88
					c1.19-1.19,1.19-3.1,0-4.29C274.06-40.31,272.12-40.31,270.93-39.12z"/>
				<path class="st10" d="M283.6-22.35v-3.4C282.88-24.71,282.88-23.38,283.6-22.35z"/>
				<path class="st11" d="M276.29-0.29c-1.19,1.18-1.19,3.1,0,4.32c0.58,0.58,1.37,0.88,2.16,0.88c0.76,0,1.55-0.3,2.13-0.88
					c1.19-1.22,1.19-3.14,0-4.32C279.39-1.48,277.47-1.48,276.29-0.29z"/>
				<path d="M250.39-26.19c-1.19,1.19-1.19,3.1,0,4.29c0.58,0.61,1.37,0.91,2.16,0.91c0.76,0,1.55-0.31,2.13-0.91
					c1.19-1.19,1.19-3.1,0-4.29C253.49-27.38,251.58-27.38,250.39-26.19z"/>
				<path d="M267.64-8.93c1.18-1.18,1.18-3.1,0-4.32c-1.19-1.19-3.14-1.19-4.32,0c-1.19,1.22-1.19,3.14,0,4.32
					c0.61,0.58,1.4,0.88,2.16,0.88C266.27-8.05,267.03-8.36,267.64-8.93z"/>
				<path class="st11" d="M224.49-47.76c0.61,0.58,1.37,0.88,2.16,0.88c0.76,0,1.55-0.31,2.13-0.88c0.93-0.91,1.14-2.25,0.65-3.36
					c-1.9,0.15-3.8,0.26-5.69,0.46C223.49-49.66,223.7-48.55,224.49-47.76z"/>
				<path d="M237.42-39.12c-1.19,1.19-1.19,3.1,0,4.29c0.61,0.61,1.4,0.88,2.16,0.88c0.79,0,1.55-0.27,2.16-0.88
					c1.19-1.19,1.19-3.1,0-4.29C240.56-40.31,238.64-40.31,237.42-39.12z"/>
				<path class="st10" d="M203.95-39.12c-1.19,1.19-1.19,3.1,0,4.29c0.58,0.61,1.37,0.88,2.13,0.88c0.79,0,1.58-0.27,2.16-0.88
					c1.19-1.19,1.19-3.1,0-4.29C207.05-40.31,205.14-40.31,203.95-39.12z"/>
				<path class="st12" d="M242.78-0.29c-1.19,1.18-1.19,3.1,0,4.32c0.61,0.58,1.37,0.88,2.16,0.88c0.76,0,1.55-0.3,2.16-0.88
					c1.19-1.22,1.19-3.14,0-4.32C245.88-1.48,243.97-1.48,242.78-0.29z"/>
				<path class="st10" d="M234.14-8.93c1.19-1.18,1.19-3.1,0-4.32c-1.19-1.19-3.1-1.19-4.32,0c-1.16,1.22-1.16,3.14,0,4.32
					c0.61,0.58,1.4,0.88,2.16,0.88C232.77-8.05,233.56-8.36,234.14-8.93z"/>
				<path class="st11" d="M216.88-26.19c-1.19,1.19-1.19,3.1,0,4.29c0.61,0.61,1.37,0.91,2.16,0.91c0.76,0,1.55-0.31,2.16-0.91
					c1.19-1.19,1.19-3.1,0-4.29C220.02-27.38,218.07-27.38,216.88-26.19z"/>
				<path d="M257.87,17.85c0.79,0,1.55-0.31,2.16-0.88c1.18-1.19,1.18-3.1,0-4.32c-1.19-1.16-3.1-1.16-4.29,0
					c-1.19,1.22-1.19,3.13,0,4.32C256.32,17.54,257.11,17.85,257.87,17.85z"/>
				<path d="M272.97,25.61c-1.19-1.19-3.1-1.19-4.29,0c-0.37,0.37-0.58,0.81-0.72,1.28h5.73C273.55,26.42,273.34,25.97,272.97,25.61
					z"/>
				<path class="st9" d="M224.37,17.85c0.79,0,1.58-0.31,2.16-0.88c1.19-1.19,1.19-3.1,0-4.32c-1.19-1.16-3.1-1.16-4.29,0
					c-1.19,1.22-1.19,3.13,0,4.32C222.82,17.54,223.61,17.85,224.37,17.85z"/>
				<path class="st10" d="M211.43,4.91c0.79,0,1.55-0.3,2.16-0.88c1.19-1.22,1.19-3.14,0-4.32c-1.19-1.19-3.13-1.19-4.32,0
					c-1.19,1.18-1.19,3.1,0,4.32C209.88,4.61,210.64,4.91,211.43,4.91z"/>
				<path class="st12" d="M170.44-34.83c0.58,0.61,1.37,0.88,2.16,0.88c0.76,0,1.55-0.27,2.13-0.88c1.19-1.19,1.19-3.1,0-4.29
					c-0.17-0.18-0.39-0.27-0.59-0.39c-1.47,0.52-2.94,1.04-4.4,1.59C169.39-36.87,169.6-35.67,170.44-34.83z"/>
				<path class="st12" d="M239.49,25.61c-1.19-1.19-3.14-1.19-4.32,0c-0.51,0.51-0.76,1.17-0.83,1.84c1.96-0.17,3.92-0.32,5.9-0.4
					C240.12,26.52,239.9,26.02,239.49,25.61z"/>
				<path class="st11" d="M196.34-13.25c-1.19,1.22-1.19,3.14,0,4.32c0.58,0.58,1.37,0.88,2.13,0.88c0.79,0,1.58-0.31,2.16-0.88
					c1.18-1.18,1.18-3.1,0-4.32C199.44-14.44,197.53-14.44,196.34-13.25z"/>
				<path d="M183.38-26.19c-1.19,1.19-1.19,3.1,0,4.29c0.61,0.61,1.4,0.91,2.16,0.91c0.79,0,1.55-0.31,2.16-0.91
					c1.19-1.19,1.19-3.1,0-4.29C186.51-27.38,184.56-27.38,183.38-26.19z"/>
				<path class="st11" d="M434.75,258.66c-1.19,1.19-1.19,3.14,0,4.32c0.58,0.58,1.37,0.88,2.13,0.88c0.79,0,1.58-0.3,2.16-0.88
					c1.19-1.19,1.19-3.14,0-4.32C437.85,257.47,435.93,257.47,434.75,258.66z"/>
				<path class="st9" d="M149.9-26.19c-1.19,1.19-1.19,3.1,0,4.29c0.58,0.61,1.37,0.91,2.13,0.91c0.79,0,1.55-0.31,2.16-0.91
					c1.19-1.19,1.19-3.1,0-4.29C153-27.38,151.09-27.38,149.9-26.19z"/>
				<path d="M188.73,12.64c-1.19,1.22-1.19,3.13,0,4.32c0.58,0.58,1.37,0.88,2.16,0.88c0.76,0,1.55-0.31,2.13-0.88
					c1.22-1.19,1.22-3.1,0-4.32C191.84,11.49,189.92,11.49,188.73,12.64z"/>
				<path class="st11" d="M201.67,29.9c0.61,0.61,1.4,0.91,2.16,0.91c0.79,0,1.55-0.3,2.16-0.91c1.19-1.19,1.19-3.1,0-4.29
					c-1.19-1.19-3.13-1.19-4.32,0C200.48,26.79,200.48,28.71,201.67,29.9z"/>
				<path class="st11" d="M162.83-13.25c-1.18,1.22-1.18,3.14,0,4.32c0.61,0.58,1.37,0.88,2.16,0.88c0.76,0,1.55-0.31,2.13-0.88
					c1.19-1.18,1.19-3.1,0-4.32C165.94-14.44,164.02-14.44,162.83-13.25z"/>
				<path class="st10" d="M180.09,4.03c1.19-1.22,1.19-3.14,0-4.32c-1.19-1.19-3.1-1.19-4.32,0c-1.19,1.18-1.19,3.1,0,4.32
					c0.61,0.58,1.4,0.88,2.16,0.88C178.72,4.91,179.48,4.61,180.09,4.03z"/>
				<path class="st10" d="M133.65-13.25c-1.19-1.19-3.13-1.19-4.32,0c-1.19,1.22-1.19,3.14,0,4.32c0.61,0.58,1.37,0.88,2.16,0.88
					c0.76,0,1.55-0.31,2.16-0.88C134.84-10.12,134.84-12.04,133.65-13.25z"/>
				<path class="st12" d="M146.58-0.29c-1.19-1.19-3.1-1.19-4.29,0c-1.18,1.18-1.18,3.1,0,4.32c0.58,0.58,1.37,0.88,2.13,0.88
					c0.79,0,1.58-0.3,2.16-0.88C147.77,2.81,147.77,0.89,146.58-0.29z"/>
				<path class="st11" d="M157.39,17.85c0.76,0,1.55-0.31,2.16-0.88c1.19-1.19,1.19-3.1,0-4.32c-1.19-1.16-3.14-1.16-4.32,0
					c-1.19,1.22-1.19,3.13,0,4.32C155.83,17.54,156.6,17.85,157.39,17.85z"/>
				<path class="st10" d="M168.19,25.61c-1.19,1.19-1.19,3.1,0,4.29c0.58,0.61,1.37,0.91,2.13,0.91c0.79,0,1.58-0.3,2.16-0.91
					c1.19-1.19,1.19-3.1,0-4.29C171.29,24.42,169.38,24.42,168.19,25.61z"/>
				<path class="st10" d="M185.42,38.54c-1.19-1.19-3.1-1.19-4.29,0c-1.19,1.19-1.19,3.14,0,4.32c0.07,0.07,0.17,0.1,0.25,0.16
					c1.62-0.86,3.24-1.7,4.9-2.49C186.23,39.81,185.96,39.09,185.42,38.54z"/>
				<path class="st12" d="M427.14,284.55c-1.19,1.19-1.19,3.14,0,4.32c0.04,0.04,0.1,0.05,0.14,0.09c1.12-1.65,2.19-3.32,3.27-5
					C429.42,283.45,428.06,283.63,427.14,284.55z"/>
				<path class="st12" d="M414.17,271.59c-1.19,1.22-1.19,3.14,0,4.32c0.61,0.61,1.37,0.88,2.16,0.88c0.79,0,1.55-0.27,2.16-0.88
					c1.19-1.19,1.19-3.1,0-4.32C417.31,270.43,415.36,270.43,414.17,271.59z"/>
				<path class="st11" d="M401.24,258.66c-1.19,1.19-1.19,3.14,0,4.32c0.58,0.58,1.37,0.88,2.16,0.88c0.76,0,1.55-0.3,2.13-0.88
					c1.19-1.19,1.19-3.14,0-4.32C404.34,257.47,402.43,257.47,401.24,258.66z"/>
				<path class="st12" d="M372.05,258.66c-1.19-1.19-3.13-1.19-4.32,0c-1.19,1.19-1.19,3.14,0,4.32c0.61,0.58,1.37,0.88,2.16,0.88
					c0.76,0,1.55-0.3,2.16-0.88C373.24,261.79,373.24,259.84,372.05,258.66z"/>
				<path class="st11" d="M149.78,43.74c0.79,0,1.55-0.31,2.16-0.88c1.19-1.19,1.19-3.13,0-4.32c-1.19-1.19-3.14-1.19-4.32,0
					c-1.19,1.19-1.19,3.14,0,4.32C148.23,43.44,148.99,43.74,149.78,43.74z"/>
				<path class="st9" d="M382.83,276.79c0.79,0,1.58-0.27,2.16-0.88c1.19-1.19,1.19-3.1,0-4.32c-1.19-1.16-3.1-1.16-4.29,0
					c-1.22,1.22-1.22,3.14,0,4.32C381.28,276.52,382.07,276.79,382.83,276.79z"/>
				<path class="st10" d="M393.63,284.55c-1.19,1.19-1.19,3.14,0,4.32c0.61,0.58,1.37,0.88,2.16,0.88c0.76,0,1.55-0.3,2.13-0.88
					c1.22-1.19,1.22-3.13,0-4.32C396.74,283.37,394.82,283.37,393.63,284.55z"/>
				<path d="M110.95,4.91c0.76,0,1.55-0.3,2.13-0.88c1.18-1.22,1.18-3.14,0-4.32c-1.19-1.19-3.1-1.19-4.29,0
					c-1.19,1.18-1.19,3.1,0,4.32C109.37,4.61,110.16,4.91,110.95,4.91z"/>
				<path class="st11" d="M408.73,302.69c0.79,0,1.55-0.27,2.16-0.88c1.19-1.19,1.19-3.1,0-4.32c-1.19-1.16-3.11-1.16-4.29,0
					c-1.19,1.22-1.19,3.14,0,4.32C407.17,302.42,407.97,302.69,408.73,302.69z"/>
				<path class="st12" d="M136.85,30.81c0.76,0,1.55-0.3,2.13-0.91c1.19-1.19,1.19-3.1,0-4.29c-1.19-1.19-3.1-1.19-4.29,0
					c-1.18,1.19-1.18,3.1,0,4.29C135.26,30.51,136.05,30.81,136.85,30.81z"/>
				<path class="st9" d="M164.87,51.51c-1.19-1.19-3.1-1.19-4.29,0c-1.19,1.18-1.19,3.1,0,4.29c0.14,0.15,0.33,0.23,0.49,0.34
					c1.48-1.15,2.99-2.27,4.52-3.36C165.45,52.31,165.24,51.87,164.87,51.51z"/>
				<path class="st11" d="M126.04,12.64c-1.19-1.16-3.13-1.16-4.32,0c-1.19,1.22-1.19,3.13,0,4.32c0.61,0.58,1.37,0.88,2.16,0.88
					c0.79,0,1.55-0.31,2.16-0.88C127.23,15.78,127.23,13.86,126.04,12.64z"/>
				<path class="st11" d="M142.17,69.64c0.79,0,1.55-0.31,2.16-0.88c1.18-1.19,1.18-3.14,0-4.32c-1.19-1.19-3.14-1.19-4.32,0
					c-1.19,1.19-1.19,3.13,0,4.32C140.62,69.34,141.38,69.64,142.17,69.64z"/>
				<path class="st12" d="M105.47,25.61c-1.19-1.19-3.1-1.19-4.29,0c-1.19,1.19-1.19,3.1,0,4.29c0.61,0.61,1.37,0.91,2.16,0.91
					c0.76,0,1.55-0.3,2.13-0.91C106.66,28.71,106.66,26.79,105.47,25.61z"/>
				<path d="M360.13,284.55c-1.19,1.19-1.19,3.14,0,4.32c0.61,0.58,1.37,0.88,2.16,0.88c0.79,0,1.55-0.3,2.16-0.88
					c1.19-1.19,1.19-3.13,0-4.32C363.26,283.37,361.31,283.37,360.13,284.55z"/>
				<path class="st10" d="M375.22,302.69c0.79,0,1.58-0.27,2.16-0.88c1.19-1.19,1.19-3.1,0-4.32c-1.19-1.16-3.1-1.16-4.29,0
					c-1.19,1.22-1.19,3.14,0,4.32C373.67,302.42,374.46,302.69,375.22,302.69z"/>
				<path class="st10" d="M351.48,271.59c-1.19-1.16-3.1-1.16-4.29,0c-1.19,1.22-1.19,3.14,0,4.32c0.58,0.61,1.37,0.88,2.13,0.88
					c0.79,0,1.58-0.27,2.16-0.88C352.67,274.73,352.67,272.81,351.48,271.59z"/>
				<path class="st11" d="M129.24,56.71c0.76,0,1.55-0.3,2.13-0.91c1.19-1.18,1.19-3.1,0-4.29c-1.19-1.19-3.11-1.19-4.29,0
					c-1.18,1.18-1.18,3.1,0,4.29C127.66,56.41,128.45,56.71,129.24,56.71z"/>
				<path d="M386.02,310.45c-1.19,1.19-1.19,3.11,0,4.29c0.61,0.61,1.37,0.91,2.16,0.91c0.76,0,1.55-0.3,2.16-0.91
					c1.19-1.19,1.19-3.1,0-4.29C389.16,309.27,387.21,309.27,386.02,310.45z"/>
				<path class="st11" d="M118.43,38.54c-1.19-1.19-3.13-1.19-4.32,0c-1.19,1.19-1.19,3.14,0,4.32c0.61,0.58,1.4,0.88,2.16,0.88
					c0.79,0,1.55-0.31,2.16-0.88C119.62,41.68,119.62,39.73,118.43,38.54z"/>
				<path class="st11" d="M92.54,12.64c-0.17-0.16-0.38-0.25-0.57-0.37c-1.38,1.38-2.7,2.82-4.05,4.24c0.1,0.15,0.17,0.32,0.3,0.45
					c0.61,0.58,1.4,0.88,2.16,0.88c0.79,0,1.55-0.31,2.16-0.88C93.72,15.78,93.72,13.86,92.54,12.64z"/>
				<path d="M382.74,336.35c-1.19-1.19-3.13-1.19-4.32,0c-1.16,1.16-1.16,2.99-0.07,4.19c1.59-1.21,3.16-2.44,4.72-3.7
					C382.96,336.68,382.88,336.5,382.74,336.35z"/>
				<path d="M367.61,328.59c0.79,0,1.58-0.3,2.16-0.88c1.19-1.19,1.19-3.14,0-4.32c-1.19-1.19-3.1-1.19-4.29,0
					c-1.19,1.19-1.19,3.13,0,4.32C366.06,328.28,366.85,328.59,367.61,328.59z"/>
				<path d="M121.63,82.61c0.76,0,1.55-0.31,2.13-0.91c1.19-1.19,1.19-3.1,0-4.29c-1.19-1.19-3.1-1.19-4.29,0
					c-1.19,1.19-1.19,3.1,0,4.29C120.08,82.3,120.84,82.61,121.63,82.61z"/>
				<path class="st12" d="M80.64,38.54c-1.19,1.19-1.19,3.14,0,4.32c0.58,0.58,1.37,0.88,2.13,0.88c0.79,0,1.58-0.31,2.16-0.88
					c1.19-1.19,1.19-3.13,0-4.32C83.74,37.35,81.82,37.35,80.64,38.54z"/>
				<path class="st12" d="M95.73,56.71c0.76,0,1.55-0.3,2.16-0.91c1.19-1.18,1.19-3.1,0-4.29c-1.22-1.19-3.13-1.19-4.32,0
					c-1.19,1.18-1.19,3.1,0,4.29C94.18,56.41,94.94,56.71,95.73,56.71z"/>
				<path class="st10" d="M108.66,69.64c0.79,0,1.55-0.31,2.16-0.88c1.19-1.19,1.19-3.14,0-4.32c-1.19-1.19-3.1-1.19-4.29,0
					c-1.19,1.19-1.19,3.13,0,4.32C107.11,69.34,107.9,69.64,108.66,69.64z"/>
				<path class="st9" d="M354.68,315.65c0.79,0,1.55-0.3,2.16-0.91c1.19-1.19,1.19-3.1,0-4.29c-1.19-1.18-3.13-1.18-4.32,0
					c-1.18,1.19-1.18,3.11,0,4.29C353.13,315.35,353.92,315.65,354.68,315.65z"/>
				<path d="M330.94,284.55c-1.19-1.19-3.13-1.19-4.32,0c-1.19,1.19-1.19,3.14,0,4.32c0.61,0.58,1.37,0.88,2.16,0.88
					c0.79,0,1.55-0.3,2.16-0.88C332.13,287.69,332.13,285.74,330.94,284.55z"/>
				<path class="st10" d="M341.74,302.69c0.76,0,1.55-0.27,2.13-0.88c1.19-1.19,1.19-3.1,0-4.32c-1.19-1.16-3.1-1.16-4.29,0
					c-1.19,1.22-1.19,3.14,0,4.32C340.16,302.42,340.95,302.69,341.74,302.69z"/>
				<path class="st11" d="M357.87,349.28c-1.19,1.19-1.19,3.13,0,4.32c0.17,0.16,0.38,0.26,0.57,0.38c1.54-0.92,3.06-1.86,4.57-2.82
					c-0.06-0.69-0.32-1.36-0.86-1.88C360.98,348.1,359.06,348.1,357.87,349.28z"/>
				<path class="st11" d="M310.4,297.49c-1.22-1.16-3.13-1.16-4.32,0c-1.19,1.22-1.19,3.14,0,4.32c0.61,0.61,1.37,0.88,2.16,0.88
					c0.76,0,1.55-0.27,2.16-0.88C311.59,300.62,311.59,298.71,310.4,297.49z"/>
				<path class="st10" d="M344.91,336.35c-1.19,1.19-1.19,3.1,0,4.29c0.61,0.61,1.37,0.91,2.16,0.91c0.79,0,1.55-0.31,2.16-0.91
					c1.19-1.19,1.19-3.1,0-4.29C348.05,335.16,346.1,335.16,344.91,336.35z"/>
				<path class="st9" d="M334.14,328.59c0.76,0,1.55-0.3,2.13-0.88c1.19-1.19,1.19-3.14,0-4.32c-1.19-1.19-3.1-1.19-4.29,0
					c-1.19,1.19-1.19,3.13,0,4.32C332.59,328.28,333.35,328.59,334.14,328.59z"/>
				<path class="st12" d="M75.19,69.64c0.76,0,1.55-0.31,2.13-0.88c1.18-1.19,1.18-3.14,0-4.32c-1.19-1.19-3.1-1.19-4.29,0
					c-1.19,1.19-1.19,3.13,0,4.32C73.61,69.34,74.4,69.64,75.19,69.64z"/>
				<path class="st11" d="M60.07,55.79c0.61,0.61,1.37,0.91,2.16,0.91c0.79,0,1.55-0.3,2.16-0.91c1.19-1.18,1.19-3.1,0-4.29
					c-0.81-0.81-1.96-1.02-3-0.73c-0.71,1.13-1.43,2.25-2.11,3.39C59.38,54.76,59.61,55.34,60.07,55.79z"/>
				<path d="M90.28,77.4c-1.19-1.19-3.13-1.19-4.32,0c-1.19,1.19-1.19,3.1,0,4.29c0.61,0.61,1.37,0.91,2.16,0.91
					c0.76,0,1.55-0.31,2.16-0.91C91.47,80.51,91.47,78.59,90.28,77.4z"/>
				<path class="st10" d="M319.04,310.45c-1.18,1.19-1.18,3.11,0,4.29c0.58,0.61,1.37,0.91,2.13,0.91c0.79,0,1.55-0.3,2.16-0.91
					c1.19-1.19,1.19-3.1,0-4.29C322.15,309.27,320.23,309.27,319.04,310.45z"/>
				<path class="st12" d="M114.02,108.48c0.76,0,1.55-0.28,2.16-0.88c1.18-1.19,1.18-3.11,0-4.29c-1.22-1.19-3.14-1.19-4.32,0
					c-1.19,1.19-1.19,3.1,0,4.29C112.47,108.2,113.23,108.48,114.02,108.48z"/>
				<path d="M101.06,95.54c0.79,0,1.58-0.3,2.16-0.88c1.19-1.19,1.19-3.13,0-4.32c-1.19-1.19-3.11-1.19-4.29,0
					c-1.19,1.19-1.19,3.14,0,4.32C99.51,95.24,100.3,95.54,101.06,95.54z"/>
				<path d="M289.83,310.45c-1.19-1.18-3.1-1.18-4.29,0c-1.19,1.19-1.19,3.11,0,4.29c0.58,0.61,1.37,0.91,2.13,0.91
					c0.79,0,1.58-0.3,2.16-0.91C291.01,313.56,291.01,311.64,289.83,310.45z"/>
				<path class="st11" d="M298.47,323.39c-1.19,1.19-1.19,3.13,0,4.32c0.61,0.58,1.37,0.88,2.16,0.88c0.76,0,1.55-0.3,2.13-0.88
					c1.22-1.19,1.22-3.14,0-4.32C301.6,322.2,299.66,322.2,298.47,323.39z"/>
				<path d="M313.57,341.55c0.79,0,1.58-0.31,2.16-0.91c1.19-1.19,1.19-3.1,0-4.29c-1.19-1.19-3.1-1.19-4.29,0
					c-1.19,1.19-1.19,3.1,0,4.29C312.01,341.25,312.8,341.55,313.57,341.55z"/>
				<path class="st9" d="M56.78,77.4c-1.19-1.19-3.1-1.19-4.32,0c-1.19,1.19-1.19,3.1,0,4.29c0.61,0.61,1.4,0.91,2.16,0.91
					c0.79,0,1.55-0.31,2.16-0.91C57.97,80.51,57.97,78.59,56.78,77.4z"/>
				<path class="st12" d="M326.53,354.49c0.76,0,1.55-0.31,2.16-0.88c1.19-1.19,1.19-3.14,0-4.32c-1.19-1.19-3.13-1.19-4.32,0
					c-1.19,1.19-1.19,3.13,0,4.32C324.98,354.18,325.74,354.49,326.53,354.49z"/>
				<path class="st9" d="M341.62,362.25c-1.18-1.19-3.1-1.19-4.29,0c-0.86,0.86-1.08,2.09-0.69,3.16c1.81-0.82,3.61-1.66,5.4-2.53
					C341.91,362.66,341.81,362.43,341.62,362.25z"/>
				<path class="st12" d="M69.71,90.34c-1.19-1.19-3.1-1.19-4.29,0c-1.19,1.19-1.19,3.14,0,4.32c0.58,0.58,1.37,0.88,2.16,0.88
					c0.76,0,1.55-0.3,2.13-0.88C70.9,93.47,70.9,91.52,69.71,90.34z"/>
				<path class="st10" d="M95.61,116.24c-1.19-1.19-3.1-1.19-4.29,0c-1.19,1.18-1.19,3.1,0,4.32c0.58,0.58,1.37,0.88,2.16,0.88
					c0.76,0,1.55-0.31,2.13-0.88C96.8,119.34,96.8,117.42,95.61,116.24z"/>
				<path class="st9" d="M108.58,129.17c-1.19-1.19-3.14-1.19-4.32,0c-1.18,1.22-1.18,3.13,0,4.32c0.61,0.58,1.37,0.88,2.16,0.88
					c0.79,0,1.55-0.31,2.16-0.88C109.76,132.3,109.76,130.38,108.58,129.17z"/>
				<path class="st11" d="M80.52,108.48c0.79,0,1.55-0.28,2.16-0.88c1.19-1.19,1.19-3.11,0-4.29c-1.19-1.19-3.13-1.19-4.32,0
					c-1.19,1.19-1.19,3.1,0,4.29C78.96,108.2,79.72,108.48,80.52,108.48z"/>
				<path class="st9" d="M256.32,310.45c-1.19-1.18-3.1-1.18-4.29,0c-1.19,1.19-1.19,3.11,0,4.29c0.58,0.61,1.37,0.91,2.16,0.91
					c0.76,0,1.55-0.3,2.13-0.91C257.51,313.56,257.51,311.64,256.32,310.45z"/>
				<path class="st12" d="M264.96,323.39c-1.19,1.19-1.19,3.13,0,4.32c0.61,0.58,1.4,0.88,2.16,0.88c0.79,0,1.55-0.3,2.16-0.88
					c1.18-1.19,1.18-3.14,0-4.32C268.1,322.2,266.15,322.2,264.96,323.39z"/>
				<path class="st11" d="M44.85,103.3c-1.19,1.19-1.19,3.1,0,4.29c0.61,0.61,1.4,0.88,2.16,0.88c0.79,0,1.58-0.28,2.16-0.88
					c1.19-1.19,1.19-3.11,0-4.29C47.98,102.11,46.07,102.11,44.85,103.3z"/>
				<path class="st11" d="M85.87,147.34c0.76,0,1.55-0.3,2.13-0.88c1.19-1.22,1.19-3.14,0-4.32c-1.19-1.19-3.1-1.19-4.29,0
					c-1.18,1.19-1.18,3.1,0,4.32C84.29,147.03,85.08,147.34,85.87,147.34z"/>
				<path class="st12" d="M277.93,336.35c-1.19,1.19-1.19,3.1,0,4.29c0.58,0.61,1.37,0.91,2.16,0.91c0.76,0,1.55-0.31,2.13-0.91
					c1.19-1.19,1.19-3.1,0-4.29C281.03,335.16,279.12,335.16,277.93,336.35z"/>
				<path class="st9" d="M98.81,160.27c0.79,0,1.55-0.3,2.16-0.88c1.19-1.19,1.19-3.14,0-4.29c-1.19-1.19-3.14-1.19-4.32,0
					c-1.19,1.16-1.19,3.11,0,4.29C97.25,159.97,98.01,160.27,98.81,160.27z"/>
				<path class="st12" d="M293.02,354.49c0.79,0,1.55-0.31,2.16-0.88c1.19-1.19,1.19-3.14,0-4.32c-1.19-1.19-3.13-1.19-4.32,0
					c-1.19,1.19-1.19,3.13,0,4.32C291.47,354.18,292.23,354.49,293.02,354.49z"/>
				<path class="st9" d="M72.91,134.37c0.79,0,1.55-0.31,2.16-0.88c1.19-1.19,1.19-3.11,0-4.32c-1.19-1.19-3.13-1.19-4.29,0
					c-1.18,1.22-1.18,3.13,0,4.32C71.36,134.07,72.15,134.37,72.91,134.37z"/>
				<path class="st12" d="M62.13,116.24c-1.22-1.19-3.13-1.19-4.32,0c-1.19,1.18-1.19,3.1,0,4.32c0.61,0.58,1.37,0.88,2.16,0.88
					c0.76,0,1.55-0.31,2.16-0.88C63.29,119.34,63.29,117.42,62.13,116.24z"/>
				<path d="M305.99,367.45c0.76,0,1.55-0.3,2.13-0.91c1.19-1.19,1.19-3.11,0-4.29c-1.19-1.19-3.1-1.19-4.29,0
					c-1.19,1.18-1.19,3.1,0,4.29C304.4,367.15,305.2,367.45,305.99,367.45z"/>
				<path d="M37.27,129.17c-1.19,1.22-1.19,3.13,0,4.32c0.58,0.58,1.37,0.88,2.13,0.88c0.79,0,1.58-0.31,2.16-0.88
					c1.19-1.19,1.19-3.11,0-4.32C40.38,127.98,38.46,127.98,37.27,129.17z"/>
				<path class="st10" d="M246.58,341.55c0.76,0,1.55-0.31,2.13-0.91c1.19-1.19,1.19-3.1,0-4.29c-1.19-1.19-3.1-1.19-4.29,0
					c-1.19,1.19-1.19,3.1,0,4.29C245.03,341.25,245.79,341.55,246.58,341.55z"/>
				<path class="st10" d="M104.16,199.1c0.76,0,1.55-0.27,2.13-0.88c1.19-1.19,1.19-3.1,0-4.29c-1.19-1.19-3.1-1.19-4.29,0
					c-1.19,1.19-1.19,3.11,0,4.29C102.61,198.83,103.37,199.1,104.16,199.1z"/>
				<path d="M231.49,323.39c-1.19,1.19-1.19,3.13,0,4.32c0.58,0.58,1.37,0.88,2.13,0.88c0.79,0,1.55-0.3,2.16-0.88
					c1.19-1.19,1.19-3.14,0-4.32C234.59,322.2,232.68,322.2,231.49,323.39z"/>
				<path class="st12" d="M222.85,310.45c-1.19-1.18-3.13-1.18-4.32,0c-1.19,1.19-1.19,3.11,0,4.29c0.61,0.61,1.37,0.91,2.16,0.91
					c0.76,0,1.55-0.3,2.16-0.91C224.03,313.56,224.03,311.64,222.85,310.45z"/>
				<path class="st10" d="M285.42,380.39c0.79,0,1.55-0.3,2.16-0.88c1.19-1.19,1.19-3.14,0-4.32c-1.19-1.19-3.13-1.19-4.32,0
					c-1.19,1.19-1.19,3.14,0,4.32C283.86,380.08,284.65,380.39,285.42,380.39z"/>
				<path class="st9" d="M259.52,354.49c0.79,0,1.55-0.31,2.16-0.88c1.18-1.19,1.18-3.14,0-4.32c-1.19-1.19-3.1-1.19-4.32,0
					c-1.19,1.19-1.19,3.13,0,4.32C257.97,354.18,258.76,354.49,259.52,354.49z"/>
				<path class="st12" d="M272.48,367.45c0.76,0,1.55-0.3,2.13-0.91c1.18-1.19,1.18-3.11,0-4.29c-1.19-1.19-3.1-1.19-4.29,0
					c-1.19,1.18-1.19,3.1,0,4.29C270.93,367.15,271.69,367.45,272.48,367.45z"/>
				<path class="st9" d="M205.59,301.81c0.58,0.61,1.37,0.88,2.13,0.88c0.79,0,1.58-0.27,2.16-0.88c0.14-0.14,0.21-0.33,0.32-0.49
					c-1.84-0.5-3.68-1.01-5.49-1.57C204.74,300.5,205.02,301.24,205.59,301.81z"/>
				<path class="st12" d="M67.46,155.1c-1.19-1.19-3.1-1.19-4.29,0c-1.22,1.16-1.22,3.11,0,4.29c0.58,0.58,1.37,0.88,2.13,0.88
					c0.79,0,1.55-0.3,2.16-0.88C68.65,158.2,68.65,156.25,67.46,155.1z"/>
				<path class="st10" d="M52.37,147.34c0.76,0,1.55-0.3,2.13-0.88c1.22-1.22,1.22-3.14,0-4.32c-1.19-1.19-3.1-1.19-4.29,0
					c-1.19,1.19-1.19,3.1,0,4.32C50.81,147.03,51.58,147.34,52.37,147.34z"/>
				<path class="st11" d="M93.36,180.96c-1.19-1.19-3.1-1.19-4.32,0c-1.16,1.19-1.16,3.14,0,4.32c0.61,0.58,1.4,0.88,2.16,0.88
					c0.79,0,1.55-0.3,2.16-0.88C94.54,184.1,94.54,182.15,93.36,180.96z"/>
				<path class="st12" d="M78.26,173.23c0.76,0,1.55-0.3,2.16-0.91c1.19-1.18,1.19-3.1,0-4.29c-1.22-1.19-3.14-1.19-4.32,0
					c-1.18,1.19-1.18,3.11,0,4.29C76.71,172.93,77.47,173.23,78.26,173.23z"/>
				<path class="st12" d="M137.54,258.66c-1.19-1.19-3.1-1.19-4.29,0c-1.22,1.19-1.22,3.14,0,4.32c0.58,0.58,1.37,0.88,2.13,0.88
					c0.79,0,1.55-0.3,2.16-0.88C138.73,261.79,138.73,259.84,137.54,258.66z"/>
				<path class="st10" d="M150.48,271.59c-1.19-1.16-3.1-1.16-4.29,0c-1.19,1.22-1.19,3.14,0,4.32c0.61,0.61,1.37,0.88,2.16,0.88
					c0.76,0,1.55-0.27,2.13-0.88C151.66,274.73,151.66,272.81,150.48,271.59z"/>
				<path class="st12" d="M124.58,245.72c-1.19-1.19-3.1-1.19-4.29,0c-1.19,1.19-1.19,3.1,0,4.29c0.61,0.61,1.37,0.88,2.16,0.88
					c0.76,0,1.55-0.27,2.13-0.88C125.8,248.83,125.8,246.91,124.58,245.72z"/>
				<path class="st9" d="M163.44,284.55c-1.19-1.19-3.13-1.19-4.32,0c-1.19,1.19-1.19,3.14,0,4.32c0.61,0.58,1.37,0.88,2.16,0.88
					c0.79,0,1.55-0.3,2.16-0.88C164.63,287.69,164.63,285.74,163.44,284.55z"/>
				<path class="st12" d="M72.82,193.93c-1.22-1.19-3.14-1.19-4.32,0c-1.18,1.19-1.18,3.11,0,4.29c0.61,0.61,1.37,0.88,2.16,0.88
					c0.76,0,1.55-0.27,2.16-0.88C74,197.03,74,195.11,72.82,193.93z"/>
				<path class="st11" d="M46.92,168.03c-1.19-1.19-3.13-1.19-4.32,0c-1.19,1.19-1.19,3.11,0,4.29c0.61,0.61,1.37,0.91,2.16,0.91
					c0.79,0,1.55-0.3,2.16-0.91C48.11,171.14,48.11,169.22,46.92,168.03z"/>
				<path d="M59.85,180.96c-1.19-1.19-3.1-1.19-4.29,0c-1.19,1.19-1.19,3.14,0,4.32c0.58,0.58,1.37,0.88,2.13,0.88
					c0.79,0,1.58-0.3,2.16-0.88C61.04,184.1,61.04,182.15,59.85,180.96z"/>
				<path d="M31.79,160.27c0.79,0,1.58-0.3,2.16-0.88c1.19-1.19,1.19-3.14,0-4.29c-1.19-1.19-3.1-1.19-4.29,0
					c-1.19,1.16-1.19,3.11,0,4.29C30.24,159.97,31.03,160.27,31.79,160.27z"/>
				<path class="st9" d="M185.02,310.45c-1.19,1.19-1.19,3.11,0,4.29c0.61,0.61,1.37,0.91,2.16,0.91c0.79,0,1.55-0.3,2.16-0.91
					c1.19-1.19,1.19-3.1,0-4.29C188.15,309.27,186.24,309.27,185.02,310.45z"/>
				<path class="st12" d="M200.11,328.59c0.79,0,1.58-0.3,2.16-0.88c1.19-1.19,1.19-3.14,0-4.32c-1.19-1.19-3.1-1.19-4.29,0
					c-1.19,1.19-1.19,3.13,0,4.32C198.56,328.28,199.35,328.59,200.11,328.59z"/>
				<path class="st9" d="M85.75,206.86c-1.19-1.19-3.1-1.19-4.29,0c-1.19,1.19-1.19,3.14,0,4.32c0.58,0.58,1.37,0.88,2.13,0.88
					c0.79,0,1.58-0.31,2.16-0.88C86.94,210,86.94,208.05,85.75,206.86z"/>
				<path class="st11" d="M176.38,297.49c-1.19-1.16-3.1-1.16-4.29,0c-1.19,1.22-1.19,3.14,0,4.32c0.58,0.61,1.37,0.88,2.16,0.88
					c0.76,0,1.55-0.27,2.13-0.88C177.56,300.62,177.56,298.71,176.38,297.49z"/>
				<path d="M251.91,380.39c0.79,0,1.58-0.3,2.16-0.88c1.19-1.19,1.19-3.14,0-4.32c-1.19-1.19-3.1-1.19-4.29,0
					c-1.19,1.19-1.19,3.14,0,4.32C250.36,380.08,251.15,380.39,251.91,380.39z"/>
				<path class="st11" d="M98.71,219.83c-1.19-1.19-3.13-1.19-4.32,0c-1.19,1.19-1.19,3.1,0,4.29c0.61,0.61,1.37,0.88,2.16,0.88
					c0.76,0,1.55-0.28,2.16-0.88C99.9,222.93,99.9,221.01,98.71,219.83z"/>
				<path d="M210.92,336.35c-1.19,1.19-1.19,3.1,0,4.29c0.61,0.61,1.37,0.91,2.16,0.91c0.79,0,1.55-0.31,2.16-0.91
					c1.19-1.19,1.19-3.1,0-4.29C214.05,335.16,212.1,335.16,210.92,336.35z"/>
				<path class="st9" d="M111.65,232.76c-1.19-1.19-3.1-1.19-4.29,0c-1.19,1.19-1.19,3.13,0,4.32c0.58,0.58,1.37,0.88,2.13,0.88
					c0.79,0,1.55-0.31,2.16-0.88C112.83,235.89,112.83,233.95,111.65,232.76z"/>
				<path class="st12" d="M226.01,354.49c0.79,0,1.58-0.31,2.16-0.88c1.19-1.19,1.19-3.14,0-4.32c-1.19-1.19-3.1-1.19-4.29,0
					c-1.19,1.19-1.19,3.13,0,4.32C224.46,354.18,225.25,354.49,226.01,354.49z"/>
				<path class="st11" d="M238.98,367.45c0.76,0,1.55-0.3,2.16-0.91c1.18-1.19,1.18-3.11,0-4.29c-1.19-1.19-3.14-1.19-4.32,0
					c-1.18,1.18-1.18,3.1,0,4.29C237.42,367.15,238.18,367.45,238.98,367.45z"/>
				<path class="st11" d="M166.64,328.59c0.76,0,1.55-0.3,2.13-0.88c1.19-1.19,1.19-3.14,0-4.32c-1.19-1.19-3.1-1.19-4.29,0
					c-1.18,1.19-1.18,3.13,0,4.32C165.06,328.28,165.85,328.59,166.64,328.59z"/>
				<path d="M140.74,302.69c0.76,0,1.55-0.27,2.16-0.88c1.19-1.19,1.19-3.1,0-4.32c-1.22-1.16-3.13-1.16-4.32,0
					c-1.19,1.22-1.19,3.14,0,4.32C139.19,302.42,139.95,302.69,140.74,302.69z"/>
				<path class="st11" d="M65.21,224.12c1.19-1.19,1.19-3.11,0-4.29c-1.19-1.19-3.14-1.19-4.32,0c-1.19,1.19-1.19,3.1,0,4.29
					c0.61,0.61,1.37,0.88,2.16,0.88C63.84,225,64.6,224.72,65.21,224.12z"/>
				<path class="st11" d="M129.94,288.88c1.19-1.19,1.19-3.13,0-4.32c-1.19-1.19-3.1-1.19-4.32,0c-1.16,1.19-1.16,3.14,0,4.32
					c0.61,0.58,1.4,0.88,2.16,0.88C128.57,289.76,129.33,289.45,129.94,288.88z"/>
				<path class="st10" d="M114.84,276.79c0.76,0,1.55-0.27,2.16-0.88c1.19-1.19,1.19-3.1,0-4.32c-1.19-1.16-3.14-1.16-4.32,0
					c-1.18,1.22-1.18,3.14,0,4.32C113.29,276.52,114.05,276.79,114.84,276.79z"/>
				<path class="st11" d="M153.67,315.65c0.79,0,1.55-0.3,2.16-0.91c1.19-1.19,1.19-3.1,0-4.29c-1.19-1.18-3.1-1.18-4.29,0
					c-1.19,1.19-1.19,3.11,0,4.29C152.12,315.35,152.91,315.65,153.67,315.65z"/>
				<path class="st11" d="M101.88,263.86c0.79,0,1.55-0.3,2.16-0.88c1.19-1.19,1.19-3.14,0-4.32c-1.19-1.19-3.1-1.19-4.29,0
					c-1.19,1.19-1.19,3.14,0,4.32C100.33,263.56,101.12,263.86,101.88,263.86z"/>
				<path class="st12" d="M88.95,250.9c0.79,0,1.55-0.27,2.16-0.88c1.19-1.19,1.19-3.11,0-4.29c-1.19-1.19-3.13-1.19-4.32,0
					c-1.19,1.19-1.19,3.1,0,4.29C87.39,250.62,88.15,250.9,88.95,250.9z"/>
				<path class="st12" d="M75.98,237.96c0.79,0,1.58-0.31,2.16-0.88c1.18-1.19,1.18-3.14,0-4.32c-1.19-1.19-3.1-1.19-4.29,0
					c-1.19,1.19-1.19,3.13,0,4.32C74.43,237.66,75.22,237.96,75.98,237.96z"/>
				<path class="st12" d="M179.57,341.55c0.79,0,1.55-0.31,2.16-0.91c1.19-1.19,1.19-3.1,0-4.29c-1.19-1.19-3.14-1.19-4.32,0
					c-1.19,1.19-1.19,3.1,0,4.29C178.02,341.25,178.81,341.55,179.57,341.55z"/>
				<path class="st11" d="M37.15,199.1c0.79,0,1.55-0.27,2.16-0.88c1.19-1.19,1.19-3.1,0-4.29c-1.19-1.19-3.13-1.19-4.32,0
					c-1.19,1.19-1.19,3.11,0,4.29C35.6,198.83,36.36,199.1,37.15,199.1z"/>
				<path d="M192.54,354.49c0.76,0,1.55-0.31,2.13-0.88c1.19-1.19,1.19-3.14,0-4.32c-1.19-1.19-3.1-1.19-4.29,0
					c-1.19,1.19-1.19,3.13,0,4.32C190.95,354.18,191.74,354.49,192.54,354.49z"/>
				<path class="st12" d="M218.43,380.39c0.76,0,1.55-0.3,2.13-0.88c1.19-1.19,1.19-3.14,0-4.32c-1.19-1.19-3.1-1.19-4.29,0
					c-1.19,1.19-1.19,3.14,0,4.32C216.85,380.08,217.64,380.39,218.43,380.39z"/>
				<path class="st10" d="M50.11,212.07c0.76,0,1.55-0.31,2.13-0.88c1.19-1.19,1.19-3.14,0-4.32c-1.19-1.19-3.1-1.19-4.29,0
					c-1.19,1.19-1.19,3.14,0,4.32C48.53,211.76,49.32,212.07,50.11,212.07z"/>
				<path class="st11" d="M205.47,367.45c0.79,0,1.55-0.3,2.16-0.91c1.19-1.19,1.19-3.11,0-4.29c-1.19-1.19-3.13-1.19-4.32,0
					c-1.19,1.18-1.19,3.1,0,4.29C203.92,367.15,204.68,367.45,205.47,367.45z"/>
				<path d="M182.77,375.18c-0.05,0.05-0.07,0.12-0.11,0.17c1.72,0.52,3.46,0.99,5.19,1.47c-0.1-0.6-0.33-1.18-0.79-1.64
					C185.87,374,183.95,374,182.77,375.18z"/>
				<path class="st9" d="M171.96,367.45c0.79,0,1.55-0.3,2.16-0.91c1.19-1.19,1.19-3.11,0-4.29c-1.19-1.19-3.1-1.19-4.29,0
					c-1.19,1.18-1.19,3.1,0,4.29C170.41,367.15,171.2,367.45,171.96,367.45z"/>
				<path class="st9" d="M159.03,354.49c0.76,0,1.55-0.31,2.16-0.88c1.19-1.19,1.19-3.14,0-4.32c-1.22-1.19-3.14-1.19-4.32,0
					c-1.19,1.19-1.19,3.13,0,4.32C157.48,354.18,158.24,354.49,159.03,354.49z"/>
				<path class="st11" d="M66.24,258.66c-1.19,1.19-1.19,3.14,0,4.32c0.58,0.58,1.37,0.88,2.16,0.88c0.76,0,1.55-0.3,2.13-0.88
					c1.19-1.19,1.19-3.14,0-4.32C69.35,257.47,67.43,257.47,66.24,258.66z"/>
				<path class="st10" d="M79.18,275.91c0.61,0.61,1.37,0.88,2.16,0.88c0.79,0,1.55-0.27,2.16-0.88c1.19-1.19,1.19-3.1,0-4.32
					c-1.19-1.16-3.13-1.16-4.32,0C77.99,272.81,77.99,274.73,79.18,275.91z"/>
				<path class="st12" d="M55.44,250.9c0.79,0,1.55-0.27,2.16-0.88c1.18-1.19,1.18-3.11,0-4.29c-1.19-1.19-3.14-1.19-4.32,0
					c-1.19,1.19-1.19,3.1,0,4.29C53.89,250.62,54.68,250.9,55.44,250.9z"/>
				<path class="st12" d="M107.24,302.69c0.79,0,1.55-0.27,2.16-0.88c1.19-1.19,1.19-3.1,0-4.32c-1.19-1.16-3.13-1.16-4.32,0
					c-1.19,1.22-1.19,3.14,0,4.32C105.68,302.42,106.44,302.69,107.24,302.69z"/>
				<path d="M96.43,284.55c-1.19-1.19-3.1-1.19-4.29,0c-1.19,1.19-1.19,3.14,0,4.32c0.58,0.58,1.37,0.88,2.13,0.88
					c0.79,0,1.58-0.3,2.16-0.88C97.62,287.69,97.62,285.74,96.43,284.55z"/>
				<path class="st9" d="M120.17,315.65c0.79,0,1.58-0.3,2.16-0.91c1.19-1.19,1.19-3.1,0-4.29c-1.19-1.18-3.1-1.18-4.29,0
					c-1.19,1.19-1.19,3.11,0,4.29C118.62,315.35,119.41,315.65,120.17,315.65z"/>
				<path d="M42.51,237.96c0.76,0,1.55-0.31,2.13-0.88c1.19-1.19,1.19-3.14,0-4.32c-1.19-1.19-3.11-1.19-4.29,0
					c-1.19,1.19-1.19,3.13,0,4.32C40.92,237.66,41.71,237.96,42.51,237.96z"/>
				<path d="M133.13,328.59c0.76,0,1.55-0.3,2.16-0.88c1.19-1.19,1.19-3.14,0-4.32c-1.19-1.19-3.13-1.19-4.32,0
					c-1.19,1.19-1.19,3.13,0,4.32C131.58,328.28,132.34,328.59,133.13,328.59z"/>
				<path class="st9" d="M146.07,341.55c0.79,0,1.58-0.31,2.16-0.91c1.19-1.19,1.19-3.1,0-4.29c-1.19-1.19-3.1-1.19-4.29,0
					c-1.18,1.19-1.18,3.1,0,4.29C144.52,341.25,145.3,341.55,146.07,341.55z"/>
				<path d="M75.89,297.49c-1.14-1.11-2.96-1.13-4.16-0.11c1.2,1.6,2.47,3.15,3.71,4.72c0.15-0.1,0.31-0.16,0.45-0.3
					C77.08,300.62,77.08,298.71,75.89,297.49z"/>
				<path class="st12" d="M101.79,323.39c-1.19-1.19-3.14-1.19-4.32,0c-0.51,0.51-0.75,1.16-0.82,1.82c1.16,1.1,2.3,2.21,3.48,3.28
					c0.61-0.1,1.19-0.33,1.67-0.78C102.97,326.52,102.97,324.57,101.79,323.39z"/>
				<path class="st12" d="M88.82,310.45c-1.19-1.18-3.1-1.18-4.29,0c-0.44,0.44-0.66,0.99-0.77,1.56c1.08,1.21,2.19,2.39,3.29,3.58
					c0.64-0.08,1.29-0.33,1.77-0.84C90.01,313.56,90.01,311.64,88.82,310.45z"/>
				<path class="st11" d="M125.81,348.45c0.75,0.5,1.53,0.98,2.29,1.47c-0.13-0.22-0.23-0.45-0.42-0.63
					C127.17,348.76,126.5,348.51,125.81,348.45z"/>
				<path d="M62.84,284.5c0.26,0.41,0.52,0.82,0.78,1.22c-0.15-0.42-0.36-0.83-0.7-1.16C62.9,284.53,62.87,284.52,62.84,284.5z"/>
				<path class="st10" d="M114.72,336.35c-1.19-1.19-3.1-1.19-4.29,0c-0.16,0.16-0.25,0.37-0.37,0.56c1.55,1.24,3.11,2.49,4.69,3.69
					C115.9,339.4,115.89,337.52,114.72,336.35z"/>
			</g>
		</g>
		<linearGradient id="SVGID_7_" gradientUnits="userSpaceOnUse" x1="86.0333" y1="93.9954" x2="221.708" y2="75.8247">
			<stop  offset="0.2081" style="stop-color:#72227F;stop-opacity:0"/>
			<stop  offset="1" style="stop-color:#72227F"/>
		</linearGradient>
		<path class="st13" d="M125.2,149.18c1.76,2.46,3.57,4.89,5.33,7.35c29.46-37.08,74.91-60.88,125.95-60.88h42.69V4.95h-42.69
			c-70.72,0-134.59,29.23-180.29,76.22C92.94,103.54,108.96,126.44,125.2,149.18z"/>
	</g>
	<linearGradient id="SVGID_8_" gradientUnits="userSpaceOnUse" x1="265.3009" y1="27.9867" x2="342.1343" y2="369.0289">
		<stop  offset="0" style="stop-color:#00C6DB"/>
		<stop  offset="1" style="stop-color:#72227F"/>
	</linearGradient>
	<path class="st14" d="M392.54,4.93h-90.71c-50.08,0-90.71,40.63-90.71,90.71v279.72c14.38,4.26,29.64,6.52,45.35,6.52
		c15.77,0,30.97-2.26,45.35-6.47l0-279.77C301.83,45.56,342.46,4.93,392.54,4.93z"/>
	<path class="st15" d="M216.59,36.31c0-43.48,35.27-78.75,78.75-78.75h31.93c11.12-6.01,23.85-9.44,37.38-9.44H285.9
		c-43.48,0-78.75,35.27-78.75,78.75v242.84c3.1,0.92,6.25,1.73,9.44,2.43V36.31z"/>
</g>
<g>
	<g>
	</g>
</g>
</svg>
