<svg width="36" height="54" viewBox="0 0 36 54" fill="none" xmlns="http://www.w3.org/2000/svg">
<path d="M9 54C13.9814 54 18 49.9814 18 45V36H9C4.0186 36 0 40.0186 0 45C0 49.9814 4.0186 54 9 54Z" fill="#0ACF83"/>
<path d="M0 27C0 22.0186 4.0186 18 9 18H18V36H9C4.0186 36 0 31.9814 0 27Z" fill="#A259FF"/>
<path d="M0 9C0 4.0186 4.0186 0 9 0H18V18H9C4.0186 18 0 13.9814 0 9Z" fill="#F24E1E"/>
<path d="M18 0H27C31.9814 0 36 4.0186 36 9C36 13.9814 31.9814 18 27 18H18V0Z" fill="#FF7262"/>
<path d="M36 27C36 31.9814 31.9814 36 27 36C22.0186 36 18 31.9814 18 27C18 22.0186 22.0186 18 27 18C31.9814 18 36 22.0186 36 27Z" fill="#1ABCFE"/>
</svg>
