<svg width="292" height="41" viewBox="0 0 292 41" fill="none" xmlns="http://www.w3.org/2000/svg">
<path d="M11.9137 18.4138H9.43212L7.26161 32.0657C7.20752 32.424 6.86267 32.7148 6.5043 32.7148H1.5412C1.18283 32.7148 0.932649 32.424 0.993505 32.0657L4.04303 12.9165C4.81387 8.07511 7.26837 7 10.6357 7C11.6838 7 12.7724 7.10143 13.6311 7.25694C14.0098 7.32456 14.2667 7.5477 14.2127 7.90607L13.7191 10.9962C13.665 11.3545 13.3269 11.6115 12.9347 11.6115H11.5621C10.7439 11.6115 10.4667 11.9361 10.3111 12.9097L10.1692 13.7888H12.6507C13.0091 13.7888 13.2593 14.0795 13.1984 14.4379L12.671 17.7511C12.6169 18.1095 12.272 18.4002 11.9137 18.4002V18.4138Z" fill="#161F2B"/>
<path d="M24.2999 18.6368H23.8401C22.4337 18.6368 21.0678 18.8329 19.9656 19.3874L17.9574 31.998C17.9033 32.3563 17.5787 32.7147 17.1933 32.7147H12.2978C11.9057 32.7147 11.6352 32.3563 11.6961 31.998L14.4886 14.4446C14.5427 14.0862 14.7862 13.7954 15.246 13.7954H19.9453C20.4051 13.7954 20.5742 13.9577 20.493 14.4446L20.3713 15.2222C22.082 13.694 23.2856 13.5317 25.0166 13.5317C25.5711 13.5317 25.6522 13.6602 25.5643 14.1809L24.9355 18.15C24.8746 18.5422 24.7259 18.6368 24.2999 18.6368Z" fill="#161F2B"/>
<path d="M40.7084 25.0139H30.5523L30.5387 25.0815C30.2615 26.8057 30.8092 27.8741 33.1961 27.8741C34.9271 27.8741 38.1524 27.7118 39.4439 27.6171C39.9713 27.5833 40.1539 27.6848 40.0728 28.1716L39.6062 31.0994C39.5251 31.6201 39.356 31.85 38.8083 32.0123C36.6108 32.6952 34.305 33.0198 31.5598 33.0198C27.1511 33.0198 23.4389 30.714 24.4261 24.5L24.771 22.3565C25.6838 16.6361 29.511 13.5122 34.8662 13.5122C40.5799 13.5122 42.649 17.123 41.8173 22.3565L41.5062 24.3107C41.4386 24.7299 41.1005 25.0274 40.7084 25.0274V25.0139ZM35.9549 21.4707C36.2659 19.5234 35.6709 18.3468 34.0345 18.3468C32.3982 18.3468 31.4313 19.5166 31.1202 21.4707L31.1067 21.5654H35.9413L35.9549 21.4707Z" fill="#161F2B"/>
<path d="M58.7865 25.0139H48.6304L48.6169 25.0815C48.3396 26.8057 48.8873 27.8741 51.2742 27.8741C53.0052 27.8741 56.2305 27.7118 57.522 27.6171C58.0494 27.5833 58.232 27.6848 58.1509 28.1716L57.6843 31.0994C57.6032 31.6201 57.4341 31.85 56.8864 32.0123C54.6889 32.6952 52.3831 33.0198 49.6379 33.0198C45.2292 33.0198 41.5171 30.714 42.5043 24.5L42.8491 22.3565C43.7619 16.6361 47.5891 13.5122 52.9444 13.5122C58.658 13.5122 60.7271 17.123 59.8954 22.3565L59.5844 24.3107C59.5167 24.7299 59.1787 25.0274 58.7865 25.0274V25.0139ZM54.0262 21.4707C54.3373 19.5234 53.7422 18.3468 52.1059 18.3468C50.4696 18.3468 49.5026 19.5166 49.1916 21.4707L49.1781 21.5654H54.0127L54.0262 21.4707Z" fill="#161F2B"/>
<path d="M65.4139 32.7154H60.4846C60.1262 32.7154 59.8219 32.357 59.8828 31.9987L63.6626 8.23799C63.7167 7.87962 64.1224 7.58887 64.4875 7.58887H69.4168C69.7752 7.58887 70.0254 7.87962 69.9645 8.23799L66.1847 31.9987C66.1306 32.357 65.779 32.7154 65.4206 32.7154H65.4139Z" fill="#161F2B"/>
<path d="M82.7674 32.7153H78.2303C77.8719 32.7153 77.6217 32.4245 77.6826 32.0662L77.7908 31.3832C76.4046 32.2961 74.6601 33.006 72.8615 33.006C70.2785 33.006 67.5062 31.5726 68.2027 27.1842L68.2635 26.792C68.8856 22.8905 72.0771 21.4908 77.5338 21.4908H78.9403L79.089 20.551C79.3392 18.9552 78.8659 18.6644 77.2363 18.6644C75.4039 18.6644 72.4423 18.8267 71.5159 18.8943C70.9547 18.9281 70.8397 18.6374 70.9006 18.2452L71.4009 15.0943C71.4753 14.6074 71.7661 14.4451 72.1785 14.3167C73.3078 13.9921 76.1882 13.5391 78.2776 13.5391C83.0108 13.5391 86.2023 15.2295 85.3571 20.5577L83.5247 32.0662C83.4706 32.4245 83.1258 32.7153 82.7674 32.7153ZM78.5886 24.8785H76.9861C75.3566 24.8785 74.6195 25.3991 74.4031 26.765L74.3491 27.0895C74.1732 28.1985 74.8697 28.523 75.7893 28.523C76.5737 28.523 77.4933 28.2931 78.0883 28.0362L78.5886 24.8852V24.8785Z" fill="#161F2B"/>
<path d="M101.634 32.7147H96.7386C96.3464 32.7147 96.0759 32.3563 96.1368 31.998L97.8881 20.9764C98.1653 19.2521 97.692 18.6977 96.2247 18.6977C95.4741 18.6977 94.4802 18.9884 93.6688 19.3806L91.6605 31.9912C91.6064 32.3496 91.2819 32.708 90.8965 32.708H86.001C85.6088 32.708 85.3383 32.3496 85.3992 31.9912L88.1918 14.4378C88.2459 14.0794 88.5907 13.7887 88.9491 13.7887H93.4862C93.8446 13.7887 94.0947 14.0794 94.0339 14.4378L93.9122 15.1884C95.8528 13.8901 97.7326 13.5317 99.565 13.5317C104.69 13.5317 104.778 17.1087 104.163 20.9764L102.412 31.998C102.358 32.3563 102.033 32.7147 101.648 32.7147H101.634Z" fill="#161F2B"/>
<path d="M116.109 32.4849C114.96 32.7419 113.479 33.0056 111.552 33.0056C106.555 33.0056 104.256 29.8208 105.101 24.4858L105.487 22.0449C106.332 16.7437 109.659 13.498 114.649 13.498C116.576 13.498 118.158 13.7888 119.037 14.0187C119.45 14.1134 119.646 14.2756 119.578 14.7016L118.997 18.3732C118.936 18.7654 118.692 19.0562 118.212 18.9886C117.117 18.8939 116.096 18.7587 114.493 18.7587C113.087 18.7587 112.133 19.6377 111.748 22.0449L111.363 24.4858C110.977 26.893 111.66 27.7382 113.066 27.7382C114.669 27.7382 115.724 27.6706 116.853 27.5421C117.353 27.4745 117.509 27.7382 117.441 28.1574L116.86 31.802C116.792 32.228 116.535 32.3903 116.096 32.4849H116.109Z" fill="#161F2B"/>
<path d="M135.286 25.0139H125.13L125.117 25.0815C124.84 26.8057 125.387 27.8741 127.774 27.8741C129.505 27.8741 132.731 27.7118 134.022 27.6171C134.549 27.5833 134.732 27.6848 134.651 28.1716L134.184 31.0994C134.103 31.6201 133.934 31.85 133.386 32.0123C131.189 32.6952 128.883 33.0198 126.138 33.0198C121.729 33.0198 118.017 30.714 119.004 24.5L119.349 22.3565C120.262 16.6361 124.089 13.5122 129.444 13.5122C135.158 13.5122 137.227 17.123 136.395 22.3565L136.084 24.3107C136.017 24.7299 135.679 25.0274 135.286 25.0274V25.0139ZM130.526 21.4707C130.837 19.5234 130.242 18.3468 128.606 18.3468C126.97 18.3468 126.003 19.5166 125.692 21.4707L125.678 21.5654H130.513L130.526 21.4707Z" fill="#161F2B"/>
<path d="M145.545 13.7959L142.637 31.9984C142.583 32.3568 142.258 32.7152 141.873 32.7152H136.978C136.585 32.7152 136.315 32.3568 136.376 31.9984L138.303 19.9558L145.551 13.7959H145.545Z" fill="#161F2B"/>
<path d="M147.218 13.7959L146.211 20.0437L156.982 13.7959H147.218Z" fill="#29B2FE"/>
<path d="M222.074 18.2356C222.478 17.8445 222.764 17.3475 222.899 16.8015C223.033 16.2555 223.012 15.6825 222.836 15.1483C222.664 14.6125 222.345 14.136 221.915 13.7733C221.484 13.4107 220.961 13.1766 220.404 13.0979L210.234 11.6202C210.021 11.5893 209.818 11.5068 209.644 11.3801C209.47 11.2534 209.329 11.0861 209.233 10.8928L204.687 1.67868C204.44 1.17337 204.055 0.747899 203.578 0.451008C203.1 0.154118 202.548 -0.00217957 201.986 2.2961e-05C201.423 -0.00202134 200.872 0.154351 200.394 0.451232C199.916 0.748113 199.532 1.1735 199.285 1.67868L194.738 10.8936C194.544 11.2864 194.169 11.558 193.736 11.6211L183.567 13.0987C183.009 13.1774 182.486 13.4115 182.056 13.7742C181.625 14.1368 181.306 14.6134 181.134 15.1491C180.959 15.6834 180.937 16.2563 181.072 16.8023C181.206 17.3483 181.492 17.8454 181.896 18.2365L189.254 25.4086C189.568 25.7147 189.712 26.1554 189.638 26.586L187.902 36.7134C187.823 37.1438 187.842 37.5862 187.955 38.0086C188.069 38.431 188.275 38.8229 188.559 39.1557C189.455 40.2213 191.02 40.5459 192.272 39.8883L201.367 35.1063C201.558 35.0084 201.77 34.9574 201.986 34.9574C202.201 34.9574 202.413 35.0084 202.605 35.1063L211.7 39.8883C212.131 40.1183 212.612 40.2387 213.101 40.239C213.99 40.239 214.833 39.8437 215.412 39.1557C215.696 38.8229 215.902 38.431 216.016 38.0086C216.129 37.5862 216.148 37.1438 216.069 36.7134L214.332 26.586C214.296 26.3734 214.312 26.1551 214.379 25.95C214.446 25.7449 214.561 25.5591 214.716 25.4086L222.074 18.2356Z" fill="url(#paint0_linear_3794_2036)"/>
<path d="M248.558 29.4V25.5785L257.308 13.0615H262.598V25.3015H264.868V29.4H262.598V33H257.862V29.4H248.558ZM258.195 18.2677L253.542 25.3015H258.195V18.2677ZM269.874 33.2215C269.043 33.2215 268.36 32.9815 267.825 32.5015C267.308 32.0031 267.049 31.3938 267.049 30.6738C267.049 29.9354 267.308 29.3169 267.825 28.8185C268.36 28.32 269.043 28.0708 269.874 28.0708C270.686 28.0708 271.351 28.32 271.868 28.8185C272.403 29.3169 272.671 29.9354 272.671 30.6738C272.671 31.3938 272.403 32.0031 271.868 32.5015C271.351 32.9815 270.686 33.2215 269.874 33.2215ZM289.237 16.9108H280.597V20.7323C280.966 20.3262 281.483 19.9938 282.148 19.7354C282.813 19.4769 283.533 19.3477 284.308 19.3477C285.693 19.3477 286.837 19.6615 287.742 20.2892C288.665 20.9169 289.339 21.7292 289.763 22.7262C290.188 23.7231 290.4 24.8031 290.4 25.9662C290.4 28.1262 289.791 29.8431 288.573 31.1169C287.354 32.3723 285.637 33 283.422 33C281.945 33 280.662 32.7508 279.573 32.2523C278.483 31.7354 277.643 31.0246 277.053 30.12C276.462 29.2154 276.139 28.1723 276.083 26.9908H280.708C280.819 27.5631 281.086 28.0431 281.511 28.4308C281.936 28.8 282.517 28.9846 283.256 28.9846C284.123 28.9846 284.77 28.7077 285.194 28.1538C285.619 27.6 285.831 26.8615 285.831 25.9385C285.831 25.0338 285.61 24.3415 285.166 23.8615C284.723 23.3815 284.077 23.1415 283.228 23.1415C282.6 23.1415 282.083 23.2985 281.677 23.6123C281.271 23.9077 281.003 24.3046 280.874 24.8031H276.305V12.7569H289.237V16.9108Z" fill="black"/>
<defs>
<linearGradient id="paint0_linear_3794_2036" x1="219.176" y1="-3711.61" x2="177.133" y2="-3711.57" gradientUnits="userSpaceOnUse">
<stop stop-color="#04BFD7"/>
<stop offset="0.7949" stop-color="#63388B"/>
</linearGradient>
</defs>
</svg>
