<svg width="14" height="15" viewBox="0 0 14 15" fill="none" xmlns="http://www.w3.org/2000/svg">
<path d="M13.7056 12.4577H9.85524C9.87281 12.4017 9.88909 12.3457 9.90341 12.2884L10.197 12.1765C10.3344 12.1185 10.4236 11.9792 10.4236 11.8216V11.7409H11.0942C11.1664 11.918 11.3396 12.0436 11.5421 12.0436C11.7446 12.0436 11.9184 11.918 11.99 11.7409H12.9718C13.0727 11.7409 13.1541 11.6595 13.1541 11.5593C13.1541 11.459 13.0727 11.3776 12.9718 11.3776H12.5421L12.5408 4.93736H13.1222C13.2231 4.93736 13.3045 4.85598 13.3045 4.75506C13.3045 4.6548 13.2231 4.57342 13.1222 4.57342H10.072C9.97108 4.57342 9.88969 4.6548 9.88969 4.75506C9.88969 4.85531 9.97107 4.93736 10.072 4.93736H10.6534V10.2968H9.71327C9.66835 10.1991 9.61952 10.1034 9.56418 10.011L9.69179 9.7245C9.74908 9.58843 9.71262 9.42696 9.59869 9.31303L9.23475 8.94974C9.12602 8.8345 8.96326 8.79088 8.81156 8.85469L8.53226 8.98034C8.3415 8.86576 8.13902 8.77265 7.92613 8.70169V4.9373H8.50752C8.60778 4.9373 8.68982 4.85591 8.68982 4.75499C8.68982 4.65473 8.60844 4.57336 8.50752 4.57336H5.45798C5.35706 4.57336 5.27634 4.65474 5.27634 4.75499C5.27634 4.85525 5.35707 4.9373 5.45798 4.9373H6.03937V8.70035C5.82778 8.77132 5.62464 8.86442 5.43259 8.97966L5.14612 8.8514C5.00745 8.79281 4.83948 8.83317 4.73465 8.9445L4.37006 9.30844C4.25222 9.41977 4.21446 9.58318 4.27566 9.72706L4.40196 10.0096C4.34597 10.1021 4.29779 10.1984 4.25287 10.2954L3.3134 10.2961V4.93732H3.8948C3.99571 4.93732 4.0771 4.85594 4.0771 4.75502C4.0771 4.65476 3.99572 4.57338 3.8948 4.57338H0.844583C0.744322 4.57338 0.662947 4.65477 0.662947 4.75502C0.662947 4.85528 0.744328 4.93732 0.844583 4.93732H1.42663V11.3769H0.996285C0.896024 11.3769 0.814649 11.4583 0.814649 11.5586C0.814649 11.6588 0.89603 11.7402 0.996285 11.7402H1.97417C2.04643 11.9173 2.21962 12.0429 2.42209 12.0429C2.62523 12.0429 2.7984 11.9173 2.87066 11.7402H3.54451V11.8209C3.54451 11.9843 3.6324 12.1204 3.77693 12.1783L4.06405 12.2877C4.07772 12.345 4.0953 12.401 4.11158 12.457H3.06338L0.260667 12.4576C0.160406 12.4576 0.0790314 12.539 0.0790314 12.6393C0.0790314 12.7395 0.160413 12.8216 0.260667 12.8216H2.74837L2.63639 13.0156C2.61426 13.0123 2.59212 13.0091 2.56933 13.0091C2.3024 13.0091 2.08496 13.2265 2.08496 13.4935C2.08496 13.7624 2.30241 13.9818 2.56933 13.9818C2.83625 13.9818 3.05371 13.763 3.05371 13.4935C3.05371 13.3821 3.01464 13.2806 2.95084 13.1985L3.16829 12.8216H4.25229C4.29787 12.9199 4.34605 13.0169 4.40269 13.1107L4.27508 13.3939C4.21583 13.5338 4.2549 13.7025 4.36818 13.8092L4.73602 14.1764C4.84865 14.2891 5.00426 14.3301 5.15074 14.2682L5.4333 14.1419C5.68982 14.2962 5.96455 14.4095 6.25298 14.4811L6.36431 14.7663C6.41574 14.9063 6.56028 15 6.72238 15H7.24452C7.40207 15 7.54139 14.9115 7.60194 14.7676L7.71132 14.4805C8.00039 14.4095 8.27643 14.2956 8.53295 14.1419L8.81615 14.2695C8.95027 14.3255 9.11954 14.2878 9.23152 14.1764L9.59806 13.8092C9.71265 13.6947 9.74911 13.5319 9.68921 13.39L9.56356 13.1113C9.61955 13.0176 9.66838 12.9206 9.71395 12.8222H10.7979L11.0154 13.1992C10.9516 13.2812 10.9125 13.3828 10.9125 13.4941C10.9125 13.763 11.13 13.9824 11.3969 13.9824C11.6645 13.9824 11.8813 13.7637 11.8813 13.4941C11.8813 13.2272 11.6638 13.0097 11.3969 13.0097C11.3741 13.0097 11.352 13.0136 11.3305 13.0163L11.2185 12.8222H13.7062C13.8071 12.8222 13.8885 12.7409 13.8885 12.6399C13.8879 12.5384 13.8065 12.4577 13.7056 12.4577ZM2.57012 13.6172C2.50372 13.6172 2.44968 13.5612 2.44968 13.4929C2.44968 13.4278 2.50437 13.3718 2.57012 13.3718C2.63588 13.3718 2.69122 13.4271 2.69122 13.4929C2.69057 13.5612 2.63653 13.6172 2.57012 13.6172ZM11.3971 9.74549C11.3313 9.74549 11.2766 9.69016 11.2766 9.62505C11.2766 9.55864 11.3307 9.5046 11.3971 9.5046C11.4635 9.5046 11.5182 9.55864 11.5182 9.62505C11.5175 9.69015 11.4628 9.74549 11.3971 9.74549ZM11.5416 11.6797C11.4759 11.6797 11.4212 11.6244 11.4212 11.5592C11.4212 11.4935 11.4759 11.4388 11.5416 11.4388C11.608 11.4388 11.6627 11.4928 11.6627 11.5592C11.6621 11.6257 11.608 11.6797 11.5416 11.6797ZM12.1764 4.93742V11.377H11.9895C11.9173 11.1999 11.7441 11.0743 11.5416 11.0743C11.3392 11.0743 11.1653 11.1999 11.0937 11.377H11.0182V10.6185C11.0351 10.6049 11.0507 10.5886 11.0625 10.5691L11.3313 10.1023C11.3535 10.1055 11.3756 10.1088 11.3977 10.1088C11.6653 10.1088 11.8821 9.89131 11.8821 9.62439C11.8821 9.35745 11.6647 9.14002 11.3977 9.14002C11.2428 9.14002 11.1067 9.21424 11.0182 9.32752L11.0175 4.93745L12.1764 4.93742ZM10.6536 10.6602V11.377H10.4231V11.2995C10.4231 11.1367 10.3294 10.9929 10.192 10.9427L9.90358 10.8301C9.88926 10.7728 9.87233 10.7162 9.85475 10.6602L10.6536 10.6602ZM7.56371 4.93742V8.28247C7.49535 8.18156 7.37946 8.12101 7.24534 8.12101H6.7232C6.58778 8.12101 6.46995 8.18286 6.40418 8.27922V4.93733L7.56371 4.93742ZM2.57014 9.74549C2.50503 9.74549 2.44969 9.69016 2.44969 9.62505C2.44969 9.55864 2.50373 9.5046 2.57014 9.5046C2.63655 9.5046 2.69123 9.55864 2.69123 9.62505C2.69058 9.69015 2.63524 9.74549 2.57014 9.74549ZM2.42235 11.6797C2.35724 11.6797 2.30125 11.6244 2.30125 11.5592C2.30125 11.4935 2.35659 11.4388 2.42235 11.4388C2.48876 11.4388 2.54344 11.4928 2.54344 11.5592C2.54279 11.6257 2.48876 11.6797 2.42235 11.6797ZM2.87027 11.377C2.79801 11.1999 2.62482 11.0742 2.4217 11.0742C2.21923 11.0742 2.04539 11.1999 1.97378 11.377H1.79017V4.93736H2.94969V9.32809C2.86115 9.21481 2.72442 9.14059 2.57013 9.14059C2.3032 9.14059 2.08576 9.35804 2.08576 9.62496C2.08576 9.89188 2.30321 10.1093 2.57013 10.1093C2.59357 10.1093 2.61506 10.1054 2.63719 10.1028L2.90543 10.5696C2.9165 10.5892 2.93212 10.6054 2.9497 10.6191V11.3776L2.87027 11.377ZM3.31365 11.377V10.6601H4.11249C4.09491 10.7161 4.07733 10.7728 4.06366 10.8301L3.78111 10.9401C3.63723 10.9909 3.54412 11.1315 3.54412 11.2988V11.3763L3.31365 11.377ZM9.34174 13.5515L8.97455 13.9187C8.96413 13.9291 8.95437 13.9317 8.96088 13.935L8.59434 13.7696C8.5377 13.7442 8.47324 13.7494 8.42115 13.7826C8.14966 13.9584 7.85278 14.0801 7.53832 14.1465C7.47777 14.1589 7.42829 14.2019 7.40616 14.2598L7.26488 14.6303C7.26358 14.6322 7.25707 14.6361 7.2447 14.6361H6.72256C6.71409 14.6361 6.70823 14.6342 6.70563 14.6342C6.70433 14.6342 6.70368 14.6342 6.70368 14.6348L6.55654 14.2579C6.53375 14.2006 6.48427 14.1589 6.42503 14.1459C6.11317 14.0795 5.81695 13.9571 5.54611 13.782C5.49403 13.7488 5.42957 13.7436 5.37358 13.7689L5.0142 13.9317C5.0116 13.9311 5.00379 13.9284 4.99337 13.918L4.62227 13.5469C4.6138 13.5391 4.61185 13.532 4.60924 13.5378L4.77461 13.1706C4.8 13.114 4.79479 13.0489 4.76224 12.9968C4.72448 12.9388 4.69128 12.8796 4.65938 12.8197H4.71406C4.81432 12.8197 4.8957 12.7383 4.8957 12.6374C4.8957 12.5371 4.81432 12.4558 4.71406 12.4558H4.49726C4.45755 12.3444 4.42239 12.2305 4.39765 12.114C4.38528 12.0534 4.34231 12.0033 4.28502 11.9811L3.91261 11.8405C3.91131 11.8392 3.9087 11.8321 3.9087 11.8197V11.7389H4.0578C4.15871 11.7389 4.2401 11.6576 4.2401 11.5573C4.2401 11.4571 4.15872 11.3757 4.0578 11.3757H3.9087V11.2982C3.9087 11.2891 3.91066 11.2826 3.91131 11.2793L4.28566 11.1328C4.34296 11.1107 4.38462 11.0612 4.39765 11.0013C4.42239 10.8848 4.45819 10.7709 4.49856 10.6589H4.71406C4.81432 10.6589 4.8957 10.5775 4.8957 10.4772C4.8957 10.377 4.81432 10.2956 4.71406 10.2956H4.66133C4.69323 10.237 4.72643 10.1791 4.76224 10.1224C4.79544 10.071 4.80065 10.0059 4.77526 9.94987L4.6125 9.58724C4.6125 9.58724 4.6138 9.58138 4.62617 9.56901L4.99728 9.1979C5.00379 9.19074 5.00834 9.18813 5.00769 9.18683L5.37423 9.3509C5.43087 9.37564 5.49533 9.37108 5.54677 9.33788C5.81566 9.16404 6.11253 9.04034 6.42765 8.97004C6.48624 8.95702 6.53507 8.91535 6.55721 8.85936L6.70369 8.4876C6.7076 8.4863 6.71411 8.48435 6.72323 8.48435H7.24537C7.25774 8.48435 7.26425 8.4876 7.26295 8.48305L7.40683 8.8574C7.42896 8.91404 7.47779 8.95636 7.53769 8.97003C7.85474 9.04035 8.15228 9.16405 8.42182 9.33787C8.4739 9.37108 8.53901 9.37629 8.59501 9.35089L8.95438 9.18813C8.95633 9.18813 8.96349 9.19009 8.97456 9.20246L9.34175 9.56964C9.35152 9.57941 9.35477 9.58657 9.35803 9.58136L9.19331 9.9505C9.16857 10.0065 9.17313 10.0716 9.20633 10.123C9.24279 10.1797 9.27599 10.2376 9.30724 10.2962H9.25451C9.1536 10.2962 9.07221 10.3776 9.07221 10.4779C9.07221 10.5781 9.15359 10.6595 9.25451 10.6595H9.46936C9.50973 10.7715 9.54488 10.8848 9.56962 11.002C9.58264 11.0618 9.62431 11.1113 9.68161 11.1335L10.0534 11.2767C10.0553 11.2786 10.0592 11.2865 10.0592 11.2988V11.3763H9.90948C9.80857 11.3763 9.72717 11.4577 9.72717 11.5579C9.72717 11.6582 9.80856 11.7396 9.90948 11.7396H10.0592V11.8203C10.0592 11.8333 10.0553 11.8398 10.0612 11.8379L9.68292 11.9818C9.62497 12.0039 9.58266 12.054 9.56963 12.1146C9.54555 12.2311 9.51039 12.3451 9.47002 12.4564H9.25452C9.15361 12.4564 9.07222 12.5378 9.07222 12.638C9.07222 12.7383 9.1536 12.8203 9.25452 12.8203H9.30921C9.2773 12.8802 9.24345 12.9395 9.20634 12.9974C9.17314 13.0495 9.16793 13.1146 9.19397 13.1713L9.35608 13.528C9.35543 13.5306 9.35281 13.5404 9.34174 13.5515ZM11.5176 13.4929C11.5176 13.5613 11.4636 13.6172 11.3965 13.6172C11.3301 13.6172 11.2761 13.5613 11.2761 13.4929C11.2761 13.4278 11.3308 13.3718 11.3965 13.3718C11.4629 13.3724 11.5176 13.4278 11.5176 13.4929ZM13.8685 3.51357L7.06437 0.0200203C7.01229 -0.00667344 6.95044 -0.00667344 6.89835 0.0200203L0.0987488 3.51357C0.0245293 3.55199 -0.0145346 3.63662 0.00499733 3.71801C0.0245293 3.79939 0.0980971 3.85734 0.182083 3.85734H13.7845C13.8691 3.85734 13.9414 3.80004 13.9615 3.71801C13.9811 3.63598 13.9427 3.55199 13.8685 3.51357ZM0.93411 3.49339L6.9817 0.385844L13.0333 3.49339H0.93411ZM6.9817 9.34248C5.75903 9.34248 4.76483 10.3366 4.76483 11.5593C4.76483 12.782 5.75965 13.7762 6.9817 13.7762C8.20569 13.7762 9.20174 12.7821 9.20174 11.5593C9.20174 10.3367 8.20627 9.34248 6.9817 9.34248ZM6.9817 13.4122C5.95955 13.4122 5.12884 12.5808 5.12884 11.5593C5.12884 10.5378 5.96024 9.70649 6.9817 9.70649C8.00515 9.70649 8.83856 10.5379 8.83856 11.5593C8.83856 12.5808 8.00587 13.4122 6.9817 13.4122ZM7.75125 11.7182C7.89253 11.9109 7.93093 12.1459 7.85802 12.3627C7.77534 12.6082 7.5644 12.7924 7.26426 12.8823C7.23106 12.892 7.1972 12.8972 7.16335 12.9038V13.0105C7.16335 13.1108 7.08262 13.1928 6.98171 13.1928C6.88081 13.1928 6.79941 13.1114 6.79941 13.0105V12.9207C6.53182 12.8901 6.28573 12.7703 6.13013 12.5776C6.06698 12.4994 6.07935 12.3849 6.15747 12.3217C6.2356 12.2586 6.34953 12.2709 6.41268 12.349C6.56437 12.5372 6.87949 12.6147 7.16074 12.5333C7.34304 12.4793 7.46869 12.377 7.51231 12.2468C7.54747 12.1433 7.52729 12.0287 7.45632 11.933C7.33457 11.7657 7.17637 11.7377 6.92896 11.7065C6.66333 11.6726 6.33325 11.6303 6.1438 11.252C6.05396 11.0717 6.04744 10.8653 6.12557 10.685C6.21672 10.476 6.41073 10.3184 6.67245 10.2403C6.71411 10.2279 6.75643 10.2201 6.79875 10.2129V10.112C6.79875 10.0118 6.88013 9.93039 6.98105 9.93039C7.08197 9.93039 7.16269 10.0118 7.16269 10.112V10.211C7.39773 10.2481 7.61256 10.3581 7.7519 10.53C7.8157 10.6081 7.80333 10.7227 7.72585 10.7859C7.64773 10.849 7.5338 10.8373 7.47065 10.7592C7.32807 10.584 7.03574 10.5124 6.77662 10.5886C6.61972 10.6355 6.50709 10.7208 6.46022 10.8289C6.42441 10.9115 6.42832 11.004 6.47064 11.0886C6.56894 11.2846 6.71152 11.3113 6.97651 11.3451C7.22326 11.377 7.53054 11.4161 7.75125 11.7182Z" fill="#3F3F3F"/>
</svg>
