<svg width="15" height="15" viewBox="0 0 15 15" fill="none" xmlns="http://www.w3.org/2000/svg">
<path d="M10.9975 5.80651C11.7762 5.80651 12.4781 5.33777 12.7754 4.61825C13.0734 3.89938 12.9083 3.07151 12.3577 2.52083C11.807 1.9708 10.9791 1.80699 10.2602 2.10501C9.54137 2.40365 9.07261 3.10551 9.07324 3.88356C9.07513 4.9458 9.93581 5.80587 10.9975 5.80651ZM12.4365 3.88361C12.4365 4.4664 12.0849 4.99185 11.5469 5.21488C11.0082 5.43729 10.3889 5.3138 9.97681 4.90176C9.56539 4.48971 9.44253 3.86975 9.66557 3.33169C9.88923 2.79364 10.4147 2.4427 10.9975 2.44333C11.7926 2.44459 12.4365 3.08912 12.4365 3.88361Z" fill="#3F3F3F"/>
<path d="M3.32981 12.592C2.18944 12.7533 1.26836 13.1439 1.26836 13.7563C1.26836 14.5722 2.90078 15 4.51175 15C5.41333 15 6.32127 14.8664 6.94756 14.605C7.08932 14.8488 7.34953 14.9994 7.63179 15H13.8718C14.3122 15 14.6688 14.6434 14.6688 14.203V10.1707C14.6688 9.73096 14.3122 9.37436 13.8718 9.37436H12.4624V8.46773C12.4624 8.15209 12.2066 7.89628 11.8909 7.89502H9.60771C9.29206 7.89628 9.03626 8.15209 9.03626 8.46773V9.36743H8.45914C8.85669 8.68194 9.06713 7.90259 9.06839 7.10936L9.50879 6.81891V6.81954C9.65559 6.89577 9.80744 6.96193 9.96368 7.01612L10.0765 7.55479C10.0991 7.66694 10.1974 7.74822 10.3121 7.74822H11.6818C11.7965 7.74759 11.8954 7.66694 11.9187 7.55479L12.0302 7.01612C12.1858 6.96382 12.3383 6.90019 12.4851 6.82584L12.9463 7.12889C13.0421 7.19189 13.1693 7.17929 13.2512 7.09865L14.219 6.13091C14.3003 6.05026 14.3141 5.92299 14.2511 5.82723L13.943 5.35974C14.0155 5.21483 14.0778 5.06489 14.1282 4.91116L14.6764 4.79839H14.677C14.7891 4.77507 14.8704 4.67616 14.8704 4.56148V3.18737C14.8704 3.07207 14.7891 2.97316 14.677 2.94983L14.1188 2.83517C14.0684 2.68585 14.0073 2.53968 13.9367 2.39855L14.2593 1.91468C14.3217 1.81891 14.3084 1.69165 14.2265 1.611L13.2588 0.643259C13.1775 0.562614 13.0502 0.550014 12.9545 0.613017L12.4706 0.935598C12.3314 0.866293 12.1871 0.8077 12.0397 0.759824L11.9187 0.19342C11.8954 0.0812727 11.7965 0.000629033 11.6818 0H10.3121C10.1974 0 10.0991 0.081276 10.0764 0.19342L9.95925 0.759824C9.81183 0.808337 9.6688 0.867561 9.53019 0.936872L9.04632 0.614291C8.94992 0.551288 8.82266 0.564519 8.74138 0.645164L7.77364 1.61291C7.69173 1.69355 7.6785 1.8202 7.74151 1.91596L8.06409 2.39983C7.99289 2.54096 7.93178 2.68712 7.88138 2.83707L7.32317 2.95174H7.3238C7.21165 2.97505 7.13163 3.07397 7.13163 3.18864V3.39529C5.91125 2.52835 4.3405 2.32233 2.93808 2.8459C1.53561 3.36884 0.483399 4.55268 0.128721 6.00687C-0.225989 7.461 0.162744 8.99639 1.16703 10.1066L3.32981 12.592ZM4.55083 3.06632C5.53306 3.06632 6.48132 3.42482 7.21777 4.07502C7.95429 4.72458 8.42808 5.62113 8.55093 6.59583C8.67316 7.56988 8.43564 8.55583 7.88309 9.36744H7.62667C7.18627 9.36744 6.82967 9.72467 6.82967 10.1644V10.6288L4.5458 13.258L1.52983 9.78588C0.833631 9.00652 0.466953 7.98829 0.506631 6.94442C0.546953 5.90107 0.989873 4.91313 1.74341 4.1899C2.49694 3.46661 3.50115 3.06401 4.54583 3.06655L4.55083 3.06632ZM8.11874 3.28053C8.20695 3.26226 8.27751 3.1961 8.30208 3.10979C8.36067 2.89746 8.44447 2.69271 8.55095 2.49992C8.5982 2.42305 8.5982 2.3254 8.55095 2.24853L8.26555 1.81632L8.95418 1.12769L9.39142 1.41498L9.39079 1.41435C9.46639 1.46412 9.56342 1.4679 9.64281 1.4238C9.83182 1.31795 10.0322 1.23541 10.2413 1.17746C10.3277 1.15226 10.3932 1.08169 10.4121 0.993492L10.5186 0.478749H11.4863L11.5928 0.993492C11.6117 1.08107 11.6772 1.15163 11.7635 1.17746C11.9727 1.23668 12.1737 1.32111 12.3621 1.42885C12.4414 1.47295 12.5378 1.46917 12.6134 1.4194L13.0507 1.13211L13.7393 1.82074L13.4539 2.25295C13.4067 2.33044 13.4067 2.42746 13.4539 2.50496C13.5623 2.69524 13.6473 2.89874 13.7072 3.1098C13.7318 3.19612 13.803 3.26227 13.8912 3.28054L14.3958 3.38387V4.35161L13.8975 4.45305C13.8086 4.47195 13.7381 4.53874 13.7135 4.62568C13.6549 4.84115 13.5698 5.04844 13.4602 5.24375C13.4167 5.32187 13.4205 5.41826 13.4703 5.49325L13.7475 5.91412L13.0589 6.60275L12.6412 6.32868C12.5656 6.27891 12.4679 6.27576 12.3898 6.32112C12.1932 6.43264 11.9841 6.51959 11.7667 6.5807C11.6797 6.60465 11.6136 6.67584 11.5959 6.76467L11.4945 7.24854H10.5268L10.4253 6.76467H10.4247C10.4071 6.67584 10.3409 6.60464 10.254 6.5807C10.0334 6.52211 9.82048 6.43706 9.62013 6.32743C9.54137 6.2827 9.44435 6.28522 9.36874 6.33562L9.04616 6.55362V6.55299C8.91007 5.49138 8.40162 4.5117 7.6103 3.79024V3.38387L8.11874 3.28053ZM9.51995 8.46763C9.51995 8.41912 9.55901 8.38006 9.60753 8.3788H11.8908C11.9393 8.38006 11.9783 8.41912 11.9783 8.46763V9.36733H9.51994L9.51995 8.46763ZM14.1848 10.1644V14.1967C14.1848 14.3693 14.0443 14.5098 13.8717 14.5098H13.3783V9.85125H13.8717C14.0443 9.85125 14.1848 9.99178 14.1848 10.1644ZM12.8945 14.5193H12.4623V9.85135H12.8945V14.5193ZM8.60382 14.5193V9.85135H9.03603V14.5162L8.60382 14.5193ZM9.5199 9.85441L11.9783 9.85504V14.516H9.5199V9.85441ZM8.11995 14.516H7.62663C7.454 14.516 7.3135 14.3762 7.3135 14.2029V10.1706C7.3135 9.99801 7.45399 9.85814 7.62663 9.85814H8.11995V14.516ZM4.50736 14.516C2.72188 14.516 1.74784 14.0145 1.74784 13.7562C1.74784 13.5401 2.43521 13.1533 3.70914 13.0335L4.3543 13.7871C4.40092 13.8394 4.46771 13.869 4.53764 13.869C4.61009 13.8721 4.6794 13.8432 4.72854 13.7902L5.3737 13.0436C5.8727 13.0827 6.36224 13.1999 6.82532 13.3901V14.1286C6.37988 14.3289 5.59606 14.516 4.50736 14.516ZM5.75736 12.6013L6.82969 11.3709V12.8679C6.48254 12.7418 6.12278 12.6524 5.75736 12.6013Z" fill="#3F3F3F"/>
<path d="M4.50721 9.13875C5.39808 9.13938 6.20205 8.60321 6.5435 7.77974C6.88499 6.95627 6.69723 6.00877 6.0672 5.37797C5.43716 4.74793 4.48958 4.55892 3.66606 4.89977C2.8426 5.24063 2.30518 6.04393 2.30518 6.93542C2.30707 8.15078 3.29192 9.13633 4.50721 9.13875ZM4.50721 5.21616C5.20278 5.21553 5.83029 5.63387 6.09681 6.27651C6.36331 6.91916 6.21652 7.65882 5.72508 8.15087C5.23365 8.64294 4.49399 8.79036 3.85137 8.52386C3.20873 8.25799 2.78913 7.63108 2.78913 6.93552C2.79102 5.9873 3.55905 5.21858 4.50721 5.21616Z" fill="#3F3F3F"/>
</svg>
