<svg width="20" height="20" viewBox="0 0 20 20" fill="none" xmlns="http://www.w3.org/2000/svg">
<path d="M13.4538 10C13.4538 10.5933 13.2764 11.1734 12.9441 11.6667C12.6117 12.1601 12.1393 12.5446 11.5866 12.7716C11.0339 12.9987 10.4257 13.0581 9.83896 12.9424C9.25221 12.8266 8.71325 12.5409 8.29023 12.1213C7.86721 11.7018 7.57913 11.1672 7.46242 10.5853C7.34571 10.0033 7.40561 9.40013 7.63454 8.85195C7.86348 8.30377 8.25117 7.83524 8.74859 7.50559C9.24601 7.17595 9.83082 7 10.4291 7C11.2305 7.00247 11.9984 7.31934 12.5651 7.88141C13.1318 8.44349 13.4513 9.20511 13.4538 10ZM19.8814 5.875V14.125C19.8814 15.5174 19.3237 16.8527 18.331 17.8373C17.3384 18.8219 15.992 19.375 14.5881 19.375H6.27001C4.86614 19.375 3.51976 18.8219 2.52706 17.8373C1.53437 16.8527 0.976685 15.5174 0.976685 14.125V5.875C0.976685 4.48261 1.53437 3.14726 2.52706 2.16269C3.51976 1.17812 4.86614 0.625 6.27001 0.625H14.5881C15.992 0.625 17.3384 1.17812 18.331 2.16269C19.3237 3.14726 19.8814 4.48261 19.8814 5.875ZM14.9662 10C14.9662 9.10998 14.7001 8.23995 14.2016 7.49993C13.703 6.75991 12.9944 6.18314 12.1653 5.84254C11.3363 5.50195 10.424 5.41283 9.54391 5.58647C8.66379 5.7601 7.85535 6.18868 7.22082 6.81802C6.58629 7.44736 6.15417 8.24918 5.9791 9.12209C5.80403 9.99501 5.89388 10.8998 6.23729 11.7221C6.58069 12.5443 7.16223 13.2471 7.90836 13.7416C8.65449 14.2361 9.5317 14.5 10.4291 14.5C11.6324 14.5 12.7864 14.0259 13.6373 13.182C14.4882 12.3381 14.9662 11.1935 14.9662 10ZM16.4786 5.125C16.4786 4.9025 16.4121 4.68499 16.2874 4.49998C16.1628 4.31498 15.9856 4.17078 15.7784 4.08564C15.5711 4.00049 15.343 3.97821 15.123 4.02162C14.903 4.06502 14.7009 4.17217 14.5422 4.3295C14.3836 4.48684 14.2756 4.68729 14.2318 4.90552C14.188 5.12375 14.2105 5.34995 14.2963 5.55552C14.3822 5.76109 14.5276 5.93679 14.7141 6.0604C14.9006 6.18402 15.12 6.25 15.3443 6.25C15.6451 6.25 15.9336 6.13147 16.1464 5.9205C16.3591 5.70952 16.4786 5.42337 16.4786 5.125Z" fill="#3F3F3F"/>
</svg>
