<svg width="52" height="52" viewBox="0 0 52 52" fill="none" xmlns="http://www.w3.org/2000/svg">
<g clip-path="url(#clip0_33_80)">
<path d="M35.7477 0C32.9755 0.19175 29.7352 1.96625 27.847 4.277C26.1245 6.37325 24.7075 9.48675 25.26 12.5125C28.289 12.6067 31.4187 10.79 33.2322 8.44025C34.9287 6.253 36.2125 3.159 35.7477 0Z" fill="black"/>
<path d="M46.7035 17.4461C44.0418 14.1084 40.3011 12.1714 36.7683 12.1714C32.1046 12.1714 30.1319 14.4041 26.8916 14.4041C23.5507 14.4041 21.0124 12.1779 16.9792 12.1779C13.0175 12.1779 8.79899 14.5991 6.12426 18.7396C2.36403 24.5701 3.00753 35.5322 9.10124 44.8694C11.282 48.2104 14.194 51.9674 18.0029 51.9999C21.3927 52.0324 22.3482 49.8257 26.9404 49.8029C31.5326 49.7769 32.4036 52.0292 35.7868 51.9934C39.5991 51.9642 42.6703 47.8009 44.851 44.4599C46.4143 42.0647 46.996 40.859 48.2083 38.155C39.3911 34.7978 37.9773 22.2593 46.7035 17.4461Z" fill="black"/>
</g>
<defs>
<clipPath id="clip0_33_80">
<rect width="52" height="52" fill="white"/>
</clipPath>
</defs>
</svg>
