<svg width="25" height="19" viewBox="0 0 25 19" fill="none" xmlns="http://www.w3.org/2000/svg">
<path d="M8.40769 9.02119V6.04292C8.40558 5.54401 7.98478 5.13941 7.46588 5.13739H2.92248C2.7337 5.13536 2.58078 4.98833 2.58078 4.80683V3.92565L0.797357 5.87865L2.58078 7.83266V6.94946C2.58184 6.76795 2.73371 6.62092 2.92248 6.6189H6.51984C6.61054 6.6189 6.69807 6.65337 6.76241 6.71523C6.82674 6.77708 6.86365 6.86125 6.86365 6.94947V9.02112L8.40769 9.02119ZM14.8559 9.02119L14.8548 7.77091H10.1448V9.02119H14.8559ZM9.4593 9.02119V7.44136C9.4593 7.35314 9.49516 7.26998 9.5595 7.20813C9.62383 7.14627 9.71137 7.11281 9.80207 7.11281H10.8883V3.48374H9.15239C9.00368 3.48374 8.87184 3.39248 8.82546 3.25761C8.77905 3.12173 8.82862 2.97368 8.94779 2.8885L12.2752 0.0797388C12.4059 -0.0277471 12.6 -0.0267346 12.7287 0.0837947L16.072 2.90684C16.1795 2.99709 16.2175 3.14209 16.1669 3.26985C16.1173 3.39863 15.9886 3.48279 15.8463 3.48279V3.48482H14.1124V7.11389H15.1966L15.1976 7.11288C15.2883 7.11186 15.3759 7.14634 15.4402 7.20819C15.5045 7.27005 15.5404 7.3532 15.5404 7.44041V9.02126H15.9074V6.04298C15.9106 5.17904 16.6372 4.47937 17.5358 4.47734H21.7333V3.05061C21.7344 2.90864 21.8293 2.78292 21.9696 2.73931C22.1098 2.69469 22.2649 2.74235 22.3524 2.85592L24.9152 5.66261C25.0291 5.78733 25.0281 5.97492 24.9131 6.09864L22.3334 8.92272C22.2396 9.02615 22.0888 9.06164 21.9559 9.01297C21.823 8.9643 21.7355 8.8416 21.7365 8.70471H21.7344V7.27797H18.8215V9.02006H19.8403C20.4319 9.02107 20.9107 9.48244 20.9118 10.0513V12.1139C20.916 12.5641 20.6123 12.9626 20.1651 13.0954V17.9708C20.1641 18.5386 19.6842 18.999 19.0936 19H5.90615C5.31555 18.998 4.83675 18.5386 4.83569 17.9708V13.0954C4.6216 13.0305 4.43387 12.9038 4.29887 12.7314C4.16071 12.5529 4.08689 12.3359 4.089 12.1139V10.0513C4.089 9.48247 4.56675 9.02211 5.15735 9.02107H6.17824V7.28H3.26639V8.70775H3.26428C3.26533 8.84363 3.1778 8.96632 3.04491 9.015C2.91203 9.06367 2.76226 9.02818 2.66841 8.92576L0.0866254 6.09753C-0.0272782 5.97382 -0.0293868 5.78724 0.0834615 5.66149L2.64732 2.85481C2.71165 2.77064 2.81396 2.72096 2.92363 2.72096C3.11241 2.72096 3.26533 2.86799 3.26638 3.04949V4.47623H7.46501C8.36356 4.47825 9.09021 5.17793 9.09127 6.04187V9.02014L9.4593 9.02119ZM11.576 7.11279H13.4269L13.4258 3.15404C13.4258 2.97152 13.5798 2.82449 13.7686 2.82348H14.9382L12.4999 0.766022L10.0636 2.82348H11.2332H11.2322C11.422 2.8245 11.5749 2.97153 11.576 3.15404L11.576 7.11279ZM16.5919 9.02119H18.1359V6.94954C18.1359 6.76803 18.2878 6.61999 18.4765 6.61897H22.0771C22.267 6.61999 22.4199 6.76702 22.4209 6.94954V7.83274L24.2033 5.87974L22.4199 3.92573V4.80691C22.4199 4.98842 22.267 5.13544 22.0771 5.13646H17.5348C17.0149 5.13646 16.593 5.54207 16.5919 6.04198L16.5919 9.02119ZM19.4775 13.2902L12.8015 15.1803C12.7034 15.2097 12.6021 15.2239 12.4988 15.2249C12.3965 15.2239 12.2952 15.2097 12.1982 15.1803L5.52214 13.2902V17.9708C5.52214 18.0682 5.56222 18.1625 5.63393 18.2324C5.70565 18.3014 5.80373 18.3399 5.90603 18.3399H19.0935C19.1958 18.3399 19.2938 18.3014 19.3655 18.2324C19.4373 18.1625 19.4784 18.0682 19.4773 17.9708L19.4775 13.2902ZM19.8403 9.68237L5.15744 9.68136C4.94545 9.68237 4.77459 9.84766 4.77354 10.0515V12.114C4.77354 12.1941 4.7999 12.2732 4.84842 12.3381C4.90009 12.402 4.9697 12.4476 5.04985 12.4699L12.3912 14.5497C12.426 14.5598 12.4618 14.5649 12.4987 14.5649C12.5367 14.5649 12.5736 14.5598 12.6084 14.5497L19.9497 12.4699H19.9508C20.1164 12.4263 20.2292 12.2803 20.2239 12.115V10.0515C20.225 9.95312 20.1849 9.85881 20.1122 9.78986C20.0404 9.7199 19.9424 9.68136 19.8401 9.68136L19.8403 9.68237Z" fill="#3F3F3F"/>
</svg>
