<svg width="21" height="20" viewBox="0 0 21 20" fill="none" xmlns="http://www.w3.org/2000/svg">
<path d="M10.7592 0.0546875C5.221 0.0546875 0.731567 4.50737 0.731567 10.0002C0.731567 15.493 5.221 19.9457 10.7592 19.9457C16.2973 19.9457 20.7867 15.493 20.7867 10.0002C20.7867 4.50737 16.2973 0.0546875 10.7592 0.0546875ZM8.30449 14.1224H6.2739V7.64124H8.30449V14.1224ZM7.27666 6.8456C6.63531 6.8456 6.22063 6.39495 6.22063 5.83758C6.22063 5.26883 6.64784 4.83164 7.30277 4.83164C7.9577 4.83164 8.3588 5.26883 8.37134 5.83758C8.37134 6.39495 7.9577 6.8456 7.27666 6.8456ZM15.7207 14.1224H13.6901V10.5306C13.6901 9.69458 13.3956 9.12685 12.6613 9.12685C12.1003 9.12685 11.7671 9.51121 11.6199 9.88106C11.5655 10.0126 11.552 10.1991 11.552 10.3845V14.1214H9.52033V9.70805C9.52033 8.89894 9.49422 8.22243 9.46706 7.64021H11.2313L11.3243 8.54048H11.365C11.6324 8.1178 12.2873 7.49413 13.383 7.49413C14.719 7.49413 15.7207 8.38198 15.7207 10.2903V14.1224Z" fill="#3F3F3F"/>
</svg>
