<svg width="17" height="20" viewBox="0 0 17 20" fill="none" xmlns="http://www.w3.org/2000/svg">
<path d="M8.13243 0C5.99396 0.00245748 3.94381 0.831051 2.43168 2.30402C0.919554 3.77699 0.0689341 5.77405 0.0664113 7.85714C0.0644452 9.55935 0.635218 11.2153 1.69135 12.5714C1.69135 12.5714 1.91133 12.8536 1.94726 12.8943L8.13243 20L14.3205 12.8907C14.3528 12.8529 14.5735 12.5714 14.5735 12.5714L14.5742 12.5693C15.6297 11.2136 16.2001 9.55854 16.1985 7.85714C16.1959 5.77405 15.3453 3.77699 13.8332 2.30402C12.3211 0.831051 10.2709 0.00245748 8.13243 0ZM8.13243 10.7143C7.55232 10.7143 6.98524 10.5467 6.50289 10.2328C6.02054 9.91882 5.6446 9.4726 5.4226 8.95052C5.2006 8.42845 5.14252 7.85397 5.25569 7.29974C5.36887 6.74551 5.64822 6.23642 6.05842 5.83684C6.46862 5.43726 6.99125 5.16514 7.56021 5.0549C8.12918 4.94466 8.71893 5.00124 9.25488 5.21749C9.79083 5.43374 10.2489 5.79994 10.5712 6.2698C10.8935 6.73965 11.0655 7.29205 11.0655 7.85714C11.0646 8.61461 10.7552 9.34079 10.2054 9.8764C9.65552 10.412 8.91004 10.7133 8.13243 10.7143Z" fill="#3F3F3F"/>
</svg>
