<svg width="90" height="81" viewBox="0 0 90 81" fill="none" xmlns="http://www.w3.org/2000/svg">
<path d="M69.8406 2.06055V11.1801H44.558C42.9725 11.1801 41.4449 11.4068 40 11.8305V11.1801C40 6.1457 44.0834 2.06231 49.1178 2.06231H69.8406V2.06055Z" fill="url(#paint0_linear_38_6)"/>
<path opacity="0.5" d="M69.8406 2.06055V11.1801H44.558C42.9725 11.1801 41.4449 11.4068 40 11.8305V11.1801C40 6.1457 44.0834 2.06231 49.1178 2.06231H69.8406V2.06055Z" fill="url(#paint1_linear_38_6)"/>
<path d="M19.2734 2.06055V11.1801H44.5561C46.1416 11.1801 47.6691 11.4068 49.1141 11.8305V11.1801C49.1141 6.1457 45.0307 2.06231 39.9963 2.06231H19.2734V2.06055Z" fill="url(#paint2_linear_38_6)"/>
<path opacity="0.5" d="M19.2734 2.34201V10.899C19.2734 11.0537 19.4 11.1803 19.5547 11.1803H44.5561C46.0115 11.1803 47.4195 11.3719 48.759 11.7305C48.9383 11.7779 49.1141 11.6461 49.1141 11.4615C49.1141 6.27072 44.9059 2.06252 39.715 2.06252H19.5529C19.4 2.06076 19.2734 2.18732 19.2734 2.34201Z" fill="url(#paint3_linear_38_6)"/>
<path d="M44.5561 43.5119C35.6281 43.5119 28.3895 36.275 28.3895 27.3453C28.3895 18.4156 35.6264 11.1787 44.5561 11.1787H48.8469V2.06445H44.5561C30.592 2.06445 19.2734 13.3848 19.2734 27.3471C19.2734 41.3094 30.5937 52.6297 44.5561 52.6297C54.8902 52.6297 63.7689 46.4264 67.6906 37.5442H57.0963C54.1344 41.1846 49.6168 43.5119 44.5561 43.5119Z" fill="url(#paint4_linear_38_6)"/>
<path d="M44.5561 43.5119C35.6281 43.5119 28.3895 36.275 28.3895 27.3453C28.3895 18.4156 35.6264 11.1787 44.5561 11.1787H48.8469V2.06445H44.5561C30.592 2.06445 19.2734 13.3848 19.2734 27.3471C19.2734 41.3094 30.5937 52.6297 44.5561 52.6297C54.8902 52.6297 63.7689 46.4264 67.6906 37.5442H57.0963C54.1344 41.1846 49.6168 43.5119 44.5561 43.5119Z" fill="url(#paint5_linear_38_6)"/>
<path opacity="0.5" d="M31.3607 16.5612C31.5383 16.809 31.7193 17.0533 31.8969 17.2994C34.8588 13.5729 39.4273 11.1805 44.5566 11.1805H48.8475V2.06445H44.5566C37.448 2.06445 31.0285 5.00351 26.4336 9.72675C28.1176 11.9733 29.7277 14.276 31.3607 16.5612Z" fill="url(#paint6_linear_38_6)"/>
<path d="M58.2316 2.06055H49.1139C44.0795 2.06055 39.9961 6.14395 39.9961 11.1783V39.2945C41.441 39.7234 42.9756 39.9502 44.5541 39.9502C46.1396 39.9502 47.6672 39.7235 49.1139 39.2998V11.1783C49.1139 6.1457 53.199 2.06055 58.2316 2.06055Z" fill="url(#paint7_linear_38_6)"/>
<path d="M5.20332 69.0842V62.3395H2.79688V60.7715H9.35V62.3395H6.94355V69.0842H5.20332Z" fill="black"/>
<path d="M10.2852 69.0842V60.7715H13.5389C14.2121 60.7715 14.7922 60.8928 15.2791 61.1336C15.766 61.3744 16.1422 61.7207 16.4076 62.1725C16.673 62.6242 16.8049 63.1586 16.8049 63.7756C16.8049 64.4014 16.673 64.9375 16.4076 65.384C16.1422 65.8305 15.766 66.1715 15.2791 66.4053C14.7922 66.6391 14.2121 66.7551 13.5389 66.7551H11.2414L12.0359 65.9236V69.0824H10.2852V69.0842ZM12.0359 66.1381L11.2414 65.224H13.4439C13.973 65.224 14.3738 65.0975 14.6463 64.8443C14.9188 64.5912 15.0541 64.2344 15.0541 63.7756C15.0541 63.3168 14.9188 62.9617 14.6463 62.7121C14.3738 62.4625 13.973 62.3377 13.4439 62.3377H11.2414L12.0359 61.4236V66.1381ZM15.0752 69.0842L13.1855 66.0678H15.0541L16.9438 69.0842H15.0752Z" fill="black"/>
<path d="M17.1992 69.0842L20.5391 60.7715H22.2582L25.6314 69.0842H23.8051L21.0453 61.7453H21.7432L18.9834 69.0842H17.1992ZM18.8867 67.3035L19.3279 65.8428H23.2162L23.668 67.3035H18.8867Z" fill="black"/>
<path d="M26.418 69.0842V60.7715H27.8576L32.2943 66.7569H31.5965V60.7715H33.3156V69.0842H31.876L27.4393 63.0988H28.1371V69.0842H26.418Z" fill="black"/>
<path d="M37.5766 69.2266C36.9754 69.2266 36.3971 69.1369 35.8416 68.9594C35.2861 68.7818 34.8414 68.5498 34.5039 68.265L35.0945 66.8166C35.4092 67.0697 35.7889 67.2772 36.2336 67.4406C36.6783 67.6024 37.1248 67.6832 37.5766 67.6832C37.9211 67.6832 38.1971 67.6445 38.4098 67.5654C38.6207 67.4863 38.7771 67.3809 38.8773 67.2508C38.9775 67.1207 39.0285 66.9678 39.0285 66.7938C39.0285 66.5723 38.9494 66.3965 38.793 66.2647C38.6348 66.1346 38.4256 66.0274 38.1654 65.9447C37.9035 65.8621 37.6188 65.783 37.3111 65.7074C37.0035 65.6318 36.6941 65.5404 36.3813 65.435C36.0701 65.3277 35.7836 65.1854 35.5217 65.0078C35.2598 64.8303 35.0523 64.5965 34.8994 64.3065C34.7447 64.0182 34.6691 63.6561 34.6691 63.2201C34.6691 62.7455 34.7834 62.3113 35.0137 61.9193C35.2422 61.5274 35.592 61.2145 36.0613 60.9807C36.5307 60.7469 37.1195 60.6309 37.8279 60.6309C38.3008 60.6309 38.7684 60.6941 39.2289 60.8207C39.6912 60.9473 40.0937 61.1301 40.4365 61.3674L39.8881 62.8158C39.5506 62.6014 39.2043 62.4414 38.8457 62.3342C38.4871 62.227 38.1443 62.1742 37.8139 62.1742C37.4693 62.1742 37.1951 62.2164 36.9877 62.299C36.7803 62.3817 36.6273 62.4959 36.5307 62.6383C36.434 62.7807 36.3865 62.9389 36.3865 63.1129C36.3865 63.3344 36.4656 63.5119 36.6221 63.6473C36.7803 63.7826 36.9877 63.8863 37.2443 63.9619C37.5027 64.0375 37.7893 64.1131 38.1039 64.1869C38.4186 64.2625 38.7297 64.3557 39.0391 64.4664C39.3467 64.5772 39.6297 64.7178 39.8881 64.8883C40.1465 65.0588 40.3557 65.2891 40.5156 65.5774C40.6773 65.8656 40.7564 66.2242 40.7564 66.6514C40.7564 67.119 40.6404 67.5461 40.4066 67.9346C40.1746 68.3231 39.8213 68.636 39.3484 68.8733C38.8773 69.107 38.2867 69.2266 37.5766 69.2266Z" fill="black"/>
<path d="M45.5359 69.2263C44.9559 69.2263 44.4162 69.1209 43.9188 68.9117C43.4213 68.7025 42.9889 68.4037 42.625 68.0152C42.2594 67.6267 41.9746 67.1714 41.7707 66.6494C41.5668 66.1273 41.4648 65.5525 41.4648 64.9285C41.4648 64.3045 41.5668 63.7296 41.7707 63.2058C41.9746 62.6837 42.2611 62.2285 42.6303 61.84C42.9994 61.4515 43.4318 61.1527 43.9293 60.9435C44.4268 60.7343 44.9664 60.6289 45.5465 60.6289C46.1986 60.6289 46.7893 60.7537 47.3184 61.0033C47.8475 61.2529 48.2922 61.6185 48.6508 62.1019L47.5223 63.2427C47.2709 62.9175 46.9879 62.6732 46.668 62.5062C46.3498 62.3392 46.0035 62.2566 45.6309 62.2566C45.2793 62.2566 44.9576 62.3216 44.6641 62.4535C44.3705 62.5836 44.1156 62.7681 43.9012 63.0054C43.6867 63.2427 43.5197 63.524 43.402 63.8492C43.2842 64.1744 43.2244 64.5347 43.2244 64.9302C43.2244 65.3257 43.2842 65.6861 43.402 66.0113C43.5197 66.3365 43.6867 66.6177 43.9012 66.855C44.1156 67.0923 44.3705 67.2769 44.6641 67.407C44.9576 67.5371 45.2793 67.6021 45.6309 67.6021C46.0035 67.6021 46.348 67.5177 46.668 67.3472C46.9861 67.1767 47.2709 66.9289 47.5223 66.6054L48.6508 67.7462C48.2922 68.2296 47.8492 68.597 47.3184 68.8502C46.7893 69.0998 46.1951 69.2263 45.5359 69.2263Z" fill="black"/>
<path d="M53.4498 69.2266C52.8557 69.2266 52.3072 69.1193 51.8063 68.9066C51.3053 68.6922 50.8676 68.3916 50.4949 68.0049C50.1223 67.6164 49.834 67.1611 49.6301 66.6391C49.4262 66.117 49.3242 65.5475 49.3242 64.9287C49.3242 64.3029 49.4262 63.7317 49.6301 63.2131C49.834 62.6945 50.1223 62.241 50.4949 61.8526C50.8676 61.4641 51.3018 61.1635 51.7992 60.9508C52.2967 60.7381 52.8434 60.6309 53.4375 60.6309C54.0316 60.6309 54.5783 60.7363 55.0758 60.9455C55.5732 61.1547 56.0092 61.4535 56.3801 61.842C56.7527 62.2305 57.041 62.6858 57.2449 63.2078C57.4488 63.7299 57.5508 64.3047 57.5508 64.9305C57.5508 65.5475 57.4488 66.1205 57.2449 66.6461C57.041 67.1734 56.7527 67.6305 56.3801 68.0172C56.0074 68.4057 55.5732 68.7045 55.0758 68.9137C54.5801 69.1211 54.0369 69.2266 53.4498 69.2266ZM53.4393 67.5988C53.775 67.5988 54.0861 67.5338 54.3691 67.4037C54.6522 67.2736 54.9018 67.0873 55.1162 66.8447C55.3307 66.6039 55.4977 66.3227 55.6154 66.001C55.7332 65.6811 55.793 65.3225 55.793 64.927C55.793 64.5315 55.7332 64.1729 55.6154 63.8529C55.4977 63.533 55.3307 63.2518 55.1162 63.0092C54.9018 62.7684 54.6522 62.582 54.3691 62.452C54.0861 62.3219 53.7768 62.2551 53.4393 62.2551C53.1018 62.2551 52.7906 62.3201 52.5041 62.452C52.2176 62.582 51.968 62.7684 51.757 63.0092C51.5461 63.25 51.3809 63.5313 51.2631 63.8529C51.1453 64.1746 51.0856 64.5315 51.0856 64.927C51.0856 65.3225 51.1453 65.6811 51.2631 66.001C51.3809 66.3209 51.5461 66.6022 51.757 66.8447C51.968 67.0873 52.2176 67.2719 52.5041 67.4037C52.7906 67.5338 53.1035 67.5988 53.4393 67.5988Z" fill="black"/>
<path d="M58.8633 69.0842V60.7715H62.2787C63.0943 60.7715 63.815 60.9438 64.4373 61.2883C65.0596 61.6328 65.5465 62.1162 65.898 62.7367C66.2496 63.359 66.4236 64.0885 66.4236 64.927C66.4236 65.7654 66.2478 66.4967 65.898 67.1172C65.5465 67.7395 65.0596 68.2211 64.4373 68.5656C63.815 68.9102 63.0943 69.0824 62.2787 69.0824H58.8633V69.0842ZM60.6141 67.5162H62.1926C62.6936 67.5162 63.1295 67.4108 63.4969 67.2016C63.866 66.9924 64.1525 66.6901 64.3564 66.2998C64.5604 65.9078 64.6623 65.4508 64.6623 64.9287C64.6623 64.3979 64.5604 63.9391 64.3564 63.5506C64.1525 63.1621 63.866 62.8633 63.4969 62.6541C63.1277 62.4449 62.6936 62.3395 62.1926 62.3395H60.6141V67.5162Z" fill="black"/>
<path d="M69.4641 67.5408H73.5562V69.0842H67.7344V60.7715H73.4156V62.3149H69.4623V67.5408H69.4641ZM69.334 64.1078H72.9533V65.616H69.334V64.1078Z" fill="black"/>
<path d="M74.4609 69.0843V67.8381L79.1121 61.64L79.3266 62.3414H74.5471V60.7734H80.8734V62.0197L76.2328 68.2177L76.0184 67.5164H81.0352V69.0843H74.4609Z" fill="black"/>
<path d="M84.0191 69.0842V65.6881L84.4164 66.8518L81.0977 60.7715H82.9557L85.4904 65.4262H84.427L86.9723 60.7715H88.6686L85.3709 66.8518L85.7682 65.6881V69.0842H84.0191Z" fill="black"/>
<path d="M15.7969 78.4006V74.5352H16.6107V78.4006H15.7969Z" fill="black"/>
<path d="M18.1588 78.4006V75.2647H17.0391V74.5352H20.0854V75.2647H18.9656V78.4006H18.1588Z" fill="black"/>
<path d="M23.0893 78.4658C22.8098 78.4658 22.5408 78.4236 22.2824 78.341C22.024 78.2584 21.8166 78.1511 21.6602 78.0175L21.9344 77.3443C22.0803 77.4621 22.2578 77.5588 22.4635 77.6343C22.6691 77.7099 22.8783 77.7468 23.0875 77.7468C23.2475 77.7468 23.3758 77.7293 23.4742 77.6924C23.5727 77.6554 23.6447 77.6062 23.6922 77.5465C23.7396 77.4849 23.7625 77.4146 23.7625 77.3338C23.7625 77.23 23.7256 77.1492 23.6535 77.0877C23.5797 77.0261 23.483 76.9769 23.3617 76.9382C23.2404 76.8996 23.1086 76.8627 22.9645 76.8275C22.8221 76.7924 22.6779 76.7502 22.532 76.7009C22.3879 76.6517 22.2543 76.5849 22.133 76.5023C22.0117 76.4197 21.915 76.3107 21.843 76.1771C21.7709 76.0435 21.7357 75.8748 21.7357 75.6709C21.7357 75.4494 21.7885 75.249 21.8957 75.0662C22.0029 74.8834 22.1646 74.7392 22.3826 74.6302C22.6006 74.5213 22.8748 74.4668 23.2035 74.4668C23.4232 74.4668 23.6412 74.4966 23.8557 74.5547C24.0701 74.6127 24.2582 74.6988 24.4182 74.8095L24.1633 75.4828C24.0068 75.3826 23.8451 75.3088 23.6781 75.2595C23.5111 75.2103 23.3512 75.1857 23.1982 75.1857C23.0383 75.1857 22.91 75.205 22.8133 75.2437C22.7166 75.2824 22.6463 75.3351 22.6006 75.4019C22.5549 75.4687 22.5338 75.5425 22.5338 75.6234C22.5338 75.7271 22.5707 75.8097 22.6445 75.8713C22.7184 75.9345 22.815 75.982 22.9346 76.0172C23.0541 76.0523 23.1877 76.0875 23.3336 76.1226C23.4795 76.1578 23.6254 76.2017 23.7678 76.2527C23.9102 76.3037 24.042 76.3705 24.1633 76.4496C24.2828 76.5287 24.3813 76.6359 24.4551 76.7695C24.5307 76.9049 24.5676 77.0701 24.5676 77.2687C24.5676 77.4867 24.5131 77.6853 24.4059 77.8646C24.2969 78.0457 24.1334 78.1898 23.9137 78.3006C23.6922 78.4113 23.418 78.4658 23.0893 78.4658Z" fill="black"/>
<path d="M26.8141 78.4658C26.5381 78.4658 26.2832 78.4166 26.0494 78.3164C25.8156 78.2162 25.6135 78.0773 25.4395 77.8963C25.2654 77.7152 25.1318 77.5043 25.0369 77.2617C24.942 77.0191 24.8945 76.7537 24.8945 76.4672C24.8945 76.1771 24.942 75.9099 25.0369 75.6691C25.1318 75.4283 25.2654 75.2174 25.4395 75.0363C25.6117 74.8552 25.8156 74.7164 26.0459 74.6162C26.2762 74.516 26.5311 74.4668 26.807 74.4668C27.083 74.4668 27.3379 74.516 27.5682 74.6127C27.8002 74.7093 28.0023 74.85 28.1746 75.0293C28.3469 75.2103 28.4822 75.4213 28.5771 75.6638C28.6721 75.9064 28.7195 76.1736 28.7195 76.4654C28.7195 76.7519 28.6721 77.0191 28.5771 77.2634C28.4822 77.5078 28.3486 77.7205 28.1746 77.9015C28.0006 78.0826 27.7984 78.2215 27.5682 78.3181C27.3379 78.4183 27.0865 78.4658 26.8141 78.4658ZM26.8088 77.7099C26.9652 77.7099 27.1094 77.68 27.2412 77.6185C27.373 77.557 27.4891 77.4709 27.5875 77.3584C27.6859 77.2459 27.765 77.1158 27.8195 76.9664C27.874 76.817 27.9021 76.65 27.9021 76.4672C27.9021 76.2826 27.874 76.1156 27.8195 75.9679C27.765 75.8185 27.6877 75.6884 27.5875 75.5759C27.4873 75.4634 27.3713 75.3773 27.2412 75.3158C27.1094 75.2543 26.9652 75.2244 26.8088 75.2244C26.6523 75.2244 26.5082 75.2543 26.3746 75.3158C26.241 75.3773 26.125 75.4634 26.0283 75.5759C25.9299 75.6884 25.8543 75.8185 25.798 75.9679C25.7436 76.1174 25.7154 76.2843 25.7154 76.4672C25.7154 76.6517 25.7436 76.8187 25.798 76.9664C25.8525 77.1158 25.9299 77.2459 26.0283 77.3584C26.1268 77.4709 26.2428 77.557 26.3746 77.6185C26.5064 77.68 26.6523 77.7099 26.8088 77.7099Z" fill="black"/>
<path d="M29.332 78.4006V74.5352H30.1459V77.6711H31.8896V78.4006H29.332Z" fill="black"/>
<path d="M33.908 78.4656C33.4123 78.4656 33.0238 78.3127 32.7443 78.0068C32.4648 77.701 32.3242 77.2633 32.3242 76.692V74.5352H33.1381V76.6727C33.1381 77.0365 33.2066 77.302 33.3438 77.4654C33.4809 77.6289 33.6707 77.7115 33.9133 77.7115C34.1594 77.7115 34.351 77.6289 34.4881 77.4654C34.6252 77.302 34.6938 77.0383 34.6938 76.6727V74.5352H35.4883V76.6938C35.4883 77.2651 35.3477 77.7027 35.0682 78.0086C34.7887 78.3145 34.4002 78.4656 33.908 78.4656Z" fill="black"/>
<path d="M37.0143 78.4006V75.2647H35.8945V74.5352H38.9408V75.2647H37.8211V78.4006H37.0143Z" fill="black"/>
<path d="M39.375 78.4006V74.5352H40.1889V78.4006H39.375Z" fill="black"/>
<path d="M42.7164 78.4658C42.4404 78.4658 42.1855 78.4166 41.9518 78.3164C41.718 78.2162 41.5158 78.0773 41.3418 77.8963C41.1678 77.7152 41.0342 77.5043 40.9393 77.2617C40.8443 77.0191 40.7969 76.7537 40.7969 76.4672C40.7969 76.1771 40.8443 75.9099 40.9393 75.6691C41.0342 75.4283 41.1678 75.2174 41.3418 75.0363C41.5141 74.8552 41.718 74.7164 41.9482 74.6162C42.1785 74.516 42.4334 74.4668 42.7094 74.4668C42.9854 74.4668 43.2402 74.516 43.4705 74.6127C43.7025 74.7093 43.9047 74.85 44.077 75.0293C44.2492 75.2103 44.3846 75.4213 44.4795 75.6638C44.5744 75.9064 44.6219 76.1736 44.6219 76.4654C44.6219 76.7519 44.5744 77.0191 44.4795 77.2634C44.3846 77.5078 44.251 77.7205 44.077 77.9015C43.9029 78.0826 43.7008 78.2215 43.4705 78.3181C43.2402 78.4183 42.9889 78.4658 42.7164 78.4658ZM42.7111 77.7099C42.8676 77.7099 43.0117 77.68 43.1436 77.6185C43.2754 77.557 43.3914 77.4709 43.4898 77.3584C43.5883 77.2459 43.6674 77.1158 43.7219 76.9664C43.7764 76.817 43.8045 76.65 43.8045 76.4672C43.8045 76.2826 43.7764 76.1156 43.7219 75.9679C43.6674 75.8185 43.59 75.6884 43.4898 75.5759C43.3896 75.4634 43.2736 75.3773 43.1436 75.3158C43.0117 75.2543 42.8676 75.2244 42.7111 75.2244C42.5547 75.2244 42.4105 75.2543 42.277 75.3158C42.1434 75.3773 42.0273 75.4634 41.9307 75.5759C41.8322 75.6884 41.7566 75.8185 41.7004 75.9679C41.6459 76.1174 41.6178 76.2843 41.6178 76.4672C41.6178 76.6517 41.6459 76.8187 41.7004 76.9664C41.7549 77.1158 41.8322 77.2459 41.9307 77.3584C42.0291 77.4709 42.1451 77.557 42.277 77.6185C42.4088 77.68 42.5547 77.7099 42.7111 77.7099Z" fill="black"/>
<path d="M45.2305 78.4006V74.5352H45.9002L47.9639 77.3178H47.6387V74.5352H48.4385V78.4006H47.7688L45.7051 75.618H46.0303V78.4006H45.2305Z" fill="black"/>
<path d="M50.4213 78.4658C50.1418 78.4658 49.8729 78.4236 49.6145 78.341C49.3561 78.2584 49.1486 78.1511 48.9922 78.0175L49.2664 77.3443C49.4123 77.4621 49.5898 77.5588 49.7955 77.6343C50.0012 77.7099 50.2104 77.7468 50.4195 77.7468C50.5795 77.7468 50.7078 77.7293 50.8063 77.6924C50.9047 77.6554 50.9768 77.6062 51.0242 77.5465C51.0699 77.4849 51.0945 77.4146 51.0945 77.3338C51.0945 77.23 51.0576 77.1492 50.9855 77.0877C50.9135 77.0261 50.815 76.9769 50.6937 76.9382C50.5725 76.8996 50.4389 76.8627 50.2965 76.8275C50.1523 76.7924 50.01 76.7502 49.8641 76.7009C49.7199 76.6517 49.5863 76.5849 49.465 76.5023C49.3438 76.4197 49.2471 76.3107 49.175 76.1771C49.1029 76.0435 49.0678 75.8748 49.0678 75.6709C49.0678 75.4494 49.1205 75.249 49.2277 75.0662C49.335 74.8834 49.4967 74.7392 49.7146 74.6302C49.9326 74.5213 50.2068 74.4668 50.5355 74.4668C50.7553 74.4668 50.9732 74.4966 51.1877 74.5547C51.4021 74.6127 51.5902 74.6988 51.7502 74.8095L51.4953 75.4828C51.3389 75.3826 51.1772 75.3088 51.0102 75.2595C50.8432 75.2103 50.6832 75.1857 50.5303 75.1857C50.3703 75.1857 50.242 75.205 50.1453 75.2437C50.0486 75.2824 49.9783 75.3351 49.9326 75.4019C49.8869 75.4687 49.8658 75.5425 49.8658 75.6234C49.8658 75.7271 49.9027 75.8097 49.9748 75.8713C50.0486 75.9345 50.1453 75.982 50.2648 76.0172C50.3844 76.0523 50.518 76.0875 50.6639 76.1226C50.8098 76.1578 50.9557 76.2017 51.098 76.2527C51.2404 76.3037 51.3723 76.3705 51.4918 76.4496C51.6113 76.5287 51.7098 76.6359 51.7836 76.7695C51.8592 76.9049 51.8961 77.0701 51.8961 77.2687C51.8961 77.4867 51.8416 77.6853 51.7344 77.8646C51.6254 78.0457 51.4619 78.1898 51.2422 78.3006C51.026 78.4113 50.7518 78.4658 50.4213 78.4658Z" fill="black"/>
<path d="M53.8633 78.4006V74.5352H55.3768C55.6897 74.5352 55.9604 74.5914 56.1854 74.7039C56.4121 74.8164 56.5861 74.9781 56.7092 75.1873C56.8322 75.3965 56.8938 75.6461 56.8938 75.9326C56.8938 76.2244 56.8322 76.4723 56.7092 76.6815C56.5861 76.8889 56.4104 77.0506 56.1854 77.1649C55.9604 77.2791 55.6897 77.3354 55.3768 77.3354H54.308L54.6771 76.9328V78.4024H53.8633V78.4006ZM54.6771 77.0313L54.308 76.6059H55.3328C55.5789 76.6059 55.7652 76.5479 55.8918 76.4301C56.0184 76.3123 56.0816 76.1471 56.0816 75.9326C56.0816 75.7199 56.0184 75.5547 55.8918 75.4387C55.7652 75.3227 55.5789 75.2647 55.3328 75.2647H54.308L54.6771 74.8393V77.0313Z" fill="black"/>
<path d="M58.5643 78.4006L57.0508 74.5352H57.9297L59.248 77.9594H58.733L60.0725 74.5352H60.8775L59.3641 78.4006H58.5643Z" fill="black"/>
<path d="M61.9635 78.4006V75.2647H60.8438V74.5352H63.8899V75.2647H62.7703V78.4006H61.9635Z" fill="black"/>
<path d="M64.5672 78.4449C64.4336 78.4449 64.3193 78.3939 64.2244 78.2937C64.1295 78.1935 64.082 78.0652 64.082 77.9105C64.082 77.7488 64.1295 77.617 64.2244 77.5185C64.3193 77.4201 64.4336 77.3691 64.5672 77.3691C64.7043 77.3691 64.8186 77.4183 64.9117 77.5185C65.0049 77.6187 65.0523 77.7488 65.0523 77.9105C65.0523 78.0652 65.0049 78.1935 64.9117 78.2937C64.8186 78.3939 64.7025 78.4449 64.5672 78.4449Z" fill="black"/>
<path d="M67.0508 78.4006V74.5352H67.8646V77.6711H69.6084V78.4006H67.0508Z" fill="black"/>
<path d="M70.7955 78.4006V75.2647H69.6758V74.5352H72.7221V75.2647H71.6023V78.4006H70.7955Z" fill="black"/>
<path d="M73.1602 78.4006V74.5352H74.7492C75.1289 74.5352 75.4629 74.616 75.7529 74.776C76.043 74.9359 76.2697 75.1609 76.4314 75.4492C76.5949 75.7375 76.6758 76.0785 76.6758 76.4688C76.6758 76.859 76.5949 77.1983 76.4314 77.4883C76.268 77.7766 76.0412 78.0016 75.7529 78.1615C75.4629 78.3215 75.1289 78.4024 74.7492 78.4024H73.1602V78.4006ZM73.9758 77.6711H74.7105C74.9443 77.6711 75.1465 77.6219 75.317 77.5252C75.4875 77.4285 75.6211 77.2879 75.716 77.1051C75.8109 76.9223 75.8584 76.7096 75.8584 76.467C75.8584 76.2209 75.8109 76.0065 75.716 75.8272C75.6211 75.6461 75.4875 75.5072 75.317 75.4106C75.1447 75.3139 74.9426 75.2647 74.7105 75.2647H73.9758V77.6711Z" fill="black"/>
<path d="M77.5242 78.4449C77.3906 78.4449 77.2764 78.3939 77.1814 78.2937C77.0865 78.1935 77.0391 78.0652 77.0391 77.9105C77.0391 77.7488 77.0865 77.617 77.1814 77.5185C77.2764 77.4201 77.3906 77.3691 77.5242 77.3691C77.6613 77.3691 77.7756 77.4183 77.8688 77.5185C77.9619 77.6187 78.0094 77.7488 78.0094 77.9105C78.0094 78.0652 77.9619 78.1935 77.8688 78.2937C77.7756 78.3939 77.6613 78.4449 77.5242 78.4449Z" fill="black"/>
<defs>
<linearGradient id="paint0_linear_38_6" x1="61.779" y1="17.0457" x2="53.1154" y2="4.28824" gradientUnits="userSpaceOnUse">
<stop stop-color="#00C6DB"/>
<stop offset="1" stop-color="#72227F"/>
</linearGradient>
<linearGradient id="paint1_linear_38_6" x1="60.4008" y1="15.1131" x2="54.1908" y2="5.8589" gradientUnits="userSpaceOnUse">
<stop offset="0.2081" stop-color="#72227F" stop-opacity="0"/>
<stop offset="1" stop-color="#72227F"/>
</linearGradient>
<linearGradient id="paint2_linear_38_6" x1="20.2731" y1="0.048958" x2="33.0819" y2="7.94774" gradientUnits="userSpaceOnUse">
<stop stop-color="#00C6DB"/>
<stop offset="1" stop-color="#72227F"/>
</linearGradient>
<linearGradient id="paint3_linear_38_6" x1="26.7777" y1="2.74209" x2="32.5644" y2="7.68493" gradientUnits="userSpaceOnUse">
<stop offset="0.2081" stop-color="#72227F" stop-opacity="0"/>
<stop offset="1" stop-color="#72227F"/>
</linearGradient>
<linearGradient id="paint4_linear_38_6" x1="25.1335" y1="11.0144" x2="60.8856" y2="46.7664" gradientUnits="userSpaceOnUse">
<stop stop-color="#FFDC81"/>
<stop offset="1" stop-color="#FF4EA6"/>
</linearGradient>
<linearGradient id="paint5_linear_38_6" x1="25.1335" y1="11.0144" x2="60.8856" y2="46.7664" gradientUnits="userSpaceOnUse">
<stop stop-color="#FFDC81"/>
<stop offset="1" stop-color="#FF4EA6"/>
</linearGradient>
<linearGradient id="paint6_linear_38_6" x1="27.4238" y1="11.0148" x2="41.0615" y2="9.18826" gradientUnits="userSpaceOnUse">
<stop offset="0.2081" stop-color="#72227F" stop-opacity="0"/>
<stop offset="1" stop-color="#72227F"/>
</linearGradient>
<linearGradient id="paint7_linear_38_6" x1="45.4426" y1="4.37931" x2="53.1657" y2="38.6601" gradientUnits="userSpaceOnUse">
<stop stop-color="#00C6DB"/>
<stop offset="1" stop-color="#72227F"/>
</linearGradient>
</defs>
</svg>
