<svg width="21" height="17" viewBox="0 0 21 17" fill="none" xmlns="http://www.w3.org/2000/svg">
<path d="M2.09903 17C1.54449 17 1.06994 16.7921 0.675372 16.3763C0.280809 15.9605 0.0831917 15.4601 0.0825195 14.875V2.125C0.0825195 1.54062 0.280137 1.04054 0.675372 0.62475C1.07061 0.208958 1.54516 0.000708333 2.09903 0H18.2311C18.7856 0 19.2605 0.20825 19.6557 0.62475C20.051 1.04125 20.2483 1.54133 20.2476 2.125V14.875C20.2476 15.4594 20.0503 15.9598 19.6557 16.3763C19.2612 16.7928 18.7863 17.0007 18.2311 17H2.09903ZM10.165 9.5625L18.2311 4.25V2.125L10.165 7.4375L2.09903 2.125V4.25L10.165 9.5625Z" fill="#3F3F3F"/>
</svg>
