<svg width="54" height="54" viewBox="0 0 54 54" fill="none" xmlns="http://www.w3.org/2000/svg">
<path d="M31.7769 0.000424535C31.398 0.000424535 31.0192 0.0849057 30.6825 0.21184C31.398 0.677972 31.7769 1.31307 31.9874 2.03307C31.9874 2.11797 32.0296 2.20288 32.0296 2.28736C32.0296 2.37226 32.0717 2.45675 32.0717 2.54123C32.1139 3.76981 31.7347 3.9392 31.4824 4.6592C31.0614 5.59061 31.1879 6.60736 31.6929 7.41184C31.7351 7.49675 31.7773 7.6241 31.8612 7.70858C31.3141 4.15104 34.26 3.64245 34.8072 2.54123C34.8494 1.56736 34.0499 0.932264 33.4184 0.466132C32.7872 0.0849057 32.2818 0 31.7773 0L31.7769 0.000424535ZM36.1968 0.762028C36.1547 1.1008 36.1968 1.01632 36.1546 1.18571C36.1546 1.31264 36.1546 1.43958 36.1125 1.56693C36.0703 1.69387 36.0703 1.77877 36.0281 1.90571C35.9859 2.03264 35.9441 2.11755 35.9019 2.24448C35.8598 2.32939 35.8176 2.41387 35.7754 2.5408C35.7336 2.58325 35.6914 2.66816 35.6497 2.71061C35.6075 2.75307 35.6075 2.79509 35.5653 2.83755C35.4809 2.92245 35.4387 3.04896 35.3548 3.13387L35.1025 3.38816C35.0181 3.47307 34.9337 3.55755 34.8498 3.59958C34.5553 3.81184 34.2187 3.9808 33.9238 4.19264C33.8394 4.27755 33.7133 4.32 33.6293 4.40448C33.5449 4.48939 33.4606 4.53184 33.3766 4.61632L33.1243 4.87019C33.0399 4.95509 32.9556 5.04 32.9134 5.16693C32.8294 5.25184 32.7872 5.37877 32.7033 5.46325C32.6611 5.59061 32.6189 5.67509 32.535 5.80203C32.4928 5.92939 32.4506 6.01429 32.4084 6.1408C32.3662 6.26816 32.3245 6.39509 32.3245 6.47958C32.3245 6.52203 32.3245 6.60693 32.2823 6.64939C32.2823 6.69184 32.2823 6.77632 32.2401 6.81877V7.41142C32.2401 7.53877 32.2401 7.62368 32.2823 7.75019C32.2823 7.87755 32.3245 7.96245 32.3666 8.08939C32.4088 8.21632 32.451 8.3008 32.4932 8.42816C32.535 8.51307 32.5772 8.55509 32.5772 8.64L29.3781 7.41142C28.8505 7.25054 28.3171 7.10936 27.7792 6.98816C27.4843 6.90325 27.1898 6.8608 26.8949 6.7759C26.0598 6.60767 25.217 6.48058 24.3696 6.39509H24.2852C23.4436 6.31019 22.6441 6.26774 21.8025 6.26774C21.1709 6.26774 20.5816 6.31019 19.9926 6.35264C19.1506 6.39509 18.3094 6.52245 17.4673 6.64939L16.8357 6.77632C16.4151 6.86123 15.9941 6.94571 15.5731 7.07264C15.3626 7.11509 15.1525 7.2 14.942 7.24245C14.7314 7.32693 14.5209 7.41141 14.3526 7.49632C14.1843 7.58123 14.0581 7.62368 13.8898 7.70816C13.8476 7.70816 13.8476 7.70816 13.8054 7.75061C13.6789 7.83509 13.5531 7.87755 13.4266 7.96203C13.3844 7.96203 13.3422 8.00448 13.3422 8.00448C13.1743 8.08939 13.0477 8.17429 12.9216 8.21632C12.8372 8.25877 12.7111 8.30123 12.6271 8.34368C12.5849 8.38571 12.5428 8.38571 12.5006 8.42816C12.3744 8.51307 12.2483 8.55509 12.1217 8.63958C11.9956 8.72448 11.8694 8.76693 11.7851 8.85184C11.7007 8.93632 11.5745 8.97877 11.4906 9.06325C11.4906 9.06325 11.4484 9.06325 11.4484 9.10571C11.364 9.14816 11.2801 9.23307 11.1961 9.31755L11.1539 9.36C11.0696 9.40245 11.0274 9.48693 10.9434 9.52939C10.9012 9.52939 10.9012 9.57184 10.8591 9.57184C10.7751 9.61429 10.7329 9.69877 10.649 9.7408C10.649 9.78325 10.6068 9.78325 10.6068 9.78325L10.3541 10.0375L10.3119 10.08L10.0596 10.3339C10.0596 10.3339 10.0596 10.3763 10.0174 10.3763L9.8069 10.5882C9.76471 10.6306 9.72252 10.6306 9.72252 10.6731L9.47024 10.9269C9.47024 10.9694 9.42805 10.9694 9.42805 11.0118L9.0914 11.3502L9.04921 11.3926C8.83912 11.6469 8.58641 11.8588 8.33413 12.0706C8.08185 12.2825 7.82873 12.4939 7.53426 12.7057C7.23979 12.9175 6.98709 13.0869 6.69262 13.2563C6.39815 13.4257 6.10326 13.5526 5.80879 13.68C5.5139 13.8069 5.21943 13.9339 4.92496 14.0188C4.3356 14.1461 3.74625 14.4 3.24126 14.442C3.24126 14.2306 3.1147 14.2726 2.98856 14.2726C2.86242 14.3151 2.73628 14.3151 2.6519 14.3575C2.52534 14.4 2.44139 14.4425 2.31525 14.4849C2.19529 14.524 2.08182 14.581 1.97859 14.6539C1.89422 14.7388 1.76808 14.7812 1.68412 14.8661C1.59975 14.9506 1.47319 15.0351 1.38923 15.12C1.30486 15.2049 1.17872 15.2894 1.09476 15.3739C1.01039 15.4588 0.926015 15.5437 0.842062 15.6706C0.757687 15.7975 0.673734 15.882 0.631546 16.0094C0.547593 16.0943 0.505406 16.2212 0.421453 16.3482C0.379265 16.4755 0.29489 16.602 0.252703 16.7294L0.126562 17.1106C0.0843749 17.2375 0.0843749 17.322 0.0421875 17.4494V17.4918C0 17.6192 0 17.7882 0 17.8731C0.0421875 17.8306 0.0421875 17.9155 0.0421875 18V18.1694C0.0421875 18.2543 0.0843749 18.3388 0.0843749 18.4233C0.126562 18.5082 0.126562 18.5931 0.16875 18.6775C0.210515 18.7625 0.252703 18.8469 0.336656 18.9318C0.378843 19.0167 0.463218 19.1012 0.505406 19.1857C0.589359 19.2706 0.673312 19.3555 0.757687 19.3975C0.842062 19.4825 0.926015 19.5674 1.00997 19.6094C1.34662 19.9057 1.431 19.9906 1.85203 20.2445C1.9364 20.2869 1.97817 20.3294 2.06254 20.3718H2.10473V20.4567C2.10473 20.5833 2.14692 20.6682 2.18869 20.7951C2.23087 20.9225 2.27306 21.0494 2.31525 21.1339L2.44097 21.3882C2.44097 21.4306 2.48315 21.4306 2.48315 21.4731C2.52534 21.6 2.60972 21.6845 2.6519 21.7694C2.73586 21.8543 2.77804 21.9812 2.862 22.0657L3.1147 22.32L3.36698 22.5739H3.40917C3.49354 22.6588 3.5775 22.7012 3.66187 22.7861C3.74625 22.871 3.87239 22.9131 3.95634 22.9551C4.04071 22.9975 4.16685 23.0825 4.293 23.1249C4.37737 23.1674 4.46175 23.2094 4.58746 23.2094C4.58746 23.2094 4.62965 23.2094 4.62965 23.2518C4.67184 23.2518 4.75621 23.2943 4.7984 23.2943C4.75621 24.0563 4.75621 24.7763 4.84059 25.0306C4.96631 25.3269 5.59785 24.4375 6.18721 23.4637C6.10284 24.4375 6.06065 25.5812 6.18721 25.92C6.35554 26.2588 7.15499 25.1575 7.91268 23.9714C17.7613 21.6845 26.7684 28.5457 27.7366 38.2449C27.5678 36.72 25.7158 35.8731 24.8324 36.0849C24.4113 37.1012 23.6958 38.4567 22.5597 39.2612C22.6441 38.3292 22.6019 37.3975 22.4332 36.4661C22.1387 37.7367 21.5494 38.9649 20.7077 39.9812C19.4029 40.0661 18.0562 39.4306 17.3825 38.4567C17.3403 38.4143 17.2981 38.3294 17.2564 38.2869C17.2142 38.2024 17.172 38.0755 17.1298 37.9906C17.0876 37.9057 17.0458 37.7788 17.0458 37.6943V37.1861C17.0458 37.1012 17.088 36.9739 17.1302 36.8894C17.1724 36.8049 17.1724 36.6775 17.2146 36.5931C17.2564 36.5082 17.2985 36.3812 17.3825 36.2967C17.6352 35.6188 17.6352 35.0682 17.172 34.7718L16.9197 34.6445C16.8775 34.6445 16.7931 34.6025 16.751 34.6025C16.7088 34.6025 16.667 34.56 16.6248 34.56C16.5409 34.5175 16.4147 34.5175 16.3303 34.4751C16.246 34.4326 16.1198 34.4326 16.0359 34.4326C15.9515 34.4326 15.8249 34.3906 15.741 34.3906H15.5309C15.4043 34.3906 15.32 34.3906 15.236 34.4331C15.1516 34.4331 15.0255 34.4755 14.9415 34.4755C14.8572 34.518 14.731 34.518 14.6466 34.5604C14.5627 34.6025 14.4783 34.6449 14.3522 34.6869L14.0995 34.8143C10.8586 36.9318 12.795 41.9294 14.9837 43.3694C14.1417 43.5392 13.3 43.7082 13.0473 43.878L13.0051 43.9204C13.5945 44.3012 14.226 44.598 14.8993 44.8518C15.7832 45.1486 16.7514 45.4025 17.172 45.5298C18.3085 45.7837 19.4872 45.8686 20.6655 45.7837C26.8106 45.36 31.8612 40.6167 32.7868 34.4331C32.829 34.5604 32.829 34.6869 32.8712 34.8143C32.9134 35.0682 32.9556 35.3225 32.9978 35.6188C33.04 35.7461 33.04 35.8731 33.04 36V36.0425C33.04 36.1698 33.0817 36.2967 33.0817 36.4237C33.0817 36.5931 33.1239 36.72 33.1239 36.8894V38.6682C33.1239 38.7955 33.0817 38.8804 33.0817 39.0074V39.1343C33.0817 39.2617 33.0395 39.3886 33.0395 39.558C32.9973 39.6849 32.9973 39.8118 32.9552 39.9392V39.9817C32.913 40.1086 32.913 40.2355 32.8712 40.3624V40.4049C32.829 40.5323 32.829 40.6592 32.7868 40.7861V40.8286L32.6607 41.2098V41.2523C32.6185 41.3792 32.5763 41.5486 32.5345 41.6755C32.4924 41.8029 32.4502 41.9298 32.3658 42.0992C32.324 42.2261 32.2818 42.3955 32.1979 42.5225C32.1557 42.6498 32.0713 42.7767 32.0291 42.9461C31.9874 43.0735 31.903 43.2004 31.8612 43.3274C31.8612 43.3698 31.819 43.4123 31.819 43.4123C31.819 43.4123 31.819 43.4547 31.7769 43.4547C30.893 45.2755 29.5464 46.8849 27.8627 48.1555C27.7361 48.2404 27.6522 48.3253 27.5261 48.4098C27.4839 48.4523 27.4417 48.4523 27.4417 48.4947C27.3573 48.5792 27.2312 48.6217 27.1472 48.7061L27.1894 48.791C27.3995 48.7486 27.5682 48.7486 27.7783 48.7061C28.1572 48.6637 28.4938 48.5788 28.8727 48.4943C28.957 48.4943 29.0836 48.4518 29.1676 48.4094C29.2519 48.4094 29.2937 48.3669 29.3777 48.3669C29.4616 48.3669 29.5886 48.3249 29.6725 48.3249C29.7569 48.2825 29.8409 48.2825 29.9248 48.24C31.3141 47.9016 32.6607 47.4355 33.9655 46.8849C31.7347 49.9343 28.7887 52.391 25.3374 54C26.9367 53.8731 28.536 53.6192 30.0932 53.1531C35.6848 51.5008 40.4034 47.6962 43.2248 42.5649C42.6359 45.7837 41.3728 48.8755 39.479 51.5861C40.8261 50.6967 42.0466 49.6375 43.1831 48.4943C46.2974 45.2331 48.3595 41.04 49.0332 36.5931C49.4964 38.7955 49.6648 41.0825 49.4542 43.3274C59.5134 29.2237 50.2959 14.6118 46.4239 10.7575C46.4239 10.7151 46.3817 10.7151 46.3817 10.6726C46.3817 10.8425 46.3817 11.0114 46.3395 11.1812C46.2974 11.52 46.2552 11.8163 46.213 12.1126C46.129 12.4094 46.0451 12.7482 45.9607 13.0445C45.8763 13.3412 45.7502 13.6375 45.624 13.9339C45.4979 14.2302 45.3713 14.5269 45.203 14.7812C45.0347 15.0355 44.8664 15.3318 44.698 15.5857C44.5297 15.8396 44.3192 16.0939 44.1087 16.3482C43.8986 16.6025 43.6881 16.8139 43.4354 17.0682C43.3088 17.1955 43.1831 17.3225 43.0148 17.4069C42.8882 17.4918 42.8038 17.5767 42.6777 17.7033C42.4254 17.9155 42.1727 18.0845 41.8782 18.2539C41.6255 18.4237 41.3311 18.5931 41.0366 18.72L40.1523 19.1012C39.8579 19.2282 39.5634 19.3131 39.2685 19.3975C38.974 19.4825 38.6374 19.5674 38.3425 19.6094C38.0058 19.6518 37.7114 19.6943 37.4169 19.7367C37.206 19.7367 36.9537 19.7788 36.7432 19.7788C36.4065 19.7788 36.112 19.7363 35.8176 19.7363C35.4805 19.6939 35.186 19.6514 34.8916 19.609C34.5723 19.5697 34.2604 19.4842 33.9655 19.3551C34.26 19.3126 34.5967 19.3126 34.8916 19.2282C35.2282 19.1857 35.5227 19.1008 35.8176 19.0163C36.112 18.9314 36.4487 18.8469 36.7014 18.72L37.5852 18.3388C37.8797 18.2114 38.1324 18.0425 38.4269 17.8731C38.6796 17.7033 38.974 17.4918 39.2267 17.3225C39.479 17.1102 39.7317 16.8988 39.9422 16.6869C40.1945 16.4751 40.405 16.2212 40.6156 16.0094C40.8261 15.7551 41.0366 15.5012 41.2049 15.2469C41.2471 15.2045 41.2471 15.162 41.2893 15.1196C41.415 14.9082 41.5833 14.6539 41.7099 14.4425C41.8665 14.1685 42.0069 13.8856 42.1305 13.5951C42.2571 13.2988 42.3836 13.002 42.4676 12.7057L42.7199 11.8163C42.7621 11.4775 42.8464 11.1812 42.8464 10.8845C42.8886 10.5457 42.8886 10.2494 42.8886 9.95264C42.8886 9.74123 42.8886 9.48693 42.8464 9.27509C42.8042 8.93632 42.7621 8.64 42.7199 8.34326C42.6777 8.00448 42.5933 7.70816 42.5093 7.41142C42.425 7.11509 42.2988 6.81877 42.2149 6.52203C42.0883 6.22571 41.9622 5.92939 41.836 5.67509C41.6677 5.37877 41.5416 5.12448 41.3732 4.82816C41.2045 4.57387 40.9944 4.31958 40.8261 4.06571C40.6156 3.81141 40.405 3.59958 40.1945 3.34571C40.0684 3.21835 39.9422 3.09141 39.8157 3.00693C39.1846 2.49877 38.553 2.07509 37.8797 1.65142C37.7953 1.60896 37.7114 1.56651 37.5852 1.52406C37.0381 1.05877 36.6174 0.931415 36.1968 0.762028Z" fill="#DF234F"/>
</svg>
