<svg width="119" height="24" viewBox="0 0 119 24" fill="none" xmlns="http://www.w3.org/2000/svg">
<path d="M0 0V23.9609H4.11108V5.12107L19.2724 23.9702H45.0192V20.1448H28.4047V13.8193H41.7644V9.9938H28.4047V3.83568H45.0183V0.00744017H24.2927V3.83568H24.2946V23.7935L5.13838 0H0ZM79.1071 0.00930287V3.83661H87.5022V23.973H91.6114V3.83661H99.8363V0.00836974H79.1071V0.00930287ZM49.9874 0.0195318L69.2599 23.9823H74.6548L65.0186 12.0093L74.6409 0.038134L69.258 0.0474333L62.3235 8.66098L55.3694 0.0204613H49.9865L49.9874 0.0195318ZM115.212 13.597C114.505 13.597 113.869 13.716 113.306 13.9634C112.745 14.2083 112.303 14.5519 111.98 14.994C111.655 15.4373 111.492 15.9532 111.492 16.5416C111.491 17.2572 111.732 17.8298 112.217 18.2595C112.699 18.6911 113.357 19.0122 114.192 19.2231L115.344 19.5133C115.67 19.5921 115.989 19.696 116.298 19.8239C116.539 19.9186 116.756 20.065 116.933 20.2527C117.088 20.4327 117.17 20.6637 117.164 20.9009C117.166 21.173 117.073 21.4373 116.901 21.6478C116.714 21.8737 116.47 22.0455 116.194 22.1454C115.858 22.27 115.501 22.3305 115.142 22.324C114.789 22.3296 114.437 22.2723 114.104 22.1547C113.814 22.0502 113.556 21.8716 113.357 21.6366C113.16 21.3892 113.046 21.0864 113.03 20.7707H111.225C111.25 21.4323 111.425 21.9941 111.751 22.4561C112.24 23.149 112.528 23.268 113.109 23.5071C113.685 23.7489 114.37 23.8698 115.156 23.8698C115.969 23.8685 116.661 23.7445 117.232 23.4978C117.805 23.2466 118.243 22.9 118.546 22.4579C118.85 22.0124 119 21.5018 119 20.9158C118.999 20.4818 118.917 20.1045 118.753 19.7839C118.591 19.4643 118.363 19.183 118.083 18.9589C117.793 18.7262 117.471 18.5361 117.128 18.3944C116.77 18.2422 116.4 18.1224 116.021 18.0363L115.073 17.8037C114.863 17.7536 114.656 17.6931 114.453 17.6224C114.258 17.5563 114.072 17.4673 113.898 17.3573C113.736 17.2607 113.599 17.1275 113.498 16.9685C113.397 16.8071 113.346 16.6194 113.351 16.4291C113.351 16.1888 113.429 15.9549 113.572 15.7622C113.718 15.5669 113.93 15.4125 114.203 15.2972C114.516 15.1774 114.849 15.1193 115.185 15.126C115.729 15.1254 116.172 15.2442 116.514 15.4823C116.679 15.5936 116.817 15.741 116.918 15.9134C117.018 16.0857 117.078 16.2786 117.093 16.4774H118.86C118.858 15.942 118.691 15.4201 118.383 14.9828C118.073 14.5488 117.646 14.209 117.103 13.9634C116.56 13.7179 115.93 13.5957 115.212 13.597ZM107.777 13.7309V20.7531C107.774 21.1046 107.719 21.4004 107.613 21.6404C107.518 21.8666 107.353 22.0567 107.143 22.1835C106.939 22.3075 106.69 22.3696 106.396 22.3696C106.127 22.3696 105.888 22.3168 105.679 22.2114C105.478 22.1124 105.309 21.957 105.194 21.7641C105.074 21.5514 105.011 21.3109 105.013 21.0665H103.188C103.187 21.6816 103.325 22.195 103.603 22.6067C103.881 23.0196 104.272 23.3433 104.729 23.5387C105.234 23.7555 105.779 23.8632 106.328 23.8549C106.977 23.8549 107.546 23.7309 108.034 23.4829C108.513 23.2453 108.912 22.8741 109.183 22.4142C109.456 21.951 109.595 21.397 109.6 20.7521V13.7309H107.777ZM58.1947 13.7858L49.9726 24H55.3694L60.889 17.136L58.1947 13.7858ZM100.76 21.6897C100.459 21.6897 100.202 21.7938 99.9888 22.0022C99.8855 22.0976 99.8036 22.2138 99.7485 22.3432C99.6934 22.4725 99.6663 22.6121 99.669 22.7527C99.6654 22.895 99.6921 23.0364 99.7472 23.1675C99.8023 23.2987 99.8847 23.4166 99.9888 23.5136C100.202 23.7225 100.459 23.8267 100.76 23.8261C100.948 23.8277 101.133 23.7775 101.294 23.681C101.457 23.5876 101.594 23.4545 101.692 23.2941C101.793 23.1316 101.847 22.9441 101.846 22.7527C101.846 22.6117 101.817 22.4722 101.76 22.343C101.704 22.2139 101.621 22.0978 101.517 22.0022C101.418 21.9021 101.301 21.8228 101.171 21.7691C101.041 21.7154 100.901 21.6884 100.76 21.6897Z" fill="black"/>
</svg>
