<svg width="25" height="25" viewBox="0 0 25 25" fill="none" xmlns="http://www.w3.org/2000/svg">
<path d="M20.821 19.1356H1.95497C1.73904 19.1356 1.56396 18.9605 1.56396 18.7445V8.96938C1.56396 8.75344 1.73904 8.57837 1.95497 8.57837H8.99309C9.20903 8.57837 9.3841 8.75344 9.3841 8.96938C9.3841 9.18531 9.20903 9.36038 8.99309 9.36038H2.34598V18.3535H20.4293L20.4202 13.6607C20.4198 13.4447 20.5945 13.2694 20.8104 13.2689C20.8107 13.2689 20.811 13.2689 20.8112 13.2689C21.0268 13.2689 21.2018 13.4435 21.2022 13.6592L21.212 18.7437C21.2122 18.8476 21.1711 18.9472 21.0977 19.0207C21.0244 19.0942 20.9249 19.1356 20.821 19.1356Z" fill="url(#paint0_linear_447_2358)"/>
<path d="M22.434 20.6992H0.391007C0.175073 20.6992 0 20.5241 0 20.3081V7.40492C0 7.18899 0.175073 7.01392 0.391007 7.01392H8.99316C9.20909 7.01392 9.38416 7.18899 9.38416 7.40492C9.38416 7.62086 9.20909 7.79593 8.99316 7.79593H0.782014V19.9171H22.043V13.6258C22.043 13.4099 22.2181 13.2348 22.434 13.2348C22.65 13.2348 22.825 13.4099 22.825 13.6258V20.3081C22.825 20.5241 22.65 20.6992 22.434 20.6992Z" fill="url(#paint1_linear_447_2358)"/>
<path d="M7.23381 23.4365C7.18904 23.4365 7.14353 23.4288 7.09906 23.4125C6.89637 23.338 6.79241 23.1133 6.86685 22.9106L7.87222 20.1735C7.94666 19.9708 8.1713 19.8669 8.37408 19.9413C8.57677 20.0157 8.68073 20.2405 8.60629 20.4432L7.60091 23.1803C7.54275 23.3385 7.39309 23.4365 7.23381 23.4365Z" fill="url(#paint2_linear_447_2358)"/>
<path d="M13.8809 23.4365C13.7216 23.4365 13.572 23.3385 13.5138 23.1803L12.5084 20.4432C12.434 20.2405 12.538 20.0158 12.7406 19.9413C12.9433 19.8669 13.168 19.9708 13.2425 20.1735L14.2479 22.9106C14.3223 23.1133 14.2184 23.338 14.0157 23.4125C13.9713 23.4288 13.9257 23.4365 13.8809 23.4365Z" fill="url(#paint3_linear_447_2358)"/>
<path d="M15.2488 25.0003H5.86464C5.64871 25.0003 5.47363 24.8253 5.47363 24.6093V23.0453C5.47363 22.8294 5.64871 22.6543 5.86464 22.6543H15.2488C15.4647 22.6543 15.6398 22.8294 15.6398 23.0453V24.6093C15.6398 24.8253 15.4647 25.0003 15.2488 25.0003ZM6.25565 24.2183H14.8578V23.4363H6.25565V24.2183Z" fill="url(#paint4_linear_447_2358)"/>
<path d="M17.8557 16.3734H15.7706C15.5682 16.3734 15.4041 16.2093 15.4041 16.0068V15.1914C14.498 15.0099 13.628 14.6493 12.8572 14.1358L12.2802 14.7132C12.2115 14.782 12.1183 14.8206 12.021 14.8206C11.9238 14.8206 11.8305 14.782 11.7618 14.7133L10.2867 13.2382C10.2179 13.1694 10.1793 13.0761 10.1793 12.9789C10.1793 12.8816 10.218 12.7884 10.2867 12.7196L10.8641 12.1427C10.3506 11.3718 9.99 10.5019 9.80848 9.59575H8.99303C8.79059 9.59575 8.62646 9.43162 8.62646 9.22918V7.14413C8.62646 6.94169 8.79059 6.77757 8.99303 6.77757H9.80843C9.98995 5.87141 10.3505 5.00151 10.864 4.23064L10.2867 3.65367C10.2179 3.58495 10.1793 3.49169 10.1793 3.39443C10.1793 3.29721 10.2179 3.20396 10.2866 3.13519L11.7617 1.66012C11.8304 1.59135 11.9237 1.55274 12.0209 1.55274C12.1182 1.55274 12.2114 1.5914 12.2802 1.66017L12.8572 2.23749C13.628 1.724 14.498 1.36344 15.4041 1.18192V0.366569C15.4041 0.164125 15.5682 0 15.7706 0H17.8557C18.0582 0 18.2223 0.164125 18.2223 0.366569V1.18196C19.1284 1.36349 19.9983 1.72405 20.7691 2.23754L21.3462 1.66021C21.4149 1.59145 21.5081 1.55279 21.6054 1.55279C21.7027 1.55279 21.7959 1.5914 21.8647 1.66017L23.3398 3.13524C23.4085 3.20401 23.4471 3.29726 23.4471 3.39448C23.4471 3.49174 23.4085 3.58499 23.3397 3.65371L22.7623 4.23069C23.2758 5.00151 23.6364 5.87146 23.818 6.77761H24.6333C24.8358 6.77761 24.9999 6.94174 24.9999 7.14418V9.22923C24.9999 9.43167 24.8358 9.5958 24.6333 9.5958H23.8179C23.6363 10.502 23.2758 11.3719 22.7623 12.1427L23.3397 12.7197C23.4084 12.7884 23.4471 12.8816 23.4471 12.9789C23.4471 13.0761 23.4085 13.1694 23.3398 13.2382L21.8646 14.7133C21.7959 14.7821 21.7027 14.8207 21.6054 14.8207H21.6053C21.5081 14.8207 21.4149 14.782 21.3461 14.7132L20.7548 14.1216C20.3934 14.3414 19.7527 14.7189 19.2859 14.8909C18.9406 15.0184 18.584 15.1192 18.2222 15.1915V16.0068C18.2223 16.2093 18.0582 16.3734 17.8557 16.3734ZM16.1372 15.6403H17.4891V14.8842C17.4891 14.7032 17.6211 14.5494 17.7999 14.5218C18.2196 14.4573 18.6341 14.35 19.0322 14.2031C19.5105 14.0267 20.2773 13.5549 20.5293 13.3999C20.6478 13.3269 20.666 13.3157 20.7179 13.3008C20.8768 13.2548 21.0466 13.3212 21.1326 13.4624L21.6055 13.9356L22.562 12.9791L22.0266 12.4441C21.8987 12.3162 21.8831 12.114 21.9901 11.9681C22.5932 11.1453 22.9937 10.1789 23.1483 9.17361C23.1758 8.99477 23.3296 8.86276 23.5106 8.86276H24.2667V7.51085H23.5106C23.3296 7.51085 23.1757 7.37884 23.1483 7.2C22.9937 6.19467 22.5932 5.22835 21.9901 4.40552C21.8832 4.25958 21.8987 4.05743 22.0266 3.92952L22.562 3.39448L21.6055 2.43798L21.0705 2.97336C20.9425 3.10137 20.7404 3.11681 20.5945 3.00992C19.7716 2.40674 18.8053 2.00626 17.8 1.85176C17.6211 1.82424 17.4891 1.67038 17.4891 1.48944V0.733138H16.1372V1.48925C16.1372 1.67019 16.0052 1.8241 15.8264 1.85156C14.8211 2.00606 13.8547 2.40655 13.0318 3.00973C12.886 3.11667 12.6838 3.10117 12.5559 2.97317L12.0208 2.43783L11.0643 3.39433L11.5997 3.92937C11.7277 4.05728 11.7432 4.25943 11.6362 4.40538C11.0331 5.2282 10.6326 6.19453 10.4781 7.19985C10.4506 7.37869 10.2967 7.5107 10.1158 7.5107H9.3596V8.86261H10.1157C10.2967 8.86261 10.4506 8.99462 10.478 9.17346C10.6326 10.1788 11.033 11.1451 11.6361 11.9679C11.7431 12.1139 11.7276 12.316 11.5996 12.4439L11.0642 12.979L12.0207 13.9355L12.5558 13.4001C12.6837 13.2721 12.8858 13.2566 13.0318 13.3636C13.8547 13.9667 14.8209 14.3672 15.8263 14.5217C16.0052 14.5493 16.1372 14.7031 16.1372 14.8841V15.6403H16.1372ZM16.8132 12.8543C14.2394 12.8543 12.1455 10.7605 12.1455 8.18671C12.1455 7.89101 12.1731 7.59653 12.2276 7.31139C12.6445 5.11417 14.573 3.51906 16.8132 3.51906C19.3869 3.51906 21.4808 5.61295 21.4808 8.18671C21.4808 8.74673 21.3827 9.29404 21.1892 9.81344C20.8505 10.7248 20.2453 11.4968 19.439 12.0462C18.6636 12.5749 17.7556 12.8543 16.8132 12.8543ZM16.8132 4.2522C14.9248 4.2522 13.2992 5.59643 12.9478 7.44853C12.9019 7.68886 12.8787 7.93705 12.8787 8.18671C12.8787 10.3562 14.6437 12.1212 16.8132 12.1212C17.6076 12.1212 18.3729 11.8858 19.0261 11.4404C19.7062 10.9771 20.2165 10.3261 20.5019 9.55806C20.502 9.55797 20.502 9.55787 20.502 9.55777C20.665 9.12043 20.7476 8.65914 20.7476 8.18671C20.7477 6.0172 18.9827 4.2522 16.8132 4.2522Z" fill="url(#paint5_linear_447_2358)"/>
<path d="M14.8586 9.35991C14.7585 9.35991 14.6584 9.32174 14.5821 9.24539L13.8001 8.46338C13.6474 8.31069 13.6474 8.06313 13.8001 7.91045L14.5821 7.12843C14.7348 6.97574 14.9823 6.97574 15.1351 7.12843C15.2877 7.28112 15.2877 7.52868 15.1351 7.68136L14.6295 8.18689L15.1351 8.69241C15.2877 8.8451 15.2877 9.09266 15.1351 9.24534C15.0587 9.32174 14.9587 9.35991 14.8586 9.35991Z" fill="url(#paint6_linear_447_2358)"/>
<path d="M18.7684 9.35991C18.6684 9.35991 18.5683 9.32174 18.492 9.24539C18.3393 9.0927 18.3393 8.84515 18.492 8.69246L18.9975 8.18689L18.492 7.68136C18.3393 7.52868 18.3393 7.28112 18.492 7.12843C18.6447 6.97574 18.8922 6.97574 19.0449 7.12843L19.827 7.91045C19.9796 8.06313 19.9796 8.31069 19.827 8.46338L19.0449 9.24539C18.9686 9.32174 18.8685 9.35991 18.7684 9.35991Z" fill="url(#paint7_linear_447_2358)"/>
<path d="M16.422 9.36016C16.3632 9.36016 16.3036 9.34686 16.2474 9.31876C16.0543 9.22218 15.976 8.98733 16.0726 8.79417L16.8546 7.23015C16.9512 7.03694 17.186 6.95874 17.3792 7.05527C17.5723 7.15185 17.6506 7.3867 17.554 7.57985L16.772 9.14388C16.7036 9.28093 16.5655 9.36016 16.422 9.36016Z" fill="url(#paint8_linear_447_2358)"/>
<path d="M17.9861 10.9236H15.64C15.4241 10.9236 15.249 10.7485 15.249 10.5326C15.249 10.3167 15.4241 10.1416 15.64 10.1416H17.9861C18.202 10.1416 18.3771 10.3167 18.3771 10.5326C18.3771 10.7485 18.202 10.9236 17.9861 10.9236Z" fill="url(#paint9_linear_447_2358)"/>
<path d="M17.9861 6.23319H15.64C15.4241 6.23319 15.249 6.05811 15.249 5.84218C15.249 5.62625 15.4241 5.45117 15.64 5.45117H17.9861C18.202 5.45117 18.3771 5.62625 18.3771 5.84218C18.3771 6.05811 18.202 6.23319 17.9861 6.23319Z" fill="url(#paint10_linear_447_2358)"/>
<defs>
<linearGradient id="paint0_linear_447_2358" x1="11.388" y1="8.57837" x2="11.388" y2="19.1356" gradientUnits="userSpaceOnUse">
<stop stop-color="#63388B"/>
<stop offset="1" stop-color="#357BB0"/>
</linearGradient>
<linearGradient id="paint1_linear_447_2358" x1="11.4125" y1="7.01392" x2="11.4125" y2="20.6992" gradientUnits="userSpaceOnUse">
<stop stop-color="#63388B"/>
<stop offset="1" stop-color="#357BB0"/>
</linearGradient>
<linearGradient id="paint2_linear_447_2358" x1="7.73657" y1="19.9172" x2="7.73657" y2="23.4365" gradientUnits="userSpaceOnUse">
<stop stop-color="#63388B"/>
<stop offset="1" stop-color="#357BB0"/>
</linearGradient>
<linearGradient id="paint3_linear_447_2358" x1="13.3782" y1="19.9172" x2="13.3782" y2="23.4365" gradientUnits="userSpaceOnUse">
<stop stop-color="#63388B"/>
<stop offset="1" stop-color="#357BB0"/>
</linearGradient>
<linearGradient id="paint4_linear_447_2358" x1="10.5567" y1="22.6543" x2="10.5567" y2="25.0003" gradientUnits="userSpaceOnUse">
<stop stop-color="#63388B"/>
<stop offset="1" stop-color="#357BB0"/>
</linearGradient>
<linearGradient id="paint5_linear_447_2358" x1="16.8132" y1="0" x2="16.8132" y2="16.3734" gradientUnits="userSpaceOnUse">
<stop stop-color="#63388B"/>
<stop offset="1" stop-color="#357BB0"/>
</linearGradient>
<linearGradient id="paint6_linear_447_2358" x1="14.4676" y1="7.01392" x2="14.4676" y2="9.35991" gradientUnits="userSpaceOnUse">
<stop stop-color="#63388B"/>
<stop offset="1" stop-color="#357BB0"/>
</linearGradient>
<linearGradient id="paint7_linear_447_2358" x1="19.1595" y1="7.01392" x2="19.1595" y2="9.35991" gradientUnits="userSpaceOnUse">
<stop stop-color="#63388B"/>
<stop offset="1" stop-color="#357BB0"/>
</linearGradient>
<linearGradient id="paint8_linear_447_2358" x1="16.8133" y1="7.01392" x2="16.8133" y2="9.36016" gradientUnits="userSpaceOnUse">
<stop stop-color="#63388B"/>
<stop offset="1" stop-color="#357BB0"/>
</linearGradient>
<linearGradient id="paint9_linear_447_2358" x1="16.8131" y1="10.1416" x2="16.8131" y2="10.9236" gradientUnits="userSpaceOnUse">
<stop stop-color="#63388B"/>
<stop offset="1" stop-color="#357BB0"/>
</linearGradient>
<linearGradient id="paint10_linear_447_2358" x1="16.8131" y1="5.45117" x2="16.8131" y2="6.23319" gradientUnits="userSpaceOnUse">
<stop stop-color="#63388B"/>
<stop offset="1" stop-color="#357BB0"/>
</linearGradient>
</defs>
</svg>
