<svg width="26" height="27" viewBox="0 0 26 27" fill="none" xmlns="http://www.w3.org/2000/svg">
<mask id="path-1-outside-1_447_2461" maskUnits="userSpaceOnUse" x="0" y="0" width="26" height="27" fill="black">
<rect fill="white" width="26" height="27"/>
<path d="M19.2674 3.11592C16.7144 3.11592 14.6356 5.19167 14.6356 7.74416C14.6222 8.33073 14.6972 8.83158 14.8285 9.27084C14.2525 9.07799 13.5158 8.98425 12.6585 9.21459C11.6111 7.50579 9.5162 6.76923 7.3597 7.3799C5.33177 7.95308 4.04322 9.67795 4.0084 11.8126C2.19747 12.0751 1 13.6152 1 15.7364C1 17.997 2.74932 19.8344 4.90047 19.8344H6.99804V23.8546H5.53269C5.38535 23.0216 4.65669 22.3869 3.78069 22.3869C2.80022 22.3869 2.00191 23.185 2.00191 24.1653C2.00191 25.1456 2.80022 25.9438 3.78069 25.9438C4.65669 25.9438 5.38535 25.309 5.53269 24.476H7.3088C7.48025 24.476 7.61955 24.3367 7.61955 24.1653V19.837H10.427V22.4699C9.59389 22.6172 8.959 23.3457 8.959 24.2216C8.959 25.2018 9.75731 26 10.7378 26C11.7183 26 12.5166 25.2018 12.5166 24.2216C12.5166 23.3457 11.8817 22.6172 11.0485 22.4699V19.837H13.856V24.168C13.856 24.3394 13.9953 24.4787 14.1668 24.4787H15.9429C16.0902 25.3117 16.8189 25.9464 17.6949 25.9464C18.6753 25.9464 19.4737 25.1483 19.4737 24.168C19.4737 23.1877 18.6753 22.3895 17.6949 22.3895C16.8189 22.3895 16.0902 23.0243 15.9429 23.8573H14.4775V19.837H16.5751C18.4985 19.837 20.1327 18.3586 20.4273 16.3739C20.4541 16.3525 20.4782 16.331 20.5024 16.3069L21.1908 15.5972C21.2471 15.5382 21.2792 15.4606 21.2792 15.3802V13.275C21.381 12.6027 21.8123 12.0965 22.3133 11.5126C23.0741 10.6261 23.934 9.62171 23.8912 7.74148C23.8965 5.19167 21.8204 3.11592 19.2674 3.11592ZM3.78337 25.3224C3.14579 25.3224 2.62609 24.8028 2.62609 24.1653C2.62609 23.5279 3.14579 23.0083 3.78337 23.0083C4.42095 23.0083 4.94065 23.5279 4.94065 24.1653C4.94065 24.8054 4.42095 25.3224 3.78337 25.3224ZM11.9004 24.2216C11.9004 24.859 11.3807 25.3786 10.7431 25.3786C10.1056 25.3786 9.58586 24.859 9.58586 24.2216C9.58586 23.5841 10.1056 23.0645 10.7431 23.0645C11.3807 23.0645 11.9004 23.5814 11.9004 24.2216ZM17.7029 23.0083C18.3405 23.0083 18.8602 23.5279 18.8602 24.1653C18.8602 24.8028 18.3405 25.3224 17.7029 25.3224C17.0653 25.3224 16.5456 24.8028 16.5456 24.1653C16.5456 23.5279 17.0653 23.0083 17.7029 23.0083ZM16.5831 19.213H4.90047C3.09222 19.213 1.6215 17.6542 1.6215 15.7364C1.6215 13.8214 2.69038 12.5117 4.34326 12.3992C4.51203 12.3885 4.64062 12.2438 4.63258 12.0778C4.55757 10.1065 5.6961 8.49679 7.52847 7.97718C9.48674 7.42276 11.378 8.12717 12.2353 9.72884C12.3076 9.86276 12.463 9.92436 12.6076 9.87883C13.7247 9.50921 14.6115 9.79312 15.1606 10.0958C15.166 10.0985 15.1714 10.1011 15.174 10.1038C15.4714 10.6529 15.8518 11.0975 16.2108 11.5153C16.7117 12.0992 17.143 12.6027 17.2448 13.2777V15.3829C17.2448 15.4633 17.277 15.5436 17.3359 15.6052L18.0538 16.315C18.3378 16.5962 18.8816 16.6953 19.3049 16.6953C19.3156 16.6953 19.3236 16.6953 19.3344 16.6953C19.4281 16.6953 19.5781 16.6873 19.7415 16.6578C19.3611 18.1443 18.078 19.213 16.5831 19.213ZM20.6631 14.0035H17.869V13.5616H20.6631V14.0035ZM20.063 15.873C19.9719 15.9668 19.7094 16.0659 19.329 16.0686C18.9218 16.0739 18.595 15.9695 18.4932 15.8677L18.3137 15.6909H20.2371L20.063 15.873ZM17.869 15.0695V14.6249H20.6631V15.0669H17.869V15.0695ZM21.8472 11.1082C21.3596 11.676 20.8988 12.2144 20.7193 12.9375H17.8127C17.6333 12.2144 17.1698 11.676 16.6849 11.1082C15.9643 10.2672 15.2169 9.39672 15.2571 7.7522C15.2571 7.74952 15.2571 7.74684 15.2571 7.74416C15.2571 5.5345 17.0546 3.73463 19.2674 3.73463C21.4775 3.73463 23.2777 5.53182 23.2777 7.74416C23.2777 7.74684 23.2777 7.74952 23.2777 7.7522C23.3152 9.39672 22.5705 10.2672 21.8472 11.1082ZM18.954 2.46507V1.31069C18.954 1.13928 19.0933 1 19.2647 1C19.4362 1 19.5755 1.13928 19.5755 1.31069V2.46507C19.5755 2.63649 19.4362 2.77577 19.2647 2.77577C19.0933 2.77577 18.954 2.63649 18.954 2.46507ZM15.7795 2.32848C15.6937 2.17849 15.7446 1.98832 15.8947 1.90261C16.0447 1.81691 16.2349 1.8678 16.3206 2.01778L16.8966 3.01682C16.9823 3.16681 16.9314 3.35697 16.7814 3.44268C16.7331 3.47215 16.6796 3.48554 16.626 3.48554C16.5188 3.48554 16.4144 3.42929 16.3554 3.33019L15.7795 2.32848ZM13.422 4.37208C13.5078 4.22209 13.698 4.1712 13.848 4.25691L14.8472 4.83276C14.9972 4.91847 15.0481 5.10864 14.9624 5.25862C14.9035 5.35772 14.799 5.41397 14.6918 5.41397C14.6383 5.41397 14.5847 5.40058 14.5365 5.37112L13.5372 4.79526C13.3872 4.71224 13.3363 4.52207 13.422 4.37208ZM21.6382 3.01682L22.2142 2.01778C22.2999 1.8678 22.4901 1.81691 22.6401 1.90261C22.7901 1.98832 22.841 2.17849 22.7553 2.32848L22.1793 3.32751C22.1204 3.42661 22.0159 3.48286 21.9088 3.48286C21.8552 3.48286 21.8016 3.46947 21.7534 3.44C21.6034 3.35697 21.5525 3.16681 21.6382 3.01682ZM24.9975 4.79794L23.9983 5.3738C23.9501 5.40326 23.8965 5.41665 23.8429 5.41665C23.7358 5.41665 23.6313 5.3604 23.5724 5.2613C23.4866 5.11131 23.5375 4.92115 23.6876 4.83544L24.6868 4.25959C24.8368 4.17388 25.027 4.22477 25.1127 4.37476C25.1958 4.52207 25.1449 4.71224 24.9975 4.79794ZM15.6348 14.4642C15.7473 14.5955 15.7312 14.791 15.6 14.9035C15.541 14.9544 15.4687 14.9785 15.3991 14.9785C15.3107 14.9785 15.2223 14.941 15.1606 14.8687C14.0676 13.583 12.4764 12.8465 10.7914 12.8465C9.10634 12.8465 7.51507 13.583 6.42208 14.8687C6.30957 14.9999 6.11401 15.016 5.98274 14.9035C5.85148 14.791 5.8354 14.5955 5.94792 14.4642C7.15878 13.0393 8.92417 12.2224 10.7914 12.2224C12.6585 12.2224 14.4239 13.042 15.6348 14.4642ZM14.365 15.5409C14.4775 15.6722 14.4614 15.8677 14.3302 15.9802C14.2712 16.0311 14.1989 16.0552 14.1293 16.0552C14.0409 16.0552 13.9525 16.0177 13.8908 15.9454C13.1166 15.032 11.9861 14.5098 10.7914 14.5098C9.59657 14.5098 8.46608 15.032 7.69188 15.9454C7.57936 16.0766 7.38381 16.0927 7.25254 15.9802C7.12127 15.8677 7.1052 15.6722 7.21771 15.5409C8.10979 14.4883 9.41441 13.8857 10.794 13.8857C12.1683 13.8857 13.4729 14.491 14.365 15.5409ZM13.0979 16.6176C13.2104 16.7489 13.1943 16.9444 13.0631 17.0569C13.0041 17.1078 12.9318 17.1319 12.8621 17.1319C12.7737 17.1319 12.6853 17.0944 12.6237 17.0221C12.1656 16.4837 11.4986 16.173 10.7914 16.173C10.0841 16.173 9.41709 16.481 8.959 17.0221C8.84648 17.1533 8.65092 17.1694 8.51966 17.0569C8.38839 16.9444 8.37232 16.7489 8.48483 16.6176C9.06079 15.94 9.90197 15.549 10.7914 15.549C11.6808 15.549 12.5219 15.94 13.0979 16.6176Z"/>
</mask>
<path d="M19.2674 3.11592C16.7144 3.11592 14.6356 5.19167 14.6356 7.74416C14.6222 8.33073 14.6972 8.83158 14.8285 9.27084C14.2525 9.07799 13.5158 8.98425 12.6585 9.21459C11.6111 7.50579 9.5162 6.76923 7.3597 7.3799C5.33177 7.95308 4.04322 9.67795 4.0084 11.8126C2.19747 12.0751 1 13.6152 1 15.7364C1 17.997 2.74932 19.8344 4.90047 19.8344H6.99804V23.8546H5.53269C5.38535 23.0216 4.65669 22.3869 3.78069 22.3869C2.80022 22.3869 2.00191 23.185 2.00191 24.1653C2.00191 25.1456 2.80022 25.9438 3.78069 25.9438C4.65669 25.9438 5.38535 25.309 5.53269 24.476H7.3088C7.48025 24.476 7.61955 24.3367 7.61955 24.1653V19.837H10.427V22.4699C9.59389 22.6172 8.959 23.3457 8.959 24.2216C8.959 25.2018 9.75731 26 10.7378 26C11.7183 26 12.5166 25.2018 12.5166 24.2216C12.5166 23.3457 11.8817 22.6172 11.0485 22.4699V19.837H13.856V24.168C13.856 24.3394 13.9953 24.4787 14.1668 24.4787H15.9429C16.0902 25.3117 16.8189 25.9464 17.6949 25.9464C18.6753 25.9464 19.4737 25.1483 19.4737 24.168C19.4737 23.1877 18.6753 22.3895 17.6949 22.3895C16.8189 22.3895 16.0902 23.0243 15.9429 23.8573H14.4775V19.837H16.5751C18.4985 19.837 20.1327 18.3586 20.4273 16.3739C20.4541 16.3525 20.4782 16.331 20.5024 16.3069L21.1908 15.5972C21.2471 15.5382 21.2792 15.4606 21.2792 15.3802V13.275C21.381 12.6027 21.8123 12.0965 22.3133 11.5126C23.0741 10.6261 23.934 9.62171 23.8912 7.74148C23.8965 5.19167 21.8204 3.11592 19.2674 3.11592ZM3.78337 25.3224C3.14579 25.3224 2.62609 24.8028 2.62609 24.1653C2.62609 23.5279 3.14579 23.0083 3.78337 23.0083C4.42095 23.0083 4.94065 23.5279 4.94065 24.1653C4.94065 24.8054 4.42095 25.3224 3.78337 25.3224ZM11.9004 24.2216C11.9004 24.859 11.3807 25.3786 10.7431 25.3786C10.1056 25.3786 9.58586 24.859 9.58586 24.2216C9.58586 23.5841 10.1056 23.0645 10.7431 23.0645C11.3807 23.0645 11.9004 23.5814 11.9004 24.2216ZM17.7029 23.0083C18.3405 23.0083 18.8602 23.5279 18.8602 24.1653C18.8602 24.8028 18.3405 25.3224 17.7029 25.3224C17.0653 25.3224 16.5456 24.8028 16.5456 24.1653C16.5456 23.5279 17.0653 23.0083 17.7029 23.0083ZM16.5831 19.213H4.90047C3.09222 19.213 1.6215 17.6542 1.6215 15.7364C1.6215 13.8214 2.69038 12.5117 4.34326 12.3992C4.51203 12.3885 4.64062 12.2438 4.63258 12.0778C4.55757 10.1065 5.6961 8.49679 7.52847 7.97718C9.48674 7.42276 11.378 8.12717 12.2353 9.72884C12.3076 9.86276 12.463 9.92436 12.6076 9.87883C13.7247 9.50921 14.6115 9.79312 15.1606 10.0958C15.166 10.0985 15.1714 10.1011 15.174 10.1038C15.4714 10.6529 15.8518 11.0975 16.2108 11.5153C16.7117 12.0992 17.143 12.6027 17.2448 13.2777V15.3829C17.2448 15.4633 17.277 15.5436 17.3359 15.6052L18.0538 16.315C18.3378 16.5962 18.8816 16.6953 19.3049 16.6953C19.3156 16.6953 19.3236 16.6953 19.3344 16.6953C19.4281 16.6953 19.5781 16.6873 19.7415 16.6578C19.3611 18.1443 18.078 19.213 16.5831 19.213ZM20.6631 14.0035H17.869V13.5616H20.6631V14.0035ZM20.063 15.873C19.9719 15.9668 19.7094 16.0659 19.329 16.0686C18.9218 16.0739 18.595 15.9695 18.4932 15.8677L18.3137 15.6909H20.2371L20.063 15.873ZM17.869 15.0695V14.6249H20.6631V15.0669H17.869V15.0695ZM21.8472 11.1082C21.3596 11.676 20.8988 12.2144 20.7193 12.9375H17.8127C17.6333 12.2144 17.1698 11.676 16.6849 11.1082C15.9643 10.2672 15.2169 9.39672 15.2571 7.7522C15.2571 7.74952 15.2571 7.74684 15.2571 7.74416C15.2571 5.5345 17.0546 3.73463 19.2674 3.73463C21.4775 3.73463 23.2777 5.53182 23.2777 7.74416C23.2777 7.74684 23.2777 7.74952 23.2777 7.7522C23.3152 9.39672 22.5705 10.2672 21.8472 11.1082ZM18.954 2.46507V1.31069C18.954 1.13928 19.0933 1 19.2647 1C19.4362 1 19.5755 1.13928 19.5755 1.31069V2.46507C19.5755 2.63649 19.4362 2.77577 19.2647 2.77577C19.0933 2.77577 18.954 2.63649 18.954 2.46507ZM15.7795 2.32848C15.6937 2.17849 15.7446 1.98832 15.8947 1.90261C16.0447 1.81691 16.2349 1.8678 16.3206 2.01778L16.8966 3.01682C16.9823 3.16681 16.9314 3.35697 16.7814 3.44268C16.7331 3.47215 16.6796 3.48554 16.626 3.48554C16.5188 3.48554 16.4144 3.42929 16.3554 3.33019L15.7795 2.32848ZM13.422 4.37208C13.5078 4.22209 13.698 4.1712 13.848 4.25691L14.8472 4.83276C14.9972 4.91847 15.0481 5.10864 14.9624 5.25862C14.9035 5.35772 14.799 5.41397 14.6918 5.41397C14.6383 5.41397 14.5847 5.40058 14.5365 5.37112L13.5372 4.79526C13.3872 4.71224 13.3363 4.52207 13.422 4.37208ZM21.6382 3.01682L22.2142 2.01778C22.2999 1.8678 22.4901 1.81691 22.6401 1.90261C22.7901 1.98832 22.841 2.17849 22.7553 2.32848L22.1793 3.32751C22.1204 3.42661 22.0159 3.48286 21.9088 3.48286C21.8552 3.48286 21.8016 3.46947 21.7534 3.44C21.6034 3.35697 21.5525 3.16681 21.6382 3.01682ZM24.9975 4.79794L23.9983 5.3738C23.9501 5.40326 23.8965 5.41665 23.8429 5.41665C23.7358 5.41665 23.6313 5.3604 23.5724 5.2613C23.4866 5.11131 23.5375 4.92115 23.6876 4.83544L24.6868 4.25959C24.8368 4.17388 25.027 4.22477 25.1127 4.37476C25.1958 4.52207 25.1449 4.71224 24.9975 4.79794ZM15.6348 14.4642C15.7473 14.5955 15.7312 14.791 15.6 14.9035C15.541 14.9544 15.4687 14.9785 15.3991 14.9785C15.3107 14.9785 15.2223 14.941 15.1606 14.8687C14.0676 13.583 12.4764 12.8465 10.7914 12.8465C9.10634 12.8465 7.51507 13.583 6.42208 14.8687C6.30957 14.9999 6.11401 15.016 5.98274 14.9035C5.85148 14.791 5.8354 14.5955 5.94792 14.4642C7.15878 13.0393 8.92417 12.2224 10.7914 12.2224C12.6585 12.2224 14.4239 13.042 15.6348 14.4642ZM14.365 15.5409C14.4775 15.6722 14.4614 15.8677 14.3302 15.9802C14.2712 16.0311 14.1989 16.0552 14.1293 16.0552C14.0409 16.0552 13.9525 16.0177 13.8908 15.9454C13.1166 15.032 11.9861 14.5098 10.7914 14.5098C9.59657 14.5098 8.46608 15.032 7.69188 15.9454C7.57936 16.0766 7.38381 16.0927 7.25254 15.9802C7.12127 15.8677 7.1052 15.6722 7.21771 15.5409C8.10979 14.4883 9.41441 13.8857 10.794 13.8857C12.1683 13.8857 13.4729 14.491 14.365 15.5409ZM13.0979 16.6176C13.2104 16.7489 13.1943 16.9444 13.0631 17.0569C13.0041 17.1078 12.9318 17.1319 12.8621 17.1319C12.7737 17.1319 12.6853 17.0944 12.6237 17.0221C12.1656 16.4837 11.4986 16.173 10.7914 16.173C10.0841 16.173 9.41709 16.481 8.959 17.0221C8.84648 17.1533 8.65092 17.1694 8.51966 17.0569C8.38839 16.9444 8.37232 16.7489 8.48483 16.6176C9.06079 15.94 9.90197 15.549 10.7914 15.549C11.6808 15.549 12.5219 15.94 13.0979 16.6176Z" fill="url(#paint0_linear_447_2461)"/>
<path d="M19.2674 3.11592C16.7144 3.11592 14.6356 5.19167 14.6356 7.74416C14.6222 8.33073 14.6972 8.83158 14.8285 9.27084C14.2525 9.07799 13.5158 8.98425 12.6585 9.21459C11.6111 7.50579 9.5162 6.76923 7.3597 7.3799C5.33177 7.95308 4.04322 9.67795 4.0084 11.8126C2.19747 12.0751 1 13.6152 1 15.7364C1 17.997 2.74932 19.8344 4.90047 19.8344H6.99804V23.8546H5.53269C5.38535 23.0216 4.65669 22.3869 3.78069 22.3869C2.80022 22.3869 2.00191 23.185 2.00191 24.1653C2.00191 25.1456 2.80022 25.9438 3.78069 25.9438C4.65669 25.9438 5.38535 25.309 5.53269 24.476H7.3088C7.48025 24.476 7.61955 24.3367 7.61955 24.1653V19.837H10.427V22.4699C9.59389 22.6172 8.959 23.3457 8.959 24.2216C8.959 25.2018 9.75731 26 10.7378 26C11.7183 26 12.5166 25.2018 12.5166 24.2216C12.5166 23.3457 11.8817 22.6172 11.0485 22.4699V19.837H13.856V24.168C13.856 24.3394 13.9953 24.4787 14.1668 24.4787H15.9429C16.0902 25.3117 16.8189 25.9464 17.6949 25.9464C18.6753 25.9464 19.4737 25.1483 19.4737 24.168C19.4737 23.1877 18.6753 22.3895 17.6949 22.3895C16.8189 22.3895 16.0902 23.0243 15.9429 23.8573H14.4775V19.837H16.5751C18.4985 19.837 20.1327 18.3586 20.4273 16.3739C20.4541 16.3525 20.4782 16.331 20.5024 16.3069L21.1908 15.5972C21.2471 15.5382 21.2792 15.4606 21.2792 15.3802V13.275C21.381 12.6027 21.8123 12.0965 22.3133 11.5126C23.0741 10.6261 23.934 9.62171 23.8912 7.74148C23.8965 5.19167 21.8204 3.11592 19.2674 3.11592ZM3.78337 25.3224C3.14579 25.3224 2.62609 24.8028 2.62609 24.1653C2.62609 23.5279 3.14579 23.0083 3.78337 23.0083C4.42095 23.0083 4.94065 23.5279 4.94065 24.1653C4.94065 24.8054 4.42095 25.3224 3.78337 25.3224ZM11.9004 24.2216C11.9004 24.859 11.3807 25.3786 10.7431 25.3786C10.1056 25.3786 9.58586 24.859 9.58586 24.2216C9.58586 23.5841 10.1056 23.0645 10.7431 23.0645C11.3807 23.0645 11.9004 23.5814 11.9004 24.2216ZM17.7029 23.0083C18.3405 23.0083 18.8602 23.5279 18.8602 24.1653C18.8602 24.8028 18.3405 25.3224 17.7029 25.3224C17.0653 25.3224 16.5456 24.8028 16.5456 24.1653C16.5456 23.5279 17.0653 23.0083 17.7029 23.0083ZM16.5831 19.213H4.90047C3.09222 19.213 1.6215 17.6542 1.6215 15.7364C1.6215 13.8214 2.69038 12.5117 4.34326 12.3992C4.51203 12.3885 4.64062 12.2438 4.63258 12.0778C4.55757 10.1065 5.6961 8.49679 7.52847 7.97718C9.48674 7.42276 11.378 8.12717 12.2353 9.72884C12.3076 9.86276 12.463 9.92436 12.6076 9.87883C13.7247 9.50921 14.6115 9.79312 15.1606 10.0958C15.166 10.0985 15.1714 10.1011 15.174 10.1038C15.4714 10.6529 15.8518 11.0975 16.2108 11.5153C16.7117 12.0992 17.143 12.6027 17.2448 13.2777V15.3829C17.2448 15.4633 17.277 15.5436 17.3359 15.6052L18.0538 16.315C18.3378 16.5962 18.8816 16.6953 19.3049 16.6953C19.3156 16.6953 19.3236 16.6953 19.3344 16.6953C19.4281 16.6953 19.5781 16.6873 19.7415 16.6578C19.3611 18.1443 18.078 19.213 16.5831 19.213ZM20.6631 14.0035H17.869V13.5616H20.6631V14.0035ZM20.063 15.873C19.9719 15.9668 19.7094 16.0659 19.329 16.0686C18.9218 16.0739 18.595 15.9695 18.4932 15.8677L18.3137 15.6909H20.2371L20.063 15.873ZM17.869 15.0695V14.6249H20.6631V15.0669H17.869V15.0695ZM21.8472 11.1082C21.3596 11.676 20.8988 12.2144 20.7193 12.9375H17.8127C17.6333 12.2144 17.1698 11.676 16.6849 11.1082C15.9643 10.2672 15.2169 9.39672 15.2571 7.7522C15.2571 7.74952 15.2571 7.74684 15.2571 7.74416C15.2571 5.5345 17.0546 3.73463 19.2674 3.73463C21.4775 3.73463 23.2777 5.53182 23.2777 7.74416C23.2777 7.74684 23.2777 7.74952 23.2777 7.7522C23.3152 9.39672 22.5705 10.2672 21.8472 11.1082ZM18.954 2.46507V1.31069C18.954 1.13928 19.0933 1 19.2647 1C19.4362 1 19.5755 1.13928 19.5755 1.31069V2.46507C19.5755 2.63649 19.4362 2.77577 19.2647 2.77577C19.0933 2.77577 18.954 2.63649 18.954 2.46507ZM15.7795 2.32848C15.6937 2.17849 15.7446 1.98832 15.8947 1.90261C16.0447 1.81691 16.2349 1.8678 16.3206 2.01778L16.8966 3.01682C16.9823 3.16681 16.9314 3.35697 16.7814 3.44268C16.7331 3.47215 16.6796 3.48554 16.626 3.48554C16.5188 3.48554 16.4144 3.42929 16.3554 3.33019L15.7795 2.32848ZM13.422 4.37208C13.5078 4.22209 13.698 4.1712 13.848 4.25691L14.8472 4.83276C14.9972 4.91847 15.0481 5.10864 14.9624 5.25862C14.9035 5.35772 14.799 5.41397 14.6918 5.41397C14.6383 5.41397 14.5847 5.40058 14.5365 5.37112L13.5372 4.79526C13.3872 4.71224 13.3363 4.52207 13.422 4.37208ZM21.6382 3.01682L22.2142 2.01778C22.2999 1.8678 22.4901 1.81691 22.6401 1.90261C22.7901 1.98832 22.841 2.17849 22.7553 2.32848L22.1793 3.32751C22.1204 3.42661 22.0159 3.48286 21.9088 3.48286C21.8552 3.48286 21.8016 3.46947 21.7534 3.44C21.6034 3.35697 21.5525 3.16681 21.6382 3.01682ZM24.9975 4.79794L23.9983 5.3738C23.9501 5.40326 23.8965 5.41665 23.8429 5.41665C23.7358 5.41665 23.6313 5.3604 23.5724 5.2613C23.4866 5.11131 23.5375 4.92115 23.6876 4.83544L24.6868 4.25959C24.8368 4.17388 25.027 4.22477 25.1127 4.37476C25.1958 4.52207 25.1449 4.71224 24.9975 4.79794ZM15.6348 14.4642C15.7473 14.5955 15.7312 14.791 15.6 14.9035C15.541 14.9544 15.4687 14.9785 15.3991 14.9785C15.3107 14.9785 15.2223 14.941 15.1606 14.8687C14.0676 13.583 12.4764 12.8465 10.7914 12.8465C9.10634 12.8465 7.51507 13.583 6.42208 14.8687C6.30957 14.9999 6.11401 15.016 5.98274 14.9035C5.85148 14.791 5.8354 14.5955 5.94792 14.4642C7.15878 13.0393 8.92417 12.2224 10.7914 12.2224C12.6585 12.2224 14.4239 13.042 15.6348 14.4642ZM14.365 15.5409C14.4775 15.6722 14.4614 15.8677 14.3302 15.9802C14.2712 16.0311 14.1989 16.0552 14.1293 16.0552C14.0409 16.0552 13.9525 16.0177 13.8908 15.9454C13.1166 15.032 11.9861 14.5098 10.7914 14.5098C9.59657 14.5098 8.46608 15.032 7.69188 15.9454C7.57936 16.0766 7.38381 16.0927 7.25254 15.9802C7.12127 15.8677 7.1052 15.6722 7.21771 15.5409C8.10979 14.4883 9.41441 13.8857 10.794 13.8857C12.1683 13.8857 13.4729 14.491 14.365 15.5409ZM13.0979 16.6176C13.2104 16.7489 13.1943 16.9444 13.0631 17.0569C13.0041 17.1078 12.9318 17.1319 12.8621 17.1319C12.7737 17.1319 12.6853 17.0944 12.6237 17.0221C12.1656 16.4837 11.4986 16.173 10.7914 16.173C10.0841 16.173 9.41709 16.481 8.959 17.0221C8.84648 17.1533 8.65092 17.1694 8.51966 17.0569C8.38839 16.9444 8.37232 16.7489 8.48483 16.6176C9.06079 15.94 9.90197 15.549 10.7914 15.549C11.6808 15.549 12.5219 15.94 13.0979 16.6176Z" stroke="url(#paint1_linear_447_2461)" stroke-width="0.4" mask="url(#path-1-outside-1_447_2461)"/>
<defs>
<linearGradient id="paint0_linear_447_2461" x1="13.0763" y1="1" x2="13.0763" y2="26" gradientUnits="userSpaceOnUse">
<stop stop-color="#63388B"/>
<stop offset="1" stop-color="#3974AD"/>
</linearGradient>
<linearGradient id="paint1_linear_447_2461" x1="13.0763" y1="1" x2="13.0763" y2="26" gradientUnits="userSpaceOnUse">
<stop stop-color="#4F549B"/>
<stop offset="1" stop-color="#4465A4"/>
</linearGradient>
</defs>
</svg>
