<svg width="22" height="25" viewBox="0 0 22 25" fill="none" xmlns="http://www.w3.org/2000/svg">
<path d="M6.41722 1.82522C6.41722 1.60876 6.59394 1.43309 6.8117 1.43309H8.90722C9.12498 1.43309 9.3017 1.60876 9.3017 1.82522C9.3017 2.04168 9.12498 2.21735 8.90722 2.21735H6.8117C6.59394 2.21735 6.41722 2.04196 6.41722 1.82522ZM9.77324 22.3728C9.77324 22.973 9.28188 23.4615 8.67802 23.4615H7.04119C6.43732 23.4615 5.94597 22.973 5.94597 22.3728C5.94597 21.7725 6.43732 21.2841 7.04119 21.2841H8.67802C9.28188 21.2841 9.77324 21.7725 9.77324 22.3728ZM8.984 22.3728C8.984 22.2049 8.84664 22.0686 8.67774 22.0686H7.04091C6.872 22.0686 6.73493 22.2051 6.73493 22.3728C6.73493 22.5407 6.87228 22.6769 7.04091 22.6769H8.67774C8.84664 22.6769 8.984 22.5404 8.984 22.3728ZM1.97268 8.10596V5.5714C1.97268 5.16124 2.30826 4.82766 2.72088 4.82766H5.19441C5.60704 4.82766 5.94262 5.16124 5.94262 5.5714V8.10596C5.94262 8.51612 5.60704 8.8497 5.19441 8.8497H2.72088C2.30826 8.8497 1.97268 8.51612 1.97268 8.10596ZM2.76164 8.06544H5.15393V5.61164H2.76164V8.06544ZM21.6102 15.7104V17.6647C21.6102 17.8812 21.4335 18.0568 21.2157 18.0568H20.5429C20.4195 18.5236 20.2338 18.969 19.9884 19.3867L20.4644 19.8599C20.5384 19.9334 20.58 20.033 20.58 20.1371C20.58 20.2412 20.5384 20.3408 20.4644 20.4143L19.0741 21.7964C18.92 21.9495 18.6701 21.9495 18.5163 21.7964L18.0403 21.3232C17.6201 21.5671 17.1723 21.7517 16.7025 21.8743V22.5432C16.7025 22.7596 16.5258 22.9353 16.308 22.9353H15.7195V23.2872C15.7195 24.2316 14.8981 25 13.8883 25H1.83114C0.821346 25 0 24.2316 0 23.2872V1.71283C0 0.768441 0.821346 0 1.83114 0H13.8883C14.8981 0 15.7195 0.768441 15.7195 1.71283V10.4396H16.308C16.5258 10.4396 16.7025 10.6153 16.7025 10.8317V11.5005C17.1721 11.6232 17.6201 11.8077 18.0403 12.0517L18.5163 11.5785C18.5903 11.505 18.6905 11.4636 18.7952 11.4636C18.8999 11.4636 19.0001 11.505 19.0741 11.5785L20.4644 12.9605C20.6185 13.1137 20.6185 13.3621 20.4644 13.515L19.9884 13.9882C20.2338 14.4058 20.4195 14.851 20.5429 15.318H21.2157C21.4335 15.3183 21.6102 15.4937 21.6102 15.7104ZM14.9302 10.4396V3.651H0.788961V19.7452H10.3006L10.661 19.387C10.4156 18.9693 10.23 18.5242 10.1066 18.0571H9.43375C9.21599 18.0571 9.03927 17.8814 9.03927 17.665V15.7107C9.03927 15.4943 9.21599 15.3186 9.43375 15.3186H10.1066C10.23 14.8518 10.4156 14.4064 10.661 13.9887L10.185 13.5156C10.0309 13.3624 10.0309 13.114 10.185 12.9611L11.5753 11.5791C11.7294 11.4259 11.9793 11.4259 12.1331 11.5791L12.6091 12.0522C13.0293 11.8083 13.4771 11.6237 13.947 11.5011V10.8323C13.947 10.6158 14.1237 10.4401 14.3415 10.4401H14.9302V10.4396ZM0.788961 1.71283V2.86646H14.9302V1.71283C14.9302 1.20081 14.4629 0.784259 13.8881 0.784259H1.83114C1.25659 0.784259 0.788961 1.20081 0.788961 1.71283ZM14.9302 22.9356H14.3417C14.124 22.9356 13.9473 22.7599 13.9473 22.5434V21.8746C13.4777 21.752 13.0296 21.5674 12.6094 21.3235L12.1334 21.7966C12.0594 21.8702 11.9592 21.9115 11.8545 21.9115C11.7498 21.9115 11.6496 21.8702 11.5756 21.7966L10.3009 20.5295H0.78924V23.2875C0.78924 23.7995 1.25659 24.216 1.83142 24.216H13.8886C14.4632 24.216 14.9308 23.7995 14.9308 23.2875V22.9356H14.9302ZM20.8212 16.1026H20.2293C20.0412 16.1026 19.8793 15.9705 19.8424 15.787C19.7246 15.1995 19.4948 14.6487 19.1595 14.1491C19.0551 13.9935 19.0758 13.7864 19.2087 13.654L19.6274 13.2378L18.7952 12.4105L18.3762 12.8268C18.2433 12.9591 18.0347 12.9794 17.8781 12.8756C17.3753 12.5423 16.8211 12.3139 16.2304 12.1968C16.0458 12.1602 15.913 11.9992 15.913 11.8122V11.2238H14.7359V11.8122C14.7359 11.9992 14.603 12.1602 14.4185 12.1968C13.8275 12.3139 13.2733 12.5423 12.7708 12.8756C12.6144 12.9794 12.4059 12.9589 12.2727 12.8268L11.854 12.4105L11.0217 13.2378L11.4405 13.6543C11.5737 13.7864 11.594 13.9937 11.4896 14.1494C11.1541 14.6492 10.9243 15.2001 10.8068 15.7873C10.7699 15.9707 10.608 16.1028 10.4198 16.1028H9.82796V17.2729H10.4198C10.608 17.2729 10.7699 17.405 10.8068 17.5884C10.9246 18.1759 11.1543 18.7268 11.4896 19.2263C11.594 19.3817 11.5734 19.589 11.4405 19.7214L11.0217 20.1376L11.854 20.9649L12.2727 20.5486C12.4056 20.4163 12.6142 20.396 12.7708 20.4998C13.2733 20.8331 13.8278 21.0615 14.4185 21.1786C14.603 21.2152 14.7359 21.3762 14.7359 21.5632V22.1516H15.913V21.5632C15.913 21.3762 16.0458 21.2152 16.2304 21.1786C16.8214 21.0615 17.3756 20.8331 17.8781 20.4998C18.0347 20.396 18.243 20.4165 18.3762 20.5486L18.7949 20.9649L19.6272 20.1376L19.2084 19.7214C19.0752 19.5893 19.0548 19.382 19.1593 19.2263C19.4945 18.7268 19.7243 18.1756 19.8421 17.5884C19.879 17.405 20.0409 17.2729 20.2291 17.2729H20.8209L20.8212 16.1026ZM18.9761 16.6876C18.9761 18.689 17.3382 20.3172 15.3247 20.3172C13.3113 20.3172 11.6733 18.689 11.6733 16.6876C11.6733 14.6861 13.3113 13.0579 15.3247 13.0579C17.3382 13.0579 18.9761 14.6861 18.9761 16.6876ZM18.1872 16.6876C18.1872 15.1185 16.9032 13.8422 15.3247 13.8422C13.7462 13.8422 12.4623 15.1185 12.4623 16.6876C12.4623 18.2566 13.7462 19.5329 15.3247 19.5329C16.9032 19.5329 18.1872 18.2566 18.1872 16.6876ZM13.7113 16.6876L14.2703 16.1245C14.4233 15.9702 14.4216 15.7221 14.2666 15.57C14.1117 15.4179 13.8618 15.4196 13.7088 15.5736L12.8766 16.412C12.725 16.5646 12.725 16.8102 12.8766 16.9629L13.7088 17.8012C13.7862 17.8789 13.8878 17.9181 13.9897 17.9181C14.0896 17.9181 14.1899 17.8803 14.2666 17.8051C14.4219 17.653 14.4233 17.4047 14.2703 17.2507L13.7113 16.6876ZM15.7371 15.1579C15.5266 15.1021 15.3102 15.2259 15.2538 15.4351L14.6332 17.7371C14.5768 17.9464 14.7016 18.1615 14.9121 18.2175C14.9464 18.2267 14.9808 18.2308 15.0146 18.2308C15.1888 18.2308 15.3482 18.1154 15.3954 17.94L16.016 15.638C16.0726 15.429 15.9476 15.214 15.7371 15.1579ZM16.3834 15.57C16.2281 15.7221 16.2265 15.9705 16.3797 16.1245L16.9387 16.6876L16.3797 17.2507C16.2268 17.4047 16.2284 17.653 16.3834 17.8051C16.4601 17.8806 16.5604 17.9181 16.6603 17.9181C16.7622 17.9181 16.8638 17.8792 16.9412 17.8012L17.7734 16.9629C17.925 16.8102 17.925 16.5646 17.7734 16.412L16.9412 15.5736C16.7882 15.4196 16.5383 15.4179 16.3834 15.57ZM2.36716 15.8045H5.4186C5.63636 15.8045 5.81308 15.6288 5.81308 15.4124C5.81308 15.1959 5.63636 15.0203 5.4186 15.0203H2.36716C2.1494 15.0203 1.97268 15.1959 1.97268 15.4124C1.97268 15.6288 2.14912 15.8045 2.36716 15.8045ZM2.36716 10.852H6.37841C6.59617 10.852 6.77289 10.6763 6.77289 10.4598C6.77289 10.2434 6.59617 10.0677 6.37841 10.0677H2.36716C2.1494 10.0677 1.97268 10.2434 1.97268 10.4598C1.97268 10.6763 2.14912 10.852 2.36716 10.852ZM2.36716 13.3282H3.10587C3.32363 13.3282 3.50035 13.1526 3.50035 12.9361C3.50035 12.7197 3.32363 12.544 3.10587 12.544H2.36716C2.1494 12.544 1.97268 12.7197 1.97268 12.9361C1.97268 13.1526 2.14912 13.3282 2.36716 13.3282ZM7.7919 8.3757H10.697C10.9148 8.3757 11.0915 8.20003 11.0915 7.98357C11.0915 7.76711 10.9148 7.59144 10.697 7.59144H7.7919C7.57414 7.59144 7.39742 7.76711 7.39742 7.98357C7.39742 8.20031 7.57386 8.3757 7.7919 8.3757ZM7.7919 5.89943H8.89578C9.11354 5.89943 9.29026 5.72376 9.29026 5.5073C9.29026 5.29084 9.11354 5.11517 8.89578 5.11517H7.7919C7.57414 5.11517 7.39742 5.29084 7.39742 5.5073C7.39742 5.72376 7.57386 5.89943 7.7919 5.89943ZM8.84161 12.544H4.78039C4.56263 12.544 4.38591 12.7197 4.38591 12.9361C4.38591 13.1526 4.56263 13.3282 4.78039 13.3282H8.84161C9.05937 13.3282 9.2361 13.1526 9.2361 12.9361C9.2361 12.7197 9.05965 12.544 8.84161 12.544ZM3.20386 17.4965H2.36716C2.1494 17.4965 1.97268 17.6722 1.97268 17.8887C1.97268 18.1051 2.1494 18.2808 2.36716 18.2808H3.20386C3.42162 18.2808 3.59835 18.1051 3.59835 17.8887C3.59835 17.6722 3.4219 17.4965 3.20386 17.4965ZM13.3523 7.59144H12.4411C12.2233 7.59144 12.0466 7.76711 12.0466 7.98357C12.0466 8.20003 12.2233 8.3757 12.4411 8.3757H13.3523C13.5701 8.3757 13.7468 8.20003 13.7468 7.98357C13.7468 7.76711 13.5701 7.59144 13.3523 7.59144ZM13.3523 5.11517H11.0413C10.8235 5.11517 10.6468 5.29084 10.6468 5.5073C10.6468 5.72376 10.8235 5.89943 11.0413 5.89943H13.3523C13.5701 5.89943 13.7468 5.72376 13.7468 5.5073C13.7468 5.29084 13.5701 5.11517 13.3523 5.11517ZM13.3523 10.0677H12.7465C12.5287 10.0677 12.352 10.2434 12.352 10.4598C12.352 10.6763 12.5287 10.852 12.7465 10.852H13.3523C13.5701 10.852 13.7468 10.6763 13.7468 10.4598C13.7468 10.2434 13.5701 10.0677 13.3523 10.0677ZM7.9273 17.4965H5.23462C5.01686 17.4965 4.84014 17.6722 4.84014 17.8887C4.84014 18.1051 5.01686 18.2808 5.23462 18.2808H7.9273C8.14506 18.2808 8.32178 18.1051 8.32178 17.8887C8.32178 17.6722 8.14534 17.4965 7.9273 17.4965ZM7.9273 15.0203H7.16263C6.94487 15.0203 6.76815 15.1959 6.76815 15.4124C6.76815 15.6288 6.94487 15.8045 7.16263 15.8045H7.9273C8.14506 15.8045 8.32178 15.6288 8.32178 15.4124C8.32178 15.1959 8.14534 15.0203 7.9273 15.0203ZM11.3849 10.0677H8.86814C8.65038 10.0677 8.47366 10.2434 8.47366 10.4598C8.47366 10.6763 8.65038 10.852 8.86814 10.852H11.3849C11.6027 10.852 11.7794 10.6763 11.7794 10.4598C11.7794 10.2434 11.603 10.0677 11.3849 10.0677Z" fill="url(#paint0_linear_447_2441)"/>
<defs>
<linearGradient id="paint0_linear_447_2441" x1="10.8051" y1="0" x2="10.8051" y2="25" gradientUnits="userSpaceOnUse">
<stop stop-color="#63388B"/>
<stop offset="1" stop-color="#347BB0"/>
</linearGradient>
</defs>
</svg>
