<svg width="27" height="25" viewBox="0 0 27 25" fill="none" xmlns="http://www.w3.org/2000/svg">
<path d="M26.8516 4.19525C26.8504 4.17566 26.848 4.15607 26.8443 4.13771C26.8443 4.13526 26.8443 4.13281 26.8431 4.13036C26.8274 4.03852 26.7779 3.95526 26.7042 3.89894L21.5866 0.0725477C21.4585 -0.0241826 21.2845 -0.0241826 21.1564 0.0725477L16.2406 3.74848L14.9573 2.77995C14.8292 2.68322 14.6527 2.68322 14.5247 2.77995L11.6499 4.94968V3.50849V3.5036V3.49992C11.6487 3.48401 11.6475 3.46809 11.6451 3.45339C11.6438 3.44727 11.6438 3.43992 11.6426 3.43258C11.6257 3.34197 11.5762 3.25993 11.5025 3.20483L7.31418 0.0726888C7.18609 -0.0240415 7.01209 -0.0240415 6.884 0.0726888L2.69573 3.20483C2.62201 3.25993 2.57247 3.34197 2.55676 3.43258C2.55555 3.4387 2.55555 3.44605 2.55434 3.45339C2.55072 3.46809 2.54951 3.484 2.5483 3.49992V3.5036V3.50849V8.5837C2.5483 8.70003 2.60268 8.81023 2.69572 8.88002L6.89978 12.0293L6.89857 12.0281C6.9614 12.0746 7.03633 12.1004 7.11487 12.1004H7.1185H7.12212H7.12091C7.19825 12.1004 7.27438 12.0746 7.33722 12.0269L10.8814 9.34902L13.384 11.2383C13.0154 12.0489 13.2982 13.0101 14.0438 13.4852L10.5407 16.1055C10.4682 16.1606 10.4187 16.2414 10.4017 16.3333C10.4005 16.3394 10.4005 16.3467 10.3993 16.3541V16.3529C10.3969 16.3688 10.3945 16.3847 10.3945 16.4006V16.4043V16.4092V20.9581V20.9569C9.80723 20.7463 9.15469 20.8675 8.68098 21.2752L7.66595 20.5099C7.75658 20.4402 7.80974 20.3324 7.80974 20.2173V15.9245V15.9208V15.9171C7.80853 15.9037 7.80733 15.8914 7.80491 15.878C7.8037 15.8682 7.8037 15.8571 7.80128 15.8473C7.78437 15.758 7.73482 15.6771 7.66232 15.622L4.12058 12.9723C3.99249 12.8768 3.81727 12.8768 3.6904 12.9723L0.147425 15.622C0.0749225 15.6771 0.0253772 15.758 0.00845891 15.8473C0.00604197 15.8571 0.0060419 15.8669 0.00483358 15.878C0.00241664 15.8914 0.00120832 15.9037 0 15.9171V15.9208V15.9245V20.2173C0 20.3336 0.055587 20.4426 0.147423 20.5124L3.70246 23.1756C3.7653 23.2221 3.84022 23.2478 3.91756 23.2478H3.9236C4.00094 23.2478 4.07706 23.2221 4.1399 23.1744L7.05938 20.9679L8.23395 21.8544C7.9971 22.3429 7.99348 22.9135 8.22428 23.4045C8.45388 23.8955 8.89375 24.2543 9.41577 24.3767C9.93901 24.4992 10.4888 24.3743 10.9081 24.0351C11.3287 23.6972 11.5739 23.1829 11.5727 22.6393C11.5727 22.6087 11.5703 22.5793 11.5679 22.5499L14.7437 24.929H14.7449C14.8065 24.9755 14.8827 25 14.96 25H14.9636H14.9672H14.966C15.0446 25 15.1207 24.9755 15.1835 24.9278L19.3502 21.7784C19.442 21.7099 19.4952 21.6009 19.4952 21.4846V16.4094V16.4045V16.4008C19.4952 16.3849 19.4928 16.3689 19.4903 16.353C19.4891 16.3469 19.4891 16.3396 19.4879 16.3322V16.3334C19.471 16.2416 19.4215 16.1608 19.349 16.1045L15.8808 13.5111C16.6337 13.0629 16.9454 12.1213 16.6131 11.3034L16.7291 11.2177L21.176 14.5482L21.1748 14.5494C21.2365 14.596 21.3126 14.6204 21.3899 14.6204H21.3935H21.3972H21.3984C21.4757 14.6204 21.5518 14.5947 21.6147 14.5482L26.7056 10.7011C26.7975 10.6313 26.8519 10.5223 26.8519 10.406V4.2055V4.2006C26.8506 4.19815 26.8519 4.19693 26.8519 4.1957L26.8516 4.19525ZM3.55483 22.1517L0.724776 20.0322V16.6453L3.55483 18.7624V22.1517ZM3.90405 18.1097L0.973678 15.9167L3.90526 13.7237L6.83683 15.9167L3.90405 18.1097ZM7.08447 20.0321L7.05909 20.0517L6.78237 19.8423C6.989 19.3145 6.7872 18.7133 6.30625 18.4219C5.82651 18.1305 5.20781 18.2358 4.84649 18.6693C4.48638 19.1027 4.48759 19.7382 4.85254 20.1692C5.21627 20.599 5.83497 20.6994 6.3135 20.4043L6.45246 20.5096L4.28581 22.148V18.7378L7.08446 16.6452L7.08447 20.0321ZM6.13709 19.4211C6.13709 19.59 6.03679 19.7419 5.88211 19.8068C5.72865 19.8717 5.55102 19.8362 5.4326 19.7162C5.31538 19.5962 5.27913 19.4174 5.34318 19.2607C5.40722 19.104 5.55827 19.0023 5.72504 19.0023C5.95222 19.0036 6.13709 19.1897 6.13709 19.4211ZM9.81308 23.687V23.6882C9.39376 23.6882 9.01555 23.4323 8.85602 23.0405C8.6953 22.6486 8.78472 22.1968 9.08078 21.8968C9.37683 21.5969 9.82151 21.5075 10.2082 21.6691C10.5961 21.8319 10.8474 22.214 10.8474 22.6389C10.8474 23.218 10.3846 23.687 9.81183 23.6882L9.81308 23.687ZM6.75223 11.0041L3.27329 8.39849V4.22792L6.75223 6.82865V11.0041ZM7.10024 6.17622L3.52108 3.49956L7.09901 0.822908L10.6769 3.49956L7.10024 6.17622ZM10.926 8.39983L7.48322 11.0006V6.80179L10.9247 4.22801L10.926 8.39983ZM11.4891 8.89083L11.5048 8.87859H11.5036C11.5954 8.8088 11.6498 8.69982 11.6498 8.5835V5.86521L14.7409 3.53264L15.8913 4.40077V10.4054C15.8925 10.4225 15.8949 10.4397 15.8973 10.4568C15.2387 10.0466 14.3917 10.1238 13.8165 10.6478L11.4891 8.89083ZM14.5983 23.9049L11.6571 21.7009L12.1803 21.3164H12.1791C12.6589 21.6017 13.2727 21.4927 13.6292 21.0593C13.9857 20.6258 13.9784 19.994 13.6147 19.5679C13.2498 19.1418 12.6335 19.045 12.1598 19.3401C11.6849 19.6365 11.4916 20.2365 11.703 20.758L11.1194 21.1878V17.1276L14.5971 19.7296L14.5983 23.9049ZM12.3435 20.3246V20.3233C12.3435 20.1544 12.4438 20.0025 12.5972 19.9376C12.7519 19.8727 12.9295 19.9082 13.0467 20.0282C13.1652 20.1482 13.2002 20.3282 13.1362 20.4837C13.0721 20.6404 12.9223 20.7421 12.7555 20.7421C12.5271 20.7421 12.3435 20.5547 12.3422 20.3233L12.3435 20.3246ZM18.7708 21.3004L15.3281 23.9V19.7024L18.7696 17.1287L18.7708 21.3004ZM18.5231 16.4014L14.9452 19.0781L11.3672 16.4014L14.6624 13.9366V15.3251L14.6612 15.3239C14.1235 15.4659 13.7658 15.9814 13.8165 16.5422C13.8661 17.103 14.3108 17.545 14.8654 17.5854C15.4189 17.6258 15.9216 17.2536 16.0508 16.705C16.1801 16.1577 15.8998 15.5957 15.3862 15.3765V14.0541L18.5231 16.4014ZM14.9452 16.0206C15.1119 16.0206 15.2617 16.1235 15.3258 16.279C15.3899 16.4357 15.3548 16.6145 15.2364 16.7345C15.118 16.8544 14.9403 16.89 14.7869 16.8251C14.6322 16.7602 14.5319 16.6083 14.5319 16.4393C14.5319 16.2079 14.7168 16.0218 14.9452 16.0206ZM14.9838 13.028C14.5657 13.028 14.1875 12.7721 14.0268 12.3803C13.8673 11.9885 13.9555 11.5367 14.2515 11.2367C14.5476 10.9367 14.9935 10.8473 15.3802 11.0089C15.7668 11.1718 16.0194 11.5538 16.0194 11.9787C16.0182 12.5579 15.5554 13.0268 14.9838 13.028ZM21.0282 13.5264L17.3438 10.7665L18.1668 10.1604V10.1591C18.6658 10.4138 19.2736 10.2657 19.6035 9.80773C19.9334 9.35102 19.8875 8.71796 19.496 8.31391C19.1033 7.90983 18.4809 7.8535 18.0242 8.17922C17.5662 8.50494 17.4091 9.1196 17.6532 9.62897L16.7324 10.3061L16.6176 10.2204L16.6164 4.92231L21.0271 8.22084L21.0282 13.5264ZM18.2646 9.1317V9.12925C18.2646 8.96027 18.3649 8.80845 18.5183 8.74354C18.673 8.67864 18.8506 8.71537 18.9678 8.83414C19.0863 8.95414 19.1213 9.13413 19.0573 9.28963C18.9932 9.44636 18.8434 9.54799 18.6766 9.54799C18.4482 9.54799 18.2646 9.36065 18.2634 9.13046L18.2646 9.1317ZM21.3714 7.56562L16.8641 4.19469L21.3714 0.823754L25.8773 4.19469L21.3714 7.56562ZM26.1264 10.2215L21.7605 13.52V8.18743L26.1264 4.92182V10.2215Z" fill="url(#paint0_linear_447_2466)"/>
<defs>
<linearGradient id="paint0_linear_447_2466" x1="13.4259" y1="0" x2="13.4259" y2="25" gradientUnits="userSpaceOnUse">
<stop stop-color="#5F3E8E"/>
<stop offset="1" stop-color="#3A73AC"/>
</linearGradient>
</defs>
</svg>
