<svg width="25" height="25" viewBox="0 0 25 25" fill="none" xmlns="http://www.w3.org/2000/svg">
<path d="M7.91508 24.5785V17.4967H8.74824V24.162H19.9959C20.5482 24.1613 21.0776 23.9416 21.468 23.5512C21.8585 23.1607 22.0782 22.6313 22.0788 22.0791V20.9443H21.9164C21.4074 20.9457 20.9032 20.8461 20.433 20.6513C19.9627 20.4566 19.5358 20.1704 19.1769 19.8095L19.766 19.2205C20.0477 19.5038 20.3828 19.7283 20.752 19.8812C21.1211 20.0341 21.5169 20.1122 21.9164 20.1111H22.0788V17.9132C22.0788 17.8028 22.1227 17.6968 22.2009 17.6187C22.279 17.5406 22.3849 17.4967 22.4954 17.4967H24.0572L22.56 10.8676C22.2781 9.59631 21.6446 8.42979 20.7319 7.50101C19.8192 6.57224 18.6639 5.91857 17.3977 5.61452L17.5952 4.80469C19.0123 5.14505 20.3052 5.87665 21.3267 6.91611C22.3482 7.95558 23.0571 9.2611 23.3727 10.6839L24.9849 17.8216C24.9987 17.8826 24.9985 17.9459 24.9845 18.0068C24.9704 18.0677 24.9429 18.1247 24.9038 18.1735C24.8648 18.2223 24.8152 18.2617 24.7589 18.2888C24.7026 18.3158 24.6408 18.3299 24.5783 18.3298H22.912V22.0791C22.9111 22.8522 22.6036 23.5934 22.0569 24.1401C21.5103 24.6867 20.7691 24.9942 19.9959 24.9951H8.33166C8.22118 24.9951 8.11522 24.9512 8.03709 24.8731C7.95897 24.795 7.91508 24.689 7.91508 24.5785Z" fill="url(#paint0_linear_447_2471)"/>
<path d="M18.7967 13.0215C19.1461 13.0216 19.4876 13.1253 19.7781 13.3194C20.0686 13.5136 20.295 13.7896 20.4286 14.1124C20.5623 14.4352 20.5972 14.7904 20.529 15.1331C20.4608 15.4758 20.2925 15.7906 20.0454 16.0376C19.7983 16.2847 19.4835 16.4529 19.1408 16.521C18.7981 16.5891 18.4429 16.5541 18.1201 16.4204C17.7973 16.2867 17.5214 16.0602 17.3273 15.7697C17.1332 15.4792 17.0295 15.1376 17.0295 14.7882C17.0301 14.3197 17.2165 13.8706 17.5478 13.5394C17.8791 13.2082 18.3282 13.0219 18.7967 13.0215ZM18.7967 15.7218C18.9813 15.7217 19.1618 15.6669 19.3152 15.5642C19.4687 15.4616 19.5883 15.3158 19.6589 15.1452C19.7295 14.9746 19.7479 14.7869 19.7118 14.6058C19.6758 14.4248 19.5868 14.2585 19.4562 14.1279C19.3257 13.9974 19.1593 13.9085 18.9782 13.8726C18.7972 13.8366 18.6095 13.8551 18.4389 13.9258C18.2684 13.9964 18.1226 14.1161 18.02 14.2696C17.9174 14.4231 17.8627 14.6036 17.8627 14.7882C17.863 15.0358 17.9616 15.2731 18.1367 15.4481C18.3117 15.6231 18.5491 15.7215 18.7967 15.7218Z" fill="url(#paint1_linear_447_2471)"/>
<path d="M1.66616 2.5V3.33316C1.44519 3.33316 1.23328 3.42094 1.07703 3.57719C0.920778 3.73344 0.833 3.94536 0.833 4.16632V11.2482H15.8299V4.16632C15.8299 3.94536 15.7421 3.73344 15.5859 3.57719C15.4296 3.42094 15.2177 3.33316 14.9968 3.33316V2.5C15.4387 2.5 15.8625 2.67556 16.175 2.98806C16.4875 3.30055 16.6631 3.72439 16.6631 4.16632V12.4979C16.6631 12.9399 16.4875 13.3637 16.175 13.6762C15.8625 13.9887 15.4387 14.1643 14.9968 14.1643H14.2994L14.9809 16.5492C15.0053 16.6337 15.0022 16.7238 14.9722 16.8065C14.9421 16.8892 14.8867 16.9603 14.8138 17.0095C14.7409 17.0588 14.6543 17.0837 14.5664 17.0807C14.4785 17.0777 14.3938 17.047 14.3244 16.9929L10.6881 14.1643H10.159L10.7143 15.8306H11.6641V16.6638H4.99881V15.8306H5.94862L6.50392 14.1643H1.66616C1.22423 14.1643 0.800389 13.9887 0.487892 13.6762C0.175396 13.3637 -0.000162125 12.9399 -0.000162125 12.4979V4.16632C-0.000162125 3.72439 0.175396 3.30055 0.487892 2.98806C0.800389 2.67556 1.22423 2.5 1.66616 2.5ZM9.83615 15.8306L9.28085 14.1643H7.38207L6.82677 15.8306H9.83615ZM0.833 12.4979C0.833 12.7189 0.920778 12.9308 1.07703 13.0871C1.23328 13.2433 1.44519 13.3311 1.66616 13.3311H10.8309C10.9236 13.331 11.0136 13.3618 11.0867 13.4186L13.8303 15.5519L13.3475 13.8623C13.3298 13.8003 13.3267 13.7351 13.3384 13.6718C13.3502 13.6085 13.3764 13.5488 13.4151 13.4973C13.4538 13.4458 13.5039 13.404 13.5615 13.3752C13.6191 13.3464 13.6826 13.3313 13.747 13.3311H14.9968C15.2177 13.3311 15.4296 13.2433 15.5859 13.0871C15.7421 12.9308 15.8299 12.7189 15.8299 12.4979V12.0814H0.833V12.4979Z" fill="url(#paint2_linear_447_2471)"/>
<path d="M14.1636 10.4145H13.3304V2.49949H4.99879V10.4145H4.16563V2.08291C4.16563 1.97242 4.20952 1.86646 4.28764 1.78834C4.36576 1.71021 4.47172 1.66632 4.58221 1.66632H11.6641V0.833162H3.33246V10.4145H2.4993V0.416581C2.4993 0.306097 2.54319 0.200138 2.62132 0.122014C2.69944 0.0438897 2.8054 0 2.91588 0H12.0807C12.1912 0 12.2971 0.0438897 12.3752 0.122014C12.4534 0.200138 12.4972 0.306097 12.4972 0.416581V1.66632H13.747C13.8575 1.66632 13.9634 1.71021 14.0416 1.78834C14.1197 1.86646 14.1636 1.97242 14.1636 2.08291V10.4145Z" fill="url(#paint3_linear_447_2471)"/>
<path d="M12.4976 10.4147H5.83226V9.99815V9.58157V5.41576H6.66542V9.58157H7.49858V6.24892H8.33175V9.58157H9.16491V4.16602H9.99807V9.58157H10.8312V7.08208H11.6644V9.58157H12.4976V10.4147Z" fill="url(#paint4_linear_447_2471)"/>
<path d="M11.6642 3.33301H12.4976V4.16634H11.6642V3.33301Z" fill="url(#paint5_linear_447_2471)"/>
<path d="M0.833032 22.5719V19.1626C0.833056 19.0522 0.876961 18.9462 0.955091 18.8681L2.49936 17.3238V14.9968H3.33252V17.4963C3.3325 17.6068 3.28859 17.7127 3.21046 17.7908L1.66619 19.3351V22.5719C1.94414 22.6702 2.1784 22.8636 2.32757 23.1179C2.47674 23.3721 2.53121 23.671 2.48136 23.9615C2.43151 24.2521 2.28054 24.5157 2.05514 24.7057C1.82974 24.8957 1.54442 25 1.24961 25C0.954804 25 0.669487 24.8957 0.444088 24.7057C0.218689 24.5157 0.0677214 24.2521 0.0178685 23.9615C-0.0319843 23.671 0.0224869 23.3721 0.171655 23.1179C0.320823 22.8636 0.555084 22.6702 0.833032 22.5719ZM1.24961 24.1616C1.33201 24.1616 1.41255 24.1372 1.48105 24.0914C1.54956 24.0456 1.60295 23.9806 1.63448 23.9044C1.66601 23.8283 1.67426 23.7446 1.65819 23.6638C1.64212 23.583 1.60244 23.5087 1.54418 23.4505C1.48592 23.3922 1.41169 23.3525 1.33088 23.3365C1.25008 23.3204 1.16632 23.3286 1.0902 23.3602C1.01407 23.3917 0.949013 23.4451 0.903239 23.5136C0.857464 23.5821 0.833032 23.6626 0.833032 23.745C0.833032 23.8555 0.876922 23.9615 0.955046 24.0396C1.03317 24.1177 1.13913 24.1616 1.24961 24.1616Z" fill="url(#paint6_linear_447_2471)"/>
<path d="M5.41586 17.9131V21.3224C5.69381 21.4207 5.92807 21.614 6.07724 21.8683C6.2264 22.1226 6.28088 22.4214 6.23102 22.712C6.18117 23.0026 6.0302 23.2661 5.8048 23.4562C5.5794 23.6462 5.29409 23.7504 4.99928 23.7504C4.70447 23.7504 4.41915 23.6462 4.19375 23.4562C3.96835 23.2661 3.81739 23.0026 3.76753 22.712C3.71768 22.4214 3.77215 22.1226 3.92132 21.8683C4.07049 21.614 4.30475 21.4207 4.5827 21.3224V17.9131H5.41586ZM4.99928 22.9121C5.08167 22.9121 5.16221 22.8876 5.23072 22.8419C5.29922 22.7961 5.35262 22.731 5.38415 22.6549C5.41568 22.5788 5.42393 22.495 5.40785 22.4142C5.39178 22.3334 5.35211 22.2592 5.29385 22.2009C5.23559 22.1427 5.16136 22.103 5.08055 22.0869C4.99974 22.0708 4.91598 22.0791 4.83986 22.1106C4.76374 22.1421 4.69868 22.1955 4.6529 22.264C4.60713 22.3325 4.5827 22.4131 4.5827 22.4955C4.5827 22.606 4.62659 22.7119 4.70471 22.79C4.78283 22.8682 4.88879 22.9121 4.99928 22.9121Z" fill="url(#paint7_linear_447_2471)"/>
<path d="M2.49937 21.2461V19.9961C2.4994 19.8856 2.54331 19.7796 2.62145 19.7015L3.45478 18.8682L4.04395 19.4573L3.3327 20.1686V21.2461H2.49937Z" fill="url(#paint8_linear_447_2471)"/>
<path d="M0.833176 14.9968H1.6665V16.6635H0.833176V14.9968Z" fill="url(#paint9_linear_447_2471)"/>
<path d="M21.6622 2.5002C21.4047 2.49913 21.1537 2.41852 20.9437 2.26938C20.7338 2.12024 20.575 1.90987 20.4891 1.66704H19.7518L18.6241 2.79473C18.546 2.87285 18.44 2.91676 18.3296 2.91678H17.0798V2.08362H18.1571L19.2848 0.955936C19.3629 0.877807 19.4688 0.833901 19.5793 0.833878H20.4891C20.5659 0.618433 20.7004 0.428228 20.8779 0.284046C21.0554 0.139865 21.2692 0.0472549 21.4958 0.0163368C21.7224 -0.0145812 21.9531 0.0173819 22.1628 0.108734C22.3725 0.200085 22.553 0.347311 22.6847 0.534321C22.8163 0.721332 22.894 0.940933 22.9093 1.16913C22.9246 1.39732 22.8769 1.62533 22.7714 1.82823C22.6658 2.03114 22.5066 2.20113 22.311 2.31964C22.1153 2.43815 21.8909 2.50061 21.6622 2.5002ZM21.6622 0.833878C21.5798 0.833878 21.4993 0.85831 21.4308 0.904085C21.3623 0.949859 21.3089 1.01492 21.2774 1.09104C21.2458 1.16716 21.2376 1.25092 21.2536 1.33173C21.2697 1.41254 21.3094 1.48677 21.3677 1.54503C21.4259 1.60329 21.5001 1.64296 21.581 1.65904C21.6618 1.67511 21.7455 1.66686 21.8216 1.63533C21.8978 1.6038 21.9628 1.55041 22.0086 1.4819C22.0544 1.41339 22.0788 1.33285 22.0788 1.25046C22.0788 1.13997 22.0349 1.03402 21.9568 0.955892C21.8787 0.877768 21.7727 0.833878 21.6622 0.833878Z" fill="url(#paint10_linear_447_2471)"/>
<path d="M14.1633 0H16.2466V0.833328H14.1633V0Z" fill="url(#paint11_linear_447_2471)"/>
<path d="M23.7452 5.83249C23.4877 5.83143 23.2367 5.75081 23.0268 5.60167C22.8168 5.45253 22.658 5.24216 22.5721 4.99933H21.2457C21.1353 4.99931 21.0293 4.9554 20.9512 4.87727L20.2401 4.16617H19.1628V3.33301H20.4126C20.5231 3.33303 20.629 3.37694 20.7071 3.45507L21.4182 4.16617H22.5721C22.6489 3.95073 22.7834 3.76052 22.9609 3.61634C23.1384 3.47216 23.3522 3.37955 23.5788 3.34863C23.8054 3.31771 24.0361 3.34967 24.2458 3.44103C24.4555 3.53238 24.636 3.6796 24.7677 3.86661C24.8993 4.05362 24.977 4.27323 24.9923 4.50142C25.0076 4.72961 24.9599 4.95762 24.8544 5.16052C24.7488 5.36343 24.5896 5.53342 24.394 5.65193C24.1984 5.77044 23.9739 5.8329 23.7452 5.83249ZM23.7452 4.16617C23.6628 4.16617 23.5823 4.1906 23.5138 4.23638C23.4453 4.28215 23.3919 4.34721 23.3604 4.42333C23.3288 4.49945 23.3206 4.58321 23.3367 4.66402C23.3527 4.74483 23.3924 4.81906 23.4507 4.87732C23.5089 4.93558 23.5831 4.97525 23.664 4.99133C23.7448 5.0074 23.8285 4.99915 23.9046 4.96762C23.9808 4.93609 24.0458 4.8827 24.0916 4.81419C24.1374 4.74569 24.1618 4.66514 24.1618 4.58275C24.1618 4.47227 24.1179 4.36631 24.0398 4.28818C23.9617 4.21006 23.8557 4.16617 23.7452 4.16617Z" fill="url(#paint12_linear_447_2471)"/>
<path d="M22.9118 7.08203H23.7451V7.91536H22.9118V7.08203Z" fill="url(#paint13_linear_447_2471)"/>
<path d="M17.0798 0H17.9131V0.833328H17.0798V0Z" fill="url(#paint14_linear_447_2471)"/>
<path d="M24.1618 1.66602H24.9951V2.49934H24.1618V1.66602Z" fill="url(#paint15_linear_447_2471)"/>
<path d="M6.2487 17.4971H7.08203V19.1637H6.2487V17.4971Z" fill="url(#paint16_linear_447_2471)"/>
<path d="M6.2487 19.9961H7.08203V20.8294H6.2487V19.9961Z" fill="url(#paint17_linear_447_2471)"/>
<defs>
<linearGradient id="paint0_linear_447_2471" x1="16.4551" y1="4.80469" x2="16.4551" y2="24.9951" gradientUnits="userSpaceOnUse">
<stop stop-color="#5E3F8F"/>
<stop offset="1" stop-color="#337CB1"/>
</linearGradient>
<linearGradient id="paint1_linear_447_2471" x1="18.7963" y1="13.0215" x2="18.7963" y2="16.5549" gradientUnits="userSpaceOnUse">
<stop stop-color="#5E3F8F"/>
<stop offset="1" stop-color="#337CB1"/>
</linearGradient>
<linearGradient id="paint2_linear_447_2471" x1="8.33146" y1="2.5" x2="8.33146" y2="17.0809" gradientUnits="userSpaceOnUse">
<stop stop-color="#5E3F8F"/>
<stop offset="1" stop-color="#337CB1"/>
</linearGradient>
<linearGradient id="paint3_linear_447_2471" x1="8.33144" y1="0" x2="8.33144" y2="10.4145" gradientUnits="userSpaceOnUse">
<stop stop-color="#5E3F8F"/>
<stop offset="1" stop-color="#337CB1"/>
</linearGradient>
<linearGradient id="paint4_linear_447_2471" x1="9.16491" y1="4.16602" x2="9.16491" y2="10.4147" gradientUnits="userSpaceOnUse">
<stop stop-color="#5E3F8F"/>
<stop offset="1" stop-color="#337CB1"/>
</linearGradient>
<linearGradient id="paint5_linear_447_2471" x1="12.0809" y1="3.33301" x2="12.0809" y2="4.16634" gradientUnits="userSpaceOnUse">
<stop stop-color="#5E3F8F"/>
<stop offset="1" stop-color="#337CB1"/>
</linearGradient>
<linearGradient id="paint6_linear_447_2471" x1="1.66619" y1="14.9968" x2="1.66619" y2="25" gradientUnits="userSpaceOnUse">
<stop stop-color="#5E3F8F"/>
<stop offset="1" stop-color="#337CB1"/>
</linearGradient>
<linearGradient id="paint7_linear_447_2471" x1="4.99928" y1="17.9131" x2="4.99928" y2="23.7504" gradientUnits="userSpaceOnUse">
<stop stop-color="#5E3F8F"/>
<stop offset="1" stop-color="#337CB1"/>
</linearGradient>
<linearGradient id="paint8_linear_447_2471" x1="3.27166" y1="18.8682" x2="3.27166" y2="21.2461" gradientUnits="userSpaceOnUse">
<stop stop-color="#5E3F8F"/>
<stop offset="1" stop-color="#337CB1"/>
</linearGradient>
<linearGradient id="paint9_linear_447_2471" x1="1.24984" y1="14.9968" x2="1.24984" y2="16.6635" gradientUnits="userSpaceOnUse">
<stop stop-color="#5E3F8F"/>
<stop offset="1" stop-color="#337CB1"/>
</linearGradient>
<linearGradient id="paint10_linear_447_2471" x1="19.996" y1="0.00488281" x2="19.996" y2="2.91678" gradientUnits="userSpaceOnUse">
<stop stop-color="#5E3F8F"/>
<stop offset="1" stop-color="#337CB1"/>
</linearGradient>
<linearGradient id="paint11_linear_447_2471" x1="15.2049" y1="0" x2="15.2049" y2="0.833328" gradientUnits="userSpaceOnUse">
<stop stop-color="#5E3F8F"/>
<stop offset="1" stop-color="#337CB1"/>
</linearGradient>
<linearGradient id="paint12_linear_447_2471" x1="22.079" y1="3.33301" x2="22.079" y2="5.8325" gradientUnits="userSpaceOnUse">
<stop stop-color="#5E3F8F"/>
<stop offset="1" stop-color="#337CB1"/>
</linearGradient>
<linearGradient id="paint13_linear_447_2471" x1="23.3285" y1="7.08203" x2="23.3285" y2="7.91536" gradientUnits="userSpaceOnUse">
<stop stop-color="#5E3F8F"/>
<stop offset="1" stop-color="#337CB1"/>
</linearGradient>
<linearGradient id="paint14_linear_447_2471" x1="17.4964" y1="0" x2="17.4964" y2="0.833328" gradientUnits="userSpaceOnUse">
<stop stop-color="#5E3F8F"/>
<stop offset="1" stop-color="#337CB1"/>
</linearGradient>
<linearGradient id="paint15_linear_447_2471" x1="24.5785" y1="1.66602" x2="24.5785" y2="2.49934" gradientUnits="userSpaceOnUse">
<stop stop-color="#5E3F8F"/>
<stop offset="1" stop-color="#337CB1"/>
</linearGradient>
<linearGradient id="paint16_linear_447_2471" x1="6.66537" y1="17.4971" x2="6.66537" y2="19.1637" gradientUnits="userSpaceOnUse">
<stop stop-color="#5E3F8F"/>
<stop offset="1" stop-color="#337CB1"/>
</linearGradient>
<linearGradient id="paint17_linear_447_2471" x1="6.66537" y1="19.9961" x2="6.66537" y2="20.8294" gradientUnits="userSpaceOnUse">
<stop stop-color="#5E3F8F"/>
<stop offset="1" stop-color="#337CB1"/>
</linearGradient>
</defs>
</svg>
