<svg width="30" height="25" viewBox="0 0 30 25" fill="none" xmlns="http://www.w3.org/2000/svg">
<path d="M16.7591 20.6076L17.3295 22.3546H19.4527C19.719 22.3546 19.9351 22.5695 19.9351 22.8344V24.5201C19.9351 24.7851 19.719 25 19.4527 25H7.02153C6.75519 25 6.53911 24.7851 6.53911 24.5201V22.8344C6.53911 22.5695 6.75519 22.3546 7.02153 22.3546H9.14471L9.71507 20.6076H0.482425C0.216084 20.6076 0 20.3927 0 20.1278V5.19343C0 4.92851 0.216084 4.71357 0.482425 4.71357H5.48742C5.90327 3.90633 6.44349 3.17279 7.08167 2.53673C8.65833 0.968473 10.8343 0 13.2364 0C15.6386 0 17.8143 0.969689 19.3886 2.53548C20.0281 3.17155 20.5683 3.90633 20.9854 4.71357H25.9904C26.2567 4.71357 26.4728 4.92851 26.4728 5.19343V16.6549L27.2744 16.7461C27.5382 16.7761 27.7279 17.0135 27.6977 17.2772C27.6839 17.3972 27.6274 17.5009 27.5445 17.5759L26.8887 18.2282L29.7694 21.0936C29.9578 21.281 29.9578 21.5847 29.7694 21.7721L27.7668 23.764C27.5784 23.9515 27.2731 23.9515 27.0846 23.764L24.2052 20.8999L23.5343 21.5672C23.3458 21.7546 23.0406 21.7546 22.8521 21.5672C22.7667 21.4822 22.7202 21.3735 22.7127 21.2635L22.6373 20.6087H16.7578L16.7591 20.6076ZM6.89063 13.0624C7.46224 12.7287 8.12432 12.4413 8.85301 12.2101C8.58541 11.1267 8.43716 9.92334 8.43716 8.65762C8.43716 7.39052 8.58666 6.18711 8.85301 5.10382C8.1231 4.87389 7.46227 4.58523 6.88938 4.25157C6.01246 5.49992 5.49864 7.01946 5.49864 8.65759C5.49864 10.2958 6.01249 11.8154 6.89063 13.0636V13.0624ZM9.78142 11.9577C10.7023 11.7416 11.7048 11.6091 12.7551 11.5778V5.73579C11.7061 5.70455 10.7023 5.57084 9.78142 5.3559C9.53769 6.35685 9.40201 7.47526 9.40201 8.65602C9.40201 9.83678 9.53769 10.9553 9.78142 11.9561V11.9577ZM13.7199 11.5778C14.7689 11.6091 15.7727 11.7428 16.6936 11.9577C16.9374 10.9568 17.073 9.83838 17.073 8.65762C17.073 7.47673 16.9374 6.35832 16.6936 5.3575C15.7727 5.57369 14.7702 5.70613 13.7199 5.73739V11.5794V11.5778ZM17.6221 12.2114C18.352 12.4413 19.0128 12.73 19.5857 13.0624C20.4627 11.8141 20.9777 10.2945 20.9777 8.6564C20.9777 7.01828 20.4639 5.49861 19.587 4.25038C19.0154 4.58404 18.3533 4.87144 17.6234 5.10264C17.891 6.18605 18.0392 7.38943 18.0392 8.65516C18.0392 9.92226 17.8897 11.1257 17.6234 12.209L17.6221 12.2114ZM18.9789 13.8197C18.504 13.556 17.9588 13.3236 17.357 13.1324C17.1749 13.6835 16.96 14.1921 16.7176 14.6507C16.4701 15.1168 16.1937 15.5329 15.8934 15.889C16.9625 15.5004 17.9224 14.8844 18.7113 14.0996C18.803 14.0084 18.8922 13.9146 18.9789 13.8184L18.9789 13.8197ZM16.4286 12.8787C15.597 12.6863 14.6836 12.5675 13.7213 12.5376V16.274C14.5353 16.0578 15.2829 15.3081 15.8658 14.2046C16.0781 13.8048 16.2666 13.3599 16.4286 12.8775V12.8787ZM12.7564 12.5376C11.7941 12.5675 10.8807 12.6863 10.0478 12.8775C10.2098 13.3598 10.3983 13.8047 10.6106 14.2058C11.1935 15.3092 11.9423 16.059 12.7564 16.2752V12.5376ZM9.11924 13.1324C8.51872 13.3236 7.97348 13.5548 7.49858 13.8197C7.58527 13.9146 7.67447 14.0084 7.76618 14.1008C8.55514 14.8856 9.51371 15.5016 10.5828 15.8903C10.2813 15.5342 10.0049 15.118 9.75869 14.6519C9.51622 14.1933 9.30138 13.6847 9.11922 13.1336L9.11924 13.1324ZM7.49733 3.49404C7.97223 3.75771 8.51872 3.99014 9.11924 4.18132C9.30141 3.63022 9.51624 3.12164 9.75871 2.66303C10.0062 2.19568 10.2826 1.7808 10.5841 1.42465C9.51374 1.81327 8.5539 2.42934 7.76495 3.21412C7.67323 3.30535 7.58278 3.39907 7.49609 3.49529L7.49733 3.49404ZM10.0489 4.435C10.8806 4.62744 11.7939 4.74616 12.7575 4.77614V1.03968C11.9435 1.25587 11.1959 2.00563 10.6117 3.10907C10.3994 3.50895 10.211 3.9538 10.0489 4.43615V4.435ZM13.7224 4.77614C14.6847 4.74615 15.5981 4.62744 16.431 4.43625C16.269 3.9539 16.0805 3.50904 15.8682 3.10792C15.2853 2.00451 14.5378 1.25472 13.7237 1.03853V4.77499L13.7224 4.77614ZM17.3596 4.18132C17.9613 3.99013 18.5066 3.7577 18.9827 3.49404C18.896 3.39782 18.8056 3.3041 18.7139 3.21287C17.9249 2.42812 16.9651 1.81205 15.8947 1.4234C16.1962 1.77955 16.4726 2.19568 16.7201 2.66178C16.9626 3.12039 17.1774 3.62897 17.3596 4.18007L17.3596 4.18132ZM5.06771 5.67338H0.968387V19.648H22.5292L22.1963 16.7576C22.1661 16.4952 22.3558 16.2565 22.6197 16.2265C22.6574 16.2228 22.6951 16.2228 22.7302 16.2265L25.5104 16.5439V5.67363H21.4111C21.7553 6.60333 21.9425 7.60929 21.9425 8.65771C21.9425 11.0482 20.9676 13.2138 19.3935 14.7797C17.8193 16.3456 15.6421 17.3152 13.2387 17.3152C10.8352 17.3152 8.65822 16.3455 7.08391 14.7797C5.50959 13.2139 4.53484 11.0483 4.53484 8.65771C4.53484 7.60929 4.72203 6.60458 5.06625 5.67363L5.06771 5.67338ZM10.7323 20.6077L10.162 22.3547H16.3193L15.749 20.6077H10.7323ZM27.4287 22.7458L28.7491 21.4324L25.8697 18.5683C25.6825 18.3796 25.6837 18.076 25.8722 17.8898L26.1775 17.5861L23.2226 17.2487L23.5618 20.1866L23.8671 19.8829C24.0556 19.6955 24.3609 19.6955 24.5493 19.8829L27.4288 22.747L27.4287 22.7458ZM9.49733 23.3144H7.50608V24.0404H18.9723V23.3144H9.49733Z" fill="url(#paint0_linear_447_2446)"/>
<defs>
<linearGradient id="paint0_linear_447_2446" x1="14.9554" y1="0" x2="14.9554" y2="25" gradientUnits="userSpaceOnUse">
<stop stop-color="#63388B"/>
<stop offset="1" stop-color="#347BB0"/>
</linearGradient>
</defs>
</svg>
