<svg width="23" height="25" viewBox="0 0 23 25" fill="none" xmlns="http://www.w3.org/2000/svg">
<path fill-rule="evenodd" clip-rule="evenodd" d="M10.5843 2.69935V6.09163C10.5497 6.06793 10.5237 6.0453 10.4891 6.02375C9.88328 5.61533 9.12169 5.53128 8.44665 5.79638C8.11779 5.92461 7.79756 6.07547 7.49467 6.24788C7.39082 6.21016 7.27832 6.18107 7.16581 6.16059L6.63791 4.11965C6.45616 3.42354 5.8244 2.93645 5.09743 2.93645H2.73481L2.72615 2.93753C2.57037 2.34271 2.0338 1.90519 1.38471 1.90519C0.614487 1.90519 1.39978e-05 2.52588 1.39978e-05 3.28881C1.39978e-05 4.05281 0.614487 4.6735 1.38471 4.6735C1.97321 4.6735 2.47516 4.30821 2.68286 3.79527C2.70017 3.79742 2.71748 3.7985 2.73479 3.7985H5.09742C5.42628 3.7985 5.71189 4.0194 5.79841 4.33513L6.27441 6.17244C5.23589 6.39011 4.44833 7.31145 4.44833 8.41167C4.44833 8.58408 4.46563 8.75327 4.50891 8.91597C3.55693 9.19722 2.86458 10.0733 2.86458 11.1089C2.86458 11.639 3.04632 12.1272 3.34922 12.5162C3.04631 12.9041 2.86458 13.3934 2.86458 13.9246C2.86458 14.9591 3.55693 15.8352 4.50891 16.1175C4.46563 16.2791 4.44833 16.4472 4.44833 16.6207C4.44833 17.722 5.23589 18.6434 6.27441 18.86L5.79841 20.6983C5.71186 21.0141 5.42625 21.2339 5.10606 21.2339H2.73476C2.72611 21.2339 2.71745 21.235 2.7088 21.235C2.52706 20.6811 1.99914 20.2813 1.3847 20.2813C0.614473 20.2813 0 20.9009 0 21.6649C0 22.4289 0.614473 23.0486 1.3847 23.0486C1.99917 23.0486 2.52707 22.6488 2.7088 22.0949C2.71745 22.096 2.72611 22.096 2.73476 22.096H5.10606C5.82438 22.096 6.45614 21.61 6.63787 20.9139L7.16577 18.8718C7.27827 18.8514 7.38213 18.8223 7.48596 18.7867C7.79752 18.9602 8.11772 19.1111 8.45525 19.2382C9.12162 19.5001 9.88321 19.416 10.4717 19.013C10.515 18.9882 10.5496 18.9623 10.5842 18.9354V22.3007C10.0303 22.4828 9.62356 23.0022 9.62356 23.6164C9.62356 24.3804 10.2467 25 11.0169 25C11.7785 25 12.4016 24.3804 12.4016 23.6164C12.4016 23.0021 12.0035 22.4828 11.4496 22.3007V18.9354C11.4842 18.9623 11.5189 18.9882 11.5535 19.013C12.1506 19.416 12.9036 19.5001 13.5699 19.2382C13.9075 19.1111 14.2277 18.9602 14.5392 18.7867C14.6258 18.8169 14.721 18.8417 14.8075 18.8611L15.3874 20.9386C15.5777 21.6229 16.2009 22.096 16.9105 22.096H19.2905C19.2991 22.096 19.3164 22.096 19.3251 22.0949C19.5068 22.6488 20.0261 23.0485 20.6406 23.0485C21.4108 23.0485 22.0339 22.4289 22.0339 21.6649C22.0339 20.9009 21.4108 20.2813 20.6406 20.2813C20.0261 20.2813 19.5068 20.6811 19.3251 21.235C19.3164 21.235 19.2991 21.2339 19.2905 21.2339H16.9105C16.5903 21.2339 16.3047 21.0194 16.2182 20.7091L15.7075 18.8697C16.772 18.6692 17.5769 17.7382 17.5769 16.6207C17.5769 16.4289 17.5596 16.2425 17.5077 16.0647C17.6807 16.0022 17.8711 15.9149 18.0615 15.7964C18.6154 15.458 19.1607 14.8761 19.1607 13.9246C19.1607 13.3934 18.9789 12.9041 18.676 12.5162C18.9789 12.1272 19.1607 11.639 19.1607 11.1089C19.1607 10.0733 18.4683 9.19721 17.525 8.91489C17.5596 8.75325 17.5769 8.58408 17.5769 8.41166C17.5769 7.31144 16.798 6.39011 15.7595 6.17243L16.2355 4.33513C16.3134 4.0194 16.599 3.79849 16.9279 3.79849H19.2905C19.3078 3.79849 19.3338 3.79742 19.3511 3.79526C19.5501 4.3082 20.052 4.6735 20.6405 4.6735C21.4108 4.6735 22.0339 4.05281 22.0339 3.2888C22.0339 2.52588 21.4108 1.90519 20.6405 1.90519C20.0001 1.90519 19.4549 2.34268 19.2991 2.93752C19.2991 2.93644 19.2991 2.93644 19.2905 2.93644H16.9278C16.2009 2.93644 15.5777 3.42351 15.396 4.11965L14.8681 6.16059C14.7556 6.18106 14.6431 6.21016 14.5306 6.24787C14.2277 6.07546 13.9075 5.92459 13.5786 5.79637C12.9036 5.53128 12.142 5.61533 11.5448 6.02374C11.5102 6.04529 11.4756 6.06792 11.4496 6.09163V2.69934C12.0035 2.51723 12.4016 1.99783 12.4016 1.38362C12.4016 0.619615 11.7785 0 11.0169 0C10.2467 0 9.62356 0.619615 9.62356 1.38362C9.62356 1.99785 10.0304 2.51725 10.5843 2.69935ZM11.017 23.095C11.3026 23.095 11.5363 23.3288 11.5363 23.6165C11.5363 23.9042 11.3026 24.1381 11.017 24.1381C10.7227 24.1381 10.4891 23.9042 10.4891 23.6165C10.4891 23.3288 10.7228 23.095 11.017 23.095ZM1.38477 21.1435C1.67035 21.1435 1.91267 21.3773 1.91267 21.665C1.91267 21.9527 1.67035 22.1866 1.38477 22.1866C1.09919 22.1866 0.865505 21.9527 0.865505 21.665C0.865505 21.3773 1.09917 21.1435 1.38477 21.1435ZM20.6406 21.1435C20.9349 21.1435 21.1685 21.3773 21.1685 21.665C21.1685 21.9527 20.9349 22.1866 20.6406 22.1866C20.3551 22.1866 20.1214 21.9527 20.1214 21.665C20.1214 21.3773 20.355 21.1435 20.6406 21.1435ZM10.5844 7.832C10.5844 7.39343 10.3594 6.98286 10.0046 6.73608C9.63241 6.48931 9.17374 6.43759 8.76698 6.59922C8.76698 6.59922 8.75832 6.59922 8.75832 6.6003C8.41215 6.735 8.07461 6.90204 7.75442 7.09385C7.63325 7.16928 7.47748 7.1779 7.34765 7.11755C7.16591 7.03243 6.95821 6.98501 6.75051 6.98501C5.95431 6.98501 5.31389 7.62402 5.31389 8.41175C5.31389 8.6445 5.36581 8.86325 5.46967 9.05721C5.5389 9.1876 5.53025 9.34278 5.46101 9.46993C5.38312 9.59708 5.25331 9.67682 5.1062 9.68329C4.34461 9.71454 3.73014 10.3417 3.73014 11.1089C3.73014 11.5411 3.92919 11.9279 4.23209 12.1898C4.32729 12.2717 4.37922 12.3902 4.37922 12.5163C4.37922 12.6413 4.32729 12.7609 4.23209 12.8428C3.92918 13.1047 3.73014 13.4926 3.73014 13.9247C3.73014 14.6909 4.33594 15.317 5.09753 15.3493C5.236 15.3558 5.3485 15.4226 5.42639 15.5239L5.46101 15.5723C5.49563 15.637 5.51294 15.7114 5.51294 15.79C5.51294 15.859 5.49563 15.9236 5.46101 15.9808L5.46967 15.9775C5.36581 16.1704 5.31389 16.3902 5.31389 16.6208C5.31389 17.4075 5.95431 18.0476 6.75051 18.0476C6.95821 18.0476 7.16592 18.0012 7.34765 17.9172C7.47746 17.8579 7.62459 17.8665 7.74575 17.9398C8.07461 18.1338 8.41212 18.2987 8.76696 18.4334C8.76696 18.4334 8.76696 18.4344 8.77562 18.4355C9.17372 18.5928 9.63241 18.5433 9.98723 18.2997C10.342 18.0584 10.5584 17.6532 10.5584 17.2222C10.5584 17.1758 10.5671 17.1316 10.5844 17.0885V16.7286C10.5844 16.6877 10.5844 16.6489 10.6017 16.6101C10.5844 14.0314 10.5844 10.179 10.5844 7.832ZM14.6864 17.9173C14.5566 17.858 14.4009 17.8666 14.2797 17.9399C13.9595 18.1339 13.6133 18.2987 13.2671 18.4334C13.2585 18.4334 13.2585 18.4345 13.2585 18.4356C12.8517 18.5929 12.4017 18.5433 12.0382 18.2998C11.6834 18.0584 11.467 17.6532 11.467 17.2222V17.219C11.4497 14.6781 11.4497 10.3732 11.4497 7.83223C11.4497 7.39366 11.6661 6.98309 12.0296 6.73631C12.3931 6.48952 12.8604 6.43782 13.2672 6.59945V6.60053C13.622 6.73523 13.9509 6.90227 14.2711 7.09408C14.3922 7.16951 14.548 7.17813 14.6778 7.11778C14.8596 7.03266 15.0673 6.98524 15.2837 6.98524C16.0712 6.98524 16.7116 7.62425 16.7116 8.41197C16.7116 8.64473 16.6597 8.86348 16.5558 9.05744C16.4952 9.18783 16.4952 9.34301 16.5731 9.47016C16.6424 9.59731 16.7808 9.67705 16.928 9.68352C17.6895 9.71477 18.2953 10.3419 18.2953 11.1092C18.2953 11.5413 18.1049 11.9282 17.8021 12.19C17.7069 12.2719 17.6463 12.3904 17.6463 12.5165C17.6463 12.6415 17.7069 12.7611 17.8021 12.843C18.105 13.1049 18.2953 13.4928 18.2953 13.9249C18.2953 14.5068 17.9492 14.8549 17.6116 15.0629C17.2395 15.2902 16.8674 15.3592 16.8674 15.3592C16.7375 15.384 16.6164 15.4702 16.5558 15.592C16.4952 15.7137 16.4952 15.856 16.5645 15.9777C16.6597 16.1706 16.7116 16.3904 16.7116 16.621C16.7116 17.4077 16.0712 18.0478 15.2836 18.0478C15.0673 18.0478 14.8682 18.0013 14.6864 17.9173ZM7.97066 10.4691C6.83693 10.4691 5.91093 11.3861 5.91093 12.5165C5.91093 13.6458 6.83696 14.5629 7.97066 14.5629C8.20433 14.5629 8.40338 14.37 8.40338 14.1318C8.40338 13.8947 8.20433 13.7008 7.97066 13.7008C7.31293 13.7008 6.77636 13.1706 6.77636 12.5165C6.77636 11.8624 7.31293 11.3311 7.97066 11.3311C8.20433 11.3311 8.40338 11.1383 8.40338 10.9001C8.40338 10.662 8.20433 10.4691 7.97066 10.4691ZM14.0633 11.3311C14.7211 11.3311 15.249 11.8624 15.249 12.5165C15.249 13.1706 14.7211 13.7008 14.0633 13.7008C13.821 13.7008 13.6306 13.8947 13.6306 14.1318C13.6306 14.37 13.821 14.5629 14.0633 14.5629C15.1971 14.5629 16.1144 13.6458 16.1144 12.5165C16.1144 11.3861 15.197 10.4691 14.0633 10.4691C13.821 10.4691 13.6306 10.662 13.6306 10.9001C13.6306 11.1383 13.821 11.3311 14.0633 11.3311ZM20.6406 3.81168C20.3551 3.81168 20.1214 3.57677 20.1214 3.28906C20.1214 3.00135 20.355 2.76752 20.6406 2.76752C20.9349 2.76752 21.1685 3.00135 21.1685 3.28906C21.1685 3.57677 20.9349 3.81168 20.6406 3.81168ZM1.38477 3.81168C1.09919 3.81168 0.865505 3.57677 0.865505 3.28906C0.865505 3.00135 1.09917 2.76752 1.38477 2.76752C1.67036 2.76752 1.91267 3.00135 1.91267 3.28906C1.91267 3.57677 1.67035 3.81168 1.38477 3.81168ZM11.017 1.90542C10.7227 1.90542 10.4891 1.67158 10.4891 1.38387C10.4891 1.09616 10.7228 0.862325 11.017 0.862325C11.3026 0.862325 11.5363 1.09616 11.5363 1.38387C11.5363 1.67158 11.3026 1.90542 11.017 1.90542Z" fill="url(#paint0_linear_447_2456)"/>
<defs>
<linearGradient id="paint0_linear_447_2456" x1="11.0169" y1="0" x2="11.0169" y2="25" gradientUnits="userSpaceOnUse">
<stop stop-color="#63388B"/>
<stop offset="1" stop-color="#357BB0"/>
</linearGradient>
</defs>
</svg>
