<svg width="27" height="25" viewBox="0 0 27 25" fill="none" xmlns="http://www.w3.org/2000/svg">
<path d="M14.0271 7.14195C14.0619 7.03535 14.1377 6.94685 14.238 6.89587C14.3383 6.84488 14.4548 6.83559 14.5619 6.87002C15.3027 7.10776 15.9485 7.5737 16.4061 8.20058C16.8637 8.82745 17.1093 9.58286 17.1076 10.3578C17.1046 10.4679 17.0586 10.5724 16.9793 10.6492C16.9 10.726 16.7937 10.769 16.6831 10.769C16.5725 10.769 16.4662 10.726 16.3869 10.6492C16.3076 10.5724 16.2616 10.4679 16.2585 10.3578C16.2599 9.76159 16.071 9.18039 15.719 8.69807C15.3671 8.21575 14.8702 7.85727 14.3002 7.67437C14.1932 7.63974 14.1043 7.56422 14.0531 7.4644C14.0019 7.36458 13.9925 7.24861 14.0271 7.14195ZM26.8519 21.8233C26.8509 22.6655 26.5144 23.473 25.9162 24.0685C25.318 24.6641 24.5069 24.9991 23.6609 25H3.19095C2.34466 25 1.53303 24.6653 0.934608 24.0696C0.336189 23.4738 0 22.6658 0 21.8233C0 20.9807 0.336189 20.1727 0.934608 19.577C1.53303 18.9812 2.34466 18.6465 3.19095 18.6465H3.95072C3.66033 17.8889 3.54576 17.0757 3.61556 16.2678C3.68536 15.4598 3.93772 14.6781 4.35379 13.9809C4.76985 13.2838 5.33885 12.6893 6.01822 12.2419C6.6976 11.7946 7.46977 11.5059 8.27701 11.3975C8.22266 11.0391 8.19674 10.677 8.19947 10.3146C8.19947 8.93459 8.75011 7.61114 9.73026 6.63535C10.7104 5.65957 12.0398 5.11138 13.4259 5.11138C14.8121 5.11138 16.1414 5.65957 17.1216 6.63535C18.1017 7.61114 18.6524 8.93459 18.6524 10.3146C18.6816 11.0293 18.5567 11.7419 18.2861 12.4045C18.3485 12.6167 18.3976 12.8325 18.4332 13.0507C19.5788 13.3599 20.5903 14.0359 21.3116 14.9743C22.033 15.9127 22.424 17.0614 22.4244 18.2431C22.4244 18.3776 22.4194 18.512 22.4094 18.6465H23.6596C24.5059 18.6471 25.3173 18.9819 25.9158 19.5775C26.5143 20.1731 26.8509 20.9808 26.8519 21.8233ZM9.04858 10.3146C9.04363 10.6815 9.07387 11.0481 9.13888 11.4093C9.14596 11.4333 9.15098 11.4578 9.15388 11.4826C9.28991 12.1119 9.64448 12.6732 10.1552 13.0678C10.8601 13.7273 11.655 14.4704 11.735 16.919H15.1171C15.1985 14.4701 15.9924 13.7273 16.697 13.0678C16.9939 12.8192 17.2467 12.5226 17.4446 12.1904C17.4507 12.1771 17.4577 12.1641 17.465 12.151C17.7247 11.5749 17.841 10.9449 17.8039 10.3146C17.7941 9.16519 17.3285 8.06623 16.5086 7.25695C15.6888 6.44767 14.581 5.9936 13.4264 5.9936C12.2719 5.9936 11.164 6.44767 10.3442 7.25695C9.5243 8.06623 9.05844 9.16519 9.04858 10.3146ZM11.1093 19.7812C11.1095 19.8849 11.1509 19.9842 11.2246 20.0575C11.2982 20.1307 11.398 20.1719 11.5021 20.172H14.1034C14.1034 20.1386 14.1008 20.1053 14.1008 20.0719C14.101 19.8428 14.1261 19.6143 14.1758 19.3905H11.5021C11.3979 19.3906 11.298 19.4319 11.2243 19.5053C11.1507 19.5786 11.1093 19.6781 11.1093 19.7819V19.7812ZM12.9683 21.0173L13.0213 21.2352C13.066 21.4182 13.178 21.7257 13.4259 21.7257C13.6739 21.7257 13.7859 21.4182 13.8305 21.2352L13.8835 21.0173H12.9683ZM14.9499 20.0719C14.9499 20.5324 15.0871 20.9825 15.3441 21.3654C15.601 21.7483 15.9663 22.0467 16.3936 22.2229C16.8209 22.3991 17.2912 22.4453 17.7448 22.3554C18.1985 22.2656 18.6152 22.0438 18.9422 21.7182C19.2693 21.3926 19.492 20.9778 19.5823 20.5261C19.6725 20.0745 19.6262 19.6064 19.4492 19.1809C19.2722 18.7555 18.9724 18.3919 18.5879 18.1361C18.2033 17.8802 17.7511 17.7437 17.2886 17.7437C16.6684 17.7444 16.0739 17.9901 15.6355 18.4267C15.1971 18.8633 14.9505 19.4552 14.9499 20.0726V20.0719ZM15.1044 17.7637H11.5021C11.398 17.7637 11.2982 17.8049 11.2246 17.8781C11.151 17.9514 11.1096 18.0508 11.1096 18.1544C11.1096 18.2581 11.151 18.3575 11.2246 18.4307C11.2982 18.504 11.398 18.5452 11.5021 18.5452H14.4949C14.656 18.2549 14.8617 17.9915 15.1044 17.7643V17.7637ZM26.0027 21.8233C26.0021 21.2051 25.7551 20.6125 25.3161 20.1754C24.8771 19.7384 24.2818 19.4925 23.6609 19.4918H21.932C21.8703 19.4919 21.8094 19.4785 21.7534 19.4527C21.6974 19.4268 21.6477 19.3891 21.6079 19.3422C21.568 19.2953 21.5389 19.2403 21.5226 19.1811C21.5063 19.1218 21.5031 19.0597 21.5134 18.9991C21.7084 17.8449 21.4481 16.6602 20.7866 15.6925C20.1252 14.7248 19.1139 14.0488 17.9638 13.8058C17.8758 13.7874 17.796 13.7417 17.7358 13.6752C17.6756 13.6088 17.6381 13.525 17.6287 13.436C17.6259 13.4087 17.6223 13.3817 17.6192 13.3544C17.5072 13.4694 17.3923 13.5768 17.278 13.6838C16.6249 14.295 16.0068 14.8748 15.9618 17.0804C15.9964 17.0999 16.0301 17.1211 16.0626 17.1439C16.6257 16.91 17.2444 16.8419 17.8452 16.9477C18.4461 17.0535 19.0038 17.3287 19.4521 17.7406C19.9005 18.1526 20.2207 18.684 20.3747 19.2718C20.5287 19.8596 20.51 20.479 20.3209 21.0565C20.1317 21.634 19.7801 22.1454 19.3077 22.5298C18.8353 22.9143 18.262 23.1557 17.6559 23.2254C17.0498 23.2951 16.4363 23.1901 15.8883 22.923C15.3403 22.6559 14.8809 22.2378 14.5645 21.7184C14.4883 21.9614 14.3375 22.1745 14.1332 22.3276C13.929 22.4807 13.6816 22.5661 13.4259 22.5717C12.8295 22.5717 12.37 22.147 12.1965 21.4354L12.0943 21.018H11.5021C11.2635 21.0182 11.03 20.9499 10.8294 20.8213C10.6288 20.6927 10.4697 20.5093 10.3712 20.293C10.2726 20.0767 10.2389 19.8367 10.2738 19.6017C10.3088 19.3668 10.4111 19.1469 10.5684 18.9683C10.4469 18.8305 10.3577 18.6674 10.3074 18.4909C10.2572 18.3144 10.2471 18.129 10.2779 17.9481C10.3087 17.7673 10.3796 17.5955 10.4855 17.4454C10.5914 17.2953 10.7296 17.1706 10.8901 17.0804C10.8451 14.8748 10.227 14.295 9.57381 13.6838C9.09674 13.2936 8.72458 12.7914 8.4908 12.2225C7.75161 12.3054 7.04406 12.5673 6.42996 12.9852C5.81587 13.4031 5.31392 13.9644 4.96797 14.62C4.62202 15.2756 4.4426 16.0056 4.44539 16.7461C4.44817 17.4867 4.63308 18.2153 4.98395 18.8683C5.01873 18.9326 5.03614 19.0049 5.03447 19.078C5.0328 19.1511 5.01211 19.2225 4.97443 19.2852C4.93674 19.348 4.88335 19.3999 4.81947 19.436C4.75558 19.472 4.6834 19.4909 4.60997 19.4909H3.19095C2.88114 19.4873 2.57369 19.5449 2.28641 19.6605C1.99913 19.776 1.73774 19.9472 1.51738 20.164C1.29702 20.3808 1.12207 20.639 1.00266 20.9237C0.883259 21.2083 0.821776 21.5137 0.821776 21.8221C0.821776 22.1306 0.883259 22.436 1.00266 22.7206C1.12207 23.0053 1.29702 23.2635 1.51738 23.4803C1.73774 23.6971 1.99913 23.8683 2.28641 23.9838C2.57369 24.0994 2.88114 24.157 3.19095 24.1534H23.6609C24.2816 24.1527 24.8766 23.9071 25.3156 23.4703C25.7546 23.0334 26.0017 22.4412 26.0027 21.8233ZM16.6169 21.2927C16.6563 21.332 16.703 21.3632 16.7545 21.3844C16.806 21.4057 16.8612 21.4166 16.917 21.4166C16.9727 21.4166 17.0279 21.4057 17.0794 21.3844C17.1309 21.3632 17.1777 21.332 17.2171 21.2927L19.0678 19.4502C19.1433 19.3702 19.1846 19.264 19.1828 19.1543C19.181 19.0445 19.1364 18.9397 19.0584 18.8621C18.9804 18.7845 18.8751 18.7402 18.7648 18.7386C18.6545 18.7369 18.548 18.7781 18.4676 18.8533L16.9171 20.3972L16.3747 19.8572C16.2951 19.7779 16.1871 19.7333 16.0745 19.7333C15.9619 19.7333 15.8539 19.7778 15.7743 19.857C15.6947 19.9363 15.6499 20.0437 15.6499 20.1558C15.6499 20.2679 15.6946 20.3754 15.7741 20.4547L16.6169 21.2927ZM13.6911 3.96235C13.7469 3.96235 13.8021 3.95141 13.8536 3.93016C13.9051 3.9089 13.9519 3.87775 13.9913 3.83849C14.0307 3.79922 14.062 3.75261 14.0833 3.70131C14.1046 3.65001 14.1155 3.59504 14.1155 3.53953V0.422507C14.1155 0.310451 14.0708 0.202984 13.9912 0.123749C13.9116 0.0445138 13.8037 0 13.6911 0C13.5785 0 13.4706 0.0445138 13.391 0.123749C13.3114 0.202984 13.2667 0.310451 13.2667 0.422507V3.53953C13.2667 3.59504 13.2776 3.65001 13.2989 3.70131C13.3202 3.75261 13.3515 3.79922 13.3909 3.83849C13.4303 3.87775 13.4771 3.9089 13.5286 3.93016C13.5801 3.95141 13.6353 3.96235 13.6911 3.96235ZM18.4478 6.01516C18.5036 6.01523 18.5589 6.00432 18.6104 5.98306C18.6619 5.9618 18.7087 5.9306 18.7481 5.89127L20.962 3.68724C21.0416 3.608 21.0863 3.50053 21.0863 3.38847C21.0863 3.27641 21.0416 3.16894 20.962 3.0897C20.8824 3.01046 20.7745 2.96594 20.6619 2.96594C20.5493 2.96594 20.4414 3.01046 20.3618 3.0897L18.1485 5.29372C18.0893 5.35285 18.049 5.42813 18.0326 5.51005C18.0163 5.59197 18.0247 5.67687 18.0568 5.75404C18.0889 5.83121 18.1432 5.8972 18.2129 5.94367C18.2826 5.99014 18.3646 6.01501 18.4485 6.01516H18.4478ZM19.7673 10.6189C19.7673 10.7309 19.812 10.8384 19.8916 10.9177C19.9712 10.9969 20.0791 11.0414 20.1917 11.0414H23.3227C23.4332 11.0384 23.5383 10.9925 23.6154 10.9136C23.6926 10.8347 23.7357 10.7289 23.7357 10.6187C23.7357 10.5086 23.6926 10.4028 23.6154 10.3239C23.5383 10.2449 23.4332 10.1991 23.3227 10.1961H20.1907C20.0783 10.1963 19.9705 10.241 19.8912 10.3203C19.8118 10.3995 19.7672 10.5069 19.7673 10.6189ZM8.2167 5.89222C8.25611 5.93148 8.3029 5.96262 8.3544 5.98387C8.4059 6.00513 8.46111 6.01607 8.51686 6.01609C8.57261 6.0161 8.62781 6.00519 8.67933 5.98396C8.73084 5.96273 8.77765 5.93161 8.81708 5.89238C8.85651 5.85314 8.88779 5.80656 8.90914 5.75529C8.93049 5.70402 8.94149 5.64906 8.9415 5.59356C8.94151 5.53806 8.93055 5.4831 8.90923 5.43181C8.88791 5.38053 8.85665 5.33393 8.81724 5.29467L6.60335 3.09065C6.52376 3.01137 6.41579 2.96681 6.3032 2.96678C6.19061 2.96675 6.08261 3.01125 6.00298 3.09049C5.92334 3.16973 5.87858 3.27722 5.87855 3.38931C5.87852 3.5014 5.92322 3.60891 6.00282 3.6882L8.2167 5.89222ZM3.64247 11.0414H6.77343C6.88402 11.0384 6.98905 10.9925 7.0662 10.9136C7.14334 10.8347 7.18651 10.7289 7.18651 10.6187C7.18651 10.5086 7.14334 10.4028 7.0662 10.3239C6.98905 10.2449 6.88402 10.1991 6.77343 10.1961H3.64247C3.58574 10.1945 3.52927 10.2043 3.4764 10.2249C3.42353 10.2454 3.37533 10.2763 3.33466 10.3157C3.29398 10.3551 3.26165 10.4022 3.23957 10.4543C3.21749 10.5063 3.20612 10.5622 3.20612 10.6187C3.20612 10.6752 3.21749 10.7312 3.23957 10.7832C3.26165 10.8353 3.29398 10.8824 3.33466 10.9218C3.37533 10.9612 3.42353 10.9921 3.4764 11.0126C3.52927 11.0332 3.58574 11.0429 3.64247 11.0414ZM8.09225 20.537H4.37767C4.26708 20.54 4.16204 20.5859 4.0849 20.6648C4.00775 20.7437 3.96459 20.8495 3.96459 20.9597C3.96459 21.0698 4.00775 21.1756 4.0849 21.2545C4.16204 21.3335 4.26708 21.3793 4.37767 21.3823H8.09225C8.14899 21.3839 8.20546 21.3741 8.25832 21.3535C8.31119 21.333 8.35939 21.3021 8.40007 21.2627C8.44075 21.2233 8.47308 21.1762 8.49516 21.1241C8.51723 21.0721 8.52861 21.0162 8.52861 20.9597C8.52861 20.9032 8.51723 20.8472 8.49516 20.7952C8.47308 20.7431 8.44075 20.696 8.40007 20.6566C8.35939 20.6172 8.31119 20.5863 8.25832 20.5658C8.20546 20.5452 8.14899 20.5354 8.09225 20.537ZM8.09225 22.4389H4.37767C4.26708 22.4419 4.16204 22.4878 4.0849 22.5667C4.00775 22.6457 3.96459 22.7514 3.96459 22.8616C3.96459 22.9717 4.00775 23.0775 4.0849 23.1564C4.16204 23.2354 4.26708 23.2812 4.37767 23.2842H8.09225C8.14899 23.2858 8.20546 23.276 8.25832 23.2555C8.31119 23.2349 8.35939 23.204 8.40007 23.1646C8.44075 23.1252 8.47308 23.0781 8.49516 23.0261C8.51723 22.974 8.52861 22.9181 8.52861 22.8616C8.52861 22.8051 8.51723 22.7491 8.49516 22.6971C8.47308 22.645 8.44075 22.5979 8.40007 22.5585C8.35939 22.5191 8.31119 22.4882 8.25832 22.4677C8.20546 22.4472 8.14899 22.4374 8.09225 22.4389Z" fill="url(#paint0_linear_447_2451)"/>
<defs>
<linearGradient id="paint0_linear_447_2451" x1="13.4259" y1="0" x2="13.4259" y2="25" gradientUnits="userSpaceOnUse">
<stop stop-color="#63388B"/>
<stop offset="1" stop-color="#347BB0"/>
</linearGradient>
</defs>
</svg>
