<svg width="19" height="19" viewBox="0 0 19 19" fill="none" xmlns="http://www.w3.org/2000/svg">
<path d="M4.13937 0.000730741C3.72299 0.000730741 3.3645 0.271633 3.23239 0.645687C3.10472 0.582601 2.96147 0.547719 2.8108 0.547719C2.28383 0.547719 1.8511 0.980407 1.8511 1.50663V1.543C1.73754 1.4955 1.61359 1.46878 1.4837 1.46878C0.956736 1.46878 0.52253 1.90221 0.52253 2.42843V4.88134C0.52253 6.07477 1.12818 7.10263 2.0181 7.76098V8.34138H1.8897H1.89118C1.81251 8.34138 1.7368 8.37255 1.68113 8.42822C1.62472 8.48388 1.59355 8.55958 1.59355 8.63826V10.3282C1.59355 10.4069 1.62546 10.4826 1.68113 10.5383C1.7368 10.5939 1.8125 10.6251 1.89118 10.6251H2.01959V12.5734H1.84739C1.32042 12.5734 0.88844 13.0076 0.88844 13.5345C0.88844 13.6644 0.915159 13.7883 0.962661 13.9019H0.959692C0.432724 13.9019 0 14.3346 0 14.8615C0 15.2779 0.270913 15.6364 0.644982 15.7685C0.581894 15.8961 0.547008 16.0394 0.547008 16.1901C0.547008 16.717 0.978972 17.1497 1.50596 17.1497H1.54307C1.49557 17.2633 1.46885 17.3872 1.46885 17.5171C1.46885 18.044 1.9023 18.4782 2.42854 18.4782H4.88078C6.07426 18.4782 7.10293 17.8726 7.76055 16.9827H8.34096V17.1111L8.34022 17.1096C8.34022 17.2737 8.47308 17.4065 8.63711 17.4065H10.3271C10.4912 17.4065 10.624 17.2737 10.624 17.1096V16.9812H12.5724V17.1534C12.5724 17.6804 13.0066 18.1131 13.5335 18.1131C13.6634 18.1131 13.7874 18.0864 13.9009 18.0389V18.0403C13.9009 18.5673 14.3344 19 14.8606 19C15.277 19 15.6355 18.7291 15.7676 18.355C15.8953 18.4181 16.0385 18.453 16.1892 18.453C16.7162 18.453 17.1489 18.0203 17.1489 17.4941V17.4585C17.2625 17.506 17.3864 17.532 17.5163 17.532C18.0433 17.532 18.4775 17.1 18.4775 16.573V14.1201C18.4775 12.9267 17.8718 11.8981 16.9812 11.2405L16.9804 10.6601H17.1088C17.2721 10.6601 17.405 10.528 17.4057 10.364V8.67326C17.4057 8.50924 17.2728 8.37638 17.1088 8.37638H16.9804V6.42812H17.1526C17.6796 6.42812 18.1116 5.99393 18.1116 5.46698C18.1116 5.3371 18.0856 5.21316 18.0381 5.0996H18.0403C18.5673 5.0996 19 4.66691 19 4.13995C19 3.72358 18.7291 3.36511 18.355 3.233C18.4181 3.10534 18.453 2.9621 18.453 2.81143C18.453 2.28448 18.021 1.85177 17.494 1.85177H17.4577C17.5052 1.73822 17.5319 1.61427 17.5319 1.48439C17.5319 0.95744 17.0984 0.523251 16.5722 0.523251H14.12C12.9265 0.523251 11.8986 1.12888 11.2402 2.01876H10.6598L10.659 1.89185C10.659 1.72782 10.5262 1.59497 10.3621 1.59497H8.67212H8.67286C8.50883 1.59497 8.37598 1.72782 8.37598 1.89185V2.02025H6.42763V1.84806C6.42763 1.32111 5.99343 0.889146 5.46646 0.889146C5.33657 0.889146 5.21263 0.915123 5.09906 0.962623V0.959654C5.09906 0.432707 4.66562 0 4.13937 0L4.13937 0.000730741ZM4.13937 0.594482C4.34794 0.594482 4.50529 0.752568 4.50529 0.960385V4.01977C4.50529 4.16375 4.6092 4.28771 4.75097 4.3122C4.76804 4.31517 4.78511 4.31665 4.80218 4.31665C4.80812 4.31665 4.81406 4.31665 4.81925 4.31591C4.83781 4.31517 4.85562 4.3122 4.87343 4.30775C4.87789 4.307 4.88308 4.30552 4.88754 4.30404H4.88828C4.89867 4.30107 4.9098 4.29736 4.92019 4.29216C4.92168 4.29216 4.92242 4.29142 4.92391 4.29068C4.92762 4.28919 4.93207 4.28697 4.93578 4.28548C4.93726 4.28474 4.93875 4.284 4.94023 4.28251C4.94543 4.28029 4.95063 4.27732 4.95582 4.27361C4.96102 4.27064 4.96621 4.26767 4.97066 4.26396C4.97957 4.25802 4.98774 4.25208 4.9959 4.24466C4.99664 4.24392 4.99813 4.24318 4.99887 4.24243C5.00184 4.24021 5.00406 4.23798 5.00629 4.23576C5.00852 4.23353 5.01 4.23204 5.01223 4.22982C5.01446 4.22759 5.01668 4.22611 5.01817 4.22388C5.01965 4.2224 5.02039 4.22165 5.02114 4.22091C5.02782 4.21349 5.0345 4.20533 5.04043 4.19716C5.04266 4.19419 5.04489 4.19122 5.04711 4.18826C5.04785 4.18826 5.04785 4.18751 5.0486 4.18677C5.05157 4.18232 5.05453 4.17786 5.05676 4.17341C5.05899 4.1697 5.06121 4.16673 5.0627 4.16302C5.06418 4.16154 5.06493 4.15931 5.06567 4.15783C5.06641 4.15634 5.06715 4.15486 5.06789 4.15337C5.07012 4.14966 5.07161 4.14521 5.07383 4.1415C5.07383 4.14001 5.07457 4.13927 5.07532 4.13779V4.1363C5.07977 4.12591 5.08422 4.11552 5.08719 4.10513C5.08868 4.10068 5.09016 4.09548 5.0909 4.09103C5.09165 4.09029 5.09165 4.08954 5.09165 4.08806C5.09461 4.07767 5.0961 4.06654 5.09758 4.0554V4.05466C5.09833 4.04872 5.09907 4.04353 5.09981 4.03759V4.03685V4.01978V1.84807C5.09981 1.64025 5.2579 1.48291 5.46721 1.48291C5.67578 1.48291 5.83461 1.64026 5.83461 1.84807V5.96348H5.83387C5.83387 6.04215 5.86578 6.11786 5.92145 6.17353C5.97712 6.2292 6.05282 6.26036 6.1315 6.26036H6.83142C6.59317 6.72719 6.23616 7.12279 5.80047 7.40854C5.7166 7.4642 5.66613 7.55772 5.66687 7.65791V8.34148H2.61344V7.65791C2.61344 7.55697 2.56223 7.46346 2.47836 7.40854C1.65747 6.86971 1.11712 5.94346 1.11712 4.88058V2.42844C1.11712 2.22061 1.27522 2.06253 1.48452 2.06253C1.69309 2.06253 1.85192 2.22062 1.85192 2.42844V4.01969C1.85192 4.09836 1.8831 4.17406 1.93876 4.22973C1.99443 4.2854 2.07014 4.31657 2.14882 4.31657C2.16292 4.31657 2.17776 4.31583 2.19186 4.3136C2.19335 4.31286 2.19557 4.31286 2.19706 4.31286H2.1978C2.203 4.31212 2.20745 4.31063 2.21265 4.30989C2.21858 4.30841 2.22452 4.30692 2.23046 4.30544C2.23491 4.30395 2.23937 4.30247 2.24308 4.30098C2.24456 4.30098 2.2453 4.30024 2.24679 4.30024C2.2505 4.29876 2.25495 4.29727 2.25866 4.29579C2.26015 4.29505 2.26163 4.2943 2.26237 4.2943C2.26609 4.29282 2.2698 4.29059 2.27351 4.28911C2.27499 4.28837 2.27648 4.28762 2.27722 4.28762C2.2787 4.28688 2.28019 4.28614 2.28167 4.2854C2.29577 4.27798 2.30839 4.27055 2.32101 4.26165C2.32324 4.26016 2.32621 4.25794 2.32843 4.25645C2.33066 4.25497 2.33214 4.25348 2.33363 4.252C2.33437 4.252 2.33511 4.25126 2.33511 4.25052C2.33957 4.24755 2.34328 4.24458 2.34699 4.24161C2.34921 4.23938 2.3507 4.23716 2.35293 4.23493C2.35664 4.23122 2.36109 4.22751 2.3648 4.2238C2.36777 4.22009 2.37148 4.21637 2.37519 4.21192C2.37742 4.20969 2.37965 4.20747 2.38113 4.2045C2.38261 4.20301 2.3841 4.20153 2.38484 4.1993C2.38707 4.19708 2.38929 4.19411 2.39078 4.19188C2.39078 4.19114 2.39152 4.19114 2.39152 4.19114C2.39449 4.18669 2.39746 4.18223 2.40043 4.17778C2.40117 4.1763 2.40191 4.17481 2.40265 4.17259C2.40785 4.16516 2.4123 4.157 2.41601 4.14884C2.41676 4.14735 2.4175 4.14587 2.41824 4.14438C2.41972 4.14067 2.42121 4.13696 2.42344 4.13325C2.42566 4.12731 2.42789 4.12063 2.43012 4.11469C2.4316 4.11098 2.43234 4.10802 2.43308 4.10505C2.43383 4.10356 2.43383 4.10282 2.43457 4.10208C2.43605 4.09688 2.43754 4.09094 2.43828 4.08575C2.43902 4.08501 2.43902 4.08426 2.43902 4.08352C2.43976 4.07907 2.44125 4.07387 2.44199 4.06942V4.06794C2.44273 4.06274 2.44348 4.05829 2.44422 4.05309V4.05235C2.4457 4.04122 2.44644 4.03083 2.4457 4.01969V1.50599C2.4457 1.29817 2.60305 1.14083 2.81162 1.14083C3.02019 1.14083 3.17902 1.29817 3.17902 1.50599V4.01969C3.17902 4.03602 3.1805 4.05235 3.18347 4.06868C3.18496 4.07536 3.18644 4.08204 3.18793 4.08797C3.19015 4.09762 3.19238 4.10653 3.19535 4.11543C3.19757 4.12211 3.20054 4.12879 3.20351 4.13547C3.20722 4.14438 3.21168 4.15403 3.21613 4.16219C3.2191 4.16739 3.22207 4.17258 3.22578 4.17778C3.23097 4.18668 3.23691 4.19559 3.24359 4.20375C3.2473 4.20895 3.25176 4.2134 3.25621 4.2186C3.26289 4.22528 3.26957 4.23196 3.27625 4.23864C3.28219 4.24383 3.28738 4.24829 3.29332 4.25348C3.30149 4.25942 3.30891 4.26461 3.31782 4.26981C3.32227 4.27352 3.32821 4.27649 3.3334 4.27946C3.34305 4.28465 3.3527 4.28985 3.36309 4.29356C3.36829 4.29579 3.37348 4.29801 3.37868 4.2995C3.38758 4.30247 3.39723 4.30543 3.40614 4.30766C3.41356 4.30915 3.42098 4.31137 3.42915 4.31286C3.44473 4.31508 3.46032 4.31657 3.47591 4.31657C3.48481 4.31657 3.49372 4.31657 3.50263 4.31583C3.50485 4.31508 3.50708 4.31508 3.50931 4.31508C3.51005 4.31508 3.51079 4.31508 3.51227 4.31434H3.51524C3.52044 4.3136 3.52489 4.31286 3.53009 4.31211C3.5338 4.31063 3.53825 4.30989 3.54271 4.30915C3.54419 4.3084 3.54567 4.3084 3.5479 4.30766C3.55087 4.30692 3.55458 4.30618 3.55829 4.30543C3.55903 4.30469 3.55903 4.30469 3.55978 4.30469C3.56497 4.30321 3.56942 4.30172 3.57462 4.30024C3.57536 4.2995 3.57685 4.2995 3.57759 4.2995C3.58204 4.29801 3.5865 4.29579 3.59095 4.2943C3.59318 4.29282 3.59614 4.29208 3.59911 4.29059C3.60134 4.28985 3.60357 4.28836 3.60579 4.28762C3.60654 4.28688 3.60802 4.28614 3.60876 4.2854C3.61322 4.28391 3.61693 4.28168 3.62064 4.27946C3.62361 4.27797 3.62732 4.27575 3.63029 4.27352C3.63177 4.27278 3.63326 4.27204 3.63474 4.27129C3.63845 4.26907 3.64216 4.26684 3.64587 4.26387C3.64662 4.26313 3.6481 4.26239 3.64884 4.26165C3.6533 4.25942 3.65701 4.25645 3.66072 4.25348C3.66072 4.25274 3.66146 4.25274 3.6622 4.252C3.66591 4.24903 3.67037 4.24532 3.67408 4.24235C3.67408 4.24161 3.67482 4.24161 3.67482 4.24161C3.68373 4.23344 3.69189 4.22528 3.70005 4.21637C3.70302 4.21266 3.70674 4.20895 3.7097 4.2045C3.71045 4.2045 3.71045 4.20376 3.71119 4.20301C3.71416 4.1993 3.71713 4.19559 3.72009 4.19188C3.72084 4.1904 3.72158 4.18965 3.72232 4.18891C3.72529 4.18372 3.72826 4.17926 3.73049 4.17481L3.73197 4.17333C3.73642 4.16516 3.74162 4.157 3.74533 4.14883C3.74681 4.14586 3.74756 4.14364 3.74904 4.14141C3.74978 4.13918 3.75127 4.13622 3.75201 4.13325C3.75275 4.1325 3.75275 4.13176 3.75349 4.13176C3.75498 4.12657 3.75646 4.12211 3.75869 4.11766C3.75869 4.11692 3.75943 4.11543 3.75943 4.11469C3.76092 4.11024 3.7624 4.10579 3.76314 4.10207C3.76463 4.09836 3.76537 4.09465 3.76611 4.09094C3.76685 4.08946 3.76685 4.08723 3.7676 4.08575C3.76982 4.0761 3.77131 4.06571 3.77279 4.05532C3.77279 4.05457 3.77353 4.05383 3.77353 4.05309C3.77353 4.04789 3.77428 4.0427 3.77428 4.0375V4.03602C3.77502 4.03082 3.77502 4.02563 3.77502 4.01969V0.960305C3.77502 0.752483 3.93311 0.594402 4.14242 0.594402L4.13937 0.594482ZM14.1199 1.11847H16.5722C16.78 1.11847 16.9381 1.27729 16.9381 1.48585C16.9381 1.69441 16.78 1.85323 16.5722 1.85323H14.9808V1.85249C14.8168 1.85249 14.684 1.98534 14.684 2.14937C14.684 2.31339 14.8168 2.44624 14.9808 2.44624H17.4947C17.7025 2.44624 17.8598 2.60359 17.8598 2.81215C17.8598 3.02071 17.7025 3.17953 17.4947 3.17953H14.9808C14.9645 3.17953 14.9482 3.18102 14.9319 3.18324C14.9267 3.18473 14.9215 3.18547 14.9163 3.18695C14.9051 3.18918 14.894 3.19289 14.8836 3.19586C14.8784 3.19809 14.8732 3.20031 14.868 3.20254C14.8576 3.20625 14.848 3.21145 14.8383 3.21664C14.8324 3.21961 14.8272 3.22258 14.8228 3.22629C14.8138 3.23148 14.8064 3.23668 14.7983 3.24262C14.7923 3.24781 14.7871 3.25227 14.7812 3.25746L14.7611 3.2775C14.7567 3.2827 14.7522 3.28715 14.7485 3.29234C14.7419 3.30051 14.7359 3.30941 14.7307 3.31832C14.727 3.32352 14.724 3.32871 14.7211 3.33391C14.7166 3.34207 14.7122 3.35172 14.7085 3.36062C14.7055 3.3673 14.7025 3.37398 14.7003 3.38066C14.6973 3.38957 14.6951 3.39848 14.6929 3.40812C14.6914 3.41406 14.6899 3.42074 14.6884 3.42742C14.6854 3.44375 14.684 3.46008 14.684 3.4764C14.684 3.49273 14.6854 3.50906 14.6884 3.52539C14.6892 3.53133 14.6906 3.53801 14.6929 3.54469C14.6943 3.55359 14.6973 3.5625 14.7003 3.57215C14.7025 3.57883 14.7055 3.58551 14.7085 3.59219C14.7122 3.60183 14.7166 3.61 14.7211 3.6189C14.724 3.6241 14.727 3.62929 14.7307 3.63449C14.7359 3.6434 14.7419 3.65156 14.7478 3.65898C14.7522 3.66492 14.7567 3.67012 14.7611 3.67531C14.7678 3.68273 14.7745 3.68941 14.7819 3.69609C14.7871 3.70055 14.7923 3.705 14.7983 3.70945C14.8057 3.71539 14.8138 3.72133 14.822 3.72652C14.8272 3.72949 14.8331 3.7332 14.8383 3.73617C14.8465 3.74062 14.8554 3.74508 14.8643 3.74879C14.871 3.75176 14.8784 3.75398 14.8851 3.75695C14.894 3.75992 14.9037 3.76215 14.9126 3.76437C14.9192 3.76586 14.9252 3.76734 14.9319 3.76883C14.9482 3.7718 14.9645 3.77328 14.9808 3.77328H18.0404C18.2482 3.77328 18.4063 3.93211 18.4063 4.14067C18.4063 4.34923 18.2474 4.50657 18.0404 4.50657H14.9808C14.8168 4.50657 14.684 4.63942 14.684 4.80344C14.684 4.96747 14.8168 5.10032 14.9808 5.10032H17.1526C17.3605 5.10032 17.5186 5.25915 17.5186 5.4677C17.5186 5.67627 17.3605 5.83509 17.1526 5.83509H13.0371V5.83435C12.873 5.83435 12.7402 5.9672 12.7402 6.13122V6.83111C12.2733 6.59212 11.8777 6.23662 11.592 5.80094V5.8002C11.537 5.71633 11.4428 5.66661 11.3426 5.66661H10.659V2.61406H11.3426C11.4435 2.61406 11.537 2.56359 11.592 2.47898C12.1308 1.65812 13.0571 1.1178 14.12 1.1178L14.1199 1.11847ZM8.96899 2.1887H10.066V6.09036H8.96899V2.1887ZM6.42764 2.61398H8.37598V5.66652H7.28566H7.27823H6.42764L6.42764 2.61398ZM7.48307 6.26027H8.37596V6.38719C8.37596 6.46586 8.40713 6.54156 8.4628 6.59723C8.51847 6.65364 8.59417 6.68481 8.67285 6.68481H10.3629H10.3621C10.4408 6.68481 10.5165 6.65364 10.5722 6.59723C10.6279 6.54157 10.659 6.46587 10.659 6.38719V6.26027H11.2194C11.6091 6.79243 12.1242 7.2266 12.7402 7.4834V8.37551H12.6133V8.37625C12.4493 8.37625 12.3164 8.5091 12.3164 8.67313V10.3638C12.3164 10.5279 12.4493 10.66 12.6133 10.66H12.7402V11.2196C12.208 11.6092 11.7731 12.125 11.5163 12.7418H10.6241V12.6134C10.6241 12.5347 10.593 12.459 10.5373 12.4034C10.4816 12.3477 10.4059 12.3165 10.3273 12.3165H8.63722C8.55855 12.3165 8.48284 12.3477 8.42717 12.4034C8.3715 12.459 8.34033 12.5347 8.34033 12.6134V12.7418H7.78144C7.39177 12.2089 6.8752 11.7747 6.25841 11.5172V10.6251H6.38682C6.55085 10.6251 6.6837 10.4922 6.6837 10.3282V8.63824C6.6837 8.55957 6.65253 8.48387 6.59687 8.4282C6.5412 8.37253 6.46549 8.34136 6.38681 8.34136H6.25841V7.7825C6.79058 7.39284 7.22551 6.87703 7.48233 6.26027L7.48307 6.26027ZM13.334 6.42801H16.3867V8.37627H13.334V6.42801ZM2.18812 8.93506H6.08993V10.032H2.18812V8.93506ZM12.9103 8.96995H16.8121V10.0669H16.7089C16.7008 10.0662 16.6926 10.0662 16.6837 10.0654C16.68 10.0662 16.6763 10.0662 16.6725 10.0669H13.0609C13.0535 10.0662 13.0453 10.0662 13.0371 10.0654C13.0327 10.0662 13.0275 10.0662 13.023 10.0669H12.9102L12.9103 8.96995ZM2.61279 10.625H5.66546V11.7116H5.6662C5.66546 11.7168 5.66546 11.722 5.6662 11.7272V12.5733H2.61353L2.61279 10.625ZM13.3342 10.6599H16.3868V11.3435C16.3868 11.4437 16.4381 11.5372 16.5219 11.5921C17.3428 12.1309 17.8832 13.0572 17.8832 14.1201V16.573C17.8832 16.7808 17.7243 16.9374 17.5158 16.9374C17.3072 16.9374 17.1484 16.78 17.1484 16.573V14.981V14.9646C17.1484 14.9639 17.1476 14.9632 17.1476 14.9624C17.1476 14.9572 17.1469 14.9528 17.1469 14.9483C17.1461 14.9431 17.1454 14.9379 17.1447 14.9335C17.1447 14.9327 17.1439 14.932 17.1439 14.932C17.1432 14.9268 17.1424 14.9223 17.1417 14.9171C17.1409 14.9164 17.1409 14.9157 17.1409 14.9149C17.1387 14.9053 17.1357 14.8956 17.1328 14.8867C17.132 14.8852 17.132 14.8845 17.1313 14.883C17.1298 14.8793 17.1283 14.8756 17.1268 14.8711C17.1268 14.8704 17.1261 14.8689 17.1254 14.8674C17.1239 14.8637 17.1224 14.86 17.1202 14.8563C17.1194 14.8555 17.1187 14.8541 17.1179 14.8526C17.1165 14.8489 17.115 14.8459 17.1127 14.8422C17.112 14.8407 17.1113 14.8392 17.1105 14.8377C17.109 14.8348 17.1068 14.831 17.1053 14.8281C17.1053 14.8281 17.1046 14.8281 17.1046 14.8273C17.1024 14.8229 17.0994 14.8192 17.0964 14.8147C17.0957 14.8125 17.0942 14.811 17.0934 14.8095C17.092 14.808 17.0912 14.8073 17.0905 14.8058C17.0845 14.7984 17.0786 14.791 17.0719 14.7835C17.0704 14.7813 17.0682 14.7791 17.066 14.7769C17.0608 14.7709 17.0548 14.765 17.0489 14.7598C17.0482 14.7591 17.0474 14.7583 17.0467 14.7583C17.043 14.7553 17.0393 14.7516 17.0356 14.7494C17.0341 14.7479 17.0318 14.7464 17.0304 14.745C17.0274 14.7427 17.0252 14.7412 17.0222 14.739H17.0214C17.0125 14.7323 17.0036 14.7271 16.994 14.7212C16.9925 14.7205 16.991 14.7197 16.9895 14.719C16.988 14.7182 16.9866 14.7175 16.9858 14.7167C16.9821 14.7153 16.9784 14.7138 16.9747 14.7123C16.971 14.7101 16.9673 14.7086 16.9636 14.7071C16.9628 14.7064 16.9613 14.7064 16.9606 14.7056C16.9598 14.7056 16.9591 14.7049 16.9584 14.7049C16.9539 14.7034 16.9495 14.7012 16.945 14.6997C16.942 14.6989 16.9391 14.6982 16.9354 14.6967C16.9346 14.6967 16.9339 14.696 16.9324 14.696C16.9272 14.6945 16.922 14.693 16.9168 14.6923C16.9161 14.6915 16.9153 14.6915 16.9146 14.6915C16.9094 14.69 16.9049 14.6893 16.8997 14.6885C16.8982 14.6878 16.8968 14.6878 16.8953 14.6878C16.8916 14.6871 16.8871 14.6863 16.8834 14.6863H16.8827C16.8715 14.6848 16.8611 14.6841 16.85 14.6841C16.7877 14.6841 16.7268 14.7041 16.6756 14.7412C16.663 14.7501 16.6511 14.7605 16.6407 14.7709C16.5962 14.8155 16.5672 14.8726 16.5576 14.935C16.5546 14.9498 16.5531 14.9654 16.5531 14.981V17.4941C16.5531 17.7019 16.3958 17.86 16.1872 17.86C15.9786 17.86 15.8198 17.7012 15.8198 17.4941V14.9804L15.8205 14.9811C15.8205 14.9752 15.8205 14.9693 15.8198 14.9633C15.8191 14.9581 15.8191 14.9537 15.8183 14.9485C15.8183 14.9477 15.8176 14.9463 15.8176 14.9455C15.8176 14.9418 15.8168 14.9388 15.8161 14.9351C15.8161 14.9329 15.8153 14.9307 15.8153 14.9277C15.8139 14.924 15.8131 14.9195 15.8124 14.9151C15.8116 14.9136 15.8116 14.9121 15.8109 14.9106C15.8109 14.9091 15.8101 14.9084 15.8101 14.9069C15.8087 14.9025 15.8072 14.8973 15.8057 14.8928C15.8049 14.8898 15.8042 14.8861 15.8027 14.8832C15.802 14.8809 15.8005 14.8787 15.7998 14.8757C15.799 14.8735 15.7975 14.8706 15.7968 14.8676C15.796 14.8668 15.7953 14.8654 15.7946 14.8639C15.7931 14.8602 15.7916 14.8565 15.7901 14.8527C15.7886 14.8498 15.7871 14.8461 15.7857 14.8431C15.7842 14.8416 15.7834 14.8394 15.7827 14.8379C15.7805 14.8342 15.779 14.8312 15.7767 14.8275C15.776 14.826 15.7745 14.8245 15.7738 14.8231C15.7701 14.8171 15.7656 14.8104 15.7612 14.8045C15.7589 14.8015 15.7567 14.7993 15.7545 14.7963C15.7515 14.7926 15.7478 14.7882 15.7448 14.7845C15.7441 14.7845 15.7441 14.7837 15.7433 14.7837C15.7359 14.7748 15.7278 14.7666 15.7188 14.7592C15.7151 14.7555 15.7114 14.7525 15.707 14.7488C15.7062 14.7488 15.7055 14.7481 15.7047 14.7473C15.701 14.7444 15.6973 14.7422 15.6936 14.7392C15.6929 14.7384 15.6914 14.7377 15.6906 14.737C15.6869 14.7347 15.6832 14.7325 15.6795 14.7303C15.678 14.7288 15.6765 14.7281 15.6751 14.7273C15.6721 14.7251 15.6684 14.7236 15.6654 14.7214H15.6647C15.6602 14.7184 15.655 14.7162 15.6506 14.7139C15.6483 14.7125 15.6461 14.7117 15.6431 14.7102C15.6357 14.7073 15.6276 14.7036 15.6194 14.7006C15.6164 14.6998 15.6135 14.6991 15.6097 14.6976C15.6075 14.6969 15.606 14.6969 15.6038 14.6961C15.6001 14.6947 15.5964 14.6939 15.5927 14.6932C15.5912 14.6924 15.5897 14.6924 15.5875 14.6917C15.5778 14.6895 15.5674 14.688 15.5578 14.6865H15.5548C15.5496 14.6857 15.5444 14.685 15.5392 14.685H15.5385C15.5326 14.6843 15.5274 14.6843 15.5214 14.6843C15.5058 14.6843 15.4895 14.6857 15.4739 14.6887C15.4665 14.6895 15.4598 14.6917 15.4531 14.6932C15.4435 14.6954 15.4338 14.6984 15.4242 14.7013C15.4183 14.7036 15.4123 14.7058 15.4064 14.7088C15.3975 14.7125 15.3886 14.7162 15.3797 14.7206C15.3745 14.7243 15.3685 14.7273 15.3626 14.731C15.3537 14.737 15.3448 14.7429 15.3366 14.7496C15.3322 14.7533 15.3284 14.757 15.324 14.7607C15.3158 14.7674 15.3084 14.7756 15.3017 14.783C15.2973 14.7882 15.2928 14.7926 15.2891 14.7978C15.2832 14.8052 15.278 14.8127 15.2728 14.8208C15.2683 14.8275 15.2646 14.8334 15.2609 14.8401C15.2564 14.8483 15.252 14.8572 15.2483 14.8661C15.2461 14.872 15.2438 14.878 15.2416 14.8839C15.2379 14.895 15.2349 14.9062 15.2327 14.9173C15.2312 14.9225 15.2297 14.927 15.229 14.9322C15.226 14.9485 15.2245 14.9648 15.2245 14.9811V18.0411C15.2245 18.2489 15.0664 18.407 14.8571 18.407C14.6486 18.407 14.4912 18.2489 14.4912 18.0411V14.9817L14.492 14.981C14.492 14.975 14.4912 14.9691 14.4912 14.9632C14.4912 14.9617 14.4905 14.9602 14.4905 14.958C14.4905 14.9542 14.4897 14.9498 14.4897 14.9453C14.489 14.9401 14.4882 14.9342 14.4875 14.929C14.4868 14.9283 14.4868 14.9283 14.4868 14.9275C14.486 14.9223 14.4845 14.9179 14.4838 14.9127C14.483 14.9119 14.483 14.9112 14.483 14.9097C14.4823 14.909 14.4823 14.9075 14.4816 14.906C14.4808 14.9016 14.4793 14.8971 14.4779 14.8926C14.4764 14.8874 14.4741 14.8815 14.4719 14.8763V14.8756C14.4704 14.8719 14.4689 14.8674 14.4667 14.8637C14.4667 14.8622 14.466 14.8607 14.4652 14.8592C14.4645 14.8578 14.4638 14.857 14.463 14.8555C14.4586 14.8459 14.4534 14.8362 14.4482 14.8273C14.4459 14.8244 14.4445 14.8207 14.4422 14.8177C14.4407 14.8162 14.4393 14.814 14.4385 14.8125C14.4326 14.8036 14.4259 14.7962 14.4192 14.788C14.4185 14.7865 14.417 14.7858 14.4163 14.7843C14.4155 14.7843 14.4155 14.7835 14.4148 14.7835C14.4111 14.7791 14.4073 14.7754 14.4036 14.7709C14.3977 14.765 14.391 14.759 14.3843 14.7539C14.3821 14.7516 14.3791 14.7494 14.3762 14.7472C14.3747 14.7457 14.3725 14.7442 14.371 14.7427C14.368 14.7405 14.365 14.739 14.3621 14.7368C14.3613 14.736 14.3606 14.736 14.3598 14.7353C14.3502 14.7286 14.3413 14.7234 14.3309 14.7182C14.3294 14.7175 14.3279 14.7167 14.3264 14.716C14.3257 14.7153 14.3257 14.7153 14.325 14.7153C14.3153 14.7101 14.3049 14.7056 14.2945 14.7019C14.2901 14.7004 14.2856 14.6989 14.2812 14.6974C14.2804 14.6974 14.2789 14.6967 14.2782 14.6967C14.2737 14.6952 14.2685 14.6937 14.2641 14.693C14.2634 14.693 14.2626 14.6923 14.2611 14.6923C14.253 14.69 14.2441 14.6885 14.2351 14.6871C14.2329 14.6871 14.23 14.6863 14.227 14.6863C14.2218 14.6856 14.2159 14.6848 14.2107 14.6848H14.2099C14.204 14.6841 14.1988 14.6841 14.1928 14.6841C14.1142 14.6841 14.0385 14.7153 13.9828 14.7709C13.9271 14.8266 13.896 14.9023 13.896 14.981V17.1527C13.896 17.3605 13.7379 17.5186 13.5286 17.5186C13.32 17.5186 13.1612 17.3597 13.1612 17.1527V13.038L13.1619 13.0388C13.1619 12.8747 13.029 12.7419 12.865 12.7419H12.1651C12.4041 12.2751 12.7603 11.8787 13.196 11.5922H13.1953C13.2792 11.5373 13.3296 11.4438 13.3289 11.3436L13.3342 10.6599ZM6.25866 12.1695C6.72551 12.4078 7.12187 12.7647 7.40762 13.2004H7.40836C7.46329 13.2843 7.55681 13.3348 7.65701 13.3348H8.3406V16.3873H7.65701C7.55681 16.3873 7.46329 16.4378 7.40836 16.5216C6.86952 17.3425 5.94323 17.8828 4.88031 17.8828H2.42806C2.22023 17.8828 2.06215 17.724 2.06215 17.5154C2.06215 17.3069 2.22098 17.148 2.42806 17.148H4.01864V17.1488C4.03423 17.1488 4.04907 17.1473 4.06392 17.1451H4.06688C4.06763 17.1451 4.06837 17.1443 4.06837 17.1443C4.07356 17.1436 4.07802 17.1429 4.08321 17.1414H4.08544C4.08989 17.1399 4.09435 17.1391 4.0988 17.1377C4.09954 17.1377 4.10028 17.1369 4.10103 17.1369C4.10548 17.1362 4.10993 17.1347 4.11439 17.1332C4.11513 17.1325 4.11661 17.1325 4.11736 17.1317C4.12107 17.1302 4.12552 17.1287 4.12923 17.1273C4.13591 17.125 4.14185 17.1221 4.14779 17.1191C4.1515 17.1176 4.15521 17.1161 4.15818 17.1139C4.16931 17.108 4.18044 17.1013 4.19084 17.0939C4.1938 17.0916 4.19603 17.0902 4.199 17.0879C4.20048 17.0864 4.20271 17.085 4.2042 17.0842C4.20568 17.0835 4.20642 17.0827 4.20716 17.0812C4.21088 17.079 4.21384 17.0761 4.21756 17.0731C4.21904 17.0716 4.22127 17.0694 4.22349 17.0671C4.22572 17.0657 4.2272 17.0634 4.22943 17.062C4.23092 17.0597 4.23314 17.0575 4.23537 17.056C4.23685 17.0538 4.23908 17.0516 4.24056 17.0493C4.24279 17.0479 4.24428 17.0456 4.24576 17.0441C4.24799 17.0419 4.24947 17.0389 4.2517 17.0367C4.25318 17.0352 4.25467 17.033 4.25615 17.0315C4.25838 17.0286 4.25986 17.0263 4.26209 17.0234C4.2658 17.0174 4.27025 17.0115 4.27396 17.0048C4.27619 17.0018 4.27768 16.9981 4.2799 16.9952C4.28064 16.9937 4.28139 16.9922 4.28213 16.9907C4.28361 16.9877 4.2851 16.984 4.28732 16.9803C4.28807 16.9788 4.28881 16.9781 4.28955 16.9766C4.29104 16.9729 4.29252 16.9692 4.294 16.9655C4.29623 16.9603 4.29846 16.9558 4.29994 16.9506V16.9499V16.9491C4.30068 16.9484 4.30068 16.9477 4.30143 16.9462C4.30217 16.9447 4.30217 16.9432 4.30291 16.9417C4.3044 16.938 4.30514 16.935 4.30662 16.9313C4.30736 16.9269 4.30885 16.9224 4.30959 16.918V16.9172C4.30959 16.9165 4.31033 16.9165 4.31033 16.9157C4.31108 16.9105 4.31256 16.9061 4.3133 16.9009V16.9002C4.31479 16.889 4.31627 16.8786 4.31701 16.8682V16.8675V16.8519C4.31701 16.6879 4.18416 16.5558 4.02013 16.5558H1.50632C1.29849 16.5558 1.1404 16.3977 1.1404 16.1884C1.1404 15.9798 1.29849 15.821 1.50632 15.821H4.02013V15.8218C4.032 15.8218 4.04388 15.821 4.05575 15.8195C4.05724 15.8195 4.05798 15.8195 4.05946 15.8188C4.06392 15.818 4.06911 15.8173 4.07357 15.8166C4.07802 15.8158 4.08247 15.8151 4.08618 15.8143C4.08841 15.8136 4.08989 15.8136 4.09138 15.8128C4.09509 15.8121 4.0988 15.8114 4.10251 15.8099C4.10474 15.8091 4.10622 15.8091 4.10845 15.8084C4.11216 15.8069 4.11513 15.8062 4.1181 15.8054C4.11958 15.8047 4.12033 15.8039 4.12107 15.8039C4.12552 15.8025 4.12997 15.801 4.13368 15.7987C4.13665 15.798 4.13962 15.7965 4.14259 15.7958C4.14333 15.795 4.14408 15.7943 4.14482 15.7943C4.14927 15.7921 4.15372 15.7898 4.15818 15.7876C4.1604 15.7869 4.16189 15.7854 4.16412 15.7846C4.16708 15.7824 4.1708 15.7809 4.17376 15.7787C4.17525 15.778 4.17673 15.7772 4.17822 15.7757C4.18193 15.7735 4.18564 15.7713 4.18935 15.7691C4.19009 15.7683 4.19158 15.7676 4.19232 15.7668C4.19603 15.7639 4.19974 15.7609 4.20345 15.7587C4.2042 15.7579 4.20494 15.7572 4.20568 15.7572C4.21013 15.7535 4.21384 15.7505 4.2183 15.7468C4.2183 15.7468 4.21904 15.7468 4.21904 15.746C4.22795 15.7386 4.23611 15.7305 4.24353 15.7216C4.2465 15.7178 4.25021 15.7141 4.25318 15.7097C4.25392 15.7089 4.25467 15.7089 4.25467 15.7082C4.25615 15.7067 4.25689 15.7045 4.25838 15.703C4.2606 15.7 4.26283 15.6971 4.26506 15.6934C4.26803 15.6896 4.27025 15.6859 4.27248 15.683C4.27322 15.6815 4.27471 15.68 4.27545 15.6785C4.27768 15.6748 4.27916 15.6718 4.28139 15.6681C4.28213 15.6666 4.28287 15.6644 4.28361 15.6629C4.28807 15.6548 4.29178 15.6466 4.29549 15.6384C4.29697 15.6355 4.29772 15.6325 4.2992 15.6295C4.29994 15.6273 4.30068 15.6251 4.30143 15.6228C4.30291 15.6191 4.30365 15.6162 4.30514 15.6132V15.6117C4.30736 15.6065 4.30885 15.6013 4.30959 15.5954C4.31033 15.5939 4.31033 15.5924 4.31108 15.5909C4.31182 15.5865 4.31256 15.582 4.31404 15.5783V15.5739C4.31553 15.5694 4.31627 15.565 4.31627 15.5605C4.31701 15.5598 4.31701 15.559 4.31701 15.5583C4.31776 15.5531 4.31776 15.5479 4.3185 15.5427V15.5412C4.31924 15.536 4.31924 15.5301 4.31924 15.5249C4.31924 15.5189 4.31924 15.513 4.3185 15.5063C4.31776 15.5019 4.31776 15.4967 4.31701 15.4915C4.31701 15.4907 4.31701 15.4892 4.31627 15.4885C4.31627 15.4841 4.31553 15.4796 4.31404 15.4744V15.4707C4.31256 15.467 4.31182 15.4625 4.31108 15.4588C4.31033 15.4566 4.31033 15.4551 4.30959 15.4536V15.4514C4.30811 15.4462 4.30662 15.441 4.30514 15.4366C4.30365 15.4328 4.30291 15.4299 4.30143 15.4269C4.30068 15.4239 4.29994 15.4217 4.29846 15.4195C4.29772 15.4165 4.29623 15.4135 4.29549 15.4113C4.29475 15.4098 4.29475 15.4091 4.294 15.4083C4.29252 15.4039 4.29029 15.3994 4.28807 15.3957C4.28436 15.3868 4.2799 15.3787 4.27471 15.3712C4.27396 15.3698 4.27322 15.3683 4.27248 15.3668C4.26654 15.3579 4.2606 15.3497 4.25467 15.3416C4.25392 15.3408 4.25318 15.3401 4.25318 15.3393L4.2517 15.3378C4.24873 15.3341 4.24576 15.3304 4.24205 15.3267C4.23463 15.3178 4.22646 15.3096 4.21756 15.3022C4.21384 15.2985 4.21013 15.2955 4.20568 15.2926C4.20048 15.2881 4.19529 15.2844 4.18935 15.2799C4.18787 15.2792 4.18638 15.2785 4.18564 15.2777C4.18341 15.2762 4.18044 15.2748 4.17822 15.2733C4.17599 15.271 4.17302 15.2696 4.17005 15.2681C4.16115 15.2629 4.15224 15.2577 4.14259 15.254C4.13443 15.2503 4.12701 15.2473 4.11884 15.2443C4.11513 15.2428 4.11216 15.2421 4.10845 15.2406C4.10177 15.2384 4.09435 15.2369 4.08618 15.2347C4.08247 15.2339 4.07802 15.2332 4.07431 15.2324C4.07282 15.2317 4.07134 15.2317 4.06985 15.2317C4.0654 15.231 4.06095 15.2302 4.05649 15.2295H4.05352C4.04833 15.2287 4.04313 15.228 4.03794 15.228H4.0372C4.03126 15.228 4.02532 15.2273 4.02012 15.2273H0.960616C0.752786 15.2273 0.594699 15.0684 0.594699 14.8599C0.594699 14.6513 0.752791 14.494 0.960616 14.494H4.02012V14.4947C4.03126 14.4947 4.04313 14.494 4.05427 14.4925C4.05724 14.4917 4.0602 14.4917 4.06317 14.491C4.07282 14.4895 4.08173 14.488 4.09138 14.4858C4.09583 14.4843 4.10103 14.4836 4.10548 14.4821C4.10622 14.4813 4.10771 14.4813 4.10845 14.4813C4.12404 14.4762 4.13888 14.4702 4.15373 14.4628C4.15521 14.4621 4.15669 14.4613 4.15818 14.4606C4.15892 14.4598 4.15966 14.4591 4.16115 14.4591C4.1708 14.4539 4.1797 14.448 4.18861 14.442C4.18935 14.442 4.18935 14.4413 4.19009 14.4413C4.19826 14.4353 4.20642 14.4294 4.21384 14.4227C4.21756 14.4197 4.22052 14.4168 4.22349 14.4138L4.23017 14.4071C4.23092 14.4071 4.23166 14.4064 4.23166 14.4056C4.23537 14.4019 4.23908 14.3982 4.24279 14.3945C4.24428 14.3923 4.24576 14.3901 4.24799 14.3886V14.3878C4.2517 14.3834 4.25541 14.3789 4.25838 14.3752C4.2606 14.3722 4.26283 14.3693 4.26432 14.3663C4.2658 14.3648 4.26728 14.3626 4.26803 14.3611C4.27025 14.3574 4.27248 14.3544 4.27471 14.3515V14.35C4.28139 14.3403 4.28658 14.3299 4.29104 14.3196C4.29178 14.3181 4.29252 14.3166 4.29326 14.3151C4.29475 14.3114 4.29623 14.3069 4.29772 14.3032C4.29846 14.3017 4.2992 14.3003 4.29994 14.2988C4.30365 14.2891 4.30662 14.2787 4.30885 14.2683C4.30885 14.2676 4.30959 14.2669 4.30959 14.2661C4.31108 14.2609 4.31182 14.2557 4.31256 14.2513C4.3133 14.2505 4.3133 14.2498 4.3133 14.249C4.31479 14.2379 4.31627 14.2268 4.31701 14.2156V14.2149C4.31776 14.209 4.31776 14.203 4.31776 14.1978C4.31776 14.1919 4.31776 14.186 4.31701 14.18V14.1793C4.31701 14.1741 4.31627 14.1689 4.31553 14.1629C4.31553 14.1629 4.31553 14.1622 4.31479 14.1615C4.31479 14.157 4.31404 14.1526 4.31256 14.1481V14.1437C4.31108 14.1392 4.31033 14.134 4.30885 14.1296V14.1288C4.30885 14.1281 4.30885 14.1273 4.30811 14.1266C4.30811 14.1251 4.30736 14.1244 4.30736 14.1229C4.30588 14.1184 4.3044 14.114 4.30365 14.1095C4.30217 14.1051 4.30068 14.1006 4.2992 14.0962C4.29846 14.0947 4.29772 14.0939 4.29697 14.0924C4.29549 14.088 4.294 14.0843 4.29178 14.0798C4.29104 14.0761 4.28881 14.0731 4.28732 14.0694C4.28361 14.0613 4.27842 14.0524 4.27396 14.0442C4.27174 14.0405 4.26951 14.0375 4.26728 14.0346C4.26654 14.0323 4.26506 14.0308 4.26357 14.0286C4.26135 14.0256 4.25986 14.0234 4.25764 14.0205C4.25615 14.0182 4.25467 14.016 4.25318 14.0145C4.25244 14.013 4.25096 14.0123 4.25021 14.0108C4.24353 14.0026 4.23685 13.9952 4.22943 13.9878C4.22423 13.9826 4.21904 13.9774 4.2131 13.9729C4.20494 13.9655 4.19677 13.9596 4.18787 13.9529C4.18638 13.9522 4.18416 13.9507 4.18267 13.9492C4.17896 13.9477 4.17599 13.9455 4.17302 13.9433C4.1708 13.9425 4.16931 13.9418 4.16783 13.9403C4.15892 13.9358 4.15001 13.9306 4.14111 13.9269C4.13962 13.9262 4.13814 13.9255 4.13665 13.9247C4.1322 13.9232 4.12849 13.9217 4.12404 13.9203C4.12329 13.9195 4.12181 13.9188 4.12033 13.9188C4.11587 13.9165 4.11142 13.9158 4.10697 13.9143C4.10622 13.9136 4.10474 13.9136 4.104 13.9136C4.0988 13.9121 4.09435 13.9106 4.08989 13.9091C4.08915 13.9091 4.08767 13.9091 4.08693 13.9084C4.08173 13.9076 4.07653 13.9062 4.07208 13.9054H4.06985C4.06911 13.9054 4.06837 13.9047 4.06763 13.9047C4.06243 13.9039 4.05724 13.9032 4.05204 13.9024C4.04685 13.9017 4.04091 13.9017 4.03571 13.901H4.03497H4.0179H1.84611C1.63828 13.901 1.48019 13.7421 1.48019 13.5336C1.48019 13.325 1.63828 13.1662 1.84611 13.1662H5.96168C6.12497 13.1662 6.25783 13.0333 6.25783 12.8693L6.25866 12.1695ZM8.93359 12.9102H10.0306V16.8119H8.93359V12.9102ZM10.6244 13.334H12.5727V16.3866H10.6244V13.334Z" fill="#3F3F3F"/>
</svg>
