<svg width="56" height="54" viewBox="0 0 56 54" fill="none" xmlns="http://www.w3.org/2000/svg">
<path d="M9.80784 0H45.5768C51.0001 0 55.3846 4.38447 55.3846 9.80784V44.1922C55.3846 49.6155 51.0001 54 45.5768 54H9.80784C4.38447 54 0 49.6155 0 44.1922V9.80784C0 4.38447 4.38447 0 9.80784 0Z" fill="#001E36"/>
<path d="M19.8462 13.7307C19.1539 13.7307 18.4616 13.7307 17.7463 13.7541C17.0307 13.777 16.3613 13.777 15.7382 13.8004C15.1151 13.8233 14.5383 13.8233 13.9845 13.8462C13.4536 13.8692 13.0845 13.8692 12.6921 13.8692C12.5307 13.8692 12.4614 13.9613 12.4614 14.1232V37.8693C12.4614 38.077 12.5536 38.1696 12.7383 38.1696H17.2154C17.3768 38.1462 17.4923 38.0078 17.469 37.8464V30.4387C17.9073 30.4387 18.2305 30.4387 18.4616 30.4616C18.6922 30.4846 19.0613 30.4846 19.6151 30.4846C21.5077 30.4846 23.2385 30.2769 24.8074 29.7001C26.3076 29.1462 27.6 28.177 28.523 26.8846C29.446 25.5923 29.9076 23.9538 29.9076 21.9692C29.9076 20.9307 29.7233 19.9385 29.3771 18.9693C29.0103 17.9819 28.4357 17.0847 27.6922 16.3385C26.8146 15.486 25.7582 14.8395 24.5997 14.446C23.3073 13.9613 21.7383 13.7307 19.8462 13.7307ZM20.3611 18.2761C21.1832 18.2917 21.9837 18.4354 22.7305 18.7383C23.3999 18.9923 23.9537 19.4539 24.3462 20.0536C24.7142 20.6743 24.8984 21.3868 24.8771 22.1081C24.8771 23.1232 24.646 23.9081 24.1614 24.4848C23.6534 25.0616 23.0074 25.5004 22.2693 25.7081C21.4151 25.985 20.5151 26.123 19.6151 26.123H18.3919C18.115 26.123 17.8156 26.1001 17.4923 26.0772V18.3233C17.6537 18.2999 17.977 18.277 18.4386 18.3004C18.877 18.277 19.4074 18.277 20.0076 18.277C20.1258 18.2741 20.2437 18.2738 20.3611 18.2761ZM39.7154 19.4544C38.0768 19.4544 36.7151 19.7079 35.6308 20.2618C34.6386 20.7235 33.7845 21.4616 33.2077 22.3846C32.7002 23.2387 32.4228 24.1846 32.4228 25.1772C32.4031 25.9935 32.5855 26.8021 32.9537 27.531C33.3853 28.3071 33.9846 28.9772 34.7079 29.4924C35.723 30.1867 36.8246 30.7453 37.9846 31.1539C39.1153 31.5922 39.8768 31.9384 40.2463 32.2383C40.6154 32.5385 40.8002 32.8384 40.8002 33.1616C40.8002 33.577 40.5462 33.9695 40.1771 34.1309C39.7617 34.3386 39.1386 34.4541 38.2616 34.4541C37.3386 34.4541 36.4153 34.3385 35.5382 34.1079C34.5311 33.883 33.5656 33.5015 32.6768 32.9773C32.6076 32.931 32.5383 32.9081 32.4691 32.9544C32.3999 33.0002 32.377 33.0924 32.377 33.1616V37.177C32.354 37.3618 32.4691 37.5232 32.6309 37.6153C33.3793 37.9649 34.1709 38.2133 34.9848 38.3539C36.0233 38.5616 37.0613 38.6538 38.1227 38.6538C39.7842 38.6538 41.1693 38.4002 42.2999 37.9156C43.3384 37.5002 44.2383 36.785 44.8844 35.8616C45.4894 34.9539 45.8033 33.8833 45.7844 32.7925C45.8071 31.9686 45.6248 31.1519 45.2539 30.4158C44.8151 29.6309 44.192 28.9848 43.4305 28.5002C42.3164 27.8006 41.1236 27.235 39.8768 26.8153C39.32 26.5849 38.7733 26.3308 38.2382 26.0538C37.9383 25.8924 37.6614 25.6847 37.4537 25.4307C37.3153 25.246 37.2231 25.0387 37.2231 24.831C37.2231 24.6233 37.2923 24.3927 37.4074 24.2079C37.5693 23.9773 37.8228 23.8155 38.1227 23.7462C38.5614 23.6311 39.046 23.5615 39.5073 23.5844C40.3844 23.5844 41.2381 23.6999 42.0922 23.8847C42.8771 24.0461 43.6153 24.3001 44.3076 24.6696C44.3997 24.7155 44.5153 24.7155 44.723 24.6696C44.759 24.6429 44.7883 24.608 44.8083 24.5679C44.8284 24.5277 44.8387 24.4834 44.8385 24.4385V20.6772C44.8385 20.5846 44.8151 20.4924 44.7922 20.4002C44.7459 20.3081 44.6537 20.2155 44.5616 20.1925C43.9251 19.9324 43.2582 19.754 42.5768 19.6616C41.6293 19.5237 40.673 19.4547 39.7154 19.4544Z" fill="#31A8FF"/>
</svg>
