<svg width="68" height="78" viewBox="0 0 68 78" fill="none" xmlns="http://www.w3.org/2000/svg">
<path d="M34.0033 29.7632C42.7898 29.7632 49.9375 23.089 49.9375 14.8785C49.9375 6.67412 42.7898 0 34.0033 0C25.2102 0 18.0625 6.67412 18.0625 14.8785C18.0625 23.089 25.2102 29.7632 34.0033 29.7632ZM34.0033 2.67026C41.2069 2.67026 47.0778 8.14907 47.0778 14.8785C47.0778 21.611 41.2102 27.0929 34.0033 27.0929C26.7931 27.0929 20.9222 21.6141 20.9222 14.8785C20.9222 8.14907 26.7931 2.67026 34.0033 2.67026Z" fill="url(#paint0_linear_447_2328)"/>
<path d="M65.1796 69.2022H62.92C65.1602 65.4148 63.1231 58.1386 61.1052 51.073C60.7829 49.9446 60.4702 48.832 60.1737 47.7445C57.4854 37.8438 49.0886 34.0596 45.6009 32.8935C44.953 32.6735 44.2342 32.9501 43.9151 33.5378L38.8544 42.7282L37.868 39.7234C39.1961 38.9942 40.0857 37.605 40.0857 36.046C40.0857 33.7138 38.1356 31.8154 35.7406 31.8154H32.2658C29.8741 31.8154 27.9272 33.7138 27.9272 36.046C27.9272 37.605 28.8136 38.9942 30.1449 39.7234L29.1553 42.7313L24.1011 33.541C23.7787 32.9501 23.0567 32.6829 22.4088 32.8966C18.9276 34.0627 10.521 37.8438 7.83599 47.7476C7.53944 48.8351 7.22677 49.9446 6.90444 51.0761C4.89306 58.1418 2.84623 65.4148 5.08646 69.2022H2.82689C1.27323 69.2022 0 70.4374 0 71.9524V75.2432C0 76.7644 1.27323 77.9996 2.82689 77.9996H65.1796C66.7332 77.9996 68 76.7644 68 75.2432V71.9524C68 70.4374 66.7332 69.2022 65.1796 69.2022ZM50.7228 69.2022H17.2869L17.3062 51.9656L50.7228 51.9845V69.2022ZM12.4518 69.1771C11.5009 69.1645 10.5017 69.1142 9.39932 68.979C8.27114 68.8439 7.81342 68.3473 7.56845 67.9921C5.75047 65.3394 7.89078 57.8337 9.60239 51.8053C9.93117 50.6707 10.2438 49.5392 10.5468 48.4485C12.6356 40.7386 18.7503 37.2687 22.2122 35.8888L28.2495 46.8707C28.5203 47.3547 29.0425 47.6251 29.6162 47.5842C30.1771 47.5339 30.6542 47.1662 30.825 46.6444L33.2296 39.2896C33.3553 38.903 33.2973 38.485 33.0717 38.1424C32.8525 37.7998 32.4786 37.5704 32.0692 37.5232C31.3085 37.4258 30.7283 36.794 30.7283 36.0491C30.7283 35.2257 31.4213 34.5499 32.2658 34.5499H35.7406C36.5916 34.5499 37.2782 35.2257 37.2782 36.0491C37.2782 36.7909 36.7044 37.4258 35.9437 37.5232C35.5279 37.5735 35.1636 37.7998 34.9348 38.1424C34.7156 38.485 34.6576 38.903 34.7833 39.2896L37.1815 46.6381C37.3523 47.1599 37.8293 47.5339 38.3902 47.5842C38.9446 47.6282 39.4926 47.3579 39.7569 46.8707L45.8007 35.8888C49.2562 37.2687 55.3709 40.7386 57.4596 48.4485C57.7626 49.5423 58.0817 50.6707 58.4041 51.8053C60.1157 57.8337 62.256 65.3425 60.438 67.9921C60.193 68.3473 59.7321 68.8439 58.6007 68.979C57.5047 69.1142 56.5119 69.1645 55.5546 69.1771C55.474 69.1771 55.3902 69.1833 55.3096 69.2022H53.5271V51.9813C53.5271 50.4664 52.2539 49.2312 50.7002 49.2312H17.3062C15.7461 49.2312 14.4793 50.4664 14.4793 51.9813V69.2022H12.7065C12.6227 69.1833 12.5421 69.1771 12.4518 69.1771ZM65.1989 75.2432C65.1989 75.262 65.186 75.2683 65.1796 75.2683L2.80755 75.2432L2.82689 71.9335L65.1989 71.9524V75.2432Z" fill="url(#paint1_linear_447_2328)"/>
<path d="M21.5594 66.7108H46.4342C47.1929 66.7108 47.8125 66.0223 47.8125 65.1713C47.8125 64.3204 47.1961 63.6318 46.4342 63.6318H21.5594C20.8008 63.6318 20.1875 64.3204 20.1875 65.1713C20.1875 66.0223 20.8008 66.7108 21.5594 66.7108Z" fill="url(#paint2_linear_447_2328)"/>
<defs>
<linearGradient id="paint0_linear_447_2328" x1="34" y1="0" x2="34" y2="29.7632" gradientUnits="userSpaceOnUse">
<stop offset="0.17" stop-color="#63388B"/>
<stop offset="1" stop-color="#327EB2"/>
</linearGradient>
<linearGradient id="paint1_linear_447_2328" x1="34" y1="31.8154" x2="34" y2="77.9996" gradientUnits="userSpaceOnUse">
<stop offset="0.17" stop-color="#63388B"/>
<stop offset="1" stop-color="#327EB2"/>
</linearGradient>
<linearGradient id="paint2_linear_447_2328" x1="34" y1="63.6318" x2="34" y2="66.7108" gradientUnits="userSpaceOnUse">
<stop offset="0.17" stop-color="#63388B"/>
<stop offset="1" stop-color="#327EB2"/>
</linearGradient>
</defs>
</svg>
