<svg width="79" height="78" viewBox="0 0 79 78" fill="none" xmlns="http://www.w3.org/2000/svg">
<path d="M63.741 11.1011L63.0028 15.395C62.9012 15.9795 63.1434 16.5718 63.6239 16.9185C64.1043 17.2692 64.7489 17.3159 65.2684 17.0354L69.1356 15.0093C69.1356 15.0093 72.9911 17.0315 72.9989 17.0354C73.4949 17.2964 74.1747 17.2575 74.6434 16.9185C75.1238 16.5717 75.366 15.9794 75.2644 15.395L74.5262 11.1011L77.6551 8.06184C78.0808 7.64882 78.2332 7.02923 78.0496 6.46425C77.866 5.89926 77.3777 5.49014 76.7879 5.40442L72.4676 4.77708L70.5379 0.868906C70.2762 0.335088 69.7332 0 69.1356 0C68.5418 0 67.9989 0.335098 67.7333 0.868906L65.7997 4.77319L61.4794 5.40053C60.8896 5.48625 60.4013 5.89537 60.2177 6.46036C60.0341 7.02535 60.1864 7.64489 60.6122 8.05795L63.741 11.1011ZM67.0652 7.74234C67.5731 7.66831 68.0145 7.3488 68.241 6.88902L69.1356 5.08106L70.0301 6.88902C70.2567 7.3488 70.6981 7.66831 71.2059 7.74234L73.2059 8.03458L71.7567 9.44124C71.3895 9.79971 71.2215 10.314 71.3075 10.8206L71.6512 12.8078L69.8621 11.8687C69.4051 11.6271 68.8621 11.6271 68.409 11.8687L66.616 12.8078L66.9598 10.8206C67.0457 10.314 66.8778 9.79974 66.5106 9.44124L65.0614 8.03458L67.0652 7.74234Z" fill="url(#paint0_linear_447_2303)"/>
<path d="M3.60003 11.1013L2.86175 15.3952C2.76019 15.9797 3.00237 16.5719 3.48284 16.9187C3.94378 17.2538 4.60394 17.3122 5.12734 17.0356L8.99064 15.0095L12.8578 17.0356C13.3813 17.3122 14.0219 17.2694 14.5023 16.9187C14.9828 16.5719 15.225 15.9796 15.1234 15.3952L14.3851 11.1013L17.514 8.06203C17.9398 7.64901 18.0922 7.02943 17.9086 6.46445C17.725 5.89946 17.2367 5.49033 16.6469 5.40461L12.3266 4.77728L10.393 0.87299C9.86954 -0.190736 8.11568 -0.190736 7.59218 0.87299L5.65858 4.77728L1.33828 5.40461C0.748437 5.49033 0.260177 5.89946 0.0765769 6.46445C-0.107013 7.02944 0.0453272 7.64897 0.471107 8.06203L3.60003 11.1013ZM6.92423 7.74253C7.43204 7.6685 7.87345 7.34899 8.10003 6.88921L8.99456 5.08125L9.88909 6.88921C10.1156 7.34899 10.5571 7.6685 11.0649 7.74253L13.0649 8.03477L11.6157 9.44143C11.2485 9.7999 11.0805 10.3142 11.1665 10.8208L11.5102 12.808L9.71722 11.8689C9.49066 11.7481 9.24066 11.6897 8.99066 11.6897C8.74066 11.6897 8.49066 11.7481 8.2641 11.8689L6.475 12.808L6.81875 10.8208C6.90468 10.3142 6.73672 9.79993 6.36953 9.44143L4.92033 8.03477L6.92423 7.74253Z" fill="url(#paint1_linear_447_2303)"/>
<path d="M70.0222 31.8969C69.4363 31.0786 68.0652 31.0786 67.4792 31.8969L59.6667 42.8075C59.3269 43.2828 59.28 43.9063 59.5495 44.4284C59.8191 44.9427 60.3542 45.27 60.9401 45.27H64.0651V57.7387C64.0651 58.5998 64.7644 59.2973 65.6276 59.2973H71.8776C72.7409 59.2973 73.4401 58.5998 73.4401 57.7387V45.27H76.5651C77.1511 45.27 77.6862 44.9427 77.9557 44.4245C78.2214 43.9024 78.1784 43.279 77.8386 42.8036L70.0222 31.8969ZM71.8777 42.1521C71.0145 42.1521 70.3152 42.8496 70.3152 43.7107V56.1794H67.1902V43.7107C67.1902 42.8496 66.491 42.1521 65.6277 42.1521H63.9754L68.7527 35.4814L73.53 42.1521H71.8777Z" fill="url(#paint2_linear_447_2303)"/>
<path d="M14.0652 57.7378V45.2692H17.1902C17.7762 45.2692 18.3113 44.9419 18.5808 44.4236C18.8464 43.9015 18.8035 43.2781 18.4636 42.8027L10.6511 31.8921C10.0652 31.0739 8.69414 31.0739 8.10814 31.8921L0.295637 42.8027C-0.0442028 43.2781 -0.0910822 43.9015 0.178448 44.4236C0.444068 44.9419 0.979228 45.2692 1.56515 45.2692H4.69015V57.7378C4.69015 58.599 5.38937 59.2964 6.25265 59.2964H12.5026C13.3659 59.2964 14.0652 58.599 14.0652 57.7378ZM10.9402 43.7111V56.1798H7.81523V43.7111C7.81523 42.85 7.11601 42.1525 6.25273 42.1525H4.60043L9.37773 35.4818L14.155 42.1525H12.5027C11.6394 42.1525 10.9402 42.85 10.9402 43.7111Z" fill="url(#paint3_linear_447_2303)"/>
<path d="M62.2719 62.4022C60.0571 60.5124 57.5024 59.0824 54.6586 58.3421C53.1313 57.9408 51.5492 57.7381 49.9711 57.7381H48.4008C52.2094 54.8937 54.6899 50.37 54.6899 45.2695V38.8793C58.2524 38.1546 60.9399 35.0063 60.9399 31.2423V26.5666C60.9399 21.4115 56.7329 17.2151 51.5649 17.2151H26.5649C21.3969 17.2151 17.1899 21.4115 17.1899 26.5666V31.2423C17.1899 35.0063 19.8774 38.1547 23.4399 38.8793V45.2695C23.4399 50.37 25.9204 54.8937 29.729 57.7381H28.1587C23.7368 57.7381 19.4556 59.3239 16.0927 62.1996C13.9872 64.0115 12.2372 66.174 11.0849 68.7106C9.96773 71.1264 9.37793 73.7994 9.37793 76.4411C9.37793 77.3022 10.0771 77.9997 10.9404 77.9997H32.8154C33.6787 77.9997 34.3779 77.3022 34.3779 76.4411C34.3779 75.58 33.6787 74.8826 32.8154 74.8826H12.5854C12.7612 73.2071 13.2143 71.5471 13.9252 70.0081C14.9057 67.8962 16.3666 66.0766 18.1283 64.5609C20.9213 62.1685 24.4838 60.8514 28.1553 60.8514H49.9673C53.6431 60.8514 57.2017 62.1684 59.9903 64.5569C63.0801 67.2104 65.127 70.8029 65.5411 74.879L45.3141 74.8829C44.4508 74.8829 43.7516 75.5803 43.7516 76.4414C43.7516 77.3026 44.4508 78 45.3141 78H67.1891C68.0524 78 68.7516 77.3026 68.7516 76.4414C68.7516 71.0292 66.3891 65.9084 62.2719 62.4022ZM20.3149 31.2425V26.5668C20.3149 23.1301 23.1196 20.3324 26.5649 20.3324H51.5649C55.0102 20.3324 57.8149 23.1301 57.8149 26.5668V31.2425C57.8149 33.8219 55.7133 35.9183 53.1274 35.9183C51.6586 35.9183 50.2602 35.2208 49.3774 34.048L46.5649 30.3074C46.272 29.9138 45.8071 29.6839 45.3149 29.6839C44.8227 29.6839 44.3579 29.9138 44.0649 30.3074C41.4204 33.8219 37.2172 35.9183 32.8149 35.9183H25.0024C22.4165 35.9183 20.3149 33.8219 20.3149 31.2425ZM26.5649 45.2692V39.0349H32.8149C37.5102 39.0349 42.018 37.0867 45.2369 33.7357L46.8775 35.9178C48.0259 37.4451 49.7134 38.4816 51.565 38.8634V45.2692C51.565 52.1426 45.9556 57.7379 39.065 57.7379C32.1744 57.7379 26.5649 52.1426 26.5649 45.2692Z" fill="url(#paint4_linear_447_2303)"/>
<path d="M40.627 76.4414C40.627 78.5182 37.502 78.5182 37.502 76.4414C37.502 74.3646 40.627 74.3646 40.627 76.4414Z" fill="url(#paint5_linear_447_2303)"/>
<defs>
<linearGradient id="paint0_linear_447_2303" x1="69.1336" y1="0" x2="69.1336" y2="17.2176" gradientUnits="userSpaceOnUse">
<stop offset="0.335" stop-color="#63388B"/>
<stop offset="1" stop-color="#327EB2"/>
</linearGradient>
<linearGradient id="paint1_linear_447_2303" x1="8.99258" y1="0.0751953" x2="8.99258" y2="17.2162" gradientUnits="userSpaceOnUse">
<stop offset="0.335" stop-color="#63388B"/>
<stop offset="1" stop-color="#327EB2"/>
</linearGradient>
<linearGradient id="paint2_linear_447_2303" x1="68.7518" y1="31.2832" x2="68.7518" y2="59.2973" gradientUnits="userSpaceOnUse">
<stop offset="0.335" stop-color="#63388B"/>
<stop offset="1" stop-color="#327EB2"/>
</linearGradient>
<linearGradient id="paint3_linear_447_2303" x1="9.37882" y1="31.2784" x2="9.37882" y2="59.2964" gradientUnits="userSpaceOnUse">
<stop offset="0.335" stop-color="#63388B"/>
<stop offset="1" stop-color="#327EB2"/>
</linearGradient>
<linearGradient id="paint4_linear_447_2303" x1="39.0648" y1="17.2151" x2="39.0648" y2="78" gradientUnits="userSpaceOnUse">
<stop offset="0.335" stop-color="#63388B"/>
<stop offset="1" stop-color="#327EB2"/>
</linearGradient>
<linearGradient id="paint5_linear_447_2303" x1="39.0645" y1="74.8838" x2="39.0645" y2="77.999" gradientUnits="userSpaceOnUse">
<stop offset="0.335" stop-color="#63388B"/>
<stop offset="1" stop-color="#327EB2"/>
</linearGradient>
</defs>
</svg>
