<svg width="78" height="78" viewBox="0 0 78 78" fill="none" xmlns="http://www.w3.org/2000/svg">
<path d="M60.0817 10.501H60.0904C61.8557 11.8066 63.4953 13.277 64.9874 14.8861C64.4409 14.8124 63.89 14.769 63.3348 14.769C62.7579 14.769 62.1767 14.8124 61.5825 14.9165V14.9208C60.2075 15.1594 58.8803 15.7102 57.8306 16.1397V16.144C56.4643 16.6992 55.6706 16.9942 55.1111 16.9942H55.1024C54.4995 16.9898 53.7101 16.3435 53.5322 15.1161C53.3674 14.0057 53.9052 13.1642 54.2869 12.943C54.3346 12.917 54.3954 12.8867 54.4734 12.8606C54.7641 12.7652 55.1327 12.7348 55.7617 12.7001C56.2302 12.6698 56.9979 12.6394 57.6919 12.4095V12.4139C58.8066 12.0452 59.5613 11.2557 60.0817 10.501ZM59.4831 25.8254V25.8298H59.5308C59.6089 25.8298 59.687 25.8298 59.7607 25.8384C60.0904 25.8601 60.42 25.9295 60.7497 26.038V26.0423C61.5738 26.3112 62.3415 26.7927 63.2915 27.4086C64.0982 27.9291 65.1218 28.5971 66.2365 28.9657V28.97C67.0173 29.226 67.7936 29.3257 68.557 29.3257C70.0274 29.3257 71.5152 28.9353 72.8641 28.4929H72.8684C73.9007 31.8111 74.4516 35.3418 74.4516 39.0025C74.4516 47.2869 71.6106 54.9121 66.848 60.9459V60.9502C65.3169 60.0611 64.3367 59.3888 63.8986 58.5516C63.4302 57.6581 63.4692 56.2007 63.968 54.9731C64.1025 54.6478 64.263 54.3442 64.4798 53.9408C65.048 52.8955 65.7811 51.5509 65.755 49.3518C65.7246 46.7884 64.5536 42.0085 60.8841 40.4037C59.3313 39.7271 57.4879 39.7444 56.1693 39.7357H56.1649C54.0483 39.7227 53.0984 39.6099 52.5996 39.1198C51.5066 38.0355 51.281 33.7024 53.1158 30.2411C54.686 27.2829 57.4966 25.8254 59.4831 25.8254ZM19.6392 9.29513H19.6479V9.29947C19.7867 9.34718 19.9342 9.37754 20.0903 9.39055C22.9054 9.63345 24.9569 9.86333 26.0196 10.5573C26.783 11.0605 26.9218 11.7849 26.5054 12.4702C26.2711 12.8519 25.8634 13.2683 25.3342 13.7845V13.7888C25.0653 14.0447 24.6576 14.4394 24.393 14.8037C24.3453 14.8688 24.2933 14.9382 24.2455 15.025C24.02 15.398 23.352 16.9595 24.8658 17.8833C25.2084 18.0915 25.5554 18.1696 25.7897 18.2043C25.833 18.213 25.8417 18.213 25.8417 18.213C26.0976 18.2477 26.3666 18.2563 26.6094 18.2563C27.1386 18.2563 27.824 18.213 28.4919 18.1696H28.4962C29.4158 18.1045 30.4003 18.0395 31.3546 18.0395C32.5734 18.0395 33.4973 18.1522 34.0395 18.3734C34.7682 18.6684 34.959 19.3147 34.7074 19.9393C34.6294 20.1345 34.5166 20.2776 34.4125 20.3644C34.1132 20.6073 33.571 20.7504 32.0399 20.9976C30.7343 21.2102 29.0037 21.4834 27.0735 22.2771V22.2815C23.5906 23.7129 18.3033 27.4343 18.0776 31.3511C17.8304 35.6929 23.4257 38.0914 26.1582 38.7724V38.7768C27.2816 39.0544 28.2793 39.1628 29.1684 39.2582C30.0879 39.358 30.9033 39.4491 31.8272 39.679C32.712 39.9002 33.7269 40.2602 34.9892 40.9151C39.2703 43.1316 44.614 47.6946 44.8873 50.6656C45.0608 52.5047 43.1957 54.3178 40.2462 56.8465C39.292 57.6663 38.2596 58.5424 37.44 59.4229C35.2843 61.7391 34.6206 63.9859 34.1348 65.6211C33.8919 66.4192 33.7357 66.931 33.5145 67.3431C33.1675 67.998 32.8162 68.1498 32.7555 68.1672V68.1715C32.7034 68.1455 32.4562 68.0154 32.1179 67.4255C31.4152 66.2066 30.7863 63.9078 29.9665 60.8629C29.3506 58.5597 28.6566 55.9615 27.7674 53.5152C25.7765 48.0241 22.7577 43.1314 19.1663 40.6503V40.6547C17.4573 39.4706 15.692 38.8937 14.2519 38.4123H14.2476C12.8856 37.9568 11.875 37.6055 11.0249 37.0199V37.0243C10.8167 36.8768 10.6215 36.7207 10.435 36.5428C8.53095 34.7298 7.35982 30.7654 6.02814 25.9595H6.0238C8.73903 19.0934 13.5361 13.2814 19.6392 9.29513ZM39.0021 3.54801H39.0108C45.634 3.54801 51.8324 5.36537 57.1322 8.52741L57.1279 8.53175C56.8894 8.87007 56.7375 8.99152 56.5814 9.04357H56.5857C56.4209 9.09562 56.1563 9.12164 55.5578 9.15634C55.0243 9.1867 54.1784 9.22574 53.3673 9.49032V9.49466C53.0897 9.58141 52.7991 9.70286 52.5172 9.86768C50.6217 10.9607 49.6935 13.3897 50.0188 15.6278C50.3311 17.7444 51.988 20.516 55.0763 20.5378V20.5421C55.085 20.5378 55.0893 20.5378 55.0936 20.5378L55.1023 20.5421H55.111C56.5249 20.5378 58.0517 19.8829 59.1708 19.4231C60.2941 18.9633 61.2614 18.5773 62.1897 18.4125H62.1983C62.5714 18.3431 62.9487 18.3127 63.3347 18.3127C64.9525 18.3127 66.6224 18.8245 68.596 19.4622L68.5874 19.4665C69.7758 21.2536 70.7995 23.1577 71.6496 25.1572H71.6409C70.4871 25.5346 69.4852 25.7818 68.557 25.7818C68.1146 25.7818 67.7199 25.7211 67.3513 25.5997C66.744 25.4001 66.1108 25.0054 65.2129 24.4242V24.4285C64.3237 23.856 63.1873 23.11 61.8644 22.6719C61.2962 22.4854 60.6803 22.3466 60.0166 22.2989H60.0123C59.8388 22.2859 59.6566 22.2815 59.4831 22.2815H59.4788H59.4745C56.0218 22.2815 52.0922 24.6065 49.9841 28.5752C47.9629 32.3878 47.2472 38.8072 50.1056 41.64C51.8406 43.3576 54.5385 43.2709 56.1433 43.2796V43.2839C57.6701 43.2926 58.711 43.3273 59.4614 43.6526C61.1054 44.3726 62.181 47.1616 62.2071 49.3954C62.2244 50.6402 61.8688 51.3126 61.3613 52.2537V52.2581C61.1531 52.6354 60.8972 53.1082 60.6803 53.6417C59.943 55.4591 59.6437 58.0702 60.7541 60.1912C61.5738 61.7614 63.0876 62.8457 64.4713 63.6698L64.4626 63.6741C58.0172 70.3234 48.9905 74.457 39.0015 74.457C19.4177 74.457 3.54697 58.5818 3.54697 39.0024C3.54697 36.6906 3.76818 34.4307 4.18891 32.2447H4.19325C5.12579 34.9686 6.3012 37.5061 7.98854 39.1109V39.1152C8.31819 39.4232 8.6565 39.6965 9.00784 39.9394C10.3437 40.8589 11.8532 41.3533 13.1284 41.7784C14.6074 42.2685 15.913 42.7153 17.1492 43.5698C19.8557 45.4392 22.545 49.5251 24.4317 54.7258C25.2602 57.0029 25.9194 59.4579 26.5397 61.7828C27.2944 64.5934 28.0491 67.4692 29.0424 69.1955C29.7234 70.3796 30.6645 71.2991 31.8921 71.6115C32.1783 71.6809 32.4646 71.7156 32.7509 71.7156C32.8853 71.7156 33.0241 71.7112 33.1543 71.6939C34.8285 71.503 36.0169 70.2018 36.6502 69.0003V69.0047C37.0622 68.2239 37.3182 67.3564 37.5307 66.6364C37.9948 65.0837 38.4762 63.5178 40.0377 61.8436C40.6927 61.1366 41.5558 60.3949 42.5534 59.5404C44.8913 57.5365 48.7993 54.4092 48.422 50.3407C47.9449 45.2181 40.6927 39.8744 36.6197 37.7667C35.1276 36.9946 33.8524 36.5305 32.6856 36.2399C31.5015 35.945 30.4649 35.8322 29.554 35.7324C28.6475 35.6327 27.8755 35.5459 27.0166 35.3334C23.7808 34.5223 21.5557 32.6832 21.6208 31.5555C21.7075 30.0028 24.8695 27.0229 28.4176 25.5612H28.4219C29.9357 24.9366 31.302 24.7111 32.6075 24.4986V24.5029C33.8046 24.3034 35.4572 24.0865 36.6543 23.1149C37.2702 22.6118 37.7169 21.9611 37.9945 21.2671C38.8316 19.1938 38.2591 16.2531 35.366 15.082V15.0863C34.1471 14.5918 32.6378 14.4964 31.3539 14.4964C30.6816 14.4964 30.0093 14.5224 29.3804 14.5571C29.4324 14.4747 29.4845 14.3966 29.5322 14.3186H29.5365L29.5322 14.3142H29.5365C30.9939 11.9113 30.2479 9.08766 27.962 7.5912C27.1249 7.04035 26.0752 6.68467 24.9649 6.44173H24.9605C29.2633 4.57662 34.0135 3.54801 39.0021 3.54801ZM39.0021 0H38.9978C17.4586 0 0 17.463 0 39.0022C0 60.5414 17.463 78 39.0022 78C60.5414 78 78 60.5414 78 39.0022C78 17.463 60.5413 0 39.0021 0Z" fill="url(#paint0_linear_447_2313)"/>
<defs>
<linearGradient id="paint0_linear_447_2313" x1="39" y1="0" x2="39" y2="78" gradientUnits="userSpaceOnUse">
<stop offset="0.315" stop-color="#63388B"/>
<stop offset="1" stop-color="#327EB2"/>
</linearGradient>
</defs>
</svg>
