<svg width="65" height="78" viewBox="0 0 65 78" fill="none" xmlns="http://www.w3.org/2000/svg">
<path d="M62.5024 77.9961H10.9404C10.0771 77.9961 9.37793 77.2373 9.37793 76.3005V10.1702C9.37793 9.23341 10.0771 8.47461 10.9404 8.47461H62.5024C63.3657 8.47461 64.0649 9.23341 64.0649 10.1702V76.3005C64.0649 77.2373 63.3657 77.9961 62.5024 77.9961ZM12.5024 74.6048H60.9404V11.867H12.5024V74.6048Z" fill="url(#paint0_linear_447_2317)"/>
<path d="M10.9403 77.9957H1.56534C1.10831 77.9957 0.67472 77.7795 0.37784 77.4065C0.0809599 77.0292 -0.0518489 76.5333 0.0184611 76.0458L9.39346 9.91556C9.51846 9.03807 10.245 8.41917 11.0576 8.48276C11.874 8.55058 12.5029 9.28819 12.5029 10.1742V76.3044C12.5029 77.2412 11.8036 78 10.9404 78L10.9403 77.9957ZM3.38564 74.6045H9.37784V32.3455L3.38564 74.6045Z" fill="url(#paint1_linear_447_2317)"/>
<path d="M46.8774 37.3006H21.8774C21.0142 37.3006 20.3149 36.5418 20.3149 35.6049C20.3149 34.6681 21.0142 33.9093 21.8774 33.9093H46.8774C47.7407 33.9093 48.4399 34.6681 48.4399 35.6049C48.4399 36.5418 47.7407 37.3006 46.8774 37.3006Z" fill="url(#paint2_linear_447_2317)"/>
<path d="M46.8774 59.3434H21.8774C21.0142 59.3434 20.3149 58.5846 20.3149 57.6478C20.3149 56.7109 21.0142 55.9521 21.8774 55.9521H46.8774C47.7407 55.9521 48.4399 56.7109 48.4399 57.6478C48.4399 58.5846 47.7407 59.3434 46.8774 59.3434Z" fill="url(#paint3_linear_447_2317)"/>
<path d="M40.6274 49.1693H21.8774C21.0142 49.1693 20.3149 48.4105 20.3149 47.4737C20.3149 46.5369 21.0142 45.7781 21.8774 45.7781H40.6274C41.4907 45.7781 42.1899 46.5369 42.1899 47.4737C42.1899 48.4105 41.4907 49.1693 40.6274 49.1693Z" fill="url(#paint4_linear_447_2317)"/>
<path d="M54.6904 27.1259H37.5024C36.6392 27.1259 35.9399 26.3671 35.9399 25.4303V18.6478C35.9399 17.7109 36.6392 16.9521 37.5024 16.9521H54.6904C55.5537 16.9521 56.2529 17.7109 56.2529 18.6478V25.4303C56.2529 26.3671 55.5537 27.1259 54.6904 27.1259ZM39.0654 23.7347H53.1274V20.3434H39.0654V23.7347Z" fill="url(#paint5_linear_447_2317)"/>
<path d="M20.3145 24.8663C17.7286 24.8663 15.627 22.5856 15.627 19.7794V16.9519C15.627 16.015 16.3262 15.2562 17.1895 15.2562C18.0527 15.2562 18.752 16.015 18.752 16.9519V19.7794C18.752 20.7162 19.4512 21.475 20.3145 21.475C21.1777 21.475 21.877 20.7162 21.877 19.7794V5.22678C21.877 4.21364 21.1192 3.39126 20.1856 3.39126H17.3223C16.3887 3.39126 15.6309 4.21364 15.6309 5.22678V10.1738C15.6309 11.1106 14.9316 11.8694 14.0684 11.8694C13.2051 11.8694 12.5059 11.1106 12.5059 10.1738V5.22678C12.5059 2.34426 14.6661 0 17.3223 0H20.1856C22.8418 0 25.002 2.34426 25.002 5.22678V19.7794C25.002 22.5856 22.9004 24.8663 20.3145 24.8663Z" fill="url(#paint6_linear_447_2317)"/>
<defs>
<linearGradient id="paint0_linear_447_2317" x1="36.7214" y1="8.47461" x2="36.7214" y2="77.9961" gradientUnits="userSpaceOnUse">
<stop offset="0.405" stop-color="#63388B"/>
<stop offset="1" stop-color="#327EB2"/>
</linearGradient>
<linearGradient id="paint1_linear_447_2317" x1="6.25143" y1="8.47827" x2="6.25143" y2="78" gradientUnits="userSpaceOnUse">
<stop offset="0.405" stop-color="#63388B"/>
<stop offset="1" stop-color="#327EB2"/>
</linearGradient>
<linearGradient id="paint2_linear_447_2317" x1="34.3774" y1="33.9093" x2="34.3774" y2="37.3006" gradientUnits="userSpaceOnUse">
<stop offset="0.405" stop-color="#63388B"/>
<stop offset="1" stop-color="#327EB2"/>
</linearGradient>
<linearGradient id="paint3_linear_447_2317" x1="34.3774" y1="55.9521" x2="34.3774" y2="59.3434" gradientUnits="userSpaceOnUse">
<stop offset="0.405" stop-color="#63388B"/>
<stop offset="1" stop-color="#327EB2"/>
</linearGradient>
<linearGradient id="paint4_linear_447_2317" x1="31.2524" y1="45.7781" x2="31.2524" y2="49.1693" gradientUnits="userSpaceOnUse">
<stop offset="0.405" stop-color="#63388B"/>
<stop offset="1" stop-color="#327EB2"/>
</linearGradient>
<linearGradient id="paint5_linear_447_2317" x1="46.0964" y1="16.9521" x2="46.0964" y2="27.1259" gradientUnits="userSpaceOnUse">
<stop offset="0.405" stop-color="#63388B"/>
<stop offset="1" stop-color="#327EB2"/>
</linearGradient>
<linearGradient id="paint6_linear_447_2317" x1="18.7539" y1="0" x2="18.7539" y2="24.8663" gradientUnits="userSpaceOnUse">
<stop offset="0.405" stop-color="#63388B"/>
<stop offset="1" stop-color="#327EB2"/>
</linearGradient>
</defs>
</svg>
