<svg width="61" height="54" viewBox="0 0 61 54" fill="none" xmlns="http://www.w3.org/2000/svg">
<path d="M30.3444 32.3633C33.337 32.3633 35.763 29.9373 35.763 26.9447C35.763 23.9521 33.337 21.5261 30.3444 21.5261C27.3518 21.5261 24.9258 23.9521 24.9258 26.9447C24.9258 29.9373 27.3518 32.3633 30.3444 32.3633Z" fill="#00D8FF"/>
<path d="M30.3442 39.3683C23.8314 39.5253 17.3349 38.6474 11.0973 36.7674C8.21595 35.854 5.52857 34.4151 3.17097 32.5235C2.27102 31.8776 1.5216 31.0445 0.974221 30.0814C0.426843 29.1184 0.0944874 28.0482 0 26.9445C0 23.3617 3.93608 19.8505 10.5294 17.553C16.934 15.5189 23.6251 14.5323 30.3442 14.6313C36.9737 14.5396 43.5752 15.5084 49.8989 17.501C52.6734 18.3866 55.2695 19.7559 57.5673 21.5454C58.4506 22.1625 59.1878 22.9657 59.7271 23.8985C60.2664 24.8314 60.5945 25.8711 60.6884 26.9445C60.6884 30.6682 56.2885 34.4417 49.2009 36.7869C43.0843 38.6062 36.7248 39.4768 30.3442 39.3683ZM30.3442 17.2235C23.9159 17.1395 17.5152 18.0774 11.3812 20.0022C5.3124 22.1198 2.59226 25.0155 2.59226 26.938C2.59226 28.9494 5.51614 32.1117 11.9361 34.3073C17.9032 36.0977 24.1163 36.9309 30.3442 36.776C36.4486 36.8852 42.5337 36.0592 48.3882 34.3268C55.053 32.1182 58.0875 28.9516 58.0875 26.9445C57.9777 26.2559 57.7266 25.5974 57.3498 25.0107C56.973 24.4239 56.4788 23.9215 55.8983 23.5351C53.8429 21.9469 51.5237 20.7334 49.0471 19.9502C42.9975 18.0524 36.6838 17.1319 30.3442 17.2235Z" fill="#00D8FF"/>
<path d="M18.0333 53.9705C17.0222 53.9936 16.023 53.7483 15.1376 53.2595C12.0338 51.4692 10.9588 46.3064 12.2614 39.4464C13.6993 32.882 16.1877 26.5927 19.6307 20.8216C22.8625 15.0331 26.9989 9.79842 31.8832 5.31572C34.0365 3.35442 36.5196 1.78928 39.2179 0.692568C40.1944 0.236411 41.259 0 42.3368 0C43.4146 0 44.4793 0.236411 45.4558 0.692568C48.6831 2.55223 49.7516 8.24827 48.2453 15.5591C46.7649 21.7679 44.3409 27.7129 41.058 33.1869C37.9402 38.9072 33.934 44.0963 29.1891 48.5605C26.9584 50.5996 24.3694 52.2082 21.5532 53.3051C20.426 53.7246 19.2358 53.9496 18.0333 53.9705ZM21.8762 22.1091C18.5923 27.6354 16.2072 33.6485 14.8103 39.9233C13.6117 46.2414 14.7626 50.0409 16.4359 51.0076C18.1698 52.0111 22.379 51.0596 27.4898 46.5947C32.0201 42.3184 35.8439 37.3511 38.8191 31.8777C41.9639 26.6445 44.289 20.9606 45.7137 15.0237C47.1312 8.14207 45.9066 3.92856 44.1683 2.9272C43.5167 2.67796 42.8206 2.56642 42.1237 2.59962C41.4269 2.63282 40.7445 2.81004 40.1195 3.1201C37.7174 4.11162 35.509 5.51888 33.5955 7.27726C28.9293 11.5714 24.9782 16.5827 21.8913 22.1221L21.8762 22.1091Z" fill="#00D8FF"/>
<path d="M42.6488 53.9985C39.7119 53.9985 35.9817 52.2212 32.0976 48.8812C27.1283 44.3572 22.922 39.0604 19.6414 33.1954C16.2409 27.5041 13.7721 21.3058 12.3284 14.835C11.7038 11.9879 11.5878 9.05276 11.9859 6.16526C12.0795 5.09446 12.4063 4.0571 12.9432 3.12592C13.4801 2.19474 14.2142 1.39228 15.0941 0.774831C18.317 -1.09134 23.7855 0.82685 29.3667 5.78162C34.0063 10.1646 37.9462 15.2332 41.0492 20.8107C44.4478 26.369 46.9426 32.4317 48.4402 38.7723C49.0928 41.7237 49.1935 44.7704 48.7371 47.7585C48.6289 48.8605 48.2835 49.9261 47.7245 50.882C47.1656 51.838 46.4063 52.6616 45.4989 53.2963C44.6276 53.7781 43.6442 54.0204 42.6488 53.9985ZM21.8847 31.8906C25.0321 37.4955 29.0501 42.5648 33.7883 46.9088C38.6628 51.1028 42.5295 52.0045 44.192 51.027C45.9259 50.0191 47.2047 45.9053 45.8869 39.2491C44.4436 33.1952 42.0507 27.408 38.7972 22.1025C35.8361 16.7643 32.0754 11.9108 27.6457 7.71065C22.3918 3.04631 18.1306 2.00377 16.3945 3.00946C15.8537 3.44946 15.4099 3.99668 15.0909 4.61665C14.772 5.23662 14.5849 5.91591 14.5414 6.61175C14.197 9.18687 14.3093 11.8025 14.873 14.3387C16.262 20.5266 18.6298 26.4533 21.8868 31.895L21.8847 31.8906Z" fill="#00D8FF"/>
</svg>
