<svg width="61" height="55" viewBox="0 0 61 55" fill="none" xmlns="http://www.w3.org/2000/svg">
<path d="M30.5001 32.5293C33.5081 32.5293 35.9466 30.0909 35.9466 27.0829C35.9466 24.0749 33.5081 21.6365 30.5001 21.6365C27.4922 21.6365 25.0537 24.0749 25.0537 27.0829C25.0537 30.0909 27.4922 32.5293 30.5001 32.5293Z" fill="#00D8FF"/>
<path d="M30.5 39.5705C23.9537 39.7283 17.4239 38.8459 11.1543 36.9563C8.25814 36.0382 5.55696 34.5919 3.18725 32.6906C2.28268 32.0414 1.52941 31.204 0.979223 30.236C0.429034 29.268 0.0949725 28.1924 0 27.083C0 23.4818 3.95629 19.9525 10.5835 17.6432C17.021 15.5987 23.7464 14.607 30.5 14.7065C37.1635 14.6144 43.799 15.5881 50.1551 17.5909C52.9438 18.4812 55.5533 19.8574 57.8629 21.6562C58.7507 22.2764 59.4918 23.0837 60.0338 24.0214C60.5758 24.959 60.9056 26.0041 61 27.083C61 30.8258 56.5775 34.6187 49.4536 36.9759C43.3055 38.8045 36.9133 39.6796 30.5 39.5705ZM30.5 17.3121C24.0387 17.2276 17.6051 18.1704 11.4397 20.105C5.33968 22.2335 2.60557 25.1441 2.60557 27.0764C2.60557 29.0982 5.54446 32.2767 11.9974 34.4836C17.9951 36.2831 24.2401 37.1207 30.5 36.965C36.6357 37.0747 42.7521 36.2445 48.6366 34.5032C55.3357 32.2832 58.3857 29.1003 58.3857 27.083C58.2754 26.3908 58.023 25.729 57.6443 25.1392C57.2656 24.5494 56.7688 24.0444 56.1854 23.6561C54.1194 22.0597 51.7882 20.84 49.2989 20.0527C43.2182 18.1452 36.8722 17.22 30.5 17.3121Z" fill="#00D8FF"/>
<path d="M18.1258 54.2476C17.1095 54.2708 16.1052 54.0242 15.2152 53.533C12.0955 51.7335 11.0149 46.5442 12.3242 39.649C13.7695 33.0508 16.2707 26.7293 19.7314 20.9285C22.9798 15.1103 27.1374 9.84873 32.0468 5.34302C34.2112 3.37165 36.707 1.79847 39.4191 0.696125C40.4006 0.237625 41.4708 0 42.5541 0C43.6374 0 44.7075 0.237625 45.6891 0.696125C48.9329 2.56534 50.007 8.29062 48.4929 15.6389C47.0049 21.8797 44.5685 27.8552 41.2687 33.3573C38.1349 39.107 34.1082 44.3228 29.3389 48.8099C27.0967 50.8594 24.4945 52.4763 21.6638 53.5788C20.5308 54.0004 19.3345 54.2266 18.1258 54.2476ZM21.9884 22.2226C18.6876 27.7773 16.2903 33.8212 14.8862 40.1283C13.6815 46.4788 14.8383 50.2978 16.5202 51.2695C18.263 52.2782 22.4938 51.3218 27.6309 46.8339C32.1844 42.5357 36.0279 37.5429 39.0183 32.0414C42.1792 26.7813 44.5163 21.0683 45.9483 15.1008C47.3731 8.18387 46.1422 3.94873 44.395 2.94223C43.74 2.69171 43.0403 2.5796 42.3399 2.61297C41.6395 2.64634 40.9536 2.82447 40.3254 3.13612C37.911 4.13273 35.6912 5.54721 33.7679 7.31462C29.0777 11.6308 25.1064 16.6678 22.0036 22.2357L21.9884 22.2226Z" fill="#00D8FF"/>
<path d="M42.8674 54.2759C39.9155 54.2759 36.1662 52.4895 32.2622 49.1323C27.2673 44.5851 23.0394 39.2611 19.7419 33.366C16.324 27.6454 13.8425 21.4153 12.3914 14.9113C11.7636 12.0496 11.647 9.09936 12.0472 6.19703C12.1413 5.12073 12.4697 4.07804 13.0093 3.14208C13.549 2.20612 14.2869 1.39955 15.1713 0.778923C18.4108 -1.09683 23.9073 0.831209 29.5172 5.81142C34.1806 10.2169 38.1408 15.3115 41.2597 20.9176C44.6758 26.5045 47.1833 32.5983 48.6886 38.9715C49.3446 41.938 49.4458 45.0004 48.987 48.0038C48.8783 49.1115 48.5311 50.1826 47.9693 51.1434C47.4075 52.1043 46.6443 52.9321 45.7323 53.5701C44.8564 54.0543 43.868 54.2978 42.8674 54.2759ZM21.9967 32.0545C25.1603 37.6882 29.1989 42.7834 33.9614 47.1498C38.8611 51.3653 42.7476 52.2716 44.4186 51.2891C46.1614 50.2761 47.4468 46.1411 46.1222 39.4507C44.6715 33.3657 42.2663 27.5488 38.9961 22.2161C36.0198 16.8505 32.2398 11.9721 27.7874 7.75035C22.5065 3.06207 18.2234 2.01417 16.4784 3.02503C15.9348 3.46729 15.4887 4.01732 15.1681 4.64047C14.8475 5.26362 14.6595 5.9464 14.6157 6.64581C14.2696 9.23416 14.3825 11.8632 14.9491 14.4124C16.3452 20.6322 18.7251 26.5892 21.9989 32.0588L21.9967 32.0545Z" fill="#00D8FF"/>
</svg>
