<svg width="17" height="10" viewBox="0 0 17 10" fill="none" xmlns="http://www.w3.org/2000/svg">
<path d="M9.96416 1.32768C9.86882 1.25942 9.79222 1.17695 9.73895 1.08518C9.68568 0.993403 9.65683 0.894212 9.65411 0.793519C9.65139 0.692827 9.67486 0.592697 9.72312 0.499103C9.77138 0.405508 9.84345 0.320367 9.93501 0.248758C10.0266 0.177149 10.1358 0.120539 10.2561 0.0823054C10.3764 0.044072 10.5053 0.0249986 10.6353 0.0262225C10.7652 0.0274463 10.8934 0.0489424 11.0122 0.0894289C11.1311 0.129915 11.2381 0.188562 11.327 0.261872L16.504 4.23987C16.6857 4.37973 16.7883 4.56992 16.7892 4.76867C16.79 4.96741 16.6891 5.15847 16.5085 5.29986L11.3656 9.32179C11.2773 9.39585 11.1708 9.45541 11.0523 9.49691C10.9338 9.5384 10.8057 9.56099 10.6759 9.56332C10.546 9.56565 10.4168 9.54767 10.2962 9.51047C10.1756 9.47326 10.0659 9.41758 9.97374 9.34675C9.88156 9.27593 9.80878 9.1914 9.75972 9.09822C9.71066 9.00504 9.68634 8.90511 9.6882 8.8044C9.69007 8.70369 9.71808 8.60426 9.77056 8.51203C9.82305 8.41981 9.89894 8.33669 9.9937 8.26762L13.4909 5.53271L0.990971 5.58591C0.734379 5.587 0.487959 5.50903 0.305921 5.36916C0.123884 5.22928 0.0211403 5.03895 0.0202937 4.84004C0.0194471 4.64113 0.120567 4.44993 0.301407 4.30851C0.482247 4.16708 0.727995 4.08702 0.984587 4.08593L13.4845 4.03272L9.96416 1.32768Z" fill="white"/>
</svg>
