<svg width="18" height="15" viewBox="0 0 18 15" fill="none" xmlns="http://www.w3.org/2000/svg">
<path fill-rule="evenodd" clip-rule="evenodd" d="M0.5454 8.0347V10.7802C0.883038 10.72 1.18787 10.5499 1.4072 10.2992C1.62654 10.0485 1.74658 9.73299 1.74658 9.40728C1.74658 9.08157 1.62654 8.7661 1.4072 8.5154C1.18787 8.2647 0.883038 8.09453 0.5454 8.03432V8.0347ZM0.5454 5.78024H0.7838V6.33997C0.783798 6.4015 0.806933 6.46101 0.849051 6.50782C0.89117 6.55463 0.949512 6.58568 1.0136 6.59537C1.15978 6.62998 1.30304 6.67485 1.4422 6.72962C1.4468 6.73151 1.4514 6.73303 1.4558 6.73455C1.5972 6.79096 1.73392 6.85738 1.8648 6.93326C1.91688 6.9634 1.97815 6.97605 2.03873 6.96917C2.09932 6.96229 2.1557 6.93628 2.1988 6.89534L2.6166 6.49943L3.34 7.18525L2.9224 7.58134C2.87688 7.62444 2.84892 7.68141 2.84347 7.74218C2.83801 7.80295 2.85542 7.86358 2.8926 7.91335C3.05294 8.16537 3.17165 8.43918 3.2446 8.72526C3.25895 8.78138 3.29279 8.83129 3.34067 8.86699C3.38855 8.90268 3.44769 8.92208 3.5086 8.92207V8.92302H4.1V9.89211H3.5086C3.44381 9.8923 3.3812 9.91434 3.33199 9.95429C3.28277 9.99424 3.25017 10.0495 3.24 10.1102C3.20352 10.2491 3.15619 10.3852 3.0984 10.5174C3.03778 10.6557 2.96597 10.7892 2.8836 10.917C2.85183 10.9664 2.8385 11.0245 2.84575 11.0819C2.85301 11.1394 2.88042 11.1929 2.9236 11.2338L3.34 11.6301L2.617 12.3161L2.2 11.9194C2.15454 11.8763 2.09445 11.8498 2.03035 11.8446C1.96625 11.8394 1.90229 11.8559 1.8498 11.8912C1.58384 12.0429 1.29507 12.1555 0.9934 12.2249C0.934021 12.2384 0.881158 12.2704 0.84332 12.3158C0.805482 12.3613 0.784869 12.4175 0.7848 12.4754V13.0351H0.5454V11.3043C1.02807 11.2404 1.47011 11.0133 1.79002 10.6647C2.10992 10.3162 2.28612 9.8697 2.28612 9.40766C2.28612 8.94563 2.10992 8.49917 1.79002 8.15061C1.47011 7.80204 1.02807 7.57488 0.5454 7.511V5.78024ZM18 14.4456C17.9997 14.5925 17.938 14.7334 17.8284 14.8373C17.7188 14.9413 17.5702 14.9998 17.4152 15H0.5848C0.429783 14.9998 0.28119 14.9413 0.171576 14.8373C0.061962 14.7334 0.0002644 14.5925 0 14.4456V0.554418C0.0002644 0.407454 0.061962 0.266581 0.171576 0.162662C0.28119 0.058743 0.429783 0.000250664 0.5848 0H17.4152C17.5702 0.000250664 17.7188 0.058743 17.8284 0.162662C17.938 0.266581 17.9997 0.407454 18 0.554418V14.4456ZM17.4546 3.90842V14.4456C17.4544 14.4554 17.4502 14.4648 17.4428 14.4717C17.4354 14.4787 17.4256 14.4826 17.4152 14.4827H0.5848C0.574445 14.4826 0.564552 14.4787 0.5572 14.4717C0.549833 14.4648 0.545601 14.4554 0.5454 14.4456V13.5523H0.8026C0.942235 13.5521 1.07608 13.4994 1.17481 13.4058C1.27355 13.3122 1.32914 13.1853 1.3294 13.0529V12.6718C1.43967 12.6399 1.54693 12.6035 1.6512 12.5624C1.75547 12.5213 1.8584 12.4752 1.96 12.4242L2.2444 12.6936C2.3432 12.7871 2.4771 12.8396 2.6167 12.8396C2.7563 12.8396 2.8902 12.7871 2.989 12.6936L3.7384 11.9831C3.83703 11.8894 3.89243 11.7625 3.89243 11.6301C3.89243 11.4977 3.83703 11.3707 3.7384 11.277L3.4544 11.0078C3.50773 10.9127 3.5564 10.8148 3.6004 10.7139C3.6436 10.6149 3.6822 10.5133 3.7156 10.4105H4.1178C4.25741 10.4104 4.39126 10.3577 4.48999 10.2641C4.58871 10.1705 4.64424 10.0436 4.6444 9.91126V8.90633C4.64424 8.77395 4.58872 8.64704 4.49 8.55342C4.39128 8.45979 4.25743 8.4071 4.1178 8.4069H3.7156C3.68227 8.30338 3.64387 8.20225 3.6004 8.10353C3.55693 8.0048 3.50827 7.90684 3.4544 7.80963L3.7388 7.53792C3.83734 7.44417 3.89266 7.31722 3.89266 7.18487C3.89266 7.05252 3.83734 6.92557 3.7388 6.83182L2.9894 6.12135C2.89057 6.0279 2.75668 5.97542 2.6171 5.97542C2.47752 5.97542 2.34363 6.0279 2.2448 6.12135L1.96 6.39135C1.8644 6.34332 1.766 6.29908 1.6648 6.25863L1.651 6.25256C1.5466 6.2116 1.43933 6.17514 1.3292 6.14316V5.76204C1.32904 5.62966 1.27352 5.50275 1.1748 5.40912C1.07608 5.3155 0.942233 5.26281 0.8026 5.26261H0.5454V3.90842H17.4546ZM0.5454 3.39135H17.4546V0.554418C17.4544 0.544574 17.4502 0.535191 17.4428 0.528252C17.4354 0.521337 17.4256 0.517395 17.4152 0.517255H0.5848C0.574445 0.517395 0.564552 0.521337 0.5572 0.528252C0.549833 0.535191 0.545601 0.544574 0.5454 0.554418V3.39135ZM1.78 2.26014H1.82C1.89105 2.25832 1.95854 2.23028 2.00811 2.182C2.05768 2.13371 2.08541 2.06899 2.08541 2.00161C2.08541 1.93423 2.05768 1.86951 2.00811 1.82123C1.95854 1.77294 1.89105 1.7449 1.82 1.74308H1.78C1.74357 1.74214 1.70731 1.74814 1.67336 1.76071C1.63941 1.77328 1.60846 1.79218 1.58234 1.81628C1.55623 1.84037 1.53547 1.86919 1.52129 1.90102C1.50712 1.93286 1.49981 1.96706 1.49981 2.00161C1.49981 2.03616 1.50712 2.07037 1.52129 2.1022C1.53547 2.13403 1.55623 2.16285 1.58234 2.18695C1.60846 2.21105 1.63941 2.22994 1.67336 2.24251C1.70731 2.25508 1.74357 2.26108 1.78 2.26014ZM5.9152 2.26014H16.22C16.2564 2.26108 16.2927 2.25508 16.3266 2.24251C16.3606 2.22994 16.3915 2.21105 16.4177 2.18695C16.4438 2.16285 16.4645 2.13403 16.4787 2.1022C16.4929 2.07037 16.5002 2.03616 16.5002 2.00161C16.5002 1.96706 16.4929 1.93286 16.4787 1.90102C16.4645 1.86919 16.4438 1.84037 16.4177 1.81628C16.3915 1.79218 16.3606 1.77328 16.3266 1.76071C16.2927 1.74814 16.2564 1.74214 16.22 1.74308H5.916C5.84495 1.7449 5.77746 1.77294 5.72789 1.82123C5.67832 1.86951 5.65059 1.93423 5.65059 2.00161C5.65059 2.06899 5.67832 2.13371 5.72789 2.182C5.77746 2.23028 5.84495 2.25832 5.916 2.26014H5.9152ZM3.04 2.26014H3.08C3.11643 2.26108 3.15269 2.25508 3.18664 2.24251C3.22059 2.22994 3.25154 2.21105 3.27766 2.18695C3.30377 2.16285 3.32453 2.13403 3.33871 2.1022C3.35288 2.07037 3.36019 2.03616 3.36019 2.00161C3.36019 1.96706 3.35288 1.93286 3.33871 1.90102C3.32453 1.86919 3.30377 1.84037 3.27766 1.81628C3.25154 1.79218 3.22059 1.77328 3.18664 1.76071C3.15269 1.74814 3.11643 1.74214 3.08 1.74308H3.04C3.00357 1.74214 2.96731 1.74814 2.93336 1.76071C2.89941 1.77328 2.86846 1.79218 2.84234 1.81628C2.81623 1.84037 2.79547 1.86919 2.78129 1.90102C2.76712 1.93286 2.75981 1.96706 2.75981 2.00161C2.75981 2.03616 2.76712 2.07037 2.78129 2.1022C2.79547 2.13403 2.81623 2.16285 2.84234 2.18695C2.86846 2.21105 2.89941 2.22994 2.93336 2.24251C2.96731 2.25508 3.00357 2.26108 3.04 2.26014ZM4.3 2.26014H4.34C4.37643 2.26108 4.41269 2.25508 4.44664 2.24251C4.48059 2.22994 4.51154 2.21105 4.53766 2.18695C4.56377 2.16285 4.58453 2.13403 4.59871 2.1022C4.61288 2.07037 4.62019 2.03616 4.62019 2.00161C4.62019 1.96706 4.61288 1.93286 4.59871 1.90102C4.58453 1.86919 4.56377 1.84037 4.53766 1.81628C4.51154 1.79218 4.48059 1.77328 4.44664 1.76071C4.41269 1.74814 4.37643 1.74214 4.34 1.74308H4.3C4.26357 1.74214 4.22731 1.74814 4.19336 1.76071C4.15941 1.77328 4.12846 1.79218 4.10234 1.81628C4.07623 1.84037 4.05547 1.86919 4.04129 1.90102C4.02712 1.93286 4.01981 1.96706 4.01981 2.00161C4.01981 2.03616 4.02712 2.07037 4.04129 2.1022C4.05547 2.13403 4.07623 2.16285 4.10234 2.18695C4.12846 2.21105 4.15941 2.22994 4.19336 2.24251C4.22731 2.25508 4.26357 2.26108 4.3 2.26014ZM6.9762 5.37637C6.9409 5.4099 6.91895 5.45399 6.91409 5.50114C6.90924 5.54829 6.92177 5.59557 6.94956 5.63494C6.97735 5.67431 7.01868 5.70333 7.06651 5.71705C7.11433 5.73077 7.1657 5.72834 7.21185 5.71019C7.258 5.69203 7.29609 5.65927 7.31962 5.61748C7.34315 5.57569 7.35067 5.52746 7.3409 5.481C7.33113 5.43455 7.30467 5.39274 7.26603 5.3627C7.2274 5.33266 7.17897 5.31625 7.129 5.31627C7.10061 5.31625 7.07249 5.32155 7.04627 5.33186C7.02005 5.34218 6.99623 5.3573 6.9762 5.37637ZM7.282 13.1485C7.24661 13.1148 7.2 13.0938 7.15011 13.0891C7.10023 13.0844 7.05016 13.0962 7.00845 13.1226C6.96674 13.1489 6.93597 13.1882 6.92138 13.2337C6.90679 13.2791 6.90929 13.328 6.92845 13.3719C6.94761 13.4158 6.98224 13.4521 7.02645 13.4745C7.07065 13.4969 7.12169 13.5041 7.17086 13.4948C7.22003 13.4856 7.26428 13.4604 7.29607 13.4237C7.32786 13.3869 7.34523 13.3409 7.3452 13.2933C7.34523 13.2664 7.33966 13.2398 7.32882 13.2149C7.31797 13.1901 7.30206 13.1675 7.282 13.1485ZM8.664 9.26147C8.62864 9.228 8.58213 9.2072 8.5324 9.20259C8.48267 9.19799 8.43279 9.20987 8.39126 9.23622C8.34974 9.26257 8.31913 9.30175 8.30466 9.34709C8.29019 9.39243 8.29274 9.44112 8.31189 9.48488C8.33104 9.52863 8.3656 9.56474 8.40968 9.58705C8.45376 9.60936 8.50463 9.61649 8.55364 9.60722C8.60264 9.59796 8.64674 9.57288 8.67842 9.53625C8.71011 9.49962 8.72742 9.4537 8.7274 9.40633C8.72741 9.37942 8.72182 9.35277 8.71094 9.32791C8.70006 9.30305 8.68411 9.28047 8.664 9.26147ZM7.8 9.66629C7.86367 9.82377 7.98349 9.95515 8.13868 10.0376C8.29386 10.1201 8.4746 10.1484 8.64953 10.1177C8.82446 10.087 8.98253 9.99925 9.0963 9.86959C9.21007 9.73993 9.27237 9.5766 9.27237 9.40794C9.27237 9.23929 9.21007 9.07596 9.0963 8.9463C8.98253 8.81664 8.82446 8.72885 8.64953 8.69816C8.4746 8.66746 8.29386 8.69581 8.13868 8.77827C7.98349 8.86074 7.86367 8.99212 7.8 9.1496H5.4316C5.36055 9.15143 5.29306 9.17946 5.24349 9.22775C5.19392 9.27604 5.16619 9.34075 5.16619 9.40813C5.16619 9.47551 5.19392 9.54023 5.24349 9.58852C5.29306 9.6368 5.36055 9.66484 5.4316 9.66667L7.8 9.66629ZM6.4176 5.78024C6.48131 5.93769 6.60116 6.06903 6.75634 6.15146C6.91153 6.23388 7.09225 6.26219 7.26716 6.23148C7.44206 6.20077 7.60011 6.11297 7.71386 5.98332C7.82761 5.85367 7.88989 5.69035 7.88989 5.52171C7.88989 5.35307 7.82761 5.18975 7.71386 5.0601C7.60011 4.93045 7.44206 4.84265 7.26716 4.81194C7.09225 4.78123 6.91153 4.80954 6.75634 4.89197C6.60116 4.97439 6.48131 5.10573 6.4176 5.26318H4.5766C4.51414 5.26285 4.45346 5.28293 4.4048 5.32006L3.6658 5.82954C3.61158 5.87119 3.57629 5.93098 3.5672 5.99658C3.55812 6.06218 3.57594 6.12858 3.61699 6.18209C3.65803 6.23559 3.71918 6.27212 3.7878 6.28414C3.85643 6.29616 3.9273 6.28275 3.9858 6.24668L4.6658 5.77854L6.4176 5.78024ZM6.4176 13.5523C6.48132 13.7097 6.60113 13.8409 6.75624 13.9232C6.91135 14.0055 7.09196 14.0338 7.26675 14.0031C7.44153 13.9724 7.59946 13.8846 7.71313 13.755C7.82679 13.6254 7.88902 13.4622 7.88902 13.2937C7.88902 13.1252 7.82679 12.962 7.71313 12.8324C7.59946 12.7028 7.44153 12.6151 7.26675 12.5843C7.09196 12.5536 6.91135 12.5819 6.75624 12.6642C6.60113 12.7465 6.48132 12.8777 6.4176 13.0351H4.6646L3.9846 12.5669C3.9261 12.5309 3.85522 12.5175 3.7866 12.5295C3.71798 12.5415 3.65683 12.578 3.61579 12.6315C3.57474 12.685 3.55692 12.7514 3.566 12.817C3.57509 12.8826 3.61038 12.9424 3.6646 12.9841L4.4046 13.4936C4.45314 13.531 4.51382 13.5514 4.5764 13.5514L6.4176 13.5523Z" fill="#3F3F3F"/>
</svg>
