<svg width="15" height="20" viewBox="0 0 15 20" fill="none" xmlns="http://www.w3.org/2000/svg">
<path d="M13.6957 4.47391H11.7391V1.27826C11.7388 0.939349 11.6013 0.614415 11.3567 0.374768C11.1122 0.135121 10.7806 0.000338405 10.4348 0H1.30435C0.958519 0.000338405 0.626954 0.135121 0.382416 0.374768C0.137878 0.614415 0.000345311 0.939349 0 1.27826V17.8957C0.000345311 18.2346 0.137878 18.5595 0.382416 18.7991C0.626954 19.0388 0.958519 19.1736 1.30435 19.1739H10.4348C10.7806 19.1736 11.1122 19.0388 11.3567 18.7991C11.6013 18.5595 11.7388 18.2346 11.7391 17.8957V15.3391H13.6957C14.0415 15.3388 14.373 15.204 14.6176 14.9644C14.8621 14.7247 14.9997 14.3998 15 14.0609V5.75217C14.9997 5.41326 14.8621 5.08833 14.6176 4.84868C14.373 4.60903 14.0415 4.47425 13.6957 4.47391ZM7.5 0.63913V0.958696C7.49994 1.04343 7.46557 1.12468 7.40443 1.1846C7.34329 1.24452 7.26038 1.2782 7.17391 1.27826H4.56522C4.47875 1.2782 4.39584 1.24452 4.3347 1.1846C4.27356 1.12468 4.23919 1.04343 4.23913 0.958696V0.63913H7.5ZM11.087 17.8957C11.0867 18.0651 11.0179 18.2275 10.8957 18.3473C10.7734 18.4672 10.6077 18.5346 10.4348 18.5348H1.30435C1.13145 18.5346 0.965697 18.4672 0.843439 18.3473C0.721181 18.2275 0.652398 18.0651 0.652174 17.8957V1.27826C0.652398 1.10882 0.721181 0.946383 0.843439 0.82657C0.965697 0.706758 1.13145 0.63935 1.30435 0.63913H3.58696V0.958696C3.58724 1.21287 3.6904 1.45656 3.8738 1.63629C4.05719 1.81602 4.30585 1.91711 4.56522 1.91739H7.17391C7.43328 1.91711 7.68194 1.81602 7.86534 1.63629C8.04873 1.45656 8.15189 1.21287 8.15217 0.958696V0.63913H10.4348C10.6077 0.63935 10.7734 0.706758 10.8957 0.82657C11.0179 0.946383 11.0867 1.10882 11.087 1.27826V4.47391H2.6087C2.26287 4.47425 1.9313 4.60903 1.68676 4.84868C1.44223 5.08833 1.30469 5.41326 1.30435 5.75217V14.0609C1.30469 14.3998 1.44223 14.7247 1.68676 14.9644C1.9313 15.204 2.26287 15.3388 2.6087 15.3391H11.087V17.8957ZM14.3478 14.0609C14.3476 14.2303 14.2788 14.3927 14.1566 14.5126C14.0343 14.6324 13.8686 14.6998 13.6957 14.7H2.6087C2.4358 14.6998 2.27004 14.6324 2.14779 14.5126C2.02553 14.3927 1.95675 14.2303 1.95652 14.0609V5.75217C1.95675 5.58273 2.02553 5.4203 2.14779 5.30048C2.27004 5.18067 2.4358 5.11326 2.6087 5.11304H13.6957C13.8686 5.11326 14.0343 5.18067 14.1566 5.30048C14.2788 5.4203 14.3476 5.58273 14.3478 5.75217V14.0609Z" fill="#3F3F3F"/>
<path d="M5.96524 10.1325C6.02679 10.1904 6.10909 10.2224 6.19446 10.2216C6.27983 10.2208 6.36146 10.1872 6.42183 10.128C6.48219 10.0689 6.51648 9.98885 6.51732 9.90519C6.51816 9.82153 6.48549 9.74088 6.42633 9.68056L5.02646 8.3087L6.42635 6.93681C6.48551 6.87648 6.51817 6.79583 6.51732 6.71217C6.51648 6.62851 6.48219 6.54851 6.42181 6.48935C6.36144 6.43019 6.27981 6.39659 6.19444 6.39577C6.10907 6.39494 6.02678 6.42696 5.96523 6.48494L4.33479 8.08277C4.30451 8.11243 4.28048 8.14765 4.26409 8.18642C4.24769 8.22519 4.23926 8.26674 4.23926 8.30871C4.23926 8.35067 4.24769 8.39223 4.26409 8.43099C4.28048 8.46976 4.30451 8.50499 4.33479 8.53465L5.96524 10.1325Z" fill="#3F3F3F"/>
<path d="M10.3393 6.48494C10.2778 6.42696 10.1955 6.39495 10.1101 6.39578C10.0247 6.39661 9.94308 6.43022 9.88272 6.48938C9.82235 6.54854 9.78807 6.62855 9.78723 6.71221C9.78638 6.79587 9.81905 6.87652 9.87822 6.93684L11.2781 8.3087L9.8782 9.68059C9.84761 9.7102 9.8233 9.74544 9.80666 9.78428C9.79002 9.82313 9.78139 9.86482 9.78125 9.90695C9.78112 9.94908 9.78949 9.99082 9.80588 10.0298C9.82227 10.0687 9.84635 10.1041 9.87675 10.1339C9.90715 10.1637 9.94326 10.1873 9.98301 10.2033C10.0228 10.2194 10.0653 10.2276 10.1083 10.2275C10.1513 10.2273 10.1939 10.2189 10.2335 10.2026C10.2731 10.1863 10.3091 10.1624 10.3393 10.1325L11.9697 8.53463C12 8.50497 12.0241 8.46974 12.0404 8.43097C12.0568 8.39221 12.0653 8.35065 12.0653 8.30869C12.0653 8.26672 12.0568 8.22517 12.0404 8.1864C12.0241 8.14763 12 8.11241 11.9697 8.08275L10.3393 6.48494Z" fill="#3F3F3F"/>
<path d="M9.25849 5.77808C9.21914 5.76154 9.17685 5.75276 9.13404 5.75225C9.09123 5.75174 9.04873 5.7595 9.00899 5.7751C8.96924 5.79069 8.93301 5.81381 8.90239 5.84313C8.87176 5.87245 8.84734 5.9074 8.8305 5.94598L6.87398 10.4199C6.85713 10.4585 6.84819 10.4999 6.84768 10.5418C6.84717 10.5838 6.85509 10.6254 6.871 10.6644C6.88691 10.7033 6.91049 10.7388 6.9404 10.7688C6.97031 10.7989 7.00595 10.8228 7.0453 10.8393C7.08466 10.8558 7.12694 10.8646 7.16975 10.8651C7.21255 10.8656 7.25504 10.8578 7.29478 10.8422C7.33452 10.8266 7.37074 10.8035 7.40137 10.7742C7.432 10.7449 7.45644 10.71 7.47329 10.6714L9.42981 6.19751C9.44668 6.15895 9.45562 6.11751 9.45614 6.07555C9.45665 6.0336 9.44873 5.99196 9.43282 5.95301C9.41691 5.91406 9.39333 5.87857 9.36341 5.84855C9.3335 5.81853 9.29785 5.79459 9.25849 5.77808Z" fill="#3F3F3F"/>
<path d="M7.1737 11.8239H3.26066C3.17417 11.8239 3.09123 11.8576 3.03008 11.9175C2.96893 11.9774 2.93457 12.0587 2.93457 12.1435C2.93457 12.2282 2.96893 12.3095 3.03008 12.3694C3.09123 12.4294 3.17417 12.463 3.26066 12.463H7.1737C7.25939 12.4619 7.34115 12.4277 7.40132 12.3679C7.46148 12.3081 7.49521 12.2275 7.49521 12.1435C7.49521 12.0595 7.46148 11.9789 7.40132 11.9191C7.34115 11.8593 7.25939 11.8251 7.1737 11.8239Z" fill="#3F3F3F"/>
<path d="M5.86917 13.1022H3.26047C3.17479 13.1033 3.09302 13.1375 3.03286 13.1973C2.97269 13.2571 2.93896 13.3377 2.93896 13.4217C2.93896 13.5057 2.97269 13.5863 3.03286 13.6461C3.09302 13.7059 3.17479 13.7401 3.26047 13.7413H5.86917C5.95485 13.7401 6.03662 13.7059 6.09678 13.6461C6.15695 13.5863 6.19068 13.5057 6.19068 13.4217C6.19068 13.3377 6.15695 13.2571 6.09678 13.1973C6.03662 13.1375 5.95485 13.1033 5.86917 13.1022Z" fill="#3F3F3F"/>
<path d="M4.56516 17.8956H7.17386C7.25954 17.8945 7.34131 17.8603 7.40147 17.8005C7.46163 17.7407 7.49536 17.6601 7.49536 17.5761C7.49536 17.4921 7.46163 17.4115 7.40147 17.3517C7.34131 17.2919 7.25954 17.2577 7.17386 17.2565H4.56516C4.47948 17.2577 4.39771 17.2919 4.33755 17.3517C4.27738 17.4115 4.24365 17.4921 4.24365 17.5761C4.24365 17.6601 4.27738 17.7407 4.33755 17.8005C4.39771 17.8603 4.47948 17.8945 4.56516 17.8956Z" fill="#3F3F3F"/>
</svg>
