<svg width="15" height="17" viewBox="0 0 15 17" fill="none" xmlns="http://www.w3.org/2000/svg">
<path d="M7.13051 3.81023C6.44931 3.81023 5.89014 4.33891 5.89014 4.98295C5.89014 5.62699 6.44931 6.15566 7.13051 6.15566C7.8117 6.15566 8.37087 5.62699 8.37087 4.98295C8.37087 4.33891 7.8117 3.81023 7.13051 3.81023ZM7.13051 4.39659C7.47661 4.39659 7.75069 4.65572 7.75069 4.98295C7.75069 5.31017 7.47661 5.5693 7.13051 5.5693C6.7844 5.5693 6.51032 5.31017 6.51032 4.98295C6.51032 4.65572 6.7844 4.39659 7.13051 4.39659Z" fill="#3F3F3F"/>
<path d="M7.1314 6.74201C7.08762 6.74223 7.0444 6.75122 7.00456 6.76837C6.96472 6.78553 6.92917 6.81046 6.90026 6.84154L4.41952 9.47906C4.38416 9.51635 4.3595 9.56158 4.34788 9.61044C4.33626 9.65931 4.33808 9.71017 4.35316 9.75818L5.28458 12.6878C5.30358 12.7484 5.34282 12.8016 5.39644 12.8395C5.45006 12.8773 5.51518 12.8977 5.58208 12.8977H8.68072C8.74762 12.8977 8.81274 12.8773 8.86636 12.8395C8.91998 12.8016 8.95922 12.7484 8.97822 12.6878L9.90735 9.75818C9.92273 9.71035 9.92492 9.65959 9.9137 9.61074C9.90249 9.56189 9.87824 9.51656 9.84328 9.47906L7.36254 6.84154C7.33363 6.81046 7.29808 6.78553 7.25824 6.76837C7.2184 6.75122 7.17518 6.74223 7.1314 6.74201ZM7.1314 7.47766L9.26428 9.74519L8.44958 12.3113H5.81093L4.99851 9.74519L7.1314 7.47766Z" fill="#3F3F3F"/>
<path d="M6.81934 7.32837V9.37953H7.43952V7.32837H6.81934Z" fill="#3F3F3F"/>
<path d="M11.7809 3.81023C11.0997 3.81023 10.5405 4.33891 10.5405 4.98295C10.5405 5.62699 11.0997 6.15566 11.7809 6.15566C12.4621 6.15566 13.0213 5.62699 13.0213 4.98295C13.0213 4.33891 12.4621 3.81023 11.7809 3.81023ZM11.7809 4.39659C12.127 4.39659 12.4011 4.65572 12.4011 4.98295C12.4011 5.31017 12.127 5.5693 11.7809 5.5693C11.4348 5.5693 11.1607 5.31017 11.1607 4.98295C11.1607 4.65572 11.4348 4.39659 11.7809 4.39659Z" fill="#3F3F3F"/>
<path d="M2.4806 3.81023C1.79941 3.81023 1.24023 4.33891 1.24023 4.98295C1.24023 5.62699 1.79941 6.15566 2.4806 6.15566C3.1618 6.15566 3.72097 5.62699 3.72097 4.98295C3.72097 4.33891 3.1618 3.81023 2.4806 3.81023ZM2.4806 4.39659C2.82671 4.39659 3.10079 4.65572 3.10079 4.98295C3.10079 5.31017 2.82671 5.5693 2.4806 5.5693C2.1345 5.5693 1.86042 5.31017 1.86042 4.98295C1.86042 4.65572 2.1345 4.39659 2.4806 4.39659Z" fill="#3F3F3F"/>
<path d="M6.13762 4.79903C4.50965 5.16062 3.2769 6.36476 2.90625 7.85414L3.50813 7.98829C3.82562 6.71251 4.88158 5.68074 6.2795 5.37024L6.13762 4.79903Z" fill="#3F3F3F"/>
<path d="M8.12675 4.79903L7.98486 5.37024C9.382 5.68132 10.4344 6.71299 10.7517 7.98829L11.3558 7.85414C10.9855 6.36533 9.75381 5.1613 8.12675 4.79903Z" fill="#3F3F3F"/>
<path d="M11.1608 7.62263C10.4796 7.62263 9.92041 8.14914 9.92041 8.79318C9.92041 9.43722 10.4796 9.9659 11.1608 9.9659C11.842 9.9659 12.4011 9.43722 12.4011 8.79318C12.4011 8.14914 11.842 7.62263 11.1608 7.62263ZM11.1608 8.20683C11.5069 8.20683 11.781 8.46596 11.781 8.79318C11.781 9.12041 11.5069 9.37954 11.1608 9.37954C10.8147 9.37954 10.5406 9.12041 10.5406 8.79318C10.5406 8.46596 10.8147 8.20683 11.1608 8.20683Z" fill="#3F3F3F"/>
<path d="M3.10121 7.62263C2.42001 7.62263 1.86084 8.14914 1.86084 8.79318C1.86084 9.43722 2.42001 9.9659 3.10121 9.9659C3.7824 9.9659 4.34158 9.43722 4.34158 8.79318C4.34158 8.14914 3.7824 7.62263 3.10121 7.62263ZM3.10121 8.20683C3.44731 8.20683 3.72139 8.46596 3.72139 8.79318C3.72139 9.12041 3.44731 9.37954 3.10121 9.37954C2.7551 9.37954 2.48102 9.12041 2.48102 8.79318C2.48102 8.46596 2.7551 8.20683 3.10121 8.20683Z" fill="#3F3F3F"/>
<path d="M8.06055 4.69085V5.27721H10.8525V4.69085H8.06055Z" fill="#3F3F3F"/>
<path d="M3.41016 4.69085V5.27721H6.20213V4.69085H3.41016Z" fill="#3F3F3F"/>
<path d="M2.1695 3.18243e-06C1.09546 3.18243e-06 0.534953 0.533326 0.26547 1.04289C-0.00401351 1.55246 3.37136e-06 2.05333 3.37136e-06 2.05333V14.9488C3.37136e-06 14.9488 -0.0040156 15.4497 0.26547 15.9593C0.534953 16.4688 1.0886 17 2.1695 17H12.0902C13.174 17 13.727 16.4688 13.9965 15.9593C14.266 15.4497 14.262 14.9488 14.262 14.9488V2.05333C14.262 1.03322 13.6979 0.505774 13.1589 0.25099C12.6199 -0.0037945 12.0902 3.18243e-06 12.0902 3.18243e-06H2.1695ZM2.1695 0.586359H12.0902C12.0902 0.586359 12.4909 0.591887 12.882 0.776763C13.2731 0.961637 13.6418 1.31213 13.6418 2.05333V14.9488C13.6418 14.9488 13.6359 15.3277 13.4404 15.6975C13.2448 16.0672 12.8712 16.4158 12.0902 16.4158H2.1695C1.39106 16.4158 1.01483 16.0672 0.819287 15.6975C0.623747 15.3277 0.620188 14.9488 0.620188 14.9488V2.05333C0.620188 2.05333 0.62375 1.67445 0.819287 1.3047C1.01483 0.934951 1.39033 0.586359 2.1695 0.586359Z" fill="#3F3F3F"/>
<path d="M0.311035 2.63969V3.22604H13.9505V2.63969H0.311035Z" fill="#3F3F3F"/>
<path d="M0.311035 13.7761V14.3625H13.9505V13.7761H0.311035Z" fill="#3F3F3F"/>
<path d="M7.13135 1.46697V2.05333H9.61209V1.46697H7.13135Z" fill="#3F3F3F"/>
<path d="M5.27051 1.46697V2.05333H6.51088V1.46697H5.27051Z" fill="#3F3F3F"/>
<path d="M5.89014 14.9488V15.5352H8.37087V14.9488H5.89014Z" fill="#3F3F3F"/>
</svg>
