<svg width="18" height="15" viewBox="0 0 18 15" fill="none" xmlns="http://www.w3.org/2000/svg">
<path d="M15.4432 0H1.57584C0.705975 0 0 0.700291 0 1.56315V10.0011C0 10.8639 0.709122 11.5642 1.57584 11.5642H6.75729L6.12067 12.8147H4.40301C3.88613 12.8147 3.46696 13.2305 3.46696 13.7432V14.0715C3.46696 14.5842 3.88613 15 4.40301 15H12.6131C13.13 15 13.5491 14.5842 13.5491 14.0715V13.7432C13.5491 13.2305 13.13 12.8147 12.6131 12.8147H10.8954L10.2588 11.5642H15.4403C16.3101 11.5642 17.0161 10.8639 17.0161 10.0011V1.56315C17.0161 0.700291 16.307 0 15.4403 0H15.4432ZM12.6161 13.4432C12.7863 13.4432 12.9218 13.5807 12.9218 13.7464V14.0747C12.9218 14.2435 12.7831 14.3779 12.6161 14.3779H4.40599C4.2358 14.3779 4.10029 14.2404 4.10029 14.0747V13.7464C4.10029 13.5776 4.23896 13.4432 4.40599 13.4432H12.6161ZM6.82951 12.8179L7.46613 11.5674H9.55562L10.1922 12.8179H6.82951ZM16.3886 10.0044C16.3886 10.5233 15.9631 10.9423 15.4431 10.9423H1.57574C1.05255 10.9423 0.630234 10.5202 0.630234 10.0044V1.56325C0.630234 1.04427 1.05572 0.62536 1.57574 0.62536H15.4399C15.9631 0.62536 16.3854 1.04742 16.3854 1.56325V10.0012L16.3886 10.0044Z" fill="#3F3F3F"/>
<path d="M12.6067 4.68955H11.9637C11.9039 4.49885 11.8251 4.3144 11.7337 4.1362L12.1907 3.68289C12.3136 3.56097 12.3136 3.364 12.1907 3.24209L11.075 2.13539C10.9521 2.01346 10.7535 2.01346 10.6306 2.13539L10.1736 2.5887C9.99397 2.49804 9.80802 2.41988 9.61577 2.36048V1.72272C9.61577 1.55077 9.47395 1.41009 9.3006 1.41009H7.72477C7.55142 1.41009 7.4096 1.55077 7.4096 1.72272V2.36048C7.21735 2.41988 7.0314 2.49804 6.85176 2.5887L6.39477 2.13539C6.27185 2.01346 6.07329 2.01346 5.95039 2.13539L4.8347 3.24209C4.71179 3.36402 4.71179 3.56098 4.8347 3.68289L5.29169 4.1362C5.20029 4.3144 5.1215 4.49885 5.06162 4.68955H4.41868C4.24534 4.68955 4.10352 4.83023 4.10352 5.00218V6.56533C4.10352 6.73728 4.24534 6.87796 4.41868 6.87796H5.06162C5.12151 7.06867 5.2003 7.25312 5.29169 7.43131L4.8347 7.88462C4.71179 8.00655 4.71179 8.20351 4.8347 8.32542L5.95039 9.43212C6.01342 9.49465 6.09221 9.52279 6.17416 9.52279C6.25611 9.52279 6.3349 9.49152 6.39794 9.43212L6.85492 8.97882C7.03457 9.06948 7.22052 9.14764 7.41277 9.20703V9.8448C7.41277 10.0167 7.55459 10.1574 7.72793 10.1574H9.30377C9.47711 10.1574 9.61894 10.0167 9.61894 9.8448V9.20703C9.81119 9.14763 9.99714 9.06947 10.1768 8.97882L10.6338 9.43212C10.6968 9.49152 10.7756 9.52279 10.8575 9.52279C10.9395 9.52279 11.0183 9.49152 11.0813 9.43212L12.197 8.32542C12.3199 8.2035 12.3199 8.00653 12.197 7.88462L11.74 7.43131C11.8314 7.25311 11.9102 7.06866 11.9701 6.87796H12.613C12.7864 6.87796 12.9282 6.73728 12.9282 6.56533V5.00218C12.9282 4.83023 12.7864 4.68955 12.613 4.68955H12.6067ZM12.2915 6.2527H11.7242C11.7242 6.2527 11.7085 6.25583 11.699 6.25895C11.6801 6.25895 11.6612 6.26521 11.6423 6.27146C11.6202 6.27771 11.6013 6.28396 11.5824 6.29334C11.5666 6.30272 11.554 6.3121 11.5383 6.32148C11.5194 6.33399 11.5036 6.34962 11.4878 6.36525C11.4752 6.37775 11.4658 6.39338 11.4563 6.40902C11.4437 6.42777 11.4343 6.44653 11.428 6.46842C11.428 6.4778 11.4185 6.48092 11.4185 6.4903C11.346 6.78418 11.2294 7.06242 11.0718 7.32189C11.0687 7.32814 11.0655 7.33752 11.0624 7.3469C11.0529 7.36566 11.0466 7.38441 11.0403 7.4063C11.034 7.42506 11.0308 7.44382 11.0277 7.46257V7.52197C11.0277 7.54073 11.034 7.55949 11.0403 7.58137C11.0466 7.60013 11.0561 7.61576 11.0655 7.63452C11.075 7.65328 11.0876 7.67204 11.1002 7.68767C11.1065 7.69392 11.1065 7.7033 11.1128 7.70955L11.5131 8.1066L10.8449 8.76937L10.4446 8.37233C10.4446 8.37233 10.432 8.36295 10.4257 8.35982C10.41 8.34419 10.391 8.33481 10.369 8.32231C10.3532 8.31293 10.3343 8.30355 10.3186 8.30042C10.2997 8.29417 10.2807 8.29104 10.2587 8.28792C10.2398 8.28792 10.2209 8.28479 10.1988 8.28792C10.1799 8.28792 10.161 8.29417 10.1421 8.30042C10.12 8.30667 10.1011 8.31293 10.0822 8.32231C10.0759 8.32543 10.0664 8.32543 10.057 8.33169C9.79854 8.488 9.51488 8.60368 9.21863 8.67559C9.20918 8.67559 9.20287 8.68497 9.19657 8.68497C9.17451 8.69122 9.1556 8.7006 9.13669 8.7131C9.12093 8.72248 9.10202 8.73186 9.08941 8.74437C9.07365 8.75687 9.06105 8.7725 9.04844 8.78813C9.03583 8.80377 9.02323 8.8194 9.01692 8.83816C9.00747 8.85691 9.00116 8.87255 8.99486 8.89443C8.98856 8.91319 8.9854 8.93507 8.98225 8.95695C8.98225 8.96633 8.97595 8.97259 8.97595 8.98197V9.5447H8.03045V8.98197C8.03045 8.98197 8.0273 8.96633 8.02414 8.95695C8.02414 8.93507 8.01784 8.91631 8.01154 8.89443C8.00523 8.87567 7.99893 8.85691 7.98947 8.83816C7.98002 8.8194 7.96741 8.80376 7.95796 8.78813C7.94535 8.7725 7.93274 8.75687 7.91699 8.74437C7.90123 8.73186 7.88547 8.72248 7.86971 8.7131C7.8508 8.70372 7.83189 8.69434 7.80983 8.68497C7.80037 8.68497 7.79407 8.67559 7.78777 8.67559C7.4915 8.60368 7.211 8.48801 6.94943 8.33169C6.94313 8.32856 6.93367 8.32543 6.92422 8.32231C6.90531 8.31293 6.8864 8.30668 6.86433 8.30042C6.84542 8.29417 6.82651 8.29104 6.8076 8.28792H6.74772C6.72566 8.28792 6.70675 8.29417 6.68784 8.30042C6.66893 8.30667 6.65317 8.31605 6.63741 8.32231C6.6185 8.33169 6.59959 8.34419 6.58068 8.35982C6.57438 8.36607 6.56492 8.36607 6.56177 8.37233L6.1615 8.76937L5.49335 8.1066L5.89361 7.70955C5.89361 7.70955 5.90307 7.69392 5.90622 7.68767C5.92198 7.67204 5.93144 7.65328 5.94089 7.63452C5.95035 7.61576 5.9598 7.60013 5.9661 7.58137C5.97241 7.56262 5.97556 7.54386 5.97871 7.52197C5.97871 7.50322 5.98186 7.48446 5.97871 7.46257C5.97871 7.44382 5.97241 7.42506 5.9661 7.4063C5.9598 7.38441 5.9535 7.36566 5.94404 7.3469C5.94089 7.33752 5.94089 7.33127 5.93459 7.32189C5.777 7.06554 5.66039 6.78416 5.58789 6.4903C5.58789 6.48092 5.57844 6.47467 5.57844 6.46842C5.57213 6.44653 5.56268 6.42778 5.55007 6.40902C5.54062 6.39339 5.53116 6.37775 5.51856 6.36212C5.50595 6.34649 5.48704 6.33399 5.47128 6.31835C5.45552 6.30585 5.44292 6.29647 5.42716 6.28709C5.40825 6.27771 5.38934 6.27146 5.36727 6.2652C5.34836 6.25895 5.32945 6.25583 5.30739 6.2527C5.29794 6.2527 5.29163 6.24645 5.28218 6.24645H4.71488V5.30856H5.28218C5.32315 5.30856 5.36097 5.29918 5.39564 5.28667C5.40825 5.28042 5.4177 5.27417 5.43031 5.26791C5.45237 5.25541 5.47128 5.2429 5.49019 5.22727C5.49965 5.21789 5.5091 5.20539 5.51855 5.19601C5.53431 5.17725 5.54692 5.16162 5.55637 5.13974C5.56268 5.1241 5.56898 5.1116 5.57528 5.09597C5.57528 5.08659 5.58474 5.08034 5.58789 5.07096C5.66038 4.77708 5.77699 4.49884 5.93459 4.23937C5.93774 4.23312 5.94089 4.22374 5.94404 4.21436C5.9535 4.1956 5.9598 4.17685 5.9661 4.15496C5.97241 4.1362 5.97556 4.11745 5.97871 4.09869V4.03929C5.97871 4.02053 5.97241 4.00177 5.9661 3.97989C5.9598 3.96113 5.95035 3.9455 5.94089 3.92674C5.93143 3.90798 5.91883 3.88922 5.90622 3.87359C5.89992 3.86734 5.89992 3.85796 5.89361 3.85171L5.49335 3.45466L6.1615 2.79189L6.56177 3.18893C6.59013 3.21707 6.62165 3.23583 6.65632 3.25146C6.66262 3.25459 6.67208 3.25771 6.67838 3.26084C6.71305 3.27334 6.74772 3.28272 6.78554 3.28272C6.82336 3.28272 6.85488 3.27334 6.88954 3.26084C6.899 3.25771 6.90845 3.25459 6.91791 3.24833C6.92736 3.24208 6.93997 3.24208 6.94942 3.23583C7.20785 3.07951 7.49151 2.96383 7.78776 2.89192C7.79722 2.89192 7.80352 2.88255 7.80982 2.88255C7.83189 2.87629 7.85079 2.86691 7.86971 2.85441C7.88546 2.84503 7.90438 2.83565 7.91698 2.82315C7.93274 2.81064 7.94535 2.79501 7.95795 2.77938C7.97056 2.76375 7.98317 2.74812 7.98947 2.72936C7.99892 2.7106 8.00523 2.69497 8.01153 2.67308C8.01784 2.65433 8.02099 2.63244 8.02414 2.61056C8.02414 2.60118 8.03044 2.59493 8.03044 2.58555V2.02281H8.97595V2.58555C8.97595 2.58555 8.9791 2.60118 8.98225 2.61056C8.98225 2.63244 8.98855 2.6512 8.99486 2.67308C9.00116 2.69184 9.00746 2.7106 9.01692 2.72936C9.02637 2.74812 9.03898 2.76375 9.04843 2.77938C9.06104 2.79501 9.07365 2.81064 9.08941 2.82315C9.10516 2.83565 9.12092 2.84503 9.13668 2.85441C9.15559 2.86379 9.1745 2.87317 9.19656 2.88255C9.20602 2.88255 9.21232 2.89192 9.21863 2.89192C9.51489 2.96383 9.79539 3.0795 10.057 3.23583C10.0664 3.24208 10.079 3.24521 10.0885 3.24833C10.0979 3.25146 10.1074 3.25771 10.1168 3.26084C10.1515 3.27334 10.1862 3.28272 10.2208 3.28272C10.2555 3.28272 10.2933 3.27334 10.328 3.26084C10.3343 3.26084 10.3438 3.25459 10.3501 3.25146C10.3847 3.23583 10.4163 3.21707 10.4446 3.18893L10.8449 2.79189L11.513 3.45466L11.1128 3.85171C11.1128 3.85171 11.1033 3.86734 11.1002 3.87359C11.0844 3.88923 11.075 3.90798 11.0655 3.92674C11.056 3.9455 11.0466 3.96113 11.0403 3.97989C11.034 3.99864 11.0308 4.0174 11.0277 4.03929C11.0277 4.05804 11.0245 4.0768 11.0277 4.09869C11.0277 4.11745 11.034 4.1362 11.0403 4.15496C11.0466 4.17685 11.0529 4.1956 11.0623 4.21436C11.0655 4.22374 11.0655 4.22999 11.0718 4.23937C11.2294 4.49572 11.346 4.7771 11.4185 5.07096C11.4185 5.08034 11.428 5.08659 11.4311 5.09597C11.4374 5.1116 11.4437 5.1241 11.45 5.13974C11.4595 5.16162 11.4721 5.17725 11.4878 5.19601C11.4973 5.20852 11.5067 5.2179 11.5162 5.22727C11.5351 5.2429 11.554 5.25541 11.5761 5.26791C11.5887 5.27417 11.5981 5.28042 11.6107 5.28667C11.6454 5.29918 11.6832 5.30856 11.7242 5.30856H12.2915L12.2915 6.2527Z" fill="#3F3F3F"/>
<path d="M8.50969 3.72975C7.36879 3.72975 6.43896 4.65202 6.43896 5.78381C6.43896 6.9156 7.36871 7.83786 8.50969 7.83786C9.65067 7.83786 10.5804 6.9156 10.5804 5.78381C10.5804 4.65202 9.65067 3.72975 8.50969 3.72975ZM8.50969 7.2124C7.71547 7.2124 7.06938 6.57151 7.06938 5.78369C7.06938 4.99586 7.71547 4.35497 8.50969 4.35497C9.30391 4.35497 9.95 4.99586 9.95 5.78369C9.95 6.57151 9.30391 7.2124 8.50969 7.2124Z" fill="#3F3F3F"/>
</svg>
