<svg width="17" height="17" viewBox="0 0 17 17" fill="none" xmlns="http://www.w3.org/2000/svg">
<path fill-rule="evenodd" clip-rule="evenodd" d="M12.4148 14.9943H1.17636C1.07912 14.9943 1 14.9158 1 14.8193V1.17494C1 1.07848 1.07913 1 1.17636 1H12.4148C12.512 1 12.5912 1.07849 12.5912 1.17494V6.4791C12.5912 6.57555 12.512 6.65403 12.4148 6.65403C12.3176 6.65403 12.2384 6.57554 12.2384 6.4791V1.34982H1.35278V14.6436H12.2384V12.626C12.2384 12.5296 12.3176 12.4511 12.4148 12.4511C12.512 12.4511 12.5912 12.5296 12.5912 12.626V14.8185C12.5912 14.9149 12.512 14.9934 12.4148 14.9934V14.9943Z" fill="#3F3F3F" stroke="#3F3F3F" stroke-width="0.2"/>
<path fill-rule="evenodd" clip-rule="evenodd" d="M9.91008 6.77514C9.16237 6.77514 8.45826 7.06383 7.92986 7.58866C7.40077 8.11349 7.10973 8.81129 7.10973 9.55294C7.10973 10.2953 7.40077 10.9931 7.92986 11.5179C8.45895 12.0427 9.1624 12.3314 9.91008 12.3314C10.6585 12.3314 11.3619 12.0427 11.891 11.5179C12.4201 10.9931 12.7111 10.2953 12.7111 9.55294C12.7111 8.81125 12.4201 8.11281 11.891 7.58866C11.3619 7.06383 10.6584 6.77514 9.91008 6.77514ZM9.91008 12.6821C9.06783 12.6821 8.27586 12.3568 7.68042 11.7655C7.08493 11.1748 6.75635 10.3892 6.75635 9.5531C6.75635 8.71763 7.08427 7.93203 7.68042 7.34139C8.27591 6.75069 9.06786 6.42476 9.91008 6.42476C10.753 6.42476 11.5443 6.75004 12.1404 7.34139C12.7359 7.93208 13.0645 8.71766 13.0645 9.5531C13.0645 10.3893 12.7366 11.1742 12.1404 11.7655C11.5449 12.3562 10.753 12.6821 9.91008 12.6821Z" fill="#3F3F3F" stroke="#3F3F3F" stroke-width="0.2"/>
<path fill-rule="evenodd" clip-rule="evenodd" d="M7.21821 6.8829C5.73353 8.35496 5.73353 10.751 7.21821 12.2237C7.96055 12.96 8.9356 13.3279 9.91001 13.3279C10.885 13.3279 11.86 12.96 12.6025 12.2237C14.0872 10.7509 14.0872 8.35488 12.6025 6.8829C11.1185 5.41018 8.70213 5.41018 7.21821 6.8829ZM9.91001 13.6785C8.84445 13.6785 7.77957 13.276 6.96808 12.4718C5.34593 10.8627 5.34593 8.24455 6.96808 6.63549C8.59024 5.02643 11.2296 5.0264 12.8518 6.63549C14.4739 8.24458 14.4739 10.8627 12.8518 12.4718C12.041 13.276 10.9756 13.6785 9.91001 13.6785Z" fill="#3F3F3F" stroke="#3F3F3F" stroke-width="0.2"/>
<path fill-rule="evenodd" clip-rule="evenodd" d="M13.4985 13.2873C13.4529 13.2873 13.408 13.27 13.3738 13.2361L12.6026 12.4711C12.5335 12.4026 12.5335 12.2922 12.6026 12.2237C12.6717 12.1551 12.783 12.1551 12.852 12.2237L13.6232 12.9886C13.6923 13.0571 13.6923 13.1676 13.6232 13.2361C13.5884 13.27 13.5434 13.2873 13.4985 13.2873Z" fill="#3F3F3F" stroke="#3F3F3F" stroke-width="0.2"/>
<path fill-rule="evenodd" clip-rule="evenodd" d="M13.9434 13.1058C13.822 13.1058 13.708 13.1517 13.6235 13.2361C13.4471 13.4111 13.4471 13.6958 13.6235 13.8707L15.2846 15.5184C15.3697 15.6029 15.483 15.6488 15.6044 15.6488C15.7258 15.6488 15.8398 15.6022 15.9243 15.5184C16.1007 15.3435 16.1007 15.0588 15.9243 14.8832L14.2639 13.2361C14.1788 13.1517 14.0654 13.1058 13.944 13.1058H13.9434ZM15.6038 16C15.3979 16 15.1914 15.9222 15.0344 15.7665L13.374 14.1188C13.0602 13.8075 13.0602 13.3006 13.374 12.9887C13.6879 12.6774 14.1995 12.6774 14.5134 12.9887L16.1744 14.6364C16.4883 14.9477 16.4883 15.4545 16.1744 15.7665C16.0175 15.9222 15.811 16 15.6044 16H15.6038Z" fill="#3F3F3F" stroke="#3F3F3F" stroke-width="0.2"/>
<path fill-rule="evenodd" clip-rule="evenodd" d="M9.61601 10.5473C9.57041 10.5473 9.52548 10.5301 9.49128 10.4961L8.42973 9.44313C8.36066 9.37462 8.36066 9.26419 8.42973 9.19568C8.4988 9.12717 8.61012 9.12717 8.67919 9.19568L9.616 10.125L11.1423 8.61098C11.2113 8.54247 11.3226 8.54247 11.3917 8.61098C11.4608 8.67949 11.4608 8.78992 11.3917 8.85843L9.74072 10.4961C9.70651 10.5307 9.66094 10.5473 9.61601 10.5473Z" fill="#3F3F3F" stroke="#3F3F3F" stroke-width="0.2"/>
<path fill-rule="evenodd" clip-rule="evenodd" d="M3.11395 4.1828H3.97766V2.86906H3.11395V4.1828ZM4.15403 4.53269H2.93759C2.84035 4.53269 2.76123 4.4542 2.76123 4.35776V2.69345C2.76123 2.597 2.84036 2.51852 2.93759 2.51852H4.15403C4.25127 2.51852 4.33039 2.59701 4.33039 2.69345V4.35776C4.33039 4.45421 4.25126 4.53269 4.15403 4.53269Z" fill="#3F3F3F" stroke="#3F3F3F" stroke-width="0.2"/>
<path fill-rule="evenodd" clip-rule="evenodd" d="M10.6537 3.70054H5.20175C5.10451 3.70054 5.02539 3.62205 5.02539 3.52561C5.02539 3.42849 5.10452 3.35067 5.20175 3.35067H10.6537C10.7509 3.35067 10.83 3.4285 10.83 3.52561C10.83 3.62206 10.7509 3.70054 10.6537 3.70054Z" fill="#3F3F3F" stroke="#3F3F3F" stroke-width="0.2"/>
<path fill-rule="evenodd" clip-rule="evenodd" d="M3.11395 7.16354H3.97766V5.84979H3.11395V7.16354ZM4.15403 7.51343H2.93759C2.84035 7.51343 2.76123 7.43494 2.76123 7.33849V5.67419C2.76123 5.57774 2.84036 5.49925 2.93759 5.49925H4.15403C4.25127 5.49925 4.33039 5.57774 4.33039 5.67419V7.33849C4.33039 7.43495 4.25126 7.51343 4.15403 7.51343Z" fill="#3F3F3F" stroke="#3F3F3F" stroke-width="0.2"/>
<path fill-rule="evenodd" clip-rule="evenodd" d="M7.37351 6.68196H5.20272C5.10549 6.68196 5.02637 6.60347 5.02637 6.50702C5.02637 6.41058 5.1055 6.33209 5.20272 6.33209H7.37402C7.47126 6.33209 7.55038 6.41058 7.55038 6.50702C7.55038 6.60347 7.47125 6.68196 7.37402 6.68196H7.37351Z" fill="#3F3F3F" stroke="#3F3F3F" stroke-width="0.2"/>
<path fill-rule="evenodd" clip-rule="evenodd" d="M3.11395 10.145H3.97766V8.83121H3.11395V10.145ZM4.15403 10.4948H2.93759C2.84035 10.4948 2.76123 10.4164 2.76123 10.3199V8.65561C2.76123 8.55916 2.84036 8.48067 2.93759 8.48067H4.15403C4.25127 8.48067 4.33039 8.55916 4.33039 8.65561V10.3199C4.33039 10.4164 4.25126 10.4948 4.15403 10.4948Z" fill="#3F3F3F" stroke="#3F3F3F" stroke-width="0.2"/>
<path fill-rule="evenodd" clip-rule="evenodd" d="M5.92733 9.66338H5.20175C5.10451 9.66338 5.02539 9.58489 5.02539 9.48844C5.02539 9.39132 5.10452 9.3135 5.20175 9.3135H5.92733C6.02524 9.3135 6.10369 9.39133 6.10369 9.48844C6.10369 9.58489 6.02523 9.66338 5.92733 9.66338Z" fill="#3F3F3F" stroke="#3F3F3F" stroke-width="0.2"/>
<path fill-rule="evenodd" clip-rule="evenodd" d="M3.11395 13.1264H3.97766V11.8126H3.11395V13.1264ZM4.15403 13.4763H2.93759C2.84035 13.4763 2.76123 13.3978 2.76123 13.3013V11.637C2.76123 11.5406 2.84036 11.4621 2.93759 11.4621H4.15403C4.25127 11.4621 4.33039 11.5406 4.33039 11.637V13.3013C4.33039 13.3978 4.25126 13.4763 4.15403 13.4763Z" fill="#3F3F3F" stroke="#3F3F3F" stroke-width="0.2"/>
<path fill-rule="evenodd" clip-rule="evenodd" d="M7.22163 12.6441H5.20175C5.10451 12.6441 5.02539 12.5663 5.02539 12.4692C5.02539 12.3727 5.10452 12.2942 5.20175 12.2942H7.22163C7.31887 12.2942 7.39799 12.3721 7.39799 12.4692C7.39799 12.5663 7.31886 12.6441 7.22163 12.6441Z" fill="#3F3F3F" stroke="#3F3F3F" stroke-width="0.2"/>
</svg>
