<svg width="13" height="15" viewBox="0 0 13 15" fill="none" xmlns="http://www.w3.org/2000/svg">
<path d="M8.43361 10.262C8.35396 10.249 8.27248 10.2748 8.21519 10.3325L7.29827 11.2553C6.97999 11.5757 6.55705 11.7522 6.10695 11.7522C5.65685 11.7522 5.23375 11.5757 4.91547 11.2553L3.99855 10.3325C3.94125 10.2747 3.85928 10.2485 3.78012 10.262C1.62519 10.6225 0 12.5508 0 14.7477C0 14.887 0.112276 15 0.250716 15H11.963C12.1015 15 12.2137 14.887 12.2137 14.7477C12.2137 12.5508 10.5885 10.6225 8.43361 10.262ZM0.509382 14.4952C0.624804 12.6913 1.96566 11.1393 3.73673 10.783L4.56059 11.6122C4.97359 12.028 5.52272 12.2568 6.10662 12.2568C6.69068 12.2568 7.23964 12.0278 7.65248 11.6122L8.47634 10.783C10.2474 11.1393 11.5883 12.6912 11.7037 14.4952H0.509382Z" fill="#3F3F3F"/>
<path d="M5.25791 7.04732C5.53512 7.15949 5.82161 7.21266 6.10362 7.21249C7.00663 7.21249 7.86294 6.66832 8.21964 5.77465C8.68762 4.60198 8.12045 3.26481 6.95513 2.79398C5.78998 2.32281 4.46138 2.89381 3.9934 4.06665C3.76669 4.63465 3.77348 5.25765 4.01211 5.82065C4.25124 6.38365 4.69355 6.81932 5.25791 7.04732ZM4.4589 4.25482C4.7371 3.55798 5.4048 3.13365 6.10909 3.13365C6.32884 3.13365 6.5524 3.17498 6.7685 3.26231C7.2085 3.44031 7.55344 3.77998 7.73974 4.21898C7.92587 4.65815 7.93117 5.14365 7.75448 5.58665C7.38933 6.50132 6.35401 6.94649 5.44487 6.57899C5.00488 6.40099 4.65993 6.06132 4.47364 5.62232C4.28734 5.18332 4.2822 4.69782 4.4589 4.25482Z" fill="#3F3F3F"/>
<path d="M1.5078 4.14231C1.36986 4.13581 1.26354 4.23481 1.2488 4.36615C1.20326 4.76965 1.2079 5.17848 1.26238 5.58115C1.2801 5.71198 1.39751 5.80715 1.52585 5.79882C1.97164 5.77082 2.38878 6.03065 2.56366 6.44298C2.73869 6.85532 2.63602 7.33765 2.30814 7.64315C2.21176 7.73282 2.2005 7.88215 2.28214 7.98549C2.53352 8.30399 2.82398 8.59016 3.14491 8.83582C3.2494 8.91566 3.39761 8.90116 3.48455 8.80216C3.78081 8.46566 4.25723 8.35182 4.67123 8.51882C5.0849 8.68599 5.35085 9.10016 5.33329 9.54949C5.32816 9.68149 5.42504 9.79516 5.55553 9.81016C5.73802 9.83116 5.92167 9.84149 6.10548 9.84149C6.32507 9.84149 6.54498 9.82649 6.76324 9.79666C6.89323 9.77882 6.98763 9.66299 6.97951 9.53132C6.95252 9.08266 7.20969 8.66282 7.61955 8.48682C8.02974 8.31082 8.50865 8.41416 8.81186 8.74399C8.90079 8.84099 9.04916 8.85249 9.152 8.77016C9.46813 8.51732 9.75246 8.22515 9.99688 7.90199C10.0764 7.79682 10.0618 7.64782 9.9636 7.56015C9.62909 7.26199 9.51582 6.78215 9.68192 6.36582C9.84801 5.94948 10.2582 5.68215 10.7061 5.69932C10.8436 5.70432 10.9502 5.60682 10.9651 5.47548C11.0107 5.07198 11.006 4.66315 10.9516 4.26031C10.934 4.12948 10.8219 4.03515 10.6879 4.04264C10.2454 4.06981 9.82516 3.81114 9.65029 3.39848C9.47525 2.98598 9.57792 2.50381 9.90581 2.19847C10.0022 2.10897 10.0136 1.95964 9.93197 1.85631C9.68059 1.53781 9.3903 1.25164 9.0692 1.0058C8.96471 0.925804 8.8165 0.940304 8.72956 1.0393C8.4333 1.37597 7.95572 1.48964 7.54288 1.3228C7.12921 1.15547 6.8631 0.741304 6.88065 0.291969C6.88578 0.159969 6.78891 0.0463019 6.65842 0.0313018C6.258 -0.0145316 5.85195 -0.0100316 5.45104 0.0448018C5.32104 0.0624685 5.22648 0.178302 5.2346 0.310136C5.26159 0.758804 5.00442 1.17864 4.59472 1.35464C4.18487 1.53097 3.70563 1.42747 3.40225 1.09747C3.31349 1.00064 3.16511 0.989138 3.06211 1.0713C2.74582 1.32431 2.46148 1.61647 2.21739 1.93947C2.1379 2.04464 2.15247 2.19364 2.25067 2.28131C2.58502 2.57947 2.69829 3.05948 2.53219 3.47564C2.36593 3.89181 1.94895 4.15698 1.5078 4.14231ZM2.99736 3.66398C3.21231 3.12581 3.11063 2.51564 2.74996 2.07714C2.89105 1.90831 3.04505 1.75031 3.20999 1.60447C3.65296 1.95781 4.26171 2.04647 4.79129 1.81914C5.32121 1.59131 5.67791 1.08747 5.7309 0.521303C5.94965 0.502136 6.16973 0.499803 6.38832 0.51397C6.45324 1.07914 6.82087 1.57514 7.35575 1.79131C7.8903 2.00731 8.49656 1.90497 8.93242 1.54214C9.10017 1.68431 9.25716 1.83914 9.40205 2.00531C9.05099 2.45114 8.96256 3.06348 9.18876 3.59664C9.41497 4.13015 9.91541 4.48915 10.4781 4.54248C10.497 4.76231 10.4996 4.98365 10.4856 5.20398C9.92386 5.26965 9.43087 5.63965 9.21642 6.17782C9.00164 6.71598 9.10331 7.32615 9.46399 7.76449C9.32273 7.93332 9.16873 8.09132 9.00379 8.23715C8.56098 7.88399 7.9524 7.79532 7.42265 8.02249C6.89274 8.25032 6.53587 8.75416 6.48288 9.32032C6.26429 9.33932 6.04454 9.34199 5.82545 9.32766C5.76054 8.76249 5.39291 8.26649 4.85819 8.05049C4.32281 7.83365 3.71689 7.93649 3.28153 8.29949C3.11378 8.15749 2.95662 8.00249 2.81172 7.83649C3.16279 7.39032 3.25106 6.77815 3.02501 6.24498C2.79897 5.71182 2.29837 5.35265 1.73566 5.29931C1.71678 5.07931 1.71414 4.85798 1.72821 4.63765C2.28992 4.57181 2.78274 4.20198 2.99736 3.66398Z" fill="#3F3F3F"/>
</svg>
