<svg width="14" height="12" viewBox="0 0 14 12" fill="none" xmlns="http://www.w3.org/2000/svg">
<path d="M13.3813 0H0.619241C0.277365 0.000624967 0.000481996 0.277507 0.000481996 0.619383C0.00298202 1.99377 -0.0013929 9.79756 0.000481996 11.3451C0.000481996 11.4113 0.0267319 11.4745 0.0736076 11.5214C0.120483 11.5682 0.184234 11.5951 0.250489 11.5951H13.75C13.8162 11.5951 13.88 11.5682 13.9269 11.5214C13.9738 11.4745 14 11.4114 14 11.3451V0.619383C13.9994 0.277507 13.7225 0.000624007 13.3813 0ZM0.500519 0.619383C0.500519 0.553756 0.553645 0.500631 0.619271 0.500007H13.3813C13.447 0.500632 13.5001 0.553758 13.5001 0.619383V2.51684H0.50058L0.500519 0.619383ZM13.5 11.0952H0.500519V3.01701H13.5V11.0952Z" fill="#3F3F3F"/>
<path d="M7.0967 1.25873H1.2616C1.12535 1.26123 1.0166 1.37248 1.0166 1.50873C1.0166 1.64498 1.12535 1.75561 1.2616 1.75873H7.0967C7.23295 1.75561 7.34169 1.64498 7.34169 1.50873C7.34169 1.37248 7.23294 1.26122 7.0967 1.25873Z" fill="#3F3F3F"/>
<path d="M3.8958 9.62874C3.96393 9.62937 4.02893 9.60124 4.07581 9.55186L6.964 6.53999L7.43775 7.71001C7.47025 7.78813 7.53962 7.84438 7.62212 7.86063C7.70524 7.87626 7.79087 7.85001 7.84962 7.78938L10.0484 5.4956V6.32249C10.0509 6.45936 10.1621 6.56874 10.2984 6.56874C10.4352 6.56874 10.5465 6.45937 10.5484 6.32249V4.87372C10.5446 4.77309 10.484 4.68309 10.3915 4.64247C10.3609 4.63434 10.3296 4.62809 10.2984 4.62372H8.9096C8.77335 4.62622 8.66397 4.73747 8.66397 4.87372C8.66397 5.00997 8.77334 5.12123 8.9096 5.12372H9.71273L7.75591 7.16438L7.28216 5.99437C7.25028 5.91625 7.18091 5.86 7.09779 5.84437C7.01466 5.82812 6.92966 5.855 6.87028 5.915L3.71521 9.20623C3.64771 9.27873 3.62896 9.38499 3.66833 9.47623C3.70709 9.56749 3.79642 9.62749 3.8958 9.62874Z" fill="#3F3F3F"/>
</svg>
