<svg width="50" height="41" viewBox="0 0 50 41" fill="none" xmlns="http://www.w3.org/2000/svg">
<path d="M17.4652 27.8656C17.0244 27.8656 16.666 27.5072 16.666 27.0663V23.5883C16.666 23.1474 17.0244 22.7891 17.4652 22.7891C17.9061 22.7891 18.2645 23.1474 18.2645 23.5883V27.0663C18.2645 27.5098 17.9061 27.8656 17.4652 27.8656Z" fill="url(#paint0_linear_447_2255)"/>
<path d="M22.8173 27.8656C22.3764 27.8656 22.0181 27.5072 22.0181 27.0663V23.5883C22.0181 23.1474 22.3764 22.7891 22.8173 22.7891C23.2582 22.7891 23.6165 23.1474 23.6165 23.5883V27.0663C23.6165 27.5098 23.2582 27.8656 22.8173 27.8656Z" fill="url(#paint1_linear_447_2255)"/>
<path d="M20.1418 24.9446C17.7414 24.9446 15.3771 23.7483 13.4873 21.5722C12.621 20.577 11.8888 19.422 11.3087 18.1406C10.7286 16.854 10.3315 15.5056 10.1278 14.1288C10.0634 13.6931 10.365 13.2883 10.8007 13.2239C11.2364 13.1594 11.6412 13.4611 11.7057 13.8968C12.0667 16.3435 13.1521 18.7568 14.6913 20.5228C16.2743 22.3431 18.2106 23.346 20.1417 23.346C22.2507 23.346 24.321 22.1781 25.9711 20.0613C27.5851 17.9935 28.5777 15.2812 28.6938 12.6253C28.7144 12.1845 29.0831 11.8416 29.524 11.8622C29.9648 11.8829 30.3077 12.2541 30.2871 12.6924C30.1556 15.6729 29.0392 18.7152 27.2241 21.0405C26.2934 22.2317 25.2337 23.1779 24.0735 23.8456C22.8179 24.5753 21.4927 24.9446 20.1418 24.9446Z" fill="url(#paint2_linear_447_2255)"/>
<path d="M17.3799 14.9411H15.539C15.0981 14.9411 14.7397 14.5827 14.7397 14.1419C14.7397 13.701 15.0981 13.3427 15.539 13.3427H17.3799C17.8208 13.3427 18.1791 13.701 18.1791 14.1419C18.1791 14.5828 17.8207 14.9411 17.3799 14.9411Z" fill="url(#paint3_linear_447_2255)"/>
<path d="M16.4618 15.8593C16.021 15.8593 15.6626 15.5009 15.6626 15.0601V14.1423C15.6626 13.7014 16.021 13.343 16.4618 13.343C16.9027 13.343 17.2611 13.7014 17.2611 14.1423V15.0601C17.2611 15.501 16.9027 15.8593 16.4618 15.8593Z" fill="url(#paint4_linear_447_2255)"/>
<path d="M24.7407 14.9411H22.8998C22.4589 14.9411 22.1006 14.5827 22.1006 14.1419C22.1006 13.701 22.459 13.3427 22.8998 13.3427H24.7407C25.1816 13.3427 25.54 13.701 25.54 14.1419C25.5374 14.5828 25.179 14.9411 24.7407 14.9411Z" fill="url(#paint5_linear_447_2255)"/>
<path d="M23.8207 15.8593C23.3798 15.8593 23.0215 15.5009 23.0215 15.0601V14.1423C23.0215 13.7014 23.3799 13.343 23.8207 13.343C24.2616 13.343 24.62 13.7014 24.62 14.1423V15.0601C24.62 15.501 24.2616 15.8593 23.8207 15.8593Z" fill="url(#paint6_linear_447_2255)"/>
<path d="M36.7275 41H0.799235C0.358352 41 0 40.6416 0 40.2007V33.9072C0 31.8678 0.79666 29.9495 2.23791 28.5057C3.67658 27.0619 5.59735 26.2704 7.63678 26.2704H27.9407C28.3816 26.2704 28.74 26.6288 28.74 27.0696C28.74 27.5105 28.3816 27.8689 27.9407 27.8689L7.63678 27.8663C4.30566 27.8663 1.59339 30.576 1.59339 33.9097V39.4039H36.725C37.1659 39.4039 37.5242 39.7623 37.5242 40.2032C37.5268 40.6415 37.1683 41 36.7275 41Z" fill="url(#paint7_linear_447_2255)"/>
<path d="M5.63345 40.9999H0.799234C0.358352 40.9999 0 40.6416 0 40.2007V35.3665C0 34.9256 0.358378 34.5673 0.799234 34.5673H5.63345C6.07433 34.5673 6.43268 34.9256 6.43268 35.3665V40.2007C6.43268 40.6416 6.07431 40.9999 5.63345 40.9999ZM1.59589 39.404H4.83415V36.1657H1.59589V39.404Z" fill="url(#paint8_linear_447_2255)"/>
<path d="M5.63322 36.1652C5.19234 36.1652 4.83398 35.8068 4.83398 35.366V32.9475C4.83398 32.5067 5.19236 32.1483 5.63322 32.1483C6.0741 32.1483 6.43245 32.5067 6.43245 32.9475V35.366C6.43245 35.8094 6.07407 36.1652 5.63322 36.1652Z" fill="url(#paint9_linear_447_2255)"/>
<path d="M8.31779 27.8633C7.87691 27.8633 7.51855 27.5049 7.51855 27.0641V12.6206C7.51855 10.9164 7.85373 9.26627 8.51118 7.70899C9.14543 6.20847 10.0582 4.85745 11.2158 3.69724C12.3734 2.53704 13.7219 1.62949 15.2275 0.992624C16.7848 0.335172 18.4375 0 20.1391 0C21.8433 0 23.4934 0.335172 25.0507 0.992624C26.5512 1.62688 27.9022 2.53961 29.0624 3.69724C30.2226 4.85488 31.1302 6.20332 31.7671 7.70899C32.4245 9.26627 32.7597 10.9189 32.7597 12.6206V24.2358C32.7597 24.6767 32.4013 25.0351 31.9604 25.0351C31.5196 25.0351 31.1612 24.6767 31.1612 24.2358V12.6206C31.1612 9.67622 30.0139 6.90718 27.9333 4.82887C25.8552 2.74046 23.0861 1.59576 20.1416 1.59576C14.0621 1.59576 9.11966 6.54086 9.11966 12.6177V27.0664C9.11709 27.5099 8.75864 27.8633 8.31779 27.8633Z" fill="url(#paint10_linear_447_2255)"/>
<path d="M8.31773 15.949C7.95419 15.949 7.62416 15.6963 7.54166 15.3276C7.44368 14.8996 7.71182 14.4716 8.14497 14.3736C9.25105 14.121 12.1902 13.0226 15.5472 8.22194C15.689 8.01826 15.9134 7.88677 16.166 7.87645C16.4135 7.86614 16.6456 7.96669 16.808 8.15748C16.857 8.21163 17.7671 9.18364 20.0051 10.1118C22.1399 10.9987 25.9402 12.0197 31.9451 11.8702C32.386 11.8599 32.7495 12.2079 32.765 12.6488C32.7753 13.0897 32.4272 13.4533 31.9863 13.4687C22.4442 13.7033 17.9501 11.1302 16.3336 9.86433C14.9208 11.7516 13.4357 13.2521 11.9094 14.317C10.4449 15.3431 9.24865 15.7582 8.5009 15.9284C8.43644 15.9413 8.37702 15.949 8.31773 15.949Z" fill="url(#paint11_linear_447_2255)"/>
<path d="M20.1416 20.6415C18.6153 20.6415 17.3726 19.4014 17.3726 17.8725C17.3726 17.4316 17.7309 17.0732 18.1718 17.0732C18.6126 17.0732 18.971 17.4316 18.971 17.8725C18.971 18.517 19.497 19.0456 20.1441 19.0456C20.7912 19.0456 21.3172 18.5196 21.3172 17.8725C21.3172 17.4316 21.6756 17.0732 22.1164 17.0732C22.5573 17.0732 22.9156 17.4316 22.9156 17.8725C22.9105 19.4014 21.6679 20.6415 20.1416 20.6415Z" fill="url(#paint12_linear_447_2255)"/>
<path d="M20.1418 41C20.0413 41 19.9407 40.9794 19.8453 40.9433C19.4354 40.7783 19.2368 40.3142 19.4018 39.9043L24.6563 26.7683C24.8213 26.3583 25.2854 26.1598 25.6953 26.3248C26.1053 26.4898 26.3038 26.9539 26.1388 27.3638L20.8843 40.4998C20.758 40.8118 20.4589 41 20.1418 41Z" fill="url(#paint13_linear_447_2255)"/>
<path d="M22.1111 40.9995C21.9074 40.9995 21.7012 40.9221 21.5465 40.7649C21.2345 40.4529 21.2345 39.945 21.5465 39.6356L26.4503 34.7318L25.9501 33.2312C25.8238 32.8548 25.9966 32.4423 26.3498 32.2644L27.5873 31.6456C27.9792 31.4497 28.4614 31.607 28.6573 32.004C28.8533 32.3959 28.696 32.878 28.2989 33.074L27.6827 33.3834L28.121 34.6957C28.219 34.9819 28.1442 35.2991 27.9277 35.5156L22.6732 40.7701C22.5211 40.9222 22.3148 40.9995 22.1111 40.9995Z" fill="url(#paint14_linear_447_2255)"/>
<path d="M20.1417 41C19.8245 41 19.5255 40.8093 19.3991 40.4973L14.1447 27.3613C13.9797 26.9514 14.1808 26.4873 14.5881 26.3223C14.9981 26.1573 15.4621 26.3584 15.6272 26.7657L20.8816 39.9017C21.0466 40.3117 20.8455 40.7757 20.4381 40.9408C20.3402 40.9846 20.2396 41 20.1417 41Z" fill="url(#paint15_linear_447_2255)"/>
<path d="M18.1715 41.0004C17.9679 41.0004 17.7616 40.9231 17.6069 40.7658L12.3524 35.5114C12.141 35.2999 12.0637 34.9802 12.1591 34.6915L12.5974 33.3766L10.5889 32.3736C10.3697 32.2653 10.2125 32.0565 10.1635 31.8167C10.1145 31.5744 10.179 31.3269 10.3414 31.1413L14.2836 26.5468C14.5697 26.2117 15.0725 26.173 15.4077 26.4592C15.7428 26.7454 15.7815 27.2481 15.4953 27.5833L12.221 31.4043L13.933 32.2603C14.2888 32.4382 14.4589 32.8507 14.3326 33.2271L13.8324 34.7276L18.7363 39.6314C19.0482 39.9434 19.0482 40.4513 18.7363 40.7607C18.579 40.9231 18.3778 41.0004 18.1715 41.0004Z" fill="url(#paint16_linear_447_2255)"/>
<path d="M48.7033 37.8051H39.9216C39.4807 37.8051 39.1223 37.4467 39.1223 37.0058C39.1223 36.5649 39.4807 36.2066 39.9216 36.2066H47.904V25.0296H28.7426V36.2066H36.725C37.1659 36.2066 37.5243 36.565 37.5243 37.0058C37.5243 37.4467 37.1659 37.8051 36.725 37.8051H27.9433C27.5024 37.8051 27.144 37.4467 27.144 37.0058V24.2309C27.144 23.79 27.5024 23.4316 27.9433 23.4316H48.7007C49.1415 23.4316 49.4999 23.79 49.4999 24.2309V37.0058C49.5025 37.4493 49.1442 37.8051 48.7033 37.8051Z" fill="url(#paint17_linear_447_2255)"/>
<path d="M39.9214 41.0003H36.727C36.2861 41.0003 35.9277 40.6419 35.9277 40.2011V31.4194C35.9277 30.9785 36.2861 30.6201 36.727 30.6201H39.9214C40.3623 30.6201 40.7206 30.9785 40.7206 31.4194V40.2011C40.7206 40.642 40.3623 41.0003 39.9214 41.0003ZM37.5262 39.4044H39.1222V32.2159H37.5262V39.4044Z" fill="url(#paint18_linear_447_2255)"/>
<defs>
<linearGradient id="paint0_linear_447_2255" x1="17.4653" y1="22.7891" x2="17.4653" y2="27.8656" gradientUnits="userSpaceOnUse">
<stop offset="0.23" stop-color="#63388D"/>
<stop offset="1" stop-color="#327EB2"/>
</linearGradient>
<linearGradient id="paint1_linear_447_2255" x1="22.8173" y1="22.7891" x2="22.8173" y2="27.8656" gradientUnits="userSpaceOnUse">
<stop offset="0.23" stop-color="#63388D"/>
<stop offset="1" stop-color="#327EB2"/>
</linearGradient>
<linearGradient id="paint2_linear_447_2255" x1="20.2036" y1="11.8613" x2="20.2036" y2="24.9446" gradientUnits="userSpaceOnUse">
<stop offset="0.23" stop-color="#63388D"/>
<stop offset="1" stop-color="#327EB2"/>
</linearGradient>
<linearGradient id="paint3_linear_447_2255" x1="16.4594" y1="13.3427" x2="16.4594" y2="14.9411" gradientUnits="userSpaceOnUse">
<stop offset="0.23" stop-color="#63388D"/>
<stop offset="1" stop-color="#327EB2"/>
</linearGradient>
<linearGradient id="paint4_linear_447_2255" x1="16.4618" y1="13.343" x2="16.4618" y2="15.8593" gradientUnits="userSpaceOnUse">
<stop offset="0.23" stop-color="#63388D"/>
<stop offset="1" stop-color="#327EB2"/>
</linearGradient>
<linearGradient id="paint5_linear_447_2255" x1="23.8203" y1="13.3427" x2="23.8203" y2="14.9411" gradientUnits="userSpaceOnUse">
<stop offset="0.23" stop-color="#63388D"/>
<stop offset="1" stop-color="#327EB2"/>
</linearGradient>
<linearGradient id="paint6_linear_447_2255" x1="23.8207" y1="13.343" x2="23.8207" y2="15.8593" gradientUnits="userSpaceOnUse">
<stop offset="0.23" stop-color="#63388D"/>
<stop offset="1" stop-color="#327EB2"/>
</linearGradient>
<linearGradient id="paint7_linear_447_2255" x1="18.7621" y1="26.2704" x2="18.7621" y2="41" gradientUnits="userSpaceOnUse">
<stop offset="0.23" stop-color="#63388D"/>
<stop offset="1" stop-color="#327EB2"/>
</linearGradient>
<linearGradient id="paint8_linear_447_2255" x1="3.21634" y1="34.5673" x2="3.21634" y2="40.9999" gradientUnits="userSpaceOnUse">
<stop offset="0.23" stop-color="#63388D"/>
<stop offset="1" stop-color="#327EB2"/>
</linearGradient>
<linearGradient id="paint9_linear_447_2255" x1="5.63322" y1="32.1483" x2="5.63322" y2="36.1652" gradientUnits="userSpaceOnUse">
<stop offset="0.23" stop-color="#63388D"/>
<stop offset="1" stop-color="#327EB2"/>
</linearGradient>
<linearGradient id="paint10_linear_447_2255" x1="20.1391" y1="0" x2="20.1391" y2="27.8633" gradientUnits="userSpaceOnUse">
<stop offset="0.23" stop-color="#63388D"/>
<stop offset="1" stop-color="#327EB2"/>
</linearGradient>
<linearGradient id="paint11_linear_447_2255" x1="20.1433" y1="7.87573" x2="20.1433" y2="15.949" gradientUnits="userSpaceOnUse">
<stop offset="0.23" stop-color="#63388D"/>
<stop offset="1" stop-color="#327EB2"/>
</linearGradient>
<linearGradient id="paint12_linear_447_2255" x1="20.1441" y1="17.0732" x2="20.1441" y2="20.6415" gradientUnits="userSpaceOnUse">
<stop offset="0.23" stop-color="#63388D"/>
<stop offset="1" stop-color="#327EB2"/>
</linearGradient>
<linearGradient id="paint13_linear_447_2255" x1="22.7703" y1="26.2667" x2="22.7703" y2="41" gradientUnits="userSpaceOnUse">
<stop offset="0.23" stop-color="#63388D"/>
<stop offset="1" stop-color="#327EB2"/>
</linearGradient>
<linearGradient id="paint14_linear_447_2255" x1="25.027" y1="31.5615" x2="25.027" y2="40.9996" gradientUnits="userSpaceOnUse">
<stop offset="0.23" stop-color="#63388D"/>
<stop offset="1" stop-color="#327EB2"/>
</linearGradient>
<linearGradient id="paint15_linear_447_2255" x1="17.5131" y1="26.2645" x2="17.5131" y2="41.0001" gradientUnits="userSpaceOnUse">
<stop offset="0.23" stop-color="#63388D"/>
<stop offset="1" stop-color="#327EB2"/>
</linearGradient>
<linearGradient id="paint16_linear_447_2255" x1="14.5588" y1="26.2676" x2="14.5588" y2="41.0005" gradientUnits="userSpaceOnUse">
<stop offset="0.23" stop-color="#63388D"/>
<stop offset="1" stop-color="#327EB2"/>
</linearGradient>
<linearGradient id="paint17_linear_447_2255" x1="38.322" y1="23.4316" x2="38.322" y2="37.8051" gradientUnits="userSpaceOnUse">
<stop offset="0.23" stop-color="#63388D"/>
<stop offset="1" stop-color="#327EB2"/>
</linearGradient>
<linearGradient id="paint18_linear_447_2255" x1="38.3242" y1="30.6201" x2="38.3242" y2="41.0003" gradientUnits="userSpaceOnUse">
<stop offset="0.23" stop-color="#63388D"/>
<stop offset="1" stop-color="#327EB2"/>
</linearGradient>
</defs>
</svg>
