<svg width="43" height="40" viewBox="0 0 43 40" fill="none" xmlns="http://www.w3.org/2000/svg">
<path fill-rule="evenodd" clip-rule="evenodd" d="M4.30981 26.4033L10.9179 20.3806C12.5695 18.6932 15.5515 18.6847 18.6446 19.1078C13.417 14.3255 11.6804 10.1232 11.9756 6.97537C12.1024 5.62406 12.5973 4.4656 13.3511 3.52722C14.1049 2.59395 15.1104 1.891 16.2671 1.444C18.8965 0.427136 22.3039 0.768347 25.1644 2.86013C27.3649 1.25121 29.8812 0.676231 32.1287 0.961142C33.4903 1.13176 34.7546 1.61801 35.7792 2.38238C36.8178 3.15015 37.6184 4.19772 38.0439 5.4808C38.6483 7.29614 38.5024 9.5722 37.2207 12.1893C37.7817 13.0577 38.1099 14.0831 38.1099 15.1921C38.1099 16.7362 37.4743 18.1387 36.4392 19.1505C35.4093 20.1622 33.9818 20.7918 32.41 20.7918C31.6424 20.7918 30.9129 20.6451 30.2478 20.3738C29.9056 20.6587 29.541 20.9539 29.1519 21.261C28.7681 21.5647 28.3895 21.8547 28.0248 22.126C28.0856 22.3188 28.1186 22.5167 28.1325 22.7232C28.1654 23.3203 27.9779 23.8902 27.6357 24.3509C27.2936 24.8064 26.7986 25.151 26.2029 25.3029C26.156 25.3166 26.1091 25.3217 26.0675 25.3166L21.1542 25.3678C21.0413 25.4787 20.9579 25.5878 20.911 25.6902C20.8832 25.7551 20.8694 25.8096 20.8728 25.8557C20.8728 25.8933 20.8954 25.9291 20.9284 25.9666C20.9753 26.0212 21.0448 26.0724 21.149 26.1236L26.189 26.1918C26.7551 26.2004 27.2883 26.1236 27.785 25.9615C28.2817 25.8011 28.7541 25.552 29.2074 25.2159L37.3871 19.1333C37.4427 19.0924 37.5035 19.0651 37.5695 19.0497C38.8842 18.6403 40.0131 18.5157 40.7894 18.6778C41.2392 18.7699 41.59 18.9576 41.8244 19.2391C42.0728 19.5428 42.1753 19.925 42.0954 20.384C41.9964 20.959 41.6039 21.6721 40.8467 22.5167C40.8328 22.5355 40.8137 22.5491 40.7998 22.5628L30.7807 32.2317C30.2232 32.7692 29.6102 33.1735 28.9467 33.45C28.2816 33.7263 27.5573 33.868 26.7758 33.8867L16.3953 34.0846C15.7961 34.0932 15.2386 34.199 14.7246 34.3935C14.2105 34.5914 13.7277 34.8814 13.2744 35.267L12.7447 35.7226C12.9219 35.9427 13.007 36.2105 12.9879 36.4716C12.9687 36.7514 12.8472 37.0278 12.6179 37.2308L10.2681 39.2816C10.2681 39.2816 10.2403 39.3038 10.2264 39.314C10.0024 39.4983 9.72107 39.5853 9.44493 39.5666C9.16879 39.5529 8.89784 39.4335 8.6964 39.2219C8.6825 39.2083 8.67382 39.1997 8.6634 39.1844L0.297789 29.9487C0.297789 29.9487 0.275212 29.9214 0.259581 29.9077C0.0720128 29.6876 -0.0165561 29.4112 0.00254837 29.14C0.0164421 28.8687 0.138014 28.6025 0.353365 28.4046C0.367259 28.391 0.375942 28.3824 0.391573 28.3722L2.72226 26.335C2.72226 26.335 2.75005 26.3128 2.76394 26.2975C2.98798 26.1132 3.26932 26.0262 3.54546 26.045C3.8216 26.0586 4.09254 26.178 4.29399 26.3896L4.30788 26.4033L4.30981 26.4033ZM14.7562 12.1229C14.4852 12.1229 14.2646 11.9062 14.2646 11.64C14.2646 11.3738 14.4852 11.1571 14.7562 11.1571H17.7086L18.7853 9.04147C18.9069 8.8026 19.2022 8.70535 19.4453 8.82479C19.5339 8.87085 19.6051 8.93569 19.652 9.01247L21.0935 11.4676H21.7534L23.2974 8.83845C23.4329 8.60812 23.7368 8.52964 23.9712 8.66442C24.0876 8.73267 24.1675 8.83845 24.2005 8.95788L25.3137 13.0408H27.1477C27.4377 12.3549 27.8598 11.7441 28.3825 11.2288C29.4124 10.2171 30.8399 9.5875 32.4117 9.5875C33.9834 9.5875 35.411 10.212 36.4409 11.2288C36.4739 11.2612 36.5069 11.2937 36.5399 11.3295C37.5142 9.15071 37.6062 7.2705 37.106 5.77934C36.7465 4.69421 36.0675 3.80702 35.1818 3.15355C34.2873 2.49157 33.188 2.06842 32.0001 1.92171C29.8986 1.65554 27.5212 2.23393 25.4769 3.84799C25.2998 3.99131 25.041 3.99984 24.8552 3.84799C22.2293 1.7784 19.0478 1.40648 16.623 2.34486C15.6261 2.73045 14.7595 3.33272 14.1186 4.12949C13.4778 4.92456 13.0557 5.90902 12.9481 7.06238C12.658 10.1574 14.5858 14.433 20.4369 19.3927C21.0882 19.507 21.7325 19.6315 22.3647 19.7509C23.6707 20 24.902 20.2338 25.9215 20.3447H25.944C26.5484 20.4368 27.0764 20.7303 27.4654 21.15C27.4984 21.1825 27.5262 21.2183 27.554 21.2507C27.91 20.9845 28.2366 20.7354 28.537 20.4966C28.794 20.2935 29.051 20.0871 29.3046 19.8806C28.9729 19.669 28.6586 19.4216 28.3772 19.1453C27.3473 18.1335 26.7065 16.731 26.7065 15.1869C26.7065 14.7826 26.7482 14.3919 26.8333 14.0097H24.9281C24.7075 14.0097 24.5113 13.8664 24.4505 13.6514L23.5474 10.3363L22.4706 12.167C22.3907 12.3274 22.2223 12.4383 22.026 12.4383H20.7999C20.6315 12.4383 20.463 12.3513 20.3744 12.1943L19.2473 10.2732L18.4658 11.8139C18.3963 11.993 18.2122 12.1227 18.0073 12.1227H14.7492L14.7562 12.1229ZM31.3278 11.7594C31.1819 11.7594 31.0516 11.8106 30.9439 11.8874C30.9248 11.9011 30.9057 11.9198 30.8884 11.9386C30.7755 12.0495 30.706 12.2013 30.706 12.3703V13.5066H29.5493C29.4035 13.5066 29.2732 13.5578 29.1655 13.6345C29.1464 13.6482 29.1273 13.667 29.1099 13.6857C28.9971 13.7966 28.9276 13.9485 28.9276 14.1174V16.2501C28.9276 16.4156 28.9971 16.5674 29.1099 16.6818C29.2228 16.7927 29.3774 16.8609 29.5459 16.8609H30.7025V17.9972C30.7025 18.1627 30.772 18.3146 30.8849 18.4255C30.9978 18.5364 31.1523 18.6046 31.3243 18.6046H33.4952C33.6689 18.6046 33.8234 18.5364 33.9346 18.4255C34.0475 18.3146 34.1169 18.1627 34.1169 17.9972V16.8609H35.2736C35.4473 16.8609 35.6018 16.7927 35.713 16.6818C35.8259 16.5708 35.8954 16.419 35.8954 16.2501V14.1174C35.8954 13.9468 35.8259 13.7949 35.713 13.6857C35.6001 13.5748 35.4455 13.5066 35.2736 13.5066H34.1169V12.3703C34.1169 12.1996 34.0475 12.0478 33.9346 11.9386C33.8217 11.8277 33.6671 11.7594 33.4952 11.7594H31.3243H31.3278ZM33.1339 12.7303H31.6925V13.9894C31.6925 14.2556 31.4719 14.4723 31.201 14.4723H29.9193V15.8884H31.201C31.4719 15.8884 31.6925 16.1051 31.6925 16.3713V17.6304H33.1339V16.3713C33.1339 16.1051 33.3545 15.8884 33.6255 15.8884H34.9072V14.4723H33.6255C33.3545 14.4723 33.1339 14.2556 33.1339 13.9894V12.7303ZM35.746 11.9113C34.895 11.0753 33.714 10.5549 32.4132 10.5549C31.1124 10.5549 29.9332 11.0753 29.0804 11.9113C28.2294 12.7474 27.6997 13.9075 27.6997 15.1855C27.6997 16.4634 28.2294 17.6218 29.0804 18.4596C29.9314 19.2956 31.1124 19.816 32.4132 19.816C33.714 19.816 34.8932 19.2956 35.746 18.4596C36.597 17.6236 37.1267 16.4634 37.1267 15.1855C37.1267 13.9075 36.597 12.7491 35.746 11.9113ZM12.0883 34.9925L12.6215 34.5335C13.1651 34.0694 13.7399 33.7196 14.3617 33.4859C14.9834 33.2522 15.6538 33.1276 16.3745 33.114L26.7551 32.9161C27.4011 32.9024 28.0038 32.783 28.5613 32.5527C29.1188 32.3223 29.6241 31.9879 30.0861 31.5358L40.1052 21.8668C40.7374 21.1639 41.0552 20.6162 41.1212 20.217C41.149 20.0464 41.1264 19.9235 41.0604 19.8399C40.9753 19.7392 40.8121 19.6608 40.588 19.6147C39.9802 19.4901 39.0476 19.5959 37.9152 19.9457L29.7995 25.982C29.2559 26.3863 28.6897 26.6815 28.0871 26.8743C27.4879 27.0671 26.8523 27.1592 26.1732 27.1507L21.0532 27.0825C20.9785 27.0825 20.8986 27.0739 20.8239 27.0415C20.5478 26.917 20.3324 26.7651 20.1779 26.5911C20.0094 26.3983 19.9156 26.1816 19.893 25.9479C19.8705 25.7278 19.9121 25.506 20.0094 25.2859C20.131 25.0197 20.3463 24.757 20.6364 24.513C20.7215 24.4448 20.8326 24.3987 20.9507 24.3987L26.0098 24.3475C26.352 24.2468 26.6368 24.0387 26.8383 23.7725C27.0484 23.4927 27.1613 23.1378 27.1422 22.7659C27.1231 22.3939 26.9737 22.0578 26.7358 21.7951C26.4979 21.5374 26.1696 21.3532 25.7945 21.2986C24.7282 21.1843 23.4864 20.9454 22.1769 20.6963C18.2172 19.9422 13.5525 19.055 11.6141 21.0597C11.6054 21.0682 11.595 21.0785 11.5915 21.0819L4.96428 27.1182L12.0868 34.9854L12.0883 34.9925ZM3.39771 27.0383L1.03404 29.1028C1.00625 29.1249 0.992356 29.1574 0.992356 29.1898C0.992356 29.2222 1.00104 29.258 1.02535 29.2819L9.41719 38.5517C9.43977 38.579 9.47277 38.5926 9.50577 38.5926C9.53876 38.5926 9.57524 38.5841 9.59955 38.5602L11.9632 36.4957C11.991 36.4735 12.0049 36.4411 12.0049 36.4087C12.0049 36.3763 11.9962 36.3405 11.9719 36.3166L3.58007 27.0468C3.55749 27.0195 3.5245 27.0059 3.4915 27.0059C3.4585 27.0059 3.42203 27.0144 3.39771 27.0383Z" fill="#63388B"/>
</svg>
