<svg width="39" height="28" viewBox="0 0 39 28" fill="none" xmlns="http://www.w3.org/2000/svg">
<path d="M33.9493 3.3977C33.271 3.18492 32.5813 3.0076 31.884 2.86947V1.36883C31.884 1.17098 31.7533 0.995534 31.5619 0.933938C26.6544 -0.600292 21.2996 0.254527 17.1348 3.23531C12.97 0.254527 7.61516 -0.600292 2.70959 0.933938C2.51822 0.995534 2.38747 1.17098 2.38747 1.36883V2.87133C1.69018 3.00759 1.00045 3.1849 0.322119 3.3977C0.130742 3.4593 0 3.63474 0 3.83446V27.3561C0 27.5147 0.0833744 27.6622 0.219797 27.7443C0.356224 27.8283 0.526758 27.8358 0.670767 27.7648C5.62775 25.288 11.3138 24.6123 16.7277 25.8591C16.7732 25.8909 16.8168 25.9207 16.8604 25.9543C17.0233 26.0738 17.2469 26.0738 17.4099 25.9543C17.4534 25.9226 17.4989 25.8927 17.5425 25.8591C22.9559 24.6123 28.6425 25.288 33.5995 27.7648C33.7435 27.8358 33.914 27.8283 34.0504 27.7443C34.1869 27.6622 34.2702 27.5147 34.2702 27.3561V3.83446C34.2702 3.63474 34.1414 3.45929 33.95 3.3977H33.9493ZM30.9555 1.70479V22.542C26.3966 21.3064 21.5155 22.0978 17.599 24.7109V19.0554H20.8657C23.3062 19.0554 25.292 16.8754 25.292 14.1969V11.9814L27.2891 11.2834V14.8185H27.291C26.6998 15.0145 26.3 15.5595 26.3 16.1754V18.0139C26.3 18.2659 26.5065 18.4712 26.7642 18.4712H28.7462H28.7443C29.0001 18.4712 29.2085 18.2659 29.2085 18.0139V16.1754C29.2066 15.5613 28.8087 15.0144 28.2175 14.8185V10.9586L28.786 10.7608V10.7589C28.9698 10.6936 29.093 10.5219 29.093 10.3296C29.093 10.1374 28.9698 9.96565 28.786 9.90032L17.5992 5.98631V4.03213C21.44 1.24921 26.38 0.388753 30.9557 1.70648L30.9555 1.70479ZM17.0799 6.77397L27.2457 10.3278L17.0799 13.8834L6.91227 10.3278L17.0799 6.77397ZM9.79264 12.3062L16.9228 14.7998V14.7979C17.0232 14.8334 17.1331 14.8334 17.2335 14.7979L24.3636 12.3043V14.195C24.3636 16.3695 22.7947 18.1389 20.8639 18.1389L13.2904 18.1408C11.3615 18.1408 9.79071 16.3732 9.79071 14.1969L9.79264 12.3062ZM27.7535 15.6565C28.0453 15.6584 28.2803 15.8898 28.2803 16.1754V17.5584H27.2267V16.1754C27.2267 15.8898 27.4636 15.6565 27.7535 15.6565ZM3.31592 1.70651C7.89192 0.388775 12.8297 1.24922 16.6705 4.03215V5.94715L5.36779 9.89848H5.36968C5.18588 9.96381 5.06272 10.1355 5.06272 10.3278C5.06272 10.52 5.18589 10.6936 5.36968 10.7589L8.86184 11.9796V14.1951C8.86184 16.8735 10.8476 19.0536 13.2881 19.0536H16.6685V24.7091C13.9798 22.9341 10.821 21.9803 7.58454 21.9653C6.14066 21.9653 4.70251 22.1594 3.3117 22.5421L3.31592 1.70651ZM8.62167 24.4908C5.95754 24.7932 3.35957 25.5155 0.928861 26.6299V4.17043C1.41015 4.02671 1.89901 3.90539 2.38787 3.80273V23.1544C2.38787 23.3 2.45798 23.4381 2.57925 23.524C2.69862 23.6098 2.8521 23.6341 2.99421 23.5893C6.81418 22.3854 10.964 22.7251 14.5279 24.5356C12.5686 24.2855 10.5848 24.2706 8.62167 24.4908ZM33.3435 26.6299C30.9106 25.5156 28.3128 24.7932 25.6488 24.4908C23.6857 24.2706 21.7019 24.2874 19.7425 24.5394C23.3086 22.727 27.4581 22.3873 31.2781 23.5931C31.4202 23.636 31.5737 23.6117 31.6931 23.5259C31.8124 23.44 31.8844 23.3037 31.8844 23.1582V3.80647C32.3733 3.90913 32.8622 4.03045 33.3434 4.17417L33.3435 26.6299ZM19.4127 4.85944C21.9403 3.60331 24.7596 3.02094 27.5872 3.17217C27.843 3.1871 28.0381 3.40175 28.023 3.65372C28.0097 3.90569 27.7899 4.09794 27.5341 4.08487C24.8681 3.94302 22.2114 4.49176 19.8277 5.67697C19.7178 5.73109 19.589 5.74043 19.4734 5.70123C19.3559 5.6639 19.2593 5.58177 19.2043 5.47352C19.0906 5.24767 19.1834 4.97331 19.4127 4.85944ZM6.24723 3.65372C6.23396 3.40174 6.42913 3.1871 6.68493 3.17217C9.512 3.02098 12.3317 3.60332 14.8594 4.85944C15.0887 4.9733 15.1815 5.24767 15.066 5.47354C14.9523 5.69938 14.6737 5.79084 14.4445 5.67698C12.0608 4.49175 9.40406 3.94303 6.73809 4.08489C6.61492 4.09049 6.49365 4.04943 6.4027 3.96917C6.30985 3.88891 6.25481 3.77504 6.24723 3.65372ZM6.73798 20.1719C6.48597 20.1775 6.27564 19.9871 6.26048 19.7407C6.24532 19.4944 6.43291 19.2797 6.68302 19.2592C9.51198 19.108 12.3317 19.6903 14.859 20.9465C15.0882 21.0603 15.1811 21.3347 15.0655 21.5586C14.9518 21.7845 14.6733 21.8759 14.444 21.764C12.0603 20.5787 9.40395 20.03 6.73798 20.1719ZM28.0226 19.7407C28.0094 19.9927 27.7896 20.185 27.5338 20.1719C24.8678 20.03 22.2111 20.5788 19.8274 21.764C19.7175 21.8181 19.5886 21.8274 19.4731 21.7882C19.3556 21.7509 19.2589 21.6688 19.204 21.5587C19.0903 21.3347 19.1832 21.0603 19.4124 20.9465C21.9401 19.6903 24.7594 19.108 27.5869 19.2592C27.7101 19.2648 27.8257 19.3208 27.9071 19.4104C27.9886 19.5019 28.0302 19.6194 28.0226 19.7407ZM37.241 3.27077H36.7692C35.871 3.3081 35.1718 4.05095 35.204 4.93569V19.5746V19.612V19.6269C35.204 19.6381 35.2059 19.6493 35.2097 19.6605V19.6717L36.5493 25.2598L36.5474 25.2579C36.5967 25.4651 36.7843 25.6107 37.0003 25.6107C37.2144 25.6107 37.402 25.4651 37.4513 25.2579L38.7909 19.6698V19.6586C38.7928 19.6474 38.7947 19.6362 38.7966 19.6269V19.6101V19.5746L38.7947 4.93569C38.8269 4.05468 38.1334 3.31186 37.241 3.27077ZM37.1709 18.6317L37.1614 18.6298L37.1349 18.6205L37.1159 18.6149L37.0932 18.6093L37.0704 18.6056H36.9605L36.934 18.6093L36.917 18.613L36.8904 18.6186L36.8734 18.6242L36.8469 18.6336L36.8393 18.6373L36.1306 18.9061L36.1287 7.91433H37.8777V18.9004L37.1709 18.6317ZM37.8795 6.99967L36.1287 7.00154V6.23999H37.8776L37.8795 6.99967ZM36.7691 4.18503H37.2428C37.6256 4.22609 37.906 4.55646 37.8814 4.93535V5.32731H36.1287V4.93535C36.1021 4.55645 36.3845 4.22421 36.7691 4.18503ZM37.006 23.1655L36.2121 19.8506L37.006 19.5501L37.7999 19.8506L37.006 23.1655Z" fill="#125115"/>
</svg>
