<svg width="30" height="48" viewBox="0 0 30 48" fill="none" xmlns="http://www.w3.org/2000/svg">
<path d="M5.33265 26.4727C3.5872 25.2364 1.04174 25.9636 0.241745 28C-0.340073 29.3818 0.169018 30.9818 1.33265 31.8545L7.80538 37.5273C7.95084 43.3455 12.6781 48 18.4963 48H18.7872C24.6781 48 29.5508 43.2 29.5508 37.2364V22.6909C29.5508 19.3455 25.4054 18.5455 23.7327 20.5818C23.1508 19.8545 22.2054 19.4182 21.1872 19.4182C20.169 19.4182 19.2236 19.9273 18.6417 20.6545C18.0599 19.9273 17.1145 19.4182 16.0963 19.4182C15.4417 19.4182 14.7872 19.6364 14.2781 20V18.1818C17.769 16.7273 20.0236 13.3091 20.0236 9.45455C20.0236 4.21818 15.8054 0 10.569 0C5.33265 0 1.11447 4.21818 1.11447 9.45455C1.11447 13.6 3.80538 17.2364 7.73265 18.4727V28.8C6.13265 27.2727 5.40538 26.5455 5.33265 26.4727ZM16.0963 20.8727C17.1145 20.8727 17.9145 21.6727 17.9145 22.6909C17.9145 23.1273 18.2054 23.4182 18.6417 23.4182C19.0781 23.4182 19.369 23.1273 19.369 22.6909C19.369 21.6727 20.169 20.8727 21.1872 20.8727C22.2054 20.8727 23.0054 21.6727 23.0054 22.6909C23.0054 23.1273 23.2963 23.4182 23.7327 23.4182C24.169 23.4182 24.4599 23.1273 24.4599 22.6909C24.4599 21.4545 25.3327 20.8727 26.2781 20.8727C27.1508 20.8727 28.0963 21.4545 28.0963 22.6909V37.2364C28.0963 42.3273 23.9508 46.5455 18.7872 46.5455H18.4963C13.4054 46.5455 9.1872 42.4 9.1872 37.2364C9.1872 37.0182 9.11447 36.8 8.96902 36.6545L2.20538 30.6909C1.55084 30.1818 1.25993 29.2364 1.55084 28.5091C1.9872 27.3455 3.36902 26.9091 4.3872 27.6364L7.95084 30.9818C8.16902 31.2 8.45993 31.2 8.75084 31.1273C9.04175 30.9818 9.1872 30.7636 9.1872 30.4727V13.6727C10.4236 14.1091 11.5872 13.9636 12.8236 13.6V22.6909C12.8236 23.1273 13.1145 23.4182 13.5508 23.4182C13.9872 23.4182 14.2781 23.1273 14.2781 22.6909C14.2781 21.7455 15.1508 20.8727 16.0963 20.8727ZM12.8236 12C10.9327 12.8727 9.69629 12.3636 9.1872 12.0727V11.3455C9.1872 10.2545 9.9872 9.38182 11.0054 9.38182H11.0781C12.0236 9.45455 12.8236 10.2545 12.8236 11.2V12ZM11.2236 8C9.40538 7.92727 7.80538 9.52727 7.80538 11.4182V14.1818C6.20538 13.1636 5.11447 11.4182 5.11447 9.45455C5.11447 6.4 7.5872 3.92727 10.6417 3.92727C13.6963 3.92727 16.169 6.4 16.169 9.45455C16.169 11.0545 15.5145 12.5091 14.3508 13.5273V11.2727C14.2781 9.52727 12.969 8.07273 11.2236 8ZM2.64174 9.45455C2.64174 5.01818 6.20538 1.45455 10.6417 1.45455C15.0781 1.45455 18.6417 5.01818 18.6417 9.45455C18.6417 12.4364 16.969 15.2 14.3508 16.5091V15.2727C16.3872 14.0364 17.6236 11.7818 17.6236 9.38182C17.6236 5.52727 14.4963 2.4 10.6417 2.4C6.7872 2.4 3.65993 5.52727 3.65993 9.38182C3.65993 12.1455 5.25993 14.6182 7.80538 15.7091V16.8C4.67811 15.7818 2.64174 12.8 2.64174 9.45455Z" fill="url(#paint0_linear_447_2281)"/>
<defs>
<linearGradient id="paint0_linear_447_2281" x1="14.7754" y1="0" x2="14.7754" y2="48" gradientUnits="userSpaceOnUse">
<stop stop-color="#63388D"/>
<stop offset="1" stop-color="#327EB2"/>
</linearGradient>
</defs>
</svg>
