<svg width="41" height="36" viewBox="0 0 41 36" fill="none" xmlns="http://www.w3.org/2000/svg">
<path fill-rule="evenodd" clip-rule="evenodd" d="M31.0996 21.0736C29.8995 26.9959 24.6575 31.3206 18.5227 31.3206C11.4359 31.3206 5.69084 25.5932 5.69084 18.528C5.69084 13.4344 8.70594 8.88954 13.288 6.84586L12.8242 6.3851L12.8236 6.38575C11.4004 4.96694 11.4151 2.64552 12.8147 1.27285L12.8153 1.2722L12.8147 1.27155C14.245 -0.154435 16.5952 -0.139517 17.9788 1.26266L17.9795 1.26331L17.9801 1.26266C18.6863 1.96669 19.0441 2.89596 19.0441 3.82417H19.0428C19.0428 4.48865 18.8612 5.15306 18.4981 5.73537C20.7495 5.73113 22.9262 6.30773 24.8497 7.39638L24.672 7.01135C24.1137 5.55137 24.2195 2.0165 25.9032 1.57962C27.4599 1.17568 29.8864 3.70286 30.2746 5.17759L30.8025 7.07958L39.6703 7.01909C39.8098 7.01852 39.9292 7.10559 39.9762 7.22828L39.977 7.22795L40.8831 9.5978C40.9541 9.78343 40.8488 9.99204 40.628 10.0356L32.1856 12.0623L33.66 17.374L36.206 17.5722C36.3381 17.582 36.4461 17.6689 36.4887 17.7855L36.8979 18.8554C36.9698 19.0438 36.8592 19.2565 36.6355 19.2943L34.1609 19.801C33.9284 20.9468 32.5864 21.4558 31.6478 20.7564L31.0996 21.0736ZM15.4187 1.96921C14.3518 1.96921 13.4867 2.83163 13.4867 3.89525C13.4867 5.60534 15.5705 6.4676 16.7848 5.25716C17.999 4.04656 17.1341 1.96921 15.4187 1.96921ZM16.3223 2.99443C15.5194 2.19405 14.1409 2.76381 14.1409 3.89517C14.1409 5.02653 15.5194 5.59637 16.3223 4.79591C16.8213 4.29854 16.8213 3.49188 16.3223 2.99443ZM15.6234 3.37694L15.2739 3.72406L15.2141 3.66471C14.9099 3.36291 14.4496 3.82368 14.7541 4.1258L15.0439 4.41357C15.1711 4.5396 15.3766 4.53977 15.5039 4.41357L16.0833 3.83802C16.3877 3.5359 15.9278 3.07514 15.6234 3.37694ZM14.0848 6.71942C14.0897 6.72399 14.0945 6.72871 14.0991 6.7336L15.4017 8.02736L17.5263 5.91594L17.5269 5.91659C18.0995 5.34349 18.3909 4.58607 18.3909 3.82441H18.3896C18.3896 3.05631 18.099 2.30386 17.5173 1.724L17.518 1.72334C16.3543 0.568257 14.4468 0.566627 13.277 1.73288L13.2763 1.73223C12.1248 2.88536 12.1233 4.76566 13.2859 5.92482L13.2853 5.92548L14.0848 6.71942ZM13.7851 7.33964C10.9145 8.5491 8.6146 10.8213 7.36881 13.6474C7.80334 13.6951 8.40772 13.6649 8.84357 13.5622C8.86344 13.5568 8.88413 13.5532 8.90547 13.5516C10.7846 13.4105 11.7651 14.3621 11.8473 16.406C11.9328 16.6954 12.03 16.8988 12.1386 17.0161C12.3288 17.2217 12.5853 17.0239 12.8262 16.7917C13.3412 16.2953 13.979 15.2981 14.7397 13.8002C14.9243 13.1892 15.2377 12.7486 15.68 12.4786C16.1202 12.2099 16.6727 12.1212 17.3372 12.2122C17.8967 12.196 18.0611 11.6838 18.2285 11.1619C18.5313 10.2179 18.8416 9.25198 20.5936 9.67239C20.7599 9.66742 20.8799 9.63766 20.961 9.58818C21.2562 9.40794 21.0122 8.75022 20.8761 8.44263C20.5277 7.65595 19.8859 6.80306 19.4974 6.42586C19.4389 6.39936 17.9962 6.37067 17.9616 6.40287L15.6318 8.71687C15.5045 8.84307 15.299 8.84291 15.1718 8.71687L13.7851 7.33964ZM17.9616 6.40287L17.5175 6.38583C17.6392 6.50714 17.8332 6.51284 17.9616 6.40287ZM2.41129 17.2448C3.6642 17.2448 4.29606 18.7623 3.40916 19.6465C3.23138 19.8237 3.00651 19.9538 2.75482 20.0166C2.80699 20.7756 2.91051 21.5003 3.06956 22.2447C3.15902 22.6633 2.52038 22.7994 2.43075 22.3797C2.26557 21.6064 2.15486 20.8213 2.1017 20.0245C1.02566 19.7842 0.624327 18.4436 1.41351 17.6568C1.6688 17.4024 2.02165 17.2448 2.41129 17.2448ZM2.94665 18.118C2.47099 17.6439 1.65433 17.9814 1.65433 18.6517C1.65433 19.3221 2.47107 19.6595 2.94665 19.1854C3.24218 18.8907 3.24218 18.4127 2.94665 18.118ZM33.734 23.7855C33.4726 24.5935 33.1403 25.3896 32.7544 26.1408C32.5591 26.5209 33.1387 26.8173 33.3344 26.4363C33.7446 25.638 34.0792 24.8385 34.3549 23.9842C34.4864 23.577 33.8652 23.3778 33.734 23.7855ZM31.9531 27.5202C31.4876 28.2362 30.9699 28.9087 30.3949 29.5421C30.1073 29.859 30.5902 30.2947 30.8779 29.9777C31.4734 29.3216 32.0157 28.6183 32.4999 27.8743C32.7337 27.5151 32.1869 27.1614 31.9531 27.5202ZM29.2632 30.6696C28.622 31.2477 27.9633 31.7521 27.2352 32.2229C26.8754 32.4555 27.2299 33.0011 27.5904 32.7681C28.3301 32.2897 29.0448 31.742 29.7002 31.1511C30.018 30.8644 29.5811 30.3827 29.2632 30.6696ZM25.8516 33.0214C26.2332 32.827 26.5299 33.4048 26.148 33.5998C25.3471 34.0086 24.5454 34.3423 23.6886 34.6172C23.2803 34.7481 23.0802 34.1292 23.4893 33.9981C24.2917 33.7408 25.106 33.4028 25.8516 33.0214ZM21.9439 34.4095C22.3643 34.3207 22.5001 34.9572 22.0794 35.0464C21.2227 35.2281 20.3225 35.3478 19.4393 35.3904C19.0112 35.4111 18.9789 34.7615 19.4086 34.7407C20.2598 34.6997 21.1129 34.5865 21.9439 34.4095ZM17.8067 34.7409C18.2359 34.761 18.2046 35.4112 17.776 35.3906C16.8915 35.348 15.9936 35.2294 15.1357 35.0473C14.7148 34.9579 14.8511 34.3212 15.2711 34.4104C16.1156 34.5896 16.9419 34.6981 17.8067 34.7409ZM13.7259 33.9988C14.1349 34.1297 13.9351 34.7489 13.5267 34.6179C12.6695 34.3429 11.868 34.0094 11.0669 33.6005C10.6848 33.4054 10.9822 32.8276 11.3634 33.0223C12.117 33.4069 12.9154 33.7382 13.7259 33.9988ZM9.97979 32.2233C9.25447 31.7548 8.59007 31.2458 7.95168 30.6699C7.63375 30.3831 7.19676 30.8647 7.51469 31.1514C8.17017 31.7427 8.8847 32.2899 9.62457 32.7685C9.98486 33.0016 10.3397 32.4564 9.97979 32.2233ZM6.82069 29.5418C6.24092 28.9027 5.73476 28.2457 5.2626 27.52C5.02923 27.1613 4.48193 27.5148 4.71579 27.8741C5.19563 28.6117 5.74498 29.3241 6.33774 29.9774C6.62525 30.2943 7.10836 29.8587 6.82069 29.5418ZM4.46148 26.1406C4.65651 26.521 4.07707 26.8168 3.88147 26.4361C3.47114 25.6373 3.13669 24.8388 2.86088 23.9841C2.72955 23.577 3.3502 23.3776 3.48177 23.7854C3.73976 24.585 4.07895 25.3978 4.46148 26.1406ZM31.1141 16.4696L32.1613 19.1042C32.3193 19.5017 32.925 19.2624 32.7669 18.8648L31.7197 16.2302C31.5617 15.8327 30.956 16.0721 31.1141 16.4696ZM26.496 5.62238C26.8985 4.82558 27.3133 4.66971 28.0356 4.86227C28.4509 4.97297 28.6198 4.34387 28.2043 4.233C27.1892 3.96235 26.4617 4.24474 25.9134 5.32939C25.72 5.71197 26.3027 6.00472 26.496 5.62238ZM25.9377 8.1247L26.3471 8.95182C26.4224 9.08331 26.3974 9.2537 26.279 9.35764L19.6041 15.212L20.2975 17.0254L27.9291 12.9471C28.1033 12.848 28.3077 12.913 28.3909 13.0812L31.0877 18.5298C31.1468 18.6492 31.1282 18.7976 31.0302 18.8991L29.2473 20.7524L29.4478 21.2769L31.5231 20.0764V20.0765C31.6507 20.0027 31.8169 20.0226 31.923 20.1338C32.5046 20.7419 33.5171 20.3317 33.54 19.5238C33.5427 19.3749 33.6484 19.2423 33.8008 19.2114L36.1505 18.7302L35.9501 18.206L33.3826 18.0061L33.3827 18.0055C33.2493 17.9955 33.1303 17.9038 33.0926 17.7679L31.4672 11.9122L31.4676 11.9121C31.4185 11.7348 31.527 11.5525 31.7061 11.5097L40.1405 9.48497L39.4468 7.67054L30.5717 7.73103C30.4222 7.73893 30.282 7.64274 30.2405 7.4929L29.6459 5.35099C29.2854 4.0168 26.9517 1.73981 25.9351 2.25919C24.8986 2.78875 24.7917 5.80923 25.3691 6.9763L25.9377 8.1247ZM25.399 8.50655C23.9229 7.49787 22.2427 6.82369 20.4592 6.53999C21.0081 7.24026 22.4984 9.41226 21.3009 10.1435C21.1154 10.2567 20.8707 10.321 20.5559 10.3227C20.5281 10.3228 20.5012 10.3194 20.4756 10.3131L20.4754 10.3138C18.1532 9.73565 19.4919 12.8588 17.3126 12.8622C17.2971 12.8622 17.2817 12.861 17.2667 12.8589L17.2667 12.8596C16.2687 12.7175 15.6376 13.0473 15.3563 14.013C15.3506 14.0326 15.3432 14.0513 15.3343 14.0689L15.3346 14.069C14.5514 15.6142 13.4575 17.5611 12.4663 17.7418C11.7642 17.8699 11.3975 17.2103 11.2092 16.5512C11.1997 16.5178 11.1957 16.4841 11.1968 16.4512C11.1371 14.8487 10.3941 14.0984 8.96786 14.2004C8.58787 14.276 8.22292 14.3161 7.8731 14.3205C7.60971 14.3239 7.35687 14.3074 7.11458 14.2713C6.6026 15.6347 6.33194 17.1053 6.34592 18.6431C6.93501 19.1689 7.57577 19.3095 8.54984 19.1409C9.27884 19.0147 9.69048 19.5675 9.83473 20.3953C9.98216 21.2417 9.8353 22.3293 9.52195 23.1521C9.20852 23.9751 8.70832 24.6167 8.0467 24.721C11.8575 31.1147 20.5106 32.6443 26.2786 27.8889C28.2402 26.2717 29.6848 24.0542 30.3289 21.5196L29.443 22.032C29.2691 22.1325 29.0463 22.0536 28.9745 21.8663L28.9741 21.8665L28.5633 20.7922C28.5144 20.6642 28.5519 20.5244 28.6471 20.4368L30.4015 18.6132L27.955 13.6704L20.2776 17.7732C20.1047 17.8653 19.8893 17.7841 19.8198 17.6021L19.8189 17.6024L18.9128 15.2326C18.8624 15.1007 18.9037 14.9565 19.0052 14.8695L25.6597 9.03302L25.399 8.50655ZM23.5185 24.3363L23.5186 24.3362L23.5249 24.3415C24.4351 25.0731 25.1944 24.8347 25.7524 24.1448C26.4753 23.251 26.7835 21.5515 26.5893 20.436C26.445 19.608 26.0333 19.0551 25.3043 19.1813C23.8551 19.4322 23.29 18.8772 22.8648 18.4597C22.2811 17.8865 21.8815 17.4941 20.7605 18.4529C20.1487 18.9762 19.263 17.3964 18.269 18.3813L18.2693 18.3816C18.2583 18.3925 18.2479 18.4042 18.2384 18.417C17.8518 18.9309 17.4412 19.0615 16.877 18.7532C16.8594 18.7436 16.8406 18.7354 16.8208 18.729C15.4616 18.2837 14.5099 18.1045 13.9657 18.1914C13.1674 18.319 13.0071 18.8113 13.4846 19.668L13.4851 19.6677C13.4978 19.6904 13.5133 19.7119 13.5319 19.7316C13.9082 20.1326 14.0964 20.5006 14.0964 20.8354C14.0964 21.151 13.9217 21.4608 13.5724 21.7646C12.9135 22.2029 12.4685 22.7263 12.2377 23.3346C12.0068 23.943 11.9952 24.6242 12.2028 25.3779C12.2094 25.4094 12.2209 25.4405 12.2376 25.47C12.6273 26.1594 13.1226 26.6392 13.7232 26.9093C14.3152 27.1755 14.9985 27.2322 15.7731 27.0791C16.2396 27.0464 16.5852 27.142 16.8096 27.3658C17.0435 27.5989 17.171 27.9842 17.1919 28.5213C17.1907 28.5547 17.1946 28.5888 17.2042 28.6226C17.3494 29.1308 17.6409 29.6128 18.1853 29.5135C18.9174 29.3799 19.6745 28.0304 20.2304 26.9335L20.2301 26.9334C20.239 26.9158 20.2464 26.8971 20.2521 26.8775C20.431 26.2633 20.8173 26.0661 21.4537 26.1567L21.4538 26.156C21.4688 26.1581 21.4841 26.1592 21.4997 26.1592C22.6822 26.1574 22.6103 24.4916 22.9627 24.0784C23.026 24.0041 23.1747 24.045 23.5185 24.3363ZM22.4645 23.658C22.7819 23.2858 23.2173 23.2271 23.9396 23.839C24.4789 24.2691 24.9221 24.1351 25.2439 23.7372C26.2015 22.5533 26.2174 19.6842 25.4142 19.8233C23.6372 20.131 22.9354 19.4418 22.4073 18.9233C22.0772 18.599 21.8511 18.3771 21.1846 18.9471C20.5926 19.4535 20.076 19.1881 19.569 18.9277C19.2668 18.7725 18.9702 18.6201 18.7417 18.8303C18.4505 19.2093 18.122 19.4428 17.7564 19.5304C17.3863 19.6191 16.9976 19.5552 16.5902 19.3386C15.3446 18.9322 14.5037 18.7637 14.0678 18.8334C13.8888 18.862 13.8787 19.0246 14.0374 19.321C14.5127 19.8376 14.7505 20.3424 14.7505 20.8354C14.7505 21.35 14.4975 21.8259 13.9918 22.2629C13.9789 22.2749 13.9648 22.286 13.9497 22.296C13.3984 22.6594 13.0313 23.0821 12.8484 23.5638C12.6697 24.035 12.6621 24.5749 12.8257 25.1834C13.1418 25.7308 13.5303 26.1083 13.9916 26.3157C14.4585 26.5257 15.0111 26.5674 15.6494 26.4408C15.6692 26.4355 15.6896 26.4319 15.7108 26.4303C16.3839 26.3798 16.9044 26.5378 17.2722 26.9045C17.622 27.2532 17.8122 27.7775 17.8427 28.4772C17.8598 28.5787 17.9957 28.887 18.0679 28.8738C18.1353 28.8615 18.2274 28.7991 18.344 28.6867C18.689 28.3541 19.1197 27.6798 19.6359 26.6639C19.7708 26.2238 20.0002 25.9048 20.3241 25.707C20.6453 25.511 21.0443 25.4449 21.5209 25.5085C21.8134 25.4861 21.9488 25.0122 22.0745 24.572C22.1747 24.2211 22.2706 23.8853 22.4645 23.658ZM6.3819 19.4795C6.50938 21.1191 6.96354 22.6673 7.67954 24.0596C8.20893 24.1731 8.63865 23.6375 8.91086 22.9227C9.183 22.2081 9.31817 21.238 9.19044 20.5047C9.11096 20.0485 8.93646 19.7348 8.65942 19.7828C7.73138 19.9434 6.99086 19.8424 6.3819 19.4795Z" fill="black"/>
<path d="M17.9616 6.40287C17.9962 6.37067 19.4389 6.39936 19.4974 6.42586C19.8859 6.80306 20.5277 7.65595 20.8761 8.44263C21.0122 8.75022 21.2562 9.40794 20.961 9.58818C20.8799 9.63766 20.7599 9.66742 20.5936 9.67239C18.8416 9.25198 18.5313 10.2179 18.2285 11.1619C18.0611 11.6838 17.8967 12.196 17.3372 12.2122C16.6727 12.1212 16.1202 12.2099 15.68 12.4786C15.2377 12.7486 14.9243 13.1892 14.7397 13.8002C13.979 15.2981 13.3412 16.2953 12.8262 16.7917C12.5853 17.0239 12.3288 17.2217 12.1386 17.0161C12.03 16.8988 11.9328 16.6954 11.8473 16.406C11.7651 14.3621 10.7846 13.4105 8.90547 13.5516C8.88413 13.5532 8.86344 13.5568 8.84357 13.5622C8.40772 13.6649 7.80334 13.6951 7.36881 13.6474C8.61461 10.8213 10.9145 8.5491 13.7851 7.33964L15.1718 8.71687C15.299 8.84291 15.5045 8.84307 15.6318 8.71687L17.9616 6.40287ZM17.9616 6.40287L17.5175 6.38583C17.6392 6.50714 17.8332 6.51284 17.9616 6.40287ZM31.0996 21.0736C29.8995 26.9959 24.6575 31.3206 18.5227 31.3206C11.4359 31.3206 5.69084 25.5932 5.69084 18.528C5.69084 13.4344 8.70594 8.88954 13.288 6.84586L12.8242 6.3851L12.8236 6.38575C11.4004 4.96694 11.4151 2.64552 12.8147 1.27285L12.8153 1.2722L12.8147 1.27155C14.245 -0.154435 16.5952 -0.139517 17.9788 1.26266L17.9795 1.26331L17.9801 1.26266C18.6863 1.96669 19.0441 2.89596 19.0441 3.82417H19.0428C19.0428 4.48865 18.8612 5.15306 18.4981 5.73537C20.7495 5.73113 22.9262 6.30773 24.8497 7.39638L24.672 7.01135C24.1137 5.55137 24.2195 2.0165 25.9032 1.57962C27.4599 1.17568 29.8864 3.70286 30.2746 5.17759L30.8025 7.07958L39.6703 7.01909C39.8098 7.01852 39.9292 7.10559 39.9762 7.22828L39.977 7.22795L40.8831 9.5978C40.9541 9.78343 40.8488 9.99204 40.628 10.0356L32.1856 12.0623L33.66 17.374L36.206 17.5722C36.3381 17.582 36.4461 17.6689 36.4887 17.7855L36.8979 18.8554C36.9698 19.0438 36.8592 19.2565 36.6355 19.2943L34.1609 19.801C33.9284 20.9468 32.5864 21.4558 31.6478 20.7564L31.0996 21.0736ZM15.4187 1.96921C14.3518 1.96921 13.4867 2.83163 13.4867 3.89525C13.4867 5.60534 15.5705 6.4676 16.7848 5.25716C17.999 4.04656 17.1341 1.96921 15.4187 1.96921ZM16.3223 2.99443C15.5194 2.19405 14.1409 2.76381 14.1409 3.89517C14.1409 5.02653 15.5194 5.59637 16.3223 4.79591C16.8213 4.29854 16.8213 3.49188 16.3223 2.99443ZM15.6234 3.37694L15.2739 3.72406L15.2141 3.66471C14.9099 3.36291 14.4496 3.82368 14.7541 4.1258L15.0439 4.41357C15.1711 4.5396 15.3766 4.53977 15.5039 4.41357L16.0833 3.83802C16.3877 3.5359 15.9278 3.07514 15.6234 3.37694ZM14.0848 6.71942C14.0897 6.72399 14.0945 6.72871 14.0991 6.7336L15.4017 8.02736L17.5263 5.91594L17.5269 5.91659C18.0995 5.34349 18.3909 4.58607 18.3909 3.82441H18.3896C18.3896 3.05631 18.099 2.30386 17.5173 1.724L17.5179 1.72334C16.3543 0.568257 14.4468 0.566627 13.277 1.73288L13.2763 1.73223C12.1248 2.88536 12.1233 4.76566 13.2859 5.92482L13.2853 5.92548L14.0848 6.71942ZM2.41129 17.2448C3.6642 17.2448 4.29606 18.7623 3.40916 19.6464C3.23138 19.8237 3.00651 19.9538 2.75482 20.0166C2.80699 20.7756 2.91051 21.5003 3.06956 22.2447C3.15902 22.6633 2.52038 22.7994 2.43075 22.3797C2.26557 21.6064 2.15486 20.8213 2.1017 20.0245C1.02566 19.7842 0.624327 18.4436 1.41351 17.6568C1.6688 17.4024 2.02165 17.2448 2.41129 17.2448ZM2.94665 18.118C2.47099 17.6439 1.65433 17.9814 1.65433 18.6517C1.65433 19.3221 2.47107 19.6595 2.94665 19.1854C3.24218 18.8907 3.24218 18.4127 2.94665 18.118ZM33.734 23.7855C33.4726 24.5935 33.1403 25.3896 32.7544 26.1408C32.5591 26.5209 33.1387 26.8173 33.3344 26.4363C33.7446 25.638 34.0792 24.8385 34.3549 23.9842C34.4864 23.577 33.8653 23.3778 33.734 23.7855ZM31.9531 27.5202C31.4876 28.2362 30.9699 28.9087 30.3949 29.5421C30.1073 29.859 30.5902 30.2947 30.8779 29.9777C31.4734 29.3216 32.0157 28.6183 32.4999 27.8743C32.7337 27.5151 32.1869 27.1614 31.9531 27.5202ZM29.2632 30.6696C28.622 31.2477 27.9633 31.7521 27.2352 32.2229C26.8754 32.4555 27.2299 33.0011 27.5904 32.7681C28.3301 32.2897 29.0448 31.742 29.7002 31.1511C30.018 30.8644 29.5811 30.3827 29.2632 30.6696ZM25.8516 33.0214C26.2332 32.827 26.5299 33.4048 26.148 33.5998C25.3471 34.0086 24.5454 34.3423 23.6886 34.6172C23.2803 34.7481 23.0802 34.1292 23.4893 33.9981C24.2917 33.7408 25.106 33.4028 25.8516 33.0214ZM21.9439 34.4095C22.3643 34.3207 22.5001 34.9572 22.0794 35.0464C21.2227 35.2281 20.3225 35.3478 19.4393 35.3904C19.0112 35.4111 18.9789 34.7615 19.4086 34.7407C20.2598 34.6997 21.1129 34.5865 21.9439 34.4095ZM17.8067 34.7409C18.2359 34.761 18.2046 35.4112 17.776 35.3906C16.8915 35.348 15.9936 35.2294 15.1357 35.0473C14.7148 34.9579 14.8511 34.3212 15.2711 34.4104C16.1156 34.5896 16.9419 34.6981 17.8067 34.7409ZM13.7259 33.9988C14.1349 34.1297 13.9351 34.7489 13.5267 34.6179C12.6695 34.3429 11.868 34.0094 11.0669 33.6005C10.6848 33.4054 10.9822 32.8276 11.3634 33.0223C12.117 33.4069 12.9154 33.7382 13.7259 33.9988ZM9.97979 32.2233C9.25447 31.7548 8.59007 31.2458 7.95168 30.6699C7.63375 30.3831 7.19676 30.8647 7.51469 31.1514C8.17017 31.7427 8.8847 32.2899 9.62457 32.7685C9.98486 33.0016 10.3397 32.4564 9.97979 32.2233ZM6.82069 29.5418C6.24092 28.9027 5.73476 28.2457 5.2626 27.52C5.02923 27.1613 4.48193 27.5148 4.71579 27.8741C5.19563 28.6117 5.74498 29.3241 6.33774 29.9774C6.62525 30.2943 7.10836 29.8587 6.82069 29.5418ZM4.46148 26.1406C4.65651 26.521 4.07707 26.8168 3.88147 26.4361C3.47114 25.6373 3.13669 24.8388 2.86088 23.9841C2.72955 23.577 3.3502 23.3776 3.48177 23.7854C3.73976 24.585 4.07895 25.3978 4.46148 26.1406ZM31.1141 16.4696L32.1613 19.1042C32.3193 19.5017 32.925 19.2624 32.7669 18.8648L31.7197 16.2302C31.5617 15.8327 30.956 16.0721 31.1141 16.4696ZM26.496 5.62238C26.8985 4.82558 27.3133 4.66971 28.0356 4.86227C28.4509 4.97297 28.6198 4.34387 28.2043 4.233C27.1892 3.96235 26.4617 4.24474 25.9134 5.32939C25.72 5.71197 26.3027 6.00472 26.496 5.62238ZM25.9377 8.1247L26.3471 8.95182C26.4224 9.08331 26.3974 9.2537 26.279 9.35764L19.6041 15.212L20.2975 17.0254L27.9291 12.9471C28.1033 12.848 28.3077 12.913 28.3909 13.0812L31.0877 18.5298C31.1468 18.6492 31.1282 18.7976 31.0302 18.8991L29.2473 20.7524L29.4478 21.2769L31.5231 20.0764V20.0765C31.6507 20.0027 31.8169 20.0226 31.923 20.1338C32.5046 20.7419 33.5171 20.3317 33.54 19.5238C33.5427 19.3749 33.6484 19.2423 33.8008 19.2114L36.1505 18.7302L35.9501 18.206L33.3826 18.0061L33.3827 18.0055C33.2493 17.9955 33.1303 17.9038 33.0926 17.7679L31.4672 11.9122L31.4676 11.9121C31.4185 11.7348 31.527 11.5525 31.7061 11.5097L40.1405 9.48497L39.4468 7.67054L30.5717 7.73103C30.4222 7.73893 30.282 7.64274 30.2405 7.4929L29.6459 5.35099C29.2854 4.0168 26.9517 1.73981 25.9351 2.25919C24.8986 2.78875 24.7917 5.80923 25.3691 6.9763L25.9377 8.1247ZM25.399 8.50655C23.9229 7.49787 22.2427 6.82369 20.4592 6.53999C21.0081 7.24026 22.4984 9.41226 21.3009 10.1435C21.1154 10.2567 20.8707 10.321 20.5559 10.3227C20.5281 10.3228 20.5012 10.3194 20.4756 10.3131L20.4754 10.3138C18.1532 9.73565 19.4919 12.8588 17.3126 12.8622C17.2971 12.8622 17.2817 12.861 17.2667 12.8589L17.2667 12.8596C16.2687 12.7175 15.6376 13.0473 15.3563 14.013C15.3506 14.0326 15.3432 14.0513 15.3343 14.0689L15.3346 14.069C14.5514 15.6142 13.4575 17.5611 12.4663 17.7419C11.7642 17.8699 11.3975 17.2103 11.2092 16.5512C11.1997 16.5178 11.1957 16.4841 11.1968 16.4512C11.1371 14.8487 10.3941 14.0984 8.96786 14.2004C8.58787 14.276 8.22292 14.3161 7.8731 14.3205C7.60971 14.3239 7.35687 14.3074 7.11458 14.2713C6.6026 15.6347 6.33194 17.1053 6.34592 18.6431C6.93501 19.1689 7.57577 19.3095 8.54984 19.1409C9.27884 19.0147 9.69048 19.5675 9.83473 20.3953C9.98216 21.2417 9.8353 22.3293 9.52195 23.1521C9.20852 23.9751 8.70832 24.6167 8.0467 24.721C11.8575 31.1147 20.5106 32.6443 26.2786 27.8889C28.2402 26.2717 29.6848 24.0542 30.3289 21.5196L29.443 22.032C29.2691 22.1325 29.0463 22.0536 28.9745 21.8663L28.9741 21.8665L28.5633 20.7922C28.5144 20.6642 28.5519 20.5244 28.6471 20.4368L30.4015 18.6132L27.955 13.6704L20.2776 17.7732C20.1047 17.8653 19.8893 17.7841 19.8198 17.6021L19.8189 17.6024L18.9128 15.2326C18.8624 15.1007 18.9037 14.9565 19.0052 14.8695L25.6598 9.03302L25.399 8.50655ZM23.5185 24.3363L23.5186 24.3362L23.5249 24.3415C24.4351 25.0731 25.1944 24.8347 25.7524 24.1448C26.4753 23.251 26.7835 21.5515 26.5893 20.436C26.445 19.608 26.0333 19.0551 25.3043 19.1813C23.8551 19.4322 23.29 18.8772 22.8648 18.4597C22.2811 17.8865 21.8815 17.4941 20.7605 18.4529C20.1487 18.9762 19.263 17.3964 18.269 18.3813L18.2693 18.3816C18.2583 18.3925 18.2479 18.4042 18.2384 18.417C17.8518 18.9309 17.4412 19.0615 16.877 18.7532C16.8594 18.7436 16.8406 18.7354 16.8208 18.729C15.4616 18.2837 14.5099 18.1045 13.9657 18.1914C13.1674 18.319 13.0071 18.8113 13.4846 19.668L13.4851 19.6677C13.4978 19.6904 13.5133 19.7119 13.5319 19.7316C13.9082 20.1326 14.0964 20.5006 14.0964 20.8354C14.0964 21.151 13.9217 21.4608 13.5724 21.7646C12.9135 22.2029 12.4685 22.7263 12.2377 23.3346C12.0068 23.943 11.9952 24.6242 12.2028 25.3779C12.2094 25.4094 12.2209 25.4405 12.2376 25.47C12.6273 26.1594 13.1226 26.6392 13.7232 26.9093C14.3152 27.1755 14.9985 27.2322 15.7731 27.0791C16.2396 27.0464 16.5852 27.142 16.8096 27.3658C17.0435 27.5989 17.171 27.9842 17.1919 28.5213C17.1907 28.5547 17.1946 28.5888 17.2042 28.6226C17.3494 29.1308 17.6409 29.6128 18.1853 29.5135C18.9174 29.3799 19.6745 28.0304 20.2304 26.9335L20.2301 26.9334C20.239 26.9158 20.2464 26.8971 20.2521 26.8775C20.431 26.2633 20.8173 26.0661 21.4537 26.1567L21.4538 26.156C21.4688 26.1581 21.4841 26.1592 21.4997 26.1592C22.6822 26.1574 22.6103 24.4916 22.9627 24.0784C23.026 24.0041 23.1747 24.045 23.5185 24.3363ZM22.4645 23.658C22.7819 23.2858 23.2173 23.2271 23.9396 23.839C24.4789 24.2691 24.9221 24.1351 25.2439 23.7372C26.2015 22.5533 26.2174 19.6842 25.4142 19.8233C23.6372 20.131 22.9354 19.4418 22.4073 18.9233C22.0772 18.599 21.8511 18.3771 21.1846 18.9471C20.5926 19.4535 20.076 19.1881 19.569 18.9277C19.2668 18.7725 18.9702 18.6201 18.7417 18.8303C18.4505 19.2093 18.122 19.4428 17.7564 19.5304C17.3863 19.6191 16.9976 19.5552 16.5902 19.3386C15.3446 18.9322 14.5037 18.7637 14.0678 18.8334C13.8888 18.862 13.8787 19.0246 14.0374 19.321C14.5127 19.8376 14.7505 20.3424 14.7505 20.8354C14.7505 21.35 14.4975 21.8259 13.9918 22.2629C13.9789 22.2749 13.9648 22.286 13.9497 22.296C13.3984 22.6594 13.0313 23.0821 12.8484 23.5638C12.6697 24.035 12.6621 24.5749 12.8257 25.1834C13.1418 25.7308 13.5303 26.1083 13.9916 26.3157C14.4585 26.5257 15.0111 26.5674 15.6494 26.4408C15.6692 26.4355 15.6896 26.4319 15.7108 26.4303C16.3839 26.3798 16.9044 26.5378 17.2722 26.9045C17.622 27.2532 17.8122 27.7775 17.8427 28.4772C17.8598 28.5787 17.9957 28.887 18.0679 28.8738C18.1353 28.8615 18.2274 28.7991 18.344 28.6867C18.689 28.3541 19.1197 27.6798 19.6359 26.6639C19.7708 26.2238 20.0002 25.9048 20.3241 25.707C20.6453 25.511 21.0443 25.4449 21.5209 25.5085C21.8134 25.4861 21.9488 25.0122 22.0745 24.572C22.1747 24.2211 22.2706 23.8853 22.4645 23.658ZM6.3819 19.4795C6.50938 21.1191 6.96354 22.6673 7.67954 24.0596C8.20893 24.1731 8.63865 23.6375 8.91086 22.9227C9.183 22.2081 9.31817 21.238 9.19044 20.5047C9.11096 20.0485 8.93646 19.7348 8.65942 19.7828C7.73138 19.9434 6.99086 19.8424 6.3819 19.4795Z" stroke="#4F52A9" stroke-width="0.2"/>
</svg>
