<svg width="33" height="32" viewBox="0 0 33 32" fill="none" xmlns="http://www.w3.org/2000/svg">
<path d="M14.5427 19.0569H10.3787C9.67974 19.0569 9.1107 19.6243 9.1107 20.3211V30.1084C9.1107 30.8052 9.67977 31.3725 10.3787 31.3725H14.5427C15.2417 31.3725 15.8107 30.8052 15.8107 30.1084L15.8121 20.3224C15.8121 19.6243 15.243 19.0569 14.5427 19.0569ZM15.1774 30.1056C15.1774 30.454 14.8936 30.7384 14.5427 30.7384H10.3787C10.0292 30.7384 9.74401 30.4554 9.74401 30.1056V20.3224C9.74401 19.974 10.0279 19.6896 10.3787 19.6896H14.5427C14.8922 19.6896 15.1774 19.9726 15.1774 20.3224V30.1056ZM30.7669 10.1147H26.6052C25.9063 10.1147 25.3372 10.682 25.3372 11.3788V30.1057C25.3372 30.8025 25.9063 31.3698 26.6052 31.3698H30.7693C31.4682 31.3698 32.0373 30.8025 32.0373 30.1057V11.3788C32.0346 10.682 31.4658 10.1147 30.7669 10.1147ZM31.4016 30.1056C31.4016 30.454 31.1177 30.7384 30.7669 30.7384H26.6052C26.2558 30.7384 25.9706 30.4554 25.9706 30.1056V11.3787C25.9706 11.0303 26.2544 10.746 26.6052 10.746H30.7693C31.1187 10.746 31.404 11.029 31.404 11.3787V30.1056H31.4016ZM6.42964 23.5301H2.268C1.56904 23.5301 1 24.0975 1 24.7942V30.1084C1 30.8052 1.56908 31.3725 2.268 31.3725H6.43204C7.13099 31.3725 7.70004 30.8052 7.70004 30.1084L7.70138 24.7915C7.69736 24.0947 7.12856 23.5301 6.42964 23.5301ZM7.06432 30.1056C7.06432 30.454 6.78047 30.7384 6.42964 30.7384H2.268C1.91854 30.7384 1.63331 30.4554 1.63331 30.1056V24.7914C1.63331 24.4431 1.91717 24.1587 2.268 24.1587H6.43204C6.7815 24.1587 7.06672 24.4417 7.06672 24.7914V30.1056H7.06432ZM22.6565 14.5879H18.4925C17.7935 14.5879 17.2245 15.1552 17.2245 15.852V30.1084C17.2245 30.8052 17.7936 31.3725 18.4925 31.3725H22.6565C23.3555 31.3725 23.9245 30.8052 23.9245 30.1084V15.8492C23.9218 15.1551 23.3554 14.5879 22.6565 14.5879ZM23.2912 30.1056C23.2912 30.454 23.0073 30.7384 22.6565 30.7384H18.4925C18.143 30.7384 17.8578 30.4554 17.8578 30.1056V15.8492C17.8578 15.5008 18.1417 15.2164 18.4925 15.2164H22.6565C23.006 15.2164 23.2912 15.4994 23.2912 15.8492V30.1056ZM26.2249 4.14507C26.2182 3.9702 26.3588 3.82337 26.5329 3.8207L29.5121 3.73126H29.5228C29.6942 3.73126 29.8347 3.86742 29.8388 4.03828L29.9285 7.00836C29.9352 7.18322 29.7946 7.33006 29.6205 7.33273H29.6098C29.4384 7.33273 29.2978 7.19657 29.2938 7.02571L29.2282 4.85924C23.0099 11.731 13.237 16.8357 3.5601 18.2306C3.54671 18.2346 3.5293 18.2346 3.51591 18.2346C3.36193 18.2346 3.22402 18.1225 3.20393 17.965C3.17983 17.7901 3.30034 17.6339 3.47172 17.6059C13.0321 16.2283 22.6847 11.1811 28.8022 4.38146L26.55 4.44953C26.372 4.45621 26.2276 4.31861 26.2249 4.14507ZM1.55838 8.51813L2.32562 8.6583C2.3457 8.6623 2.35641 8.67164 2.36311 8.693C2.48362 9.12016 2.655 9.53395 2.87326 9.92376C2.88398 9.94378 2.88398 9.95847 2.86925 9.97449L2.42336 10.6139C2.23457 10.8835 2.26938 11.2493 2.50236 11.4816L3.45168 12.428C3.68466 12.6602 4.05154 12.6949 4.32202 12.5067L4.96339 12.0622C4.9808 12.0489 4.99419 12.0489 5.01427 12.0582C5.40524 12.2771 5.82035 12.448 6.24882 12.5668C6.2689 12.5735 6.27961 12.5842 6.28363 12.6042L6.42422 13.3691C6.48314 13.6934 6.767 13.9257 7.09637 13.9257H8.4407C8.77009 13.9257 9.05397 13.6894 9.11285 13.3691L9.25345 12.6042C9.25746 12.5842 9.26684 12.5735 9.28826 12.5668C9.71673 12.4467 10.1318 12.2758 10.5228 12.0582C10.5429 12.0475 10.5576 12.0475 10.5737 12.0622L11.2151 12.5067C11.4855 12.6949 11.8524 12.6602 12.0854 12.428L13.0347 11.4816C13.2677 11.2493 13.3025 10.8835 13.1137 10.6139L12.6678 9.97449C12.6544 9.95713 12.6544 9.94378 12.6638 9.92376C12.8834 9.53399 13.0548 9.12016 13.174 8.693C13.1807 8.67298 13.1914 8.6623 13.2115 8.6583L13.9787 8.51813C14.3041 8.4594 14.537 8.17641 14.537 7.84804V6.50783C14.537 6.17945 14.3 5.89645 13.9787 5.83774L13.2115 5.69758C13.1914 5.69357 13.1807 5.68423 13.174 5.66287C13.0535 5.23572 12.8821 4.82192 12.6638 4.43211C12.6531 4.41209 12.6531 4.39741 12.6678 4.38139L13.1137 3.74199C13.3025 3.47234 13.2677 3.10658 13.0347 2.87431L12.0854 1.9279C11.8524 1.69563 11.4855 1.66093 11.2151 1.84914L10.5737 2.29366C10.5563 2.30701 10.5429 2.30701 10.5228 2.29766C10.1318 2.07875 9.71673 1.90789 9.28826 1.78907C9.26818 1.7824 9.25746 1.77172 9.25345 1.7517L9.11285 0.986813C9.05394 0.66244 8.77008 0.430176 8.4407 0.430176H7.09637C6.76698 0.430176 6.48311 0.666448 6.42422 0.986813L6.28899 1.75303C6.28497 1.77305 6.2756 1.78373 6.25417 1.79041C5.8257 1.91054 5.41064 2.08141 5.01963 2.299C4.99955 2.30968 4.98482 2.30968 4.96875 2.29499L4.32738 1.85048C4.05691 1.66226 3.69002 1.69697 3.45704 1.92923L2.50772 2.87964C2.27474 3.11191 2.23993 3.47766 2.42872 3.74732L2.87461 4.38672C2.88799 4.40407 2.88799 4.41742 2.87862 4.43744C2.65903 4.82722 2.48765 5.24105 2.36847 5.6682C2.36177 5.68823 2.35106 5.69891 2.33098 5.70291L1.56374 5.84307C1.23837 5.90181 1.00539 6.1848 1.00539 6.51316V7.85337C1.00004 8.18042 1.23702 8.46072 1.55838 8.51813ZM1.63336 6.51316C1.63336 6.48913 1.64675 6.46911 1.67487 6.46511L2.44211 6.32495C2.70321 6.27689 2.9054 6.09268 2.97636 5.83905C3.08213 5.45994 3.23746 5.09419 3.42892 4.74846C3.55881 4.51886 3.54541 4.24254 3.39411 4.02763L2.94823 3.38822C2.93484 3.3682 2.93484 3.34417 2.95492 3.32682L3.90424 2.38041C3.92165 2.36306 3.94575 2.36039 3.96584 2.37374L4.6072 2.81825C4.82278 2.96909 5.10128 2.98244 5.33026 2.85296C5.67704 2.65807 6.04258 2.50724 6.42419 2.40178C6.67726 2.3297 6.86336 2.12546 6.91158 1.86917L7.05218 1.10428C7.05619 1.08025 7.07628 1.0629 7.10038 1.0629H8.44471C8.46881 1.0629 8.4889 1.07625 8.49291 1.10428L8.63351 1.86917C8.68171 2.12946 8.86649 2.33104 9.1209 2.40178C9.50118 2.50723 9.86805 2.66208 10.2148 2.85296C10.4451 2.98244 10.7223 2.96909 10.9379 2.81825L11.5793 2.37374C11.5993 2.36039 11.6234 2.36039 11.6408 2.38041L12.5902 3.32682C12.6076 3.34417 12.6103 3.3682 12.5969 3.38822L12.151 4.02763C11.9997 4.24254 11.9863 4.52019 12.1162 4.74846C12.3117 5.09419 12.463 5.4586 12.5687 5.83905C12.641 6.09134 12.8432 6.27687 13.103 6.32495L13.8702 6.46511C13.8943 6.46911 13.9117 6.48914 13.9117 6.51316V7.85337C13.9117 7.8774 13.8983 7.89743 13.8702 7.90143L13.103 8.04159C12.8419 8.08964 12.6397 8.27386 12.5687 8.52749C12.463 8.9066 12.3076 9.27235 12.1162 9.61807C11.9863 9.84767 11.9997 10.124 12.151 10.3389L12.5969 10.9783C12.6103 10.9983 12.6103 11.0224 12.5902 11.0397L11.6408 11.9861C11.6234 12.0035 11.5993 12.0061 11.5793 11.9928L10.9379 11.5483C10.7223 11.3974 10.4438 11.3881 10.2148 11.5136C9.86805 11.7085 9.50251 11.8593 9.1209 11.9648C8.86784 12.0368 8.68174 12.2384 8.63351 12.4974L8.49291 13.2623C8.4889 13.2863 8.46881 13.3036 8.44471 13.3036H7.10038C7.07628 13.3036 7.05619 13.2903 7.05218 13.2623L6.91158 12.4974C6.86338 12.2371 6.6786 12.0355 6.42419 11.9648C6.04392 11.8593 5.67704 11.7045 5.33026 11.5136C5.22448 11.4548 5.11067 11.4241 4.99417 11.4241C4.8576 11.4241 4.7237 11.4655 4.60721 11.5469L3.96585 11.9915C3.94576 12.0048 3.92166 12.0048 3.90425 11.9848L2.95493 11.0384C2.93753 11.021 2.93485 10.997 2.94824 10.977L3.39412 10.3376C3.54543 10.1227 3.55882 9.84501 3.42894 9.61674C3.23345 9.27102 3.08215 8.9066 2.97637 8.52616C2.90406 8.27387 2.70188 8.08834 2.44212 8.04026L1.67488 7.9001C1.65078 7.89609 1.63337 7.87607 1.63337 7.85204L1.63336 6.51316ZM7.77248 10.3203C9.50645 10.3203 10.9191 8.91204 10.9191 7.18339C10.9191 5.45473 9.50645 4.04645 7.77248 4.04645C6.03852 4.04645 4.6259 5.45473 4.6259 7.18339C4.6259 8.91204 6.03852 10.3203 7.77248 10.3203ZM7.77248 4.67775C9.15699 4.67775 10.2844 5.80172 10.2844 7.18195C10.2844 8.56222 9.15696 9.68615 7.77248 9.68615C6.38798 9.68615 5.26059 8.56218 5.26059 7.18195C5.26059 5.79902 6.3853 4.67775 7.77248 4.67775Z" fill="black" stroke="#347BB0" stroke-width="0.5"/>
</svg>
