<svg width="34" height="32" viewBox="0 0 34 32" fill="none" xmlns="http://www.w3.org/2000/svg">
<path d="M26.7037 27.6258L26.935 30.5664H9.58577C9.39458 30.5664 9.24595 30.7219 9.24595 30.9055C9.24595 31.0969 9.40229 31.2446 9.58577 31.2446H27.298C27.3931 31.2446 27.4813 31.2097 27.547 31.1321C27.6171 31.06 27.6444 30.9672 27.6375 30.8778L27.6375 30.8776L27.3777 27.5754L27.278 27.5831L27.3777 27.5753L27.3777 27.5753C27.3634 27.3914 27.201 27.25 27.0155 27.2643C26.8317 27.2784 26.6893 27.44 26.7036 27.6257L26.7037 27.6258Z" fill="#FF7D6F" stroke="#FF7D6F" stroke-width="0.2"/>
<path d="M2.4714 6.40609L2.47139 6.40609L2.47128 6.40771L0.907519 30.8834C0.907501 30.8836 0.907482 30.8839 0.907464 30.8841C0.900332 30.9794 0.937191 31.0701 0.997947 31.1374C1.06421 31.2108 1.15748 31.2451 1.24705 31.2451H9.58595C9.67588 31.2451 9.76456 31.211 9.83263 31.1499L9.833 31.1504L9.84007 31.1425C9.9008 31.0752 9.93766 30.9845 9.93056 30.8893C9.93054 30.889 9.93052 30.8888 9.9305 30.8885L8.42671 6.40796L8.42673 6.40796L8.42658 6.40609C8.41254 6.23118 8.26567 6.08994 8.08707 6.08994H2.8109C2.626 6.08994 2.48533 6.23251 2.4714 6.40609ZM9.22988 30.5719H1.60848L3.12474 6.768H7.76823L9.22988 30.5719Z" fill="#FF7D6F" stroke="#FF7D6F" stroke-width="0.2"/>
<path d="M25.7441 6.40044L25.7441 6.40013C25.7298 6.2224 25.5803 6.08896 25.4046 6.08896H8.08211C7.89227 6.08896 7.74229 6.23805 7.74229 6.42806C7.74229 6.61942 7.89863 6.76715 8.08211 6.76715H25.092L25.9041 17.2631C25.9125 17.4438 26.0645 17.5762 26.2388 17.5762C26.239 17.5762 26.2393 17.5762 26.2398 17.5762C26.2449 17.5764 26.2649 17.5771 26.2881 17.5684C26.4614 17.5439 26.5923 17.3877 26.5785 17.2093L25.7441 6.40044Z" fill="#FF7D6F" stroke="#FF7D6F" stroke-width="0.2"/>
<path d="M9.36679 31.1709L9.36683 31.1708L5.14343 27.6514L1.47563 31.1513L1.47526 31.1517C1.3391 31.2803 1.12891 31.2702 0.998177 31.1467L0.994243 31.143L0.994349 31.1429C0.867434 31.0093 0.86742 30.7979 1.00123 30.6645L1.00277 30.663L1.00278 30.663L4.88988 26.9519L4.89038 26.9515L4.89038 26.9515C5.01662 26.8326 5.20851 26.8249 5.34287 26.9376L5.34273 26.9375L5.2787 27.0143L5.343 26.9377L9.36679 31.1709ZM9.36679 31.1709L9.36957 31.173C9.43068 31.2204 9.50689 31.2488 9.58573 31.2488C9.67798 31.2488 9.78327 31.2104 9.84206 31.1174L9.36679 31.1709Z" fill="#FF7D6F" stroke="#FF7D6F" stroke-width="0.2"/>
<path d="M4.79405 27.1978H4.79404L5.41866 6.194C5.29375 6.17408 5.17883 6.29861 5.17883 6.42812L5.07884 6.42675L5.07884 6.42737C5.07883 6.42762 5.07883 6.42787 5.07883 6.42812L4.79405 27.1978ZM5.75349 6.4331C5.75349 6.25333 5.61025 6.09833 5.42638 6.09409L5.3687 27.2042L5.46869 27.2055L5.4687 27.2049C5.4687 27.2047 5.4687 27.2044 5.4687 27.2042L5.75348 6.43447L5.75349 6.43447V6.4331Z" fill="#FF7D6F" stroke="#FF7D6F" stroke-width="0.2"/>
<path d="M13.728 10.6714C13.7279 9.88383 13.0833 9.2418 12.294 9.2418C11.5046 9.2418 10.86 9.88401 10.86 10.6718C10.86 11.4595 11.5046 12.1017 12.294 12.1017C13.0879 12.1017 13.7332 11.4599 13.728 10.6714ZM13.728 10.6714C13.728 10.6713 13.728 10.6712 13.728 10.6711L13.628 10.6718H13.728C13.728 10.6716 13.728 10.6715 13.728 10.6714ZM11.5346 10.6718C11.5346 10.2541 11.8743 9.91501 12.294 9.91501C12.7137 9.91501 13.0534 10.2541 13.0534 10.6718C13.0534 11.0895 12.7137 11.4285 12.294 11.4285C11.8743 11.4285 11.5346 11.0895 11.5346 10.6718Z" fill="#FF7D6F" stroke="#FF7D6F" stroke-width="0.2"/>
<path d="M20.2831 10.6718C20.2831 11.4595 20.9277 12.1017 21.7171 12.1017C22.5065 12.1017 23.1511 11.4595 23.1511 10.6718C23.1511 9.88401 22.5065 9.2418 21.7171 9.2418C20.9277 9.2418 20.2831 9.88401 20.2831 10.6718ZM20.9577 10.6718C20.9577 10.2541 21.2974 9.91501 21.7171 9.91501C22.1368 9.91501 22.4765 10.2541 22.4765 10.6718C22.4765 11.0895 22.1368 11.4285 21.7171 11.4285C21.2974 11.4285 20.9577 11.0895 20.9577 10.6718Z" fill="#FF7D6F" stroke="#FF7D6F" stroke-width="0.2"/>
<path d="M21.3776 9.57574C21.3776 9.7671 21.5339 9.91483 21.7174 9.91483C21.9009 9.91483 22.0573 9.7671 22.0573 9.57574V5.91954C22.0573 3.13949 19.7938 0.883398 17.006 0.883398C14.2181 0.883398 11.9547 3.14443 11.9547 5.91954V9.57574C11.9547 9.7671 12.111 9.91483 12.2945 9.91483C12.4857 9.91483 12.6343 9.75941 12.6343 9.57574V5.91954C12.6343 3.51948 14.5978 1.56158 17.006 1.56158C19.4142 1.56158 21.3776 3.51446 21.3776 5.91954V9.57574Z" fill="#FF7D6F" stroke="#FF7D6F" stroke-width="0.2"/>
<path d="M16.116 6.42294C16.116 6.6143 16.2723 6.76204 16.4558 6.76204C16.643 6.76204 16.7977 6.61453 16.7854 6.41956V5.02824C16.7854 2.3128 14.572 0.106543 11.8489 0.106543C9.12592 0.106543 6.91245 2.3128 6.91245 5.02824V6.42294C6.91245 6.61295 7.06243 6.76204 7.25228 6.76204C7.44347 6.76204 7.5921 6.60661 7.5921 6.42294V5.02824C7.5921 2.68276 9.50063 0.779627 11.8541 0.779627C14.2074 0.779627 16.116 2.68778 16.116 5.02824V6.42294Z" fill="#FF7D6F" stroke="#FF7D6F" stroke-width="0.2"/>
<path d="M17.8199 17.9996C17.8199 17.7878 17.9761 17.6121 18.1804 17.5813H18.2445H31.9795C32.2143 17.5813 32.4041 17.771 32.4041 18.0044V26.8409C32.4041 27.0743 32.2143 27.2639 31.9795 27.2639H18.2445C18.0097 27.2639 17.8199 27.0743 17.8199 26.8409V17.9996ZM18.2445 27.9423H31.9795C32.5887 27.9423 33.0837 27.4497 33.0837 26.8459V18.0046C33.0837 17.3962 32.589 16.9034 31.9795 16.9034H18.2445C17.635 16.9034 17.1402 17.3962 17.1402 18.0046V26.8411C17.1402 27.4496 17.635 27.9423 18.2445 27.9423Z" fill="#FF7D6F" stroke="#FF7D6F" stroke-width="0.2"/>
<path d="M17.4803 19.5582H32.7441C32.9353 19.5582 33.0839 19.4027 33.0839 19.2191C33.0839 19.0277 32.9276 18.88 32.7441 18.88H17.4803C17.2891 18.88 17.1405 19.0354 17.1405 19.2191C17.1405 19.4104 17.2968 19.5582 17.4803 19.5582Z" fill="#FF7D6F" stroke="#FF7D6F" stroke-width="0.2"/>
<path d="M17.4803 20.7945H32.7441C32.9339 20.7945 33.0839 20.6454 33.0839 20.4554C33.0839 20.264 32.9276 20.1163 32.7441 20.1163H17.4803C17.2905 20.1163 17.1405 20.2654 17.1405 20.4554C17.1405 20.6468 17.2968 20.7945 17.4803 20.7945Z" fill="#FF7D6F" stroke="#FF7D6F" stroke-width="0.2"/>
<path d="M18.964 25.8196C18.964 26.011 19.1203 26.1587 19.3038 26.1587C19.4936 26.1587 19.6436 26.0096 19.6436 25.8196V24.5594C19.6436 24.3694 19.4936 24.2203 19.3038 24.2203C19.1126 24.2203 18.964 24.3757 18.964 24.5594V25.8196Z" fill="#FF7D6F" stroke="#FF7D6F" stroke-width="0.2"/>
<path d="M20.8277 25.8196C20.8277 26.011 20.9841 26.1587 21.1676 26.1587C21.351 26.1587 21.5074 26.011 21.5074 25.8196V24.5594C21.5074 24.368 21.351 24.2203 21.1676 24.2203C20.9764 24.2203 20.8277 24.3757 20.8277 24.5594V25.8196Z" fill="#FF7D6F" stroke="#FF7D6F" stroke-width="0.2"/>
<path d="M23.3708 25.8233L23.3709 25.8233V25.8196V24.5594C23.3709 24.368 23.2146 24.2203 23.0311 24.2203C22.8399 24.2203 22.6913 24.3757 22.6913 24.5594V25.8196C22.6913 26.011 22.8476 26.1587 23.0311 26.1587C23.2179 26.1587 23.364 26.0084 23.3708 25.8233Z" fill="#FF7D6F" stroke="#FF7D6F" stroke-width="0.2"/>
<path d="M24.5501 25.8196C24.5501 26.011 24.7065 26.1587 24.89 26.1587C25.0798 26.1587 25.2298 26.0096 25.2298 25.8196V24.5594C25.2298 24.368 25.0735 24.2203 24.89 24.2203C24.6988 24.2203 24.5501 24.3757 24.5501 24.5594V25.8196Z" fill="#FF7D6F" stroke="#FF7D6F" stroke-width="0.2"/>
<path d="M28.5471 24.9581H30.8854C31.1102 24.9581 31.2952 24.7742 31.2952 24.5493V22.8059C31.2952 22.581 31.1102 22.3971 30.8854 22.3971H28.5471C28.3223 22.3971 28.1373 22.581 28.1373 22.8059V24.5493C28.1373 24.7742 28.3223 24.9581 28.5471 24.9581ZM30.6205 23.0703V24.2799H28.812V23.0703H30.6205Z" fill="#FF7D6F" stroke="#FF7D6F" stroke-width="0.2"/>
</svg>
