<svg width="37" height="31" viewBox="0 0 37 31" fill="none" xmlns="http://www.w3.org/2000/svg">
<path fill-rule="evenodd" clip-rule="evenodd" d="M1.92021 20.2185C1.92172 20.211 1.92476 20.2021 1.92627 20.1946L2.26606 18.9373L2.26758 18.9328C2.41472 18.4122 2.81823 17.9409 3.42953 17.6173C3.95742 17.3369 4.64608 17.1624 5.45458 17.1624H8.37007L8.36855 10.9114H6.54372C6.33742 10.9114 6.17056 10.7474 6.17056 10.5445V9.39905H5.93544C5.72914 9.39905 5.56228 9.23498 5.56228 9.03213C5.56228 8.8964 5.63813 8.77708 5.75038 8.71295L11.9015 4.55292L18.0782 0.376479C18.2117 0.285497 18.3831 0.292954 18.5075 0.380953L24.6784 4.55281L30.8552 8.72926C31.0235 8.8441 31.066 9.07231 30.9492 9.23785C30.8779 9.34077 30.7611 9.39595 30.6428 9.39595V9.39745H30.4077V10.5429C30.4077 10.7458 30.2408 10.9098 30.0345 10.9098H28.2097V17.1608H30.385C31.1813 17.1608 31.8427 17.3308 32.3584 17.6038C32.9652 17.9259 33.3717 18.3928 33.5629 18.9014L33.5644 18.9073L36.2296 26.3797C36.6892 27.6669 36.7059 28.5961 36.222 29.233C35.7427 29.8639 34.8113 30.1473 33.3687 30.1473L3.21584 30.1488C1.86124 30.1488 0.954144 29.8997 0.447493 29.3091C-0.0667299 28.7095 -0.12894 27.8161 0.215406 26.5378L1.92021 20.2185ZM16.8009 6.07441V6.08336C16.8009 6.09082 16.7994 6.09678 16.7994 6.10275V6.10872C16.7873 6.45624 16.945 6.77394 17.2105 7.0096C17.3986 7.17516 17.6428 7.30045 17.9174 7.36309V7.51672C17.9174 7.71956 18.0842 7.88363 18.2905 7.88363C18.4968 7.88363 18.6637 7.71956 18.6637 7.51672V7.36607C18.7517 7.34668 18.8351 7.32133 18.914 7.28852C19.1491 7.19306 19.3478 7.0454 19.4874 6.85896C19.6482 6.64567 19.7195 6.36674 19.7058 6.09828C19.6922 5.82682 19.5905 5.55685 19.4024 5.36593C19.1157 5.0736 18.7228 5.00349 18.3345 4.9334C18.0084 4.87523 17.6853 4.81706 17.6352 4.60675C17.617 4.53069 17.614 4.4576 17.6261 4.39048C17.6367 4.33231 17.661 4.27862 17.6959 4.23089C17.7551 4.15482 17.843 4.09218 17.9523 4.04892C18.0463 4.01164 18.154 3.99076 18.2678 3.98777H18.289H18.3057C18.3193 3.98777 18.3315 3.98926 18.3451 3.98926C18.556 4.00269 18.7425 4.08024 18.8715 4.1936C18.9792 4.28906 19.0429 4.40689 19.0369 4.52621V4.53814C19.0232 4.73949 19.1794 4.91401 19.3857 4.92742C19.5905 4.94084 19.768 4.78721 19.7816 4.58436V4.55901C19.7983 4.2085 19.6391 3.88634 19.3706 3.6477C19.1825 3.48214 18.9382 3.35685 18.6637 3.29421V3.1376C18.6637 2.93475 18.4968 2.77068 18.2905 2.77068C18.0842 2.77068 17.9174 2.93475 17.9174 3.1376V3.29122C17.8324 3.31061 17.7505 3.33448 17.6731 3.3658C17.4411 3.45827 17.2423 3.60444 17.1028 3.78642C16.9951 3.92662 16.9268 4.08622 16.895 4.25626C16.8631 4.4248 16.8692 4.59931 16.9101 4.77085C17.0724 5.44799 17.6337 5.54795 18.201 5.65085C18.4725 5.70007 18.7456 5.74929 18.8669 5.8716C18.9245 5.93126 18.9579 6.02671 18.9625 6.13112C18.9685 6.24149 18.9427 6.34888 18.8866 6.42495C18.829 6.50251 18.7395 6.56664 18.6318 6.6099C18.5377 6.64719 18.43 6.66956 18.3132 6.67105C18.3056 6.67105 18.2981 6.66956 18.2905 6.66956H18.2738C18.2617 6.66956 18.248 6.66807 18.2359 6.66807C18.025 6.65465 17.8385 6.57709 17.7095 6.46373C17.6048 6.37126 17.5411 6.25492 17.5442 6.13709V6.11919C17.5578 5.91784 17.4016 5.74332 17.1953 5.72991C16.9905 5.71947 16.813 5.87306 16.8009 6.07441ZM8.36839 17.8977H5.4529C4.77181 17.8977 4.20602 18.0379 3.78127 18.2632C3.355 18.4884 3.07894 18.7956 2.98488 19.1238L2.74218 20.0232L3.15629 20.1097C3.30647 20.141 3.44147 20.2021 3.56132 20.2931C3.67509 20.3796 3.77217 20.4915 3.84801 20.6257C3.92234 20.7585 3.96936 20.8972 3.98908 21.0404C4.0088 21.185 4.00122 21.3312 3.96633 21.4774L3.40962 23.8176C3.35653 24.0398 3.25035 24.2337 3.10472 24.3858C2.95304 24.5424 2.76039 24.6513 2.54045 24.6976L1.41643 24.9347L0.934051 26.723C0.874893 26.9438 0.827866 27.1496 0.796012 27.339C0.803596 27.3465 0.811181 27.3555 0.817248 27.3644C0.971974 27.5687 1.29206 27.7522 1.70159 27.8909C2.143 28.0401 2.67392 28.1281 3.21393 28.1281H33.3714C33.8736 28.1281 34.365 28.046 34.7867 27.9088C35.2084 27.7716 35.5528 27.5866 35.7515 27.3853L35.756 27.3808C35.7044 27.1496 35.6286 26.8976 35.53 26.6201L32.8663 19.1565C32.7358 18.809 32.4477 18.4838 32.0093 18.2512C31.5967 18.0319 31.0551 17.8962 30.3877 17.8962H28.2124V19.7427H29.4108C29.6853 19.7427 29.9356 19.853 30.1161 20.0305C30.2966 20.208 30.4089 20.4541 30.4089 20.7241V22.5616C30.4089 22.7645 30.242 22.9286 30.0357 22.9286L6.54502 22.93C6.33873 22.93 6.17186 22.766 6.17186 22.5631V20.7256C6.17186 20.4556 6.28411 20.2095 6.46463 20.032C6.64514 19.8545 6.89544 19.7442 7.16999 19.7442H8.36833L8.36839 17.8977ZM9.11471 19.7442H10.9926V10.9114H9.11471V19.7442ZM11.7405 19.7442H13.8611L13.8596 10.9114H11.7389L11.7405 19.7442ZM14.6059 19.7442H16.4838V10.9114H14.6059V19.7442ZM17.2301 19.7442H19.3508V10.9114H17.2301V19.7442ZM20.0971 19.7442H21.975V10.9114H20.0971V19.7442ZM22.7213 19.7442H24.8419V10.9114H22.7213V19.7442ZM27.4663 19.7442V10.9114H25.5884V19.7442H27.4663ZM24.2565 5.15569L18.2907 1.12282L7.13517 8.66393H29.4442L24.2565 5.15569ZM29.6644 9.39896H6.91849V10.1775H29.6659L29.6644 9.39896ZM29.4111 20.4781H7.16883C7.10057 20.4781 7.03686 20.5064 6.99135 20.5512C6.94584 20.5959 6.91702 20.6586 6.91702 20.7257V22.1963H29.6629V20.7257C29.6629 20.6586 29.6341 20.5959 29.5886 20.5512C29.5431 20.5064 29.4808 20.4781 29.4111 20.4781ZM1.63205 24.1428L2.38747 23.9832C2.45724 23.9683 2.51792 23.934 2.56646 23.8833C2.62107 23.8266 2.66202 23.749 2.68478 23.6536L3.24149 21.3134C3.25666 21.2507 3.25969 21.1926 3.2521 21.1389C3.24452 21.0852 3.22632 21.033 3.19901 20.9823C3.17171 20.9345 3.14137 20.8972 3.108 20.8719C3.07918 20.8495 3.04429 20.8346 3.00333 20.8256L2.55279 20.7317L1.63205 24.1428ZM0.767402 28.2711C0.80684 28.5008 0.888754 28.6872 1.01466 28.8349C1.36355 29.2421 2.08862 29.4136 3.21418 29.4136H33.3717C34.564 29.4136 35.3027 29.2212 35.6258 28.7946C35.7381 28.6485 35.8048 28.465 35.8291 28.2458C35.5955 28.386 35.3209 28.5098 35.0191 28.6067C34.5261 28.7663 33.9542 28.8632 33.3717 28.8632L3.21575 28.8662C2.59381 28.8662 1.97644 28.7633 1.46071 28.5888C1.20435 28.5008 0.969177 28.3934 0.767402 28.2711Z" fill="#347BB0"/>
</svg>
