<svg width="35" height="33" viewBox="0 0 35 33" fill="none" xmlns="http://www.w3.org/2000/svg">
<path d="M34.2542 6.905V6.2229L30.7545 4.93202L29.4595 1.44287H28.7753L27.4803 4.93202L23.9806 6.2229V6.75338H6.12486L5.8214 6.9153L1 14.129L1.0317 14.5732L5.23026 19.2485L2.47862 20.2638V20.9456L5.36551 22.0104L6.43365 24.8883H7.11784L8.04661 22.3859L16.9259 32.2697H17.4694L33.3599 14.5732L33.3916 14.129L30.2797 9.47537L30.7545 8.19605L34.2542 6.905ZM8.18598 19.1986L7.11784 16.3205H6.43365L5.59916 18.569L2.12123 14.6962H10.688L16.2396 30.4156L8.56345 21.8712L11.0729 20.9456V20.2638L8.18598 19.1986ZM11.743 13.9691L17.1959 7.67196L22.6488 13.9691H11.743ZM22.9304 14.6962L17.1959 30.9336L11.4614 14.6962H22.9304ZM10.9839 13.7329L6.80729 7.48058H16.3981L10.9839 13.7329ZM23.7032 14.6978H32.269L18.1502 30.4213L23.7032 14.6978ZM23.4084 13.7335L17.9937 7.48058H25.5409L27.1827 8.08625L23.4084 13.7335ZM6.12537 7.77183L10.2653 13.9691H1.98348L6.12537 7.77183ZM6.77575 23.7145L5.99147 21.6014L5.77599 21.3866L3.65628 20.6047L5.77599 19.8225L5.99147 19.6077L6.77575 17.4946L7.56002 19.6077L7.7755 19.8225L9.89522 20.6047L7.7755 21.3866L7.56002 21.6014L6.77575 23.7145ZM32.4091 13.9706H24.1265L27.6608 8.68229L28.7753 11.685H29.4595L29.9668 10.3184L32.4091 13.9706ZM30.1286 7.78683L29.1174 10.5111L28.1063 7.78683L27.8908 7.57201L25.1583 6.56395L27.8908 5.55607L28.1063 5.34125L29.1174 2.61675L30.1286 5.34125L30.3441 5.55607L33.0766 6.56395L30.3441 7.57201L30.1286 7.78683Z" fill="#63388B" stroke="#63388B" stroke-width="0.2"/>
<path d="M11.2882 0.745605H10.604L9.99606 2.3841L8.35254 2.99039V3.67249L9.99606 4.27879L10.604 5.91728H11.2882L11.8964 4.27879L13.5399 3.67249V2.99039L11.8964 2.3841L11.2882 0.745605ZM11.4859 3.65474L11.2704 3.86956L10.9461 4.74322L10.622 3.86956L10.4065 3.65474L9.53002 3.33144L10.4065 3.00815L10.622 2.79333L10.9461 1.91966L11.2704 2.79333L11.4859 3.00815L12.3624 3.33144L11.4859 3.65474Z" fill="#63388B" stroke="#63388B" stroke-width="0.2"/>
</svg>
