<svg width="35" height="35" viewBox="0 0 35 35" fill="none" xmlns="http://www.w3.org/2000/svg">
<path d="M16.1739 18.77C15.6019 18.5963 15.0038 18.5254 14.3941 18.563C13.0005 18.6513 12.5215 18.4632 12.0163 18.2635C11.9945 18.2519 11.9684 18.2446 11.9423 18.2345L12.0729 17.9451C12.3328 17.3633 12.0729 16.6816 11.4894 16.4182L10.6721 16.0521C10.0885 15.793 9.40477 16.0521 9.14058 16.6339L6.05289 23.4994C5.79305 24.0812 6.05289 24.7629 6.63646 25.0262L7.45374 25.3924C7.60616 25.4633 7.76584 25.4922 7.92551 25.4922C8.34939 25.4922 8.75442 25.2592 8.95473 24.8627C9.28861 25.226 9.83879 25.7252 10.4674 25.9481C10.4383 26.0552 10.4195 26.1667 10.4195 26.2853C10.4238 26.6037 10.553 26.9047 10.7838 27.1262L10.884 27.226C11.1104 27.4445 11.408 27.5632 11.7201 27.5632H11.739H11.7434C11.755 27.8932 11.8885 28.2 12.1266 28.4301C12.3646 28.6602 12.6797 28.789 13.015 28.789H13.0339C13.0382 29.1305 13.1747 29.4446 13.42 29.6819C13.6581 29.9121 13.9702 30.038 14.3012 30.0409C14.3055 30.3477 14.4275 30.6559 14.6656 30.886L14.7657 30.9859C14.9994 31.2116 15.3014 31.3231 15.6019 31.3231C15.9024 31.3231 16.2304 31.2015 16.4671 30.9598L17.0361 30.3752L17.9797 31.4128C18.2323 31.6864 18.5778 31.8282 18.9233 31.8282C19.2281 31.8282 19.5359 31.7211 19.7783 31.4982C20.0309 31.2681 20.179 30.957 20.1949 30.6197V30.6125C20.2167 30.6125 20.2399 30.6197 20.2617 30.6197C20.5666 30.6197 20.8743 30.5127 21.1168 30.2898C21.3693 30.0597 21.5174 29.7485 21.5334 29.4113V29.4041C21.5552 29.4041 21.5784 29.4113 21.6002 29.4113C21.905 29.4113 22.2127 29.3042 22.4552 29.0814C22.7194 28.844 22.8558 28.5213 22.8718 28.1957C22.8936 28.1957 22.9168 28.2029 22.9386 28.2029C23.2435 28.2029 23.5512 28.0958 23.7936 27.8729C24.1725 27.5314 24.2872 27.0133 24.1362 26.5386C24.6821 26.3461 25.6227 25.9901 26.292 25.6008V25.6413C26.337 25.9481 26.4966 26.2188 26.7376 26.4083C26.9423 26.5646 27.1876 26.6746 27.4402 26.6486C27.6638 26.6225 28.484 26.5227 28.484 26.5227C29.1154 26.4416 29.5655 25.8598 29.4841 25.2303L28.5072 17.7727C28.4665 17.4659 28.3098 17.1953 28.0644 17.0057C27.8191 16.8161 27.5142 16.7351 27.2094 16.7756L26.3181 16.8899C26.0103 16.9304 25.7389 17.0867 25.5487 17.3313C25.3585 17.5759 25.2772 17.8798 25.3179 18.1837L25.3731 18.6063C24.8563 18.8031 23.7748 19.0883 23.1288 19.1953C22.0996 19.3661 21.5537 19.0318 20.7989 18.573C20.6421 18.4761 20.4795 18.3805 20.3082 18.2807C18.8551 17.4586 17.5326 17.5585 16.3727 18.5846C16.3088 18.6396 16.242 18.7033 16.168 18.7742L16.1739 18.77ZM7.7573 24.7123L6.94002 24.3461C6.73244 24.2535 6.63953 24.0089 6.73244 23.8019L9.82012 16.9364C9.86512 16.8365 9.94642 16.7584 10.0509 16.7179C10.1555 16.6774 10.2658 16.6802 10.3674 16.7251L11.1847 17.0913C11.3923 17.1839 11.4852 17.4285 11.3923 17.6354L8.30458 24.501C8.21167 24.7079 7.96634 24.8005 7.75873 24.7079L7.7573 24.7123ZM11.7303 26.8209C11.6113 26.8324 11.4923 26.776 11.4037 26.6906L11.3036 26.5907C11.215 26.5054 11.1657 26.391 11.1627 26.268C11.1627 26.1465 11.2077 26.0307 11.2934 25.9424L13.1254 24.061C13.2139 23.9684 13.333 23.9206 13.4564 23.9206C13.5783 23.9206 13.6872 23.9655 13.7757 24.0509L13.8759 24.1507C14.0574 24.3287 14.0617 24.6182 13.8875 24.7991L12.0555 26.6848C11.9699 26.7731 11.8552 26.8223 11.7318 26.8252L11.7303 26.8209ZM12.6478 27.8947C12.4359 27.6906 12.433 27.3578 12.6362 27.1465L14.4203 25.3129L14.9037 24.8165C15.0039 24.7166 15.1345 24.6573 15.2753 24.6573H15.2826C15.4205 24.6573 15.5541 24.7094 15.6499 24.8049C15.8618 25.009 15.8647 25.3418 15.6615 25.5531L13.394 27.8831C13.1893 28.0901 12.8554 28.0973 12.6435 27.8947L12.6478 27.8947ZM13.7845 28.7731C13.7845 28.6328 13.8367 28.4996 13.9325 28.3954L16.2001 26.0654C16.3002 25.9655 16.4309 25.9062 16.5717 25.9062H16.5789C16.7168 25.9062 16.8504 25.9583 16.9462 26.0538C17.0464 26.1537 17.1059 26.2839 17.1059 26.4243C17.1059 26.5647 17.0536 26.6978 16.9578 26.802L14.6903 29.1321C14.5901 29.2319 14.4595 29.2913 14.3187 29.2913C14.188 29.2869 14.0443 29.2392 13.9398 29.1436C13.8396 29.0438 13.7801 28.9135 13.7801 28.7731H13.7845ZM15.9445 30.436C15.766 30.6169 15.4757 30.6213 15.2942 30.4476L15.194 30.3477C15.0126 30.1697 15.0082 29.8803 15.1824 29.6994L17.0144 27.818C17.1001 27.7297 17.2148 27.6805 17.3381 27.6776C17.4644 27.6704 17.5762 27.7225 17.6648 27.8079L17.7693 27.9077C17.8578 27.9931 17.9072 28.1074 17.9101 28.2305C17.9101 28.352 17.8651 28.4678 17.7795 28.5561L15.9475 30.4375L15.9445 30.436ZM19.4634 30.5764C19.4561 30.7168 19.3966 30.847 19.2892 30.9425C19.0743 31.1394 18.7361 31.1206 18.5387 30.9049L17.5617 29.8311L18.2934 29.0786L19.3226 30.1944C19.4199 30.2986 19.4678 30.4346 19.4605 30.5764L19.4634 30.5764ZM23.303 27.3172C23.0882 27.5141 22.7499 27.4981 22.5525 27.2796L21.0704 25.6718C20.9325 25.5198 20.6944 25.5126 20.5463 25.6501C20.3939 25.7875 20.3866 26.0249 20.5245 26.1725L22.0067 27.776C22.2041 27.9902 22.1881 28.3274 21.9689 28.5242C21.7541 28.7211 21.4159 28.7051 21.2184 28.4866L19.7363 26.8788C19.5984 26.7268 19.3603 26.7196 19.2122 26.8571C19.0598 26.9945 19.0525 27.2319 19.1905 27.3795L20.6726 28.983C20.7699 29.0872 20.8178 29.2233 20.8105 29.3651C20.8033 29.5055 20.7437 29.6357 20.6363 29.7312C20.4215 29.928 20.0832 29.9121 19.8858 29.6936L18.6519 28.3564C18.6519 28.3564 18.6476 28.3564 18.6446 28.352C18.649 28.3043 18.6563 28.2594 18.6563 28.2116C18.6519 27.8932 18.5227 27.5922 18.2919 27.3708L18.1874 27.271C18.0538 27.1407 17.8941 27.0524 17.7228 26.9974C17.8114 26.8165 17.8637 26.6197 17.8607 26.4128C17.8564 26.0712 17.7199 25.7572 17.4746 25.5198C17.2293 25.2825 16.9172 25.1493 16.5673 25.1609C16.563 24.8353 16.4338 24.5082 16.1812 24.2679C15.9358 24.0306 15.6165 23.9047 15.2739 23.909C15.0663 23.909 14.8689 23.9684 14.6903 24.0653C14.6308 23.8989 14.5379 23.7426 14.4 23.6138L14.2998 23.5139C13.8237 23.0551 13.063 23.0653 12.5985 23.54L10.9 25.2853C10.2758 25.1666 9.59934 24.4778 9.30174 24.1145L11.6433 18.9087C11.6767 18.9232 11.7144 18.9348 11.7478 18.9493C12.3096 19.1721 12.8888 19.4008 14.4493 19.3009C14.8282 19.2749 15.1998 19.3009 15.5642 19.3748C14.8325 20.1201 14.0138 21.013 13.9703 21.0564C13.468 21.5745 13.5536 22.4747 14.1633 23.0652C14.773 23.6542 15.6789 23.7135 16.1812 23.1954L18.3398 20.9725C20.4316 22.6658 21.5697 24.1998 22.58 25.5632C22.8326 25.9048 23.0736 26.2304 23.316 26.5372C23.316 26.5372 23.3204 26.5445 23.3233 26.5445C23.4946 26.763 23.5425 27.0959 23.3044 27.3115L23.303 27.3172ZM26.141 17.7771C26.2078 17.6889 26.3051 17.6324 26.4154 17.618C26.6535 17.589 27.1993 17.5181 27.359 17.4993C27.4475 17.4877 27.5375 17.5282 27.6116 17.5847C27.7001 17.6512 27.7567 17.7482 27.7712 17.8582L28.7482 25.3158C28.7773 25.5415 28.6176 25.7499 28.3911 25.7789L27.4998 25.8932C27.388 25.9077 27.2806 25.8787 27.195 25.8122C27.1064 25.7456 27.0498 25.6486 27.0353 25.5386L26.0583 18.0811C26.0438 17.9696 26.0728 17.8625 26.1396 17.7771H26.141ZM19.9468 18.9175C20.1108 19.0102 20.2661 19.1071 20.4156 19.1954C21.2068 19.6773 21.95 20.1332 23.2551 19.9176C23.8982 19.8105 24.8722 19.5587 25.4776 19.3503L26.1918 24.7817C25.6387 25.1854 24.415 25.6529 23.7501 25.8816C23.5643 25.637 23.3742 25.3895 23.1782 25.1218C22.1518 23.7396 20.8773 22.0204 18.5403 20.1839C18.3922 20.0652 18.1759 20.0797 18.0424 20.2172L15.6457 22.6803C15.4308 22.9032 14.9881 22.8323 14.676 22.5327C14.3639 22.2331 14.2826 21.7917 14.5047 21.566C14.5192 21.5471 16.1959 19.728 16.8723 19.1288C17.7796 18.3242 18.7827 18.2576 19.9455 18.9146L19.9468 18.9175Z" fill="#A92727" stroke="#A92727" stroke-width="0.2"/>
<path d="M34.4361 14.1242C34.3766 13.5801 34.0935 13.0794 33.6551 12.7494L17.948 0.945987C17.8144 0.846129 17.6315 0.846129 17.5023 0.945987L1.79261 12.7494C1.3542 13.0794 1.07114 13.5787 1.0116 14.1242C0.952083 14.6684 1.12338 15.2169 1.48338 15.6322C1.87389 16.0838 2.43132 16.3211 2.99601 16.3211C3.41554 16.3211 3.83651 16.1909 4.1922 15.9217L4.92385 15.3732V33.6531C4.92385 33.8572 5.0908 34.0236 5.29548 34.0236H30.1565C30.3612 34.0236 30.5281 33.8572 30.5281 33.6531V15.3732L31.2598 15.9217C32.0959 16.5484 33.2848 16.4225 33.9656 15.6323C34.3228 15.2169 34.4941 14.6684 34.4374 14.1243L34.4361 14.1242ZM29.7834 33.2782H5.66562V14.8085L17.7245 5.74601L29.7834 14.8085V33.2782ZM33.4038 15.1461C32.977 15.6424 32.2294 15.7206 31.7097 15.327L17.9522 4.99105C17.8854 4.94329 17.807 4.91724 17.7286 4.91724C17.6502 4.91724 17.5718 4.9433 17.505 4.99105L3.74338 15.3284C3.21931 15.7206 2.47606 15.6439 2.04929 15.1475C1.82283 14.8841 1.71831 14.5469 1.75605 14.2025C1.79379 13.8581 1.96799 13.5498 2.24671 13.3428L17.7242 1.7043L33.2105 13.3369C33.4893 13.5439 33.6635 13.8521 33.7012 14.1966C33.7389 14.541 33.6344 14.8782 33.408 15.1416L33.4038 15.1461Z" fill="#A92727" stroke="#A92727" stroke-width="0.2"/>
</svg>
