<svg width="29" height="37" viewBox="0 0 29 37" fill="none" xmlns="http://www.w3.org/2000/svg">
<path d="M28.2199 35.1482H26.4186V10.6062C26.4186 10.2756 26.1498 10.0076 25.8182 10.0076H24.0169V4.62029C24.0169 4.28972 23.7481 4.0217 23.4165 4.0217H21.6152V1.02876C21.6152 0.698196 21.3464 0.430176 21.0148 0.430176C20.6832 0.430176 20.4144 0.698196 20.4144 1.02876V4.0217H18.6131C18.2815 4.0217 18.0127 4.28972 18.0127 4.62029V10.0076H3.00212C2.67054 10.0076 2.40169 10.2756 2.40169 10.6062V35.1482H0.600423C0.268842 35.1482 0 35.416 0 35.7468C0 36.0777 0.268842 36.3454 0.600423 36.3454H3.00212H6.60466H12.6089H25.8182H28.2199C28.5515 36.3454 28.8203 36.0777 28.8203 35.7468C28.8203 35.416 28.5515 35.1482 28.2199 35.1482ZM19.2135 5.21887H22.8161V10.0076H19.2135V5.21887ZM7.20508 35.1482V27.9652H12.0085V35.1482H7.20508ZM13.2093 35.1482V27.3666C13.2093 27.0357 12.9405 26.768 12.6089 26.768H6.60466C6.27308 26.768 6.00423 27.0357 6.00423 27.3666V35.1482H3.60254V11.2047H18.6131H23.4165H25.2178V35.1482H13.2093Z" fill="#A87C00"/>
<path d="M18.0542 17.7888H17.9721C17.6637 17.7888 17.4128 17.574 17.4128 17.31C17.4128 17.0458 17.6637 16.831 17.9721 16.831C18.1788 16.831 18.3682 16.9292 18.4664 17.087C18.6412 17.3673 19.0109 17.4535 19.2935 17.2796C19.5752 17.1051 19.6614 16.736 19.4867 16.4551C19.2855 16.1323 18.9711 15.8999 18.6136 15.7647V14.7959C18.6136 14.4653 18.3448 14.1973 18.0132 14.1973C17.6816 14.1973 17.4128 14.4653 17.4128 14.7959V15.7287C16.7172 15.9527 16.2119 16.5731 16.2119 17.31C16.2119 18.2342 17.0014 18.986 17.9721 18.986H18.0542C18.3626 18.986 18.6136 19.2005 18.6136 19.4647C18.6136 19.7289 18.3626 19.9435 18.0542 19.9435C17.8475 19.9435 17.6581 19.8458 17.5599 19.688C17.3843 19.4074 17.0143 19.3209 16.7332 19.4951C16.4514 19.6693 16.3647 20.0388 16.5397 20.3193C16.7408 20.6424 17.0551 20.8748 17.4128 21.0099V21.9789C17.4128 22.3098 17.6816 22.5775 18.0132 22.5775C18.3448 22.5775 18.6136 22.3098 18.6136 21.9789V21.0458C19.3092 20.8218 19.8145 20.2017 19.8145 19.4647C19.8145 18.5405 19.0249 17.7888 18.0542 17.7888Z" fill="#A87C00"/>
<path d="M18.013 12.4019C14.7022 12.4019 12.0088 15.087 12.0088 18.3877C12.0088 21.6881 14.7022 24.3736 18.013 24.3736C21.3239 24.3736 24.0173 21.6881 24.0173 18.3877C24.0173 15.087 21.3239 12.4019 18.013 12.4019ZM18.013 23.1764C15.3645 23.1764 13.2096 21.0282 13.2096 18.3877C13.2096 15.7473 15.3645 13.599 18.013 13.599C20.6616 13.599 22.8164 15.7473 22.8164 18.3877C22.8164 21.0282 20.6616 23.1764 18.013 23.1764Z" fill="#A87C00"/>
</svg>
