<svg width="46" height="45" viewBox="0 0 46 45" fill="none" xmlns="http://www.w3.org/2000/svg">
<path d="M45.6444 31.465C45.2647 30.6569 44.5828 30.0304 43.7455 29.7204C42.9082 29.4104 41.9826 29.4417 41.1682 29.8077L31.2222 34.188C31.2416 34.062 31.2541 33.9351 31.2596 33.8078C31.2585 32.9039 30.899 32.0374 30.2599 31.3983C29.6207 30.7591 28.7542 30.3996 27.8503 30.3985H19.948C19.4016 30.3979 18.8629 30.2696 18.3749 30.0239L14.3375 27.9859C13.3304 27.396 11.4236 27.3682 10.2969 27.1943C10.1396 26.6976 9.82866 26.2637 9.40883 25.9551C8.989 25.6466 8.48202 25.4793 7.961 25.4775H2.46432C1.81096 25.4783 1.18456 25.7381 0.72257 26.2001C0.260575 26.6621 0.00071317 27.2885 0 27.9419V39.523C0.00071317 40.1763 0.260575 40.8027 0.72257 41.2647C1.18456 41.7267 1.81096 41.9866 2.46432 41.9873H7.96091C8.40974 41.9857 8.84957 41.8612 9.23265 41.6273C9.61573 41.3934 9.92743 41.059 10.1339 40.6605L20.3114 43.7549C21.7323 44.2735 23.9122 44.096 25.4061 44.1259C26.7336 44.1242 28.0427 43.8162 29.2317 43.2258L36.1586 39.7776L44.085 36.0363C44.4891 35.8402 44.8503 35.566 45.1477 35.2295C45.4452 34.893 45.673 34.5009 45.818 34.0758C45.963 33.6508 46.0223 33.2012 45.9925 32.753C45.9627 32.3049 45.8444 31.8671 45.6444 31.465ZM8.78234 39.523C8.78213 39.7408 8.69551 39.9496 8.54151 40.1036C8.38751 40.2576 8.1787 40.3442 7.96091 40.3444H2.46432C2.24653 40.3442 2.03772 40.2576 1.88371 40.1036C1.72971 39.9496 1.6431 39.7408 1.64288 39.523V27.9418C1.6431 27.724 1.72971 27.5152 1.88371 27.3612C2.03772 27.2072 2.24653 27.1206 2.46432 27.1204H7.96091C8.1787 27.1206 8.38751 27.2072 8.54151 27.3612C8.69551 27.5152 8.78213 27.724 8.78234 27.9418V39.523ZM44.2591 33.5711C44.1863 33.7847 44.0713 33.9815 43.921 34.1498C43.7706 34.3181 43.588 34.4544 43.3839 34.5506L35.4422 38.2997L28.5001 41.7555C27.5384 42.2327 26.4796 42.4816 25.406 42.483C24.1278 42.4361 22.0028 42.6332 20.7887 42.183L10.4252 39.0322V28.8643C11.2721 28.9967 12.8553 29.0287 13.5978 29.4527C15.1395 30.1197 18.2196 32.1758 19.9479 32.0414H27.8503C28.3182 32.0541 28.7627 32.2488 29.0891 32.5843C29.4156 32.9197 29.5983 33.3693 29.5983 33.8373C29.5983 34.3054 29.4156 34.755 29.0891 35.0904C28.7626 35.4258 28.3182 35.6205 27.8503 35.6332H18.922C18.7041 35.6332 18.4952 35.7197 18.3411 35.8738C18.1871 36.0278 18.1005 36.2368 18.1005 36.4546C18.1005 36.6725 18.1871 36.8814 18.3411 37.0355C18.4952 37.1895 18.7041 37.2761 18.922 37.2761H27.8503C28.597 37.2737 29.3215 37.0222 29.909 36.5614L41.8501 31.3022C42.173 31.1716 42.5266 31.1363 42.869 31.2006C43.2113 31.2648 43.5281 31.4259 43.7816 31.6648C44.0352 31.9036 44.2149 32.2101 44.2996 32.548C44.3842 32.8859 44.3701 33.241 44.2591 33.5711Z" fill="url(#paint0_linear_447_2242)"/>
<path d="M5.3842 35.3167C4.80096 35.3234 4.24389 35.5598 3.83385 35.9746C3.4238 36.3895 3.19384 36.9492 3.19385 37.5325C3.19386 38.1158 3.42383 38.6756 3.83389 39.0904C4.24395 39.5052 4.80102 39.7416 5.38426 39.7483C5.9675 39.7416 6.52457 39.5051 6.93461 39.0903C7.34466 38.6755 7.57462 38.1157 7.57461 37.5325C7.5746 36.9492 7.34463 36.3894 6.93457 35.9746C6.52451 35.5598 5.96744 35.3234 5.3842 35.3167ZM5.3842 38.1054C5.23423 38.1024 5.09141 38.0407 4.98642 37.9336C4.88142 37.8265 4.82261 37.6825 4.82261 37.5325C4.82261 37.3825 4.88142 37.2385 4.98642 37.1313C5.09141 37.0242 5.23423 36.9625 5.3842 36.9595C5.53424 36.9624 5.67716 37.0241 5.78225 37.1312C5.88733 37.2383 5.9462 37.3824 5.9462 37.5325C5.9462 37.6826 5.88733 37.8266 5.78225 37.9338C5.67716 38.0409 5.53424 38.1025 5.3842 38.1054Z" fill="url(#paint1_linear_447_2242)"/>
<path d="M3.97491 31.1429L4.01582 29.5586H5.90416C6.12202 29.5586 6.33095 29.472 6.485 29.318C6.63905 29.1639 6.7256 28.955 6.7256 28.7371C6.7256 28.5193 6.63905 28.3104 6.485 28.1563C6.33095 28.0023 6.12202 27.9157 5.90416 27.9157H4.01582C3.56937 27.9163 3.1414 28.094 2.82576 28.4097C2.51011 28.7254 2.33256 29.1535 2.33203 29.5999V31.1429C2.33622 31.358 2.42461 31.5629 2.5782 31.7135C2.7318 31.8641 2.93834 31.9485 3.15347 31.9485C3.3686 31.9485 3.57514 31.8641 3.72874 31.7135C3.88233 31.5629 3.97072 31.358 3.97491 31.1429Z" fill="url(#paint2_linear_447_2242)"/>
<path d="M18.6983 7.35848L20.0329 9.15622C19.7296 9.73112 19.4783 10.332 19.2821 10.9517L17.0434 11.284C16.621 11.3464 16.2352 11.5591 15.957 11.883C15.6788 12.2069 15.5268 12.6202 15.5288 13.0472V15.2861C15.5271 15.7136 15.6797 16.1273 15.9585 16.4514C16.2373 16.7754 16.6237 16.988 17.0466 17.0501L19.2614 17.378C19.4547 17.9973 19.7036 18.5977 20.0051 19.1721L18.6558 20.9928C18.4034 21.3368 18.2822 21.7596 18.3139 22.185C18.3457 22.6104 18.5284 23.0105 18.8291 23.3132C19.6609 24.0357 20.5821 25.4916 21.668 25.4233C22.4776 25.5313 23.8993 24.1292 24.5318 23.7338C25.107 24.0377 25.7083 24.2894 26.3285 24.4859L26.6608 26.7249C26.7233 27.1472 26.936 27.5328 27.2598 27.811C27.5837 28.0891 27.9971 28.2411 28.424 28.239H30.6629C31.0904 28.2409 31.5041 28.0884 31.8281 27.8096C32.1521 27.5307 32.3644 27.1442 32.4261 26.7213L32.755 24.506C33.3737 24.3124 33.9737 24.0635 34.5477 23.7623L36.3689 25.1109C36.7125 25.3641 37.1355 25.486 37.5612 25.4543C37.9869 25.4227 38.3872 25.2397 38.6896 24.9384L40.2763 23.3569C40.5799 23.0548 40.7641 22.6534 40.7952 22.2263C40.8263 21.7992 40.7021 21.3753 40.4455 21.0325L39.1102 19.2356C39.414 18.6606 39.6656 18.0594 39.8618 17.4394L42.1013 17.107C42.5235 17.0443 42.9089 16.8316 43.1869 16.5077C43.465 16.1839 43.6169 15.7706 43.615 15.3438V13.1049C43.6167 12.6775 43.4642 12.2637 43.1854 11.9397C42.9065 11.6156 42.5202 11.403 42.0973 11.3409L39.8825 11.013C39.6892 10.3938 39.4403 9.79333 39.1388 9.21896L40.4881 7.39861C40.7408 7.05481 40.8623 6.63194 40.8305 6.2064C40.7988 5.78086 40.6158 5.38072 40.3148 5.07828L38.7337 3.49158C38.4315 3.18793 38.0299 3.00357 37.6026 2.9724C37.1754 2.94123 36.7512 3.06534 36.4082 3.32192L34.6119 4.65746C34.0367 4.35363 33.4355 4.10199 32.8154 3.90557L32.4831 1.66616C32.4205 1.24389 32.2078 0.858354 31.8839 0.580298C31.56 0.302241 31.1467 0.150324 30.7198 0.152427H28.4809C28.0535 0.150275 27.6397 0.302639 27.3157 0.581457C26.9917 0.860276 26.7793 1.24677 26.7177 1.66977L26.3887 3.8855C25.7701 4.07894 25.1701 4.32769 24.5961 4.62873L22.7741 3.27975C22.4305 3.02691 22.0077 2.90535 21.5822 2.93705C21.1567 2.96876 20.7566 3.15164 20.4542 3.45263L18.8683 5.03413C18.5683 5.33815 18.3865 5.73906 18.3553 6.165C18.3242 6.59094 18.4458 7.01405 18.6983 7.35848ZM20.0291 6.19651L21.615 4.615C21.6379 4.59121 21.6685 4.57642 21.7013 4.57333C21.7342 4.57023 21.767 4.57905 21.7939 4.59816L23.9317 6.18608C24.008 6.26239 24.0985 6.32292 24.1982 6.36422C24.2978 6.40552 24.4046 6.42677 24.5125 6.42676C25.4752 6.1538 26.3375 5.48752 27.333 5.3211C27.5047 5.26963 27.6564 5.16648 27.7673 5.0257C27.8783 4.88493 27.9431 4.71338 27.953 4.53441L28.3421 1.91368C28.3472 1.88056 28.364 1.85037 28.3895 1.82864C28.415 1.80692 28.4475 1.79511 28.481 1.7954H30.7199C30.7529 1.79499 30.7851 1.8064 30.8105 1.82757C30.836 1.84874 30.853 1.87829 30.8586 1.91091C30.8746 2.03176 31.2701 4.73722 31.2928 4.75889C31.3184 4.85846 31.3639 4.95182 31.4265 5.03335C31.4892 5.11487 31.5677 5.18286 31.6573 5.23322C32.5625 5.50745 33.4356 5.87818 34.2615 6.33904C34.409 6.42241 34.578 6.45991 34.7469 6.44675C34.9158 6.43359 35.0769 6.37036 35.2097 6.26515L37.3852 4.64315C37.4122 4.6221 37.4459 4.61148 37.4801 4.61325C37.5143 4.61502 37.5467 4.62905 37.5713 4.65278L39.1524 6.23911C39.1761 6.26206 39.1907 6.29267 39.1938 6.32545C39.1969 6.35823 39.1882 6.39105 39.1693 6.418L37.5818 8.55575C37.4698 8.66684 37.3928 8.80824 37.3602 8.96255C37.3276 9.11686 37.3408 9.27734 37.3983 9.42422C37.86 10.2344 38.2185 11.0991 38.4653 11.9984C38.5036 12.1162 38.5675 12.2242 38.6524 12.3145C38.7373 12.4049 38.841 12.4754 38.9563 12.521C38.9525 12.5626 41.7334 12.9334 41.8526 12.9654C41.8859 12.9705 41.9164 12.9873 41.9383 13.013C41.9603 13.0386 41.9723 13.0712 41.9722 13.1049V15.3439C41.9725 15.3769 41.9611 15.409 41.9399 15.4345C41.9187 15.4599 41.8892 15.477 41.8567 15.4826L39.2287 15.8725C39.0594 15.8795 38.8959 15.9366 38.7591 16.0366C38.6222 16.1365 38.518 16.2748 38.4597 16.4339C38.184 17.3533 37.8148 18.2421 37.3581 19.0863C37.3214 19.2133 37.3154 19.3473 37.3404 19.4771C37.3655 19.607 37.421 19.729 37.5024 19.8333L39.1252 22.0096C39.1454 22.0369 39.1554 22.0703 39.1535 22.1042C39.1516 22.138 39.1379 22.1701 39.1148 22.1949L37.5281 23.7764C37.5052 23.7999 37.4747 23.8144 37.442 23.8174C37.4094 23.8205 37.3768 23.8117 37.35 23.7929L35.2121 22.2049C35.101 22.0929 34.9594 22.0159 34.805 21.9833C34.6506 21.9507 34.49 21.964 34.3431 22.0216C33.5344 22.4818 32.6718 22.8399 31.7749 23.0877C31.5708 23.1524 31.399 23.2927 31.2948 23.4798C31.1642 23.6951 30.865 26.1864 30.8017 26.4774C30.7968 26.5106 30.78 26.5409 30.7545 26.5627C30.7291 26.5845 30.6965 26.5964 30.663 26.5961H28.424C28.3908 26.5964 28.3587 26.5849 28.3333 26.5637C28.3078 26.5425 28.2908 26.5129 28.2852 26.4802L27.8953 23.8426C27.8861 23.675 27.828 23.5139 27.7282 23.3789C27.6284 23.244 27.4913 23.1412 27.3338 23.0833C26.3794 22.7795 25.4513 22.3987 24.5586 21.9446C24.3381 21.9313 24.1198 21.9939 23.9398 22.1219L21.7586 23.7484C21.7316 23.7694 21.6979 23.7799 21.6638 23.7782C21.6296 23.7764 21.5972 23.7624 21.5725 23.7388L19.9922 22.1528C19.9681 22.13 19.9531 22.0993 19.9499 22.0663C19.9466 22.0333 19.9554 22.0002 19.9746 21.9731L21.5621 19.8353C21.674 19.7242 21.751 19.5829 21.7836 19.4286C21.8162 19.2743 21.803 19.1139 21.7457 18.967C21.285 18.1584 20.927 17.2955 20.6798 16.3984C20.6159 16.196 20.4774 16.0254 20.2925 15.9213C20.067 15.7842 17.5912 15.4909 17.2912 15.4256C17.2579 15.4206 17.2275 15.4037 17.2055 15.3781C17.1836 15.3524 17.1716 15.3198 17.1717 15.2861V13.0472C17.1712 13.0141 17.1826 12.982 17.2038 12.9566C17.225 12.9312 17.2546 12.9142 17.2872 12.9088C17.4445 12.8624 20.1727 12.5143 20.2099 12.459C20.3185 12.4138 20.4165 12.3465 20.4979 12.2615C20.5792 12.1765 20.6421 12.0755 20.6825 11.965C20.9158 11.1029 21.2631 10.2758 21.7153 9.50554C21.8038 9.34814 21.8401 9.1667 21.8189 8.98736C21.7977 8.80802 21.7201 8.64004 21.5973 8.50762L20.0187 6.3814C19.9985 6.35423 19.9885 6.32085 19.9904 6.28707C19.9923 6.25328 20.006 6.22124 20.0291 6.19651Z" fill="url(#paint3_linear_447_2242)"/>
<path d="M29.5428 21.4433C31.472 21.4412 33.3216 20.6738 34.6858 19.3097C36.05 17.9455 36.8173 16.0959 36.8194 14.1666C36.4379 4.52015 22.6462 4.52286 22.2661 14.1667C22.2683 16.096 23.0356 17.9455 24.3998 19.3097C25.7639 20.6739 27.6135 21.4412 29.5428 21.4433ZM29.5428 8.5329C31.0364 8.53465 32.4683 9.12877 33.5245 10.1849C34.5806 11.2411 35.1748 12.673 35.1765 14.1666C34.9117 21.6229 24.1727 21.621 23.909 14.1666C23.9108 12.6729 24.5049 11.241 25.561 10.1849C26.6172 9.12872 28.0491 8.53465 29.5428 8.5329Z" fill="url(#paint4_linear_447_2242)"/>
<path d="M17.5863 27.369C17.7486 27.5103 17.9598 27.5824 18.1746 27.5697C18.3894 27.5571 18.5907 27.4607 18.7352 27.3012C18.8797 27.1418 18.956 26.932 18.9475 26.717C18.9391 26.502 18.8467 26.2989 18.6901 26.1512C11.3254 19.6793 11.722 7.39179 19.5487 1.45637C19.7146 1.31972 19.8204 1.12352 19.8434 0.909815C19.8663 0.69611 19.8047 0.481904 19.6716 0.313105C19.5386 0.144306 19.3447 0.0343441 19.1315 0.00678649C18.9184 -0.0207711 18.7029 0.0362682 18.5313 0.16568C9.91091 6.70501 9.47548 20.2399 17.5863 27.369Z" fill="url(#paint5_linear_447_2242)"/>
<defs>
<linearGradient id="paint0_linear_447_2242" x1="23" y1="25.4775" x2="23" y2="44.1321" gradientUnits="userSpaceOnUse">
<stop offset="0.145" stop-color="#63388D"/>
<stop offset="1" stop-color="#327EB2"/>
</linearGradient>
<linearGradient id="paint1_linear_447_2242" x1="5.38423" y1="35.3167" x2="5.38423" y2="39.7483" gradientUnits="userSpaceOnUse">
<stop offset="0.145" stop-color="#63388D"/>
<stop offset="1" stop-color="#327EB2"/>
</linearGradient>
<linearGradient id="paint2_linear_447_2242" x1="4.52881" y1="27.9157" x2="4.52881" y2="31.9485" gradientUnits="userSpaceOnUse">
<stop offset="0.145" stop-color="#63388D"/>
<stop offset="1" stop-color="#327EB2"/>
</linearGradient>
<linearGradient id="paint3_linear_447_2242" x1="29.5719" y1="0.152405" x2="29.5719" y2="28.239" gradientUnits="userSpaceOnUse">
<stop offset="0.145" stop-color="#63388D"/>
<stop offset="1" stop-color="#327EB2"/>
</linearGradient>
<linearGradient id="paint4_linear_447_2242" x1="29.5428" y1="6.9328" x2="29.5428" y2="21.4433" gradientUnits="userSpaceOnUse">
<stop offset="0.145" stop-color="#63388D"/>
<stop offset="1" stop-color="#327EB2"/>
</linearGradient>
<linearGradient id="paint5_linear_447_2242" x1="15.811" y1="0" x2="15.811" y2="27.5712" gradientUnits="userSpaceOnUse">
<stop offset="0.145" stop-color="#63388D"/>
<stop offset="1" stop-color="#327EB2"/>
</linearGradient>
</defs>
</svg>
