<svg width="39" height="34" viewBox="0 0 39 34" fill="none" xmlns="http://www.w3.org/2000/svg">
<path d="M36.8502 0.430345H32.8302C31.6912 0.430345 30.8202 1.29229 30.8202 2.41949V6.39778H29.4802C29.4802 5.27062 28.6092 4.40863 27.4701 4.40863H26.1301C25.5941 4.40863 25.1251 4.60755 24.7901 4.93907C24.4551 4.60755 23.9861 4.40863 23.4501 4.40863H22.1101C21.5741 4.40863 21.1051 4.60755 20.7701 4.93907C20.4351 4.60755 19.9661 4.40863 19.4301 4.40863H18.0901C17.5541 4.40863 17.0851 4.60755 16.7501 4.93907C16.4151 4.60755 15.9461 4.40863 15.4101 4.40863H14.0701C12.9311 4.40863 12.0601 5.27057 12.0601 6.39778H8.04004V2.41949C8.04004 1.29233 7.16906 0.430345 6.03003 0.430345H2.01001C0.871026 0.430345 0 1.29229 0 2.41949V17.0065C0 18.1337 0.870983 18.9957 2.01001 18.9957H6.03003C7.16902 18.9957 8.04004 18.1337 8.04004 17.0065V13.0283H9.58107C9.44707 13.2935 9.38007 13.5587 9.38007 13.8902V17.9348C9.38007 18.3326 9.51407 18.7304 9.71507 19.1283L11.9261 22.3772C11.9931 22.5098 12.0601 22.6424 12.0601 22.8413V25.6261H11.3901C10.9881 25.6261 10.7201 25.8913 10.7201 26.2892V32.9197C10.7201 33.3175 10.9881 33.5827 11.3901 33.5827H28.1399C28.5419 33.5827 28.8099 33.3175 28.8099 32.9197V26.2892C28.8099 25.8913 28.5419 25.6261 28.1399 25.6261H27.4699V22.112C27.4699 21.9131 27.5369 21.7805 27.6039 21.6478L29.0109 19.7913C29.2789 19.4598 29.4129 18.9956 29.4129 18.5315V13.0281H30.7529V17.0064C30.7529 18.1335 31.6239 18.9955 32.7629 18.9955H36.783C37.9219 18.9955 38.793 18.1336 38.793 17.0064V2.41932C38.86 1.29216 37.9892 0.430345 36.8502 0.430345ZM26.1301 5.73473H27.4701C27.8721 5.73473 28.1401 5.99995 28.1401 6.39778V12.365C28.1401 13.0944 27.5372 13.6911 26.8001 13.6911C26.0631 13.6911 25.4601 13.0944 25.4601 12.365V6.39778C25.4601 5.99995 25.7281 5.73473 26.1301 5.73473ZM22.1101 5.73473H23.4501C23.8521 5.73473 24.1201 5.99995 24.1201 6.39778V12.365C24.1201 13.0944 23.5171 13.6911 22.7801 13.6911C22.0431 13.6911 21.4401 13.0944 21.4401 12.365V6.39778C21.4401 5.99995 21.7081 5.73473 22.1101 5.73473ZM18.0901 5.73473H19.4301C19.8321 5.73473 20.1001 5.99995 20.1001 6.39778V12.365C20.1001 12.6965 19.9661 12.9617 19.8321 13.1607C19.3631 12.2987 18.4921 11.702 17.4201 11.702V6.39757C17.4201 5.99974 17.6881 5.73473 18.0901 5.73473ZM13.3999 6.39778C13.3999 5.99995 13.6679 5.73473 14.0699 5.73473H15.4099C15.8119 5.73473 16.0799 5.99995 16.0799 6.39778V11.7022H13.3999V6.39778ZM6.69982 17.0065C6.69982 17.4044 6.43182 17.6696 6.02982 17.6696H2.0098C1.60779 17.6696 1.33979 17.4044 1.33979 17.0065V2.41949C1.33979 2.02166 1.60779 1.75644 2.0098 1.75644H6.02982C6.43182 1.75644 6.69982 2.02166 6.69982 2.41949V17.0065ZM8.03983 7.72387H12.0598V11.7022H8.03983V7.72387ZM27.4697 32.2564H12.0594V26.9521H27.4697V32.2564ZM28.0057 18.9955L26.5987 20.852C26.2637 21.2498 26.1297 21.6477 26.1297 22.1118V25.626H13.3994V22.7748C13.3994 22.377 13.2654 21.9792 13.0644 21.5813L10.8534 18.3324C10.7864 18.1998 10.7194 18.0672 10.7194 17.8683V13.8237C10.7194 13.3595 11.1214 12.9618 11.5904 12.9618H17.4196C18.1566 12.9618 18.7596 13.5585 18.7596 14.2879C18.7596 15.0172 18.1566 15.614 17.4196 15.614H14.0695C14.0025 15.614 13.8685 15.614 13.8015 15.6803C13.6005 15.8129 13.3995 16.0781 13.3995 16.3433C13.3995 16.6748 13.6675 16.94 14.0025 17.0064H14.0695C14.2705 17.0064 18.7598 17.0727 18.7598 20.9846C18.7598 21.3825 19.0278 21.6477 19.4298 21.6477C19.8318 21.6477 20.0998 21.3825 20.0998 20.9846C20.0998 18.9955 19.2288 17.7357 18.0898 16.9401C19.1618 16.6749 20.0327 15.7466 20.0998 14.5531C20.2338 14.5531 20.3678 14.4868 20.5018 14.4205C20.6358 14.3542 20.7028 14.2216 20.7698 14.089C21.2388 14.6194 21.9758 15.0172 22.7798 15.0172C23.5838 15.0172 24.3208 14.6857 24.7898 14.089C25.2588 14.6194 25.9958 15.0172 26.7998 15.0172C27.2688 15.0172 27.7378 14.8846 28.1398 14.6194V18.4651C28.1398 18.664 28.0727 18.8629 28.0057 18.9955ZM29.4797 11.7017V7.72345H30.8197V11.7017H29.4797ZM37.5198 17.0061C37.5198 17.404 37.2518 17.6692 36.8498 17.6692H32.8297C32.4277 17.6692 32.1597 17.404 32.1597 17.0061V2.41907C32.1597 2.02124 32.4277 1.75602 32.8297 1.75602H36.8498C37.2518 1.75602 37.5198 2.02124 37.5198 2.41907V17.0061Z" fill="#D0A431"/>
</svg>
