<svg width="23" height="34" viewBox="0 0 23 34" fill="none" xmlns="http://www.w3.org/2000/svg">
<path d="M21.5595 15.0251C21.4266 15.0251 21.299 15.0777 21.205 15.1715C21.1109 15.2652 21.0581 15.3924 21.0581 15.525V17.0247C21.0615 19.4596 20.1268 21.8028 18.4471 23.5704C16.7674 25.338 14.4709 26.395 12.032 26.5232V24.0236C13.8218 23.9028 15.5095 23.1482 16.7904 21.896C18.0712 20.6438 18.861 18.9764 19.0172 17.1947C19.0387 17.1405 19.0506 17.083 19.0523 17.0247C19.0546 16.9915 19.0546 16.958 19.0523 16.9248C19.0523 16.7898 19.0523 16.6598 19.0523 16.5248V8.52612C19.0523 8.39114 19.0523 8.26116 19.0523 8.12619C19.0546 8.0929 19.0546 8.05949 19.0523 8.0262C19.0506 7.96794 19.0387 7.91041 19.0172 7.85623C18.8368 6.0014 17.9701 4.27998 16.5861 3.02745C15.202 1.77493 13.3997 1.08105 11.5305 1.08105C9.66126 1.08105 7.85898 1.77493 6.47493 3.02745C5.09087 4.27998 4.2242 6.0014 4.04382 7.85623C4.02227 7.91041 4.01039 7.96794 4.00872 8.0262C4.00636 8.05949 4.00636 8.0929 4.00872 8.12619C4.00872 8.26116 4.00872 8.39114 4.00872 8.52612V16.5248C4.00872 16.6598 4.00872 16.7898 4.00872 16.9248C4.00636 16.958 4.00636 16.9915 4.00872 17.0247C4.01039 17.083 4.02227 17.1405 4.04382 17.1947C4.19999 18.9764 4.98976 20.6438 6.27065 21.896C7.55153 23.1482 9.23917 23.9028 11.0291 24.0236V26.5232C8.59009 26.395 6.29362 25.338 4.61391 23.5704C2.9342 21.8028 1.99953 19.4596 2.00291 17.0247V15.525C2.00291 15.3924 1.95008 15.2652 1.85604 15.1715C1.762 15.0777 1.63445 15.0251 1.50146 15.0251C1.36847 15.0251 1.24092 15.0777 1.14688 15.1715C1.05284 15.2652 1.00001 15.3924 1.00001 15.525V17.0247C0.996935 19.7246 2.0373 22.3218 3.90496 24.2768C5.77263 26.2319 8.32401 27.3945 11.0291 27.523V32.0223H8.02034C7.88734 32.0223 7.7598 32.075 7.66576 32.1687C7.57172 32.2625 7.51889 32.3896 7.51889 32.5222C7.51889 32.6548 7.57172 32.782 7.66576 32.8757C7.7598 32.9695 7.88734 33.0221 8.02034 33.0221H15.0407C15.1737 33.0221 15.3012 32.9695 15.3952 32.8757C15.4893 32.782 15.5421 32.6548 15.5421 32.5222C15.5421 32.3896 15.4893 32.2625 15.3952 32.1687C15.3012 32.075 15.1737 32.0223 15.0407 32.0223H12.032V27.523C14.737 27.3945 17.2884 26.2319 19.156 24.2768C21.0237 22.3218 22.0641 19.7246 22.061 17.0247V15.525C22.061 15.3924 22.0082 15.2652 21.9141 15.1715C21.8201 15.0777 21.6925 15.0251 21.5595 15.0251ZM5.09687 17.5247H9.02324C9.15624 17.5247 9.28378 17.472 9.37782 17.3782C9.47186 17.2845 9.52469 17.1573 9.52469 17.0247C9.52469 16.8922 9.47186 16.765 9.37782 16.6712C9.28378 16.5775 9.15624 16.5248 9.02324 16.5248H5.01162V14.5251H9.02324C9.15624 14.5251 9.28378 14.4725 9.37782 14.3787C9.47186 14.285 9.52469 14.1578 9.52469 14.0252C9.52469 13.8926 9.47186 13.7655 9.37782 13.6717C9.28378 13.578 9.15624 13.5253 9.02324 13.5253H5.01162V11.5256H9.02324C9.15624 11.5256 9.28378 11.473 9.37782 11.3792C9.47186 11.2855 9.52469 11.1583 9.52469 11.0257C9.52469 10.8931 9.47186 10.766 9.37782 10.6722C9.28378 10.5785 9.15624 10.5258 9.02324 10.5258H5.01162V8.52612H9.02324C9.15624 8.52612 9.28378 8.47345 9.37782 8.3797C9.47186 8.28595 9.52469 8.15879 9.52469 8.0262C9.52469 7.89362 9.47186 7.76646 9.37782 7.67271C9.28378 7.57895 9.15624 7.52628 9.02324 7.52628H5.09687C5.3462 6.00442 6.1302 4.62051 7.30879 3.62187C8.48737 2.62323 9.98374 2.07492 11.5305 2.07492C13.0773 2.07492 14.5736 2.62323 15.7522 3.62187C16.9308 4.62051 17.7148 6.00442 17.9641 7.52628H14.0378C13.9048 7.52628 13.7772 7.57895 13.6832 7.67271C13.5891 7.76646 13.5363 7.89362 13.5363 8.0262C13.5363 8.15879 13.5891 8.28595 13.6832 8.3797C13.7772 8.47345 13.9048 8.52612 14.0378 8.52612H18.0494V10.5258H14.0378C13.9048 10.5258 13.7772 10.5785 13.6832 10.6722C13.5891 10.766 13.5363 10.8931 13.5363 11.0257C13.5363 11.1583 13.5891 11.2855 13.6832 11.3792C13.7772 11.473 13.9048 11.5256 14.0378 11.5256H18.0494V13.5253H14.0378C13.9048 13.5253 13.7772 13.578 13.6832 13.6717C13.5891 13.7655 13.5363 13.8926 13.5363 14.0252C13.5363 14.1578 13.5891 14.285 13.6832 14.3787C13.7772 14.4725 13.9048 14.5251 14.0378 14.5251H18.0494V16.5248H14.0378C13.9048 16.5248 13.7772 16.5775 13.6832 16.6712C13.5891 16.765 13.5363 16.8922 13.5363 17.0247C13.5363 17.1573 13.5891 17.2845 13.6832 17.3782C13.7772 17.472 13.9048 17.5247 14.0378 17.5247H17.9641C17.7148 19.0465 16.9308 20.4304 15.7522 21.4291C14.5736 22.4277 13.0773 22.976 11.5305 22.976C9.98374 22.976 8.48737 22.4277 7.30879 21.4291C6.1302 20.4304 5.3462 19.0465 5.09687 17.5247Z" fill="#337CB1" stroke="#97C7E2" stroke-width="0.2"/>
</svg>
