<svg width="45" height="54" viewBox="0 0 45 54" fill="none" xmlns="http://www.w3.org/2000/svg">
<path d="M42.0387 7.14496C37.0281 -0.0320129 27.1295 -2.15912 19.9745 2.40306L7.40594 10.4187C5.70519 11.4858 4.24587 12.8962 3.12134 14.5595C1.9968 16.2228 1.23181 18.1026 0.875283 20.0785C0.716339 20.9652 0.635455 21.8696 0.63397 22.7768C0.641616 25.2367 1.24418 27.6582 2.39024 29.8348C1.31587 31.4686 0.582743 33.3026 0.234874 35.2268C-0.1216 37.2383 -0.0716884 39.3234 0.380422 41.3069C0.833025 43.3035 1.67921 45.1898 2.8695 46.8554C7.88056 54.0316 17.8014 56.1591 24.9337 51.5973L37.4896 43.5812C39.1893 42.5127 40.6467 41.1006 41.7683 39.4356C42.8899 37.7705 43.651 35.8892 44.0025 33.9127C44.1641 33.0237 44.2448 32.122 44.2438 31.2185C44.2406 28.7634 43.6456 26.3452 42.5091 24.169C43.5833 22.5367 44.3169 20.7043 44.6657 18.7816C44.8214 17.8914 44.9007 16.9907 44.9028 16.0875C44.9038 12.8835 43.9026 9.75953 42.0395 7.15298L42.0387 7.14496Z" fill="#FF3E00"/>
<path d="M18.7463 47.5296C17.9207 47.7424 17.0787 47.8498 16.2344 47.8502C14.6221 47.8499 13.034 47.4588 11.606 46.7103C10.178 45.9618 8.95273 44.8783 8.03523 43.5525C6.91494 41.9843 6.3131 40.1051 6.31397 38.1778C6.31468 37.6344 6.36176 37.0926 6.45445 36.5608C6.52996 36.1606 6.63152 35.7681 6.7582 35.3871L6.99488 34.6665L7.63613 35.1542C9.12458 36.2469 10.7876 37.0791 12.5544 37.6155L13.0201 37.756L12.9763 38.2217V38.4634C12.9754 39.0461 13.1565 39.6146 13.4943 40.0894C13.7673 40.4935 14.1349 40.8248 14.565 41.0546C15.0055 41.287 15.4813 41.4072 15.9623 41.4077C16.2162 41.4087 16.4694 41.3763 16.7175 41.3111C16.9867 41.2406 17.2468 41.1268 17.4908 40.9728L30.0458 32.9174C30.4223 32.6784 30.7321 32.3479 30.9463 31.9567C31.1605 31.5656 31.2722 31.1266 31.271 30.6806C31.2673 30.0979 31.0814 29.5308 30.7394 29.0589C30.4622 28.6601 30.0927 28.3341 29.6623 28.1089C29.2216 27.8815 28.7468 27.7652 28.2672 27.7672C28.0133 27.7663 27.7601 27.7988 27.512 27.8642C27.2439 27.933 26.9852 28.0467 26.7434 28.2021L21.9568 31.2607C21.1512 31.7683 20.2932 32.145 19.4052 32.3812C17.4279 32.8961 15.3401 32.7912 13.4244 32.0807C11.5086 31.3703 9.85726 30.0885 8.69378 28.4088C7.57451 26.8401 6.97278 24.9612 6.97252 23.0341C6.97336 22.492 7.02061 21.9512 7.113 21.4171C7.32769 20.2295 7.78677 19.0995 8.46115 18.0987C9.13552 17.0978 10.0105 16.2481 11.0306 15.6032L23.5991 7.59172C24.3878 7.08974 25.2481 6.71038 26.1506 6.46658C26.9714 6.25643 27.8153 6.15013 28.6625 6.15017C30.2781 6.14675 31.8704 6.53522 33.303 7.28227C34.7355 8.02932 35.9655 9.11266 36.8874 10.4394C37.9999 12.0118 38.5941 13.8922 38.5872 15.8183C38.5863 16.3633 38.5391 16.9067 38.4462 17.44C38.371 17.8401 38.2697 18.2323 38.1433 18.6133L37.9062 19.3338L37.265 18.8639C35.7778 17.7691 34.1145 16.9367 32.3467 16.4026L31.881 16.2579L31.9249 15.7918V15.5504C31.9248 14.9665 31.7438 14.3968 31.4068 13.9199C31.1304 13.521 30.7612 13.1952 30.331 12.9707C29.8913 12.7432 29.4175 12.6265 28.9388 12.6277C28.6872 12.6331 28.4368 12.6714 28.1921 12.742C27.9225 12.8097 27.6623 12.9237 27.4196 13.0803L14.8507 21.0918C14.5526 21.2779 14.2891 21.5348 14.0761 21.847C13.8773 22.1384 13.7382 22.4819 13.6698 22.8498C13.6388 23.0026 13.6196 23.1585 13.6124 23.3155C13.6121 23.8968 13.7933 24.4637 14.1305 24.9372C14.4068 25.336 14.7758 25.6618 15.2059 25.8864C15.6457 26.1139 16.1197 26.2305 16.5985 26.229C16.8524 26.2299 17.1056 26.1974 17.3536 26.132C17.6234 26.0636 17.8837 25.9499 18.127 25.794L22.9224 22.7177C23.7277 22.2093 24.5858 21.8325 25.4739 21.5972C26.2996 21.3847 27.1415 21.2772 27.9858 21.2766C29.5984 21.2763 31.187 21.6668 32.6157 22.4145C34.0444 23.1622 35.2707 24.2449 36.1896 25.57C36.9063 26.5743 37.4149 27.7117 37.6857 28.9154C37.9564 30.119 37.9838 31.3647 37.7662 32.5791C37.5527 33.7671 37.0941 34.8976 36.4197 35.8986C35.7452 36.8996 34.8696 37.7491 33.8486 38.393L21.302 46.4044C20.4956 46.9143 19.6358 47.2927 18.7463 47.5296Z" fill="white"/>
</svg>
