<svg width="80" height="80" viewBox="0 0 80 80" fill="none" xmlns="http://www.w3.org/2000/svg">
<g clip-path="url(#clip0_3553_2152)">
<path d="M80.596 0.925781V15.1833H40.5956C38.0883 15.1833 35.67 15.5385 33.3828 16.2008V15.1833C33.3828 7.31225 39.8445 0.925781 47.8083 0.925781H80.596Z" fill="url(#paint0_linear_3553_2152)"/>
<path opacity="0.5" d="M80.596 0.925781V15.1833H40.5956C38.0883 15.1833 35.67 15.5385 33.3828 16.2008V15.1833C33.3828 7.31225 39.8445 0.925781 47.8083 0.925781H80.596Z" fill="url(#paint1_linear_3553_2152)"/>
<path d="M0.597656 0.925781V15.1833H40.598C43.1054 15.1833 45.5236 15.5385 47.8108 16.2008V15.1833C47.8108 7.31225 41.3491 0.925781 33.3853 0.925781H0.597656Z" fill="url(#paint2_linear_3553_2152)"/>
<path opacity="0.5" d="M0.597656 1.36573V14.745C0.597656 14.9882 0.796752 15.1849 1.04279 15.1849H40.5997C42.903 15.1849 45.1303 15.4841 47.2491 16.0456C47.5324 16.1208 47.8124 15.9145 47.8124 15.6233C47.8124 7.50582 41.1549 0.925781 32.9418 0.925781H1.04117C0.796752 0.925781 0.597656 1.12256 0.597656 1.36573Z" fill="url(#paint3_linear_3553_2152)"/>
<path d="M40.598 65.744C26.472 65.744 15.0216 54.4269 15.0216 40.4653C15.0216 26.5037 26.472 15.1866 40.598 15.1866H47.3867V0.930664H40.598C18.5065 0.930664 0.597656 18.631 0.597656 40.4653C0.597656 62.2996 18.5065 80 40.598 80C56.9465 80 70.9965 70.3003 77.2009 56.4107H60.4412C55.7504 62.1044 48.6056 65.744 40.598 65.744Z" fill="url(#paint4_linear_3553_2152)"/>
<path d="M40.598 65.744C26.472 65.744 15.0216 54.4269 15.0216 40.4653C15.0216 26.5037 26.472 15.1866 40.598 15.1866H47.3867V0.930664H40.598C18.5065 0.930664 0.597656 18.631 0.597656 40.4653C0.597656 62.2996 18.5065 80 40.598 80C56.9465 80 70.9965 70.3003 77.2009 56.4107H60.4412C55.7504 62.1044 48.6056 65.744 40.598 65.744Z" fill="url(#paint5_linear_3553_2152)"/>
<path opacity="0.5" d="M19.7196 23.5991C19.9997 23.9862 20.2862 24.3686 20.5678 24.7541C25.2539 18.926 32.4812 15.1856 40.5972 15.1856H47.3858V0.929688H40.5972C29.3491 0.929688 19.1936 5.52436 11.9258 12.9107C14.5885 16.4255 17.1363 20.0267 19.7196 23.5991Z" fill="url(#paint6_linear_3553_2152)"/>
<path d="M62.2339 0.925781H47.8083C39.8445 0.925781 33.3828 7.31225 33.3828 15.1833V59.1495C35.67 59.8198 38.0964 60.175 40.5956 60.175C43.1029 60.175 45.5212 59.8198 47.8083 59.1575V15.1833C47.8083 7.31225 54.27 0.925781 62.2339 0.925781Z" fill="url(#paint7_linear_3553_2152)"/>
</g>
<defs>
<linearGradient id="paint0_linear_3553_2152" x1="67.8412" y1="24.3566" x2="54.353" y2="4.26102" gradientUnits="userSpaceOnUse">
<stop stop-color="#00C6DB"/>
<stop offset="1" stop-color="#72227F"/>
</linearGradient>
<linearGradient id="paint1_linear_3553_2152" x1="65.6607" y1="21.3346" x2="55.9936" y2="6.75911" gradientUnits="userSpaceOnUse">
<stop offset="0.2081" stop-color="#72227F" stop-opacity="0"/>
<stop offset="1" stop-color="#72227F"/>
</linearGradient>
<linearGradient id="paint2_linear_3553_2152" x1="2.17762" y1="-2.2211" x2="22.3113" y2="10.3409" gradientUnits="userSpaceOnUse">
<stop stop-color="#00C6DB"/>
<stop offset="1" stop-color="#72227F"/>
</linearGradient>
<linearGradient id="paint3_linear_3553_2152" x1="12.4687" y1="1.98979" x2="21.5334" y2="9.82379" gradientUnits="userSpaceOnUse">
<stop offset="0.2081" stop-color="#72227F" stop-opacity="0"/>
<stop offset="1" stop-color="#72227F"/>
</linearGradient>
<linearGradient id="paint4_linear_3553_2152" x1="9.86905" y1="14.9265" x2="65.7707" y2="71.4868" gradientUnits="userSpaceOnUse">
<stop stop-color="#FFDC81"/>
<stop offset="1" stop-color="#FF4EA6"/>
</linearGradient>
<linearGradient id="paint5_linear_3553_2152" x1="9.86905" y1="14.9265" x2="65.7707" y2="71.4868" gradientUnits="userSpaceOnUse">
<stop stop-color="#FFDC81"/>
<stop offset="1" stop-color="#FF4EA6"/>
</linearGradient>
<linearGradient id="paint6_linear_3553_2152" x1="13.4908" y1="14.9262" x2="35.0583" y2="12.0036" gradientUnits="userSpaceOnUse">
<stop offset="0.2081" stop-color="#72227F" stop-opacity="0"/>
<stop offset="1" stop-color="#72227F"/>
</linearGradient>
<linearGradient id="paint7_linear_3553_2152" x1="41.9984" y1="4.55024" x2="53.9478" y2="58.2152" gradientUnits="userSpaceOnUse">
<stop stop-color="#00C6DB"/>
<stop offset="1" stop-color="#72227F"/>
</linearGradient>
<clipPath id="clip0_3553_2152">
<rect width="80" height="80" fill="white"/>
</clipPath>
</defs>
</svg>
