<svg width="74" height="72" viewBox="0 0 74 72" fill="none" xmlns="http://www.w3.org/2000/svg">
<g clip-path="url(#clip0_1450_40)">
<mask id="mask0_1450_40" style="mask-type:luminance" maskUnits="userSpaceOnUse" x="0" y="0" width="74" height="72">
<path d="M73.325 0H0.578125V72H73.325V0Z" fill="white"/>
</mask>
<g mask="url(#mask0_1450_40)">
<path d="M55.8013 3.54324V11.293H34.3163C33.005 11.2916 31.7001 11.4777 30.4414 11.8457V11.293C30.4418 9.23799 31.2583 7.26727 32.7112 5.81406C34.1642 4.36082 36.1348 3.54404 38.1897 3.54324H55.8013Z" fill="url(#paint0_linear_1450_40)"/>
<path style="mix-blend-mode:color-burn" opacity="0.5" d="M55.8013 3.54324V11.293H34.3163C33.005 11.2916 31.7001 11.4777 30.4414 11.8457V11.293C30.4418 9.23799 31.2583 7.26727 32.7112 5.81406C34.1642 4.36082 36.1348 3.54404 38.1897 3.54324H55.8013Z" fill="url(#paint1_linear_1450_40)"/>
<path d="M12.832 3.54324V11.293H34.3184C35.6294 11.2915 36.9337 11.4776 38.1918 11.8457V11.293C38.1915 9.23799 37.3751 7.26727 35.9221 5.81406C34.4692 4.36082 32.4986 3.54404 30.4437 3.54324H12.832Z" fill="url(#paint2_linear_1450_40)"/>
<path style="mix-blend-mode:color-burn" opacity="0.5" d="M12.832 3.78225V11.054C12.832 11.1173 12.8572 11.1781 12.902 11.223C12.9469 11.2678 13.0076 11.293 13.071 11.293H34.3184C35.5243 11.2921 36.7251 11.4493 37.8902 11.7605C37.9253 11.7696 37.9622 11.7705 37.9978 11.7633C38.0333 11.756 38.0669 11.7407 38.0956 11.7185C38.1245 11.6963 38.1478 11.6678 38.164 11.6352C38.1802 11.6027 38.1887 11.5668 38.1889 11.5305C38.1889 9.41394 37.3488 7.38394 35.8532 5.88635C34.3575 4.38875 32.3286 3.54601 30.2121 3.54324H13.071C13.0076 3.54324 12.9469 3.56843 12.902 3.61325C12.8572 3.65808 12.832 3.71887 12.832 3.78225Z" fill="url(#paint3_linear_1450_40)"/>
<path d="M34.3175 38.7679C30.7397 38.6692 27.3415 37.1786 24.8458 34.6132C22.3501 32.0476 20.9537 28.6096 20.9537 25.0304C20.9537 21.4514 22.3501 18.0134 24.8458 15.4478C27.3415 12.8823 30.7397 11.3917 34.3175 11.293H37.9637V3.54623H34.3175C30.4472 3.54616 26.6488 4.59151 23.3235 6.57184C19.9983 8.55216 17.2698 11.3939 15.4262 14.7969C13.5826 18.1997 12.6925 22.0375 12.8498 25.9045C13.0071 29.7716 14.206 33.5243 16.32 36.7663C18.4339 40.0081 21.3842 42.6189 24.8593 44.3226C28.3344 46.0263 32.2051 46.7597 36.0626 46.4452C39.92 46.1308 43.6209 44.7802 46.7742 42.5361C49.9274 40.2922 52.416 37.2381 53.977 33.6966H44.9756C43.6887 35.2823 42.0641 36.5604 40.2201 37.4379C38.3762 38.3153 36.3595 38.7696 34.3175 38.7679Z" fill="url(#paint4_linear_1450_40)"/>
<path d="M34.3175 38.7679C30.7397 38.6692 27.3415 37.1786 24.8458 34.6132C22.3501 32.0476 20.9537 28.6096 20.9537 25.0304C20.9537 21.4514 22.3501 18.0134 24.8458 15.4478C27.3415 12.8823 30.7397 11.3917 34.3175 11.293H37.9637V3.54623H34.3175C30.4472 3.54616 26.6488 4.59151 23.3235 6.57184C19.9983 8.55216 17.2698 11.3939 15.4262 14.7969C13.5826 18.1997 12.6925 22.0375 12.8498 25.9045C13.0071 29.7716 14.206 33.5243 16.32 36.7663C18.4339 40.0081 21.3842 42.6189 24.8593 44.3226C28.3344 46.0263 32.2051 46.7597 36.0626 46.4452C39.92 46.1308 43.6209 44.7802 46.7742 42.5361C49.9274 40.2922 52.416 37.2381 53.977 33.6966H44.9756C43.6887 35.2823 42.0641 36.5604 40.2201 37.4379C38.3762 38.3153 36.3595 38.7696 34.3175 38.7679Z" fill="url(#paint5_linear_1450_40)"/>
<path style="mix-blend-mode:color-burn" opacity="0.5" d="M23.1035 15.8655C23.2529 16.076 23.4024 16.2837 23.5592 16.4943C24.8431 14.8718 26.4775 13.561 28.3403 12.6602C30.2028 11.7594 32.2453 11.292 34.3143 11.293H37.9606V3.54625H34.3172C31.4451 3.5431 28.6015 4.11782 25.9561 5.23618C23.3105 6.35456 20.917 7.99372 18.918 10.0561C20.3535 11.9667 21.7158 13.9235 23.1035 15.8655Z" fill="url(#paint6_linear_1450_40)"/>
<path d="M45.9379 3.54324H38.1897C36.1348 3.54404 34.1642 4.36082 32.7112 5.81406C31.2583 7.26727 30.4418 9.23799 30.4414 11.293V35.1934C32.9717 35.9333 35.661 35.9333 38.1911 35.1934V11.293C38.1915 9.23825 39.0077 7.26775 40.4604 5.81458C41.913 4.3614 43.8832 3.54444 45.9379 3.54324Z" fill="url(#paint7_linear_1450_40)"/>
<path d="M3.23023 59.8809V54.8993H1.26562V53.7417H6.61566V54.8993H4.65106V59.8809H3.23023ZM7.38014 59.8809V53.7417H10.0376C10.5873 53.7417 11.0609 53.8322 11.4584 54.0135C11.8561 54.1889 12.163 54.4432 12.3794 54.7765C12.5957 55.1098 12.7039 55.5074 12.7039 55.9693C12.7039 56.4254 12.5957 56.8201 12.3794 57.1534C12.163 57.4807 11.8561 57.7322 11.4584 57.9077C11.0609 58.083 10.5873 58.1708 10.0376 58.1708H8.1695L8.80098 57.548V59.8809H7.38014ZM11.283 59.8809L9.7482 57.6533H11.2655L12.8179 59.8809H11.283ZM8.80098 57.7059L8.1695 57.0393H9.95868C10.3972 57.0393 10.7247 56.9458 10.941 56.7586C11.1573 56.5657 11.2655 56.3026 11.2655 55.9693C11.2655 55.6303 11.1573 55.3671 10.941 55.18C10.7247 54.9928 10.3972 54.8993 9.95868 54.8993H8.1695L8.80098 54.224V57.7059ZM13.0227 59.8809L15.7591 53.7417H17.1624L19.9076 59.8809H18.4166L16.1713 54.4608H16.7327L14.4786 59.8809H13.0227ZM14.3909 58.5654L14.768 57.4866H17.9254L18.3113 58.5654H14.3909ZM20.5446 59.8809V53.7417H21.7198L25.342 58.1619H24.7719V53.7417H26.1752V59.8809H25.0087L21.3778 55.4607H21.9479V59.8809H20.5446ZM29.645 59.9863C29.1539 59.9863 28.6833 59.922 28.233 59.7933C27.7827 59.6587 27.4202 59.4863 27.1454 59.2758L27.6279 58.2058C27.891 58.393 28.2008 58.5478 28.5575 58.6707C28.9199 58.7876 29.2854 58.8461 29.6538 58.8461C29.9344 58.8461 30.1595 58.8198 30.3291 58.7672C30.5045 58.7087 30.6332 58.6298 30.715 58.5304C30.7968 58.4309 30.8378 58.3169 30.8378 58.1882C30.8378 58.0245 30.7735 57.8959 30.6448 57.8024C30.5163 57.7029 30.3467 57.624 30.1362 57.5655C29.9257 57.5013 29.6918 57.4428 29.4345 57.3902C29.1832 57.3317 28.9288 57.2615 28.6714 57.1797C28.42 57.0978 28.1891 56.9925 27.9786 56.864C27.7681 56.7353 27.5957 56.5657 27.4612 56.3552C27.3326 56.1448 27.2681 55.8758 27.2681 55.5483C27.2681 55.1976 27.3618 54.8789 27.5488 54.5923C27.7418 54.2999 28.0284 54.069 28.4083 53.8994C28.7943 53.7241 29.2767 53.6363 29.8555 53.6363C30.2414 53.6363 30.6215 53.6832 30.9957 53.7767C31.3699 53.8644 31.7002 53.9989 31.9868 54.1801L31.5482 55.2589C31.2618 55.0952 30.9752 54.9754 30.6887 54.8993C30.4023 54.8174 30.1216 54.7765 29.8468 54.7765C29.572 54.7765 29.3469 54.8087 29.1714 54.873C28.996 54.9373 28.8703 55.0221 28.7943 55.1274C28.7183 55.2268 28.6803 55.3437 28.6803 55.4782C28.6803 55.636 28.7446 55.7647 28.8732 55.8641C29.0019 55.9576 29.1714 56.0337 29.3819 56.0921C29.5924 56.1506 29.8233 56.2091 30.0747 56.2676C30.3321 56.3259 30.5863 56.3933 30.8378 56.4692C31.0951 56.5453 31.329 56.6475 31.5395 56.7762C31.75 56.9049 31.9195 57.0745 32.0481 57.2849C32.1827 57.4954 32.2499 57.7614 32.2499 58.083C32.2499 58.428 32.1535 58.7437 31.9605 59.0303C31.7674 59.3167 31.478 59.5476 31.0922 59.7231C30.7121 59.8985 30.2297 59.9863 29.645 59.9863ZM36.3572 59.9919C35.8579 59.9919 35.3926 59.9119 34.9612 59.7516C34.5359 59.5852 34.1661 59.3509 33.8518 59.049C33.5375 58.7469 33.291 58.3926 33.1122 57.9857C32.9397 57.579 32.8533 57.1321 32.8533 56.6453C32.8533 56.1583 32.9397 55.7115 33.1122 55.3047C33.291 54.8979 33.5375 54.5435 33.8518 54.2416C34.1723 53.9395 34.5452 53.7085 34.9705 53.5482C35.3957 53.3818 35.861 53.2986 36.3664 53.2986C36.9273 53.2986 37.4327 53.3971 37.8827 53.5944C38.3387 53.7855 38.7208 54.069 39.029 54.4449L38.0674 55.3324C37.8457 55.0797 37.5992 54.8918 37.3279 54.7685C37.0568 54.6391 36.7609 54.5744 36.4404 54.5744C36.1383 54.5744 35.861 54.6237 35.6083 54.7222C35.3556 54.821 35.1368 54.9627 34.9519 55.1476C34.7671 55.3324 34.6223 55.5512 34.5175 55.8039C34.4188 56.0566 34.3696 56.337 34.3696 56.6453C34.3696 56.9534 34.4188 57.2338 34.5175 57.4865C34.6223 57.7392 34.7671 57.958 34.9519 58.1429C35.1368 58.3279 35.3556 58.4696 35.6083 58.5682C35.861 58.6668 36.1383 58.7161 36.4404 58.7161C36.7609 58.7161 37.0568 58.6545 37.3279 58.5312C37.5992 58.4018 37.8457 58.2076 38.0674 57.9487L39.029 58.8364C38.7208 59.2123 38.3387 59.4989 37.8827 59.6961C37.4327 59.8933 36.9242 59.9919 36.3572 59.9919ZM43.0482 59.9919C42.5366 59.9919 42.0622 59.9088 41.6245 59.7423C41.1931 59.5759 40.8171 59.3418 40.4966 59.0397C40.1823 58.7376 39.9358 58.3833 39.757 57.9766C39.5845 57.5698 39.4982 57.1259 39.4982 56.6453C39.4982 56.1645 39.5845 55.7208 39.757 55.314C39.9358 54.9072 40.1854 54.5528 40.5059 54.2509C40.8264 53.9488 41.2024 53.7147 41.6337 53.5482C42.0651 53.3818 42.5336 53.2986 43.039 53.2986C43.5506 53.2986 44.019 53.3818 44.4442 53.5482C44.8757 53.7147 45.2486 53.9488 45.5629 54.2509C45.8834 54.5528 46.133 54.9072 46.3117 55.314C46.4905 55.7146 46.5798 56.1583 46.5798 56.6453C46.5798 57.1259 46.4905 57.5728 46.3117 57.9857C46.133 58.3926 45.8834 58.7469 45.5629 59.049C45.2486 59.3447 44.8757 59.5759 44.4442 59.7423C44.019 59.9088 43.5536 59.9919 43.0482 59.9919ZM43.039 58.7161C43.3286 58.7161 43.5937 58.6668 43.8341 58.5682C44.0806 58.4696 44.2963 58.3279 44.4812 58.1429C44.6661 57.958 44.8079 57.7392 44.9065 57.4865C45.0112 57.2338 45.0637 56.9534 45.0637 56.6453C45.0637 56.337 45.0112 56.0566 44.9065 55.8039C44.8079 55.5512 44.6661 55.3324 44.4812 55.1476C44.3025 54.9627 44.0898 54.821 43.8433 54.7222C43.5968 54.6237 43.3286 54.5744 43.039 54.5744C42.7493 54.5744 42.4812 54.6237 42.2347 54.7222C41.9943 54.821 41.7816 54.9627 41.5968 55.1476C41.4119 55.3324 41.2671 55.5512 41.1623 55.8039C41.0636 56.0566 41.0144 56.337 41.0144 56.6453C41.0144 56.9472 41.0636 57.2276 41.1623 57.4865C41.2671 57.7392 41.4088 57.958 41.5876 58.1429C41.7725 58.3279 41.9882 58.4696 42.2347 58.5682C42.4812 58.6668 42.7493 58.7161 43.039 58.7161ZM47.7055 59.8809V53.4095H50.6454C51.3479 53.4095 51.9674 53.5451 52.5036 53.8163C53.0398 54.0813 53.4588 54.4542 53.7609 54.9349C54.0628 55.4157 54.2139 55.9858 54.2139 56.6453C54.2139 57.2986 54.0628 57.8687 53.7609 58.3556C53.4588 58.8364 53.0398 59.2123 52.5036 59.4835C51.9674 59.7485 51.3479 59.8809 50.6454 59.8809H47.7055ZM49.2031 58.6514H50.5714C51.0028 58.6514 51.3756 58.5713 51.6899 58.411C52.0106 58.2446 52.2571 58.0105 52.4296 57.7084C52.6083 57.4065 52.6976 57.052 52.6976 56.6453C52.6976 56.2323 52.6083 55.8779 52.4296 55.582C52.2571 55.2801 52.0106 55.0489 51.6899 54.8887C51.3756 54.7222 51.0028 54.6391 50.5714 54.6391H49.2031V58.6514ZM56.7208 56.0166H59.8365V57.1815H56.7208V56.0166ZM56.8317 58.6791H60.3541V59.8809H55.3434V53.4095H60.2339V54.6113H56.8317V58.6791ZM61.1298 59.8809V58.9103L65.1328 54.0844L65.3178 54.6299H61.2038V53.4095H66.649V54.3802L62.6552 59.2061L62.4702 58.6607H66.7877V59.8809H61.1298ZM69.3569 59.8809V57.2369L69.6989 58.1429L66.8514 53.4095H68.4416L70.6234 57.0428H69.7082L71.8993 53.4095H73.3692L70.5217 58.1429L70.8546 57.2369V59.8809H69.3569Z" fill="#0C0C0C"/>
<path d="M11.9102 67.1573V64.3023H12.5709V67.1573H11.9102ZM13.8398 67.1573V64.8406H12.9262V64.3023H15.4141V64.8406H14.5005V67.1573H13.8398ZM17.8626 67.2062C17.6343 67.2062 17.4154 67.1763 17.2061 67.1165C16.9967 67.0539 16.8281 66.9738 16.7002 66.8759L16.9247 66.3782C17.047 66.4653 17.191 66.5373 17.3569 66.5944C17.5256 66.6488 17.6954 66.6759 17.8667 66.6759C17.9972 66.6759 18.102 66.6637 18.1807 66.6392C18.2623 66.6121 18.3222 66.5754 18.3602 66.5291C18.3983 66.483 18.4173 66.43 18.4173 66.3701C18.4173 66.294 18.3874 66.2342 18.3275 66.1906C18.2678 66.1444 18.1889 66.1077 18.091 66.0805C17.9931 66.0506 17.8844 66.0234 17.7648 65.999C17.6479 65.9718 17.5296 65.9392 17.41 65.9011C17.293 65.863 17.1857 65.814 17.0878 65.7543C16.9899 65.6945 16.9096 65.6156 16.8472 65.5178C16.7873 65.4199 16.7573 65.2947 16.7573 65.1426C16.7573 64.9793 16.8009 64.8312 16.888 64.6979C16.9777 64.5621 17.1108 64.4546 17.2876 64.3757C17.4671 64.2942 17.6913 64.2534 17.9605 64.2534C18.1399 64.2534 18.3167 64.2752 18.4908 64.3186C18.6648 64.3594 18.8183 64.422 18.9516 64.5062L18.7477 65.0078C18.6144 64.9318 18.4812 64.8761 18.3479 64.8406C18.2148 64.8027 18.0843 64.7836 17.9564 64.7836C17.8286 64.7836 17.724 64.7986 17.6424 64.8284C17.5608 64.8584 17.5023 64.8977 17.4671 64.9467C17.4318 64.9929 17.414 65.0474 17.414 65.1099C17.414 65.1833 17.444 65.2431 17.5038 65.2894C17.5635 65.3328 17.6424 65.3681 17.7403 65.3954C17.8382 65.4225 17.9456 65.4497 18.0625 65.477C18.1821 65.5041 18.3004 65.5353 18.4173 65.5708C18.5369 65.6061 18.6458 65.6537 18.7436 65.7135C18.8415 65.7733 18.9203 65.8522 18.9802 65.95C19.0428 66.0479 19.074 66.1717 19.074 66.3211C19.074 66.4816 19.0291 66.6284 18.9394 66.7617C18.8497 66.8949 18.7151 67.0023 18.5357 67.0839C18.3589 67.1655 18.1346 67.2062 17.8626 67.2062ZM20.9121 67.2062C20.6864 67.2062 20.4771 67.1695 20.2841 67.0961C20.0936 67.0227 19.9278 66.9194 19.7864 66.7862C19.6477 66.6529 19.539 66.4965 19.4601 66.3171C19.3841 66.1376 19.3459 65.9419 19.3459 65.7298C19.3459 65.5178 19.3841 65.322 19.4601 65.1426C19.539 64.963 19.6491 64.8068 19.7905 64.6734C19.9319 64.5403 20.0977 64.4369 20.2881 64.3635C20.4784 64.2901 20.6851 64.2534 20.908 64.2534C21.1337 64.2534 21.3403 64.2901 21.528 64.3635C21.7183 64.4369 21.8828 64.5403 22.0215 64.6734C22.1628 64.8068 22.2729 64.963 22.3518 65.1426C22.4307 65.3192 22.4701 65.5149 22.4701 65.7298C22.4701 65.9419 22.4307 66.139 22.3518 66.3211C22.2729 66.5006 22.1628 66.657 22.0215 66.7903C21.8828 66.9208 21.7183 67.0227 21.528 67.0961C21.3403 67.1695 21.1351 67.2062 20.9121 67.2062ZM20.908 66.6433C21.0358 66.6433 21.1527 66.6217 21.2587 66.5781C21.3676 66.5346 21.4626 66.472 21.5443 66.3905C21.6259 66.3089 21.6883 66.2124 21.7319 66.1009C21.7781 65.9894 21.8013 65.8658 21.8013 65.7298C21.8013 65.5938 21.7781 65.4701 21.7319 65.3587C21.6883 65.2472 21.6259 65.1507 21.5443 65.0692C21.4654 64.9875 21.3716 64.925 21.2628 64.8814C21.1541 64.838 21.0358 64.8162 20.908 64.8162C20.7802 64.8162 20.6619 64.838 20.5532 64.8814C20.4472 64.925 20.3534 64.9875 20.2718 65.0692C20.1903 65.1507 20.1263 65.2472 20.0801 65.3587C20.0366 65.4701 20.0149 65.5938 20.0149 65.7298C20.0149 65.863 20.0366 65.9867 20.0801 66.1009C20.1263 66.2124 20.1888 66.3089 20.2677 66.3905C20.3493 66.472 20.4445 66.5346 20.5532 66.5781C20.6619 66.6217 20.7802 66.6433 20.908 66.6433ZM22.9849 67.1573V64.1479H23.6814V66.5897H25.1903V67.1573H22.9849ZM26.8788 67.2089C26.4517 67.2089 26.1177 67.0899 25.877 66.852C25.6362 66.6142 25.5159 66.2745 25.5159 65.8332V64.1479H26.2124V65.8073C26.2124 66.0939 26.2712 66.3003 26.3886 66.4265C26.5061 66.5525 26.671 66.6156 26.883 66.6156C27.0951 66.6156 27.2599 66.5525 27.3775 66.4265C27.4949 66.3003 27.5537 66.0939 27.5537 65.8073V64.1479H28.2416V65.8332C28.2416 66.2745 28.1212 66.6142 27.8805 66.852C27.6397 67.0899 27.3057 67.2089 26.8788 67.2089ZM29.5027 67.1573V64.7153H28.5397V64.1479H31.1622V64.7153H30.1992V67.1573H29.5027ZM31.537 67.1573V64.1479H32.2334V67.1573H31.537ZM34.4093 67.2089C34.1713 67.2089 33.9507 67.1701 33.7472 67.0928C33.5465 67.0154 33.3717 66.9064 33.2227 66.7661C33.0766 66.6256 32.962 66.4608 32.8789 66.2716C32.7986 66.0825 32.7585 65.8762 32.7585 65.6526C32.7585 65.429 32.7986 65.2227 32.8789 65.0336C32.962 64.8443 33.078 64.6796 33.227 64.5391C33.3761 64.3987 33.5509 64.2898 33.7516 64.2123C33.9521 64.135 34.1699 64.0963 34.4049 64.0963C34.6428 64.0963 34.8607 64.135 35.0584 64.2123C35.2591 64.2898 35.4325 64.3987 35.5786 64.5391C35.7276 64.6796 35.8438 64.8443 35.9269 65.0336C36.01 65.2198 36.0515 65.4262 36.0515 65.6526C36.0515 65.8762 36.01 66.0839 35.9269 66.276C35.8438 66.4651 35.7276 66.63 35.5786 66.7703C35.4325 66.908 35.2591 67.0154 35.0584 67.0928C34.8607 67.1701 34.6443 67.2089 34.4093 67.2089ZM34.4049 66.6156C34.5396 66.6156 34.663 66.5927 34.7748 66.5468C34.8894 66.501 34.9896 66.435 35.0757 66.349C35.1616 66.2631 35.2276 66.1613 35.2734 66.0438C35.3221 65.9263 35.3465 65.7959 35.3465 65.6526C35.3465 65.5093 35.3221 65.3788 35.2734 65.2614C35.2276 65.1438 35.1616 65.0422 35.0757 64.9561C34.9924 64.8702 34.8936 64.8042 34.779 64.7584C34.6644 64.7125 34.5396 64.6896 34.4049 64.6896C34.2703 64.6896 34.1456 64.7125 34.031 64.7584C33.9192 64.8042 33.8203 64.8702 33.7343 64.9561C33.6483 65.0422 33.581 65.1438 33.5322 65.2614C33.4864 65.3788 33.4634 65.5093 33.4634 65.6526C33.4634 65.793 33.4864 65.9235 33.5322 66.0438C33.581 66.1613 33.6469 66.2631 33.7301 66.349C33.816 66.435 33.9162 66.501 34.031 66.5468C34.1456 66.5927 34.2703 66.6156 34.4049 66.6156ZM36.5749 67.1573V64.1479H37.151L38.9266 66.3147H38.6471V64.1479H39.3349V67.1573H38.7632L36.9834 64.9905H37.2628V67.1573H36.5749ZM41.0358 67.2089C40.7951 67.2089 40.5643 67.1773 40.3436 67.1143C40.1229 67.0483 39.9453 66.9638 39.8105 66.8606L40.0469 66.3362C40.1759 66.4279 40.3278 66.5038 40.5027 66.564C40.6803 66.6214 40.8595 66.6499 41.04 66.6499C41.1776 66.6499 41.2879 66.6371 41.3711 66.6113C41.4571 66.5826 41.5201 66.5439 41.5602 66.4952C41.6004 66.4464 41.6204 66.3906 41.6204 66.3276C41.6204 66.2473 41.5889 66.1842 41.5259 66.1383C41.4627 66.0897 41.3796 66.051 41.2766 66.0223C41.1733 65.9908 41.0587 65.9621 40.9326 65.9364C40.8093 65.9077 40.6847 65.8733 40.5585 65.8332C40.4353 65.793 40.3221 65.7415 40.2189 65.6783C40.1157 65.6153 40.0312 65.5322 39.9652 65.429C39.9022 65.3258 39.8707 65.194 39.8707 65.0336C39.8707 64.8616 39.9166 64.7054 40.0083 64.5649C40.1029 64.4216 40.2432 64.3084 40.4296 64.2253C40.6187 64.1393 40.8552 64.0963 41.1389 64.0963C41.328 64.0963 41.5143 64.1192 41.6979 64.1651C41.8812 64.2081 42.0431 64.2741 42.1836 64.3628L41.9687 64.8917C41.8282 64.8114 41.6877 64.7526 41.5474 64.7153C41.4069 64.6753 41.2694 64.6552 41.1347 64.6552C40.9999 64.6552 40.8896 64.6709 40.8036 64.7025C40.7176 64.734 40.656 64.7755 40.6187 64.8271C40.5814 64.8759 40.5629 64.9332 40.5629 64.9991C40.5629 65.0765 40.5944 65.1396 40.6574 65.1883C40.7205 65.2341 40.8036 65.2714 40.9067 65.3001C41.0099 65.3288 41.1231 65.3574 41.2465 65.386C41.3725 65.4147 41.4972 65.4477 41.6204 65.485C41.7465 65.5221 41.8611 65.5723 41.9644 65.6355C42.0676 65.6985 42.1507 65.7816 42.2137 65.8848C42.2796 65.9879 42.3125 66.1184 42.3125 66.276C42.3125 66.445 42.2653 66.5999 42.1706 66.7402C42.0761 66.8807 41.9343 66.9939 41.7451 67.0798C41.5588 67.1659 41.3224 67.2089 41.0358 67.2089ZM44.0059 67.1573V64.1479H45.3086C45.578 64.1479 45.8102 64.1924 46.0051 64.2812C46.2 64.3672 46.3504 64.4919 46.4565 64.6552C46.5625 64.8186 46.6155 65.0135 46.6155 65.2399C46.6155 65.4635 46.5625 65.6568 46.4565 65.8202C46.3504 65.9836 46.2 66.1098 46.0051 66.1985C45.8102 66.2846 45.578 66.3276 45.3086 66.3276H44.3929L44.7025 66.0137V67.1573H44.0059ZM44.7025 66.0911L44.3929 65.7601H45.2699C45.4849 65.7601 45.6454 65.7142 45.7514 65.6225C45.8574 65.5308 45.9104 65.4033 45.9104 65.2399C45.9104 65.0737 45.8574 64.9447 45.7514 64.853C45.6454 64.7612 45.4849 64.7153 45.2699 64.7153H44.3929L44.7025 64.3843V66.0911ZM47.982 67.1573L46.6836 64.1479H47.4359L48.5709 66.8133H48.1281L49.2802 64.1479H49.9724L48.6698 67.1573H47.982ZM50.8555 67.1573V64.7153H49.8925V64.1479H52.5149V64.7153H51.5519V67.1573H50.8555ZM52.9532 67.1916C52.8386 67.1916 52.7397 67.1529 52.6566 67.0756C52.5763 66.9953 52.5363 66.8936 52.5363 66.7703C52.5363 66.6471 52.5763 66.5483 52.6566 66.4737C52.7397 66.3964 52.8386 66.3577 52.9532 66.3577C53.0708 66.3577 53.1696 66.3964 53.2499 66.4737C53.3301 66.5483 53.3703 66.6471 53.3703 66.7703C53.3703 66.8936 53.3301 66.9953 53.2499 67.0756C53.1696 67.1529 53.0708 67.1916 52.9532 67.1916ZM55.0896 67.1573V64.1479H55.786V66.5897H57.295V67.1573H55.0896ZM58.0263 67.1573V64.7153H57.0633V64.1479H59.6856V64.7153H58.7226V67.1573H58.0263ZM60.0604 67.1573V64.1479H61.4276C61.7542 64.1479 62.0422 64.2109 62.2916 64.3371C62.541 64.4603 62.7358 64.6336 62.8763 64.8572C63.0168 65.0808 63.0869 65.3459 63.0869 65.6526C63.0869 65.9564 63.0168 66.2214 62.8763 66.448C62.7358 66.6714 62.541 66.8462 62.2916 66.9724C62.0422 67.0957 61.7542 67.1573 61.4276 67.1573H60.0604ZM60.7568 66.5855H61.3931C61.5938 66.5855 61.7672 66.5483 61.9133 66.4737C62.0623 66.3964 62.1769 66.2874 62.2572 66.147C62.3404 66.0066 62.3818 65.8418 62.3818 65.6526C62.3818 65.4605 62.3404 65.2957 62.2572 65.1582C62.1769 65.0177 62.0623 64.9103 61.9133 64.8357C61.7672 64.7584 61.5938 64.7197 61.3931 64.7197H60.7568V66.5855ZM63.7345 67.1916C63.6199 67.1916 63.521 67.1529 63.4379 67.0756C63.3576 66.9953 63.3176 66.8936 63.3176 66.7703C63.3176 66.6471 63.3576 66.5483 63.4379 66.4737C63.521 66.3964 63.6199 66.3577 63.7345 66.3577C63.8521 66.3577 63.9509 66.3964 64.0312 66.4737C64.1114 66.5483 64.1516 66.6471 64.1516 66.7703C64.1516 66.8936 64.1114 66.9953 64.0312 67.0756C63.9509 67.1529 63.8521 67.1916 63.7345 67.1916Z" fill="#0C0C0C"/>
</g>
</g>
<defs>
<linearGradient id="paint0_linear_1450_40" x1="48.9509" y1="16.2776" x2="41.588" y2="5.43586" gradientUnits="userSpaceOnUse">
<stop stop-color="#00C6DB"/>
<stop offset="1" stop-color="#72227F"/>
</linearGradient>
<linearGradient id="paint1_linear_1450_40" x1="47.7798" y1="14.6346" x2="42.5023" y2="6.7713" gradientUnits="userSpaceOnUse">
<stop offset="0.21" stop-color="#72227F" stop-opacity="0"/>
<stop offset="0.33" stop-color="#72227F" stop-opacity="0.09"/>
<stop offset="0.54" stop-color="#72227F" stop-opacity="0.33"/>
<stop offset="0.81" stop-color="#72227F" stop-opacity="0.71"/>
<stop offset="1" stop-color="#72227F"/>
</linearGradient>
<linearGradient id="paint2_linear_1450_40" x1="13.682" y1="1.83437" x2="24.5657" y2="8.54591" gradientUnits="userSpaceOnUse">
<stop stop-color="#00C6DB"/>
<stop offset="1" stop-color="#72227F"/>
</linearGradient>
<linearGradient id="paint3_linear_1450_40" x1="19.209" y1="4.12283" x2="24.1265" y2="8.32333" gradientUnits="userSpaceOnUse">
<stop offset="0.21" stop-color="#72227F" stop-opacity="0"/>
<stop offset="0.33" stop-color="#72227F" stop-opacity="0.09"/>
<stop offset="0.54" stop-color="#72227F" stop-opacity="0.33"/>
<stop offset="0.81" stop-color="#72227F" stop-opacity="0.71"/>
<stop offset="1" stop-color="#72227F"/>
</linearGradient>
<linearGradient id="paint4_linear_1450_40" x1="17.8127" y1="11.1511" x2="48.1946" y2="41.5329" gradientUnits="userSpaceOnUse">
<stop stop-color="#FFDC81"/>
<stop offset="1" stop-color="#FF4EA6"/>
</linearGradient>
<linearGradient id="paint5_linear_1450_40" x1="17.8127" y1="11.1511" x2="48.1946" y2="41.5329" gradientUnits="userSpaceOnUse">
<stop stop-color="#FFDC81"/>
<stop offset="1" stop-color="#FF4EA6"/>
</linearGradient>
<linearGradient id="paint6_linear_1450_40" x1="19.7575" y1="11.1526" x2="31.3477" y2="9.60052" gradientUnits="userSpaceOnUse">
<stop offset="0.21" stop-color="#72227F" stop-opacity="0"/>
<stop offset="0.33" stop-color="#72227F" stop-opacity="0.09"/>
<stop offset="0.54" stop-color="#72227F" stop-opacity="0.33"/>
<stop offset="0.81" stop-color="#72227F" stop-opacity="0.71"/>
<stop offset="1" stop-color="#72227F"/>
</linearGradient>
<linearGradient id="paint7_linear_1450_40" x1="35.0692" y1="5.51354" x2="41.6328" y2="34.6452" gradientUnits="userSpaceOnUse">
<stop stop-color="#00C6DB"/>
<stop offset="1" stop-color="#72227F"/>
</linearGradient>
<clipPath id="clip0_1450_40">
<rect width="72.8438" height="72" fill="white" transform="translate(0.578125)"/>
</clipPath>
</defs>
</svg>
