<svg width="518" height="512" viewBox="0 0 518 512" fill="none" xmlns="http://www.w3.org/2000/svg">
<g clip-path="url(#clip0_1445_24)">
<path d="M392.696 25.1964V80.3055H239.914C230.589 80.2955 221.31 81.619 212.359 84.2358V80.3055C212.362 65.6924 218.168 51.6784 228.5 41.3444C238.832 31.0103 252.845 25.2021 267.458 25.1964H392.696Z" fill="url(#paint0_linear_1445_24)"/>
<path style="mix-blend-mode:color-burn" opacity="0.5" d="M392.696 25.1964V80.3055H239.914C230.589 80.2955 221.31 81.619 212.359 84.2358V80.3055C212.362 65.6924 218.168 51.6784 228.5 41.3444C238.832 31.0103 252.845 25.2021 267.458 25.1964H392.696Z" fill="url(#paint1_linear_1445_24)"/>
<path d="M87.1367 25.1964V80.3055H239.929C249.251 80.2952 258.526 81.6187 267.473 84.2358V80.3055C267.471 65.6924 261.665 51.6784 251.333 41.3444C241.001 31.0103 226.988 25.2021 212.375 25.1964H87.1367Z" fill="url(#paint2_linear_1445_24)"/>
<path style="mix-blend-mode:color-burn" opacity="0.5" d="M87.1367 26.896V78.6059C87.1367 79.0567 87.3158 79.489 87.6345 79.8077C87.9532 80.1264 88.3855 80.3055 88.8363 80.3055H239.929C248.504 80.2992 257.043 81.417 265.328 83.6303C265.578 83.6949 265.84 83.7016 266.093 83.6498C266.346 83.598 266.585 83.4891 266.789 83.3313C266.994 83.1736 267.16 82.9712 267.275 82.7395C267.39 82.5078 267.451 82.253 267.452 81.9944C267.452 66.9436 261.478 52.508 250.843 41.8585C240.207 31.2089 225.779 25.2161 210.728 25.1964H88.8363C88.3855 25.1964 87.9532 25.3755 87.6345 25.6942C87.3158 26.013 87.1367 26.4453 87.1367 26.896Z" fill="url(#paint3_linear_1445_24)"/>
<path d="M239.922 275.683C214.48 274.981 190.315 264.381 172.568 246.138C154.821 227.894 144.891 203.446 144.891 177.994C144.891 152.543 154.821 128.095 172.568 109.851C190.315 91.6075 214.48 81.0074 239.922 80.3054H265.851V25.2176H239.922C212.4 25.2171 185.389 32.6507 161.743 46.733C138.097 60.8153 118.694 81.0233 105.584 105.222C92.4744 129.42 86.1443 156.711 87.263 184.21C88.3817 211.709 96.9075 238.395 111.94 261.449C126.972 284.502 147.952 303.068 172.664 315.183C197.376 327.298 224.901 332.513 252.332 330.277C279.762 328.041 306.08 318.437 328.503 302.479C350.926 286.522 368.623 264.804 379.723 239.62H315.713C306.562 250.896 295.009 259.985 281.896 266.225C268.784 272.464 254.443 275.695 239.922 275.683Z" fill="url(#paint4_linear_1445_24)"/>
<path d="M239.922 275.683C214.48 274.981 190.315 264.381 172.568 246.138C154.821 227.894 144.891 203.446 144.891 177.994C144.891 152.543 154.821 128.095 172.568 109.851C190.315 91.6075 214.48 81.0074 239.922 80.3054H265.851V25.2176H239.922C212.4 25.2171 185.389 32.6507 161.743 46.733C138.097 60.8153 118.694 81.0233 105.584 105.222C92.4744 129.42 86.1443 156.711 87.263 184.21C88.3817 211.709 96.9075 238.395 111.94 261.449C126.972 284.502 147.952 303.068 172.664 315.183C197.376 327.298 224.901 332.513 252.332 330.277C279.762 328.041 306.08 318.437 328.503 302.479C350.926 286.522 368.623 264.804 379.723 239.62H315.713C306.562 250.896 295.009 259.985 281.896 266.225C268.784 272.464 254.443 275.695 239.922 275.683Z" fill="url(#paint5_linear_1445_24)"/>
<path style="mix-blend-mode:color-burn" opacity="0.5" d="M160.178 112.821C161.24 114.318 162.303 115.795 163.418 117.293C172.548 105.755 184.171 96.4338 197.417 90.0282C210.662 83.6225 225.186 80.2985 239.899 80.3055H265.828V25.2177H239.92C219.496 25.1953 199.275 29.2822 180.463 37.235C161.65 45.1879 144.629 56.8442 130.414 71.5102C140.622 85.0962 150.31 99.0116 160.178 112.821Z" fill="url(#paint6_linear_1445_24)"/>
<path d="M322.556 25.1964H267.458C252.845 25.2021 238.832 31.0103 228.5 41.3444C218.168 51.6784 212.362 65.6924 212.359 80.3055V250.264C230.352 255.526 249.476 255.526 267.468 250.264V80.3055C267.471 65.6942 273.275 51.6818 283.605 41.3481C293.935 31.0144 307.945 25.2049 322.556 25.1964Z" fill="url(#paint7_linear_1445_24)"/>
<path d="M18.8567 425.82V390.395H4.88619V382.163H42.9309V390.395H28.9604V425.82H18.8567ZM48.3672 425.82V382.163H67.2648C71.1733 382.163 74.5412 382.807 77.3685 384.096C80.1959 385.343 82.3788 387.152 83.9172 389.522C85.4556 391.892 86.2248 394.719 86.2248 398.004C86.2248 401.247 85.4556 404.054 83.9172 406.424C82.3788 408.752 80.1959 410.54 77.3685 411.788C74.5412 413.035 71.1733 413.659 67.2648 413.659H53.9804L58.4709 409.23V425.82H48.3672ZM76.1212 425.82L65.2067 409.979H75.9964L87.0356 425.82H76.1212ZM58.4709 410.353L53.9804 405.613H66.7035C69.8219 405.613 72.1504 404.948 73.6888 403.617C75.2272 402.245 75.9964 400.374 75.9964 398.004C75.9964 395.593 75.2272 393.722 73.6888 392.391C72.1504 391.06 69.8219 390.395 66.7035 390.395H53.9804L58.4709 385.593V410.353ZM88.492 425.82L107.951 382.163H117.93L137.451 425.82H126.849L110.882 387.277H114.874L98.8452 425.82H88.492ZM98.2215 416.465L100.903 408.794H123.356L126.1 416.465H98.2215ZM141.981 425.82V382.163H150.338L176.096 413.596H172.042V382.163H182.021V425.82H173.726L147.906 394.387H151.96V425.82H141.981ZM206.695 426.569C203.203 426.569 199.856 426.112 196.654 425.197C193.452 424.24 190.874 423.014 188.92 421.517L192.351 413.908C194.222 415.239 196.425 416.34 198.962 417.214C201.539 418.045 204.138 418.461 206.758 418.461C208.753 418.461 210.354 418.274 211.56 417.9C212.807 417.484 213.722 416.923 214.304 416.216C214.886 415.509 215.177 414.698 215.177 413.783C215.177 412.619 214.72 411.704 213.805 411.039C212.891 410.332 211.685 409.771 210.188 409.355C208.691 408.898 207.028 408.482 205.198 408.108C203.411 407.692 201.602 407.193 199.772 406.611C197.984 406.029 196.342 405.28 194.845 404.366C193.348 403.451 192.122 402.245 191.166 400.748C190.251 399.252 189.793 397.339 189.793 395.01C189.793 392.516 190.459 390.25 191.789 388.212C193.161 386.133 195.199 384.491 197.901 383.285C200.646 382.038 204.076 381.414 208.192 381.414C210.936 381.414 213.639 381.747 216.3 382.412C218.961 383.036 221.31 383.992 223.348 385.281L220.229 392.952C218.192 391.788 216.154 390.936 214.117 390.395C212.08 389.813 210.084 389.522 208.13 389.522C206.176 389.522 204.575 389.751 203.327 390.208C202.08 390.665 201.186 391.268 200.646 392.017C200.105 392.724 199.835 393.555 199.835 394.512C199.835 395.634 200.292 396.549 201.207 397.256C202.122 397.921 203.327 398.462 204.824 398.877C206.321 399.293 207.963 399.709 209.751 400.125C211.581 400.54 213.389 401.019 215.177 401.559C217.007 402.1 218.67 402.827 220.167 403.742C221.664 404.657 222.869 405.863 223.784 407.359C224.741 408.856 225.219 410.748 225.219 413.035C225.219 415.488 224.533 417.733 223.161 419.771C221.788 421.808 219.73 423.45 216.986 424.698C214.283 425.945 210.853 426.569 206.695 426.569ZM254.426 426.609C250.876 426.609 247.567 426.04 244.499 424.9C241.475 423.717 238.845 422.051 236.61 419.904C234.375 417.756 232.622 415.236 231.351 412.343C230.124 409.451 229.51 406.273 229.51 402.811C229.51 399.348 230.124 396.171 231.351 393.278C232.622 390.385 234.375 387.865 236.61 385.718C238.889 383.57 241.541 381.927 244.565 380.787C247.589 379.604 250.898 379.012 254.492 379.012C258.48 379.012 262.074 379.713 265.274 381.116C268.517 382.475 271.234 384.491 273.426 387.164L266.588 393.475C265.011 391.678 263.258 390.342 261.329 389.465C259.401 388.545 257.297 388.085 255.018 388.085C252.87 388.085 250.898 388.435 249.101 389.136C247.304 389.838 245.748 390.846 244.433 392.161C243.119 393.475 242.089 395.031 241.344 396.828C240.642 398.625 240.292 400.619 240.292 402.811C240.292 405.002 240.642 406.996 241.344 408.793C242.089 410.59 243.119 412.146 244.433 413.461C245.748 414.776 247.304 415.784 249.101 416.485C250.898 417.186 252.87 417.537 255.018 417.537C257.297 417.537 259.401 417.099 261.329 416.222C263.258 415.302 265.011 413.921 266.588 412.08L273.426 418.392C271.234 421.065 268.517 423.103 265.274 424.506C262.074 425.908 258.458 426.609 254.426 426.609ZM302.007 426.609C298.369 426.609 294.995 426.018 291.883 424.834C288.815 423.651 286.141 421.986 283.862 419.838C281.627 417.69 279.874 415.17 278.603 412.278C277.376 409.385 276.762 406.229 276.762 402.811C276.762 399.392 277.376 396.237 278.603 393.344C279.874 390.451 281.649 387.931 283.928 385.784C286.207 383.636 288.881 381.971 291.948 380.787C295.016 379.604 298.347 379.012 301.941 379.012C305.579 379.012 308.91 379.604 311.934 380.787C315.002 381.971 317.654 383.636 319.889 385.784C322.168 387.931 323.943 390.451 325.214 393.344C326.485 396.193 327.12 399.348 327.12 402.811C327.12 406.229 326.485 409.407 325.214 412.343C323.943 415.236 322.168 417.756 319.889 419.904C317.654 422.007 315.002 423.651 311.934 424.834C308.91 426.018 305.601 426.609 302.007 426.609ZM301.941 417.537C304.001 417.537 305.886 417.186 307.595 416.485C309.348 415.784 310.882 414.776 312.197 413.461C313.512 412.146 314.52 410.59 315.221 408.793C315.966 406.996 316.339 405.002 316.339 402.811C316.339 400.619 315.966 398.625 315.221 396.828C314.52 395.031 313.512 393.475 312.197 392.161C310.926 390.846 309.414 389.838 307.661 389.136C305.908 388.435 304.001 388.085 301.941 388.085C299.881 388.085 297.975 388.435 296.222 389.136C294.512 389.838 293 390.846 291.686 392.161C290.371 393.475 289.341 395.031 288.596 396.828C287.894 398.625 287.544 400.619 287.544 402.811C287.544 404.958 287.894 406.952 288.596 408.793C289.341 410.59 290.349 412.146 291.62 413.461C292.935 414.776 294.469 415.784 296.222 416.485C297.975 417.186 299.881 417.537 301.941 417.537ZM335.125 425.82V379.801H356.031C361.027 379.801 365.432 380.765 369.245 382.694C373.058 384.578 376.038 387.23 378.186 390.648C380.333 394.067 381.407 398.121 381.407 402.811C381.407 407.457 380.333 411.511 378.186 414.973C376.038 418.392 373.058 421.065 369.245 422.994C365.432 424.878 361.027 425.82 356.031 425.82H335.125ZM345.775 417.077H355.505C358.573 417.077 361.224 416.507 363.459 415.367C365.739 414.184 367.492 412.519 368.719 410.371C369.99 408.224 370.625 405.703 370.625 402.811C370.625 399.874 369.99 397.354 368.719 395.25C367.492 393.103 365.739 391.459 363.459 390.32C361.224 389.136 358.573 388.545 355.505 388.545H345.775V417.077ZM399.234 398.34H421.39V406.624H399.234V398.34ZM400.023 417.274H425.071V425.82H389.439V379.801H424.216V388.347H400.023V417.274ZM430.587 425.82V418.918L459.053 384.6L460.368 388.479H431.113V379.801H469.835V386.704L441.434 421.021L440.119 417.143H470.821V425.82H430.587ZM489.091 425.82V407.018L491.523 413.461L471.274 379.801H482.582L498.097 405.638H491.589L507.17 379.801H517.623L497.374 413.461L499.741 407.018V425.82H489.091Z" fill="#0C0C0C"/>
<path d="M80.5713 477.563V457.261H85.2697V477.563H80.5713ZM94.2931 477.563V461.089H87.7965V457.261H105.488V461.089H98.9915V477.563H94.2931ZM122.9 477.911C121.276 477.911 119.72 477.698 118.231 477.273C116.742 476.828 115.543 476.258 114.634 475.562L116.23 472.023C117.1 472.642 118.124 473.154 119.304 473.56C120.503 473.947 121.711 474.14 122.929 474.14C123.857 474.14 124.602 474.053 125.162 473.879C125.742 473.686 126.168 473.425 126.438 473.096C126.709 472.768 126.844 472.391 126.844 471.965C126.844 471.424 126.632 470.999 126.206 470.689C125.781 470.36 125.22 470.099 124.524 469.906C123.828 469.693 123.055 469.5 122.204 469.326C121.373 469.133 120.532 468.901 119.681 468.63C118.849 468.359 118.086 468.011 117.39 467.586C116.694 467.161 116.123 466.6 115.679 465.904C115.253 465.208 115.04 464.318 115.04 463.236C115.04 462.075 115.35 461.022 115.969 460.074C116.607 459.108 117.554 458.344 118.811 457.783C120.087 457.203 121.682 456.913 123.596 456.913C124.872 456.913 126.129 457.068 127.367 457.377C128.604 457.667 129.696 458.112 130.644 458.711L129.194 462.278C128.246 461.737 127.299 461.341 126.351 461.089C125.404 460.819 124.476 460.683 123.567 460.683C122.658 460.683 121.914 460.79 121.334 461.002C120.754 461.215 120.338 461.495 120.087 461.843C119.836 462.172 119.71 462.559 119.71 463.004C119.71 463.526 119.923 463.951 120.348 464.28C120.773 464.589 121.334 464.84 122.03 465.034C122.726 465.227 123.49 465.42 124.321 465.614C125.172 465.807 126.013 466.029 126.844 466.281C127.695 466.532 128.469 466.871 129.165 467.296C129.861 467.721 130.421 468.282 130.847 468.978C131.292 469.674 131.514 470.554 131.514 471.617C131.514 472.758 131.195 473.802 130.557 474.75C129.919 475.697 128.962 476.461 127.686 477.041C126.429 477.621 124.834 477.911 122.9 477.911ZM144.585 477.911C142.98 477.911 141.492 477.65 140.119 477.128C138.765 476.606 137.586 475.871 136.58 474.924C135.594 473.976 134.821 472.864 134.26 471.588C133.719 470.312 133.448 468.92 133.448 467.412C133.448 465.904 133.719 464.512 134.26 463.236C134.821 461.959 135.604 460.848 136.609 459.9C137.615 458.953 138.794 458.218 140.148 457.696C141.501 457.174 142.971 456.913 144.556 456.913C146.161 456.913 147.63 457.174 148.965 457.696C150.318 458.218 151.488 458.953 152.474 459.9C153.479 460.848 154.262 461.959 154.823 463.236C155.384 464.492 155.664 465.884 155.664 467.412C155.664 468.92 155.384 470.322 154.823 471.617C154.262 472.893 153.479 474.005 152.474 474.953C151.488 475.881 150.318 476.606 148.965 477.128C147.63 477.65 146.171 477.911 144.585 477.911ZM144.556 473.908C145.465 473.908 146.296 473.754 147.05 473.444C147.824 473.135 148.5 472.69 149.081 472.11C149.661 471.53 150.105 470.844 150.415 470.051C150.743 469.258 150.908 468.379 150.908 467.412C150.908 466.445 150.743 465.565 150.415 464.773C150.105 463.98 149.661 463.294 149.081 462.714C148.52 462.133 147.853 461.689 147.079 461.379C146.306 461.07 145.465 460.915 144.556 460.915C143.647 460.915 142.806 461.07 142.033 461.379C141.279 461.689 140.612 462.133 140.032 462.714C139.452 463.294 138.997 463.98 138.669 464.773C138.359 465.565 138.205 466.445 138.205 467.412C138.205 468.359 138.359 469.239 138.669 470.051C138.997 470.844 139.442 471.53 140.003 472.11C140.583 472.69 141.26 473.135 142.033 473.444C142.806 473.754 143.647 473.908 144.556 473.908ZM159.325 477.563V456.163H164.278V473.527H175.008V477.563H159.325ZM187.015 477.93C183.978 477.93 181.603 477.084 179.891 475.392C178.179 473.701 177.323 471.285 177.323 468.147V456.163H182.276V467.963C182.276 470.001 182.694 471.469 183.529 472.366C184.365 473.262 185.537 473.711 187.045 473.711C188.553 473.711 189.725 473.262 190.561 472.366C191.396 471.469 191.814 470.001 191.814 467.963V456.163H196.706V468.147C196.706 471.285 195.85 473.701 194.138 475.392C192.426 477.084 190.051 477.93 187.015 477.93ZM205.674 477.563V460.198H198.826V456.163H217.475V460.198H210.627V477.563H205.674ZM220.14 477.563V456.163H225.092V477.563H220.14ZM240.565 477.93C238.873 477.93 237.304 477.654 235.857 477.104C234.43 476.554 233.187 475.779 232.127 474.781C231.088 473.782 230.273 472.61 229.682 471.265C229.111 469.92 228.826 468.453 228.826 466.863C228.826 465.273 229.111 463.806 229.682 462.461C230.273 461.115 231.098 459.944 232.158 458.945C233.218 457.946 234.461 457.172 235.888 456.621C237.314 456.071 238.863 455.796 240.534 455.796C242.226 455.796 243.775 456.071 245.181 456.621C246.608 457.172 247.841 457.946 248.88 458.945C249.94 459.944 250.766 461.115 251.357 462.461C251.948 463.785 252.243 465.253 252.243 466.863C252.243 468.453 251.948 469.93 251.357 471.296C250.766 472.641 249.94 473.813 248.88 474.811C247.841 475.79 246.608 476.554 245.181 477.104C243.775 477.654 242.236 477.93 240.565 477.93ZM240.534 473.711C241.492 473.711 242.369 473.548 243.164 473.222C243.979 472.896 244.692 472.427 245.304 471.815C245.915 471.204 246.384 470.48 246.71 469.645C247.056 468.809 247.23 467.882 247.23 466.863C247.23 465.844 247.056 464.916 246.71 464.081C246.384 463.245 245.915 462.522 245.304 461.91C244.712 461.299 244.009 460.83 243.194 460.504C242.379 460.178 241.492 460.015 240.534 460.015C239.577 460.015 238.69 460.178 237.875 460.504C237.08 460.83 236.377 461.299 235.765 461.91C235.154 462.522 234.675 463.245 234.328 464.081C234.002 464.916 233.839 465.844 233.839 466.863C233.839 467.861 234.002 468.789 234.328 469.645C234.675 470.48 235.144 471.204 235.735 471.815C236.346 472.427 237.059 472.896 237.875 473.222C238.69 473.548 239.577 473.711 240.534 473.711ZM255.965 477.563V456.163H260.062L272.688 471.571H270.701V456.163H275.592V477.563H271.526L258.87 462.155H260.857V477.563H255.965ZM287.687 477.93C285.975 477.93 284.334 477.705 282.765 477.257C281.195 476.788 279.932 476.187 278.974 475.453L280.655 471.724C281.572 472.376 282.652 472.916 283.896 473.344C285.159 473.752 286.433 473.955 287.717 473.955C288.695 473.955 289.48 473.864 290.071 473.68C290.683 473.476 291.131 473.201 291.416 472.855C291.702 472.508 291.844 472.111 291.844 471.663C291.844 471.092 291.62 470.643 291.172 470.317C290.723 469.971 290.132 469.696 289.399 469.492C288.665 469.268 287.85 469.064 286.953 468.881C286.076 468.677 285.19 468.432 284.293 468.147C283.417 467.861 282.612 467.495 281.878 467.046C281.144 466.598 280.543 466.007 280.074 465.273C279.626 464.539 279.402 463.602 279.402 462.461C279.402 461.238 279.728 460.127 280.38 459.128C281.053 458.109 282.051 457.304 283.376 456.713C284.721 456.102 286.403 455.796 288.42 455.796C289.765 455.796 291.09 455.959 292.395 456.285C293.699 456.591 294.85 457.06 295.849 457.691L294.321 461.452C293.322 460.881 292.323 460.463 291.325 460.198C290.326 459.913 289.348 459.77 288.39 459.77C287.432 459.77 286.647 459.882 286.036 460.107C285.424 460.331 284.986 460.626 284.721 460.993C284.456 461.34 284.324 461.747 284.324 462.216C284.324 462.766 284.548 463.215 284.996 463.561C285.445 463.887 286.036 464.152 286.769 464.356C287.503 464.56 288.308 464.764 289.185 464.967C290.081 465.171 290.968 465.406 291.844 465.671C292.741 465.935 293.556 466.292 294.29 466.741C295.024 467.189 295.615 467.78 296.063 468.514C296.532 469.247 296.766 470.175 296.766 471.296C296.766 472.498 296.43 473.599 295.757 474.597C295.085 475.596 294.076 476.401 292.731 477.012C291.406 477.624 289.725 477.93 287.687 477.93ZM308.808 477.563V456.163H318.071C319.987 456.163 321.638 456.479 323.024 457.111C324.41 457.722 325.48 458.609 326.234 459.77C326.988 460.932 327.365 462.318 327.365 463.928C327.365 465.518 326.988 466.893 326.234 468.055C325.48 469.217 324.41 470.114 323.024 470.745C321.638 471.357 319.987 471.663 318.071 471.663H311.56L313.761 469.431V477.563H308.808ZM313.761 469.981L311.56 467.627H317.796C319.325 467.627 320.466 467.301 321.22 466.649C321.974 465.997 322.351 465.09 322.351 463.928C322.351 462.746 321.974 461.829 321.22 461.177C320.466 460.524 319.325 460.198 317.796 460.198H311.56L313.761 457.844V469.981ZM337.082 477.563L327.849 456.163H333.199L341.27 475.117H338.121L346.314 456.163H351.236L341.973 477.563H337.082ZM357.516 477.563V460.198H350.668V456.163H369.316V460.198H362.468V477.563H357.516ZM372.433 477.807C371.618 477.807 370.915 477.532 370.324 476.982C369.753 476.411 369.468 475.688 369.468 474.811C369.468 473.935 369.753 473.232 370.324 472.702C370.915 472.152 371.618 471.877 372.433 471.877C373.269 471.877 373.972 472.152 374.543 472.702C375.113 473.232 375.399 473.935 375.399 474.811C375.399 475.688 375.113 476.411 374.543 476.982C373.972 477.532 373.269 477.807 372.433 477.807ZM387.625 477.563V456.163H392.577V473.527H403.308V477.563H387.625ZM408.508 477.563V460.198H401.66V456.163H420.308V460.198H413.46V477.563H408.508ZM422.973 477.563V456.163H432.695C435.018 456.163 437.066 456.611 438.839 457.508C440.613 458.384 441.998 459.617 442.997 461.207C443.996 462.797 444.495 464.682 444.495 466.863C444.495 469.023 443.996 470.908 442.997 472.519C441.998 474.108 440.613 475.351 438.839 476.248C437.066 477.125 435.018 477.563 432.695 477.563H422.973ZM427.925 473.497H432.45C433.877 473.497 435.11 473.232 436.149 472.702C437.209 472.152 438.024 471.377 438.595 470.379C439.186 469.38 439.481 468.208 439.481 466.863C439.481 465.497 439.186 464.325 438.595 463.347C438.024 462.348 437.209 461.584 436.149 461.054C435.11 460.504 433.877 460.229 432.45 460.229H427.925V473.497ZM449.1 477.807C448.285 477.807 447.582 477.532 446.991 476.982C446.42 476.411 446.135 475.688 446.135 474.811C446.135 473.935 446.42 473.232 446.991 472.702C447.582 472.152 448.285 471.877 449.1 471.877C449.936 471.877 450.639 472.152 451.21 472.702C451.78 473.232 452.066 473.935 452.066 474.811C452.066 475.688 451.78 476.411 451.21 476.982C450.639 477.532 449.936 477.807 449.1 477.807Z" fill="#0C0C0C"/>
</g>
<defs>
<linearGradient id="paint0_linear_1445_24" x1="343.982" y1="115.752" x2="291.624" y2="38.655" gradientUnits="userSpaceOnUse">
<stop stop-color="#00C6DB"/>
<stop offset="1" stop-color="#72227F"/>
</linearGradient>
<linearGradient id="paint1_linear_1445_24" x1="335.654" y1="104.068" x2="298.125" y2="48.1515" gradientUnits="userSpaceOnUse">
<stop offset="0.21" stop-color="#72227F" stop-opacity="0"/>
<stop offset="0.33" stop-color="#72227F" stop-opacity="0.09"/>
<stop offset="0.54" stop-color="#72227F" stop-opacity="0.33"/>
<stop offset="0.81" stop-color="#72227F" stop-opacity="0.71"/>
<stop offset="1" stop-color="#72227F"/>
</linearGradient>
<linearGradient id="paint2_linear_1445_24" x1="93.1809" y1="13.0444" x2="170.576" y2="60.7709" gradientUnits="userSpaceOnUse">
<stop stop-color="#00C6DB"/>
<stop offset="1" stop-color="#72227F"/>
</linearGradient>
<linearGradient id="paint3_linear_1445_24" x1="132.484" y1="29.3179" x2="167.453" y2="59.1881" gradientUnits="userSpaceOnUse">
<stop offset="0.21" stop-color="#72227F" stop-opacity="0"/>
<stop offset="0.33" stop-color="#72227F" stop-opacity="0.09"/>
<stop offset="0.54" stop-color="#72227F" stop-opacity="0.33"/>
<stop offset="0.81" stop-color="#72227F" stop-opacity="0.71"/>
<stop offset="1" stop-color="#72227F"/>
</linearGradient>
<linearGradient id="paint4_linear_1445_24" x1="122.555" y1="79.2963" x2="338.604" y2="295.345" gradientUnits="userSpaceOnUse">
<stop stop-color="#FFDC81"/>
<stop offset="1" stop-color="#FF4EA6"/>
</linearGradient>
<linearGradient id="paint5_linear_1445_24" x1="122.555" y1="79.2963" x2="338.604" y2="295.345" gradientUnits="userSpaceOnUse">
<stop stop-color="#FFDC81"/>
<stop offset="1" stop-color="#FF4EA6"/>
</linearGradient>
<linearGradient id="paint6_linear_1445_24" x1="136.384" y1="79.307" x2="218.803" y2="68.2703" gradientUnits="userSpaceOnUse">
<stop offset="0.21" stop-color="#72227F" stop-opacity="0"/>
<stop offset="0.33" stop-color="#72227F" stop-opacity="0.09"/>
<stop offset="0.54" stop-color="#72227F" stop-opacity="0.33"/>
<stop offset="0.81" stop-color="#72227F" stop-opacity="0.71"/>
<stop offset="1" stop-color="#72227F"/>
</linearGradient>
<linearGradient id="paint7_linear_1445_24" x1="245.268" y1="39.2074" x2="291.942" y2="246.366" gradientUnits="userSpaceOnUse">
<stop stop-color="#00C6DB"/>
<stop offset="1" stop-color="#72227F"/>
</linearGradient>
<clipPath id="clip0_1445_24">
<rect width="517.311" height="512" fill="white"/>
</clipPath>
</defs>
</svg>
