<svg width="234" height="41" viewBox="0 0 234 41" fill="none" xmlns="http://www.w3.org/2000/svg">
<path fill-rule="evenodd" clip-rule="evenodd" d="M8.92402 6.45166L15.0336 12.7742C15.0751 12.8172 15.1167 12.8603 15.179 12.9033L20.4989 18.4087L11.8333 27.3119L15.8024 31.4194L13.1425 34.1506L7.07454 27.8925C7.0122 27.828 6.92908 27.742 6.86673 27.6775L1.54688 22.1721L10.1709 13.2904L6.24331 9.22585L8.92402 6.45166ZM12.7892 16.3441C12.7061 16.3226 12.623 16.3226 12.5606 16.3441C12.4775 16.3656 12.4152 16.4086 12.2697 16.5377L7.34469 21.6129C7.19923 21.7635 7.15766 21.828 7.13688 21.914C7.1161 22 7.1161 22.0861 7.13688 22.1506C7.15766 22.2366 7.19923 22.3011 7.34469 22.4517L8.90324 24.0646C9.04871 24.2151 9.11105 24.2581 9.19417 24.2796C9.2773 24.3011 9.36042 24.3011 9.42276 24.2796C9.50588 24.2581 9.56822 24.2151 9.71369 24.0861L14.6387 19.0108C14.7842 18.8603 14.8257 18.7957 14.8465 18.7097C14.8673 18.6237 14.8673 18.5377 14.8465 18.4732C14.8257 18.3871 14.7842 18.3226 14.6595 18.1721L13.1009 16.5592C12.9347 16.4086 12.8724 16.3656 12.7892 16.3441Z" fill="#3152A0"/>
<path fill-rule="evenodd" clip-rule="evenodd" d="M62.5385 12.968C64.6373 12.968 66.4245 13.8067 67.8583 15.4411C69.2922 17.011 70.0403 19.183 70.0195 21.8712C70.0195 24.5163 69.2714 26.7959 67.796 28.4303C66.3413 30.0432 64.4711 30.8604 62.2475 30.8604C60.3357 30.8604 58.5901 30.1508 57.4472 28.9249L57.281 28.7529L57.2602 35.6991H53.4781V35.3981L53.5196 13.183H57.281V15.8927C58.5278 14.4303 60.5227 12.968 62.5385 12.968ZM86.8311 13.0325C88.9923 13.0325 90.4885 13.5271 91.6314 14.5163C92.7328 15.4626 93.3147 17.14 93.377 18.9249V19.183L93.3563 30.6454H89.5118V30.1723C89.5118 29.6776 89.5118 29.183 89.5118 28.6669C88.4104 30.2583 86.8519 31.0325 84.7946 31.0325C83.1529 31.0325 81.7606 30.5163 80.7424 29.5701C79.7241 28.6024 79.163 27.269 79.1838 25.7206C79.2046 22.8174 81.1788 20.7959 84.6699 20.1723L84.9401 20.1292L89.5534 19.3766V18.9895C89.5534 18.1938 89.3248 17.2045 88.8676 16.8174C88.3897 16.4088 87.8286 16.0647 86.8519 16.0647C84.1504 16.0647 83.5893 18.1292 83.5685 19.183V19.269L80.1605 19.312C80.1605 17.7852 80.8463 15.8067 82.2386 14.5594C83.34 13.5701 84.9608 13.097 86.5402 13.054H86.8311V13.0325ZM71.9521 8.53785H75.7342V13.226H79.2462V16.4948H75.7342L75.7134 25.2905C75.7134 26.2583 75.9212 26.8819 76.3161 27.183C76.7317 27.5056 77.6045 27.2045 77.6045 27.2045L77.937 30.6239C77.937 30.6239 76.7525 30.9465 75.9836 30.9465C74.9861 30.9465 74.1549 30.6884 73.5107 30.1723C72.4716 29.3551 71.9313 27.9142 71.9313 25.8927L71.9521 16.5163L68.7935 13.2475H71.9729L71.9521 8.53785ZM49.6336 15.5271C50.7142 16.6884 52.0234 18.7529 52.0027 21.9572C52.0027 25.1615 50.6935 27.2045 49.6129 28.3658C48.1167 29.9357 46.1009 30.8604 44.0644 30.8604C43.9813 30.8604 43.8982 30.8604 43.8151 30.8604C41.6331 30.8604 39.7213 30.0432 38.1004 28.4733C36.4795 26.8819 35.669 24.6884 35.669 21.9357C35.669 19.183 36.5002 16.9895 38.1211 15.3981C39.7213 13.8282 41.6539 13.0325 43.8358 13.0325C45.997 12.968 48.0959 13.8712 49.6336 15.5271ZM40.885 8.30129V12.1723H33.5702L33.591 30.6454H29.6426V30.2798L29.6634 12.1508H22.2031V8.27979L40.885 8.30129ZM95.2057 8.55936H98.6138V8.64538L98.5722 30.6239H95.185V30.5163L95.2057 8.55936ZM89.5326 22.5163L85.7505 23.183C83.901 23.5056 83.049 24.2583 83.0282 25.5486C83.0282 26.7314 83.8387 27.5271 85.1063 27.5916H85.2726H85.2933C87.7039 27.5916 89.4287 25.6346 89.5326 22.7959V22.5594V22.5163ZM43.8151 16.5163C42.5474 16.5163 41.4461 17.011 40.5525 18.0217C39.6797 19.011 39.2225 20.3228 39.2225 21.9357C39.2225 23.5486 39.6797 24.8819 40.5317 25.8497C41.4253 26.8604 42.5267 27.3551 43.7943 27.3766C45.0827 27.3766 46.2048 26.8819 47.0776 25.8712C47.9712 24.8604 48.4284 23.5486 48.4284 21.9572C48.4284 20.3443 47.9712 19.0325 47.0776 18.0432C46.2256 17.0325 45.1035 16.5163 43.8151 16.5163ZM61.6241 16.6239C60.3357 16.6239 59.2759 17.097 58.3823 18.1077C57.4888 19.0755 57.0524 20.3228 57.0316 21.8497C57.0316 23.3766 57.468 24.7529 58.3615 25.7637C59.2759 26.7314 60.3357 27.226 61.5826 27.226C62.871 27.226 63.9516 26.7314 64.8036 25.7852C65.7179 24.7959 66.1335 23.4196 66.1543 21.8927C66.1543 20.3658 65.6971 19.1185 64.8243 18.1508C64.0139 17.14 62.9125 16.6239 61.6241 16.6239Z" fill="black"/>
<path d="M165.089 18.2356C165.494 17.8445 165.779 17.3475 165.914 16.8015C166.049 16.2555 166.027 15.6825 165.851 15.1483C165.68 14.6125 165.36 14.136 164.93 13.7733C164.5 13.4107 163.976 13.1766 163.419 13.0979L153.25 11.6202C153.036 11.5893 152.834 11.5068 152.66 11.3801C152.485 11.2534 152.344 11.0861 152.249 10.8928L147.702 1.67868C147.455 1.17337 147.071 0.747899 146.593 0.451008C146.115 0.154118 145.564 -0.00217957 145.001 2.2961e-05C144.439 -0.00202134 143.887 0.154351 143.41 0.451232C142.932 0.748113 142.548 1.1735 142.301 1.67868L137.753 10.8936C137.56 11.2864 137.185 11.558 136.752 11.6211L126.582 13.0987C126.025 13.1774 125.501 13.4115 125.071 13.7742C124.641 14.1368 124.322 14.6134 124.15 15.1491C123.974 15.6834 123.952 16.2563 124.087 16.8023C124.222 17.3483 124.508 17.8454 124.912 18.2365L132.27 25.4086C132.584 25.7147 132.727 26.1554 132.653 26.586L130.918 36.7134C130.839 37.1438 130.857 37.5862 130.971 38.0086C131.084 38.431 131.291 38.8229 131.574 39.1557C132.471 40.2213 134.036 40.5459 135.287 39.8883L144.382 35.1063C144.574 35.0084 144.786 34.9574 145.001 34.9574C145.216 34.9574 145.428 35.0084 145.62 35.1063L154.716 39.8883C155.147 40.1183 155.628 40.2387 156.117 40.239C157.006 40.239 157.848 39.8437 158.428 39.1557C158.712 38.8229 158.918 38.431 159.032 38.0086C159.145 37.5862 159.163 37.1438 159.085 36.7134L157.348 26.586C157.312 26.3734 157.328 26.1551 157.394 25.95C157.461 25.7449 157.577 25.5591 157.731 25.4086L165.089 18.2356Z" fill="url(#paint0_linear_3799_1913)"/>
<path d="M192.616 14.4892C192.69 12.5138 193.336 10.9908 194.554 9.92C195.773 8.84923 197.425 8.31384 199.511 8.31384C200.896 8.31384 202.077 8.55384 203.056 9.03385C204.053 9.51384 204.8 10.1692 205.299 11C205.816 11.8308 206.074 12.7631 206.074 13.7969C206.074 15.0154 205.77 16.0123 205.16 16.7877C204.551 17.5446 203.84 18.0615 203.028 18.3385V18.4492C204.08 18.8 204.911 19.3815 205.52 20.1938C206.13 21.0062 206.434 22.0492 206.434 23.3231C206.434 24.4677 206.167 25.4831 205.631 26.3692C205.114 27.2369 204.348 27.92 203.333 28.4185C202.336 28.9169 201.145 29.1662 199.76 29.1662C197.545 29.1662 195.773 28.6215 194.443 27.5323C193.133 26.4431 192.44 24.8 192.367 22.6031H196.963C196.982 23.4154 197.213 24.0615 197.656 24.5415C198.099 25.0031 198.745 25.2338 199.594 25.2338C200.314 25.2338 200.868 25.0308 201.256 24.6246C201.662 24.2 201.865 23.6462 201.865 22.9631C201.865 22.0769 201.579 21.44 201.007 21.0523C200.453 20.6462 199.557 20.4431 198.32 20.4431H197.434V16.5938H198.32C199.262 16.5938 200.019 16.4369 200.591 16.1231C201.182 15.7908 201.477 15.2092 201.477 14.3785C201.477 13.7138 201.293 13.1969 200.923 12.8277C200.554 12.4585 200.047 12.2738 199.4 12.2738C198.699 12.2738 198.173 12.4862 197.822 12.9108C197.49 13.3354 197.296 13.8615 197.24 14.4892H192.616ZM211.903 29.2215C211.072 29.2215 210.389 28.9815 209.853 28.5015C209.336 28.0031 209.078 27.3938 209.078 26.6738C209.078 25.9354 209.336 25.3169 209.853 24.8185C210.389 24.32 211.072 24.0708 211.903 24.0708C212.715 24.0708 213.379 24.32 213.896 24.8185C214.432 25.3169 214.699 25.9354 214.699 26.6738C214.699 27.3938 214.432 28.0031 213.896 28.5015C213.379 28.9815 212.715 29.2215 211.903 29.2215ZM231.266 12.9108H222.626V16.7323C222.995 16.3262 223.512 15.9938 224.177 15.7354C224.841 15.4769 225.561 15.3477 226.337 15.3477C227.721 15.3477 228.866 15.6615 229.77 16.2892C230.693 16.9169 231.367 17.7292 231.792 18.7262C232.217 19.7231 232.429 20.8031 232.429 21.9662C232.429 24.1262 231.82 25.8431 230.601 27.1169C229.383 28.3723 227.666 29 225.45 29C223.973 29 222.69 28.7508 221.601 28.2523C220.512 27.7354 219.672 27.0246 219.081 26.12C218.49 25.2154 218.167 24.1723 218.112 22.9908H222.737C222.847 23.5631 223.115 24.0431 223.54 24.4308C223.964 24.8 224.546 24.9846 225.284 24.9846C226.152 24.9846 226.798 24.7077 227.223 24.1538C227.647 23.6 227.86 22.8615 227.86 21.9385C227.86 21.0338 227.638 20.3415 227.195 19.8615C226.752 19.3815 226.106 19.1415 225.257 19.1415C224.629 19.1415 224.112 19.2985 223.706 19.6123C223.3 19.9077 223.032 20.3046 222.903 20.8031H218.333V8.75692H231.266V12.9108Z" fill="black"/>
<defs>
<linearGradient id="paint0_linear_3799_1913" x1="162.191" y1="-3711.61" x2="120.149" y2="-3711.57" gradientUnits="userSpaceOnUse">
<stop stop-color="#04BFD7"/>
<stop offset="0.7949" stop-color="#63388B"/>
</linearGradient>
</defs>
</svg>
