<svg width="90" height="90" viewBox="0 0 90 90" fill="none" xmlns="http://www.w3.org/2000/svg">
<path d="M69.8406 2.06006V11.1796H44.558C42.9725 11.1796 41.4449 11.4063 40 11.83V11.1796C40 6.14521 44.0834 2.06182 49.1178 2.06182H69.8406V2.06006Z" fill="url(#paint0_linear_3503_2284)"/>
<path opacity="0.5" d="M69.8406 2.06006V11.1796H44.558C42.9725 11.1796 41.4449 11.4063 40 11.83V11.1796C40 6.14521 44.0834 2.06182 49.1178 2.06182H69.8406V2.06006Z" fill="url(#paint1_linear_3503_2284)"/>
<path d="M19.2734 2.06006V11.1796H44.5561C46.1416 11.1796 47.6691 11.4063 49.1141 11.83V11.1796C49.1141 6.14521 45.0307 2.06182 39.9963 2.06182H19.2734V2.06006Z" fill="url(#paint2_linear_3503_2284)"/>
<path opacity="0.5" d="M19.2734 2.34128V10.8983C19.2734 11.053 19.4 11.1796 19.5547 11.1796H44.5561C46.0115 11.1796 47.4195 11.3712 48.759 11.7298C48.9383 11.7772 49.1141 11.6454 49.1141 11.4608C49.1141 6.26999 44.9059 2.06179 39.715 2.06179H19.5529C19.4 2.06003 19.2734 2.18659 19.2734 2.34128Z" fill="url(#paint3_linear_3503_2284)"/>
<path d="M44.5561 43.5109C35.6281 43.5109 28.3895 36.274 28.3895 27.3443C28.3895 18.4146 35.6264 11.1777 44.5561 11.1777H48.8469V2.06348H44.5561C30.592 2.06348 19.2734 13.3838 19.2734 27.3461C19.2734 41.3084 30.5937 52.6287 44.5561 52.6287C54.8902 52.6287 63.7689 46.4254 67.6906 37.5432H57.0963C54.1344 41.1836 49.6168 43.5109 44.5561 43.5109Z" fill="url(#paint4_linear_3503_2284)"/>
<path d="M44.5561 43.5109C35.6281 43.5109 28.3895 36.274 28.3895 27.3443C28.3895 18.4146 35.6264 11.1777 44.5561 11.1777H48.8469V2.06348H44.5561C30.592 2.06348 19.2734 13.3838 19.2734 27.3461C19.2734 41.3084 30.5937 52.6287 44.5561 52.6287C54.8902 52.6287 63.7689 46.4254 67.6906 37.5432H57.0963C54.1344 41.1836 49.6168 43.5109 44.5561 43.5109Z" fill="url(#paint5_linear_3503_2284)"/>
<path opacity="0.5" d="M31.3607 16.5602C31.5383 16.808 31.7193 17.0523 31.8969 17.2984C34.8588 13.5719 39.4273 11.1795 44.5566 11.1795H48.8475V2.06348H44.5566C37.448 2.06348 31.0285 5.00254 26.4336 9.72578C28.1176 11.9723 29.7277 14.275 31.3607 16.5602Z" fill="url(#paint6_linear_3503_2284)"/>
<path d="M58.2316 2.06006H49.1139C44.0795 2.06006 39.9961 6.14346 39.9961 11.1778V39.294C41.441 39.7229 42.9756 39.9497 44.5541 39.9497C46.1396 39.9497 47.6672 39.723 49.1139 39.2993V11.1778C49.1139 6.14521 53.199 2.06006 58.2316 2.06006Z" fill="url(#paint7_linear_3503_2284)"/>
<path d="M5.20332 69.0837V62.339H2.79688V60.771H9.35V62.339H6.94355V69.0837H5.20332Z" fill="black"/>
<path d="M10.2852 69.0837V60.771H13.5389C14.2121 60.771 14.7922 60.8923 15.2791 61.1331C15.766 61.3739 16.1422 61.7202 16.4076 62.172C16.673 62.6237 16.8049 63.1581 16.8049 63.7751C16.8049 64.4009 16.673 64.937 16.4076 65.3835C16.1422 65.83 15.766 66.171 15.2791 66.4048C14.7922 66.6386 14.2121 66.7546 13.5389 66.7546H11.2414L12.0359 65.9231V69.0819H10.2852V69.0837ZM12.0359 66.1376L11.2414 65.2235H13.4439C13.973 65.2235 14.3738 65.097 14.6463 64.8438C14.9188 64.5907 15.0541 64.2339 15.0541 63.7751C15.0541 63.3163 14.9188 62.9612 14.6463 62.7116C14.3738 62.462 13.973 62.3372 13.4439 62.3372H11.2414L12.0359 61.4231V66.1376ZM15.0752 69.0837L13.1855 66.0673H15.0541L16.9438 69.0837H15.0752Z" fill="black"/>
<path d="M17.1992 69.0837L20.5391 60.771H22.2582L25.6314 69.0837H23.8051L21.0453 61.7448H21.7432L18.9834 69.0837H17.1992ZM18.8867 67.303L19.3279 65.8423H23.2162L23.668 67.303H18.8867Z" fill="black"/>
<path d="M26.418 69.0837V60.771H27.8576L32.2943 66.7564H31.5965V60.771H33.3156V69.0837H31.876L27.4393 63.0983H28.1371V69.0837H26.418Z" fill="black"/>
<path d="M37.5766 69.2261C36.9754 69.2261 36.3971 69.1364 35.8416 68.9589C35.2861 68.7813 34.8414 68.5493 34.5039 68.2645L35.0945 66.8161C35.4092 67.0692 35.7889 67.2767 36.2336 67.4401C36.6783 67.6019 37.1248 67.6827 37.5766 67.6827C37.9211 67.6827 38.1971 67.644 38.4098 67.5649C38.6207 67.4858 38.7771 67.3804 38.8773 67.2503C38.9775 67.1202 39.0285 66.9673 39.0285 66.7933C39.0285 66.5718 38.9494 66.396 38.793 66.2642C38.6348 66.1341 38.4256 66.0269 38.1654 65.9442C37.9035 65.8616 37.6188 65.7825 37.3111 65.7069C37.0035 65.6313 36.6941 65.5399 36.3813 65.4345C36.0701 65.3272 35.7836 65.1849 35.5217 65.0073C35.2598 64.8298 35.0523 64.596 34.8994 64.306C34.7447 64.0177 34.6691 63.6556 34.6691 63.2196C34.6691 62.745 34.7834 62.3108 35.0137 61.9188C35.2422 61.5269 35.592 61.214 36.0613 60.9802C36.5307 60.7464 37.1195 60.6304 37.8279 60.6304C38.3008 60.6304 38.7684 60.6936 39.2289 60.8202C39.6912 60.9468 40.0937 61.1296 40.4365 61.3669L39.8881 62.8153C39.5506 62.6009 39.2043 62.4409 38.8457 62.3337C38.4871 62.2265 38.1443 62.1737 37.8139 62.1737C37.4693 62.1737 37.1951 62.2159 36.9877 62.2985C36.7803 62.3812 36.6273 62.4954 36.5307 62.6378C36.434 62.7802 36.3865 62.9384 36.3865 63.1124C36.3865 63.3339 36.4656 63.5114 36.6221 63.6468C36.7803 63.7821 36.9877 63.8858 37.2443 63.9614C37.5027 64.037 37.7893 64.1126 38.1039 64.1864C38.4186 64.262 38.7297 64.3552 39.0391 64.4659C39.3467 64.5767 39.6297 64.7173 39.8881 64.8878C40.1465 65.0583 40.3557 65.2886 40.5156 65.5769C40.6773 65.8651 40.7564 66.2237 40.7564 66.6509C40.7564 67.1185 40.6404 67.5456 40.4066 67.9341C40.1746 68.3226 39.8213 68.6355 39.3484 68.8728C38.8773 69.1065 38.2867 69.2261 37.5766 69.2261Z" fill="black"/>
<path d="M45.5359 69.2261C44.9559 69.2261 44.4162 69.1207 43.9188 68.9115C43.4213 68.7023 42.9889 68.4035 42.625 68.015C42.2594 67.6265 41.9746 67.1712 41.7707 66.6492C41.5668 66.1271 41.4648 65.5523 41.4648 64.9283C41.4648 64.3043 41.5668 63.7294 41.7707 63.2056C41.9746 62.6835 42.2611 62.2283 42.6303 61.8398C42.9994 61.4513 43.4318 61.1525 43.9293 60.9433C44.4268 60.7341 44.9664 60.6287 45.5465 60.6287C46.1986 60.6287 46.7893 60.7535 47.3184 61.0031C47.8475 61.2527 48.2922 61.6183 48.6508 62.1017L47.5223 63.2425C47.2709 62.9173 46.9879 62.673 46.668 62.506C46.3498 62.339 46.0035 62.2564 45.6309 62.2564C45.2793 62.2564 44.9576 62.3214 44.6641 62.4533C44.3705 62.5834 44.1156 62.7679 43.9012 63.0052C43.6867 63.2425 43.5197 63.5238 43.402 63.849C43.2842 64.1742 43.2244 64.5345 43.2244 64.93C43.2244 65.3255 43.2842 65.6859 43.402 66.0111C43.5197 66.3363 43.6867 66.6175 43.9012 66.8548C44.1156 67.0921 44.3705 67.2767 44.6641 67.4068C44.9576 67.5369 45.2793 67.6019 45.6309 67.6019C46.0035 67.6019 46.348 67.5175 46.668 67.347C46.9861 67.1765 47.2709 66.9287 47.5223 66.6052L48.6508 67.746C48.2922 68.2294 47.8492 68.5968 47.3184 68.85C46.7893 69.0996 46.1951 69.2261 45.5359 69.2261Z" fill="black"/>
<path d="M53.4498 69.2261C52.8557 69.2261 52.3072 69.1188 51.8063 68.9061C51.3053 68.6917 50.8676 68.3911 50.4949 68.0044C50.1223 67.6159 49.834 67.1606 49.6301 66.6386C49.4262 66.1165 49.3242 65.547 49.3242 64.9282C49.3242 64.3024 49.4262 63.7312 49.6301 63.2126C49.834 62.694 50.1223 62.2405 50.4949 61.8521C50.8676 61.4636 51.3018 61.163 51.7992 60.9503C52.2967 60.7376 52.8434 60.6304 53.4375 60.6304C54.0316 60.6304 54.5783 60.7358 55.0758 60.945C55.5732 61.1542 56.0092 61.453 56.3801 61.8415C56.7527 62.23 57.041 62.6853 57.2449 63.2073C57.4488 63.7294 57.5508 64.3042 57.5508 64.93C57.5508 65.547 57.4488 66.12 57.2449 66.6456C57.041 67.1729 56.7527 67.63 56.3801 68.0167C56.0074 68.4052 55.5732 68.704 55.0758 68.9132C54.5801 69.1206 54.0369 69.2261 53.4498 69.2261ZM53.4393 67.5983C53.775 67.5983 54.0861 67.5333 54.3691 67.4032C54.6522 67.2731 54.9018 67.0868 55.1162 66.8442C55.3307 66.6034 55.4977 66.3222 55.6154 66.0005C55.7332 65.6806 55.793 65.322 55.793 64.9265C55.793 64.531 55.7332 64.1724 55.6154 63.8524C55.4977 63.5325 55.3307 63.2513 55.1162 63.0087C54.9018 62.7679 54.6522 62.5815 54.3691 62.4515C54.0861 62.3214 53.7768 62.2546 53.4393 62.2546C53.1018 62.2546 52.7906 62.3196 52.5041 62.4515C52.2176 62.5815 51.968 62.7679 51.757 63.0087C51.5461 63.2495 51.3809 63.5308 51.2631 63.8524C51.1453 64.1741 51.0856 64.531 51.0856 64.9265C51.0856 65.322 51.1453 65.6806 51.2631 66.0005C51.3809 66.3204 51.5461 66.6017 51.757 66.8442C51.968 67.0868 52.2176 67.2714 52.5041 67.4032C52.7906 67.5333 53.1035 67.5983 53.4393 67.5983Z" fill="black"/>
<path d="M58.8633 69.0837V60.771H62.2787C63.0943 60.771 63.815 60.9433 64.4373 61.2878C65.0596 61.6323 65.5465 62.1157 65.898 62.7362C66.2496 63.3585 66.4236 64.088 66.4236 64.9265C66.4236 65.7649 66.2478 66.4962 65.898 67.1167C65.5465 67.739 65.0596 68.2206 64.4373 68.5651C63.815 68.9097 63.0943 69.0819 62.2787 69.0819H58.8633V69.0837ZM60.6141 67.5157H62.1926C62.6936 67.5157 63.1295 67.4103 63.4969 67.2011C63.866 66.9919 64.1525 66.6896 64.3564 66.2993C64.5604 65.9073 64.6623 65.4503 64.6623 64.9282C64.6623 64.3974 64.5604 63.9386 64.3564 63.5501C64.1525 63.1616 63.866 62.8628 63.4969 62.6536C63.1277 62.4444 62.6936 62.339 62.1926 62.339H60.6141V67.5157Z" fill="black"/>
<path d="M69.4641 67.5403H73.5562V69.0837H67.7344V60.771H73.4156V62.3144H69.4623V67.5403H69.4641ZM69.334 64.1073H72.9533V65.6155H69.334V64.1073Z" fill="black"/>
<path d="M74.4609 69.0836V67.8374L79.1121 61.6393L79.3266 62.3407H74.5471V60.7727H80.8734V62.019L76.2328 68.217L76.0184 67.5157H81.0352V69.0836H74.4609Z" fill="black"/>
<path d="M84.0191 69.0837V65.6876L84.4164 66.8513L81.0977 60.771H82.9557L85.4904 65.4257H84.427L86.9723 60.771H88.6686L85.3709 66.8513L85.7682 65.6876V69.0837H84.0191Z" fill="black"/>
<path d="M15.7969 78.4001V74.5347H16.6107V78.4001H15.7969Z" fill="black"/>
<path d="M18.1588 78.4001V75.2642H17.0391V74.5347H20.0854V75.2642H18.9656V78.4001H18.1588Z" fill="black"/>
<path d="M23.0893 78.4651C22.8098 78.4651 22.5408 78.4229 22.2824 78.3403C22.024 78.2577 21.8166 78.1504 21.6602 78.0168L21.9344 77.3436C22.0803 77.4614 22.2578 77.5581 22.4635 77.6336C22.6691 77.7092 22.8783 77.7461 23.0875 77.7461C23.2475 77.7461 23.3758 77.7286 23.4742 77.6917C23.5727 77.6547 23.6447 77.6055 23.6922 77.5458C23.7396 77.4842 23.7625 77.4139 23.7625 77.3331C23.7625 77.2293 23.7256 77.1485 23.6535 77.087C23.5797 77.0254 23.483 76.9762 23.3617 76.9375C23.2404 76.8989 23.1086 76.862 22.9645 76.8268C22.8221 76.7917 22.6779 76.7495 22.532 76.7002C22.3879 76.651 22.2543 76.5842 22.133 76.5016C22.0117 76.419 21.915 76.31 21.843 76.1764C21.7709 76.0428 21.7357 75.8741 21.7357 75.6702C21.7357 75.4487 21.7885 75.2483 21.8957 75.0655C22.0029 74.8827 22.1646 74.7385 22.3826 74.6295C22.6006 74.5206 22.8748 74.4661 23.2035 74.4661C23.4232 74.4661 23.6412 74.4959 23.8557 74.554C24.0701 74.612 24.2582 74.6981 24.4182 74.8088L24.1633 75.4821C24.0068 75.3819 23.8451 75.3081 23.6781 75.2588C23.5111 75.2096 23.3512 75.185 23.1982 75.185C23.0383 75.185 22.91 75.2043 22.8133 75.243C22.7166 75.2817 22.6463 75.3344 22.6006 75.4012C22.5549 75.468 22.5338 75.5418 22.5338 75.6227C22.5338 75.7264 22.5707 75.809 22.6445 75.8706C22.7184 75.9338 22.815 75.9813 22.9346 76.0165C23.0541 76.0516 23.1877 76.0868 23.3336 76.1219C23.4795 76.1571 23.6254 76.201 23.7678 76.252C23.9102 76.303 24.042 76.3698 24.1633 76.4489C24.2828 76.528 24.3813 76.6352 24.4551 76.7688C24.5307 76.9042 24.5676 77.0694 24.5676 77.268C24.5676 77.486 24.5131 77.6846 24.4059 77.8639C24.2969 78.045 24.1334 78.1891 23.9137 78.2999C23.6922 78.4106 23.418 78.4651 23.0893 78.4651Z" fill="black"/>
<path d="M26.8141 78.4651C26.5381 78.4651 26.2832 78.4159 26.0494 78.3157C25.8156 78.2155 25.6135 78.0766 25.4395 77.8956C25.2654 77.7145 25.1318 77.5036 25.0369 77.261C24.942 77.0184 24.8945 76.753 24.8945 76.4665C24.8945 76.1764 24.942 75.9092 25.0369 75.6684C25.1318 75.4276 25.2654 75.2167 25.4395 75.0356C25.6117 74.8545 25.8156 74.7157 26.0459 74.6155C26.2762 74.5153 26.5311 74.4661 26.807 74.4661C27.083 74.4661 27.3379 74.5153 27.5682 74.612C27.8002 74.7086 28.0023 74.8493 28.1746 75.0286C28.3469 75.2096 28.4822 75.4206 28.5771 75.6631C28.6721 75.9057 28.7195 76.1729 28.7195 76.4647C28.7195 76.7512 28.6721 77.0184 28.5771 77.2627C28.4822 77.5071 28.3486 77.7198 28.1746 77.9008C28.0006 78.0819 27.7984 78.2208 27.5682 78.3174C27.3379 78.4176 27.0865 78.4651 26.8141 78.4651ZM26.8088 77.7092C26.9652 77.7092 27.1094 77.6793 27.2412 77.6178C27.373 77.5563 27.4891 77.4702 27.5875 77.3577C27.6859 77.2452 27.765 77.1151 27.8195 76.9657C27.874 76.8163 27.9021 76.6493 27.9021 76.4665C27.9021 76.2819 27.874 76.1149 27.8195 75.9672C27.765 75.8178 27.6877 75.6877 27.5875 75.5752C27.4873 75.4627 27.3713 75.3766 27.2412 75.3151C27.1094 75.2536 26.9652 75.2237 26.8088 75.2237C26.6523 75.2237 26.5082 75.2536 26.3746 75.3151C26.241 75.3766 26.125 75.4627 26.0283 75.5752C25.9299 75.6877 25.8543 75.8178 25.798 75.9672C25.7436 76.1167 25.7154 76.2836 25.7154 76.4665C25.7154 76.651 25.7436 76.818 25.798 76.9657C25.8525 77.1151 25.9299 77.2452 26.0283 77.3577C26.1268 77.4702 26.2428 77.5563 26.3746 77.6178C26.5064 77.6793 26.6523 77.7092 26.8088 77.7092Z" fill="black"/>
<path d="M29.332 78.4001V74.5347H30.1459V77.6706H31.8896V78.4001H29.332Z" fill="black"/>
<path d="M33.908 78.4651C33.4123 78.4651 33.0238 78.3122 32.7443 78.0063C32.4648 77.7005 32.3242 77.2628 32.3242 76.6915V74.5347H33.1381V76.6722C33.1381 77.036 33.2066 77.3015 33.3438 77.4649C33.4809 77.6284 33.6707 77.711 33.9133 77.711C34.1594 77.711 34.351 77.6284 34.4881 77.4649C34.6252 77.3015 34.6938 77.0378 34.6938 76.6722V74.5347H35.4883V76.6933C35.4883 77.2646 35.3477 77.7022 35.0682 78.0081C34.7887 78.314 34.4002 78.4651 33.908 78.4651Z" fill="black"/>
<path d="M37.0143 78.4001V75.2642H35.8945V74.5347H38.9408V75.2642H37.8211V78.4001H37.0143Z" fill="black"/>
<path d="M39.375 78.4001V74.5347H40.1889V78.4001H39.375Z" fill="black"/>
<path d="M42.7164 78.4651C42.4404 78.4651 42.1855 78.4159 41.9518 78.3157C41.718 78.2155 41.5158 78.0766 41.3418 77.8956C41.1678 77.7145 41.0342 77.5036 40.9393 77.261C40.8443 77.0184 40.7969 76.753 40.7969 76.4665C40.7969 76.1764 40.8443 75.9092 40.9393 75.6684C41.0342 75.4276 41.1678 75.2167 41.3418 75.0356C41.5141 74.8545 41.718 74.7157 41.9482 74.6155C42.1785 74.5153 42.4334 74.4661 42.7094 74.4661C42.9854 74.4661 43.2402 74.5153 43.4705 74.612C43.7025 74.7086 43.9047 74.8493 44.077 75.0286C44.2492 75.2096 44.3846 75.4206 44.4795 75.6631C44.5744 75.9057 44.6219 76.1729 44.6219 76.4647C44.6219 76.7512 44.5744 77.0184 44.4795 77.2627C44.3846 77.5071 44.251 77.7198 44.077 77.9008C43.9029 78.0819 43.7008 78.2208 43.4705 78.3174C43.2402 78.4176 42.9889 78.4651 42.7164 78.4651ZM42.7111 77.7092C42.8676 77.7092 43.0117 77.6793 43.1436 77.6178C43.2754 77.5563 43.3914 77.4702 43.4898 77.3577C43.5883 77.2452 43.6674 77.1151 43.7219 76.9657C43.7764 76.8163 43.8045 76.6493 43.8045 76.4665C43.8045 76.2819 43.7764 76.1149 43.7219 75.9672C43.6674 75.8178 43.59 75.6877 43.4898 75.5752C43.3896 75.4627 43.2736 75.3766 43.1436 75.3151C43.0117 75.2536 42.8676 75.2237 42.7111 75.2237C42.5547 75.2237 42.4105 75.2536 42.277 75.3151C42.1434 75.3766 42.0273 75.4627 41.9307 75.5752C41.8322 75.6877 41.7566 75.8178 41.7004 75.9672C41.6459 76.1167 41.6178 76.2836 41.6178 76.4665C41.6178 76.651 41.6459 76.818 41.7004 76.9657C41.7549 77.1151 41.8322 77.2452 41.9307 77.3577C42.0291 77.4702 42.1451 77.5563 42.277 77.6178C42.4088 77.6793 42.5547 77.7092 42.7111 77.7092Z" fill="black"/>
<path d="M45.2305 78.4001V74.5347H45.9002L47.9639 77.3173H47.6387V74.5347H48.4385V78.4001H47.7688L45.7051 75.6175H46.0303V78.4001H45.2305Z" fill="black"/>
<path d="M50.4213 78.4651C50.1418 78.4651 49.8729 78.4229 49.6145 78.3403C49.3561 78.2577 49.1486 78.1504 48.9922 78.0168L49.2664 77.3436C49.4123 77.4614 49.5898 77.5581 49.7955 77.6336C50.0012 77.7092 50.2104 77.7461 50.4195 77.7461C50.5795 77.7461 50.7078 77.7286 50.8063 77.6917C50.9047 77.6547 50.9768 77.6055 51.0242 77.5458C51.0699 77.4842 51.0945 77.4139 51.0945 77.3331C51.0945 77.2293 51.0576 77.1485 50.9855 77.087C50.9135 77.0254 50.815 76.9762 50.6937 76.9375C50.5725 76.8989 50.4389 76.862 50.2965 76.8268C50.1523 76.7917 50.01 76.7495 49.8641 76.7002C49.7199 76.651 49.5863 76.5842 49.465 76.5016C49.3438 76.419 49.2471 76.31 49.175 76.1764C49.1029 76.0428 49.0678 75.8741 49.0678 75.6702C49.0678 75.4487 49.1205 75.2483 49.2277 75.0655C49.335 74.8827 49.4967 74.7385 49.7146 74.6295C49.9326 74.5206 50.2068 74.4661 50.5355 74.4661C50.7553 74.4661 50.9732 74.4959 51.1877 74.554C51.4021 74.612 51.5902 74.6981 51.7502 74.8088L51.4953 75.4821C51.3389 75.3819 51.1772 75.3081 51.0102 75.2588C50.8432 75.2096 50.6832 75.185 50.5303 75.185C50.3703 75.185 50.242 75.2043 50.1453 75.243C50.0486 75.2817 49.9783 75.3344 49.9326 75.4012C49.8869 75.468 49.8658 75.5418 49.8658 75.6227C49.8658 75.7264 49.9027 75.809 49.9748 75.8706C50.0486 75.9338 50.1453 75.9813 50.2648 76.0165C50.3844 76.0516 50.518 76.0868 50.6639 76.1219C50.8098 76.1571 50.9557 76.201 51.098 76.252C51.2404 76.303 51.3723 76.3698 51.4918 76.4489C51.6113 76.528 51.7098 76.6352 51.7836 76.7688C51.8592 76.9042 51.8961 77.0694 51.8961 77.268C51.8961 77.486 51.8416 77.6846 51.7344 77.8639C51.6254 78.045 51.4619 78.1891 51.2422 78.2999C51.026 78.4106 50.7518 78.4651 50.4213 78.4651Z" fill="black"/>
<path d="M53.8633 78.4001V74.5347H55.3768C55.6897 74.5347 55.9604 74.5909 56.1854 74.7034C56.4121 74.8159 56.5861 74.9776 56.7092 75.1868C56.8322 75.396 56.8938 75.6456 56.8938 75.9321C56.8938 76.2239 56.8322 76.4718 56.7092 76.681C56.5861 76.8884 56.4104 77.0501 56.1854 77.1644C55.9604 77.2786 55.6897 77.3349 55.3768 77.3349H54.308L54.6771 76.9323V78.4019H53.8633V78.4001ZM54.6771 77.0308L54.308 76.6054H55.3328C55.5789 76.6054 55.7652 76.5474 55.8918 76.4296C56.0184 76.3118 56.0816 76.1466 56.0816 75.9321C56.0816 75.7194 56.0184 75.5542 55.8918 75.4382C55.7652 75.3222 55.5789 75.2642 55.3328 75.2642H54.308L54.6771 74.8388V77.0308Z" fill="black"/>
<path d="M58.5643 78.4001L57.0508 74.5347H57.9297L59.248 77.9589H58.733L60.0725 74.5347H60.8775L59.3641 78.4001H58.5643Z" fill="black"/>
<path d="M61.9635 78.4001V75.2642H60.8438V74.5347H63.89V75.2642H62.7703V78.4001H61.9635Z" fill="black"/>
<path d="M64.5672 78.4442C64.4336 78.4442 64.3193 78.3932 64.2244 78.293C64.1295 78.1928 64.082 78.0645 64.082 77.9098C64.082 77.7481 64.1295 77.6163 64.2244 77.5178C64.3193 77.4194 64.4336 77.3684 64.5672 77.3684C64.7043 77.3684 64.8186 77.4176 64.9117 77.5178C65.0049 77.618 65.0523 77.7481 65.0523 77.9098C65.0523 78.0645 65.0049 78.1928 64.9117 78.293C64.8186 78.3932 64.7025 78.4442 64.5672 78.4442Z" fill="black"/>
<path d="M67.0508 78.4001V74.5347H67.8646V77.6706H69.6084V78.4001H67.0508Z" fill="black"/>
<path d="M70.7955 78.4001V75.2642H69.6758V74.5347H72.7221V75.2642H71.6023V78.4001H70.7955Z" fill="black"/>
<path d="M73.1602 78.4001V74.5347H74.7492C75.1289 74.5347 75.4629 74.6155 75.7529 74.7755C76.043 74.9354 76.2697 75.1604 76.4314 75.4487C76.5949 75.737 76.6758 76.078 76.6758 76.4683C76.6758 76.8585 76.5949 77.1978 76.4314 77.4878C76.268 77.7761 76.0412 78.0011 75.7529 78.161C75.4629 78.321 75.1289 78.4019 74.7492 78.4019H73.1602V78.4001ZM73.9758 77.6706H74.7105C74.9443 77.6706 75.1465 77.6214 75.317 77.5247C75.4875 77.428 75.6211 77.2874 75.716 77.1046C75.8109 76.9218 75.8584 76.7091 75.8584 76.4665C75.8584 76.2204 75.8109 76.006 75.716 75.8267C75.6211 75.6456 75.4875 75.5067 75.317 75.4101C75.1447 75.3134 74.9426 75.2642 74.7105 75.2642H73.9758V77.6706Z" fill="black"/>
<path d="M77.5242 78.4442C77.3906 78.4442 77.2764 78.3932 77.1814 78.293C77.0865 78.1928 77.0391 78.0645 77.0391 77.9098C77.0391 77.7481 77.0865 77.6163 77.1814 77.5178C77.2764 77.4194 77.3906 77.3684 77.5242 77.3684C77.6613 77.3684 77.7756 77.4176 77.8688 77.5178C77.9619 77.618 78.0094 77.7481 78.0094 77.9098C78.0094 78.0645 77.9619 78.1928 77.8688 78.293C77.7756 78.3932 77.6613 78.4442 77.5242 78.4442Z" fill="black"/>
<defs>
<linearGradient id="paint0_linear_3503_2284" x1="61.779" y1="17.0452" x2="53.1154" y2="4.28775" gradientUnits="userSpaceOnUse">
<stop stop-color="#00C6DB"/>
<stop offset="1" stop-color="#72227F"/>
</linearGradient>
<linearGradient id="paint1_linear_3503_2284" x1="60.4008" y1="15.1126" x2="54.1908" y2="5.85841" gradientUnits="userSpaceOnUse">
<stop offset="0.2081" stop-color="#72227F" stop-opacity="0"/>
<stop offset="1" stop-color="#72227F"/>
</linearGradient>
<linearGradient id="paint2_linear_3503_2284" x1="20.2731" y1="0.0484706" x2="33.0819" y2="7.94725" gradientUnits="userSpaceOnUse">
<stop stop-color="#00C6DB"/>
<stop offset="1" stop-color="#72227F"/>
</linearGradient>
<linearGradient id="paint3_linear_3503_2284" x1="26.7777" y1="2.74136" x2="32.5644" y2="7.6842" gradientUnits="userSpaceOnUse">
<stop offset="0.2081" stop-color="#72227F" stop-opacity="0"/>
<stop offset="1" stop-color="#72227F"/>
</linearGradient>
<linearGradient id="paint4_linear_3503_2284" x1="25.1335" y1="11.0134" x2="60.8856" y2="46.7654" gradientUnits="userSpaceOnUse">
<stop stop-color="#FFDC81"/>
<stop offset="1" stop-color="#FF4EA6"/>
</linearGradient>
<linearGradient id="paint5_linear_3503_2284" x1="25.1335" y1="11.0134" x2="60.8856" y2="46.7654" gradientUnits="userSpaceOnUse">
<stop stop-color="#FFDC81"/>
<stop offset="1" stop-color="#FF4EA6"/>
</linearGradient>
<linearGradient id="paint6_linear_3503_2284" x1="27.4238" y1="11.0138" x2="41.0615" y2="9.18729" gradientUnits="userSpaceOnUse">
<stop offset="0.2081" stop-color="#72227F" stop-opacity="0"/>
<stop offset="1" stop-color="#72227F"/>
</linearGradient>
<linearGradient id="paint7_linear_3503_2284" x1="45.4426" y1="4.37882" x2="53.1657" y2="38.6596" gradientUnits="userSpaceOnUse">
<stop stop-color="#00C6DB"/>
<stop offset="1" stop-color="#72227F"/>
</linearGradient>
</defs>
</svg>
