<svg width="241" height="41" viewBox="0 0 241 41" fill="none" xmlns="http://www.w3.org/2000/svg">
<g clip-path="url(#clip0_3794_2020)">
<path d="M70.2734 11.5037C68.5567 11.4914 66.8751 11.9896 65.4422 12.9351C64.0094 13.8806 62.8899 15.2308 62.2261 16.814C61.5623 18.3971 61.3841 20.1419 61.7141 21.8266C62.0442 23.5113 62.8676 25.0599 64.0797 26.2755C65.2919 27.4912 66.838 28.3191 68.5218 28.654C70.2055 28.989 71.9508 28.8158 73.5359 28.1566C75.121 27.4974 76.4744 26.3819 77.4241 24.9517C78.3737 23.5216 78.8768 21.8414 78.8695 20.1247C78.8719 18.994 78.6514 17.8739 78.2206 16.8285C77.7898 15.783 77.1571 14.8328 76.3587 14.0321C75.5604 13.2314 74.6119 12.5959 73.5678 12.1621C72.5236 11.7283 71.4041 11.5045 70.2734 11.5037ZM70.3389 25.2949C69.6796 25.2986 69.0261 25.1724 68.4156 24.9235C67.805 24.6746 67.2495 24.3079 66.7807 23.8443C66.3119 23.3807 65.9391 22.8294 65.6834 22.2217C65.4277 21.614 65.2942 20.9619 65.2905 20.3026C65.2868 19.6433 65.413 18.9897 65.6619 18.3792C65.9108 17.7687 66.2774 17.2132 66.741 16.7444C67.2046 16.2756 67.756 15.9027 68.3637 15.647C68.9714 15.3913 69.6235 15.2578 70.2828 15.2542C70.942 15.2505 71.5956 15.3767 72.2061 15.6255C72.8166 15.8744 73.3721 16.2411 73.8409 16.7047C74.3097 17.1683 74.6826 17.7197 74.9383 18.3274C75.194 18.935 75.3275 19.5871 75.3312 20.2464C75.3031 21.5666 74.7697 22.8257 73.8409 23.7644C72.9122 24.703 71.6587 25.2497 70.3389 25.2917V25.2949ZM89.3251 15.5849C88.7416 15.5926 88.1653 15.7156 87.6294 15.9468C87.0935 16.1781 86.6087 16.513 86.2027 16.9323C85.7967 17.3516 85.4777 17.847 85.2639 18.3901C85.0501 18.9332 84.9458 19.5131 84.9569 20.0967L84.9944 28.3277L81.2501 28.3464L81.1753 11.9873L84.9195 11.9686V14.5334C85.4552 13.7509 86.1702 13.1078 87.005 12.6578C87.8398 12.2079 88.7701 11.9641 89.7183 11.9468H90.7854L90.8041 15.5818L89.3251 15.5849ZM51.9954 12.109L54.8286 23.3416L57.7709 12.109L61.5151 12.0934L56.8816 28.4587L53.2466 28.4743L50.3074 17.0483L47.4743 28.4993L43.8393 28.5149L38.9531 12.1808L42.5881 12.1652L45.8362 23.3791L48.4572 12.1465L51.9954 12.109ZM101.743 19.3603C103.059 18.5964 104.152 17.5023 104.915 16.1862C105.678 14.87 106.084 13.3775 106.093 11.8563L102.349 11.875C102.364 13.1921 101.858 14.4619 100.941 15.4075C100.024 16.3531 98.7702 16.898 97.4532 16.9234H96.9196L96.8604 3.99658L93.1162 4.0153L93.2316 28.284L96.9758 28.2684L96.9415 20.5709H97.3689C97.5639 20.5556 97.7591 20.5976 97.9304 20.6919C98.1017 20.7861 98.2417 20.9285 98.3331 21.1014L103.603 28.2372L107.971 28.2153L101.743 19.3603Z" fill="#4B4B4B"/>
<path d="M30.2843 11.6879C26.2281 11.7066 23.136 14.3931 21.9785 18.6739C20.1234 15.7913 18.6695 12.6695 17.657 9.39453L13.3824 9.41637L13.4354 20.7488C13.4404 21.8246 13.0178 22.8583 12.2606 23.6225C11.5034 24.3867 10.4737 24.8188 9.39793 24.8238C8.32215 24.8287 7.28846 24.4062 6.52426 23.649C5.76006 22.8918 5.32795 21.8621 5.32299 20.7863L5.26994 9.45694L0.992188 9.47878L1.04523 20.8112C1.05036 21.9065 1.27115 22.99 1.69502 23.9999C2.11889 25.0099 2.73752 25.9264 3.5156 26.6972C4.29369 27.4681 5.21598 28.0781 6.22982 28.4925C7.24366 28.9069 8.3292 29.1176 9.42445 29.1125C10.5197 29.1073 11.6032 28.8865 12.6131 28.4627C13.6231 28.0388 14.5396 27.4202 15.3104 26.6421C16.0813 25.864 16.6913 24.9417 17.1057 23.9279C17.5201 22.914 17.7308 21.8285 17.7257 20.7332V18.8081C18.6231 20.5968 19.6667 22.3083 20.8458 23.9252L18.2155 36.4464L22.5838 36.4246L24.4559 27.3293C26.215 28.4438 28.2581 29.0277 30.3405 29.0111C35.0457 28.9892 38.8773 25.1233 38.8523 20.2059C38.8367 17.943 37.9274 15.7779 36.3225 14.1824C34.7177 12.5869 32.5473 11.6903 30.2843 11.6879ZM30.3468 24.6241C28.6369 24.6241 26.9146 23.8909 25.5292 22.7208L25.9473 21.0109V20.9017C26.2593 19.0827 27.1954 15.9781 30.4123 15.9625C31.5464 15.96 32.6353 16.4066 33.441 17.2047C34.2467 18.0028 34.7036 19.0875 34.7119 20.2215C34.5995 22.6802 32.5933 24.6147 30.3468 24.6241Z" fill="#6FDA44"/>
</g>
<path d="M172.074 18.2356C172.478 17.8445 172.764 17.3475 172.899 16.8015C173.033 16.2555 173.012 15.6825 172.836 15.1483C172.664 14.6125 172.345 14.136 171.915 13.7733C171.484 13.4107 170.961 13.1766 170.404 13.0979L160.234 11.6202C160.021 11.5893 159.818 11.5068 159.644 11.3801C159.47 11.2534 159.329 11.0861 159.233 10.8928L154.687 1.67868C154.44 1.17337 154.055 0.747899 153.578 0.451008C153.1 0.154118 152.548 -0.00217957 151.986 2.2961e-05C151.423 -0.00202134 150.872 0.154351 150.394 0.451232C149.916 0.748113 149.532 1.1735 149.285 1.67868L144.738 10.8936C144.544 11.2864 144.169 11.558 143.736 11.6211L133.567 13.0987C133.009 13.1774 132.486 13.4115 132.056 13.7742C131.625 14.1368 131.306 14.6134 131.134 15.1491C130.959 15.6834 130.937 16.2563 131.072 16.8023C131.206 17.3483 131.492 17.8454 131.896 18.2365L139.254 25.4086C139.568 25.7147 139.712 26.1554 139.638 26.586L137.902 36.7134C137.823 37.1438 137.842 37.5862 137.955 38.0086C138.069 38.431 138.275 38.8229 138.559 39.1557C139.455 40.2213 141.02 40.5459 142.272 39.8883L151.367 35.1063C151.558 35.0084 151.77 34.9574 151.986 34.9574C152.201 34.9574 152.413 35.0084 152.605 35.1063L161.7 39.8883C162.131 40.1183 162.612 40.2387 163.101 40.239C163.99 40.239 164.833 39.8437 165.412 39.1557C165.696 38.8229 165.902 38.431 166.016 38.0086C166.129 37.5862 166.148 37.1438 166.069 36.7134L164.332 26.586C164.296 26.3734 164.312 26.1551 164.379 25.95C164.446 25.7449 164.561 25.5591 164.716 25.4086L172.074 18.2356Z" fill="url(#paint0_linear_3794_2020)"/>
<path d="M212.519 16.9108H203.879V20.7323C204.248 20.3262 204.765 19.9938 205.43 19.7354C206.094 19.4769 206.814 19.3477 207.59 19.3477C208.974 19.3477 210.119 19.6615 211.023 20.2892C211.946 20.9169 212.62 21.7292 213.045 22.7262C213.47 23.7231 213.682 24.8031 213.682 25.9662C213.682 28.1262 213.073 29.8431 211.854 31.1169C210.636 32.3723 208.919 33 206.703 33C205.226 33 203.943 32.7508 202.854 32.2523C201.765 31.7354 200.925 31.0246 200.334 30.12C199.743 29.2154 199.42 28.1723 199.365 26.9908H203.99C204.1 27.5631 204.368 28.0431 204.793 28.4308C205.217 28.8 205.799 28.9846 206.537 28.9846C207.405 28.9846 208.051 28.7077 208.476 28.1538C208.9 27.6 209.113 26.8615 209.113 25.9385C209.113 25.0338 208.891 24.3415 208.448 23.8615C208.005 23.3815 207.359 23.1415 206.51 23.1415C205.882 23.1415 205.365 23.2985 204.959 23.6123C204.553 23.9077 204.285 24.3046 204.156 24.8031H199.586V12.7569H212.519V16.9108ZM218.982 33.2215C218.151 33.2215 217.468 32.9815 216.933 32.5015C216.416 32.0031 216.157 31.3938 216.157 30.6738C216.157 29.9354 216.416 29.3169 216.933 28.8185C217.468 28.32 218.151 28.0708 218.982 28.0708C219.794 28.0708 220.459 28.32 220.976 28.8185C221.511 29.3169 221.779 29.9354 221.779 30.6738C221.779 31.3938 221.511 32.0031 220.976 32.5015C220.459 32.9815 219.794 33.2215 218.982 33.2215ZM224.111 22.6154C224.111 19.44 224.72 16.9385 225.939 15.1108C227.176 13.2831 229.16 12.3692 231.893 12.3692C234.625 12.3692 236.6 13.2831 237.819 15.1108C239.056 16.9385 239.674 19.44 239.674 22.6154C239.674 25.8277 239.056 28.3477 237.819 30.1754C236.6 32.0031 234.625 32.9169 231.893 32.9169C229.16 32.9169 227.176 32.0031 225.939 30.1754C224.72 28.3477 224.111 25.8277 224.111 22.6154ZM235.022 22.6154C235.022 20.7508 234.819 19.32 234.413 18.3231C234.007 17.3077 233.167 16.8 231.893 16.8C230.619 16.8 229.779 17.3077 229.373 18.3231C228.967 19.32 228.764 20.7508 228.764 22.6154C228.764 23.8708 228.837 24.9138 228.985 25.7446C229.133 26.5569 229.428 27.2215 229.871 27.7385C230.333 28.2369 231.007 28.4862 231.893 28.4862C232.779 28.4862 233.444 28.2369 233.887 27.7385C234.348 27.2215 234.653 26.5569 234.8 25.7446C234.948 24.9138 235.022 23.8708 235.022 22.6154Z" fill="black"/>
<defs>
<linearGradient id="paint0_linear_3794_2020" x1="169.176" y1="-3711.61" x2="127.133" y2="-3711.57" gradientUnits="userSpaceOnUse">
<stop stop-color="#04BFD7"/>
<stop offset="0.7949" stop-color="#63388B"/>
</linearGradient>
<clipPath id="clip0_3794_2020">
<rect width="107" height="32.4435" fill="white" transform="translate(0.984375 4)"/>
</clipPath>
</defs>
</svg>
