<svg width="52" height="52" viewBox="0 0 52 52" fill="none" xmlns="http://www.w3.org/2000/svg">
<path d="M41.8438 2.4375H10.1562C5.44457 2.4375 1.625 6.25707 1.625 10.9688V41.0312C1.625 45.7429 5.44457 49.5625 10.1562 49.5625H41.8438C46.5554 49.5625 50.375 45.7429 50.375 41.0312V10.9688C50.375 6.25707 46.5554 2.4375 41.8438 2.4375Z" fill="#470137"/>
<path d="M26.6842 15.7706L20.6879 26.0731L27.1493 37.0419C27.2813 37.2653 27.2245 37.375 26.9827 37.375H22.9527C22.853 37.3855 22.7523 37.3658 22.6639 37.3183C22.5755 37.2708 22.5035 37.1979 22.4571 37.1089L17.9092 28.7665H17.8746L13.4465 37.1089C13.4058 37.1883 13.3441 37.255 13.2683 37.3019C13.1924 37.3488 13.1051 37.3741 13.0159 37.375H9.14025C8.91884 37.375 8.87619 37.2653 9.00822 37.0419L15.362 26.3737L9.30884 15.7036C9.17681 15.5269 9.2215 15.4375 9.44088 15.4375H13.479C13.5656 15.4313 13.6521 15.45 13.7284 15.4914C13.8047 15.5328 13.8676 15.5951 13.9096 15.6711L18.1753 23.9139H18.2077L22.451 15.6711C22.4929 15.5954 22.5554 15.5333 22.6314 15.4919C22.7073 15.4506 22.7934 15.4317 22.8796 15.4375H26.5521C26.7959 15.4375 26.8385 15.5492 26.6842 15.7706ZM36.5357 37.7812C34.1795 37.7812 32.3656 37.1129 30.9579 35.7784C29.5502 34.4439 28.8434 32.4715 28.8434 29.8594C28.8434 27.4855 29.6004 25.5355 31.1143 24.0094C31.889 23.2075 32.8204 22.5738 33.8506 22.1474C34.8808 21.7211 35.9877 21.5113 37.1024 21.5312C37.6014 21.5223 38.0995 21.5756 38.5853 21.6897V14.8159C38.5816 14.7902 38.5839 14.7639 38.5921 14.7392C38.6002 14.7145 38.614 14.692 38.6323 14.6736C38.6506 14.6551 38.6729 14.6411 38.6975 14.6326C38.7221 14.6242 38.7484 14.6216 38.7742 14.625H42.4873C42.5909 14.625 42.6437 14.6879 42.6437 14.8159V34.062C42.6437 34.8745 42.9951 35.5672 43.0499 36.1603C43.0611 36.219 43.0514 36.2798 43.0225 36.3321C42.9935 36.3844 42.9472 36.425 42.8915 36.4467C41.0695 37.3364 38.6807 37.7812 36.5357 37.7812ZM38.5934 34.6348V24.8097C38.4613 24.5781 37.7626 24.375 37.0476 24.375C36.4558 24.3596 35.8681 24.4766 35.3273 24.7173C34.7864 24.958 34.3062 25.3164 33.9215 25.7664C32.9846 26.8636 32.4792 28.2644 32.4996 29.707C32.4996 31.4864 33.109 32.7051 33.9032 33.5522C34.2786 33.9827 34.741 34.3287 35.2599 34.5675C35.7788 34.8063 36.3424 34.9324 36.9135 34.9375C37.6712 34.9375 38.4126 34.8237 38.5934 34.6348Z" fill="#FF61F6"/>
</svg>
