<svg width="85" height="18" viewBox="0 0 85 18" fill="none" xmlns="http://www.w3.org/2000/svg">
<path d="M24.9268 7.02815C26.6819 7.02815 27.8149 7.93146 28.3481 9.45165H30.9697C30.3254 6.56548 28.0149 4.75887 24.9268 4.75887C21.2389 4.75887 18.4618 7.60098 18.4618 11.3244C18.4618 15.0477 21.2389 17.8017 24.9268 17.8017C28.0149 17.8017 30.2588 15.907 30.9697 13.1089H28.3481C27.8149 14.541 26.6597 15.5324 24.9268 15.5324C22.5052 15.5324 20.9945 13.814 20.9945 11.3464C21.0167 8.85679 22.5052 7.02815 24.9268 7.02815ZM35.7462 6.16891H35.6351L35.5018 4.93513H33.3024V17.8458H35.7462V9.67197C35.7462 7.95349 37.0792 7.00612 38.8343 7.00612C39.212 7.00612 39.3008 7.02815 39.3008 7.02815V4.67075C39.3008 4.67075 39.1453 4.62668 38.8343 4.62668C38.0789 4.62668 36.7015 4.93513 35.7462 6.16891ZM61.9838 4.62668C59.8066 4.62668 58.4736 5.55202 57.896 6.16891H57.7849L57.6516 4.93513H55.4522V17.8458H57.896V9.71603C57.896 7.90942 59.54 6.96206 61.5617 6.96206C63.2946 6.96206 64.5387 7.8213 64.5387 9.60587V17.8458H66.9825V9.45165C66.9603 5.8825 64.4276 4.62668 61.9838 4.62668ZM70.115 4.93513H72.5588V17.8458H70.115V4.93513ZM46.499 4.75887C42.7888 4.75887 39.9673 7.55692 39.9673 11.2803C39.9673 15.0037 42.7666 17.8017 46.499 17.8017C50.2091 17.8017 53.0306 15.0037 53.0306 11.2803C53.0306 7.55692 50.2091 4.75887 46.499 4.75887ZM46.499 15.4663C44.0774 15.4663 42.5222 13.7038 42.5222 11.2803C42.5222 8.85679 44.0774 7.05018 46.499 7.05018C48.9205 7.05018 50.4757 8.85679 50.4757 11.2803C50.4757 13.7038 48.9205 15.4663 46.499 15.4663ZM80.4456 10.0024C78.024 9.47368 78.1351 8.87883 78.1351 8.35006C78.1351 7.71114 78.8461 6.91799 80.0235 6.91799C81.001 6.91799 82.0452 7.40269 82.0452 9.03305H84.4002C84.489 6.38923 82.7339 4.78091 80.0235 4.78091C77.6242 4.78091 75.6913 6.43329 75.6913 8.46022C75.6913 11.0159 77.7352 11.8091 79.9569 12.2938C82.3118 12.8005 82.5118 13.5275 82.5118 14.0343C82.5118 15.0037 81.512 15.8409 80.1124 15.8409C79.1126 15.8409 77.5797 15.224 77.5797 13.3513H75.2248C75.0693 16.3035 77.2243 18 80.1124 18C82.845 18 85 16.2595 85 13.9461C84.9778 11.3023 82.6451 10.4651 80.4456 10.0024ZM8.10899 0L0 17.8458H2.59932L4.17669 14.2546H14.2629L15.8403 17.8458H18.4174L10.3528 0H8.10899ZM9.17538 3.04039H9.28646L9.41976 3.37087L11.7081 8.57038H6.75379L9.04208 3.37087L9.17538 3.04039ZM5.08756 12.2277L5.84292 10.5532H12.5967L13.3521 12.2277H5.08756Z" fill="#14234C"/>
</svg>
