<svg width="641" height="379" viewBox="0 0 641 379" fill="none" xmlns="http://www.w3.org/2000/svg">
<path d="M74.7145 201.627C75.2037 189.178 75.0345 176.713 74.2076 164.282C72.3663 138.647 68.4543 113.204 62.5101 88.1995C59.2446 74.1137 55.2284 60.2717 51.0368 46.4491C50.9198 46.0299 50.2472 46.1469 50.3642 46.5856C63.3095 95.3253 73.925 145.625 73.1939 196.294C72.9892 210.478 71.3515 224.407 70.0063 238.493C70.0063 238.873 70.5912 239.02 70.6789 238.63C73.3498 226.572 74.2174 213.938 74.7145 201.627Z" fill="#EBEBEB"/>
<path d="M50.3647 46.584C50.3647 46.584 30.7518 96.357 35.1481 108.054C39.5445 119.752 48.5905 122.247 48.5905 122.247C48.5905 122.247 36.5908 139.336 44.9741 155.449C53.3573 171.562 71.9856 170.753 73.2431 188.972C73.2236 188.972 74.2666 112.802 50.3647 46.584Z" fill="#EBEBEB"/>
<path d="M71.0889 157.517C71.1221 157.432 71.1221 157.338 71.0889 157.254C68.34 123.409 62.3158 89.6711 52.0707 57.1324C52.0707 57.035 51.8855 57.0642 51.9147 57.1324C55.8139 71.6959 59.2452 86.334 62.2086 101.047C59.5746 98.553 56.357 96.7599 52.8505 95.8318C52.8376 95.8318 52.8252 95.8369 52.8161 95.846C52.8069 95.8552 52.8018 95.8676 52.8018 95.8805C52.8018 95.8934 52.8069 95.9058 52.8161 95.915C52.8252 95.9241 52.8376 95.9292 52.8505 95.9292C56.4768 97.4987 59.947 99.3118 62.5107 102.392C63.0859 105.317 63.6513 108.163 64.1776 111.048C59.8008 106.174 53.7181 103.718 47.6061 101.408C47.5282 101.408 47.4794 101.515 47.6061 101.544C53.9326 104.127 60.2785 107.442 64.5383 112.9C66.033 121.167 67.3327 129.456 68.4375 137.767C65.267 134.452 61.2041 132.126 56.74 131.071C56.6035 131.071 56.5255 131.236 56.6717 131.275C61.2758 132.603 65.3942 135.242 68.5252 138.869C68.5468 138.894 68.5734 138.914 68.6032 138.927C68.9931 141.852 69.3635 144.776 69.7047 147.701C67.2562 145.627 64.4919 143.959 61.5164 142.758C61.5038 142.763 61.4929 142.772 61.4853 142.783C61.4776 142.795 61.4735 142.808 61.4735 142.822C61.4735 142.835 61.4776 142.849 61.4853 142.86C61.4929 142.871 61.5038 142.88 61.5164 142.885C64.5497 144.2 67.3279 146.037 69.7242 148.315C69.7242 148.315 69.7925 148.315 69.8314 148.363C70.1531 151.151 70.4846 153.939 70.8062 156.727C66.39 151.39 60.6579 147.298 54.1763 144.854C54.152 144.85 54.127 144.854 54.1054 144.866C54.0839 144.878 54.0671 144.897 54.0579 144.92C54.0488 144.943 54.0478 144.968 54.0551 144.992C54.0625 145.015 54.0777 145.035 54.0983 145.049C60.4987 147.874 66.1232 152.201 70.4943 157.663C70.5387 157.727 70.6026 157.775 70.6763 157.799C70.7501 157.824 70.8299 157.824 70.9037 157.799C71.3326 162.082 71.7063 166.371 72.0247 170.667C72.0247 170.725 72.1222 170.735 72.1222 170.667C71.7908 166.293 71.4464 161.91 71.0889 157.517Z" fill="white"/>
<path d="M55.3359 90.9096C51.9339 88.5799 47.6155 87.5758 43.5506 87.2444C43.4532 87.2444 43.4532 87.3809 43.5506 87.3906C47.7715 88.0145 51.349 89.5449 55.1994 91.1923C55.3359 91.2703 55.4821 91.0168 55.3359 90.9096Z" fill="white"/>
<path d="M57.7155 143.617C54.9876 142.054 51.987 141.026 48.8742 140.585C48.7669 140.585 48.7572 140.741 48.8742 140.751C51.9268 141.363 54.8795 142.396 57.6473 143.822C57.6703 143.82 57.6923 143.812 57.7104 143.797C57.7286 143.783 57.7422 143.764 57.7495 143.742C57.7568 143.72 57.7575 143.697 57.7514 143.674C57.7454 143.652 57.7329 143.632 57.7155 143.617Z" fill="white"/>
<path d="M126.273 108.865C117.979 114.602 110.363 121.26 103.57 128.712C96.5683 136.596 91.1623 145.762 87.6514 155.704C80.2084 176.428 76.2076 198.229 75.8077 220.245C75.5563 232.444 76.7307 244.63 79.3072 256.556C79.324 256.646 79.3755 256.724 79.4505 256.776C79.5254 256.827 79.6177 256.846 79.7069 256.829C79.796 256.813 79.8749 256.761 79.9261 256.686C79.9773 256.611 79.9966 256.519 79.9798 256.43C76.78 235.385 76.9017 213.968 80.3405 192.961C83.7133 172.373 88.9966 149.972 102.088 133.235C109.214 124.121 118.104 116.956 126.887 109.548C127.335 109.177 126.75 108.534 126.273 108.865Z" fill="#EBEBEB"/>
<path d="M78.7314 205.438C83.4616 197.803 89.019 190.713 95.3029 184.295C105.119 174.489 113.376 167.519 114.653 161.027C115.93 154.535 104.827 149.768 104.827 149.768C104.827 149.768 118.406 152.205 122.12 146.502C125.833 140.8 127.627 107.813 127.627 107.813C127.627 107.813 102.926 125.437 91.4233 150.158C79.9207 174.879 78.7314 205.438 78.7314 205.438Z" fill="#EBEBEB"/>
<path d="M119.001 116.264C108.61 126.47 98.15 137.349 92.0283 150.762C89.9383 155.394 88.1189 160.142 86.5792 164.984C86.2672 165.959 85.9456 166.934 85.6044 167.909C85.5781 167.957 85.5615 168.01 85.5556 168.065C82.654 178.09 80.3141 188.27 78.5469 198.556C78.5469 198.615 78.6249 198.654 78.6444 198.556C79.7069 193.409 80.8766 188.204 82.1926 183.028C82.2409 183.037 82.2905 183.037 82.3388 183.028C84.3997 182.142 86.5873 181.586 88.8212 181.381C88.9674 181.381 88.9577 181.108 88.8212 181.117C86.6403 181.217 84.4827 181.61 82.4071 182.287C83.6061 177.608 84.9025 172.949 86.3647 168.357C91.1547 167.185 96.0568 166.531 100.987 166.408V166.32C96.1681 166.126 91.3449 166.559 86.6377 167.607C86.8911 166.817 87.1543 166.037 87.4175 165.248C90.6271 164.485 93.8835 163.935 97.1654 163.6C97.2239 163.6 97.2239 163.493 97.1654 163.493C93.9534 163.556 90.7559 163.945 87.6222 164.653C88.9577 160.676 90.4101 156.757 92.0283 152.956C93.3601 149.828 94.9174 146.801 96.6878 143.9C99.2888 143.256 101.93 142.787 104.593 142.496C104.671 142.496 104.662 142.369 104.593 142.36C102.107 142.173 99.6063 142.42 97.2044 143.091C98.5009 140.995 99.8656 138.938 101.328 136.949C106.865 135.721 112.479 134.581 118.153 135.643C118.25 135.643 118.279 135.497 118.153 135.477C112.762 134.054 107.43 134.873 102.039 135.936C102.624 135.156 103.229 134.386 103.833 133.625C107.185 132.593 110.668 132.045 114.176 131.997C114.191 131.997 114.206 131.991 114.217 131.98C114.228 131.969 114.234 131.954 114.234 131.939C114.234 131.923 114.228 131.909 114.217 131.898C114.206 131.887 114.191 131.88 114.176 131.88C110.937 131.584 107.671 131.874 104.535 132.738C109.107 127.055 114.166 121.713 119.157 116.42C119.43 116.167 119.245 116.03 119.001 116.264Z" fill="white"/>
<path d="M118.697 138.761C117.083 138.531 115.45 138.472 113.823 138.586C113.628 138.586 113.638 138.937 113.823 138.937C115.451 138.937 117.069 138.869 118.697 138.937C118.714 138.929 118.728 138.916 118.737 138.901C118.747 138.885 118.752 138.867 118.752 138.849C118.752 138.831 118.747 138.813 118.737 138.797C118.728 138.782 118.714 138.769 118.697 138.761Z" fill="white"/>
<path d="M100.947 170.773C98.3389 170.833 95.7618 171.351 93.3336 172.304C93.2751 172.304 93.3336 172.421 93.3336 172.411C95.8486 171.807 98.3928 171.563 100.927 171.144C100.952 171.145 100.976 171.142 100.999 171.133C101.022 171.125 101.043 171.113 101.061 171.097C101.079 171.08 101.094 171.061 101.104 171.039C101.115 171.017 101.121 170.993 101.122 170.968C101.124 170.944 101.12 170.92 101.112 170.897C101.104 170.874 101.091 170.853 101.075 170.835C101.059 170.816 101.039 170.802 101.017 170.791C100.995 170.781 100.971 170.775 100.947 170.773Z" fill="white"/>
<path d="M95.6247 159.709C94.5391 159.704 93.4555 159.802 92.3883 160.002C92.2811 160.002 92.2909 160.197 92.3883 160.197C93.4693 160.255 94.5534 160.206 95.6247 160.05C95.8196 160.011 95.8099 159.719 95.6247 159.709Z" fill="white"/>
<path d="M6.28535 143.889C14.3216 146.613 22.0229 150.24 29.2418 154.7C36.7316 159.46 43.224 165.631 48.3574 172.87C59.181 187.92 67.466 204.641 72.8833 222.37C75.904 232.193 77.7687 242.334 78.4396 252.589C78.4272 252.656 78.3916 252.717 78.3391 252.76C78.2865 252.804 78.2204 252.828 78.152 252.828C78.0837 252.828 78.0175 252.804 77.965 252.76C77.9125 252.717 77.8769 252.656 77.8645 252.589C75.5908 234.818 70.5451 217.513 62.9111 201.305C55.4247 185.425 45.9595 168.523 31.5033 158.004C23.6269 152.273 14.7758 148.529 5.95392 144.562C5.49577 144.377 5.8272 143.724 6.28535 143.889Z" fill="#EBEBEB"/>
<path d="M67.1217 211.042C61.5341 205.954 55.405 201.495 48.8443 197.746C38.6382 192.082 30.3232 188.348 27.8082 183.397C25.2933 178.445 33.1501 172.011 33.1501 172.011C33.1501 172.011 22.7296 177.119 18.4112 173.366C14.0929 169.613 5.00781 143.323 5.00781 143.323C5.00781 143.323 29.0657 151.881 44.097 169.233C59.1284 186.584 67.1217 211.042 67.1217 211.042Z" fill="#EBEBEB"/>
<path d="M65.8642 205.623C53.8255 183.027 37.7901 162.595 15.7695 149.084C21.5156 152.8 26.9034 157.043 31.8634 161.757C27.3865 161.512 22.9243 162.454 18.9279 164.486C18.9154 164.497 18.9067 164.512 18.903 164.528C18.8994 164.544 18.9009 164.561 18.9074 164.576C18.9139 164.591 18.925 164.604 18.9392 164.612C18.9534 164.621 18.9699 164.624 18.9864 164.623C23.24 163.027 27.7603 162.263 32.302 162.371C32.3562 162.37 32.4082 162.349 32.4483 162.312C33.2378 163.053 34.0079 163.804 34.7683 164.564C32.4427 164.673 30.1306 164.98 27.857 165.481C27.844 165.481 27.8316 165.486 27.8225 165.495C27.8134 165.504 27.8082 165.516 27.8082 165.529C27.8082 165.542 27.8134 165.555 27.8225 165.564C27.8316 165.573 27.844 165.578 27.857 165.578C30.2637 165.128 32.7102 164.926 35.1582 164.974C39.1972 169.043 43.0048 173.336 46.5633 177.831C44.9322 177.599 43.2703 177.719 41.6893 178.182C41.6698 178.188 41.6528 178.201 41.6408 178.218C41.6287 178.234 41.6223 178.254 41.6223 178.275C41.6223 178.295 41.6287 178.315 41.6408 178.332C41.6528 178.348 41.6698 178.361 41.6893 178.367C43.4014 178.169 45.1292 178.146 46.846 178.299C47.5088 179.137 48.1717 179.966 48.7955 180.814C43.8771 180.518 38.9427 180.999 34.1736 182.237C34.1054 182.237 34.1249 182.364 34.1736 182.354C39.1119 181.387 44.1539 181.06 49.1757 181.379C49.7898 182.188 50.3747 183.027 50.9693 183.855C48.0395 183.77 45.1124 184.098 42.2742 184.83C42.261 184.826 42.2468 184.824 42.233 184.826C42.2191 184.828 42.2059 184.833 42.1945 184.842C42.1831 184.85 42.1738 184.86 42.1674 184.873C42.161 184.885 42.1576 184.899 42.1576 184.913C42.1576 184.927 42.161 184.941 42.1674 184.953C42.1738 184.966 42.1831 184.976 42.1945 184.985C42.2059 184.993 42.2191 184.998 42.233 185C42.2468 185.002 42.261 185 42.2742 184.996C45.2277 184.356 48.2549 184.123 51.2715 184.304C53.8645 187.862 56.3405 191.507 58.7287 195.202C57.4547 194.972 56.1439 195.052 54.9075 195.436C54.8946 195.436 54.8822 195.441 54.873 195.45C54.8639 195.459 54.8588 195.472 54.8588 195.485C54.8588 195.498 54.8639 195.51 54.873 195.519C54.8822 195.528 54.8946 195.533 54.9075 195.533C56.288 195.427 57.6763 195.493 59.0406 195.728C61.1852 199.069 63.2517 202.435 65.2403 205.827C65.562 206.129 66.0592 205.915 65.8642 205.623Z" fill="white"/>
<path d="M47.1481 186.876C44.7819 186.721 42.4077 187.012 40.149 187.734C40.0906 187.734 40.149 187.851 40.149 187.842C42.4512 187.454 44.7761 187.216 47.1091 187.13C47.2748 187.101 47.304 186.896 47.1481 186.876Z" fill="white"/>
<path d="M26.151 159.35C25.0749 159.268 23.9926 159.334 22.9342 159.545C22.9147 159.551 22.8977 159.563 22.8857 159.58C22.8737 159.597 22.8672 159.617 22.8672 159.637C22.8672 159.658 22.8737 159.678 22.8857 159.694C22.8977 159.711 22.9147 159.723 22.9342 159.73C23.9968 159.623 25.0398 159.662 26.1023 159.623C26.1385 159.629 26.1758 159.621 26.2059 159.6C26.2361 159.579 26.2567 159.547 26.2632 159.511C26.2696 159.474 26.2614 159.437 26.2404 159.407C26.2194 159.377 26.1872 159.356 26.151 159.35Z" fill="white"/>
<path d="M98.1592 285.741H43.834L51.5836 229.008L53.5624 214.464H88.4308L90.4096 229.008L98.1592 285.741Z" fill="#DBDBDB"/>
<path d="M90.41 229.008H51.584L53.5628 214.464H88.4312L90.41 229.008Z" fill="#C7C7C7"/>
<path d="M93.4128 209.414H48.5723V221.736H93.4128V209.414Z" fill="#DBDBDB"/>
<path d="M511.453 26.895C508.874 33.4593 507.357 40.3925 506.959 47.434H489.003H488.779V46.9368L488.925 45.5429C489.144 43.1233 489.535 40.7225 490.095 38.3586C491.037 34.4905 492.393 30.7353 494.141 27.1582C494.173 27.0711 494.234 26.9975 494.314 26.9497C494.394 26.9019 494.487 26.8826 494.579 26.895H511.424H511.453Z" fill="#EBEBEB"/>
<path d="M510.907 72.7581H494.199C494.111 72.7671 494.023 72.746 493.948 72.6982C493.874 72.6504 493.818 72.5787 493.79 72.4949C491.861 68.47 490.468 64.2096 489.647 59.8225C489.233 57.7115 488.959 55.5752 488.828 53.4279C488.828 53.3597 488.828 53.2817 488.779 53.2134V52.7065H489.052H506.667C506.988 52.7065 506.979 52.7065 506.998 53.038C507.115 54.4904 507.213 55.9624 507.349 57.4148C507.581 59.7297 507.955 62.0281 508.47 64.2968C509.074 67.0735 509.865 69.806 510.839 72.4754C510.849 72.5728 510.868 72.6606 510.907 72.7581Z" fill="#EBEBEB"/>
<path d="M581.169 78.0617C581.169 78.1592 581.072 78.2372 581.033 78.3054C579.613 80.4705 578.029 82.5235 576.295 84.4466C574.205 86.8085 571.879 88.9511 569.355 90.8413C566.878 92.7094 564.231 94.3412 561.449 95.7152C558.77 97.0529 555.973 98.1427 553.095 98.971C550.811 99.6214 548.486 100.116 546.135 100.453L545.453 100.57H545.053L544.683 100.345L545.131 100.034C550.236 96.5647 554.702 92.2376 558.33 87.2443C560.382 84.4294 562.185 81.4419 563.72 78.3151C563.747 78.2303 563.803 78.1575 563.877 78.1094C563.952 78.0614 564.042 78.041 564.13 78.052H581.218L581.169 78.0617Z" fill="#EBEBEB"/>
<path d="M564.462 47.4128H540.989V26.9422H541.262H559.306C559.385 26.9324 559.465 26.9517 559.532 26.9965C559.598 27.0413 559.646 27.1086 559.666 27.1859C561.356 31.0402 562.608 35.0718 563.4 39.2051C563.823 41.3537 564.126 43.5244 564.306 45.707C564.365 46.2333 564.414 46.8085 564.462 47.4128Z" fill="#EBEBEB"/>
<path d="M564.317 52.8918C564.317 53.3695 564.317 53.8666 564.249 54.3345C564.151 55.4751 564.063 56.6253 563.907 57.7561C563.683 59.3255 563.449 60.9047 563.128 62.4643C562.432 65.8867 561.413 69.2354 560.086 72.4657C560.065 72.5604 560.009 72.6439 559.93 72.6997C559.851 72.7556 559.754 72.7799 559.657 72.7679H540.854V52.8918H564.317Z" fill="#EBEBEB"/>
<path d="M535.697 27.0309V47.5698H512.779C512.779 47.0434 512.828 46.5365 512.887 46.0296C513.003 44.8794 513.091 43.7291 513.276 42.5886C513.559 40.8535 513.852 39.1086 514.251 37.3832C515.006 33.8998 516.106 30.5004 517.536 27.2356C517.563 27.1552 517.616 27.0862 517.687 27.0401C517.757 26.994 517.842 26.9735 517.926 26.9822H535.697V27.0309Z" fill="#EBEBEB"/>
<path d="M535.725 53.1639C535.725 59.5976 535.725 66.0345 535.725 72.4746V72.7573H517.389C517.299 72.7698 517.208 72.7489 517.132 72.6986C517.057 72.6483 517.003 72.5721 516.98 72.4843C515.588 69.1529 514.543 65.6872 513.86 62.1418C513.519 60.3189 513.256 58.4766 513.032 56.6342C512.876 55.4352 512.837 54.2167 512.759 52.9982C512.755 52.9561 512.755 52.9137 512.759 52.8715H535.403C535.666 52.8618 535.725 52.93 535.725 53.1639Z" fill="#EBEBEB"/>
<path d="M589.349 47.5605H570.116C569.727 40.4777 568.213 33.5019 565.632 26.8949H583.558C583.647 26.8829 583.736 26.9015 583.813 26.9476C583.889 26.9937 583.947 27.0646 583.977 27.1484C586.031 31.2139 587.523 35.5392 588.413 40.0059C588.893 42.3835 589.219 44.7898 589.388 47.2096L589.349 47.5605Z" fill="#EBEBEB"/>
<path d="M589.358 52.7356C589.358 53.2035 589.358 53.6422 589.3 54.0808C589.176 55.8158 588.965 57.5434 588.666 59.257C587.954 63.2353 586.766 67.1135 585.128 70.8083C584.874 71.4029 584.582 71.9878 584.319 72.5824C584.301 72.6415 584.263 72.6925 584.211 72.7264C584.159 72.7602 584.097 72.7748 584.036 72.7676H566.129C566.343 72.1535 566.558 71.5589 566.763 70.9545C567.799 67.899 568.595 64.7668 569.141 61.5867C569.553 59.2817 569.83 56.9544 569.97 54.6169C569.97 54.0613 570.038 53.5057 570.057 52.9598C570.057 52.8136 570.057 52.7356 570.262 52.7551C570.32 52.76 570.379 52.76 570.437 52.7551L589.358 52.7356Z" fill="#EBEBEB"/>
<path d="M580.644 21.6599V21.7477H580.39C574.785 21.7477 569.18 21.7477 563.575 21.7477C563.49 21.758 563.403 21.7397 563.329 21.6956C563.255 21.6515 563.197 21.5841 563.166 21.504C560.932 17.0366 558.127 12.8784 554.821 9.13382C552.871 6.97374 550.727 4.99643 548.417 3.22657C547.267 2.34925 546.078 1.52068 544.908 0.672606L544.713 0.526386L544.947 0.360673C544.947 0.263193 544.879 0.146219 544.83 0C550.761 0.665719 556.523 2.39607 561.84 5.10792C569.437 8.90176 575.917 14.6057 580.644 21.6599Z" fill="#EBEBEB"/>
<path d="M532.441 100.346C532.283 100.395 532.119 100.421 531.953 100.424C530.107 100.182 528.277 99.8274 526.475 99.361C523.108 98.5004 519.84 97.2883 516.727 95.7445C513.162 93.9696 509.821 91.7772 506.774 89.2134C504.608 87.4 502.609 85.397 500.799 83.2282C499.446 81.5871 498.199 79.8615 497.065 78.0618C497.032 78.0104 497.006 77.9546 496.987 77.896H497.26C502.485 77.896 507.7 77.896 512.925 77.896C513.009 77.8892 513.093 77.9103 513.163 77.9562C513.234 78.0021 513.287 78.07 513.315 78.1495C514.948 81.4431 516.876 84.5818 519.076 87.527C521.111 90.2043 523.367 92.7054 525.822 95.0037C527.841 96.9149 530.012 98.659 532.314 100.219L532.441 100.346Z" fill="#EBEBEB"/>
<path d="M532.236 0.497182C531.514 1.02357 530.676 1.6182 529.857 2.24206C527.124 4.37073 524.583 6.73559 522.264 9.30932C519.124 12.7307 516.447 16.5487 514.3 20.6657C514.163 20.9289 514.046 21.2018 513.89 21.4455C513.863 21.4873 513.827 21.5229 513.785 21.5498C513.743 21.5767 513.696 21.5943 513.646 21.6015C513.364 21.6015 513.081 21.6015 512.798 21.6015H497.494C506.024 9.56277 517.477 2.32005 532.06 0.156006C532.06 0.224241 531.992 0.292474 531.953 0.350962L532.236 0.497182Z" fill="#EBEBEB"/>
<path d="M557.453 78.0703C555.279 81.8638 552.661 85.3848 549.655 88.5591C547.014 91.4047 544.042 93.9245 540.804 96.065V78.0703H557.453Z" fill="#EBEBEB"/>
<path d="M535.696 78.0798V95.7236C529.069 91.1812 523.611 85.1352 519.768 78.0798H535.696Z" fill="#EBEBEB"/>
<path d="M556.937 21.5909H540.989V4.8147C544.26 6.94756 547.265 9.46417 549.938 12.3109C552.582 15.1564 554.928 18.2661 556.937 21.5909Z" fill="#EBEBEB"/>
<path d="M535.696 5.29297V21.728H520.392C524.135 15.1266 529.378 9.49702 535.696 5.29297Z" fill="#EBEBEB"/>
<path d="M232.009 89.6225H98.043V2.37842H232.009V89.6225ZM99.0178 88.6477H231.034V3.35321H99.0178V88.6477Z" fill="#EBEBEB"/>
<path d="M232.009 14.8168H98.043V2.37842H232.009V14.8168ZM99.0178 13.842H231.034V3.35321H99.0178V13.842Z" fill="#EBEBEB"/>
<path d="M109.292 8.71515C109.292 9.29354 109.121 9.85894 108.799 10.3399C108.478 10.8208 108.021 11.1956 107.487 11.4169C106.952 11.6383 106.365 11.6962 105.797 11.5833C105.23 11.4705 104.709 11.192 104.3 10.783C103.891 10.374 103.612 9.85295 103.5 9.28567C103.387 8.7184 103.445 8.1304 103.666 7.59604C103.887 7.06168 104.262 6.60496 104.743 6.28362C105.224 5.96228 105.789 5.79077 106.368 5.79077C107.143 5.79077 107.887 6.09888 108.436 6.6473C108.984 7.19573 109.292 7.93956 109.292 8.71515Z" fill="#C7C7C7"/>
<path d="M121.057 8.71556C121.057 9.29601 120.884 9.8633 120.56 10.3452C120.237 10.8271 119.777 11.2018 119.24 11.4217C118.703 11.6415 118.112 11.6965 117.544 11.5797C116.975 11.4628 116.454 11.1794 116.047 10.7656C115.64 10.3517 115.366 9.82606 115.258 9.25561C115.151 8.68516 115.216 8.0957 115.445 7.56226C115.674 7.02882 116.056 6.57555 116.543 6.26016C117.031 5.94476 117.601 5.7815 118.181 5.79118C118.563 5.79112 118.941 5.86709 119.293 6.01464C119.645 6.16219 119.964 6.37838 120.232 6.65059C120.5 6.9228 120.71 7.24559 120.852 7.60013C120.994 7.95466 121.063 8.33384 121.057 8.71556Z" fill="#EBEBEB"/>
<path d="M132.832 8.71515C132.832 9.29354 132.661 9.85894 132.339 10.3399C132.018 10.8208 131.561 11.1956 131.027 11.4169C130.493 11.6383 129.905 11.6962 129.337 11.5833C128.77 11.4705 128.249 11.192 127.84 10.783C127.431 10.374 127.152 9.85295 127.04 9.28567C126.927 8.7184 126.985 8.1304 127.206 7.59604C127.427 7.06168 127.802 6.60496 128.283 6.28362C128.764 5.96228 129.329 5.79077 129.908 5.79077C130.683 5.79077 131.427 6.09888 131.976 6.6473C132.524 7.19573 132.832 7.93956 132.832 8.71515Z" fill="#63388B"/>
<path d="M320.483 379C497.481 379 640.966 360.967 640.966 338.722C640.966 316.476 497.481 298.443 320.483 298.443C143.485 298.443 0 316.476 0 338.722C0 360.967 143.485 379 320.483 379Z" fill="#EBEBEB"/>
<path d="M4.37793 285.74L83.4045 285.506L162.431 285.418L320.484 285.253L478.537 285.418L557.564 285.506L636.59 285.74L557.564 285.984L478.537 286.062L320.484 286.227L162.431 286.062L83.4045 285.974L4.37793 285.74Z" fill="#263238"/>
<path d="M509.321 46.1848H130.916V299.31H509.321V46.1848Z" fill="#DBDBDB"/>
<path d="M506.572 49.2747H133.665V296.219H506.572V49.2747Z" fill="#263238"/>
<path d="M558.607 318.29H81.6309V335.661H558.607V318.29Z" fill="#C7C7C7"/>
<path d="M81.6309 318.288L130.916 299.309H509.322L558.607 318.288H81.6309Z" fill="#DBDBDB"/>
<path d="M135.322 311.562L167.13 299.309H473.118L504.925 311.562H135.322Z" fill="#263238"/>
<path d="M485.499 68.0398H154.741V277.465H485.499V68.0398Z" fill="white"/>
<path d="M485.507 68.0398H154.467V76.1013H485.507V68.0398Z" fill="#455A64"/>
<path d="M160.872 72.0756C160.872 72.4729 160.753 72.8611 160.531 73.1907C160.309 73.5203 159.994 73.7763 159.626 73.926C159.258 74.0757 158.854 74.1123 158.465 74.0312C158.076 73.9501 157.72 73.7548 157.443 73.4705C157.166 73.1861 156.979 72.8255 156.908 72.4347C156.836 72.0439 156.883 71.6407 157.041 71.2765C157.2 70.9123 157.464 70.6037 157.799 70.3901C158.134 70.1765 158.525 70.0676 158.922 70.0773C159.444 70.09 159.939 70.3061 160.304 70.6795C160.668 71.0529 160.872 71.5539 160.872 72.0756Z" fill="#C7C7C7"/>
<path d="M169.031 72.0756C169.031 72.4729 168.912 72.8611 168.69 73.1907C168.469 73.5203 168.154 73.7763 167.786 73.926C167.418 74.0757 167.013 74.1123 166.624 74.0312C166.235 73.9501 165.88 73.7548 165.602 73.4705C165.325 73.1861 165.138 72.8255 165.067 72.4347C164.995 72.0439 165.042 71.6407 165.201 71.2765C165.359 70.9123 165.623 70.6037 165.958 70.3901C166.293 70.1765 166.684 70.0676 167.081 70.0773C167.603 70.09 168.099 70.3061 168.463 70.6795C168.827 71.0529 169.031 71.5539 169.031 72.0756Z" fill="white"/>
<path d="M177.19 72.075C177.19 72.4702 177.073 72.8566 176.853 73.1852C176.634 73.5138 176.322 73.77 175.956 73.9212C175.591 74.0725 175.189 74.112 174.802 74.0349C174.414 73.9578 174.058 73.7675 173.779 73.488C173.499 73.2086 173.309 72.8525 173.232 72.4648C173.155 72.0772 173.194 71.6754 173.345 71.3103C173.497 70.9451 173.753 70.633 174.081 70.4134C174.41 70.1939 174.796 70.0767 175.192 70.0767C175.722 70.0767 176.23 70.2872 176.605 70.662C176.979 71.0367 177.19 71.545 177.19 72.075Z" fill="#63388B"/>
<path d="M170.63 183.115L299.254 183.115V93.034L170.63 93.034V183.115Z" fill="#EBEBEB"/>
<path d="M185.661 118.641C185.661 120.748 186.286 122.808 187.457 124.56C188.627 126.312 190.291 127.678 192.238 128.484C194.185 129.291 196.327 129.502 198.394 129.091C200.461 128.68 202.359 127.665 203.849 126.175C205.34 124.685 206.354 122.786 206.765 120.719C207.177 118.653 206.966 116.51 206.159 114.564C205.353 112.617 203.987 110.953 202.235 109.782C200.483 108.611 198.423 107.986 196.316 107.986C193.49 107.986 190.78 109.109 188.782 111.107C186.784 113.105 185.661 115.815 185.661 118.641Z" fill="#DBDBDB"/>
<path d="M227.724 163.706H299.264L263.489 115.229L227.724 163.706Z" fill="#C7C7C7"/>
<path d="M199.707 163.755H258.76L229.234 132.181L199.707 163.755Z" fill="#DBDBDB"/>
<path d="M299.254 163.706H170.63V183.114H299.254V163.706Z" fill="#DBDBDB"/>
<path d="M317.55 260.211H389.422V195.183H317.55V260.211Z" fill="#EBEBEB"/>
<path d="M326.841 209.394C326.518 211.015 326.724 212.696 327.43 214.191C328.136 215.685 329.303 216.913 330.761 217.692C332.218 218.472 333.887 218.762 335.522 218.52C337.157 218.278 338.67 217.516 339.839 216.347C341.007 215.179 341.769 213.665 342.011 212.031C342.253 210.396 341.963 208.727 341.183 207.269C340.404 205.812 339.176 204.644 337.682 203.939C336.188 203.233 334.506 203.027 332.885 203.35C331.394 203.648 330.024 204.381 328.948 205.457C327.872 206.532 327.139 207.902 326.841 209.394Z" fill="#DBDBDB"/>
<path d="M337.787 246.192H389.432L363.609 211.197L337.787 246.192Z" fill="#C7C7C7"/>
<path d="M317.561 246.223H360.198L338.879 223.432L317.561 246.223Z" fill="#DBDBDB"/>
<path d="M389.432 246.194H317.561V260.201H389.432V246.194Z" fill="#DBDBDB"/>
<path d="M432.849 93.0427H317.561V98.8622H432.849V93.0427Z" fill="#A6A6A6"/>
<path d="M457.921 105.081H317.561V110.901H457.921V105.081Z" fill="#DBDBDB"/>
<path d="M457.921 117.12H317.561V122.94H457.921V117.12Z" fill="#DBDBDB"/>
<path d="M457.921 129.17H317.561V134.989H457.921V129.17Z" fill="#DBDBDB"/>
<path d="M457.921 141.208H317.561V147.028H457.921V141.208Z" fill="#DBDBDB"/>
<path d="M410.741 153.247H317.561V159.067H410.741V153.247Z" fill="#DBDBDB"/>
<path d="M446.827 195.173H395.836V200.905H446.827V195.173Z" fill="#A6A6A6"/>
<path d="M457.911 207.036H395.836V212.768H457.911V207.036Z" fill="#DBDBDB"/>
<path d="M457.911 218.899H395.836V224.631H457.911V218.899Z" fill="#DBDBDB"/>
<path d="M457.911 230.752H395.836V236.484H457.911V230.752Z" fill="#DBDBDB"/>
<path d="M457.911 242.615H395.836V248.347H457.911V242.615Z" fill="#DBDBDB"/>
<path d="M437.967 254.479H395.836V260.21H437.967V254.479Z" fill="#DBDBDB"/>
<path d="M457.921 166.017H317.561V183.115H457.921V166.017Z" fill="#63388B"/>
<path d="M299.254 195.173H170.63V212.271H299.254V195.173Z" fill="#A6A6A6"/>
<path d="M299.254 218.5H170.63V224.28H299.254V218.5Z" fill="#DBDBDB"/>
<path d="M299.254 230.471H170.63V236.251H299.254V230.471Z" fill="#DBDBDB"/>
<path d="M299.254 242.449H170.63V248.23H299.254V242.449Z" fill="#DBDBDB"/>
<path d="M258.761 254.418H170.63V260.199H258.761V254.418Z" fill="#DBDBDB"/>
<path d="M485.499 76.0913H476.657V277.454H485.499V76.0913Z" fill="#DBDBDB"/>
<path d="M481.071 181.476C480.466 181.476 479.886 181.236 479.458 180.808C479.03 180.38 478.79 179.8 478.79 179.195V80.3706C478.79 79.7657 479.03 79.1855 479.458 78.7577C479.886 78.3299 480.466 78.0896 481.071 78.0896C481.676 78.0896 482.256 78.3299 482.684 78.7577C483.112 79.1855 483.352 79.7657 483.352 80.3706V179.195C483.352 179.8 483.112 180.38 482.684 180.808C482.256 181.236 481.676 181.476 481.071 181.476Z" fill="#A6A6A6"/>
<path d="M281.549 181.253V324.138C281.521 327.216 280.274 330.157 278.081 332.316C275.888 334.476 272.929 335.679 269.852 335.66H45.2591C42.1815 335.679 39.2221 334.476 37.0295 332.316C34.8369 330.157 33.5898 327.216 33.5615 324.138V181.253C33.5898 178.176 34.8372 175.237 37.0301 173.079C39.223 170.92 42.1824 169.72 45.2591 169.741H269.793C271.321 169.723 272.838 170.006 274.257 170.576C275.675 171.145 276.968 171.988 278.06 173.058C279.152 174.127 280.022 175.401 280.621 176.808C281.22 178.214 281.535 179.725 281.549 181.253Z" fill="#455A64"/>
<path d="M264.52 176.711H51.0498V328.467H264.52V176.711Z" fill="white"/>
<path d="M63.7509 253.603H158.452V187.288H63.7509L63.7509 253.603Z" fill="#EBEBEB"/>
<path d="M74.8341 206.149C74.8438 207.689 75.3093 209.192 76.172 210.468C77.0347 211.744 78.256 212.736 79.6818 213.319C81.1076 213.902 82.674 214.049 84.1835 213.743C85.693 213.436 87.078 212.69 88.1637 211.597C89.2495 210.505 89.9874 209.115 90.2844 207.604C90.5813 206.092 90.4241 204.527 89.8325 203.105C89.2408 201.683 88.2413 200.467 86.9599 199.613C85.6786 198.758 84.1728 198.302 82.6325 198.302C81.6043 198.302 80.5862 198.505 79.6369 198.9C78.6876 199.295 77.8257 199.874 77.1009 200.603C76.3761 201.332 75.8027 202.198 75.4137 203.15C75.0247 204.101 74.8277 205.121 74.8341 206.149Z" fill="#DBDBDB"/>
<path d="M105.784 239.322H158.452L132.113 203.635L105.784 239.322Z" fill="#C7C7C7"/>
<path d="M85.1572 239.351H128.633L106.895 216.112L85.1572 239.351Z" fill="#DBDBDB"/>
<path d="M158.452 239.321H63.751V253.611H158.452V239.321Z" fill="#DBDBDB"/>
<path d="M188.496 316.612H251.818V272.268H188.496V316.612Z" fill="#EBEBEB"/>
<path d="M195.895 284.882C195.893 285.922 196.199 286.938 196.775 287.804C197.351 288.669 198.171 289.344 199.131 289.743C200.091 290.142 201.148 290.248 202.168 290.046C203.188 289.845 204.125 289.345 204.86 288.611C205.596 287.876 206.098 286.94 206.301 285.92C206.505 284.901 206.401 283.844 206.004 282.883C205.606 281.923 204.933 281.102 204.069 280.524C203.204 279.946 202.188 279.638 201.149 279.638C200.459 279.636 199.776 279.771 199.139 280.034C198.501 280.297 197.922 280.683 197.434 281.17C196.946 281.657 196.559 282.236 196.295 282.873C196.031 283.51 195.895 284.193 195.895 284.882Z" fill="#DBDBDB"/>
<path d="M216.609 307.06H251.819L234.214 283.197L216.609 307.06Z" fill="#C7C7C7"/>
<path d="M202.815 307.089H231.884L217.35 291.541L202.815 307.089Z" fill="#DBDBDB"/>
<path d="M251.819 307.069H188.496V316.622H251.819V307.069Z" fill="#DBDBDB"/>
<path d="M251.828 187.297H166.621V203.498H251.828V187.297Z" fill="#63388B"/>
<path d="M251.828 209.65H166.621V211.921H251.828V209.65Z" fill="#DBDBDB"/>
<path d="M251.828 214.979H166.621V217.251H251.828V214.979Z" fill="#DBDBDB"/>
<path d="M251.828 220.313H166.621V222.584H251.828V220.313Z" fill="#DBDBDB"/>
<path d="M251.828 225.646H166.621V227.918H251.828V225.646Z" fill="#DBDBDB"/>
<path d="M251.828 230.976H166.621V233.248H251.828V230.976Z" fill="#DBDBDB"/>
<path d="M251.828 236.31H166.621V238.581H251.828V236.31Z" fill="#DBDBDB"/>
<path d="M215.604 241.643H166.621V243.915H215.604V241.643Z" fill="#DBDBDB"/>
<path d="M179.489 304.272H94.2822V306.544H179.489V304.272Z" fill="#DBDBDB"/>
<path d="M179.489 272.281H94.2822V274.552H179.489V272.281Z" fill="#DBDBDB"/>
<path d="M179.489 277.61H94.2822V279.882H179.489V277.61Z" fill="#DBDBDB"/>
<path d="M179.489 282.944H94.2822V285.215H179.489V282.944Z" fill="#DBDBDB"/>
<path d="M152.39 288.276H94.2822V290.547H152.39V288.276Z" fill="#DBDBDB"/>
<path d="M179.489 298.941H94.2822V301.212H179.489V298.941Z" fill="#DBDBDB"/>
<path d="M152.39 309.604H94.2822V311.875H152.39V309.604Z" fill="#DBDBDB"/>
<path d="M251.828 261.01H63.751V266.371H251.828V261.01Z" fill="#455A64"/>
<path d="M88.1013 272.281H63.751V316.624H88.1013V272.281Z" fill="#63388B"/>
<path d="M43.8364 234.632H43.6902C43.0172 234.632 42.4717 235.177 42.4717 235.85V269.529C42.4717 270.202 43.0172 270.748 43.6902 270.748H43.8364C44.5093 270.748 45.0549 270.202 45.0549 269.529V235.85C45.0549 235.177 44.5093 234.632 43.8364 234.632Z" fill="#37474F"/>
<path d="M278.567 252.686C278.569 253.612 278.296 254.518 277.782 255.289C277.269 256.06 276.538 256.661 275.683 257.017C274.828 257.372 273.886 257.466 272.978 257.285C272.069 257.105 271.234 256.659 270.579 256.004C269.924 255.349 269.479 254.515 269.298 253.606C269.118 252.698 269.212 251.756 269.567 250.901C269.922 250.045 270.524 249.315 271.295 248.801C272.066 248.288 272.971 248.015 273.898 248.017C275.135 248.019 276.321 248.512 277.197 249.387C278.072 250.262 278.564 251.449 278.567 252.686Z" fill="#37474F"/>
<path d="M592.558 139.143H505.694C503.345 139.168 501.102 140.125 499.457 141.803C497.812 143.48 496.9 145.742 496.921 148.091V326.868C496.903 329.217 497.816 331.477 499.46 333.154C501.104 334.831 503.346 335.789 505.694 335.817H592.539C594.887 335.789 597.129 334.831 598.773 333.154C600.417 331.477 601.33 329.217 601.312 326.868V148.111C601.338 145.761 600.431 143.498 598.79 141.816C597.149 140.135 594.908 139.173 592.558 139.143ZM595.863 321.341C595.863 326.05 592.334 329.851 587.986 329.851H510.295C505.938 329.851 502.419 326.05 502.419 321.341V154.866C502.419 145.284 505.938 144.816 510.295 144.816H525.892C526.799 144.816 527.539 145.791 527.539 147.116V147.662C527.539 150.655 529.177 150.665 531.185 150.665H567.106C569.124 150.665 570.742 150.665 570.742 147.662V147.136C570.742 145.859 571.473 144.835 572.4 144.835H587.996C592.344 144.835 595.873 146.112 595.873 154.885L595.863 321.341Z" fill="#455A64"/>
<path d="M554.045 146.931H544.228C544.068 146.931 543.914 146.868 543.801 146.754C543.688 146.641 543.624 146.487 543.624 146.327C543.624 146.167 543.688 146.013 543.801 145.9C543.914 145.786 544.068 145.723 544.228 145.723H554.045C554.206 145.723 554.361 145.786 554.475 145.899C554.59 146.012 554.656 146.166 554.659 146.327C554.656 146.488 554.59 146.642 554.475 146.755C554.361 146.868 554.206 146.931 554.045 146.931Z" fill="white"/>
<path d="M595.863 154.866V321.341C595.863 326.049 592.334 329.851 587.986 329.851H510.295C505.938 329.851 502.419 326.049 502.419 321.341V154.866C502.419 145.284 505.938 144.816 510.295 144.816H525.892C526.798 144.816 527.539 145.79 527.539 147.116V147.662C527.539 150.655 529.177 150.664 531.185 150.664H567.106C569.124 150.664 570.742 150.664 570.742 147.662V147.136C570.742 145.859 571.473 144.835 572.399 144.835H587.996C592.334 144.816 595.863 146.093 595.863 154.866Z" fill="white"/>
<path d="M595.864 154.866V167.285H502.41V154.866C502.41 145.284 505.939 144.816 510.296 144.816H525.893C526.79 144.816 527.531 145.79 527.531 147.116V147.662C527.531 150.655 529.168 150.664 531.167 150.664H567.107C569.125 150.664 570.753 150.664 570.753 147.662V147.136C570.753 145.859 571.484 144.835 572.4 144.835H587.997C592.335 144.816 595.864 146.093 595.864 154.866Z" fill="#63388B"/>
<path d="M511.27 161.222L508.512 158.639L511.27 156.056L511.699 156.504L509.428 158.639L511.699 160.774L511.27 161.222Z" fill="white"/>
<path d="M587.43 161.456H585.481V160.784C585.481 160.765 585.475 160.747 585.464 160.731C585.454 160.716 585.439 160.704 585.422 160.696L585.208 160.569C585.191 160.562 585.173 160.558 585.154 160.558C585.136 160.558 585.118 160.562 585.101 160.569L584.506 160.92L583.531 159.234L584.126 158.893C584.138 158.877 584.144 158.858 584.144 158.839C584.144 158.82 584.138 158.801 584.126 158.785V158.552C584.138 158.536 584.144 158.517 584.144 158.498C584.144 158.478 584.138 158.46 584.126 158.444L583.531 158.103L584.506 156.417L585.101 156.758C585.117 156.767 585.135 156.772 585.154 156.772C585.173 156.772 585.192 156.767 585.208 156.758L585.422 156.631C585.439 156.624 585.454 156.611 585.464 156.596C585.475 156.58 585.481 156.562 585.481 156.543V155.851H587.43V156.543C587.431 156.562 587.436 156.58 587.447 156.596C587.457 156.611 587.472 156.624 587.489 156.631L587.703 156.758C587.72 156.767 587.738 156.772 587.757 156.772C587.776 156.772 587.794 156.767 587.811 156.758L588.405 156.417L589.38 158.103L588.785 158.444C588.774 158.46 588.767 158.478 588.767 158.498C588.767 158.517 588.774 158.536 588.785 158.552V158.785C588.774 158.801 588.767 158.82 588.767 158.839C588.767 158.858 588.774 158.877 588.785 158.893L589.38 159.234L588.405 160.92L587.811 160.579C587.794 160.57 587.776 160.565 587.757 160.565C587.738 160.565 587.72 160.57 587.703 160.579L587.489 160.706C587.472 160.713 587.457 160.726 587.447 160.741C587.436 160.757 587.431 160.775 587.43 160.794V161.456ZM585.968 160.969H586.943V160.784C586.944 160.675 586.975 160.569 587.032 160.476C587.088 160.384 587.169 160.308 587.265 160.257C587.323 160.23 587.379 160.198 587.43 160.16C587.525 160.105 587.633 160.076 587.742 160.076C587.852 160.076 587.959 160.105 588.054 160.16L588.23 160.267L588.717 159.419L588.542 159.312C588.448 159.259 588.37 159.181 588.318 159.086C588.267 158.991 588.243 158.884 588.249 158.776V158.581C588.243 158.472 588.267 158.363 588.319 158.267C588.37 158.17 588.448 158.09 588.542 158.035L588.717 157.937L588.23 157.089L588.054 157.197C587.961 157.251 587.855 157.28 587.747 157.28C587.639 157.28 587.533 157.251 587.44 157.197L587.265 157.099C587.169 157.048 587.088 156.973 587.032 156.88C586.975 156.787 586.944 156.681 586.943 156.573V156.368H585.968V156.573C585.967 156.681 585.936 156.787 585.88 156.88C585.823 156.973 585.743 157.048 585.647 157.099C585.588 157.126 585.533 157.159 585.481 157.197C585.386 157.251 585.278 157.28 585.169 157.28C585.059 157.28 584.952 157.251 584.857 157.197L584.682 157.089L584.194 157.937L584.37 158.035C584.464 158.09 584.541 158.17 584.592 158.267C584.644 158.363 584.668 158.472 584.662 158.581V158.776C584.668 158.885 584.644 158.993 584.592 159.09C584.541 159.186 584.464 159.266 584.37 159.322L584.194 159.419L584.682 160.267L584.857 160.16C584.952 160.105 585.059 160.076 585.169 160.076C585.278 160.076 585.386 160.105 585.481 160.16C585.533 160.198 585.588 160.23 585.647 160.257C585.743 160.308 585.823 160.384 585.88 160.476C585.936 160.569 585.967 160.675 585.968 160.784V160.969ZM586.456 160.082C586.17 160.082 585.891 159.997 585.654 159.839C585.417 159.68 585.232 159.455 585.123 159.191C585.014 158.928 584.985 158.638 585.041 158.358C585.096 158.078 585.234 157.821 585.436 157.619C585.637 157.417 585.894 157.28 586.174 157.224C586.454 157.169 586.744 157.197 587.008 157.306C587.271 157.416 587.497 157.6 587.655 157.838C587.814 158.075 587.898 158.354 587.898 158.639C587.896 159.021 587.743 159.387 587.473 159.657C587.203 159.927 586.837 160.079 586.456 160.082ZM586.456 157.684C586.263 157.684 586.074 157.741 585.914 157.848C585.754 157.955 585.629 158.108 585.555 158.286C585.481 158.464 585.462 158.66 585.5 158.849C585.537 159.038 585.63 159.212 585.766 159.348C585.903 159.484 586.076 159.577 586.265 159.615C586.455 159.652 586.651 159.633 586.829 159.559C587.007 159.486 587.159 159.361 587.266 159.2C587.373 159.04 587.43 158.852 587.43 158.659C587.43 158.4 587.328 158.152 587.145 157.969C586.962 157.787 586.714 157.684 586.456 157.684Z" fill="white"/>
<path d="M523.173 148.549L523.026 148.705L522.939 148.793C522.748 148.598 522.521 148.444 522.269 148.338C522.018 148.233 521.749 148.178 521.476 148.178C521.204 148.178 520.934 148.233 520.683 148.338C520.432 148.444 520.205 148.598 520.014 148.793L519.936 148.705L519.79 148.559C519.847 148.499 519.909 148.443 519.975 148.393C520.109 148.281 520.256 148.186 520.414 148.11C520.6 148.021 520.796 147.955 520.999 147.916H521.291H521.74C521.922 147.938 522.102 147.981 522.276 148.042C522.401 148.091 522.521 148.15 522.636 148.218C522.761 148.284 522.878 148.363 522.987 148.452L523.143 148.598L523.173 148.549Z" fill="white"/>
<path d="M520.511 149.261L520.277 149.027C520.436 148.868 520.624 148.742 520.832 148.656C521.039 148.57 521.261 148.525 521.486 148.525C521.711 148.525 521.933 148.57 522.141 148.656C522.348 148.742 522.536 148.868 522.695 149.027L522.461 149.271C522.202 149.014 521.851 148.87 521.486 148.87C521.121 148.87 520.771 149.014 520.511 149.271V149.261Z" fill="white"/>
<path d="M522.266 149.494L522.032 149.737C521.968 149.673 521.893 149.621 521.809 149.586C521.725 149.551 521.635 149.533 521.545 149.533C521.454 149.533 521.364 149.551 521.28 149.586C521.197 149.621 521.121 149.673 521.057 149.737L520.823 149.494C521.016 149.306 521.275 149.2 521.545 149.2C521.814 149.2 522.073 149.306 522.266 149.494Z" fill="white"/>
<path d="M521.701 149.953C521.701 149.995 521.689 150.037 521.665 150.072C521.642 150.107 521.608 150.135 521.569 150.151C521.53 150.167 521.487 150.172 521.445 150.163C521.403 150.155 521.365 150.135 521.335 150.105C521.305 150.075 521.285 150.036 521.277 149.995C521.268 149.953 521.273 149.91 521.289 149.871C521.305 149.832 521.332 149.798 521.368 149.775C521.403 149.751 521.444 149.739 521.487 149.739C521.515 149.737 521.544 149.742 521.571 149.752C521.597 149.762 521.621 149.778 521.642 149.798C521.662 149.818 521.678 149.843 521.688 149.869C521.698 149.896 521.703 149.924 521.701 149.953Z" fill="white"/>
<path d="M508.512 149.008C508.512 148.845 508.576 148.689 508.692 148.573C508.807 148.458 508.963 148.394 509.126 148.394C509.29 148.394 509.447 148.458 509.564 148.573C509.68 148.688 509.747 148.844 509.75 149.008C509.75 149.173 509.684 149.332 509.567 149.449C509.45 149.566 509.291 149.632 509.126 149.632C508.962 149.629 508.806 149.562 508.691 149.445C508.576 149.329 508.512 149.171 508.512 149.008Z" fill="white"/>
<path d="M510.461 149.008C510.461 148.845 510.526 148.689 510.641 148.574C510.756 148.459 510.912 148.394 511.075 148.394C511.239 148.394 511.396 148.458 511.513 148.573C511.63 148.688 511.696 148.844 511.699 149.008C511.699 149.173 511.633 149.332 511.516 149.449C511.399 149.566 511.241 149.632 511.075 149.632C510.911 149.629 510.755 149.562 510.64 149.446C510.525 149.329 510.461 149.172 510.461 149.008Z" fill="white"/>
<path d="M512.411 149.007C512.43 148.857 512.503 148.718 512.617 148.617C512.731 148.517 512.878 148.461 513.03 148.461C513.182 148.461 513.329 148.517 513.443 148.617C513.557 148.718 513.63 148.857 513.649 149.007C513.66 149.095 513.652 149.184 513.626 149.269C513.6 149.354 513.556 149.432 513.498 149.498C513.439 149.564 513.367 149.618 513.287 149.654C513.206 149.69 513.119 149.709 513.03 149.709C512.942 149.709 512.854 149.69 512.773 149.654C512.693 149.618 512.621 149.564 512.562 149.498C512.504 149.432 512.46 149.354 512.434 149.269C512.408 149.184 512.4 149.095 512.411 149.007Z" fill="white"/>
<path d="M514.36 149.008C514.36 148.885 514.397 148.764 514.465 148.662C514.534 148.559 514.631 148.479 514.745 148.432C514.859 148.385 514.985 148.372 515.106 148.396C515.227 148.42 515.338 148.48 515.425 148.567C515.513 148.654 515.572 148.765 515.596 148.886C515.62 149.007 515.608 149.133 515.561 149.247C515.513 149.361 515.433 149.458 515.331 149.527C515.228 149.595 515.108 149.632 514.984 149.632C514.819 149.632 514.66 149.566 514.543 149.449C514.426 149.332 514.36 149.174 514.36 149.008Z" fill="white"/>
<path d="M516.31 149.008C516.312 148.844 516.379 148.688 516.496 148.573C516.612 148.458 516.77 148.394 516.933 148.394C517.096 148.394 517.252 148.459 517.368 148.574C517.483 148.689 517.548 148.845 517.548 149.008C517.548 149.172 517.483 149.329 517.368 149.446C517.253 149.562 517.097 149.629 516.933 149.632C516.768 149.632 516.609 149.566 516.492 149.449C516.375 149.332 516.31 149.173 516.31 149.008Z" fill="white"/>
<path d="M588.844 150.351H583.814V148.031H588.844V150.351ZM584.058 150.108H588.601V148.275H584.058V150.108Z" fill="white"/>
<path d="M587.47 148.423H584.224V149.963H587.47V148.423Z" fill="white"/>
<path d="M589.303 148.569H588.854V149.817H589.303V148.569Z" fill="white"/>
<path d="M516.612 319.675H515.901V322.941H514.575V321.274H512.226V322.941H510.9V319.675H510.188L513.405 316.361L516.612 319.675Z" fill="#EBEBEB"/>
<path d="M588.104 316.361H580.354V317.472H588.104V316.361Z" fill="#EBEBEB"/>
<path d="M588.104 319.088H580.354V320.2H588.104V319.088Z" fill="#EBEBEB"/>
<path d="M588.104 321.829H580.354V322.941H588.104V321.829Z" fill="#EBEBEB"/>
<path d="M516.466 183.631C515.643 184.145 514.692 184.417 513.722 184.417C512.752 184.417 511.801 184.145 510.978 183.631C510.013 183.035 509.269 182.139 508.859 181.082C508.449 180.024 508.395 178.861 508.706 177.77C509.016 176.679 509.674 175.719 510.579 175.035C511.484 174.351 512.588 173.981 513.722 173.981C514.856 173.981 515.96 174.351 516.865 175.035C517.77 175.719 518.428 176.679 518.738 177.77C519.049 178.861 518.995 180.024 518.585 181.082C518.174 182.139 517.431 183.035 516.466 183.631Z" fill="#DBDBDB"/>
<path d="M515.307 178.603C515.307 178.917 515.213 179.225 515.038 179.486C514.863 179.748 514.614 179.952 514.324 180.071C514.033 180.191 513.713 180.222 513.404 180.16C513.096 180.098 512.813 179.946 512.591 179.723C512.369 179.499 512.218 179.215 512.158 178.907C512.098 178.598 512.131 178.278 512.253 177.988C512.374 177.698 512.58 177.45 512.842 177.277C513.105 177.103 513.413 177.012 513.728 177.014C514.147 177.016 514.549 177.185 514.845 177.483C515.141 177.78 515.307 178.183 515.307 178.603Z" fill="white"/>
<path d="M516.466 182.98V183.633C515.642 184.147 514.692 184.419 513.722 184.419C512.751 184.419 511.801 184.147 510.978 183.633V182.98C511.019 182.281 511.327 181.624 511.837 181.143C512.347 180.663 513.021 180.395 513.722 180.395C514.422 180.395 515.097 180.663 515.607 181.143C516.117 181.624 516.424 182.281 516.466 182.98Z" fill="white"/>
<path d="M558.616 174.284H525.473V177.014H558.616V174.284Z" fill="#EBEBEB"/>
<path d="M554.405 178.837H525.473V180.65H554.405V178.837Z" fill="#EBEBEB"/>
<path d="M573.306 182.326H525.473V184.139H573.306V182.326Z" fill="#EBEBEB"/>
<path d="M502.419 254.158H595.862V188.73H502.419V254.158Z" fill="#EBEBEB"/>
<path d="M513.337 207.33C513.337 208.861 513.791 210.357 514.641 211.63C515.492 212.903 516.701 213.895 518.115 214.481C519.529 215.066 521.085 215.22 522.587 214.921C524.088 214.622 525.467 213.885 526.55 212.803C527.632 211.72 528.369 210.341 528.668 208.84C528.967 207.339 528.813 205.782 528.227 204.368C527.642 202.954 526.65 201.745 525.377 200.894C524.104 200.044 522.608 199.59 521.077 199.59C519.024 199.59 517.055 200.406 515.604 201.857C514.152 203.309 513.337 205.277 513.337 207.33Z" fill="#DBDBDB"/>
<path d="M543.906 240.064H595.863L569.884 204.844L543.906 240.064Z" fill="#C7C7C7"/>
<path d="M523.533 240.092H566.434L544.979 217.165L523.533 240.092Z" fill="#DBDBDB"/>
<path d="M595.863 240.063H502.419V254.159H595.863V240.063Z" fill="#DBDBDB"/>
<path d="M516.466 288.657C515.643 289.17 514.692 289.442 513.722 289.442C512.752 289.442 511.801 289.17 510.978 288.657C510.013 288.06 509.269 287.165 508.859 286.107C508.449 285.049 508.395 283.887 508.706 282.795C509.016 281.704 509.674 280.744 510.579 280.06C511.484 279.377 512.588 279.007 513.722 279.007C514.856 279.007 515.96 279.377 516.865 280.06C517.77 280.744 518.428 281.704 518.738 282.795C519.049 283.887 518.995 285.049 518.585 286.107C518.174 287.165 517.431 288.06 516.466 288.657Z" fill="#DBDBDB"/>
<path d="M513.727 285.215C514.604 285.215 515.316 284.504 515.316 283.626C515.316 282.748 514.604 282.037 513.727 282.037C512.849 282.037 512.138 282.748 512.138 283.626C512.138 284.504 512.849 285.215 513.727 285.215Z" fill="white"/>
<path d="M516.466 288.004V288.657C515.642 289.17 514.692 289.443 513.722 289.443C512.751 289.443 511.801 289.17 510.978 288.657V288.004C511.019 287.305 511.327 286.647 511.837 286.167C512.347 285.686 513.021 285.419 513.722 285.419C514.422 285.419 515.097 285.686 515.607 286.167C516.117 286.647 516.424 287.305 516.466 288.004Z" fill="white"/>
<path d="M568.091 279.308H525.473V282.037H568.091V279.308Z" fill="#EBEBEB"/>
<path d="M579.886 283.862H525.473V285.675H579.886V283.862Z" fill="#EBEBEB"/>
<path d="M544.003 287.349H525.473V289.162H544.003V287.349Z" fill="#EBEBEB"/>
<path d="M595.843 293.754H502.419V309.731H595.843V293.754Z" fill="#EBEBEB"/>
<path d="M528.358 309.742H513.795C514.33 308.239 515.318 306.939 516.621 306.019C517.925 305.1 519.481 304.606 521.077 304.606C522.672 304.606 524.228 305.1 525.532 306.019C526.836 306.939 527.823 308.239 528.358 309.742Z" fill="#DBDBDB"/>
<path d="M508.697 261.82C508.553 261.226 508.587 260.603 508.797 260.028C509.007 259.454 509.382 258.955 509.875 258.595C510.368 258.234 510.958 258.027 511.568 258.001C512.179 257.975 512.783 258.131 513.305 258.449C513.828 258.766 514.244 259.232 514.502 259.786C514.759 260.34 514.847 260.958 514.753 261.562C514.659 262.166 514.389 262.729 513.975 263.179C513.562 263.629 513.024 263.946 512.431 264.091C512.036 264.188 511.627 264.207 511.225 264.145C510.824 264.084 510.438 263.943 510.091 263.732C509.744 263.521 509.443 263.243 509.203 262.915C508.964 262.587 508.792 262.215 508.697 261.82Z" fill="#EBEBEB"/>
<path fill-rule="evenodd" clip-rule="evenodd" d="M511.28 262.319C511.192 262.271 511.124 262.193 511.016 262.203C510.909 262.212 511.016 262.203 511.016 262.154V260.916C511.009 260.906 511.005 260.894 511.005 260.882C511.005 260.869 511.009 260.857 511.016 260.848C511.328 260.692 511.465 260.38 511.66 260.107C511.763 259.969 511.836 259.811 511.875 259.643C511.913 259.475 511.916 259.301 511.884 259.132C511.884 259.044 511.884 259.005 512.001 258.986C512.042 258.969 512.087 258.966 512.13 258.979C512.172 258.991 512.209 259.018 512.235 259.054C512.327 259.223 512.386 259.409 512.41 259.6C512.43 259.752 512.43 259.906 512.41 260.058C512.41 260.175 512.362 260.282 512.342 260.399C512.323 260.516 512.401 260.399 512.43 260.399H513.473C513.619 260.399 513.697 260.399 513.717 260.536C513.727 260.596 513.717 260.658 513.689 260.713C513.661 260.767 513.616 260.811 513.561 260.838C513.561 260.838 513.492 260.838 513.492 260.887C513.492 260.935 513.492 260.887 513.561 260.935C513.629 260.984 513.658 261.198 513.561 261.306C513.463 261.413 513.463 261.306 513.463 261.364C513.463 261.423 513.522 261.364 513.551 261.442C513.573 261.471 513.588 261.504 513.596 261.54C513.603 261.575 513.601 261.612 513.592 261.647C513.583 261.682 513.565 261.714 513.541 261.741C513.517 261.768 513.487 261.789 513.453 261.803H513.385C513.385 261.803 513.385 261.803 513.385 261.852C513.42 261.868 513.45 261.894 513.471 261.927C513.492 261.96 513.503 261.998 513.503 262.037C513.503 262.076 513.492 262.114 513.471 262.146C513.45 262.179 513.42 262.205 513.385 262.222C513.325 262.241 513.26 262.241 513.2 262.222H511.562C511.556 262.251 511.542 262.278 511.522 262.301C511.502 262.323 511.477 262.34 511.448 262.35C511.42 262.36 511.389 262.362 511.36 262.357C511.33 262.351 511.303 262.339 511.28 262.319Z" fill="white"/>
<path fill-rule="evenodd" clip-rule="evenodd" d="M509.72 261.598C509.72 261.335 509.72 261.071 509.72 260.808C509.72 260.759 509.72 260.73 509.798 260.73C510.11 260.73 510.431 260.73 510.773 260.73C510.831 260.73 510.841 260.73 510.841 260.808V262.387C510.841 262.456 510.841 262.475 510.753 262.475H509.827C509.749 262.475 509.739 262.475 509.739 262.378C509.729 262.163 509.72 261.861 509.72 261.598Z" fill="white"/>
<path d="M515.19 261.819C515.046 261.226 515.081 260.603 515.29 260.03C515.5 259.456 515.875 258.958 516.368 258.597C516.861 258.236 517.449 258.03 518.059 258.003C518.669 257.977 519.274 258.132 519.796 258.449C520.318 258.766 520.734 259.23 520.993 259.783C521.251 260.337 521.34 260.954 521.247 261.558C521.155 262.161 520.886 262.724 520.474 263.175C520.062 263.626 519.526 263.944 518.933 264.091C518.538 264.19 518.127 264.209 517.725 264.148C517.322 264.087 516.936 263.947 516.588 263.736C516.239 263.525 515.937 263.247 515.697 262.918C515.457 262.589 515.284 262.215 515.19 261.819Z" fill="#63388B"/>
<path d="M519.77 261.48C519.77 261.899 519.604 262.301 519.308 262.597C519.012 262.893 518.61 263.059 518.191 263.059C517.773 263.059 517.371 262.893 517.075 262.597C516.779 262.301 516.612 261.899 516.612 261.48C516.511 261.333 516.443 261.165 516.413 260.989C516.382 260.813 516.39 260.632 516.435 260.46C516.481 260.287 516.562 260.126 516.675 259.987C516.788 259.849 516.93 259.736 517.09 259.657C517.967 259.394 518.191 260.924 518.191 260.924C518.191 260.924 518.416 259.394 519.303 259.657C519.917 259.842 520.16 260.69 519.77 261.48Z" fill="white"/>
<path d="M569.884 260.689H525.989V262.473H569.884V260.689Z" fill="#EBEBEB"/>
<path d="M502.419 271.345L514.097 271.17L525.775 271.072L549.131 270.984L572.487 271.072L584.165 271.17L595.843 271.345L584.165 271.53L572.487 271.628L549.131 271.715L525.775 271.628L514.097 271.53L502.419 271.345Z" fill="#EBEBEB"/>
<path d="M362.077 355.79C361.346 353.723 323.612 305.958 321.077 305.1C320.794 304.983 304.623 317.012 304.623 317.012C303.96 317.929 272.61 311.982 272.61 311.982L273.088 349.639L329.909 347.241C329.909 347.241 337.707 351.598 344.784 355.127C347.804 356.75 350.923 358.182 354.123 359.416C356.998 360.069 362.818 357.837 362.077 355.79Z" fill="#F7A9A0"/>
<path d="M354.143 359.397C350.946 358.164 347.831 356.732 344.814 355.108C337.718 351.579 329.939 347.222 329.939 347.222L317.267 347.758L296.796 316.204C301.163 316.886 304.409 317.276 304.594 316.983C304.594 316.983 320.756 304.964 321.049 305.081C323.583 305.958 361.318 353.723 362.049 355.77C362.78 357.818 356.999 360.079 354.143 359.397Z" fill="white"/>
<path d="M362.399 355.837C361.629 353.732 323.729 305.996 321.126 305.09C320.151 304.739 312.217 309.866 304.604 316.992L329.071 347.727C329.071 347.727 351.296 358.918 354.25 359.61C357.203 360.302 363.179 357.953 362.399 355.837Z" fill="#63388B"/>
<path d="M359.962 356.718C353.412 348.92 327.736 316.605 321.858 308.359C321.809 308.29 321.858 308.251 321.858 308.359C328.515 315.991 353.938 348.462 360.04 356.65C360.225 356.718 360.099 356.845 359.962 356.718Z" fill="#263238"/>
<path d="M350.117 357.907C349.385 357.036 348.843 356.021 348.524 354.929C348.205 353.836 348.117 352.69 348.265 351.561C348.514 349.532 349.537 347.677 351.121 346.385C351.17 346.385 351.238 346.434 351.189 346.482C349.82 348.011 348.984 349.943 348.808 351.988C348.633 354.033 349.126 356.079 350.215 357.819C350.263 357.888 350.166 357.966 350.117 357.907Z" fill="#263238"/>
<path d="M331.888 349.61C329.295 346.442 327.482 341.812 328.525 337.756C328.525 337.6 328.789 337.659 328.808 337.756C329.566 341.721 330.746 345.594 332.327 349.308C332.367 349.366 332.382 349.438 332.37 349.507C332.357 349.577 332.317 349.638 332.259 349.678C332.201 349.718 332.129 349.734 332.059 349.721C331.99 349.708 331.928 349.668 331.888 349.61Z" fill="#263238"/>
<path d="M334.813 351.317C332.23 348.149 330.407 343.519 331.45 339.464C331.45 339.308 331.713 339.366 331.743 339.464C332.493 343.429 333.669 347.302 335.252 351.015C335.292 351.073 335.307 351.145 335.295 351.214C335.282 351.284 335.242 351.345 335.184 351.385C335.155 351.405 335.122 351.419 335.088 351.427C335.054 351.434 335.019 351.434 334.984 351.428C334.915 351.415 334.853 351.375 334.813 351.317Z" fill="#263238"/>
<path d="M337.737 353.022C335.154 349.854 333.341 345.224 334.374 341.169C334.374 341.013 334.637 341.071 334.667 341.169C335.423 345.133 336.599 349.005 338.176 352.72C338.216 352.778 338.231 352.85 338.219 352.919C338.206 352.989 338.166 353.05 338.108 353.091C338.05 353.131 337.978 353.146 337.908 353.133C337.839 353.12 337.777 353.08 337.737 353.022Z" fill="#263238"/>
<path d="M340.672 354.766C338.079 351.598 336.266 346.968 337.299 342.913C337.299 342.757 337.562 342.815 337.591 342.913C338.347 346.878 339.526 350.751 341.11 354.464C341.151 354.522 341.166 354.594 341.153 354.663C341.14 354.733 341.1 354.794 341.042 354.834C341.013 354.854 340.981 354.868 340.947 354.876C340.913 354.883 340.877 354.883 340.843 354.877C340.773 354.864 340.712 354.824 340.672 354.766Z" fill="#263238"/>
<path d="M315.873 316.389C313.027 312.783 318.622 308.367 321.468 311.973C324.315 315.58 318.719 319.996 315.873 316.389Z" fill="#263238"/>
<path d="M330.583 355.867C331.441 352.368 330.749 348.625 330.515 345.086C330.503 345.009 330.473 344.936 330.427 344.872C330.382 344.808 330.322 344.757 330.253 344.72C330.183 344.684 330.107 344.665 330.028 344.664C329.95 344.664 329.873 344.681 329.803 344.716C329.792 344.703 329.779 344.693 329.763 344.686C329.748 344.68 329.732 344.676 329.715 344.676C329.699 344.676 329.682 344.68 329.667 344.686C329.652 344.693 329.639 344.703 329.628 344.716C326.888 347.285 324.871 350.529 323.779 354.122C323.184 356.228 323.486 359.318 326.118 359.874C328.75 360.429 330.086 357.914 330.583 355.867ZM328.048 358.119C324.305 360.576 324.49 355.302 324.997 353.772C325.334 352.768 325.745 351.791 326.226 350.847C327.235 348.934 328.342 347.073 329.54 345.271C329.54 347.016 329.706 348.742 329.774 350.477C329.862 352.592 330.105 356.774 328.048 358.119Z" fill="#263238"/>
<path d="M318.534 334.94C316.643 336.89 318.085 339.6 319.752 341.023C322.65 343.425 326.13 345.019 329.841 345.643C329.929 345.643 329.968 345.595 329.968 345.526C330.047 345.518 330.122 345.491 330.188 345.448C330.254 345.405 330.309 345.347 330.348 345.278C330.387 345.209 330.409 345.133 330.413 345.054C330.416 344.975 330.401 344.896 330.368 344.825C328.613 341.744 327.122 338.245 324.519 335.798C322.959 334.365 320.347 333.137 318.534 334.94ZM326.751 340.701C327.658 342.193 328.477 343.723 329.422 345.185C327.473 344.279 325.465 343.46 323.573 342.358C322.662 341.839 321.786 341.26 320.951 340.623C319.684 339.648 316.633 335.32 321.107 335.311C323.603 335.272 325.708 338.927 326.771 340.701H326.751Z" fill="#263238"/>
<path d="M270.769 303.005L245.141 300.987C245.141 300.987 208.099 290.264 186.732 295.869C162.206 302.312 158.745 330.962 183.681 342.445C208.382 353.791 316.945 349.619 316.945 349.619L293.667 315.141C293.667 315.141 257.911 306.748 226.611 308.454L270.925 313.552L270.769 303.005Z" fill="#37474F"/>
<path d="M270.505 310.298C266.694 309.674 262.834 309.323 258.993 309.001C255.152 308.68 251.195 308.358 247.296 308.114C239.537 307.607 231.758 307.49 223.988 307.763C223.257 307.763 222.536 307.832 221.805 307.88C221.648 307.835 221.488 307.8 221.327 307.773C220.957 307.685 220.576 307.598 220.206 307.539C219.494 307.422 218.793 307.334 218.081 307.237C216.609 307.042 215.157 306.915 213.665 306.672C213.577 306.672 213.538 306.798 213.665 306.808C215.147 307.11 216.59 307.5 218.081 307.783L219.358 308.027C216.512 308.231 213.675 308.514 210.838 308.836C210.751 308.836 210.751 308.982 210.838 308.972C214.737 308.66 218.637 308.553 222.477 308.543C226.318 308.533 230.168 308.543 234.019 308.67C241.817 308.953 249.616 309.489 257.336 310.142C261.684 310.503 266.051 310.951 270.418 311.039C270.847 311.058 270.934 310.366 270.505 310.298Z" fill="#263238"/>
<path d="M305.862 348.83C304.429 346.637 303.191 344.287 301.875 342.006L297.898 335.183C295.246 330.65 285.752 315.424 284.826 314.361C284.767 314.293 284.65 314.361 284.679 314.459C285.138 315.638 291.074 325.727 292.478 327.979C295.207 332.473 298.073 336.879 300.89 341.314C301.699 342.581 302.528 343.839 303.347 345.096C304.166 346.354 305.033 347.592 305.784 348.888C305.754 348.986 305.862 348.918 305.862 348.83Z" fill="#263238"/>
<path d="M178.329 362.731C178.962 360.635 214.396 311.145 216.882 310.141C217.165 310.014 233.892 321.254 233.892 321.254C234.594 322.141 265.622 314.722 265.622 314.722L266.928 352.359L210.058 352.652C210.058 352.652 202.504 357.37 195.573 361.24C192.632 363.002 189.584 364.58 186.449 365.967C183.602 366.776 177.685 364.817 178.329 362.731Z" fill="#F7A9A0"/>
<path d="M186.43 365.968C189.564 364.584 192.608 363.005 195.544 361.24C202.465 357.341 210.029 352.652 210.029 352.652L222.702 352.593L241.662 320.104C237.333 320.991 234.107 321.536 233.863 321.254C233.863 321.254 217.136 310.005 216.853 310.141C214.367 311.116 178.934 360.635 178.3 362.731C177.666 364.827 183.603 366.777 186.43 365.968Z" fill="white"/>
<path d="M177.998 362.808C178.66 360.663 214.27 311.144 216.814 310.169C217.789 309.769 225.948 314.517 233.892 321.262L210.897 353.138C210.897 353.138 189.237 365.362 186.313 366.19C183.388 367.019 177.335 364.952 177.998 362.808Z" fill="#63388B"/>
<path d="M180.493 363.54C186.664 355.391 210.78 321.955 216.268 313.426C216.268 313.358 216.268 313.328 216.21 313.426C209.922 321.361 186.069 355.001 180.357 363.472C180.23 363.599 180.357 363.696 180.493 363.54Z" fill="#263238"/>
<path d="M190.388 364.281C191.075 363.375 191.566 362.337 191.831 361.231C192.096 360.125 192.129 358.977 191.928 357.858C191.6 355.849 190.511 354.044 188.887 352.818C188.887 352.818 188.77 352.876 188.809 352.925C190.249 354.387 191.177 356.277 191.451 358.311C191.725 360.344 191.332 362.412 190.329 364.203C190.328 364.212 190.328 364.222 190.331 364.23C190.333 364.239 190.337 364.247 190.342 364.255C190.348 364.262 190.355 364.268 190.362 364.273C190.37 364.277 190.379 364.28 190.388 364.281Z" fill="#263238"/>
<path d="M208.197 355.127C210.634 351.842 212.233 347.154 210.995 343.137C210.995 342.981 210.732 343.05 210.712 343.186C210.157 347.178 209.177 351.1 207.788 354.884C207.778 354.935 207.784 354.988 207.805 355.035C207.827 355.083 207.862 355.122 207.907 355.149C207.952 355.176 208.004 355.188 208.055 355.184C208.107 355.18 208.157 355.16 208.197 355.127Z" fill="#263238"/>
<path d="M205.35 356.969C207.787 353.684 209.386 348.996 208.158 344.979C208.158 344.823 207.885 344.892 207.865 345.028C207.31 349.02 206.33 352.942 204.941 356.726C204.931 356.777 204.937 356.83 204.959 356.877C204.98 356.925 205.016 356.964 205.06 356.991C205.105 357.018 205.157 357.03 205.209 357.026C205.261 357.022 205.31 357.002 205.35 356.969Z" fill="#263238"/>
<path d="M202.532 358.811C204.959 355.526 206.558 350.838 205.33 346.821C205.281 346.665 205.066 346.734 205.047 346.821C204.488 350.813 203.507 354.734 202.123 358.519C202.093 358.573 202.084 358.637 202.098 358.697C202.112 358.757 202.148 358.81 202.198 358.846C202.248 358.882 202.31 358.899 202.372 358.892C202.433 358.886 202.49 358.857 202.532 358.811Z" fill="#263238"/>
<path d="M199.667 360.665C202.104 357.371 203.703 352.682 202.465 348.666C202.465 348.51 202.202 348.578 202.182 348.714C201.627 352.707 200.647 356.628 199.258 360.412C199.246 360.464 199.25 360.518 199.27 360.568C199.29 360.617 199.326 360.659 199.371 360.687C199.416 360.715 199.469 360.728 199.523 360.724C199.576 360.72 199.627 360.7 199.667 360.665Z" fill="#263238"/>
<path d="M222.624 321.196C225.295 317.463 219.495 313.31 216.824 317.043C214.153 320.777 219.943 324.929 222.624 321.196Z" fill="#263238"/>
<path d="M214.474 365.09C217.077 364.417 217.233 361.318 216.531 359.241C215.265 355.697 213.086 352.55 210.215 350.117C210.146 350.059 210.088 350.117 210.049 350.117C209.976 350.086 209.897 350.073 209.819 350.078C209.74 350.083 209.663 350.106 209.595 350.146C209.527 350.186 209.469 350.241 209.426 350.307C209.383 350.373 209.356 350.448 209.347 350.527C209.288 354.065 208.772 357.838 209.795 361.298C210.39 363.345 212.008 365.733 214.474 365.09ZM210.332 355.937C210.332 354.202 210.39 352.467 210.332 350.731C211.614 352.472 212.805 354.278 213.899 356.141C214.42 357.049 214.879 357.99 215.274 358.959C215.849 360.47 216.249 365.724 212.427 363.462C210.332 362.205 210.332 358.013 210.332 355.937Z" fill="#263238"/>
<path d="M214.923 340.983C212.398 343.556 211.072 347.124 209.474 350.282C209.444 350.355 209.432 350.434 209.439 350.512C209.446 350.591 209.472 350.666 209.514 350.733C209.556 350.8 209.613 350.855 209.68 350.896C209.748 350.936 209.824 350.96 209.903 350.965C209.901 350.981 209.903 350.998 209.909 351.014C209.915 351.03 209.924 351.044 209.936 351.055C209.949 351.066 209.964 351.075 209.98 351.079C209.996 351.084 210.013 351.085 210.029 351.082C213.706 350.278 217.108 348.523 219.894 345.993C221.483 344.492 222.819 341.685 220.82 339.862C218.822 338.039 216.395 339.481 214.923 340.983ZM218.257 340.339C222.721 340.144 219.875 344.58 218.656 345.642C217.854 346.316 217.007 346.934 216.122 347.494C214.277 348.623 212.377 349.657 210.429 350.594C211.306 349.093 212.057 347.524 212.885 345.993C213.87 344.17 215.79 340.447 218.257 340.339Z" fill="#263238"/>
<path d="M267.035 303.104L292.545 302.431C292.545 302.431 318.865 288.891 340.524 293.492C365.323 298.756 369.3 329.628 351.169 341.062C328.203 355.547 224.28 355.616 224.28 355.616L245.726 316.975C245.726 316.975 280.068 308.787 311.417 309.011L267.386 316.205L267.035 303.104Z" fill="#37474F"/>
<path d="M244.284 319.5C244.309 319.437 244.326 319.372 244.333 319.305V319.139L244.42 318.769C244.489 318.515 244.576 318.271 244.664 318.018C244.752 317.764 244.859 317.53 244.957 317.287C245.076 317.049 245.213 316.821 245.366 316.604C245.366 316.604 245.366 316.604 245.425 316.556H245.473H245.532C249.314 315.747 275.019 311.37 278.85 310.834C282.681 310.298 286.571 309.859 290.45 309.401C298.174 308.524 305.936 308.036 313.709 307.939C314.44 307.939 315.171 307.939 315.902 307.939C316.055 307.886 316.211 307.844 316.37 307.812C316.74 307.714 317.111 307.607 317.481 307.529C318.183 307.373 318.885 307.246 319.587 307.12C321.049 306.857 322.511 306.662 323.973 306.35C324.061 306.35 324.1 306.467 323.973 306.486C322.511 306.857 321.049 307.315 319.616 307.675L318.349 307.978C321.205 308.056 324.051 308.202 326.908 308.387C326.926 308.387 326.943 308.394 326.956 308.407C326.969 308.42 326.976 308.437 326.976 308.455C326.976 308.473 326.969 308.491 326.956 308.503C326.943 308.516 326.926 308.523 326.908 308.523C323.008 308.397 319.109 308.475 315.259 308.64C311.408 308.806 307.577 308.991 303.737 309.323C295.938 309.966 288.237 310.873 280.517 311.886C276.189 312.462 249.977 316.994 245.619 317.297H245.561C245.534 317.4 245.498 317.501 245.454 317.599L245.103 318.31C244.986 318.535 244.869 318.759 244.732 318.983L244.528 319.305L244.42 319.461C244.42 319.509 244.323 319.578 244.313 319.626C244.303 319.675 244.235 319.587 244.284 319.5Z" fill="#263238"/>
<path d="M232.314 353.12C233.649 350.859 234.771 348.461 235.979 346.131L239.625 339.132C242.062 334.482 250.825 318.817 251.703 317.687C251.751 317.618 251.878 317.687 251.849 317.774C251.449 318.983 246 329.336 244.743 331.646C242.228 336.266 239.576 340.809 236.944 345.371C236.203 346.677 235.424 347.964 234.673 349.27C233.922 350.576 233.113 351.844 232.421 353.169C232.422 353.181 232.421 353.193 232.416 353.204C232.411 353.215 232.403 353.225 232.393 353.232C232.383 353.239 232.372 353.243 232.36 353.244C232.348 353.245 232.336 353.243 232.325 353.238C232.314 353.233 232.305 353.226 232.298 353.216C232.291 353.206 232.287 353.195 232.285 353.183C232.284 353.171 232.286 353.159 232.291 353.148C232.296 353.137 232.304 353.127 232.314 353.12Z" fill="#263238"/>
<path d="M318.153 199.659L312.782 228.737C312.528 229.595 312.996 230.258 313.825 230.199L328.593 229.225C329.041 229.16 329.461 228.97 329.806 228.677C330.151 228.383 330.406 227.999 330.543 227.568L335.914 198.489C336.167 197.632 335.699 196.978 334.871 197.027L320.112 198.002C319.663 198.066 319.241 198.256 318.895 198.549C318.548 198.842 318.291 199.227 318.153 199.659Z" fill="#37474F"/>
<path d="M319.908 199.529L314.537 228.607C314.283 229.465 314.751 230.128 315.57 230.069L330.338 229.094C330.786 229.03 331.207 228.841 331.552 228.548C331.897 228.254 332.152 227.869 332.288 227.437L337.669 198.359C337.922 197.501 337.454 196.838 336.626 196.897L321.857 197.872C321.41 197.938 320.99 198.128 320.645 198.421C320.301 198.714 320.045 199.098 319.908 199.529Z" fill="#455A64"/>
<path d="M324.041 200.574C324.052 200.823 323.99 201.069 323.861 201.282C323.732 201.495 323.543 201.665 323.317 201.771C323.091 201.876 322.84 201.912 322.593 201.874C322.347 201.836 322.118 201.726 321.934 201.558C321.751 201.389 321.622 201.17 321.563 200.928C321.504 200.686 321.518 200.432 321.604 200.199C321.69 199.965 321.843 199.762 322.044 199.615C322.246 199.469 322.486 199.385 322.735 199.375C323.067 199.362 323.39 199.48 323.635 199.705C323.88 199.93 324.026 200.242 324.041 200.574Z" fill="#263238"/>
<path d="M273.332 246.048C282.681 263.389 302.732 285.478 310.511 285.147C314.205 284.991 320.853 285.507 325.464 280.994C335.534 271.149 343.4 252.93 344.648 242.685C345.087 239.049 327.102 232.196 324.675 235.276C318.982 242.5 312.675 256.39 311.593 256.371C307.596 256.283 291.337 244.196 279.98 235.686C266.197 225.343 269.609 239.136 273.332 246.048Z" fill="#F7A9A0"/>
<path d="M344.043 224.017C341.782 216.794 340.095 215.244 341.421 208.177C342.289 203.508 339.686 200.954 336.625 204.824C331.624 211.16 332.589 221.093 333.915 224.446L344.043 224.017Z" fill="#F7A9A0"/>
<path d="M343.967 245.883C343.967 245.883 346.667 235.492 345.019 227.557C343.879 222.069 340.067 210.4 324.227 205.01C320.464 203.733 314.206 204.581 319.587 208.909C323.408 211.98 326.752 212.808 328.653 214.962C328.653 214.962 320.854 216.97 319.684 220.811C318.691 224.138 317.938 227.533 317.433 230.969C318.04 231.204 318.662 231.4 319.294 231.553C319.294 231.553 318.32 235.16 321.244 240.034L343.967 245.883Z" fill="#F7A9A0"/>
<path d="M343.088 222.487C340.749 220.713 335.719 217.038 330.562 215.459C324.83 213.714 313.328 211.881 312.041 216.122C311.125 219.241 315.453 220.323 315.453 220.323C315.453 220.323 310.579 220.567 310.325 223.559C310.13 226.289 313.533 226.922 313.533 226.922C313.533 226.922 310.608 227.585 310.901 230.246C311.281 233.444 317.412 231.533 320.649 234.438C321.36 235.091 343.088 222.487 343.088 222.487Z" fill="#F7A9A0"/>
<path d="M329.725 221.824C325.288 219.879 320.366 219.329 315.61 220.245C315.493 220.245 315.454 220.381 315.561 220.371C320.33 220.302 325.089 220.812 329.734 221.892L329.725 221.824Z" fill="#263238"/>
<path d="M327.785 227.557C325.533 226.65 318.885 225.373 313.582 226.816C313.455 226.816 313.426 226.953 313.582 226.943C318.336 226.628 323.111 226.853 327.814 227.616L327.785 227.557Z" fill="#263238"/>
<path d="M345.223 250.113C345.223 250.113 332.385 279.308 324.207 283.051C316.028 286.794 310.979 286.346 307.85 286.044C306.633 285.828 305.479 285.349 304.467 284.64C295.694 279.084 279.454 258.623 272.669 246.993C267.581 238.22 267.649 230.081 274.755 232.323C277.167 233.2 279.417 234.472 281.413 236.085C294.807 246.116 310.238 255.523 310.93 255.113C311.622 254.704 318.338 242.636 318.338 242.636L345.223 250.113Z" fill="#63388B"/>
<path d="M312.1 261.187C312.009 261.834 312.009 262.49 312.1 263.137C312.196 263.813 312.393 264.47 312.685 265.086C312.781 264.44 312.781 263.783 312.685 263.137C312.59 262.461 312.393 261.804 312.1 261.187Z" fill="white"/>
<path d="M328.856 268.448C328.765 269.094 328.765 269.751 328.856 270.397C328.946 271.049 329.123 271.685 329.383 272.288C329.479 271.642 329.479 270.985 329.383 270.339C329.301 269.686 329.124 269.049 328.856 268.448Z" fill="white"/>
<path d="M299.32 275.496C299.229 276.143 299.229 276.799 299.32 277.446C299.4 278.099 299.578 278.736 299.847 279.337C299.937 278.69 299.937 278.034 299.847 277.387C299.756 276.736 299.579 276.1 299.32 275.496Z" fill="white"/>
<path d="M291.24 246.818C291.075 248.143 291.263 249.488 291.786 250.717C291.876 250.071 291.876 249.414 291.786 248.768C291.695 248.096 291.511 247.439 291.24 246.818Z" fill="white"/>
<path d="M288.588 258.564C289.235 258.655 289.891 258.655 290.537 258.564C291.191 258.484 291.828 258.307 292.429 258.038C291.782 257.947 291.126 257.947 290.479 258.038C289.828 258.129 289.192 258.306 288.588 258.564Z" fill="white"/>
<path d="M322.784 261.967C323.431 262.058 324.087 262.058 324.734 261.967C325.385 261.878 326.021 261.701 326.625 261.441C325.979 261.344 325.322 261.344 324.675 261.441C324.022 261.522 323.385 261.699 322.784 261.967Z" fill="white"/>
<path d="M305.413 272.222C306.06 272.313 306.716 272.313 307.363 272.222C308.016 272.141 308.653 271.964 309.254 271.695C307.928 271.538 306.584 271.73 305.354 272.251L305.413 272.222Z" fill="white"/>
<path d="M338.449 251.896C339.096 251.987 339.752 251.987 340.399 251.896C341.052 251.816 341.689 251.639 342.29 251.37C340.964 251.213 339.62 251.405 338.391 251.925L338.449 251.896Z" fill="white"/>
<path d="M321.526 281.783C322.173 281.874 322.829 281.874 323.476 281.783C324.129 281.703 324.766 281.526 325.367 281.257C324.721 281.16 324.064 281.16 323.417 281.257C322.765 281.338 322.127 281.516 321.526 281.783Z" fill="white"/>
<path d="M271.266 233.288C270.729 233.526 270.162 233.69 269.58 233.776C269.663 233.589 269.768 233.412 269.892 233.249C270.35 233.204 270.812 233.217 271.266 233.288Z" fill="white"/>
<path d="M303.764 254.06C303.244 254.463 302.782 254.935 302.39 255.464C301.986 255.987 301.658 256.564 301.415 257.179C302.456 256.363 303.263 255.287 303.755 254.06H303.764Z" fill="white"/>
<path d="M319.839 270.379C319.317 270.783 318.854 271.258 318.465 271.792C318.063 272.313 317.735 272.887 317.49 273.498C318.013 273.098 318.475 272.625 318.865 272.094C319.269 271.571 319.597 270.994 319.839 270.379Z" fill="white"/>
<path d="M328.973 248.749C328.451 249.15 327.988 249.622 327.599 250.153C327.195 250.676 326.867 251.254 326.624 251.869C327.147 251.465 327.609 250.989 327.998 250.455C328.4 249.934 328.728 249.36 328.973 248.749Z" fill="white"/>
<path d="M293.619 268.342C293.098 268.748 292.636 269.224 292.244 269.755C291.842 270.276 291.514 270.85 291.27 271.461C291.792 271.061 292.255 270.588 292.644 270.057C293.052 269.537 293.38 268.959 293.619 268.342Z" fill="white"/>
<path d="M281.491 240.891C280.968 241.291 280.506 241.764 280.116 242.295C279.709 242.815 279.38 243.393 279.142 244.01C280.182 243.194 280.989 242.118 281.481 240.891H281.491Z" fill="white"/>
<path d="M280.741 254.362C280.338 253.84 279.862 253.377 279.328 252.988C278.809 252.582 278.235 252.254 277.622 252.013C278.017 252.54 278.491 253.004 279.026 253.388C279.547 253.795 280.125 254.123 280.741 254.362Z" fill="white"/>
<path d="M337.542 260.737C337.139 260.217 336.667 259.755 336.138 259.363C335.615 258.959 335.038 258.631 334.423 258.388C334.826 258.908 335.298 259.371 335.827 259.763C336.35 260.167 336.927 260.495 337.542 260.737Z" fill="white"/>
<path d="M320.064 255.485C319.661 254.965 319.188 254.502 318.66 254.111C318.139 253.703 317.561 253.374 316.944 253.136C317.76 254.176 318.836 254.983 320.064 255.475V255.485Z" fill="white"/>
<path d="M300.812 266.264C300.414 265.739 299.941 265.276 299.408 264.89C298.89 264.478 298.311 264.15 297.692 263.915C298.099 264.435 298.574 264.898 299.106 265.289C299.627 265.691 300.201 266.019 300.812 266.264Z" fill="white"/>
<path d="M312.392 282.34C311.991 281.817 311.519 281.355 310.988 280.965C310.465 280.561 309.887 280.233 309.272 279.99C309.676 280.513 310.152 280.976 310.686 281.365C311.207 281.767 311.781 282.095 312.392 282.34Z" fill="white"/>
<path d="M304.467 284.64C295.694 279.084 279.454 258.623 272.669 246.993C267.581 238.22 267.649 230.081 274.755 232.323C278.703 239.195 295.938 269.258 304.467 284.64Z" fill="#263238"/>
<path d="M341.928 255.485C340.953 255.007 331.732 251.985 329.714 251.371C327.696 250.757 319.488 248.184 317.354 247.725C317.345 247.722 317.335 247.721 317.326 247.721C317.316 247.722 317.307 247.724 317.298 247.728C317.29 247.732 317.282 247.738 317.276 247.745C317.269 247.752 317.264 247.76 317.261 247.769C317.258 247.778 317.256 247.788 317.257 247.797C317.257 247.807 317.26 247.816 317.264 247.825C317.268 247.833 317.274 247.841 317.281 247.847C317.288 247.854 317.296 247.859 317.305 247.862C319.313 248.71 327.589 251.342 329.636 252.005C331.683 252.668 340.856 255.456 341.899 255.621C342.006 255.631 342.016 255.514 341.928 255.485Z" fill="#263238"/>
<path d="M295.187 303.911C294.261 304.886 234.633 306.836 234.331 306.465C233.502 305.49 240.843 267.532 246.945 253.008C254.743 234.389 259.227 232.673 261.898 231.562C265.3 230.119 271.529 230.392 273.04 231.006C274.756 231.689 282.242 239.926 284.523 246.603C289.105 260.036 295.996 303.024 295.187 303.911Z" fill="#63388B"/>
<path d="M268.926 242.216C268.769 243.542 268.961 244.886 269.482 246.115C269.574 245.469 269.574 244.812 269.482 244.166C269.397 243.491 269.21 242.834 268.926 242.216Z" fill="white"/>
<path d="M269.433 270.681C269.268 272.007 269.456 273.352 269.979 274.581C270.07 273.934 270.07 273.278 269.979 272.631C269.888 271.959 269.705 271.303 269.433 270.681Z" fill="white"/>
<path d="M235.53 300.451C235.376 301.777 235.568 303.12 236.086 304.35C236.177 303.703 236.177 303.047 236.086 302.401C236 301.726 235.812 301.069 235.53 300.451Z" fill="white"/>
<path d="M259.958 301.631C259.866 302.278 259.866 302.934 259.958 303.581C260.046 304.237 260.226 304.877 260.494 305.482C260.585 304.835 260.585 304.179 260.494 303.532C260.411 302.875 260.231 302.234 259.958 301.631Z" fill="white"/>
<path d="M280.068 288.482C279.977 289.128 279.977 289.785 280.068 290.431C280.148 291.084 280.326 291.722 280.595 292.322C280.686 291.676 280.686 291.019 280.595 290.373C280.509 289.721 280.331 289.084 280.068 288.482Z" fill="white"/>
<path d="M251.39 259.237C251.299 259.884 251.299 260.54 251.39 261.187C251.47 261.84 251.647 262.477 251.916 263.078C252.013 262.431 252.013 261.774 251.916 261.128C251.835 260.475 251.657 259.838 251.39 259.237Z" fill="white"/>
<path d="M248.504 284.31C248.413 284.957 248.413 285.613 248.504 286.26C248.593 286.911 248.77 287.547 249.03 288.151C249.197 286.826 249.009 285.48 248.484 284.251L248.504 284.31Z" fill="white"/>
<path d="M284.328 264.443C284.237 265.09 284.237 265.746 284.328 266.393C284.417 267.044 284.594 267.68 284.854 268.284C284.951 267.638 284.951 266.98 284.854 266.334C284.773 265.681 284.596 265.044 284.328 264.443Z" fill="white"/>
<path d="M263.155 254.255C263.802 254.347 264.458 254.347 265.105 254.255C265.761 254.174 266.402 253.997 267.006 253.728C265.68 253.558 264.332 253.75 263.106 254.284L263.155 254.255Z" fill="white"/>
<path d="M248.777 273.031C250.103 273.187 251.447 272.996 252.677 272.475C252.03 272.383 251.374 272.383 250.727 272.475C250.053 272.56 249.395 272.747 248.777 273.031Z" fill="white"/>
<path d="M271.539 283.675C272.186 283.766 272.842 283.766 273.489 283.675C274.141 283.59 274.778 283.413 275.38 283.149C274.733 283.058 274.077 283.058 273.43 283.149C272.779 283.238 272.143 283.415 271.539 283.675Z" fill="white"/>
<path d="M254.646 295.743C255.292 295.834 255.948 295.834 256.595 295.743C257.246 295.653 257.882 295.476 258.486 295.216C257.84 295.125 257.183 295.125 256.537 295.216C255.886 295.307 255.25 295.484 254.646 295.743Z" fill="white"/>
<path d="M287.954 295.411C288.601 295.502 289.257 295.502 289.904 295.411C290.557 295.331 291.194 295.154 291.795 294.885C291.149 294.788 290.491 294.788 289.845 294.885C289.192 294.966 288.555 295.144 287.954 295.411Z" fill="white"/>
<path d="M267.405 233.835C268.052 233.927 268.708 233.927 269.355 233.835C270.009 233.746 270.649 233.569 271.256 233.309C270.609 233.218 269.953 233.218 269.306 233.309C268.651 233.393 268.011 233.57 267.405 233.835Z" fill="white"/>
<path d="M261.41 238.854C260.882 239.255 260.416 239.731 260.026 240.267C259.622 240.787 259.293 241.361 259.051 241.973C259.576 241.575 260.039 241.102 260.425 240.569C260.832 240.047 261.164 239.469 261.41 238.854Z" fill="white"/>
<path d="M275.312 260.134C274.272 260.953 273.463 262.028 272.963 263.253C273.49 262.855 273.954 262.378 274.337 261.84C274.743 261.321 275.071 260.747 275.312 260.134Z" fill="white"/>
<path d="M289.124 281.501C288.603 281.907 288.141 282.383 287.749 282.914C287.345 283.438 287.017 284.015 286.774 284.63C287.297 284.226 287.76 283.75 288.149 283.217C288.556 282.696 288.885 282.118 289.124 281.501Z" fill="white"/>
<path d="M273.761 297.75C273.239 298.151 272.776 298.623 272.387 299.154C271.98 299.675 271.651 300.253 271.412 300.87C271.939 300.475 272.403 300.001 272.787 299.466C273.194 298.945 273.522 298.367 273.761 297.75Z" fill="white"/>
<path d="M241.955 292.683C241.43 293.084 240.967 293.56 240.58 294.097C240.175 294.615 239.846 295.19 239.605 295.802C240.132 295.407 240.596 294.934 240.98 294.399C241.387 293.878 241.716 293.3 241.955 292.683Z" fill="white"/>
<path d="M260.231 277.603C259.711 278.005 259.249 278.478 258.857 279.006C258.453 279.529 258.124 280.107 257.882 280.722C258.402 280.319 258.864 279.847 259.256 279.318C259.662 278.796 259.99 278.218 260.231 277.603Z" fill="white"/>
<path d="M281.491 240.891C280.968 241.291 280.506 241.764 280.116 242.295C279.709 242.815 279.38 243.393 279.142 244.01C280.182 243.194 280.989 242.118 281.481 240.891H281.491Z" fill="white"/>
<path d="M280.741 254.362C280.338 253.84 279.862 253.377 279.328 252.988C278.809 252.582 278.235 252.254 277.622 252.013C278.017 252.54 278.491 253.004 279.026 253.388C279.547 253.795 280.125 254.123 280.741 254.362Z" fill="white"/>
<path d="M241.583 277.427C240.997 277.2 240.445 276.891 239.945 276.51L240.062 275.974L240.169 276.052C240.703 276.441 241.179 276.904 241.583 277.427Z" fill="white"/>
<path d="M282.739 276.968C282.339 276.445 281.866 275.982 281.336 275.593C280.813 275.189 280.235 274.861 279.62 274.618C280.024 275.141 280.5 275.604 281.034 275.993C281.555 276.395 282.129 276.723 282.739 276.968Z" fill="white"/>
<path d="M285.021 304.731C284.614 304.211 284.139 303.748 283.607 303.357C283.086 302.949 282.508 302.621 281.892 302.382C282.298 302.902 282.774 303.365 283.305 303.756C283.828 304.16 284.406 304.489 285.021 304.731Z" fill="white"/>
<path d="M254.646 249.918C254.242 249.384 253.762 248.911 253.222 248.515C252.701 248.107 252.123 247.779 251.507 247.54C251.905 248.065 252.378 248.528 252.911 248.914C253.437 249.331 254.022 249.67 254.646 249.918Z" fill="white"/>
<path d="M266.646 290.43C266.242 289.907 265.766 289.444 265.232 289.055C264.711 288.653 264.137 288.325 263.526 288.081C263.924 288.602 264.393 289.065 264.92 289.455C265.446 289.86 266.027 290.188 266.646 290.43Z" fill="white"/>
<path d="M249.226 303.562C248.826 303.04 248.353 302.577 247.822 302.188C247.301 301.78 246.723 301.452 246.106 301.213C246.504 301.738 246.977 302.201 247.51 302.587C248.033 302.993 248.61 303.321 249.226 303.562Z" fill="white"/>
<path d="M263.077 265.504C262.674 264.984 262.202 264.521 261.674 264.13C261.153 263.722 260.575 263.393 259.958 263.155C260.361 263.675 260.833 264.137 261.362 264.529C261.885 264.933 262.462 265.262 263.077 265.504Z" fill="white"/>
<path d="M252.062 236.661C226.532 256.235 204.55 283.266 206.763 291.737C209.103 300.685 226.98 310.57 242.694 312.47C245.911 312.86 255.639 289.192 252.335 288.101C249.761 287.282 238.064 284.075 236.65 282.486C235.676 281.384 253.534 255.737 259.295 242.383C265.329 228.453 258.895 231.426 252.062 236.661Z" fill="#F7A9A0"/>
<path d="M245.697 287.506C245.697 287.506 255.523 288.393 261.918 289.28C265.485 289.777 271.529 291.171 273.986 292.73C277.651 295.07 291.532 307.196 288.656 310.618C286.063 313.718 282.057 308.883 282.057 308.883C282.057 308.883 286.931 313.757 283.412 316.038C279.893 318.319 275.253 311.544 275.253 311.544C275.253 311.544 280.79 316.35 276.803 318.436C273.332 320.239 267.182 312.987 267.182 312.987C267.182 312.987 273.547 317.393 270.174 319.596C266.46 322.023 255.864 312.304 255.864 312.304C247.471 313.279 242.295 312.802 236.368 311.193C235.276 310.901 245.697 287.506 245.697 287.506Z" fill="#F7A9A0"/>
<path d="M276.744 313.154C276.364 312.637 275.964 312.13 275.575 311.613C274.847 310.587 274.052 309.61 273.196 308.689C272.358 307.792 271.48 306.944 270.564 306.125C269.648 305.306 268.556 304.478 267.64 303.581C267.633 303.575 267.624 303.57 267.616 303.567C267.607 303.563 267.597 303.562 267.588 303.562C267.578 303.563 267.569 303.565 267.56 303.569C267.552 303.573 267.544 303.579 267.537 303.586C267.531 303.593 267.526 303.601 267.523 303.61C267.52 303.619 267.518 303.629 267.519 303.638C267.519 303.648 267.521 303.657 267.525 303.666C267.53 303.674 267.535 303.682 267.542 303.688C268.48 304.561 269.366 305.489 270.194 306.466C271.042 307.393 271.87 308.328 272.709 309.264C273.547 310.2 274.395 311.029 275.233 311.925C275.653 312.364 276.052 312.832 276.452 313.29C276.802 313.754 277.19 314.187 277.612 314.587C277.661 314.587 277.709 314.587 277.69 314.518C277.423 314.032 277.106 313.574 276.744 313.154Z" fill="#263238"/>
<path d="M283.051 309.925C281.751 307.989 280.318 306.146 278.762 304.408C277.179 302.683 275.429 301.119 273.537 299.739C273.53 299.732 273.522 299.727 273.513 299.724C273.504 299.721 273.495 299.719 273.485 299.72C273.476 299.72 273.466 299.723 273.458 299.727C273.449 299.731 273.441 299.736 273.435 299.743C273.428 299.75 273.424 299.759 273.42 299.768C273.417 299.777 273.416 299.786 273.416 299.796C273.417 299.805 273.419 299.814 273.423 299.823C273.427 299.832 273.433 299.839 273.44 299.846C275.019 301.571 276.627 303.277 278.226 304.993C279.006 305.821 282.447 309.73 282.866 310.091C282.963 310.149 283.1 310.003 283.051 309.925Z" fill="#263238"/>
<path d="M270.895 316.36C269.635 314.566 268.257 312.856 266.772 311.243C265.104 309.738 263.328 308.357 261.459 307.11C261.391 307.11 261.303 307.168 261.362 307.217C263.019 308.728 264.705 310.2 266.236 311.779C267.016 312.559 269.911 315.815 270.71 316.487C270.727 316.512 270.753 316.529 270.782 316.534C270.811 316.54 270.842 316.533 270.866 316.516C270.891 316.5 270.908 316.474 270.913 316.444C270.919 316.415 270.912 316.385 270.895 316.36Z" fill="#263238"/>
<path d="M253.409 287.154L239.664 313.425C239.664 313.425 208.695 305.246 206.024 291.219C203.353 277.192 238.835 244.945 249.782 237.323C260.729 229.7 267.407 228.676 258.77 246.037C250.133 263.398 236.769 281.257 237.861 282.153C238.787 282.904 253.409 287.154 253.409 287.154Z" fill="#63388B"/>
<path d="M231.611 268.01C231.52 268.656 231.52 269.313 231.611 269.959C231.693 270.615 231.87 271.256 232.138 271.86C232.229 271.214 232.229 270.557 232.138 269.911C232.047 269.257 231.87 268.617 231.611 268.01Z" fill="white"/>
<path d="M235.53 300.451C235.376 301.777 235.568 303.12 236.086 304.35C236.177 303.703 236.177 303.047 236.086 302.401C236 301.726 235.812 301.069 235.53 300.451Z" fill="white"/>
<path d="M219.543 284.641C219.452 285.288 219.452 285.944 219.543 286.591C219.627 287.244 219.808 287.881 220.079 288.482C220.175 287.835 220.175 287.179 220.079 286.532C219.993 285.879 219.813 285.242 219.543 284.641Z" fill="white"/>
<path d="M251.429 259.344L251.371 259.442C251.366 259.377 251.366 259.312 251.371 259.247C251.395 259.276 251.414 259.309 251.429 259.344Z" fill="white"/>
<path d="M244 242.081C243.844 243.407 244.035 244.751 244.556 245.98C244.647 245.334 244.647 244.677 244.556 244.031C244.472 243.356 244.285 242.698 244 242.081Z" fill="white"/>
<path d="M249.051 288.169C248.791 287.565 248.614 286.929 248.524 286.277C248.524 286.083 248.505 285.888 248.466 285.693L248.963 285.839C248.963 285.956 249.012 286.083 249.031 286.2C249.13 286.852 249.137 287.515 249.051 288.169Z" fill="white"/>
<path d="M250.98 236.582C251.627 236.674 252.283 236.674 252.93 236.582C253.601 236.497 254.257 236.32 254.88 236.056C253.555 235.889 252.209 236.078 250.98 236.602V236.582Z" fill="white"/>
<path d="M218.743 269.843C219.39 269.934 220.046 269.934 220.693 269.843C221.346 269.763 221.983 269.585 222.584 269.317C221.937 269.226 221.281 269.226 220.634 269.317C219.983 269.406 219.347 269.583 218.743 269.843Z" fill="white"/>
<path d="M232.372 286.53C233.019 286.622 233.675 286.622 234.322 286.53C234.978 286.45 235.619 286.272 236.223 286.004C235.576 285.913 234.92 285.913 234.273 286.004C233.618 286.092 232.979 286.269 232.372 286.53Z" fill="white"/>
<path d="M224.28 305.716C224.927 305.808 225.583 305.808 226.23 305.716C226.886 305.636 227.527 305.458 228.131 305.189C226.805 305.033 225.461 305.224 224.231 305.745L224.28 305.716Z" fill="white"/>
<path d="M209.493 292.379C210.14 292.47 210.796 292.47 211.443 292.379C212.096 292.299 212.733 292.121 213.334 291.853C212.008 291.696 210.664 291.887 209.435 292.408L209.493 292.379Z" fill="white"/>
<path d="M238.094 252.968C238.74 253.06 239.397 253.06 240.043 252.968C240.699 252.888 241.34 252.711 241.944 252.442C240.618 252.285 239.274 252.477 238.045 252.998L238.094 252.968Z" fill="white"/>
<path d="M261.41 238.854C260.882 239.255 260.416 239.731 260.026 240.267C259.622 240.787 259.293 241.361 259.051 241.973C259.576 241.575 260.039 241.102 260.425 240.569C260.832 240.047 261.164 239.469 261.41 238.854Z" fill="white"/>
<path d="M241.955 261.546C241.43 261.947 240.967 262.423 240.58 262.959C240.175 263.478 239.846 264.053 239.605 264.665C240.132 264.27 240.596 263.797 240.98 263.262C241.387 262.741 241.716 262.162 241.955 261.546Z" fill="white"/>
<path d="M241.955 292.683C241.43 293.084 240.967 293.56 240.58 294.097C240.175 294.615 239.846 295.19 239.605 295.802C240.132 295.407 240.596 294.934 240.98 294.399C241.387 293.878 241.716 293.3 241.955 292.683Z" fill="white"/>
<path d="M221.668 296.882C220.628 297.701 219.818 298.776 219.318 300.002C219.846 299.603 220.309 299.126 220.693 298.588C221.098 298.07 221.427 297.495 221.668 296.882Z" fill="white"/>
<path d="M226.62 276.968C226.1 277.371 225.637 277.843 225.245 278.371C224.84 278.894 224.511 279.471 224.271 280.087C224.793 279.687 225.256 279.214 225.645 278.683C226.049 278.16 226.377 277.583 226.62 276.968Z" fill="white"/>
<path d="M240.775 309.067C239.74 309.889 238.934 310.963 238.436 312.187C239.476 311.371 240.283 310.295 240.775 309.067Z" fill="white"/>
<path d="M240.716 276.501L240.491 276.871C240.277 276.745 240.072 276.598 239.868 276.452C239.337 276.063 238.864 275.6 238.464 275.078C239.075 275.322 239.649 275.65 240.17 276.052C240.355 276.199 240.55 276.345 240.716 276.501Z" fill="white"/>
<path d="M213.918 281.258C213.515 280.738 213.043 280.275 212.514 279.883C211.991 279.479 211.414 279.151 210.799 278.908C211.199 279.431 211.672 279.894 212.203 280.283C212.726 280.687 213.303 281.015 213.918 281.258Z" fill="white"/>
<path d="M230.802 295.968C230.402 295.446 229.929 294.983 229.398 294.593C228.875 294.189 228.298 293.861 227.683 293.619C228.086 294.141 228.562 294.604 229.096 294.993C229.617 295.395 230.191 295.723 230.802 295.968Z" fill="white"/>
<path d="M254.646 249.918C254.242 249.384 253.762 248.911 253.222 248.515C252.701 248.107 252.123 247.779 251.507 247.54C251.905 248.065 252.378 248.528 252.911 248.914C253.437 249.331 254.022 249.67 254.646 249.918Z" fill="white"/>
<path d="M231.515 260.737C230.694 259.702 229.619 258.897 228.396 258.398C228.796 258.92 229.269 259.383 229.799 259.772C230.323 260.173 230.9 260.498 231.515 260.737Z" fill="white"/>
<path d="M235.277 309.78C235.93 308.912 240.677 300.461 241.671 298.599C242.666 296.737 246.799 289.183 247.657 287.184C247.661 287.168 247.66 287.151 247.653 287.136C247.647 287.12 247.636 287.107 247.622 287.099C247.608 287.09 247.591 287.086 247.575 287.087C247.558 287.089 247.543 287.095 247.53 287.106C246.312 288.91 242.12 296.523 241.067 298.394C240.014 300.266 235.511 308.727 235.14 309.721C235.111 309.809 235.228 309.838 235.277 309.78Z" fill="#263238"/>
<path d="M253.573 287.067L252.93 288.14C253.018 288.023 253.369 287.223 253.369 287.223C249.177 286.249 245.005 285.206 240.882 283.929C240.365 283.763 239.848 283.597 239.332 283.402C238.777 283.215 238.247 282.963 237.752 282.652C237.711 282.619 237.671 282.583 237.635 282.544C237.574 282.471 237.525 282.389 237.489 282.301C237.453 282.15 237.453 281.993 237.489 281.843C237.538 281.706 237.596 281.55 237.655 281.423C237.713 281.297 237.889 280.916 238.006 280.673C238.25 280.185 238.513 279.698 238.766 279.23C239.8 277.281 240.872 275.448 241.973 273.586C244.206 269.882 246.428 266.178 248.738 262.542C250.922 259.091 253.193 255.192 255.484 251.819C255.62 251.614 255.971 251.429 255.552 252.17C253.447 255.942 251.546 259.198 249.372 262.893L242.802 274.044C241.71 275.906 240.599 277.748 239.556 279.63C239.293 280.098 239.029 280.605 238.786 281.043C238.659 281.277 238.552 281.511 238.435 281.745L238.337 282.008L238.269 281.959C238.275 281.982 238.275 282.005 238.269 282.028C238.269 282.028 238.269 282.115 238.269 282.086V282.018C238.676 282.248 239.099 282.447 239.536 282.613L241.037 283.168C243.055 283.899 245.112 284.552 247.179 285.186L253.573 287.067Z" fill="#263238"/>
<path d="M238.337 282.018V282.087C238.337 282.087 238.337 282.038 238.337 282.028C238.343 282.006 238.343 281.982 238.337 281.96V282.018Z" fill="#263238"/>
<path d="M254.909 256.701C255.201 256.477 255.172 256.701 255.035 256.828C254.285 257.803 253.134 258.827 252.296 259.684C251.313 260.704 250.265 261.658 249.157 262.54C250.022 261.417 250.956 260.349 251.955 259.343C252.876 258.395 253.863 257.512 254.909 256.701Z" fill="#263238"/>
<path d="M271.743 241.34C268.39 242.315 262.346 237.441 259.86 233.318C259.685 233.035 259.987 229.984 260.172 226.26C260.28 224.009 260.348 221.484 260.241 219.183C260.241 218.715 274.863 222.02 274.863 222.02C274.174 224.939 273.846 227.931 273.888 230.93C273.904 231.258 273.95 231.584 274.024 231.904C274.024 231.904 274.024 232.002 274.024 232.06C274.414 233.805 274.98 240.414 271.743 241.34Z" fill="#F7A9A0"/>
<path d="M261.138 219.202C261.986 223.101 264.852 232.352 272.562 232.166C273.056 232.161 273.549 232.112 274.034 232.02C274.041 231.968 274.041 231.916 274.034 231.864C273.962 231.543 273.914 231.217 273.888 230.889C273.85 227.891 274.177 224.899 274.863 221.98C274.863 221.98 264.296 219.631 261.138 219.202Z" fill="#263238"/>
<path d="M278.245 196.156C278.245 196.156 282.944 198.106 283.811 202.863C284.679 207.62 283.597 212.611 283.187 212.874C282.778 213.137 278.245 196.156 278.245 196.156Z" fill="#263238"/>
<path d="M258.485 202.182C257.121 207.358 260.435 222.048 264.149 225.207C269.617 229.788 278.274 229.915 282.095 223.413C285.799 217.116 281.208 198.068 277.026 195.203C270.865 191.001 260.503 194.53 258.485 202.182Z" fill="#F7A9A0"/>
<path d="M273.527 211.851C273.527 211.851 273.459 211.919 273.469 211.958C273.722 212.933 273.839 214.112 273.011 214.629C273.011 214.629 273.011 214.697 273.011 214.687C274.093 214.297 273.917 212.747 273.527 211.851Z" fill="#263238"/>
<path d="M272.415 211.013C270.797 211.238 271.372 214.464 272.874 214.25C274.375 214.035 273.78 210.828 272.415 211.013Z" fill="#263238"/>
<path d="M279.122 210.898C279.122 210.898 279.21 210.898 279.21 210.976C279.356 211.95 279.698 213.101 280.653 213.276V213.335C279.542 213.422 279.093 211.872 279.122 210.898Z" fill="#263238"/>
<path d="M279.825 209.697C281.414 209.288 282.106 212.485 280.644 212.865C279.182 213.246 278.5 210.038 279.825 209.697Z" fill="#263238"/>
<path d="M270.486 208.725C270.917 208.603 271.34 208.457 271.753 208.286C272.223 208.193 272.648 207.946 272.962 207.584C273.036 207.451 273.066 207.298 273.046 207.147C273.027 206.996 272.96 206.856 272.855 206.746C272.608 206.563 272.317 206.45 272.011 206.42C271.706 206.389 271.398 206.441 271.12 206.57C270.517 206.737 269.999 207.123 269.667 207.652C269.6 207.778 269.57 207.92 269.581 208.062C269.593 208.204 269.645 208.339 269.731 208.452C269.818 208.565 269.935 208.651 270.069 208.699C270.202 208.748 270.347 208.756 270.486 208.725Z" fill="#263238"/>
<path d="M280.888 207.085C280.441 207.074 279.995 207.038 279.552 206.978C279.075 207.006 278.602 206.876 278.207 206.608C278.099 206.499 278.03 206.358 278.01 206.207C277.991 206.055 278.022 205.901 278.1 205.769C278.292 205.531 278.544 205.349 278.83 205.241C279.116 205.133 279.426 205.103 279.728 205.155C280.354 205.171 280.953 205.413 281.414 205.838C281.512 205.942 281.578 206.073 281.603 206.214C281.628 206.355 281.612 206.5 281.556 206.633C281.501 206.765 281.408 206.878 281.289 206.958C281.17 207.038 281.031 207.083 280.888 207.085Z" fill="#263238"/>
<path d="M273.498 221.424C273.761 221.681 274.106 221.836 274.473 221.862C274.842 221.784 275.193 221.635 275.506 221.424C275.506 221.424 275.574 221.424 275.555 221.424C275.448 221.646 275.282 221.835 275.076 221.97C274.87 222.106 274.631 222.183 274.385 222.194C274.165 222.182 273.955 222.105 273.78 221.97C273.606 221.836 273.477 221.652 273.41 221.443C273.41 221.443 273.459 221.394 273.498 221.424Z" fill="#263238"/>
<path d="M274.024 218.297C274.346 218.648 274.737 218.929 275.174 219.12C275.61 219.311 276.082 219.41 276.559 219.408C276.973 219.415 277.387 219.362 277.787 219.252L278.021 219.184L278.235 219.116C278.285 219.093 278.327 219.056 278.355 219.009C278.383 218.962 278.396 218.907 278.391 218.852C278.394 218.82 278.394 218.787 278.391 218.755V218.667C278.284 217.897 278.001 216.718 278.001 216.718C278.303 216.815 279.853 217.205 279.756 216.805C279.056 213.341 278.004 209.957 276.617 206.706C276.605 206.69 276.588 206.678 276.568 206.672C276.549 206.666 276.528 206.666 276.508 206.672C276.489 206.679 276.472 206.691 276.46 206.708C276.448 206.725 276.442 206.745 276.442 206.765C277.075 209.953 278.255 213.013 278.947 216.211C278.394 216.061 277.823 215.993 277.251 216.006C277.153 216.055 277.836 218.229 277.855 218.579C277.237 218.754 276.591 218.801 275.954 218.719C275.317 218.637 274.704 218.427 274.151 218.102C274.014 218.102 273.946 218.18 274.024 218.297Z" fill="#263238"/>
<path d="M277.271 218.891C276.947 219.516 276.467 220.046 275.877 220.431C275.548 220.628 275.168 220.719 274.785 220.694C273.957 220.626 273.811 219.895 273.811 219.242C273.834 218.894 273.896 218.551 273.996 218.218C274.986 218.79 276.135 219.026 277.271 218.891Z" fill="#263238"/>
<path d="M275.877 220.43C275.548 220.627 275.168 220.719 274.785 220.693C273.957 220.625 273.811 219.894 273.811 219.241C274.238 219.182 274.673 219.268 275.047 219.483C275.421 219.698 275.713 220.031 275.877 220.43Z" fill="#FF98B9"/>
<path d="M260.416 216.112C262.151 216.346 263.223 211.072 263.438 209.084C263.633 207.329 263.292 201.909 263.311 201.539C263.331 201.168 271.275 205.048 275.223 203.147C279.171 201.246 281.325 197.055 281.072 195.349C280.818 193.643 274.95 190.046 270.447 190.563C265.943 191.079 260.864 197.747 260.864 197.747C261.451 196.813 261.966 195.835 262.405 194.823C262.297 194.628 259.607 196.265 259.422 198.4C259.422 198.4 259.558 195.729 259.334 195.719C259.11 195.71 257.238 198.293 258.018 199.872C258.018 199.872 255.805 202.553 255.981 205.048C256.156 207.544 258.388 215.839 260.416 216.112Z" fill="#263238"/>
<path d="M278.021 201.782C276.908 202.655 275.665 203.349 274.337 203.839C272.83 204.224 271.252 204.224 269.745 203.839C268.227 203.526 266.771 202.963 265.437 202.172C264.248 201.489 263.156 200.612 261.928 200.037C261.616 199.891 261.362 200.349 261.577 200.573C263.861 202.872 266.824 204.375 270.028 204.862C271.517 205.09 273.039 204.927 274.446 204.388C275.852 203.85 277.094 202.955 278.051 201.792C278.051 201.792 278.041 201.772 278.021 201.782Z" fill="#263238"/>
<path d="M262.102 214.113C262.102 214.113 258.486 209.532 256.39 210.848C254.294 212.164 257.209 218.948 259.802 219.747C260.129 219.872 260.478 219.93 260.828 219.916C261.177 219.903 261.521 219.819 261.838 219.67C262.154 219.52 262.438 219.309 262.671 219.048C262.904 218.786 263.082 218.481 263.194 218.149L262.102 214.113Z" fill="#F7A9A0"/>
<path d="M257.269 212.769C257.269 212.769 257.269 212.827 257.269 212.837C259.101 213.461 260.134 215.059 260.895 216.736C260.78 216.563 260.63 216.417 260.453 216.309C260.277 216.2 260.079 216.13 259.873 216.105C259.668 216.08 259.459 216.1 259.262 216.164C259.065 216.227 258.883 216.333 258.731 216.473C258.731 216.473 258.731 216.58 258.789 216.561C259.098 216.444 259.434 216.425 259.754 216.507C260.073 216.589 260.359 216.768 260.573 217.019C260.927 217.439 261.234 217.897 261.489 218.383C261.587 218.539 261.87 218.442 261.801 218.257C261.684 215.937 259.725 212.856 257.269 212.769Z" fill="#263238"/>
<path d="M258.097 234.399C259.694 236.345 261.399 238.2 263.204 239.955C264.861 241.673 267.029 242.808 269.385 243.191C271.675 243.396 273.966 242.928 274.805 240.13C275.399 237.722 275.456 235.213 274.97 232.78C274.966 232.767 274.964 232.753 274.966 232.739C274.968 232.725 274.973 232.712 274.982 232.701C274.99 232.689 275 232.68 275.013 232.674C275.025 232.667 275.039 232.664 275.053 232.664C275.067 232.664 275.081 232.667 275.093 232.674C275.106 232.68 275.116 232.689 275.125 232.701C275.133 232.712 275.138 232.725 275.14 232.739C275.142 232.753 275.141 232.767 275.136 232.78C275.662 236.436 276.208 242.109 272.884 243.376C269.16 244.8 265.505 242.879 262.883 240.306C261.047 238.542 259.413 236.581 258.009 234.457C258.038 234.408 258.097 234.36 258.097 234.399Z" fill="#263238"/>
</svg>
