<svg width="126" height="21" viewBox="0 0 126 21" fill="none" xmlns="http://www.w3.org/2000/svg">
<path d="M9.40694 15.437C8.4293 15.8057 7.32849 15.99 6.08911 15.99C2.03227 15.99 0 14.0316 0 10.1148C0 6.40542 2.03227 4.55455 6.08911 4.55455C7.32849 4.55455 8.43699 4.73887 9.40694 5.10751V6.99678C8.4293 6.57438 7.37467 6.36702 6.24307 6.36702C3.52568 6.36702 2.17083 7.61885 2.17083 10.1148C2.17083 12.8259 3.52568 14.1775 6.24307 14.1775C7.37467 14.1775 8.4293 13.9702 9.40694 13.5478V15.437ZM10.5001 10.2838C10.5001 6.45918 12.3938 4.54688 16.1735 4.54688C19.8993 4.54688 21.7622 6.45918 21.7622 10.2838C21.7622 14.0854 19.8993 15.99 16.1735 15.99C12.5554 15.99 10.6694 14.0854 10.5001 10.2838ZM16.1735 14.1698C18.4521 14.1698 19.5914 12.8566 19.5914 10.2377C19.5914 7.65725 18.4521 6.36702 16.1735 6.36702C13.841 6.36702 12.6709 7.65725 12.6709 10.2377C12.6709 12.8643 13.841 14.1698 16.1735 14.1698ZM23.4096 15.9055V4.63135H25.5804L29.414 13.1868L33.1706 4.63135H35.2645V15.9132H33.3246V8.04893L30.2608 15.9055H28.4749L25.3418 8.04893V15.9055H23.4096ZM37.6355 15.9055V4.63135H39.814L43.6476 13.1868L47.4042 4.63135H49.4981V15.9132H47.5582V8.04893L44.4944 15.9055H42.7084L39.5754 8.04893V15.9055H37.6355ZM62.2921 4.63135L57.3346 15.9132H55.0791L50.3371 4.63135H52.8313L56.3262 13.2636L59.8211 4.62367H62.2921V4.63135ZM59.9827 15.9055L64.7786 4.62367H67.0341L71.9377 15.9055H69.6822L68.2581 12.8259H64.717L65.4406 11.0134H67.7115L65.864 6.77406L62.1382 15.8978H59.9827V15.9055ZM72.2225 11.4742V4.63135H74.3164V11.4742C74.3164 13.2713 75.2401 14.1698 77.08 14.1698C78.9275 14.1698 79.8435 13.2713 79.8435 11.4742V4.63135H81.9374V11.4742C81.9374 14.4847 80.3131 15.9823 77.0723 15.9823C73.8314 15.9823 72.2225 14.4847 72.2225 11.4742ZM86.1559 4.63135V14.093H91.4367V15.9055H84.062V4.63135H86.1559ZM98.8576 4.63135V6.44382H95.6167V15.9055H93.5229V6.44382H90.282V4.63135H98.8576ZM100.936 4.99999C101.067 4.99999 101.159 5.02303 101.221 5.07679C101.282 5.13055 101.313 5.20735 101.313 5.30719C101.313 5.40703 101.282 5.47615 101.229 5.52223C101.175 5.56831 101.105 5.59135 101.028 5.59903L101.336 6.07518H101.159L100.867 5.61439H100.69V6.07518H100.52V4.99231H100.936V4.99999ZM100.867 5.47615H100.975C101.005 5.47615 101.036 5.46847 101.067 5.45311C101.09 5.43775 101.113 5.42239 101.128 5.39935C101.144 5.37631 101.152 5.34559 101.152 5.29951C101.152 5.26111 101.144 5.23807 101.128 5.21503C101.113 5.19199 101.098 5.17663 101.075 5.16895C101.051 5.16127 101.028 5.14591 100.998 5.14591C100.967 5.13823 100.944 5.13823 100.913 5.13823H100.69V5.48383H100.867V5.47615Z" fill="#0B2E44"/>
<path d="M100.859 4.61621C100.351 4.61621 99.9355 5.03093 99.9355 5.5378C99.9355 6.04468 100.351 6.4594 100.859 6.4594C101.367 6.4594 101.783 6.04468 101.783 5.5378C101.783 5.03093 101.367 4.61621 100.859 4.61621ZM100.859 6.32884C100.421 6.32884 100.066 5.97556 100.066 5.5378C100.066 5.10005 100.421 4.74677 100.859 4.74677C101.298 4.74677 101.652 5.10005 101.652 5.5378C101.652 5.97556 101.298 6.32884 100.859 6.32884Z" fill="#0B2E44"/>
<path d="M116.1 0L107.009 5.23004V15.2985L116.1 20.5362L125.191 15.2985V5.23004L116.1 0ZM123.621 14.3999L116.1 18.7314L108.579 14.3999V6.13628L116.1 1.80479L123.621 6.13628V14.3999Z" fill="#FF4A6A"/>
<path d="M115.562 16.642C115.562 16.7188 115.478 16.7649 115.408 16.7265L110.12 13.6775C110.027 13.6238 109.966 13.5239 109.966 13.4164V7.5182C109.966 7.4414 110.05 7.39532 110.12 7.43372L115.408 10.4827C115.501 10.5364 115.562 10.6363 115.562 10.7438V16.642ZM121.413 6.62733L116.347 9.54571C116.224 9.61483 116.07 9.61483 115.947 9.54571L110.882 6.62733C110.813 6.58893 110.813 6.48909 110.882 6.45069L115.947 3.53231C116.07 3.46319 116.224 3.46319 116.347 3.53231L121.413 6.45069C121.474 6.49677 121.474 6.58893 121.413 6.62733ZM121.413 14.0846L116.817 16.7265C116.748 16.7649 116.663 16.7188 116.663 16.642V11.3505C116.663 11.2737 116.748 11.2276 116.817 11.266L121.413 13.9079C121.474 13.9463 121.474 14.0385 121.413 14.0846Z" fill="#FF4A6A"/>
</svg>
