<svg width="123" height="123" viewBox="0 0 123 123" fill="none" xmlns="http://www.w3.org/2000/svg">
<circle cx="61.5" cy="61.5" r="61.5" fill="url(#paint0_linear_2041_6)"/>
<path fill-rule="evenodd" clip-rule="evenodd" d="M21.6567 57.3081C21.7853 57.3079 21.9111 57.3459 22.0181 57.4172C22.1251 57.4886 22.2085 57.59 22.2578 57.7088C22.3071 57.8276 22.3201 57.9583 22.295 58.0845C22.27 58.2106 22.2081 58.3265 22.1171 58.4174C22.0262 58.5083 21.9103 58.5702 21.7842 58.5953C21.6581 58.6203 21.5273 58.6074 21.4085 58.5581C21.2898 58.5088 21.1883 58.4253 21.117 58.3183C21.0456 58.2113 21.0077 58.0856 21.0079 57.957C21.0084 57.785 21.0769 57.6203 21.1985 57.4987C21.32 57.3771 21.4848 57.3086 21.6567 57.3081ZM21.6406 68.6019H31.0182C31.2778 68.5939 31.524 68.4852 31.7048 68.2988C31.8856 68.1123 31.9867 67.8628 31.9867 67.6031C31.9867 67.3434 31.8856 67.0939 31.7048 66.9074C31.524 66.721 31.2778 66.6122 31.0182 66.6042H22.6399V60.4131C23.2108 60.1841 23.6842 59.7638 23.9793 59.2241C24.2744 58.6845 24.3728 58.059 24.2575 57.4549C24.1423 56.8507 23.8207 56.3053 23.3478 55.9122C22.8748 55.519 22.2799 55.3024 21.6648 55.2995C21.0498 55.2965 20.4528 55.5075 19.9761 55.8962C19.4995 56.2849 19.1727 56.8271 19.0518 57.4302C18.9308 58.0333 19.0233 58.6596 19.3132 59.202C19.6032 59.7444 20.0727 60.1692 20.6413 60.4037V67.6026C20.6412 67.7339 20.6669 67.8639 20.7171 67.9852C20.7673 68.1065 20.8409 68.2167 20.9337 68.3095C21.0265 68.4023 21.1367 68.476 21.258 68.5261C21.3793 68.5763 21.5093 68.6021 21.6406 68.6019ZM101.608 56.8213C101.736 56.8211 101.862 56.859 101.969 56.9304C102.076 57.0017 102.159 57.1032 102.209 57.2219C102.258 57.3407 102.271 57.4714 102.246 57.5976C102.221 57.7237 102.159 57.8396 102.068 57.9305C101.977 58.0215 101.861 58.0834 101.735 58.1084C101.609 58.1334 101.478 58.1205 101.359 58.0712C101.241 58.0219 101.139 57.9385 101.068 57.8315C100.997 57.7245 100.959 57.5987 100.959 57.4701C100.959 57.2981 101.027 57.1332 101.149 57.0116C101.271 56.8899 101.436 56.8215 101.608 56.8213ZM101.608 54.8217C100.991 54.8192 100.392 55.0321 99.9159 55.4238C99.4393 55.8155 99.1145 56.3612 98.9975 56.9669C98.8804 57.5725 98.9786 58.2 99.2749 58.741C99.5713 59.282 100.047 59.7026 100.621 59.9301V66.1193H92.2471C91.982 66.1193 91.7279 66.2245 91.5405 66.4119C91.353 66.5994 91.2478 66.8535 91.2478 67.1186C91.2478 67.3836 91.353 67.6378 91.5405 67.8252C91.7279 68.0126 91.982 68.1179 92.2471 68.1179H101.619C101.75 68.118 101.88 68.0923 102.002 68.0421C102.123 67.9919 102.233 67.9183 102.326 67.8255C102.419 67.7327 102.492 67.6225 102.542 67.5012C102.593 67.3799 102.618 67.2499 102.618 67.1186V59.9196C103.184 59.6856 103.652 59.2625 103.941 58.7224C104.23 58.1823 104.323 57.5586 104.204 56.9577C104.085 56.3568 103.761 55.8159 103.287 55.427C102.814 55.0382 102.22 54.8256 101.608 54.8254V54.8217ZM71.5217 39.7711C71.3641 39.558 71.2976 39.2911 71.3366 39.029C71.3757 38.7668 71.5172 38.5309 71.7301 38.373L74.4032 36.3933C74.6161 36.2358 74.8828 36.1693 75.1448 36.2085C75.4067 36.2476 75.6423 36.3893 75.7999 36.6022C75.9574 36.8151 76.0239 37.0818 75.9847 37.3438C75.9455 37.6057 75.8039 37.8413 75.591 37.9989L72.9198 39.9786C72.7484 40.1061 72.5405 40.1748 72.3268 40.1746C72.1705 40.1748 72.0162 40.1384 71.8764 40.0683C71.7366 39.9983 71.6152 39.8965 71.5217 39.7711ZM66.7751 36.2806C66.6571 36.2233 66.5515 36.1432 66.4645 36.045C66.3774 35.9468 66.3106 35.8323 66.2679 35.7082C66.2253 35.5841 66.2075 35.4528 66.2157 35.3218C66.2239 35.1909 66.2579 35.0628 66.3157 34.945L67.7726 31.9546C67.8886 31.7159 68.0947 31.5331 68.3456 31.4465C68.5964 31.3598 68.8714 31.3763 69.1101 31.4923C69.3487 31.6084 69.5315 31.8145 69.6182 32.0653C69.7049 32.3162 69.6884 32.5912 69.5723 32.8298L68.1155 35.8212C67.9988 36.0587 67.7928 36.2404 67.5425 36.3265C67.2922 36.4126 67.018 36.3961 66.7799 36.2806H66.7751ZM51.664 40.8955C51.5853 41.0004 51.4868 41.0889 51.3739 41.1557C51.2611 41.2226 51.1362 41.2665 51.0063 41.2851C50.8765 41.3037 50.7443 41.2964 50.6172 41.2639C50.4902 41.2313 50.3708 41.1741 50.2659 41.0953L47.6051 39.1014C47.5001 39.0228 47.4116 38.9243 47.3447 38.8115C47.2778 38.6987 47.2338 38.5738 47.2151 38.444C47.1965 38.3141 47.2036 38.1819 47.2361 38.0548C47.2685 37.9278 47.3257 37.8083 47.4043 37.7033C47.4829 37.5983 47.5814 37.5099 47.6942 37.4429C47.8071 37.376 47.9319 37.332 48.0618 37.3134C48.1916 37.2947 48.3238 37.3018 48.4509 37.3343C48.578 37.3667 48.6974 37.4239 48.8024 37.5025L51.4651 39.4974C51.5702 39.5759 51.6587 39.6745 51.7256 39.7874C51.7925 39.9002 51.8365 40.0252 51.8549 40.1551C51.8734 40.285 51.8661 40.4173 51.8333 40.5443C51.8005 40.6714 51.743 40.7907 51.664 40.8955ZM54.6335 36.4388L53.1862 33.4446C53.0761 33.2066 53.064 32.9349 53.1524 32.6881C53.2409 32.4413 53.4227 32.2391 53.6588 32.1251C53.895 32.0112 54.1664 31.9946 54.4147 32.0789C54.6629 32.1632 54.8681 32.3418 54.9859 32.576L56.4323 35.5692C56.4896 35.6875 56.5229 35.8159 56.5304 35.9471C56.538 36.0782 56.5196 36.2096 56.4763 36.3337C56.433 36.4577 56.3657 36.572 56.2782 36.67C56.1907 36.768 56.0847 36.8478 55.9663 36.9048C55.8311 36.9696 55.6833 37.0035 55.5334 37.0043C55.3449 37.0043 55.1602 36.951 55.0008 36.8504C54.8414 36.7498 54.7137 36.6061 54.6326 36.4359L54.6335 36.4388ZM61.2784 35.3523C61.1473 35.3524 61.0175 35.3267 60.8964 35.2766C60.7752 35.2266 60.6652 35.1531 60.5725 35.0605C60.4797 34.9679 60.4062 34.8579 60.356 34.7368C60.3058 34.6157 60.28 34.4859 60.28 34.3549V31.0301C60.2759 30.8963 60.2986 30.7631 60.347 30.6383C60.3953 30.5135 60.4683 30.3997 60.5614 30.3037C60.6546 30.2076 60.7661 30.1312 60.8893 30.079C61.0126 30.0269 61.145 30 61.2788 30C61.4127 30 61.5451 30.0269 61.6684 30.079C61.7916 30.1312 61.9031 30.2076 61.9963 30.3037C62.0894 30.3997 62.1623 30.5135 62.2107 30.6383C62.259 30.7631 62.2818 30.8963 62.2777 31.0301V34.3549C62.2774 34.6197 62.172 34.8737 61.9847 35.0609C61.7973 35.2481 61.5432 35.3523 61.2784 35.3523ZM83.2901 43.578L84.9951 46.5287C84.7519 46.5572 84.5276 46.6741 84.3649 46.8571C84.2021 47.0401 84.1122 47.2765 84.1123 47.5214V60.4037H82.4688V47.5214C82.4688 47.2762 82.3787 47.0395 82.2155 46.8565C82.0524 46.6735 81.8277 46.5568 81.5841 46.5287L83.2901 43.578ZM81.4723 62.3929H85.1107C85.3757 62.3929 85.6299 62.2876 85.8173 62.1002C86.0047 61.9127 86.11 61.6586 86.11 61.3935V48.5188H86.7209C86.8961 48.5181 87.068 48.4714 87.2195 48.3835C87.3709 48.2955 87.4967 48.1693 87.584 48.0174C87.6714 47.8656 87.7174 47.6935 87.7173 47.5184C87.7173 47.3432 87.6713 47.1711 87.5839 47.0193L84.1568 41.0802C84.0693 40.9281 83.9432 40.8018 83.7913 40.7139C83.6394 40.6261 83.467 40.5798 83.2915 40.5798C83.116 40.5798 82.9436 40.6261 82.7917 40.7139C82.6398 40.8018 82.5137 40.9281 82.4262 41.0802L78.9972 47.0203C78.9097 47.1722 78.8637 47.3445 78.8638 47.5198C78.8638 47.6951 78.91 47.8673 78.9976 48.0192C79.0852 48.1711 79.2111 48.2973 79.3629 48.3851C79.5146 48.473 79.6867 48.5194 79.8621 48.5197H80.474V61.3954C80.474 61.5265 80.4998 61.6563 80.55 61.7773C80.6002 61.8984 80.6737 62.0084 80.7664 62.101C80.8592 62.1937 80.9692 62.2671 81.0904 62.3172C81.2115 62.3673 81.3413 62.393 81.4723 62.3929ZM39.5717 43.6699L41.2577 46.5921C41.0165 46.623 40.7947 46.7407 40.634 46.9232C40.4732 47.1058 40.3845 47.3406 40.3844 47.5839V60.397H38.7589V47.5839C38.7588 47.3405 38.6699 47.1055 38.509 46.923C38.3481 46.7404 38.1261 46.6228 37.8846 46.5921L39.5717 43.6699ZM37.7596 62.3929H41.3828C41.5139 62.3929 41.6439 62.367 41.765 62.3168C41.8862 62.2665 41.9963 62.1929 42.0891 62.1001C42.1818 62.0073 42.2553 61.8971 42.3054 61.7759C42.3555 61.6546 42.3813 61.5247 42.3811 61.3935V48.5832H42.9836C43.159 48.5832 43.3312 48.5371 43.4831 48.4494C43.635 48.3617 43.7612 48.2356 43.8489 48.0838C43.9367 47.9319 43.9829 47.7597 43.983 47.5843C43.983 47.4089 43.9369 47.2366 43.8493 47.0847L40.4393 41.1721C40.3515 41.0202 40.2252 40.8942 40.0733 40.8066C39.9213 40.7189 39.749 40.6728 39.5736 40.6728C39.3981 40.6728 39.2258 40.7189 39.0738 40.8066C38.9219 40.8942 38.7956 41.0202 38.7078 41.1721L35.2978 47.0847C35.2102 47.2366 35.1641 47.4089 35.1641 47.5843C35.1642 47.7597 35.2104 47.9319 35.2982 48.0838C35.3859 48.2356 35.5121 48.3617 35.664 48.4494C35.8159 48.5371 35.9881 48.5832 36.1635 48.5832H36.7669V61.3954C36.7672 61.6591 36.8717 61.9119 37.0576 62.0988C37.2436 62.2856 37.496 62.3914 37.7596 62.3929ZM62.0087 55.857C62.1021 55.8579 62.1932 55.8865 62.2705 55.9391C62.3478 55.9917 62.4077 56.066 62.4428 56.1526C62.478 56.2392 62.4867 56.3343 62.4679 56.4259C62.4491 56.5174 62.4036 56.6014 62.3372 56.6671C62.2707 56.7329 62.1864 56.7775 62.0946 56.7954C62.0029 56.8133 61.9079 56.8037 61.8216 56.7677C61.7354 56.7317 61.6617 56.671 61.6098 56.5932C61.558 56.5154 61.5303 56.4241 61.5303 56.3306C61.5303 56.268 61.5427 56.206 61.5668 56.1482C61.5909 56.0905 61.6262 56.038 61.6707 55.994C61.7152 55.95 61.768 55.9152 61.826 55.8917C61.884 55.8681 61.9461 55.8563 62.0087 55.857ZM62.0087 58.8076C62.498 58.808 62.9764 58.6632 63.3835 58.3917C63.7905 58.1202 64.1079 57.7341 64.2956 57.2822C64.4832 56.8303 64.5327 56.3329 64.4376 55.8529C64.3426 55.373 64.1074 54.9319 63.7617 54.5856C63.4161 54.2393 62.9755 54.0032 62.4957 53.9073C62.0159 53.8114 61.5184 53.8598 61.0662 54.0466C60.6139 54.2334 60.2272 54.5501 59.9549 54.9566C59.6826 55.3631 59.537 55.8413 59.5364 56.3306C59.5374 56.987 59.7988 57.6161 60.2632 58.08C60.7276 58.5438 61.357 58.8045 62.0134 58.8047L62.0087 58.8076ZM61.1287 52.2954L60.889 42.6649C60.8824 42.3999 60.9813 42.143 61.164 41.9509C61.3467 41.7588 61.5982 41.6471 61.8633 41.6405C62.1283 41.6338 62.3851 41.7327 62.5773 41.9154C62.7694 42.0981 62.881 42.3497 62.8877 42.6147L63.1255 52.2461C63.129 52.3772 63.1066 52.5076 63.0597 52.63C63.0127 52.7523 62.9421 52.8643 62.8518 52.9593C62.7615 53.0543 62.6534 53.1306 62.5336 53.1838C62.4138 53.2369 62.2846 53.266 62.1536 53.2691H62.1261C61.8657 53.269 61.6157 53.1671 61.4293 52.9852C61.243 52.8032 61.1351 52.5557 61.1287 52.2954ZM62.0087 38.4819C59.4009 38.4862 56.9012 39.5243 55.0576 41.3686C53.214 43.2129 52.1768 45.713 52.1736 48.3208C52.1736 51.3917 54.715 55.2972 56.9562 58.7403C57.7139 59.9111 58.4367 61.0137 59.0344 62.0556L59.1045 62.174H64.9224L64.9896 62.0556C65.5883 61.0194 66.3072 59.914 67.0678 58.7403C69.309 55.2962 71.8494 51.3908 71.8494 48.3208C71.8459 45.713 70.8086 43.213 68.9648 41.3689C67.121 39.5247 64.6212 38.4869 62.0134 38.4829L62.0087 38.4819ZM69.1347 67.4226H55.8318V64.1699H69.1394V67.4236L69.1347 67.4226ZM66.7666 70.3278C66.7659 70.8922 66.5412 71.4333 66.142 71.8323C65.7428 72.2313 65.2017 72.4557 64.6372 72.4562H60.28C59.7156 72.4557 59.1744 72.2313 58.7752 71.8323C58.376 71.4333 58.1514 70.8922 58.1506 70.3278V69.4213H66.7704V70.3287L66.7666 70.3278ZM55.2833 59.8353C55.8138 60.6518 56.3253 61.4333 56.78 62.175H55.4226C55.0012 62.1757 54.5973 62.3436 54.2995 62.6418C54.0017 62.9399 53.8343 63.344 53.8341 63.7654V67.8385C53.8346 68.2596 54.0021 68.6634 54.2999 68.9612C54.5977 69.259 55.0014 69.4265 55.4226 69.427H56.1567V70.3344C56.1582 71.4286 56.5937 72.4775 57.3675 73.251C58.1414 74.0246 59.1905 74.4596 60.2847 74.4606H64.642C65.7362 74.4596 66.7853 74.0246 67.5592 73.251C68.333 72.4775 68.7685 71.4286 68.77 70.3344V69.4213H69.5486C69.9699 69.421 70.3739 69.2536 70.6719 68.9558C70.9699 68.658 71.1376 68.2541 71.1381 67.8328V63.7597C71.1378 63.3381 70.9703 62.9339 70.6723 62.6357C70.3743 62.3376 69.9702 62.1698 69.5486 62.1693H67.2478C67.7025 61.4276 68.2121 60.6462 68.7425 59.8297C71.1352 56.1516 73.8481 51.9819 73.8481 48.318C73.7653 45.2338 72.482 42.3038 70.2713 40.1517C68.0606 37.9995 65.0972 36.7953 62.012 36.7953C58.9267 36.7953 55.9633 37.9995 53.7527 40.1517C51.542 42.3038 50.2587 45.2338 50.1759 48.318C50.1759 51.9819 52.8888 56.1516 55.2815 59.8297L55.2833 59.8353ZM80.9912 69.9773C81.0398 69.7907 81.1414 69.6221 81.2838 69.492C81.4262 69.3619 81.6032 69.2758 81.7935 69.2442L88.7206 68.1009V65.9109H77.6531C77.4002 69.9887 75.602 73.8167 72.625 76.6148C69.6479 79.413 65.7159 80.9708 61.6303 80.9708C57.5446 80.9708 53.6126 79.413 50.6356 76.6148C47.6585 73.8167 45.8603 69.9887 45.6074 65.9109H34.539V68.1009L41.4623 69.2442C41.6528 69.2755 41.8301 69.3615 41.9727 69.4916C42.1152 69.6218 42.217 69.7905 42.2656 69.9773C42.7274 71.7463 43.4312 73.443 44.3571 75.0194C44.4545 75.1862 44.5017 75.3775 44.4929 75.5704C44.4842 75.7633 44.4199 75.9496 44.3078 76.1068L40.2224 81.8111L44.7322 86.318L50.4383 82.2288C50.5951 82.1163 50.7812 82.0517 50.9741 82.0427C51.1669 82.0338 51.3582 82.081 51.5247 82.1786C53.1001 83.1063 54.7962 83.8114 56.5649 84.2738C56.7517 84.3228 56.9204 84.4248 57.0505 84.5675C57.1806 84.7102 57.2666 84.8875 57.2981 85.078L58.4414 92.0013H64.8172L65.9615 85.078C65.9932 84.8876 66.0793 84.7104 66.2094 84.5678C66.3394 84.4251 66.5079 84.323 66.6946 84.2738C68.4634 83.8124 70.1601 83.1093 71.7367 82.1843C71.9031 82.086 72.0945 82.0382 72.2876 82.0468C72.4807 82.0554 72.6671 82.1199 72.8241 82.2326L78.5303 86.3218L83.0372 81.8111L78.948 76.1031C78.8357 75.9459 78.7713 75.7597 78.7624 75.5668C78.7535 75.3738 78.8005 75.1825 78.8978 75.0156C79.8239 73.4393 80.5277 71.7426 80.9893 69.9735L80.9912 69.9773ZM89.8809 69.9347C90.1144 69.8959 90.3265 69.7755 90.4795 69.5949C90.6325 69.4143 90.7164 69.1853 90.7164 68.9486V64.9125C90.7164 64.7812 90.6905 64.6513 90.6403 64.5301C90.5901 64.4088 90.5165 64.2986 90.4237 64.2059C90.3309 64.1131 90.2207 64.0394 90.0995 63.9892C89.9782 63.939 89.8483 63.9132 89.717 63.9132H76.6851C76.5539 63.9132 76.424 63.939 76.3028 63.9892C76.1816 64.0395 76.0715 64.1131 75.9788 64.2059C75.886 64.2987 75.8125 64.4089 75.7624 64.5301C75.7123 64.6514 75.6865 64.7813 75.6867 64.9125C75.7019 66.7681 75.3496 68.6084 74.65 70.3272C73.9504 72.0459 72.9175 73.6092 71.6107 74.9267C70.3039 76.2443 68.7492 77.29 67.0362 78.0037C65.3233 78.7173 63.4859 79.0848 61.6303 79.0848C59.7746 79.0848 57.9373 78.7173 56.2243 78.0037C54.5113 77.29 52.9566 76.2443 51.6498 74.9267C50.3431 73.6092 49.3101 72.0459 48.6105 70.3272C47.9109 68.6084 47.5586 66.7681 47.5738 64.9125C47.5736 64.6475 47.4682 64.3935 47.2809 64.2061C47.0935 64.0188 46.8395 63.9134 46.5745 63.9132H33.5425C33.2775 63.9132 33.0233 64.0184 32.8359 64.2059C32.6485 64.3933 32.5432 64.6474 32.5432 64.9125V68.9486C32.5431 69.1853 32.6271 69.4143 32.7801 69.5949C32.9331 69.7755 33.1452 69.8959 33.3787 69.9347L40.5066 71.1074C40.9476 72.6183 41.5511 74.077 42.3063 75.458L38.0959 81.3308C37.9576 81.5231 37.8923 81.7584 37.9117 81.9945C37.9312 82.2305 38.0341 82.452 38.202 82.619L43.9166 88.3346C44.0844 88.5016 44.306 88.6038 44.542 88.623C44.7779 88.6423 45.0131 88.5773 45.2058 88.4398L51.0786 84.2284C52.4593 84.9849 53.9177 85.5902 55.4283 86.0338L56.6095 93.1636C56.6481 93.3972 56.7684 93.6096 56.949 93.7628C57.1296 93.916 57.3587 94 57.5955 94H65.6659C65.9028 94.0006 66.1321 93.9167 66.3126 93.7634C66.4932 93.6101 66.6132 93.3974 66.651 93.1636L67.8303 86.0338C69.3406 85.5902 70.7987 84.9849 72.1791 84.2284L78.0519 88.4398C78.2446 88.5773 78.4797 88.6423 78.7157 88.623C78.9517 88.6038 79.1732 88.5016 79.3411 88.3346L85.0472 82.6276C85.2148 82.4603 85.3174 82.2389 85.3369 82.0029C85.3563 81.767 85.2912 81.5318 85.1533 81.3393L80.9419 75.4665C81.7001 74.0826 82.3073 72.6211 82.753 71.1074L89.8809 69.9347Z" fill="white"/>
<defs>
<linearGradient id="paint0_linear_2041_6" x1="241.358" y1="63.1622" x2="51.2435" y2="152.889" gradientUnits="userSpaceOnUse">
<stop stop-color="#04BFD7"/>
<stop offset="1" stop-color="#63388B"/>
</linearGradient>
</defs>
</svg>
