<svg width="123" height="123" viewBox="0 0 123 123" fill="none" xmlns="http://www.w3.org/2000/svg">
<circle cx="61.5" cy="61.5" r="61.5" fill="url(#paint0_linear_2041_8)"/>
<path d="M71.6953 67.8152C71.1609 67.8152 70.7246 68.2488 70.7246 68.786V79.4509C70.7246 81.0544 69.4211 82.3606 67.8149 82.3606H34.8485C33.245 82.3606 31.9388 81.0571 31.9388 79.4509L31.9415 34.8485C31.9415 33.2451 33.245 31.9388 34.8512 31.9388H43.5774V32.9096H35.8222C34.2188 32.9096 32.9126 34.2131 32.9126 35.8193V78.4795C32.9126 80.083 34.2161 81.3892 35.8222 81.3892H66.8493C68.4528 81.3892 69.759 80.0857 69.759 78.4795V68.7822C69.759 68.2477 69.3254 67.8115 68.7882 67.8115C68.2538 67.8115 67.8175 68.245 67.8175 68.7822V78.4795C67.8175 79.014 67.3812 79.4503 66.8467 79.4503H35.8196C35.2851 79.4503 34.8488 79.014 34.8488 78.4795V35.8193C34.8488 35.2848 35.2851 34.8485 35.8196 34.8485H43.5748C43.5748 36.452 44.8783 37.7582 46.4845 37.7582H56.1818C57.7853 37.7582 59.0915 36.4547 59.0915 34.8485H66.8467C67.3812 34.8485 67.8175 35.2848 67.8175 35.8193V62.9691C67.8175 63.5036 68.251 63.9399 68.7882 63.9399C69.3227 63.9399 69.759 63.5063 69.759 62.9691L69.7536 35.8193C69.7536 34.2158 68.4501 32.9096 66.8439 32.9096H59.0887V31.9388H67.8149C69.4184 31.9388 70.7246 33.2423 70.7246 34.8485V62.9659C70.7246 63.5004 71.1582 63.9367 71.6954 63.9367C72.2299 63.9367 72.6662 63.5031 72.6662 62.9659L72.6635 34.8485C72.6635 32.1761 70.4873 30 67.8149 30L34.8485 30.0027C32.1761 30.0027 30 32.1788 30 34.8512V79.4536C30 82.126 32.1761 84.3021 34.8485 84.3021H67.8149C70.4873 84.3021 72.6635 82.126 72.6635 79.4536V68.7887C72.6635 68.2542 72.2299 67.8179 71.6927 67.8179L71.6953 67.8152ZM45.5166 31.9419H57.1525V34.8516C57.1525 35.3861 56.7162 35.8224 56.1817 35.8224H46.4844C45.9499 35.8224 45.5136 35.3861 45.5136 34.8516V31.9419H45.5166Z" fill="white"/>
<path d="M82.0739 82.644C81.6948 82.2649 81.0812 82.2649 80.7022 82.644C80.3232 83.023 80.3232 83.6366 80.7022 84.0156L84.58 87.8933C84.7654 88.0788 85.0136 88.1769 85.2644 88.1769C85.3599 88.1769 85.4581 88.1633 85.5535 88.1333C85.8971 88.027 86.1534 87.7352 86.2189 87.3807C86.238 87.2798 88.125 77.2554 93.3283 75.5214C93.8355 75.3523 94.111 74.8015 93.9419 74.2942C93.7728 73.787 93.2247 73.5116 92.7148 73.6807C87.8853 75.2896 85.5648 82.0334 84.7111 85.281L82.0714 82.6413L82.0739 82.644Z" fill="white"/>
<path d="M92.2883 78.8212C91.9829 78.3821 91.3775 78.2731 90.9385 78.5785C90.4994 78.8839 90.3904 79.4893 90.6958 79.9283C91.5847 81.2073 92.0538 82.7207 92.0538 84.2996C92.0538 88.5755 88.5742 92.0548 84.2986 92.0548C80.023 92.0548 76.5434 88.5752 76.5434 84.2996C76.5434 80.024 80.023 76.5444 84.2986 76.5444C85.0676 76.5444 85.8175 76.6535 86.5265 76.8717C87.0365 77.0271 87.5791 76.738 87.7373 76.2281C87.8927 75.7154 87.6037 75.1755 87.0937 75.0173C86.5047 74.8373 85.8911 74.7392 85.2694 74.6764V74.6055C85.2694 74.0711 84.8358 73.6348 84.2986 73.6348C83.7641 73.6348 83.3278 74.0684 83.3278 74.6055V74.6546C78.4357 75.1428 74.6016 79.2823 74.6016 84.3024C74.6016 89.65 78.9511 93.9997 84.2989 93.9997C89.6465 93.9997 93.9962 89.6502 93.9962 84.3024C93.9962 82.3254 93.4072 80.4301 92.2919 78.8239L92.2883 78.8212Z" fill="white"/>
<path d="M68.6883 64.9082H66.7794C66.2449 64.9082 65.8086 65.3418 65.8086 65.879C65.8086 66.4135 66.2422 66.8498 66.7794 66.8498H68.6883C69.2227 66.8498 69.659 66.4162 69.659 65.879C69.659 65.3445 69.2255 64.9082 68.6883 64.9082Z" fill="white"/>
<path d="M78.0144 67.0059C78.557 67.1259 79.0861 67.314 79.5824 67.5622C79.7215 67.6331 79.8714 67.6658 80.016 67.6658C80.3705 67.6658 80.7141 67.4695 80.8831 67.1313C81.1231 66.6514 80.9295 66.0705 80.4496 65.8305C79.8087 65.5088 79.1297 65.2688 78.4289 65.1134C77.9026 64.9961 77.3872 65.3288 77.2727 65.8497C77.1582 66.3732 77.4881 66.8914 78.009 67.0059L78.0144 67.0059Z" fill="white"/>
<path d="M63.9286 65.8772C63.9286 65.3427 63.495 64.9064 62.9578 64.9064H61.0489C60.5144 64.9064 60.0781 65.34 60.0781 65.8772C60.0781 66.4116 60.5117 66.8479 61.0489 66.8479H62.9578C63.4923 66.8479 63.9286 66.4143 63.9286 65.8772Z" fill="white"/>
<path d="M82.3232 68.3707C81.8869 68.6788 81.7832 69.2842 82.0914 69.7232C82.4132 70.1786 82.6777 70.6722 82.8795 71.1904C83.0295 71.5749 83.3949 71.8121 83.7849 71.8121C83.9021 71.8121 84.0194 71.7903 84.1339 71.7467C84.6329 71.553 84.8811 70.9913 84.6902 70.4922C84.4339 69.8241 84.093 69.1888 83.6785 68.6025C83.3704 68.1662 82.765 68.0625 82.3259 68.3707L82.3232 68.3707Z" fill="white"/>
<path d="M55.3223 66.8459H57.2312C57.7657 66.8459 58.202 66.4123 58.202 65.8751C58.202 65.3406 57.7684 64.9043 57.2312 64.9043H55.3223C54.7879 64.9043 54.3516 65.3379 54.3516 65.8751C54.3516 66.4096 54.7851 66.8459 55.3223 66.8459Z" fill="white"/>
<path d="M43.5723 56.1426C43.0379 56.1426 42.6016 56.5762 42.6016 57.1134V58.1196C42.6016 58.4632 42.6207 58.7986 42.6588 59.1313C42.7161 59.6249 43.1333 59.9903 43.6214 59.9903C43.6596 59.9903 43.6951 59.9876 43.7332 59.9849C44.265 59.9221 44.6468 59.4422 44.5841 58.9104C44.5541 58.6514 44.5405 58.3896 44.5405 58.1196V57.1134C44.5405 56.5789 44.1069 56.1426 43.5697 56.1426L43.5723 56.1426Z" fill="white"/>
<path d="M75.3856 65.8773C75.3856 65.3428 74.952 64.9065 74.4148 64.9065H72.5059C71.9714 64.9065 71.5352 65.3401 71.5352 65.8773C71.5352 66.4118 71.9687 66.8481 72.5059 66.8481H74.4148C74.9493 66.8481 75.3856 66.4145 75.3856 65.8773Z" fill="white"/>
<path d="M44.1715 63.108C44.5805 63.6943 45.0604 64.2288 45.6004 64.7005C45.7831 64.8614 46.0122 64.9377 46.2385 64.9377C46.5085 64.9377 46.7784 64.8259 46.9693 64.6051C47.3211 64.2015 47.2802 63.5879 46.8766 63.2361C46.454 62.868 46.0804 62.4508 45.7613 61.9954C45.4559 61.5564 44.8505 61.4473 44.4114 61.7554C43.9724 62.0609 43.8633 62.6663 44.1715 63.1053V63.108Z" fill="white"/>
<path d="M51.3352 64.9077C50.8252 64.9077 50.318 64.8505 49.8271 64.7387C49.3063 64.6214 48.7854 64.9486 48.6654 65.4695C48.5454 65.9903 48.8727 66.5112 49.3963 66.6312C50.0289 66.7757 50.6806 66.8466 51.3351 66.8466H51.5069C52.0414 66.8466 52.4777 66.413 52.4777 65.8759C52.4777 65.3414 52.0441 64.9051 51.5069 64.9051H51.3351L51.3352 64.9077Z" fill="white"/>
<path d="M43.5751 43.5742C40.9027 43.5742 38.7266 45.7503 38.7266 48.4227C38.7266 50.7625 40.3954 52.7232 42.6043 53.1731V53.2713C42.6043 53.8058 43.0379 54.2421 43.5751 54.2421C44.1096 54.2421 44.5459 53.8085 44.5459 53.2713V53.1731C46.7547 52.7232 48.4236 50.7652 48.4236 48.4227C48.4236 45.7503 46.2475 43.5742 43.5751 43.5742ZM43.5751 51.3322C41.9716 51.3322 40.6654 50.0287 40.6654 48.4225C40.6654 46.8191 41.9689 45.5128 43.5751 45.5128C45.1786 45.5128 46.4848 46.8163 46.4848 48.4225C46.4848 50.026 45.1813 51.3322 43.5751 51.3322Z" fill="white"/>
<path d="M54.5241 58.8059C54.7122 58.9941 54.9604 59.0895 55.2085 59.0895C55.4567 59.0895 55.7048 58.9941 55.893 58.8059L57.1474 57.5515L58.4018 58.8059C58.59 58.9941 58.8381 59.0895 59.0863 59.0895C59.3344 59.0895 59.5826 58.9941 59.7708 58.8059C60.1498 58.4269 60.1498 57.8133 59.7708 57.4343L58.5163 56.1799L59.7708 54.9254C60.1498 54.5464 60.1498 53.9328 59.7708 53.5538C59.3917 53.1748 58.7781 53.1748 58.3991 53.5538L57.1447 54.8082L55.8903 53.5538C55.5112 53.1748 54.8977 53.1748 54.5187 53.5538C54.1396 53.9329 54.1396 54.5464 54.5187 54.9254L55.7731 56.1799L54.5187 57.4343C54.1396 57.8133 54.1396 58.4269 54.5187 58.8059H54.5241Z" fill="white"/>
<path d="M61.7161 70.0401C61.337 69.6611 60.7234 69.6611 60.3444 70.0401L59.09 71.2946L57.8356 70.0401C57.4566 69.6611 56.843 69.6611 56.464 70.0401C56.0849 70.4192 56.0849 71.0328 56.464 71.4118L57.7184 72.6662L56.464 73.9206C56.0849 74.2997 56.0849 74.9132 56.464 75.2922C56.6521 75.4804 56.9003 75.5758 57.1484 75.5758C57.3966 75.5758 57.6447 75.4804 57.8329 75.2922L59.0873 74.0378L60.3417 75.2922C60.5299 75.4804 60.7781 75.5758 61.0262 75.5758C61.2744 75.5758 61.5225 75.4804 61.7107 75.2922C62.0897 74.9132 62.0897 74.2996 61.7107 73.9206L60.4563 72.6662L61.7107 71.4118C62.0897 71.0327 62.0897 70.4191 61.7107 70.0401H61.7161Z" fill="white"/>
<path d="M80.7037 61.7161C80.8919 61.9042 81.1401 61.9997 81.3882 61.9997C81.6364 61.9997 81.8845 61.9042 82.0727 61.7161L83.3271 60.4616L84.5815 61.7161C84.7697 61.9042 85.0178 61.9997 85.266 61.9997C85.5141 61.9997 85.7623 61.9042 85.9504 61.7161C86.3295 61.337 86.3295 60.7234 85.9504 60.3444L84.696 59.09L85.9504 57.8356C86.3295 57.4566 86.3295 56.843 85.9504 56.464C85.5714 56.0849 84.9578 56.0849 84.5788 56.464L83.3244 57.7184L82.07 56.464C81.6909 56.0849 81.0773 56.0849 80.6983 56.464C80.3193 56.843 80.3193 57.4566 80.6983 57.8356L81.9528 59.09L80.6983 60.3444C80.3193 60.7235 80.3193 61.3371 80.6983 61.7161H80.7037Z" fill="white"/>
<path d="M62.9682 40.6678H55.213C54.6785 40.6678 54.2422 41.1014 54.2422 41.6386C54.2422 42.1731 54.6758 42.6094 55.213 42.6094H62.9682C63.5027 42.6094 63.939 42.1758 63.939 41.6386C63.939 41.1041 63.5054 40.6678 62.9682 40.6678Z" fill="white"/>
<path d="M62.9682 44.5449H55.213C54.6785 44.5449 54.2422 44.9785 54.2422 45.5157C54.2422 46.0502 54.6758 46.4865 55.213 46.4865H62.9682C63.5027 46.4865 63.939 46.0529 63.939 45.5157C63.939 44.9812 63.5054 44.5449 62.9682 44.5449Z" fill="white"/>
<path d="M47.4525 70.7246H39.6973C39.1629 70.7246 38.7266 71.1582 38.7266 71.6954C38.7266 72.2299 39.1601 72.6662 39.6973 72.6662H47.4525C47.987 72.6662 48.4233 72.2326 48.4233 71.6954C48.4233 71.1609 47.9897 70.7246 47.4525 70.7246Z" fill="white"/>
<path d="M47.4525 74.6035H39.6973C39.1629 74.6035 38.7266 75.0371 38.7266 75.5743C38.7266 76.1088 39.1601 76.5451 39.6973 76.5451H47.4525C47.987 76.5451 48.4233 76.1115 48.4233 75.5743C48.4233 75.0398 47.9897 74.6035 47.4525 74.6035Z" fill="white"/>
<defs>
<linearGradient id="paint0_linear_2041_8" x1="241.358" y1="63.1622" x2="51.2435" y2="152.889" gradientUnits="userSpaceOnUse">
<stop stop-color="#04BFD7"/>
<stop offset="1" stop-color="#63388B"/>
</linearGradient>
</defs>
</svg>
