<svg width="17" height="17" viewBox="0 0 17 17" fill="none" xmlns="http://www.w3.org/2000/svg">
<path d="M15.8127 15.625H15.3564V9.82864C15.3564 9.72464 15.2721 9.64114 15.1689 9.64114H11.9007C11.7975 9.64114 11.7132 9.72464 11.7132 9.82864V15.625H10.3209L10.3216 11.9483C10.3216 11.8443 10.2374 11.7608 10.1341 11.7608H6.86601C6.76274 11.7608 6.67851 11.8443 6.67851 11.9483V15.625H5.28618V13.2168C5.28618 13.1128 5.20195 13.0293 5.09868 13.0293H1.8313C1.72803 13.0293 1.6438 13.1128 1.6438 13.2168V15.625H1.1875C1.08423 15.625 1 15.7085 1 15.8125C1 15.9165 1.08423 16 1.1875 16H15.8125C15.9158 16 16 15.9165 16 15.8125C16 15.7085 15.9159 15.625 15.8127 15.625ZM12.0884 10.0161H14.9815V15.625H12.0884V10.0161ZM7.0536 12.1358H9.94673V15.625H7.0536V12.1358ZM2.01885 13.4044H4.91198L4.91125 15.6251H2.01887L2.01885 13.4044Z" fill="white" stroke="#3F3F3F" stroke-width="0.2"/>
<path d="M10.0267 1H6.9733C6.87003 1 6.7858 1.0835 6.7858 1.1875V3.12906H4.84424C4.74097 3.12906 4.65674 3.21256 4.65674 3.31656V6.37075C4.65674 6.47475 4.74097 6.55825 4.84424 6.55825H6.7858V8.49981C6.7858 8.60382 6.87003 8.68731 6.9733 8.68731H10.0267C10.13 8.68731 10.2142 8.60382 10.2142 8.49981V6.55825H12.1558C12.2591 6.55825 12.3433 6.47475 12.3433 6.37075L12.344 3.31656C12.344 3.21256 12.2598 3.12906 12.1565 3.12906H10.2142V1.1875C10.2142 1.0835 10.1307 1 10.0267 1ZM11.9691 3.50406V6.18325H10.0267C9.92347 6.18325 9.83924 6.26675 9.83924 6.37075V8.31231H7.1608V6.37075C7.1608 6.26675 7.07657 6.18325 6.9733 6.18325H5.03174V3.50406H6.9733C7.07657 3.50406 7.1608 3.42057 7.1608 3.31656V1.375H9.83924V3.31656C9.83924 3.42057 9.92347 3.50406 10.0267 3.50406H11.9691Z" fill="white" stroke="#3F3F3F" stroke-width="0.2"/>
</svg>
