<svg width="50" height="50" viewBox="0 0 50 50" fill="none" xmlns="http://www.w3.org/2000/svg">
<path d="M47.9283 0H23.8564C23.8564 5.99999 28.7127 10.8583 34.7142 10.8583H39.1413V15.1427C39.1413 21.1427 43.9996 26.001 49.9996 26.001V2.07135C49.9992 1.52212 49.7809 0.995506 49.3925 0.607142C49.0041 0.218778 48.4775 0.000413836 47.9283 0Z" fill="#2684FF"/>
<path d="M36.0011 11.9995H11.9287C11.9287 17.999 16.7855 22.8573 22.7849 22.8573H27.2141V27.1417C27.2141 33.1417 32.0724 38 38.0724 38V14.0704C38.0716 13.5213 37.8531 12.9949 37.4648 12.6066C37.0766 12.2183 36.5502 12.0004 36.0011 11.9995Z" fill="url(#paint0_linear_2895_1386)"/>
<path d="M24.0724 23.999H0C0 30.0011 4.85624 34.8573 10.8583 34.8573H15.2854V39.1438C15.2854 45.1438 20.1437 50 26.1432 50V26.0725C26.1426 25.5232 25.9244 24.9966 25.5362 24.608C25.148 24.2195 24.6216 24.0001 24.0724 23.999Z" fill="url(#paint1_linear_2895_1386)"/>
<defs>
<linearGradient id="paint0_linear_2895_1386" x1="37.5714" y1="12.0266" x2="27.3297" y2="22.587" gradientUnits="userSpaceOnUse">
<stop offset="0.176" stop-color="#0052CC"/>
<stop offset="1" stop-color="#2684FF"/>
</linearGradient>
<linearGradient id="paint1_linear_2895_1386" x1="26.3354" y1="24.0917" x2="14.4937" y2="35.6126" gradientUnits="userSpaceOnUse">
<stop offset="0.176" stop-color="#0052CC"/>
<stop offset="1" stop-color="#2684FF"/>
</linearGradient>
</defs>
</svg>
