<svg width="67" height="41" viewBox="0 0 67 41" fill="none" xmlns="http://www.w3.org/2000/svg">
<path d="M8.3346 40.1703C6.85351 40.1735 5.39812 39.7835 4.1171 39.0401C2.83607 38.2967 1.77533 37.2266 1.04322 35.9391C0.322276 34.6607 -0.0372832 33.2102 0.00305696 31.7431C0.0433971 30.276 0.482117 28.8474 1.27222 27.6106L16.2876 4.03111C17.0561 2.76383 18.1472 1.72326 19.4495 1.01571C20.7517 0.308154 22.2185 -0.0410269 23.6999 0.0038377C25.1801 0.0392703 26.6244 0.46738 27.8849 1.24435C29.1453 2.02132 30.1767 3.11925 30.8735 4.42577C32.2734 7.0725 32.0983 10.2568 30.422 12.7415L15.4161 36.3207C14.6552 37.5066 13.6072 38.4811 12.3693 39.1541C11.1313 39.827 9.74358 40.1766 8.3346 40.1703Z" fill="#F62B54"/>
<path d="M34.0901 40.1707C31.0616 40.1707 28.2748 38.5515 26.8113 35.9492C26.092 34.6743 25.7332 33.2277 25.7736 31.7644C25.8139 30.3012 26.2518 28.8765 27.0403 27.6432L42.0272 4.11762C42.7844 2.83253 43.8716 1.77345 45.1761 1.05025C46.4807 0.327048 47.9549 -0.0339283 49.446 0.00476722C52.5 0.0715045 55.2676 1.77972 56.6672 4.45209C57.3504 5.76065 57.6613 7.23164 57.5659 8.70473C57.4706 10.1778 56.9727 11.5965 56.1265 12.806L41.1428 36.3313C40.3843 37.5121 39.3405 38.4827 38.1079 39.1538C36.8753 39.8248 35.4936 40.1744 34.0901 40.1707Z" fill="#FFCC00"/>
<path d="M59.2696 40.368C63.5391 40.368 67.0001 36.9796 67.0001 32.7997C67.0001 28.6199 63.5391 25.2314 59.2696 25.2314C55.0001 25.2314 51.5391 28.6199 51.5391 32.7997C51.5391 36.9796 55.0001 40.368 59.2696 40.368Z" fill="#00CA72"/>
</svg>
