<svg width="47" height="50" viewBox="0 0 47 50" fill="none" xmlns="http://www.w3.org/2000/svg">
<path fill-rule="evenodd" clip-rule="evenodd" d="M39.01 1.01014L39.5061 1.31564L44.6761 4.76231C45.3301 5.19868 45.877 5.77708 46.2763 6.45435C46.6755 7.13161 46.9166 7.89028 46.9817 8.67375L47 9.10719V41.8479C46.9999 43.0935 46.5546 44.298 45.7445 45.2441C44.9343 46.1903 43.8127 46.8157 42.582 47.0075L42.1773 47.0545L12.0738 49.3705C11.2725 49.4321 10.4678 49.308 9.72233 49.0077C8.97687 48.7074 8.31077 48.2392 7.77589 47.6394L7.4965 47.2973L1.56667 39.3909C0.665471 38.1889 0.128893 36.7532 0.0208886 35.2549L0 34.6909V7.51703C8.82467e-05 6.27145 0.445378 5.06692 1.25552 4.12081C2.06565 3.17469 3.18728 2.54929 4.418 2.35747L4.82272 2.31047L34.5581 0.0231398C36.1062 -0.0961099 37.6549 0.247433 39.0074 1.01014H39.01ZM41.7778 13.1414L13.0556 15.3504V44.0569L41.7778 41.8479V13.1414ZM33.9444 16.8491C34.637 16.8491 35.3011 17.1242 35.7908 17.6139C36.2805 18.1036 36.5556 18.7677 36.5556 19.4603V37.738C36.5556 38.4305 36.2805 39.0947 35.7908 39.5844C35.3011 40.074 34.637 40.3491 33.9444 40.3491H32.6389C32.1928 40.3493 31.7541 40.2351 31.3646 40.0175C30.9752 39.7999 30.648 39.4862 30.4142 39.1063L23.5 27.868V39.0436C23.5 39.7361 23.2249 40.4002 22.7352 40.8899C22.2455 41.3796 21.5814 41.6547 20.8889 41.6547C20.1964 41.6547 19.5322 41.3796 19.0426 40.8899C18.5529 40.4002 18.2778 39.7361 18.2778 39.0436V20.7658C18.2778 20.0733 18.5529 19.4092 19.0426 18.9195C19.5322 18.4298 20.1964 18.1547 20.8889 18.1547H22.1944C22.6406 18.1546 23.0792 18.2687 23.4687 18.4863C23.8581 18.7039 24.1854 19.0176 24.4191 19.3976L31.3333 30.6332V19.4603C31.3333 18.7677 31.6084 18.1036 32.0981 17.6139C32.5878 17.1242 33.2519 16.8491 33.9444 16.8491ZM34.9576 5.2297L8.47306 7.26636L11.4419 10.2352L40.1589 8.02881L36.6078 5.66053C36.1214 5.33625 35.5403 5.18454 34.9576 5.2297Z" fill="black"/>
</svg>
