<svg width="114" height="100" viewBox="0 0 114 100" fill="none" xmlns="http://www.w3.org/2000/svg">
<path d="M87.8026 64.0614C87.7065 63.8957 87.648 63.711 87.6311 63.5203C87.6142 63.3295 87.6394 63.1374 87.7049 62.9574C87.7704 62.7774 87.8746 62.614 88.0102 62.4786C88.1457 62.3432 88.3094 62.2392 88.4896 62.1738L88.4221 57.5195L90.4629 58.8218L90.2142 63.0419C90.3041 63.3515 90.2771 63.6833 90.1385 63.9745C89.9998 64.2656 89.759 64.4958 89.4618 64.6215C89.1645 64.7472 88.8314 64.7596 88.5257 64.6563C88.2199 64.5531 87.9626 64.3414 87.8026 64.0614Z" fill="#A0616A"/>
<path d="M85.3423 38.7925C84.7373 38.8993 84.1881 39.2122 83.7882 39.678C83.3882 40.1437 83.1623 40.7336 83.1488 41.347C83.1193 42.7091 83.5744 43.217 84.2175 43.4006C85.4064 43.7398 87.2999 50.6015 87.2999 50.6015C87.2999 50.6015 87.5009 57.0013 87.825 56.6853C88.1491 56.3692 87.7823 57.1067 87.8808 57.3317C87.9793 57.5567 87.4139 57.8937 87.9513 58.1493C88.4888 58.4049 88.1491 60.4406 88.1491 60.4406L90.5269 60.2709C90.5269 60.2709 90.1321 58.6126 90.6692 58.5088C91.2063 58.4049 90.9623 57.933 90.7446 57.5752C90.5269 57.2174 91.1297 56.7075 90.8283 56.5384C90.5269 56.3692 91.3762 49.7533 91.3762 49.7533L88.0559 39.9957C87.7749 39.5481 87.3665 39.1945 86.883 38.9802C86.3996 38.7658 85.8631 38.7005 85.3423 38.7925Z" fill="#63388B"/>
<path d="M78.1289 39.1761L79.8394 36.1816H82.1503L83.8836 39.3458L78.1289 39.1761Z" fill="#63388B"/>
<path d="M73.5281 12.2499C72.1614 7.67732 68.3002 4.69225 63.6344 4.03739C63.5831 4.03017 63.5344 4.03971 63.4833 4.03642C63.4172 4.01625 63.3498 4.00075 63.2816 3.99002C56.8652 3.16175 49.8608 4.64516 44.286 8.12903C38.9423 11.4685 32.8023 13.3527 26.4989 13.3109C26.3031 13.3096 26.1066 13.3138 25.9093 13.3236C21.0584 13.5654 16.7774 17.0922 15.466 21.731C15.2939 22.3397 15.5938 22.8835 16.076 23.2284C16.9234 23.8346 17.5023 24.2595 18.5449 24.4801C20.4053 24.8737 22.272 25.2357 24.1452 25.566V18.1139C24.146 17.4084 24.4269 16.7321 24.9264 16.2332C25.4259 15.7343 26.103 15.4537 26.8094 15.4529H63.4058C64.1121 15.4537 64.7893 15.7343 65.2887 16.2332C65.7882 16.7321 66.0692 17.4084 66.07 18.1139V27.3944C66.5719 27.2377 67.0619 27.045 67.5362 26.818C69.3016 25.9471 70.8099 24.6325 71.9128 23.0033C74.0316 19.9328 74.5912 15.8061 73.5281 12.2499Z" fill="#F2F2F2"/>
<path d="M58.1192 55.8604H25.7676C25.0211 55.8596 24.3054 55.563 23.7775 55.0357C23.2496 54.5085 22.9526 53.7936 22.9518 53.048V40.5098C19.0114 39.305 14.8613 38.9417 10.7711 39.4435C10.7029 39.4542 10.6355 39.4697 10.5694 39.4899C10.5183 39.4932 10.4696 39.4836 10.4183 39.4908C5.75253 40.1457 1.89131 43.1308 0.524577 47.7033C-0.538468 51.2596 0.0211375 55.3862 2.13989 58.4568C3.24285 60.0859 4.75111 61.4005 6.51654 62.2715C8.94318 63.439 11.4973 63.5267 14.1458 63.6092C22.098 63.857 30.0578 63.5565 37.9685 62.7098C41.8616 62.2928 45.7385 61.7477 49.5992 61.0748C51.5753 60.7294 53.5448 60.3489 55.5078 59.9335C56.5504 59.7129 57.1293 59.2881 57.9767 58.6819C58.4589 58.3369 58.7588 57.7931 58.5867 57.1845C58.4589 56.7338 58.3027 56.2916 58.1192 55.8604Z" fill="#F2F2F2"/>
<path d="M60.9824 52.1403H29.2323C28.6195 52.1396 28.032 51.8961 27.5987 51.4633C27.1654 51.0305 26.9216 50.4437 26.9209 49.8317V20.3614C26.9216 19.7493 27.1654 19.1625 27.5987 18.7297C28.032 18.2969 28.6195 18.0534 29.2323 18.0527H60.9824C61.5952 18.0534 62.1827 18.2969 62.616 18.7297C63.0494 19.1625 63.2931 19.7493 63.2938 20.3614V49.8317C63.2931 50.4437 63.0494 51.0305 62.616 51.4633C62.1827 51.8961 61.5952 52.1396 60.9824 52.1403Z" fill="#E6E6E6"/>
<path d="M54.3001 50.5832H30.7919C30.1791 50.5825 29.5916 50.3391 29.1583 49.9063C28.7249 49.4735 28.4812 48.8867 28.4805 48.2746V21.92C28.4812 21.3079 28.7249 20.7211 29.1583 20.2883C29.5916 19.8555 30.1791 19.612 30.7919 19.6113H59.4234C60.0362 19.612 60.6237 19.8555 61.0571 20.2883C61.4904 20.7211 61.7341 21.3079 61.7349 21.92V43.1574C61.7326 45.1262 60.9486 47.0137 59.5548 48.4058C58.161 49.798 56.2712 50.581 54.3001 50.5832Z" fill="white"/>
<path d="M45.1076 45.446C50.8296 45.446 55.4682 40.8131 55.4682 35.098C55.4682 29.383 50.8296 24.75 45.1076 24.75C39.3856 24.75 34.7471 29.383 34.7471 35.098C34.7471 40.8131 39.3856 45.446 45.1076 45.446Z" fill="#63388B"/>
<path d="M49.4718 34.5764L46.0144 30.3772C45.9206 30.2633 45.8032 30.1711 45.6702 30.107C45.5372 30.0429 45.3918 30.0084 45.2442 30.006C45.0965 30.0036 44.9501 30.0332 44.8151 30.0928C44.68 30.1525 44.5595 30.2408 44.462 30.3515L40.7647 34.5507C40.5866 34.7535 40.4964 35.0186 40.5139 35.2878C40.5313 35.557 40.655 35.8082 40.8578 35.9864C41.0607 36.1645 41.326 36.2549 41.5955 36.2378C41.865 36.2207 42.1167 36.0975 42.2953 35.8951L44.2083 33.7224V39.1704C44.2083 39.4404 44.3156 39.6993 44.5067 39.8902C44.6978 40.081 44.9571 40.1883 45.2273 40.1883C45.4976 40.1883 45.7568 40.081 45.9479 39.8902C46.139 39.6993 46.2464 39.4404 46.2464 39.1704V33.864L47.8976 35.8694C48.0692 36.0779 48.3168 36.2098 48.5858 36.236C48.8548 36.2622 49.1232 36.1805 49.332 36.0091C49.5407 35.8376 49.6727 35.5904 49.699 35.3217C49.7252 35.053 49.6435 34.7849 49.4718 34.5764Z" fill="white"/>
<path d="M89.7554 98.1073L88.2185 98.1072L87.4873 92.1855L89.7559 92.1857L89.7554 98.1073Z" fill="#A0616A"/>
<path d="M89.8097 99.7078L85.083 99.7077V99.648C85.083 99.1606 85.2769 98.6933 85.6219 98.3487C85.9669 98.0041 86.4348 97.8105 86.9228 97.8105L87.7863 97.1562L89.3972 97.8106L89.8098 97.8106L89.8097 99.7078Z" fill="#2F2E41"/>
<path d="M78.2056 98.1073L76.6687 98.1072L75.9375 92.1855L78.2061 92.1857L78.2056 98.1073Z" fill="#A0616A"/>
<path d="M78.2599 99.708L73.5332 99.7078V99.6481C73.5332 99.1608 73.7271 98.6934 74.0721 98.3488C74.4171 98.0042 74.885 97.8106 75.373 97.8106L76.2365 97.1564L77.8474 97.8107L78.26 97.8107L78.2599 99.708Z" fill="#2F2E41"/>
<path d="M90.2453 93.2053C90.8061 92.8393 90.4812 92.863 90.4812 92.863C90.4812 92.863 89.2272 82.7084 88.2732 79.6311L87.1692 64.6458C87.1692 64.6458 87.0991 64.9447 87.1692 64.2182C87.2393 63.4916 87.7488 64.0005 87.2393 63.4916C86.7298 62.9827 86.3901 62.7234 86.7298 62.3441C87.0695 61.9649 88.0065 61.1976 87.4531 60.733C86.8996 60.2685 85.8105 57.2387 85.8105 57.2387L75.1951 57.3235L75.6198 57.2387C75.6198 57.2387 74.2946 56.7477 74.9016 57.3871C75.5086 58.0266 74.562 59.5925 74.2223 61.1192C73.9409 62.3837 73.1057 62.7193 74.2223 62.9853C75.3388 63.2512 74.3284 64.0049 74.3284 64.0049C74.3284 64.0049 72.6475 71.9974 73.9213 77.2562C73.9213 77.2562 74.8001 90.2628 75.245 91.3814C75.6899 92.5 75.8597 91.8214 75.6899 92.5C75.52 93.1786 75.1803 91.9911 75.52 93.1786C75.7054 93.7988 75.8521 94.43 75.9594 95.0684L78.2629 94.8987C78.2629 94.8987 78.7979 93.2146 78.2629 92.7725C77.728 92.3304 78.0974 93.6207 78.677 92.6362C79.2566 91.6518 78.5772 91.9911 78.4074 90.634C78.2375 89.2768 79.7958 82.9548 78.677 79.0758L80.7445 68.1912L84.0271 79.4615C84.0271 79.4615 85.7682 93.2261 86.3339 93.7113C86.8996 94.1964 86.6712 93.0188 86.8996 94.1964C87.1305 95.3864 87.6548 95.0709 87.64 95.2168C87.4819 96.7728 90.2453 95.238 90.2453 95.238C90.2183 94.8426 90.2183 94.4459 90.2453 94.0505C90.2965 93.6875 89.6845 93.5713 90.2453 93.2053Z" fill="#2F2E41"/>
<path d="M76.2606 60.78C75.5812 60.78 73.7129 59.861 74.0526 59.4723C74.3923 59.0836 74.3923 57.7933 74.3923 57.4206C74.3923 57.0479 75.9209 43.3071 75.9209 43.3071L75.8048 39.9427C75.7978 39.7411 75.8316 39.5401 75.904 39.3517C75.9765 39.1633 76.0862 38.9915 76.2265 38.8463C76.3669 38.7012 76.5351 38.5858 76.7211 38.507C76.9071 38.4282 77.107 38.3875 77.3091 38.3875L78.8083 37.8786L83.0544 37.709L85.1718 38.3875C85.3818 38.3875 85.5884 38.4414 85.7717 38.544C85.955 38.6465 86.1088 38.7943 86.2185 38.9733C86.3282 39.1522 86.3902 39.3563 86.3983 39.5659C86.4065 39.7756 86.3606 39.9839 86.2651 40.1708C87.3887 42.0028 87.9525 44.1226 87.8876 46.2701C87.8389 47.8768 87.0239 49.8389 86.8275 51.6541C86.8102 51.8134 86.7978 51.9716 86.791 52.1284C86.7891 52.1721 86.4414 52.3898 86.7861 52.2591C87.1307 52.1284 86.6014 52.5898 86.7811 52.868C86.9608 53.1462 87.3092 52.9757 86.7953 53.3154C86.2815 53.6551 87.4123 56.9363 87.3005 57.0479C86.9608 57.3872 86.2815 57.5568 86.791 58.0657C87.3005 58.5747 87.8101 58.2354 87.1307 58.9139C86.4513 59.5925 84.4158 60.78 84.4158 60.78L76.2606 60.78Z" fill="#3F3D56"/>
<path d="M80.8011 35.7399C82.8201 35.7399 84.4567 34.1052 84.4567 32.0887C84.4567 30.0722 82.8201 28.4375 80.8011 28.4375C78.7822 28.4375 77.1455 30.0722 77.1455 32.0887C77.1455 34.1052 78.7822 35.7399 80.8011 35.7399Z" fill="#A0616A"/>
<path d="M58.5364 43.4165C58.7118 43.3391 58.902 43.301 59.0937 43.305C59.2853 43.3089 59.4738 43.3548 59.6458 43.4394C59.8178 43.5239 59.9692 43.6451 60.0892 43.7945C60.2093 43.9438 60.2951 44.1176 60.3406 44.3036L64.9802 44.7419L63.4625 46.6269L59.2893 45.9216C58.9714 45.9773 58.644 45.9145 58.3693 45.7452C58.0946 45.5759 57.8916 45.3118 57.7988 45.0031C57.706 44.6943 57.7299 44.3622 57.8658 44.0698C58.0017 43.7774 58.2403 43.545 58.5364 43.4165Z" fill="#A0616A"/>
<path d="M80.5347 40.698C80.4278 40.0938 80.1145 39.5452 79.6482 39.1458C79.1819 38.7463 78.5914 38.5207 77.9772 38.5072C76.6134 38.4777 76.1049 38.9323 75.9211 39.5746C75.5814 40.7621 70.113 44.9363 70.113 44.9363L65.4165 44.4286C65.1341 44.337 65.2681 44.0801 64.2063 44.2978C63.6832 43.9557 63.345 44.0137 63.0539 44.1733L61.3145 43.9852L61.4843 46.6995C61.4843 46.6995 63.3464 46.2571 63.6923 47.0388C64.0382 47.8205 63.959 47.9327 64.7114 47.378C65.4637 46.8233 65.3907 47.378 65.3907 47.378L70.8258 48.7352L79.3301 43.4084C79.7783 43.1277 80.1323 42.7198 80.3469 42.2369C80.5615 41.7541 80.6269 41.2182 80.5347 40.698Z" fill="#63388B"/>
<path d="M82.2206 35.3478L82.4601 35.4241C81.7111 35.4869 80.3761 35.9042 80.5069 35.6735C80.6376 35.4428 80.1434 34.5726 80.3846 34.4623C80.6353 34.3744 80.8589 34.223 81.0334 34.0229C81.1862 33.8092 81.1828 33.4563 80.9536 33.3257C80.7311 33.1968 80.4559 33.3359 80.2351 33.4665C80.0126 33.5954 79.6016 31.6989 79.7069 31.1068C79.087 30.7675 78.3363 31.4173 77.6399 31.29C77.2136 31.212 76.9062 30.8625 76.7125 30.4656C77.0288 30.1659 77.2643 29.7913 77.397 29.3765C77.1014 29.5252 76.7855 29.6298 76.4595 29.6869C76.401 29.3789 76.4091 29.062 76.4832 28.7573C76.5401 28.5141 76.6562 28.2887 76.8212 28.1011C76.9863 27.9135 77.1951 27.7694 77.4293 27.6818C77.6668 27.6031 77.9241 27.6076 78.1588 27.6946C78.3934 27.7816 78.5914 27.9458 78.7201 28.1602C78.7345 27.9293 78.6751 27.6997 78.5506 27.5046C78.4261 27.3095 78.2428 27.1589 78.0271 27.0745C78.1845 26.9929 78.3586 26.9488 78.5359 26.9455C78.7132 26.9422 78.8889 26.9799 79.0492 27.0556C79.2095 27.1313 79.3501 27.243 79.46 27.3819C79.57 27.5208 79.6464 27.6833 79.6831 27.8565C80.4501 27.4726 81.3302 27.3786 82.1612 27.5919C82.9832 27.8073 84.0736 28.7183 84.0736 28.7183C85.9283 29.1271 85.84 36.1706 82.2206 35.3478Z" fill="#2F2E41"/>
<path d="M101.588 98.2517C101.63 98.2537 101.672 98.2426 101.708 98.2199C101.743 98.1973 101.771 98.1642 101.788 98.1252C101.804 98.0861 101.808 98.043 101.799 98.0017C101.79 97.9604 101.769 97.9228 101.737 97.8941L101.723 97.8378L101.729 97.8244C101.771 97.7238 101.843 97.638 101.934 97.5779C102.025 97.5177 102.132 97.4858 102.242 97.4863C102.351 97.4867 102.458 97.5193 102.549 97.5802C102.64 97.641 102.71 97.7273 102.752 97.8281C102.92 98.2308 103.133 98.6341 103.185 99.0599C103.208 99.2481 103.199 99.4388 103.156 99.6237C103.55 98.7671 103.754 97.8362 103.755 96.8939C103.755 96.6575 103.742 96.4212 103.716 96.1862C103.694 95.9936 103.664 95.8023 103.625 95.6124C103.414 94.5821 102.962 93.6163 102.305 92.7945C101.987 92.6213 101.73 92.3548 101.568 92.0311C101.51 91.9147 101.468 91.7904 101.445 91.6622C101.515 91.4786 101.552 91.2842 101.554 91.0878C101.603 91.0121 101.693 90.9744 101.748 90.9005C102.019 90.5328 102.393 90.597 102.588 91.0967C103.006 91.307 103.01 91.6557 102.754 91.9911C102.591 92.2045 102.568 92.4932 102.426 92.7217C102.44 92.7405 102.456 92.7587 102.47 92.7775C102.739 93.1226 102.973 93.4932 103.17 93.884C103.122 93.4462 103.179 93.0034 103.336 92.5919C103.495 92.2084 103.793 91.8855 104.056 91.554C104.125 91.4649 104.22 91.3984 104.327 91.3629C104.434 91.3274 104.55 91.3245 104.659 91.3545C104.768 91.3845 104.865 91.4461 104.939 91.5315C105.013 91.6169 105.06 91.7223 105.074 91.8343L105.076 91.849C105.037 91.871 104.998 91.8943 104.961 91.919C104.914 91.9503 104.878 91.9951 104.857 92.0474C104.836 92.0998 104.831 92.1572 104.843 92.2123C104.855 92.2673 104.884 92.3174 104.925 92.356C104.966 92.3945 105.018 92.4198 105.074 92.4284L105.08 92.4292C105.066 92.5697 105.041 92.7089 105.006 92.8456C105.343 94.1474 104.616 94.6215 103.577 94.6428C103.554 94.6545 103.532 94.6663 103.509 94.6774C103.706 95.2358 103.83 95.8174 103.877 96.4076C103.903 96.7558 103.902 97.1056 103.872 97.4536L103.874 97.4413C103.949 97.0543 104.156 96.7052 104.459 96.4528C104.909 96.0834 105.545 95.9474 106.031 95.6505C106.083 95.6174 106.143 95.5997 106.204 95.5995C106.265 95.5994 106.325 95.6168 106.377 95.6496C106.429 95.6825 106.47 95.7294 106.496 95.7849C106.522 95.8405 106.532 95.9022 106.524 95.963L106.522 95.976C106.449 96.0054 106.379 96.0393 106.311 96.0776C106.271 96.0995 106.233 96.1229 106.196 96.1476C106.149 96.1789 106.113 96.2237 106.092 96.276C106.071 96.3283 106.066 96.3858 106.078 96.4408C106.09 96.4959 106.119 96.546 106.16 96.5845C106.201 96.6231 106.253 96.6483 106.309 96.6569L106.315 96.6578L106.326 96.6596C106.203 96.9546 106.029 97.2262 105.813 97.4624C105.602 98.5988 104.697 98.7066 103.729 98.3757H103.729C103.622 98.8367 103.468 99.2855 103.269 99.7147H101.629C101.623 99.6965 101.618 99.6777 101.612 99.6595C101.764 99.669 101.917 99.66 102.066 99.6325C101.945 99.4833 101.823 99.333 101.701 99.1838C101.698 99.181 101.696 99.1781 101.693 99.175C101.632 99.0986 101.569 99.0229 101.508 98.9465C101.504 98.7125 101.531 98.4789 101.588 98.2517Z" fill="#F2F2F2"/>
<path d="M46.9669 99.9469L113.16 99.9991C113.213 99.9991 113.265 99.9778 113.303 99.9399C113.341 99.902 113.362 99.8507 113.362 99.7971C113.362 99.7435 113.341 99.6921 113.303 99.6543C113.265 99.6164 113.213 99.5951 113.16 99.5951L46.9669 99.543C46.9132 99.543 46.8618 99.5642 46.8239 99.6021C46.786 99.64 46.7646 99.6914 46.7646 99.745C46.7646 99.7985 46.786 99.8499 46.8239 99.8878C46.8618 99.9257 46.9132 99.9469 46.9669 99.9469Z" fill="#CACACA"/>
<path d="M43.5852 71.6372C43.11 71.6372 42.6455 71.4964 42.2504 71.2328C41.8553 70.9691 41.5473 70.5943 41.3655 70.1558C41.1837 69.7174 41.1361 69.2349 41.2288 68.7694C41.3215 68.3039 41.5503 67.8763 41.8863 67.5407C42.2223 67.2051 42.6504 66.9766 43.1165 66.884C43.5825 66.7914 44.0656 66.8389 44.5046 67.0205C44.9436 67.2022 45.3188 67.5097 45.5828 67.9044C45.8468 68.299 45.9877 68.7629 45.9877 69.2375C45.987 69.8737 45.7336 70.4837 45.2832 70.9335C44.8328 71.3834 44.2221 71.6365 43.5852 71.6372ZM43.5852 67.1772C43.1772 67.1772 42.7783 67.298 42.4391 67.5244C42.0999 67.7508 41.8355 68.0726 41.6793 68.4491C41.5232 68.8256 41.4824 69.2398 41.5619 69.6395C41.6415 70.0392 41.838 70.4063 42.1265 70.6944C42.415 70.9826 42.7826 71.1788 43.1827 71.2583C43.5829 71.3378 43.9976 71.297 44.3746 71.1411C44.7515 70.9851 45.0737 70.721 45.3004 70.3822C45.527 70.0434 45.648 69.645 45.648 69.2375C45.6474 68.6913 45.4299 68.1676 45.0432 67.7813C44.6564 67.395 44.1321 67.1778 43.5852 67.1772Z" fill="#F2F2F2"/>
<path d="M44.526 69.1256L43.7809 68.2206C43.7607 68.1961 43.7354 68.1762 43.7067 68.1624C43.6781 68.1486 43.6467 68.1412 43.6149 68.1407C43.5831 68.1401 43.5516 68.1465 43.5225 68.1594C43.4934 68.1722 43.4674 68.1912 43.4464 68.2151L42.6496 69.1201C42.6115 69.1638 42.5923 69.2208 42.5962 69.2787C42.6001 69.3365 42.6267 69.3904 42.6703 69.4287C42.7139 69.467 42.7709 69.4865 42.8288 69.4829C42.8867 69.4794 42.9409 69.4531 42.9794 69.4098L43.3917 68.9416V70.1156C43.3917 70.1738 43.4148 70.2296 43.456 70.2707C43.4972 70.3119 43.553 70.335 43.6113 70.335C43.6695 70.335 43.7254 70.3119 43.7666 70.2707C43.8078 70.2296 43.8309 70.1738 43.8309 70.1156V68.9721L44.1867 69.4042C44.2237 69.4492 44.2771 69.4776 44.335 69.4832C44.393 69.4889 44.4509 69.4713 44.4958 69.4343C44.5408 69.3974 44.5693 69.3441 44.5749 69.2862C44.5806 69.2283 44.563 69.1705 44.526 69.1256Z" fill="#F2F2F2"/>
<path d="M70.9309 36.1821C70.4557 36.1821 69.9912 36.0414 69.5961 35.7777C69.201 35.514 68.893 35.1392 68.7112 34.7008C68.5294 34.2623 68.4818 33.7798 68.5745 33.3143C68.6672 32.8488 68.896 32.4212 69.232 32.0856C69.568 31.7501 69.9961 31.5215 70.4622 31.4289C70.9282 31.3363 71.4113 31.3839 71.8503 31.5655C72.2893 31.7471 72.6645 32.0547 72.9285 32.4493C73.1925 32.8439 73.3334 33.3078 73.3334 33.7824C73.3327 34.4187 73.0793 35.0286 72.6289 35.4785C72.1785 35.9283 71.5678 36.1814 70.9309 36.1821ZM70.9309 31.7221C70.5229 31.7221 70.124 31.8429 69.7848 32.0693C69.4456 32.2957 69.1812 32.6175 69.025 32.994C68.8689 33.3705 68.8281 33.7847 68.9076 34.1844C68.9872 34.5841 69.1837 34.9512 69.4722 35.2393C69.7607 35.5275 70.1283 35.7237 70.5284 35.8032C70.9286 35.8827 71.3434 35.8419 71.7203 35.686C72.0972 35.53 72.4194 35.266 72.6461 34.9271C72.8727 34.5883 72.9937 34.19 72.9937 33.7824C72.9931 33.2362 72.7756 32.7125 72.3889 32.3262C72.0021 31.94 71.4778 31.7227 70.9309 31.7221Z" fill="#F2F2F2"/>
<path d="M71.8707 33.6705L71.1256 32.7656C71.1054 32.741 71.0801 32.7212 71.0515 32.7073C71.0228 32.6935 70.9915 32.6861 70.9596 32.6856C70.9278 32.6851 70.8963 32.6914 70.8672 32.7043C70.8381 32.7171 70.8121 32.7362 70.7911 32.76L69.9943 33.665C69.9562 33.7087 69.937 33.7657 69.9409 33.8236C69.9448 33.8814 69.9714 33.9354 70.015 33.9736C70.0586 34.0119 70.1156 34.0314 70.1735 34.0279C70.2314 34.0243 70.2856 33.998 70.3242 33.9547L70.7364 33.4865V34.6605C70.7364 34.7187 70.7595 34.7745 70.8007 34.8156C70.8419 34.8568 70.8978 34.8799 70.956 34.8799C71.0143 34.8799 71.0701 34.8568 71.1113 34.8156C71.1525 34.7745 71.1756 34.7187 71.1756 34.6605V33.517L71.5315 33.9492C71.5685 33.9941 71.6218 34.0225 71.6798 34.0282C71.7377 34.0338 71.7956 34.0162 71.8406 33.9793C71.8856 33.9423 71.914 33.889 71.9197 33.8311C71.9253 33.7732 71.9077 33.7154 71.8707 33.6705Z" fill="#F2F2F2"/>
<path d="M16.7502 34.1469C16.275 34.1469 15.8105 34.0062 15.4154 33.7425C15.0203 33.4788 14.7124 33.1041 14.5305 32.6656C14.3487 32.2271 14.3011 31.7446 14.3938 31.2791C14.4865 30.8137 14.7153 30.3861 15.0513 30.0505C15.3873 29.7149 15.8154 29.4864 16.2815 29.3938C16.7475 29.3012 17.2306 29.3487 17.6696 29.5303C18.1086 29.7119 18.4838 30.0195 18.7478 30.4141C19.0118 30.8087 19.1527 31.2727 19.1527 31.7473C19.152 32.3835 18.8987 32.9934 18.4483 33.4433C17.9979 33.8932 17.3872 34.1462 16.7502 34.1469ZM16.7502 29.6869C16.3422 29.6869 15.9434 29.8078 15.6041 30.0342C15.2649 30.2606 15.0005 30.5824 14.8444 30.9588C14.6882 31.3353 14.6474 31.7496 14.727 32.1493C14.8066 32.5489 15.003 32.916 15.2915 33.2042C15.58 33.4923 15.9476 33.6886 16.3478 33.7681C16.7479 33.8476 17.1627 33.8068 17.5396 33.6508C17.9166 33.4949 18.2387 33.2308 18.4654 32.892C18.6921 32.5531 18.8131 32.1548 18.8131 31.7473C18.8124 31.201 18.5949 30.6773 18.2082 30.2911C17.8215 29.9048 17.2971 29.6875 16.7502 29.6869Z" fill="#F2F2F2"/>
<path d="M17.6901 31.6354L16.945 30.7304C16.9248 30.7059 16.8995 30.686 16.8708 30.6722C16.8421 30.6584 16.8108 30.6509 16.779 30.6504C16.7472 30.6499 16.7156 30.6563 16.6865 30.6691C16.6574 30.682 16.6315 30.701 16.6104 30.7249L15.8137 31.6298C15.7756 31.6736 15.7564 31.7306 15.7603 31.7884C15.7641 31.8463 15.7908 31.9002 15.8344 31.9385C15.8779 31.9768 15.9349 31.9963 15.9928 31.9927C16.0508 31.9892 16.1049 31.9629 16.1435 31.9195L16.5557 31.4513V32.6254C16.5557 32.6836 16.5789 32.7394 16.6201 32.7805C16.6612 32.8216 16.7171 32.8447 16.7753 32.8447C16.8336 32.8447 16.8894 32.8216 16.9306 32.7805C16.9718 32.7394 16.995 32.6836 16.995 32.6254V31.4818L17.3508 31.914C17.3878 31.9589 17.4411 31.9874 17.4991 31.993C17.5571 31.9986 17.6149 31.9811 17.6599 31.9441C17.7049 31.9072 17.7333 31.8539 17.739 31.796C17.7446 31.7381 17.727 31.6803 17.6901 31.6354Z" fill="#F2F2F2"/>
<path d="M35.9426 4.79928C35.4674 4.79928 35.0029 4.65854 34.6078 4.39487C34.2127 4.13119 33.9048 3.75642 33.7229 3.31794C33.5411 2.87947 33.4935 2.39698 33.5862 1.9315C33.6789 1.46601 33.9077 1.03844 34.2437 0.70284C34.5797 0.367244 35.0078 0.138701 35.4739 0.0461101C35.9399 -0.0464806 36.423 0.00103807 36.862 0.182661C37.301 0.364284 37.6762 0.671853 37.9402 1.06647C38.2042 1.46109 38.3451 1.92504 38.3451 2.39964C38.3444 3.03584 38.0911 3.64578 37.6406 4.09564C37.1902 4.54551 36.5796 4.79856 35.9426 4.79928ZM35.9426 0.339283C35.5346 0.339283 35.1358 0.460122 34.7965 0.686517C34.4573 0.912912 34.1929 1.2347 34.0368 1.61118C33.8806 1.98766 33.8398 2.40193 33.9194 2.8016C33.999 3.20127 34.1954 3.56839 34.4839 3.85654C34.7724 4.14469 35.14 4.34092 35.5401 4.42041C35.9403 4.49991 36.3551 4.45911 36.732 4.30317C37.1089 4.14722 37.4311 3.88314 37.6578 3.54432C37.8845 3.20549 38.0054 2.80714 38.0054 2.39964C38.0048 1.85339 37.7873 1.32968 37.4006 0.943415C37.0138 0.557154 36.4895 0.339889 35.9426 0.339283Z" fill="#F2F2F2"/>
<path d="M36.8824 2.2877L36.1374 1.38275C36.1171 1.3582 36.0918 1.33834 36.0632 1.32453C36.0345 1.31072 36.0032 1.30329 35.9714 1.30276C35.9396 1.30224 35.908 1.30862 35.8789 1.32148C35.8498 1.33433 35.8238 1.35335 35.8028 1.37722L35.006 2.28217C34.968 2.32591 34.9488 2.38293 34.9526 2.44076C34.9565 2.4986 34.9832 2.55255 35.0267 2.59082C35.0703 2.6291 35.1273 2.6486 35.1852 2.64505C35.2431 2.6415 35.2973 2.61519 35.3359 2.57188L35.7481 2.10368V3.27773C35.7481 3.33591 35.7713 3.3917 35.8124 3.43283C35.8536 3.47397 35.9095 3.49708 35.9677 3.49708C36.026 3.49708 36.0818 3.47397 36.123 3.43283C36.1642 3.3917 36.1873 3.33591 36.1873 3.27773V2.13417L36.5432 2.56635C36.5802 2.61129 36.6335 2.6397 36.6915 2.64534C36.7495 2.65099 36.8073 2.6334 36.8523 2.59645C36.8973 2.5595 36.9257 2.50621 36.9314 2.44831C36.937 2.39041 36.9194 2.33263 36.8824 2.2877Z" fill="#F2F2F2"/>
<path d="M10.2962 51.9595C9.82099 51.9595 9.35647 51.8188 8.96136 51.5551C8.56625 51.2914 8.2583 50.9167 8.07645 50.4782C7.8946 50.0397 7.84702 49.5572 7.93972 49.0917C8.03242 48.6262 8.26125 48.1986 8.59726 47.863C8.93327 47.5274 9.36137 47.2989 9.82743 47.2063C10.2935 47.1137 10.7766 47.1612 11.2156 47.3428C11.6546 47.5245 12.0298 47.832 12.2938 48.2267C12.5578 48.6213 12.6987 49.0853 12.6987 49.5599C12.698 50.1961 12.4446 50.806 11.9942 51.2559C11.5438 51.7057 10.9332 51.9588 10.2962 51.9595ZM10.2962 47.4994C9.88818 47.4994 9.48934 47.6203 9.15009 47.8467C8.81085 48.073 8.54643 48.3948 8.39029 48.7713C8.23415 49.1478 8.19329 49.5621 8.27288 49.9618C8.35247 50.3614 8.54893 50.7286 8.83742 51.0167C9.12592 51.3049 9.49349 51.5011 9.89365 51.5806C10.2938 51.6602 10.7086 51.6194 11.0855 51.4634C11.4625 51.3075 11.7847 51.0434 12.0114 50.7046C12.238 50.3657 12.359 49.9674 12.359 49.5599C12.3584 49.0136 12.1409 48.4899 11.7542 48.1036C11.3675 47.7173 10.8431 47.5001 10.2962 47.4994Z" fill="white"/>
<path d="M11.236 49.4479L10.4909 48.5429C10.4707 48.5184 10.4454 48.4985 10.4167 48.4847C10.388 48.4709 10.3567 48.4634 10.3249 48.4629C10.2931 48.4624 10.2615 48.4688 10.2324 48.4816C10.2033 48.4945 10.1774 48.5135 10.1563 48.5374L9.35956 49.4423C9.32148 49.4861 9.30228 49.5431 9.30616 49.6009C9.31003 49.6588 9.33668 49.7127 9.38026 49.751C9.42384 49.7893 9.48081 49.8088 9.53874 49.8052C9.59666 49.8017 9.65083 49.7754 9.6894 49.732L10.1016 49.2638V50.4379C10.1016 50.4961 10.1248 50.5519 10.166 50.593C10.2071 50.6341 10.263 50.6572 10.3212 50.6572C10.3795 50.6572 10.4353 50.6341 10.4765 50.593C10.5177 50.5519 10.5409 50.4961 10.5409 50.4379V49.2943L10.8967 49.7265C10.9337 49.7714 10.987 49.7999 11.045 49.8055C11.103 49.8111 11.1608 49.7936 11.2058 49.7566C11.2508 49.7197 11.2792 49.6664 11.2849 49.6085C11.2905 49.5506 11.2729 49.4928 11.236 49.4479Z" fill="white"/>
<path d="M62.2679 11.7544C61.7927 11.7544 61.3281 11.6137 60.933 11.35C60.5379 11.0864 60.23 10.7116 60.0481 10.2731C59.8663 9.83461 59.8187 9.35211 59.9114 8.88662C60.0041 8.42112 60.2329 7.99353 60.5689 7.65793C60.9049 7.32233 61.333 7.09378 61.7991 7.00119C62.2652 6.9086 62.7483 6.95612 63.1873 7.13775C63.6263 7.31938 64.0015 7.62696 64.2655 8.02159C64.5295 8.41622 64.6704 8.88018 64.6704 9.3548C64.6697 9.991 64.4163 10.6009 63.9659 11.0508C63.5155 11.5007 62.9048 11.7537 62.2679 11.7544ZM62.2679 7.29436C61.8599 7.29435 61.461 7.41518 61.1218 7.64158C60.7825 7.86797 60.5181 8.18975 60.362 8.56624C60.2058 8.94273 60.165 9.357 60.2446 9.75668C60.3241 10.1564 60.5206 10.5235 60.8091 10.8117C61.0976 11.0998 61.4652 11.2961 61.8653 11.3756C62.2655 11.4551 62.6803 11.4143 63.0572 11.2583C63.4342 11.1024 63.7564 10.8383 63.983 10.4995C64.2097 10.1607 64.3307 9.76231 64.3307 9.3548C64.3301 8.80854 64.1126 8.28482 63.7259 7.89854C63.3391 7.51227 62.8148 7.29498 62.2679 7.29436Z" fill="white"/>
<path d="M63.2086 9.24278L62.4635 8.33783C62.4433 8.31328 62.418 8.29341 62.3893 8.2796C62.3607 8.26579 62.3294 8.25837 62.2975 8.25784C62.2657 8.25732 62.2342 8.2637 62.2051 8.27656C62.176 8.28941 62.15 8.30843 62.129 8.3323L61.3322 9.23724C61.2941 9.28099 61.2749 9.338 61.2788 9.39584C61.2827 9.45367 61.3093 9.50762 61.3529 9.5459C61.3965 9.58418 61.4535 9.60367 61.5114 9.60013C61.5693 9.59658 61.6235 9.57027 61.6621 9.52696L62.0743 9.05875V10.2328C62.0743 10.291 62.0974 10.3468 62.1386 10.3879C62.1798 10.429 62.2357 10.4522 62.2939 10.4522C62.3521 10.4522 62.408 10.429 62.4492 10.3879C62.4904 10.3468 62.5135 10.291 62.5135 10.2328V9.08925L62.8693 9.52143C62.9063 9.56637 62.9597 9.59478 63.0177 9.60042C63.0756 9.60607 63.1335 9.58848 63.1785 9.55153C63.2234 9.51458 63.2519 9.46129 63.2575 9.40339C63.2632 9.34549 63.2456 9.28771 63.2086 9.24278Z" fill="white"/>
</svg>
