<svg width="68" height="100" viewBox="0 0 68 100" fill="none" xmlns="http://www.w3.org/2000/svg">
<path d="M0.105448 75.3252L0 75.5956L58.5505 98.3988L58.6559 98.1284L0.105448 75.3252Z" fill="#CACACA"/>
<path d="M41.9432 0.0445243L9.39803 8.61832C9.26788 8.65515 9.14768 8.72077 9.04634 8.81032C8.93326 8.90929 8.83678 9.02574 8.76058 9.15522C8.67687 9.29547 8.6123 9.44626 8.56857 9.6036C8.52222 9.76841 8.4985 9.93874 8.49805 10.1099V58.358C8.49814 58.5264 8.52188 58.694 8.56857 58.8559C8.6115 59.0066 8.67618 59.1503 8.76058 59.2824C8.83635 59.4027 8.93314 59.5083 9.04634 59.5942C9.14936 59.6727 9.27015 59.7247 9.39803 59.7454L41.9432 64.5341C42.1319 64.563 42.3248 64.5481 42.5069 64.4907C42.6802 64.4351 42.8385 64.3407 42.9698 64.2148C43.1061 64.0835 43.2131 63.9248 43.2837 63.7493C43.3614 63.5556 43.4007 63.3487 43.3995 63.14V1.26963C43.4016 1.06518 43.3622 0.862422 43.2837 0.673634C43.2143 0.507977 43.1067 0.361014 42.9698 0.244685C42.8365 0.133079 42.6774 0.0566691 42.5069 0.0224492C42.3198 -0.0136756 42.1269 -0.00612034 41.9432 0.0445243Z" fill="#F2F2F2"/>
<path d="M10.2 9.97309C10.1081 10 10.0234 10.0472 9.9521 10.1111C9.87275 10.1809 9.80509 10.263 9.7517 10.3542C9.69317 10.4534 9.64833 10.5601 9.61836 10.6713C9.58672 10.7874 9.57123 10.9074 9.57234 11.0277V57.3174C9.57103 57.4358 9.58652 57.5538 9.61836 57.6679C9.64775 57.7743 9.69259 57.8758 9.75147 57.9691C9.80445 58.0541 9.87229 58.1289 9.95176 58.1899C10.0243 58.2458 10.1094 58.2831 10.1997 58.2985L40.6847 62.4029C40.8146 62.4187 40.9463 62.4043 41.0697 62.3607C41.188 62.3181 41.2951 62.2494 41.3832 62.1597C41.4749 62.0659 41.5463 61.954 41.5927 61.8313C41.6437 61.696 41.6685 61.5522 41.6657 61.4076V3.20396C41.6691 3.06208 41.6442 2.92093 41.5927 2.7887C41.5471 2.67259 41.4755 2.56853 41.3832 2.4846C41.294 2.40455 41.1862 2.348 41.0697 2.32008C40.9429 2.29088 40.8111 2.29178 40.6847 2.32273L10.2 9.97309Z" fill="white"/>
<path d="M11.4897 11.8221C11.4269 11.8382 11.3691 11.8699 11.3217 11.914C11.2669 11.9645 11.2207 12.0237 11.1852 12.0891C11.1446 12.1627 11.1136 12.2412 11.0931 12.3226C11.0705 12.4099 11.0589 12.4997 11.0586 12.5898V19.0371C11.0581 19.1225 11.0695 19.2076 11.0924 19.29C11.1115 19.3602 11.1427 19.4265 11.1845 19.486C11.2196 19.5365 11.2666 19.5776 11.3215 19.6056C11.3735 19.6311 11.4324 19.6394 11.4894 19.6293L38.737 14.94C38.827 14.9235 38.912 14.887 38.9859 14.8331C39.0655 14.7753 39.1345 14.7042 39.1899 14.6229C39.2498 14.5358 39.2963 14.4403 39.3279 14.3394C39.3614 14.2338 39.3785 14.1237 39.3786 14.0129V6.11847C39.3796 6.01433 39.3624 5.91081 39.3279 5.81254C39.2984 5.72785 39.2513 5.65033 39.1899 5.58501C39.1333 5.52428 39.0614 5.47985 38.9817 5.45639C38.9021 5.43293 38.8176 5.43129 38.737 5.45165L11.4897 11.8221Z" fill="#F2F2F2"/>
<path d="M11.4898 22.7676C11.4279 22.7789 11.3696 22.8049 11.3198 22.8435C11.2652 22.8854 11.2184 22.9368 11.1818 22.9951C11.1412 23.0588 11.1102 23.128 11.0897 23.2007C11.0681 23.2783 11.0576 23.3585 11.0587 23.4391V37.2191C11.0576 37.2979 11.0684 37.3763 11.0906 37.4519C11.1105 37.5198 11.1416 37.5839 11.1827 37.6415C11.2192 37.6932 11.2662 37.7367 11.3207 37.7689C11.3722 37.7991 11.4309 37.815 11.4907 37.8149L38.7379 37.0386C38.8259 37.0344 38.9118 37.0108 38.9896 36.9696C39.068 36.9279 39.1376 36.8714 39.1945 36.8033C39.254 36.7322 39.3004 36.6511 39.3314 36.5638C39.3643 36.4716 39.3806 36.3743 39.3794 36.2764V19.4031C39.3811 19.3077 39.3649 19.2129 39.3314 19.1236C39.3012 19.0431 39.2546 18.9698 39.1945 18.9083C39.1371 18.8497 39.067 18.8051 38.9896 18.7779C38.9086 18.7499 38.822 18.7414 38.7371 18.7532L11.4898 22.7676Z" fill="#F2F2F2"/>
<path d="M13.877 12.1957L35.3529 7.33008V8.97413L13.877 13.6054V12.1957Z" fill="white"/>
<path d="M13.9141 15.159L35.4035 10.7852V11.5489L13.9141 15.8137V15.159Z" fill="white"/>
<path d="M13.9141 16.3177L35.4035 12.1367V12.9005L13.9141 16.9724V16.3177Z" fill="white"/>
<path d="M13.9141 17.4763L35.4035 13.4883V14.252L13.9141 18.1311V17.4763Z" fill="white"/>
<path d="M25.8295 37.4343L36.7272 37.1259C36.7652 37.1248 36.8027 37.1174 36.8381 37.1039C36.874 37.0902 36.9075 37.0711 36.9375 37.0472C36.9687 37.0223 36.9962 36.9932 37.0192 36.9606C37.0434 36.9261 37.0627 36.8885 37.0767 36.8489C37.1055 36.7685 37.113 36.6821 37.0984 36.598C37.0913 36.5574 37.0789 36.518 37.0614 36.4807C37.0442 36.444 37.0217 36.41 36.9946 36.3798L29.8106 28.4207C29.7794 28.3855 29.7404 28.3579 29.6968 28.3403C29.6558 28.3241 29.6115 28.3178 29.5676 28.3219C29.5221 28.3263 29.4781 28.3405 29.4386 28.3636C29.3947 28.3894 29.3563 28.4235 29.3254 28.464L27.6541 30.6224C27.5912 30.7051 27.5126 30.7745 27.4227 30.8267C27.3424 30.8731 27.2528 30.901 27.1604 30.9084C27.0711 30.9152 26.9815 30.9006 26.899 30.8658C26.8107 30.8278 26.7324 30.7701 26.67 30.697L21.7441 25.0406C21.7167 25.0085 21.6819 24.9834 21.6427 24.9675C21.6061 24.9532 21.5666 24.9481 21.5276 24.9529C21.4866 24.9582 21.4473 24.9727 21.4126 24.9952C21.373 25.0209 21.3387 25.0539 21.3116 25.0925L12.6574 37.1367C12.638 37.164 12.6221 37.1937 12.6102 37.2249C12.5979 37.2573 12.5891 37.2909 12.5842 37.3252C12.5792 37.3601 12.5778 37.3955 12.5803 37.4307C12.5828 37.4658 12.5892 37.5005 12.5995 37.5342C12.6092 37.5662 12.6229 37.5968 12.6404 37.6252C12.656 37.6509 12.6754 37.6742 12.6979 37.6942C12.7186 37.7127 12.7424 37.7274 12.7682 37.7376C12.7932 37.7474 12.82 37.752 12.8469 37.7513L25.8423 37.3784L25.8295 37.4343Z" fill="white"/>
<path d="M14.7437 24.214C14.8844 24.195 15.0276 24.2149 15.1578 24.2715C15.2904 24.3304 15.4073 24.4196 15.499 24.532C15.6015 24.658 15.6795 24.8021 15.729 24.9567C15.7863 25.1332 15.815 25.3176 15.8138 25.5031C15.8139 25.6952 15.7853 25.8863 15.729 26.07C15.6774 26.2411 15.5998 26.4032 15.499 26.5508C15.4077 26.6854 15.2922 26.802 15.1584 26.8947C15.0353 26.9801 14.8931 27.0342 14.7443 27.0524C14.6035 27.0685 14.4611 27.0458 14.3323 26.9869C14.2018 26.9255 14.0873 26.8348 13.9977 26.7217C13.8975 26.596 13.8212 26.4529 13.7726 26.2996C13.7171 26.1256 13.6894 25.9439 13.6905 25.7613C13.6904 25.5722 13.7181 25.3841 13.7726 25.203C13.823 25.0337 13.8987 24.873 13.9972 24.7262C14.0867 24.5914 14.2001 24.4741 14.3317 24.3798C14.4537 24.2923 14.595 24.2354 14.7437 24.214Z" fill="white"/>
<path d="M11.4899 41.0526C11.4297 41.0543 11.371 41.072 11.3198 41.1037C11.2654 41.1377 11.2186 41.1825 11.1822 41.2354C11.1413 41.2941 11.1102 41.3591 11.0902 41.4278C11.0682 41.5038 11.0575 41.5827 11.0587 41.6618V55.4418C11.0579 55.5221 11.0686 55.6021 11.0907 55.6794C11.111 55.7512 11.1421 55.8195 11.1827 55.8822C11.2193 55.9392 11.2661 55.9891 11.3207 56.0293C11.3707 56.0664 11.4291 56.0906 11.4907 56.0998L38.7371 59.2581C38.8224 59.2669 38.9086 59.2558 38.9888 59.2255C39.0665 59.1956 39.1365 59.1489 39.1937 59.0886C39.2537 59.0254 39.3003 58.9506 39.3306 58.8689C39.364 58.7791 39.3803 58.6838 39.3786 58.5879V41.7154C39.3799 41.6178 39.3637 41.5208 39.3306 41.429C39.2997 41.3429 39.2533 41.2632 39.1937 41.1939C39.1368 41.1274 39.0671 41.0731 38.9888 41.0339C38.9105 40.995 38.8245 40.9741 38.7371 40.9728L11.4899 41.0526Z" fill="#F2F2F2"/>
<path d="M25.8295 57.7887L36.7268 59.0541C36.7638 59.0585 36.8014 59.0564 36.8377 59.048C36.873 59.0396 36.9066 59.0253 36.937 59.0055C36.9681 58.9852 36.9957 58.96 37.0187 58.9307C37.043 58.8993 37.0624 58.8644 37.0762 58.8272C37.0909 58.7882 37.1 58.7473 37.1034 58.7057C37.1069 58.6635 37.105 58.621 37.0978 58.5792C37.0906 58.537 37.0782 58.4958 37.0609 58.4566C37.0434 58.417 37.021 58.3798 36.994 58.346L29.8106 49.35C29.7795 49.3105 29.7407 49.2777 29.6967 49.2535C29.6569 49.2318 29.6128 49.2192 29.5675 49.2165C29.5233 49.2141 29.4791 49.222 29.4385 49.2395C29.395 49.2587 29.3563 49.2874 29.3253 49.3234L27.6541 51.2401C27.591 51.3139 27.5119 51.3724 27.4227 51.411C27.34 51.4463 27.2501 51.4613 27.1604 51.455C27.0684 51.448 26.9791 51.4205 26.899 51.3745C26.81 51.3231 26.7322 51.2545 26.6701 51.1727L21.7441 44.8045C21.7168 44.7685 21.6822 44.7386 21.6426 44.7168C21.6072 44.6975 21.5678 44.6868 21.5275 44.6856C21.4877 44.6847 21.4482 44.6935 21.4125 44.7112C21.3729 44.7309 21.3383 44.7591 21.3109 44.7938L12.6574 55.5894C12.6379 55.6141 12.622 55.6415 12.6102 55.6708C12.5978 55.7018 12.589 55.7341 12.5842 55.7672C12.5791 55.802 12.5778 55.8372 12.5803 55.8722C12.5828 55.9083 12.5892 55.9441 12.5994 55.9789C12.6093 56.0127 12.623 56.0452 12.6403 56.0759C12.656 56.1041 12.6754 56.1301 12.6978 56.1533C12.7183 56.1746 12.742 56.1926 12.7681 56.2067C12.7925 56.2199 12.8192 56.2285 12.8468 56.2318L25.8425 57.7353L25.8295 57.7887Z" fill="white"/>
<path d="M14.7437 42.9687C14.8895 42.9713 15.0322 43.0115 15.1578 43.0855C15.2913 43.1647 15.4072 43.2703 15.4984 43.3959C15.5999 43.5348 15.6776 43.6896 15.7284 43.8539C15.7851 44.0347 15.8137 44.223 15.8132 44.4124C15.8139 44.6006 15.7853 44.7878 15.7284 44.9672C15.678 45.1284 15.6002 45.2798 15.4984 45.4146C15.4072 45.536 15.2911 45.6364 15.1578 45.7093C15.0308 45.7778 14.8879 45.8116 14.7437 45.8071C14.5979 45.8013 14.4561 45.7583 14.3317 45.682C14.2003 45.601 14.0865 45.4944 13.9971 45.3686C13.898 45.2303 13.8222 45.0767 13.7726 44.9139C13.7177 44.7357 13.69 44.5503 13.6904 44.3638C13.6898 44.1785 13.7175 43.9943 13.7726 43.8174C13.8218 43.6576 13.8977 43.5074 13.9971 43.373C14.0865 43.2513 14.2005 43.1497 14.3317 43.0749C14.4573 43.004 14.5994 42.9674 14.7437 42.9687Z" fill="white"/>
<path d="M19.1753 18.0982C19.0727 18.1173 18.9758 18.1595 18.8919 18.2215C18.8018 18.288 18.724 18.3697 18.6618 18.4629C18.5943 18.563 18.542 18.6726 18.5067 18.788C18.469 18.9094 18.4496 19.0357 18.4492 19.1627V71.2946C18.4503 71.5472 18.5239 71.7943 18.6614 72.0063C18.7236 72.1031 18.8014 72.1891 18.8914 72.2608C18.9747 72.3274 19.0714 72.3751 19.1749 72.4005L57.8247 81.3154C57.9795 81.3527 58.1404 81.3571 58.297 81.3283C58.4379 81.3019 58.5707 81.2428 58.6847 81.1559C58.7972 81.0689 58.8873 80.9562 58.9472 80.8273C59.0125 80.6848 59.0455 80.5298 59.044 80.3731V12.3975C59.0452 12.239 59.0122 12.0822 58.9472 11.9376C58.8868 11.8047 58.7971 11.6873 58.6847 11.5941C58.5717 11.5011 58.4392 11.4346 58.2971 11.3994C58.1424 11.3618 57.9815 11.3571 57.8249 11.3854L19.1753 18.0982Z" fill="#E6E6E6"/>
<path d="M20.067 19.4206C19.9624 19.4411 19.8638 19.4849 19.7785 19.5488C19.6871 19.617 19.6083 19.7005 19.5455 19.7957C19.4778 19.8975 19.4256 20.0089 19.3908 20.1262C19.3538 20.2495 19.3357 20.3776 19.337 20.5063V70.4215C19.3352 70.6776 19.4076 70.9288 19.5455 71.1446C19.6084 71.2437 19.6871 71.3319 19.7785 71.4055C19.8631 71.4742 19.9615 71.5238 20.067 71.5509L56.2342 79.611C56.3877 79.6441 56.5465 79.6441 56.7 79.611C56.8392 79.5809 56.9692 79.5181 57.0792 79.4279C57.1893 79.3376 57.2762 79.2224 57.3328 79.0919C57.3949 78.9475 57.4251 78.7915 57.4213 78.6344V14.5818C57.4247 14.4231 57.3946 14.2654 57.3328 14.1191C57.2759 13.9847 57.1895 13.8649 57.0799 13.7685C56.9704 13.672 56.8406 13.6014 56.7 13.562C56.5485 13.5199 56.3897 13.5105 56.2342 13.5344L20.067 19.4206Z" fill="white"/>
<path d="M24.6848 26.218C24.636 26.2238 24.5893 26.2406 24.5481 26.2673C24.5048 26.2954 24.4671 26.3311 24.4367 26.3729C24.404 26.4174 24.3787 26.467 24.3616 26.5196C24.3433 26.5752 24.334 26.6334 24.334 26.692V28.6904C24.3337 28.7472 24.3431 28.8036 24.3616 28.8573C24.3781 28.9054 24.4036 28.95 24.4366 28.9887C24.467 29.0245 24.5051 29.0531 24.548 29.0723C24.5909 29.0912 24.6379 29.0988 24.6846 29.0946L49.0454 26.9469C49.1116 26.9407 49.1759 26.9211 49.2343 26.8894C49.2929 26.8578 49.3452 26.8159 49.3888 26.7657C49.4334 26.7147 49.4688 26.6564 49.4933 26.5933C49.5186 26.5286 49.5317 26.4599 49.5321 26.3905V24.0304C49.5324 23.9633 49.5193 23.8969 49.4937 23.8349C49.4698 23.7775 49.4342 23.7257 49.3892 23.6828C49.3451 23.6409 49.2923 23.609 49.2347 23.5895C49.1739 23.5689 49.1093 23.562 49.0454 23.5691L24.6848 26.218Z" fill="#63388B"/>
<path d="M24.5529 32.8568C24.5407 32.8575 24.5288 32.8612 24.5183 32.8674C24.5075 32.8739 24.4981 32.8824 24.4905 32.8925C24.4823 32.9033 24.476 32.9154 24.4717 32.9283C24.4672 32.9421 24.4648 32.9565 24.4648 32.971V33.7519C24.4648 33.7662 24.4671 33.7804 24.4717 33.7939C24.4759 33.8061 24.4823 33.8175 24.4905 33.8274C24.4981 33.8366 24.5076 33.8441 24.5183 33.8493C24.5291 33.8544 24.541 33.8567 24.5529 33.8561L49.3492 32.5129C49.3657 32.512 49.3818 32.5077 49.3966 32.5002C49.4112 32.4928 49.4243 32.4828 49.4353 32.4706C49.4582 32.4451 49.4709 32.4121 49.4709 32.3778V31.4572C49.471 31.4403 49.4678 31.4235 49.4614 31.4078C49.4554 31.3931 49.4465 31.3798 49.4353 31.3686C49.4241 31.3574 49.4106 31.3487 49.3957 31.3431C49.3809 31.3375 49.365 31.3351 49.3492 31.3362L24.5529 32.8568Z" fill="#CCCCCC"/>
<path d="M24.5529 35.3978C24.5407 35.3983 24.5289 35.4018 24.5183 35.4079C24.5075 35.4142 24.4981 35.4226 24.4905 35.4325C24.4823 35.4432 24.476 35.4552 24.4717 35.4679C24.4672 35.4817 24.4648 35.4961 24.4648 35.5106V36.2914C24.4648 36.3058 24.4671 36.3201 24.4717 36.3336C24.4759 36.3462 24.4822 36.3579 24.4905 36.3681C24.4981 36.3775 24.5076 36.3851 24.5183 36.3904C24.529 36.3957 24.5409 36.3983 24.5529 36.3978L49.3492 35.5049C49.3656 35.5044 49.3818 35.5005 49.3966 35.4935C49.4112 35.4863 49.4243 35.4765 49.4353 35.4645C49.4582 35.4393 49.4709 35.4065 49.4709 35.3725V34.4514C49.471 34.4344 49.4677 34.4176 49.4614 34.4018C49.4554 34.387 49.4465 34.3735 49.4353 34.3622C49.4243 34.351 49.4111 34.3422 49.3966 34.3363C49.3816 34.3302 49.3654 34.3275 49.3492 34.3282L24.5529 35.3978Z" fill="#CCCCCC"/>
<path d="M24.5535 37.9373C24.5414 37.9376 24.5295 37.9408 24.519 37.9467C24.5083 37.9529 24.499 37.961 24.4915 37.9708C24.4833 37.9813 24.4769 37.9932 24.4727 38.0058C24.4681 38.0195 24.4658 38.0339 24.4658 38.0484V38.8292C24.4658 38.8436 24.4681 38.8579 24.4727 38.8715C24.4769 38.8841 24.4832 38.8957 24.4915 38.906C24.4991 38.9156 24.5085 38.9234 24.5193 38.929C24.53 38.9345 24.5418 38.9373 24.5538 38.9371L49.3498 38.4954C49.3663 38.4949 49.3824 38.491 49.3972 38.4839C49.4118 38.4771 49.4249 38.4675 49.4359 38.4557C49.4471 38.4437 49.4559 38.4297 49.462 38.4144C49.4683 38.3985 49.4716 38.3815 49.4715 38.3643V37.444C49.4716 37.4269 49.4684 37.41 49.462 37.3942C49.456 37.3793 49.4471 37.3656 49.4359 37.3541C49.425 37.3425 49.4118 37.3333 49.3972 37.3269C49.3822 37.3208 49.3661 37.3179 49.3498 37.3184L24.5535 37.9373Z" fill="#CCCCCC"/>
<path d="M24.5095 43.0098C24.4975 43.0096 24.4857 43.0124 24.475 43.0179C24.4643 43.0236 24.4548 43.0314 24.4472 43.0409C24.4391 43.0513 24.4328 43.0629 24.4288 43.0754C24.4242 43.089 24.4219 43.1033 24.4219 43.1176V43.8983C24.4218 43.9127 24.4242 43.9271 24.4288 43.9408C24.433 43.9533 24.4394 43.9649 24.4475 43.9753C24.4551 43.985 24.4646 43.9932 24.4754 43.9992C24.486 44.005 24.4978 44.0082 24.5099 44.0084L49.2893 44.4673C49.3056 44.4676 49.3217 44.4645 49.3366 44.4582C49.3512 44.4519 49.3643 44.4428 49.3753 44.4314C49.3865 44.4197 49.3953 44.406 49.4014 44.391C49.4077 44.3752 49.411 44.3583 49.4109 44.3412V43.4211C49.411 43.404 49.4077 43.387 49.4014 43.371C49.3953 43.3558 49.3865 43.3418 49.3753 43.3299C49.3643 43.3181 49.3512 43.3086 49.3366 43.3019C49.3218 43.2951 49.3057 43.2914 49.2893 43.2912L24.5095 43.0098Z" fill="#CCCCCC"/>
<path d="M24.5095 45.5489C24.4976 45.5485 24.4857 45.5511 24.475 45.5565C24.4642 45.5621 24.4547 45.5699 24.4472 45.5795C24.4389 45.5897 24.4326 45.6014 24.4284 45.6139C24.4241 45.6272 24.4218 45.6411 24.4219 45.6551V46.4357C24.4219 46.4502 24.4242 46.4646 24.4288 46.4784C24.433 46.4911 24.4393 46.5031 24.4475 46.5137C24.4551 46.5236 24.4646 46.5319 24.4754 46.5381C24.4859 46.5441 24.4978 46.5475 24.5099 46.548L49.2893 47.4575C49.3055 47.4581 49.3216 47.4552 49.3366 47.4491C49.3511 47.4431 49.3643 47.4342 49.3753 47.423C49.3865 47.4115 49.3954 47.398 49.4014 47.3831C49.4077 47.3673 49.411 47.3504 49.4109 47.3334V46.4131C49.4109 46.3959 49.4077 46.3789 49.4014 46.3629C49.3953 46.3475 49.3864 46.3334 49.3753 46.3212C49.3643 46.3093 49.3512 46.2996 49.3366 46.2926C49.3218 46.2855 49.3057 46.2816 49.2893 46.2811L24.5095 45.5489Z" fill="#CCCCCC"/>
<path d="M24.5095 48.0879C24.4977 48.0875 24.486 48.09 24.4754 48.0953C24.4647 48.1005 24.4552 48.1079 24.4475 48.117C24.4393 48.127 24.4329 48.1384 24.4288 48.1507C24.4242 48.1642 24.4218 48.1784 24.4219 48.1927V48.9733C24.4219 48.9879 24.4242 49.0023 24.4288 49.0161C24.433 49.0289 24.4393 49.041 24.4475 49.0517C24.4551 49.0617 24.4646 49.0702 24.4754 49.0766C24.4859 49.0828 24.4977 49.0863 24.5099 49.087L49.2893 50.4471C49.3052 50.448 49.321 50.4456 49.3358 50.4399C49.3506 50.4342 49.3641 50.4255 49.3753 50.4142C49.3865 50.4029 49.3954 50.3895 49.4014 50.3748C49.4077 50.3591 49.411 50.3423 49.4109 50.3253V49.405C49.4108 49.371 49.3981 49.3383 49.3753 49.313C49.3643 49.3009 49.3512 49.291 49.3366 49.2837C49.3219 49.2764 49.3058 49.2721 49.2893 49.2713L24.5095 48.0879Z" fill="#CCCCCC"/>
<path d="M24.5095 50.6389C24.4977 50.638 24.4858 50.6402 24.475 50.6452C24.4644 50.6503 24.455 50.6577 24.4475 50.6668C24.4393 50.6767 24.4329 50.688 24.4288 50.7001C24.4241 50.7136 24.4218 50.7278 24.4219 50.7421V51.5227C24.4219 51.5373 24.4242 51.5518 24.4288 51.5656C24.433 51.5786 24.4394 51.5907 24.4475 51.6016C24.4551 51.6118 24.4646 51.6204 24.4754 51.627C24.4858 51.6335 24.4976 51.6375 24.5099 51.6385L49.2889 53.451C49.3049 53.4522 49.3211 53.4499 49.3361 53.4443C49.3506 53.4389 49.3638 53.4305 49.3748 53.4196C49.386 53.4085 49.3949 53.3953 49.4009 53.3807C49.4073 53.3651 49.4106 53.3483 49.4105 53.3314V52.411C49.4105 52.3937 49.4072 52.3765 49.4009 52.3604C49.3948 52.3448 49.386 52.3304 49.3748 52.3179C49.3639 52.3055 49.3508 52.2953 49.3361 52.2877C49.3215 52.2802 49.3054 52.2757 49.2889 52.2745L24.5095 50.6389Z" fill="#CCCCCC"/>
<path d="M24.5095 53.178C24.4977 53.1769 24.4858 53.1789 24.475 53.1838C24.4644 53.1888 24.455 53.1961 24.4475 53.2052C24.4393 53.2148 24.433 53.2259 24.4288 53.2378C24.4242 53.2512 24.4218 53.2653 24.4219 53.2795V54.0602C24.4219 54.0748 24.4242 54.0893 24.4288 54.1032C24.433 54.1162 24.4394 54.1285 24.4475 54.1395C24.4551 54.1498 24.4646 54.1586 24.4754 54.1654C24.4858 54.1719 24.4976 54.1758 24.5099 54.1769L49.2889 56.4406C49.3049 56.4421 49.321 56.4402 49.3361 56.4349C49.3506 56.4297 49.3638 56.4215 49.3748 56.4108C49.386 56.3999 49.3949 56.3869 49.4009 56.3724C49.4073 56.3569 49.4106 56.3402 49.4105 56.3233V55.4029C49.4105 55.3855 49.4072 55.3683 49.4009 55.3521C49.3948 55.3363 49.386 55.3218 49.3748 55.3091C49.3639 55.2966 49.3508 55.2861 49.3361 55.2783C49.3215 55.2704 49.3054 55.2656 49.2889 55.2641L24.5095 53.178Z" fill="#CCCCCC"/>
<path d="M24.5095 55.7172C24.4978 55.7159 24.4859 55.7177 24.475 55.7223C24.4644 55.7269 24.4551 55.7339 24.4475 55.7427C24.4393 55.7524 24.4329 55.7635 24.4288 55.7755C24.4241 55.7889 24.4218 55.803 24.4219 55.8172V56.5979C24.4219 56.6125 24.4242 56.6271 24.4288 56.641C24.433 56.6541 24.4394 56.6665 24.4475 56.6777C24.4551 56.6881 24.4645 56.6971 24.4754 56.7041C24.4858 56.7108 24.4976 56.715 24.5099 56.7164L49.2889 59.4304C49.3048 59.4322 49.3209 59.4305 49.3361 59.4254C49.3505 59.4206 49.3637 59.4128 49.3748 59.4024C49.3861 59.3917 49.395 59.3788 49.4009 59.3645C49.4073 59.3489 49.4106 59.3323 49.4105 59.3155V58.3948C49.4104 58.3774 49.4072 58.3601 49.4009 58.3439C49.3948 58.328 49.3859 58.3133 49.3748 58.3004C49.3639 58.2877 49.3508 58.2771 49.3361 58.2689C49.3215 58.2608 49.3055 58.2558 49.2889 58.254L24.5095 55.7172Z" fill="#CCCCCC"/>
<path d="M24.5095 58.2701C24.4978 58.2686 24.486 58.2701 24.475 58.2746C24.4645 58.2789 24.4551 58.2855 24.4475 58.294C24.4392 58.3036 24.4328 58.3148 24.4288 58.3269C24.4241 58.3402 24.4218 58.3542 24.4219 58.3684V59.149C24.4219 59.1637 24.4242 59.1783 24.4288 59.1922C24.4331 59.2055 24.4394 59.218 24.4475 59.2293C24.4551 59.2398 24.4646 59.2489 24.4754 59.2562C24.4857 59.2631 24.4975 59.2675 24.5099 59.2692L49.2889 62.4361C49.3047 62.4382 49.3209 62.4368 49.3361 62.4321C49.3506 62.4274 49.3638 62.4195 49.3748 62.4091C49.3861 62.3986 49.395 62.3858 49.4009 62.3716C49.4073 62.3561 49.4106 62.3396 49.4105 62.3228V61.4027C49.4104 61.3853 49.4072 61.3679 49.4009 61.3516C49.3948 61.3356 49.3859 61.3207 49.3748 61.3077C49.3639 61.2948 49.3508 61.2839 49.3361 61.2755C49.3216 61.2671 49.3055 61.2617 49.2889 61.2596L24.5095 58.2701Z" fill="#CCCCCC"/>
<path d="M24.5095 60.8076C24.4979 60.8059 24.486 60.8072 24.475 60.8115C24.4645 60.8158 24.4551 60.8224 24.4475 60.8309C24.4392 60.8403 24.4329 60.8511 24.4288 60.8629C24.4241 60.8762 24.4218 60.8902 24.4219 60.9043V61.6849C24.4219 61.6996 24.4242 61.7143 24.4288 61.7283C24.4331 61.7416 24.4394 61.7542 24.4475 61.7656C24.4551 61.7763 24.4646 61.7856 24.4754 61.793C24.4857 61.8001 24.4975 61.8047 24.5099 61.8066L49.2889 65.4242C49.3047 65.4266 49.3208 65.4255 49.3361 65.421C49.3505 65.4167 49.3637 65.4092 49.3748 65.3991C49.3861 65.3888 49.395 65.3762 49.4009 65.3621C49.4073 65.3467 49.4106 65.3302 49.4105 65.3135V64.393C49.4104 64.3755 49.4072 64.3581 49.4009 64.3418C49.3947 64.3256 49.3859 64.3106 49.3748 64.2974C49.3639 64.2843 49.3508 64.2732 49.3361 64.2645C49.3216 64.2559 49.3056 64.2502 49.2889 64.2478L24.5095 60.8076Z" fill="#CCCCCC"/>
<path d="M24.5095 63.3466C24.498 63.3447 24.4861 63.3458 24.475 63.3499C24.4645 63.3539 24.4551 63.3604 24.4475 63.3688C24.4392 63.378 24.4329 63.3888 24.4288 63.4004C24.4241 63.4137 24.4218 63.4277 24.4219 63.4417V64.2224C24.4219 64.2372 24.4242 64.2519 24.4288 64.2659C24.4331 64.2794 24.4394 64.2921 24.4475 64.3036C24.4551 64.3145 24.4645 64.324 24.4754 64.3316C24.4857 64.3388 24.4975 64.3436 24.5099 64.3457L49.2889 68.4138C49.3046 68.4165 49.3207 68.4157 49.3361 68.4115C49.3505 68.4075 49.3637 68.4002 49.3748 68.3903C49.3861 68.3802 49.395 68.3677 49.4009 68.3538C49.4074 68.3384 49.4106 68.322 49.4105 68.3054V67.3848C49.4104 67.3672 49.4072 67.3498 49.4009 67.3333C49.3947 67.317 49.3859 67.3018 49.3748 67.2883C49.3639 67.2751 49.3508 67.2637 49.3361 67.2548C49.3217 67.2459 49.3056 67.2399 49.2889 67.2372L24.5095 63.3466Z" fill="#CCCCCC"/>
<path d="M56.7551 67.1153C58.1154 67.3267 59.4245 67.7892 60.6155 68.4792C63.1193 69.9289 65.0757 72.1622 66.1824 74.8342C66.7358 76.1649 67.0252 77.5904 67.0345 79.0315C67.0493 80.3616 66.7578 81.6774 66.1824 82.8769C65.6563 83.9575 64.8719 84.8918 63.8986 85.5973C62.9248 86.2948 61.7999 86.7525 60.6155 86.9333C59.3268 87.1259 58.0121 87.0476 56.7554 86.7033C55.4326 86.3482 54.1823 85.764 53.0614 84.9772C51.9588 84.2071 50.9805 83.2732 50.1604 82.2076C49.3556 81.1685 48.7148 80.0123 48.2603 78.7792C47.8135 77.5737 47.5814 76.2993 47.5746 75.0138C47.5639 73.8185 47.7972 72.6336 48.2603 71.5316C48.6902 70.5123 49.3454 69.6035 50.1769 68.8734C51.0084 68.1433 51.9945 67.6109 53.0614 67.3161C54.2643 66.9874 55.5236 66.9189 56.7551 67.1153Z" fill="#63388B"/>
<path d="M55.8363 80.8319L53.0117 76.4939L54.6428 75.5244L55.9945 77.5731L60.724 73.5078L62.3648 75.341L55.8363 80.8319Z" fill="white"/>
<path d="M35.2136 75.7767L34.7031 68.7069L35.62 62.0817L33.016 61.906L32.502 69.2244L33.9546 76.1064C33.8309 76.2774 33.7631 76.4823 33.7603 76.6933C33.7576 76.9042 33.8202 77.1108 33.9394 77.2849C34.0587 77.459 34.2289 77.592 34.4267 77.6657C34.6244 77.7394 34.8402 77.7503 35.0444 77.6968C35.2486 77.6433 35.4313 77.5281 35.5675 77.3669C35.7037 77.2057 35.7867 77.0064 35.8052 76.7963C35.8237 76.5861 35.7768 76.3754 35.6709 76.1929C35.565 76.0104 35.4053 75.8651 35.2136 75.7767Z" fill="#9F616A"/>
<path d="M32.6836 62.8591L33.295 60.2145C33.4121 59.708 33.7186 59.2655 34.1516 58.9776C34.5847 58.6897 35.1115 58.5782 35.6241 58.6659C36.1368 58.7537 36.5965 59.034 36.909 59.4495C37.2215 59.865 37.3631 60.3842 37.3049 60.9007L36.9682 63.889L32.6836 62.8591Z" fill="#CBCBCB"/>
<path d="M37.504 98.8102L38.7317 98.8101L39.3156 94.0781L37.5039 94.0783L37.504 98.8102Z" fill="#9F616A"/>
<path d="M37.1914 98.4103L39.609 98.4102C40.0176 98.4102 40.4096 98.5724 40.6985 98.8611C40.9874 99.1499 41.1498 99.5415 41.1498 99.9498V99.9999L37.1915 100L37.1914 98.4103Z" fill="#2F2E41"/>
<path d="M43.6204 98.7703L44.8006 98.4324L44.0583 93.7227L42.3164 94.2213L43.6204 98.7703Z" fill="#9F616A"/>
<path d="M43.209 98.471L45.5331 97.8056C45.9259 97.6932 46.3474 97.7413 46.7048 97.9394C47.0621 98.1374 47.326 98.4693 47.4386 98.8618L47.4524 98.9099L43.6471 99.9992L43.209 98.471Z" fill="#2F2E41"/>
<path d="M36.8413 97.0941L37.4123 82.7598L35.9293 76.2729C33.9336 72.929 36.0866 67.5952 36.1086 67.5417L36.1166 67.5222L36.1375 67.5193L41.358 66.8125L41.4314 66.9807C43.4733 71.646 44.04 76.8235 43.0555 81.8197L42.5122 84.5969L45.1976 95.4322L42.656 96.7021L40.7061 91.6488L39.388 96.819L36.8413 97.0941Z" fill="#2F2E41"/>
<path d="M35.4203 68.8699L33.7172 63.8829C32.6585 62.0195 33.33 60.3653 34.0799 59.3057C34.8896 58.1615 34.9383 57.5198 34.949 57.5127L34.9577 57.507L37.1953 57.4392L39.2662 59.5422C39.3965 59.4913 40.4968 62.2012 40.4035 62.3374L41.8499 67.0099L35.4203 68.8699Z" fill="#CBCBCB"/>
<path d="M49.2105 69.7326L43.6001 65.3957L39.2736 60.293L37.4053 62.1142L42.5173 67.3795L48.6163 70.8897C48.6611 71.0959 48.7686 71.2831 48.924 71.4259C49.0794 71.5687 49.2752 71.66 49.4845 71.6873C49.6938 71.7147 49.9065 71.6767 50.0934 71.5787C50.2803 71.4806 50.4324 71.3273 50.5288 71.1396C50.6251 70.9519 50.6611 70.739 50.6319 70.5301C50.6026 70.3212 50.5094 70.1264 50.3651 69.9724C50.2208 69.8184 50.0325 69.7127 49.8258 69.6698C49.6191 69.6269 49.4042 69.6488 49.2105 69.7326Z" fill="#9F616A"/>
<path d="M36.875 63.959L35.3118 61.7393C35.0124 61.3143 34.887 60.7909 34.9613 60.2765C35.0356 59.7621 35.304 59.2955 35.7114 58.9724C36.1189 58.6493 36.6345 58.4942 37.1527 58.5388C37.6709 58.5834 38.1524 58.8243 38.4986 59.2122L40.5013 61.4566L36.875 63.959Z" fill="#CBCBCB"/>
<path d="M35.8134 56.8285C37.2809 56.8285 38.4706 55.6396 38.4706 54.173C38.4706 52.7065 37.2809 51.5176 35.8134 51.5176C34.3459 51.5176 33.1562 52.7065 33.1562 54.173C33.1562 55.6396 34.3459 56.8285 35.8134 56.8285Z" fill="#9F616A"/>
<path d="M38.5152 52.8253H34.2959V50.9873C35.222 50.6197 36.1282 50.307 36.676 50.9873C37.1638 50.9873 37.6316 51.181 37.9765 51.5257C38.3214 51.8704 38.5152 52.3379 38.5152 52.8253Z" fill="#2F2E41"/>
<path d="M34.8775 50.5462C31.0117 50.4407 31.7437 56.8052 31.7437 56.8052C31.7437 56.8052 32.4731 56.9016 32.8059 56.9583L33.2078 56.7321L33.6402 57.0155C33.8388 57.0165 34.0474 57.0127 34.2637 57.0087L34.4619 56.6007L34.904 57.0013C35.7088 57.0025 37.8928 57.0247 37.8928 57.0247C37.8928 57.0247 39.209 50.6644 34.8775 50.5462Z" fill="#2F2E41"/>
<path d="M19.3019 61.4522C19.3171 61.3277 19.3049 61.2014 19.266 61.0822C19.2272 60.9629 19.1626 60.8537 19.0769 60.7621C18.9912 60.6705 18.8865 60.5988 18.7701 60.552C18.6536 60.5052 18.5284 60.4845 18.4031 60.4914L17.5538 58.7246L16.3535 58.9785L17.588 61.4567C17.6135 61.6663 17.715 61.8593 17.8733 61.9991C18.0316 62.1388 18.2357 62.2157 18.447 62.2152C18.6582 62.2146 18.8619 62.1366 19.0195 61.996C19.177 61.8554 19.2775 61.6619 19.3019 61.4522Z" fill="#FFB7B7"/>
<path d="M0.863281 81.9638L1.86222 82.4748L4.30955 78.8672L2.83517 78.1133L0.863281 81.9638Z" fill="#FFB7B7"/>
<path d="M0.775736 81.5078L2.74305 82.5139C3.07553 82.684 3.32688 82.9791 3.44166 83.3343C3.55644 83.6895 3.52534 84.0758 3.35519 84.4081L3.33434 84.4488L0.113281 82.8015L0.775736 81.5078Z" fill="#2F2E41"/>
<path d="M12.4017 83.3627H13.5237L14.0576 79.0371L12.4014 79.0373L12.4017 83.3627Z" fill="#FFB7B7"/>
<path d="M12.1152 82.9962L14.3252 82.9961C14.6987 82.9961 15.057 83.1444 15.3211 83.4083C15.5852 83.6723 15.7336 84.0302 15.7336 84.4035V84.4492L12.1153 84.4494L12.1152 82.9962Z" fill="#2F2E41"/>
<path d="M7.15234 48.0795C7.15234 48.0795 6.40087 47.5041 6.40087 48.9095L6.28223 53.5536L7.60716 57.9409L8.3784 56.518L8.06199 53.4351L7.15234 48.0795Z" fill="#63388B"/>
<path d="M15.1901 60.7819C15.1901 60.7819 16.0615 65.0228 14.9577 68.5032L14.3478 81.8848L12.1112 81.7107L11.3269 71.7833L10.5717 66.8486L9.00323 71.3479L3.83298 80.8689L1.45117 79.0111C1.45117 79.0111 4.09059 71.814 6.0405 70.3029L7.01844 59.1719L15.1901 60.7819Z" fill="#2F2E41"/>
<path d="M12.5394 42.4095C13.9478 42.4095 15.0896 41.2685 15.0896 39.861C15.0896 38.4535 13.9478 37.3125 12.5394 37.3125C11.131 37.3125 9.98926 38.4535 9.98926 39.861C9.98926 41.2685 11.131 42.4095 12.5394 42.4095Z" fill="#FFB8B8"/>
<path d="M12.3594 40.4019C12.6651 40.4417 12.8957 40.1291 13.0026 39.8402C13.1096 39.5512 13.1911 39.2148 13.4569 39.0588C13.82 38.8455 14.2846 39.102 14.6998 39.0316C15.1688 38.9522 15.4737 38.4555 15.4976 37.9808C15.5215 37.5061 15.3324 37.0495 15.1469 36.6118L15.0822 37.1558C15.0909 36.9714 15.052 36.7879 14.9694 36.6228C14.8869 36.4577 14.7633 36.3166 14.6105 36.2129L14.694 37.0111C14.6762 36.9009 14.6369 36.7954 14.5782 36.7005C14.5195 36.6056 14.4427 36.5233 14.3521 36.4581C14.2614 36.393 14.1589 36.3464 14.0502 36.321C13.9415 36.2956 13.8289 36.2919 13.7187 36.3101L13.7319 36.7857C13.1924 36.7025 12.6457 36.6758 12.1007 36.7059C11.5519 36.7376 11.0268 36.9398 10.5987 37.2842C9.98281 37.819 9.75788 38.6996 9.8334 39.5115C9.90891 40.3234 10.2443 41.0861 10.5938 41.8228C10.6817 42.0082 10.8034 42.2174 11.0073 42.241C11.0997 42.2423 11.19 42.2128 11.2638 42.1572C11.3377 42.1016 11.3909 42.023 11.4151 41.9338C11.459 41.7539 11.4573 41.566 11.4102 41.3869C11.338 41.1173 11.3149 40.837 11.3421 40.5593C11.3906 40.2851 11.588 40.0141 11.8646 39.9805C12.1412 39.9469 12.4242 40.2629 12.2912 40.5076L12.3594 40.4019Z" fill="#2F2E41"/>
<path d="M10.0988 43.3365L10.6327 42.5957C10.6327 42.5957 11.2295 42.7984 12.8278 43.5934L12.9407 44.2875L15.715 61.3399L10.6723 61.1225L9.29907 61.0933L8.29554 61.072L6.95455 61.0435L6.93477 56.1425L7.36983 52.3876L6.69747 48.8502C6.69747 48.8502 5.85141 45.6018 9.11005 43.8503L10.0988 43.3365Z" fill="#63388B"/>
<path d="M17.0869 60.5437L17.27 61.1841L18.5514 60.3499L18.0678 59.7969L17.0869 60.5437Z" fill="#CBCBCB"/>
<path d="M11.0527 45.3985C11.0527 45.3985 13.0391 42.8642 14.2397 45.6888L14.6183 48.6489C14.6183 48.6489 16.0727 52.3282 16.1164 53.8168C16.1164 53.8168 17.1025 55.7597 17.0935 56.7801L18.5522 60.0803L17.056 61.0086L12.9154 54.6639L11.0527 45.3985Z" fill="#63388B"/>
</svg>
