<svg width="162" height="100" viewBox="0 0 162 100" fill="none" xmlns="http://www.w3.org/2000/svg">
<path d="M16.3468 91.7546C17.0192 91.9911 17.7411 92.0503 18.443 91.9266C19.1448 91.8029 19.8031 91.5005 20.3542 91.0484C21.7578 89.8697 22.1979 87.9285 22.5559 86.1306L23.615 80.8125L21.3977 82.3399C19.803 83.4384 18.1726 84.5721 17.0686 86.1631C15.9645 87.7541 15.4829 89.9262 16.3697 91.6478" fill="#E6E6E6"/>
<path d="M16.6895 98.563C16.4105 96.5289 16.1233 94.4684 16.3195 92.4125C16.4934 90.5865 17.0503 88.8034 18.1839 87.3408C18.7856 86.566 19.5178 85.9022 20.3475 85.3792C20.5639 85.2426 20.763 85.5855 20.5476 85.7216C19.1119 86.6293 18.0014 87.9697 17.3763 89.5496C16.6858 91.3063 16.575 93.2215 16.6939 95.0878C16.7658 96.2164 16.9185 97.3375 17.0719 98.4574C17.0841 98.508 17.0765 98.5614 17.0508 98.6067C17.0251 98.6519 16.9831 98.6858 16.9335 98.7013C16.8828 98.715 16.8288 98.7081 16.7831 98.6821C16.7375 98.6562 16.7039 98.6133 16.6897 98.5628L16.6895 98.563Z" fill="#F2F2F2"/>
<path d="M18.6982 95.299C18.9866 95.7376 19.3829 96.0944 19.8491 96.3352C20.3154 96.576 20.8357 96.6927 21.3601 96.6738C22.7079 96.6099 23.8311 95.6691 24.842 94.7757L27.833 92.1337L25.8536 92.039C24.43 91.9707 22.9698 91.9068 21.6139 92.3465C20.258 92.7861 19.0076 93.8427 18.7597 95.2468" fill="#E6E6E6"/>
<path d="M15.9011 99.7338C17.2447 97.3554 18.803 94.7121 21.5877 93.8672C22.3619 93.6331 23.1737 93.5492 23.9794 93.6201C24.2334 93.6421 24.1699 94.0336 23.9165 94.0118C22.5659 93.8996 21.218 94.2564 20.0995 95.0221C19.0233 95.755 18.1852 96.774 17.476 97.8544C17.0416 98.5164 16.6524 99.2063 16.2633 99.8953C16.1389 100.116 15.7753 99.9565 15.9011 99.7338Z" fill="#F2F2F2"/>
<path d="M150.963 94.5872C150.572 94.9375 150.098 95.1812 149.586 95.2948C149.074 95.4084 148.541 95.3881 148.039 95.2358C146.752 94.8293 145.906 93.6327 145.157 92.5104L142.94 89.1914L144.878 89.6059C146.272 89.9039 147.7 90.2155 148.899 90.9872C150.097 91.759 151.036 93.1002 150.917 94.521" fill="#E6E6E6"/>
<path d="M152.535 99.587C151.844 96.9441 151.013 93.9901 148.536 92.4612C147.848 92.0369 147.084 91.7483 146.287 91.6108C146.036 91.5671 145.997 91.9619 146.248 92.0056C147.582 92.2424 148.794 92.932 149.68 93.9583C150.533 94.942 151.083 96.1415 151.493 97.3674C151.744 98.1184 151.944 98.8849 152.144 99.6506C152.208 99.8953 152.6 99.8345 152.535 99.587Z" fill="#F2F2F2"/>
<path d="M125.308 60.8843H80.0071C79.6453 60.8839 79.2985 60.74 79.0427 60.484C78.7869 60.2281 78.643 59.8812 78.6426 59.5192V44.2302C78.643 43.8683 78.7869 43.5213 79.0427 43.2654C79.2985 43.0095 79.6453 42.8655 80.0071 42.8651H125.308C125.669 42.8655 126.016 43.0095 126.272 43.2654C126.528 43.5213 126.672 43.8683 126.672 44.2302V59.5192C126.672 59.8812 126.528 60.2281 126.272 60.4841C126.016 60.74 125.669 60.8839 125.308 60.8843Z" fill="#F1F1F1"/>
<path d="M97.7456 46.9609H85.7383V48.326H97.7456V46.9609Z" fill="#63388B"/>
<path d="M113.574 48.5991C114.026 48.5991 114.392 48.2323 114.392 47.78C114.392 47.3276 114.026 46.9609 113.574 46.9609C113.121 46.9609 112.755 47.3276 112.755 47.78C112.755 48.2323 113.121 48.5991 113.574 48.5991Z" fill="#63388B"/>
<path d="M116.302 48.5991C116.754 48.5991 117.121 48.2323 117.121 47.78C117.121 47.3276 116.754 46.9609 116.302 46.9609C115.85 46.9609 115.483 47.3276 115.483 47.78C115.483 48.2323 115.85 48.5991 116.302 48.5991Z" fill="#63388B"/>
<path d="M119.032 48.5991C119.484 48.5991 119.85 48.2323 119.85 47.78C119.85 47.3276 119.484 46.9609 119.032 46.9609C118.579 46.9609 118.213 47.3276 118.213 47.78C118.213 48.2323 118.579 48.5991 119.032 48.5991Z" fill="#63388B"/>
<path d="M125.308 80.2692H80.0071C79.6453 80.2688 79.2985 80.1248 79.0427 79.8689C78.7869 79.613 78.643 79.2661 78.6426 78.9041V63.6151C78.643 63.2532 78.7869 62.9062 79.0427 62.6503C79.2985 62.3944 79.6453 62.2504 80.0071 62.25H125.308C125.669 62.2504 126.016 62.3944 126.272 62.6503C126.528 62.9062 126.672 63.2532 126.672 63.6151V78.9041C126.672 79.2661 126.528 79.613 126.272 79.8689C126.016 80.1249 125.669 80.2688 125.308 80.2692Z" fill="#F1F1F1"/>
<path d="M97.7456 66.3438H85.7383V67.7088H97.7456V66.3438Z" fill="#63388B"/>
<path d="M113.574 67.9819C114.026 67.9819 114.392 67.6152 114.392 67.1628C114.392 66.7105 114.026 66.3438 113.574 66.3438C113.121 66.3438 112.755 66.7105 112.755 67.1628C112.755 67.6152 113.121 67.9819 113.574 67.9819Z" fill="#63388B"/>
<path d="M116.302 67.9819C116.754 67.9819 117.121 67.6152 117.121 67.1628C117.121 66.7105 116.754 66.3438 116.302 66.3438C115.85 66.3438 115.483 66.7105 115.483 67.1628C115.483 67.6152 115.85 67.9819 116.302 67.9819Z" fill="#63388B"/>
<path d="M119.032 67.9819C119.484 67.9819 119.85 67.6152 119.85 67.1628C119.85 66.7105 119.484 66.3438 119.032 66.3438C118.579 66.3438 118.213 66.7105 118.213 67.1628C118.213 67.6152 118.579 67.9819 119.032 67.9819Z" fill="#63388B"/>
<path d="M125.308 99.652H80.0071C79.6453 99.6516 79.2985 99.5077 79.0427 99.2517C78.7869 98.9958 78.643 98.6489 78.6426 98.2869V82.9979C78.643 82.636 78.7869 82.289 79.0427 82.0331C79.2985 81.7772 79.6453 81.6332 80.0071 81.6328H125.308C125.669 81.6332 126.016 81.7772 126.272 82.0331C126.528 82.289 126.672 82.636 126.672 82.9979V98.2869C126.672 98.6489 126.528 98.9958 126.272 99.2517C126.016 99.5077 125.669 99.6516 125.308 99.652Z" fill="#F1F1F1"/>
<path d="M97.7456 85.7285H85.7383V87.0936H97.7456V85.7285Z" fill="#63388B"/>
<path d="M113.574 87.3666C114.026 87.3666 114.392 86.9999 114.392 86.5476C114.392 86.0952 114.026 85.7285 113.574 85.7285C113.121 85.7285 112.755 86.0952 112.755 86.5476C112.755 86.9999 113.121 87.3666 113.574 87.3666Z" fill="#63388B"/>
<path d="M116.302 87.3666C116.754 87.3666 117.121 86.9999 117.121 86.5476C117.121 86.0952 116.754 85.7285 116.302 85.7285C115.85 85.7285 115.483 86.0952 115.483 86.5476C115.483 86.9999 115.85 87.3666 116.302 87.3666Z" fill="#63388B"/>
<path d="M119.032 87.3666C119.484 87.3666 119.85 86.9999 119.85 86.5476C119.85 86.0952 119.484 85.7285 119.032 85.7285C118.579 85.7285 118.213 86.0952 118.213 86.5476C118.213 86.9999 118.579 87.3666 119.032 87.3666Z" fill="#63388B"/>
<path d="M108.229 27.9362L108.179 27.8992L108.178 27.8983C108.113 27.8502 108.04 27.8154 107.962 27.7958C107.884 27.7762 107.803 27.7722 107.723 27.7839C107.643 27.7957 107.567 27.823 107.498 27.8644C107.429 27.9057 107.369 27.9603 107.321 28.0249L97.124 41.7599H96.0022V41.4962C96.0022 41.4312 95.9764 41.3688 95.9304 41.3228C95.8845 41.2768 95.8221 41.2509 95.7571 41.2509H95.0878C95.0227 41.2509 94.9604 41.2768 94.9144 41.3228C94.8684 41.3688 94.8426 41.4312 94.8426 41.4962V41.7599H94.4552V41.4962C94.4552 41.4312 94.4294 41.3688 94.3834 41.3228C94.3374 41.2768 94.2751 41.2509 94.2101 41.2509H93.5408C93.4757 41.2509 93.4134 41.2768 93.3674 41.3228C93.3214 41.3688 93.2956 41.4312 93.2956 41.4962V41.7599H92.9095V41.4962C92.9095 41.4312 92.8836 41.3688 92.8377 41.3228C92.7917 41.2768 92.7293 41.2509 92.6643 41.2509H91.995C91.93 41.2509 91.8676 41.2768 91.8216 41.3228C91.7757 41.3688 91.7498 41.4312 91.7498 41.4962V41.7599H91.3625V41.4962C91.3625 41.4312 91.3366 41.3688 91.2906 41.3228C91.2447 41.2768 91.1823 41.2509 91.1173 41.2509H90.448C90.383 41.2509 90.3206 41.2768 90.2746 41.3228C90.2287 41.3688 90.2028 41.4312 90.2028 41.4962V41.7599H89.8167V41.4962C89.8167 41.4312 89.7909 41.3688 89.7449 41.3228C89.6989 41.2768 89.6365 41.2509 89.5715 41.2509H88.9022C88.87 41.2509 88.8382 41.2573 88.8084 41.2696C88.7787 41.2819 88.7516 41.3 88.7289 41.3228C88.7061 41.3456 88.688 41.3726 88.6757 41.4024C88.6634 41.4321 88.6571 41.464 88.6571 41.4962V41.7599H88.2697V41.4962C88.2697 41.4312 88.2439 41.3688 88.1979 41.3228C88.1519 41.2768 88.0895 41.2509 88.0245 41.2509H87.3552C87.2902 41.2509 87.2278 41.2768 87.1819 41.3228C87.1359 41.3688 87.1101 41.4312 87.1101 41.4962V41.7599H86.7227V41.4962C86.7227 41.4312 86.6968 41.3688 86.6509 41.3228C86.6049 41.2768 86.5425 41.2509 86.4775 41.2509H85.8082C85.7432 41.2509 85.6808 41.2768 85.6349 41.3228C85.5889 41.3688 85.563 41.4312 85.563 41.4962V41.7599H85.1769V41.4962C85.1769 41.4312 85.1511 41.3688 85.1051 41.3228C85.0591 41.2768 84.9968 41.2509 84.9317 41.2509H84.2624C84.1974 41.2509 84.1351 41.2768 84.0891 41.3228C84.0431 41.3688 84.0173 41.4312 84.0173 41.4962V41.7599H83.6299V41.4962C83.6299 41.4312 83.6041 41.3688 83.5581 41.3228C83.5121 41.2768 83.4498 41.2509 83.3847 41.2509H82.7154C82.6504 41.2509 82.5881 41.2768 82.5421 41.3228C82.4961 41.3688 82.4703 41.4312 82.4703 41.4962V41.7599H82.0841V41.4962C82.0841 41.4312 82.0583 41.3688 82.0123 41.3228C81.9664 41.2768 81.904 41.2509 81.839 41.2509H81.1697C81.1047 41.2509 81.0423 41.2768 80.9963 41.3228C80.9503 41.3688 80.9245 41.4312 80.9245 41.4962V41.7599H80.4391C80.3586 41.7599 80.2789 41.7758 80.2045 41.8066C80.1302 41.8374 80.0626 41.8826 80.0057 41.9395C79.9488 41.9964 79.9036 42.064 79.8728 42.1384C79.842 42.2128 79.8262 42.2926 79.8262 42.3731V42.9581C79.8262 43.0386 79.842 43.1183 79.8728 43.1927C79.9036 43.2671 79.9488 43.3347 80.0057 43.3917C80.0626 43.4486 80.1302 43.4938 80.2045 43.5246C80.2789 43.5554 80.3586 43.5713 80.4391 43.5713H97.0223C97.2323 43.5712 97.4359 43.4988 97.5988 43.3662C97.7617 43.2335 97.8739 43.0488 97.9165 42.843L97.9229 42.8477L108.355 28.7953L108.356 28.7941C108.453 28.6635 108.494 28.4998 108.47 28.3389C108.447 28.178 108.36 28.0332 108.229 27.9362Z" fill="#3F3D56"/>
<path d="M43.7891 94.4448L45.8489 95.4995L50.8949 88.0526L47.8549 86.4961L43.7891 94.4448Z" fill="#FFB7B7"/>
<path d="M43.6072 93.502L47.6637 95.5788L47.6639 95.5789C48.3495 95.93 48.8676 96.5392 49.1043 97.2724C49.341 98.0057 49.2768 98.8029 48.926 99.4889L48.883 99.5729L42.2412 96.1724L43.6072 93.502Z" fill="#2F2E41"/>
<path d="M67.5794 97.3295H69.8934L70.9942 88.4004H67.5791L67.5794 97.3295Z" fill="#FFB7B7"/>
<path d="M66.9883 96.5744L71.5452 96.5742H71.5454C72.3156 96.5743 73.0542 96.8804 73.5988 97.4252C74.1434 97.97 74.4494 98.709 74.4494 99.4795V99.5739L66.9884 99.5742L66.9883 96.5744Z" fill="#2F2E41"/>
<path d="M56.7551 24.4966C56.7551 24.4966 55.2056 23.3089 55.2056 26.2099L54.9609 35.7968L57.693 44.8532L59.2832 41.916L58.6308 35.552L56.7551 24.4966Z" fill="#2F2E41"/>
<path d="M73.3306 50.7181C73.3306 50.7181 75.1274 59.4725 72.8514 66.657L71.5937 94.2805L66.9819 93.9209L65.3647 73.4281L63.8075 63.2415L60.5733 72.5292L49.9122 92.1832L45.001 88.3483C45.001 88.3483 50.4434 73.4914 54.4641 70.3721L56.4806 47.3945L73.3306 50.7181Z" fill="#2F2E41"/>
<path d="M72.4779 10.0557C73.8709 7.50625 72.9344 4.30976 70.3861 2.91612C67.8378 1.52248 64.6428 2.45944 63.2498 5.00886C61.8568 7.55828 62.7933 10.7548 65.3416 12.1484C67.8898 13.542 71.0849 12.6051 72.4779 10.0557Z" fill="#FFB7B7"/>
<path d="M67.4915 8.64738C68.1218 8.72943 68.5973 8.08419 68.8179 7.48773C69.0384 6.89128 69.2064 6.19688 69.7545 5.87468C70.5033 5.4345 71.4612 5.96393 72.3175 5.81869C73.2844 5.65468 73.9131 4.62943 73.9624 3.64947C74.0117 2.66951 73.6219 1.72699 73.2394 0.823473L73.1059 1.94634C73.1237 1.56577 73.0437 1.18699 72.8734 0.846214C72.7031 0.505441 72.4483 0.21408 72.1333 0L72.3054 1.64763C72.2687 1.42032 72.1876 1.20248 72.0666 1.00661C71.9456 0.810744 71.7872 0.640709 71.6003 0.506265C71.4135 0.371821 71.202 0.275614 70.9779 0.223166C70.7538 0.170718 70.5215 0.163061 70.2945 0.200634L70.3216 1.18236C69.2048 1.04949 68.0782 0.916442 66.958 1.01766C65.8379 1.11889 64.7099 1.47345 63.8609 2.21149C62.591 3.31548 62.1272 5.13332 62.2829 6.80925C62.4386 8.48517 63.1301 10.0596 63.8508 11.5805C64.0321 11.9631 64.2829 12.3949 64.7034 12.4437C65.0812 12.4875 65.4269 12.1715 65.5444 11.8096C65.6349 11.4383 65.6314 11.0502 65.5342 10.6806C65.4279 10.1157 65.294 9.53831 65.3939 8.97226C65.4938 8.40621 65.9008 7.84684 66.4712 7.77747C67.0415 7.7081 67.6251 8.36034 67.3509 8.86545L67.4915 8.64738Z" fill="#2F2E41"/>
<path d="M73.6563 53.0601L56.1035 51.9271L57.4247 46.4512L73.4675 50.039L73.6563 53.0601Z" fill="#CBCBCB"/>
<path d="M62.8312 14.707L63.9322 13.1777C63.9322 13.1777 65.1627 13.5961 68.4583 15.2373L68.6912 16.67L74.4117 51.8711L64.0137 51.4224L61.1821 51.3621L60.2555 49.284L59.1129 51.3181L56.3477 51.2592L53.5342 49.6274L56.307 41.1421L57.204 33.391L55.8177 26.0887C55.8177 26.0887 54.0731 19.3832 60.7924 15.7676L62.8312 14.707Z" fill="#2F2E41"/>
<path d="M86.2672 41.3531C86.0126 41.4178 85.7468 41.4259 85.4887 41.3768C85.2306 41.3277 84.9865 41.2225 84.7734 41.0688C84.5603 40.915 84.3835 40.7164 84.2554 40.4869C84.1274 40.2574 84.0512 40.0025 84.0322 39.7404L77.8633 38.0873L80.3449 35.8828L85.8226 37.7906C86.2649 37.7879 86.6928 37.9476 87.0253 38.2395C87.3578 38.5314 87.5717 38.9351 87.6265 39.3743C87.6813 39.8134 87.5732 40.2574 87.3227 40.6221C87.0722 40.9868 86.6966 41.2469 86.2672 41.3531Z" fill="#FFB7B7"/>
<path d="M83.5048 40.4203C83.375 40.4909 83.2319 40.5335 83.0846 40.5452C82.9374 40.5569 82.7893 40.5374 82.6501 40.4881L72.502 36.6347C70.0263 35.7567 67.9536 34.0089 66.6695 31.7165L62.4376 24.1638C62.1404 23.832 61.9116 23.4447 61.7642 23.0243C61.6168 22.6039 61.5537 22.1585 61.5785 21.7136C61.6034 21.2687 61.7156 20.8331 61.9089 20.4317C62.1022 20.0303 62.3727 19.671 62.705 19.3743C63.0372 19.0776 63.4247 18.8494 63.8452 18.7027C64.2657 18.556 64.711 18.4936 65.1557 18.5193C65.6003 18.5449 66.0355 18.6581 66.4363 18.8522C66.8372 19.0463 67.1959 19.3176 67.4918 19.6505L74.8166 31.2655L84.0348 36.6724C84.2154 36.791 84.3553 36.9622 84.4356 37.163C84.5158 37.3637 84.5325 37.5843 84.4834 37.7948L84.025 39.7382C83.9757 39.9466 83.8641 40.135 83.7051 40.2783C83.6442 40.3334 83.5769 40.381 83.5048 40.4203Z" fill="#2F2E41"/>
<path d="M161.785 99.9621H0.171382C0.125929 99.9621 0.082337 99.944 0.0501966 99.9118C0.0180562 99.8797 0 99.8361 0 99.7906C0 99.7451 0.0180562 99.7015 0.0501966 99.6694C0.082337 99.6372 0.125929 99.6191 0.171382 99.6191H161.785C161.83 99.6191 161.874 99.6372 161.906 99.6694C161.938 99.7015 161.956 99.7451 161.956 99.7906C161.956 99.8361 161.938 99.8797 161.906 99.9118C161.874 99.944 161.83 99.9621 161.785 99.9621Z" fill="#CBCBCB"/>
</svg>
