<svg width="123" height="100" viewBox="0 0 123 100" fill="none" xmlns="http://www.w3.org/2000/svg">
<path d="M74.0191 92.5272C75.7951 93.717 77.8186 99.7321 77.8186 99.7321C77.8186 99.7321 71.4844 100.145 69.7089 98.9557C69.2865 98.6728 68.9239 98.3096 68.642 97.8866C68.36 97.4637 68.1642 96.9893 68.0656 96.4906C67.967 95.992 67.9677 95.4788 68.0676 94.9804C68.1675 94.482 68.3646 94.0082 68.6477 93.586C68.9307 93.1638 69.2943 92.8015 69.7174 92.5197C70.1406 92.238 70.6152 92.0424 71.114 91.9441C71.6128 91.8457 72.1261 91.8466 72.6246 91.9467C73.1231 92.0467 73.5969 92.244 74.0191 92.5272Z" fill="#F1F1F1"/>
<path d="M77.8911 99.6877L77.7918 99.7668C74.1722 95.227 68.71 93.659 68.6553 93.6437L68.6894 93.5215C68.7446 93.5369 74.2451 95.115 77.8911 99.6877Z" fill="white"/>
<path d="M83.5173 90.1273C83.4041 93.0833 77.7834 99.8336 77.7834 99.8336C77.7834 99.8336 72.6985 92.6713 72.8114 89.7164C72.8659 88.297 73.4822 86.9575 74.5246 85.9924C75.567 85.0273 76.9502 84.5157 78.3699 84.5702C79.7896 84.6247 81.1295 85.2408 82.0948 86.283C83.0601 87.3251 83.5718 88.708 83.5173 90.1273Z" fill="#F1F1F1"/>
<path d="M77.8889 99.8866L77.7236 99.8272C80.4468 92.2674 78.3298 84.6944 78.3081 84.6188L78.4769 84.5703C78.4988 84.6464 80.6318 92.272 77.8889 99.8866Z" fill="white"/>
<path d="M63.3345 73.3075H15.1619C14.3036 73.3065 13.4808 72.9652 12.874 72.3585C12.2671 71.7518 11.9258 70.9292 11.9248 70.0712V15.0332C11.9258 14.1751 12.2671 13.3525 12.874 12.7458C13.4808 12.1391 14.3036 11.7978 15.1619 11.7969H63.3345C64.1927 11.7978 65.0155 12.1391 65.6224 12.7458C66.2293 13.3525 66.5706 14.1751 66.5716 15.0332V70.0712C66.5706 70.9292 66.2293 71.7518 65.6224 72.3585C65.0155 72.9652 64.1927 73.3065 63.3345 73.3075Z" fill="#E6E6E6"/>
<path d="M61.0839 70.6102H17.4132C16.6512 70.6093 15.9207 70.3063 15.3818 69.7676C14.843 69.2289 14.5399 68.4986 14.5391 67.7368V17.3676C14.5399 16.6058 14.843 15.8754 15.3818 15.3367C15.9207 14.798 16.6512 14.495 17.4132 14.4941H61.0839C61.8459 14.495 62.5764 14.798 63.1153 15.3367C63.6541 15.8754 63.9572 16.6058 63.958 17.3676V67.7368C63.9572 68.4986 63.6541 69.2289 63.1153 69.7676C62.5764 70.3063 61.8459 70.6094 61.0839 70.6102Z" fill="white"/>
<path d="M59.3468 21.6632H37.3162C37.2218 21.6633 37.1282 21.6448 37.0409 21.6088C36.9536 21.5728 36.8743 21.5199 36.8075 21.4532C36.7407 21.3864 36.6876 21.3072 36.6515 21.22C36.6153 21.1328 36.5967 21.0393 36.5967 20.9449C36.5967 20.8505 36.6153 20.757 36.6515 20.6698C36.6876 20.5825 36.7407 20.5033 36.8075 20.4366C36.8743 20.3699 36.9536 20.317 37.0409 20.2809C37.1282 20.2449 37.2218 20.2264 37.3162 20.2266H59.3468C59.4412 20.2264 59.5347 20.2449 59.622 20.2809C59.7093 20.317 59.7887 20.3699 59.8555 20.4366C59.9223 20.5033 59.9753 20.5825 60.0115 20.6698C60.0477 20.757 60.0663 20.8505 60.0663 20.9449C60.0663 21.0393 60.0477 21.1328 60.0115 21.22C59.9753 21.3072 59.9223 21.3864 59.8555 21.4532C59.7887 21.5199 59.7093 21.5728 59.622 21.6088C59.5347 21.6448 59.4412 21.6633 59.3468 21.6632Z" fill="#E4E4E4"/>
<path d="M59.3467 24.5011H37.3162C37.1256 24.5011 36.9429 24.4255 36.8081 24.2907C36.6734 24.156 36.5977 23.9733 36.5977 23.7828C36.5977 23.5923 36.6734 23.4096 36.8081 23.2749C36.9429 23.1401 37.1256 23.0645 37.3162 23.0645H59.3467C59.5373 23.0645 59.7201 23.1401 59.8548 23.2749C59.9896 23.4096 60.0653 23.5923 60.0653 23.7828C60.0653 23.9733 59.9896 24.156 59.8548 24.2907C59.7201 24.4255 59.5373 24.5011 59.3467 24.5011Z" fill="#E4E4E4"/>
<path d="M46.8659 27.341H37.3162C37.1256 27.341 36.9429 27.2653 36.8081 27.1306C36.6734 26.9959 36.5977 26.8132 36.5977 26.6226C36.5977 26.4321 36.6734 26.2494 36.8081 26.1147C36.9429 25.98 37.1256 25.9043 37.3162 25.9043H46.8659C47.0565 25.9043 47.2392 25.98 47.374 26.1147C47.5087 26.2494 47.5844 26.4321 47.5844 26.6226C47.5844 26.8132 47.5087 26.9959 47.374 27.1306C47.2392 27.2653 47.0565 27.341 46.8659 27.341Z" fill="#E4E4E4"/>
<path d="M56.6903 38.8038H21.9109C21.8165 38.8039 21.7229 38.7855 21.6357 38.7494C21.5484 38.7134 21.469 38.6605 21.4022 38.5938C21.3354 38.5271 21.2824 38.4478 21.2462 38.3606C21.21 38.2734 21.1914 38.1799 21.1914 38.0855C21.1914 37.9911 21.21 37.8976 21.2462 37.8104C21.2824 37.7232 21.3354 37.6439 21.4022 37.5772C21.469 37.5105 21.5484 37.4576 21.6357 37.4216C21.7229 37.3855 21.8165 37.3671 21.9109 37.3672H56.6903C56.7848 37.3671 56.8783 37.3855 56.9656 37.4216C57.0529 37.4576 57.1322 37.5105 57.1991 37.5772C57.2659 37.6439 57.3189 37.7232 57.3551 37.8104C57.3912 37.8976 57.4099 37.9911 57.4099 38.0855C57.4099 38.1799 57.3912 38.2734 57.3551 38.3606C57.3189 38.4478 57.2659 38.5271 57.1991 38.5938C57.1322 38.6605 57.0529 38.7134 56.9656 38.7494C56.8783 38.7855 56.7848 38.8039 56.6903 38.8038Z" fill="#E4E4E4"/>
<path d="M56.6903 41.6437H21.9109C21.7203 41.6437 21.5376 41.568 21.4028 41.4333C21.2681 41.2986 21.1924 41.1159 21.1924 40.9254C21.1924 40.7349 21.2681 40.5521 21.4028 40.4174C21.5376 40.2827 21.7203 40.207 21.9109 40.207H56.6903C56.8809 40.207 57.0636 40.2827 57.1984 40.4174C57.3331 40.5521 57.4088 40.7349 57.4088 40.9254C57.4088 41.1159 57.3331 41.2986 57.1984 41.4333C57.0636 41.568 56.8809 41.6437 56.6903 41.6437Z" fill="#E4E4E4"/>
<path d="M56.6903 48.0851H21.9109C21.7203 48.0851 21.5376 48.0094 21.4028 47.8747C21.2681 47.74 21.1924 47.5573 21.1924 47.3668C21.1924 47.1762 21.2681 46.9935 21.4028 46.8588C21.5376 46.7241 21.7203 46.6484 21.9109 46.6484H56.6903C56.8808 46.6484 57.0636 46.7241 57.1983 46.8588C57.3331 46.9935 57.4088 47.1762 57.4088 47.3668C57.4088 47.5573 57.3331 47.74 57.1983 47.8747C57.0636 48.0094 56.8808 48.0851 56.6903 48.0851Z" fill="#E4E4E4"/>
<path d="M56.6903 50.925H21.9109C21.7203 50.925 21.5376 50.8493 21.4028 50.7146C21.2681 50.5799 21.1924 50.3971 21.1924 50.2066C21.1924 50.0161 21.2681 49.8334 21.4028 49.6987C21.5376 49.564 21.7203 49.4883 21.9109 49.4883H56.6903C56.8809 49.4883 57.0636 49.564 57.1984 49.6987C57.3331 49.8334 57.4088 50.0161 57.4088 50.2066C57.4088 50.3971 57.3331 50.5799 57.1984 50.7146C57.0636 50.8493 56.8809 50.925 56.6903 50.925Z" fill="#E4E4E4"/>
<path d="M56.6903 57.3683H21.9109C21.7203 57.3683 21.5376 57.2926 21.4028 57.1579C21.2681 57.0232 21.1924 56.8405 21.1924 56.65C21.1924 56.4594 21.2681 56.2767 21.4028 56.142C21.5376 56.0073 21.7203 55.9316 21.9109 55.9316H56.6903C56.8808 55.9316 57.0636 56.0073 57.1983 56.142C57.3331 56.2767 57.4088 56.4594 57.4088 56.65C57.4088 56.8405 57.3331 57.0232 57.1983 57.1579C57.0636 57.2926 56.8808 57.3683 56.6903 57.3683Z" fill="#E4E4E4"/>
<path d="M56.6903 60.2062H21.9109C21.7203 60.2062 21.5376 60.1305 21.4028 59.9958C21.2681 59.8611 21.1924 59.6784 21.1924 59.4879C21.1924 59.2974 21.2681 59.1146 21.4028 58.9799C21.5376 58.8452 21.7203 58.7695 21.9109 58.7695H56.6903C56.8809 58.7695 57.0636 58.8452 57.1984 58.9799C57.3331 59.1146 57.4088 59.2974 57.4088 59.4879C57.4088 59.6784 57.3331 59.8611 57.1984 59.9958C57.0636 60.1305 56.8809 60.2062 56.6903 60.2062Z" fill="#E4E4E4"/>
<path d="M56.6843 68.0676H47.1345C46.944 68.0676 46.7612 67.9919 46.6265 67.8572C46.4917 67.7224 46.416 67.5397 46.416 67.3492C46.416 67.1587 46.4917 66.976 46.6265 66.8413C46.7612 66.7065 46.944 66.6309 47.1345 66.6309H56.6843C56.8748 66.6309 57.0576 66.7065 57.1923 66.8413C57.3271 66.976 57.4028 67.1587 57.4028 67.3492C57.4028 67.5397 57.3271 67.7224 57.1923 67.8572C57.0576 67.9919 56.8748 68.0676 56.6843 68.0676Z" fill="#63388B"/>
<path d="M31.2172 23.8675C31.2192 25.4101 30.6968 26.9077 29.7357 28.1146C29.4249 28.5074 29.0709 28.8641 28.6806 29.1782C27.6154 30.0421 26.3139 30.564 24.9468 30.6754C24.7607 30.6915 24.5731 30.6989 24.3841 30.6989C24.0095 30.6989 23.6355 30.6681 23.266 30.6066C23.1356 30.5861 23.0081 30.5611 22.8806 30.5319C22.6587 30.4825 22.4395 30.4214 22.2241 30.3487C21.5255 30.1163 20.8692 29.7719 20.281 29.3291C20.1242 29.2119 19.9733 29.0873 19.8268 28.9555C19.6475 28.7966 19.4777 28.6273 19.3182 28.4486C19.2757 28.4017 19.2332 28.3534 19.1922 28.305C18.4772 27.4684 17.975 26.4714 17.7284 25.3989C17.4817 24.3264 17.498 23.2103 17.7757 22.1454C18.0534 21.0806 18.5844 20.0986 19.3235 19.2831C20.0626 18.4676 20.9878 17.8427 22.0204 17.4616C23.053 17.0805 24.1625 16.9546 25.2543 17.0945C26.346 17.2343 27.3879 17.6359 28.291 18.265C29.1942 18.894 29.9319 19.732 30.4414 20.7075C30.9508 21.6829 31.217 22.767 31.2172 23.8675Z" fill="#E4E4E4"/>
<path d="M24.1469 26.1986C25.6934 26.1986 26.9471 24.9452 26.9471 23.3991C26.9471 21.853 25.6934 20.5996 24.1469 20.5996C22.6004 20.5996 21.3467 21.853 21.3467 23.3991C21.3467 24.9452 22.6004 26.1986 24.1469 26.1986Z" fill="#9E616A"/>
<path d="M27.2637 22.0356C27.2764 21.7855 27.2058 21.5382 27.0629 21.3324L26.9618 21.1888C26.5969 20.4856 25.9946 19.8527 25.5536 19.3898C25.2224 19.0426 24.8912 18.8756 24.5732 18.8917C24.3418 18.9082 24.1263 19.0157 23.9739 19.1906C23.5551 19.165 23.1379 19.2621 22.7735 19.47C22.4091 19.6779 22.1133 19.9876 21.9223 20.3611C20.5815 21.0687 20.9816 23.1578 20.9859 23.1798L21.3098 23.7233L21.3465 23.6545C21.3465 23.653 21.3508 23.6471 21.3567 23.6354C21.4197 23.5226 21.7626 22.8956 21.9942 22.4986C22.0787 22.3632 22.1911 22.2473 22.3239 22.1587C22.5407 22.0105 22.79 21.9166 23.0507 21.8847L23.7629 21.7924L23.4933 22.1968H25.4334L26.1792 22.1089C26.254 22.4151 26.846 23.6032 26.9178 23.7468L26.9237 23.7585L26.9632 23.8391L27.1845 23.2311C27.3137 22.8461 27.341 22.4343 27.2637 22.0356Z" fill="#2F2E41"/>
<path d="M20.3018 29.3446C20.4219 29.1863 21.0447 28.448 22.4779 28.0568L23.2369 27.2115L26.2805 26.7266L27.8294 27.5821L29.7359 28.1154C29.4251 28.5082 29.0712 28.865 28.6808 29.179C27.6156 30.0429 26.3141 30.5648 24.947 30.6763C24.7609 30.6924 24.5734 30.6997 24.3843 30.6997C24.0097 30.6998 23.6358 30.6689 23.2662 30.6074C23.1358 30.5869 23.0083 30.562 22.8808 30.5327C22.6589 30.4833 22.4398 30.4222 22.2244 30.3496C21.5336 30.1201 20.8844 29.7808 20.3018 29.3446C20.2944 29.3402 20.2886 29.3343 20.2812 29.3299L20.3018 29.3446Z" fill="#63388B"/>
<path d="M78.0623 3.42649H0.434817C0.319535 3.42636 0.209011 3.38052 0.127494 3.29902C0.0459778 3.21753 0.000125673 3.10703 0 2.99178V0.434708C0.000125673 0.319455 0.0459778 0.208958 0.127494 0.127462C0.209011 0.0459653 0.319535 0.000125642 0.434817 0H78.0623C78.1776 0.000125642 78.2881 0.0459653 78.3696 0.127462C78.4511 0.208958 78.497 0.319455 78.4971 0.434708V2.99178C78.497 3.10703 78.4511 3.21753 78.3696 3.29902C78.2881 3.38052 78.1776 3.42636 78.0623 3.42649Z" fill="#63388B"/>
<path d="M2.52358 2.20506C2.86452 2.20506 3.14091 1.92874 3.14091 1.58788C3.14091 1.24702 2.86452 0.970703 2.52358 0.970703C2.18264 0.970703 1.90625 1.24702 1.90625 1.58788C1.90625 1.92874 2.18264 2.20506 2.52358 2.20506Z" fill="white"/>
<path d="M4.86635 2.20506C5.2073 2.20506 5.48368 1.92874 5.48368 1.58788C5.48368 1.24702 5.2073 0.970703 4.86635 0.970703C4.52541 0.970703 4.24902 1.24702 4.24902 1.58788C4.24902 1.92874 4.52541 2.20506 4.86635 2.20506Z" fill="white"/>
<path d="M7.2101 2.20506C7.55105 2.20506 7.82743 1.92874 7.82743 1.58788C7.82743 1.24702 7.55105 0.970703 7.2101 0.970703C6.86916 0.970703 6.59277 1.24702 6.59277 1.58788C6.59277 1.92874 6.86916 2.20506 7.2101 2.20506Z" fill="white"/>
<path d="M75.7666 1.16332H73.0683C73.0156 1.16287 72.9652 1.14162 72.9281 1.10419C72.8909 1.06677 72.8701 1.0162 72.8701 0.963501C72.8701 0.9108 72.8909 0.860231 72.9281 0.822807C72.9652 0.785382 73.0156 0.76413 73.0683 0.763679H75.7666C75.7929 0.763453 75.8191 0.768456 75.8436 0.778396C75.868 0.788337 75.8902 0.80302 75.909 0.821597C75.9277 0.840175 75.9426 0.862279 75.9528 0.886634C75.9629 0.91099 75.9681 0.937115 75.9681 0.963501C75.9681 0.989887 75.9629 1.01601 75.9528 1.04037C75.9426 1.06472 75.9277 1.08683 75.909 1.1054C75.8902 1.12398 75.868 1.13867 75.8436 1.14861C75.8191 1.15855 75.7929 1.16355 75.7666 1.16332Z" fill="white"/>
<path d="M75.7663 1.9132H73.068C73.015 1.9132 72.9642 1.89215 72.9267 1.85467C72.8892 1.8172 72.8682 1.76637 72.8682 1.71338C72.8682 1.66038 72.8892 1.60956 72.9267 1.57208C72.9642 1.53461 73.015 1.51356 73.068 1.51356H75.7663C75.7927 1.51333 75.8189 1.51833 75.8433 1.52827C75.8678 1.53821 75.89 1.5529 75.9087 1.57147C75.9275 1.59005 75.9424 1.61216 75.9525 1.63651C75.9627 1.66087 75.9679 1.68699 75.9679 1.71338C75.9679 1.73976 75.9627 1.76589 75.9525 1.79024C75.9424 1.8146 75.9275 1.83671 75.9087 1.85528C75.89 1.87386 75.8678 1.88854 75.8433 1.89848C75.8189 1.90842 75.7927 1.91343 75.7663 1.9132Z" fill="white"/>
<path d="M75.7666 2.66332H73.0684C73.0156 2.66289 72.9652 2.64165 72.9281 2.60422C72.891 2.56679 72.8701 2.51621 72.8701 2.46349C72.8701 2.41078 72.891 2.3602 72.9281 2.32277C72.9652 2.28534 73.0156 2.2641 73.0684 2.26367H75.7666C75.8194 2.2641 75.8698 2.28534 75.9069 2.32277C75.9441 2.3602 75.9649 2.41078 75.9649 2.46349C75.9649 2.51621 75.9441 2.56679 75.9069 2.60422C75.8698 2.64165 75.8194 2.66289 75.7666 2.66332Z" fill="white"/>
<path d="M97.0782 68.7632C96.9541 68.6281 96.861 68.4674 96.8057 68.2925C96.7503 68.1176 96.734 67.9327 96.7578 67.7507C96.7817 67.5688 96.8452 67.3944 96.9438 67.2396C97.0424 67.0849 97.1737 66.9537 97.3286 66.8552L96.2998 62.5156L98.4771 63.3109L99.1203 67.3099C99.2685 67.5809 99.3122 67.8968 99.243 68.1979C99.1739 68.4989 98.9966 68.7642 98.7449 68.9433C98.4932 69.1225 98.1845 69.2031 97.8773 69.1699C97.5702 69.1367 97.2858 68.992 97.0782 68.7632Z" fill="#9E616A"/>
<path d="M91.8418 50.5787L92.7156 52.8251C92.7156 52.8251 92.3411 55.0715 92.9653 55.5707C93.5894 56.0699 93.3398 56.0699 93.3398 56.4443C93.3613 56.7129 93.4391 56.9739 93.5681 57.2104C93.6972 57.447 93.8746 57.6537 94.0888 57.8172C94.5881 58.1916 96.8351 65.8044 96.8351 65.8044H99.0821C99.0095 65.2243 99.0095 64.6374 99.0821 64.0572C99.2069 63.1836 98.7076 60.9372 98.4579 60.5628C98.2082 60.1884 98.4579 59.6892 98.4579 58.9404C98.4579 58.1916 97.9586 57.8172 97.9586 56.5691C97.9586 55.3211 96.4606 45.5866 96.5854 44.4634C96.7102 43.3402 95.3371 42.3418 95.3371 42.3418H94.0888L91.8418 50.5787Z" fill="#E4E4E4"/>
<path d="M97.5892 98.0426H95.9287L95.1387 91.6387L97.5895 91.6388L97.5892 98.0426Z" fill="#9E616A"/>
<path d="M98.0119 99.6512L92.6572 99.651V99.5833C92.6573 99.0307 92.8769 98.5007 93.2677 98.11C93.6586 97.7192 94.1887 97.4997 94.7414 97.4997L95.7197 96.7578L97.5446 97.4998L98.012 97.4998L98.0119 99.6512Z" fill="#2F2E41"/>
<path d="M82.3974 97.9945L80.8379 97.4241L82.2964 91.1387L84.5982 91.9806L82.3974 97.9945Z" fill="#9E616A"/>
<path d="M82.2416 99.653L77.2129 97.8137L77.2362 97.7501C77.4261 97.2312 77.8144 96.8089 78.3158 96.5762C78.8171 96.3434 79.3904 96.3193 79.9095 96.5091L81.0831 96.1484L82.542 97.472L82.981 97.6326L82.2416 99.653Z" fill="#2F2E41"/>
<path d="M93.93 68.0975C93.93 68.0975 92.8065 73.5888 94.679 73.0896C96.5514 72.5903 95.8024 67.8479 95.8024 67.8479L93.93 68.0975Z" fill="#A0616A"/>
<path d="M85.6912 63.543C85.6912 63.543 84.1932 65.5398 84.1932 66.663C84.1932 67.7862 83.6939 77.7703 83.6939 77.7703C83.6939 77.7703 79.9037 92.6378 80.6527 93.3867C81.4017 94.1355 84.0232 94.8843 84.3977 94.5099C84.7722 94.1355 88.063 78.7687 88.063 78.7687L91.1838 70.407L94.055 82.3879L94.3046 95.1177C94.3046 95.1177 97.4254 95.8665 98.0496 95.3673C98.6738 94.8681 98.7986 82.7624 98.0496 78.5191C97.3006 74.2759 98.1744 64.5414 98.1744 64.5414L85.6912 63.543Z" fill="#2F2E41"/>
<path d="M90.6971 36.8963C92.7654 36.8963 94.4421 35.22 94.4421 33.1522C94.4421 31.0845 92.7654 29.4082 90.6971 29.4082C88.6288 29.4082 86.9521 31.0845 86.9521 33.1522C86.9521 35.22 88.6288 36.8963 90.6971 36.8963Z" fill="#9E616A"/>
<path d="M85.9409 42.3253C85.9409 42.3253 87.0192 40.719 89.1414 38.5974C90.2649 38.223 92.2115 38.4412 92.8863 38.5974C96.0071 42.7158 96.2035 42.4422 97.0159 44.7433C97.2266 45.34 97.3319 45.9133 97.2383 46.3813C96.8638 48.2533 98.0497 63.4167 98.1745 63.9159C98.2993 64.4151 99.1732 65.0391 98.2993 65.0391C97.4255 65.0391 84.1933 64.5399 84.4429 64.1655C84.6926 63.7911 85.9409 42.3253 85.9409 42.3253Z" fill="#E4E4E4"/>
<path opacity="0.1" d="M85.3691 64.0016L89.124 55.7421L87.2466 64.5262L85.3691 64.0016Z" fill="#3F3F3F"/>
<path d="M89.5647 36.6213C89.9154 36.3605 90.2382 36.0642 90.5282 35.7373C90.8193 35.4075 91.0016 34.9959 91.0501 34.5587C91.0714 34.3407 91.0371 34.1208 90.9506 33.9197C90.864 33.7185 90.7279 33.5424 90.555 33.4079C90.1983 33.156 89.6544 33.1707 89.3583 33.4916C89.5014 33.0294 89.632 32.4842 89.3423 32.0965C89.0786 31.7438 88.5868 31.6838 88.1619 31.5675C87.3426 31.3395 86.6376 30.8144 86.1846 30.0948L86.906 30.2441L86.8256 29.7299L87.4235 29.9377L87.4287 29.2215L88.0458 29.5667C88.8012 28.8743 89.7967 28.5035 90.8211 28.5329C91.3379 28.5415 91.844 28.6804 92.2927 28.9368C92.7424 29.1968 93.0829 29.6105 93.2516 30.1016C93.5692 29.772 94.1355 29.7975 94.5138 30.0551C94.8922 30.3127 95.1144 30.7436 95.2671 31.1751C95.5693 32.0025 95.6396 32.8968 95.4705 33.7613C95.2964 34.6279 94.8294 35.4081 94.1478 35.9711C93.5219 36.4487 92.7767 36.7451 91.9937 36.8278C91.2139 36.9086 90.4264 36.8749 89.6564 36.7279" fill="#2F2E41"/>
<path d="M84.1998 68.7475C84.324 68.6125 84.417 68.4518 84.4724 68.2769C84.5277 68.102 84.544 67.917 84.5202 67.7351C84.4963 67.5532 84.4328 67.3787 84.3342 67.224C84.2356 67.0693 84.1043 66.938 83.9495 66.8395L84.9782 62.5L82.8009 63.2953L82.1578 67.2943C82.0095 67.5653 81.9658 67.8812 82.035 68.1823C82.1041 68.4833 82.2814 68.7485 82.5331 68.9277C82.7848 69.1068 83.0935 69.1874 83.4007 69.1542C83.7078 69.121 83.9922 68.9763 84.1998 68.7475Z" fill="#9E616A"/>
<path d="M87.1888 42.3262H85.9405C85.9405 42.3262 84.5673 43.3246 84.6921 44.4478C84.817 45.571 83.319 55.3055 83.319 56.5535C83.319 57.8015 82.8196 58.1759 82.8196 58.9247C82.8196 59.6735 83.0693 60.1727 82.8196 60.5472C82.57 60.9216 82.0707 63.168 82.1955 64.0416C82.2681 64.6217 82.2681 65.2087 82.1955 65.7888H84.4425C84.4425 65.7888 86.6894 58.1759 87.1888 57.8015C87.403 57.6381 87.5804 57.4313 87.7094 57.1948C87.8385 56.9583 87.9163 56.6973 87.9378 56.4287C87.9378 56.0543 87.6881 56.0543 88.3123 55.5551C88.9364 55.0559 88.5619 52.8095 88.5619 52.8095L89.4358 50.563L87.1888 42.3262Z" fill="#E4E4E4"/>
<path d="M122.502 99.9993H54.0256C54.0026 99.9993 53.9799 99.9949 53.9586 99.9861C53.9374 99.9774 53.9181 99.9646 53.9019 99.9483C53.8856 99.9321 53.8727 99.9129 53.8639 99.8917C53.8551 99.8705 53.8506 99.8478 53.8506 99.8248C53.8506 99.8019 53.8551 99.7792 53.8639 99.758C53.8727 99.7368 53.8856 99.7175 53.9019 99.7013C53.9181 99.6851 53.9374 99.6723 53.9586 99.6635C53.9799 99.6548 54.0026 99.6503 54.0256 99.6504H122.502C122.525 99.6503 122.548 99.6548 122.569 99.6635C122.59 99.6723 122.61 99.6851 122.626 99.7013C122.642 99.7175 122.655 99.7368 122.664 99.758C122.673 99.7792 122.677 99.8019 122.677 99.8248C122.677 99.8478 122.673 99.8705 122.664 99.8917C122.655 99.9129 122.642 99.9321 122.626 99.9483C122.61 99.9646 122.59 99.9774 122.569 99.9861C122.548 99.9949 122.525 99.9993 122.502 99.9993Z" fill="#CACACA"/>
</svg>
