<svg width="111" height="100" viewBox="0 0 111 100" fill="none" xmlns="http://www.w3.org/2000/svg">
<path d="M76.1171 99.7482H44.8629C40.1751 99.7482 36.3613 95.9296 36.3613 91.236V8.51205C36.3613 3.81852 40.1751 0 44.8629 0H76.1171C80.8048 0 84.6186 3.81852 84.6186 8.51205C85.2004 41.7314 86.1925 78.9319 84.6186 91.236C84.6186 95.9296 80.8048 99.7482 76.1171 99.7482Z" fill="#3F3D56"/>
<path d="M85.055 30.4277C84.8566 30.4277 84.6953 30.5892 84.6953 30.7878V42.3111C84.6953 42.5097 84.8566 42.6712 85.055 42.6712C85.2533 42.6712 85.4146 42.5097 85.4146 42.3111V30.7878C85.4146 30.5892 85.2533 30.4277 85.055 30.4277Z" fill="#3F3D56"/>
<path d="M83.8097 8.51311V91.2356C83.8097 95.3209 80.6339 98.6627 76.6183 98.922H76.6165C76.5572 98.9256 76.4979 98.9292 76.4367 98.931C76.3306 98.9364 76.2245 98.9382 76.1166 98.9382C76.1166 98.9382 75.721 98.9094 74.9981 98.8553C74.268 98.8013 73.2052 98.7203 71.8799 98.6141C71.4824 98.5835 71.0634 98.5493 70.6211 98.5133C69.7399 98.4412 68.7724 98.362 67.7348 98.272C67.3212 98.2378 66.8932 98.2 66.4562 98.1622C64.2228 97.9695 61.7214 97.7444 59.0833 97.4888C58.6373 97.4473 58.1877 97.4041 57.7346 97.3591C57.6159 97.3465 37.1709 92.2007 37.1709 91.2356V8.51311C37.1709 4.25852 40.6146 0.810547 44.864 0.810547H49.4568C50.1905 0.810547 50.7803 1.38311 50.8432 2.11591C50.8486 2.16453 50.854 2.21314 50.863 2.26176C50.9961 2.99817 51.6705 3.51131 52.4185 3.51131H68.562C69.3101 3.51131 69.9845 2.99817 70.1175 2.26176C70.1265 2.21314 70.1319 2.16453 70.1373 2.11591C70.2003 1.38311 70.7901 0.810547 71.5238 0.810547H76.1166C80.366 0.810547 83.8097 4.25852 83.8097 8.51311Z" fill="white"/>
<path d="M36.1819 21.7852C35.9836 21.7852 35.8223 21.9467 35.8223 22.1453V25.0261C35.8223 25.2247 35.9836 25.3862 36.1819 25.3862C36.3803 25.3862 36.5416 25.2247 36.5416 25.0261V22.1453C36.5416 21.9467 36.3803 21.7852 36.1819 21.7852Z" fill="#3F3D56"/>
<path d="M36.1819 30.4277C35.9836 30.4277 35.8223 30.5892 35.8223 30.7878V36.3694C35.8223 36.568 35.9836 36.7295 36.1819 36.7295C36.3803 36.7295 36.5416 36.568 36.5416 36.3694V30.7878C36.5416 30.5892 36.3803 30.4277 36.1819 30.4277Z" fill="#3F3D56"/>
<path d="M36.1819 38.3516C35.9836 38.3516 35.8223 38.5131 35.8223 38.7117V44.2932C35.8223 44.4918 35.9836 44.6533 36.1819 44.6533C36.3803 44.6533 36.5416 44.4918 36.5416 44.2932V38.7117C36.5416 38.5131 36.3803 38.3516 36.1819 38.3516Z" fill="#3F3D56"/>
<path d="M49.3386 2.07031H42.4462C42.4128 2.07031 42.3857 2.09742 42.3857 2.13087V2.91001C42.3857 2.94345 42.4128 2.97057 42.4462 2.97057H49.3386C49.372 2.97057 49.399 2.94345 49.399 2.91001V2.13087C49.399 2.09742 49.372 2.07031 49.3386 2.07031Z" fill="#E6E6E6"/>
<path d="M72.6607 2.97166C73.058 2.97166 73.38 2.64921 73.38 2.25145C73.38 1.8537 73.058 1.53125 72.6607 1.53125C72.2635 1.53125 71.9414 1.8537 71.9414 2.25145C71.9414 2.64921 72.2635 2.97166 72.6607 2.97166Z" fill="#E6E6E6"/>
<path d="M74.6383 2.97166C75.0355 2.97166 75.3576 2.64921 75.3576 2.25145C75.3576 1.8537 75.0355 1.53125 74.6383 1.53125C74.241 1.53125 73.9189 1.8537 73.9189 2.25145C73.9189 2.64921 74.241 2.97166 74.6383 2.97166Z" fill="#E6E6E6"/>
<path d="M76.6168 2.97166C77.014 2.97166 77.3361 2.64921 77.3361 2.25145C77.3361 1.8537 77.014 1.53125 76.6168 1.53125C76.2195 1.53125 75.8975 1.8537 75.8975 2.25145C75.8975 2.64921 76.2195 2.97166 76.6168 2.97166Z" fill="#E6E6E6"/>
<path d="M2.79102 99.7674C2.79102 99.8963 2.89435 99.9997 3.02303 99.9997H109.917C110.046 99.9997 110.149 99.8963 110.149 99.7674C110.149 99.6386 110.046 99.5352 109.917 99.5352H3.02303C2.89435 99.5352 2.79102 99.6386 2.79102 99.7674Z" fill="#CCCCCC"/>
<path d="M36.8735 98.2432L34.6815 98.243L33.6387 89.7773L36.874 89.7776L36.8735 98.2432Z" fill="#FFB6B6"/>
<path d="M29.3631 98.1932C29.2948 98.3083 29.2588 98.6798 29.2588 98.8136C29.2588 99.225 29.5919 99.5585 30.0028 99.5585H36.7913C37.0717 99.5585 37.2989 99.331 37.2989 99.0504V98.7674C37.2989 98.7674 37.6347 97.9169 36.9433 96.8686C36.9433 96.8686 36.084 97.6894 34.8 96.4038L34.4213 95.717L31.6804 97.724L30.1611 97.9113C29.8287 97.9522 29.534 97.9049 29.3631 98.1932Z" fill="#2F2E41"/>
<path d="M24.75 86.4839L22.5579 86.4767L21.542 78.0078L24.7773 78.0183L24.75 86.4839Z" fill="#FFB6B6"/>
<path d="M17.24 86.4113C17.1714 86.5262 17.1342 86.8976 17.1338 87.0314C17.1325 87.4428 17.4645 87.7774 17.8754 87.7787L24.664 87.8003C24.9443 87.8011 25.1722 87.5743 25.1731 87.2937L25.174 87.0107C25.174 87.0107 25.5125 86.1613 24.8245 85.1108C24.8245 85.1108 23.9625 85.9289 22.6826 84.6392L22.3061 83.9512L19.5588 85.9495L18.039 86.1319C17.7065 86.1718 17.4119 86.1236 17.24 86.4113Z" fill="#2F2E41"/>
<path d="M33.6757 46.8477L30.9463 47.0429C30.9463 47.0429 21.7061 52.303 20.9263 53.4742C20.1464 54.6454 19.0742 56.3046 20.0489 58.0614C21.0237 59.8182 20.2818 81.0896 20.2818 81.0896L24.9399 80.0346L27.9244 57.7788L34.1631 56.9004C34.1631 56.9004 36.3076 61.533 35.5278 65.3655C34.748 69.198 34.358 71.5404 34.358 71.5404L33.3832 94.1836L37.1849 94.086L40.5967 73.102L46.4455 56.51L38.8421 47.5309L33.6757 46.8477Z" fill="#2F2E41"/>
<path d="M47.1279 22.8379L41.4741 23.4235L40.8893 25.3755L35.4304 28.3035L37.185 40.6011L35.8203 42.7482L36.4052 44.8954C36.4052 44.8954 34.8455 45.0906 35.0405 46.2618L31.5312 46.8474C31.5312 46.8474 36.1857 47.7988 37.1728 52.4959C38.1598 57.193 46.3481 57.7786 46.3481 57.7786L52.7817 37.6731L53.3666 25.7659L48.8826 24.5947L47.1279 22.8379Z" fill="#E6E6E6"/>
<path d="M44.1481 22.098C46.5754 22.098 48.5432 20.1278 48.5432 17.6975C48.5432 15.2671 46.5754 13.2969 44.1481 13.2969C41.7207 13.2969 39.7529 15.2671 39.7529 17.6975C39.7529 20.1278 41.7207 22.098 44.1481 22.098Z" fill="#FFB6B6"/>
<path d="M41.8643 21.6682C41.8643 21.6682 37.9651 21.473 38.355 18.3498C37.3899 15.0239 38.2441 12.8645 41.2794 12.1034C41.2794 12.1034 42.0592 11.9082 42.2542 11.9082C44.8185 11.9082 46.1533 12.689 46.1533 12.689C46.1533 12.689 45.9584 11.9159 46.1533 12.1072C46.3483 12.2986 46.5433 12.689 46.5433 12.689C46.5433 12.689 48.4929 13.665 48.4929 15.617C48.4929 17.569 48.4929 16.7882 48.4929 16.7882C48.4929 16.7882 48.1029 16.7882 47.713 15.617C47.3231 14.4458 44.7986 15.2266 44.7986 15.2266L44.9836 15.617L44.3987 15.4218L43.8138 16.0074L43.4239 15.8122C43.4239 15.8122 41.8643 15.8122 42.0592 15.8122C42.2542 15.8122 42.1183 17.1388 42.1183 17.1388L40.6945 18.7402L42.2542 21.6682H41.8643Z" fill="#2F2E41"/>
<path d="M21.0903 44.9645C19.9803 45.571 19.393 46.636 19.7785 47.3432C20.164 48.0504 21.3763 48.1321 22.4863 47.5255C22.9722 47.26 23.3578 46.9066 23.6057 46.5339L28.2767 43.9048L26.9978 41.7363L22.5288 44.5583C22.0816 44.5653 21.5761 44.699 21.0903 44.9645Z" fill="#FFB6B6"/>
<path d="M36.8429 28.3951C36.8429 28.3951 35.0118 27.6971 34.3809 28.5373C33.75 29.3775 29.5824 39.5729 29.5824 39.5729L23.4678 42.7703L25.1873 45.7683L33.0611 43.1436L38.2561 33.6308L36.8429 28.3951Z" fill="#E6E6E6"/>
<path d="M94.5847 61.8789V82.5701C94.5847 84.3999 93.0979 85.8885 91.2704 85.8885H40.1912C38.3637 85.8885 36.877 84.3999 36.877 82.5701V61.8789C36.877 60.0491 38.3637 58.5605 40.1912 58.5605H91.2704C93.0979 58.5605 94.5847 60.0491 94.5847 61.8789Z" fill="white"/>
<path d="M94.5847 61.8789V82.5701C94.5847 84.3999 93.0979 85.8885 91.2704 85.8885H40.1912C38.3637 85.8885 36.877 84.3999 36.877 82.5701V61.8789C36.877 60.0491 38.3637 58.5605 40.1912 58.5605H91.2704C93.0979 58.5605 94.5847 60.0491 94.5847 61.8789ZM91.2704 85.4981C92.8855 85.4981 94.1948 84.1872 94.1948 82.5701V72.1384C94.1948 64.8552 88.2978 58.9509 81.0235 58.9509H40.1912C38.5762 58.9509 37.2669 60.2618 37.2669 61.8789V82.5701C37.2669 84.1872 38.5762 85.4981 40.1912 85.4981H91.2704Z" fill="#3F3D56"/>
<path d="M59.8058 71.0605H53.1342C52.966 71.0605 52.8291 71.1975 52.8291 71.3659C52.8291 71.5343 52.966 71.6714 53.1342 71.6714H59.8058C59.974 71.6714 60.1108 71.5343 60.1108 71.3659C60.1108 71.1975 59.974 71.0605 59.8058 71.0605Z" fill="#63388B"/>
<path d="M69.9435 71.0604H63.2718C63.1037 71.0604 62.9668 71.1974 62.9668 71.3658C62.9668 71.5342 63.1037 71.6712 63.2718 71.6712H69.9435C70.1117 71.6712 70.2484 71.5342 70.2484 71.3658C70.2484 71.1974 70.1117 71.0604 69.9435 71.0604Z" fill="#63388B"/>
<path d="M59.8058 74.3984H53.1342C52.966 74.3984 52.8291 74.5354 52.8291 74.7038C52.8291 74.8722 52.966 75.0092 53.1342 75.0092H59.8058C59.974 75.0092 60.1108 74.8722 60.1108 74.7038C60.1108 74.5354 59.974 74.3984 59.8058 74.3984Z" fill="#63388B"/>
<path d="M69.9435 74.3984H63.2718C63.1037 74.3984 62.9668 74.5354 62.9668 74.7038C62.9668 74.8722 63.1037 75.0092 63.2718 75.0092H69.9435C70.1117 75.0092 70.2484 74.8722 70.2484 74.7038C70.2484 74.5354 70.1117 74.3984 69.9435 74.3984Z" fill="#63388B"/>
<path d="M80.3861 74.7038C80.3861 74.5354 80.2493 74.3984 80.0811 74.3984H73.4095C73.2414 74.3984 73.1045 74.5354 73.1045 74.7038C73.1045 74.8722 73.2414 75.0092 73.4095 75.0092H80.0811C80.2493 75.0092 80.3861 74.8722 80.3861 74.7038Z" fill="#63388B"/>
<path d="M55.9073 68.394C56.0755 68.394 56.2123 68.257 56.2123 68.0886C56.2123 67.9202 56.0755 67.7832 55.9073 67.7832H49.2357C49.0675 67.7832 48.9307 67.9202 48.9307 68.0886C48.9307 68.257 49.0675 68.394 49.2357 68.394H55.9073Z" fill="#63388B"/>
<path d="M75.5551 68.269H82.2267C82.3949 68.269 82.5316 68.132 82.5316 67.9636C82.5316 67.7952 82.3949 67.6582 82.2267 67.6582H75.5551C75.3869 67.6582 75.25 67.7952 75.25 67.9636C75.25 68.132 75.3869 68.269 75.5551 68.269Z" fill="#63388B"/>
<path d="M58.7181 68.3335H72.5498C72.718 68.3335 72.8548 68.1964 72.8548 68.028C72.8548 67.8596 72.718 67.7227 72.5498 67.7227H58.7181C58.55 67.7227 58.4131 67.8596 58.4131 68.028C58.4131 68.1964 58.55 68.3335 58.7181 68.3335Z" fill="#63388B"/>
<path d="M64.1593 77.4336H57.4877C57.3195 77.4336 57.1826 77.5706 57.1826 77.739C57.1826 77.9074 57.3195 78.0444 57.4877 78.0444H64.1593C64.3275 78.0444 64.4643 77.9074 64.4643 77.739C64.4643 77.5706 64.3275 77.4336 64.1593 77.4336Z" fill="#63388B"/>
<path d="M85.7063 61.7227V82.4138C85.7063 84.2437 84.2196 85.7322 82.392 85.7322H61.7264C59.8989 85.7322 58.4121 84.2437 58.4121 82.4138V61.7227C58.4121 59.8929 59.8989 58.4043 61.7264 58.4043H82.392C84.2196 58.4043 85.7063 59.8929 85.7063 61.7227Z" fill="white"/>
<path d="M85.7063 61.7227V82.4138C85.7063 84.2437 84.2196 85.7322 82.392 85.7322H61.7264C59.8989 85.7322 58.4121 84.2437 58.4121 82.4138V61.7227C58.4121 59.8929 59.8989 58.4043 61.7264 58.4043H82.392C84.2196 58.4043 85.7063 59.8929 85.7063 61.7227ZM81.11 85.3418C83.4331 85.3418 85.3164 83.4562 85.3164 81.1302V71.9822C85.3164 64.6989 79.4194 58.7947 72.1452 58.7947H61.7264C60.1113 58.7947 58.802 60.1056 58.802 61.7227V79.527C58.802 82.7384 61.4022 85.3418 64.6097 85.3418L81.11 85.3418Z" fill="#3F3D56"/>
<path d="M74.8106 66.8549H68.139C67.9708 66.8549 67.834 66.7179 67.834 66.5495C67.834 66.3811 67.9708 66.2441 68.139 66.2441H74.8106C74.9788 66.2441 75.1156 66.3811 75.1156 66.5495C75.1156 66.7179 74.9788 66.8549 74.8106 66.8549Z" fill="#63388B"/>
<path d="M74.8106 73.3686H68.139C67.9708 73.3686 67.834 73.2316 67.834 73.0632C67.834 72.8948 67.9708 72.7578 68.139 72.7578H74.8106C74.9788 72.7578 75.1156 72.8948 75.1156 73.0632C75.1156 73.2316 74.9788 73.3686 74.8106 73.3686Z" fill="#63388B"/>
<path d="M71.4962 82.3471H64.8246C64.6564 82.3471 64.5195 82.2101 64.5195 82.0417C64.5195 81.8733 64.6564 81.7363 64.8246 81.7363H71.4962C71.6644 81.7363 71.8012 81.8733 71.8012 82.0417C71.8012 82.2101 71.6644 82.3471 71.4962 82.3471Z" fill="#63388B"/>
<path d="M78.3897 70.1128H64.558C64.3898 70.1128 64.2529 69.9757 64.2529 69.8073C64.2529 69.6389 64.3898 69.502 64.558 69.502H78.3897C78.5579 69.502 78.6947 69.6389 78.6947 69.8073C78.6947 69.9757 78.5579 70.1128 78.3897 70.1128Z" fill="#63388B"/>
<path d="M81.8177 50.2579C81.8177 43.8032 76.3689 40.2524 70.1448 38.5707C62.165 36.4145 56.3207 40.7776 58.472 50.2579C58.9596 52.4065 60.1257 54.916 61.5692 57.0626H73.0238C76.8501 54.5685 81.8177 55.268 81.8177 50.2579Z" fill="#63388B"/>
<path d="M69.9736 62.4607C70.6252 61.217 71.4512 60.3197 72.3615 59.6367H61.6328C64.3941 63.5859 68.0561 66.1206 69.9736 62.4607Z" fill="#63388B"/>
<path d="M68.7359 43.347C69.4247 43.347 69.9831 43.906 69.9831 44.5956V47.0929H67.4888V44.5956C67.4888 43.906 68.0472 43.347 68.7359 43.347ZM70.6066 47.0929V44.5956C70.6066 43.5612 69.7691 42.7227 68.7359 42.7227C67.7028 42.7227 66.8653 43.5612 66.8653 44.5956V47.0929C66.1765 47.0929 65.6182 47.652 65.6182 48.3416V51.4632C65.6182 52.1528 66.1765 52.7119 66.8653 52.7119H70.6066C71.2954 52.7119 71.8537 52.1528 71.8537 51.4632V48.3416C71.8537 47.652 71.2954 47.0929 70.6066 47.0929ZM66.8653 47.7173H70.6066C70.951 47.7173 71.2302 47.9968 71.2302 48.3416V51.4632C71.2302 51.808 70.951 52.0875 70.6066 52.0875H66.8653C66.5209 52.0875 66.2417 51.808 66.2417 51.4632V48.3416C66.2417 47.9968 66.5209 47.7173 66.8653 47.7173Z" fill="white"/>
<path d="M50.9134 57.8859C50.763 59.143 51.2888 60.2397 52.0878 60.3355C52.8868 60.4313 53.6564 59.4899 53.8067 58.2328C53.8726 57.6826 53.8088 57.163 53.6493 56.7447L54.2197 51.41L51.7136 51.1953L51.4173 56.4771C51.1637 56.8458 50.9792 57.3356 50.9134 57.8859Z" fill="#FFB6B6"/>
<path d="M51.5148 26.0596C51.5148 26.0596 54.2443 25.2788 54.8291 26.45C55.414 27.6212 56.7787 43.042 56.7787 43.042L54.1468 55.3511L51.1249 54.5588L52.6846 42.066L50.54 32.6964L51.5148 26.0596Z" fill="#E6E6E6"/>
<path d="M11.4051 63.5064C17.7039 63.5064 22.8101 58.3938 22.8101 52.0872C22.8101 45.7806 17.7039 40.668 11.4051 40.668C5.10623 40.668 0 45.7806 0 52.0872C0 58.3938 5.10623 63.5064 11.4051 63.5064Z" fill="#63388B"/>
<path d="M11.4048 46.9745C12.2105 46.9745 12.8636 47.6284 12.8636 48.4351V51.3563H9.946V48.4351C9.946 47.6284 10.5991 46.9745 11.4048 46.9745ZM13.593 51.3563V48.4351C13.593 47.2251 12.6133 46.2442 11.4048 46.2442C10.1963 46.2442 9.2166 47.2251 9.2166 48.4351V51.3563C8.41093 51.3563 7.75781 52.0102 7.75781 52.8169V56.4684C7.75781 57.275 8.41094 57.9289 9.2166 57.9289H13.593C14.3986 57.9289 15.0518 57.275 15.0518 56.4684V52.8169C15.0518 52.0102 14.3986 51.3563 13.593 51.3563ZM9.21661 52.0866H13.593C13.9958 52.0866 14.3224 52.4135 14.3224 52.8169V56.4683C14.3224 56.8717 13.9958 57.1986 13.593 57.1986H9.21661C8.81377 57.1986 8.48721 56.8717 8.48721 56.4683V52.8169C8.48721 52.4135 8.81377 52.0866 9.21661 52.0866Z" fill="white"/>
</svg>
