<svg width="144" height="100" viewBox="0 0 144 100" fill="none" xmlns="http://www.w3.org/2000/svg">
<path d="M54.2675 19.5228C53.1708 15.5201 62.0162 12.0877 64.339 15.3111C64.662 14.8528 65.8556 14.5744 66.4033 14.715C66.951 14.8556 67.4116 15.207 67.8609 15.5473C68.4788 16.0224 69.1192 16.5144 69.4983 17.1976C69.8803 17.878 69.9393 18.8059 69.4253 19.3963C69.0181 19.8658 67.816 20.1695 67.2037 20.2932C66.7768 20.3804 66.4173 20.4507 66.1084 20.5013C65.8331 20.0992 65.6927 19.6015 65.7433 19.1151C65.3276 19.3907 65.0468 19.863 65.0018 20.3635C64.9934 20.4675 68.4535 33.2124 68.4535 33.2124C68.0969 33.4233 67.6559 33.6201 67.1476 33.8C66.2853 32.4983 65.5776 30.9632 65.1113 29.3577C65.0046 30.3502 65.0215 31.4271 65.1507 32.5208C65.2181 33.1028 65.3192 33.6876 65.4484 34.2724C61.3366 35.1609 55.1522 34.8685 52.4616 31.0897C52.4611 31.0741 52.4606 31.0584 52.4602 31.0427C52.441 30.3357 51.4773 30.16 51.2194 30.8185C51.1541 30.9852 51.0941 31.1295 51.0404 31.2443C50.2569 28.4383 51.2707 25.191 54.2675 19.5228Z" fill="#2F2E41"/>
<path d="M110.157 51.265C109.184 52.4201 107.46 52.567 106.306 51.5931C106.194 51.4988 106.09 51.3956 105.995 51.2846L93.0099 55.4017L90.9893 52.0862L106.447 47.3091C107.66 46.4134 109.369 46.6714 110.264 47.8855C111.012 48.9014 110.968 50.2985 110.157 51.265Z" fill="#FFB6B6"/>
<path d="M64.1719 40.9772C64.1719 40.9772 69.9222 34.5024 72.4271 37.2528C74.9319 40.0032 82.7467 52.0558 82.7467 52.0558L100.989 48.2029L102.753 53.0223L82.0398 59.7417C80.4827 60.2469 78.7762 59.723 77.7695 58.4309L64.1719 40.9772Z" fill="#63388B"/>
<path d="M76.6609 100.001H48.1396L48.1136 99.7778L48.0969 99.6292L47.852 97.5487L47.505 94.586L47.3714 93.4473C47.3621 93.3898 47.3528 93.334 47.3454 93.2765C47.2285 92.5353 47.1617 91.7904 47.1376 91.0474C47.1023 90.0258 47.1487 89.006 47.2582 87.9992V87.9937C47.3176 87.4494 47.3937 86.9107 47.4883 86.3776C47.607 85.6922 47.7499 85.0179 47.9151 84.3585C48.1043 83.5932 48.3196 82.8483 48.5552 82.1295C48.8261 81.288 49.123 80.4819 49.4292 79.7203C49.4626 79.6385 49.496 79.5568 49.5275 79.4769L49.5294 79.4751C51.1437 75.5353 52.9769 72.8438 52.9769 72.8438H73.7551C73.7551 72.8438 74.7163 77.0659 75.1931 80.5525C75.2692 81.1041 75.3323 81.6354 75.3787 82.1295C75.4622 83.0415 75.4863 83.8254 75.414 84.3585C75.3694 84.6891 75.2878 84.9232 75.1616 85.0309C74.0186 86.008 75.3267 88.081 75.3267 88.081C75.3267 88.081 76.3065 89.58 75.4529 90.4233C75.2841 90.5905 75.1876 90.806 75.1412 91.0474C75.067 91.4468 75.1319 91.9112 75.234 92.3217C75.336 92.7341 75.477 93.0926 75.555 93.2765C75.5902 93.3582 75.6125 93.4046 75.6125 93.4046L75.7572 94.5507L75.8982 95.6541L76.1376 97.5487L76.21 97.8831L76.5829 99.6292L76.6145 99.7778L76.6609 100.001Z" fill="#2F2E41"/>
<path d="M62.2553 32.1191L53.5347 32.8967L51.9274 37.9037L50.1758 38.1576C47.1827 38.5914 45.4013 41.7341 46.5643 44.5289L48.1055 48.2326C48.1055 48.2326 45.8417 55.2276 48.622 58.1667L49.8052 71.1115L47.1362 79.645L78.3337 80.6532L73.0197 69.9492L72.8621 63.303C72.8621 63.303 76.2578 51.2901 73.1096 47.469L71.8812 36.6008L65.4816 35.6398L62.2553 32.1191Z" fill="#63388B"/>
<path d="M68.1581 25.6951C69.0568 21.815 66.6432 17.9403 62.7673 17.0408C58.8914 16.1412 55.0208 18.5573 54.1222 22.4374C53.2236 26.3175 55.6372 30.1922 59.5131 31.0917C63.389 31.9913 67.2595 29.5752 68.1581 25.6951Z" fill="#FFB6B6"/>
<path d="M50.3349 20.0853C49.2382 16.0826 58.0836 12.6502 60.4064 15.8736C60.7294 15.4153 61.923 15.1369 62.4707 15.2775C63.0184 15.4181 63.4789 15.7695 63.9283 16.1098C64.5462 16.5849 65.1866 17.0769 65.5657 17.7601C65.9477 18.4405 66.0067 19.3684 65.4927 19.9588C65.0855 20.4283 63.8834 20.732 63.2711 20.8557C62.8442 20.9429 62.4847 21.0132 62.1758 21.0638C61.9005 20.6617 61.7601 20.164 61.8107 19.6776C61.395 19.9532 61.1141 20.4255 61.0692 20.926C61.0608 21.03 64.5209 33.7749 64.5209 33.7749C64.1642 33.9858 63.7233 34.1826 63.2149 34.3625C62.3527 33.0608 61.645 31.5257 61.1787 29.9202C61.072 30.9127 61.0889 31.9896 61.2181 33.0833C61.2855 33.6653 61.3866 34.2501 61.5158 34.8349C57.404 35.7234 51.2196 35.431 48.529 31.6522C48.5285 31.6366 48.528 31.6209 48.5276 31.6052C48.5083 30.8982 47.5447 30.7225 47.2868 31.381C47.2215 31.5477 47.1614 31.692 47.1078 31.8068C46.3242 29.0008 47.3381 25.7535 50.3349 20.0853Z" fill="#2F2E41"/>
<path d="M111.918 99.7773H15.0591L0.0292969 99.9631L105.435 93.6635C108.951 93.4533 111.918 96.2512 111.918 99.7773Z" fill="#3F3D56"/>
<path d="M135.639 99.628V99.9995H0V0H0.371105V99.628H135.639Z" fill="#3F3D56"/>
<path d="M121.126 23.1279H96.4378C95.8685 23.1279 95.4053 22.6659 95.4053 22.098C95.4053 21.5302 95.8685 21.0684 96.4378 21.0684H121.126C121.695 21.0684 122.158 21.5302 122.158 22.098C122.158 22.6659 121.695 23.1279 121.126 23.1279Z" fill="#63388B"/>
<path d="M108.771 26.45C108.679 26.2224 108.36 26.2224 108.268 26.4501C107.625 28.0386 106.708 29.8176 105.711 31.1771C105.552 31.3948 105.772 31.6856 106.025 31.5938L108.162 30.82V44.0611H108.877V30.8199L111.015 31.5939C111.268 31.6857 111.488 31.3949 111.329 31.1772C110.332 29.8177 109.416 28.0386 108.771 26.45Z" fill="#3F3D56"/>
<path d="M143.362 30.6975H128.141C127.79 30.6975 127.505 30.4126 127.505 30.0626C127.505 29.7125 127.79 29.4277 128.141 29.4277H143.362C143.713 29.4277 143.999 29.7125 143.999 30.0626C143.999 30.4126 143.713 30.6975 143.362 30.6975Z" fill="#F2F2F2"/>
<path d="M135.747 32.7478C135.69 32.6075 135.494 32.6075 135.437 32.7479C135.04 33.7273 134.475 34.824 133.861 35.6622C133.762 35.7964 133.898 35.9757 134.054 35.9191L135.371 35.442V43.6055H135.812V35.442L137.13 35.9192C137.287 35.9758 137.422 35.7965 137.324 35.6623C136.709 34.8241 136.144 33.7272 135.747 32.7478Z" fill="#F2F2F2"/>
<path d="M135.755 51.4811C137.581 51.4811 139.062 49.9987 139.062 48.1701C139.062 46.3415 137.581 44.8592 135.755 44.8592C133.928 44.8592 132.447 46.3415 132.447 48.1701C132.447 49.9987 133.928 51.4811 135.755 51.4811Z" fill="#F2F2F2"/>
<path d="M94.5635 11.9377H79.3427C78.9917 11.9377 78.7061 11.6529 78.7061 11.3028C78.7061 10.9527 78.9917 10.668 79.3427 10.668H94.5635C94.9145 10.668 95.2 10.9527 95.2 11.3028C95.2 11.6529 94.9145 11.9377 94.5635 11.9377Z" fill="#F2F2F2"/>
<path d="M86.9464 13.9881C86.8894 13.8477 86.693 13.8477 86.6361 13.9881C86.2393 14.9675 85.6743 16.0643 85.0597 16.9025C84.9613 17.0367 85.097 17.216 85.2533 17.1593L86.5707 16.6822V24.8458H87.0117V16.6822L88.3295 17.1594C88.4858 17.216 88.6215 17.0367 88.5231 16.9025C87.9085 16.0643 87.3435 14.9675 86.9464 13.9881Z" fill="#F2F2F2"/>
<path d="M86.9549 32.7216C88.7815 32.7216 90.2623 31.2392 90.2623 29.4106C90.2623 27.582 88.7815 26.0996 86.9549 26.0996C85.1282 26.0996 83.6475 27.582 83.6475 29.4106C83.6475 31.2392 85.1282 32.7216 86.9549 32.7216Z" fill="#F2F2F2"/>
<path d="M48.6093 93.5629C49.3898 92.2697 48.9753 90.588 47.6835 89.8067C47.5583 89.731 47.4273 89.6655 47.2917 89.6108L47.0178 75.9782L43.2324 75.127L43.676 91.3162C43.218 92.7536 44.0106 94.2906 45.4465 94.7491C46.6479 95.1328 47.9555 94.6424 48.6093 93.5629Z" fill="#FFB6B6"/>
<path d="M51.2424 39.7785C51.2424 39.7785 46.6036 38.664 45.1192 41.8217C43.6348 44.9795 43.5085 58.7208 43.5085 58.7208L42.707 86.5879L48.5912 86.3283L53.2835 52.0381L51.2424 39.7785Z" fill="#63388B"/>
<path d="M49.1588 97.6789C49.2632 97.81 49.4218 97.886 49.5893 97.8851H79.7119C80.018 97.8847 80.2659 97.636 80.2655 97.3296C80.2655 97.2915 80.2615 97.2536 80.2537 97.2164L79.7861 94.993C79.7467 94.8087 79.6168 94.657 79.441 94.5899C79.3783 94.5653 79.3116 94.5527 79.2443 94.5527H50.055C49.9877 94.5527 49.921 94.5653 49.8583 94.5899C49.6825 94.657 49.5526 94.8087 49.5132 94.993L49.0456 97.2164C49.0119 97.3798 49.0535 97.5496 49.1588 97.6789Z" fill="#CCCCCC"/>
<path d="M37.627 47.9043V82.6882C37.6277 83.6112 38.3749 84.3592 39.2969 84.3599H90.7878C91.7098 84.3592 92.457 83.6112 92.4577 82.6882V47.9043C92.4555 46.9822 91.7089 46.2355 90.7878 46.2344H39.2969C38.3758 46.2356 37.6292 46.9822 37.627 47.9043Z" fill="#E6E6E6"/>
<path d="M71.4817 76.9223C71.4204 76.9019 71.3555 76.8926 71.2905 76.8926H59.2445C58.89 76.8926 58.6006 77.1805 58.6006 77.5353V96.586H71.9325V77.5353C71.9325 77.2548 71.7507 77.0059 71.4817 76.9223ZM66.6499 86.2916C66.6462 87.0792 66.006 87.7145 65.2193 87.7108C64.4381 87.7052 63.8072 87.0736 63.8035 86.2916V84.0812C63.8109 83.2955 64.4548 82.6639 65.2397 82.6713C66.0153 82.6788 66.6424 83.3066 66.6499 84.0812V86.2916Z" fill="#CCCCCC"/>
</svg>
