<svg width="100" height="18" viewBox="0 0 100 18" fill="none" xmlns="http://www.w3.org/2000/svg">
<path d="M27.6219 0C23.0218 0 19.2883 3.94115 19.2883 8.76228V9.2127C19.2883 14.7261 22.8135 17.7122 27.5136 17.9708C27.7261 18 27.9636 18 28.1803 18C29.9928 18 31.4887 17.5204 33.1596 16.4944C33.3263 16.3985 33.9971 15.9439 34.6638 15.0848C35.2138 14.3925 35.2388 13.3707 34.6638 12.8202C33.8304 12.032 32.9471 12.4615 32.1846 13.1288C30.9679 14.1548 30.0345 14.9722 27.6011 14.9722C25.3094 14.9722 23.1676 13.6543 22.6426 11.0519C22.6426 10.956 22.6843 10.8642 22.7843 10.8642H33.9971C34.2661 10.8631 34.532 10.8069 34.7785 10.699C35.025 10.5911 35.2468 10.4339 35.4303 10.237C35.6137 10.04 35.755 9.80762 35.8453 9.554C35.9356 9.30039 35.9731 9.03095 35.9555 8.76228C35.9555 3.94115 32.2304 0.00417221 27.6261 0.00417221L27.6219 0ZM46.2308 0C41.6473 0 37.9139 3.94115 37.9139 8.76228V9.2127C37.9139 14.7261 41.439 17.7122 46.1391 17.9708C46.3558 18 46.5975 18 46.8058 18C48.6184 18 50.1184 17.5204 51.7893 16.4944C51.956 16.3985 52.6227 15.9439 53.2935 15.0848C53.8435 14.3925 53.8644 13.3707 53.2935 12.8202C52.4602 12.032 51.5726 12.4615 50.8101 13.1288C49.5934 14.1548 48.6642 14.9722 46.2266 14.9722C43.9391 14.9722 41.7973 13.6543 41.2723 11.0519C41.2473 10.956 41.314 10.8642 41.389 10.8642H52.6018C52.8708 10.8631 53.1368 10.8069 53.3832 10.699C53.6297 10.5911 53.8515 10.4339 54.035 10.237C54.2184 10.04 54.3597 9.80762 54.45 9.554C54.5403 9.30039 54.5779 9.03095 54.5602 8.76228C54.5311 3.94115 50.8101 0.00417221 46.2308 0.00417221V0ZM17.5216 0.166821C17.2211 0.177991 16.9292 0.270337 16.6769 0.434069C16.4245 0.597802 16.2211 0.826817 16.0883 1.09685L10.1714 13.8712C10.0297 14.1339 9.91307 14.3299 9.60473 14.3299C9.29639 14.3299 9.16722 14.1339 9.02138 13.8712L3.10454 1.12187C3.01484 0.922169 2.88478 0.743236 2.72254 0.596356C2.56031 0.449476 2.36942 0.337838 2.16193 0.268481C1.95444 0.199124 1.73484 0.173553 1.51698 0.193382C1.29912 0.21321 1.08773 0.278008 0.89614 0.383689C0.503902 0.610257 0.211934 0.977084 0.0789688 1.41038C-0.0539966 1.84368 -0.018095 2.31131 0.179452 2.71919L5.97129 14.5134L6.63797 15.848C6.9033 16.4138 7.32209 16.8937 7.84662 17.2328C8.37115 17.572 8.98032 17.7569 9.60473 17.7665C10.2281 17.7595 10.8367 17.5755 11.3597 17.2359C11.8827 16.8963 12.2986 16.415 12.559 15.848L13.2257 14.5134L18.9967 2.69416C19.2035 2.29052 19.247 1.82266 19.1182 1.38774C18.9894 0.952828 18.6982 0.584286 18.305 0.358667C18.0631 0.232947 17.7941 0.168508 17.5216 0.170993V0.166821ZM64.8647 0.166821C64.0926 0.163186 63.3457 0.442017 62.7646 0.950879C62.3998 1.25999 62.1056 1.64402 61.9021 2.07692L55.2769 15.1599C55.2769 15.1807 55.2477 15.1849 55.2477 15.2016V15.2308C55.0995 15.5205 55.0328 15.8451 55.0548 16.1698C55.0768 16.4945 55.1867 16.8072 55.3727 17.0741C55.3727 17.095 55.3936 17.0992 55.3936 17.1158C55.3936 17.145 55.4186 17.1367 55.4186 17.1576C55.6619 17.4845 56.0246 17.7018 56.4274 17.762C56.8303 17.8221 57.2406 17.7203 57.5686 17.4787C57.5686 17.4787 57.5895 17.4787 57.5895 17.4537C57.6261 17.4351 57.6598 17.4112 57.6895 17.3828L57.752 17.3077L57.777 17.2827C57.9005 17.1537 58.0069 17.0093 58.0937 16.8531L58.3312 16.3318L59.7145 13.4124C59.7395 13.3415 59.8312 13.2998 59.902 13.2998H66.0856C66.8981 13.2998 67.5606 12.6033 67.5606 11.7192C67.5606 10.8601 66.8981 10.1469 66.0856 10.1469H61.5063C61.4836 10.1467 61.4614 10.1409 61.4415 10.13C61.4217 10.1191 61.4048 10.1034 61.3925 10.0845C61.3801 10.0655 61.3726 10.0437 61.3706 10.0212C61.3687 9.99858 61.3723 9.97588 61.3813 9.95505L61.7146 9.23772L64.223 4.20389V4.17887C64.223 4.17887 64.223 4.15385 64.248 4.15385C64.2938 4.05793 64.4147 3.70343 64.6563 3.63253C64.798 3.58249 64.9175 3.58249 65.0147 3.63253C65.2772 3.70343 65.3647 4.01205 65.4855 4.24977L71.5482 16.8531C71.7264 17.2084 72.0275 17.4867 72.3954 17.6363C72.7633 17.7859 73.1731 17.7966 73.5483 17.6664C73.5483 17.6664 73.5733 17.6664 73.5733 17.6413L73.7191 17.5704C73.7441 17.5704 73.7483 17.5454 73.7691 17.5454C73.7691 17.5454 73.7941 17.5454 73.7941 17.5204C73.8191 17.5204 73.8191 17.4954 73.8441 17.4954C73.8691 17.4954 73.8858 17.4787 73.8858 17.4537C73.9108 17.4537 73.9108 17.4286 73.9316 17.4286C73.9566 17.4008 73.9816 17.3842 74.0066 17.3786L74.0775 17.3077L74.1025 17.2827C74.3895 17.0295 74.5833 16.6871 74.6528 16.3105C74.7223 15.9339 74.6635 15.5449 74.4858 15.2057L67.8273 2.0519C67.5609 1.49274 67.1425 1.02006 66.6199 0.688109C66.0974 0.356156 65.4919 0.178374 64.873 0.175161L64.8647 0.166821ZM79.4818 0.166821C77.8567 0.166821 76.5275 1.55144 76.5275 3.41149V15.9981C76.5275 16.7614 76.9609 17.4745 77.6276 17.6914C78.7234 18.05 79.6526 17.095 79.6526 15.9731L79.4109 3.72011C79.4135 3.69615 79.423 3.67345 79.4381 3.65472C79.4533 3.636 79.4735 3.62206 79.4964 3.61457C79.5193 3.60709 79.5438 3.60637 79.5671 3.61251C79.5904 3.61866 79.6114 3.6314 79.6276 3.64921L85.6361 15.8689C86.207 17.0366 87.1653 17.7414 88.2404 17.7414C89.3112 17.7414 90.2821 17.0449 90.8363 15.873L96.874 3.63253C96.9156 3.51159 97.0823 3.55329 97.0823 3.69926L96.849 16.0232C96.849 16.9991 97.5865 17.7873 98.4698 17.7414C99.3282 17.7164 99.9991 16.8781 99.9991 15.9481V3.41149C100.041 1.52641 98.7073 0.200187 97.0823 0.170993C96.5468 0.17647 96.0238 0.333734 95.5739 0.624559C95.1241 0.915385 94.7658 1.32786 94.5406 1.81418C93.0363 4.8962 88.5987 14.0338 88.5987 14.0589C88.5737 14.1006 88.4737 14.3258 88.2862 14.3258C88.1195 14.3258 88.0029 14.1298 87.9779 14.0589C86.5195 11.0269 83.6152 5.03383 82.111 1.93096C81.5152 0.734014 80.5276 0.170993 79.4859 0.170993L79.4818 0.166821ZM27.6053 2.86515C30.5095 2.86515 32.3554 5.06302 32.6387 7.64041C32.6387 7.73633 32.5887 7.82808 32.4929 7.82808H22.7884C22.694 7.80028 22.6482 7.73772 22.6509 7.64041C22.9593 5.1089 24.6885 2.86515 27.6053 2.86515ZM46.2308 2.86515H46.2391C49.1434 2.86932 50.9809 5.06302 51.2685 7.64041C51.2685 7.73633 51.2143 7.82808 51.1226 7.82808H41.414C41.3182 7.80306 41.2473 7.73633 41.2723 7.64041C41.5848 5.11307 43.3266 2.86932 46.2308 2.86515Z" fill="#4D7744"/>
</svg>
