<svg width="54" height="45" viewBox="0 0 54 45" fill="none" xmlns="http://www.w3.org/2000/svg">
<path d="M45.6354 11.6843C44.9885 6.80799 40.7501 3.00987 35.698 3.00987C33.7536 3.00987 31.8817 3.56799 30.2835 4.60631C27.5328 1.69792 23.6513 0 19.6067 0C11.4632 0 4.83826 6.61591 4.83826 14.7503C4.83826 15.4027 4.8745 16.0115 4.94517 16.5842C1.86826 18.7532 0 22.3121 0 26.132C0 32.5957 5.25141 37.858 11.706 37.858H12.5034C13.404 37.858 14.1342 37.1277 14.1342 36.2271C14.1342 35.3265 13.404 34.5962 12.5034 34.5962H11.706C7.05081 34.5962 3.26175 30.7999 3.26175 26.1338C3.26175 23.095 4.90168 20.2862 7.54007 18.804C8.17248 18.4488 8.49322 17.7167 8.33013 17.0118C8.1743 16.3504 8.1 15.6111 8.1 14.7521C8.1 8.41711 13.2626 3.26356 19.6067 3.26356C23.1856 3.26356 26.5977 4.97054 28.7396 7.83C29.0168 8.19966 29.4391 8.43524 29.8993 8.47691C30.3632 8.5204 30.8162 8.36275 31.1551 8.04926C32.3909 6.90403 34.0037 6.27342 35.6998 6.27342C39.3693 6.27342 42.4009 9.23617 42.4589 12.8785C42.4697 13.5761 42.9228 14.1886 43.586 14.4042C47.8643 15.7923 50.7401 19.7426 50.7401 24.233C50.7401 29.6058 46.7082 34.0417 41.3607 34.5509C40.4638 34.6361 39.8078 35.4316 39.8911 36.3268C39.9763 37.2238 40.7628 37.8906 41.6688 37.7964C48.6979 37.1277 54 31.2946 54 24.233C54 18.6952 50.6803 13.7845 45.6354 11.6843Z" fill="url(#paint0_linear_2482_9849)"/>
<path d="M36.2542 24.4328L28.6181 20.5948C27.6015 20.0856 26.391 20.0856 25.3726 20.5948L17.7365 24.4328C16.4971 25.0561 15.7179 26.3572 15.7469 27.7434C15.8266 31.3712 16.8867 40.1888 24.9812 43.7061C25.6209 43.9833 26.3077 44.1228 26.9945 44.1228C27.6812 44.1228 28.368 43.9833 29.0059 43.7061C37.1004 40.1906 38.1605 31.3712 38.242 27.7434C38.2747 26.3554 37.4937 25.0543 36.2542 24.4328ZM27.7084 40.7143C27.2554 40.9082 26.7371 40.9082 26.2841 40.7143C19.9165 37.9491 19.0757 30.6718 19.0104 27.6728C19.0068 27.5332 19.0829 27.4082 19.2043 27.3448L26.8386 23.5086C26.8875 23.4832 26.9437 23.4706 26.9963 23.4706C27.0488 23.4706 27.105 23.4832 27.1539 23.5086L34.7882 27.3448C34.9114 27.4064 34.9857 27.5332 34.9821 27.6728C34.9169 30.6718 34.0761 37.9491 27.7084 40.7143Z" fill="url(#paint1_linear_2482_9849)"/>
<defs>
<linearGradient id="paint0_linear_2482_9849" x1="27" y1="0" x2="27" y2="37.858" gradientUnits="userSpaceOnUse">
<stop stop-color="#63388B"/>
<stop offset="1" stop-color="#327EB2"/>
</linearGradient>
<linearGradient id="paint1_linear_2482_9849" x1="26.9946" y1="20.2129" x2="26.9946" y2="44.1228" gradientUnits="userSpaceOnUse">
<stop stop-color="#63388B"/>
<stop offset="1" stop-color="#327EB2"/>
</linearGradient>
</defs>
</svg>
