<svg width="52" height="54" viewBox="0 0 52 54" fill="none" xmlns="http://www.w3.org/2000/svg">
<mask id="path-1-outside-1_2482_9848" maskUnits="userSpaceOnUse" x="0" y="0" width="52" height="54" fill="black">
<rect fill="white" width="52" height="54"/>
<path d="M46.2382 25.5751L43.2991 24.8337V24.8316C42.966 23.5743 42.4663 22.3678 41.8143 21.2446L43.3682 18.6407C43.5164 18.3908 43.5002 18.076 43.3235 17.8465C42.3363 16.5445 41.1765 15.3827 39.8745 14.3955C39.643 14.2188 39.3282 14.2026 39.0784 14.3509L36.4785 15.9067C35.3532 15.2527 34.1467 14.753 32.8894 14.4199L32.15 11.4788V11.4808C32.079 11.1985 31.8454 10.9893 31.557 10.9487C29.9381 10.7273 28.2969 10.7273 26.6781 10.9487C26.3897 10.9893 26.1561 11.1985 26.085 11.4788L25.3416 14.4199C24.0843 14.753 22.8778 15.2527 21.7546 15.9067L19.1547 14.3509C18.9048 14.2026 18.59 14.2188 18.3585 14.3955C17.0565 15.3827 15.8967 16.5425 14.9095 17.8465C14.7349 18.076 14.7166 18.3909 14.8649 18.6407L16.4207 21.2406C15.7687 22.3638 15.2691 23.5724 14.9359 24.8296L11.9948 25.571V25.573C11.7125 25.6421 11.5033 25.8777 11.4647 26.1641C11.2413 27.7829 11.2413 29.4261 11.4647 31.045C11.5033 31.3314 11.7125 31.567 11.9948 31.6381L14.9359 32.3795C14.9664 32.4932 14.9989 32.6049 15.0334 32.7187C14.5561 32.8812 14.0361 33.0782 13.4471 33.3036L8.57836 35.152L8.35087 34.3842C8.08885 33.4986 7.15856 32.9908 6.27095 33.2528L2.19847 34.4533C1.31289 34.7193 0.807108 35.6496 1.06913 36.5372L5.59253 51.7955H5.59456C5.80377 52.5064 6.45373 52.9959 7.19511 53C7.35557 53 7.51604 52.9756 7.67041 52.9289L11.7429 51.7244L11.7449 51.7265C12.6305 51.4604 13.1343 50.5281 12.8722 49.6425L12.4701 48.2856L13.3881 48.0866C15.5412 47.6235 17.0645 48.4563 18.8297 49.4231C20.3206 50.2396 21.9597 51.1395 24.0742 51.1395V51.1374C24.8968 51.1334 25.7154 51.0054 26.5035 50.7596C29.079 49.9797 32.3148 48.1739 36.4097 45.8868C38.7699 44.5686 41.4449 43.0757 44.4002 41.5564L44.4103 41.5503V41.5523C45.2492 41.1197 45.8829 40.3702 46.1673 39.4684C46.4537 38.5665 46.3664 37.5895 45.9297 36.7527C45.3183 35.4182 43.9635 34.5834 42.497 34.6382C42.826 33.9111 43.0941 33.1554 43.2993 32.3836L46.2384 31.6423C46.5187 31.5712 46.7299 31.3376 46.7685 31.0512C46.9939 29.4303 46.9939 27.7892 46.7685 26.1683C46.7299 25.8798 46.5205 25.6461 46.2382 25.5751ZM11.3387 50.3635L7.2642 51.568V51.566C7.20124 51.5843 7.13421 51.5782 7.07733 51.5457C7.0164 51.5132 6.97374 51.4604 6.95343 51.3954L2.43002 36.1329C2.41174 36.0679 2.41987 35.9989 2.45034 35.942C2.48283 35.8811 2.53768 35.8364 2.60267 35.816L6.67516 34.6116V34.6136C6.73812 34.5953 6.80515 34.6034 6.86405 34.6339C6.92296 34.6664 6.96764 34.7213 6.98593 34.7842L11.5093 50.0467C11.55 50.1827 11.4728 50.3229 11.3387 50.3635ZM44.6496 37.3682C44.9299 37.874 44.9929 38.4712 44.8223 39.0237C44.6517 39.5761 44.2617 40.0352 43.7438 40.2931C40.7701 41.8226 38.0848 43.3216 35.7147 44.6439C31.695 46.8883 28.5203 48.6616 26.091 49.3968C23.294 50.2438 21.4578 49.2404 19.5122 48.174C17.6658 47.1646 15.7586 46.1205 13.0894 46.6953L12.0657 46.9167L8.98436 36.5171L13.5078 34.8008L13.9485 34.6322C16.193 33.7751 17.2187 33.3851 18.7198 33.7486C20.3406 34.1427 22.5891 35.4041 27.0738 37.9207C28.0711 38.528 28.6682 39.6207 28.6418 40.7866C28.6499 41.721 28.1706 42.5903 27.3764 43.0819C26.7061 43.4617 25.8835 43.4454 25.2294 43.0412L19.27 39.6959C18.9287 39.5029 18.494 39.6248 18.3011 39.966C18.1081 40.3093 18.23 40.744 18.5712 40.937L24.5307 44.2823H24.5327C25.0893 44.6032 25.721 44.7738 26.3648 44.7799C26.9701 44.7799 27.5653 44.6195 28.0873 44.3168C29.1739 43.6648 29.893 42.5416 30.0311 41.2843L41.7629 36.2612C42.291 36.0093 42.8983 35.985 43.4427 36.1942C43.9891 36.4054 44.4242 36.828 44.6496 37.3682ZM23.2067 22.699C25.3171 20.5887 28.3923 19.764 31.2768 20.5379C34.1591 21.3098 36.4096 23.5603 37.1833 26.4444C37.9551 29.3266 37.1305 32.4018 35.02 34.5124C33.2123 36.3363 30.6632 37.2179 28.1163 36.901C28.0025 36.8218 27.8867 36.7467 27.7649 36.6796C25.6119 35.4731 23.9544 34.5428 22.6118 33.8482H22.6138C21.3078 32.2497 20.6477 30.2205 20.7573 28.1591C20.867 26.0975 21.7402 24.1514 23.2067 22.699ZM45.4197 30.3807L42.5375 31.1078C42.2775 31.1728 42.0784 31.378 42.0175 31.638C41.725 32.8912 41.2497 34.0957 40.6059 35.2108L29.9645 39.7626C29.8629 39.2772 29.6882 38.8121 29.4465 38.3794C31.9997 38.2941 34.4188 37.2115 36.186 35.3631C37.9511 33.5168 38.922 31.0509 38.8935 28.4957C38.8631 25.9405 37.8332 23.499 36.0255 21.6934C33.84 19.5078 30.7488 18.4861 27.6918 18.935C24.6349 19.3859 21.97 21.2566 20.5057 23.9784C19.0433 26.7002 18.9518 29.954 20.264 32.7531C19.0534 32.1945 17.6946 32.0462 16.3906 32.3265C16.3235 32.099 16.2626 31.8675 16.2078 31.6339C16.1468 31.3739 15.9478 31.1708 15.6878 31.1078L12.8055 30.3807L12.8076 30.3787C12.6796 29.2006 12.6796 28.0123 12.8076 26.8343L15.6898 26.1071L15.6878 26.1051C15.9478 26.0401 16.1468 25.837 16.2078 25.577C16.5348 24.1775 17.0893 22.839 17.8469 21.6162C17.987 21.3908 17.9911 21.1064 17.855 20.8769L16.3316 18.3298C16.7033 17.8687 17.0974 17.4279 17.5158 17.0075C17.9342 16.5891 18.377 16.193 18.8381 15.8213L21.3852 17.3447C21.6147 17.4808 21.899 17.4788 22.1245 17.3366C23.3473 16.579 24.6858 16.0245 26.0853 15.6995C26.3453 15.6385 26.5504 15.4375 26.6134 15.1795L27.3405 12.2993L27.3426 12.2972C28.5206 12.1713 29.7089 12.1713 30.889 12.2972L31.6141 15.1775L31.6121 15.1795C31.6771 15.4375 31.8822 15.6385 32.1402 15.6995C33.5417 16.0245 34.8802 16.579 36.1009 17.3366C36.3284 17.4788 36.6128 17.4808 36.8403 17.3447L39.3874 15.8213H39.3894C39.8505 16.193 40.2912 16.5871 40.7097 17.0055C41.1281 17.4239 41.5242 17.8667 41.8959 18.3278L40.3725 20.8748C40.2364 21.1044 40.2384 21.3908 40.3806 21.6162C41.1382 22.837 41.6927 24.1755 42.0177 25.577C42.0786 25.835 42.2797 26.0401 42.5377 26.1051L45.4199 26.8323C45.5499 28.0123 45.5497 29.2006 45.4197 30.3807ZM7.10556 16.2882C6.82728 16.012 6.82728 15.5611 7.10556 15.2828L9.76031 12.6301L9.75828 12.6321C9.89234 12.498 10.0731 12.4229 10.262 12.4229C10.4509 12.4229 10.6317 12.498 10.7657 12.6321L13.4185 15.2848L13.4164 15.2828C13.6947 15.5611 13.6947 16.012 13.4164 16.2902C13.1382 16.5665 12.6893 16.5665 12.411 16.2882L10.973 14.8502V23.2754C10.979 23.4663 10.9059 23.6532 10.7719 23.7893C10.6378 23.9274 10.453 24.0046 10.262 24.0046C10.0691 24.0046 9.88627 23.9274 9.75222 23.7893C9.61816 23.6532 9.54503 23.4663 9.55113 23.2754V14.846L8.11105 16.2881C7.83277 16.5664 7.38182 16.5665 7.10556 16.2882ZM51.1229 16.2882C50.8446 16.5665 50.3957 16.5665 50.1174 16.2882L48.6794 14.8481V23.2754C48.6834 23.4664 48.6124 23.6532 48.4783 23.7893C48.3442 23.9274 48.1594 24.0046 47.9685 24.0046C47.7755 24.0046 47.5927 23.9274 47.4586 23.7893C47.3246 23.6532 47.2515 23.4664 47.2576 23.2754V14.8461L45.8195 16.2882C45.5392 16.5543 45.0984 16.5482 44.8262 16.276C44.554 16.0038 44.548 15.563 44.8141 15.2827L47.4668 12.63L47.4648 12.632C47.5988 12.498 47.7796 12.4228 47.9685 12.4228C48.1574 12.4228 48.3382 12.498 48.4702 12.632L51.1229 15.2847V15.2827C51.4012 15.561 51.4011 16.012 51.1229 16.2882ZM33.0941 4.86687C32.8159 4.58859 32.8159 4.1377 33.0941 3.86143L35.7469 1.2087C35.8789 1.07465 36.0597 1.00152 36.2486 1.00152C36.4375 1.00152 36.6182 1.07464 36.7503 1.2087L39.403 3.86143C39.5431 3.99346 39.6224 4.17626 39.6244 4.3672C39.6264 4.56016 39.5513 4.74499 39.4152 4.87905C39.2811 5.01514 39.0963 5.0903 38.9033 5.08826C38.7124 5.08623 38.5296 5.00498 38.3976 4.86687L36.9636 3.42881V11.852C36.9676 12.0449 36.8945 12.2298 36.7604 12.3679C36.6284 12.506 36.4436 12.5832 36.2527 12.5832C36.0597 12.5832 35.8749 12.506 35.7428 12.3679C35.6088 12.2298 35.5356 12.0449 35.5397 11.852V3.42673L34.0996 4.86681C33.9656 5.00087 33.7848 5.07602 33.5959 5.07602C33.409 5.07602 33.2282 5.00092 33.0941 4.86687ZM18.8212 4.86687C18.5429 4.58859 18.5429 4.1377 18.8212 3.86143L21.4739 1.2087C21.7502 0.930432 22.2011 0.930432 22.4794 1.2087L25.1321 3.86143H25.1301C25.3962 4.1397 25.3901 4.58046 25.1179 4.8547C24.8457 5.12688 24.4049 5.13297 24.1246 4.86688L22.6886 3.42883V11.852C22.6947 12.0449 22.6216 12.2298 22.4875 12.3679C22.3535 12.506 22.1706 12.5832 21.9777 12.5832C21.7868 12.5832 21.6019 12.506 21.4679 12.3679C21.3338 12.2298 21.2627 12.0449 21.2668 11.852V3.42675L19.8267 4.86683C19.6926 5.00089 19.5119 5.07604 19.325 5.07604C19.1361 5.07604 18.9553 5.00092 18.8212 4.86687Z"/>
</mask>
<path d="M46.2382 25.5751L43.2991 24.8337V24.8316C42.966 23.5743 42.4663 22.3678 41.8143 21.2446L43.3682 18.6407C43.5164 18.3908 43.5002 18.076 43.3235 17.8465C42.3363 16.5445 41.1765 15.3827 39.8745 14.3955C39.643 14.2188 39.3282 14.2026 39.0784 14.3509L36.4785 15.9067C35.3532 15.2527 34.1467 14.753 32.8894 14.4199L32.15 11.4788V11.4808C32.079 11.1985 31.8454 10.9893 31.557 10.9487C29.9381 10.7273 28.2969 10.7273 26.6781 10.9487C26.3897 10.9893 26.1561 11.1985 26.085 11.4788L25.3416 14.4199C24.0843 14.753 22.8778 15.2527 21.7546 15.9067L19.1547 14.3509C18.9048 14.2026 18.59 14.2188 18.3585 14.3955C17.0565 15.3827 15.8967 16.5425 14.9095 17.8465C14.7349 18.076 14.7166 18.3909 14.8649 18.6407L16.4207 21.2406C15.7687 22.3638 15.2691 23.5724 14.9359 24.8296L11.9948 25.571V25.573C11.7125 25.6421 11.5033 25.8777 11.4647 26.1641C11.2413 27.7829 11.2413 29.4261 11.4647 31.045C11.5033 31.3314 11.7125 31.567 11.9948 31.6381L14.9359 32.3795C14.9664 32.4932 14.9989 32.6049 15.0334 32.7187C14.5561 32.8812 14.0361 33.0782 13.4471 33.3036L8.57836 35.152L8.35087 34.3842C8.08885 33.4986 7.15856 32.9908 6.27095 33.2528L2.19847 34.4533C1.31289 34.7193 0.807108 35.6496 1.06913 36.5372L5.59253 51.7955H5.59456C5.80377 52.5064 6.45373 52.9959 7.19511 53C7.35557 53 7.51604 52.9756 7.67041 52.9289L11.7429 51.7244L11.7449 51.7265C12.6305 51.4604 13.1343 50.5281 12.8722 49.6425L12.4701 48.2856L13.3881 48.0866C15.5412 47.6235 17.0645 48.4563 18.8297 49.4231C20.3206 50.2396 21.9597 51.1395 24.0742 51.1395V51.1374C24.8968 51.1334 25.7154 51.0054 26.5035 50.7596C29.079 49.9797 32.3148 48.1739 36.4097 45.8868C38.7699 44.5686 41.4449 43.0757 44.4002 41.5564L44.4103 41.5503V41.5523C45.2492 41.1197 45.8829 40.3702 46.1673 39.4684C46.4537 38.5665 46.3664 37.5895 45.9297 36.7527C45.3183 35.4182 43.9635 34.5834 42.497 34.6382C42.826 33.9111 43.0941 33.1554 43.2993 32.3836L46.2384 31.6423C46.5187 31.5712 46.7299 31.3376 46.7685 31.0512C46.9939 29.4303 46.9939 27.7892 46.7685 26.1683C46.7299 25.8798 46.5205 25.6461 46.2382 25.5751ZM11.3387 50.3635L7.2642 51.568V51.566C7.20124 51.5843 7.13421 51.5782 7.07733 51.5457C7.0164 51.5132 6.97374 51.4604 6.95343 51.3954L2.43002 36.1329C2.41174 36.0679 2.41987 35.9989 2.45034 35.942C2.48283 35.8811 2.53768 35.8364 2.60267 35.816L6.67516 34.6116V34.6136C6.73812 34.5953 6.80515 34.6034 6.86405 34.6339C6.92296 34.6664 6.96764 34.7213 6.98593 34.7842L11.5093 50.0467C11.55 50.1827 11.4728 50.3229 11.3387 50.3635ZM44.6496 37.3682C44.9299 37.874 44.9929 38.4712 44.8223 39.0237C44.6517 39.5761 44.2617 40.0352 43.7438 40.2931C40.7701 41.8226 38.0848 43.3216 35.7147 44.6439C31.695 46.8883 28.5203 48.6616 26.091 49.3968C23.294 50.2438 21.4578 49.2404 19.5122 48.174C17.6658 47.1646 15.7586 46.1205 13.0894 46.6953L12.0657 46.9167L8.98436 36.5171L13.5078 34.8008L13.9485 34.6322C16.193 33.7751 17.2187 33.3851 18.7198 33.7486C20.3406 34.1427 22.5891 35.4041 27.0738 37.9207C28.0711 38.528 28.6682 39.6207 28.6418 40.7866C28.6499 41.721 28.1706 42.5903 27.3764 43.0819C26.7061 43.4617 25.8835 43.4454 25.2294 43.0412L19.27 39.6959C18.9287 39.5029 18.494 39.6248 18.3011 39.966C18.1081 40.3093 18.23 40.744 18.5712 40.937L24.5307 44.2823H24.5327C25.0893 44.6032 25.721 44.7738 26.3648 44.7799C26.9701 44.7799 27.5653 44.6195 28.0873 44.3168C29.1739 43.6648 29.893 42.5416 30.0311 41.2843L41.7629 36.2612C42.291 36.0093 42.8983 35.985 43.4427 36.1942C43.9891 36.4054 44.4242 36.828 44.6496 37.3682ZM23.2067 22.699C25.3171 20.5887 28.3923 19.764 31.2768 20.5379C34.1591 21.3098 36.4096 23.5603 37.1833 26.4444C37.9551 29.3266 37.1305 32.4018 35.02 34.5124C33.2123 36.3363 30.6632 37.2179 28.1163 36.901C28.0025 36.8218 27.8867 36.7467 27.7649 36.6796C25.6119 35.4731 23.9544 34.5428 22.6118 33.8482H22.6138C21.3078 32.2497 20.6477 30.2205 20.7573 28.1591C20.867 26.0975 21.7402 24.1514 23.2067 22.699ZM45.4197 30.3807L42.5375 31.1078C42.2775 31.1728 42.0784 31.378 42.0175 31.638C41.725 32.8912 41.2497 34.0957 40.6059 35.2108L29.9645 39.7626C29.8629 39.2772 29.6882 38.8121 29.4465 38.3794C31.9997 38.2941 34.4188 37.2115 36.186 35.3631C37.9511 33.5168 38.922 31.0509 38.8935 28.4957C38.8631 25.9405 37.8332 23.499 36.0255 21.6934C33.84 19.5078 30.7488 18.4861 27.6918 18.935C24.6349 19.3859 21.97 21.2566 20.5057 23.9784C19.0433 26.7002 18.9518 29.954 20.264 32.7531C19.0534 32.1945 17.6946 32.0462 16.3906 32.3265C16.3235 32.099 16.2626 31.8675 16.2078 31.6339C16.1468 31.3739 15.9478 31.1708 15.6878 31.1078L12.8055 30.3807L12.8076 30.3787C12.6796 29.2006 12.6796 28.0123 12.8076 26.8343L15.6898 26.1071L15.6878 26.1051C15.9478 26.0401 16.1468 25.837 16.2078 25.577C16.5348 24.1775 17.0893 22.839 17.8469 21.6162C17.987 21.3908 17.9911 21.1064 17.855 20.8769L16.3316 18.3298C16.7033 17.8687 17.0974 17.4279 17.5158 17.0075C17.9342 16.5891 18.377 16.193 18.8381 15.8213L21.3852 17.3447C21.6147 17.4808 21.899 17.4788 22.1245 17.3366C23.3473 16.579 24.6858 16.0245 26.0853 15.6995C26.3453 15.6385 26.5504 15.4375 26.6134 15.1795L27.3405 12.2993L27.3426 12.2972C28.5206 12.1713 29.7089 12.1713 30.889 12.2972L31.6141 15.1775L31.6121 15.1795C31.6771 15.4375 31.8822 15.6385 32.1402 15.6995C33.5417 16.0245 34.8802 16.579 36.1009 17.3366C36.3284 17.4788 36.6128 17.4808 36.8403 17.3447L39.3874 15.8213H39.3894C39.8505 16.193 40.2912 16.5871 40.7097 17.0055C41.1281 17.4239 41.5242 17.8667 41.8959 18.3278L40.3725 20.8748C40.2364 21.1044 40.2384 21.3908 40.3806 21.6162C41.1382 22.837 41.6927 24.1755 42.0177 25.577C42.0786 25.835 42.2797 26.0401 42.5377 26.1051L45.4199 26.8323C45.5499 28.0123 45.5497 29.2006 45.4197 30.3807ZM7.10556 16.2882C6.82728 16.012 6.82728 15.5611 7.10556 15.2828L9.76031 12.6301L9.75828 12.6321C9.89234 12.498 10.0731 12.4229 10.262 12.4229C10.4509 12.4229 10.6317 12.498 10.7657 12.6321L13.4185 15.2848L13.4164 15.2828C13.6947 15.5611 13.6947 16.012 13.4164 16.2902C13.1382 16.5665 12.6893 16.5665 12.411 16.2882L10.973 14.8502V23.2754C10.979 23.4663 10.9059 23.6532 10.7719 23.7893C10.6378 23.9274 10.453 24.0046 10.262 24.0046C10.0691 24.0046 9.88627 23.9274 9.75222 23.7893C9.61816 23.6532 9.54503 23.4663 9.55113 23.2754V14.846L8.11105 16.2881C7.83277 16.5664 7.38182 16.5665 7.10556 16.2882ZM51.1229 16.2882C50.8446 16.5665 50.3957 16.5665 50.1174 16.2882L48.6794 14.8481V23.2754C48.6834 23.4664 48.6124 23.6532 48.4783 23.7893C48.3442 23.9274 48.1594 24.0046 47.9685 24.0046C47.7755 24.0046 47.5927 23.9274 47.4586 23.7893C47.3246 23.6532 47.2515 23.4664 47.2576 23.2754V14.8461L45.8195 16.2882C45.5392 16.5543 45.0984 16.5482 44.8262 16.276C44.554 16.0038 44.548 15.563 44.8141 15.2827L47.4668 12.63L47.4648 12.632C47.5988 12.498 47.7796 12.4228 47.9685 12.4228C48.1574 12.4228 48.3382 12.498 48.4702 12.632L51.1229 15.2847V15.2827C51.4012 15.561 51.4011 16.012 51.1229 16.2882ZM33.0941 4.86687C32.8159 4.58859 32.8159 4.1377 33.0941 3.86143L35.7469 1.2087C35.8789 1.07465 36.0597 1.00152 36.2486 1.00152C36.4375 1.00152 36.6182 1.07464 36.7503 1.2087L39.403 3.86143C39.5431 3.99346 39.6224 4.17626 39.6244 4.3672C39.6264 4.56016 39.5513 4.74499 39.4152 4.87905C39.2811 5.01514 39.0963 5.0903 38.9033 5.08826C38.7124 5.08623 38.5296 5.00498 38.3976 4.86687L36.9636 3.42881V11.852C36.9676 12.0449 36.8945 12.2298 36.7604 12.3679C36.6284 12.506 36.4436 12.5832 36.2527 12.5832C36.0597 12.5832 35.8749 12.506 35.7428 12.3679C35.6088 12.2298 35.5356 12.0449 35.5397 11.852V3.42673L34.0996 4.86681C33.9656 5.00087 33.7848 5.07602 33.5959 5.07602C33.409 5.07602 33.2282 5.00092 33.0941 4.86687ZM18.8212 4.86687C18.5429 4.58859 18.5429 4.1377 18.8212 3.86143L21.4739 1.2087C21.7502 0.930432 22.2011 0.930432 22.4794 1.2087L25.1321 3.86143H25.1301C25.3962 4.1397 25.3901 4.58046 25.1179 4.8547C24.8457 5.12688 24.4049 5.13297 24.1246 4.86688L22.6886 3.42883V11.852C22.6947 12.0449 22.6216 12.2298 22.4875 12.3679C22.3535 12.506 22.1706 12.5832 21.9777 12.5832C21.7868 12.5832 21.6019 12.506 21.4679 12.3679C21.3338 12.2298 21.2627 12.0449 21.2668 11.852V3.42675L19.8267 4.86683C19.6926 5.00089 19.5119 5.07604 19.325 5.07604C19.1361 5.07604 18.9553 5.00092 18.8212 4.86687Z" fill="url(#paint0_linear_2482_9848)"/>
<path d="M44.8996 37.3703V37.3682H44.3996V37.3703H44.8996ZM46.2382 25.5751L46.1159 26.0599L46.1161 26.0599L46.2382 25.5751ZM43.2991 24.8337H42.7991V25.2232L43.1768 25.3185L43.2991 24.8337ZM43.2991 24.8316H43.7991V24.7665L43.7824 24.7036L43.2991 24.8316ZM41.8143 21.2446L41.3849 20.9884L41.2341 21.2411L41.3819 21.4956L41.8143 21.2446ZM43.3682 18.6407L43.7975 18.8969L43.7981 18.8958L43.3682 18.6407ZM43.3235 17.8465L42.925 18.1486L42.9273 18.1515L43.3235 17.8465ZM39.8745 14.3955L39.5712 14.793L39.5725 14.794L39.8745 14.3955ZM39.0784 14.3509L38.8231 13.9209L38.8216 13.9218L39.0784 14.3509ZM36.4785 15.9067L36.2272 16.339L36.4822 16.4872L36.7352 16.3358L36.4785 15.9067ZM32.8894 14.4199L32.4045 14.5418L32.4764 14.8277L32.7614 14.9032L32.8894 14.4199ZM32.15 11.4788L32.635 11.3569L31.65 11.4788H32.15ZM32.15 11.4808L31.6652 11.6029L32.65 11.4808H32.15ZM31.557 10.9487L31.6267 10.4536L31.6247 10.4533L31.557 10.9487ZM26.6781 10.9487L26.6103 10.4533L26.6084 10.4536L26.6781 10.9487ZM26.085 11.4788L25.6003 11.3559L25.6003 11.3563L26.085 11.4788ZM25.3416 14.4199L25.4696 14.9032L25.7542 14.8278L25.8263 14.5424L25.3416 14.4199ZM21.7546 15.9067L21.4978 16.3358L21.7511 16.4874L22.0062 16.3388L21.7546 15.9067ZM19.1547 14.3509L19.4114 13.9218L19.4099 13.9209L19.1547 14.3509ZM18.3585 14.3955L18.6606 14.794L18.6618 14.793L18.3585 14.3955ZM14.9095 17.8465L15.3074 18.1493L15.3082 18.1483L14.9095 17.8465ZM14.8649 18.6407L14.4349 18.8959L14.4358 18.8974L14.8649 18.6407ZM16.4207 21.2406L16.8532 21.4916L17.0011 21.2367L16.8498 20.9838L16.4207 21.2406ZM14.9359 24.8296L15.0582 25.3144L15.3438 25.2424L15.4193 24.9577L14.9359 24.8296ZM11.9948 25.571L11.8726 25.0862L11.4948 25.1814V25.571H11.9948ZM11.9948 25.573L12.1136 26.0587L12.4948 25.9655V25.573H11.9948ZM11.4647 26.1641L11.96 26.2325L11.9602 26.2308L11.4647 26.1641ZM11.4647 31.045L11.9602 30.9782L11.96 30.9766L11.4647 31.045ZM11.9948 31.6381L12.1171 31.1532L12.1169 31.1532L11.9948 31.6381ZM14.9359 32.3795L15.4189 32.2501L15.3429 31.9664L15.0582 31.8946L14.9359 32.3795ZM15.0334 32.7187L15.1946 33.192L15.6524 33.0361L15.5119 32.5734L15.0334 32.7187ZM13.4471 33.3036L13.6245 33.7711L13.6258 33.7706L13.4471 33.3036ZM8.57836 35.152L8.09896 35.2941L8.25204 35.8107L8.75582 35.6195L8.57836 35.152ZM8.35087 34.3842L7.87142 34.5261L7.87147 34.5263L8.35087 34.3842ZM6.27095 33.2528L6.41232 33.7324L6.41251 33.7324L6.27095 33.2528ZM2.19847 34.4533L2.0571 33.9737L2.05459 33.9744L2.19847 34.4533ZM1.06913 36.5372L0.589583 36.6788L0.589747 36.6794L1.06913 36.5372ZM5.59253 51.7955L5.11315 51.9376L5.21925 52.2955H5.59253V51.7955ZM5.59456 51.7955L6.07423 51.6544L5.96862 51.2955H5.59456V51.7955ZM7.19511 53L7.19238 53.5H7.19511V53ZM7.67041 52.9289L7.52859 52.4494L7.52557 52.4503L7.67041 52.9289ZM11.7429 51.7244L12.0964 51.3709L11.8862 51.1606L11.6011 51.245L11.7429 51.7244ZM11.7449 51.7265L11.3914 52.08L11.6026 52.2913L11.8888 52.2053L11.7449 51.7265ZM12.8722 49.6425L13.3517 49.5006L13.3516 49.5004L12.8722 49.6425ZM12.4701 48.2856L12.3641 47.797L11.8376 47.9112L11.9907 48.4277L12.4701 48.2856ZM13.3881 48.0866L13.283 47.5978L13.2822 47.598L13.3881 48.0866ZM18.8297 49.4231L18.5895 49.8616L18.5895 49.8616L18.8297 49.4231ZM24.0742 51.1395V51.6395H24.5742V51.1395H24.0742ZM24.0742 51.1374L24.0718 50.6374L23.5742 50.6399V51.1374H24.0742ZM26.5035 50.7596L26.3586 50.2811L26.3547 50.2823L26.5035 50.7596ZM36.4097 45.8868L36.1659 45.4503H36.1658L36.4097 45.8868ZM44.4002 41.5564L44.6288 42.0011L44.6434 41.9936L44.6574 41.9851L44.4002 41.5564ZM44.4103 41.5503H44.9103V40.6672L44.1531 41.1216L44.4103 41.5503ZM44.4103 41.5523H43.9103V42.3728L44.6395 41.9967L44.4103 41.5523ZM46.1673 39.4684L45.6908 39.317L45.6905 39.318L46.1673 39.4684ZM45.9297 36.7527L45.4751 36.9609L45.4804 36.9726L45.4864 36.984L45.9297 36.7527ZM42.497 34.6382L42.0414 34.4321L41.7084 35.1681L42.5157 35.1379L42.497 34.6382ZM43.2993 32.3836L43.177 31.8988L42.8917 31.9708L42.8161 32.2552L43.2993 32.3836ZM46.2384 31.6423L46.3607 32.1271L46.3613 32.1269L46.2384 31.6423ZM46.7685 31.0512L46.2733 30.9823L46.273 30.9844L46.7685 31.0512ZM46.7685 26.1683L46.2729 26.2346L46.2733 26.2372L46.7685 26.1683ZM11.3387 50.3635L11.4805 50.843L11.4837 50.842L11.3387 50.3635ZM7.2642 51.568H6.7642V52.2372L7.40595 52.0475L7.2642 51.568ZM7.2642 51.566H7.7642V50.9002L7.12479 51.0858L7.2642 51.566ZM7.07733 51.5457L7.32539 51.1115L7.31906 51.1079L7.31262 51.1045L7.07733 51.5457ZM6.95343 51.3954L6.47399 51.5374L6.47619 51.5445L6.95343 51.3954ZM2.43002 36.1329L1.94865 36.2683L1.95064 36.275L2.43002 36.1329ZM2.45034 35.942L2.89108 36.1781L2.89151 36.1773L2.45034 35.942ZM2.60267 35.816L2.46085 35.3365L2.45351 35.3388L2.60267 35.816ZM6.67516 34.6116H7.17516V33.9423L6.53335 34.1321L6.67516 34.6116ZM6.67516 34.6136H6.17516V35.2794L6.81456 35.0938L6.67516 34.6136ZM6.86405 34.6339L7.10568 34.196L7.09377 34.1898L6.86405 34.6339ZM6.98593 34.7842L6.50575 34.9236L6.50654 34.9263L6.98593 34.7842ZM11.5093 50.0467L11.0299 50.1887L11.0302 50.1897L11.5093 50.0467ZM44.6496 37.3682L44.1882 37.5608L44.1989 37.5864L44.2123 37.6106L44.6496 37.3682ZM44.8223 39.0237L44.3446 38.8761L44.3446 38.8761L44.8223 39.0237ZM43.7438 40.2931L43.5208 39.8455L43.5151 39.8485L43.7438 40.2931ZM35.7147 44.6439L35.4711 44.2073L35.471 44.2073L35.7147 44.6439ZM26.091 49.3968L25.9461 48.9183L25.9461 48.9183L26.091 49.3968ZM19.5122 48.174L19.7525 47.7356L19.752 47.7353L19.5122 48.174ZM13.0894 46.6953L12.9841 46.2065L12.9837 46.2066L13.0894 46.6953ZM12.0657 46.9167L11.5863 47.0588L11.718 47.5035L12.1713 47.4054L12.0657 46.9167ZM8.98436 36.5171L8.80698 36.0497L8.37314 36.2143L8.50496 36.6592L8.98436 36.5171ZM13.5078 34.8008L13.6851 35.2683L13.6864 35.2678L13.5078 34.8008ZM13.9485 34.6322L13.7702 34.1651L13.7699 34.1652L13.9485 34.6322ZM18.7198 33.7486L18.8379 33.2628L18.8375 33.2627L18.7198 33.7486ZM27.0738 37.9207L27.3338 37.4936L27.3262 37.489L27.3184 37.4846L27.0738 37.9207ZM28.6418 40.7866L28.1419 40.7753L28.1418 40.7831L28.1418 40.791L28.6418 40.7866ZM27.3764 43.0819L27.6229 43.5169L27.6313 43.5121L27.6395 43.507L27.3764 43.0819ZM25.2294 43.0412L25.4923 42.6159L25.4834 42.6104L25.4742 42.6052L25.2294 43.0412ZM19.27 39.6959L19.0238 40.1311L19.0252 40.1319L19.27 39.6959ZM18.3011 39.966L17.8658 39.7199L17.8652 39.721L18.3011 39.966ZM18.5712 40.937L18.3251 41.3722L18.3265 41.373L18.5712 40.937ZM24.5307 44.2823L24.286 44.7183L24.4 44.7823H24.5307V44.2823ZM24.5327 44.2823L24.7825 43.8491L24.6666 43.7823H24.5327V44.2823ZM26.3648 44.7799L26.3601 45.2799H26.3648V44.7799ZM28.0873 44.3168L28.3381 44.7494L28.3445 44.7456L28.0873 44.3168ZM30.0311 41.2843L29.8343 40.8247L29.566 40.9396L29.5341 41.2297L30.0311 41.2843ZM41.7629 36.2612L41.9597 36.7208L41.969 36.7168L41.9781 36.7125L41.7629 36.2612ZM43.4427 36.1942L43.623 35.7278L43.6221 35.7274L43.4427 36.1942ZM23.2067 22.699L23.5586 23.0543L23.5603 23.0526L23.2067 22.699ZM31.2768 20.5379L31.1472 21.0208L31.1475 21.0209L31.2768 20.5379ZM37.1833 26.4444L37.6662 26.315L37.6662 26.3148L37.1833 26.4444ZM35.02 34.5124L34.6665 34.1588L34.6649 34.1604L35.02 34.5124ZM28.1163 36.901L27.8305 37.3113L27.9319 37.382L28.0546 37.3972L28.1163 36.901ZM27.7649 36.6796L27.5204 37.1158L27.5239 37.1178L27.7649 36.6796ZM22.6118 33.8482V33.3482L22.382 34.2923L22.6118 33.8482ZM22.6138 33.8482V34.3482H23.668L23.001 33.5319L22.6138 33.8482ZM20.7573 28.1591L20.258 28.1325V28.1325L20.7573 28.1591ZM45.4197 30.3807L45.542 30.8655L45.8787 30.7806L45.9167 30.4355L45.4197 30.3807ZM42.5375 31.1078L42.6588 31.5929L42.6598 31.5927L42.5375 31.1078ZM42.0175 31.638L41.5307 31.5239L41.5306 31.5243L42.0175 31.638ZM40.6059 35.2108L40.8025 35.6705L40.9556 35.605L41.0389 35.4608L40.6059 35.2108ZM29.9645 39.7626L29.4751 39.865L29.6 40.4624L30.1611 40.2224L29.9645 39.7626ZM29.4465 38.3794L29.4298 37.8797L28.61 37.9071L29.01 38.6232L29.4465 38.3794ZM36.186 35.3631L36.5474 35.7086L36.5474 35.7086L36.186 35.3631ZM38.8935 28.4957L39.3935 28.4902L39.3935 28.4898L38.8935 28.4957ZM36.0255 21.6934L35.672 22.0469L35.6722 22.0471L36.0255 21.6934ZM27.6918 18.935L27.6192 18.4403L27.6189 18.4404L27.6918 18.935ZM20.5057 23.9784L20.0654 23.7415L20.0653 23.7417L20.5057 23.9784ZM20.264 32.7531L20.0545 33.2071L21.298 33.7808L20.7167 32.5408L20.264 32.7531ZM16.3906 32.3265L15.9109 32.4678L16.0421 32.9129L16.4956 32.8153L16.3906 32.3265ZM16.2078 31.6339L15.7209 31.748L15.721 31.7482L16.2078 31.6339ZM15.6878 31.1078L15.5655 31.5927L15.5701 31.5938L15.6878 31.1078ZM12.8055 30.3807L12.452 30.0271L11.8291 30.65L12.6832 30.8655L12.8055 30.3807ZM12.8076 30.3787L13.1611 30.7322L13.3305 30.5628L13.3046 30.3247L12.8076 30.3787ZM12.8076 26.8343L12.6852 26.3495L12.348 26.4345L12.3105 26.7803L12.8076 26.8343ZM15.6898 26.1071L15.8121 26.592L16.6662 26.3765L16.0434 25.7536L15.6898 26.1071ZM15.6878 26.1051L15.5665 25.62L14.7098 25.8342L15.3342 26.4587L15.6878 26.1051ZM16.2078 25.577L16.6946 25.6911L16.6946 25.6908L16.2078 25.577ZM17.8469 21.6162L17.4222 21.3523L17.4219 21.3529L17.8469 21.6162ZM17.855 20.8769L18.2851 20.6219L18.2841 20.6202L17.855 20.8769ZM16.3316 18.3298L15.9424 18.016L15.7236 18.2873L15.9025 18.5865L16.3316 18.3298ZM17.5158 17.0075L17.1622 16.6539L17.1613 16.6548L17.5158 17.0075ZM18.8381 15.8213L19.0947 15.3922L18.7956 15.2133L18.5243 15.432L18.8381 15.8213ZM21.3852 17.3447L21.1285 17.7738L21.1301 17.7748L21.3852 17.3447ZM22.1245 17.3366L21.8612 16.9115L21.8578 16.9136L22.1245 17.3366ZM26.0853 15.6995L26.1984 16.1865L26.1994 16.1863L26.0853 15.6995ZM26.6134 15.1795L26.1286 15.0571L26.1276 15.0609L26.6134 15.1795ZM27.3405 12.2993L26.987 11.9457L26.8895 12.0432L26.8557 12.1769L27.3405 12.2993ZM27.3426 12.2972L27.2894 11.8001L27.1139 11.8188L26.989 11.9437L27.3426 12.2972ZM30.889 12.2972L31.3738 12.1752L31.2887 11.8371L30.942 11.8001L30.889 12.2972ZM31.6141 15.1775L31.9676 15.531L32.1682 15.3305L32.099 15.0554L31.6141 15.1775ZM31.6121 15.1795L31.2585 14.8259L31.0579 15.0266L31.1272 15.3017L31.6121 15.1795ZM32.1402 15.6995L32.0252 16.1861L32.0272 16.1865L32.1402 15.6995ZM36.1009 17.3366L36.3659 16.9126L36.3646 16.9117L36.1009 17.3366ZM36.8403 17.3447L36.5837 16.9156L36.5836 16.9156L36.8403 17.3447ZM39.3874 15.8213V15.3213H39.2493L39.1307 15.3922L39.3874 15.8213ZM39.3894 15.8213L39.7032 15.4321L39.5658 15.3213H39.3894V15.8213ZM40.7097 17.0055L41.0632 16.6519L41.0632 16.6519L40.7097 17.0055ZM41.8959 18.3278L42.325 18.5844L42.5038 18.2853L42.2851 18.014L41.8959 18.3278ZM40.3725 20.8748L39.9434 20.6182L39.9424 20.6198L40.3725 20.8748ZM40.3806 21.6162L40.8054 21.3526L40.8035 21.3495L40.3806 21.6162ZM42.0177 25.577L41.5306 25.69L41.5311 25.692L42.0177 25.577ZM42.5377 26.1051L42.66 25.6203L42.6598 25.6203L42.5377 26.1051ZM45.4199 26.8323L45.9169 26.7775L45.8789 26.4324L45.5422 26.3474L45.4199 26.8323ZM7.10556 16.2882L7.4604 15.9359L7.45781 15.9334L7.10556 16.2882ZM7.10556 15.2828L6.75214 14.9291L6.75199 14.9292L7.10556 15.2828ZM9.76031 12.6301L10.1139 12.9836L9.40689 12.2764L9.76031 12.6301ZM13.4164 16.2902L13.7687 16.6451L13.77 16.6438L13.4164 16.2902ZM12.411 16.2882L12.0575 16.6418L12.0575 16.6418L12.411 16.2882ZM10.973 14.8502L11.3265 14.4966L10.473 13.6431V14.8502H10.973ZM10.973 23.2754H10.473V23.2834L10.4732 23.2913L10.973 23.2754ZM10.7719 23.7893L10.4157 23.4384L10.4131 23.441L10.7719 23.7893ZM9.75222 23.7893L10.111 23.441L10.1084 23.4384L9.75222 23.7893ZM9.55113 23.2754L10.0509 23.2913L10.0511 23.2834V23.2754H9.55113ZM9.55113 14.846H10.0511V13.6377L9.19733 14.4927L9.55113 14.846ZM8.11105 16.2881L8.4646 16.6417L8.46485 16.6414L8.11105 16.2881ZM51.1229 16.2882L50.7706 15.9334L50.7693 15.9347L51.1229 16.2882ZM50.1174 16.2882L49.7636 16.6415L49.7639 16.6418L50.1174 16.2882ZM48.6794 14.8481L49.0332 14.4948L48.1794 13.6398V14.8481H48.6794ZM48.6794 23.2754H48.1793L48.1795 23.2861L48.6794 23.2754ZM48.4783 23.7893L48.1221 23.4384L48.1195 23.4411L48.4783 23.7893ZM47.4586 23.7893L47.8174 23.4411L47.8149 23.4384L47.4586 23.7893ZM47.2576 23.2754L47.7573 23.2914L47.7576 23.2834V23.2754H47.2576ZM47.2576 14.8461H47.7576V13.6365L46.9035 14.493L47.2576 14.8461ZM45.8195 16.2882L46.1639 16.6509L46.1736 16.6412L45.8195 16.2882ZM44.8141 15.2827L44.4604 14.929L44.4514 14.9385L44.8141 15.2827ZM47.4668 12.63L47.8204 12.9835L47.1132 12.2764L47.4668 12.63ZM47.4648 12.632L47.1111 12.2786L47.8183 12.9856L47.4648 12.632ZM48.4702 12.632L48.1139 12.9829L48.1166 12.9856L48.4702 12.632ZM51.1229 15.2847L50.7694 15.6383L51.6229 16.4919V15.2847H51.1229ZM51.1229 15.2827L51.4765 14.9292L50.6229 14.0756V15.2827H51.1229ZM33.0941 3.86143L33.4464 4.21627L33.4477 4.21499L33.0941 3.86143ZM35.7469 1.2087L36.1004 1.56227L36.1031 1.55955L35.7469 1.2087ZM36.7503 1.2087L36.394 1.55955L36.3967 1.56226L36.7503 1.2087ZM39.403 3.86143L39.0494 4.21499L39.0547 4.22026L39.0601 4.22537L39.403 3.86143ZM39.6244 4.3672L40.1244 4.36193V4.36187L39.6244 4.3672ZM39.4152 4.87905L39.0643 4.52282L39.059 4.52817L39.4152 4.87905ZM38.9033 5.08826L38.898 5.58823L38.8981 5.58823L38.9033 5.08826ZM38.3976 4.86687L38.7591 4.52129L38.7516 4.51381L38.3976 4.86687ZM36.9636 3.42881L37.3176 3.07576L36.4636 2.21929V3.42881H36.9636ZM36.9636 11.852H36.4634L36.4637 11.8625L36.9636 11.852ZM36.7604 12.3679L36.4016 12.0196L36.399 12.0224L36.7604 12.3679ZM35.7428 12.3679L36.1043 12.0224L36.1016 12.0196L35.7428 12.3679ZM35.5397 11.852L36.0397 11.8625V11.852H35.5397ZM35.5397 3.42673H36.0397V2.21962L35.1862 3.07318L35.5397 3.42673ZM34.0996 4.86681L34.4532 5.22037L34.0996 4.86681ZM18.8212 3.86143L19.1735 4.21627L19.1748 4.21499L18.8212 3.86143ZM21.4739 1.2087L21.8275 1.56226L21.8288 1.56096L21.4739 1.2087ZM22.4794 1.2087L22.8329 0.855151L22.8329 0.855138L22.4794 1.2087ZM25.1321 3.86143V4.36143H26.3392L25.4857 3.50788L25.1321 3.86143ZM25.1301 3.86143V3.36143H23.9602L24.7687 4.20698L25.1301 3.86143ZM25.1179 4.8547L25.4714 5.20825L25.4728 5.20692L25.1179 4.8547ZM24.1246 4.86688L23.7707 5.22032L23.7804 5.22953L24.1246 4.86688ZM22.6886 3.42883L23.0424 3.07553L22.1886 2.22052V3.42883H22.6886ZM22.6886 11.852H22.1886V11.8599L22.1888 11.8678L22.6886 11.852ZM22.4875 12.3679L22.8463 12.7161L22.8463 12.7161L22.4875 12.3679ZM21.2668 11.852L21.7668 11.8625V11.852H21.2668ZM21.2668 3.42675H21.7668V2.21964L20.9132 3.0732L21.2668 3.42675ZM19.8267 4.86683L19.4731 4.51328V4.51328L19.8267 4.86683ZM46.3605 25.0902L43.4214 24.3489L43.1768 25.3185L46.1159 26.0599L46.3605 25.0902ZM43.7991 24.8337V24.8316H42.7991V24.8337H43.7991ZM43.7824 24.7036C43.4379 23.4032 42.9211 22.1553 42.2467 20.9936L41.3819 21.4956C42.0115 22.5803 42.4941 23.7455 42.8158 24.9597L43.7824 24.7036ZM42.2437 21.5008L43.7975 18.8969L42.9388 18.3844L41.3849 20.9884L42.2437 21.5008ZM43.7981 18.8958C44.0487 18.4737 44.0239 17.9366 43.7197 17.5415L42.9273 18.1515C42.9765 18.2154 42.9842 18.3079 42.9382 18.3855L43.7981 18.8958ZM43.7219 17.5444C42.7074 16.2063 41.5152 15.012 40.1766 13.9971L39.5725 14.794C40.8378 15.7534 41.9653 16.8827 42.925 18.1486L43.7219 17.5444ZM40.1779 13.9981C39.7821 13.696 39.246 13.6699 38.8231 13.9209L39.3336 14.7808C39.4103 14.7353 39.5039 14.7416 39.5712 14.793L40.1779 13.9981ZM38.8216 13.9218L36.2217 15.4777L36.7352 16.3358L39.3351 14.7799L38.8216 13.9218ZM36.7297 15.4745C35.5658 14.798 34.3179 14.2811 33.0175 13.9366L32.7614 14.9032C33.9755 15.2249 35.1405 15.7074 36.2272 16.339L36.7297 15.4745ZM33.3743 14.298L32.635 11.3569L31.6651 11.6007L32.4045 14.5418L33.3743 14.298ZM31.65 11.4788V11.4808H32.65V11.4788H31.65ZM32.6349 11.3587C32.514 10.8785 32.1157 10.5224 31.6267 10.4536L31.4872 11.4438C31.5751 11.4562 31.6439 11.5185 31.6652 11.6029L32.6349 11.3587ZM31.6247 10.4533C29.9609 10.2257 28.2742 10.2257 26.6103 10.4533L26.7458 11.4441C28.3197 11.2288 29.9153 11.2288 31.4892 11.4441L31.6247 10.4533ZM26.6084 10.4536C26.1201 10.5223 25.7216 10.8776 25.6003 11.3559L26.5697 11.6017C26.5905 11.5194 26.6593 11.4563 26.7478 11.4438L26.6084 10.4536ZM25.6003 11.3563L24.8568 14.2974L25.8263 14.5424L26.5698 11.6013L25.6003 11.3563ZM25.2135 13.9366C23.9131 14.2811 22.665 14.798 21.503 15.4747L22.0062 16.3388C23.0905 15.7074 24.2554 15.2249 25.4696 14.9032L25.2135 13.9366ZM22.0113 15.4777L19.4114 13.9218L18.8979 14.7799L21.4978 16.3358L22.0113 15.4777ZM19.4099 13.9209C18.9869 13.6699 18.4509 13.696 18.0551 13.9981L18.6618 14.793C18.7291 14.7417 18.8227 14.7353 18.8995 14.7808L19.4099 13.9209ZM18.0564 13.9971C16.718 15.0118 15.5257 16.2041 14.5109 17.5447L15.3082 18.1483C16.2677 16.8808 17.395 15.7535 18.6606 14.794L18.0564 13.9971ZM14.5117 17.5437C14.2133 17.9358 14.1829 18.4714 14.4349 18.8959L15.2948 18.3854C15.2502 18.3103 15.2565 18.2163 15.3074 18.1493L14.5117 17.5437ZM14.4358 18.8974L15.9917 21.4973L16.8498 20.9838L15.2939 18.3839L14.4358 18.8974ZM15.9883 20.9895C15.3139 22.1515 14.7971 23.4014 14.4526 24.7015L15.4193 24.9577C15.741 23.7433 16.2236 22.5761 16.8532 21.4916L15.9883 20.9895ZM14.8137 24.3448L11.8726 25.0862L12.117 26.0558L15.0582 25.3144L14.8137 24.3448ZM11.4948 25.571V25.573H12.4948V25.571H11.4948ZM11.876 25.0873C11.3918 25.2058 11.0349 25.6093 10.9692 26.0973L11.9602 26.2308C11.9717 26.1461 12.0332 26.0784 12.1136 26.0587L11.876 25.0873ZM10.9694 26.0957C10.7397 27.7599 10.7397 29.4491 10.9694 31.1133L11.96 30.9766C11.7428 29.4031 11.7428 27.8059 11.96 26.2325L10.9694 26.0957ZM10.9692 31.1118C11.035 31.6003 11.3917 32.0018 11.8728 32.1229L12.1169 31.1532C12.0333 31.1322 11.9716 31.0625 11.9602 30.9782L10.9692 31.1118ZM11.8726 32.1229L14.8137 32.8643L15.0582 31.8946L12.1171 31.1532L11.8726 32.1229ZM14.453 32.5088C14.4853 32.6294 14.5194 32.7466 14.555 32.8639L15.5119 32.5734C15.4784 32.4633 15.4476 32.3571 15.4189 32.2501L14.453 32.5088ZM14.8723 32.2453C14.3849 32.4113 13.8566 32.6115 13.2684 32.8367L13.6258 33.7706C14.2157 33.5448 14.7274 33.351 15.1946 33.192L14.8723 32.2453ZM13.2696 32.8362L8.4009 34.6846L8.75582 35.6195L13.6245 33.7711L13.2696 32.8362ZM9.05776 35.01L8.83027 34.2422L7.87147 34.5263L8.09896 35.2941L9.05776 35.01ZM8.83032 34.2424C8.49015 33.0926 7.28227 32.433 6.12939 32.7733L6.41251 33.7324C7.03484 33.5487 7.68754 33.9046 7.87142 34.5261L8.83032 34.2424ZM6.12958 32.7732L2.0571 33.9737L2.33984 34.9329L6.41232 33.7324L6.12958 32.7732ZM2.05459 33.9744C0.906452 34.3194 0.249358 35.5263 0.589583 36.6788L1.54867 36.3957C1.36486 35.773 1.71933 35.1193 2.34235 34.9321L2.05459 33.9744ZM0.589747 36.6794L5.11315 51.9376L6.07191 51.6534L1.5485 36.3951L0.589747 36.6794ZM5.59253 52.2955H5.59456V51.2955H5.59253V52.2955ZM5.1149 51.9367C5.38639 52.8592 6.23006 53.4947 7.19238 53.5L7.19785 52.5C6.67739 52.4972 6.22116 52.1537 6.07423 51.6544L5.1149 51.9367ZM7.19511 53.5C7.40605 53.5 7.61528 53.468 7.81524 53.4075L7.52557 52.4503C7.4168 52.4833 7.3051 52.5 7.19511 52.5V53.5ZM7.81221 53.4084L11.8847 52.2039L11.6011 51.245L7.5286 52.4494L7.81221 53.4084ZM11.3893 52.078L11.3914 52.08L12.0985 51.3729L12.0964 51.3709L11.3893 52.078ZM11.8888 52.2053C13.038 51.86 13.6918 50.6503 13.3517 49.5006L12.3928 49.7843C12.5767 50.4058 12.223 51.0607 11.601 51.2476L11.8888 52.2053ZM13.3516 49.5004L12.9494 48.1436L11.9907 48.4277L12.3928 49.7846L13.3516 49.5004ZM12.576 48.7743L13.4941 48.5752L13.2822 47.598L12.3641 47.797L12.576 48.7743ZM13.4933 48.5754C15.443 48.156 16.8112 48.8876 18.5895 49.8616L19.0699 48.9846C17.3178 48.0249 15.6393 47.0909 13.283 47.5978L13.4933 48.5754ZM18.5895 49.8616C20.0713 50.6731 21.8155 51.6395 24.0742 51.6395V50.6395C22.104 50.6395 20.57 49.8061 19.0699 48.9846L18.5895 49.8616ZM24.5742 51.1395V51.1374H23.5742V51.1395H24.5742ZM24.0767 51.6374C24.9496 51.6331 25.8174 51.4973 26.6524 51.237L26.3547 50.2823C25.6134 50.5135 24.8441 50.6336 24.0718 50.6374L24.0767 51.6374ZM26.6485 51.2382C29.2883 50.4387 32.58 48.5985 36.6535 46.3234L36.1658 45.4503C32.0496 47.7493 28.8698 49.5206 26.3586 50.2811L26.6485 51.2382ZM36.6535 46.3234C39.0141 45.0049 41.6822 43.516 44.6288 42.0011L44.1716 41.1117C41.2077 42.6355 38.5257 44.1323 36.1659 45.4503L36.6535 46.3234ZM44.6574 41.9851L44.6676 41.979L44.1531 41.1216L44.1429 41.1277L44.6574 41.9851ZM43.9103 41.5503V41.5523H44.9103V41.5503H43.9103ZM44.6395 41.9967C45.5963 41.5033 46.3195 40.6482 46.6442 39.6187L45.6905 39.318C45.4463 40.0922 44.9021 40.7361 44.1812 41.108L44.6395 41.9967ZM46.6439 39.6197C46.9708 38.5902 46.8709 37.4756 46.3729 36.5213L45.4864 36.984C45.8618 37.7035 45.9366 38.5428 45.6908 39.317L46.6439 39.6197ZM46.3842 36.5444C45.6886 35.0262 44.1472 34.0761 42.4783 34.1386L42.5157 35.1379C43.7798 35.0906 44.9479 35.8102 45.4751 36.9609L46.3842 36.5444ZM42.9525 34.8444C43.2931 34.0917 43.5704 33.31 43.7825 32.5121L42.8161 32.2552C42.6178 33.0009 42.3589 33.7305 42.0414 34.4321L42.9525 34.8444ZM43.4216 32.8685L46.3607 32.1271L46.1161 31.1574L43.177 31.8988L43.4216 32.8685ZM46.3613 32.1269C46.8362 32.0064 47.1977 31.6099 47.264 31.1179L46.273 30.9844C46.2621 31.0653 46.2011 31.1359 46.1154 31.1576L46.3613 32.1269ZM47.2637 31.1201C47.4955 29.4535 47.4955 27.766 47.2637 26.0994L46.2733 26.2372C46.4924 27.8123 46.4924 29.4071 46.2733 30.9823L47.2637 31.1201ZM47.2641 26.102C47.1982 25.6098 46.8401 25.211 46.3603 25.0902L46.1161 26.0599C46.2009 26.0813 46.2616 26.1499 46.2729 26.2346L47.2641 26.102ZM11.197 49.884L7.12246 51.0885L7.40595 52.0475L11.4805 50.843L11.197 49.884ZM7.7642 51.568V51.566H6.7642V51.568H7.7642ZM7.12479 51.0858C7.18152 51.0693 7.25562 51.0717 7.32539 51.1115L6.82927 51.9798C7.01279 52.0847 7.22095 52.0992 7.40361 52.0461L7.12479 51.0858ZM7.31262 51.1045C7.37075 51.1355 7.41291 51.1894 7.43067 51.2462L6.47619 51.5445C6.53458 51.7313 6.66205 51.8908 6.84204 51.9868L7.31262 51.1045ZM7.43282 51.2533L2.90941 35.9908L1.95064 36.275L6.47404 51.5374L7.43282 51.2533ZM2.91135 35.9975C2.92809 36.0571 2.9216 36.1211 2.89108 36.1781L2.00959 35.7059C1.91814 35.8766 1.8954 36.0788 1.9487 36.2683L2.91135 35.9975ZM2.89151 36.1773C2.86122 36.2341 2.81013 36.2751 2.75184 36.2933L2.45351 35.3388C2.26523 35.3977 2.10445 35.528 2.00916 35.7067L2.89151 36.1773ZM2.74448 36.2955L6.81696 35.091L6.53335 34.1321L2.46087 35.3366L2.74448 36.2955ZM6.17516 34.6116V34.6136H7.17516V34.6116H6.17516ZM6.81456 35.0938C6.74542 35.1138 6.68071 35.102 6.63434 35.078L7.09377 34.1898C6.92959 34.1049 6.73082 34.0768 6.53575 34.1334L6.81456 35.0938ZM6.62251 35.0717C6.57019 35.0428 6.52585 34.9928 6.50576 34.9236L7.46609 34.6448C7.40944 34.4497 7.27572 34.29 7.10559 34.1961L6.62251 35.0717ZM6.50654 34.9263L11.0299 50.1887L11.9887 49.9046L7.46532 34.6421L6.50654 34.9263ZM11.0302 50.1897C10.9911 50.0587 11.0675 49.9232 11.1937 49.885L11.4837 50.842C11.878 50.7225 12.1088 50.3068 11.9884 49.9036L11.0302 50.1897ZM44.2123 37.6106C44.427 37.9979 44.4748 38.4543 44.3446 38.8761L45.3 39.1712C45.511 38.488 45.4329 37.7501 45.087 37.1259L44.2123 37.6106ZM44.3446 38.8761C44.2143 39.2979 43.9165 39.6485 43.5208 39.8456L43.9667 40.7407C44.6069 40.4218 45.089 39.8544 45.3 39.1712L44.3446 38.8761ZM43.5151 39.8485C40.5328 41.3824 37.8406 42.8853 35.4711 44.2073L35.9584 45.0805C38.3291 43.7579 41.0074 42.2628 43.9724 40.7378L43.5151 39.8485ZM35.471 44.2073C31.4285 46.4645 28.3107 48.2026 25.9461 48.9183L26.2358 49.8754C28.7299 49.1205 31.9616 47.3121 35.9585 45.0805L35.471 44.2073ZM25.9461 48.9183C23.3648 49.7 21.6963 48.8009 19.7525 47.7356L19.2719 48.6125C21.2194 49.6799 23.2233 50.7877 26.2359 49.8754L25.9461 48.9183ZM19.752 47.7353C17.9125 46.7295 15.8535 45.5886 12.9841 46.2065L13.1947 47.1841C15.6636 46.6525 17.4192 47.5996 19.2723 48.6128L19.752 47.7353ZM12.9837 46.2066L11.96 46.428L12.1713 47.4054L13.1951 47.184L12.9837 46.2066ZM12.5451 46.7747L9.46376 36.3751L8.50496 36.6592L11.5863 47.0588L12.5451 46.7747ZM9.16174 36.9846L13.6851 35.2683L13.3304 34.3333L8.80698 36.0497L9.16174 36.9846ZM13.6864 35.2678L14.1272 35.0992L13.7699 34.1652L13.3291 34.3338L13.6864 35.2678ZM14.1269 35.0993C16.4004 34.231 17.2771 33.9137 18.6021 34.2346L18.8375 33.2627C17.1603 32.8565 15.9855 33.3191 13.7702 34.1651L14.1269 35.0993ZM18.6017 34.2345C19.3521 34.4169 20.2762 34.8079 21.5948 35.4837C22.9097 36.1575 24.5833 37.0964 26.8291 38.3567L27.3184 37.4846C25.0796 36.2283 23.3866 35.2782 22.0509 34.5937C20.7189 33.9111 19.7083 33.4744 18.8379 33.2628L18.6017 34.2345ZM26.8137 38.3477C27.6585 38.8622 28.1643 39.7878 28.1419 40.7753L29.1417 40.7979C29.1721 39.4537 28.4837 38.1938 27.3338 37.4936L26.8137 38.3477ZM28.1418 40.791C28.1484 41.5507 27.7588 42.2571 27.1133 42.6567L27.6395 43.507C28.5823 42.9235 29.1514 41.8913 29.1418 40.7823L28.1418 40.791ZM27.1299 42.6468C26.6185 42.9366 25.9911 42.9242 25.4923 42.6159L24.9666 43.4666C25.7758 43.9667 26.7937 43.9868 27.6229 43.5169L27.1299 42.6468ZM25.4742 42.6052L19.5147 39.2599L19.0252 40.1319L24.9847 43.4772L25.4742 42.6052ZM19.5161 39.2607C18.9331 38.931 18.194 39.1396 17.8658 39.7199L18.7363 40.2122C18.7941 40.11 18.9243 40.0748 19.0238 40.1311L19.5161 39.2607ZM17.8652 39.721C17.5372 40.3046 17.7439 41.0435 18.3251 41.3722L18.8173 40.5017C18.7161 40.4445 18.679 40.3141 18.7369 40.211L17.8652 39.721ZM18.3265 41.373L24.286 44.7183L24.7755 43.8463L18.816 40.5009L18.3265 41.373ZM24.5307 44.7823H24.5327V43.7823H24.5307V44.7823ZM24.283 44.7154C24.9149 45.0798 25.6312 45.273 26.3601 45.2799L26.3696 44.2799C25.8108 44.2747 25.2636 44.1266 24.7825 43.8491L24.283 44.7154ZM26.3648 45.2799C27.0583 45.2799 27.7399 45.0962 28.3381 44.7494L27.8365 43.8843C27.3906 44.1428 26.882 44.2799 26.3648 44.2799V45.2799ZM28.3445 44.7456C29.5652 44.0132 30.373 42.7515 30.5281 41.3389L29.5341 41.2297C29.4131 42.3317 28.7827 43.3165 27.83 43.8881L28.3445 44.7456ZM30.2279 41.7439L41.9597 36.7208L41.5661 35.8016L29.8343 40.8247L30.2279 41.7439ZM41.9781 36.7125C42.383 36.5194 42.8476 36.5011 43.2633 36.6609L43.6221 35.7274C42.949 35.4688 42.199 35.4992 41.5476 35.8099L41.9781 36.7125ZM43.2624 36.6605C43.6822 36.8228 44.0155 37.1468 44.1882 37.5608L45.1111 37.1757C44.8329 36.5091 44.2959 35.988 43.623 35.7278L43.2624 36.6605ZM23.5603 23.0526C25.5444 21.0685 28.4354 20.2933 31.1472 21.0208L31.4064 20.055C28.3492 19.2348 25.0899 20.1088 22.8532 22.3455L23.5603 23.0526ZM31.1475 21.0209C33.857 21.7465 35.9729 23.8622 36.7003 26.5739L37.6662 26.3148C36.8463 23.2584 34.4611 20.873 31.4062 20.0549L31.1475 21.0209ZM36.7003 26.5737C37.4259 29.2833 36.6507 32.1745 34.6665 34.1588L35.3736 34.8659C37.6102 32.6291 38.4843 29.3699 37.6662 26.315L36.7003 26.5737ZM34.6649 34.1604C32.9662 35.8743 30.5711 36.7026 28.178 36.4049L28.0546 37.3972C30.7553 37.7332 33.4583 36.7984 35.3752 34.8643L34.6649 34.1604ZM28.402 36.4907C28.2798 36.4057 28.1484 36.32 28.0058 36.2415L27.5239 37.1178C27.6251 37.1734 27.7252 37.238 27.8305 37.3113L28.402 36.4907ZM28.0093 36.2435C25.8595 35.0388 24.1934 34.1035 22.8415 33.4041L22.382 34.2923C23.7155 34.9822 25.3642 35.9075 27.5205 37.1158L28.0093 36.2435ZM22.6118 34.3482H22.6138V33.3482H22.6118V34.3482ZM23.001 33.5319C21.7741 32.0301 21.1535 30.1233 21.2566 28.1857L20.258 28.1325C20.1418 30.3177 20.8415 32.4692 22.2266 34.1646L23.001 33.5319ZM21.2566 28.1857C21.3597 26.2481 22.1803 24.4192 23.5586 23.0543L22.8549 22.3438C21.3001 23.8835 20.3743 25.9468 20.258 28.1325L21.2566 28.1857ZM45.2974 29.8959L42.4152 30.623L42.6598 31.5927L45.542 30.8655L45.2974 29.8959ZM42.4162 30.6228C41.9717 30.7339 41.6337 31.0844 41.5307 31.5239L42.5043 31.7521C42.5232 31.6716 42.5833 31.6118 42.6588 31.5929L42.4162 30.6228ZM41.5306 31.5243C41.2492 32.7299 40.792 33.8884 40.1729 34.9608L41.0389 35.4608C41.7074 34.303 42.2008 33.0525 42.5044 31.7516L41.5306 31.5243ZM40.4092 34.7511L29.7678 39.3029L30.1611 40.2224L40.8025 35.6705L40.4092 34.7511ZM30.4539 39.6603C30.3419 39.1248 30.1492 38.612 29.883 38.1355L29.01 38.6232C29.2273 39.0121 29.384 39.4296 29.4751 39.865L30.4539 39.6603ZM29.4632 38.8791C32.1472 38.7894 34.69 37.6514 36.5474 35.7086L35.8246 35.0176C34.1477 36.7716 31.8523 37.7987 29.4298 37.8797L29.4632 38.8791ZM36.5474 35.7086C38.403 33.7676 39.4234 31.1756 39.3935 28.4902L38.3936 28.5013C38.4206 30.9262 37.4991 33.2659 35.8246 35.0176L36.5474 35.7086ZM39.3935 28.4898C39.3615 25.8038 38.279 23.2376 36.3789 21.3396L35.6722 22.0471C37.3875 23.7605 38.3647 26.0772 38.3936 28.5017L39.3935 28.4898ZM36.3791 21.3398C34.0816 19.0424 30.8323 17.9685 27.6192 18.4403L27.7645 19.4297C30.6652 19.0038 33.5984 19.9733 35.672 22.0469L36.3791 21.3398ZM27.6189 18.4404C24.4055 18.9144 21.6044 20.8807 20.0654 23.7415L20.946 24.2153C22.3355 21.6326 24.8643 19.8575 27.7648 19.4297L27.6189 18.4404ZM20.0653 23.7417C18.5281 26.6026 18.4319 30.0229 19.8113 32.9653L20.7167 32.5408C19.4718 29.8852 19.5584 26.7978 20.9461 24.2151L20.0653 23.7417ZM20.4735 32.2991C19.164 31.6949 17.6948 31.5347 16.2855 31.8377L16.4956 32.8153C17.6944 32.5577 18.9428 32.6941 20.0545 33.2071L20.4735 32.2991ZM16.8702 32.1852C16.8059 31.9671 16.7473 31.7446 16.6945 31.5196L15.721 31.7482C15.7779 31.9904 15.8411 32.231 15.9109 32.4678L16.8702 32.1852ZM16.6946 31.5198C16.5912 31.0787 16.2513 30.7299 15.8055 30.6219L15.5701 31.5938C15.6442 31.6117 15.7025 31.6691 15.7209 31.748L16.6946 31.5198ZM15.8101 30.623L12.9278 29.8959L12.6832 30.8655L15.5655 31.5927L15.8101 30.623ZM13.1591 30.7343L13.1611 30.7322L12.454 30.0251L12.452 30.0271L13.1591 30.7343ZM13.3046 30.3247C13.1806 29.1825 13.1806 28.0305 13.3046 26.8883L12.3105 26.7803C12.1786 27.9942 12.1786 29.2187 12.3105 30.4327L13.3046 30.3247ZM12.9299 27.3191L15.8121 26.592L15.5675 25.6223L12.6852 26.3495L12.9299 27.3191ZM16.0434 25.7536L16.0413 25.7516L15.3342 26.4587L15.3363 26.4607L16.0434 25.7536ZM15.809 26.5902C16.2515 26.4796 16.5911 26.1327 16.6946 25.6911L15.7209 25.4629C15.7026 25.5413 15.644 25.6007 15.5665 25.62L15.809 26.5902ZM16.6946 25.6908C17.0092 24.3444 17.5428 23.0564 18.2719 21.8796L17.4219 21.3529C16.6358 22.6216 16.0603 24.0107 15.7209 25.4632L16.6946 25.6908ZM18.2715 21.8802C18.5096 21.4972 18.5169 21.0128 18.2851 20.6219L17.4249 21.1319C17.4653 21.2 17.4645 21.2843 17.4222 21.3523L18.2715 21.8802ZM18.2841 20.6202L16.7607 18.0732L15.9025 18.5865L17.4259 21.1335L18.2841 20.6202ZM16.7209 18.6436C17.0819 18.1958 17.4644 17.768 17.8702 17.3602L17.1613 16.6548C16.7304 17.0879 16.3247 17.5417 15.9424 18.016L16.7209 18.6436ZM17.8693 17.361C18.2746 16.9557 18.7041 16.5715 19.1519 16.2106L18.5243 15.432C18.0499 15.8145 17.5938 16.2224 17.1622 16.6539L17.8693 17.361ZM18.5814 16.2504L21.1285 17.7738L21.6418 16.9156L19.0947 15.3922L18.5814 16.2504ZM21.1301 17.7748C21.5186 18.0051 22.0045 18.0034 22.3912 17.7595L21.8578 16.9136C21.7936 16.9541 21.7108 16.9565 21.6402 16.9146L21.1301 17.7748ZM22.3879 17.7616C23.5647 17.0325 24.8525 16.4991 26.1984 16.1865L25.9722 15.2124C24.5191 15.5499 23.1299 16.1255 21.8612 16.9115L22.3879 17.7616ZM26.1994 16.1863C26.6398 16.0831 26.9908 15.7418 27.0991 15.298L26.1276 15.0609C26.11 15.1331 26.0507 15.194 25.9712 15.2127L26.1994 16.1863ZM27.0982 15.3019L27.8253 12.4217L26.8557 12.1769L26.1286 15.0571L27.0982 15.3019ZM27.6941 12.6528L27.6961 12.6508L26.989 11.9437L26.987 11.9457L27.6941 12.6528ZM27.3957 12.7944C28.5384 12.6723 29.6911 12.6722 30.8359 12.7944L30.942 11.8001C29.7267 11.6704 28.5028 11.6704 27.2894 11.8001L27.3957 12.7944ZM30.4041 12.4193L31.1292 15.2995L32.099 15.0554L31.3738 12.1752L30.4041 12.4193ZM31.2605 14.8239L31.2585 14.8259L31.9656 15.533L31.9676 15.531L31.2605 14.8239ZM31.1272 15.3017C31.238 15.7413 31.5863 16.0824 32.0252 16.1861L32.2551 15.2129C32.1781 15.1947 32.1161 15.1336 32.0969 15.0573L31.1272 15.3017ZM32.0272 16.1865C33.3751 16.4991 34.6627 17.0325 35.8373 17.7614L36.3646 16.9117C35.0976 16.1255 33.7082 15.5498 32.2531 15.2124L32.0272 16.1865ZM35.8359 17.7606C36.2225 18.0022 36.7083 18.0063 37.097 17.7738L36.5836 16.9156C36.5173 16.9553 36.4344 16.9554 36.3659 16.9126L35.8359 17.7606ZM37.0969 17.7738L39.644 16.2504L39.1307 15.3922L36.5837 16.9156L37.0969 17.7738ZM39.3874 16.3213H39.3894V15.3213H39.3874V16.3213ZM39.0756 16.2106C39.5234 16.5716 39.9509 16.9538 40.3561 17.359L41.0632 16.6519C40.6316 16.2204 40.1775 15.8144 39.7032 15.4321L39.0756 16.2106ZM40.3561 17.359C40.7614 17.7643 41.1456 18.1938 41.5066 18.6416L42.2851 18.014C41.9027 17.5396 41.4948 17.0834 41.0632 16.6519L40.3561 17.359ZM41.4667 18.0711L39.9434 20.6182L40.8016 21.1315L42.325 18.5844L41.4667 18.0711ZM39.9424 20.6198C39.7121 21.0082 39.7138 21.4962 39.9577 21.8829L40.8035 21.3495C40.7631 21.2854 40.7607 21.2005 40.8026 21.1298L39.9424 20.6198ZM39.9558 21.8799C40.6847 23.0544 41.2181 24.3421 41.5306 25.69L42.5048 25.4641C42.1674 24.0089 41.5917 22.6195 40.8054 21.3526L39.9558 21.8799ZM41.5311 25.692C41.6348 26.1309 41.9758 26.4792 42.4155 26.59L42.6598 25.6203C42.5836 25.6011 42.5225 25.5391 42.5043 25.4621L41.5311 25.692ZM42.4154 26.5899L45.2976 27.3171L45.5422 26.3474L42.66 25.6203L42.4154 26.5899ZM44.9229 26.887C45.0489 28.0306 45.0487 29.1822 44.9227 30.326L45.9167 30.4355C46.0507 29.219 46.0509 27.994 45.9169 26.7775L44.9229 26.887ZM7.45781 15.9334C7.37726 15.8534 7.37537 15.7201 7.45912 15.6363L6.75199 14.9292C6.2792 15.4021 6.27731 16.1706 6.7533 16.6431L7.45781 15.9334ZM7.45898 15.6365L10.1137 12.9837L9.40689 12.2764L6.75214 14.9291L7.45898 15.6365ZM9.40676 12.2765L9.40473 12.2785L10.1118 12.9856L10.1139 12.9836L9.40676 12.2765ZM10.1118 12.9856C10.1527 12.9448 10.2065 12.9229 10.262 12.9229V11.9229C9.93976 11.9229 9.63202 12.0512 9.40473 12.2785L10.1118 12.9856ZM10.262 12.9229C10.3176 12.9229 10.3714 12.9448 10.4122 12.9856L11.1193 12.2785C10.892 12.0512 10.5843 11.9229 10.262 11.9229V12.9229ZM10.4122 12.9856L13.0649 15.6384L13.772 14.9313L11.1193 12.2785L10.4122 12.9856ZM13.772 14.9313L13.77 14.9292L13.0629 15.6363L13.0649 15.6384L13.772 14.9313ZM13.0629 15.6363C13.1459 15.7193 13.1459 15.8537 13.0629 15.9367L13.77 16.6438C14.2435 16.1702 14.2435 15.4028 13.77 14.9292L13.0629 15.6363ZM13.0642 15.9354C12.9811 16.0179 12.8478 16.0179 12.7645 15.9346L12.0575 16.6418C12.5308 17.1151 13.2952 17.1151 13.7687 16.6451L13.0642 15.9354ZM12.7646 15.9347L11.3265 14.4966L10.6194 15.2037L12.0575 16.6418L12.7646 15.9347ZM10.473 14.8502V23.2754H11.473V14.8502H10.473ZM10.4732 23.2913C10.4749 23.3455 10.4537 23.3998 10.4157 23.4384L11.1281 24.1402C11.3581 23.9066 11.4832 23.5871 11.4727 23.2594L10.4732 23.2913ZM10.4131 23.441C10.374 23.4813 10.319 23.5046 10.262 23.5046V24.5046C10.587 24.5046 10.9016 24.3735 11.1307 24.1375L10.4131 23.441ZM10.262 23.5046C10.2039 23.5046 10.1506 23.4818 10.111 23.441L9.39343 24.1375C9.62194 24.3729 9.93431 24.5046 10.262 24.5046V23.5046ZM10.1084 23.4384C10.0704 23.3998 10.0491 23.3455 10.0509 23.2913L9.05138 23.2594C9.04092 23.5871 9.16593 23.9066 9.39601 24.1402L10.1084 23.4384ZM10.0511 23.2754V14.846H9.05113V23.2754H10.0511ZM9.19733 14.4927L7.75724 15.9348L8.46485 16.6414L9.90493 15.1993L9.19733 14.4927ZM7.75749 15.9346C7.67367 16.0184 7.5403 16.0164 7.46039 15.9359L6.75073 16.6405C7.22334 17.1165 7.99187 17.1144 8.4646 16.6417L7.75749 15.9346ZM50.7693 15.9347C50.6863 16.0177 50.554 16.0177 50.471 15.9347L49.7639 16.6418C50.2374 17.1153 51.0029 17.1153 51.4764 16.6418L50.7693 15.9347ZM50.4712 15.9349L49.0332 14.4948L48.3256 15.2014L49.7636 16.6415L50.4712 15.9349ZM48.1794 14.8481V23.2754H49.1794V14.8481H48.1794ZM48.1795 23.2861C48.1808 23.3478 48.1575 23.4025 48.1221 23.4384L48.8345 24.1402C49.0672 23.904 49.1861 23.585 49.1793 23.2648L48.1795 23.2861ZM48.1195 23.4411C48.0804 23.4813 48.0254 23.5046 47.9685 23.5046V24.5046C48.2934 24.5046 48.608 24.3735 48.8371 24.1376L48.1195 23.4411ZM47.9685 23.5046C47.9103 23.5046 47.857 23.4819 47.8174 23.4411L47.0999 24.1376C47.3284 24.373 47.6407 24.5046 47.9685 24.5046V23.5046ZM47.8149 23.4384C47.7768 23.3998 47.7556 23.3456 47.7573 23.2914L46.7578 23.2595C46.7474 23.5872 46.8724 23.9066 47.1024 24.1402L47.8149 23.4384ZM47.7576 23.2754V14.8461H46.7576V23.2754H47.7576ZM46.9035 14.493L45.4655 15.9351L46.1736 16.6412L47.6116 15.1991L46.9035 14.493ZM45.4753 15.9255C45.3914 16.0051 45.2601 16.0028 45.1798 15.9224L44.4727 16.6296C44.9368 17.0935 45.687 17.1034 46.1637 16.6508L45.4753 15.9255ZM45.1798 15.9224C45.0995 15.8421 45.097 15.7109 45.1767 15.6269L44.4514 14.9385C43.9989 15.4152 44.0086 16.1655 44.4727 16.6296L45.1798 15.9224ZM45.1676 15.6363L47.8203 12.9835L47.1132 12.2764L44.4605 14.9292L45.1676 15.6363ZM47.1131 12.2765L47.1111 12.2786L47.8184 12.9855L47.8204 12.9835L47.1131 12.2765ZM47.8183 12.9856C47.8591 12.9448 47.9129 12.9228 47.9685 12.9228V11.9228C47.6462 11.9228 47.3385 12.0512 47.1112 12.2785L47.8183 12.9856ZM47.9685 12.9228C48.0247 12.9228 48.0768 12.9451 48.1139 12.9829L48.8264 12.2812C48.5995 12.0508 48.2901 11.9228 47.9685 11.9228V12.9228ZM48.1166 12.9856L50.7694 15.6383L51.4765 14.9312L48.8237 12.2785L48.1166 12.9856ZM51.6229 15.2847V15.2827H50.6229V15.2847H51.6229ZM50.7694 15.6363C50.853 15.72 50.8512 15.8533 50.7706 15.9334L51.4751 16.643C51.9511 16.1706 51.9493 15.402 51.4765 14.9292L50.7694 15.6363ZM33.4477 4.51331C33.364 4.42959 33.3658 4.29627 33.4464 4.21626L32.7419 3.5066C32.2659 3.97912 32.2678 4.74759 32.7406 5.22042L33.4477 4.51331ZM33.4477 4.21499L36.1004 1.56226L35.3933 0.855151L32.7406 3.50788L33.4477 4.21499ZM36.1031 1.55955C36.1377 1.52439 36.1886 1.50152 36.2486 1.50152V0.501524C35.9307 0.501524 35.6201 0.624908 35.3906 0.857856L36.1031 1.55955ZM36.2486 1.50152C36.3085 1.50152 36.3594 1.52439 36.394 1.55954L37.1065 0.85787C36.8771 0.624895 36.5664 0.501524 36.2486 0.501524V1.50152ZM36.3967 1.56226L39.0494 4.21499L39.7565 3.50788L37.1038 0.855151L36.3967 1.56226ZM39.0601 4.22537C39.1007 4.26354 39.1238 4.31657 39.1244 4.37252L40.1244 4.36187C40.1209 4.03596 39.9856 3.72338 39.7458 3.49749L39.0601 4.22537ZM39.1244 4.37246C39.125 4.43237 39.1018 4.48591 39.0643 4.52286L39.7661 5.23525C40.0007 5.00407 40.1278 4.68794 40.1244 4.36193L39.1244 4.37246ZM39.059 4.52817C39.022 4.56567 38.9685 4.58892 38.9086 4.58829L38.8981 5.58823C39.2241 5.59167 39.5402 5.46462 39.7714 5.22994L39.059 4.52817ZM38.9086 4.58829C38.8558 4.58773 38.8004 4.56468 38.759 4.52137L38.0361 5.21236C38.2588 5.44529 38.5689 5.58473 38.898 5.58823L38.9086 4.58829ZM38.7516 4.51381L37.3176 3.07576L36.6095 3.78186L38.0435 5.21992L38.7516 4.51381ZM36.4636 3.42881V11.852H37.4636V3.42881H36.4636ZM36.4637 11.8625C36.4649 11.9212 36.443 11.977 36.4016 12.0196L37.1192 12.7161C37.346 12.4825 37.4703 12.1686 37.4634 11.8414L36.4637 11.8625ZM36.399 12.0224C36.3635 12.0595 36.3103 12.0832 36.2527 12.0832V13.0832C36.5769 13.0832 36.8933 12.9525 37.1219 12.7134L36.399 12.0224ZM36.2527 12.0832C36.1922 12.0832 36.1392 12.059 36.1043 12.0224L35.3814 12.7134C35.6105 12.953 35.9271 13.0832 36.2527 13.0832V12.0832ZM36.1016 12.0196C36.0603 11.977 36.0384 11.9212 36.0396 11.8625L35.0398 11.8414C35.0329 12.1686 35.1573 12.4825 35.384 12.7161L36.1016 12.0196ZM36.0397 11.852V3.42673H35.0397V11.852H36.0397ZM35.1862 3.07318L33.7461 4.51326L34.4532 5.22037L35.8933 3.78028L35.1862 3.07318ZM33.7461 4.51326C33.7053 4.55408 33.6514 4.57602 33.5959 4.57602V5.57602C33.9182 5.57602 34.2259 5.44766 34.4532 5.22037L33.7461 4.51326ZM33.5959 4.57602C33.543 4.57602 33.489 4.55457 33.4477 4.51331L32.7406 5.22042C32.9674 5.44727 33.2751 5.57602 33.5959 5.57602V4.57602ZM19.1748 4.51331C19.0911 4.42959 19.0929 4.29627 19.1735 4.21626L18.4689 3.5066C17.993 3.97912 17.9948 4.74759 18.4677 5.22042L19.1748 4.51331ZM19.1748 4.21499L21.8275 1.56226L21.1204 0.855151L18.4677 3.50788L19.1748 4.21499ZM21.8288 1.56096C21.9088 1.48041 22.0421 1.47852 22.1258 1.56227L22.8329 0.855138C22.3601 0.382347 21.5916 0.380457 21.1191 0.85645L21.8288 1.56096ZM22.1258 1.56226L24.7786 4.21499L25.4857 3.50788L22.8329 0.855151L22.1258 1.56226ZM25.1321 3.36143H25.1301V4.36143H25.1321V3.36143ZM24.7687 4.20698C24.8453 4.28704 24.8465 4.41835 24.763 4.50248L25.4728 5.20692C25.9336 4.74257 25.9471 3.99237 25.4915 3.51588L24.7687 4.20698ZM24.7643 4.50114C24.684 4.58147 24.5528 4.58389 24.4688 4.50424L23.7804 5.22953C24.2571 5.68205 25.0074 5.67229 25.4714 5.20825L24.7643 4.50114ZM24.4784 4.51358L23.0424 3.07553L22.3348 3.78213L23.7708 5.22019L24.4784 4.51358ZM22.1886 3.42883V11.852H23.1886V3.42883H22.1886ZM22.1888 11.8678C22.1906 11.9227 22.1702 11.9769 22.1287 12.0197L22.8463 12.7161C23.0729 12.4826 23.1988 12.1671 23.1883 11.8362L22.1888 11.8678ZM22.1287 12.0197C22.0891 12.0605 22.0359 12.0832 21.9777 12.0832V13.0832C22.3054 13.0832 22.6178 12.9516 22.8463 12.7161L22.1287 12.0197ZM21.9777 12.0832C21.9208 12.0832 21.8657 12.0599 21.8267 12.0197L21.1091 12.7161C21.3381 12.9521 21.6527 13.0832 21.9777 13.0832V12.0832ZM21.8267 12.0197C21.7878 11.9797 21.7654 11.9249 21.7667 11.8625L20.7669 11.8415C20.7601 12.165 20.8798 12.4799 21.1091 12.7161L21.8267 12.0197ZM21.7668 11.852V3.42675H20.7668V11.852H21.7668ZM20.9132 3.0732L19.4731 4.51328L20.1802 5.22039L21.6203 3.7803L20.9132 3.0732ZM19.4731 4.51328C19.4318 4.55464 19.3777 4.57604 19.325 4.57604V5.57604C19.646 5.57604 19.9535 5.44714 20.1802 5.22039L19.4731 4.51328ZM19.325 4.57604C19.2694 4.57604 19.2155 4.55406 19.1748 4.51331L18.4677 5.22042C18.695 5.44778 19.0028 5.57604 19.325 5.57604V4.57604Z" fill="url(#paint1_linear_2482_9848)" mask="url(#path-1-outside-1_2482_9848)"/>
<defs>
<linearGradient id="paint0_linear_2482_9848" x1="26.1658" y1="1" x2="26.1658" y2="53" gradientUnits="userSpaceOnUse">
<stop stop-color="#63388B"/>
<stop offset="1" stop-color="#327EB2"/>
</linearGradient>
<linearGradient id="paint1_linear_2482_9848" x1="26.1658" y1="1" x2="26.1658" y2="53" gradientUnits="userSpaceOnUse">
<stop stop-color="#594693"/>
<stop offset="1" stop-color="#3B80B8"/>
</linearGradient>
</defs>
</svg>
