<svg width="50" height="50" viewBox="0 0 50 50" fill="none" xmlns="http://www.w3.org/2000/svg">
<mask id="path-1-outside-1_1_13972" maskUnits="userSpaceOnUse" x="0" y="0" width="50" height="50" fill="black">
<rect fill="white" width="50" height="50"/>
<path d="M23.4516 25.8822V19.3478C23.4516 18.9762 23.1884 18.6587 22.8322 18.5891L14.3158 16.8859C14.2152 16.8626 14.1145 16.8626 14.0139 16.8859L5.49744 18.5891C5.13357 18.6588 4.87808 18.9762 4.87808 19.3478V25.8822C4.87808 30.5738 7.17744 34.9867 11.0177 37.6807L13.7196 39.5774C13.8512 39.6703 14.006 39.7168 14.1609 39.7168C14.3157 39.7168 14.4706 39.6703 14.6022 39.5774L17.3041 37.6807C21.1519 34.9865 23.4437 30.5814 23.4437 25.8822H23.4516ZM14.1612 37.9908L11.9006 36.4115C8.47085 34.0115 6.41948 30.0708 6.41948 25.8825V19.9832L14.1615 18.4348L21.9034 19.9832V25.8825C21.9034 30.0708 19.8518 34.0114 16.4224 36.4115L14.1612 37.9908ZM17.6142 25.031C17.9161 25.3329 17.9161 25.8207 17.6142 26.1226L14.1303 29.6064C13.9755 29.7613 13.7819 29.8309 13.5806 29.8309C13.3793 29.8309 13.1858 29.7535 13.0309 29.6064L10.7083 27.2838C10.4064 26.9819 10.4064 26.4941 10.7083 26.1922C11.0103 25.8903 11.498 25.8903 11.7999 26.1922L13.5728 27.9651L16.507 25.0309C16.809 24.729 17.2967 24.729 17.5986 25.0309L17.6142 25.031ZM46.6774 1H18.8063C17.5289 1 16.4837 2.04517 16.4837 3.32258V12.6129H3.32259C2.04518 12.6129 1 13.6581 1 14.9355V41.2581C1 42.5355 2.04518 43.5806 3.32259 43.5806H16.4837V46.6774C16.4837 47.9548 17.5289 49 18.8063 49H46.6774C47.9548 49 49 47.9548 49 46.6774V3.32258C49 2.04517 47.9548 1 46.6774 1ZM38.161 2.54839V4.09677C38.161 4.52258 37.8126 4.87097 37.3868 4.87097H28.0964C27.6706 4.87097 27.3222 4.52258 27.3222 4.09677V2.54839H38.161ZM18.0318 3.32258C18.0318 2.89677 18.3802 2.54839 18.806 2.54839H25.7736V4.09677C25.7736 5.37418 26.8188 6.41935 28.0962 6.41935H37.3865C38.664 6.41935 39.7091 5.37418 39.7091 4.09677V2.54839H46.6767C47.1025 2.54839 47.4509 2.89677 47.4509 3.32258V42.0323H27.1825C27.2677 41.7923 27.3218 41.529 27.3218 41.2581V36.0248L29.2883 34.0583C29.4354 33.9112 29.5128 33.7176 29.5128 33.5086C29.5128 33.2995 29.4277 33.106 29.2883 32.9589L27.3218 30.9924V14.9199C27.3218 13.6425 26.2767 12.5973 24.9993 12.5973H18.0317L18.0318 3.32258ZM2.5479 41.2578V14.9352C2.5479 14.5094 2.89629 14.161 3.3221 14.161H24.9996C25.4254 14.161 25.7738 14.5094 25.7738 14.9352V31.3249C25.7738 31.5339 25.859 31.7274 25.9983 31.8745L27.6396 33.5158L25.9983 35.1571C25.8512 35.3042 25.7738 35.4978 25.7738 35.7068V41.2577C25.7738 41.6835 25.4254 42.0319 24.9996 42.0319H3.3221C2.89629 42.0319 2.5479 41.6836 2.5479 41.2578ZM46.6769 47.4514H18.8058C18.38 47.4514 18.0316 47.103 18.0316 46.6772V43.5804H47.4511V46.6772C47.4511 47.103 47.1027 47.4514 46.6769 47.4514ZM32.2379 26.1302C33.647 27.3999 35.4741 28.0967 37.3865 28.0967C37.6265 28.0967 37.8665 28.0889 38.0988 28.0657C39.2756 27.9573 40.4059 27.5857 41.4046 26.9741C41.8072 26.7341 42.1866 26.4477 42.5349 26.1302C44.184 24.6593 45.1285 22.5534 45.1285 20.3549C45.1285 16.0891 41.6524 12.613 37.3865 12.613C33.1207 12.613 29.6446 16.0891 29.6446 20.3549C29.6446 22.5536 30.5889 24.6671 32.2379 26.1302ZM36.4341 26.4708C36.4341 26.4708 36.3644 26.4631 36.3257 26.4554C36.0315 26.4012 35.7451 26.3315 35.4586 26.2386C35.4122 26.2231 35.3657 26.2076 35.3193 26.1921C35.0406 26.0915 34.7773 25.9754 34.5218 25.8438C34.4754 25.8205 34.4289 25.7973 34.3825 25.7663C34.127 25.627 33.8793 25.4644 33.6393 25.2863C33.6238 25.2786 33.616 25.2631 33.6005 25.2554C33.8096 24.6515 34.3825 24.2257 35.056 24.2257H39.7012C40.3748 24.2257 40.9477 24.6515 41.1567 25.2554C41.1412 25.2631 41.1335 25.2786 41.118 25.2863C40.8857 25.4644 40.638 25.627 40.3748 25.7663C40.3283 25.7896 40.2819 25.8128 40.2432 25.8438C39.9877 25.9831 39.7167 26.0992 39.438 26.1921C39.3915 26.2076 39.3451 26.2231 39.2986 26.2386C39.0122 26.3315 38.7258 26.4089 38.4315 26.4554C38.3928 26.4554 38.3619 26.4631 38.3231 26.4708C38.0135 26.5173 37.6961 26.5483 37.3709 26.5483C37.0457 26.5483 36.7361 26.5173 36.4186 26.4708H36.4341ZM35.0638 20.3546C35.0638 19.0772 36.109 18.032 37.3864 18.032C38.6638 18.032 39.709 19.0772 39.709 20.3546C39.709 21.632 38.6638 22.6772 37.3864 22.6772C36.109 22.6772 35.0638 21.632 35.0638 20.3546ZM37.3864 14.161C40.8006 14.161 43.58 16.9404 43.58 20.3546C43.58 21.7172 43.1232 23.0255 42.3103 24.1017C41.8845 23.4281 41.2032 22.9404 40.398 22.7623C40.9322 22.0965 41.2574 21.2682 41.2574 20.3546C41.2574 18.2178 39.5232 16.4836 37.3864 16.4836C35.2496 16.4836 33.5154 18.2178 33.5154 20.3546C33.5154 21.2682 33.8483 22.0965 34.3748 22.7623C33.5696 22.9404 32.896 23.4282 32.4625 24.1017C31.6496 23.0333 31.1928 21.7172 31.1928 20.3546C31.1928 16.9404 33.9722 14.161 37.3864 14.161ZM42.806 31.9677C42.806 32.3936 42.4576 32.7419 42.0318 32.7419H32.7415C32.3156 32.7419 31.9673 32.3936 31.9673 31.9677C31.9673 31.5419 32.3156 31.1935 32.7415 31.1935H42.0318C42.4576 31.1935 42.806 31.5419 42.806 31.9677ZM42.806 35.8387C42.806 36.2645 42.4576 36.6129 42.0318 36.6129H32.7415C32.3156 36.6129 31.9673 36.2645 31.9673 35.8387C31.9673 35.4129 32.3156 35.0645 32.7415 35.0645H42.0318C42.4576 35.0645 42.806 35.4129 42.806 35.8387Z"/>
</mask>
<path d="M23.4516 25.8822V19.3478C23.4516 18.9762 23.1884 18.6587 22.8322 18.5891L14.3158 16.8859C14.2152 16.8626 14.1145 16.8626 14.0139 16.8859L5.49744 18.5891C5.13357 18.6588 4.87808 18.9762 4.87808 19.3478V25.8822C4.87808 30.5738 7.17744 34.9867 11.0177 37.6807L13.7196 39.5774C13.8512 39.6703 14.006 39.7168 14.1609 39.7168C14.3157 39.7168 14.4706 39.6703 14.6022 39.5774L17.3041 37.6807C21.1519 34.9865 23.4437 30.5814 23.4437 25.8822H23.4516ZM14.1612 37.9908L11.9006 36.4115C8.47085 34.0115 6.41948 30.0708 6.41948 25.8825V19.9832L14.1615 18.4348L21.9034 19.9832V25.8825C21.9034 30.0708 19.8518 34.0114 16.4224 36.4115L14.1612 37.9908ZM17.6142 25.031C17.9161 25.3329 17.9161 25.8207 17.6142 26.1226L14.1303 29.6064C13.9755 29.7613 13.7819 29.8309 13.5806 29.8309C13.3793 29.8309 13.1858 29.7535 13.0309 29.6064L10.7083 27.2838C10.4064 26.9819 10.4064 26.4941 10.7083 26.1922C11.0103 25.8903 11.498 25.8903 11.7999 26.1922L13.5728 27.9651L16.507 25.0309C16.809 24.729 17.2967 24.729 17.5986 25.0309L17.6142 25.031ZM46.6774 1H18.8063C17.5289 1 16.4837 2.04517 16.4837 3.32258V12.6129H3.32259C2.04518 12.6129 1 13.6581 1 14.9355V41.2581C1 42.5355 2.04518 43.5806 3.32259 43.5806H16.4837V46.6774C16.4837 47.9548 17.5289 49 18.8063 49H46.6774C47.9548 49 49 47.9548 49 46.6774V3.32258C49 2.04517 47.9548 1 46.6774 1ZM38.161 2.54839V4.09677C38.161 4.52258 37.8126 4.87097 37.3868 4.87097H28.0964C27.6706 4.87097 27.3222 4.52258 27.3222 4.09677V2.54839H38.161ZM18.0318 3.32258C18.0318 2.89677 18.3802 2.54839 18.806 2.54839H25.7736V4.09677C25.7736 5.37418 26.8188 6.41935 28.0962 6.41935H37.3865C38.664 6.41935 39.7091 5.37418 39.7091 4.09677V2.54839H46.6767C47.1025 2.54839 47.4509 2.89677 47.4509 3.32258V42.0323H27.1825C27.2677 41.7923 27.3218 41.529 27.3218 41.2581V36.0248L29.2883 34.0583C29.4354 33.9112 29.5128 33.7176 29.5128 33.5086C29.5128 33.2995 29.4277 33.106 29.2883 32.9589L27.3218 30.9924V14.9199C27.3218 13.6425 26.2767 12.5973 24.9993 12.5973H18.0317L18.0318 3.32258ZM2.5479 41.2578V14.9352C2.5479 14.5094 2.89629 14.161 3.3221 14.161H24.9996C25.4254 14.161 25.7738 14.5094 25.7738 14.9352V31.3249C25.7738 31.5339 25.859 31.7274 25.9983 31.8745L27.6396 33.5158L25.9983 35.1571C25.8512 35.3042 25.7738 35.4978 25.7738 35.7068V41.2577C25.7738 41.6835 25.4254 42.0319 24.9996 42.0319H3.3221C2.89629 42.0319 2.5479 41.6836 2.5479 41.2578ZM46.6769 47.4514H18.8058C18.38 47.4514 18.0316 47.103 18.0316 46.6772V43.5804H47.4511V46.6772C47.4511 47.103 47.1027 47.4514 46.6769 47.4514ZM32.2379 26.1302C33.647 27.3999 35.4741 28.0967 37.3865 28.0967C37.6265 28.0967 37.8665 28.0889 38.0988 28.0657C39.2756 27.9573 40.4059 27.5857 41.4046 26.9741C41.8072 26.7341 42.1866 26.4477 42.5349 26.1302C44.184 24.6593 45.1285 22.5534 45.1285 20.3549C45.1285 16.0891 41.6524 12.613 37.3865 12.613C33.1207 12.613 29.6446 16.0891 29.6446 20.3549C29.6446 22.5536 30.5889 24.6671 32.2379 26.1302ZM36.4341 26.4708C36.4341 26.4708 36.3644 26.4631 36.3257 26.4554C36.0315 26.4012 35.7451 26.3315 35.4586 26.2386C35.4122 26.2231 35.3657 26.2076 35.3193 26.1921C35.0406 26.0915 34.7773 25.9754 34.5218 25.8438C34.4754 25.8205 34.4289 25.7973 34.3825 25.7663C34.127 25.627 33.8793 25.4644 33.6393 25.2863C33.6238 25.2786 33.616 25.2631 33.6005 25.2554C33.8096 24.6515 34.3825 24.2257 35.056 24.2257H39.7012C40.3748 24.2257 40.9477 24.6515 41.1567 25.2554C41.1412 25.2631 41.1335 25.2786 41.118 25.2863C40.8857 25.4644 40.638 25.627 40.3748 25.7663C40.3283 25.7896 40.2819 25.8128 40.2432 25.8438C39.9877 25.9831 39.7167 26.0992 39.438 26.1921C39.3915 26.2076 39.3451 26.2231 39.2986 26.2386C39.0122 26.3315 38.7258 26.4089 38.4315 26.4554C38.3928 26.4554 38.3619 26.4631 38.3231 26.4708C38.0135 26.5173 37.6961 26.5483 37.3709 26.5483C37.0457 26.5483 36.7361 26.5173 36.4186 26.4708H36.4341ZM35.0638 20.3546C35.0638 19.0772 36.109 18.032 37.3864 18.032C38.6638 18.032 39.709 19.0772 39.709 20.3546C39.709 21.632 38.6638 22.6772 37.3864 22.6772C36.109 22.6772 35.0638 21.632 35.0638 20.3546ZM37.3864 14.161C40.8006 14.161 43.58 16.9404 43.58 20.3546C43.58 21.7172 43.1232 23.0255 42.3103 24.1017C41.8845 23.4281 41.2032 22.9404 40.398 22.7623C40.9322 22.0965 41.2574 21.2682 41.2574 20.3546C41.2574 18.2178 39.5232 16.4836 37.3864 16.4836C35.2496 16.4836 33.5154 18.2178 33.5154 20.3546C33.5154 21.2682 33.8483 22.0965 34.3748 22.7623C33.5696 22.9404 32.896 23.4282 32.4625 24.1017C31.6496 23.0333 31.1928 21.7172 31.1928 20.3546C31.1928 16.9404 33.9722 14.161 37.3864 14.161ZM42.806 31.9677C42.806 32.3936 42.4576 32.7419 42.0318 32.7419H32.7415C32.3156 32.7419 31.9673 32.3936 31.9673 31.9677C31.9673 31.5419 32.3156 31.1935 32.7415 31.1935H42.0318C42.4576 31.1935 42.806 31.5419 42.806 31.9677ZM42.806 35.8387C42.806 36.2645 42.4576 36.6129 42.0318 36.6129H32.7415C32.3156 36.6129 31.9673 36.2645 31.9673 35.8387C31.9673 35.4129 32.3156 35.0645 32.7415 35.0645H42.0318C42.4576 35.0645 42.806 35.4129 42.806 35.8387Z" fill="url(#paint0_linear_1_13972)"/>
<path d="M23.4516 25.8822V19.3478C23.4516 18.9762 23.1884 18.6587 22.8322 18.5891L14.3158 16.8859C14.2152 16.8626 14.1145 16.8626 14.0139 16.8859L5.49744 18.5891C5.13357 18.6588 4.87808 18.9762 4.87808 19.3478V25.8822C4.87808 30.5738 7.17744 34.9867 11.0177 37.6807L13.7196 39.5774C13.8512 39.6703 14.006 39.7168 14.1609 39.7168C14.3157 39.7168 14.4706 39.6703 14.6022 39.5774L17.3041 37.6807C21.1519 34.9865 23.4437 30.5814 23.4437 25.8822H23.4516ZM14.1612 37.9908L11.9006 36.4115C8.47085 34.0115 6.41948 30.0708 6.41948 25.8825V19.9832L14.1615 18.4348L21.9034 19.9832V25.8825C21.9034 30.0708 19.8518 34.0114 16.4224 36.4115L14.1612 37.9908ZM17.6142 25.031C17.9161 25.3329 17.9161 25.8207 17.6142 26.1226L14.1303 29.6064C13.9755 29.7613 13.7819 29.8309 13.5806 29.8309C13.3793 29.8309 13.1858 29.7535 13.0309 29.6064L10.7083 27.2838C10.4064 26.9819 10.4064 26.4941 10.7083 26.1922C11.0103 25.8903 11.498 25.8903 11.7999 26.1922L13.5728 27.9651L16.507 25.0309C16.809 24.729 17.2967 24.729 17.5986 25.0309L17.6142 25.031ZM46.6774 1H18.8063C17.5289 1 16.4837 2.04517 16.4837 3.32258V12.6129H3.32259C2.04518 12.6129 1 13.6581 1 14.9355V41.2581C1 42.5355 2.04518 43.5806 3.32259 43.5806H16.4837V46.6774C16.4837 47.9548 17.5289 49 18.8063 49H46.6774C47.9548 49 49 47.9548 49 46.6774V3.32258C49 2.04517 47.9548 1 46.6774 1ZM38.161 2.54839V4.09677C38.161 4.52258 37.8126 4.87097 37.3868 4.87097H28.0964C27.6706 4.87097 27.3222 4.52258 27.3222 4.09677V2.54839H38.161ZM18.0318 3.32258C18.0318 2.89677 18.3802 2.54839 18.806 2.54839H25.7736V4.09677C25.7736 5.37418 26.8188 6.41935 28.0962 6.41935H37.3865C38.664 6.41935 39.7091 5.37418 39.7091 4.09677V2.54839H46.6767C47.1025 2.54839 47.4509 2.89677 47.4509 3.32258V42.0323H27.1825C27.2677 41.7923 27.3218 41.529 27.3218 41.2581V36.0248L29.2883 34.0583C29.4354 33.9112 29.5128 33.7176 29.5128 33.5086C29.5128 33.2995 29.4277 33.106 29.2883 32.9589L27.3218 30.9924V14.9199C27.3218 13.6425 26.2767 12.5973 24.9993 12.5973H18.0317L18.0318 3.32258ZM2.5479 41.2578V14.9352C2.5479 14.5094 2.89629 14.161 3.3221 14.161H24.9996C25.4254 14.161 25.7738 14.5094 25.7738 14.9352V31.3249C25.7738 31.5339 25.859 31.7274 25.9983 31.8745L27.6396 33.5158L25.9983 35.1571C25.8512 35.3042 25.7738 35.4978 25.7738 35.7068V41.2577C25.7738 41.6835 25.4254 42.0319 24.9996 42.0319H3.3221C2.89629 42.0319 2.5479 41.6836 2.5479 41.2578ZM46.6769 47.4514H18.8058C18.38 47.4514 18.0316 47.103 18.0316 46.6772V43.5804H47.4511V46.6772C47.4511 47.103 47.1027 47.4514 46.6769 47.4514ZM32.2379 26.1302C33.647 27.3999 35.4741 28.0967 37.3865 28.0967C37.6265 28.0967 37.8665 28.0889 38.0988 28.0657C39.2756 27.9573 40.4059 27.5857 41.4046 26.9741C41.8072 26.7341 42.1866 26.4477 42.5349 26.1302C44.184 24.6593 45.1285 22.5534 45.1285 20.3549C45.1285 16.0891 41.6524 12.613 37.3865 12.613C33.1207 12.613 29.6446 16.0891 29.6446 20.3549C29.6446 22.5536 30.5889 24.6671 32.2379 26.1302ZM36.4341 26.4708C36.4341 26.4708 36.3644 26.4631 36.3257 26.4554C36.0315 26.4012 35.7451 26.3315 35.4586 26.2386C35.4122 26.2231 35.3657 26.2076 35.3193 26.1921C35.0406 26.0915 34.7773 25.9754 34.5218 25.8438C34.4754 25.8205 34.4289 25.7973 34.3825 25.7663C34.127 25.627 33.8793 25.4644 33.6393 25.2863C33.6238 25.2786 33.616 25.2631 33.6005 25.2554C33.8096 24.6515 34.3825 24.2257 35.056 24.2257H39.7012C40.3748 24.2257 40.9477 24.6515 41.1567 25.2554C41.1412 25.2631 41.1335 25.2786 41.118 25.2863C40.8857 25.4644 40.638 25.627 40.3748 25.7663C40.3283 25.7896 40.2819 25.8128 40.2432 25.8438C39.9877 25.9831 39.7167 26.0992 39.438 26.1921C39.3915 26.2076 39.3451 26.2231 39.2986 26.2386C39.0122 26.3315 38.7258 26.4089 38.4315 26.4554C38.3928 26.4554 38.3619 26.4631 38.3231 26.4708C38.0135 26.5173 37.6961 26.5483 37.3709 26.5483C37.0457 26.5483 36.7361 26.5173 36.4186 26.4708H36.4341ZM35.0638 20.3546C35.0638 19.0772 36.109 18.032 37.3864 18.032C38.6638 18.032 39.709 19.0772 39.709 20.3546C39.709 21.632 38.6638 22.6772 37.3864 22.6772C36.109 22.6772 35.0638 21.632 35.0638 20.3546ZM37.3864 14.161C40.8006 14.161 43.58 16.9404 43.58 20.3546C43.58 21.7172 43.1232 23.0255 42.3103 24.1017C41.8845 23.4281 41.2032 22.9404 40.398 22.7623C40.9322 22.0965 41.2574 21.2682 41.2574 20.3546C41.2574 18.2178 39.5232 16.4836 37.3864 16.4836C35.2496 16.4836 33.5154 18.2178 33.5154 20.3546C33.5154 21.2682 33.8483 22.0965 34.3748 22.7623C33.5696 22.9404 32.896 23.4282 32.4625 24.1017C31.6496 23.0333 31.1928 21.7172 31.1928 20.3546C31.1928 16.9404 33.9722 14.161 37.3864 14.161ZM42.806 31.9677C42.806 32.3936 42.4576 32.7419 42.0318 32.7419H32.7415C32.3156 32.7419 31.9673 32.3936 31.9673 31.9677C31.9673 31.5419 32.3156 31.1935 32.7415 31.1935H42.0318C42.4576 31.1935 42.806 31.5419 42.806 31.9677ZM42.806 35.8387C42.806 36.2645 42.4576 36.6129 42.0318 36.6129H32.7415C32.3156 36.6129 31.9673 36.2645 31.9673 35.8387C31.9673 35.4129 32.3156 35.0645 32.7415 35.0645H42.0318C42.4576 35.0645 42.806 35.4129 42.806 35.8387Z" stroke="url(#paint1_linear_1_13972)" stroke-width="0.6" mask="url(#path-1-outside-1_1_13972)"/>
<defs>
<linearGradient id="paint0_linear_1_13972" x1="25" y1="1" x2="25" y2="49" gradientUnits="userSpaceOnUse">
<stop stop-color="#327EB2"/>
<stop offset="1" stop-color="#63388B"/>
</linearGradient>
<linearGradient id="paint1_linear_1_13972" x1="25" y1="1" x2="25" y2="49" gradientUnits="userSpaceOnUse">
<stop stop-color="#3E6DA8"/>
<stop offset="1" stop-color="#5D4190"/>
</linearGradient>
</defs>
</svg>
