<svg width="51" height="54" viewBox="0 0 51 54" fill="none" xmlns="http://www.w3.org/2000/svg">
<path d="M27.0162 53H4.93517C2.76592 53 1 51.2389 1 49.0755V4.92455C1 2.76115 2.76592 1 4.93517 1H14.6132C15.1567 1 15.597 1.43906 15.597 1.98114C15.597 2.52322 15.1567 2.96228 14.6132 2.96228H4.93517C3.85051 2.96228 2.96759 3.84282 2.96759 4.92455V49.0755C2.96759 50.1572 3.85051 51.0377 4.93517 51.0377H27.0162C27.5598 51.0377 28 51.4768 28 52.0189C28 52.5609 27.5598 53 27.0162 53Z" fill="url(#paint0_linear_1_2)" stroke="url(#paint1_linear_1_2)" stroke-width="0.5"/>
<path d="M43.0564 27C42.5351 27 42.1129 26.561 42.1129 26.0191V4.92375C42.1129 3.84224 41.2661 2.96187 40.2258 2.96187H30.9436C30.4222 2.96187 30 2.5229 30 1.98094C30 1.43897 30.4222 1 30.9436 1H40.2258C42.3063 1 44 2.76079 44 4.92375V26.0191C44 26.561 43.5778 27 43.0564 27Z" fill="url(#paint2_linear_1_2)" stroke="url(#paint3_linear_1_2)" stroke-width="0.5"/>
<path d="M38 53C31.3832 53 26 47.6171 26 41C26 34.3829 31.3829 29 38 29C44.6171 29 50 34.3829 50 41C50 47.6171 44.6171 53 38 53ZM38 30.9554C32.4607 30.9554 27.9548 35.4611 27.9548 41.0006C27.9548 46.5399 32.4604 51.0459 38 51.0459C43.5393 51.0459 48.0452 46.5402 48.0452 41.0006C48.0452 35.4613 43.5396 30.9554 38 30.9554Z" fill="url(#paint4_linear_1_2)" stroke="url(#paint5_linear_1_2)" stroke-width="0.5"/>
<path d="M38.2764 47.9976C36.7215 47.9976 34.93 47.3677 33.2744 45.6393C32.892 45.24 32.9121 44.6126 33.3172 44.2357C33.7198 43.8587 34.3589 43.8786 34.7413 44.2778C36.5629 46.1799 38.4953 46.2667 39.7005 45.7161C40.4453 45.3739 40.9032 44.7961 40.8428 44.2778C40.7749 43.6876 39.9496 42.9015 37.8386 42.465C34.1147 41.6963 33.3297 39.9653 33.1887 39.0032C33.0026 37.6938 33.8102 36.3621 35.2469 35.6107C36.9629 34.7129 39.9369 34.5344 42.6692 36.9746C43.0818 37.3416 43.112 37.969 42.7396 38.3757C42.3673 38.7799 41.7307 38.8121 41.318 38.4451C39.358 36.6943 37.3325 36.7687 36.1902 37.3639C35.5209 37.7136 35.1158 38.2616 35.1813 38.7253C35.2643 39.3056 36.1147 40.0818 38.2509 40.5232C41.9773 41.2944 42.7246 43.0651 42.8403 44.0521C43.0013 45.4433 42.1031 46.8047 40.5481 47.5164C39.899 47.814 39.1215 48 38.2761 48L38.2764 47.9976Z" fill="url(#paint6_linear_1_2)" stroke="url(#paint7_linear_1_2)" stroke-width="0.5"/>
<path d="M38 49C37.4475 49 37 48.5794 37 48.0601V33.9399C37 33.4206 37.4475 33 38 33C38.5525 33 39 33.4206 39 33.9399V48.0601C39 48.5794 38.5525 49 38 49Z" fill="url(#paint8_linear_1_2)" stroke="url(#paint9_linear_1_2)" stroke-width="0.5"/>
<path d="M14.9851 32H7.01494C6.45419 32 6 31.5525 6 31C6 30.4475 6.45419 30 7.01494 30H14.9851C15.5458 30 16 30.4475 16 31C16 31.5525 15.5458 32 14.9851 32Z" fill="url(#paint10_linear_1_2)" stroke="url(#paint11_linear_1_2)" stroke-width="0.5"/>
<path d="M22.9832 37H7.01681C6.45502 37 6 36.5525 6 36C6 35.4475 6.45502 35 7.01681 35H22.9832C23.545 35 24 35.4475 24 36C24 36.5525 23.545 37 22.9832 37Z" fill="url(#paint12_linear_1_2)" stroke="url(#paint13_linear_1_2)" stroke-width="0.5"/>
<path d="M22.9832 43H7.01681C6.45502 43 6 42.5525 6 42C6 41.4475 6.45502 41 7.01681 41H22.9832C23.545 41 24 41.4475 24 42C24 42.5525 23.545 43 22.9832 43Z" fill="url(#paint14_linear_1_2)" stroke="url(#paint15_linear_1_2)" stroke-width="0.5"/>
<path d="M22.9832 48H7.01681C6.45502 48 6 47.5525 6 47C6 46.4475 6.45502 46 7.01681 46H22.9832C23.545 46 24 46.4475 24 47C24 47.5525 23.545 48 22.9832 48Z" fill="url(#paint16_linear_1_2)" stroke="url(#paint17_linear_1_2)" stroke-width="0.5"/>
<path d="M6.98769 24.9995C6.71114 24.9995 6.43707 24.8875 6.242 24.6635C5.88397 24.2568 5.92842 23.6407 6.34076 23.2901L18.3039 13.0332C18.6965 12.6972 19.2842 12.7167 19.6496 13.0795L26.0496 19.3939L37.3136 8.28492C37.6988 7.90503 38.3235 7.90503 38.7111 8.28492C39.0963 8.6648 39.0963 9.28092 38.7111 9.66319L26.748 21.4617C26.5628 21.6443 26.3109 21.7466 26.0492 21.7466C25.7875 21.7466 25.5356 21.6443 25.3504 21.4617L18.9011 15.1011L7.63455 24.7614C7.44689 24.9221 7.21729 24.9995 6.98769 24.9995Z" fill="url(#paint18_linear_1_2)" stroke="url(#paint19_linear_1_2)" stroke-width="0.5"/>
<path d="M38.0502 15C37.5254 15 37.1004 14.5755 37.1004 14.0515V9.89701H32.9498C32.425 9.89701 32 9.47255 32 8.94851C32 8.42446 32.425 8 32.9498 8H38.0502C38.575 8 39 8.42446 39 8.94851V14.0514C39 14.5755 38.575 15 38.0502 15Z" fill="url(#paint20_linear_1_2)" stroke="url(#paint21_linear_1_2)" stroke-width="0.5"/>
<defs>
<linearGradient id="paint0_linear_1_2" x1="14.5" y1="1" x2="14.5" y2="53" gradientUnits="userSpaceOnUse">
<stop stop-color="#63388B"/>
<stop offset="1" stop-color="#327EB2"/>
</linearGradient>
<linearGradient id="paint1_linear_1_2" x1="14.5" y1="1" x2="14.5" y2="53" gradientUnits="userSpaceOnUse">
<stop stop-color="#63388B"/>
<stop offset="1" stop-color="#327EB2"/>
</linearGradient>
<linearGradient id="paint2_linear_1_2" x1="37" y1="1" x2="37" y2="27" gradientUnits="userSpaceOnUse">
<stop stop-color="#63388B"/>
<stop offset="1" stop-color="#327EB2"/>
</linearGradient>
<linearGradient id="paint3_linear_1_2" x1="37" y1="1" x2="37" y2="27" gradientUnits="userSpaceOnUse">
<stop stop-color="#63388B"/>
<stop offset="1" stop-color="#327EB2"/>
</linearGradient>
<linearGradient id="paint4_linear_1_2" x1="38" y1="29" x2="38" y2="53" gradientUnits="userSpaceOnUse">
<stop stop-color="#63388B"/>
<stop offset="1" stop-color="#327EB2"/>
</linearGradient>
<linearGradient id="paint5_linear_1_2" x1="38" y1="29" x2="38" y2="53" gradientUnits="userSpaceOnUse">
<stop stop-color="#63388B"/>
<stop offset="1" stop-color="#327EB2"/>
</linearGradient>
<linearGradient id="paint6_linear_1_2" x1="38" y1="35" x2="38" y2="48" gradientUnits="userSpaceOnUse">
<stop stop-color="#63388B"/>
<stop offset="1" stop-color="#327EB2"/>
</linearGradient>
<linearGradient id="paint7_linear_1_2" x1="38" y1="35" x2="38" y2="48" gradientUnits="userSpaceOnUse">
<stop stop-color="#63388B"/>
<stop offset="1" stop-color="#327EB2"/>
</linearGradient>
<linearGradient id="paint8_linear_1_2" x1="38" y1="33" x2="38" y2="49" gradientUnits="userSpaceOnUse">
<stop stop-color="#63388B"/>
<stop offset="1" stop-color="#327EB2"/>
</linearGradient>
<linearGradient id="paint9_linear_1_2" x1="38" y1="33" x2="38" y2="49" gradientUnits="userSpaceOnUse">
<stop stop-color="#63388B"/>
<stop offset="1" stop-color="#327EB2"/>
</linearGradient>
<linearGradient id="paint10_linear_1_2" x1="11" y1="30" x2="11" y2="32" gradientUnits="userSpaceOnUse">
<stop stop-color="#63388B"/>
<stop offset="1" stop-color="#327EB2"/>
</linearGradient>
<linearGradient id="paint11_linear_1_2" x1="11" y1="30" x2="11" y2="32" gradientUnits="userSpaceOnUse">
<stop stop-color="#63388B"/>
<stop offset="1" stop-color="#327EB2"/>
</linearGradient>
<linearGradient id="paint12_linear_1_2" x1="15" y1="35" x2="15" y2="37" gradientUnits="userSpaceOnUse">
<stop stop-color="#63388B"/>
<stop offset="1" stop-color="#327EB2"/>
</linearGradient>
<linearGradient id="paint13_linear_1_2" x1="15" y1="35" x2="15" y2="37" gradientUnits="userSpaceOnUse">
<stop stop-color="#63388B"/>
<stop offset="1" stop-color="#327EB2"/>
</linearGradient>
<linearGradient id="paint14_linear_1_2" x1="15" y1="41" x2="15" y2="43" gradientUnits="userSpaceOnUse">
<stop stop-color="#63388B"/>
<stop offset="1" stop-color="#327EB2"/>
</linearGradient>
<linearGradient id="paint15_linear_1_2" x1="15" y1="41" x2="15" y2="43" gradientUnits="userSpaceOnUse">
<stop stop-color="#63388B"/>
<stop offset="1" stop-color="#327EB2"/>
</linearGradient>
<linearGradient id="paint16_linear_1_2" x1="15" y1="46" x2="15" y2="48" gradientUnits="userSpaceOnUse">
<stop stop-color="#63388B"/>
<stop offset="1" stop-color="#327EB2"/>
</linearGradient>
<linearGradient id="paint17_linear_1_2" x1="15" y1="46" x2="15" y2="48" gradientUnits="userSpaceOnUse">
<stop stop-color="#63388B"/>
<stop offset="1" stop-color="#327EB2"/>
</linearGradient>
<linearGradient id="paint18_linear_1_2" x1="22.5" y1="8" x2="22.5" y2="25" gradientUnits="userSpaceOnUse">
<stop stop-color="#63388B"/>
<stop offset="1" stop-color="#327EB2"/>
</linearGradient>
<linearGradient id="paint19_linear_1_2" x1="22.5" y1="8" x2="22.5" y2="25" gradientUnits="userSpaceOnUse">
<stop stop-color="#63388B"/>
<stop offset="1" stop-color="#327EB2"/>
</linearGradient>
<linearGradient id="paint20_linear_1_2" x1="35.5" y1="8" x2="35.5" y2="15" gradientUnits="userSpaceOnUse">
<stop stop-color="#63388B"/>
<stop offset="1" stop-color="#327EB2"/>
</linearGradient>
<linearGradient id="paint21_linear_1_2" x1="35.5" y1="8" x2="35.5" y2="15" gradientUnits="userSpaceOnUse">
<stop stop-color="#63388B"/>
<stop offset="1" stop-color="#327EB2"/>
</linearGradient>
</defs>
</svg>
