<svg width="49" height="40" viewBox="0 0 49 40" fill="none" xmlns="http://www.w3.org/2000/svg">
<path d="M36.015 20.7565H42.4696C43.0723 22.0368 44.4856 22.7289 45.8676 22.4191C47.2495 22.1094 48.2345 20.8823 48.2345 19.4641C48.2345 18.0483 47.2495 16.8213 45.8676 16.5115C44.4856 16.2017 43.0723 16.8915 42.4696 18.1742H36.015V12.7142C36.015 11.5792 35.4196 10.5288 34.4467 9.94551L37.5325 4.64045C37.6462 4.442 37.8568 4.31857 38.0867 4.31857H42.489C43.0917 5.59885 44.505 6.29103 45.887 5.98124C47.2689 5.67146 48.2539 4.4444 48.2539 3.02621C48.2539 1.61037 47.2689 0.383381 45.887 0.0735973C44.505 -0.236187 43.0917 0.453567 42.489 1.73627H38.0867C36.9371 1.73627 35.8746 2.34858 35.2986 3.34331L32.0725 8.9315L25.0442 6.08533C24.2697 5.77071 23.4033 5.77071 22.6288 6.08533L16.0918 8.72574L12.948 3.3166C12.3623 2.33161 11.295 1.73138 10.1478 1.74346H5.76487C5.16224 0.465599 3.75369 -0.224166 2.37416 0.0856179C0.994632 0.395402 0.014475 1.62004 0.014475 3.0334C0.014475 4.44676 0.994632 5.6714 2.37416 5.98118C3.75369 6.29096 5.16222 5.60121 5.76487 4.32334H10.1672C10.3971 4.32576 10.6077 4.44919 10.7214 4.64765L13.6765 9.73244H13.6789C12.4616 10.2237 11.6629 11.4024 11.658 12.7141V18.2007H5.7649C5.16227 16.918 3.74888 16.2282 2.36694 16.538C0.98499 16.8454 0 18.0749 0 19.4906C0 20.9064 0.98499 22.1359 2.36694 22.4433C3.74888 22.753 5.16224 22.0633 5.7649 20.7806H11.6774V21.601C11.6774 24.3552 12.6165 27.0271 14.3372 29.1783C14.2888 29.2316 14.2453 29.2897 14.2065 29.3526L10.7215 35.3619V35.3595C10.6077 35.5579 10.3972 35.6814 10.1673 35.6838H5.76491C5.16228 34.4011 3.7489 33.7113 2.36695 34.0211C0.985008 34.3285 1.89077e-05 35.558 1.89077e-05 36.9737C1.89077e-05 38.3895 0.985008 39.619 2.36695 39.9263C3.7489 40.2361 5.16226 39.5464 5.76491 38.2637H10.1673C11.3169 38.2637 12.3793 37.6514 12.9553 36.6566L16.1814 31.0612C18.4104 32.8739 21.2106 33.8348 24.0834 33.7766C26.9537 33.7161 29.7127 32.6416 31.8645 30.7393L35.2988 36.6567C35.8748 37.6514 36.9372 38.2637 38.0869 38.2637H42.4819C43.087 39.5464 44.498 40.2362 45.8823 39.9264C47.2643 39.619 48.2468 38.3896 48.2468 36.9738C48.2468 35.558 47.2643 34.3285 45.8823 34.0212C44.498 33.7114 43.087 34.4011 42.4819 35.6839H38.0869C37.8569 35.6814 37.6464 35.558 37.5326 35.3595L34.0403 29.3502V29.3526C33.929 29.159 33.7668 28.9993 33.5756 28.888C35.1584 26.7873 36.0152 24.2291 36.0152 21.6006L36.015 20.7565ZM23.8367 31.1727C21.2931 31.1678 18.8535 30.1562 17.0556 28.358C15.255 26.5574 14.2433 24.1202 14.2409 21.5743V12.7139C14.2384 12.4501 14.3982 12.2129 14.6402 12.1137L23.5973 8.50517C23.7498 8.4374 23.924 8.4374 24.0765 8.50517L33.0336 12.0677C33.2756 12.1693 33.4353 12.4065 33.4329 12.6679V21.5742C33.4305 24.1202 32.4189 26.5574 30.6182 28.3578C28.82 30.156 26.3802 31.1678 23.8367 31.1727Z" fill="url(#paint0_linear_2482_9852)"/>
<path d="M26.9481 17.0631L22.5869 21.4267L20.7282 19.5753C20.2224 19.0694 19.4044 19.0694 18.901 19.5753C18.3976 20.0787 18.3976 20.8967 18.901 21.4001L20.7597 23.2515V23.2539C21.2437 23.738 21.9021 24.0115 22.5869 24.0115C23.2718 24.0115 23.9277 23.738 24.4117 23.2539L28.7754 18.8903C29.2788 18.3869 29.2788 17.5689 28.7754 17.0631C28.272 16.5597 27.4539 16.5597 26.9481 17.0631Z" fill="url(#paint1_linear_2482_9852)"/>
<defs>
<linearGradient id="paint0_linear_2482_9852" x1="24.127" y1="0" x2="24.127" y2="40" gradientUnits="userSpaceOnUse">
<stop stop-color="#327EB2"/>
<stop offset="1" stop-color="#63388B"/>
</linearGradient>
<linearGradient id="paint1_linear_2482_9852" x1="23.8382" y1="16.6855" x2="23.8382" y2="24.0115" gradientUnits="userSpaceOnUse">
<stop stop-color="#327EB2"/>
<stop offset="1" stop-color="#63388B"/>
</linearGradient>
</defs>
</svg>
