<svg width="42" height="58" viewBox="0 0 42 58" fill="none" xmlns="http://www.w3.org/2000/svg">
<path d="M36 45.1212H30.1667V43.4242H31C32.3261 43.4242 33.5978 42.8879 34.5355 41.9331C35.4732 40.9784 36 39.6835 36 38.3333V30.2642C36.8923 29.5635 37.6149 28.6637 38.1121 27.634C38.6092 26.6043 38.8678 25.4722 38.8678 24.3249C38.8678 23.1775 38.6092 22.0454 38.1121 21.0157C37.6149 19.986 36.8923 19.0862 36 18.3855V12.8788C36 11.5286 35.4732 10.2337 34.5355 9.27897C33.5978 8.32424 32.3261 7.78788 31 7.78788H21.8333V1.84848C21.8333 1.62345 21.7455 1.40764 21.5893 1.24851C21.433 1.08939 21.221 1 21 1C20.779 1 20.567 1.08939 20.4107 1.24851C20.2545 1.40764 20.1667 1.62345 20.1667 1.84848V7.78788H11C9.67392 7.78788 8.40215 8.32424 7.46447 9.27897C6.52678 10.2337 6 11.5286 6 12.8788V18.4024C5.10766 19.1031 4.3851 20.003 3.88793 21.0327C3.39075 22.0623 3.13222 23.1944 3.13222 24.3418C3.13222 25.4892 3.39075 26.6213 3.88793 27.651C4.3851 28.6807 5.10766 29.5805 6 30.2812V38.3333C6 39.6835 6.52678 40.9784 7.46447 41.9331C8.40215 42.8879 9.67392 43.4242 11 43.4242H11.8333V45.1212H6C4.67392 45.1212 3.40215 45.6576 2.46447 46.6123C1.52678 47.567 1 48.8619 1 50.2121V54.4545C1 55.1296 1.26339 55.7771 1.73223 56.2545C2.20107 56.7318 2.83696 57 3.5 57H38.5C39.163 57 39.7989 56.7318 40.2678 56.2545C40.7366 55.7771 41 55.1296 41 54.4545V50.2121C41 48.8619 40.4732 47.567 39.5355 46.6123C38.5978 45.6576 37.3261 45.1212 36 45.1212ZM37.1917 24.3333C37.1894 25.6196 36.7705 26.8692 36 27.8885V20.7782C36.7705 21.7975 37.1894 23.0471 37.1917 24.3333ZM7.66667 12.8788C7.66667 11.9787 8.01786 11.1154 8.64298 10.4789C9.2681 9.84242 10.1159 9.48485 11 9.48485H31C31.8841 9.48485 32.7319 9.84242 33.357 10.4789C33.9821 11.1154 34.3333 11.9787 34.3333 12.8788V28.1515H26C25.8053 28.1511 25.6166 28.2202 25.4667 28.3467L21 32.1309L16.475 28.2194C16.3229 28.091 16.1309 28.0219 15.9333 28.0242H7.66667V12.8788ZM4.80833 24.3333C4.81062 23.0471 5.22947 21.7975 6 20.7782V27.8885C5.22947 26.8692 4.81062 25.6196 4.80833 24.3333ZM7.66667 38.3333V29.7212H15.6333L20.4583 33.8873C20.6087 34.0165 20.7991 34.0874 20.9958 34.0874C21.1926 34.0874 21.383 34.0165 21.5333 33.8873L26.3 29.8485H34.3333V38.3333C34.3333 39.2335 33.9821 40.0967 33.357 40.7332C32.7319 41.3697 31.8841 41.7273 31 41.7273H11C10.1159 41.7273 9.2681 41.3697 8.64298 40.7332C8.01786 40.0967 7.66667 39.2335 7.66667 38.3333ZM13.5 43.4242H28.5V45.1212H13.5V43.4242ZM17.7333 55.303C17.8863 54.5358 18.2952 53.846 18.8905 53.3506C19.4858 52.8551 20.2311 52.5845 21 52.5845C21.7689 52.5845 22.5142 52.8551 23.1095 53.3506C23.7048 53.846 24.1137 54.5358 24.2667 55.303H17.7333ZM39.3333 54.4545C39.3333 54.6796 39.2455 54.8954 39.0893 55.0545C38.933 55.2136 38.721 55.303 38.5 55.303H26C25.8435 54.0767 25.254 52.9504 24.3416 52.1342C23.4292 51.3181 22.2562 50.868 21.0417 50.868C19.8272 50.868 18.6542 51.3181 17.7417 52.1342C16.8293 52.9504 16.2398 54.0767 16.0833 55.303H3.5C3.27899 55.303 3.06702 55.2136 2.91074 55.0545C2.75446 54.8954 2.66667 54.6796 2.66667 54.4545V50.2121C2.66667 49.312 3.01786 48.4487 3.64298 47.8122C4.2681 47.1758 5.11594 46.8182 6 46.8182H36C36.8841 46.8182 37.7319 47.1758 38.357 47.8122C38.9821 48.4487 39.3333 49.312 39.3333 50.2121V54.4545ZM37.6667 51.0606V53.6061C37.6667 53.8311 37.5789 54.0469 37.4226 54.206C37.2663 54.3652 37.0543 54.4545 36.8333 54.4545C36.6123 54.4545 36.4004 54.3652 36.2441 54.206C36.0878 54.0469 36 53.8311 36 53.6061V51.0606C36 50.8356 35.9122 50.6198 35.7559 50.4606C35.5996 50.3015 35.3877 50.2121 35.1667 50.2121H31.8333C31.6123 50.2121 31.4004 50.1227 31.2441 49.9636C31.0878 49.8045 31 49.5887 31 49.3636C31 49.1386 31.0878 48.9228 31.2441 48.7637C31.4004 48.6045 31.6123 48.5152 31.8333 48.5152H35.1667C35.8297 48.5152 36.4656 48.7833 36.9344 49.2607C37.4033 49.7381 37.6667 50.3855 37.6667 51.0606ZM13.7917 24.7576H13.9167V25.6061C13.9167 25.7186 13.9606 25.8265 14.0387 25.906C14.1168 25.9856 14.2228 26.0303 14.3333 26.0303C14.4438 26.0303 14.5498 25.9856 14.628 25.906C14.7061 25.8265 14.75 25.7186 14.75 25.6061V24.6558C15.3748 24.5872 15.9594 24.3091 16.412 23.8652C16.8646 23.4213 17.1594 22.8368 17.25 22.2036C17.375 20.5067 16.1583 19.6582 14.75 18.9879V15.857C15.1423 15.9572 15.5165 16.1205 15.8583 16.3406C15.9377 16.3924 16.0263 16.4278 16.119 16.4448C16.2118 16.4617 16.307 16.4599 16.399 16.4394C16.4911 16.4189 16.5783 16.3802 16.6557 16.3254C16.7331 16.2706 16.7991 16.2008 16.85 16.12C16.9009 16.0392 16.9356 15.949 16.9523 15.8546C16.969 15.7601 16.9672 15.6632 16.947 15.5695C16.9269 15.4757 16.8889 15.3869 16.835 15.3081C16.7812 15.2293 16.7127 15.1621 16.6333 15.1103C16.0596 14.7498 15.418 14.5156 14.75 14.423V13.3879C14.75 13.2754 14.7061 13.1675 14.628 13.0879C14.5498 13.0083 14.4438 12.9636 14.3333 12.9636C14.2228 12.9636 14.1168 13.0083 14.0387 13.0879C13.9606 13.1675 13.9167 13.2754 13.9167 13.3879V14.3891C13.2263 14.4107 12.5631 14.6677 12.0333 15.1188C11.5154 15.5659 11.192 16.2033 11.1333 16.8921C10.9917 18.7333 12.2583 19.4376 13.6833 20.0994L13.9167 20.2097V23.3152C13.2276 23.2287 12.5801 22.933 12.0583 22.4667C11.9513 22.3725 11.8192 22.3128 11.6788 22.2949C11.5384 22.2771 11.396 22.3019 11.2695 22.3663C11.1429 22.4307 11.038 22.5318 10.9678 22.6569C10.8976 22.782 10.8653 22.9254 10.875 23.0691C10.8832 23.1658 10.9102 23.2599 10.9546 23.3459C10.999 23.4319 11.0597 23.508 11.1333 23.5697C11.8829 24.2273 12.8089 24.641 13.7917 24.7576ZM13.9167 18.6485C12.8583 18.1479 12.5083 17.7152 12.5583 17.0279C12.5679 16.8634 12.6114 16.7028 12.686 16.5565C12.7607 16.4103 12.8649 16.2818 12.9917 16.1794C13.2559 15.9651 13.5793 15.8405 13.9167 15.823V18.6485ZM14.75 20.6764C15.5833 21.1345 15.8083 21.5248 15.7667 22.1527C15.7409 22.3273 15.6774 22.494 15.5809 22.6407C15.4844 22.7874 15.3571 22.9105 15.2083 23.0012C15.0657 23.0948 14.9116 23.169 14.75 23.2218V20.6764ZM27.125 24.7576H27.25V25.6061C27.25 25.7186 27.2939 25.8265 27.372 25.906C27.4502 25.9856 27.5562 26.0303 27.6667 26.0303C27.7772 26.0303 27.8832 25.9856 27.9613 25.906C28.0394 25.8265 28.0833 25.7186 28.0833 25.6061V24.6558C28.7081 24.5872 29.2928 24.3091 29.7453 23.8652C30.1979 23.4213 30.4927 22.8368 30.5833 22.2036C30.7083 20.5067 29.4917 19.6582 28.0833 18.9879V15.857C28.4757 15.9572 28.8498 16.1205 29.1917 16.3406C29.271 16.3924 29.3596 16.4278 29.4524 16.4448C29.5451 16.4617 29.6403 16.4599 29.7324 16.4394C29.8245 16.4189 29.9117 16.3802 29.9891 16.3254C30.0664 16.2706 30.1324 16.2008 30.1833 16.12C30.2342 16.0392 30.269 15.949 30.2856 15.8546C30.3023 15.7601 30.3005 15.6632 30.2804 15.5695C30.2603 15.4757 30.2222 15.3869 30.1684 15.3081C30.1145 15.2293 30.046 15.1621 29.9667 15.1103C29.3929 14.7498 28.7514 14.5156 28.0833 14.423V13.3879C28.0833 13.2754 28.0394 13.1675 27.9613 13.0879C27.8832 13.0083 27.7772 12.9636 27.6667 12.9636C27.5562 12.9636 27.4502 13.0083 27.372 13.0879C27.2939 13.1675 27.25 13.2754 27.25 13.3879V14.3891C26.5597 14.4107 25.8965 14.6677 25.3667 15.1188C24.8488 15.5659 24.5253 16.2033 24.4667 16.8921C24.325 18.7333 25.5917 19.4376 27.0167 20.0994L27.25 20.2097V23.3152C26.561 23.2287 25.9134 22.933 25.3917 22.4667C25.2846 22.3725 25.1525 22.3128 25.0122 22.2949C24.8718 22.2771 24.7293 22.3019 24.6028 22.3663C24.4763 22.4307 24.3713 22.5318 24.3011 22.6569C24.2309 22.782 24.1986 22.9254 24.2083 23.0691C24.2165 23.1658 24.2436 23.2599 24.2879 23.3459C24.3323 23.4319 24.3931 23.508 24.4667 23.5697C25.2163 24.2273 26.1422 24.641 27.125 24.7576ZM27.25 18.6485C26.1917 18.1479 25.8417 17.7152 25.8917 17.0279C25.9012 16.8634 25.9447 16.7028 26.0194 16.5565C26.094 16.4103 26.1982 16.2818 26.325 16.1794C26.5892 15.9651 26.9127 15.8405 27.25 15.823V18.6485ZM28.0833 20.6764C28.9167 21.1345 29.1417 21.5248 29.1 22.1527C29.0742 22.3273 29.0108 22.494 28.9142 22.6407C28.8177 22.7874 28.6905 22.9105 28.5417 23.0012C28.399 23.0948 28.2449 23.169 28.0833 23.2218V20.6764Z" fill="url(#paint0_linear_1_13964)" stroke="url(#paint1_linear_1_13964)" stroke-width="0.5"/>
<defs>
<linearGradient id="paint0_linear_1_13964" x1="21" y1="1" x2="21" y2="57" gradientUnits="userSpaceOnUse">
<stop stop-color="#63388B"/>
<stop offset="1" stop-color="#327EB2"/>
</linearGradient>
<linearGradient id="paint1_linear_1_13964" x1="21" y1="1" x2="21" y2="57" gradientUnits="userSpaceOnUse">
<stop stop-color="#63388B"/>
<stop offset="1" stop-color="#327EB2"/>
</linearGradient>
</defs>
</svg>
