<svg width="123" height="124" viewBox="0 0 123 124" fill="none" xmlns="http://www.w3.org/2000/svg">
<circle cx="61.5" cy="61.8164" r="61.5" fill="url(#paint0_linear_7_7)"/>
<path d="M94.6582 65.2133H87.6417C86.94 65.2133 86.4722 65.6811 86.4722 66.3827V66.7336C84.2503 65.2133 82.9639 62.7575 82.9639 60.0678V57.0273C82.9639 54.4546 80.859 52.3496 78.2862 52.3496C75.7135 52.3496 73.6085 54.4546 73.6085 57.0273V65.2137H65.4221C64.0188 65.2137 62.7324 65.7984 61.9138 66.8509C61.0952 65.9154 59.8089 65.2137 58.4055 65.2137H50.2192V57.0273C50.2192 54.4546 48.1142 52.3496 45.5414 52.3496C42.9687 52.3496 40.8637 54.4546 40.8637 57.0273V60.0678C40.8637 62.7576 39.5773 65.2133 37.3554 66.7336V66.3827C37.3554 65.6811 36.8877 65.2133 36.186 65.2133H29.1694C28.4678 65.2133 28 65.6811 28 66.3827V85.0936C28 85.7953 28.4678 86.263 29.1694 86.263H36.186C36.8877 86.263 37.3554 85.7953 37.3554 85.0936V84.6258L40.7467 86.263C42.1501 86.9647 43.7873 87.3155 45.4245 87.3155H58.4053C59.8086 87.3155 61.095 86.7308 61.9136 85.6783C62.7322 86.6138 64.0186 87.3155 65.4219 87.3155H78.4028C80.04 87.3155 81.6772 86.9647 83.0805 86.263L86.4718 84.6258V85.0936C86.4718 85.7953 86.9395 86.263 87.6412 86.263H94.6578C95.3594 86.263 95.8272 85.7953 95.8272 85.0936V66.3827C95.8272 65.6811 95.3599 65.2133 94.6582 65.2133ZM30.3392 83.9242V67.5522H35.017V83.9242H30.3392ZM58.4055 85.0936H45.4247C44.1383 85.0936 42.9689 84.7428 41.7994 84.275L37.3556 82.053V69.4232C40.9809 67.669 43.2027 64.0438 43.2027 60.0677V57.0272C43.2027 55.7408 44.2552 54.6884 45.5416 54.6884C46.828 54.6884 47.8805 55.7408 47.8805 57.0272V66.3827C47.8805 67.0843 48.3482 67.5521 49.0499 67.5521H58.4053C59.6917 67.5521 60.7442 68.6045 60.7442 69.8909V82.755C60.7442 84.0414 59.692 85.0936 58.4055 85.0936ZM82.0276 84.275C80.8582 84.8597 79.6888 85.0936 78.4024 85.0936H65.4215C64.1351 85.0936 63.0827 84.0412 63.0827 82.7547V69.8906C63.0827 68.6042 64.1351 67.5518 65.4215 67.5518H74.777C75.4786 67.5518 75.9464 67.084 75.9464 66.3824V57.0269C75.9464 55.7405 76.9988 54.6881 78.2853 54.6881C79.5717 54.6881 80.6241 55.7405 80.6241 57.0269V60.0674C80.6241 64.0435 82.8461 67.6685 86.4713 69.4229V82.0527L82.0276 84.275ZM93.4877 83.9241H88.81V67.5521H93.4877V83.9241Z" fill="white" stroke="white" stroke-width="0.5"/>
<path d="M42.9683 48.023C43.2021 49.1924 44.3716 50.011 45.541 50.011C46.7104 50.011 47.8799 49.1924 48.1137 48.023L50.2187 39.8366C50.3357 39.4858 50.2187 39.135 49.9848 38.7842C49.7509 38.4334 49.4001 38.3164 49.0493 38.3164H42.0327C41.6819 38.3164 41.3311 38.4333 41.0972 38.7842C40.8633 39.135 40.8633 39.3689 40.8633 39.7197L42.9683 48.023ZM47.5291 40.6556L45.8919 47.4383C45.7749 47.7891 45.3072 47.7891 45.3072 47.4383L43.553 40.6556H47.5291Z" fill="white" stroke="white" stroke-width="0.5"/>
<path d="M30.6943 48.9576L37.9448 53.2844C38.4126 53.5183 38.8803 53.6353 39.3481 53.6353C40.0498 53.6353 40.7514 53.4014 41.2192 52.8166C42.0378 51.998 42.2717 50.5947 41.57 49.5422L37.2432 42.2917C37.0093 41.9409 36.7754 41.824 36.4245 41.707C36.0737 41.707 35.7229 41.824 35.489 42.0579L30.5774 46.9695C30.3435 47.2034 30.2266 47.5542 30.2266 47.905C30.2266 48.2558 30.4604 48.7238 30.6943 48.9576ZM36.0737 44.8645L39.699 50.8287C39.8159 50.9456 39.699 51.1795 39.699 51.1795C39.582 51.2964 39.4651 51.2964 39.3482 51.1795L33.2671 47.6712L36.0737 44.8645Z" fill="white" stroke="white" stroke-width="0.5"/>
<path d="M49.8673 52.9362C50.335 53.404 51.0367 53.7548 51.7384 53.7548C52.2061 53.7548 52.6739 53.6379 53.1417 53.404L60.3921 49.0772C60.743 48.8433 60.8599 48.6094 60.9768 48.2585C61.0938 47.9077 60.8599 47.5569 60.626 47.323L55.7144 42.4114C55.4805 42.1775 55.1297 42.0605 54.7789 42.0605C54.428 42.0605 54.0772 42.2944 53.9602 42.6453L49.6334 49.8957C48.8147 50.7144 48.9317 52.0007 49.8673 52.9362ZM51.3875 50.8312L55.0128 44.8671L57.8194 47.6737L51.8553 51.299C51.7383 51.4159 51.5044 51.299 51.5044 51.299C51.5044 51.299 51.3875 50.9482 51.3875 50.8312Z" fill="white" stroke="white" stroke-width="0.5"/>
<path d="M75.7143 48.023C75.9482 49.1924 77.1177 50.011 78.2871 50.011C79.4565 50.011 80.626 49.1924 80.8598 48.023L82.9648 39.8366C83.0818 39.4858 82.9648 39.135 82.7309 38.7842C82.497 38.4334 82.1462 38.3164 81.7954 38.3164H74.7788C74.428 38.3164 74.0771 38.4333 73.8433 38.7842C73.6094 39.135 73.6094 39.3689 73.6094 39.7197L75.7143 48.023ZM80.2752 40.6556L78.638 47.4383C78.521 47.7891 78.0532 47.7891 78.0532 47.4383L76.2991 40.6556H80.2752Z" fill="white" stroke="white" stroke-width="0.5"/>
<path d="M63.4326 48.9576L70.6831 53.2844C71.1509 53.5183 71.6186 53.6353 72.0864 53.6353C72.7881 53.6353 73.4897 53.4014 73.9575 52.8166C74.7761 51.998 75.0099 50.5947 74.3083 49.5422L69.9815 42.2917C69.7476 41.9409 69.5137 41.824 69.1628 41.707C68.812 41.707 68.4612 41.824 68.2273 42.0579L63.3157 46.9695C63.0818 47.2034 62.9648 47.5542 62.9648 47.905C62.9648 48.2558 63.1987 48.7238 63.4326 48.9576ZM68.812 44.8645L72.4373 50.8287C72.5542 50.9456 72.4373 51.1795 72.4373 51.1795C72.3203 51.2964 72.2034 51.2964 72.0864 51.1795L66.0054 47.6712L68.812 44.8645Z" fill="white" stroke="white" stroke-width="0.5"/>
<path d="M82.6134 52.9362C83.0811 53.404 83.7828 53.7548 84.4844 53.7548C84.9522 53.7548 85.42 53.6379 85.8878 53.404L93.1382 49.0772C93.4891 48.8433 93.606 48.6094 93.7229 48.2585C93.7229 47.9077 93.606 47.5569 93.3721 47.323L88.4605 42.4114C88.2266 42.1775 87.8758 42.0605 87.525 42.0605C87.1741 42.0605 86.8233 42.2944 86.7063 42.6453L82.3795 49.8957C81.5608 50.7144 81.6778 52.0007 82.6134 52.9362ZM84.1336 50.8312L87.7588 44.8671L90.5655 47.6737L84.6014 51.299C84.4844 51.4159 84.2505 51.299 84.2505 51.299C84.1336 51.1821 84.1336 50.9482 84.1336 50.8312Z" fill="white" stroke="white" stroke-width="0.5"/>
<defs>
<linearGradient id="paint0_linear_7_7" x1="241.358" y1="63.4786" x2="51.2435" y2="153.205" gradientUnits="userSpaceOnUse">
<stop stop-color="#04BFD7"/>
<stop offset="1" stop-color="#63388B"/>
</linearGradient>
</defs>
</svg>
