<svg width="123" height="124" viewBox="0 0 123 124" fill="none" xmlns="http://www.w3.org/2000/svg">
<circle cx="61.5" cy="61.8164" r="61.5" fill="url(#paint0_linear_7_6)"/>
<path d="M92 81.3164V39.0665C92 38.2046 91.6557 37.3779 91.0429 36.7684C90.43 36.1589 89.5988 35.8165 88.7321 35.8165H76.4624C75.3256 34.1893 73.5925 33.0703 71.6352 32.6999C69.678 32.3294 67.6528 32.737 65.9944 33.8351C64.8755 32.2802 63.3619 31.0482 61.608 30.2649C59.854 29.4817 57.9226 29.1751 56.0107 29.3766C54.0988 29.578 52.2748 30.2802 50.7248 31.4116C49.1748 32.5429 47.9544 34.0629 47.1879 35.8165H34.2679C33.4012 35.8165 32.57 36.1589 31.9571 36.7684C31.3443 37.3779 31 38.2046 31 39.0665V81.3164C31 82.1784 31.3443 83.005 31.9571 83.6145C32.57 84.224 33.4012 84.5664 34.2679 84.5664H54.7944C53.9926 87.0678 50.5559 87.8034 50.3915 87.8381C49.2774 87.893 48.227 88.3707 47.4565 89.1728C46.686 89.975 46.2542 91.0404 46.25 92.1497C46.25 92.7244 46.4795 93.2755 46.8881 93.6818C47.2966 94.0881 47.8508 94.3164 48.4286 94.3164H74.5714C75.1492 94.3164 75.7034 94.0881 76.1119 93.6818C76.5205 93.2755 76.75 92.7244 76.75 92.1497C76.7458 91.0408 76.3143 89.9756 75.5443 89.1736C74.7743 88.3715 73.7244 87.8935 72.6107 87.8381C72.5704 87.8294 69.0335 87.0906 68.2133 84.5664H88.7321C89.5988 84.5664 90.43 84.224 91.0429 83.6145C91.6557 83.005 92 82.1784 92 81.3164ZM57.1429 31.4832C58.7011 31.4835 60.2307 31.8991 61.5726 32.6868C62.9146 33.4744 64.0198 34.6052 64.7733 35.9617V35.9682C65.171 36.675 65.4645 37.4349 65.6447 38.2248C65.6997 38.4638 65.8346 38.6772 66.0273 38.8301C66.22 38.9829 66.4592 39.0663 66.7057 39.0665C66.7867 39.0663 66.8674 39.0572 66.9464 39.0394C67.086 39.0076 67.218 38.9487 67.3347 38.8662C67.4514 38.7836 67.5506 38.6789 67.6266 38.5582C67.7025 38.4374 67.7538 38.3029 67.7775 38.1625C67.8012 38.022 67.7967 37.8782 67.7645 37.7394C67.5989 37.0554 67.3661 36.3892 67.0695 35.7504C67.9837 35.0901 69.0844 34.734 70.2143 34.7332C71.4781 34.7356 72.7018 35.1751 73.6756 35.9764C74.6494 36.7776 75.3127 37.8908 75.5518 39.125C73.9378 38.9443 72.305 39.2113 70.8341 39.8963C70.6101 40.0017 70.4289 40.1798 70.3205 40.4013C70.212 40.6229 70.1827 40.8745 70.2374 41.1149C70.2921 41.3552 70.4275 41.5698 70.6213 41.7232C70.8152 41.8767 71.0558 41.9599 71.3036 41.959C71.4645 41.958 71.6231 41.921 71.7676 41.8507C73.2243 41.1726 74.8798 41.0466 76.4232 41.4964H76.4287C77.9386 41.9373 79.2379 42.9052 80.0878 44.2222C80.9378 45.5393 81.2815 47.1172 81.0556 48.666C80.8298 50.2149 80.0496 51.6307 78.8584 52.6534C77.6673 53.6761 76.1451 54.237 74.5714 54.2331H48.4286C46.7864 54.2189 45.2099 53.5904 44.0126 52.4726C42.8152 51.3548 42.0849 49.8297 41.9668 48.2008C41.8487 46.5718 42.3516 44.9583 43.3753 43.6813C44.3991 42.4043 45.8687 41.5573 47.4918 41.309C48.7647 41.1259 50.0636 41.3203 51.2259 41.868C51.4869 41.9913 51.7864 42.0064 52.0586 41.91C52.3308 41.8135 52.5534 41.6136 52.6773 41.354C52.8013 41.0944 52.8164 40.7964 52.7195 40.5257C52.6226 40.255 52.4215 40.0337 52.1605 39.9104C51.0153 39.3721 49.766 39.0886 48.4994 39.0795C48.763 36.9838 49.7866 35.0557 51.378 33.6572C52.9693 32.2586 55.0192 31.4856 57.1429 31.4832ZM48.2739 63.9831C48.0088 62.9619 47.3783 62.0719 46.5005 61.48C45.6228 60.888 44.5581 60.6348 43.5061 60.7677C42.454 60.9006 41.4868 61.4105 40.7858 62.2019C40.0847 62.9933 39.698 64.0118 39.698 65.0665C39.698 66.1212 40.0847 67.1397 40.7858 67.931C41.4868 68.7224 42.454 69.2324 43.5061 69.3652C44.5581 69.4981 45.6228 69.2449 46.5005 68.6529C47.3783 68.061 48.0088 67.171 48.2739 66.1498H50.6071C51.4738 66.1498 52.305 65.8074 52.9179 65.1979C53.5307 64.5884 53.875 63.7618 53.875 62.8998V56.3998H60.4107V60.887C59.3839 61.1506 58.489 61.7777 57.8938 62.6506C57.2986 63.5236 57.044 64.5824 57.1776 65.6287C57.3112 66.675 57.8239 67.6369 58.6197 68.3341C59.4154 69.0314 60.4395 69.416 61.5 69.416C62.5605 69.416 63.5846 69.0314 64.3803 68.3341C65.1761 67.6369 65.6888 66.675 65.8224 65.6287C65.956 64.5824 65.7014 63.5236 65.1062 62.6506C64.511 61.7777 63.6161 61.1506 62.5893 60.887V56.3998H69.125V62.8998C69.125 63.7618 69.4693 64.5884 70.0821 65.1979C70.695 65.8074 71.5262 66.1498 72.3929 66.1498H74.7261C74.9912 67.171 75.6217 68.061 76.4995 68.6529C77.3772 69.2449 78.4419 69.4981 79.4939 69.3652C80.546 69.2324 81.5132 68.7224 82.2142 67.931C82.9153 67.1397 83.302 66.1212 83.302 65.0665C83.302 64.0118 82.9153 62.9933 82.2142 62.2019C81.5132 61.4105 80.546 60.9006 79.4939 60.7677C78.4419 60.6348 77.3772 60.888 76.4995 61.48C75.6217 62.0719 74.9912 62.9619 74.7261 63.9831H72.3929C72.104 63.9831 71.8269 63.869 71.6226 63.6658C71.4183 63.4627 71.3036 63.1871 71.3036 62.8998V56.3998H74.5714C76.2159 56.4066 77.8284 55.9486 79.2212 55.0791C80.614 54.2097 81.7298 52.9645 82.4385 51.4887C83.1472 50.013 83.4198 48.3673 83.2244 46.7434C83.029 45.1195 82.3737 43.5843 81.3348 42.3165H85.4643V72.6498H37.5357V42.3165H41.6467C40.6141 43.5876 39.9647 45.1236 39.7737 46.7467C39.5828 48.3697 39.8581 50.0133 40.5679 51.4871C41.2776 52.9609 42.3926 54.2046 43.7838 55.0741C45.1751 55.9435 46.7855 56.4032 48.4286 56.3998H51.6964V62.8998C51.6964 63.1871 51.5817 63.4627 51.3774 63.6658C51.1731 63.869 50.896 63.9831 50.6071 63.9831H48.2739ZM46.25 65.0665C46.25 65.495 46.1222 65.9139 45.8828 66.2702C45.6435 66.6265 45.3032 66.9042 44.9051 67.0682C44.507 67.2322 44.069 67.2751 43.6464 67.1915C43.2238 67.1079 42.8356 66.9015 42.5309 66.5985C42.2263 66.2955 42.0188 65.9095 41.9347 65.4892C41.8507 65.0689 41.8938 64.6332 42.0587 64.2373C42.2236 63.8414 42.5028 63.503 42.8611 63.2649C43.2193 63.0269 43.6405 62.8998 44.0714 62.8998C44.6492 62.8998 45.2034 63.1281 45.6119 63.5344C46.0205 63.9407 46.25 64.4918 46.25 65.0665ZM61.5 62.8998C61.9309 62.8998 62.3521 63.0269 62.7104 63.2649C63.0686 63.503 63.3478 63.8414 63.5127 64.2373C63.6776 64.6332 63.7208 65.0689 63.6367 65.4892C63.5527 65.9095 63.3452 66.2955 63.0405 66.5985C62.7358 66.9015 62.3476 67.1079 61.925 67.1915C61.5024 67.2751 61.0644 67.2322 60.6663 67.0682C60.2682 66.9042 59.928 66.6265 59.6886 66.2702C59.4492 65.9139 59.3214 65.495 59.3214 65.0665C59.3214 64.4918 59.551 63.9407 59.9595 63.5344C60.3681 63.1281 60.9222 62.8998 61.5 62.8998ZM76.75 65.0665C76.75 64.6379 76.8778 64.219 77.1172 63.8627C77.3565 63.5064 77.6968 63.2287 78.0949 63.0647C78.493 62.9007 78.931 62.8578 79.3536 62.9414C79.7762 63.025 80.1644 63.2314 80.4691 63.5344C80.7737 63.8374 80.9812 64.2235 81.0653 64.6438C81.1493 65.0641 81.1062 65.4997 80.9413 65.8956C80.7764 66.2915 80.4972 66.6299 80.1389 66.868C79.7807 67.1061 79.3595 67.2331 78.9286 67.2331C78.3508 67.2331 77.7966 67.0049 77.3881 66.5985C76.9795 66.1922 76.75 65.6411 76.75 65.0665ZM34.2679 37.9832H46.4918C46.3947 38.4306 46.326 38.8836 46.2859 39.3395C45.5681 39.5201 44.8768 39.7925 44.2294 40.1498H37.5357C36.9579 40.1498 36.4038 40.3781 35.9952 40.7844C35.5867 41.1908 35.3571 41.7419 35.3571 42.3165V72.6498C35.3571 73.2244 35.5867 73.7755 35.9952 74.1818C36.4038 74.5882 36.9579 74.8164 37.5357 74.8164H85.4643C86.0421 74.8164 86.5962 74.5882 87.0048 74.1818C87.4133 73.7755 87.6429 73.2244 87.6429 72.6498V42.3165C87.6429 41.7419 87.4133 41.1908 87.0048 40.7844C86.5962 40.3781 86.0421 40.1498 85.4643 40.1498H78.7576C78.4563 39.9789 78.1449 39.8262 77.8251 39.6927C77.7879 39.1127 77.6829 38.539 77.5125 37.9832H88.7321C89.021 37.9832 89.2981 38.0973 89.5024 38.3005C89.7067 38.5036 89.8214 38.7792 89.8214 39.0665V76.9831H33.1786V39.0665C33.1786 38.7792 33.2933 38.5036 33.4976 38.3005C33.7019 38.0973 33.979 37.9832 34.2679 37.9832ZM33.1786 81.3164V79.1498H89.8214V81.3164C89.8214 81.6037 89.7067 81.8793 89.5024 82.0825C89.2981 82.2856 89.021 82.3998 88.7321 82.3998H34.2679C33.979 82.3998 33.7019 82.2856 33.4976 82.0825C33.2933 81.8793 33.1786 81.6037 33.1786 81.3164ZM74.5714 92.1497H48.4286C48.4286 91.5751 48.6581 91.024 49.0667 90.6177C49.4752 90.2114 50.0294 89.9831 50.6071 89.9831H72.3929C72.9702 89.9845 73.5235 90.2132 73.9318 90.6193C74.34 91.0253 74.57 91.5756 74.5714 92.1497ZM67.8614 87.8164H55.1364C56.1121 86.9709 56.7792 85.8283 57.0339 84.5664H65.9661C66.2208 85.8283 66.8879 86.9709 67.8636 87.8164H67.8614Z" fill="white"/>
<defs>
<linearGradient id="paint0_linear_7_6" x1="241.358" y1="63.4786" x2="51.2435" y2="153.205" gradientUnits="userSpaceOnUse">
<stop stop-color="#04BFD7"/>
<stop offset="1" stop-color="#63388B"/>
</linearGradient>
</defs>
</svg>
