<svg width="123" height="124" viewBox="0 0 123 124" fill="none" xmlns="http://www.w3.org/2000/svg">
<circle cx="61.5" cy="61.8164" r="61.5" fill="url(#paint0_linear_7_9)"/>
<path fill-rule="evenodd" clip-rule="evenodd" d="M86.0523 90.1259L98.1453 83.7621L91.5134 75.7438C90.3726 77.2589 89.5163 79.5452 88.1988 80.8497C86.9116 82.1268 85.8592 84.4896 84.5141 86.002L86.0554 90.1233L86.0523 90.1259ZM85.8976 62.3514L85.1021 61.4845L79.3513 66.6696C79.7325 66.82 80.0418 67.1044 80.2214 67.4709L85.8976 62.3514ZM88.2786 60.2046L85.7043 57.4042L84.3977 58.5802L86.972 61.3779L88.2786 60.2019V60.2046ZM88.5575 58.3696L89.3558 59.2365L90.6734 58.036L89.8944 57.1691L88.5603 58.3724L88.5575 58.3696ZM86.7815 56.4389L88.1156 55.2492L88.9111 56.0997L87.577 57.3031L86.7787 56.4361L86.7815 56.4389ZM72.0206 74.8655C71.8383 73.4927 70.8108 72.3769 69.4463 72.0706L68.4795 72.943L66.9493 76.8783L71.0566 75.7352L72.0206 74.8655ZM73.9486 69.5628C73.9541 69.664 73.9652 69.7652 73.9817 69.8664L74.4458 72.675L73.2442 73.7607C72.8161 72.5164 71.8825 71.5018 70.6699 70.9603L73.1697 68.7123L73.9486 69.5628ZM82.1221 60.6365L83.3236 59.5535L84.1218 60.4205L77.512 66.3823L76.3878 66.56V66.5546C75.5564 66.6913 74.8217 67.1781 74.3798 67.8919L74.2417 67.7415L82.1245 60.6368L82.1221 60.6365ZM79.5975 85.0253C80.0063 85.2878 80.4344 85.523 80.8764 85.7254V90.4319C80.8736 90.6753 80.6747 90.8722 80.4289 90.8722H39.903C39.6572 90.8722 39.4583 90.6753 39.4583 90.4319V41.1266C39.4583 40.8832 39.6572 40.689 39.903 40.6863H49.0707C49.079 40.9269 49.1066 41.1676 49.1508 41.4055H42.8862C41.704 41.4082 40.7428 42.3545 40.7345 43.5276V87.5626C40.7427 88.7359 41.704 89.6821 42.8862 89.6848H77.4462C78.6312 89.6821 79.5896 88.7358 79.5979 87.5626L79.5975 85.0253ZM79.2964 82.9961C78.2357 82.0881 77.4568 80.8985 77.059 79.564L75.9514 72.8583C75.9514 72.8365 75.9459 72.8173 75.9404 72.7954L75.4183 69.6341C75.2913 68.8465 75.8271 68.1053 76.6198 67.9741L77.5894 67.8182V67.8154C78.023 67.7936 78.4595 67.851 78.871 67.9905L80.241 76.2853C80.3101 76.6709 80.683 76.9334 81.0752 76.8705C81.4674 76.8049 81.7354 76.4412 81.6773 76.0528L80.5338 69.1366L85.967 64.2358H85.9697C86.4697 64.8484 86.9088 65.5075 87.2818 66.2021C87.2983 66.2377 87.3177 66.2733 87.3398 66.3061C88.9528 68.7838 90.1019 71.5295 90.7317 74.409C89.323 76.0007 88.3977 78.6097 87.1658 79.8294C85.7046 81.2761 84.7102 83.6033 83.412 85.0583H83.4148C81.9674 84.7547 80.6195 84.1038 79.4897 83.1604L79.2964 82.9961ZM71.1809 41.4059H77.4455C78.6304 41.4086 79.5889 42.3548 79.5972 43.528V59.5211C80.0253 59.5293 80.4534 59.5649 80.8788 59.6223V41.127C80.8761 40.8836 80.6772 40.6895 80.4341 40.6867H71.2608C71.2525 40.9274 71.2251 41.168 71.1809 41.4059ZM69.5125 41.879C69.5236 41.8434 69.5402 41.8106 69.5567 41.7805C69.728 41.373 69.8136 40.9355 69.8109 40.4952C69.8247 39.8963 69.6589 39.3083 69.333 38.8051C69.1562 38.4906 68.8358 38.2827 68.474 38.2445H51.8569C51.4951 38.2827 51.1747 38.4906 50.9979 38.8051C50.6748 39.3083 50.509 39.8963 50.5228 40.4952C50.5118 41.0914 50.6775 41.6794 50.9979 42.1826C51.1747 42.4971 51.4951 42.7049 51.8569 42.7432H68.474C68.9242 42.7432 69.2972 42.3166 69.5098 41.879L69.5125 41.879ZM63.643 32.4087H66.767C67.1702 32.4087 67.4961 32.7314 67.4961 33.1306V36.8034H68.4767C69.8302 36.8034 70.7638 37.9876 71.1035 39.2429H80.4288C81.4785 39.2483 82.3292 40.0879 82.332 41.1271V58.5009L87.1077 54.1936C87.7181 53.6467 88.66 53.6904 89.2152 54.2921L91.7398 57.0323C92.2923 57.6367 92.2481 58.5693 91.6404 59.119L87.0442 63.2649C87.2652 63.5302 87.4723 63.8037 87.674 64.0854L87.6712 64.0826C87.9999 64.5475 88.2982 65.0316 88.5661 65.5321C89.4335 66.8393 90.1681 68.2286 90.7593 69.678C91.3697 71.1766 91.8531 72.7218 92.2012 74.2998L99.8387 83.5299C99.974 83.6967 100.029 83.9155 99.985 84.1288C99.9436 84.3394 99.8083 84.5199 99.6177 84.6238L86.003 91.7859C85.8124 91.8871 85.5859 91.898 85.3843 91.816C85.1854 91.7366 85.0307 91.5698 84.9672 91.3675L83.1414 86.4749C82.8707 86.4202 82.6028 86.3546 82.3349 86.278V90.4322C82.3321 91.4741 81.4814 92.3137 80.429 92.3164H39.9031C38.8535 92.3137 38.0055 91.4714 38 90.4322V41.1268C38.0055 40.0876 38.8535 39.248 39.9031 39.2425H49.2306C49.5704 37.9818 50.504 36.8031 51.8574 36.8031H52.8379V33.1303C52.8379 32.731 53.1639 32.4084 53.5671 32.4084H56.6966C56.8375 31.0793 57.738 29.9525 59.0113 29.5122C60.2819 29.0692 61.6961 29.3919 62.6463 30.3382C63.2042 30.896 63.5546 31.6265 63.643 32.4087ZM66.0377 36.8034V33.8499H62.9165C62.7038 33.8526 62.4994 33.7569 62.3613 33.5955C62.2232 33.4342 62.1624 33.2209 62.1983 33.0103C62.2563 32.3977 62.0381 31.7906 61.6072 31.3475C61.0023 30.7514 60.0881 30.59 59.3146 30.9428C58.5412 31.2956 58.0689 32.0859 58.1296 32.9282L58.1462 33.1279C58.1462 33.5271 57.8203 33.8498 57.417 33.8498H54.2958V36.8034L66.0377 36.8034ZM57.5496 41.2146H62.7866C63.1898 41.2146 63.5158 40.8919 63.5158 40.4927C63.5158 40.0934 63.1898 39.7708 62.7866 39.7708H57.5468C57.1435 39.7708 56.8176 40.0935 56.8176 40.4927C56.8176 40.892 57.1435 41.2146 57.5468 41.2146H57.5496ZM58.6848 50.1052H70.6088C70.8077 50.1107 70.9983 50.0369 71.1392 49.9029C71.28 49.7661 71.3601 49.5802 71.3601 49.3833C71.3601 49.1891 71.28 49.0004 71.1392 48.8664C70.9983 48.7296 70.8077 48.6558 70.6088 48.6613H58.682C58.2898 48.6749 57.9749 48.9949 57.9749 49.3832C57.9749 49.7743 58.2898 50.0942 58.682 50.1052L58.6848 50.1052ZM58.6848 53.8492H75.2963C75.6885 53.8355 76.0006 53.5155 76.0006 53.1272C76.0006 52.7362 75.6885 52.4162 75.2963 52.4053H58.682C58.2898 52.4162 57.9749 52.7362 57.9749 53.1272C57.9749 53.5156 58.2898 53.8355 58.682 53.8492H58.6848ZM53.0529 48.2675C51.832 47.0587 49.9979 46.6977 48.4014 47.3513C46.8077 48.0049 45.7663 49.5473 45.7663 51.2565C45.7663 52.9658 46.8077 54.5054 48.4014 55.1591C49.9979 55.8154 51.832 55.4517 53.0529 54.2429C54.7212 52.5938 54.7212 49.9166 53.0529 48.2675ZM50.0366 45.5874C47.7192 45.5874 45.631 46.9685 44.7443 49.0879C43.8577 51.2046 44.3466 53.644 45.9845 55.2658C47.6225 56.8875 50.0863 57.3743 52.227 56.4964C54.3676 55.6185 55.7625 53.5511 55.7625 51.2565C55.7625 48.1252 53.1993 45.5874 50.0366 45.5874ZM47.28 51.9649L48.5976 53.2612H48.6003C48.8793 53.5347 49.3267 53.5402 49.614 53.2722L52.7795 50.2831H52.7767C52.9231 50.1518 53.0087 49.9686 53.0143 49.7771C53.0226 49.583 52.9507 49.3943 52.8154 49.2548C52.6801 49.1126 52.495 49.0333 52.2989 49.0306C52.1028 49.0278 51.9149 49.1044 51.7768 49.2411L49.1224 51.7462L48.3076 50.9422C48.0231 50.6632 47.5618 50.6632 47.2801 50.9449C46.9956 51.2266 46.9984 51.6833 47.2829 51.9622L47.28 51.9649ZM69.7831 67.5177C70.1173 65.9753 70.9542 64.586 72.1613 63.5605C74.2384 61.8212 76.8873 60.8968 79.6051 60.9625L69.6914 69.9C69.5975 69.1342 69.6223 68.3576 69.7632 67.6L69.7798 67.518L69.7831 67.5177ZM53.0529 62.5568C51.832 61.348 49.9952 60.9871 48.3987 61.6407C46.8049 62.2943 45.7635 63.8367 45.7635 65.5459C45.7635 67.2551 46.8049 68.7948 48.3987 69.4511C49.9952 70.1048 51.832 69.741 53.0529 68.5323C54.7185 66.8832 54.7185 64.2086 53.0529 62.5568ZM50.0338 59.8768C47.7164 59.8768 45.6282 61.2579 44.7416 63.3773C43.8549 65.4967 44.3466 67.9361 45.9845 69.5578C47.6225 71.1796 50.0863 71.6636 52.2242 70.7857C54.3648 69.9079 55.7597 67.8404 55.7597 65.5459C55.7597 62.4146 53.1965 59.8768 50.0338 59.8768ZM47.28 66.2543L48.5976 67.5506C48.8765 67.8241 49.324 67.8295 49.6113 67.5615L52.7767 64.5724C53.0668 64.299 53.0778 63.8422 52.8016 63.5551C52.5254 63.268 52.0641 63.2543 51.7741 63.5305L49.1197 66.0355L48.3049 65.2315C48.0204 64.9526 47.5591 64.9526 47.2774 65.2343C46.9956 65.516 46.9956 65.9727 47.2801 66.2516L47.28 66.2543ZM58.6822 78.6839H65.7533C65.8361 78.6839 65.919 78.6702 65.9991 78.6429L71.6008 77.084L71.598 77.0813C71.714 77.0539 71.8217 76.9965 71.9101 76.9172L74.7275 74.3739L75.6252 79.8106V79.8078C75.628 79.8461 75.6362 79.8817 75.6445 79.9172C76.0892 81.446 76.9538 82.8242 78.1387 83.8963V87.5637C78.1387 87.7442 78.0641 87.9165 77.9343 88.045C77.8017 88.1735 77.6277 88.2419 77.4427 88.2419H42.8855C42.7032 88.2419 42.5264 88.1735 42.3966 88.045C42.2668 87.9192 42.1922 87.7442 42.1922 87.5637V43.5259C42.1922 43.3454 42.2668 43.1731 42.3966 43.0445C42.5264 42.9187 42.7032 42.8476 42.8855 42.8476H49.7024C50.1333 43.638 50.9509 44.1467 51.8569 44.185H68.474C69.38 44.1467 70.1976 43.638 70.6285 42.8476H77.4455C77.6278 42.8476 77.8046 42.9187 77.9344 43.0445C78.0642 43.1731 78.1388 43.3454 78.1388 43.5259V59.5792C75.3408 59.8226 72.7112 61.015 70.695 62.9539H58.6827C58.2904 62.9648 57.9755 63.2848 57.9755 63.6731C57.9755 64.0642 58.2904 64.3841 58.6827 64.3951H69.5269C69.0656 65.1033 68.7149 65.88 68.4883 66.6922H58.6828C58.2906 66.7059 57.9757 67.0259 57.9757 67.4142C57.9757 67.8052 58.2906 68.1252 58.6828 68.1361H68.2203C68.1347 69.1124 68.1982 70.097 68.4137 71.0541L67.3779 71.9894C67.2923 72.066 67.2287 72.159 67.1873 72.2629L65.2538 77.2375H58.6771H58.6798C58.2849 77.2511 57.9727 77.5711 57.9727 77.9594C57.9727 78.3505 58.2849 78.6677 58.6798 78.6813L58.6822 78.6839ZM58.6822 82.4278L75.2964 82.4251C75.6886 82.4141 76.0008 82.0942 76.0008 81.7031C76.0008 81.3148 75.6886 80.9948 75.2964 80.9839H58.6822C58.2899 80.9949 57.975 81.3148 57.975 81.7031C57.975 82.0942 58.2899 82.4142 58.6822 82.4251V82.4278ZM53.0529 76.8434C51.832 75.6346 49.9952 75.2736 48.3987 75.9272C46.805 76.5808 45.7636 78.1232 45.7636 79.8325C45.7636 81.5417 46.805 83.0841 48.3987 83.7377C49.9952 84.3913 51.8321 84.0303 53.0529 82.8215C54.7185 81.1697 54.7185 78.4952 53.0529 76.8434ZM50.0339 74.1633C47.7165 74.1633 45.6283 75.5444 44.7416 77.6638C43.855 79.7832 44.3466 82.2227 45.9846 83.8444C47.6225 85.4661 50.0864 85.9502 52.2243 85.075C54.3649 84.1972 55.7598 82.127 55.7598 79.8352C55.7598 76.7038 53.1966 74.1633 50.0339 74.1633ZM47.2801 80.5408L48.5976 81.8371C48.8766 82.1106 49.324 82.1161 49.6113 81.8481L52.7768 78.859C53.0668 78.5855 53.0779 78.1315 52.8017 77.8417C52.5254 77.5545 52.0641 77.5436 51.7742 77.8171L49.1197 80.3221L48.3049 79.5181V79.5208C48.0177 79.2501 47.5674 79.2556 47.2885 79.5318C47.0095 79.8107 47.0039 80.2592 47.2801 80.5408Z" fill="white"/>
<defs>
<linearGradient id="paint0_linear_7_9" x1="241.358" y1="63.4786" x2="51.2435" y2="153.205" gradientUnits="userSpaceOnUse">
<stop stop-color="#04BFD7"/>
<stop offset="1" stop-color="#63388B"/>
</linearGradient>
</defs>
</svg>
