<svg width="123" height="124" viewBox="0 0 123 124" fill="none" xmlns="http://www.w3.org/2000/svg">
<circle cx="61.5" cy="61.8164" r="61.5" fill="url(#paint0_linear_7_8)"/>
<path d="M91.8727 35.3164H32.1273C31.5047 35.3164 31 35.8211 31 36.4437V78.1528C31 78.7753 31.5047 79.28 32.1273 79.28H60.3091V88.3379H44.4051C43.7825 88.3379 43.2778 88.8426 43.2778 89.4651C43.2778 90.0877 43.7825 90.5924 44.4051 90.5924H78.4676C79.0902 90.5924 79.5949 90.0877 79.5949 89.4651C79.5949 88.8426 79.0902 88.3379 78.4676 88.3379H62.5636V79.28H91.8727C92.4953 79.28 93 78.7753 93 78.1528V36.4437C93 35.8211 92.4953 35.3164 91.8727 35.3164ZM90.7455 37.571V42.08H33.2545V37.571H90.7455ZM33.2545 77.0255V44.3346H90.7455V77.0255H33.2545Z" fill="white" stroke="white" stroke-width="0.5"/>
<path d="M36.6351 40.9499C37.2577 40.9499 37.7624 40.4452 37.7624 39.8226C37.7624 39.2 37.2577 38.6953 36.6351 38.6953C36.0125 38.6953 35.5078 39.2 35.5078 39.8226C35.5078 40.4452 36.0125 40.9499 36.6351 40.9499Z" fill="white" stroke="white" stroke-width="0.5"/>
<path d="M78.4802 59.228L80.1364 56.3597L78.1835 55.2324L76.4678 58.2036H71.9549L70.2986 55.3354L68.3457 56.4626L70.0608 59.4333L67.8041 63.3424H64.4922V65.5969H67.9224L70.1792 69.5061L68.5235 72.3749L70.4764 73.5022L72.1915 70.531H76.705L78.3613 73.3998L80.3142 72.2725L78.5991 69.3013L80.8558 65.3922H84.1677V63.1376H80.7375L78.4802 59.228ZM76.5873 68.2764H72.0727L69.8159 64.3673L72.0727 60.4582H76.5873L78.844 64.3673L76.5873 68.2764Z" fill="white" stroke="white" stroke-width="0.5"/>
<path d="M74.3276 65.659C75.0413 65.659 75.62 65.0804 75.62 64.3666C75.62 63.6528 75.0413 63.0742 74.3276 63.0742C73.6138 63.0742 73.0352 63.6528 73.0352 64.3666C73.0352 65.0804 73.6138 65.659 74.3276 65.659Z" fill="white" stroke="white" stroke-width="0.5"/>
<path d="M52.7065 61.6435C53.6404 61.6435 54.3974 60.8865 54.3974 59.9526C54.3974 59.0188 53.6404 58.2617 52.7065 58.2617C51.7727 58.2617 51.0156 59.0188 51.0156 59.9526C51.0156 60.8865 51.7727 61.6435 52.7065 61.6435Z" fill="white" stroke="white" stroke-width="0.5"/>
<path d="M66.4182 61.0783V58.8238H63.0469L58.8515 51.557L60.5375 48.637L58.5846 47.5098L56.8986 50.4298H48.5085L46.8225 47.5098L44.8696 48.637L46.5555 51.557L42.3596 58.8238H38.9883V61.0783H42.3596L46.5555 68.345L44.8696 71.2651L46.8225 72.3923L48.5085 69.4723H56.8986L58.5846 72.3923L60.5375 71.2651L58.8515 68.345L63.0469 61.0783H66.4182ZM56.8991 67.2178H48.5079L44.3126 59.951L48.5079 52.6843H56.8991L61.0939 59.951L56.8991 67.2178Z" fill="white" stroke="white" stroke-width="0.5"/>
<defs>
<linearGradient id="paint0_linear_7_8" x1="241.358" y1="63.4786" x2="51.2435" y2="153.205" gradientUnits="userSpaceOnUse">
<stop stop-color="#04BFD7"/>
<stop offset="1" stop-color="#63388B"/>
</linearGradient>
</defs>
</svg>
