<svg width="95" height="95" viewBox="0 0 95 95" fill="none" xmlns="http://www.w3.org/2000/svg">
<rect width="95" height="95" rx="5" fill="url(#paint0_linear_60_7)" fill-opacity="0.3"/>
<path d="M71.0208 23H23.9799C23.4384 23 23 23.4384 23 23.9799V71.0201C23 71.5616 23.4384 72 23.9799 72H71.0201C71.5616 72 72 71.5616 72 71.0201V23.9799C72.0007 23.4384 71.5623 23 71.0208 23ZM70.0409 24.9597V33.0458H24.9598V24.9597H70.0409ZM24.9598 70.0403V35.0055H70.0409V70.0403H24.9598ZM67.4865 30.2308H45.8928V28.2711H67.4865V30.2308ZM41.5753 30.2308H39.7845V28.2711H41.5753V30.2308ZM37.5433 30.2308H35.7526V28.2711H37.5433V30.2308ZM33.5113 30.2308H31.7206V28.2711H33.5113V30.2308ZM29.48 30.2308H27.6893V28.2711H29.48V30.2308ZM61.8867 52.3199C62.0706 52.5037 62.1736 52.7529 62.1736 53.0128C62.1736 53.2728 62.0706 53.522 61.8867 53.7058L54.4962 61.0962C54.3049 61.2875 54.0544 61.3831 53.8032 61.3831C53.5527 61.3831 53.3015 61.2875 53.1102 61.0962C52.7277 60.7137 52.7277 60.0935 53.1102 59.7103L59.8077 53.0128L53.1102 46.3154C52.7277 45.9329 52.7277 45.3126 53.1102 44.9295C53.4928 44.5469 54.1137 44.5469 54.4962 44.9295L61.8867 52.3199ZM42.1336 46.0723L35.1929 53.0128L42.1336 59.9534C42.5161 60.3359 42.5161 60.9568 42.1336 61.3393C41.9423 61.5306 41.6918 61.6262 41.4406 61.6262C41.1894 61.6262 40.9389 61.5306 40.7476 61.3393L33.114 53.7058C32.7314 53.3233 32.7314 52.7031 33.114 52.3199L40.7476 44.6863C41.1301 44.3038 41.751 44.3038 42.1336 44.6863C42.5161 45.0689 42.5161 45.6898 42.1336 46.0723ZM50.6191 45.1732L46.2753 61.3838C46.1581 61.8215 45.7621 62.1104 45.3291 62.1104C45.2449 62.1104 45.1601 62.0997 45.0752 62.0768C44.5526 61.9367 44.2422 61.3993 44.3822 60.8767L48.726 44.6661C48.8661 44.1435 49.4042 43.8344 49.9261 43.9732C50.4487 44.1132 50.7585 44.6506 50.6191 45.1732Z" fill="#3F3F3F"/>
<defs>
<linearGradient id="paint0_linear_60_7" x1="186.415" y1="48.7838" x2="39.5783" y2="118.085" gradientUnits="userSpaceOnUse">
<stop stop-color="#04BFD7"/>
<stop offset="1" stop-color="#63388B"/>
</linearGradient>
</defs>
</svg>
