<svg width="95" height="95" viewBox="0 0 95 95" fill="none" xmlns="http://www.w3.org/2000/svg">
<rect width="95" height="95" rx="5" fill="url(#paint0_linear_60_8)"/>
<path d="M68.1203 29.2809H66.4005V25.381C66.4005 23.5149 64.8841 22 63.0162 22H32.9844C31.1165 22 29.6001 23.5149 29.6001 25.381V29.2809H27.8803C26.2909 29.2809 25 30.575 25 32.1583V59.4692C25 61.057 26.2954 62.3466 27.8803 62.3466H42.5821L41.5852 68L40.5838 68.0022C38.3888 68.0022 36.6049 69.7821 36.6049 71.9772V72.4122C36.6049 73.2889 37.3189 74 38.1943 74H57.8013C58.6789 74 59.3906 73.2867 59.3906 72.4122V71.9772C59.3906 69.7843 57.609 68.0022 55.4117 68.0022H54.4104L53.4135 62.3488H68.1153C69.7047 62.3488 70.9956 61.0547 70.9956 59.4714L71 32.1651C71 30.5773 69.7119 29.2809 68.1203 29.2809ZM30.8689 28.5808H65.1273V48.0781C65.1273 49.2419 64.1768 50.1915 63.0118 50.1915L32.9845 50.1938C31.8196 50.1938 30.8691 49.2442 30.8691 48.0804L30.8689 28.5808ZM32.9843 23.2654H63.0161C64.1811 23.2654 65.1316 24.215 65.1316 25.3788V27.3133H30.8686V25.381C30.8686 24.2172 31.8128 23.2654 32.9843 23.2654ZM27.8759 30.5486H29.5957V48.0808C29.5957 49.9469 31.1121 51.4618 32.98 51.4618H63.0118C64.8797 51.4618 66.3961 49.9469 66.3961 48.0808V30.5486H68.1159C69.0045 30.5486 69.7296 31.2729 69.7296 32.1607V56.2491L26.2624 56.2469V32.1647C26.2624 31.2704 26.9872 30.5486 27.8759 30.5486ZM58.1221 71.9883V72.4233C58.1221 72.5978 57.9807 72.7457 57.7994 72.7457H38.1924C38.0178 72.7457 37.8697 72.6044 37.8697 72.4233V71.9883C37.8697 70.4955 39.0855 69.2808 40.5798 69.2808H55.4078C56.9043 69.2786 58.1221 70.4954 58.1221 71.9883ZM53.1242 68.0133H42.872L43.8689 62.3599H52.1298L53.1242 68.0133ZM68.1203 61.0879H27.8759C26.9872 61.0879 26.2622 60.3636 26.2622 59.4758V57.5193H69.7339V59.4758C69.7339 60.3636 69.009 61.0879 68.1203 61.0879ZM32.8715 25.2909C32.8715 24.7874 33.2783 24.3744 33.7889 24.3744C34.2929 24.3744 34.7063 24.7807 34.7063 25.2909C34.7063 25.7944 34.2995 26.2073 33.7889 26.2073C33.2849 26.2073 32.8715 25.7988 32.8715 25.2909ZM36.5388 25.2909C36.5388 24.7874 36.9455 24.3744 37.4562 24.3744C37.9601 24.3744 38.3735 24.7807 38.3735 25.2909C38.3735 25.7944 37.9668 26.2073 37.4562 26.2073C36.9522 26.2073 36.5388 25.7988 36.5388 25.2909ZM40.206 25.2909C40.206 24.7874 40.6128 24.3744 41.1234 24.3744C41.6318 24.3744 42.0408 24.7807 42.0408 25.2909C42.0408 25.7944 41.634 26.2073 41.1234 26.2073C40.6128 26.2073 40.206 25.7988 40.206 25.2909ZM50.8499 25.2909C50.8499 24.9398 51.1328 24.6571 51.4843 24.6571H63.1247C63.4761 24.6571 63.7591 24.9397 63.7591 25.2909C63.7591 25.642 63.4761 25.9247 63.1247 25.9247H51.4843C51.1328 25.9247 50.8499 25.642 50.8499 25.2909ZM36.7026 42.9113L37.8521 47.5863C38.0731 48.4851 38.8755 49.1123 39.7995 49.1123H40.75C41.2319 49.1123 41.6784 48.898 41.9725 48.5182C42.2665 48.1384 42.3682 47.6592 42.2554 47.1954L41.2364 43.0636C45.0672 43.0747 47.6536 44.0463 49.59 46.1951V46.4667C49.59 47.5068 50.4389 48.3548 51.48 48.3548C52.5211 48.3548 53.37 47.5068 53.37 46.4667V41.3897H54.4288C55.2268 41.3897 55.8723 40.7449 55.8723 39.9476V38.0816C55.8723 37.2843 55.2268 36.6395 54.4288 36.6395L53.3744 36.6417V31.5537C53.3744 30.5136 52.5255 29.6656 51.4844 29.6656C50.4433 29.6656 49.5944 30.5136 49.5944 31.5537V31.8253C47.647 33.9851 45.0386 34.9568 41.1638 34.9568H37.7685C35.5337 34.9568 33.7166 36.772 33.7166 39.0047C33.7099 40.8774 34.9829 42.4431 36.7026 42.9113ZM40.9689 47.7343C40.9402 47.774 40.8672 47.8425 40.7479 47.8425H39.7973C39.4525 47.8425 39.1629 47.6172 39.0834 47.2838L38.0422 43.0614H39.9212L41.0132 47.5002C41.0485 47.615 41.0043 47.6945 40.9689 47.7343ZM54.4332 37.9025C54.5304 37.9025 54.6078 37.982 54.6078 38.077V39.943C54.6078 40.0402 54.5282 40.1175 54.4332 40.1175L53.3743 40.1197V37.9091H54.4332V37.9025ZM50.861 31.5538C50.861 31.2093 51.1373 30.931 51.4844 30.931C51.8292 30.931 52.1077 31.207 52.1077 31.5538V46.4622C52.1077 46.8068 51.8314 47.085 51.4844 47.085C51.1395 47.085 50.861 46.809 50.861 46.4622V31.5538ZM49.5943 33.6075V44.4105C47.0986 42.2839 44.1101 41.8555 41.7958 41.7981V36.2176C44.1102 36.1624 47.0988 35.732 49.5943 33.6075ZM37.7684 36.231H40.5293V41.7872H37.7684C36.2276 41.7872 34.9831 40.5439 34.9831 39.0113C34.9831 37.4787 36.2276 36.231 37.7684 36.231ZM58.6378 38.3731H61.6485C62 38.3731 62.283 38.6558 62.283 39.0069C62.283 39.3581 62 39.6407 61.6485 39.6407L58.6378 39.6385C58.2864 39.6385 58.0034 39.3559 58.0034 39.0047C58.0034 38.6602 58.2864 38.3731 58.6378 38.3731ZM57.1833 35.7386C57.0087 35.4338 57.1104 35.0495 57.4154 34.8729L60.0238 33.369C60.3289 33.1946 60.7136 33.2961 60.8903 33.6009C61.065 33.9056 60.9633 34.2899 60.6582 34.4665L58.0498 35.9704C57.9481 36.0279 57.8398 36.0544 57.7337 36.0544C57.5105 36.0544 57.2961 35.9417 57.1833 35.7386ZM57.0816 42.2512C57.2563 41.9465 57.6475 41.8449 57.9481 42.0194L60.5565 43.5233C60.8616 43.6977 60.9633 44.0886 60.7887 44.3889C60.6693 44.5921 60.4615 44.7047 60.2404 44.7047C60.1321 44.7047 60.026 44.676 59.9243 44.6208L57.3159 43.1169C57.0087 42.9468 56.9048 42.556 57.0816 42.2512Z" fill="white"/>
<defs>
<linearGradient id="paint0_linear_60_8" x1="186.415" y1="48.7838" x2="39.5783" y2="118.085" gradientUnits="userSpaceOnUse">
<stop stop-color="#04BFD7"/>
<stop offset="1" stop-color="#63388B"/>
</linearGradient>
</defs>
</svg>
