<svg width="95" height="95" viewBox="0 0 95 95" fill="none" xmlns="http://www.w3.org/2000/svg">
<rect width="95" height="95" rx="5" fill="url(#paint0_linear_60_10)" fill-opacity="0.3"/>
<path d="M47.0424 33.8936C45.0326 33.8936 43.3828 35.3371 43.3828 37.0957C43.3828 38.8543 45.0326 40.2978 47.0424 40.2978C49.0522 40.2978 50.702 38.8543 50.702 37.0957C50.702 35.3371 49.0522 33.8936 47.0424 33.8936ZM47.0424 35.4946C48.0635 35.4946 48.8722 36.2022 48.8722 37.0957C48.8722 37.9892 48.0635 38.6967 47.0424 38.6967C46.0212 38.6967 45.2126 37.9892 45.2126 37.0957C45.2126 36.2022 46.0212 35.4946 47.0424 35.4946Z" fill="#3F3F3F"/>
<path d="M46.127 43.9575V50.3618H47.9567V43.9575H46.127Z" fill="#3F3F3F"/>
<path d="M47.0452 42.1277C46.916 42.1283 46.7884 42.1551 46.6708 42.206C46.5533 42.257 46.4484 42.3312 46.3631 42.4235L39.0423 50.2636C38.9379 50.3745 38.8652 50.5089 38.8309 50.6542C38.7966 50.7994 38.8019 50.9506 38.8464 51.0933L41.5951 59.8017C41.6512 59.982 41.767 60.1401 41.9252 60.2526C42.0834 60.365 42.2756 60.4257 42.4731 60.4256H51.6173C51.8147 60.4257 52.0069 60.365 52.1651 60.2526C52.3233 60.1401 52.4391 59.982 52.4952 59.8017L55.2371 51.0933C55.2825 50.9511 55.289 50.8003 55.2559 50.6551C55.2228 50.5099 55.1512 50.3751 55.048 50.2636L47.7273 42.4235C47.6419 42.3312 47.537 42.257 47.4195 42.206C47.3019 42.1551 47.1743 42.1283 47.0452 42.1277ZM47.0452 44.3144L53.3394 51.0547L50.9352 58.6826H43.1484L40.7509 51.0547L47.0452 44.3144Z" fill="#3F3F3F"/>
<path d="M61.2225 33.8936C58.9615 33.8936 57.1055 35.3371 57.1055 37.0957C57.1055 38.8543 58.9615 40.2978 61.2225 40.2978C63.4835 40.2978 65.3395 38.8543 65.3395 37.0957C65.3395 35.3371 63.4835 33.8936 61.2225 33.8936ZM61.2225 35.4946C62.3713 35.4946 63.281 36.2022 63.281 37.0957C63.281 37.9892 62.3713 38.6967 61.2225 38.6967C60.0737 38.6967 59.164 37.9892 59.164 37.0957C59.164 36.2022 60.0737 35.4946 61.2225 35.4946Z" fill="#3F3F3F"/>
<path d="M33.3197 33.8936C31.3099 33.8936 29.6602 35.3371 29.6602 37.0957C29.6602 38.8543 31.3099 40.2978 33.3197 40.2978C35.3295 40.2978 36.9793 38.8543 36.9793 37.0957C36.9793 35.3371 35.3295 33.8936 33.3197 33.8936ZM33.3197 35.4946C34.3409 35.4946 35.1495 36.2022 35.1495 37.0957C35.1495 37.9892 34.3409 38.6967 33.3197 38.6967C32.2986 38.6967 31.4899 37.9892 31.4899 37.0957C31.4899 36.2022 32.2986 35.4946 33.3197 35.4946Z" fill="#3F3F3F"/>
<path d="M44.789 36.6382C39.932 37.6755 36.2542 41.1297 35.1484 45.4023L36.9441 45.7871C37.8913 42.1273 41.0417 39.1675 45.2123 38.2768L44.789 36.6382Z" fill="#3F3F3F"/>
<path d="M50.2107 36.6382L49.7871 38.2768C53.9582 39.1692 57.1002 42.1287 58.0472 45.7871L59.8509 45.4023C58.7453 41.1314 55.0682 37.6774 50.2107 36.6382Z" fill="#3F3F3F"/>
<path d="M59.3944 44.8723C57.1333 44.8723 55.2773 46.5169 55.2773 48.5285C55.2773 50.5402 57.1333 52.1915 59.3944 52.1915C61.6554 52.1915 63.5114 50.5402 63.5114 48.5285C63.5114 46.5169 61.6554 44.8723 59.3944 44.8723ZM59.3944 46.697C60.5432 46.697 61.4529 47.5064 61.4529 48.5285C61.4529 49.5506 60.5432 50.36 59.3944 50.36C58.2456 50.36 57.3359 49.5506 57.3359 48.5285C57.3359 47.5064 58.2456 46.697 59.3944 46.697Z" fill="#3F3F3F"/>
<path d="M35.1498 44.8723C33.14 44.8723 31.4902 46.5169 31.4902 48.5285C31.4902 50.5402 33.14 52.1915 35.1498 52.1915C37.1596 52.1915 38.8094 50.5402 38.8094 48.5285C38.8094 46.5169 37.1596 44.8723 35.1498 44.8723ZM35.1498 46.697C36.171 46.697 36.9796 47.5064 36.9796 48.5285C36.9796 49.5506 36.171 50.36 35.1498 50.36C34.1287 50.36 33.32 49.5506 33.32 48.5285C33.32 47.5064 34.1287 46.697 35.1498 46.697Z" fill="#3F3F3F"/>
<path d="M49.7871 36.6382V37.5531H58.0212V36.6382H49.7871Z" fill="#3F3F3F"/>
<path d="M36.0645 36.6382V37.5531H44.2985V36.6382H36.0645Z" fill="#3F3F3F"/>
<path d="M32.5411 22C29.3028 22 27.6129 23.6073 26.8004 25.143C25.9879 26.6788 26 28.1883 26 28.1883V67.0523C26 67.0523 25.9879 68.5618 26.8004 70.0975C27.6129 71.6333 29.2822 73.234 32.5411 73.234H62.452C65.7199 73.234 67.3871 71.6333 68.1996 70.0975C69.0121 68.5618 69 67.0523 69 67.0523V28.1883C69 25.1139 67.2992 23.5243 65.6743 22.7564C64.0493 21.9886 62.452 22 62.452 22H32.5411ZM32.5411 23.7672H62.452C62.452 23.7672 63.6603 23.7838 64.8394 24.341C66.0185 24.8981 67.1301 25.9545 67.1301 28.1883V67.0523C67.1301 67.0523 67.1125 68.1942 66.5229 69.3085C65.9334 70.4228 64.8068 71.4734 62.452 71.4734H32.5411C30.1941 71.4734 29.0597 70.4228 28.4702 69.3085C27.8806 68.1942 27.8699 67.0523 27.8699 67.0523V28.1883C27.8699 28.1883 27.8806 27.0464 28.4702 25.9321C29.0597 24.8177 30.1919 23.7672 32.5411 23.7672Z" fill="#3F3F3F"/>
<path d="M26.9141 63.1702V65H68.0843V63.1702H26.9141Z" fill="#3F3F3F"/>
<path d="M43.3828 66.8298V68.6596H50.702V66.8298H43.3828Z" fill="#3F3F3F"/>
<defs>
<linearGradient id="paint0_linear_60_10" x1="186.415" y1="48.7838" x2="39.5783" y2="118.085" gradientUnits="userSpaceOnUse">
<stop stop-color="#04BFD7"/>
<stop offset="1" stop-color="#63388B"/>
</linearGradient>
</defs>
</svg>
