<svg width="95" height="95" viewBox="0 0 95 95" fill="none" xmlns="http://www.w3.org/2000/svg">
<rect width="95" height="95" rx="5" fill="url(#paint0_linear_60_11)"/>
<path d="M67.2857 32.8333H61.6735V23.6667C61.6725 22.6945 61.278 21.7624 60.5765 21.075C59.8751 20.3876 58.924 20.001 57.932 20H31.7415C30.7495 20.001 29.7984 20.3876 29.097 21.075C28.3955 21.7624 28.001 22.6945 28 23.6667V71.3333C28.001 72.3055 28.3955 73.2376 29.097 73.925C29.7984 74.6124 30.7495 74.999 31.7415 75H57.932C58.924 74.999 59.8751 74.6124 60.5765 73.925C61.278 73.2376 61.6725 72.3055 61.6735 71.3333V64H67.2857C68.2777 63.999 69.2288 63.6124 69.9303 62.925C70.6317 62.2376 71.0262 61.3055 71.0272 60.3333V36.5C71.0262 35.5278 70.6317 34.5958 69.9303 33.9083C69.2288 33.2209 68.2777 32.8343 67.2857 32.8333ZM49.5136 21.8333V22.75C49.5134 22.9931 49.4148 23.2261 49.2395 23.398C49.0641 23.5699 48.8263 23.6665 48.5782 23.6667H41.0952C40.8472 23.6665 40.6094 23.5699 40.434 23.398C40.2586 23.2261 40.16 22.9931 40.1599 22.75V21.8333H49.5136ZM59.8027 71.3333C59.8021 71.8194 59.6048 72.2853 59.2541 72.629C58.9034 72.9727 58.4279 73.166 57.932 73.1667H31.7415C31.2455 73.166 30.7701 72.9727 30.4194 72.629C30.0687 72.2853 29.8714 71.8194 29.8707 71.3333V23.6667C29.8714 23.1806 30.0687 22.7147 30.4194 22.371C30.7701 22.0273 31.2455 21.834 31.7415 21.8333H38.2891V22.75C38.2899 23.4791 38.5858 24.1781 39.1119 24.6937C39.638 25.2092 40.3513 25.4992 41.0952 25.5H48.5782C49.3222 25.4992 50.0355 25.2092 50.5616 24.6937C51.0876 24.1781 51.3835 23.4791 51.3844 22.75V21.8333H57.932C58.4279 21.834 58.9034 22.0273 59.2541 22.371C59.6048 22.7147 59.8021 23.1806 59.8027 23.6667V32.8333H35.483C34.491 32.8343 33.5399 33.2209 32.8384 33.9083C32.137 34.5958 31.7425 35.5278 31.7415 36.5V60.3333C31.7425 61.3055 32.137 62.2376 32.8384 62.925C33.5399 63.6124 34.491 63.999 35.483 64H59.8027V71.3333ZM69.1565 60.3333C69.1558 60.8194 68.9585 61.2853 68.6078 61.629C68.2571 61.9727 67.7817 62.166 67.2857 62.1667H35.483C34.987 62.166 34.5116 61.9727 34.1609 61.629C33.8102 61.2853 33.6129 60.8194 33.6122 60.3333V36.5C33.6129 36.014 33.8102 35.548 34.1609 35.2043C34.5116 34.8607 34.987 34.6673 35.483 34.6667H67.2857C67.7817 34.6673 68.2571 34.8607 68.6078 35.2043C68.9585 35.548 69.1558 36.014 69.1565 36.5V60.3333Z" fill="white"/>
<path d="M45.1111 49.0649C45.2877 49.2312 45.5237 49.323 45.7686 49.3206C46.0135 49.3182 46.2477 49.2218 46.4208 49.0521C46.594 48.8824 46.6923 48.6529 46.6947 48.4129C46.6971 48.173 46.6034 47.9416 46.4337 47.7686L42.4182 43.8334L46.4338 39.8982C46.6035 39.7252 46.6972 39.4938 46.6947 39.2538C46.6923 39.0138 46.5939 38.7844 46.4208 38.6147C46.2476 38.445 46.0134 38.3486 45.7686 38.3462C45.5237 38.3439 45.2876 38.4357 45.1111 38.602L40.4342 43.1854C40.3473 43.2705 40.2784 43.3715 40.2314 43.4827C40.1844 43.5939 40.1602 43.7131 40.1602 43.8335C40.1602 43.9538 40.1844 44.073 40.2314 44.1842C40.2784 44.2955 40.3473 44.3965 40.4342 44.4816L45.1111 49.0649Z" fill="white"/>
<path d="M57.6574 38.602C57.4808 38.4357 57.2448 38.3439 56.9999 38.3462C56.755 38.3486 56.5209 38.445 56.3477 38.6147C56.1745 38.7844 56.0762 39.0139 56.0738 39.2539C56.0714 39.4939 56.1651 39.7252 56.3348 39.8982L60.3503 43.8334L56.3347 47.7686C56.247 47.8536 56.1773 47.9546 56.1295 48.0661C56.0818 48.1775 56.057 48.2971 56.0566 48.4179C56.0563 48.5388 56.0803 48.6585 56.1273 48.7703C56.1743 48.882 56.2434 48.9835 56.3306 49.0689C56.4178 49.1544 56.5214 49.2221 56.6354 49.2682C56.7494 49.3142 56.8716 49.3378 56.9949 49.3374C57.1182 49.337 57.2402 49.3127 57.3539 49.2659C57.4676 49.2192 57.5708 49.1508 57.6574 49.0648L62.3343 44.4815C62.4212 44.3964 62.4901 44.2954 62.5371 44.1841C62.5841 44.0729 62.6083 43.9537 62.6083 43.8334C62.6083 43.713 62.5841 43.5938 62.5371 43.4826C62.4901 43.3714 62.4212 43.2704 62.3343 43.1853L57.6574 38.602Z" fill="white"/>
<path d="M54.558 36.5744C54.4451 36.527 54.3238 36.5018 54.201 36.5003C54.0782 36.4988 53.9563 36.5211 53.8423 36.5658C53.7283 36.6106 53.6244 36.6769 53.5365 36.761C53.4487 36.8451 53.3786 36.9454 53.3303 37.056L47.7181 49.8894C47.6697 50 47.6441 50.1188 47.6426 50.2392C47.6412 50.3595 47.6639 50.4789 47.7095 50.5907C47.7552 50.7024 47.8228 50.8042 47.9086 50.8903C47.9944 50.9764 48.0966 51.0451 48.2095 51.0925C48.3224 51.1398 48.4437 51.165 48.5665 51.1664C48.6893 51.1678 48.8111 51.1456 48.9251 51.1008C49.0391 51.0561 49.143 50.9898 49.2309 50.9058C49.3188 50.8217 49.3889 50.7215 49.4372 50.6109L55.0494 37.7775C55.0978 37.6669 55.1235 37.548 55.125 37.4277C55.1264 37.3074 55.1037 37.1879 55.0581 37.0762C55.0124 36.9645 54.9448 36.8626 54.859 36.7765C54.7732 36.6904 54.6709 36.6218 54.558 36.5744Z" fill="white"/>
<path d="M48.5778 53.9167H37.3533C37.1053 53.9167 36.8673 54.0133 36.6919 54.1852C36.5165 54.3571 36.418 54.5903 36.418 54.8334C36.418 55.0765 36.5165 55.3097 36.6919 55.4816C36.8673 55.6535 37.1053 55.7501 37.3533 55.7501H48.5778C48.8236 55.7467 49.0582 55.6486 49.2307 55.4771C49.4033 55.3055 49.5001 55.0743 49.5001 54.8334C49.5001 54.5925 49.4033 54.3613 49.2307 54.1898C49.0582 54.0182 48.8236 53.9202 48.5778 53.9167Z" fill="white"/>
<path d="M44.8349 57.5833H37.3519C37.1061 57.5867 36.8716 57.6847 36.699 57.8563C36.5264 58.0278 36.4297 58.259 36.4297 58.4999C36.4297 58.7408 36.5264 58.972 36.699 59.1436C36.8716 59.3151 37.1061 59.4132 37.3519 59.4166H44.8349C45.0807 59.4132 45.3152 59.3151 45.4878 59.1436C45.6604 58.972 45.7572 58.7408 45.7572 58.4999C45.7572 58.259 45.6604 58.0278 45.4878 57.8563C45.3152 57.6847 45.0807 57.5867 44.8349 57.5833Z" fill="white"/>
<path d="M41.0961 71.3333H48.5791C48.8248 71.3299 49.0594 71.2319 49.232 71.0603C49.4045 70.8888 49.5013 70.6576 49.5013 70.4167C49.5013 70.1758 49.4045 69.9446 49.232 69.773C49.0594 69.6015 48.8248 69.5034 48.5791 69.5H41.0961C40.8503 69.5034 40.6157 69.6015 40.4432 69.773C40.2706 69.9446 40.1738 70.1758 40.1738 70.4167C40.1738 70.6576 40.2706 70.8888 40.4432 71.0603C40.6157 71.2319 40.8503 71.3299 41.0961 71.3333Z" fill="white"/>
<defs>
<linearGradient id="paint0_linear_60_11" x1="186.415" y1="48.7838" x2="39.5783" y2="118.085" gradientUnits="userSpaceOnUse">
<stop stop-color="#04BFD7"/>
<stop offset="1" stop-color="#63388B"/>
</linearGradient>
</defs>
</svg>
