<svg width="95" height="95" viewBox="0 0 95 95" fill="none" xmlns="http://www.w3.org/2000/svg">
<rect width="95" height="95" rx="5" fill="url(#paint0_linear_60_9)" fill-opacity="0.3"/>
<path fill-rule="evenodd" clip-rule="evenodd" d="M60.266 71.6872H23.5758C23.2583 71.6872 23 71.4309 23 71.1161V26.5711C23 26.2562 23.2583 26 23.5758 26H60.266C60.5834 26 60.8417 26.2563 60.8417 26.5711V43.8876C60.8417 44.2025 60.5834 44.4588 60.266 44.4588C59.9485 44.4588 59.6902 44.2025 59.6902 43.8876V27.1421H24.1517V70.5423H59.6902V63.9555C59.6902 63.6406 59.9486 63.3844 60.266 63.3844C60.5834 63.3844 60.8417 63.6407 60.8417 63.9555V71.1133C60.8417 71.4282 60.5834 71.6844 60.266 71.6844V71.6872Z" fill="#3F3F3F" stroke="#3F3F3F" stroke-width="0.2"/>
<path fill-rule="evenodd" clip-rule="evenodd" d="M52.089 44.8541C49.6479 44.8541 47.3492 45.7966 45.6241 47.51C43.8968 49.2234 42.9467 51.5015 42.9467 53.9228C42.9467 56.3464 43.8968 58.6244 45.6241 60.3379C47.3515 62.0513 49.648 62.9938 52.089 62.9938C54.5322 62.9938 56.8288 62.0513 58.5561 60.3379C60.2834 58.6244 61.2336 56.3463 61.2336 53.9228C61.2336 51.5014 60.2834 49.2212 58.5561 47.51C56.8288 45.7966 54.5322 44.8541 52.089 44.8541ZM52.089 64.1387C49.3393 64.1387 46.7537 63.0767 44.8098 61.1461C42.8657 59.2177 41.793 56.653 41.793 53.9233C41.793 51.1958 42.8636 48.631 44.8098 46.7027C46.7539 44.7743 49.3394 43.7102 52.089 43.7102C54.8409 43.7102 57.4242 44.7722 59.3704 46.7027C61.3145 48.6312 62.3873 51.1959 62.3873 53.9233C62.3873 56.6531 61.3167 59.2156 59.3704 61.1461C57.4263 63.0746 54.8408 64.1387 52.089 64.1387Z" fill="#3F3F3F" stroke="#3F3F3F" stroke-width="0.2"/>
<path fill-rule="evenodd" clip-rule="evenodd" d="M43.3002 45.2059C38.4532 50.0117 38.4532 57.8341 43.3002 62.6419C45.7237 65.0459 48.907 66.2469 52.0881 66.2469C55.2714 66.2469 58.4544 65.0459 60.8783 62.6419C65.7254 57.8339 65.7254 50.0114 60.8783 45.2059C56.0335 40.3978 48.1448 40.3978 43.3002 45.2059ZM52.0881 67.3913C48.6094 67.3913 45.1329 66.0775 42.4836 63.452C37.1878 58.1987 37.1878 49.6512 42.4836 44.3981C47.7795 39.145 56.3964 39.1449 61.6921 44.3981C66.988 49.6513 66.988 58.1989 61.6921 63.452C59.0452 66.0775 55.5669 67.3913 52.0881 67.3913Z" fill="#3F3F3F" stroke="#3F3F3F" stroke-width="0.2"/>
<path fill-rule="evenodd" clip-rule="evenodd" d="M63.803 66.1143C63.6541 66.1143 63.5074 66.0579 63.3958 65.9471L60.8781 63.4497C60.6526 63.226 60.6526 62.8655 60.8781 62.6419C61.1036 62.4182 61.467 62.4182 61.6925 62.6419L64.2102 65.1393C64.4357 65.363 64.4357 65.7235 64.2102 65.9471C64.0963 66.0579 63.9497 66.1143 63.803 66.1143Z" fill="#3F3F3F" stroke="#3F3F3F" stroke-width="0.2"/>
<path fill-rule="evenodd" clip-rule="evenodd" d="M65.256 65.5217C64.8598 65.5217 64.4876 65.6715 64.2117 65.9473C63.636 66.5185 63.636 67.4479 64.2117 68.0191L69.6346 73.3983C69.9126 73.6741 70.2826 73.824 70.6789 73.824C71.0751 73.824 71.4473 73.6719 71.7232 73.3983C72.2989 72.8272 72.2989 71.8977 71.7232 71.3244L66.3025 65.9473C66.0245 65.6715 65.6545 65.5217 65.2582 65.5217H65.256ZM70.6767 74.9705C70.0046 74.9705 69.3303 74.7164 68.818 74.2083L63.3973 68.8291C62.3728 67.8127 62.3728 66.1579 63.3973 65.1394C64.4219 64.1231 66.0923 64.1231 67.1169 65.1394L72.5398 70.5186C73.5643 71.535 73.5643 73.1898 72.5398 74.2083C72.0275 74.7164 71.3532 74.9705 70.6789 74.9705H70.6767Z" fill="#3F3F3F" stroke="#3F3F3F" stroke-width="0.2"/>
<path fill-rule="evenodd" clip-rule="evenodd" d="M51.1279 57.1694C50.979 57.1694 50.8323 57.1129 50.7207 57.0021L47.2551 53.5644C47.0296 53.3407 47.0296 52.9802 47.2551 52.7566C47.4806 52.5329 47.844 52.5329 48.0695 52.7566L51.1279 55.7904L56.1106 50.8477C56.3361 50.624 56.6996 50.624 56.925 50.8477C57.1505 51.0714 57.1505 51.4319 56.925 51.6555L51.535 57.0021C51.4234 57.1151 51.2746 57.1694 51.1279 57.1694Z" fill="#3F3F3F" stroke="#3F3F3F" stroke-width="0.2"/>
<path fill-rule="evenodd" clip-rule="evenodd" d="M29.9015 36.3909H32.7213V32.1019H29.9015V36.3909ZM33.2971 37.5332H29.3258C29.0083 37.5332 28.75 37.277 28.75 36.9621V31.5286C28.75 31.2137 29.0083 30.9575 29.3258 30.9575H33.2971C33.6145 30.9575 33.8728 31.2138 33.8728 31.5286V36.9621C33.8728 37.277 33.6145 37.5332 33.2971 37.5332Z" fill="#3F3F3F" stroke="#3F3F3F" stroke-width="0.2"/>
<path fill-rule="evenodd" clip-rule="evenodd" d="M54.5173 34.8166H36.7183C36.4009 34.8166 36.1426 34.5603 36.1426 34.2454C36.1426 33.9284 36.4009 33.6743 36.7183 33.6743H54.5173C54.8347 33.6743 55.093 33.9284 55.093 34.2454C55.093 34.5603 54.8347 34.8166 54.5173 34.8166Z" fill="#3F3F3F" stroke="#3F3F3F" stroke-width="0.2"/>
<path fill-rule="evenodd" clip-rule="evenodd" d="M29.9015 46.1221H32.7213V41.8331H29.9015V46.1221ZM33.2971 47.2644H29.3258C29.0083 47.2644 28.75 47.0082 28.75 46.6933V41.2598C28.75 40.9449 29.0083 40.6887 29.3258 40.6887H33.2971C33.6145 40.6887 33.8728 40.945 33.8728 41.2598V46.6933C33.8728 47.0082 33.6145 47.2644 33.2971 47.2644Z" fill="#3F3F3F" stroke="#3F3F3F" stroke-width="0.2"/>
<path fill-rule="evenodd" clip-rule="evenodd" d="M43.8072 44.55H36.7203C36.4028 44.55 36.1445 44.2937 36.1445 43.9788C36.1445 43.664 36.4029 43.4077 36.7203 43.4077H43.8089C44.1264 43.4077 44.3847 43.664 44.3847 43.9788C44.3847 44.2937 44.1264 44.55 43.8089 44.55H43.8072Z" fill="#3F3F3F" stroke="#3F3F3F" stroke-width="0.2"/>
<path fill-rule="evenodd" clip-rule="evenodd" d="M29.9015 55.8555H32.7213V51.5665H29.9015V55.8555ZM33.2971 56.9978H29.3258C29.0083 56.9978 28.75 56.7416 28.75 56.4267V50.9932C28.75 50.6783 29.0083 50.4221 29.3258 50.4221H33.2971C33.6145 50.4221 33.8728 50.6784 33.8728 50.9932V56.4267C33.8728 56.7416 33.6145 56.9978 33.2971 56.9978Z" fill="#3F3F3F" stroke="#3F3F3F" stroke-width="0.2"/>
<path fill-rule="evenodd" clip-rule="evenodd" d="M39.0872 54.2834H36.7183C36.4009 54.2834 36.1426 54.0271 36.1426 53.7122C36.1426 53.3952 36.4009 53.1411 36.7183 53.1411H39.0872C39.4068 53.1411 39.6629 53.3952 39.6629 53.7122C39.6629 54.0271 39.4068 54.2834 39.0872 54.2834Z" fill="#3F3F3F" stroke="#3F3F3F" stroke-width="0.2"/>
<path fill-rule="evenodd" clip-rule="evenodd" d="M29.9015 65.5892H32.7213V61.3002H29.9015V65.5892ZM33.2971 66.7315H29.3258C29.0083 66.7315 28.75 66.4752 28.75 66.1603V60.7269C28.75 60.412 29.0083 60.1558 29.3258 60.1558H33.2971C33.6145 60.1558 33.8728 60.412 33.8728 60.7269V66.1603C33.8728 66.4752 33.6145 66.7315 33.2971 66.7315Z" fill="#3F3F3F" stroke="#3F3F3F" stroke-width="0.2"/>
<path fill-rule="evenodd" clip-rule="evenodd" d="M43.3127 64.0146H36.7183C36.4009 64.0146 36.1426 63.7605 36.1426 63.4434C36.1426 63.1285 36.4009 62.8723 36.7183 62.8723H43.3127C43.6301 62.8723 43.8884 63.1264 43.8884 63.4434C43.8884 63.7605 43.6301 64.0146 43.3127 64.0146Z" fill="#3F3F3F" stroke="#3F3F3F" stroke-width="0.2"/>
<defs>
<linearGradient id="paint0_linear_60_9" x1="186.415" y1="48.7838" x2="39.5783" y2="118.085" gradientUnits="userSpaceOnUse">
<stop stop-color="#04BFD7"/>
<stop offset="1" stop-color="#63388B"/>
</linearGradient>
</defs>
</svg>
