<svg width="95" height="95" viewBox="0 0 95 95" fill="none" xmlns="http://www.w3.org/2000/svg">
<rect width="95" height="95" rx="5" fill="url(#paint0_linear_60_6)"/>
<path d="M58.6373 37.8566L69.368 37.8631C69.7184 37.8653 70 38.1522 70 38.5017L69.9871 59.7637L69.9828 65.8243L69.985 65.8265C69.985 66.1781 69.7012 66.4629 69.3508 66.465L55.2754 66.4564V70.1565L63.4115 70.1608C63.7619 70.1608 64.0477 70.4456 64.05 70.7972V74.3636C64.0478 74.7152 63.7619 75 63.4115 75L32.5735 74.9827H32.5756C32.4079 74.9806 32.2467 74.9137 32.1263 74.795C32.0081 74.6764 31.9415 74.5146 31.9415 74.3463V70.78C31.9415 70.6095 32.0103 70.4499 32.1285 70.3291C32.2467 70.2104 32.4079 70.1435 32.5756 70.1435L40.7117 70.1478V66.4477L26.6363 66.4391V66.4413C26.2859 66.4413 26 66.1543 26 65.8027L26.0043 59.7399L26.0172 38.4779H26.015C26.015 38.124 26.3009 37.8371 26.6535 37.8371L37.3843 37.8435H37.3821C37.4036 37.7421 37.4144 37.6407 37.4122 37.5372C37.4079 37.2847 37.3434 37.0388 37.2274 36.8166L37.107 36.5792C36.7437 35.8694 36.8791 35.0043 37.4445 34.4433L38.889 32.9892C39.1641 32.7152 39.5188 32.5339 39.9014 32.4714C40.2841 32.411 40.6775 32.4735 41.0214 32.6548L41.2578 32.7756V32.7734C41.4793 32.8921 41.7243 32.9547 41.9758 32.9611C42.2273 32.959 42.4745 32.9007 42.6981 32.7864C42.9388 32.6655 43.1753 32.5577 43.416 32.4584C43.6568 32.3592 43.9019 32.2664 44.1555 32.178V32.1801C44.392 32.1024 44.6091 31.9708 44.7854 31.7939C44.9595 31.6127 45.0906 31.3948 45.1637 31.1553L45.2475 30.9029V30.9008C45.4883 30.1392 46.1955 29.6235 46.993 29.6278H49.0372C49.8304 29.6257 50.5355 30.1435 50.7741 30.9029L50.8579 31.1553V31.1575C51.0041 31.6472 51.3846 32.0334 51.8725 32.1845C52.1219 32.2708 52.367 32.3657 52.6077 32.4649C52.8484 32.5642 53.087 32.6721 53.3257 32.795C53.5492 32.9072 53.7964 32.9676 54.0479 32.9698C54.2994 32.9633 54.5445 32.9008 54.7659 32.7821L55.0066 32.6613V32.6634C55.3506 32.4822 55.7418 32.4196 56.1244 32.4822C56.507 32.5448 56.8596 32.726 57.1347 33L58.5835 34.4541H58.5814C58.8565 34.7281 59.0371 35.0841 59.0973 35.466C59.1553 35.8522 59.093 36.2449 58.9167 36.5901L58.7942 36.8274C58.6781 37.0496 58.6158 37.2977 58.6093 37.548C58.6093 37.6516 58.6179 37.7551 58.6394 37.8544L58.6373 37.8566ZM51.55 45.8956C51.4339 46.0337 51.2684 46.1178 51.09 46.1243C50.9094 46.1329 50.7375 46.0639 50.6106 45.9388C50.4838 45.8115 50.4172 45.6367 50.4236 45.4576C50.4322 45.2786 50.516 45.1103 50.6515 44.9959L52.2787 43.3649L50.6536 41.7274C50.5182 41.6109 50.4344 41.4448 50.4279 41.2635C50.4193 41.0845 50.4859 40.9097 50.6128 40.7846C50.7396 40.6573 50.9137 40.5882 51.0921 40.5969C51.2705 40.6055 51.4382 40.6875 51.5521 40.8256L53.6286 42.9118C53.7469 43.0305 53.8156 43.1923 53.8156 43.3627C53.8156 43.531 53.7469 43.6928 53.6286 43.8137L51.55 45.8956ZM49.7143 39.3733C49.8884 39.0691 50.2731 38.9655 50.5763 39.1403C50.8793 39.3151 50.9825 39.7034 50.8084 40.0054L46.3007 47.8329C46.1266 48.1393 45.7397 48.245 45.4366 48.0681C45.1313 47.8933 45.026 47.505 45.2001 47.2008L49.7143 39.3733ZM45.3592 44.9915H45.357C45.4946 45.108 45.5784 45.2741 45.587 45.4553C45.5956 45.6344 45.5268 45.8092 45.4 45.9365C45.2732 46.0637 45.0991 46.1306 44.9207 46.122C44.7422 46.1134 44.5746 46.0314 44.4606 45.8911L42.382 43.807C42.137 43.5568 42.137 43.1555 42.382 42.9052L44.4606 40.8211C44.7143 40.6097 45.0862 40.6269 45.3205 40.8621C45.5526 41.0951 45.5698 41.4705 45.357 41.7229L43.7298 43.3561L45.3592 44.9915ZM48.5965 23.2677C48.5965 22.409 49.0801 21.6237 49.8453 21.2397C50.6106 20.8556 51.5263 20.9376 52.2121 21.4533C52.8956 21.9689 53.231 22.8276 53.0783 23.6733C52.9257 24.5169 52.3109 25.2029 51.4898 25.4446V28.5708C51.4898 28.9246 51.2039 29.2116 50.8513 29.2116C50.501 29.2116 50.2151 28.9247 50.2151 28.5708V25.4446C49.8518 25.3367 49.5229 25.1404 49.2542 24.8707C48.8307 24.4456 48.5943 23.8696 48.5943 23.2677L48.5965 23.2677ZM50.1549 22.5687C49.97 22.7543 49.8668 23.0045 49.8647 23.2677C49.8647 23.5309 49.9679 23.7834 50.1527 23.9689C50.3376 24.1544 50.5891 24.2601 50.8513 24.2601C51.3952 24.258 51.8359 23.8179 51.838 23.2698C51.8359 22.7262 51.3974 22.2838 50.8535 22.2795C50.5912 22.2795 50.3397 22.3832 50.1549 22.5687ZM42.9279 23.2677C42.9279 22.4112 43.4094 21.6258 44.1746 21.244C44.9377 20.8599 45.8534 20.9419 46.5349 21.4576C47.2185 21.9711 47.5538 22.8297 47.4012 23.6733C47.2507 24.5169 46.6359 25.2008 45.8169 25.4403V28.5687C45.832 28.7477 45.7718 28.9246 45.6514 29.0562C45.5289 29.1879 45.359 29.2634 45.1806 29.2634C45.0022 29.2634 44.8324 29.1879 44.712 29.0562C44.5916 28.9246 44.5314 28.7477 44.5465 28.5687V25.4403C43.5835 25.1576 42.9236 24.2709 42.9236 23.2655L42.9279 23.2677ZM44.4863 22.5709V22.5687C44.2993 22.7543 44.1961 23.0045 44.1961 23.2677C44.1939 23.669 44.4326 24.0315 44.8023 24.1868C45.1721 24.3422 45.5976 24.2559 45.8792 23.9711C46.0641 23.7855 46.1694 23.5331 46.1694 23.2678C46.1673 22.7241 45.7266 22.2818 45.1849 22.2796C44.9226 22.2796 44.669 22.3853 44.4841 22.5709L44.4863 22.5709ZM59.888 27.559C59.8923 27.1555 59.6516 26.7931 59.2818 26.6398C58.9121 26.4845 58.4865 26.5708 58.2049 26.8556C57.9749 27.0886 57.8739 27.423 57.9383 27.7445C58.0028 28.0681 58.2221 28.3378 58.5252 28.4651C58.8283 28.5902 59.1744 28.5579 59.4474 28.3766C59.7225 28.1933 59.8859 27.8869 59.888 27.559ZM60.5007 25.956H60.4985C60.9435 26.3767 61.2014 26.9592 61.2101 27.5719C61.2187 28.1847 60.9801 28.7758 60.548 29.2094C60.1159 29.6431 59.5269 29.8804 58.9165 29.8696C58.3038 29.8588 57.7234 29.6021 57.3064 29.1533C57.0377 28.8858 56.8421 28.5536 56.7368 28.1889H55.4771V31.1058C55.4921 31.2827 55.4319 31.4597 55.3116 31.5913C55.189 31.725 55.0192 31.7984 54.8408 31.7984C54.6624 31.7984 54.4926 31.725 54.3722 31.5913C54.2518 31.4597 54.1916 31.2827 54.2067 31.1058V27.5524C54.2045 27.3842 54.2712 27.2223 54.3915 27.1015C54.5098 26.9807 54.671 26.9138 54.8408 26.9138H56.7389H56.7367C56.8421 26.5492 57.0398 26.217 57.3085 25.9494C58.1899 25.067 59.6172 25.067 60.4986 25.9494L60.5007 25.956ZM34.8712 27.5396C34.8776 26.4155 35.7009 25.4662 36.8101 25.3065C37.9193 25.1469 38.9769 25.8265 39.295 26.9031H41.191C41.5413 26.9031 41.8272 27.19 41.8272 27.5439V31.0951C41.8423 31.2742 41.7842 31.4511 41.6638 31.5849C41.5413 31.7165 41.3715 31.792 41.1931 31.792C41.0125 31.792 40.8427 31.7165 40.7223 31.5849C40.6019 31.4511 40.5417 31.2742 40.5589 31.0951V28.1782H39.295C38.9747 29.2569 37.9171 29.9344 36.8079 29.7747C35.7009 29.6151 34.8755 28.6636 34.8712 27.5396ZM36.4361 26.8427C36.2491 27.0283 36.1438 27.2807 36.1438 27.5417C36.1438 27.8049 36.2491 28.0574 36.4361 28.2429C36.6188 28.4306 36.8703 28.5341 37.1304 28.5341C37.3927 28.5341 37.6442 28.4306 37.829 28.245C38.0139 28.0595 38.1192 27.8071 38.1192 27.546C38.1192 27.2828 38.016 27.0304 37.8312 26.8449C37.6463 26.6572 37.3948 26.5536 37.1347 26.5536C36.8725 26.5536 36.6231 26.6593 36.4383 26.8449L36.4361 26.8427ZM48.0138 34.795C50.7438 34.7971 53.319 36.0744 54.9805 38.2491C56.64 40.426 57.1989 43.2523 56.4896 45.8998C55.7802 48.5471 53.8842 50.7132 51.3606 51.7594C48.837 52.8057 45.9716 52.6137 43.6092 51.2416C41.2446 49.8694 39.6518 47.4703 39.2971 44.754C38.9446 42.0356 39.8689 39.3064 41.8035 37.3712C43.4458 35.7164 45.6793 34.7887 48.0092 34.793L48.0138 34.795ZM53.3211 38.2836C50.791 35.7378 46.821 35.343 43.8395 37.3387C40.858 39.3322 39.6973 43.164 41.0665 46.4884C42.4358 49.8109 45.9526 51.7009 49.4673 51.0019C52.9819 50.3007 55.514 47.2068 55.5162 43.6102C55.5205 41.6123 54.7291 39.6968 53.3211 38.2836ZM36.8552 39.1207L27.2894 39.1164L27.2765 59.1037L68.7187 59.1274L68.7295 39.1424L59.1615 39.138C59.2389 39.3344 59.3141 39.535 59.3829 39.74C59.4603 39.9773 59.5914 40.1952 59.7677 40.3721C59.9482 40.5468 60.1653 40.6784 60.4039 40.7561L60.6597 40.8381V40.8359C61.4185 41.0776 61.9323 41.7874 61.9258 42.5878V44.6396C61.9237 45.0279 61.8033 45.4055 61.5776 45.7205C61.3476 46.0355 61.0252 46.2685 60.6554 46.385L60.3996 46.4691C59.9116 46.6158 59.5269 46.9955 59.3764 47.4853C59.2926 47.7355 59.2001 47.9815 59.0991 48.2231C59.0002 48.4647 58.8884 48.7042 58.7702 48.9437L58.7723 48.9416C58.5359 49.3968 58.5402 49.9362 58.7809 50.3892L58.9035 50.6309V50.6287C59.0776 50.9761 59.1421 51.3687 59.0819 51.7528C59.0217 52.1369 58.8411 52.4906 58.566 52.7646L57.1172 54.2188C56.5583 54.784 55.6963 54.9199 54.9891 54.5554L54.7483 54.4324V54.4302C54.299 54.1886 53.7616 54.1864 53.3081 54.4216C53.0716 54.5381 52.8309 54.6503 52.5901 54.7495C52.3494 54.8488 52.1043 54.9415 51.855 55.0257C51.6164 55.1033 51.3993 55.2371 51.223 55.414C51.0467 55.5931 50.9178 55.8132 50.8425 56.0526L50.7587 56.3094C50.5201 57.0709 49.8128 57.5866 49.0175 57.5801H46.9733C46.1779 57.5866 45.4685 57.0688 45.2299 56.3072L45.1461 56.0505C45.073 55.811 44.944 55.5909 44.7678 55.4119C44.5915 55.2328 44.3765 55.1012 44.1379 55.0235C43.8864 54.9394 43.6392 54.8466 43.3985 54.7452C43.1577 54.646 42.9212 54.5338 42.6805 54.4173L42.6826 54.4151C42.2312 54.1799 41.6917 54.1821 41.2424 54.4237L41.0059 54.5467C40.2966 54.9135 39.4346 54.7754 38.8736 54.2101L37.4312 52.756C37.156 52.482 36.9776 52.126 36.9153 51.742C36.8551 51.3558 36.9196 50.961 37.1001 50.6158L37.2205 50.3741C37.3387 50.1519 37.4011 49.906 37.4075 49.6535C37.4054 49.4011 37.3452 49.153 37.2334 48.9286C37.113 48.6913 37.0055 48.4496 36.9067 48.2123C36.8078 47.975 36.7153 47.7204 36.6272 47.4701C36.5498 47.2306 36.4187 47.0149 36.2424 46.8358C36.0619 46.6611 35.8448 46.5295 35.604 46.4561L35.3482 46.372H35.3503C34.5937 46.1282 34.0799 45.4205 34.0842 44.6222V42.5705V42.5726C34.0821 42.1821 34.2046 41.8024 34.4324 41.4874C34.6603 41.1746 34.9827 40.9416 35.3503 40.8229L35.6061 40.7431V40.741C35.8447 40.6655 36.0619 40.5338 36.2424 40.3591C36.4187 40.1822 36.5519 39.9643 36.6272 39.727C36.696 39.522 36.7712 39.3192 36.8486 39.125L36.8552 39.1207ZM55.5823 33.8004L55.3415 33.9212C54.5355 34.344 53.5724 34.3505 52.762 33.9341C52.5578 33.8327 52.3407 33.7356 52.1193 33.6429C51.8979 33.5501 51.6851 33.4681 51.4615 33.3948H51.4637C50.5995 33.1121 49.9245 32.426 49.6537 31.5544L49.572 31.2977H49.5741C49.5376 31.1833 49.4667 31.0819 49.3699 31.0107C49.2711 30.9417 49.155 30.9072 49.0367 30.9093H46.9925C46.8721 30.9072 46.7539 30.9417 46.6572 31.0107C46.5626 31.0841 46.4917 31.1833 46.4551 31.2977L46.3713 31.5544V31.5523C46.238 31.9816 46.0037 32.3721 45.6898 32.6914C45.3717 33.0107 44.9848 33.2502 44.5591 33.3926C44.3377 33.4681 44.1185 33.5479 43.9014 33.6407C43.6843 33.7313 43.465 33.8306 43.2586 33.932L43.2608 33.9298C42.4504 34.3441 41.4895 34.3376 40.6856 33.9126L40.4448 33.7917V33.7939C40.3373 33.7356 40.2148 33.7162 40.0966 33.7356C39.9784 33.7551 39.8709 33.8112 39.787 33.8975L38.3382 35.3516H38.3404C38.1619 35.522 38.119 35.7896 38.2372 36.0075L38.3576 36.2491C38.7789 37.056 38.7853 38.0204 38.3705 38.8338C38.2694 39.0409 38.1727 39.2545 38.0803 39.4789C37.9878 39.7011 37.9061 39.9147 37.8331 40.1412C37.6912 40.5663 37.4526 40.9525 37.1345 41.2696C36.8163 41.5846 36.4272 41.8198 35.9995 41.9536L35.7437 42.0377C35.5072 42.1067 35.3482 42.329 35.3568 42.5771V44.6288C35.3503 44.8748 35.5072 45.0948 35.7437 45.1682L35.9995 45.2502V45.248C36.8658 45.522 37.5493 46.1995 37.8309 47.0668C37.9062 47.289 37.9878 47.5091 38.0781 47.727C38.1684 47.9449 38.2673 48.1671 38.3683 48.3742H38.3662C38.7789 49.1876 38.7746 50.1498 38.3511 50.9589L38.2307 51.1962C38.1749 51.3041 38.1534 51.4249 38.1727 51.5458C38.1942 51.6644 38.2501 51.7723 38.3361 51.8564L39.7849 53.3063H39.7827C39.8666 53.3926 39.9741 53.4508 40.0923 53.4724C40.2127 53.4897 40.333 53.4702 40.4405 53.4141L40.6813 53.2912V53.289C41.4873 52.8705 42.4439 52.864 43.2543 53.2761C43.4607 53.3775 43.6757 53.4789 43.8971 53.5673C44.1185 53.6558 44.3313 53.7421 44.5549 53.8176C44.9805 53.96 45.3674 54.1995 45.6834 54.5209C45.9972 54.8402 46.2316 55.2307 46.3627 55.6601L46.4465 55.9125H46.4487C46.5175 56.1498 46.7389 56.3095 46.9839 56.3052H49.0282C49.2754 56.3095 49.4946 56.1498 49.5656 55.9125L49.6472 55.6601C49.9202 54.7906 50.5952 54.1045 51.4572 53.8197C51.6786 53.7442 51.8979 53.6601 52.115 53.5695C52.3321 53.4789 52.5535 53.3796 52.7577 53.2782V53.2804C53.5703 52.8705 54.529 52.8748 55.3373 53.2976L55.578 53.4206H55.5759C55.793 53.5393 56.0617 53.4961 56.2315 53.3149L57.676 51.8672C57.8566 51.6989 57.8996 51.4271 57.7813 51.2113L57.6502 50.9632C57.2332 50.1542 57.2267 49.1941 57.6373 48.3807C57.7383 48.1736 57.8394 47.9557 57.9275 47.7334C58.0156 47.5112 58.1016 47.2976 58.1769 47.0733V47.0711C58.4585 46.2038 59.142 45.5285 60.0083 45.2566L60.2641 45.1746C60.4984 45.1034 60.6575 44.8834 60.6553 44.6374V42.5857C60.6618 42.3376 60.5006 42.1153 60.2641 42.0463L60.0083 41.9622H60.0105C59.5827 41.8262 59.1936 41.5932 58.8755 41.2761C58.5595 40.9589 58.3209 40.5727 58.1812 40.1455C58.1059 39.919 58.0221 39.6989 57.9318 39.4832C57.8415 39.2653 57.7427 39.0452 57.6416 38.8381C57.2332 38.0247 57.2396 37.0625 57.6588 36.2534L57.7813 36.0118V36.0139C57.8372 35.9061 57.8566 35.7831 57.8394 35.6644C57.82 35.5458 57.762 35.4357 57.6739 35.3537L56.2315 33.8996C56.1477 33.8155 56.0402 33.7594 55.9219 33.7378C55.8037 33.7184 55.6812 33.7378 55.5759 33.796L55.5823 33.8004ZM27.2762 60.3784L27.274 65.1616L41.3495 65.1702L68.7157 65.1875L68.7179 60.4043L27.2762 60.3784ZM54.6341 71.4292L41.3434 71.4206L33.2051 71.4163V73.7053L62.7725 73.7226V71.4335L54.6341 71.4292ZM54.0043 66.4562L41.9837 66.4497V70.1498L54.0043 70.1563V66.4562Z" fill="white"/>
<defs>
<linearGradient id="paint0_linear_60_6" x1="186.415" y1="48.7838" x2="39.5783" y2="118.085" gradientUnits="userSpaceOnUse">
<stop stop-color="#04BFD7"/>
<stop offset="1" stop-color="#63388B"/>
</linearGradient>
</defs>
</svg>
