<svg width="95" height="95" viewBox="0 0 95 95" fill="none" xmlns="http://www.w3.org/2000/svg">
<rect width="95" height="95" rx="5" fill="url(#paint0_linear_60_12)" fill-opacity="0.3"/>
<rect width="95" height="95" rx="5" fill="url(#paint1_linear_60_12)"/>
<path d="M55.3106 57.4482C55.0432 57.4046 54.7697 57.4913 54.5774 57.6849L51.4994 60.7827C50.431 61.8581 49.0112 62.4505 47.5003 62.4505C45.9894 62.4505 44.569 61.8581 43.5006 60.7827L40.4226 57.6849C40.2303 57.4907 39.9551 57.4029 39.6894 57.4482C32.4555 58.6584 27 65.1316 27 72.5061C27 72.9738 27.3769 73.3531 27.8416 73.3531H67.1584C67.6231 73.3531 68 72.9738 68 72.5061C68 65.1316 62.5445 58.6584 55.3106 57.4482ZM28.7099 71.6585C29.0974 65.6032 33.5985 60.3933 39.5438 59.1972L42.3093 61.9806C43.6957 63.3765 45.5391 64.1447 47.4992 64.1447C49.4598 64.1447 51.3026 63.3759 52.6884 61.9806L55.454 59.1972C61.3993 60.3933 65.9004 65.6027 66.2878 71.6585H28.7099Z" fill="white"/>
<path d="M44.6492 46.6569C45.5798 47.0334 46.5415 47.2119 47.4882 47.2114C50.5195 47.2114 53.394 45.3846 54.5914 42.3847C56.1624 38.4482 54.2584 33.9595 50.3466 32.379C46.4353 30.7973 41.9754 32.7141 40.4044 36.6511C39.6434 38.5579 39.6662 40.6492 40.4672 42.5391C41.2699 44.4291 42.7547 45.8915 44.6492 46.6569ZM41.967 37.2828C42.9009 34.9436 45.1423 33.5192 47.5065 33.5192C48.2442 33.5192 48.9947 33.6579 49.7201 33.9511C51.1971 34.5486 52.355 35.6888 52.9804 37.1625C53.6052 38.6367 53.623 40.2665 53.0299 41.7536C51.8041 44.824 48.3287 46.3184 45.2768 45.0848C43.7998 44.4872 42.6419 43.347 42.0165 41.8733C41.3911 40.3997 41.3739 38.7699 41.967 37.2828Z" fill="white"/>
<path d="M32.0615 36.9052C31.5984 36.8834 31.2415 37.2157 31.1921 37.6566C31.0392 39.0111 31.0547 40.3835 31.2376 41.7352C31.2971 42.1744 31.6912 42.4939 32.1221 42.4659C33.6185 42.3719 35.0188 43.2442 35.6059 44.6283C36.1934 46.0125 35.8488 47.6316 34.7481 48.6571C34.4246 48.9581 34.3868 49.4594 34.6608 49.8063C35.5047 50.8755 36.4797 51.8361 37.557 52.6608C37.9078 52.9288 38.4053 52.8801 38.6972 52.5478C39.6917 51.4182 41.291 51.036 42.6807 51.5966C44.0693 52.1578 44.9621 53.5481 44.9032 55.0565C44.886 55.4996 45.2112 55.8811 45.6492 55.9315C46.2618 56.002 46.8783 56.0367 47.4953 56.0367C48.2324 56.0367 48.9707 55.9863 49.7033 55.8862C50.1397 55.8263 50.4566 55.4375 50.4293 54.9955C50.3387 53.4894 51.202 52.08 52.5779 51.4892C53.9548 50.8984 55.5625 51.2453 56.5803 52.3525C56.8788 52.6781 57.3769 52.7167 57.7221 52.4403C58.7833 51.5916 59.7378 50.6108 60.5583 49.526C60.8251 49.173 60.7762 48.6728 60.4466 48.3785C59.3236 47.3776 58.9434 45.7668 59.501 44.3693C60.0585 42.9717 61.4355 42.0743 62.9392 42.1319C63.4006 42.1487 63.7586 41.8214 63.8086 41.3805C63.9615 40.026 63.9459 38.6536 63.763 37.3013C63.7041 36.8622 63.3278 36.5455 62.878 36.5707C61.3927 36.6619 59.9818 35.7935 59.3948 34.4083C58.8072 33.0236 59.1519 31.405 60.2525 30.38C60.5761 30.0796 60.6144 29.5783 60.3404 29.2314C59.4965 28.1622 58.522 27.2016 57.4442 26.3764C57.0934 26.1078 56.5959 26.1565 56.304 26.4888C55.3095 27.619 53.7063 28.0005 52.3205 27.4405C50.9319 26.8788 50.0385 25.4885 50.0975 23.9801C50.1147 23.537 49.7895 23.1554 49.3515 23.1051C48.0073 22.9512 46.6443 22.9663 45.2984 23.1504C44.8621 23.2097 44.5446 23.5985 44.5719 24.0411C44.6625 25.5472 43.7992 26.9565 42.4239 27.5474C41.0481 28.1393 39.4393 27.7918 38.4209 26.6841C38.1229 26.359 37.6249 26.3204 37.2791 26.5962C36.2173 27.4455 35.2629 28.4263 34.4435 29.5106C34.1766 29.8636 34.2256 30.3638 34.5552 30.6581C35.6776 31.659 36.0578 33.2703 35.5002 34.6673C34.9421 36.0643 33.5424 36.9545 32.0615 36.9052ZM37.0617 35.2995C37.7833 33.493 37.442 31.4447 36.2312 29.9727C36.7049 29.4059 37.2218 28.8756 37.7755 28.386C39.2625 29.5721 41.306 29.8698 43.0837 29.1066C44.8626 28.3418 46.06 26.6505 46.2379 24.75C46.9722 24.6856 47.711 24.6778 48.4448 24.7253C48.6627 26.6225 49.8968 28.2875 51.6923 29.0132C53.4868 29.7383 55.5219 29.3948 56.985 28.1768C57.5481 28.654 58.0751 29.1738 58.5615 29.7316C57.383 31.2282 57.0862 33.2837 57.8455 35.0735C58.6049 36.8644 60.2848 38.0695 62.1737 38.2485C62.2371 38.9865 62.246 39.7295 62.1987 40.4691C60.3131 40.6896 58.6582 41.9316 57.9384 43.7382C57.2174 45.5447 57.5587 47.593 58.7694 49.0644C58.2952 49.6312 57.7783 50.1616 57.2246 50.6511C55.7381 49.4656 53.6952 49.1679 51.9169 49.9305C50.138 50.6953 48.9401 52.3866 48.7622 54.2872C48.0284 54.351 47.2908 54.3599 46.5553 54.3118C46.3374 52.4146 45.1033 50.7496 43.3083 50.0245C41.5111 49.2966 39.4771 49.6418 38.0157 50.8604C37.4525 50.3837 36.925 49.8634 36.4386 49.3061C37.6171 47.8084 37.9134 45.7534 37.1546 43.9636C36.3958 42.1739 34.7153 40.9682 32.8264 40.7892C32.763 40.0506 32.7541 39.3076 32.8014 38.568C34.687 38.347 36.3413 37.1055 37.0617 35.2995Z" fill="white"/>
<defs>
<linearGradient id="paint0_linear_60_12" x1="186.415" y1="48.7838" x2="39.5783" y2="118.085" gradientUnits="userSpaceOnUse">
<stop stop-color="#04BFD7"/>
<stop offset="1" stop-color="#63388B"/>
</linearGradient>
<linearGradient id="paint1_linear_60_12" x1="186.415" y1="48.7838" x2="39.5783" y2="118.085" gradientUnits="userSpaceOnUse">
<stop stop-color="#04BFD7"/>
<stop offset="1" stop-color="#63388B"/>
</linearGradient>
</defs>
</svg>
