<svg width="35" height="26" viewBox="0 0 35 26" fill="none" xmlns="http://www.w3.org/2000/svg">
<path d="M30.6271 3.76124C30.0152 3.5687 29.3929 3.40824 28.7639 3.28324V1.9253C28.7639 1.74627 28.6459 1.5875 28.4733 1.53176C24.046 0.143426 19.2153 0.916959 15.458 3.61429C11.7007 0.916959 6.86995 0.143426 2.44443 1.53176C2.27179 1.5875 2.15384 1.74627 2.15384 1.9253V3.28493C1.52478 3.40823 0.902546 3.56868 0.290597 3.76124C0.117948 3.81698 0 3.97574 0 4.15647V25.4414C0 25.5849 0.0752155 25.7184 0.198288 25.7927C0.321365 25.8687 0.47521 25.8755 0.605127 25.8113C5.07703 23.57 10.2067 22.9585 15.0908 24.0868C15.1318 24.1155 15.1711 24.1425 15.2104 24.1729C15.3574 24.281 15.5592 24.281 15.7062 24.1729C15.7455 24.1442 15.7865 24.1172 15.8258 24.0868C20.7095 22.9585 25.8396 23.57 30.3115 25.8113C30.4414 25.8755 30.5952 25.8687 30.7183 25.7927C30.8414 25.7184 30.9166 25.5849 30.9166 25.4414V4.15647C30.9166 3.97574 30.8004 3.81698 30.6277 3.76124H30.6271ZM27.9262 2.22931V21.0851C23.8134 19.967 19.41 20.6831 15.8767 23.0477V17.93H18.8238C21.0255 17.93 22.8169 15.9573 22.8169 13.5336V11.5287L24.6186 10.8971V14.096H24.6203C24.087 14.2734 23.7263 14.7666 23.7263 15.3239V16.9876C23.7263 17.2156 23.9126 17.4014 24.1451 17.4014H25.9331H25.9314C26.1622 17.4014 26.3502 17.2156 26.3502 16.9876V15.3239C26.3485 14.7682 25.9895 14.2733 25.4562 14.096V10.6032L25.969 10.4242V10.4225C26.1348 10.3633 26.246 10.208 26.246 10.034C26.246 9.86002 26.1348 9.70464 25.969 9.64552L15.8769 6.1037V4.33534C19.3419 1.81706 23.7985 1.03842 27.9264 2.23085L27.9262 2.22931ZM15.4085 6.81646L24.5794 10.0323L15.4085 13.2498L6.23584 10.0323L15.4085 6.81646ZM8.83435 11.8226L15.2667 14.0791V14.0774C15.3573 14.1095 15.4565 14.1095 15.5471 14.0774L21.9794 11.8209V13.5318C21.9794 15.4995 20.564 17.1007 18.8222 17.1007L11.9898 17.1024C10.2497 17.1024 8.83261 15.5029 8.83261 13.5335L8.83435 11.8226ZM25.0376 14.8543C25.3009 14.856 25.5128 15.0654 25.5128 15.3238V16.5754H24.5624V15.3238C24.5624 15.0654 24.7761 14.8543 25.0376 14.8543ZM2.99143 2.23087C7.11963 1.03844 11.5742 1.81706 15.0392 4.33536V6.06827L4.8425 9.64386H4.84421C4.6784 9.70297 4.56729 9.85836 4.56729 10.0323C4.56729 10.2063 4.6784 10.3634 4.84421 10.4225L7.99463 11.5271V13.5319C7.99463 15.9556 9.7861 17.9284 11.9878 17.9284H15.0374V23.0461C12.6117 21.4399 9.76203 20.5768 6.84232 20.5632C5.53974 20.5632 4.24233 20.7389 2.98762 21.0851L2.99143 2.23087ZM7.77797 22.8486C5.37454 23.1222 3.03081 23.7759 0.837964 24.7842V4.46049C1.27215 4.33044 1.71318 4.22065 2.1542 4.12776V21.6393C2.1542 21.771 2.21744 21.896 2.32685 21.9737C2.43454 22.0514 2.573 22.0733 2.7012 22.0328C6.14736 20.9434 9.89108 21.2508 13.1062 22.8891C11.3386 22.6628 9.549 22.6493 7.77797 22.8486ZM30.0806 24.7842C27.8857 23.7759 25.5422 23.1222 23.1388 22.8486C21.3679 22.6493 19.5782 22.6645 17.8105 22.8925C21.0276 21.2525 24.7711 20.9451 28.2173 22.0362C28.3455 22.075 28.4839 22.0531 28.5916 21.9754C28.6993 21.8977 28.7643 21.7744 28.7643 21.6427V4.13115C29.2053 4.22404 29.6463 4.33383 30.0805 4.46388L30.0806 24.7842ZM17.513 5.08399C19.7933 3.9473 22.3367 3.42031 24.8875 3.55716C25.1183 3.57067 25.2943 3.76491 25.2807 3.99291C25.2687 4.22093 25.0704 4.3949 24.8396 4.38307C22.4345 4.25471 20.0378 4.75127 17.8874 5.82377C17.7882 5.87275 17.672 5.8812 17.5677 5.84573C17.4618 5.81195 17.3746 5.73763 17.325 5.63967C17.2224 5.4353 17.3061 5.18703 17.513 5.08399ZM5.63588 3.99291C5.62392 3.7649 5.79998 3.57067 6.03075 3.55716C8.58117 3.42035 11.1249 3.94731 13.4053 5.08399C13.6121 5.18702 13.6959 5.4353 13.5916 5.63969C13.4891 5.84406 13.2378 5.92682 13.031 5.82379C10.8805 4.75126 8.48379 4.25471 6.0787 4.38309C5.96759 4.38815 5.85819 4.351 5.77614 4.27837C5.69238 4.20574 5.64272 4.1027 5.63588 3.99291ZM6.07861 18.9403C5.85126 18.9454 5.66152 18.7731 5.64784 18.5502C5.63416 18.3272 5.80339 18.133 6.02903 18.1144C8.58115 17.9776 11.125 18.5046 13.4049 19.6413C13.6117 19.7443 13.6955 19.9926 13.5912 20.1952C13.4886 20.3996 13.2374 20.4824 13.0306 20.381C10.8801 19.3085 8.48369 18.812 6.07861 18.9403ZM25.2804 18.5502C25.2684 18.7782 25.0701 18.9522 24.8394 18.9403C22.4342 18.812 20.0375 19.3085 17.8871 20.381C17.788 20.43 17.6717 20.4385 17.5675 20.403C17.4615 20.3692 17.3743 20.2949 17.3247 20.1953C17.2221 19.9926 17.3059 19.7443 17.5128 19.6413C19.7931 18.5046 22.3365 17.9776 24.8873 18.1145C24.9984 18.1195 25.1027 18.1702 25.1762 18.2513C25.2497 18.334 25.2872 18.4404 25.2804 18.5502ZM33.5966 3.64638H33.171C32.3607 3.68016 31.7299 4.35238 31.759 5.15298V18.3999V18.4337V18.4472C31.759 18.4573 31.7607 18.4675 31.7641 18.4776V18.4877L32.9727 23.5444L32.971 23.5428C33.0154 23.7302 33.1846 23.862 33.3795 23.862C33.5727 23.862 33.7419 23.7302 33.7863 23.5428L34.9949 18.486V18.4759C34.9966 18.4658 34.9983 18.4556 35 18.4472V18.432V18.3999L34.9983 5.15298C35.0274 4.35575 34.4017 3.68357 33.5966 3.64638ZM33.5334 17.5466L33.5248 17.5449L33.5009 17.5365L33.4838 17.5314L33.4633 17.5264L33.4428 17.523H33.3436L33.3197 17.5264L33.3043 17.5297L33.2804 17.5348L33.265 17.5399L33.2411 17.5483L33.2342 17.5517L32.5949 17.7949L32.5932 7.84838H34.171V17.7897L33.5334 17.5466ZM34.1727 7.0207L32.5932 7.02239V6.33326H34.171L34.1727 7.0207ZM33.1709 4.47371H33.5983C33.9436 4.51086 34.1966 4.80981 34.1744 5.15268V5.50737H32.5932V5.15268C32.5692 4.80981 32.8239 4.50916 33.1709 4.47371ZM33.3846 21.6493L32.6684 18.6496L33.3846 18.3777L34.1008 18.6496L33.3846 21.6493Z" fill="#125115"/>
</svg>
