<svg width="33" height="28" viewBox="0 0 33 28" fill="none" xmlns="http://www.w3.org/2000/svg">
<path fill-rule="evenodd" clip-rule="evenodd" d="M1.7323 18.869C1.73367 18.8622 1.7364 18.8541 1.73777 18.8474L2.04431 17.7096L2.04568 17.7055C2.17842 17.2345 2.54244 16.808 3.09392 16.5151C3.57015 16.2614 4.19142 16.1035 4.9208 16.1035H7.55098L7.54961 10.4469H5.90336C5.71725 10.4469 5.56672 10.2985 5.56672 10.1149V9.07836H5.35461C5.1685 9.07836 5.01796 8.92989 5.01796 8.74633C5.01796 8.62351 5.08639 8.51554 5.18765 8.4575L10.7368 4.69306L16.3091 0.913759C16.4295 0.831429 16.5842 0.838177 16.6964 0.917808L22.2634 4.69296L27.8357 8.47226C27.9876 8.57619 28.0259 8.78269 27.9206 8.93249C27.8563 9.02562 27.7509 9.07556 27.6441 9.07556V9.07691H27.432V10.1135C27.432 10.297 27.2815 10.4455 27.0954 10.4455H25.4491V16.102H27.4115C28.13 16.102 28.7266 16.2559 29.1919 16.5029C29.7393 16.7944 30.106 17.2169 30.2785 17.6771L30.2798 17.6825L32.6842 24.4443C33.0989 25.6091 33.1139 26.45 32.6774 27.0263C32.2449 27.5972 31.4047 27.8536 30.1033 27.8536L2.90114 27.855C1.6791 27.855 0.860773 27.6296 0.403702 27.0951C-0.0601998 26.5525 -0.116322 25.7441 0.194326 24.5874L1.7323 18.869ZM15.1568 6.06987V6.07796C15.1568 6.08471 15.1554 6.09011 15.1554 6.09551V6.10091C15.1445 6.41539 15.2868 6.70287 15.5263 6.91613C15.696 7.06594 15.9163 7.17932 16.164 7.236V7.37502C16.164 7.55858 16.3145 7.70705 16.5006 7.70705C16.6867 7.70705 16.8373 7.55858 16.8373 7.37502V7.2387C16.9166 7.22116 16.9919 7.19821 17.0631 7.16852C17.2752 7.08214 17.4545 6.94852 17.5804 6.77981C17.7254 6.58681 17.7897 6.3344 17.7774 6.09147C17.7651 5.84582 17.6734 5.60152 17.5037 5.42876C17.2451 5.16422 16.8907 5.10078 16.5403 5.03735C16.2461 4.98472 15.9546 4.93208 15.9095 4.74177C15.893 4.67294 15.8903 4.6068 15.9012 4.54606C15.9108 4.49343 15.9327 4.44484 15.9642 4.40165C16.0176 4.33281 16.0969 4.27613 16.1955 4.23699C16.2803 4.20324 16.3775 4.18435 16.4801 4.18165H16.4993H16.5143C16.5266 4.18165 16.5376 4.183 16.5499 4.183C16.7401 4.19514 16.9084 4.26533 17.0248 4.36791C17.1219 4.45429 17.1794 4.56091 17.1739 4.66889V4.67968C17.1616 4.86189 17.3026 5.01981 17.4887 5.03194C17.6734 5.04409 17.8335 4.90507 17.8458 4.72151V4.69857C17.8609 4.38139 17.7172 4.08986 17.475 3.87391C17.3053 3.7241 17.085 3.61072 16.8373 3.55404V3.41232C16.8373 3.22876 16.6868 3.0803 16.5006 3.0803C16.3145 3.0803 16.164 3.22876 16.164 3.41232V3.55134C16.0874 3.56888 16.0135 3.59048 15.9437 3.61882C15.7343 3.7025 15.555 3.83477 15.4291 3.99944C15.332 4.12632 15.2704 4.27073 15.2416 4.42461C15.2129 4.57712 15.2184 4.73504 15.2553 4.89026C15.4017 5.50301 15.9081 5.59347 16.4199 5.68658C16.6648 5.73113 16.9111 5.77566 17.0206 5.88634C17.0726 5.94032 17.1027 6.0267 17.1068 6.12118C17.1123 6.22106 17.089 6.31824 17.0384 6.38707C16.9864 6.45725 16.9057 6.51529 16.8085 6.55443C16.7237 6.58818 16.6265 6.60842 16.5211 6.60977C16.5143 6.60977 16.5074 6.60842 16.5006 6.60842H16.4855C16.4746 6.60842 16.4623 6.60707 16.4513 6.60707C16.2611 6.59493 16.0928 6.52474 15.9765 6.42217C15.882 6.33848 15.8246 6.23321 15.8273 6.12658V6.11039C15.8396 5.92818 15.6987 5.77026 15.5126 5.75813C15.3278 5.74868 15.1677 5.88766 15.1568 6.06987ZM7.54947 16.7689H4.91929C4.30485 16.7689 3.79442 16.8958 3.41124 17.0996C3.02668 17.3034 2.77764 17.5814 2.69279 17.8783L2.47383 18.6922L2.84742 18.7705C2.9829 18.7988 3.10469 18.8542 3.21281 18.9365C3.31545 19.0148 3.40303 19.116 3.47145 19.2375C3.53851 19.3576 3.58093 19.4831 3.59872 19.6127C3.61651 19.7436 3.60966 19.8759 3.57819 20.0081L3.07596 22.1258C3.02807 22.3269 2.93227 22.5023 2.8009 22.64C2.66406 22.7817 2.49026 22.8803 2.29184 22.9221L1.27782 23.1367L0.842646 24.755C0.789277 24.9547 0.746852 25.141 0.718115 25.3124C0.724957 25.3192 0.7318 25.3273 0.737274 25.3354C0.876858 25.5203 1.16562 25.6863 1.53507 25.8118C1.93329 25.9468 2.41225 26.0264 2.89942 26.0264H30.1058C30.5587 26.0264 31.0021 25.9522 31.3825 25.828C31.7629 25.7038 32.0736 25.5365 32.2529 25.3542L32.257 25.3502C32.2105 25.141 32.142 24.9129 32.0531 24.6619L29.65 17.908C29.5324 17.5935 29.2724 17.2993 28.8769 17.0887C28.5047 16.8903 28.0161 16.7675 27.414 16.7675H25.4516V18.4384H26.5327C26.7804 18.4384 27.0062 18.5383 27.169 18.6989C27.3318 18.8595 27.4331 19.0822 27.4331 19.3265V20.9893C27.4331 21.1729 27.2826 21.3213 27.0965 21.3213L5.90454 21.3227C5.71843 21.3227 5.56789 21.1742 5.56789 20.9906V19.3278C5.56789 19.0835 5.66916 18.8608 5.83201 18.7002C5.99485 18.5396 6.22066 18.4397 6.46834 18.4397H7.54941L7.54947 16.7689ZM8.22276 18.4398H9.9169V10.4469H8.22276V18.4398ZM10.5916 18.4398H12.5047L12.5033 10.4469H10.5902L10.5916 18.4398ZM13.1766 18.4398H14.8707V10.4469H13.1766V18.4398ZM15.544 18.4398H17.4571V10.4469H15.544V18.4398ZM18.1304 18.4398H19.8245V10.4469H18.1304V18.4398ZM20.4978 18.4398H22.4109V10.4469H20.4978V18.4398ZM24.7785 18.4398V10.4469H23.0843V18.4398H24.7785ZM21.8828 5.23851L16.5008 1.58913L6.43693 8.41315H26.5628L21.8828 5.23851ZM26.7615 9.07827H6.24145V9.78282H26.7629L26.7615 9.07827ZM26.5329 19.1039H6.46729C6.40571 19.1039 6.34824 19.1295 6.30718 19.17C6.26613 19.2105 6.24013 19.2672 6.24013 19.3279V20.6587H26.7601V19.3279C26.7601 19.2672 26.7341 19.2105 26.6931 19.17C26.652 19.1295 26.5959 19.1039 26.5329 19.1039ZM1.47234 22.4201L2.15383 22.2757C2.21678 22.2622 2.27152 22.2311 2.31531 22.1852C2.36458 22.1339 2.40152 22.0638 2.42205 21.9774L2.92428 19.8597C2.93796 19.803 2.9407 19.7504 2.93386 19.7018C2.92702 19.6532 2.91059 19.606 2.88596 19.5601C2.86133 19.5169 2.83396 19.4832 2.80385 19.4602C2.77785 19.44 2.74638 19.4265 2.70943 19.4184L2.30298 19.3334L1.47234 22.4201ZM0.692305 26.1558C0.727884 26.3637 0.801782 26.5324 0.915364 26.666C1.23011 27.0345 1.88423 27.1897 2.89965 27.1897H30.106C31.1816 27.1897 31.8481 27.0156 32.1395 26.6296C32.2408 26.4973 32.301 26.3313 32.3229 26.1329C32.1122 26.2598 31.8645 26.3718 31.5922 26.4595C31.1474 26.6039 30.6315 26.6917 30.106 26.6917L2.90106 26.6944C2.33998 26.6944 1.78303 26.6012 1.31776 26.4433C1.08649 26.3637 0.874334 26.2665 0.692305 26.1558Z" fill="#347BB0"/>
</svg>
