<svg width="31" height="30" viewBox="0 0 31 30" fill="none" xmlns="http://www.w3.org/2000/svg">
<path d="M24.1767 25.6675L24.3846 28.3183H8.7437C8.56542 28.3183 8.42734 28.4635 8.42734 28.6346C8.42734 28.8129 8.57264 28.951 8.7437 28.951H24.7227C24.811 28.951 24.8934 28.9184 24.9546 28.8459C25.0198 28.7786 25.0451 28.692 25.0387 28.6088L25.0387 28.6086L24.8043 25.6205L24.7046 25.6281L24.8043 25.6203L24.8043 25.6204C24.7911 25.449 24.6401 25.3168 24.467 25.3301C24.2956 25.3433 24.1634 25.4943 24.1767 25.6674L24.1767 25.6675Z" fill="#FF7D6F" stroke="#FF7D6F" stroke-width="0.2"/>
<path d="M2.31951 6.4639L2.31952 6.4639C2.33244 6.30242 2.46311 6.16904 2.63556 6.16904H7.3954C7.56204 6.16904 7.69842 6.30108 7.71144 6.4639L7.71159 6.46576L7.71157 6.46576L9.0682 28.6183C9.06822 28.6186 9.06824 28.6189 9.06826 28.6191C9.07484 28.7081 9.04051 28.7926 8.98423 28.8551L8.97716 28.8629L8.97679 28.8625C8.91363 28.9194 8.83127 28.9512 8.7476 28.9512H1.22474C1.14142 28.9512 1.05448 28.9192 0.992648 28.8505C0.992648 28.8505 0.992648 28.8505 0.992647 28.8505L1.06689 28.7837L2.31951 6.4639ZM2.31951 6.4639L2.3194 6.46552M2.31951 6.4639L2.3194 6.46552M2.3194 6.46552L0.908676 28.6136C0.908658 28.6139 0.90864 28.6141 0.908622 28.6144L2.3194 6.46552ZM8.416 28.323H1.56121L2.92788 6.80164H7.09854L8.416 28.323Z" fill="#FF7D6F" stroke="#FF7D6F" stroke-width="0.2"/>
<path d="M23.3316 6.4597L23.3316 6.4594C23.3183 6.29375 23.1793 6.16904 23.0155 6.16904H7.38823C7.2113 6.16904 7.07187 6.30847 7.07187 6.4854C7.07187 6.66368 7.21717 6.80176 7.38823 6.80176H22.7245L23.4564 16.2907C23.4643 16.4593 23.6058 16.583 23.7681 16.583C23.7683 16.583 23.7685 16.583 23.7689 16.583C23.7732 16.5831 23.7925 16.5839 23.8151 16.5757C23.9761 16.5523 24.0971 16.4067 24.0843 16.2408L23.3316 6.4597Z" fill="#FF7D6F" stroke="#FF7D6F" stroke-width="0.2"/>
<path d="M8.54168 28.8819L8.54164 28.8819L8.54442 28.8841C8.60112 28.9282 8.67199 28.9547 8.74554 28.9547C8.83111 28.9547 8.92956 28.919 8.98483 28.8317C9.09246 28.698 9.06934 28.5045 8.94091 28.3953L8.94029 28.3948L4.9244 25.0369C4.92436 25.0369 4.92432 25.0368 4.92427 25.0368C4.79915 24.9315 4.62031 24.9388 4.50285 25.0497L4.50285 25.0497L4.50235 25.0502L0.995642 28.4083L0.995625 28.4083L0.994094 28.4098C0.869711 28.5342 0.869734 28.7313 0.987702 28.8558L0.987596 28.8559L0.991525 28.8597C1.11299 28.9747 1.30867 28.9844 1.43558 28.8642L1.43595 28.8638L4.7384 25.7028L8.54168 28.8819Z" fill="#FF7D6F" stroke="#FF7D6F" stroke-width="0.2"/>
<path d="M4.41173 25.2793H4.41172L4.985 6.2729C4.87231 6.25488 4.76864 6.36756 4.76864 6.48476L4.66865 6.48339L4.66864 6.484C4.66864 6.48425 4.66864 6.4845 4.66864 6.48476L4.41173 25.2793ZM5.29685 6.48926C5.29685 6.3221 5.16414 6.17724 4.99273 6.173L4.93993 25.2852L5.03992 25.2865L5.03993 25.2859C5.03993 25.2857 5.03993 25.2854 5.03993 25.2852L5.29684 6.49063L5.29685 6.49063V6.48926Z" fill="#FF7D6F" stroke="#FF7D6F" stroke-width="0.2"/>
<path d="M12.4914 10.3238C12.4912 9.60608 11.9056 9.02061 11.1879 9.02061C10.47 9.02061 9.88437 9.60627 9.88437 10.3241C9.88437 11.0419 10.47 11.6276 11.1879 11.6276C11.9097 11.6276 12.4961 11.0423 12.4914 10.3238ZM12.4914 10.3238C12.4914 10.3236 12.4914 10.3235 12.4914 10.3234L12.3914 10.3241H12.4914C12.4914 10.324 12.4914 10.3239 12.4914 10.3238ZM10.5126 10.3241C10.5126 9.95111 10.8149 9.64882 11.1879 9.64882C11.5609 9.64882 11.8631 9.95111 11.8631 10.3241C11.8631 10.6971 11.5609 10.9994 11.1879 10.9994C10.8149 10.9994 10.5126 10.6971 10.5126 10.3241Z" fill="#FF7D6F" stroke="#FF7D6F" stroke-width="0.2"/>
<path d="M18.3844 10.3241C18.3844 11.0419 18.97 11.6276 19.6879 11.6276C20.4057 11.6276 20.9914 11.0419 20.9914 10.3241C20.9914 9.60627 20.4057 9.02061 19.6879 9.02061C18.97 9.02061 18.3844 9.60627 18.3844 10.3241ZM19.0126 10.3241C19.0126 9.95111 19.3149 9.64882 19.6879 9.64882C20.0609 9.64882 20.3631 9.95111 20.3631 10.3241C20.3631 10.6971 20.0609 10.9994 19.6879 10.9994C19.3149 10.9994 19.0126 10.6971 19.0126 10.3241Z" fill="#FF7D6F" stroke="#FF7D6F" stroke-width="0.2"/>
<path d="M19.3735 9.33339C19.3735 9.51167 19.5188 9.64974 19.6898 9.64974C19.8609 9.64974 20.0062 9.51167 20.0062 9.33339V6.02486C20.0062 3.50418 17.9601 1.45811 15.4394 1.45811C12.9187 1.45811 10.8727 3.50865 10.8727 6.02486V9.33339C10.8727 9.51167 11.018 9.64974 11.189 9.64974C11.3673 9.64974 11.5054 9.50445 11.5054 9.33339V6.02486C11.5054 3.85802 13.2726 2.09082 15.4394 2.09082C17.6063 2.09082 19.3735 3.85348 19.3735 6.02486V9.33339Z" fill="#FF7D6F" stroke="#FF7D6F" stroke-width="0.2"/>
<path d="M14.6287 6.48025C14.6287 6.65854 14.774 6.79661 14.945 6.79661C15.1193 6.79661 15.2634 6.65876 15.2522 6.4769V5.21817C15.2522 2.75596 13.2512 0.75498 10.789 0.75498C8.32676 0.75498 6.32578 2.75596 6.32578 5.21817V6.48025C6.32578 6.65719 6.46521 6.79661 6.64214 6.79661C6.82042 6.79661 6.95849 6.65131 6.95849 6.48025V5.21817C6.95849 3.10072 8.67614 1.38308 10.7936 1.38308C12.911 1.38308 14.6287 3.10526 14.6287 5.21817V6.48025Z" fill="#FF7D6F" stroke="#FF7D6F" stroke-width="0.2"/>
<path d="M16.1851 16.9556C16.1851 16.7688 16.3222 16.6141 16.5013 16.5867H16.5583H28.9492C29.1554 16.5867 29.3225 16.7538 29.3225 16.96V24.9562C29.3225 25.1624 29.1554 25.3295 28.9492 25.3295H16.5583C16.3521 25.3295 16.1851 25.1624 16.1851 24.9562V16.9556ZM16.5583 25.9624H28.9492C29.5045 25.9624 29.9552 25.5121 29.9552 24.9608V16.9602C29.9552 16.4046 29.5048 15.9542 28.9492 15.9542H16.5583C16.0028 15.9542 15.5523 16.4046 15.5523 16.9602V24.9564C15.5523 25.512 16.0028 25.9624 16.5583 25.9624Z" fill="#FF7D6F" stroke="#FF7D6F" stroke-width="0.2"/>
<path d="M15.8687 18.376H29.6388C29.8171 18.376 29.9552 18.2307 29.9552 18.0596C29.9552 17.8813 29.8099 17.7433 29.6388 17.7433H15.8687C15.6904 17.7433 15.5523 17.8886 15.5523 18.0596C15.5523 18.2379 15.6976 18.376 15.8687 18.376Z" fill="#FF7D6F" stroke="#FF7D6F" stroke-width="0.2"/>
<path d="M15.8687 19.4932H29.6388C29.8157 19.4932 29.9552 19.3537 29.9552 19.1768C29.9552 18.9985 29.8099 18.8604 29.6388 18.8604H15.8687C15.6918 18.8604 15.5523 18.9999 15.5523 19.1768C15.5523 19.3551 15.6976 19.4932 15.8687 19.4932Z" fill="#FF7D6F" stroke="#FF7D6F" stroke-width="0.2"/>
<path d="M17.1969 24.032C17.1969 24.2103 17.3422 24.3484 17.5132 24.3484C17.6902 24.3484 17.8296 24.209 17.8296 24.032V22.8916C17.8296 22.7147 17.6902 22.5753 17.5132 22.5753C17.3349 22.5753 17.1969 22.7206 17.1969 22.8916V24.032Z" fill="#FF7D6F" stroke="#FF7D6F" stroke-width="0.2"/>
<path d="M18.8766 24.032C18.8766 24.2103 19.0219 24.3484 19.1929 24.3484C19.364 24.3484 19.5093 24.2103 19.5093 24.032V22.8916C19.5093 22.7134 19.364 22.5753 19.1929 22.5753C19.0146 22.5753 18.8766 22.7206 18.8766 22.8916V24.032Z" fill="#FF7D6F" stroke="#FF7D6F" stroke-width="0.2"/>
<path d="M21.1928 24.0357L21.1929 24.0357V24.032V22.8916C21.1929 22.7134 21.0476 22.5753 20.8765 22.5753C20.6982 22.5753 20.5602 22.7206 20.5602 22.8916V24.032C20.5602 24.2103 20.7055 24.3484 20.8765 24.3484C21.0509 24.3484 21.1864 24.2077 21.1928 24.0357Z" fill="#FF7D6F" stroke="#FF7D6F" stroke-width="0.2"/>
<path d="M22.2359 24.032C22.2359 24.2103 22.3812 24.3484 22.5523 24.3484C22.7292 24.3484 22.8687 24.209 22.8687 24.032V22.8916C22.8687 22.7134 22.7234 22.5753 22.5523 22.5753C22.374 22.5753 22.2359 22.7206 22.2359 22.8916V24.032Z" fill="#FF7D6F" stroke="#FF7D6F" stroke-width="0.2"/>
<path d="M25.8498 23.2634H27.9593C28.1677 23.2634 28.3387 23.0924 28.3387 22.8839V21.3063C28.3387 21.0978 28.1677 20.9269 27.9593 20.9269H25.8498C25.6413 20.9269 25.4703 21.0978 25.4703 21.3063V22.8839C25.4703 23.0924 25.6413 23.2634 25.8498 23.2634ZM27.7105 21.5551V22.6307H26.0985V21.5551H27.7105Z" fill="#FF7D6F" stroke="#FF7D6F" stroke-width="0.2"/>
</svg>
