<svg width="38" height="36" viewBox="0 0 38 36" fill="none" xmlns="http://www.w3.org/2000/svg">
<path fill-rule="evenodd" clip-rule="evenodd" d="M3.88806 23.9412L9.8495 18.4912C11.3395 16.9642 14.0297 16.9565 16.8201 17.3394C12.104 13.0119 10.5374 9.20921 10.8037 6.36068C10.9181 5.13787 11.3646 4.08956 12.0446 3.24041C12.7246 2.39589 13.6317 1.75979 14.6752 1.35529C17.0473 0.435123 20.1212 0.743889 22.7019 2.63676C24.687 1.18083 26.9571 0.660532 28.9846 0.91835C30.2129 1.07274 31.3535 1.51276 32.2779 2.20444C33.2148 2.8992 33.9371 3.84716 34.321 5.00823C34.8662 6.65094 34.7346 8.71057 33.5783 11.0788C34.0844 11.8647 34.3805 12.7925 34.3805 13.7961C34.3805 15.1934 33.8071 16.4625 32.8733 17.378C31.9442 18.2936 30.6563 18.8633 29.2384 18.8633C28.5459 18.8633 27.8878 18.7305 27.2878 18.485C26.9791 18.7428 26.6501 19.0099 26.2991 19.2878C25.9529 19.5626 25.6114 19.8251 25.2823 20.0706C25.3371 20.2451 25.3669 20.4242 25.3794 20.611C25.4092 21.1514 25.24 21.667 24.9313 22.0839C24.6227 22.4962 24.1762 22.808 23.6387 22.9454C23.5964 22.9578 23.5541 22.9624 23.5165 22.9578L19.0841 23.0041C18.9822 23.1045 18.907 23.2033 18.8647 23.2959C18.8396 23.3546 18.8271 23.404 18.8302 23.4457C18.8302 23.4796 18.8506 23.512 18.8804 23.546C18.9227 23.5954 18.9853 23.6417 19.0793 23.6881L23.6261 23.7498C24.1369 23.7575 24.6179 23.6881 25.066 23.5414C25.5141 23.3963 25.9402 23.1708 26.3492 22.8667L33.7285 17.3625C33.7786 17.3255 33.8334 17.3008 33.893 17.2869C35.079 16.9163 36.0974 16.8036 36.7978 16.9503C37.2035 17.0337 37.52 17.2035 37.7315 17.4583C37.9556 17.7331 38.048 18.0789 37.976 18.4942C37.8867 19.0145 37.5326 19.6599 36.8495 20.4241C36.8369 20.4411 36.8197 20.4535 36.8072 20.4658L27.7685 29.2154C27.2656 29.7017 26.7125 30.0676 26.114 30.3177C25.5139 30.5679 24.8606 30.696 24.1556 30.713L14.7909 30.8921C14.2503 30.8998 13.7474 30.9955 13.2836 31.1715C12.8199 31.3506 12.3843 31.6131 11.9754 31.962L11.4975 32.3743C11.6573 32.5734 11.7341 32.8158 11.7169 33.052C11.6996 33.3052 11.59 33.5553 11.3832 33.7391L9.2633 35.5949C9.2633 35.5949 9.23823 35.615 9.22569 35.6242C9.02358 35.791 8.76977 35.8697 8.52065 35.8527C8.27154 35.8404 8.02711 35.7323 7.84538 35.5408C7.83284 35.5285 7.82501 35.5208 7.81561 35.5069L0.268648 27.1494C0.268648 27.1494 0.24828 27.1247 0.234179 27.1124C0.0649657 26.9132 -0.014936 26.6631 0.00229899 26.4176C0.0148331 26.1721 0.124508 25.9313 0.318785 25.7522C0.331319 25.7398 0.339153 25.7321 0.353254 25.7228L2.45586 23.8794C2.45586 23.8794 2.48093 23.8593 2.49346 23.8454C2.69558 23.6787 2.94939 23.5999 3.1985 23.6169C3.44762 23.6293 3.69205 23.7373 3.87378 23.9288L3.88632 23.9411L3.88806 23.9412ZM13.3121 11.0187C13.0677 11.0187 12.8687 10.8226 12.8687 10.5817C12.8687 10.3409 13.0677 10.1448 13.3121 10.1448H15.9756L16.947 8.2303C17.0567 8.01415 17.3231 7.92615 17.5424 8.03423C17.6223 8.07591 17.6866 8.13458 17.7289 8.20406L19.0293 10.4258H19.6247L21.0175 8.0466C21.1397 7.83817 21.4139 7.76715 21.6254 7.88911C21.7304 7.95087 21.8025 8.0466 21.8322 8.15467L22.8365 11.8493H24.491C24.7527 11.2286 25.1334 10.6759 25.605 10.2097C26.5341 9.29412 27.822 8.72441 29.2399 8.72441C30.6579 8.72441 31.9457 9.28949 32.8748 10.2097C32.9046 10.239 32.9343 10.2683 32.9641 10.3008C33.8431 8.32916 33.9261 6.62774 33.4749 5.27838C33.1506 4.29643 32.538 3.49361 31.7389 2.90228C30.932 2.30325 29.9402 1.92034 28.8686 1.78757C26.9728 1.54672 24.828 2.07011 22.9838 3.53068C22.824 3.66037 22.5905 3.66809 22.4229 3.53068C20.0539 1.65789 17.1838 1.32134 14.9962 2.17049C14.0969 2.51941 13.3151 3.06441 12.737 3.78542C12.1588 4.50488 11.7781 5.39573 11.681 6.43941C11.4193 9.24008 13.1584 13.1092 18.437 17.5972C19.0245 17.7006 19.6058 17.8133 20.1761 17.9214C21.3543 18.1468 22.4651 18.3583 23.3848 18.4587H23.4052C23.9504 18.5421 24.4267 18.8076 24.7777 19.1875C24.8075 19.2168 24.8325 19.2492 24.8576 19.2785C25.1788 19.0377 25.4734 18.8123 25.7444 18.5961C25.9762 18.4124 26.2081 18.2256 26.4369 18.0387C26.1376 17.8473 25.8541 17.6234 25.6003 17.3733C24.6712 16.4578 24.093 15.1887 24.093 13.7914C24.093 13.4255 24.1306 13.0719 24.2074 12.7261H22.4886C22.2897 12.7261 22.1126 12.5964 22.0578 12.4019L21.2431 9.40204L20.2717 11.0587C20.1996 11.2038 20.0476 11.3041 19.8706 11.3041H18.7645C18.6125 11.3041 18.4605 11.2254 18.3806 11.0834L17.3638 9.34492L16.6587 10.7391C16.596 10.9012 16.43 11.0185 16.2451 11.0185H13.3059L13.3121 11.0187ZM28.2621 10.6898C28.1304 10.6898 28.0129 10.7361 27.9158 10.8056C27.8986 10.818 27.8813 10.835 27.8657 10.8519C27.7638 10.9523 27.7012 11.0897 27.7012 11.2426V12.2708H26.6577C26.5261 12.2708 26.4086 12.3171 26.3114 12.3866C26.2942 12.399 26.2769 12.4159 26.2613 12.4329C26.1594 12.5333 26.0968 12.6707 26.0968 12.8235V14.7534C26.0968 14.9032 26.1594 15.0406 26.2613 15.1441C26.3631 15.2444 26.5026 15.3062 26.6545 15.3062H27.698V16.3344C27.698 16.4842 27.7607 16.6216 27.8625 16.722C27.9644 16.8223 28.1038 16.8841 28.2589 16.8841H30.2174C30.3741 16.8841 30.5135 16.8223 30.6138 16.722C30.7156 16.6216 30.7783 16.4842 30.7783 16.3344V15.3062H31.8218C31.9784 15.3062 32.1179 15.2444 32.2182 15.1441C32.32 15.0437 32.3827 14.9063 32.3827 14.7534V12.8235C32.3827 12.6692 32.32 12.5317 32.2182 12.4329C32.1163 12.3326 31.9769 12.2708 31.8218 12.2708H30.7783V11.2426C30.7783 11.0882 30.7156 10.9507 30.6138 10.8519C30.5119 10.7516 30.3725 10.6898 30.2174 10.6898H28.2589H28.2621ZM29.8915 11.5683H28.5911V12.7077C28.5911 12.9486 28.3921 13.1447 28.1477 13.1447H26.9914V14.4262H28.1477C28.3921 14.4262 28.5911 14.6222 28.5911 14.8631V16.0025H29.8915V14.8631C29.8915 14.6222 30.0905 14.4262 30.3349 14.4262H31.4912V13.1447H30.3349C30.0905 13.1447 29.8915 12.9486 29.8915 12.7077V11.5683ZM32.2479 10.8273C31.4802 10.0707 30.4148 9.59982 29.2413 9.59982C28.0678 9.59982 27.0039 10.0707 26.2347 10.8273C25.4669 11.5838 24.9891 12.6336 24.9891 13.79C24.9891 14.9465 25.4669 15.9948 26.2347 16.7528C27.0024 17.5094 28.0678 17.9803 29.2413 17.9803C30.4148 17.9803 31.4786 17.5094 32.2479 16.7528C33.0156 15.9963 33.4935 14.9465 33.4935 13.79C33.4935 12.6336 33.0156 11.5853 32.2479 10.8273ZM10.9054 31.7136L11.3864 31.2983C11.8768 30.8783 12.3954 30.5618 12.9563 30.3503C13.5172 30.1388 14.1219 30.0261 14.7721 30.0137L24.1369 29.8346C24.7197 29.8223 25.2634 29.7142 25.7663 29.5058C26.2692 29.2973 26.7251 28.9947 27.1419 28.5856L36.1805 19.8361C36.7509 19.2 37.0376 18.7044 37.0971 18.3431C37.1222 18.1887 37.1018 18.0776 37.0423 18.0019C36.9655 17.9108 36.8182 17.8398 36.6161 17.7981C36.0677 17.6854 35.2264 17.7811 34.2049 18.0976L26.8833 23.5599C26.3929 23.9258 25.8822 24.1929 25.3385 24.3674C24.7979 24.5419 24.2245 24.6252 23.6119 24.6175L18.9929 24.5558C18.9255 24.5558 18.8535 24.548 18.7861 24.5187C18.537 24.406 18.3427 24.2686 18.2033 24.1111C18.0513 23.9367 17.9667 23.7406 17.9463 23.529C17.926 23.3299 17.9636 23.1292 18.0513 22.93C18.161 22.6892 18.3553 22.4514 18.6169 22.2306C18.6937 22.1689 18.794 22.1272 18.9005 22.1272L23.4645 22.0809C23.7732 21.9898 24.0302 21.8014 24.2119 21.5606C24.4015 21.3074 24.5033 20.9862 24.4861 20.6496C24.4688 20.3131 24.3341 20.0089 24.1195 19.7711C23.9048 19.538 23.6087 19.3713 23.2703 19.3219C22.3083 19.2184 21.188 19.0023 20.0067 18.7769C16.4345 18.0944 12.2263 17.2916 10.4775 19.1057C10.4697 19.1134 10.4603 19.1227 10.4572 19.1258L4.47848 24.5881L10.904 31.7072L10.9054 31.7136ZM3.06522 24.5158L0.932848 26.3839C0.90778 26.404 0.895245 26.4333 0.895245 26.4627C0.895245 26.492 0.903079 26.5244 0.925014 26.5461L8.49564 34.9343C8.516 34.959 8.54577 34.9714 8.57554 34.9714C8.60531 34.9714 8.63821 34.9637 8.66015 34.9421L10.7925 33.0739C10.8176 33.0538 10.8301 33.0245 10.8301 32.9952C10.8301 32.9658 10.8223 32.9334 10.8004 32.9118L3.22973 24.5235C3.20936 24.4988 3.17959 24.4864 3.14982 24.4864C3.12005 24.4864 3.08715 24.4942 3.06522 24.5158Z" fill="#63388B"/>
</svg>
