<svg width="22" height="22" viewBox="0 0 22 22" fill="none" xmlns="http://www.w3.org/2000/svg">
<path fill-rule="evenodd" clip-rule="evenodd" d="M14.8839 3.03768C11.3614 1.62866 7.08641 2.43213 4.60242 5.16807L4.60223 5.16829C3.37929 6.51459 2.61228 8.21241 2.41041 10.02C2.20853 11.8276 2.58209 13.6528 3.47789 15.2357C4.37368 16.8186 5.74605 18.0786 7.39958 18.8362C9.05311 19.5937 10.9035 19.8103 12.6873 19.4551L12.6876 19.455C16.2767 18.7413 18.9516 15.4962 19.6657 11.926C19.7933 11.2878 20.4142 10.8739 21.0524 11.0015C21.6906 11.1292 22.1045 11.75 21.9769 12.3883C21.1196 16.6747 17.8706 20.8275 13.1473 21.7668C10.8772 22.2188 8.52222 21.9431 6.41783 20.979C4.31333 20.0148 2.56668 18.4112 1.42658 16.3965C0.286478 14.3819 -0.188957 12.0589 0.0679721 9.75838C0.32489 7.45793 1.30101 5.29716 2.85736 3.58372M2.85756 3.5835C6.07439 0.0405819 11.4253 -0.884343 15.7593 0.849263C16.3636 1.09099 16.6575 1.77684 16.4158 2.38116C16.1741 2.98547 15.4882 3.27941 14.8839 3.03768" fill="url(#paint0_linear_1456_21903)"/>
<path fill-rule="evenodd" clip-rule="evenodd" d="M21.6193 3.43376C22.0976 3.87523 22.1274 4.62081 21.6859 5.09907L12.258 15.3127C12.0404 15.5484 11.7362 15.6852 11.4155 15.6916C11.0949 15.6981 10.7855 15.5735 10.5587 15.3467L6.63033 11.4184C6.1701 10.9581 6.1701 10.212 6.63033 9.75173C7.09056 9.29149 7.83675 9.29149 8.29698 9.75173L11.358 12.8127L19.954 3.50037C20.3955 3.02211 21.1411 2.99229 21.6193 3.43376Z" fill="url(#paint1_linear_1456_21903)"/>
<defs>
<linearGradient id="paint0_linear_1456_21903" x1="11" y1="0" x2="11" y2="21.9785" gradientUnits="userSpaceOnUse">
<stop stop-color="#63388B"/>
<stop offset="1" stop-color="#3A73AC"/>
</linearGradient>
<linearGradient id="paint1_linear_1456_21903" x1="14.1418" y1="3.12122" x2="14.1418" y2="15.6919" gradientUnits="userSpaceOnUse">
<stop stop-color="#63388B"/>
<stop offset="1" stop-color="#3A73AC"/>
</linearGradient>
</defs>
</svg>
