<svg width="76" height="76" viewBox="0 0 76 76" fill="none" xmlns="http://www.w3.org/2000/svg">
<circle opacity="0.2" cx="38" cy="38" r="38" fill="white"/>
<path d="M54.7143 53.7147H52.7857V32.5007C52.7857 31.4399 51.9178 30.5721 50.8571 30.5721H48.2857C47.225 30.5721 46.3571 31.4399 46.3571 32.5007V53.7147H45.0714V38.9288C45.0714 37.8681 44.2036 37.0002 43.1429 37.0002H40.5714C39.5107 37.0002 38.6429 37.8681 38.6429 38.9288V53.7147H37.3571V41.5002C37.3571 40.4395 36.4893 39.5717 35.4286 39.5717H32.8571C31.7964 39.5717 30.9286 40.4395 30.9286 41.5002V53.7147H29.6429V44.0717C29.6429 43.011 28.775 42.1431 27.7143 42.1431H25.1429C24.0822 42.1431 23.2143 43.011 23.2143 44.0717V53.7147H21.2857C20.5786 53.7147 20 54.2933 20 55.0004V56.2862C20 56.9933 20.5786 57.5719 21.2857 57.5719H54.7143C55.4214 57.5719 56 56.9933 56 56.2862V55.0004C56 54.2933 55.4214 53.7147 54.7143 53.7147ZM47.6426 32.5007C47.6426 32.1471 47.9319 31.8578 48.2855 31.8578H50.8569C51.2105 31.8578 51.4998 32.1471 51.4998 32.5007V53.7147H47.6426V32.5007ZM39.9284 38.9292C39.9284 38.5757 40.2176 38.2864 40.5712 38.2864H43.1427C43.4962 38.2864 43.7855 38.5757 43.7855 38.9292V53.7151H39.9284V38.9292ZM32.2141 41.5007C32.2141 41.1471 32.5034 40.8578 32.8569 40.8578H35.4284C35.7819 40.8578 36.0712 41.1471 36.0712 41.5007V53.7151H32.2141V41.5007ZM24.4998 44.0721C24.4998 43.7185 24.7891 43.4292 25.1427 43.4292H27.7141C28.0677 43.4292 28.3569 43.7185 28.3569 44.0721V53.7151H24.4998V44.0721ZM21.2855 56.2866V55.0009H54.7141V56.2866H21.2855Z" fill="white"/>
<path d="M32.2163 34.4289C32.0877 34.4289 31.9656 34.4675 31.8627 34.5382L24.1485 39.681C23.8527 39.8803 23.7756 40.2789 23.9685 40.5746C24.0906 40.7611 24.2963 40.8639 24.502 40.8639C24.6242 40.8639 24.7463 40.8318 24.8556 40.7546L32.409 35.7212H39.2877C39.4613 35.7212 39.622 35.6505 39.7441 35.5348L50.8593 24.4196V27.3704C50.8593 27.7239 51.1486 28.0132 51.5022 28.0132C51.8557 28.0132 52.145 27.7239 52.145 27.3704V22.8702C52.145 22.5166 51.8557 22.2273 51.5022 22.2273H47.0019C46.6484 22.2273 46.3591 22.5166 46.3591 22.8702C46.3591 23.2237 46.6484 23.513 47.0019 23.513H49.9527L39.0243 34.4414H32.2164L32.2163 34.4289Z" fill="white"/>
<path d="M27.0761 28.0004C26.7225 28.0004 26.4332 28.2897 26.4332 28.6433C26.4332 28.9968 26.7225 29.2861 27.0761 29.2861H29.0046V29.929C29.0046 30.2826 29.2939 30.5718 29.6475 30.5718C30.0011 30.5718 30.2903 30.2826 30.2903 29.929V29.2861H30.9332C31.9939 29.2861 32.8618 28.4183 32.8618 27.3576C32.8618 26.2968 31.9939 25.429 30.9332 25.429H30.2903V24.1433H32.2189C32.5725 24.1433 32.8618 23.854 32.8618 23.5004C32.8618 23.1468 32.5725 22.8576 32.2189 22.8576H30.2903V22.2147C30.2903 21.8611 30.0011 21.5718 29.6475 21.5718C29.2939 21.5718 29.0046 21.8611 29.0046 22.2147V22.8576H28.3618C27.3011 22.8576 26.4332 23.7254 26.4332 24.7861C26.4332 25.8468 27.3011 26.7147 28.3618 26.7147H29.0046V28.0004H27.0761ZM28.3618 25.429C28.0082 25.429 27.7189 25.1397 27.7189 24.7861C27.7189 24.4326 28.0082 24.1433 28.3618 24.1433H29.0046V25.429H28.3618ZM30.2903 26.7147H30.9332C31.2868 26.7147 31.5761 27.004 31.5761 27.3576C31.5761 27.7111 31.2868 28.0004 30.9332 28.0004H30.2903V26.7147Z" fill="white"/>
<path d="M29.6422 33.1433C33.5443 33.1433 36.7138 29.974 36.7138 26.0716C36.7138 22.1693 33.5445 19 29.6422 19C25.7398 19 22.5706 22.1693 22.5706 26.0716C22.5706 29.974 25.7398 33.1433 29.6422 33.1433ZM29.6422 20.2861C32.8308 20.2861 35.4277 22.8833 35.4277 26.0716C35.4277 29.26 32.8306 31.8571 29.6422 31.8571C26.4538 31.8571 23.8567 29.26 23.8567 26.0716C23.8567 22.8833 26.4538 20.2861 29.6422 20.2861Z" fill="white"/>
</svg>
