<svg width="76" height="76" viewBox="0 0 76 76" fill="none" xmlns="http://www.w3.org/2000/svg">
<path d="M50.4767 17.204C50.4116 17.1367 50.3331 17.0838 50.2464 17.0487C50.1597 17.0137 50.0666 16.9972 49.9731 17.0004C49.88 17.0022 49.7883 17.0228 49.7033 17.0609C49.6183 17.0989 49.5419 17.1538 49.4785 17.2221L46.9016 20.0017C46.7798 20.1323 46.713 20.3049 46.7149 20.4836C46.7168 20.6623 46.7874 20.8334 46.912 20.9614L47.1076 21.1629L46.0845 22.1879L44.4683 21.7834C43.7615 21.6088 43.0217 21.62 42.3205 21.8161C41.6192 22.0121 40.9805 22.3862 40.466 22.9022L36.651 26.9181L32.6792 22.9391C32.2005 22.4566 31.5965 22.118 30.9356 21.9616C30.2747 21.8053 29.5833 21.8375 28.9398 22.0545C28.8616 22.0807 28.7886 22.1205 28.724 22.1719L28.5499 22.3109L28.1046 21.839L28.9758 20.9662C29.1059 20.8359 29.1789 20.6592 29.1789 20.4749C29.1789 20.2907 29.1059 20.1139 28.9758 19.9836L26.2013 17.204C26.0712 17.0737 25.8948 17.0005 25.7108 17.0005C25.5269 17.0005 25.3505 17.0737 25.2204 17.204L16.2031 26.2378C16.0731 26.3681 16 26.5448 16 26.7291C16 26.9134 16.0731 27.0901 16.2031 27.2204L18.9777 30C19.1077 30.1303 19.2841 30.2035 19.4681 30.2035C19.652 30.2035 19.8284 30.1303 19.9585 30L20.272 29.6859L21.9152 31.3329L21.5115 32.952C21.3375 33.6524 21.3459 34.3858 21.5358 35.082C21.7258 35.7783 22.0909 36.414 22.5964 36.9283L27.9513 42.7697C28.3031 43.0992 28.7209 43.3498 29.177 43.5049V48.4937C29.1755 49.09 29.3405 49.6749 29.6535 50.1822C29.9664 50.6895 30.4148 51.0989 30.9478 51.3643C31.2503 51.5142 31.5047 51.7462 31.6822 52.0338C31.8596 52.3213 31.9529 52.653 31.9515 52.9911V53.1356H31.2579C31.0739 53.1356 30.8975 53.2089 30.7674 53.3392C30.6373 53.4695 30.5643 53.6462 30.5643 53.8306V57.3051C30.5643 57.4894 30.6373 57.6661 30.7674 57.7965C30.8975 57.9268 31.0739 58 31.2579 58H44.4371C44.6211 58 44.7975 57.9268 44.9276 57.7965C45.0577 57.6661 45.1308 57.4894 45.1308 57.3051V53.8306C45.1308 53.6462 45.0577 53.4695 44.9276 53.3392C44.7975 53.2089 44.6211 53.1356 44.4371 53.1356H43.7435V52.4234L44.5523 51.6214C45.1527 51.241 45.6476 50.7151 45.9912 50.0922C46.3348 49.4693 46.516 48.7696 46.518 48.0579V39.8504C47.0405 39.936 47.5759 39.8897 48.0759 39.7155C48.576 39.5414 49.0247 39.245 49.3814 38.8532L53.048 34.8644C53.4705 34.4442 53.767 33.9137 53.9037 33.3332C54.0404 32.7527 54.0119 32.1454 53.8214 31.5803C53.7104 31.2453 54.307 30.1488 55.02 29.3079C55.1471 29.4339 55.3178 29.5058 55.4966 29.5087H55.5035C55.6854 29.5082 55.8597 29.436 55.989 29.3079L58.7955 26.5283C58.8603 26.4637 58.9117 26.3869 58.9468 26.3024C58.9819 26.2178 59 26.1272 59 26.0356C59 25.944 58.9819 25.8534 58.9468 25.7688C58.9117 25.6842 58.8603 25.6075 58.7955 25.5429L50.4767 17.204ZM19.7393 28.1717C19.6725 28.2383 19.6202 28.318 19.586 28.4059L19.466 28.5261L17.6722 26.7291L25.7088 18.6779L27.5025 20.4749L26.8269 21.1518C26.745 21.1835 26.6699 21.2307 26.6056 21.2908L19.7393 28.1717ZM29.177 41.7093V41.9803C29.0954 41.9315 29.0195 41.8737 28.9509 41.8079L23.5952 35.9665C23.2529 35.6213 23.0049 35.1935 22.8753 34.7245C22.7457 34.2554 22.7387 33.7609 22.8551 33.2884L23.3538 31.2884C23.383 31.172 23.3816 31.05 23.3498 30.9343C23.3179 30.8186 23.2567 30.7132 23.1721 30.6282L21.2507 28.7033L27.121 22.8223L27.9791 23.732C28.0989 23.859 28.2621 23.9361 28.4362 23.948C28.6102 23.9598 28.7824 23.9055 28.9183 23.7959L29.4877 23.3366C29.8743 23.228 30.2829 23.2249 30.6711 23.3274C31.0594 23.4298 31.4133 23.6343 31.6963 23.9196L35.6917 27.923L35.0424 28.6061C34.8319 28.5456 34.6142 28.5138 34.3953 28.5116C34.26 28.5036 34.1244 28.5057 33.9895 28.5178C33.393 28.598 32.8497 28.9036 32.4708 29.3721C32.092 29.8405 31.9062 30.4363 31.9515 31.0375V38.3042C31.1688 38.4656 30.4654 38.8924 29.9601 39.5126C29.4547 40.1328 29.1781 40.9086 29.177 41.7093ZM43.7435 56.6102H31.9515V54.5255H43.7435V56.6102ZM45.1308 38.9713V48.0579C45.1293 48.5445 45.0029 49.0226 44.7635 49.446C44.5242 49.8694 44.1801 50.224 43.7643 50.4755C43.7169 50.504 43.6731 50.538 43.6339 50.577L42.5643 51.6388C42.4984 51.7031 42.4461 51.7799 42.4104 51.8648C42.3746 51.9496 42.3562 52.0408 42.3562 52.1329V53.1356H33.3388V52.9911C33.3408 52.3947 33.176 51.8097 32.863 51.3025C32.55 50.7952 32.1013 50.3859 31.568 50.1211C31.2654 49.9712 31.0109 49.7391 30.8335 49.4514C30.656 49.1637 30.5628 48.8318 30.5643 48.4937V41.7093C30.566 41.2796 30.7003 40.861 30.9486 40.5107C31.1969 40.1605 31.5472 39.8956 31.9515 39.7524V44.1018H33.3388V31.0375C33.3296 30.7695 33.4174 30.5072 33.5861 30.2989C33.7547 30.0906 33.9928 29.9504 34.2565 29.9041C34.5591 29.9115 34.8494 30.0254 35.0764 30.2259C35.1802 30.3143 35.2646 30.4233 35.3243 30.546C35.384 30.6687 35.4177 30.8025 35.4232 30.9389V41.3222H36.8105V29.5484C36.8104 29.4021 36.841 29.2575 36.9003 29.1239C36.9596 28.9903 37.0463 28.8707 37.1547 28.7728C37.2632 28.675 37.391 28.6011 37.5298 28.556C37.6687 28.5108 37.8154 28.4955 37.9606 28.5109C38.2267 28.5551 38.4675 28.6949 38.6382 28.9041C38.8089 29.1134 38.8977 29.3777 38.888 29.6477V41.3222H40.2753V31.6331C40.2751 31.4869 40.3057 31.3422 40.365 31.2086C40.4243 31.075 40.511 30.9554 40.6195 30.8576C40.7279 30.7597 40.8558 30.6858 40.9946 30.6407C41.1334 30.5955 41.2802 30.5802 41.4253 30.5956C41.692 30.6391 41.9338 30.7785 42.1051 30.9878C42.2765 31.1972 42.3658 31.4619 42.3562 31.7325V41.3222H43.7435V35.5829C44.1478 35.7262 44.4981 35.991 44.7464 36.3413C44.9947 36.6916 45.129 37.1102 45.1308 37.5398V38.9713ZM52.5063 32.0222C52.6142 32.3474 52.6284 32.6964 52.5473 33.0292C52.4662 33.3621 52.2931 33.6653 52.0478 33.904L48.3812 37.8935C48.1408 38.1338 47.8452 38.3113 47.5203 38.4105C47.1955 38.5096 46.8513 38.5272 46.518 38.4619V37.5398C46.5169 36.7392 46.2403 35.9634 45.735 35.3432C45.2296 34.7229 44.5263 34.2962 43.7435 34.1348V31.7325C43.7512 31.1179 43.5334 30.5219 43.1316 30.0576C42.7297 29.5933 42.1717 29.2929 41.5634 29.2134C41.1186 29.1681 40.6699 29.2468 40.2669 29.4406C40.2555 29.2972 40.2323 29.155 40.1976 29.0154C40.1858 28.9709 40.1677 28.9292 40.1546 28.8854C40.1279 28.7939 40.0964 28.7039 40.0602 28.6158C40.0387 28.5658 40.011 28.5199 39.986 28.4712C39.9472 28.3955 39.9097 28.3198 39.8639 28.2489C39.8327 28.2002 39.7946 28.1558 39.7627 28.1099C39.7148 28.0453 39.6676 27.9813 39.6142 27.9216C39.5747 27.8778 39.5324 27.8375 39.4901 27.7965C39.4339 27.7423 39.3777 27.6895 39.3173 27.6408C39.2709 27.6033 39.2223 27.5713 39.1731 27.5359C39.1099 27.4921 39.0461 27.4511 38.9795 27.4136C38.9268 27.3844 38.8727 27.358 38.8179 27.333C38.7486 27.301 38.6792 27.2732 38.6098 27.2482C38.5516 27.2281 38.4933 27.2107 38.4336 27.1947C38.3997 27.1864 38.3677 27.1718 38.3331 27.1648L41.4635 23.8716C41.8082 23.5288 42.2352 23.2805 42.7033 23.1505C43.1714 23.0205 43.665 23.0133 44.1368 23.1295L46.1331 23.6298C46.2493 23.659 46.3711 23.6575 46.4866 23.6254C46.6021 23.5934 46.7073 23.5319 46.792 23.4471L47.99 22.247L54.051 28.3191C53.4045 29.0675 52.0977 30.7929 52.5063 32.0201V32.0222ZM55.5132 27.8292L55.3446 27.6554L55.3238 27.6353L48.3666 20.4638L50.0043 18.696L57.3264 26.0342L55.5132 27.8292Z" fill="white"/>
<circle opacity="0.2" cx="38" cy="38" r="38" fill="white"/>
</svg>
