<svg width="76" height="76" viewBox="0 0 76 76" fill="none" xmlns="http://www.w3.org/2000/svg">
<circle opacity="0.2" cx="38" cy="38" r="38" fill="url(#paint0_linear_36_167)"/>
<path d="M51.3563 52.5718H48.8746V53.8643H51.3563V52.5718Z" fill="#63388B"/>
<path d="M54.0452 52.5718H52.7009V53.8643H54.0452V52.5718Z" fill="#63388B"/>
<path d="M21.7831 22.7911H19.3014V24.0837H21.7831V22.7911Z" fill="#63388B"/>
<path d="M24.472 22.7911H23.1277V24.0837H24.472V22.7911Z" fill="#63388B"/>
<path d="M54.8707 21.964H53.2162V23.2565H54.8707V21.964Z" fill="#63388B"/>
<path d="M23.4348 52.5718H21.7803V53.8643H23.4348V52.5718Z" fill="#63388B"/>
<path d="M24.2642 41.249C25.989 41.249 27.3922 39.8458 27.3922 38.121C27.3922 36.3962 25.989 34.993 24.2642 34.993C22.5394 34.993 21.1362 36.3962 21.1362 38.121C21.1362 39.8458 22.5394 41.249 24.2642 41.249ZM24.2642 36.2856C25.2765 36.2856 26.0996 37.1087 26.0996 38.121C26.0996 39.1334 25.2765 39.9565 24.2642 39.9565C23.2519 39.9565 22.4288 39.1334 22.4288 38.121C22.4288 37.1087 23.2519 36.2856 24.2642 36.2856Z" fill="#63388B"/>
<path d="M43.471 38.1215C43.471 42.1269 46.7298 45.3857 50.7352 45.3857C54.7406 45.3857 57.9994 42.1269 57.9994 38.1215C57.9994 34.1161 54.7406 30.8573 50.7352 30.8573C46.7298 30.8573 43.471 34.1161 43.471 38.1215ZM50.7352 32.1499C54.0282 32.1499 56.7069 34.8286 56.7069 38.1215C56.7069 41.4144 54.0282 44.0931 50.7352 44.0931C47.4423 44.0931 44.7636 41.4144 44.7636 38.1215C44.7636 34.8286 47.4423 32.1499 50.7352 32.1499Z" fill="#63388B"/>
<path d="M49.0389 38.9053L49.953 39.8194L50.7368 39.0351L51.5206 39.8194L52.4347 38.9053L51.6509 38.1215L54.9164 34.856L54.0023 33.9419L50.7368 37.2074L48.2985 34.7691L47.3844 35.6832L49.8227 38.1215L49.0389 38.9053Z" fill="#63388B"/>
<path d="M18.4229 40.084C18.5123 40.3503 18.6204 40.6114 18.746 40.8627L18.3954 41.4469C18.1576 41.8435 18.2197 42.3486 18.5469 42.6759L19.7097 43.8387C20.0365 44.1654 20.5421 44.228 20.9387 43.9902L21.5229 43.6396C21.7747 43.7647 22.0353 43.8728 22.3016 43.9628L22.4665 44.6235C22.5787 45.0723 22.9799 45.3856 23.4426 45.3856H25.0868C25.5495 45.3856 25.9507 45.0723 26.0629 44.6235L26.2278 43.9628C26.4941 43.8733 26.7552 43.7653 27.0065 43.6396L27.5907 43.9902C27.9873 44.228 28.4924 44.1659 28.8197 43.8387L29.9825 42.6759C30.3092 42.3491 30.3718 41.8435 30.134 41.4469L29.7834 40.8627C29.9085 40.6109 30.0166 40.3503 30.1066 40.084L30.7673 39.9191C31.2161 39.8069 31.5294 39.4057 31.5294 38.943V37.2988C31.5294 36.8361 31.2161 36.4349 30.7673 36.3227L30.1066 36.1578C30.0171 35.8915 29.9091 35.6304 29.7834 35.3791L30.134 34.7949C30.3718 34.3983 30.3097 33.8932 29.9825 33.5659L28.8197 32.4031C28.4924 32.0759 27.9873 32.0138 27.5907 32.2516L27.0065 32.6022C26.7547 32.4771 26.4941 32.369 26.2278 32.2791L26.0629 31.6183C25.9507 31.1695 25.5495 30.8562 25.0868 30.8562H23.4426C22.9799 30.8562 22.5787 31.1695 22.4665 31.6183L22.3016 32.2791C22.0353 32.3685 21.7742 32.4766 21.5229 32.6022L20.9387 32.2516C20.5421 32.0138 20.037 32.0759 19.7097 32.4026L18.5469 33.5654C18.2202 33.8922 18.1576 34.3978 18.3954 34.7944L18.746 35.3786C18.6209 35.6304 18.5128 35.8915 18.4229 36.1572L17.7621 36.3222C17.3133 36.4344 17 36.8356 17 37.2983V38.9425C17 39.4052 17.3133 39.8064 17.7621 39.9186L18.4229 40.084ZM18.2926 37.5227L18.8913 37.3733C19.231 37.288 19.506 37.0274 19.6089 36.6924C19.6989 36.3987 19.8178 36.1123 19.962 35.8408C20.1264 35.5311 20.1166 35.1516 19.9362 34.8512L19.6187 34.3223L20.4651 33.476L20.994 33.7934C21.2944 33.9739 21.6739 33.9837 21.9841 33.8193C22.2555 33.675 22.542 33.5561 22.8356 33.4661C23.1707 33.3633 23.4313 33.0887 23.5166 32.7485L23.666 32.1503H24.8629L25.0123 32.749C25.0976 33.0887 25.3582 33.3638 25.6932 33.4667C25.9869 33.5566 26.2733 33.6755 26.5448 33.8198C26.8545 33.9842 27.234 33.9744 27.5344 33.7939L28.0633 33.4765L28.9096 34.3228L28.5922 34.8518C28.4118 35.1527 28.4019 35.5316 28.5663 35.8419C28.7106 36.1133 28.8295 36.3997 28.9195 36.6934C29.0224 37.0284 29.2969 37.289 29.6371 37.3743L30.2353 37.5237V38.7207L29.6366 38.8701C29.2969 38.9554 29.0218 39.216 28.919 39.551C28.829 39.8447 28.7101 40.1311 28.5658 40.4025C28.4014 40.7122 28.4112 41.0917 28.5917 41.3921L28.9091 41.921L28.0628 42.7674L27.5338 42.4499C27.2335 42.2695 26.854 42.2597 26.5437 42.4241C26.2723 42.5683 25.9859 42.6873 25.6922 42.7772C25.3572 42.8801 25.0966 43.1546 25.0113 43.4949L24.8619 44.093H23.665L23.5155 43.4943C23.4302 43.1546 23.1696 42.8796 22.8346 42.7767C22.5409 42.6867 22.2545 42.5678 21.9831 42.4236C21.6734 42.2586 21.2939 42.269 20.9935 42.4494L20.4646 42.7669L19.6182 41.9205L19.9357 41.3916C20.1161 41.0907 20.1259 40.7117 19.9615 40.4015C19.8173 40.1301 19.6983 39.8436 19.6084 39.55C19.5055 39.2149 19.231 38.9543 18.8908 38.869L18.2926 38.7196V37.5227Z" fill="#63388B"/>
<path d="M17.6441 46.7811V48.0737H36.3728L31.1488 57.0285C31.0319 57.2286 31.0314 57.4752 31.1467 57.6759C31.262 57.8765 31.4755 58 31.7072 58H43.2885C43.5201 58 43.7337 57.8765 43.8489 57.6759C43.9642 57.4752 43.9632 57.2281 43.8469 57.0285L38.6229 48.0737H57.3515V46.7811H17.6441ZM32.8322 56.708L37.4978 48.7101L42.1634 56.708H32.8322Z" fill="#63388B"/>
<path d="M36.7032 33.4796C36.9234 33.6999 37.2125 33.81 37.502 33.81C37.7915 33.81 38.0805 33.6999 38.3008 33.4796L45.3938 26.3866C46.4325 25.3479 47.0044 23.9674 47.0044 22.4986C47.0044 21.0297 46.4325 19.6492 45.3938 18.6105C44.3551 17.5718 42.9747 17 41.5058 17C40.037 17 38.6565 17.5718 37.6178 18.6105L37.5015 18.7269L37.3851 18.6105C36.347 17.5718 34.966 17 33.4971 17C32.0283 17 30.6478 17.5718 29.6091 18.6105C28.5704 19.6487 27.9986 21.0297 27.9986 22.4986C27.9986 23.9674 28.5704 25.3479 29.6091 26.3866L36.7032 33.4796ZM30.5242 19.5251C31.3184 18.731 32.3747 18.2931 33.4981 18.2931C34.6216 18.2931 35.6774 18.7305 36.4721 19.5251L37.0455 20.098C37.2978 20.3503 37.7067 20.3503 37.9595 20.098L38.5329 19.5251C39.3271 18.731 40.3834 18.2931 41.5069 18.2931C42.6303 18.2931 43.6861 18.7305 44.4808 19.5251C45.2749 20.3193 45.7128 21.3756 45.7128 22.4991C45.7128 23.6226 45.2754 24.6783 44.4808 25.473L37.502 32.4502L30.5242 25.4725C29.7301 24.6783 29.2922 23.622 29.2922 22.4986C29.2922 21.3751 29.7296 20.3193 30.5242 19.5251Z" fill="#63388B"/>
<defs>
<linearGradient id="paint0_linear_36_167" x1="38" y1="0" x2="38" y2="76" gradientUnits="userSpaceOnUse">
<stop stop-color="#63388B"/>
<stop offset="1" stop-color="#3A73AC"/>
</linearGradient>
</defs>
</svg>
