<svg width="76" height="76" viewBox="0 0 76 76" fill="none" xmlns="http://www.w3.org/2000/svg">
<path d="M52.3563 52.5718H49.8746V53.8643H52.3563V52.5718Z" fill="white"/>
<path d="M55.0452 52.5718H53.7009V53.8643H55.0452V52.5718Z" fill="white"/>
<path d="M22.7831 22.7912H20.3014V24.0838H22.7831V22.7912Z" fill="white"/>
<path d="M25.472 22.7912H24.1277V24.0838H25.472V22.7912Z" fill="white"/>
<path d="M55.8707 21.964H54.2162V23.2565H55.8707V21.964Z" fill="white"/>
<path d="M24.4348 52.5718H22.7803V53.8643H24.4348V52.5718Z" fill="white"/>
<path d="M25.2642 41.249C26.989 41.249 28.3922 39.8458 28.3922 38.121C28.3922 36.3962 26.989 34.993 25.2642 34.993C23.5394 34.993 22.1362 36.3962 22.1362 38.121C22.1362 39.8458 23.5394 41.249 25.2642 41.249ZM25.2642 36.2855C26.2765 36.2855 27.0996 37.1086 27.0996 38.121C27.0996 39.1333 26.2765 39.9564 25.2642 39.9564C24.2519 39.9564 23.4288 39.1333 23.4288 38.121C23.4288 37.1086 24.2519 36.2855 25.2642 36.2855Z" fill="white"/>
<path d="M44.471 38.1215C44.471 42.1269 47.7298 45.3857 51.7352 45.3857C55.7406 45.3857 58.9994 42.1269 58.9994 38.1215C58.9994 34.1161 55.7406 30.8573 51.7352 30.8573C47.7298 30.8573 44.471 34.1161 44.471 38.1215ZM51.7352 32.1499C55.0282 32.1499 57.7069 34.8286 57.7069 38.1215C57.7069 41.4144 55.0282 44.0931 51.7352 44.0931C48.4423 44.0931 45.7636 41.4144 45.7636 38.1215C45.7636 34.8286 48.4423 32.1499 51.7352 32.1499Z" fill="white"/>
<path d="M50.0389 38.9053L50.953 39.8194L51.7368 39.035L52.5206 39.8194L53.4347 38.9053L52.6509 38.1215L55.9164 34.8559L55.0023 33.9418L51.7368 37.2074L49.2985 34.7691L48.3844 35.6832L50.8227 38.1215L50.0389 38.9053Z" fill="white"/>
<path d="M19.4229 40.0841C19.5123 40.3504 19.6204 40.6115 19.746 40.8627L19.3954 41.447C19.1576 41.8435 19.2197 42.3487 19.5469 42.6759L20.7097 43.8387C21.0365 44.1655 21.5421 44.2281 21.9387 43.9902L22.5229 43.6397C22.7747 43.7648 23.0353 43.8729 23.3016 43.9628L23.4665 44.6236C23.5787 45.0724 23.9799 45.3857 24.4426 45.3857H26.0868C26.5495 45.3857 26.9507 45.0724 27.0629 44.6236L27.2278 43.9628C27.4941 43.8734 27.7552 43.7653 28.0065 43.6397L28.5907 43.9902C28.9873 44.2281 29.4924 44.166 29.8197 43.8387L30.9825 42.6759C31.3092 42.3492 31.3718 41.8435 31.134 41.447L30.7834 40.8627C30.9085 40.611 31.0166 40.3504 31.1066 40.0841L31.7673 39.9192C32.2161 39.807 32.5294 39.4058 32.5294 38.943V37.2989C32.5294 36.8362 32.2161 36.435 31.7673 36.3228L31.1066 36.1578C31.0171 35.8916 30.9091 35.6305 30.7834 35.3792L31.134 34.795C31.3718 34.3984 31.3097 33.8933 30.9825 33.566L29.8197 32.4032C29.4924 32.0759 28.9873 32.0139 28.5907 32.2517L28.0065 32.6023C27.7547 32.4771 27.4941 32.3691 27.2278 32.2791L27.0629 31.6184C26.9507 31.1696 26.5495 30.8563 26.0868 30.8563H24.4426C23.9799 30.8563 23.5787 31.1696 23.4665 31.6184L23.3016 32.2791C23.0353 32.3686 22.7742 32.4766 22.5229 32.6023L21.9387 32.2517C21.5421 32.0139 21.037 32.0759 20.7097 32.4027L19.5469 33.5655C19.2202 33.8922 19.1576 34.3979 19.3954 34.7944L19.746 35.3787C19.6209 35.6305 19.5128 35.8916 19.4229 36.1573L18.7621 36.3222C18.3133 36.4344 18 36.8356 18 37.2984V38.9425C18 39.4053 18.3133 39.8065 18.7621 39.9187L19.4229 40.0841ZM19.2926 37.5228L19.8913 37.3733C20.231 37.288 20.506 37.0275 20.6089 36.6924C20.6989 36.3988 20.8178 36.1123 20.962 35.8409C21.1264 35.5312 21.1166 35.1517 20.9362 34.8513L20.6187 34.3224L21.4651 33.476L21.994 33.7935C22.2944 33.9739 22.6739 33.9837 22.9841 33.8193C23.2555 33.6751 23.542 33.5562 23.8356 33.4662C24.1707 33.3633 24.4313 33.0888 24.5166 32.7486L24.666 32.1504H25.8629L26.0123 32.7491C26.0976 33.0888 26.3582 33.3638 26.6932 33.4667C26.9869 33.5567 27.2733 33.6756 27.5448 33.8198C27.8545 33.9843 28.234 33.9744 28.5344 33.794L29.0633 33.4765L29.9096 34.3229L29.5922 34.8518C29.4118 35.1527 29.4019 35.5317 29.5663 35.8419C29.7106 36.1134 29.8295 36.3998 29.9195 36.6935C30.0224 37.0285 30.2969 37.2891 30.6371 37.3744L31.2353 37.5238V38.7207L30.6366 38.8701C30.2969 38.9554 30.0218 39.216 29.919 39.5511C29.829 39.8447 29.7101 40.1312 29.5658 40.4026C29.4014 40.7123 29.4112 41.0918 29.5917 41.3922L29.9091 41.9211L29.0628 42.7675L28.5338 42.45C28.2335 42.2696 27.854 42.2597 27.5437 42.4242C27.2723 42.5684 26.9859 42.6873 26.6922 42.7773C26.3572 42.8802 26.0966 43.1547 26.0113 43.4949L25.8619 44.0931H24.665L24.5155 43.4944C24.4302 43.1547 24.1696 42.8797 23.8346 42.7768C23.5409 42.6868 23.2545 42.5679 22.9831 42.4236C22.6734 42.2587 22.2939 42.269 21.9935 42.4495L21.4646 42.7669L20.6182 41.9206L20.9357 41.3917C21.1161 41.0908 21.1259 40.7118 20.9615 40.4016C20.8173 40.1301 20.6983 39.8437 20.6084 39.55C20.5055 39.215 20.231 38.9544 19.8908 38.8691L19.2926 38.7197V37.5228Z" fill="white"/>
<path d="M18.6441 46.7811V48.0737H37.3728L32.1488 57.0285C32.0319 57.2286 32.0314 57.4752 32.1467 57.6759C32.262 57.8765 32.4755 58 32.7072 58H44.2885C44.5201 58 44.7337 57.8765 44.8489 57.6759C44.9642 57.4752 44.9632 57.2281 44.8469 57.0285L39.6229 48.0737H58.3515V46.7811H18.6441ZM33.8322 56.708L38.4978 48.7101L43.1634 56.708H33.8322Z" fill="white"/>
<path d="M37.7032 33.4796C37.9234 33.6999 38.2125 33.81 38.502 33.81C38.7915 33.81 39.0805 33.6999 39.3008 33.4796L46.3938 26.3866C47.4325 25.3479 48.0044 23.9674 48.0044 22.4986C48.0044 21.0297 47.4325 19.6492 46.3938 18.6105C45.3551 17.5718 43.9747 17 42.5058 17C41.037 17 39.6565 17.5718 38.6178 18.6105L38.5015 18.7269L38.3851 18.6105C37.347 17.5718 35.966 17 34.4971 17C33.0283 17 31.6478 17.5718 30.6091 18.6105C29.5704 19.6487 28.9986 21.0297 28.9986 22.4986C28.9986 23.9674 29.5704 25.3479 30.6091 26.3866L37.7032 33.4796ZM31.5242 19.5251C32.3184 18.731 33.3747 18.2931 34.4981 18.2931C35.6216 18.2931 36.6774 18.7305 37.4721 19.5251L38.0455 20.098C38.2978 20.3503 38.7067 20.3503 38.9595 20.098L39.5329 19.5251C40.3271 18.731 41.3834 18.2931 42.5069 18.2931C43.6303 18.2931 44.6861 18.7305 45.4808 19.5251C46.2749 20.3193 46.7128 21.3756 46.7128 22.4991C46.7128 23.6226 46.2754 24.6783 45.4808 25.473L38.502 32.4502L31.5242 25.4725C30.7301 24.6783 30.2922 23.622 30.2922 22.4986C30.2922 21.3751 30.7296 20.3193 31.5242 19.5251Z" fill="white"/>
<circle opacity="0.2" cx="38" cy="38" r="38" fill="white"/>
</svg>
