<svg width="26" height="22" viewBox="0 0 26 22" fill="none" xmlns="http://www.w3.org/2000/svg">
<path d="M24.6331 9.77943L24.6388 9.98145V14.901C24.6389 15.7175 24.33 16.5023 23.7767 17.0949C23.2252 17.6856 22.4728 18.0409 21.6728 18.0903L21.4661 18.0962L20.9805 18.1101V18.596V19.7858C20.9805 20.6379 20.0458 21.1024 19.3912 20.6532L19.2928 20.5786L16.4833 18.2135L16.3437 18.096H16.1613H11.725H11.7242C10.9527 18.0971 10.2071 17.8113 9.62982 17.292L9.46533 17.133L9.1574 16.8353L8.81596 17.0938L6.54537 18.8132C5.90731 19.2964 4.99375 18.8853 4.91447 18.0932L4.90832 17.9679V16.1327V15.6327L4.40829 15.6327C3.60424 15.6327 2.82965 15.3225 2.24322 14.764C1.65837 14.207 1.30477 13.445 1.25568 12.6326L1.25 12.4307V3.81608V3.81605C1.24995 2.99958 1.55885 2.21484 2.11212 1.6222C2.66355 1.03151 3.41601 0.676194 4.21597 0.626819L4.41549 0.621094H17.8222C18.6262 0.621049 19.4008 0.931292 19.9873 1.48978C20.5721 2.04677 20.9257 2.8088 20.9748 3.62113L20.9805 3.82308V6.2794V6.77943L21.4805 6.7794C22.2846 6.77935 23.0592 7.0896 23.6456 7.64809C24.2304 8.20507 24.584 8.9671 24.6331 9.77943ZM17.4001 17.0866L17.4003 17.0868L18.7271 18.2027L19.4644 18.8228L19.5471 17.863C19.5761 17.5257 19.7292 17.2127 19.9747 16.9853C20.22 16.7581 20.5398 16.6328 20.8708 16.6327C20.8708 16.6327 20.8708 16.6327 20.8709 16.6327H21.4805C21.9381 16.6327 22.376 16.449 22.6981 16.1237C23.02 15.7986 23.1999 15.3587 23.1999 14.901V9.97438C23.1999 9.51672 23.02 9.0768 22.6981 8.75168C22.376 8.42638 21.9381 8.24272 21.4805 8.24272H11.725C11.2673 8.24272 10.8294 8.42639 10.5074 8.75168C10.1855 9.0768 10.0055 9.51671 10.0055 9.97438V14.901C10.0055 15.3587 10.1855 15.7986 10.5074 16.1237C10.8294 16.449 11.2673 16.6327 11.725 16.6327H16.1611C16.1611 16.6327 16.1612 16.6327 16.1613 16.6327C16.6133 16.6329 17.0517 16.7932 17.4001 17.0866ZM6.3472 16.1327V17.1383L7.14899 16.5313L8.38062 15.599L8.59923 15.4335L8.57722 15.1602C8.57027 15.0738 8.56674 14.9872 8.56664 14.9005V9.97438C8.56664 9.12542 8.90059 8.31222 9.49345 7.71342C10.0861 7.11479 10.8889 6.7794 11.725 6.7794H19.0416H19.5416V6.2794V3.81608C19.5416 3.35841 19.3617 2.9185 19.0398 2.59337C18.7177 2.26808 18.2798 2.08442 17.8222 2.08442H4.40832C3.95068 2.08442 3.5128 2.26808 3.19074 2.59337C2.86884 2.9185 2.68888 3.35841 2.68888 3.81608V12.4377C2.68888 12.8954 2.86884 13.3353 3.19074 13.6604C3.5128 13.9857 3.95068 14.1694 4.40832 14.1694H5.01804C5.36894 14.1694 5.70648 14.3101 5.95614 14.5623C6.20597 14.8146 6.3472 15.1579 6.3472 15.5169V16.1327Z" fill="#494949" stroke="#494949"/>
</svg>
