<svg width="22" height="21" viewBox="0 0 22 21" fill="none" xmlns="http://www.w3.org/2000/svg">
<path d="M20.1197 11.3203L20.8928 11.4754L19.6576 17.6513L18.8845 17.4961L20.1197 11.3203ZM6.52263 7.42169C6.66188 7.34711 6.7915 7.25664 6.90887 7.15211L7.58129 7.60039C7.17806 8.01724 6.65386 8.29764 6.08292 8.4018V7.59369C6.23522 7.55415 6.38287 7.49654 6.52263 7.42169ZM5.08292 7.65878V8.44817H2.2894V8.05348V7.65878H5.08292ZM0.894698 9.44817H1.2894V17.0969H0.5V9.44817H0.894698ZM0.545313 18.0969H1.35276C1.53334 18.7946 2.08289 19.3441 2.78056 19.5247V20.3322C2.22894 20.2313 1.71645 19.9651 1.31441 19.5631C0.912362 19.161 0.646152 18.6485 0.545313 18.0969ZM3.78056 20.3775V19.5881H16.3323V20.3775H3.78056ZM17.3323 20.3321V19.5243C17.6102 19.4521 17.8709 19.32 18.0954 19.1361C18.32 18.9522 18.5 18.7228 18.625 18.4652L19.4163 18.624C19.2431 19.0591 18.9617 19.4462 18.5953 19.7464C18.2283 20.0471 17.7931 20.2476 17.3323 20.3321ZM20.2528 10.326C20.2055 9.46563 19.5996 8.72471 18.7638 8.50975V7.70407C19.0015 7.74752 19.2333 7.8219 19.453 7.92586C19.8248 8.10175 20.1529 8.35792 20.4138 8.67591C20.6746 8.99391 20.8617 9.36581 20.9614 9.76481C21.0204 10.0006 21.048 10.2428 21.0441 10.4847L20.2528 10.326ZM15.4969 7.65878H17.7638V8.44817H15.3653L15.3929 8.28242L15.4969 7.65878ZM15.2858 2.84327L14.6498 6.65878H14.0169H13.8491L14.5066 2.71324L15.2858 2.84327ZM15.3704 1.84356L14.4974 1.69786C14.4727 1.65389 14.4438 1.61223 14.4111 1.57349C14.3779 1.53423 14.3411 1.49839 14.3012 1.46639L14.3018 0.581974C14.3588 0.600876 14.4148 0.623036 14.4695 0.648391C14.6786 0.74532 14.8641 0.886622 15.0131 1.06248C15.1621 1.23834 15.2711 1.44453 15.3323 1.66673C15.3484 1.72496 15.3611 1.78402 15.3704 1.84356ZM7.51691 6.35562L9.96249 2.68678L10.6192 3.1246L8.17364 6.79344L7.51691 6.35562ZM11.2069 2.31401L10.5443 1.8714C10.8611 1.50574 11.2431 1.19992 11.6721 0.970271C12.1007 0.740848 12.5668 0.59322 13.0469 0.532622V1.32964C12.6977 1.38471 12.3585 1.49761 12.0439 1.66591C11.7295 1.83415 11.4468 2.05383 11.2069 2.31401Z" fill="#494949" stroke="#494949"/>
<path d="M5.66797 8.05469V19.984" stroke="#494949" stroke-width="1.5"/>
</svg>
