<svg width="27" height="18" viewBox="0 0 27 18" fill="none" xmlns="http://www.w3.org/2000/svg">
<path d="M7.36719 5.66016L13.4178 9.55706L19.4684 5.66016" stroke="white" stroke-width="1.5" stroke-linecap="round" stroke-linejoin="round"/>
<path d="M1.32031 14.5679V3.43384C1.32031 2.84325 1.5753 2.27685 2.02918 1.85925C2.48306 1.44164 3.09866 1.20703 3.74055 1.20703H23.1024C23.7443 1.20703 24.3599 1.44164 24.8138 1.85925C25.2677 2.27685 25.5227 2.84325 25.5227 3.43384V14.5679C25.5227 15.1584 25.2677 15.7248 24.8138 16.1424C24.3599 16.56 23.7443 16.7947 23.1024 16.7947H3.74055C3.09866 16.7947 2.48306 16.56 2.02918 16.1424C1.5753 15.7248 1.32031 15.1584 1.32031 14.5679Z" stroke="white" stroke-width="1.5"/>
</svg>
