<svg width="480" height="480" viewBox="0 0 480 480" fill="none" xmlns="http://www.w3.org/2000/svg">
<path d="M177.786 258.361C178.582 258.748 178.662 259.264 179.052 260.04L178.906 260.509C178.177 260.454 177.537 260.385 176.837 260.166L176.771 259.7L177.786 258.361Z" fill="#63388B"/>
<path d="M348.43 405.526L350.081 402.145L352.005 405.519L348.43 405.526Z" fill="#63388B"/>
<path d="M73.5622 297.482C73.0395 296.097 72.8623 294.89 73.2841 293.437C73.6629 292.136 74.7241 290.888 75.9527 290.313C77.411 289.631 78.8032 289.77 80.2915 290.286L79.6437 291.199C78.0438 290.995 77.0173 290.977 75.6884 291.999C74.9749 292.547 74.3871 293.422 74.276 294.33C74.2038 294.919 74.2629 295.548 74.2943 296.14L73.7092 295.933L73.5622 297.482Z" fill="#63388B"/>
<path d="M80.29 290.285C81.6053 291.206 82.8488 292.248 83.1648 293.92C83.4418 295.386 83.168 296.926 82.2807 298.131C81.564 299.104 80.6841 299.614 79.5695 300.003L79.2605 300.118C78.1013 300.514 76.4508 300.053 75.4093 299.446C74.6968 299.032 73.9628 298.198 73.5605 297.481L73.7077 295.932L74.2927 296.139C74.6762 296.838 75.0807 297.493 75.7061 298.007C76.6637 298.794 77.6589 299.018 78.8734 298.872C79.8592 298.754 80.8955 298.11 81.4641 297.296C82.1142 296.367 82.2488 295.237 82.0524 294.14C81.8059 292.76 80.7357 291.941 79.6422 291.198L80.29 290.285Z" fill="#63388B"/>
<path d="M74.2929 296.14C74.2615 295.548 74.2024 294.919 74.2746 294.329C74.3857 293.422 74.9735 292.547 75.687 291.999C77.0159 290.977 78.0424 290.995 79.6423 291.198C80.7359 291.941 81.806 292.76 82.0525 294.14C82.249 295.238 82.1145 296.367 81.4643 297.297C80.8956 298.111 79.8592 298.754 78.8735 298.873C77.659 299.019 76.6638 298.795 75.7062 298.007C75.0808 297.494 74.6763 296.839 74.2929 296.14Z" fill="white"/>
<path d="M341.33 106.643C341.847 106.61 342.361 106.587 342.862 106.746C344.192 107.166 345.306 108.205 345.851 109.482C346.304 110.544 346.244 111.781 345.743 112.815C345.087 114.171 343.914 114.803 342.587 115.325C341.986 115.341 341.37 115.361 340.792 115.171C339.599 114.78 338.528 113.922 337.982 112.776C337.54 111.846 337.597 110.284 338.002 109.336C338.641 107.841 339.907 107.213 341.33 106.643Z" fill="#63388B"/>
<path d="M341.055 108.064L342.304 108.02C343.096 108.089 343.925 108.604 344.391 109.25C344.858 109.897 345.001 110.738 344.864 111.515C344.653 112.713 343.884 113.296 342.914 113.915L341.366 113.918C340.648 113.816 339.86 113.226 339.456 112.626C339.024 111.986 338.816 111.21 338.988 110.447C339.267 109.213 340.048 108.732 341.055 108.064Z" fill="white"/>
<path d="M247.547 95.0211L247.687 94.6349C251.914 91.2069 254.416 86.0249 255.42 80.7674L257.725 80.2012C258.147 84.1213 258.646 87.787 256.044 91.1264C254.046 93.6904 250.984 94.6743 247.872 94.9912L247.547 95.0211Z" fill="#211E63"/>
<path d="M355.039 298.179C355.821 298.134 356.683 298.042 357.456 298.2C358.987 298.512 360.148 299.298 360.934 300.65C361.504 301.631 361.824 302.921 361.482 304.03C360.949 305.758 359.5 306.85 357.961 307.627C357.246 307.778 356.161 307.849 355.43 307.687C354.115 307.396 352.731 306.207 352.1 305.038C351.444 303.823 351.451 302.454 351.91 301.177C352.461 299.644 353.627 298.847 355.039 298.179Z" fill="#83BD46"/>
<path d="M105.729 113.486C106.54 113.432 107.511 113.345 108.307 113.538C109.734 113.884 110.922 114.902 111.587 116.194C112.228 117.437 112.367 118.851 111.897 120.185C111.353 121.73 109.836 122.727 108.449 123.433C107.652 123.528 106.618 123.647 105.834 123.452C104.407 123.097 103.186 122.167 102.506 120.861C101.907 119.709 101.713 118.217 102.147 116.975C102.775 115.181 104.056 114.235 105.729 113.486Z" fill="#F13B42"/>
<path d="M106.958 115.543C107.925 115.76 108.796 116.026 109.341 116.924C109.717 117.541 109.883 118.87 109.593 119.541C109.12 120.637 108.221 120.96 107.16 121.318C106.821 121.252 106.492 121.18 106.17 121.049C105.37 120.724 104.752 120.14 104.446 119.319C104.212 118.69 104.256 117.945 104.535 117.339C105.024 116.279 105.916 115.903 106.958 115.543Z" fill="white"/>
<path d="M103.192 199.495C104.36 199.447 105.514 199.643 106.523 200.262C107.73 201.001 108.72 202.446 108.995 203.835C109.255 205.151 108.978 206.734 108.164 207.816C107.127 209.192 106.079 209.643 104.434 209.938C103.51 209.872 102.673 209.824 101.816 209.44C100.509 208.855 99.5304 207.846 99.0359 206.49C98.5658 205.201 98.7902 203.774 99.3528 202.549C100.148 200.815 101.516 200.139 103.192 199.495Z" fill="#F13B42"/>
<path d="M385.063 150.726C386.049 150.627 387.338 150.511 388.285 150.844C389.564 151.294 390.775 152.308 391.378 153.525C392.101 154.985 392.209 156.216 391.667 157.734C391.091 159.347 389.688 160.311 388.205 161.005C387.214 161.207 386.416 161.335 385.429 161.022C383.762 160.494 382.502 159.554 381.747 157.956C381.155 156.703 381.19 155.309 381.673 154.024C382.318 152.306 383.485 151.505 385.063 150.726Z" fill="#63388B"/>
<path d="M144.542 60.9759C145.457 60.953 146.541 61.0453 147.377 61.4292C148.584 61.9829 149.741 63.1242 150.195 64.3842C150.704 65.7961 150.576 67.3767 149.893 68.7C149.044 70.3458 147.608 71.0104 145.935 71.5294C144.81 71.4993 143.741 71.3639 142.724 70.8393C141.352 70.132 140.299 68.8785 139.898 67.3767C139.547 66.0665 139.87 64.4367 140.599 63.3061C141.563 61.8093 142.893 61.3574 144.542 60.9759Z" fill="#83BD46"/>
<path d="M315.55 323.947C316.401 323.922 317.336 323.847 318.148 324.138C319.558 324.64 320.996 325.828 321.557 327.238C322.064 328.51 322.096 330.011 321.49 331.255C320.647 332.984 319.193 333.808 317.471 334.462C316.373 334.497 315.383 334.471 314.351 334.052C313.155 333.567 312.075 332.503 311.578 331.31C311.009 329.942 310.912 328.609 311.507 327.223C312.293 325.393 313.767 324.592 315.55 323.947Z" fill="#F13B42"/>
<path d="M315.448 326.457L316.944 326.496C317.662 326.599 318.351 327.079 318.766 327.668C319.217 328.309 319.364 329.09 319.178 329.851C318.945 330.81 318.27 331.284 317.47 331.767C317.039 331.824 316.591 331.903 316.155 331.848C315.416 331.755 314.756 331.373 314.31 330.781C313.803 330.108 313.62 329.361 313.765 328.528C313.942 327.518 314.659 327.015 315.448 326.457Z" fill="white"/>
<path d="M354.182 385.07C354.8 385.783 354.988 386.532 355.526 387.277L360.616 397.27L356.181 403.494C355.796 404.012 354.962 405.428 354.316 405.572C353.792 405.689 353.48 405.559 352.979 405.417C351.91 404.285 351.19 402.802 350.355 401.49C352.969 396.506 354.196 391.033 354.114 385.395L354.182 385.07Z" fill="#63388B"/>
<path d="M329.73 389.893L329.754 387.539L329.956 387.445L337.767 395.948C338.223 396.412 340.231 397.853 340.395 398.328C340.504 398.642 340.387 399.538 340.385 399.892L340.35 405.479L332.487 405.479C331.162 400.165 329.997 395.409 329.73 389.893Z" fill="#04BFD7"/>
<path d="M146.868 351.819L153.161 339.916C155.499 343.863 157.723 347.617 159.513 351.857L154.29 361.714L154.105 361.684L153.938 362.28L153.516 360.726C153.281 361.118 153.38 361.831 153.374 362.302C153.358 363.731 153.423 365.21 153.251 366.628C152.986 365.066 153.125 363.367 153.105 361.782C153.098 361.238 153.207 360.338 152.975 359.84C152.699 359.245 152.039 358.558 151.623 358.028C150.052 356.045 148.129 354.227 146.783 352.093L146.868 351.819Z" fill="#63388B"/>
<path d="M146.783 352.093L146.868 351.818C148.848 352.662 151.402 355.473 152.35 357.395L151.623 358.027C150.052 356.044 148.128 354.227 146.783 352.093Z" fill="#FBD18E"/>
<path d="M153.04 357.792L152.842 349.687L153.164 349.385L153.679 349.57L153.836 358.081L154.105 361.683L153.938 362.279L153.516 360.725C153.281 361.117 153.38 361.83 153.374 362.301C153.358 363.73 153.423 365.209 153.251 366.627C152.986 365.065 153.125 363.366 153.105 361.781C153.098 361.237 153.207 360.337 152.975 359.839C152.699 359.244 152.039 358.557 151.623 358.027L152.35 357.395L153.04 357.792Z" fill="#FBD18E"/>
<path d="M354.113 385.395C354.195 391.033 352.968 396.506 350.354 401.49L350.08 402.143L348.43 405.524C345.938 405.502 343.328 405.318 340.855 405.628C341.182 403.582 340.999 401.241 341.015 399.152C341.017 398.877 340.922 397.831 341.027 397.612C341.358 396.915 343.158 395.637 343.793 395.08L350.525 388.909C351.609 387.906 353.04 386.83 353.915 385.666L354.113 385.395Z" fill="#04BFD7"/>
<path d="M352.835 369.947L341.623 381.814L342.853 368.835C342.94 367.951 342.821 365.945 343.242 365.228C343.847 364.198 345.074 363.12 345.929 362.261L351.947 356.225L354.244 368.211L352.835 369.947Z" fill="#04BFD7"/>
<path d="M159.513 351.855L160.055 352.945C160.961 355.188 161.855 357.429 162.566 359.743C163.166 361.692 163.595 364.061 164.459 365.881C163.174 366.889 162.401 368.342 161.527 369.693L157.43 376.148C156.766 377.176 155.4 378.74 155.078 379.868L154.37 380.859C154.047 380.431 154.141 364.755 153.938 362.279L154.104 361.683L154.29 361.713L159.513 351.855Z" fill="#04BFD7"/>
<path d="M159.512 351.855L160.054 352.945C159.327 354.654 155.767 362.177 154.804 362.652C154.481 362.331 154.391 362.157 154.289 361.713L159.512 351.855Z" fill="#FBD18E"/>
<path d="M166.435 380.838C166.89 383.368 167.005 387.604 166.434 390.075C166.099 395.404 165.654 401.782 162.026 405.975L154.157 406.006L154.192 400.465C154.195 399.964 154.063 399.018 154.204 398.597C154.353 398.149 155.471 397.148 155.831 396.737C155.785 396.081 155.798 396.107 155.325 395.65C156.292 393.956 157.839 392.336 159.084 390.823C161.141 388.323 163.418 384.998 166.005 383.1L166.355 382.851L166.435 380.838Z" fill="#04BFD7"/>
<path d="M166.436 380.838C166.892 383.368 167.006 387.604 166.435 390.075L166.463 383.468L155.832 396.737C155.786 396.081 155.8 396.107 155.326 395.65C156.293 393.956 157.84 392.336 159.085 390.823C161.143 388.323 163.42 384.998 166.006 383.1L166.356 382.851L166.436 380.838Z" fill="#FBD18E"/>
<path d="M353.259 370.335L354.023 369.387C354.506 369.741 354.432 370.156 354.52 370.739L354.974 375.489C353.984 378.078 354.367 381.513 354.374 384.261L354.514 384.448C355.014 385.127 355.509 385.883 355.78 386.688L355.526 387.277C354.988 386.533 354.8 385.783 354.181 385.071L353.845 384.724C350.007 388.923 345.614 392.98 341.231 396.628L341.191 395.928L341.429 384.609C341.448 384.187 341.349 383.053 341.487 382.726C341.638 382.37 342.279 381.759 342.548 381.452C343.569 380.284 344.705 379.204 345.8 378.104L353.259 370.335Z" fill="#04BFD7"/>
<path d="M164.458 365.881L164.48 366.544L166.435 380.838L166.355 382.851L166.005 383.1C163.418 384.998 161.142 388.323 159.084 390.823C157.839 392.336 156.292 393.956 155.325 395.65C155.034 396.086 154.639 396.967 154.146 397.101L154.153 382.407C154.904 382.092 155.173 381.562 155.592 380.906C155.465 380.553 155.248 380.203 155.077 379.868C155.4 378.74 156.766 377.176 157.429 376.148L161.526 369.693C162.401 368.342 163.173 366.889 164.458 365.881Z" fill="#04BFD7"/>
<path d="M164.459 365.881L164.481 366.544L163.919 367.804C163.27 369.325 162.236 370.688 161.345 372.076L155.592 380.906C155.465 380.553 155.249 380.204 155.078 379.868C155.401 378.74 156.767 377.176 157.43 376.148L161.527 369.693C162.401 368.342 163.174 366.889 164.459 365.881Z" fill="#FBD18E"/>
<path d="M351.762 355.712L343.264 364.471L342.977 364.837L345.079 350.493L346.38 341.934C346.578 340.4 346.857 339.131 346.792 337.558C346.169 338.84 346.117 340.773 345.868 342.187L343.547 356.71L342.775 363.937L337.424 354.631C339.249 350.113 341.372 345.829 343.66 341.531C344.5 339.954 345.267 338.189 346.286 336.727L347.347 335.041L351.819 355.229L351.762 355.712Z" fill="#04BFD7"/>
<path d="M258.803 438.6L308.72 438.709C308.957 440.185 308.877 441.698 308.865 443.189L259.025 443.195L258.803 438.6Z" fill="#211E63"/>
<path d="M176.247 438.519L228.494 438.516C228.756 440.037 228.658 441.626 228.647 443.166L176.141 443.149L176.247 438.519Z" fill="#211E63"/>
<path d="M354.974 375.489C356.168 373.586 362.453 363.428 363.665 363.051L369.262 385.105L361.132 396.667C359.925 394.791 358.962 392.776 357.891 390.82C357.196 389.55 356.182 388.069 355.779 386.688C355.509 385.883 355.013 385.128 354.514 384.448L354.374 384.261C354.366 381.513 353.983 378.078 354.974 375.489Z" fill="#63388B"/>
<path d="M401.281 340.643L402.187 340.574L402.384 340.899L380.976 369.228L380.671 369.139L380.173 367.323L378.282 356.314C377.968 354.409 377.817 352.401 377.246 350.558L377.176 350.344C378.489 349.131 380.305 348.152 381.857 347.249C388.01 343.665 394.195 341.378 401.281 340.643Z" fill="#63388B"/>
<path d="M376.498 350.812L376.681 350.852C377.28 351.673 377.243 353.356 377.388 354.375L378.654 362.432L380.184 370.076C379.407 371.852 377.865 373.525 376.728 375.099L369.819 384.493L369.491 384.518L369.361 383.858L364.124 362.646L364.059 362.452C365.169 360.879 366.618 359.522 367.985 358.174C370.69 355.507 373.462 353.097 376.498 350.812Z" fill="#63388B"/>
<path d="M332.997 366.884L337.303 355.143C338.09 356.726 338.824 358.378 339.717 359.902C340.593 361.395 342.048 363.122 342.629 364.736C343.045 365.891 342.314 369.05 342.181 370.312L341.107 383.078L334.023 374.078C333.489 373.451 332.594 372.065 331.846 371.835C331.945 372.842 333.278 374.046 333.941 374.822L339.367 381.627C339.78 382.187 340.635 383.134 340.859 383.751C341.037 384.238 340.834 385.696 340.826 386.264L340.47 397.6C336.456 394.628 332.927 390.135 329.72 386.299C329.545 384.017 329.902 381.47 330.183 379.212C330.419 377.32 330.583 375.41 331.044 373.555L332.997 366.884Z" fill="#04BFD7"/>
<path d="M273.609 115.81C276.788 118.395 279.677 121.444 282.608 124.313C289.324 130.885 296.325 137.765 302.051 145.229L278.898 145.12L273.609 115.81Z" fill="#63388B"/>
<path d="M259.527 404.299L282.546 404.515C281.7 407.916 281.35 411.586 280.962 415.073C280.798 416.546 280.439 418.247 280.593 419.717L280.269 419.968C278.716 421.183 278.33 422.26 277.321 423.866C275.782 426.316 272.243 426.871 269.599 426.532C267.25 426.231 264.502 425.408 262.347 424.445C262.568 423.299 261.93 421.457 261.757 420.265L259.527 404.299Z" fill="#F29272"/>
<path d="M196.185 74.2797C196.843 73.7257 197.077 73.7238 197.929 73.8129C199.155 73.9408 200.369 74.2647 201.599 74.4152C203 74.5867 204.901 74.5295 206.175 75.0971C206.459 77.2646 206.936 79.231 208.795 80.6176C210.11 81.5987 211.601 82.0576 213.235 81.7918C213.731 81.7116 214.179 81.6048 214.687 81.5687C215.135 82.4022 215.167 83.6668 215.473 84.6095C216.715 88.441 218.713 90.9189 221.527 93.7233L221.508 95.6851C215.507 97.2892 208.149 97.5198 202.236 95.5305C197.762 94.0253 193.663 90.9438 191.627 86.6148C190.555 84.3334 190.189 81.6057 191.096 79.2081C191.817 77.3041 193.183 75.874 195.042 75.0395C195.432 74.8647 195.702 74.7747 196.019 74.4733L196.185 74.2797Z" fill="#211E63"/>
<path d="M179.486 403.986L205.611 404.268L202.8 412.457C202.152 414.405 200.833 417.2 201.175 419.274C199.964 419.885 197.031 420.385 196.592 421.758C196.382 422.418 196.605 424.085 196.367 424.477C196.288 424.608 195.537 425.019 195.366 425.126C192.856 426.684 190.107 426.85 187.265 426.388C186.015 426.185 184.822 425.987 183.64 425.494C182.668 425.088 181.765 424.475 180.774 424.131C180.186 422.351 180.36 419.803 180.243 417.89L179.486 403.986Z" fill="#F29272"/>
<path d="M249.824 390.531C250.21 390.404 250.639 390.345 251.037 390.26C252.391 390.583 253.826 390.509 255.21 390.526L261.948 390.589L290.095 390.413L290.173 391.942L290.093 404.601L282.546 404.515L259.527 404.299L250.005 404.127L249.824 390.531Z" fill="#486ECA"/>
<path d="M249.824 390.531C250.21 390.404 250.639 390.345 251.037 390.26C252.391 390.583 253.826 390.509 255.21 390.526L261.948 390.589L290.095 390.413L290.173 391.942L259.847 391.877L252.495 391.916C251.753 391.922 250.652 392.091 249.977 391.757L249.824 390.531Z" fill="#211E63"/>
<path d="M171.068 390.615C171.08 390.048 171.067 389.533 171.272 388.993C172.035 388.793 172.799 389.018 173.559 389.156C175.26 389.614 177.099 389.534 178.847 389.548L186.855 389.626C195.75 389.814 204.88 390.406 213.756 389.958L214.459 390.209C214.682 390.705 214.671 390.828 214.626 391.376L214.552 391.604C214.098 393.118 214.123 394.785 214.049 396.357L213.726 404.277L205.612 404.267L179.488 403.985L171.047 403.881L171.068 390.615Z" fill="#486ECA"/>
<path d="M171.068 390.615C171.08 390.048 171.067 389.533 171.272 388.993C172.035 388.793 172.799 389.018 173.559 389.156C175.26 389.614 177.099 389.534 178.847 389.548L186.855 389.626C195.75 389.814 204.88 390.406 213.756 389.958L214.459 390.209C214.682 390.705 214.67 390.828 214.626 391.376L171.068 390.615Z" fill="#211E63"/>
<path d="M280.593 419.717C281.587 419.241 282.659 418.771 283.766 419.189C284.573 419.493 284.957 420.108 285.307 420.859L285.571 420.84L286.376 420.82L286.584 421.172L286.367 421.758C286.776 422.217 287.11 422.587 287.695 422.834C287.926 422.931 288.991 423.147 289.101 423.27C289.13 423.303 289.299 423.943 289.336 424.003C289.467 424.214 290.164 424.569 290.397 424.717C291.45 425.383 292.624 426.123 293.789 426.568C296.54 427.621 299.502 428.044 302.255 429.238C303.78 429.899 305.153 430.832 306.406 431.919C307.877 434.089 308.331 436.171 308.72 438.708L258.803 438.599L259.666 431.334L260.534 427.265C260.874 425.913 261.134 425.186 262.346 424.446C264.501 425.409 267.25 426.231 269.599 426.532C272.242 426.871 275.782 426.316 277.32 423.867C278.33 422.26 278.715 421.183 280.269 419.968L280.593 419.717Z" fill="#047077"/>
<path d="M146.783 352.092C148.128 354.226 150.052 356.043 151.623 358.027C152.039 358.556 152.699 359.244 152.975 359.838C153.207 360.336 153.098 361.236 153.105 361.781C153.124 363.365 152.986 365.065 153.25 366.627C153.423 365.208 153.358 363.729 153.374 362.301C153.379 361.829 153.28 361.117 153.516 360.725L153.938 362.279C154.141 364.755 154.047 380.431 154.37 380.859L155.078 379.868C155.249 380.203 155.465 380.553 155.592 380.906C155.173 381.561 154.905 382.092 154.153 382.407L154.147 397.1C154.639 396.967 155.035 396.086 155.325 395.65C155.799 396.106 155.786 396.08 155.832 396.737C155.472 397.147 154.354 398.149 154.205 398.596C154.064 399.018 154.196 399.964 154.193 400.465L154.157 406.006L153.012 405.979C150.393 405.876 147.13 406.398 144.608 405.873C143.337 405.608 142.671 403.856 142.033 402.849C142.009 400.036 140.694 397.205 140.368 394.371C139.99 391.078 140.066 387.66 140.086 384.35C140.112 380.016 140.245 375.782 140.832 371.484C141.152 369.142 141.545 366.642 142.507 364.467C143.092 363.455 143.38 362.155 143.719 361.036C144.302 357.911 145.499 354.979 146.783 352.092Z" fill="#04BFD7"/>
<path d="M152.166 374.546C150.334 372.396 148.85 369.629 147.261 367.286C146.368 365.969 144.532 363.91 144.129 362.46C144.065 362.228 144.163 361.69 144.174 361.428C146.558 364.408 148.782 367.417 150.855 370.626C151.488 371.606 152.399 372.749 152.758 373.858C152.362 374.123 152.277 374.058 152.166 374.546Z" fill="#FBD18E"/>
<path d="M153.319 393.772L141.756 379.1L141.854 378.567L142.292 378.432C146.463 382.463 149.713 387.142 153.319 391.645C153.485 392.462 153.584 392.971 153.319 393.772Z" fill="#FBD18E"/>
<path d="M153.251 366.627C153.423 365.208 153.358 363.729 153.374 362.301C153.38 361.829 153.281 361.116 153.516 360.725L153.938 362.279C154.142 364.755 154.048 380.43 154.371 380.858L155.078 379.867C155.249 380.203 155.466 380.552 155.593 380.905C155.174 381.561 154.905 382.092 154.154 382.407L154.147 397.1C154.64 396.967 155.035 396.085 155.326 395.65C155.799 396.106 155.786 396.08 155.832 396.737C155.473 397.147 154.355 398.149 154.205 398.596C154.064 399.017 154.196 399.963 154.193 400.465L154.158 406.006L153.013 405.979L153.319 393.772C153.584 392.971 153.485 392.462 153.32 391.645L153.318 384.275L153.295 377.731C153.291 377.397 153.394 376.327 153.27 376.054C153.057 375.586 152.48 374.975 152.166 374.546C152.278 374.058 152.363 374.123 152.758 373.858C152.935 374.109 152.929 374.233 153.242 374.296C153.533 371.836 153.283 369.114 153.251 366.627Z" fill="#F7F3B1"/>
<path d="M201.175 419.273C202.887 419.512 204.044 419.916 205.245 421.19L205.429 422.146C205.77 422.004 206.004 421.777 206.36 421.942C207.078 422.272 207.686 422.889 208.359 423.313C210.13 424.431 212.061 425.702 213.9 426.674C217.356 428.499 221.228 429.499 224.734 431.365C227.019 433.527 227.871 435.493 228.492 438.514L176.246 438.518L176.997 431.758C177.269 430.269 177.446 428.59 178.005 427.182C178.411 426.164 178.917 425.752 179.926 425.336L180.351 425.166L180.774 424.13C181.766 424.474 182.668 425.087 183.641 425.493C184.822 425.986 186.015 426.184 187.265 426.387C190.107 426.849 192.856 426.683 195.366 425.125C195.537 425.018 196.288 424.607 196.368 424.476C196.605 424.085 196.382 422.417 196.593 421.757C197.031 420.384 199.964 419.884 201.175 419.273Z" fill="#047077"/>
<path d="M365.692 391.617C367.512 388.423 369.946 385.333 372.146 382.382C372.879 381.398 373.711 379.898 374.671 379.2L386.648 379.36C389.377 379.425 392.531 379.729 395.223 379.335C394.752 378.802 394.101 378.928 393.415 378.887L374.748 378.754L379.759 371.848C381.214 369.822 382.684 367.435 384.521 365.754L391.721 364.072L399.073 362.855C400.077 362.71 401.66 362.718 402.465 362.109C401.75 361.699 391.992 363.47 390.391 363.895L384.508 365.446L396.28 349.928L400.833 343.853C401.526 342.926 402.229 341.702 403.052 340.898C403.408 340.551 403.785 340.428 404.26 340.359L404.649 340.312C406.013 342.109 405.326 351.056 405.009 353.415C404.596 356.478 403.792 359.21 402.835 362.109L402.811 362.42C402.522 365.022 397.347 377.631 395.295 379.336L395.296 379.576C395.178 380.596 394.082 382.093 393.537 382.974C391.486 386.286 389.353 389.691 386.851 392.68L386.397 392.632C382.674 392.258 378.908 392.409 375.171 392.262C372.357 392.151 368.96 391.563 366.194 392.009L366.41 392.238L386.544 392.99C382.726 397.759 378.153 402.407 372.243 404.473L371.837 404.611C368.935 405.616 366.248 405.482 363.226 405.472L355.238 405.519C356.699 404.035 357.878 402.186 359.064 400.479C361.143 397.49 363.266 394.333 365.692 391.617Z" fill="#63388B"/>
<path d="M196.185 74.2797C195.622 73.8962 195.053 73.5109 194.582 73.0145C193.056 71.4071 192.056 69.2842 192.116 67.0389C192.175 64.8109 193.482 62.8271 195.108 61.3857C197.175 59.5529 199.417 58.8334 202.134 59.0902C203.897 59.2571 204.987 60.1534 206.062 61.4636L206.299 61.7546C206.265 59.5989 206.167 57.384 206.467 55.2447C207.22 49.8793 211.171 45.3135 215.335 42.1596C220.389 38.3323 227.712 35.709 234.101 36.681L234.491 36.7453C238.396 37.3567 240.906 39.511 243.442 42.3886C246.434 42.3792 248.602 42.3024 251.23 44.0345C256.186 47.2994 258.757 52.8424 259.97 58.4767C260.607 61.4359 260.754 65.0711 260.192 68.0453C259.317 67.5391 258.031 66.6091 256.984 66.8486C256.33 66.9982 255.741 68.0748 255.479 68.6275C255.151 69.3184 254.978 70.0899 254.814 70.8334L254.648 71.4934C254.225 71.2252 254.325 71.3781 254.165 71.0631C252.882 68.5294 252.537 65.7189 250.929 63.286C250.059 61.9707 248.869 60.8279 247.851 59.627C245.669 57.055 244.137 54.6662 242.742 51.6001C242.019 52.7143 241.294 53.9819 240.34 54.9133C237.352 57.8322 232.152 59.371 228.258 60.527C224.65 61.5985 220 62.8127 217.901 66.2448C216.868 67.9351 216.566 69.9315 216.306 71.8637C215.347 70.4546 214.405 68.7761 212.577 68.455C211.106 68.1962 209.681 68.5932 208.538 69.549C206.892 70.9247 206.524 73.0979 206.174 75.0971C204.901 74.5294 202.999 74.5867 201.598 74.4151C200.369 74.2647 199.155 73.9408 197.929 73.8128C197.076 73.7237 196.843 73.7255 196.185 74.2797Z" fill="#211E63"/>
<path d="M229.613 37.8194C232.646 37.4056 235.434 37.9796 238.031 39.5493C233.572 39.2858 230.031 38.808 225.649 40.2274C218.616 42.5054 213.563 47.05 210.236 53.5816C209.102 55.9422 208.406 58.5916 207.778 61.1219L207.738 60.9447C206.923 56.1803 208.589 51.4211 211.485 47.6983C215.893 42.0318 222.624 38.7842 229.613 37.8194Z" fill="white"/>
<path d="M206.176 75.0966C206.526 73.0974 206.894 70.9242 208.54 69.5484C209.682 68.5927 211.107 68.1956 212.579 68.4544C214.407 68.7755 215.348 70.4541 216.308 71.8632C216.567 69.931 216.87 67.9346 217.903 66.2443C220.002 62.8121 224.652 61.5981 228.26 60.5265C232.154 59.3705 237.353 57.8316 240.342 54.9128C241.295 53.9814 242.021 52.7139 242.744 51.5996C244.138 54.6657 245.671 57.0544 247.852 59.6265C248.871 60.8274 250.061 61.9702 250.93 63.2855C252.538 65.7183 252.884 68.5289 254.167 71.0626C254.326 71.3775 254.226 71.2248 254.649 71.4928L254.815 70.8328C254.98 70.0894 255.152 69.3178 255.48 68.6269C255.743 68.0743 256.331 66.9975 256.985 66.8481C258.032 66.6085 259.319 67.5385 260.193 68.0448C261.899 69.9737 263.013 71.95 262.765 74.6148C262.69 75.4126 262.24 76.2939 261.813 76.9558C260.729 78.9283 259.437 79.0539 257.726 80.2005L255.421 80.7667C254.417 86.0242 251.914 91.2062 247.687 94.6342L247.548 95.0204C245.828 95.574 244.581 96.092 243.259 97.3824L243.211 99.5513L243.393 101.094L243.83 102.167C243.642 106.235 242.062 109.723 240.156 113.269C239.309 114.847 238.372 116.632 237.125 117.925C236.377 117.56 236.273 117.413 235.43 117.583L234.364 118.544C230.374 115.289 226.708 111.434 223.932 107.081C223.343 106.159 222.734 105.208 222.233 104.235C221.842 103.476 221.709 102.634 221.075 102.029L221.837 101.867L222.063 101.248C221.868 99.4764 222.115 97.3347 221.509 95.6847L221.528 93.723C218.714 90.9184 216.716 88.4407 215.474 84.6091C215.168 83.6665 215.136 82.4018 214.688 81.5683C214.18 81.6044 213.732 81.7113 213.236 81.7914C211.602 82.0572 210.111 81.5983 208.796 80.6172C206.938 79.2305 206.46 77.2641 206.176 75.0966Z" fill="#FC807C"/>
<path d="M244.354 64.0316C245.6 63.9725 246.831 63.8947 247.956 64.5345C248.638 64.9231 249.071 65.4519 249.268 66.2108C248.904 66.6711 248.861 66.7339 248.311 66.9223C247.506 66.4929 246.828 66.0682 245.884 66.1723C245.256 66.2417 244.43 66.4292 243.821 66.2393C243.299 66.0766 243.261 65.9669 243.062 65.5076C243.396 64.6358 243.617 64.5626 244.354 64.0316Z" fill="#211E63"/>
<path d="M227.374 64.0338C228.43 63.9293 229.554 63.7572 230.468 64.3756C230.939 65.0782 230.908 65.1242 230.859 65.9769L230.308 66.4456C229.279 66.2591 228.457 66.1198 227.411 66.3022L227.182 66.3467C226.462 66.8765 225.759 67.4989 224.883 67.7365C224.477 67.2725 224.454 67.1741 224.344 66.5627C225.017 64.9648 225.799 64.6774 227.374 64.0338Z" fill="#211E63"/>
<path d="M232.451 84.916C233.564 85.1209 234.253 85.8751 235.203 86.4376C236.136 86.9893 237.034 87.1834 238.101 87.2134C240.129 87.2711 241.051 86.5586 242.461 85.2461L242.758 85.3126L242.843 86.7155C242.041 87.624 241.317 88.4035 240.118 88.779C238.491 89.2876 236.631 88.9739 235.133 88.2183C233.717 87.504 232.909 86.4061 232.451 84.916Z" fill="white"/>
<path d="M227.162 70.5059C228.034 70.5569 228.657 70.467 229.304 71.1654C229.868 71.7753 230 72.58 230.007 73.3807C230.02 74.9599 229.767 75.5674 228.65 76.683C227.939 76.6371 227.51 76.6047 226.946 76.1008C226.292 75.5173 226.061 74.4635 226.007 73.6306C225.915 72.2337 226.248 71.5291 227.162 70.5059Z" fill="#020022"/>
<path d="M246.301 69.8467C247.079 70.0403 247.647 70.2301 248.138 70.8986C248.835 71.8473 248.843 73.5198 248.597 74.6331C248.379 75.6207 247.799 75.9503 246.999 76.4368C246.492 76.3267 245.85 76.2249 245.481 75.826C244.812 75.1028 244.644 74.2018 244.686 73.2423C244.751 71.7291 245.18 70.8353 246.301 69.8467Z" fill="#020022"/>
<path d="M255.76 70.524C256.246 69.8453 256.583 69.3208 257.343 68.9443C258.564 68.9856 259.662 69.1468 260.537 70.0876C261.294 70.9004 261.813 72.2466 261.761 73.3595C261.717 74.2876 261.093 74.5679 260.703 75.2917L259.804 75.564C258.488 75.9709 257.121 75.9395 255.754 75.9855C255.616 74.1325 255.372 72.3643 255.76 70.524Z" fill="#F13B42"/>
<path d="M210.182 69.8517L211.641 69.8428C212.657 69.9249 213.534 70.5356 214.131 71.3409C215.061 72.5961 215.035 74.354 214.848 75.8436C213.611 76.2805 212.828 76.5655 211.997 77.6352L211.822 77.8737L210.938 78.5534C210.247 78.4611 209.898 78.3172 209.415 77.7875C208.486 76.7708 207.908 74.9736 208.007 73.6142C208.138 71.8101 208.897 70.9997 210.182 69.8517Z" fill="#F13B42"/>
<path d="M221.527 93.7236C222.736 94.4774 223.945 95.3544 225.22 95.9895C227.627 97.189 230.249 97.7108 232.894 98.0642C236.333 98.524 239.576 98.0965 242.955 97.5008C242.987 98.0412 242.923 99.1329 243.209 99.552L243.391 101.095C239.475 102.908 235.075 103.802 230.772 103.309C227.846 102.975 224.901 102.019 222.061 101.249C221.866 99.4769 222.114 97.3352 221.508 95.6852L221.527 93.7236Z" fill="#F13B42"/>
<path d="M243.392 101.095L243.83 102.167C243.642 106.236 242.062 109.723 240.156 113.27C239.309 114.847 238.372 116.632 237.125 117.925C236.377 117.56 236.272 117.413 235.43 117.583L234.363 118.544C230.373 115.289 226.708 111.434 223.932 107.082C223.343 106.159 222.734 105.208 222.233 104.235C221.842 103.476 221.709 102.634 221.074 102.029L221.836 101.867L222.062 101.249C224.902 102.019 227.847 102.975 230.773 103.309C235.076 103.801 239.476 102.907 243.392 101.095Z" fill="#FC807C"/>
<path d="M243.828 102.168C244.705 101.945 245.619 101.941 246.519 101.893C250.262 102.946 254.056 104.359 256.096 107.93C256.724 109.03 257.013 110.049 257.232 111.276C260.162 111.186 263.93 112.858 266.8 113.673C268.906 114.271 271.719 114.76 273.609 115.81L278.897 145.12L243.091 145.118L234.451 145.121L198.941 145.329C199.005 137.199 198.214 129.001 197.448 120.915C197.243 118.747 197.294 116.024 196.682 113.95C201.015 112.571 205.299 110.75 209.815 110.025L210.962 107.768C212.747 104.802 215.388 103.314 218.64 102.511L221.073 102.029C221.708 102.635 221.841 103.477 222.232 104.236C222.733 105.208 223.342 106.159 223.931 107.082C226.707 111.435 230.372 115.29 234.362 118.544L235.429 117.584C236.271 117.414 236.375 117.56 237.123 117.926C238.371 116.632 239.307 114.848 240.155 113.27C242.06 109.723 243.64 106.236 243.828 102.168Z" fill="#63388B"/>
<path d="M209.629 112.446L209.907 112.148C212.132 119.445 216.679 128.35 223.628 132.128C227.504 129.208 230.537 124.203 233.326 120.276L234.363 118.544L235.43 117.584C236.273 117.413 236.377 117.56 237.125 117.925L238.298 119.02L249.258 129.612C254.409 125.43 255.859 118.703 256.973 112.5L257.248 113.346C256.669 117.16 255.565 120.327 254.377 123.961C253.284 125.754 251.328 129.324 249.15 129.777C248.704 129.87 248.821 129.859 248.373 129.65C246.838 128.935 245.521 127.472 244.309 126.311C241.512 123.631 238.741 120.473 235.598 118.224L236.552 139.688L236.251 139.862C234.913 138.459 235.044 122.453 235.023 119.414C231.725 124.025 228.442 129.594 223.67 132.779L223.141 132.572C221.346 131.813 219.799 130.387 218.462 128.994C214.712 125.088 212.387 120.706 210.427 115.718C210.063 114.618 209.799 113.598 209.629 112.446Z" fill="black"/>
<path d="M243.83 102.168C244.707 101.945 245.621 101.941 246.52 101.893C250.264 102.946 254.057 104.359 256.098 107.93C256.726 109.03 257.015 110.049 257.234 111.276C257.405 111.984 257.441 112.632 257.248 113.346L256.973 112.5C255.859 118.703 254.41 125.431 249.258 129.612L238.298 119.02L237.125 117.926C238.372 116.632 239.309 114.848 240.156 113.27C242.062 109.723 243.642 106.236 243.83 102.168Z" fill="#63388B"/>
<path d="M243.828 102.168C244.705 101.945 245.619 101.941 246.518 101.893C245.45 107.956 241.183 113.681 238.296 119.02L237.123 117.926C238.37 116.632 239.307 114.848 240.154 113.27C242.06 109.723 243.64 106.236 243.828 102.168Z" fill="#63388B"/>
<path d="M218.641 102.511L221.074 102.029C221.708 102.634 221.842 103.477 222.233 104.236C222.733 105.208 223.343 106.159 223.931 107.082C226.707 111.435 230.373 115.29 234.363 118.544L233.326 120.276C230.537 124.203 227.503 129.208 223.627 132.128C216.678 128.35 212.132 119.445 209.907 112.149L209.628 112.446L209.486 112.191C209.76 111.524 209.752 110.738 209.815 110.025L210.962 107.768C212.748 104.802 215.388 103.314 218.641 102.511Z" fill="#63388B"/>
<path d="M218.641 102.511L221.073 102.029C221.708 102.634 221.841 103.477 222.232 104.236C222.733 105.208 223.342 106.159 223.931 107.082C226.707 111.435 230.373 115.29 234.363 118.544L233.325 120.276C229.237 117.168 226.025 113.254 222.94 109.183C221.347 107.081 219.67 104.956 218.641 102.511Z" fill="#63388B"/>
<path d="M196.682 113.95C201.015 112.57 205.299 110.75 209.815 110.024C209.751 110.737 209.759 111.523 209.486 112.191L209.628 112.446C209.798 113.598 210.062 114.618 210.425 115.718C210.193 117.282 210.636 118.513 211.115 119.965C212.155 123.117 213.53 125.961 215.507 128.635C217.438 131.246 220.264 133.834 223.593 134.281C225.738 134.569 226.899 134.027 228.499 132.671L231.467 129.784L234.451 145.12L198.941 145.329C199.005 137.198 198.214 129.001 197.448 120.914C197.243 118.746 197.294 116.023 196.682 113.95Z" fill="#04BFD7"/>
<path d="M257.233 111.276C260.163 111.185 263.931 112.858 266.801 113.673C268.907 114.271 271.72 114.759 273.61 115.809L278.898 145.12L243.092 145.117L239.102 124.746C240.783 126.71 242.509 128.602 244.54 130.219C245.772 131.201 247.137 132.149 248.789 131.885C250.136 131.67 251.307 130.719 252.07 129.631C252.926 128.413 254.616 125.381 254.377 123.961C255.565 120.327 256.669 117.16 257.248 113.346C257.44 112.631 257.404 111.983 257.233 111.276Z" fill="#04BFD7"/>
<path d="M112.924 400.966C101.288 394.679 93.8061 383.029 88.2721 371.393C86.2405 367.122 84.2727 362.7 82.707 358.238C84.0805 358.096 85.6925 358.4 87.0781 358.532C94.4305 359.236 101.025 360.776 107.869 363.571C107.956 362.955 107.336 361.581 107.146 360.937L105.179 354.199L103.771 347.967C101.836 337.157 102.532 325.045 104.87 314.334C110.807 317.585 116.124 322.084 120.885 326.862L121.242 327.343C128.528 334.632 133.963 344.188 138.201 353.498C139.821 357.057 141.477 360.682 142.506 364.466C141.544 366.642 141.151 369.142 140.831 371.483C140.244 375.781 140.111 380.016 140.085 384.349C140.066 387.66 139.989 391.077 140.367 394.371C140.693 397.205 142.008 400.036 142.032 402.849C142.018 403.803 142.164 405.103 141.814 405.988C140.365 406.256 138.693 406.088 137.227 405.964C134.515 405.965 131.682 406.126 128.989 405.797C123.707 405.151 119.068 403.576 114.171 401.564C113.758 401.458 113.309 401.161 112.924 400.966Z" fill="#63388B"/>
<path d="M94.4947 368.77C93.0532 368.551 90.1227 368.713 89.0586 367.852L89.2976 367.432C91.1009 367.48 92.9506 367.602 94.7234 367.947L94.4947 368.77Z" fill="#04BFD7"/>
<path d="M89.3176 363.171C88.1373 362.128 86.9987 361.134 86.0312 359.883L86.3664 359.557C87.7131 359.754 89.057 361.468 90.0512 362.394L89.3176 363.171Z" fill="#63388B"/>
<path d="M112.117 334.989C112.539 335.3 112.979 335.537 113.438 335.789L113.624 335.507C112.857 333.768 109.299 324.836 109.634 323.41L110.039 323.201L110.445 323.377C111.751 325.591 112.411 328.874 113.244 331.349C114.487 335.044 116.026 338.685 116.982 342.466C118.017 339.577 118.323 335.959 118.826 332.913C119.172 330.819 119.208 328.338 120.886 326.862L121.243 327.343L119.136 338.847C118.843 340.177 118.578 341.893 117.913 343.075C117.744 344.661 118.583 346.107 119.148 347.555L121.726 354.331L123.564 358.378C124.278 355.977 128.088 341.539 129.375 340.767L129.795 340.897C130.047 343.228 128.291 346.971 127.58 349.267L125.57 356.015C125.284 356.85 124.187 358.863 124.197 359.66C124.205 360.245 125.227 361.969 125.504 362.617L129.004 371.438C129.452 372.292 129.86 373.114 130.188 374.022L136.02 358.638C136.421 357.64 136.836 355.968 137.527 355.194C137.642 355.066 137.834 355.038 137.987 354.96C138.373 355.618 138.223 356.307 138.033 357.012C137.611 358.577 136.814 360.119 136.236 361.643L132.845 370.485C132.305 371.766 131.153 373.636 130.87 374.957C130.786 375.347 130.957 375.57 131.121 375.893C133.261 380.098 141.985 399.983 140.898 403.957C140.774 404.409 140.514 404.783 140.265 405.173C140.039 405.529 140.13 405.364 139.968 405.843L141.815 405.988C140.366 406.256 138.694 406.087 137.228 405.964C134.515 405.965 131.683 406.126 128.99 405.797C123.708 405.151 119.069 403.576 114.172 401.563C113.759 401.458 113.31 401.16 112.925 400.966C113.407 400.656 113.88 400.388 114.448 400.275C116.085 399.949 118.089 400.123 119.766 400.079L129.361 399.759L121.678 392.8C118.057 393.303 114.233 393.19 110.582 393.141C109.415 393.126 107.541 393.317 106.524 392.76V392.325C107.94 392.049 109.643 392.198 111.093 392.178C114.318 392.135 117.531 392.12 120.746 391.842C118.977 389.973 117.009 388.282 115.061 386.601C114.749 386.331 113.883 385.46 113.545 385.355C113.035 385.197 111.901 385.343 111.328 385.31C109.433 385.203 102.528 384.945 101.065 383.993C100.801 383.822 100.866 383.605 100.828 383.319L101.286 382.805L112.2 384.102L104.779 376.945L104.536 376.811C103.419 376.998 101.883 376.584 100.759 376.391L92.6072 374.931C92.1263 374.522 92.0185 374.607 91.9495 373.944C92.7614 373.58 94.7498 374.215 95.6559 374.376L103.419 375.557C100.392 373.363 98.1777 369.961 94.4938 368.769L94.7226 367.946L92.7777 366.056L89.3184 363.169L90.052 362.392C90.6881 362.919 91.394 363.654 92.2063 363.839C91.6208 363.215 90.9674 362.599 90.5109 361.874C90.9871 361.445 90.9543 361.489 91.6008 361.522C92.8603 363.005 93.622 364.818 94.8773 366.3C95.812 367.403 97.0242 368.303 98.1061 369.257L102.545 373.222L100.343 365.507L100.781 365.195L101.488 365.359C101.949 366.121 102.088 367.163 102.328 368.026C103.138 370.938 103.411 373.873 105.527 376.181C106.822 377.419 108.191 379.034 109.671 380.021L109.994 379.919C108.969 376.68 108.592 372.951 107.858 369.608L108.164 369.224L108.867 369.24C109.302 370.016 109.395 371.001 109.556 371.872L110.498 377.734C110.632 378.715 110.711 380.806 111.239 381.584C112.423 383.329 114.853 384.872 116.462 386.245C116.94 386.653 118.348 388.027 118.906 388.062L117.324 378.812C116.977 376.918 116.376 374.813 116.481 372.89L116.836 372.624L117.305 372.871C118.352 376.301 118.765 380.202 119.32 383.75C119.559 385.275 120.096 387.083 119.901 388.62L119.833 389.119C119.843 390.222 123.439 392.669 124.336 393.449L128.745 397.617L127.193 389.584L126.086 384.579C125.857 383.553 125.503 382.375 125.612 381.327L126.094 381.107C128.145 382.547 128.903 395.427 129.895 398.377C130.181 399.225 137.986 404.83 139.308 405.6C139.513 404.152 139.884 402.381 139.624 400.941C139.287 399.074 138.488 397.154 137.852 395.365L133.041 383.259C131.572 379.721 130.275 375.63 128.182 372.433C124.484 371.752 120.365 368.766 117.175 366.806C114.875 365.463 112.264 364.349 110.109 362.8C109.651 362.47 109.17 362.202 108.983 361.64L109.283 361.241C109.535 361.243 109.8 361.165 110.039 361.246C110.691 361.465 111.636 362.342 112.267 362.727C114.458 364.061 116.765 365.222 118.899 366.645C120.075 367.069 121.212 367.889 122.303 368.5C124.054 369.482 125.868 370.313 127.724 371.074C127.074 369.516 123.936 361.334 123.097 360.623C122.423 360.051 121.039 359.555 120.225 359.053L111.395 353.132C110 352.178 107.837 351.113 106.911 349.687L107.179 349.288C107.468 349.27 107.764 349.169 108.047 349.233C108.262 349.282 108.808 349.81 109.034 349.981L112.099 352.271C115.538 354.712 119.017 356.976 122.693 359.044L121.041 355.156L119.529 351.679C119.38 351.323 119.123 350.469 118.879 350.194C118.581 349.859 117.177 349.391 116.704 349.168L106.905 343.241L106.952 342.736C107.342 342.677 107.752 342.582 108.14 342.715C109.776 343.274 111.712 344.977 113.203 345.957L117.447 348.478C117.871 348.427 117.646 348.482 118.113 348.28L116.086 342.597C115.579 341.31 114.988 338.781 114.145 337.763C113.643 337.158 112.434 336.541 111.766 335.999C110.637 335.315 109.6 334.525 108.516 333.776C107.226 332.887 105.712 332.121 104.883 330.746L105.117 330.354C107.562 331.217 109.974 333.504 112.117 334.989Z" fill="#04BFD7"/>
<path d="M114.172 401.564C115.587 400.814 118.932 401.283 120.626 401.234L130.698 400.65L137.227 405.964C134.515 405.965 131.683 406.126 128.99 405.797C123.708 405.151 119.068 403.576 114.172 401.564Z" fill="#63388B"/>
<path d="M121.242 327.344C128.529 334.632 133.964 344.188 138.201 353.498C139.821 357.057 141.477 360.683 142.507 364.467C141.544 366.642 141.151 369.143 140.832 371.484C140.245 375.782 140.112 380.017 140.086 384.35C140.066 387.661 139.99 391.078 140.368 394.371C140.693 397.205 142.009 400.037 142.032 402.849C142.019 403.803 142.164 405.104 141.815 405.988L139.968 405.843C140.129 405.364 140.038 405.529 140.265 405.174C140.514 404.784 140.774 404.41 140.898 403.958C141.984 399.984 133.26 380.099 131.121 375.893C130.957 375.571 130.785 375.347 130.869 374.957C131.153 373.636 132.304 371.767 132.844 370.485L136.235 361.644C136.813 360.12 137.611 358.578 138.033 357.012C138.223 356.307 138.373 355.619 137.987 354.961C137.833 355.039 137.641 355.067 137.526 355.195C136.836 355.968 136.421 357.641 136.019 358.639L130.187 374.022C129.86 373.115 129.451 372.292 129.004 371.438L125.503 362.618C125.227 361.969 124.205 360.245 124.197 359.66C124.186 358.863 125.284 356.851 125.57 356.015L127.58 349.268C128.29 346.972 130.046 343.229 129.795 340.898L129.375 340.768C128.088 341.539 124.278 355.977 123.564 358.378L121.726 354.332L119.147 347.555C118.582 346.107 117.744 344.662 117.913 343.076C118.577 341.893 118.843 340.178 119.136 338.847L121.242 327.344Z" fill="#63388B"/>
<path d="M196.682 113.95C197.295 116.024 197.244 118.747 197.449 120.915C198.214 129.001 199.006 137.199 198.941 145.329L177.626 145.121L177.696 176.412L177.68 196.127C180.566 204.456 184.749 212.688 188.441 220.707C189.873 223.819 191.763 227.178 192.752 230.444C192.832 230.705 192.813 230.588 192.676 230.9L187.838 233.156L171.66 240.343L164.719 242.407L161.052 234.601L160.505 233.467C159.102 229.278 157.179 225.182 155.541 221.075L147.616 199.995C146.534 196.954 145.102 193.845 144.377 190.704C144.006 189.099 143.943 187.419 144.23 185.794C144.759 182.801 146.132 179.816 147.328 177.035C151.181 168.065 155.98 159.584 161.189 151.34C165.471 144.751 169.847 138.255 174.772 132.123C180.733 124.702 187.69 117.555 196.682 113.95Z" fill="#63388B"/>
<path d="M160.504 233.467L168.543 230.985C175.4 228.533 181.587 225.375 188.005 221.98C186.453 219.103 185.226 215.938 183.882 212.956L176.277 195.862L173.456 189.453C173.237 188.941 172.941 187.847 172.602 187.441C172.233 186.999 171.277 186.48 170.789 186.127L165.103 182.006L165.188 181.524L165.82 181.392C168.063 182.579 170.223 184.416 172.319 185.884C173.217 182.731 174.25 179.176 175.769 176.278C175.962 175.909 175.824 176.063 176.331 175.906L176.919 176.485C176.176 177.892 173.249 185.128 173.548 186.497L177.679 196.127C180.565 204.456 184.749 212.688 188.44 220.707C189.873 223.819 191.762 227.178 192.752 230.444C192.831 230.705 192.813 230.588 192.675 230.9L192.308 230.602C191.569 229.94 191.196 228.815 190.784 227.93L188.399 222.871C180.134 228.402 170.449 231.582 161.051 234.601L160.504 233.467Z" fill="black"/>
<path d="M161.053 234.601C170.45 231.581 180.135 228.401 188.401 222.871L190.786 227.93C191.197 228.814 191.57 229.94 192.309 230.602L192.676 230.9L187.838 233.156L171.66 240.343L164.72 242.407L161.053 234.601Z" fill="#63388B"/>
<path d="M245.541 259.396L283.571 259.397L288.223 378.761C288.25 382.391 287.865 386.559 288.412 390.118L290.094 390.415L261.947 390.59L255.209 390.527C253.825 390.511 252.39 390.585 251.036 390.261L251.322 389.937L247.793 365.753L240.823 317.379L237.295 291.687L235.909 282.044C235.657 280.375 235.596 278.538 234.923 276.979L234.736 276.942C234.459 276.527 234.616 276.115 234.663 275.63L237.328 259.315L238.192 259.371L244.766 259.285L245.541 259.396Z" fill="#486ECA"/>
<path d="M237.329 259.314L238.192 259.371L236.313 271.591C236.065 273.054 235.953 275.553 235.078 276.737L234.815 276.563L234.664 275.629L237.329 259.314Z" fill="#211E63"/>
<path d="M244.766 259.285L245.54 259.396L246.425 267.182L250.76 307.852L250.312 308.207L249.745 308.048L245.395 266.176L244.766 259.285Z" fill="#211E63"/>
<path d="M251.818 317.742L252.583 317.875C254.109 321.809 251.569 326.076 251.992 330.038L255.692 359.179L257.432 371.763C257.659 373.471 258.286 375.603 257.849 377.256L257.227 376.94L252.803 343.674L251.016 329.528C250.855 327.421 251.626 325.634 251.884 323.599C252.125 321.702 251.968 319.646 251.818 317.742Z" fill="#211E63"/>
<path d="M200.56 259.158L237.329 259.315L234.664 275.63C234.617 276.115 234.459 276.527 234.737 276.942L234.924 276.979L220.068 352.491L214.725 380.666C214.414 382.358 212.885 388.493 213.343 389.693L213.755 389.96C204.88 390.408 195.75 389.815 186.855 389.628L178.847 389.55C177.099 389.536 175.26 389.615 173.559 389.157L176.792 341.196L181.733 307.197C182.355 301.095 182.313 294.896 182.483 288.766L183.03 266.164C184.059 267.059 185.014 267.546 186.251 268.085C187.183 267.611 187.982 266.939 188.808 266.304C189.116 266.282 189.302 266.308 189.59 266.424C190.324 266.721 191.048 267.071 191.861 266.871C193.025 266.586 193.977 265.524 194.621 264.572C194.573 264.033 194.539 264.063 194.883 263.651L195.873 263.915L195.966 263.942C196.938 264.172 197.697 264.199 198.56 263.624C200.105 262.594 200.122 261.088 200.485 259.467L200.56 259.158Z" fill="#486ECA"/>
<path d="M182.586 379.179C182.791 379.874 182.891 380.611 182.99 381.329C182.99 379.936 182.753 379.165 183.501 377.977L183.039 388.008L182.696 388.283L182.18 388.08C181.966 385.351 182.112 381.895 182.586 379.179Z" fill="#0609A0"/>
<path d="M194.621 264.571C194.572 264.032 194.539 264.062 194.883 263.65L195.873 263.914L195.807 264.306L191.867 316.103L191.484 316.236C191.354 316.097 191.161 315.998 191.094 315.82C190.971 315.49 191.039 314.599 191.031 314.226L191.111 307.851L194.621 264.571Z" fill="#211E63"/>
<path d="M188.923 328.852C189.185 328.245 189.451 327.596 189.879 327.084C190.259 326.63 191.318 325.83 191.464 325.328C191.569 324.969 191.454 324.157 191.45 323.768L191.327 319.967C191.293 319.317 191.14 318.61 191.455 318.016L191.902 317.885C192.329 318.522 192.266 319.287 192.332 320.045C192.506 322.019 192.696 323.944 192.371 325.912C190.94 327.178 190.386 327.943 189.739 329.776C187.662 337.12 186.788 344.656 185.941 352.226L183.501 377.976C182.752 379.164 182.989 379.936 182.989 381.328C182.89 380.611 182.79 379.874 182.586 379.178C182.498 375.456 183.043 371.481 183.345 367.761L185.33 348.769C186.139 342.042 186.984 335.359 188.923 328.852Z" fill="#211E63"/>
<path d="M234.452 145.12L243.092 145.117L278.899 145.119L302.052 145.229L302.466 145.341C303.747 145.662 305.411 145.482 306.75 145.485L315.964 145.493L353.161 145.499L360 145.502C360.649 145.506 361.871 145.388 362.461 145.579C362.983 145.747 363.781 146.463 364.033 146.953C364.907 148.654 364.314 175.235 364.459 179.421C365.892 179.614 367.904 179.657 368.789 181.01C369.129 181.53 369.135 181.88 369.016 182.461L367.015 183.971C368.457 184.828 369.662 185.445 370.19 187.148C369.797 188.274 368.735 188.776 367.697 189.291L367.257 189.494C368.311 189.989 369.352 190.41 369.765 191.588C369.942 192.091 369.904 192.602 369.881 193.125C369.034 194.355 367.939 194.582 366.566 194.969L366.777 195.287C367.174 195.843 367.842 196.125 368.432 196.433C368.805 197.069 369.001 197.656 368.801 198.419C368.638 199.039 368.173 199.281 367.617 199.503C366.685 199.877 365.623 199.896 364.634 199.939L364.457 219.099L364.533 251.992C364.552 253.757 365.054 257.241 363.805 258.572C363.325 259.083 362.773 259.331 362.079 259.396C359.421 259.641 356.545 259.43 353.868 259.432L337.283 259.437L283.572 259.396L245.541 259.395L244.767 259.284L238.192 259.37L237.329 259.314L200.56 259.157L200.485 259.466C200.122 261.088 200.105 262.593 198.561 263.623C197.698 264.198 196.938 264.172 195.966 263.941L195.873 263.914L194.883 263.651C194.539 264.063 194.573 264.032 194.621 264.572C193.977 265.523 193.025 266.586 191.861 266.871C191.049 267.07 190.325 266.72 189.59 266.424C189.302 266.307 189.116 266.281 188.808 266.303C187.982 266.938 187.183 267.61 186.251 268.084C185.015 267.545 184.059 267.059 183.031 266.163C182.291 265.342 181.48 264.512 180.852 263.603C180.322 262.837 179.647 260.907 178.906 260.507L179.052 260.039C178.662 259.262 178.582 258.747 177.786 258.36L171.66 240.342L187.838 233.155L192.676 230.9C192.814 230.588 192.832 230.704 192.753 230.444C191.763 227.177 189.874 223.818 188.441 220.706C184.75 212.687 180.566 204.455 177.68 196.126L177.697 176.411L177.626 145.12L198.942 145.329L234.452 145.12Z" fill="#E5FCFF"/>
<path d="M358.406 193.064C359.088 193.386 359.762 193.73 360.505 193.882C361.031 193.988 360.616 193.894 361.15 194.071C361.502 194.189 361.656 194.189 362.007 194.193C362.562 194.199 362.316 194.138 362.69 194.31C363.231 194.558 365.02 194.552 365.573 194.313L365.743 194.213L366.327 194.315L366.566 194.969L366.777 195.287C367.174 195.844 367.842 196.125 368.432 196.433C368.805 197.069 369.001 197.656 368.801 198.419C368.638 199.04 368.173 199.281 367.618 199.503C366.685 199.877 365.623 199.896 364.634 199.939C361.873 199.646 359.321 199.348 357.359 197.142C356.931 195.93 357.915 194.203 358.406 193.064Z" fill="#E97599"/>
<path d="M359.789 183.018C358.938 182.62 357.918 182.209 357.195 181.598C356.508 181.017 356.557 180.706 356.537 179.883C356.895 179.471 357.266 179.029 357.749 178.76C359.074 178.022 362.978 179.092 364.458 179.421C365.892 179.615 367.904 179.657 368.789 181.011C369.129 181.531 369.135 181.88 369.016 182.461L367.014 183.971C368.457 184.829 369.661 185.445 370.19 187.149C369.797 188.274 368.735 188.777 367.696 189.292L367.257 189.495C368.31 189.99 369.352 190.411 369.765 191.589C369.941 192.091 369.903 192.602 369.881 193.125C369.034 194.355 367.938 194.582 366.565 194.97L366.327 194.315L365.742 194.213L365.572 194.313C365.019 194.553 363.23 194.558 362.689 194.31C362.316 194.139 362.561 194.199 362.007 194.193C361.655 194.189 361.502 194.189 361.15 194.072C360.616 193.894 361.03 193.989 360.505 193.882C359.761 193.731 359.087 193.386 358.406 193.065C357.182 192.574 356.019 192.116 355.109 191.133L355.154 190.195C355.91 189.29 356.466 189.136 357.606 188.912L358.945 188.595L358.814 188.32C357.96 188.038 357.014 187.551 356.325 186.957C355.675 186.398 355.787 185.812 355.77 185.039C356.366 184.079 358.698 183.42 359.789 183.018Z" fill="#FC807C"/>
<path d="M285.694 173.636C286.459 173.626 287.086 173.642 287.695 174.168C288.95 175.254 288.713 177.632 288.793 179.142C289.668 177.559 290.567 175.546 292.011 174.406C292.955 173.661 294.011 173.479 295.195 173.67C296.162 173.826 297.065 174.685 297.623 175.441C298.301 176.361 298.754 177.423 299.07 178.516C300.031 181.836 300.218 185.471 300.737 188.88C300.892 189.9 301.523 191.877 301.309 192.81C301.182 193.359 300.779 193.509 300.351 193.809C299.858 193.816 299.42 193.91 298.98 193.661C297.505 192.829 296.954 189.23 296.542 187.681L295.161 181.319C294.966 180.256 294.928 178.543 294.257 177.715C292.191 178.993 290.67 184.18 290.171 186.562C289.878 187.962 289.875 190.621 288.875 191.705C288.239 192.395 287.367 192.591 286.464 192.629C285.62 192.664 285.235 192.385 284.648 191.855C283.882 189.846 284.345 186.425 284.374 184.227L284.485 177.802C284.504 176.918 284.38 175.675 284.706 174.861C284.894 174.39 285.337 173.984 285.694 173.636Z" fill="#13478F"/>
<path d="M238.098 158.771C238.694 158.897 239.259 158.986 239.705 159.433C240.604 160.335 240.491 161.709 240.544 162.892L240.702 171.9L240.98 179.263C241.629 177.886 242.316 176.295 243.46 175.252C244.198 174.58 245.301 174.138 246.304 174.19C247.663 174.259 248.955 174.91 249.858 175.913C252.183 178.499 252.688 183.526 253.427 186.797C253.737 188.17 254.379 189.847 254.317 191.253C254.282 192.057 254.317 192.11 253.711 192.645C252.871 192.727 252.003 192.781 251.275 192.26C249.891 191.27 249.673 188.32 249.341 186.747C248.96 184.554 248.48 179.609 246.88 178.107C246.349 177.608 246.196 177.688 245.508 177.71C243.922 179.033 242.938 181.556 242.568 183.568L242.494 183.983C242.182 185.581 242.122 187.045 242.096 188.674C242.084 189.418 242.178 190.419 241.996 191.132C241.821 191.82 241.38 192.044 240.82 192.39C239.493 192.51 238.692 192.622 237.624 191.731C236.909 190.369 237.133 188.014 237.093 186.462L237.01 165.314C237.021 163.831 236.96 162.313 237.079 160.838C237.097 160.614 237.092 159.926 237.189 159.726C237.327 159.445 237.864 159.017 238.098 158.771Z" fill="#13478F"/>
<path d="M308.867 161.699L309.239 161.668C310.095 161.61 310.704 161.757 311.329 162.352C312.57 163.533 312.773 176.048 312.927 178.609L322.424 168.498C323.315 167.628 324.375 166.344 325.473 165.78C326.062 165.478 326.389 165.701 326.972 165.877C327.492 166.443 327.535 166.469 327.621 167.227C326.642 169.285 324.34 171.126 322.801 172.801L315.82 180.429L320.697 184.649L325.713 189.438C326.244 190.069 326.126 190.489 326.003 191.251C325.496 191.88 325.343 191.903 324.609 192.161C324.082 192.108 323.73 192.067 323.255 191.805C322.263 191.258 321.249 190.08 320.419 189.303L313.424 182.513C313.292 185.132 313.638 187.711 313.633 190.324C313.632 190.722 313.72 191.85 313.579 192.188C313.463 192.466 313.198 192.654 313.007 192.887C312.5 193.094 312.081 193.283 311.523 193.246C310.459 193.174 309.922 192.94 309.214 192.142C308.912 190.245 309.012 188.248 308.964 186.329L308.659 175.1L308.212 165.048C308.206 164.476 308.049 163.297 308.213 162.774C308.313 162.452 308.683 162.001 308.867 161.699Z" fill="#13478F"/>
<path d="M268.937 172.301C269.873 172.255 270.905 172.138 271.822 172.37C273.451 172.781 275.024 173.501 275.676 175.173C275.985 175.966 275.849 177.175 275.853 178.023C275.868 181.461 275.648 186.096 277.541 189.088C278.317 188.967 278.929 188.853 279.56 189.424C279.906 189.737 280.026 190.321 280.057 190.763C280.121 191.664 279.78 192.123 279.206 192.773C278.31 193.222 277.469 193.301 276.487 193.057C274.57 192.581 273.635 191.03 272.633 189.479L271.245 190.734C270.475 191.348 269.65 192.025 268.748 192.431C266.935 193.246 264.307 193.344 262.485 192.54C260.713 191.758 259.437 190.16 258.751 188.383C257.865 186.089 258.091 183.746 259.08 181.523C260.871 177.494 264.861 173.836 268.937 172.301Z" fill="#13478F"/>
<path d="M270.179 175.48C270.97 175.65 271.03 175.662 271.58 176.252C271.915 178.119 271.262 181.078 270.921 182.965C270.511 185.236 269.845 186.765 267.844 188.072C266.496 188.953 265.494 188.952 263.96 188.607C263.404 188.292 262.902 187.971 262.516 187.447C261.99 186.734 261.994 185.843 262.151 185.01L262.217 184.687L262.422 183.733C263.437 180.455 267.315 177.102 270.179 175.48Z" fill="#E5FCFF"/>
<path d="M303.132 212.571C303.774 212.506 304.593 212.458 305.202 212.691C306.456 213.17 307.481 214.495 307.994 215.69C308.719 217.377 308.332 219.048 307.991 220.773C307.358 223.98 306.506 227.131 305.238 230.149C304.077 232.915 301.702 237.652 298.728 238.726C297.251 239.26 295.775 239.01 294.402 238.294C289.087 235.523 286.135 228.835 284.445 223.421C283.802 221.257 283.364 218.37 283.751 216.125C283.943 215.007 284.512 214.094 285.47 213.467C286.149 213.023 287.134 212.775 287.929 213.044C288.849 213.356 289.429 214.119 289.797 214.986C290.502 216.644 290.608 218.934 290.906 220.716C291.504 224.29 292.621 228.561 294.437 231.716C294.874 232.475 295.16 232.81 296.015 233.025C298.541 231.954 299.944 222.989 300.35 220.339C300.611 218.642 300.628 216.57 301.22 214.973C301.582 213.996 302.11 213.366 302.923 212.729L303.132 212.571Z" fill="#E97599"/>
<path d="M215.082 159.239C217.747 158.94 228.576 158.59 230.625 159.804C231.594 160.379 231.975 161.262 232.22 162.304C232.06 162.948 232.041 163.213 231.571 163.707C231.184 164.115 230.857 164.412 230.311 164.575C229.179 164.912 227.856 164.915 226.682 164.987L219.802 165.295L220.247 186.071C220.375 189.729 220.991 193.87 220.45 197.488C219.732 198.228 219.397 198.221 218.417 198.461L214.805 198.727C213.927 198.705 213.44 198.544 212.819 197.929L212.385 165.558C209.326 165.75 205.807 165.933 202.794 165.372C201.575 165.144 200.858 164.748 200.159 163.711C200.134 162.99 200.033 162.768 200.508 162.197C201.024 161.577 201.981 161.206 202.715 160.945C206.451 159.615 211.123 159.52 215.082 159.239Z" fill="#E97599"/>
<path d="M268.907 212.383C270.006 212.318 271.043 212.254 272.109 212.604C274.886 213.515 277.156 215.568 278.415 218.197C280.219 221.964 279.601 226.797 278.263 230.623C276.841 234.691 274.326 238.484 270.36 240.368C268.716 240.636 267.21 240.596 265.678 239.887C262.995 238.645 261.541 236.407 260.556 233.699C258.865 229.048 259.689 223.545 261.78 219.131C263.306 215.907 265.511 213.591 268.907 212.383Z" fill="#E97599"/>
<path d="M270.266 217.528L270.879 217.499C271.901 217.473 272.856 217.589 273.585 218.368C274.238 219.064 274.387 220.467 274.376 221.381C274.319 226.235 272.28 231.811 268.811 235.232C268.311 235.341 267.932 235.315 267.421 235.301C266.489 234.643 265.997 233.85 265.551 232.816C264.091 229.433 264.668 224.744 266.106 221.47C266.975 219.493 268.286 218.309 270.266 217.528Z" fill="#E5FCFF"/>
<path d="M252.214 203.903C252.735 203.878 253.333 203.824 253.842 203.96C255.364 204.367 256.069 205.475 256.842 206.754C257.037 211.383 255.648 215.554 253.959 219.806C251.744 225.385 249.014 230.897 245.801 235.968C244.6 237.863 243.309 240.316 241.112 241.179C239.84 241.678 238.41 241.666 237.161 241.103C236.205 240.673 235.468 239.709 235.086 238.753L241.289 225.914C239.069 224.238 237.051 222.607 235.473 220.27C233.048 216.682 230.484 211.874 230.631 207.422C230.657 206.631 230.919 205.788 231.53 205.254C232.344 204.542 232.997 204.537 234.024 204.629C234.985 205.186 235.632 205.791 236.216 206.746C237.316 208.543 237.96 210.83 238.68 212.808C239.76 215.778 240.959 218.603 242.652 221.276C245.643 215.667 246.452 207.44 252.214 203.903Z" fill="#E97599"/>
<path d="M171.66 240.343L187.838 233.156C189.055 234.406 190.431 236.485 191.823 237.427C193.247 238.39 194.997 239.033 196.518 239.857C199.002 241.202 205.232 245.17 205.34 248.164C205.37 249.021 205.061 249.797 204.468 250.411C203.689 251.219 202.585 251.742 201.446 251.694L200.203 251.504L200.366 251.948L196.736 251.929C197.492 253.543 198.486 254.991 199.301 256.567C199.727 257.389 199.995 258.429 200.56 259.158L200.486 259.467C200.122 261.088 200.105 262.594 198.561 263.624C197.698 264.199 196.938 264.172 195.966 263.942L195.874 263.915L194.884 263.651C194.539 264.063 194.573 264.033 194.622 264.572C193.977 265.524 193.025 266.586 191.861 266.871C191.049 267.071 190.325 266.72 189.59 266.424C189.302 266.308 189.116 266.282 188.808 266.304C187.982 266.939 187.183 267.611 186.251 268.085C185.015 267.546 184.059 267.059 183.031 266.164C182.291 265.342 181.481 264.513 180.852 263.603C180.322 262.838 179.647 260.908 178.906 260.508L179.052 260.039C178.662 259.263 178.582 258.748 177.786 258.361L171.66 240.343Z" fill="#F29272"/>
<path d="M196.734 251.929L194.676 247.654C196.334 249.009 197.948 250.394 199.878 251.347L200.202 251.505L200.365 251.948L196.734 251.929Z" fill="#FBD18E"/>
<path d="M200.367 251.948L364.534 251.993C364.553 253.759 365.054 257.242 363.806 258.573C363.326 259.084 362.774 259.333 362.079 259.397C359.422 259.643 356.546 259.431 353.869 259.433L337.284 259.439L283.573 259.397L245.542 259.396L244.767 259.285L238.193 259.371L237.33 259.315L200.56 259.159C199.996 258.43 199.727 257.39 199.301 256.567C198.486 254.991 197.492 253.543 196.736 251.93L200.367 251.948Z" fill="#63388B"/>
</svg>
