<svg width="18" height="18" viewBox="0 0 18 18" fill="none" xmlns="http://www.w3.org/2000/svg">
<path d="M15.1759 2.43109H12.6044V1.14537C12.6044 1.03171 12.5593 0.922697 12.4789 0.842323C12.3985 0.76195 12.2895 0.716797 12.1759 0.716797C12.0622 0.716797 11.9532 0.76195 11.8728 0.842323C11.7924 0.922697 11.7473 1.03171 11.7473 1.14537V2.43109H5.74724V1.14537C5.74724 1.03171 5.70209 0.922697 5.62172 0.842323C5.54134 0.76195 5.43233 0.716797 5.31867 0.716797C5.205 0.716797 5.09599 0.76195 5.01562 0.842323C4.93525 0.922697 4.89009 1.03171 4.89009 1.14537V2.43109H2.31865C1.75054 2.43177 1.20588 2.65776 0.804165 3.05948C0.402446 3.46119 0.176462 4.00585 0.175781 4.57396V15.7169C0.176462 16.285 0.402446 16.8297 0.804165 17.2314C1.20588 17.6331 1.75054 17.8591 2.31865 17.8598H15.1759C15.7441 17.8593 16.2888 17.6334 16.6906 17.2316C17.0924 16.8299 17.3183 16.2851 17.3187 15.7169V4.57396C17.3183 4.00578 17.0924 3.46099 16.6906 3.05923C16.2888 2.65746 15.7441 2.43155 15.1759 2.43109ZM16.4616 15.7169C16.4616 16.0579 16.3261 16.3849 16.085 16.626C15.8439 16.8671 15.5169 17.0026 15.1759 17.0026H2.31865C1.97766 17.0026 1.65063 16.8671 1.40951 16.626C1.16839 16.3849 1.03293 16.0579 1.03293 15.7169V8.43113H16.4616V15.7169ZM16.4616 7.57398H1.03293V4.57396C1.03293 3.86424 1.60722 3.28824 2.31865 3.28824H4.89009V4.57396C4.89009 4.68763 4.93525 4.79664 5.01562 4.87701C5.09599 4.95738 5.205 5.00254 5.31867 5.00254C5.43233 5.00254 5.54134 4.95738 5.62172 4.87701C5.70209 4.79664 5.74724 4.68763 5.74724 4.57396V3.28824H11.7473V4.57396C11.7473 4.68763 11.7924 4.79664 11.8728 4.87701C11.9532 4.95738 12.0622 5.00254 12.1759 5.00254C12.2895 5.00254 12.3985 4.95738 12.4789 4.87701C12.5593 4.79664 12.6044 4.68763 12.6044 4.57396V3.28824H15.1759C15.5169 3.28824 15.8439 3.4237 16.085 3.66482C16.3261 3.90594 16.4616 4.23297 16.4616 4.57396V7.57398Z" fill="#3F3F3F"/>
</svg>
