<svg width="57" height="47" viewBox="0 0 57 47" fill="none" xmlns="http://www.w3.org/2000/svg">
<path d="M54.9366 39.3638H51.7233V15.4464C51.7233 13.0697 49.7932 11.1383 47.4181 11.1383H36.342C35.7935 11.1383 35.3485 11.5836 35.3485 12.1325C35.3485 12.6813 35.7935 13.1266 36.342 13.1266H47.4181C48.6962 13.1266 49.7363 14.1674 49.7363 15.4464V39.3638H8.94877V28.2336C8.94877 27.6847 8.50377 27.2394 7.95528 27.2394C7.40679 27.2394 6.96179 27.6847 6.96179 28.2336V39.3638H3.09127C2.54278 39.3638 2.09778 39.8091 2.09778 40.358C2.09778 43.3768 4.55045 45.8311 7.56715 45.8311H50.4582C53.4749 45.8311 55.9276 43.3768 55.9276 40.358C55.9276 39.8091 55.4826 39.3638 54.9341 39.3638H54.9366ZM50.4581 43.8453H7.56709C5.99148 43.8453 4.65649 42.7942 4.22955 41.3547H53.7982C53.3687 42.7942 52.0337 43.8453 50.4607 43.8453H50.4581ZM29.7193 25.9136C32.0944 25.9136 34.0245 23.9822 34.0245 21.6055V5.34133C34.0245 2.96463 32.0944 1.0332 29.7193 1.0332H4.68795C2.3129 1.0332 0.382812 2.96463 0.382812 5.34133V21.6055C0.382812 23.9822 2.3129 25.9136 4.68795 25.9136H29.7193ZM2.3698 5.34133C2.3698 4.06234 3.40985 3.02157 4.68795 3.02157H29.7167C30.9948 3.02157 32.0348 4.06234 32.0348 5.34133V6.08179H2.3698V5.34133ZM2.3698 21.6055V8.07003H32.0348V21.6055C32.0348 22.8845 30.9948 23.9252 29.7167 23.9252H4.68795C3.40985 23.9252 2.3698 22.8845 2.3698 21.6055ZM8.39023 15.3556C8.39023 15.0113 8.56616 14.6928 8.8611 14.5116L12.3487 12.3446C12.8144 12.0546 13.4275 12.197 13.7173 12.6657C14.0071 13.1317 13.8622 13.7453 13.3965 14.0352L11.2672 15.3582L13.3965 16.6812C13.8622 16.9712 14.0071 17.5848 13.7173 18.0508C13.5284 18.3537 13.205 18.5194 12.8739 18.5194C12.6954 18.5194 12.5143 18.4702 12.3513 18.3693L8.86372 16.1997C8.57136 16.0185 8.39284 15.6974 8.39284 15.3557L8.39023 15.3556ZM21.0109 16.6786L23.1401 15.3556L21.0109 14.0326C20.5452 13.7426 20.4003 13.129 20.6901 12.663C20.9798 12.197 21.593 12.0546 22.0587 12.342L25.5463 14.509C25.8386 14.6902 26.0171 15.0112 26.0171 15.353C26.0171 15.6973 25.8412 16.0157 25.5463 16.197L22.0587 18.3665C21.8957 18.4675 21.7146 18.5167 21.5361 18.5167C21.2049 18.5167 20.8789 18.351 20.6927 18.0481C20.4029 17.5821 20.5478 16.9685 21.0135 16.6785L21.0109 16.6786ZM14.0227 19.4851L18.2191 10.3923C18.4494 9.89262 19.0419 9.67775 19.5386 9.90557C20.0354 10.136 20.2527 10.7263 20.025 11.226L15.8286 20.3188C15.6604 20.6812 15.3008 20.8961 14.9256 20.8961C14.7859 20.8961 14.6436 20.8676 14.5091 20.8029C14.0123 20.5725 13.795 19.9822 14.0227 19.4825L14.0227 19.4851ZM43.7162 18.2709C43.7162 18.8197 43.2712 19.265 42.7227 19.265H40.8391C40.2907 19.265 39.8457 18.8197 39.8457 18.2709C39.8457 17.722 40.2907 17.2767 40.8391 17.2767H42.7227C43.2712 17.2767 43.7162 17.722 43.7162 18.2709ZM19.5154 28.8443C20.0638 28.8443 20.5089 29.2896 20.5089 29.8385C20.5089 30.3874 20.0638 30.8327 19.5154 30.8327H17.5284C16.9799 30.8327 16.5349 30.3874 16.5349 29.8385C16.5349 29.2896 16.9799 28.8443 17.5284 28.8443H19.5154ZM14.2167 28.8443C14.7652 28.8443 15.2102 29.2896 15.2102 29.8385C15.2102 30.3874 14.7652 30.8327 14.2167 30.8327H12.8921C12.3436 30.8327 11.8986 30.3874 11.8986 29.8385C11.8986 29.2896 12.3436 28.8443 12.8921 28.8443H14.2167ZM33.7554 29.8385C33.7554 29.2896 34.2004 28.8443 34.7489 28.8443H36.0736C36.6221 28.8443 37.0671 29.2896 37.0671 29.8385C37.0671 30.3874 36.6221 30.8327 36.0736 30.8327H34.7489C34.2004 30.8327 33.7554 30.3874 33.7554 29.8385ZM26.801 30.8327H22.827C22.2785 30.8327 21.8335 30.3874 21.8335 29.8385C21.8335 29.2896 22.2785 28.8443 22.827 28.8443H26.801C27.3495 28.8443 27.7945 29.2896 27.7945 29.8385C27.7945 30.3874 27.3495 30.8327 26.801 30.8327ZM41.3722 28.8443C41.9207 28.8443 42.3657 29.2896 42.3657 29.8385C42.3657 30.3874 41.9207 30.8327 41.3722 30.8327H39.3852C38.8367 30.8327 38.3917 30.3874 38.3917 29.8385C38.3917 29.2896 38.8367 28.8443 39.3852 28.8443H41.3722ZM32.5473 34.6282C33.0958 34.6282 33.5408 35.0735 33.5408 35.6224C33.5408 36.1713 33.0958 36.6166 32.5473 36.6166H30.5603C30.0119 36.6166 29.5669 36.1713 29.5669 35.6224C29.5669 35.0735 30.0119 34.6282 30.5603 34.6282H32.5473ZM36.7878 34.6282C37.3362 34.6282 37.7812 35.0735 37.7812 35.6224C37.7812 36.1713 37.3362 36.6166 36.7878 36.6166H35.859C35.3105 36.6166 34.8655 36.1713 34.8655 35.6224C34.8655 35.0735 35.3105 34.6282 35.859 34.6282H36.7878ZM24.9308 35.6224C24.9308 35.0735 25.3758 34.6282 25.9242 34.6282H27.2489C27.7974 34.6282 28.2424 35.0735 28.2424 35.6224C28.2424 36.1713 27.7974 36.6166 27.2489 36.6166H25.9242C25.3758 36.6166 24.9308 36.1713 24.9308 35.6224ZM42.6401 25.0489C42.0916 25.0489 41.6466 24.6036 41.6466 24.0548C41.6466 23.5059 42.0916 23.0606 42.6401 23.0606H44.6271C45.1756 23.0606 45.6206 23.5059 45.6206 24.0548C45.6206 24.6036 45.1756 25.0489 44.6271 25.0489H42.6401ZM39.3284 23.0606C39.8769 23.0606 40.3219 23.5059 40.3219 24.0548C40.3219 24.6036 39.8769 25.0489 39.3284 25.0489H38.0038C37.4553 25.0489 37.0103 24.6036 37.0103 24.0548C37.0103 23.5059 37.4553 23.0606 38.0038 23.0606H39.3284Z" fill="url(#paint0_linear_1438_21749)" stroke="url(#paint1_linear_1438_21749)" stroke-width="0.5"/>
<defs>
<linearGradient id="paint0_linear_1438_21749" x1="28.1552" y1="1.0332" x2="28.1552" y2="45.8311" gradientUnits="userSpaceOnUse">
<stop stop-color="#63388B"/>
<stop offset="1" stop-color="#327EB2"/>
</linearGradient>
<linearGradient id="paint1_linear_1438_21749" x1="28.1552" y1="1.0332" x2="28.1552" y2="45.8311" gradientUnits="userSpaceOnUse">
<stop stop-color="#63388B"/>
<stop offset="1" stop-color="#327EB2"/>
</linearGradient>
</defs>
</svg>
