<svg width="59" height="48" viewBox="0 0 59 48" fill="none" xmlns="http://www.w3.org/2000/svg">
<path d="M55.614 0.931885H3.15072C1.93956 0.931885 0.957031 1.91509 0.957031 3.1271V44.6012C0.957031 45.8132 1.93956 46.7964 3.15072 46.7964H55.6078C56.8189 46.7964 57.8015 45.8132 57.8015 44.6012V3.1271C57.8076 1.91509 56.8251 0.931885 55.614 0.931885ZM3.15072 2.31703H55.6078C56.0527 2.31703 56.4173 2.68187 56.4173 3.1271V8.48219H2.34122V3.1271C2.34122 2.68187 2.70581 2.31703 3.15072 2.31703ZM55.614 45.4175H3.15072C2.70581 45.4175 2.34122 45.0526 2.34122 44.6074V9.87352H56.4173V44.6012C56.4235 45.0526 56.0589 45.4175 55.614 45.4175ZM6.48761 7.41241C7.59372 7.41241 8.49592 6.50959 8.49592 5.4027C8.49592 4.29582 7.59372 3.393 6.48761 3.393C5.38149 3.393 4.4793 4.29582 4.4793 5.4027C4.47312 6.51577 5.37531 7.41241 6.48761 7.41241ZM6.48761 4.77815C6.83365 4.77815 7.11173 5.05642 7.11173 5.4027C7.11173 5.74899 6.83365 6.02726 6.48761 6.02726C6.14156 6.02726 5.86349 5.74899 5.86349 5.4027C5.86349 5.05642 6.14156 4.77815 6.48761 4.77815ZM11.8575 7.41241C12.9636 7.41241 13.8658 6.50959 13.8658 5.4027C13.8658 4.29582 12.9636 3.393 11.8575 3.393C10.7514 3.393 9.84921 4.29582 9.84921 5.4027C9.84921 6.51577 10.7514 7.41241 11.8575 7.41241ZM11.8575 4.77815C12.2036 4.77815 12.4816 5.05642 12.4816 5.4027C12.4816 5.74899 12.2036 6.02726 11.8575 6.02726C11.5115 6.02726 11.2334 5.74899 11.2334 5.4027C11.2334 5.05642 11.5177 4.77815 11.8575 4.77815ZM17.2336 7.41241C18.3397 7.41241 19.2419 6.50959 19.2419 5.4027C19.2419 4.29582 18.3397 3.393 17.2336 3.393C16.1275 3.393 15.2253 4.29582 15.2253 5.4027C15.2191 6.51577 16.1213 7.41241 17.2336 7.41241ZM17.2336 4.77815C17.5797 4.77815 17.8577 5.05642 17.8577 5.4027C17.8577 5.74899 17.5797 6.02726 17.2336 6.02726C16.8876 6.02726 16.6095 5.74899 16.6095 5.4027C16.6095 5.05642 16.8876 4.77815 17.2336 4.77815ZM38.6885 5.4027C38.6885 5.01931 38.9975 4.71013 39.3806 4.71013H53.5933C53.9764 4.71013 54.2854 5.01931 54.2854 5.4027C54.2854 5.78609 53.9764 6.09528 53.5933 6.09528H39.3806C38.9975 6.09528 38.6885 5.78609 38.6885 5.4027ZM9.05824 19.8231C8.78635 19.551 8.78635 19.112 9.05824 18.8399L12.1541 15.7419C12.426 15.4698 12.8648 15.4698 13.1367 15.7419C13.4086 16.0139 13.4086 16.453 13.1367 16.7251L10.5289 19.3346L13.1367 21.9441C13.4086 22.2162 13.4086 22.6552 13.1367 22.9273C13.0007 23.0634 12.8215 23.1314 12.6485 23.1314C12.4693 23.1314 12.2963 23.0634 12.1603 22.9273L9.05824 19.8231ZM19.9217 21.9379L22.5294 19.3284L19.9217 16.7189C19.6498 16.4468 19.6498 16.0078 19.9217 15.7357C20.1936 15.4636 20.6323 15.4636 20.9042 15.7357L24.0001 18.8337C24.272 19.1058 24.272 19.5448 24.0001 19.8169L20.9042 22.915C20.7682 23.051 20.589 23.119 20.416 23.119C20.2368 23.119 20.0638 23.051 19.9278 22.915C19.6498 22.6491 19.6498 22.21 19.9217 21.9379ZM14.7186 23.4097L16.9988 14.8885C17.0977 14.5175 17.4808 14.3011 17.8454 14.4C18.2161 14.4989 18.4324 14.8823 18.3335 15.2472L16.0533 23.7683C15.973 24.0775 15.6888 24.2816 15.386 24.2816C15.3242 24.2816 15.2686 24.2754 15.2068 24.2568C14.836 24.1641 14.6197 23.7807 14.7186 23.4097ZM33.2816 29.9211C33.6647 29.9211 33.9736 30.2303 33.9736 30.6137C33.9736 30.9971 33.6647 31.3062 33.2816 31.3062H16.3809C15.9977 31.3062 15.6888 30.9971 15.6888 30.6137C15.6888 30.2303 15.9977 29.9211 16.3809 29.9211H33.2816ZM7.6308 30.6137C7.6308 30.2303 7.93977 29.9211 8.32289 29.9211H12.1047C12.4878 29.9211 12.7968 30.2303 12.7968 30.6137C12.7968 30.9971 12.4878 31.3062 12.1047 31.3062H8.32289C7.93977 31.3062 7.6308 30.9971 7.6308 30.6137ZM7.6308 35.4184C7.6308 35.035 7.93977 34.7258 8.32289 34.7258H24.3585C24.7416 34.7258 25.0506 35.035 25.0506 35.4184C25.0506 35.8018 24.7416 36.111 24.3585 36.111H8.32289C7.93977 36.111 7.6308 35.8018 7.6308 35.4184ZM46.11 35.4184C46.11 35.8018 45.801 36.111 45.4179 36.111H28.6346C28.2515 36.111 27.9425 35.8018 27.9425 35.4184C27.9425 35.035 28.2515 34.7258 28.6346 34.7258H45.4179C45.801 34.7197 46.11 35.035 46.11 35.4184ZM35.2157 40.217C35.2157 40.6004 34.9067 40.9095 34.5236 40.9095H18.5189C18.1358 40.9095 17.8268 40.6004 17.8268 40.217C17.8268 39.8336 18.1358 39.5244 18.5189 39.5244H34.5236C34.9067 39.5244 35.2157 39.8336 35.2157 40.217ZM46.11 40.217C46.11 40.6004 45.801 40.9095 45.4179 40.9095H38.8059C38.4228 40.9095 38.1139 40.6004 38.1139 40.217C38.1139 39.8336 38.4228 39.5244 38.8059 39.5244H45.4179C45.801 39.5244 46.11 39.8336 46.11 40.217ZM14.941 40.217C14.941 40.6004 14.6321 40.9095 14.249 40.9095H8.32907C7.94595 40.9095 7.63698 40.6004 7.63698 40.217C7.63698 39.8336 7.94595 39.5244 8.32907 39.5244H14.249C14.6259 39.5244 14.941 39.8336 14.941 40.217ZM51.1339 16.2056C51.1339 16.589 50.8249 16.8982 50.4418 16.8982H43.941C43.5579 16.8982 43.2489 16.589 43.2489 16.2056C43.2489 15.8222 43.5579 15.5131 43.941 15.5131H50.4418C50.8249 15.5131 51.1339 15.8222 51.1339 16.2056ZM28.2577 16.2056C28.2577 15.8222 28.5667 15.5131 28.9498 15.5131H39.6649C40.048 15.5131 40.357 15.8222 40.357 16.2056C40.357 16.589 40.048 16.8982 39.6649 16.8982H28.9498C28.5667 16.8982 28.2577 16.589 28.2577 16.2056ZM51.1339 21.0042C51.1339 21.3876 50.8249 21.6968 50.4418 21.6968H38.1633C37.7802 21.6968 37.4712 21.3876 37.4712 21.0042C37.4712 20.6208 37.7802 20.3116 38.1633 20.3116H50.4418C50.8249 20.3116 51.1339 20.627 51.1339 21.0042ZM28.2577 21.0042C28.2577 20.6208 28.5667 20.3116 28.9498 20.3116H33.8871C34.2703 20.3116 34.5792 20.6208 34.5792 21.0042C34.5792 21.3876 34.2703 21.6968 33.8871 21.6968H28.9498C28.5667 21.703 28.2577 21.3876 28.2577 21.0042ZM51.1339 25.8089C51.1339 26.1923 50.8249 26.5015 50.4418 26.5015H47.4077C47.0246 26.5015 46.7156 26.1923 46.7156 25.8089C46.7156 25.4255 47.0246 25.1164 47.4077 25.1164H50.4418C50.8249 25.1164 51.1339 25.4255 51.1339 25.8089ZM28.2577 25.8089C28.2577 25.4255 28.5667 25.1164 28.9498 25.1164H43.1315C43.5147 25.1164 43.8236 25.4255 43.8236 25.8089C43.8236 26.1923 43.5147 26.5015 43.1315 26.5015H28.9498C28.5667 26.5015 28.2577 26.1923 28.2577 25.8089Z" fill="url(#paint0_linear_1438_21725)" stroke="url(#paint1_linear_1438_21725)" stroke-width="0.5"/>
<defs>
<linearGradient id="paint0_linear_1438_21725" x1="29.3793" y1="0.931885" x2="29.3793" y2="46.7964" gradientUnits="userSpaceOnUse">
<stop stop-color="#63388B"/>
<stop offset="1" stop-color="#327EB2"/>
</linearGradient>
<linearGradient id="paint1_linear_1438_21725" x1="29.3793" y1="0.931885" x2="29.3793" y2="46.7964" gradientUnits="userSpaceOnUse">
<stop stop-color="#63388B"/>
<stop offset="1" stop-color="#327EB2"/>
</linearGradient>
</defs>
</svg>
