<svg width="57" height="48" viewBox="0 0 57 48" fill="none" xmlns="http://www.w3.org/2000/svg">
<path d="M55.4297 0.931885H1.52183C1.29122 0.931885 1.07007 1.02355 0.907009 1.18673C0.74395 1.3499 0.652344 1.57121 0.652344 1.80197L0.652344 46.1763C0.652344 46.4071 0.74395 46.6284 0.907009 46.7916C1.07007 46.9548 1.29122 47.0464 1.52183 47.0464H55.4297C55.6603 47.0464 55.8815 46.9548 56.0445 46.7916C56.2076 46.6284 56.2992 46.4071 56.2992 46.1763V1.80197C56.2992 1.57121 56.2076 1.3499 56.0445 1.18673C55.8815 1.02355 55.6603 0.931885 55.4297 0.931885ZM54.5602 45.3062H2.39131V9.63274H54.5602V45.3062ZM54.5602 7.89257H2.39131V2.67206H54.5602V7.89257Z" fill="url(#paint0_linear_1438_21712)"/>
<path d="M50.2093 6.15277H51.9483C52.1789 6.15277 52.4 6.0611 52.5631 5.89793C52.7262 5.73475 52.8178 5.51344 52.8178 5.28268C52.8178 5.05192 52.7262 4.83061 52.5631 4.66744C52.4 4.50427 52.1789 4.4126 51.9483 4.4126H50.2093C49.9787 4.4126 49.7576 4.50427 49.5945 4.66744C49.4314 4.83061 49.3398 5.05192 49.3398 5.28268C49.3398 5.51344 49.4314 5.73475 49.5945 5.89793C49.7576 6.0611 49.9787 6.15277 50.2093 6.15277Z" fill="url(#paint1_linear_1438_21712)"/>
<path d="M44.9984 6.15277H46.7374C46.968 6.15277 47.1891 6.0611 47.3522 5.89793C47.5152 5.73475 47.6068 5.51344 47.6068 5.28268C47.6068 5.05192 47.5152 4.83061 47.3522 4.66744C47.1891 4.50427 46.968 4.4126 46.7374 4.4126H44.9984C44.7678 4.4126 44.5466 4.50427 44.3836 4.66744C44.2205 4.83061 44.1289 5.05192 44.1289 5.28268C44.1289 5.51344 44.2205 5.73475 44.3836 5.89793C44.5466 6.0611 44.7678 6.15277 44.9984 6.15277Z" fill="url(#paint2_linear_1438_21712)"/>
<path d="M10.4341 32.6593C10.6704 33.3526 10.9932 34.0133 11.3949 34.6257C11.0268 35.0777 10.8477 35.6547 10.8952 36.2358C10.9426 36.817 11.2129 37.3572 11.6495 37.7435C12.086 38.1297 12.6549 38.3319 13.2371 38.3079C13.8193 38.2838 14.3696 38.0353 14.7728 37.6144C15.4322 37.9478 16.1322 38.1935 16.8552 38.3453C16.8928 38.9181 17.147 39.4551 17.5661 39.847C17.9853 40.239 18.5379 40.4565 19.1115 40.4552H19.2463C19.5422 40.4375 19.8317 40.3615 20.0982 40.2315C20.3647 40.1016 20.603 39.9202 20.7993 39.6979C20.9956 39.4756 21.1461 39.2167 21.2421 38.9361C21.3382 38.6554 21.378 38.3586 21.3591 38.0625C22.051 37.8307 22.71 37.5105 23.3198 37.1098C23.7703 37.4744 24.3439 37.6512 24.9213 37.6035C25.4988 37.5558 26.0356 37.2872 26.4202 36.8536C26.8049 36.4199 27.0077 35.8547 26.9865 35.2752C26.9653 34.6958 26.7217 34.1469 26.3065 33.7425C26.6285 33.0862 26.8666 32.3919 27.0151 31.6761C27.6141 31.6397 28.1741 31.3668 28.572 30.9172C28.9699 30.4677 29.173 29.8784 29.1367 29.279C29.1003 28.6796 28.8276 28.1192 28.3783 27.721C27.9291 27.3229 27.3402 27.1196 26.7412 27.156C26.5083 26.4613 26.1853 25.8002 25.7804 25.1896C26.1771 24.7402 26.3791 24.1515 26.342 23.5531C26.3049 22.9546 26.0317 22.3955 25.5826 21.9985C25.1335 21.6016 24.5453 21.3995 23.9473 21.4366C23.3492 21.4738 22.7905 21.7471 22.3938 22.1965C21.7387 21.8716 21.0447 21.6318 20.3288 21.483C20.3102 21.1871 20.2336 20.8977 20.1033 20.6314C19.973 20.3651 19.7915 20.1271 19.5693 19.931C19.3471 19.7348 19.0884 19.5844 18.8081 19.4883C18.5278 19.3922 18.2313 19.3523 17.9355 19.3709C17.6398 19.3895 17.3506 19.4661 17.0845 19.5965C16.8184 19.7269 16.5806 19.9085 16.3846 20.1309C16.1886 20.3533 16.0383 20.6121 15.9422 20.8926C15.8462 21.1732 15.8063 21.4699 15.8249 21.7658C15.1323 22.0009 14.472 22.3224 13.8599 22.7229C13.6383 22.5266 13.3804 22.376 13.1007 22.2795C12.821 22.183 12.525 22.1426 12.2297 22.1606C11.9344 22.1786 11.6455 22.2546 11.3796 22.3843C11.1136 22.514 10.8758 22.6948 10.6797 22.9165C10.4836 23.1382 10.3331 23.3963 10.2366 23.6762C10.1402 23.9561 10.0999 24.2522 10.1178 24.5477C10.1358 24.8433 10.2117 25.1323 10.3413 25.3985C10.471 25.6646 10.6517 25.9026 10.8732 26.0988C10.5488 26.7541 10.3106 27.4487 10.1646 28.1653C9.57279 28.209 9.02204 28.4841 8.63157 28.9313C8.24111 29.3784 8.04237 29.9614 8.07838 30.5541C8.1144 31.1468 8.38228 31.7014 8.82401 32.0979C9.26573 32.4943 9.84575 32.7007 10.4384 32.6723L10.4341 32.6593ZM10.2689 29.888L10.9688 29.8445C11.1718 29.8317 11.3639 29.7481 11.5116 29.6082C11.6594 29.4683 11.7534 29.281 11.7774 29.0789C11.8888 28.1101 12.2076 27.1767 12.7121 26.3424C12.8181 26.1677 12.8592 25.9611 12.8282 25.7591C12.7972 25.557 12.6961 25.3724 12.5426 25.2374L12.0252 24.7806C11.9495 24.7133 11.8953 24.625 11.8697 24.527C11.844 24.4289 11.8479 24.3254 11.8809 24.2295C11.9139 24.1337 11.9746 24.0497 12.0552 23.9883C12.1358 23.9269 12.2328 23.8908 12.3339 23.8845C12.4009 23.8791 12.4682 23.8875 12.5317 23.9092C12.5953 23.9309 12.6537 23.9654 12.7034 24.0106L13.2295 24.4761C13.3821 24.6107 13.5771 24.6874 13.7804 24.693C13.9838 24.6985 14.1826 24.6326 14.3424 24.5066C15.1122 23.903 16.0013 23.47 16.9509 23.2362C17.1468 23.188 17.3199 23.0731 17.4405 22.9112C17.561 22.7493 17.6215 22.5504 17.6117 22.3488L17.5682 21.6483C17.5686 21.517 17.6189 21.3907 17.7089 21.2951C17.7989 21.1995 17.9219 21.1417 18.0529 21.1334C18.1839 21.1251 18.3131 21.1669 18.4144 21.2504C18.5157 21.3339 18.5816 21.4528 18.5985 21.5831L18.642 22.2922C18.651 22.4991 18.7334 22.6959 18.8745 22.8475C19.0155 22.999 19.2059 23.0952 19.4115 23.1188C20.3787 23.2338 21.3099 23.5557 22.1417 24.0628C22.3194 24.1721 22.5305 24.2137 22.7364 24.1802C22.9424 24.1467 23.1293 24.0401 23.2633 23.8801L23.698 23.3494C23.7423 23.2984 23.7962 23.2568 23.8566 23.227C23.9171 23.1971 23.9829 23.1795 24.0502 23.1753C24.1181 23.1707 24.1862 23.1799 24.2505 23.2023C24.3147 23.2248 24.3738 23.26 24.4241 23.3058C24.4747 23.3506 24.5161 23.4049 24.5457 23.4657C24.5753 23.5265 24.5927 23.5926 24.5967 23.6601C24.6007 23.7276 24.5914 23.7952 24.5692 23.8591C24.5471 23.923 24.5125 23.9819 24.4675 24.0324L24.0024 24.5588C23.8674 24.7123 23.7908 24.9086 23.786 25.1131C23.7813 25.3175 23.8486 25.5171 23.9763 25.6768C24.5853 26.4434 25.0187 27.3345 25.2457 28.2871C25.2942 28.4847 25.4103 28.6591 25.5739 28.7799C25.7375 28.9007 25.9383 28.9603 26.1413 28.9484L26.8499 28.9049C26.9179 28.9013 26.9859 28.9113 27.05 28.9341C27.1141 28.9569 27.1731 28.9922 27.2236 29.0378C27.274 29.0835 27.315 29.1387 27.3441 29.2002C27.3733 29.2617 27.39 29.3284 27.3933 29.3964C27.3975 29.4639 27.3882 29.5315 27.3662 29.5953C27.3441 29.6592 27.3097 29.7181 27.2649 29.7686C27.2201 29.8191 27.1657 29.8603 27.1049 29.8898C27.0442 29.9192 26.9782 29.9364 26.9108 29.9403L26.2108 29.9838C26.0071 29.9956 25.814 30.0788 25.6653 30.2188C25.5167 30.3588 25.422 30.5466 25.3979 30.7494C25.2821 31.7192 24.962 32.6534 24.4588 33.4902C24.354 33.6646 24.3136 33.8701 24.3446 34.0712C24.3756 34.2723 24.476 34.4562 24.6284 34.5909L25.1588 35.0607C25.2094 35.1055 25.2508 35.1598 25.2804 35.2206C25.31 35.2814 25.3274 35.3474 25.3314 35.4149C25.3354 35.4824 25.3261 35.5501 25.3039 35.614C25.2818 35.6779 25.2472 35.7367 25.2022 35.7872C25.1582 35.8383 25.1043 35.8801 25.0438 35.9099C24.9833 35.9398 24.9174 35.9573 24.8501 35.9612C24.7832 35.9661 24.716 35.9574 24.6525 35.9358C24.589 35.9141 24.5306 35.8798 24.4806 35.8351L23.9415 35.3565C23.792 35.2182 23.5987 35.1367 23.3953 35.1264C23.1919 35.1161 22.9913 35.1775 22.8286 35.3C22.0606 35.9054 21.1707 36.3373 20.2201 36.566C20.0243 36.6191 19.8533 36.7391 19.7366 36.9051C19.6199 37.0712 19.5648 37.2728 19.581 37.4752L19.6245 38.1756C19.6295 38.2432 19.6209 38.3112 19.5992 38.3754C19.5776 38.4397 19.5433 38.4989 19.4984 38.5497C19.4308 38.6265 19.342 38.6814 19.2432 38.7077C19.1444 38.7339 19.0401 38.7303 18.9433 38.6973C18.8466 38.6642 18.7618 38.6032 18.6996 38.522C18.6375 38.4408 18.6008 38.3429 18.5942 38.2409L18.5507 37.5317C18.5379 37.3286 18.4543 37.1364 18.3145 36.9886C18.1747 36.8407 17.9875 36.7466 17.7856 36.7226C16.8157 36.6101 15.8815 36.2896 15.0467 35.7829C14.8725 35.6763 14.6664 35.6345 14.4646 35.6647C14.2627 35.695 14.0778 35.7953 13.9425 35.9482L13.4773 36.4746C13.3839 36.5659 13.2594 36.6185 13.1289 36.6218C12.9984 36.6252 12.8714 36.579 12.7735 36.4926C12.6756 36.4061 12.6139 36.2859 12.6009 36.1558C12.588 36.0258 12.6246 35.8957 12.7034 35.7916L13.1686 35.2652C13.3031 35.1124 13.3798 34.9173 13.3853 34.7138C13.3909 34.5103 13.325 34.3113 13.199 34.1515C12.5957 33.3813 12.163 32.4915 11.9296 31.5412C11.8812 31.3436 11.765 31.1692 11.6014 31.0484C11.4378 30.9276 11.237 30.868 11.034 30.8799L10.3254 30.9234C10.1899 30.9283 10.0578 30.8801 9.9572 30.7891C9.85657 30.6982 9.79529 30.5716 9.78633 30.4362C9.78221 30.3688 9.79144 30.3012 9.81348 30.2373C9.83553 30.1734 9.86995 30.1146 9.91478 30.064C9.95962 30.0135 10.014 29.9723 10.0747 29.9429C10.1355 29.9134 10.2015 29.8963 10.2689 29.8924V29.888Z" fill="url(#paint3_linear_1438_21712)"/>
<path d="M15.8706 34.2342C17.0125 34.8756 18.3567 35.0544 19.6264 34.734C20.8961 34.4135 21.9947 33.6181 22.6961 32.5115C23.3975 31.405 23.6482 30.0714 23.3967 28.7855C23.1451 27.4995 22.4105 26.3589 21.344 25.5986C20.2021 24.9572 18.8579 24.7784 17.5882 25.0988C16.3185 25.4193 15.2199 26.2147 14.5185 27.3213C13.8172 28.4278 13.5664 29.7614 13.818 31.0474C14.0695 32.3333 14.8041 33.4739 15.8706 34.2342ZM16.4793 27.2996C17.0853 26.8049 17.8448 26.5372 18.6269 26.5427C19.2626 26.5395 19.8858 26.7192 20.4224 27.0604C21.0265 27.4419 21.4943 28.0053 21.7584 28.6696C22.0224 29.3339 22.0693 30.0648 21.8921 30.7574C21.7149 31.45 21.3228 32.0685 20.7722 32.5241C20.2216 32.9797 19.5409 33.2488 18.8278 33.2929C18.1148 33.337 17.4061 33.1536 16.8037 32.7693C16.2013 32.385 15.7362 31.8194 15.4752 31.1539C15.2142 30.4884 15.1708 29.7572 15.3512 29.0654C15.5316 28.3737 15.9266 27.757 16.4793 27.304V27.2996Z" fill="url(#paint4_linear_1438_21712)"/>
<path d="M30.0382 27.5034H30.1121C30.3169 28.2044 30.609 28.8767 30.9816 29.5046C30.5869 29.942 30.3788 30.5164 30.4016 31.1053C30.4244 31.6942 30.6764 32.2508 31.1037 32.6562C31.531 33.0617 32.0999 33.2839 32.6887 33.2755C33.2775 33.267 33.8397 33.0284 34.2552 32.6108C34.8996 32.9592 35.5864 33.2224 36.2985 33.3939C36.3199 33.979 36.5676 34.533 36.9894 34.9388C37.4112 35.3446 37.974 35.5706 38.5591 35.5691H38.6156C38.9118 35.5618 39.2036 35.4961 39.4743 35.3757C39.745 35.2554 39.9893 35.0827 40.1932 34.8677C40.3972 34.6527 40.5567 34.3996 40.6628 34.1228C40.7688 33.846 40.8192 33.551 40.8111 33.2547C41.5094 33.0515 42.1786 32.7591 42.8022 32.3846C43.015 32.5906 43.2671 32.7515 43.5435 32.8576C43.8199 32.9638 44.1149 33.013 44.4107 33.0024C44.8564 32.9911 45.2886 32.8477 45.6528 32.5903C46.0169 32.333 46.2965 31.9733 46.4562 31.5568C46.6159 31.1403 46.6485 30.6858 46.5498 30.2507C46.4511 29.8157 46.2256 29.4198 45.9019 29.1131C46.2474 28.4686 46.5103 27.783 46.6844 27.0727C47.2828 27.0583 47.851 26.8066 48.264 26.373C48.6769 25.9393 48.9008 25.3593 48.8864 24.7605C48.872 24.1616 48.6204 23.5931 48.1871 23.1798C47.7538 22.7666 47.1742 22.5426 46.5757 22.557C46.3674 21.8538 46.0678 21.181 45.6845 20.5558C46.0943 20.1219 46.3156 19.5432 46.3001 18.9465C46.2846 18.3497 46.0336 17.7833 45.6019 17.3713C45.3898 17.169 45.1393 17.0113 44.8653 16.9075C44.5913 16.8036 44.2992 16.7557 44.0064 16.7666C43.7104 16.7722 43.4185 16.8366 43.1476 16.9561C42.8767 17.0756 42.6322 17.2478 42.4283 17.4626C41.7849 17.1145 41.0997 16.8499 40.3894 16.6752C40.3738 16.0752 40.1207 15.506 39.6858 15.0928C39.2508 14.6795 38.6696 14.4561 38.07 14.4717C37.4705 14.4873 36.9017 14.7406 36.4887 15.1758C36.0758 15.6111 35.8525 16.1927 35.8681 16.7927C35.1691 16.9979 34.4987 17.2902 33.8726 17.6627C33.4379 17.2503 32.8573 17.0275 32.2585 17.0434C31.6596 17.0593 31.0916 17.3126 30.6794 17.7476C30.2672 18.1826 30.0446 18.7636 30.0605 19.3628C30.0764 19.9621 30.3295 20.5305 30.7642 20.943C30.4179 21.5866 30.1564 22.2725 29.986 22.9833C29.3876 22.9908 28.8167 23.2359 28.3989 23.6646C27.981 24.0934 27.7505 24.6706 27.758 25.2695C27.7655 25.8683 28.0104 26.4396 28.4388 26.8577C28.8673 27.2759 29.4441 27.5066 30.0426 27.4991L30.0382 27.5034ZM29.6687 24.8932C29.7151 24.8436 29.7709 24.8038 29.8328 24.7762C29.8948 24.7485 29.9617 24.7336 30.0295 24.7322H30.7294C30.933 24.7252 31.1276 24.6468 31.2794 24.5109C31.4311 24.3749 31.5304 24.19 31.5598 23.9883C31.7053 23.0241 32.0567 22.1027 32.5901 21.2867C32.7019 21.1158 32.7501 20.9111 32.7263 20.7083C32.7025 20.5055 32.6081 20.3175 32.4597 20.1773L31.9554 19.69C31.8663 19.5945 31.817 19.4686 31.8175 19.3379C31.818 19.2072 31.8683 19.0816 31.9581 18.9868C32.0479 18.8919 32.1705 18.8349 32.3008 18.8273C32.4312 18.8198 32.5595 18.8623 32.6597 18.9461L33.1683 19.429C33.3163 19.5693 33.5088 19.6531 33.7122 19.6659C33.9156 19.6786 34.117 19.6194 34.2813 19.4986C35.0741 18.926 35.9796 18.5286 36.9375 18.3327C37.1321 18.2868 37.3048 18.1752 37.4268 18.0167C37.5487 17.8582 37.6124 17.6626 37.607 17.4626V16.7622C37.6036 16.6249 37.6548 16.4919 37.7493 16.3923C37.8439 16.2928 37.9741 16.2349 38.1113 16.2315C38.2486 16.228 38.3815 16.2792 38.481 16.3739C38.5804 16.4685 38.6383 16.5988 38.6417 16.7361V17.4452C38.6474 17.6484 38.724 17.8432 38.8582 17.9958C38.9924 18.1483 39.1758 18.2491 39.3764 18.2805C40.339 18.4299 41.2582 18.7845 42.0718 19.3203C42.2421 19.4327 42.4464 19.4816 42.649 19.4586C42.8517 19.4355 43.0398 19.3419 43.1804 19.1941L43.6934 18.6633C43.7393 18.6143 43.7944 18.5748 43.8556 18.5472C43.9168 18.5196 43.9828 18.5043 44.0499 18.5024C44.1849 18.5006 44.3155 18.5504 44.4151 18.6416C44.5088 18.7375 44.5613 18.8663 44.5613 19.0005C44.5613 19.1347 44.5088 19.2635 44.4151 19.3594L43.9543 19.8858C43.8129 20.0341 43.7285 20.2276 43.7158 20.4322C43.703 20.6367 43.7629 20.8392 43.8847 21.0039C44.4646 21.7863 44.8667 22.6861 45.0629 23.6402C45.1044 23.8389 45.214 24.0168 45.3728 24.1431C45.5316 24.2695 45.7295 24.3363 45.9323 24.332H46.6453C46.7799 24.3284 46.9105 24.378 47.0089 24.4699C47.1074 24.5619 47.1657 24.6889 47.1713 24.8236C47.1731 24.891 47.1615 24.9581 47.1373 25.021C47.1131 25.084 47.0768 25.1415 47.0304 25.1904C46.9839 25.2393 46.9283 25.2786 46.8667 25.3059C46.8051 25.3333 46.7388 25.3483 46.6714 25.35H45.9715C45.7677 25.3546 45.572 25.4308 45.4186 25.5652C45.2653 25.6996 45.1639 25.8836 45.1324 26.0852C44.9825 27.0502 44.6299 27.9725 44.0977 28.7911C43.9859 28.962 43.9377 29.1667 43.9616 29.3695C43.9854 29.5723 44.0798 29.7603 44.2281 29.9005L44.7411 30.3877C44.7889 30.4354 44.8267 30.4921 44.8525 30.5544C44.8784 30.6167 44.8917 30.6835 44.8917 30.751C44.8917 30.8185 44.8784 30.8853 44.8525 30.9476C44.8267 31.01 44.7889 31.0666 44.7411 31.1143C44.6935 31.162 44.6369 31.1999 44.5746 31.2257C44.5123 31.2516 44.4456 31.2649 44.3781 31.2649C44.3107 31.2649 44.2439 31.2516 44.1816 31.2257C44.1194 31.1999 44.0628 31.162 44.0151 31.1143L43.4934 30.6183C43.3419 30.4854 43.149 30.4092 42.9475 30.4029C42.7461 30.3965 42.5488 30.4604 42.3892 30.5835C41.6038 31.1588 40.7037 31.558 39.7503 31.7538C39.5518 31.7953 39.374 31.9051 39.2478 32.064C39.1215 32.2229 39.0548 32.4209 39.0591 32.6239V33.3243C39.0617 33.3921 39.0507 33.4597 39.0268 33.5232C39.0029 33.5867 38.9666 33.6448 38.92 33.6941C38.8723 33.7443 38.815 33.7844 38.7515 33.812C38.688 33.8397 38.6197 33.8543 38.5504 33.855C38.4185 33.8551 38.2917 33.8039 38.1968 33.7122C38.1019 33.6204 38.0463 33.4954 38.0418 33.3634V32.6543C38.0356 32.4492 37.9571 32.2529 37.8203 32.1C37.6835 31.9472 37.4971 31.8477 37.294 31.819C36.3288 31.6724 35.4064 31.3193 34.5899 30.7836C34.4197 30.6712 34.2154 30.6223 34.0128 30.6453C33.8101 30.6684 33.622 30.762 33.4814 30.9098L32.9988 31.4188C32.9018 31.5037 32.7767 31.5494 32.6478 31.5469C32.519 31.5443 32.3957 31.4937 32.3022 31.405C32.2086 31.3163 32.1516 31.1959 32.1421 31.0673C32.1326 30.9387 32.1715 30.8111 32.251 30.7097L32.7336 30.2007C32.8782 30.055 32.9666 29.8629 32.9833 29.6583C33 29.4537 32.9439 29.2498 32.8249 29.0826C32.2497 28.2942 31.8482 27.3927 31.6467 26.4376C31.6052 26.2389 31.4956 26.061 31.3368 25.9347C31.178 25.8083 30.9801 25.7415 30.7773 25.7458H30.0686C29.9337 25.7447 29.8045 25.6909 29.7087 25.5958C29.6128 25.5007 29.5579 25.3719 29.5556 25.2368C29.5477 25.1114 29.5864 24.9874 29.6643 24.8888L29.6687 24.8932Z" fill="url(#paint5_linear_1438_21712)"/>
<path d="M35.4516 29.2696C36.5706 29.9978 37.9298 30.2596 39.239 29.9991C40.5482 29.7386 41.7038 28.9764 42.4594 27.8752C43.2149 26.774 43.5106 25.421 43.2832 24.1047C43.0558 22.7885 42.3235 21.6132 41.2423 20.8298C40.1233 20.1016 38.7642 19.8398 37.455 20.1003C36.1458 20.3608 34.9901 21.1229 34.2345 22.2241C33.479 23.3253 33.1834 24.6784 33.4107 25.9946C33.6381 27.3109 34.3705 28.4861 35.4516 29.2696ZM36.3211 22.3611C37.0336 21.8177 37.9327 21.5797 38.8206 21.6997C39.7084 21.8196 40.5123 22.2876 41.0554 23.0006C41.5985 23.7137 41.8362 24.6134 41.7164 25.5019C41.5965 26.3903 41.1289 27.1948 40.4163 27.7382C39.7038 28.2846 38.8035 28.5253 37.9136 28.4074C37.0237 28.2895 36.2171 27.8226 35.6711 27.1096C35.1252 26.3965 34.8847 25.4957 35.0025 24.6052C35.1203 23.7146 35.5868 22.9074 36.2993 22.3611H36.3211Z" fill="url(#paint6_linear_1438_21712)"/>
<defs>
<linearGradient id="paint0_linear_1438_21712" x1="28.4758" y1="0.931885" x2="28.4758" y2="47.0464" gradientUnits="userSpaceOnUse">
<stop stop-color="#63388B"/>
<stop offset="1" stop-color="#327EB2"/>
</linearGradient>
<linearGradient id="paint1_linear_1438_21712" x1="51.0788" y1="4.4126" x2="51.0788" y2="6.15277" gradientUnits="userSpaceOnUse">
<stop stop-color="#63388B"/>
<stop offset="1" stop-color="#327EB2"/>
</linearGradient>
<linearGradient id="paint2_linear_1438_21712" x1="45.8679" y1="4.4126" x2="45.8679" y2="6.15277" gradientUnits="userSpaceOnUse">
<stop stop-color="#63388B"/>
<stop offset="1" stop-color="#327EB2"/>
</linearGradient>
<linearGradient id="paint3_linear_1438_21712" x1="18.6075" y1="19.3665" x2="18.6075" y2="40.4552" gradientUnits="userSpaceOnUse">
<stop stop-color="#63388B"/>
<stop offset="1" stop-color="#327EB2"/>
</linearGradient>
<linearGradient id="paint4_linear_1438_21712" x1="18.6073" y1="24.9434" x2="18.6073" y2="34.8895" gradientUnits="userSpaceOnUse">
<stop stop-color="#63388B"/>
<stop offset="1" stop-color="#327EB2"/>
</linearGradient>
<linearGradient id="paint5_linear_1438_21712" x1="38.3224" y1="14.4709" x2="38.3224" y2="35.5691" gradientUnits="userSpaceOnUse">
<stop stop-color="#63388B"/>
<stop offset="1" stop-color="#327EB2"/>
</linearGradient>
<linearGradient id="paint6_linear_1438_21712" x1="38.347" y1="20.002" x2="38.347" y2="30.0974" gradientUnits="userSpaceOnUse">
<stop stop-color="#63388B"/>
<stop offset="1" stop-color="#327EB2"/>
</linearGradient>
</defs>
</svg>
