<svg width="50" height="48" viewBox="0 0 50 48" fill="none" xmlns="http://www.w3.org/2000/svg">
<path fill-rule="evenodd" clip-rule="evenodd" d="M12.4838 28.2702C12.6227 28.6803 12.4044 29.1244 11.9993 29.2625C11.5943 29.4025 11.1516 29.1824 11.0146 28.7743C10.9094 28.4622 10.8141 28.1441 10.7287 27.8241L8.34426 26.9018C8.04447 26.7838 7.84792 26.4937 7.84792 26.1696V21.6323C7.84792 21.3082 8.04447 21.0182 8.34426 20.9021L10.7287 19.9778C11.0702 18.6935 11.5765 17.4631 12.2356 16.3149L11.1972 13.9622C11.0682 13.6661 11.1317 13.32 11.358 13.09L14.5426 9.88308C14.7689 9.65301 15.1124 9.589 15.4062 9.72103L17.741 10.7673C18.8826 10.1011 20.1016 9.593 21.3742 9.25094L22.2954 6.84428C22.4106 6.5442 22.6985 6.34414 23.0201 6.34414H27.5229C27.8446 6.34414 28.1325 6.5442 28.2476 6.84628L29.1649 9.25094C29.5103 9.34497 29.8538 9.451 30.1933 9.56903C30.5983 9.70907 30.8127 10.1552 30.6718 10.5633C30.5328 10.9714 30.0901 11.1875 29.685 11.0454C29.2661 10.8994 28.8373 10.7754 28.4045 10.6713C28.1563 10.6113 27.9518 10.4313 27.8605 10.1912L26.9889 7.90858H23.5523L22.6767 10.1912C22.5854 10.4313 22.3809 10.6113 22.1327 10.6713C20.7429 11.0034 19.4187 11.5556 18.2016 12.3118C17.9833 12.4478 17.7132 12.4658 17.479 12.3618L15.2633 11.3695L12.8332 13.8182L13.8179 16.0508C13.9212 16.2849 13.9033 16.5589 13.7703 16.779C13.0198 18.0053 12.4699 19.3417 12.1363 20.7461C12.0768 20.9962 11.8981 21.2002 11.6599 21.2922L9.40051 22.1685V25.6334L11.6599 26.5096C11.8981 26.6017 12.0768 26.8077 12.1363 27.0578C12.2336 27.4679 12.3508 27.8721 12.4838 28.2702ZM38.0038 19.3779C37.8609 18.9698 38.0733 18.5236 38.4783 18.3796C38.8813 18.2376 39.3261 18.4516 39.467 18.8577C39.5961 19.2278 39.7112 19.5999 39.8105 19.9801L42.1929 20.9023C42.4927 21.0183 42.6913 21.3084 42.6913 21.6325V26.1698C42.6913 26.4939 42.4927 26.784 42.1929 26.902L39.8105 27.8243C39.471 29.1066 38.9627 30.3349 38.3056 31.4833L39.34 33.8379C39.469 34.134 39.4055 34.4801 39.1792 34.7082L35.9947 37.917C35.7683 38.1451 35.4248 38.2091 35.133 38.0791L32.7962 37.0368C31.6586 37.701 30.4356 38.2111 29.163 38.5532L28.2477 40.9538C28.1326 41.2539 27.8447 41.454 27.523 41.454H23.0202C22.6986 41.454 22.4107 41.2539 22.2955 40.9538L21.3783 38.5532C21.1003 38.4771 20.8264 38.3951 20.5543 38.3051C20.1473 38.1711 19.927 37.7269 20.06 37.3168C20.195 36.9087 20.6338 36.6846 21.0408 36.8207C21.4001 36.9387 21.7654 37.0447 22.1367 37.1328C22.3868 37.1928 22.5893 37.3708 22.6826 37.6129L23.5522 39.8895H26.9909L27.8604 37.6129C27.9518 37.3708 28.1563 37.1928 28.4044 37.1328C29.7942 36.8007 31.1224 36.2485 32.3355 35.4923C32.5519 35.3563 32.8239 35.3383 33.0582 35.4423L35.2739 36.4306L37.706 33.9819L36.7232 31.7473C36.62 31.5133 36.6378 31.2412 36.7709 31.0231C37.5174 29.7948 38.0713 28.4604 38.4008 27.06C38.4604 26.8079 38.6391 26.6039 38.8773 26.5099L41.1387 25.6336V22.1687L38.8773 21.2925C38.6391 21.2004 38.4604 20.9944 38.4008 20.7443C38.2916 20.2802 38.1587 19.824 38.0038 19.3779ZM24.0964 32.5215C23.6735 32.4635 23.3757 32.0694 23.4333 31.6412C23.4909 31.2151 23.882 30.915 24.3069 30.973C24.6206 31.015 24.9422 31.037 25.2698 31.037C29.1809 31.037 32.3538 27.8421 32.3538 23.8988C32.3538 23.6027 32.336 23.3107 32.3002 23.0246C32.2486 22.5965 32.5524 22.2063 32.9772 22.1544C33.4021 22.1024 33.7893 22.4064 33.8409 22.8365C33.8845 23.1846 33.9044 23.5387 33.9044 23.8988C33.9044 28.7041 30.0388 32.6011 25.2701 32.6011C24.8711 32.6011 24.4819 32.5751 24.0968 32.5211L24.0964 32.5215ZM26.5027 15.2905C26.9256 15.3505 27.2214 15.7466 27.1599 16.1747C27.1003 16.6029 26.7072 16.899 26.2823 16.8389C25.9508 16.7909 25.6132 16.7649 25.2698 16.7649C21.3566 16.7649 18.1898 19.9578 18.1898 23.899C18.1898 24.1771 18.2056 24.4512 18.2354 24.7193C18.2831 25.1494 17.9773 25.5355 17.5524 25.5855C17.1276 25.6335 16.7424 25.3255 16.6928 24.8973C16.655 24.5692 16.6372 24.2371 16.6372 23.899C16.6372 19.0937 20.4987 15.2029 25.2694 15.2029C25.6883 15.2029 26.0993 15.2329 26.5023 15.2909L26.5027 15.2905ZM13.9254 30.3285L31.6549 12.4635C30.7496 9.71669 31.3809 6.56564 33.5489 4.38136C35.713 2.20076 38.8221 1.56059 41.5423 2.45484C41.7984 2.54086 41.993 2.75292 42.0545 3.01701C42.118 3.28109 42.0406 3.55917 41.85 3.75322L37.1407 8.49652L37.8634 11.2113L40.5576 11.9395L45.2649 7.19419C45.4575 7.00214 45.7334 6.92412 45.9955 6.98814C46.2576 7.05015 46.468 7.24621 46.5534 7.50427C47.4409 10.245 46.8056 13.378 44.6415 15.5587C42.4735 17.7433 39.3485 18.3835 36.6207 17.4673L18.8912 35.3323C19.7965 38.0831 19.1632 41.2337 16.9932 43.4185C14.8311 45.5971 11.7221 46.2373 9.00189 45.343C8.74578 45.259 8.55121 45.0449 8.48769 44.7808C8.42416 44.5168 8.50357 44.2387 8.69417 44.0466L13.4015 39.3013L12.6808 36.5866L9.98463 35.8604L5.27732 40.6037C5.08672 40.7957 4.81075 40.8757 4.54868 40.8117C4.28661 40.7477 4.07418 40.5517 3.99077 40.2936C3.1033 37.5528 3.73863 34.4198 5.90069 32.2412C8.06871 30.0546 11.1976 29.4183 13.9254 30.3285ZM13.8301 31.9609C11.5548 31.0267 8.84283 31.4868 6.99862 33.3453C5.60488 34.7517 5.00133 36.6502 5.18796 38.4826L9.20435 34.4335C9.4009 34.2355 9.6868 34.1594 9.95484 34.2315L13.5146 35.1937C13.7826 35.2657 13.9911 35.4758 14.0626 35.7459L15.0175 39.3328C15.089 39.6029 15.0116 39.891 14.817 40.0891L10.7986 44.1362C12.6172 44.3242 14.5014 43.716 15.8969 42.3117C17.7414 40.4532 18.202 37.7224 17.2728 35.428C17.1537 35.1359 17.2212 34.8018 17.4416 34.5798L35.874 16.0064C36.0943 15.7844 36.4279 15.7164 36.7178 15.8364C38.993 16.7746 41.6991 16.3105 43.5436 14.452C44.9394 13.0476 45.5429 11.1491 45.3563 9.31678L41.3379 13.3639C41.1414 13.5619 40.8555 13.64 40.5894 13.5659L37.0296 12.6057C36.7616 12.5316 36.5531 12.3216 36.4797 12.0515L35.5247 8.46454C35.4533 8.19647 35.5307 7.90841 35.7272 7.71031L39.7436 3.66122C37.925 3.47317 36.0409 4.08134 34.6474 5.48772C32.8029 7.34623 32.3443 10.077 33.2735 12.3658C33.3926 12.6579 33.3251 12.994 33.1047 13.216L14.6723 31.7894C14.452 32.0114 14.1204 32.0794 13.8306 31.9614L13.8301 31.9609ZM2.68404 26.7335C2.56889 25.8053 2.51131 24.859 2.51131 23.8987C2.51131 11.2432 12.7079 0.966553 25.2695 0.966553C27.1258 0.966553 28.9285 1.19262 30.656 1.61472C31.0729 1.71675 31.329 2.14084 31.2278 2.561C31.1265 2.97912 30.7076 3.23718 30.2906 3.13516C28.6805 2.74106 26.9989 2.53099 25.2696 2.53099C13.566 2.53099 4.06368 12.1055 4.06368 23.8991C4.06368 24.7613 4.11331 25.6136 4.21258 26.4498L4.44487 26.2097C4.74665 25.9016 5.23704 25.8976 5.5428 26.1997C5.84855 26.5018 5.85451 26.9979 5.55273 27.306L4.23843 28.6564C4.00217 28.8985 3.63884 28.9605 3.33709 28.8085L1.65746 27.9662C1.2723 27.7742 1.11743 27.304 1.30803 26.9179C1.49863 26.5298 1.96521 26.3738 2.34838 26.5658L2.68404 26.7335ZM46.2411 20.7261L45.9711 21.0042C45.6713 21.3123 45.1789 21.3163 44.8751 21.0142C44.5674 20.7121 44.5634 20.216 44.8632 19.9078L46.1795 18.5575C46.4158 18.3154 46.7771 18.2534 47.0789 18.4054L48.7605 19.2477C49.1437 19.4417 49.3005 19.9099 49.1099 20.298C48.9193 20.6841 48.4527 20.8401 48.0696 20.6481L47.7777 20.502C47.9425 21.6123 48.0259 22.7446 48.0259 23.8989C48.0259 36.5565 37.8293 46.8311 25.2697 46.8311C23.2188 46.8311 21.2295 46.557 19.3394 46.0429C18.9245 45.9308 18.6803 45.5007 18.7915 45.0846C18.9027 44.6685 19.3295 44.4204 19.7425 44.5325C21.5055 45.0126 23.3578 45.2667 25.2697 45.2667C36.9734 45.2667 46.4737 35.6922 46.4737 23.8986C46.4737 22.8203 46.3939 21.7624 46.2411 20.7261Z" fill="url(#paint0_linear_1438_21743)" stroke="url(#paint1_linear_1438_21743)" stroke-width="0.5"/>
<defs>
<linearGradient id="paint0_linear_1438_21743" x1="25.2088" y1="0.966553" x2="25.2088" y2="46.8311" gradientUnits="userSpaceOnUse">
<stop stop-color="#63388B"/>
<stop offset="1" stop-color="#327EB2"/>
</linearGradient>
<linearGradient id="paint1_linear_1438_21743" x1="25.2088" y1="0.966553" x2="25.2088" y2="46.8311" gradientUnits="userSpaceOnUse">
<stop stop-color="#63388B"/>
<stop offset="1" stop-color="#327EB2"/>
</linearGradient>
</defs>
</svg>
