<svg width="61" height="43" viewBox="0 0 61 43" fill="none" xmlns="http://www.w3.org/2000/svg">
<path d="M50.3905 14.9327C48.8832 9.79026 44.518 6.24901 39.562 6.24901C37.8437 6.24901 36.1555 6.67422 34.6181 7.49144C32.0557 3.03996 27.6001 0.315918 22.7828 0.315918C15.0774 0.315918 8.80103 7.20575 8.76485 15.6901C4.0681 17.7365 0.957031 22.7261 0.957031 28.327C0.957031 35.8214 6.48581 41.914 13.2868 41.914H48.3164C55.1113 41.914 60.6462 35.8214 60.6462 28.327C60.6462 21.6764 56.281 16.0356 50.3905 14.9327ZM15.3487 24.8123C14.6252 24.8123 14.0404 24.1679 14.0404 23.3706C14.0404 22.5733 14.6252 21.9288 15.3487 21.9288C16.0722 21.9288 16.6631 22.5733 16.6631 23.3706C16.6631 24.1612 16.0783 24.8123 15.3487 24.8123ZM46.2484 24.8123C45.5249 24.8123 44.9401 24.1679 44.9401 23.3706C44.9401 22.5733 45.5249 21.9288 46.2484 21.9288C46.9719 21.9288 47.5568 22.5733 47.5568 23.3706C47.5568 24.1612 46.9719 24.8123 46.2484 24.8123ZM48.3164 39.8544H47.1829V26.7125C48.4792 26.274 49.4258 24.9386 49.4258 23.364C49.4258 21.4305 48.0029 19.8626 46.2484 19.8626C44.4939 19.8626 43.071 21.4305 43.071 23.364C43.071 24.9386 44.0176 26.2674 45.3139 26.7125V39.8544H35.2029V31.0444H38.115C38.6335 31.0444 39.0495 30.586 39.0495 30.0146V18.939C40.3458 18.5005 41.2924 17.1651 41.2924 15.5905C41.2924 13.6571 39.8695 12.0891 38.115 12.0891C36.3605 12.0891 34.9376 13.6571 34.9376 15.5905C34.9376 17.1651 35.8842 18.4939 37.1805 18.939V28.9848H34.2684C33.7499 28.9848 33.3339 29.4432 33.3339 30.0146V39.8544H28.2693V30.0146C28.2693 29.4432 27.8533 28.9848 27.3348 28.9848H24.4227V18.939C25.719 18.5005 26.6656 17.1651 26.6656 15.5905C26.6656 13.6571 25.2427 12.0891 23.4882 12.0891C21.7337 12.0891 20.3108 13.6571 20.3108 15.5905C20.3108 17.1651 21.2574 18.4939 22.5536 18.939V30.0146C22.5536 30.586 22.9697 31.0444 23.4882 31.0444H26.4003V39.8544H16.2833V26.7125C17.5856 26.274 18.5322 24.9386 18.5322 23.364C18.5322 21.4305 17.1032 19.8626 15.3487 19.8626C13.5942 19.8626 12.1714 21.4305 12.1714 23.364C12.1714 24.9386 13.1179 26.2674 14.4142 26.7125V39.8544H13.2807C7.51078 39.8544 2.82006 34.6787 2.82006 28.327C2.82006 23.3573 5.70804 18.959 10.0008 17.3844C10.3927 17.2382 10.652 16.8263 10.6399 16.3745C10.6339 16.1751 10.6279 15.9692 10.6279 15.7699C10.6279 8.38838 16.0783 2.37556 22.7828 2.37556C27.2263 2.37556 31.3141 5.05309 33.4484 9.3584C33.569 9.60423 33.774 9.78362 34.0212 9.8567C34.2624 9.92978 34.5276 9.88992 34.7447 9.75039C36.1977 8.80695 37.8618 8.30865 39.562 8.30865C43.885 8.30865 47.6653 11.5177 48.7626 16.1153C48.8591 16.5273 49.1726 16.8263 49.5524 16.8728C54.8099 17.5637 58.7771 22.4803 58.7771 28.3204C58.7771 34.6853 54.0864 39.8544 48.3164 39.8544ZM38.115 17.0389C37.3915 17.0389 36.8067 16.3944 36.8067 15.5971C36.8067 14.7998 37.3915 14.1554 38.115 14.1554C38.8385 14.1554 39.4234 14.7998 39.4234 15.5971C39.4234 16.3877 38.8385 17.0389 38.115 17.0389ZM23.4882 17.0389C22.7647 17.0389 22.1798 16.3944 22.1798 15.5971C22.1798 14.7998 22.7647 14.1554 23.4882 14.1554C24.2117 14.1554 24.7965 14.7998 24.7965 15.5971C24.7965 16.3877 24.2117 17.0389 23.4882 17.0389Z" fill="url(#paint0_linear_1438_21737)" stroke="url(#paint1_linear_1438_21737)" stroke-width="0.5"/>
<defs>
<linearGradient id="paint0_linear_1438_21737" x1="30.8016" y1="0.315918" x2="30.8016" y2="41.914" gradientUnits="userSpaceOnUse">
<stop stop-color="#63388B"/>
<stop offset="1" stop-color="#327EB2"/>
</linearGradient>
<linearGradient id="paint1_linear_1438_21737" x1="30.8016" y1="0.315918" x2="30.8016" y2="41.914" gradientUnits="userSpaceOnUse">
<stop stop-color="#63388B"/>
<stop offset="1" stop-color="#327EB2"/>
</linearGradient>
</defs>
</svg>
