<svg width="56" height="50" viewBox="0 0 56 50" fill="none" xmlns="http://www.w3.org/2000/svg">
<path d="M51.9454 28.4735C50.5168 28.4735 49.3093 29.4381 48.9361 30.7407H43.9942V26.9015H46.5038C51.2268 26.9015 55.0707 23.0687 55.0707 18.3587C55.0707 18.2603 55.0642 18.1619 55.0642 18.0635C55.0471 17.5973 54.6524 17.2252 54.1848 17.2486C53.7172 17.2658 53.3505 17.6593 53.3676 18.1256C53.3676 18.2026 53.374 18.2839 53.374 18.3609C53.374 22.138 50.294 25.2051 46.5104 25.2051H34.012V20.3093C34.012 19.0346 32.9696 17.993 31.6891 17.993H15.9263C16.0743 15.1954 17.9253 12.7592 20.6322 11.861C20.9947 11.7413 21.2306 11.3948 21.2134 11.0183C21.207 10.9028 21.207 10.7873 21.207 10.6675C21.207 6.2658 24.7976 2.67891 29.2183 2.67891C32.1503 2.67891 34.8398 4.27236 36.2516 6.8411C36.3609 7.04429 36.5476 7.19187 36.7728 7.25176C36.9915 7.31165 37.2339 7.27957 37.4312 7.16407C38.3814 6.60585 39.4732 6.31067 40.5821 6.31067C43.409 6.31067 45.8799 8.20998 46.6007 10.9327C46.6886 11.2728 46.9739 11.5187 47.3192 11.5572C49.8716 11.8588 52.0959 13.6276 52.9754 16.053C53.1341 16.4915 53.6232 16.7204 54.0629 16.5621C54.5026 16.4038 54.7321 15.9161 54.5734 15.4777C53.5417 12.6309 51.0322 10.5177 48.0787 9.96392C46.9912 6.78774 43.9884 4.61897 40.5781 4.61897C39.4478 4.61897 38.3325 4.86067 37.3115 5.32049C35.5205 2.62554 32.4898 0.98291 29.219 0.98291C23.9318 0.98291 19.6165 5.21996 19.511 10.4707C16.4353 11.7412 14.3719 14.6714 14.2282 17.9929H3.03387C1.75553 17.9929 0.710938 19.0323 0.710938 20.3092V31.4249C0.710938 31.8954 1.09058 32.274 1.56247 32.274C2.03435 32.274 2.414 31.8954 2.414 31.4249V20.3092C2.414 19.9692 2.69927 19.6847 3.04029 19.6847H31.6919C32.0372 19.6847 32.3181 19.9649 32.3181 20.3092V37.0586H2.41411V33.7519C2.41411 33.2813 2.03446 32.9028 1.56258 32.9028C1.09069 32.9028 0.711047 33.2878 0.711047 33.7519V41.0391C0.711047 42.3139 1.75344 43.3555 3.03398 43.3555H12.626L12.0448 47.2824H10.4468C9.97494 47.2824 9.59528 47.661 9.59528 48.1316C9.59528 48.6021 9.97493 48.9807 10.4468 48.9807H24.2812C24.753 48.9807 25.1327 48.6021 25.1327 48.1316C25.1327 47.661 24.753 47.2824 24.2812 47.2824H22.6897L22.102 43.3555H31.6897C32.968 43.3555 34.0126 42.3161 34.0126 41.0391V26.9038H38.1629V34.0602C36.8503 34.4323 35.8894 35.6322 35.8894 37.061C35.8894 38.7806 37.29 40.1773 39.0145 40.1773C40.739 40.1773 42.1396 38.7806 42.1396 37.061C42.1396 35.6365 41.1722 34.4323 39.866 34.0602V26.9038H42.294V31.59C42.294 32.0605 42.6737 32.4391 43.1456 32.4391H48.9324C49.3056 33.7481 50.5132 34.7063 51.9417 34.7063C53.6662 34.7063 55.0668 33.3096 55.0668 31.59C55.0711 29.8704 53.6705 28.4737 51.946 28.4737L51.9454 28.4735ZM20.9667 47.2827H13.7621L14.3434 43.3558H20.3768L20.9667 47.2827ZM31.691 41.6638H3.03343C2.6924 41.6638 2.40714 41.3793 2.40714 41.0393V38.755H32.3112V41.0393C32.3112 41.3794 32.0299 41.6638 31.691 41.6638ZM40.4424 37.0589C40.4424 37.8417 39.8054 38.4834 39.0139 38.4834C38.2225 38.4834 37.5854 37.8481 37.5854 37.0589C37.5854 36.276 38.2225 35.6344 39.0139 35.6344C39.8054 35.6365 40.4424 36.276 40.4424 37.0589ZM51.9454 33.0079C51.1603 33.0079 50.5168 32.3727 50.5168 31.5834C50.5168 30.8006 51.1603 30.159 51.9454 30.159C52.7304 30.159 53.3739 30.7942 53.3739 31.5834C53.3674 32.3727 52.7304 33.0079 51.9454 33.0079Z" fill="url(#paint0_linear_1438_21731)" stroke="url(#paint1_linear_1438_21731)" stroke-width="0.5"/>
<defs>
<linearGradient id="paint0_linear_1438_21731" x1="27.8908" y1="0.98291" x2="27.8908" y2="48.9807" gradientUnits="userSpaceOnUse">
<stop stop-color="#63388B"/>
<stop offset="1" stop-color="#327EB2"/>
</linearGradient>
<linearGradient id="paint1_linear_1438_21731" x1="27.8908" y1="0.98291" x2="27.8908" y2="48.9807" gradientUnits="userSpaceOnUse">
<stop stop-color="#63388B"/>
<stop offset="1" stop-color="#327EB2"/>
</linearGradient>
</defs>
</svg>
