<svg width="16" height="15" viewBox="0 0 16 15" fill="none" xmlns="http://www.w3.org/2000/svg">
<path d="M16 7.04142C15.9999 7.30662 15.8945 7.56093 15.707 7.74842L9.707 13.7484C9.5184 13.9306 9.2658 14.0314 9.0036 14.0291C8.7414 14.0268 8.49059 13.9216 8.30518 13.7362C8.11977 13.5508 8.0146 13.3 8.01233 13.0378C8.01005 12.7756 8.11084 12.523 8.293 12.3344L12.586 8.04142L1 8.04142C0.734783 8.04142 0.480429 7.93607 0.292892 7.74853C0.105356 7.56099 0 7.30664 0 7.04142C0 6.77621 0.105356 6.52185 0.292892 6.33432C0.480429 6.14678 0.734783 6.04142 1 6.04142L12.586 6.04142L8.293 1.74842C8.11084 1.55982 8.01005 1.30722 8.01233 1.04502C8.0146 0.782825 8.11977 0.532013 8.30518 0.346604C8.49059 0.161196 8.7414 0.0560272 9.0036 0.0537487C9.2658 0.0514703 9.5184 0.152265 9.707 0.334423L15.707 6.33442C15.8945 6.52192 15.9999 6.77623 16 7.04142Z" fill="white"/>
</svg>
