<svg width="14" height="11" viewBox="0 0 14 11" fill="none" xmlns="http://www.w3.org/2000/svg">
<path d="M8.03955 2.03521C7.96524 1.96598 7.90564 1.88248 7.8643 1.78971C7.82297 1.69693 7.80074 1.59678 7.79895 1.49523C7.79716 1.39369 7.81584 1.29281 7.85387 1.19864C7.89191 1.10447 7.94853 1.01892 8.02035 0.947103C8.09217 0.875285 8.17771 0.818669 8.27189 0.78063C8.36606 0.742592 8.46693 0.723912 8.56848 0.725704C8.67003 0.727495 8.77018 0.749722 8.86295 0.791059C8.95572 0.832396 9.03922 0.891995 9.10846 0.966301L13.1421 4.99994C13.2837 5.14175 13.3633 5.33397 13.3633 5.5344C13.3633 5.73482 13.2837 5.92704 13.1421 6.06885L9.10846 10.1025C9.03922 10.1768 8.95572 10.2364 8.86295 10.2777C8.77018 10.3191 8.67003 10.3413 8.56848 10.3431C8.46693 10.3449 8.36606 10.3262 8.27189 10.2882C8.17771 10.2501 8.09217 10.1935 8.02035 10.1217C7.94853 10.0499 7.89191 9.96432 7.85387 9.87015C7.81584 9.77598 7.79716 9.67511 7.79895 9.57356C7.80074 9.47201 7.82297 9.37186 7.8643 9.27909C7.90564 9.18631 7.96524 9.10282 8.03955 9.03358L10.7824 6.2907L1.01093 6.2907C0.810349 6.2907 0.617978 6.21102 0.476143 6.06918C0.334308 5.92735 0.254626 5.73498 0.254626 5.5344C0.254626 5.33381 0.334308 5.14144 0.476143 4.99961C0.617978 4.85777 0.810349 4.77809 1.01093 4.77809L10.7824 4.77809L8.03955 2.03521Z" fill="#5F3E8E"/>
</svg>
