<svg width="15" height="15" viewBox="0 0 15 15" fill="none" xmlns="http://www.w3.org/2000/svg">
<path d="M14.7194 5.83055H13.375C13.2472 5.37222 13.0639 4.93333 12.8333 4.51945L13.7861 3.56667C13.8944 3.45833 13.8944 3.28333 13.7861 3.17501L11.8222 1.21111C11.7694 1.15833 11.7 1.13055 11.625 1.13055C11.55 1.13055 11.4805 1.16111 11.4278 1.21111L10.475 2.16388C10.0611 1.93055 9.62219 1.75 9.16387 1.62221V0.277776C9.16387 0.124999 9.03887 0 8.88609 0H6.10833C5.95555 0 5.83055 0.124999 5.83055 0.277776V1.62221C5.37222 1.74999 4.93333 1.93332 4.51945 2.16388L3.56667 1.21111C3.46111 1.10555 3.27778 1.10555 3.17501 1.21111L1.21111 3.17501C1.15833 3.22779 1.13055 3.29723 1.13055 3.37223C1.13055 3.44724 1.16111 3.51668 1.21111 3.56946L2.16388 4.52224C1.93055 4.93612 1.75 5.37502 1.62221 5.83334H0.277776C0.124999 5.83334 0 5.95834 0 6.11112V8.88888C0 9.04166 0.124999 9.16666 0.277776 9.16666H1.62221C1.74999 9.62499 1.93332 10.0639 2.16388 10.4778L1.21111 11.4305C1.15833 11.4833 1.13055 11.5528 1.13055 11.6278C1.13055 11.7028 1.16111 11.7722 1.21111 11.825L3.17501 13.7889C3.22779 13.8417 3.29723 13.8694 3.37223 13.8694C3.44724 13.8694 3.51668 13.8389 3.56946 13.7889L4.52224 12.8361C4.93612 13.0694 5.37501 13.25 5.83334 13.3778V14.7222C5.83334 14.875 5.95834 15 6.11112 15H8.88888C9.04166 15 9.16666 14.875 9.16666 14.7222V13.3778C9.62499 13.25 10.0639 13.0667 10.4778 12.8361L11.4305 13.7889C11.4833 13.8417 11.5528 13.8694 11.6278 13.8694C11.7028 13.8694 11.7722 13.8389 11.825 13.7889L13.7889 11.825C13.8972 11.7167 13.8972 11.5417 13.7889 11.4333L12.8361 10.4806C13.0695 10.0667 13.25 9.62778 13.3778 9.16945H14.7222C14.875 9.16945 15 9.04445 15 8.89167V6.11391C15 5.96113 14.875 5.83613 14.7222 5.83613L14.7194 5.83055ZM14.4417 8.60832H13.1639C13.1639 8.60832 13.15 8.61109 13.1417 8.61387C13.1222 8.61387 13.1083 8.61943 13.0889 8.62498C13.0694 8.63054 13.0528 8.63609 13.0361 8.64443C13.0222 8.65276 13.0083 8.66109 12.9972 8.6722C12.9833 8.68332 12.9694 8.69443 12.9555 8.71109C12.9444 8.72498 12.9361 8.73609 12.9278 8.75276C12.9167 8.76943 12.9083 8.78609 12.9028 8.80554C12.9028 8.81387 12.8944 8.81943 12.8944 8.82498C12.7611 9.37499 12.5444 9.89998 12.25 10.3805C12.2444 10.3889 12.2444 10.3944 12.2417 10.4028C12.2333 10.4194 12.2278 10.4361 12.2222 10.4528C12.2167 10.4694 12.2139 10.4889 12.2111 10.5055V10.5555C12.2111 10.575 12.2167 10.5916 12.2222 10.6111C12.2278 10.6278 12.2333 10.6416 12.2417 10.6555C12.25 10.6722 12.2611 10.6889 12.275 10.7055C12.2806 10.7111 12.2806 10.7166 12.2861 10.7222L13.1889 11.625L11.6167 13.1972L10.7139 12.2944C10.7139 12.2944 10.7028 12.2861 10.6944 12.2833C10.6806 12.2694 10.6639 12.2611 10.6472 12.25C10.6333 12.2416 10.6167 12.2333 10.6028 12.2305C10.5861 12.225 10.5667 12.2222 10.55 12.2194C10.5333 12.2194 10.5167 12.2166 10.5 12.2194C10.4833 12.2194 10.4667 12.225 10.45 12.2305C10.4306 12.2361 10.4139 12.2416 10.3972 12.25C10.3889 12.2528 10.3833 12.2528 10.375 12.2583C9.89166 12.5527 9.36945 12.7694 8.81945 12.9028C8.81111 12.9028 8.80556 12.9111 8.8 12.9111C8.78056 12.9166 8.76389 12.925 8.75 12.9361C8.73611 12.9444 8.71945 12.9528 8.70834 12.9639C8.69445 12.975 8.68334 12.9889 8.67223 13.0028C8.66111 13.0166 8.65 13.0305 8.64445 13.0444C8.63611 13.0611 8.63056 13.075 8.625 13.0944C8.61945 13.1111 8.61667 13.1305 8.61389 13.15C8.61389 13.1583 8.60834 13.1639 8.60834 13.1722V14.45H6.38612V13.1722C6.38612 13.1722 6.38335 13.1583 6.38057 13.15C6.38057 13.1305 6.37501 13.1139 6.36946 13.0944C6.3639 13.0778 6.35835 13.0611 6.35279 13.0472C6.34446 13.0305 6.33335 13.0166 6.32223 13.0028C6.31112 12.9889 6.30001 12.975 6.28612 12.9639C6.27224 12.9528 6.25835 12.9444 6.24446 12.9361L6.19446 12.9111C6.18612 12.9111 6.18057 12.9028 6.17501 12.9028C5.62501 12.7694 5.10001 12.5527 4.61946 12.2583C4.61391 12.2528 4.60558 12.2528 4.59724 12.25C4.58058 12.2416 4.56391 12.2361 4.54446 12.2305C4.5278 12.225 4.51113 12.2222 4.49169 12.2194H4.44169C4.42224 12.2194 4.40558 12.225 4.38891 12.2305C4.37224 12.2361 4.35835 12.2444 4.34446 12.25C4.3278 12.2583 4.31113 12.2694 4.29446 12.2833C4.28891 12.2889 4.28057 12.2889 4.2778 12.2944L3.37503 13.1972L1.8028 11.625L2.70557 10.7222C2.70557 10.7222 2.71391 10.7111 2.71668 10.7055C2.73057 10.6916 2.73891 10.675 2.75002 10.6555C2.75835 10.6416 2.76668 10.625 2.76946 10.6111C2.77502 10.5944 2.7778 10.575 2.78057 10.5583C2.78057 10.5416 2.78335 10.525 2.78057 10.5083C2.78057 10.4916 2.77502 10.475 2.76946 10.4555C2.76391 10.4389 2.75835 10.4222 2.75002 10.4028C2.74724 10.3944 2.74724 10.3889 2.74168 10.3805C2.44725 9.89719 2.23058 9.37499 2.09724 8.82498C2.09724 8.81665 2.08891 8.8111 2.08891 8.80554C2.08335 8.78609 2.07502 8.77221 2.06391 8.75554C2.05558 8.74165 2.04724 8.72498 2.03613 8.71387C2.02502 8.69998 2.01113 8.68887 1.99724 8.67776C1.98335 8.66665 1.96947 8.65832 1.95558 8.64998C1.93891 8.64165 1.92224 8.6361 1.90558 8.63054C1.88891 8.62498 1.87224 8.62221 1.8528 8.61943C1.84447 8.61943 1.83891 8.61387 1.83058 8.61387H0.552804V6.39166H1.83058C1.86669 6.39166 1.90002 6.38333 1.93058 6.37222C1.94169 6.36944 1.95002 6.3611 1.96113 6.35555C1.98058 6.34444 2.00002 6.33333 2.01669 6.31944C2.02502 6.31111 2.03335 6.30277 2.04169 6.29166C2.05558 6.275 2.06669 6.25833 2.07502 6.24166C2.08057 6.23055 2.08613 6.21666 2.09169 6.20555C2.09446 6.19722 2.10002 6.19166 2.1028 6.18055C2.23613 5.63055 2.4528 5.10555 2.74724 4.625C2.75279 4.61945 2.75279 4.61112 2.75557 4.60278C2.76391 4.58612 2.76946 4.56945 2.77502 4.55C2.78057 4.53334 2.78335 4.51667 2.78613 4.49723V4.44723C2.78613 4.42778 2.78057 4.41112 2.77502 4.39445C2.76946 4.37778 2.76113 4.36389 2.75557 4.35C2.74724 4.33334 2.73613 4.31667 2.72224 4.3C2.71668 4.29445 2.71668 4.28611 2.71113 4.28334L1.80836 3.38057L3.38058 1.80834L4.28335 2.71111C4.30835 2.73611 4.33613 2.75278 4.36668 2.76667C4.37224 2.76945 4.38057 2.77222 4.38613 2.775C4.41669 2.78611 4.44724 2.79445 4.48057 2.79445C4.51391 2.79445 4.54168 2.78611 4.57224 2.775C4.58057 2.77222 4.58891 2.76945 4.59446 2.76389C4.60279 2.75833 4.61391 2.75833 4.62224 2.75278C5.10558 2.45834 5.62778 2.24167 6.17779 2.10834C6.18612 2.10834 6.19168 2.1 6.19723 2.1C6.21668 2.09445 6.23056 2.08612 6.24723 2.07501C6.26112 2.06667 6.27779 2.05834 6.2889 2.04723C6.30279 2.03612 6.3139 2.02223 6.32501 2.00834C6.33612 1.99445 6.34723 1.98056 6.35557 1.96389C6.3639 1.94723 6.36945 1.93334 6.37223 1.91667C6.37779 1.89723 6.38057 1.88056 6.38334 1.86112C6.38334 1.85279 6.3889 1.84723 6.3889 1.8389V0.561124H8.61111V1.8389C8.61111 1.8389 8.61389 1.85279 8.61667 1.86112C8.61667 1.88056 8.62222 1.89723 8.62778 1.91667C8.63333 1.93334 8.63889 1.95001 8.64722 1.96667C8.65556 1.98334 8.66667 1.99445 8.675 2.00834C8.68611 2.02223 8.69722 2.03612 8.71111 2.04723C8.725 2.05834 8.73889 2.06667 8.75278 2.07501L8.80278 2.10001C8.81111 2.10001 8.81667 2.10834 8.82222 2.10834C9.37223 2.24167 9.89722 2.45835 10.3778 2.75278C10.3861 2.75834 10.3972 2.76111 10.4055 2.76389C10.4139 2.76667 10.4222 2.77223 10.4305 2.775C10.4611 2.78611 10.4917 2.79445 10.5222 2.79445C10.5528 2.79445 10.5861 2.78612 10.6167 2.775C10.6222 2.775 10.6305 2.76945 10.6361 2.76667C10.6667 2.75278 10.6944 2.73611 10.7167 2.71111L11.6194 1.80835L13.1916 3.38057L12.2889 4.28334C12.2889 4.28334 12.2805 4.29445 12.2778 4.30001C12.2639 4.31667 12.2555 4.33334 12.2444 4.35C12.2361 4.36389 12.2305 4.37778 12.225 4.39445C12.2194 4.41389 12.2167 4.43056 12.2139 4.45C12.2139 4.46667 12.2111 4.48334 12.2139 4.5C12.2139 4.51945 12.2194 4.53611 12.225 4.55278C12.2305 4.56945 12.2361 4.58612 12.2444 4.60278C12.2472 4.61112 12.2472 4.61667 12.2528 4.625C12.5472 5.10834 12.7639 5.63055 12.8972 6.18055C12.8972 6.18889 12.9055 6.19444 12.9083 6.20277C12.9139 6.21666 12.9194 6.22777 12.925 6.24166C12.9333 6.26111 12.9444 6.27777 12.9583 6.29166C12.9667 6.30277 12.975 6.31111 12.9833 6.31944C13 6.33333 13.0167 6.34444 13.0361 6.35555C13.0472 6.36111 13.0555 6.36666 13.0667 6.37222C13.0972 6.38333 13.1305 6.39166 13.1667 6.39166H14.4444V8.61387L14.4417 8.60832Z" fill="white"/>
<path d="M5.11119 7.47216L6.1973 6.38605C6.30564 6.27772 6.30564 6.10271 6.1973 5.99439C6.08897 5.88607 5.91396 5.88606 5.80564 5.99439L4.5251 7.27494C4.41676 7.38327 4.41676 7.55828 4.5251 7.6666L5.85843 8.99992C5.91398 9.05548 5.98342 9.08048 6.05565 9.08048C6.12788 9.08048 6.19732 9.0527 6.25288 8.99992C6.36121 8.89159 6.36121 8.71658 6.25288 8.60826L5.11678 7.47216H5.11119Z" fill="white"/>
<path d="M8.79726 5.99446C8.68892 6.10279 8.68892 6.2778 8.79726 6.38612L9.88337 7.47223L8.74727 8.60833C8.63893 8.71666 8.63893 8.89167 8.74727 8.99999C8.80282 9.05555 8.87226 9.08054 8.94449 9.08054C9.01672 9.08054 9.08616 9.05277 9.14172 8.99999L10.475 7.66666C10.5834 7.55833 10.5834 7.38332 10.475 7.275L9.1945 5.99446C9.08617 5.88612 8.91116 5.88612 8.80284 5.99446H8.79726Z" fill="white"/>
<path d="M8.06134 5.64995C7.91412 5.60551 7.75857 5.68884 7.71412 5.83607L6.75024 8.99997C6.70579 9.14719 6.78912 9.30274 6.93635 9.34718C6.96413 9.35551 6.99191 9.35829 7.0169 9.35829C7.13635 9.35829 7.24467 9.28052 7.28357 9.16107L8.24746 5.99717C8.2919 5.84995 8.20857 5.6944 8.06414 5.64995H8.06134Z" fill="white"/>
<path d="M7.4973 3.33044C5.20007 3.33044 3.33057 5.19995 3.33057 7.49718C3.33057 9.79441 5.20007 11.6639 7.4973 11.6639C9.79454 11.6639 11.664 9.79441 11.664 7.49718C11.664 5.19995 9.79454 3.33044 7.4973 3.33044ZM7.4973 11.1082C5.50567 11.1082 3.8863 9.48874 3.8863 7.49718C3.8863 5.50562 5.50574 3.88617 7.4973 3.88617C9.48887 3.88617 11.1083 5.50562 11.1083 7.49718C11.1083 9.48874 9.48887 11.1082 7.4973 11.1082Z" fill="white"/>
</svg>
