<svg width="155" height="122" viewBox="0 0 155 122" fill="none" xmlns="http://www.w3.org/2000/svg">
<path d="M138.537 115.859C142.959 112.446 146.005 106.585 145.038 100.885C141.141 105.644 135.777 108.792 129.898 109.771C127.629 110.139 125.069 110.299 123.535 112.106C122.58 113.23 122.229 114.815 122.283 116.325C122.336 117.835 122.752 119.302 123.166 120.748L123.1 121.119C128.552 120.601 134.115 119.272 138.537 115.859Z" fill="#F0F0F0"/>
<path d="M144.925 100.889C143.433 105.415 140.63 109.328 136.917 112.073C136.127 112.679 135.252 113.15 134.324 113.467C133.41 113.746 132.443 113.761 131.522 113.51C130.659 113.294 129.8 112.968 128.903 112.978C128.444 112.99 127.992 113.105 127.578 113.315C127.163 113.525 126.796 113.826 126.499 114.197C125.736 115.1 125.326 116.24 124.961 117.37C124.557 118.624 124.155 119.933 123.251 120.896C123.142 121.012 123.319 121.185 123.428 121.069C125.001 119.394 125.056 116.845 126.262 114.937C126.825 114.046 127.645 113.33 128.687 113.243C129.598 113.168 130.484 113.504 131.356 113.73C132.251 113.988 133.192 114.011 134.097 113.796C135.037 113.53 135.928 113.096 136.73 112.513C138.557 111.231 140.183 109.654 141.546 107.838C143.114 105.775 144.336 103.443 145.161 100.943C145.211 100.789 144.976 100.735 144.925 100.889Z" fill="white"/>
<path d="M138.158 111.264C138.678 111.861 139.382 112.243 140.143 112.342C140.904 112.44 141.674 112.249 142.315 111.803C142.444 111.712 142.317 111.495 142.187 111.586C141.592 112.003 140.874 112.181 140.166 112.087C139.457 111.994 138.803 111.636 138.322 111.077C138.217 110.955 138.054 111.144 138.158 111.264Z" fill="white"/>
<path d="M131.946 113.681C131.996 112.022 132.635 110.445 133.735 109.263C133.844 109.146 133.667 108.973 133.558 109.09C132.415 110.322 131.753 111.965 131.705 113.691C131.701 113.856 131.942 113.844 131.946 113.681Z" fill="white"/>
<path d="M142.804 105.685C142.557 105.499 142.358 105.25 142.225 104.962C142.091 104.674 142.027 104.356 142.039 104.035C142.046 103.871 141.804 103.882 141.798 104.045C141.787 104.4 141.857 104.751 142.004 105.07C142.151 105.389 142.369 105.664 142.64 105.873C142.664 105.895 142.695 105.906 142.727 105.905C142.758 105.904 142.788 105.89 142.81 105.866C142.832 105.841 142.843 105.808 142.842 105.774C142.841 105.74 142.827 105.709 142.804 105.685Z" fill="white"/>
<path d="M128.896 91.2546C128.889 91.3571 128.882 91.4596 128.874 91.5632C128.776 92.9409 128.572 94.3078 128.265 95.6505C128.243 95.7547 128.219 95.8599 128.194 95.9633C127.421 99.1898 126.088 102.236 124.264 104.948C123.538 106.027 122.734 107.045 121.862 107.995C120.656 109.306 119.251 110.626 118.546 112.235C118.47 112.402 118.405 112.573 118.35 112.749L122.678 121.006C122.697 121.019 122.714 121.034 122.733 121.047L122.892 121.385C122.94 121.34 122.989 121.291 123.037 121.246C123.065 121.219 123.092 121.191 123.121 121.165C123.139 121.147 123.157 121.128 123.175 121.113C123.181 121.107 123.187 121.101 123.192 121.096C123.209 121.081 123.224 121.065 123.24 121.05C123.515 120.78 123.789 120.508 124.062 120.233C124.063 120.232 124.063 120.232 124.064 120.229C126.136 118.128 128.061 115.826 129.594 113.288C129.64 113.212 129.688 113.134 129.732 113.054C130.417 111.906 131.012 110.701 131.511 109.45C131.783 108.764 132.021 108.064 132.226 107.353C132.751 105.514 132.999 103.599 132.962 101.678C132.887 97.8496 131.655 94.0888 129.094 91.4539C129.028 91.3865 128.963 91.3209 128.896 91.2546Z" fill="#F0F0F0"/>
<path d="M128.805 91.3303C130.189 95.8948 130.179 100.805 128.775 105.363C128.489 106.349 128.059 107.282 127.498 108.127C126.927 108.932 126.163 109.56 125.285 109.946C124.474 110.323 123.602 110.61 122.891 111.19C122.532 111.492 122.237 111.872 122.025 112.303C121.814 112.735 121.691 113.209 121.665 113.695C121.571 114.902 121.892 116.074 122.243 117.208C122.634 118.467 123.058 119.768 122.884 121.112C122.863 121.275 123.103 121.3 123.124 121.138C123.427 118.799 122.02 116.728 121.898 114.436C121.84 113.367 122.087 112.272 122.87 111.54C123.554 110.899 124.453 110.602 125.278 110.228C126.139 109.864 126.904 109.283 127.504 108.535C128.103 107.723 128.567 106.809 128.877 105.832C129.606 103.645 130.006 101.35 130.062 99.0312C130.139 96.3852 129.789 93.7447 129.025 91.2239C128.977 91.0679 128.758 91.1753 128.805 91.3303Z" fill="white"/>
<path d="M129.31 103.923C130.065 104.069 130.843 103.925 131.508 103.519C132.172 103.113 132.678 102.47 132.935 101.705C132.987 101.551 132.762 101.458 132.71 101.614C132.471 102.326 132 102.925 131.381 103.302C130.762 103.679 130.036 103.809 129.334 103.669C129.181 103.639 129.158 103.893 129.31 103.923Z" fill="white"/>
<path d="M125.722 109.813C124.818 108.457 124.431 106.791 124.636 105.146C124.657 104.983 124.417 104.958 124.396 105.121C124.185 106.833 124.592 108.566 125.535 109.975C125.625 110.109 125.812 109.947 125.722 109.813Z" fill="white"/>
<path d="M129.843 96.5115C129.54 96.5196 129.24 96.448 128.969 96.303C128.699 96.158 128.467 95.9442 128.294 95.6808C128.205 95.5455 128.019 95.7081 128.107 95.8426C128.299 96.1326 128.556 96.3684 128.855 96.5293C129.153 96.6901 129.484 96.7712 129.819 96.7654C129.851 96.7677 129.882 96.7571 129.906 96.7359C129.931 96.7147 129.947 96.6843 129.951 96.6511C129.954 96.6175 129.944 96.5839 129.924 96.5578C129.904 96.5316 129.875 96.515 129.843 96.5115Z" fill="white"/>
<path d="M70.3594 7.31587C70.9159 6.79329 71.4996 6.2893 72.0944 5.81793L72.3128 6.12626C71.7261 6.59142 71.1502 7.08861 70.6012 7.60415L70.3594 7.31587ZM73.9408 4.47736C74.5708 4.05961 75.2252 3.66466 75.8859 3.3034L76.0531 3.64584C75.4013 4.00215 74.7557 4.39174 74.1343 4.80384L73.9408 4.47736ZM77.9161 2.30412C78.6014 2.00256 79.3081 1.7271 80.0167 1.48513L80.1286 1.85195C79.4294 2.09056 78.7321 2.36246 78.056 2.65993L77.9161 2.30412ZM82.2572 1.2249L82.1738 0.849848C82.8986 0.669429 83.6381 0.51872 84.3716 0.401831L84.4258 0.782976C83.7021 0.898248 82.9724 1.04693 82.2572 1.2249ZM86.6213 0.530532L86.597 0.146024C87.3387 0.0934567 88.0917 0.0731144 88.8348 0.0855942L88.8291 0.470999C88.0959 0.458594 87.3531 0.478683 86.6213 0.530532ZM91.034 0.605336L91.07 0.221906C91.81 0.299707 92.5563 0.411447 93.2882 0.554005L93.2223 0.933037C92.5003 0.792336 91.764 0.682097 91.034 0.605336ZM104.684 51.3832C105.266 50.9118 105.837 50.4082 106.38 49.8865L106.625 50.1721C106.074 50.7009 105.495 51.2113 104.906 51.6891L104.684 51.3832ZM95.3773 1.45103L95.4725 1.07909C96.1898 1.28487 96.9083 1.52503 97.6081 1.79288L97.4842 2.1552C96.7938 1.891 96.0849 1.65403 95.3773 1.45103ZM107.954 48.2467C108.455 47.68 108.94 47.084 109.395 46.4754L109.681 46.7146C109.219 47.3315 108.728 47.9355 108.22 48.5098L107.954 48.2467ZM99.5293 3.04024L99.6809 2.68973C100.357 3.01727 101.029 3.37837 101.677 3.76324L101.499 4.09928C100.859 3.71962 100.196 3.36326 99.5293 3.04024ZM110.694 44.5849C111.101 43.9388 111.488 43.2669 111.843 42.588L112.162 42.7748C111.801 43.4628 111.41 44.1437 110.998 44.7986L110.694 44.5849ZM103.38 5.32525L103.583 5.00575C104.2 5.44533 104.806 5.91747 105.387 6.40905L105.159 6.70989C104.587 6.22486 103.988 5.75902 103.38 5.32525ZM112.833 40.4984C113.135 39.7907 113.413 39.0611 113.658 38.3299L114.002 38.459C113.752 39.2002 113.471 39.9396 113.165 40.6569L112.833 40.4984ZM106.825 8.24387L107.075 7.96384C107.616 8.5045 108.141 9.07518 108.637 9.66016L108.366 9.91739C107.877 9.3403 107.358 8.7773 106.825 8.24387ZM114.312 36.0969C114.501 35.3454 114.662 34.5775 114.79 33.8144L115.149 33.8821C115.018 34.6556 114.855 35.434 114.665 36.1956L114.312 36.0969ZM109.77 11.7195L110.061 11.4867C110.509 12.1136 110.939 12.7679 111.336 13.4313L111.029 13.6377C110.637 12.9833 110.213 12.3378 109.77 11.7195ZM115.088 31.4977C115.157 30.7252 115.195 29.9397 115.203 29.1631L115.567 29.1673C115.559 29.9544 115.52 30.7506 115.451 31.5338L115.088 31.4977ZM112.134 15.6612L112.456 15.4825C112.801 16.1785 113.122 16.8993 113.412 17.6246L113.076 17.7746C112.79 17.0589 112.473 16.348 112.134 15.6612ZM115.135 26.8265C115.082 26.054 114.998 25.2727 114.884 24.5043L115.244 24.4449C115.359 25.2236 115.445 26.0156 115.498 26.7986L115.135 26.8265ZM113.851 19.9629L114.197 19.8425C114.429 20.5887 114.635 21.3576 114.809 22.1213L114.455 22.2116C114.283 21.4574 114.079 20.6993 113.851 19.9629Z" fill="#F0F0F0"/>
<path d="M107.598 63.8299L110.087 55.0275L105.363 53.8011L103.624 62.7659L100.651 75.341C100.261 75.555 99.9397 75.885 99.7255 76.2902C99.5112 76.6954 99.4138 77.1582 99.4452 77.6213C99.4766 78.0844 99.6355 78.5277 99.9022 78.8964C100.169 79.2651 100.532 79.5431 100.946 79.6961C101.361 79.8491 101.808 79.8703 102.234 79.7573C102.659 79.6442 103.044 79.4018 103.341 79.0599C103.638 78.718 103.834 78.2916 103.905 77.8333C103.975 77.3751 103.917 76.905 103.738 76.481L103.784 76.4972L107.598 63.8299Z" fill="#9E616A"/>
<path d="M126.632 63.8374L126.435 54.6519L121.584 55.0257L122.541 64.1213L123.375 77.0537C123.067 77.3843 122.857 77.8031 122.771 78.2584C122.685 78.7138 122.727 79.1858 122.892 79.6161C123.057 80.0465 123.337 80.4163 123.698 80.6801C124.059 80.9439 124.486 81.09 124.924 81.1005C125.363 81.1109 125.795 80.9852 126.167 80.7389C126.539 80.4925 126.835 80.1364 127.018 79.7143C127.2 79.2922 127.263 78.8227 127.196 78.3637C127.13 77.9048 126.938 77.4764 126.644 77.1315L126.692 77.1319L126.632 63.8374Z" fill="#9E616A"/>
<path d="M105.745 118.595H102.764L101.832 106.427L105.746 106.427L105.745 118.595Z" fill="#9E616A"/>
<path d="M106.506 121.654L96.8926 121.654V121.525C96.8926 121.005 96.9893 120.491 97.1774 120.01C97.3654 119.53 97.641 119.093 97.9885 118.726C98.3359 118.358 98.7484 118.067 99.2024 117.868C99.6563 117.669 100.143 117.566 100.634 117.566H100.634L106.506 117.567L106.506 121.654Z" fill="#2F2E41"/>
<path d="M121.794 118.595H118.813L117.395 106.427L121.795 106.427L121.794 118.595Z" fill="#9E616A"/>
<path d="M122.552 121.654L112.939 121.654V121.525C112.939 121.005 113.036 120.491 113.224 120.01C113.412 119.53 113.688 119.093 114.035 118.726C114.383 118.358 114.795 118.067 115.249 117.868C115.703 117.669 116.19 117.566 116.681 117.566H116.681L122.553 117.567L122.552 121.654Z" fill="#2F2E41"/>
<path d="M121.265 114.703C121.243 114.703 121.22 114.702 121.198 114.701L118.632 114.55C118.358 114.534 118.097 114.417 117.897 114.218C117.697 114.019 117.569 113.752 117.536 113.463L114.393 83.848C114.386 83.7853 114.36 83.7266 114.32 83.6799C114.279 83.6332 114.227 83.6008 114.168 83.5871C114.11 83.5734 114.049 83.579 113.994 83.6033C113.939 83.6276 113.892 83.6692 113.86 83.7226L109.855 90.4323C109.143 91.6219 108.682 92.9602 108.503 94.3558L106.468 112.144C106.43 112.44 106.291 112.712 106.078 112.909C105.865 113.106 105.592 113.215 105.31 113.216H102.462C102.162 113.216 101.873 113.094 101.656 112.875C101.438 112.656 101.309 112.357 101.294 112.039L100.644 95.921C100.539 93.6749 100.83 91.4277 101.504 89.2947L107.634 72.6944L107.67 72.6838L122.425 68.2225L122.432 113.499C122.423 113.821 122.297 114.127 122.079 114.352C121.861 114.577 121.569 114.703 121.265 114.703Z" fill="#2F2E41"/>
<path d="M119.144 46.5809H111.3L105.506 49.5218L107.474 72.9156L122.201 73.3289L125.219 50.1216L119.144 46.5809Z" fill="#63388B"/>
<path d="M123.135 50.8644L125.219 50.1221L128.825 58.9445L120.943 61.7981L123.135 50.8644Z" fill="#63388B"/>
<path d="M108.461 50.5484L105.505 49.5232L101.014 57.3212L108.461 61.4218V50.5484Z" fill="#63388B"/>
<path d="M115.463 44.5423C117.968 44.5423 119.998 42.3939 119.998 39.7436C119.998 37.0933 117.968 34.9449 115.463 34.9449C112.958 34.9449 110.928 37.0933 110.928 39.7436C110.928 42.3939 112.958 44.5423 115.463 44.5423Z" fill="#9E616A"/>
<path d="M116.833 33.0045C116.062 32.8708 115.295 33.0993 114.528 33.1257C114.151 33.1388 113.772 33.0892 113.396 33.1303C113.02 33.1714 112.632 33.3211 112.41 33.6441C112.254 33.87 112.183 34.1735 111.961 34.325C111.788 34.4432 111.56 34.4397 111.386 34.5558C111.05 34.7794 111.063 35.3185 110.793 35.626C110.665 35.7722 110.476 35.8607 110.385 36.0355C110.335 36.1505 110.308 36.2755 110.308 36.4021L110.177 38.2393C110.159 38.2922 110.154 38.3491 110.162 38.4046C110.17 38.4601 110.192 38.5125 110.225 38.5568C110.257 38.6012 110.3 38.636 110.349 38.6581C110.398 38.6802 110.451 38.6888 110.504 38.6831C110.817 38.7284 111.199 38.7445 111.381 38.4708C111.596 38.147 111.433 37.5458 111.788 37.4207C112.103 37.3099 112.357 37.777 112.688 37.7867C112.938 37.7941 113.116 37.5474 113.278 37.3457C113.44 37.1441 113.707 36.9527 113.921 37.0901C114.099 37.2048 114.113 37.4753 114.247 37.6441C114.45 37.899 114.837 37.8354 115.124 37.6978C115.411 37.5603 115.708 37.3663 116.017 37.4327C116.448 37.5254 116.67 38.0787 117.092 38.2115C117.696 38.4016 118.346 37.6387 118.912 37.9321C119.177 38.0696 119.304 38.3967 119.349 38.7056C119.394 39.0145 119.381 39.3351 119.474 39.6319C119.567 39.9287 119.809 40.2086 120.104 40.1958C120.083 39.9818 120.132 39.7667 120.244 39.5868C120.331 39.4463 120.454 39.3324 120.533 39.1867C120.808 38.6826 120.474 38.0478 120.54 37.4702C120.557 37.3246 120.6 37.1824 120.604 37.0357C120.614 36.6406 120.35 36.3042 120.101 36.0094L119.809 35.663C119.55 35.3369 119.263 35.0361 118.954 34.7641C118.708 34.5858 118.471 34.3941 118.244 34.1898C117.789 33.7252 117.506 33.1212 116.833 33.0045Z" fill="#2F2E41"/>
<path d="M16.4277 77.3822V16.6505C16.428 16.3862 16.5273 16.1329 16.7039 15.9461C16.8805 15.7592 17.1199 15.6541 17.3697 15.6538H99.6968C99.9466 15.6541 100.186 15.7592 100.363 15.9461C100.539 16.1329 100.639 16.3862 100.639 16.6505V77.3822C100.639 77.6464 100.539 77.8998 100.363 78.0866C100.186 78.2735 99.9466 78.3786 99.6968 78.3789H17.3697C17.1199 78.3786 16.8805 78.2735 16.7039 78.0866C16.5273 77.8997 16.428 77.6464 16.4277 77.3822Z" fill="white"/>
<path d="M17.371 79.0118C16.9627 79.0108 16.5714 78.8387 16.2827 78.5334C15.994 78.228 15.8312 77.814 15.8301 77.382V16.6497C15.831 16.2177 15.9936 15.8037 16.2822 15.4982C16.5708 15.1926 16.962 15.0204 17.3703 15.0192H99.6981C100.106 15.0203 100.498 15.1923 100.786 15.4977C101.075 15.8031 101.238 16.217 101.239 16.649V77.3814C101.238 77.8133 101.075 78.2273 100.787 78.5329C100.498 78.8384 100.107 79.0106 99.6988 79.0118H17.371ZM17.0279 77.3807C17.0282 77.477 17.0645 77.5694 17.1289 77.6375C17.1933 77.7057 17.2806 77.7441 17.3716 77.7443H99.6981C99.7891 77.7439 99.8762 77.7054 99.9405 77.6373C100.005 77.5692 100.041 77.4769 100.041 77.3807V16.6497C100.041 16.5534 100.004 16.4612 99.94 16.3932C99.8756 16.3252 99.7884 16.2869 99.6974 16.2867H17.371C17.28 16.2871 17.1929 16.3256 17.1286 16.3937C17.0643 16.4618 17.0281 16.5541 17.0279 16.6504V77.3807Z" fill="#E4E4E4"/>
<path d="M86.1754 29.84C86.3713 29.8434 86.5581 29.9281 86.6956 30.0759C86.833 30.2237 86.91 30.4228 86.91 30.6301C86.91 30.8375 86.833 31.0365 86.6956 31.1843C86.5581 31.3322 86.3713 31.4169 86.1754 31.4203H67.4513C67.3532 31.4221 67.2557 31.4035 67.1644 31.3654C67.0731 31.3273 66.9898 31.2705 66.9192 31.1984C66.8486 31.1262 66.7922 31.04 66.7531 30.9447C66.7141 30.8494 66.6931 30.747 66.6915 30.6431C66.6899 30.5393 66.7076 30.4361 66.7437 30.3396C66.7798 30.243 66.8335 30.1549 66.9018 30.0803C66.9701 30.0057 67.0516 29.9461 67.1417 29.9048C67.2318 29.8636 67.3287 29.8415 67.4268 29.84C67.435 29.8398 67.4432 29.8398 67.4513 29.84H86.1754Z" fill="#E4E4E4"/>
<path d="M86.1746 35.425C86.3706 35.4284 86.5574 35.5132 86.6948 35.661C86.8322 35.8088 86.9093 36.0079 86.9093 36.2152C86.9093 36.4226 86.8322 36.6216 86.6948 36.7694C86.5574 36.9172 86.3706 37.002 86.1746 37.0054H67.4505C67.3525 37.0071 67.2551 36.9883 67.1638 36.9502C67.0726 36.9121 66.9894 36.8553 66.9189 36.7831C66.8484 36.711 66.7921 36.6248 66.753 36.5296C66.714 36.4344 66.6931 36.332 66.6915 36.2282C66.6899 36.1244 66.7076 36.0213 66.7437 35.9248C66.7797 35.8283 66.8334 35.7402 66.9016 35.6656C66.9698 35.5911 67.0512 35.5314 67.1412 35.4901C67.2312 35.4489 67.328 35.4267 67.426 35.425C67.4342 35.4249 67.4424 35.4249 67.4505 35.425H86.1746Z" fill="#E4E4E4"/>
<path d="M86.1754 41.0102C86.3713 41.0136 86.5581 41.0983 86.6956 41.2462C86.833 41.394 86.91 41.593 86.91 41.8004C86.91 42.0077 86.833 42.2067 86.6956 42.3546C86.5581 42.5024 86.3713 42.5871 86.1754 42.5905H67.4513C67.3532 42.5923 67.2557 42.5737 67.1644 42.5356C67.0731 42.4975 66.9898 42.4408 66.9192 42.3686C66.8486 42.2964 66.7922 42.2102 66.7531 42.1149C66.7141 42.0197 66.6931 41.9172 66.6915 41.8133C66.6899 41.7095 66.7076 41.6064 66.7437 41.5098C66.7798 41.4132 66.8335 41.3251 66.9018 41.2505C66.9701 41.1759 67.0516 41.1163 67.1417 41.0751C67.2318 41.0338 67.3287 41.0118 67.4268 41.0102C67.435 41.01 67.4432 41.01 67.4513 41.0102H86.1754Z" fill="#E4E4E4"/>
<path d="M74.2441 49.6453C74.2441 49.1102 74.3941 48.5871 74.6751 48.1422C74.956 47.6972 75.3553 47.3505 75.8225 47.1457C76.2898 46.9409 76.8039 46.8874 77.2999 46.9917C77.7959 47.0961 78.2514 47.3538 78.609 47.7322C78.9666 48.1106 79.2101 48.5926 79.3088 49.1174C79.4075 49.6423 79.3568 50.1862 79.1633 50.6806C78.9698 51.175 78.642 51.5975 78.2216 51.8948C77.8011 52.1921 77.3067 52.3508 76.801 52.3508C76.4653 52.3508 76.1328 52.2808 75.8226 52.1448C75.5123 52.0089 75.2305 51.8096 74.993 51.5583C74.7556 51.3071 74.5673 51.0089 74.4388 50.6806C74.3103 50.3524 74.2441 50.0005 74.2441 49.6453Z" fill="#63388B"/>
<path d="M75.7918 49.3783H76.5484V48.5776C76.5485 48.507 76.5751 48.4393 76.6223 48.3893C76.6695 48.3393 76.7335 48.3112 76.8002 48.3111C76.867 48.311 76.9311 48.3389 76.9784 48.3887C77.0258 48.4385 77.0525 48.5061 77.0529 48.5767V49.3783H77.8095C77.8764 49.3783 77.9406 49.4064 77.9879 49.4564C78.0352 49.5065 78.0618 49.5744 78.0618 49.6452C78.0618 49.7159 78.0352 49.7838 77.9879 49.8339C77.9406 49.8839 77.8764 49.912 77.8095 49.912H77.0529V50.7127C77.0526 50.7833 77.026 50.851 76.9787 50.9008C76.9314 50.9507 76.8674 50.9787 76.8006 50.9787C76.7339 50.9787 76.6699 50.9507 76.6226 50.9008C76.5753 50.851 76.5486 50.7833 76.5484 50.7127V49.912H75.7918C75.7586 49.9121 75.7258 49.9053 75.6952 49.8919C75.6646 49.8786 75.6367 49.859 75.6133 49.8342C75.5898 49.8095 75.5712 49.7801 75.5584 49.7478C75.5457 49.7154 75.5391 49.6807 75.5391 49.6457C75.539 49.6106 75.5455 49.5759 75.5581 49.5435C75.5707 49.5111 75.5892 49.4816 75.6126 49.4568C75.636 49.432 75.6637 49.4123 75.6943 49.3988C75.7249 49.3853 75.7577 49.3783 75.7908 49.3783H75.7918Z" fill="white"/>
<path d="M50.2853 37.0249C50.2868 38.2887 50.0738 39.5425 49.6565 40.7266C49.467 41.269 49.2345 41.7934 48.9616 42.2944C48.0841 43.9146 46.8178 45.2609 45.2909 46.1971C43.7639 47.1334 42.0304 47.6265 40.2656 47.6265C38.5007 47.6265 36.7672 47.1334 35.2403 46.1971C33.7133 45.2609 32.447 43.9146 31.5695 42.2944C31.4807 42.1314 31.3965 41.9661 31.3168 41.7982C30.6357 40.3686 30.2694 38.7944 30.2454 37.1936C30.2214 35.5928 30.5403 34.007 31.1781 32.5553C31.816 31.1035 32.7563 29.8234 33.9285 28.8111C35.1007 27.7988 36.4743 27.0804 37.9463 26.71C39.4183 26.3396 40.9504 26.3267 42.4278 26.6723C43.9052 27.0179 45.2894 27.713 46.4767 28.7055C47.6639 29.698 48.6233 30.962 49.283 32.4029C49.9426 33.8437 50.2853 35.4239 50.2853 37.0249Z" fill="#E4E4E4"/>
<path d="M40.7867 38.8158C41.8446 38.8158 42.7022 37.9083 42.7022 36.7889C42.7022 35.6694 41.8446 34.762 40.7867 34.762C39.7287 34.762 38.8711 35.6694 38.8711 36.7889C38.8711 37.9083 39.7287 38.8158 40.7867 38.8158Z" fill="#63388B"/>
<path d="M31.3164 41.797C32.1604 40.8319 33.2887 39.2996 34.3469 40.4068C34.8779 40.929 35.7091 42.2232 36.5047 41.3771L42.7176 34.8031C42.8346 34.6809 42.9735 34.5847 43.1261 34.5201C43.2787 34.4555 43.4419 34.4239 43.6063 34.427C43.7706 34.4301 43.9327 34.4679 44.083 34.5383C44.2333 34.6086 44.3689 34.71 44.4816 34.8365L49.6561 40.7254C49.4666 41.2677 49.2341 41.7922 48.9612 42.2932H31.5691L31.3164 41.797Z" fill="white"/>
<path d="M48.9682 66.5945C48.9052 66.5944 48.8428 66.6075 48.7846 66.6329C48.7264 66.6583 48.6735 66.6956 48.6289 66.7427C48.5843 66.7898 48.549 66.8457 48.5248 66.9073C48.5007 66.9688 48.4883 67.0348 48.4883 67.1015C48.4883 67.1681 48.5007 67.2341 48.5248 67.2956C48.549 67.3572 48.5843 67.4131 48.6289 67.4602C48.6735 67.5073 48.7264 67.5446 48.7846 67.57C48.8428 67.5955 48.9052 67.6085 48.9682 67.6084H53.9953C54.0583 67.6085 54.1206 67.5955 54.1789 67.57C54.2371 67.5446 54.29 67.5073 54.3346 67.4602C54.3791 67.4131 54.4145 67.3572 54.4386 67.2956C54.4628 67.2341 54.4752 67.1681 54.4752 67.1015C54.4752 67.0348 54.4628 66.9688 54.4386 66.9073C54.4145 66.8457 54.3791 66.7898 54.3346 66.7427C54.29 66.6956 54.2371 66.6583 54.1789 66.6329C54.1206 66.6075 54.0583 66.5944 53.9953 66.5945H48.9682Z" fill="#63388B"/>
<path d="M26.3189 59.151C26.1919 59.151 26.07 59.2044 25.9802 59.2995C25.8903 59.3945 25.8398 59.5235 25.8398 59.6579C25.8398 59.7924 25.8903 59.9213 25.9802 60.0164C26.07 60.1114 26.1919 60.1648 26.3189 60.1648H54.2143C54.3414 60.1648 54.4632 60.1114 54.5531 60.0164C54.6429 59.9213 54.6934 59.7924 54.6934 59.6579C54.6934 59.5235 54.6429 59.3945 54.5531 59.2995C54.4632 59.2044 54.3414 59.151 54.2143 59.151H26.3189Z" fill="#E5E5E5"/>
<path d="M26.3189 62.8728C26.1919 62.8728 26.07 62.9262 25.9802 63.0213C25.8903 63.1163 25.8398 63.2453 25.8398 63.3797C25.8398 63.5142 25.8903 63.6431 25.9802 63.7382C26.07 63.8332 26.1919 63.8866 26.3189 63.8866H54.2143C54.3414 63.8866 54.4632 63.8332 54.5531 63.7382C54.6429 63.6431 54.6934 63.5142 54.6934 63.3797C54.6934 63.2453 54.6429 63.1163 54.5531 63.0213C54.4632 62.9262 54.3414 62.8728 54.2143 62.8728H26.3189Z" fill="#E5E5E5"/>
<path d="M85.5014 66.5946C85.4384 66.5945 85.376 66.6075 85.3178 66.6329C85.2596 66.6584 85.2067 66.6957 85.1621 66.7428C85.1175 66.7898 85.0822 66.8458 85.058 66.9073C85.0339 66.9689 85.0215 67.0349 85.0215 67.1015C85.0215 67.1682 85.0339 67.2341 85.058 67.2957C85.0822 67.3573 85.1175 67.4132 85.1621 67.4603C85.2067 67.5074 85.2596 67.5447 85.3178 67.5701C85.376 67.5955 85.4384 67.6085 85.5014 67.6084H90.5285C90.5915 67.6085 90.6538 67.5955 90.7121 67.5701C90.7703 67.5447 90.8232 67.5074 90.8678 67.4603C90.9123 67.4132 90.9477 67.3573 90.9718 67.2957C90.996 67.2341 91.0084 67.1682 91.0084 67.1015C91.0084 67.0349 90.996 66.9689 90.9718 66.9073C90.9477 66.8458 90.9123 66.7898 90.8678 66.7428C90.8232 66.6957 90.7703 66.6584 90.7121 66.6329C90.6538 66.6075 90.5915 66.5945 90.5285 66.5946H85.5014Z" fill="#63388B"/>
<path d="M62.8541 59.151C62.727 59.151 62.6052 59.2044 62.5153 59.2995C62.4255 59.3945 62.375 59.5235 62.375 59.6579C62.375 59.7924 62.4255 59.9213 62.5153 60.0164C62.6052 60.1114 62.727 60.1648 62.8541 60.1648H90.7495C90.8766 60.1648 90.9984 60.1114 91.0882 60.0164C91.1781 59.9213 91.2286 59.7924 91.2286 59.6579C91.2286 59.5235 91.1781 59.3945 91.0882 59.2995C90.9984 59.2044 90.8766 59.151 90.7495 59.151H62.8541Z" fill="#E5E5E5"/>
<path d="M62.8541 62.8728C62.727 62.8728 62.6052 62.9262 62.5153 63.0213C62.4255 63.1163 62.375 63.2453 62.375 63.3797C62.375 63.5142 62.4255 63.6431 62.5153 63.7382C62.6052 63.8332 62.727 63.8866 62.8541 63.8866H90.7495C90.8766 63.8866 90.9984 63.8332 91.0882 63.7382C91.1781 63.6431 91.2286 63.5142 91.2286 63.3797C91.2286 63.2453 91.1781 63.1163 91.0882 63.0213C90.9984 62.9262 90.8766 62.8728 90.7495 62.8728H62.8541Z" fill="#E5E5E5"/>
<path d="M49.6966 87.3252C49.2801 87.9776 48.833 88.6192 48.3675 89.2321L48.0835 88.9909C48.5427 88.3861 48.9839 87.7531 49.3947 87.1095L49.6966 87.3252ZM46.8936 91.0159C46.3814 91.5861 45.8402 92.1407 45.2851 92.6642L45.0427 92.3765C45.5904 91.8601 46.1243 91.313 46.6295 90.7505L46.8936 91.0159ZM43.553 94.1658C42.9599 94.638 42.34 95.0905 41.7104 95.5111L41.5159 95.1852C42.1372 94.7703 42.7489 94.3237 43.334 93.8578L43.553 94.1658ZM39.6012 96.352L39.7701 96.6934C39.1103 97.0587 38.4293 97.399 37.7463 97.705L37.6043 97.35C38.2783 97.0481 38.9502 96.7124 39.6012 96.352ZM35.5368 98.1715L35.6507 98.5376C34.9445 98.7834 34.2199 99.001 33.4971 99.1842L33.4122 98.8094C34.1254 98.6287 34.8402 98.4141 35.5368 98.1715ZM31.2449 99.2587L31.3 99.6396C30.5649 99.7587 29.8157 99.8466 29.0733 99.9008L29.0482 99.5164C29.7807 99.4629 30.5197 99.3762 31.2449 99.2587ZM6.10382 53.659C5.651 54.2686 5.21637 54.9063 4.81197 55.5546L4.508 55.3423C4.91794 54.6851 5.35848 54.0387 5.81745 53.4209L6.10382 53.659ZM26.8392 99.5809L26.8342 99.9662C26.0911 99.9554 25.3388 99.9115 24.598 99.836L24.6329 99.4525C25.3638 99.5269 26.1061 99.5702 26.8392 99.5809ZM3.67228 57.5567C3.32022 58.2372 2.99045 58.942 2.69223 59.6512L2.35941 59.4945C2.66175 58.7756 2.996 58.0614 3.35283 57.3717L3.67228 57.5567ZM22.4442 99.1326L22.3797 99.512C21.6478 99.3724 20.9125 99.1991 20.1941 98.9967L20.2878 98.6244C20.9966 98.824 21.7221 98.9951 22.4442 99.1326ZM1.87762 61.8238C1.63514 62.5566 1.4185 63.309 1.23369 64.06L0.88122 63.9628C1.06858 63.2017 1.28811 62.4392 1.53379 61.6965L1.87762 61.8238ZM18.1781 97.9311L18.0559 98.2941C17.3557 98.0302 16.657 97.7324 15.9795 97.4087L16.1293 97.0575C16.7979 97.3768 17.4872 97.6707 18.1781 97.9311ZM0.764881 66.3443C0.638727 67.1092 0.541032 67.8889 0.474575 68.6618L0.111802 68.627C0.179228 67.8435 0.278184 67.0533 0.406037 66.2781L0.764881 66.3443ZM14.1556 96.0093L13.979 96.3463C13.3285 95.9647 12.6856 95.5499 12.0681 95.1136L12.2704 94.7931C12.8796 95.2236 13.5139 95.6328 14.1556 96.0093ZM0.365144 70.9967C0.35909 71.7741 0.383633 72.5602 0.438106 73.3333L0.0748237 73.362C0.0196924 72.5783 -0.00515031 71.7815 0.000885382 70.9936L0.365144 70.9967ZM10.4868 93.4167L10.2602 93.7184C9.67842 93.2291 9.10905 92.7082 8.56796 92.17L8.81746 91.8893C9.35116 92.4201 9.91282 92.934 10.4868 93.4167ZM0.693338 75.6556C0.808236 76.4219 0.955084 77.193 1.12985 77.9473L0.77615 78.039C0.598992 77.2745 0.450097 76.4929 0.33362 75.7159L0.693338 75.6556ZM7.27246 90.2195L7.00184 90.4773C6.50485 89.8937 6.02434 89.28 5.57361 88.6534L5.86342 88.42C6.30813 89.0382 6.78214 89.6435 7.27246 90.2195ZM1.74451 80.1928C1.97707 80.9272 2.24208 81.6619 2.53227 82.3763L2.19761 82.5284C1.90357 81.8043 1.63486 81.0597 1.3992 80.3152L1.74451 80.1928ZM4.59933 86.5039L4.29241 86.7114C3.89273 86.0495 3.51241 85.3589 3.16472 84.6649L3.48656 84.4843C3.82977 85.1698 4.20497 85.8507 4.59933 86.5039Z" fill="#F0F0F0"/>
<path d="M154.198 121.765H57.2774C57.2302 121.765 57.185 121.745 57.1516 121.71C57.1183 121.674 57.0996 121.626 57.0996 121.577C57.0996 121.527 57.1183 121.479 57.1516 121.443C57.185 121.408 57.2302 121.388 57.2774 121.388H154.198C154.245 121.388 154.291 121.408 154.324 121.443C154.357 121.479 154.376 121.526 154.376 121.577C154.376 121.627 154.357 121.675 154.324 121.71C154.291 121.745 154.245 121.765 154.198 121.765Z" fill="#CACACA"/>
</svg>
