<svg width="134" height="107" viewBox="0 0 134 107" fill="none" xmlns="http://www.w3.org/2000/svg">
<path d="M45.2217 98.8642L43.18 100.853L44.8026 97.9722C43.5242 95.5192 41.4334 93.3992 41.4334 93.3992C41.4334 93.3992 37.0957 97.7966 37.0957 101.253C37.0957 104.71 39.0377 105.917 41.4334 105.917C43.829 105.917 45.7711 104.71 45.7711 101.253C45.7441 100.426 45.5571 99.6124 45.2217 98.8642Z" fill="#F2F2F2"/>
<path d="M42.6542 100.961V101.131C42.6446 103.112 42.3289 104.657 41.7095 105.745C41.7008 105.761 41.6912 105.776 41.6824 105.792L41.6131 105.748L41.5469 105.704C42.2341 104.529 42.4772 102.868 42.486 101.141C42.4868 101.085 42.4876 101.028 42.4868 100.972C42.4844 100.241 42.4421 99.5008 42.3744 98.7822C42.3696 98.7265 42.364 98.67 42.3584 98.6135C42.2643 97.6654 42.1288 96.7595 41.9901 95.9726C41.9806 95.9169 41.9702 95.8612 41.9598 95.8064C41.7199 94.4754 41.4752 93.5113 41.4194 93.2979C41.413 93.2717 41.409 93.2574 41.4082 93.254L41.4839 93.2313L41.4847 93.2304L41.5613 93.2076C41.5621 93.211 41.5756 93.2591 41.5979 93.3485C41.6832 93.6825 41.9048 94.5893 42.1225 95.7853C42.132 95.8393 42.1424 95.895 42.1519 95.9506C42.2651 96.5892 42.3759 97.3027 42.4636 98.0517C42.486 98.2398 42.5059 98.4254 42.5234 98.6085C42.5298 98.665 42.5354 98.7215 42.5402 98.7771C42.6135 99.554 42.6515 100.282 42.6542 100.961Z" fill="white"/>
<path d="M42.1214 95.7855C42.068 95.7931 42.0138 95.8007 41.9588 95.8066C41.8094 95.8228 41.6594 95.831 41.5092 95.831C40.8693 95.8319 40.2373 95.6809 39.6598 95.389C39.6264 95.4337 39.5929 95.4784 39.5586 95.524C40.1661 95.8377 40.8332 96.0005 41.5092 95.9997C41.6695 95.9997 41.8297 95.9907 41.9891 95.9727C42.0433 95.9668 42.0975 95.9592 42.1509 95.9508C42.5918 95.8839 43.0205 95.7465 43.4224 95.5434C43.3881 95.497 43.3546 95.4514 43.3219 95.4067C42.9416 95.5948 42.537 95.7225 42.1214 95.7855Z" fill="white"/>
<path d="M42.5243 98.6083C42.4693 98.6116 42.4143 98.6133 42.3592 98.6133C42.3425 98.6142 42.325 98.6142 42.3082 98.6142C41.6148 98.6142 40.9317 98.4368 40.3171 98.0971C39.7024 97.7573 39.1746 97.2654 38.7784 96.6632C38.7466 96.713 38.7147 96.7627 38.6836 96.8133C39.0965 97.4227 39.6406 97.9192 40.2709 98.2617C40.9013 98.6042 41.5996 98.7828 42.3082 98.7829C42.3306 98.7829 42.3529 98.7829 42.3752 98.782C42.431 98.7812 42.486 98.7795 42.541 98.777C43.3921 98.7308 44.2127 98.4263 44.9046 97.8997C44.879 97.85 44.8535 97.8002 44.8272 97.7505C44.1548 98.2674 43.3544 98.5655 42.5243 98.6083Z" fill="white"/>
<path d="M42.6532 100.961C42.5974 100.966 42.5416 100.97 42.4858 100.972C42.426 100.975 42.3662 100.976 42.3064 100.976C41.3747 100.975 40.4683 100.655 39.7231 100.063C38.9778 99.4711 38.4338 98.6398 38.1724 97.6935C38.1366 97.7618 38.1007 97.8293 38.0664 97.8976C38.3609 98.8417 38.9291 99.6637 39.6903 100.247C40.4514 100.83 41.3668 101.144 42.3064 101.145C42.3662 101.145 42.426 101.144 42.485 101.141C42.5416 101.139 42.5974 101.136 42.6532 101.132C43.7803 101.038 44.8318 100.495 45.5947 99.6124C45.578 99.55 45.5588 99.4884 45.5397 99.426C44.8028 100.315 43.7674 100.866 42.6532 100.961Z" fill="white"/>
<path d="M121.816 101.891L119.045 102.06L122.026 100.92C122.507 98.1653 122.159 95.1233 122.159 95.1233C122.159 95.1233 116.17 95.6154 114.1 98.2891C112.029 100.963 112.808 103.199 114.661 104.805C116.514 106.412 118.739 106.781 120.81 104.107C121.285 103.449 121.627 102.695 121.816 101.891Z" fill="#F2F2F2"/>
<path d="M118.576 101.791L118.474 101.923C117.281 103.448 116.111 104.432 114.98 104.858C114.964 104.865 114.947 104.87 114.931 104.877L114.904 104.795L114.879 104.717C116.114 104.269 117.297 103.148 118.339 101.817C118.373 101.775 118.407 101.732 118.44 101.687C118.877 101.12 119.287 100.52 119.665 99.9184C119.695 99.8721 119.724 99.8247 119.754 99.7772C120.249 98.9808 120.687 98.1892 121.051 97.4875C121.077 97.438 121.102 97.388 121.127 97.3387C121.739 96.1482 122.127 95.2384 122.212 95.0359C122.222 95.0114 122.228 94.9977 122.229 94.9945L122.301 95.0277L122.303 95.0276L122.375 95.0613C122.374 95.0644 122.356 95.1107 122.319 95.1948C122.185 95.5104 121.813 96.3603 121.265 97.4314C121.24 97.4796 121.215 97.5296 121.189 97.5791C120.894 98.1489 120.552 98.7751 120.172 99.4133C120.076 99.5737 119.98 99.7306 119.884 99.884C119.855 99.9319 119.826 99.9794 119.796 100.026C119.388 100.676 118.981 101.264 118.576 101.791Z" fill="white"/>
<path d="M121.265 97.4318C121.219 97.4018 121.173 97.3714 121.127 97.339C121.001 97.2514 120.88 97.1571 120.764 97.0564C120.269 96.6279 119.87 96.0873 119.599 95.4742C119.546 95.4864 119.493 95.4985 119.439 95.5107C119.721 96.1608 120.14 96.7341 120.663 97.1869C120.787 97.2944 120.917 97.3948 121.051 97.4879C121.096 97.5197 121.143 97.5501 121.189 97.5794C121.57 97.8234 121.984 98.0046 122.416 98.117C122.418 98.0582 122.419 98.0005 122.421 97.944C122.014 97.8344 121.624 97.6618 121.265 97.4318Z" fill="white"/>
<path d="M119.883 99.884C119.839 99.8497 119.795 99.8141 119.753 99.7772C119.739 99.7666 119.726 99.7549 119.713 99.7436C119.176 99.2786 118.754 98.6832 118.482 98.0083C118.21 97.3333 118.097 96.5988 118.151 95.8673C118.097 95.8844 118.042 95.9015 117.988 95.9198C117.942 96.668 118.066 97.417 118.348 98.1046C118.63 98.7923 119.064 99.3989 119.612 99.8741C119.629 99.8891 119.646 99.9041 119.664 99.9184C119.708 99.9551 119.751 99.9907 119.795 100.026C120.481 100.561 121.298 100.876 122.149 100.932C122.159 100.877 122.169 100.821 122.178 100.765C121.349 100.714 120.551 100.408 119.883 99.884Z" fill="white"/>
<path d="M118.576 101.791C118.53 101.758 118.485 101.723 118.44 101.688C118.392 101.65 118.345 101.611 118.299 101.571C117.579 100.945 117.07 100.089 116.848 99.1316C116.626 98.174 116.703 97.1662 117.068 96.2589C116.999 96.2877 116.931 96.3158 116.863 96.3457C116.525 97.2735 116.473 98.2903 116.712 99.2517C116.952 100.213 117.471 101.07 118.198 101.701C118.244 101.741 118.291 101.781 118.338 101.818C118.383 101.854 118.428 101.889 118.474 101.923C119.402 102.607 120.54 102.892 121.659 102.721C121.683 102.661 121.706 102.601 121.728 102.54C120.625 102.734 119.495 102.465 118.576 101.791Z" fill="white"/>
<path d="M25.6958 103.878L27.8562 103.878L28.2572 95.0128L25.6953 95.0604L25.6958 103.878Z" fill="#FFB6B6"/>
<path d="M25.1445 103.132L29.3992 103.131H29.3994C30.1185 103.131 30.8082 103.434 31.3166 103.972C31.8251 104.51 32.1108 105.239 32.1109 106V106.094L25.1447 106.094L25.1445 103.132Z" fill="#2F2E41"/>
<path d="M16.9614 103.878L19.1219 103.878L19.5501 95.0128L16.9609 95.0604L16.9614 103.878Z" fill="#FFB6B6"/>
<path d="M16.4102 103.132L20.6649 103.131H20.665C21.3841 103.131 22.0738 103.434 22.5823 103.972C23.0908 104.51 23.3764 105.239 23.3765 106V106.094L16.4103 106.094L16.4102 103.132Z" fill="#2F2E41"/>
<path d="M38.0082 65.8995C37.9996 65.6347 37.9363 65.3751 37.8226 65.139C37.709 64.9029 37.5478 64.6961 37.3504 64.533C37.153 64.37 36.9243 64.2547 36.6803 64.1954C36.4362 64.136 36.1829 64.1339 35.938 64.1894L32.7836 58.6813L31.4277 61.705L34.6311 66.472C34.7464 66.9011 35.0064 67.2705 35.3619 67.5103C35.7174 67.7501 36.1437 67.8435 36.56 67.773C36.9762 67.7024 37.3536 67.4727 37.6205 67.1274C37.8874 66.7821 38.0254 66.3452 38.0082 65.8995Z" fill="#FFB6B6"/>
<path d="M11.649 71.6611C11.7962 71.4468 11.8972 71.2009 11.9449 70.9408C11.9926 70.6807 11.9858 70.4127 11.925 70.1557C11.8642 69.8986 11.7509 69.6588 11.593 69.4532C11.4352 69.2475 11.2366 69.081 11.0114 68.9653L11.7272 62.5695L8.90021 64.0706L8.65385 69.914C8.49525 70.3273 8.48545 70.7878 8.62629 71.2083C8.76714 71.6287 9.04886 71.9799 9.41806 72.1953C9.78726 72.4106 10.2183 72.4752 10.6295 72.3768C11.0407 72.2783 11.4034 72.0237 11.649 71.6611Z" fill="#FFB6B6"/>
<path d="M26.9623 65.1821L28.4923 66.1411C28.4923 66.1411 29.7354 66.9784 29.3173 72.8024C28.8993 78.6265 28.3997 101.96 28.3997 101.96H25.6879L21.2958 74.0867L19.6932 102.262L16.8385 102.111C16.8385 102.111 11.0062 70.0334 13.5299 66.5521L26.9623 65.1821Z" fill="#2F2E41"/>
<path d="M12.6074 44.5716C12.6074 44.5716 20.0475 42.0408 26.0503 44.4004L25.5589 56.6522L29.2616 66.2092C29.2616 66.2092 17.4901 71.0408 13.5672 66.9803L14.7113 57.4074L12.6074 44.5716Z" fill="#63388B"/>
<path d="M24.0488 45.8393L25.6079 44.4004C25.6079 44.4004 26.6479 44.3874 27.5429 46.0804C28.4379 47.7734 30.0594 53.2382 30.0594 53.2382L35.2504 62.5423L32.9667 64.2036L24.7337 52.0203L24.0488 45.8393Z" fill="#63388B"/>
<path d="M12.8828 45.1756L12.9891 44.408C12.9891 44.408 10.0902 44.6349 9.84497 47.5905C9.59975 50.5461 8.70312 67.2239 8.70312 67.2239L11.5706 67.828L14.4231 50.7107L12.8828 45.1756Z" fill="#63388B"/>
<path d="M22.9328 40.1433L14.2356 41.9554C14.0566 41.9925 13.8711 41.9529 13.7197 41.8454C13.5683 41.7379 13.4634 41.5713 13.4279 41.382L12.6897 37.4153C12.4282 36.006 12.7062 34.5443 13.4628 33.3518C14.2194 32.1593 15.3926 31.3336 16.7244 31.0561C18.0563 30.7786 19.4378 31.0721 20.5651 31.872C21.6925 32.672 22.4736 33.9129 22.7365 35.322L23.4747 39.2887C23.5097 39.478 23.4724 39.6743 23.3708 39.8345C23.2692 39.9947 23.1117 40.1058 22.9328 40.1433Z" fill="#2F2E41"/>
<path d="M18.8748 40.817C20.9479 40.817 22.6285 39.0388 22.6285 36.8452C22.6285 34.6516 20.9479 32.8733 18.8748 32.8733C16.8017 32.8733 15.1211 34.6516 15.1211 36.8452C15.1211 39.0388 16.8017 40.817 18.8748 40.817Z" fill="#FFB6B6"/>
<path d="M23.9985 35.4711L18.6803 36.5792L18.4754 35.7827L18.3531 36.6474L17.5342 36.818L17.1282 35.2393L16.8857 36.9532L15.3012 37.2833L15.2865 37.204C15.0802 36.089 15.3003 34.9329 15.8986 33.9894C16.4969 33.046 17.4244 32.3921 18.4777 32.1713L19.2275 32.0151C20.2812 31.7968 21.3738 32.0298 22.2655 32.6628C23.1571 33.2959 23.7751 34.2773 23.9837 35.3918L23.9985 35.4711Z" fill="#2F2E41"/>
<path d="M19.5726 41.6129C19.5326 41.6212 19.4919 41.6258 19.4511 41.6266L15.4216 41.711L14.1543 34.901L18.441 34.0078L18.3593 34.1609C17.2218 36.2907 18.8841 39.0136 19.9762 40.4472C20.0566 40.5521 20.1073 40.6789 20.1225 40.813C20.1378 40.947 20.1169 41.0829 20.0624 41.205C20.017 41.3091 19.949 41.4004 19.8639 41.4713C19.7787 41.5422 19.6789 41.5907 19.5726 41.6129Z" fill="#2F2E41"/>
<path d="M76.7945 0.482178H24.8594V29.3368H76.7945V0.482178Z" fill="#F2F2F2"/>
<path d="M76.7632 0.437622H24.8281V3.78267H76.7632V0.437622Z" fill="#E6E6E6"/>
<path d="M75.8237 5.13892H26.0352V27.8158H75.8237V5.13892Z" fill="white"/>
<path d="M34.5164 22.2785C35.0239 22.2785 35.4352 21.8432 35.4352 21.3063C35.4352 20.7694 35.0239 20.3341 34.5164 20.3341C34.009 20.3341 33.5977 20.7694 33.5977 21.3063C33.5977 21.8432 34.009 22.2785 34.5164 22.2785Z" fill="#E4E4E4"/>
<path d="M42.6336 19.7325C43.1411 19.7325 43.5524 19.2972 43.5524 18.7603C43.5524 18.2234 43.1411 17.7881 42.6336 17.7881C42.1262 17.7881 41.7148 18.2234 41.7148 18.7603C41.7148 19.2972 42.1262 19.7325 42.6336 19.7325Z" fill="#E4E4E4"/>
<path d="M50.7489 22.2785C51.2563 22.2785 51.6677 21.8432 51.6677 21.3063C51.6677 20.7694 51.2563 20.3341 50.7489 20.3341C50.2414 20.3341 49.8301 20.7694 49.8301 21.3063C49.8301 21.8432 50.2414 22.2785 50.7489 22.2785Z" fill="#E4E4E4"/>
<path d="M58.8641 9.43547C59.3715 9.43547 59.7829 9.00021 59.7829 8.46328C59.7829 7.92635 59.3715 7.49109 58.8641 7.49109C58.3567 7.49109 57.9453 7.92635 57.9453 8.46328C57.9453 9.00021 58.3567 9.43547 58.8641 9.43547Z" fill="#E4E4E4"/>
<path d="M66.9813 9.31584C67.4887 9.31584 67.9001 8.88058 67.9001 8.34365C67.9001 7.80673 67.4887 7.37146 66.9813 7.37146C66.4739 7.37146 66.0625 7.80673 66.0625 8.34365C66.0625 8.88058 66.4739 9.31584 66.9813 9.31584Z" fill="#E4E4E4"/>
<path d="M50.7689 21.5241L42.6335 18.8496L34.6095 21.436L34.4258 21.1767L42.6335 18.4448L50.7303 21.0886L58.776 8.32701L58.8084 8.31307L66.9244 8.29797L67.0388 8.59868L58.9551 8.59999L50.7689 21.5241Z" fill="#E4E4E4"/>
<path d="M85.4932 38.2722H36.6191V65.4261H85.4932V38.2722Z" fill="#F2F2F2"/>
<path d="M85.4639 38.2302H36.5898V41.3781H85.4639V38.2302Z" fill="#E6E6E6"/>
<path d="M84.5792 42.4728H37.6504V64.0435H84.5792V42.4728Z" fill="white"/>
<path d="M41.2206 40.3167C41.4924 40.3167 41.7128 40.0836 41.7128 39.796C41.7128 39.5084 41.4924 39.2753 41.2206 39.2753C40.9488 39.2753 40.7285 39.5084 40.7285 39.796C40.7285 40.0836 40.9488 40.3167 41.2206 40.3167Z" fill="white"/>
<path d="M43.0878 40.3167C43.3596 40.3167 43.5799 40.0836 43.5799 39.796C43.5799 39.5084 43.3596 39.2753 43.0878 39.2753C42.816 39.2753 42.5957 39.5084 42.5957 39.796C42.5957 40.0836 42.816 40.3167 43.0878 40.3167Z" fill="white"/>
<path d="M39.3476 40.3167C39.6194 40.3167 39.8397 40.0836 39.8397 39.796C39.8397 39.5084 39.6194 39.2753 39.3476 39.2753C39.0758 39.2753 38.8555 39.5084 38.8555 39.796C38.8555 40.0836 39.0758 40.3167 39.3476 40.3167Z" fill="white"/>
<path d="M118.12 12.3375H60.1465V44.5468H118.12V12.3375Z" fill="#E6E6E6"/>
<path d="M118.084 12.288H60.1113V16.0219H118.084V12.288Z" fill="#63388B"/>
<path d="M116.726 17.1687H61.4492V42.7493H116.726V17.1687Z" fill="white"/>
<path d="M65.6052 14.7629C65.9276 14.7629 66.189 14.4864 66.189 14.1453C66.189 13.8041 65.9276 13.5276 65.6052 13.5276C65.2828 13.5276 65.0215 13.8041 65.0215 14.1453C65.0215 14.4864 65.2828 14.7629 65.6052 14.7629Z" fill="white"/>
<path d="M67.8201 14.7629C68.1425 14.7629 68.4038 14.4864 68.4038 14.1453C68.4038 13.8041 68.1425 13.5276 67.8201 13.5276C67.4977 13.5276 67.2363 13.8041 67.2363 14.1453C67.2363 14.4864 67.4977 14.7629 67.8201 14.7629Z" fill="white"/>
<path d="M63.3826 14.7629C63.705 14.7629 63.9663 14.4864 63.9663 14.1453C63.9663 13.8041 63.705 13.5276 63.3826 13.5276C63.0602 13.5276 62.7988 13.8041 62.7988 14.1453C62.7988 14.4864 63.0602 14.7629 63.3826 14.7629Z" fill="white"/>
<path d="M89.4816 22.7739C89.3667 22.7901 89.2613 22.8498 89.1849 22.942C89.1085 23.0343 89.0664 23.1528 89.0664 23.2754C89.0664 23.398 89.1085 23.5165 89.1849 23.6087C89.2613 23.701 89.3667 23.7607 89.4816 23.7769H109.056C109.171 23.7607 109.276 23.701 109.352 23.6087C109.429 23.5165 109.471 23.398 109.471 23.2754C109.471 23.1528 109.429 23.0343 109.352 22.942C109.276 22.8498 109.171 22.7901 109.056 22.7739H89.4816Z" fill="#E6E6E6"/>
<path d="M89.4816 34.6012C89.3667 34.6173 89.2613 34.6771 89.1849 34.7693C89.1085 34.8616 89.0664 34.98 89.0664 35.1027C89.0664 35.2253 89.1085 35.3438 89.1849 35.436C89.2613 35.5283 89.3667 35.588 89.4816 35.6041H109.056C109.171 35.588 109.276 35.5283 109.352 35.436C109.429 35.3438 109.471 35.2253 109.471 35.1027C109.471 34.98 109.429 34.8616 109.352 34.7693C109.276 34.6771 109.171 34.6173 109.056 34.6012H89.4816Z" fill="#E6E6E6"/>
<path d="M89.4816 25.7826C89.3667 25.7987 89.2613 25.8585 89.1849 25.9507C89.1085 26.0429 89.0664 26.1614 89.0664 26.2841C89.0664 26.4067 89.1085 26.5252 89.1849 26.6174C89.2613 26.7096 89.3667 26.7694 89.4816 26.7855H97.9044C98.0193 26.7694 98.1248 26.7096 98.2012 26.6174C98.2775 26.5252 98.3196 26.4067 98.3196 26.2841C98.3196 26.1614 98.2775 26.0429 98.2012 25.9507C98.1248 25.8585 98.0193 25.7987 97.9044 25.7826H89.4816Z" fill="#E6E6E6"/>
<path d="M89.4816 28.6506C89.3667 28.6668 89.2613 28.7265 89.1849 28.8187C89.1085 28.911 89.0664 29.0295 89.0664 29.1521C89.0664 29.2747 89.1085 29.3932 89.1849 29.4855C89.2613 29.5777 89.3667 29.6374 89.4816 29.6536H109.056C109.171 29.6374 109.276 29.5777 109.352 29.4855C109.429 29.3932 109.471 29.2747 109.471 29.1521C109.471 29.0295 109.429 28.911 109.352 28.8187C109.276 28.7265 109.171 28.6668 109.056 28.6506H89.4816Z" fill="#E6E6E6"/>
<path d="M89.4816 31.6597C89.3667 31.6758 89.2613 31.7355 89.1849 31.8278C89.1085 31.92 89.0664 32.0385 89.0664 32.1611C89.0664 32.2838 89.1085 32.4022 89.1849 32.4945C89.2613 32.5867 89.3667 32.6465 89.4816 32.6626H97.9044C98.0193 32.6465 98.1248 32.5867 98.2012 32.4945C98.2775 32.4022 98.3196 32.2838 98.3196 32.1611C98.3196 32.0385 98.2775 31.92 98.2012 31.8278C98.1248 31.7355 98.0193 31.6758 97.9044 31.6597H89.4816Z" fill="#E6E6E6"/>
<path d="M78.0737 35.0547C78.133 35.0549 78.1917 35.0426 78.2466 35.0187C78.3014 34.9948 78.3512 34.9597 78.3932 34.9154C78.4352 34.8711 78.4685 34.8184 78.4913 34.7605C78.514 34.7025 78.5258 34.6404 78.5258 34.5776C78.5258 34.5149 78.5141 34.4527 78.4915 34.3948C78.4688 34.3368 78.4355 34.2841 78.3935 34.2398C78.3516 34.1954 78.3018 34.1602 78.247 34.1363C78.1922 34.1123 78.1334 34.1 78.0741 34.1001H68.9228C68.8635 34.1 68.8048 34.1122 68.7499 34.1361C68.6951 34.16 68.6453 34.1951 68.6033 34.2394C68.5613 34.2837 68.528 34.3364 68.5052 34.3943C68.4825 34.4523 68.4707 34.5144 68.4707 34.5772C68.4707 34.6399 68.4823 34.7021 68.505 34.7601C68.5277 34.818 68.561 34.8707 68.603 34.9151C68.6449 34.9594 68.6947 34.9946 68.7495 35.0186C68.8043 35.0425 68.8631 35.0548 68.9224 35.0547H78.0737Z" fill="#E4E4E4"/>
<path d="M78.0737 32.2425C78.1932 32.2422 78.3077 32.1919 78.3921 32.1024C78.4765 32.0129 78.5239 31.8916 78.5239 31.7652C78.5239 31.6387 78.4765 31.5174 78.3921 31.428C78.3077 31.3385 78.1932 31.2881 78.0737 31.2878H68.9228C68.8635 31.2877 68.8048 31.2999 68.7499 31.3238C68.6951 31.3478 68.6453 31.3829 68.6033 31.4272C68.5613 31.4715 68.528 31.5241 68.5052 31.5821C68.4825 31.64 68.4707 31.7022 68.4707 31.7649C68.4707 31.8277 68.4823 31.8898 68.505 31.9478C68.5277 32.0058 68.561 32.0585 68.603 32.1028C68.6449 32.1472 68.6947 32.1823 68.7495 32.2063C68.8043 32.2303 68.8631 32.2426 68.9224 32.2425H78.0737Z" fill="#E4E4E4"/>
<path d="M73.4977 23.3232C74.0592 23.3232 74.6082 23.4995 75.0752 23.8296C75.5421 24.1597 75.9061 24.629 76.121 25.178C76.3359 25.727 76.3921 26.3311 76.2826 26.9139C76.173 27.4967 75.9026 28.032 75.5055 28.4522C75.1084 28.8724 74.6024 29.1585 74.0516 29.2745C73.5008 29.3904 72.9299 29.3309 72.411 29.1035C71.8922 28.8761 71.4487 28.491 71.1367 27.9969C70.8247 27.5028 70.6582 26.922 70.6582 26.3277C70.6591 25.5312 70.9585 24.7675 71.4908 24.2042C72.0231 23.641 72.7448 23.3241 73.4977 23.3232Z" fill="#63388B"/>
<path d="M50.5348 49.894C51.1483 49.894 51.6457 49.3677 51.6457 48.7185C51.6457 48.0693 51.1483 47.543 50.5348 47.543C49.9212 47.543 49.4238 48.0693 49.4238 48.7185C49.4238 49.3677 49.9212 49.894 50.5348 49.894Z" fill="#E4E4E4"/>
<path d="M68.3859 47.8038C68.4849 47.8036 68.583 47.8241 68.6746 47.8641C68.7661 47.9041 68.8493 47.9628 68.9194 48.0369C68.9894 48.1109 69.045 48.1988 69.083 48.2956C69.1209 48.3924 69.1404 48.4962 69.1404 48.601C69.1404 48.7058 69.1209 48.8095 69.083 48.9063C69.045 49.0031 68.9894 49.0911 68.9194 49.1651C68.8493 49.2392 68.7661 49.2978 68.6746 49.3378C68.583 49.3778 68.4849 49.3984 68.3859 49.3982H56.7016C56.6026 49.3984 56.5045 49.3778 56.413 49.3378C56.3214 49.2978 56.2382 49.2392 56.1682 49.1651C56.0981 49.0911 56.0425 49.0031 56.0046 48.9063C55.9666 48.8095 55.9471 48.7058 55.9471 48.601C55.9471 48.4962 55.9666 48.3924 56.0046 48.2956C56.0425 48.1988 56.0981 48.1109 56.1682 48.0369C56.2382 47.9628 56.3214 47.9041 56.413 47.8641C56.5045 47.8241 56.6026 47.8036 56.7016 47.8038H68.3859ZM68.3859 47.6085H56.7016C56.4529 47.6085 56.2143 47.7131 56.0384 47.8992C55.8625 48.0853 55.7637 48.3378 55.7637 48.601C55.7637 48.8642 55.8625 49.1166 56.0384 49.3028C56.2143 49.4889 56.4529 49.5935 56.7016 49.5935H68.3859C68.6347 49.5935 68.8732 49.4889 69.0491 49.3028C69.225 49.1166 69.3239 48.8642 69.3239 48.601C69.3239 48.3378 69.225 48.0853 69.0491 47.8992C68.8732 47.7131 68.6347 47.6085 68.3859 47.6085Z" fill="#E4E4E4"/>
<path d="M63.7748 49.5935H54.979C54.7302 49.5935 54.4916 49.4889 54.3157 49.3028C54.1398 49.1166 54.041 48.8642 54.041 48.601C54.041 48.3378 54.1398 48.0853 54.3157 47.8992C54.4916 47.7131 54.7302 47.6085 54.979 47.6085H63.7748C64.0235 47.6085 64.2621 47.7131 64.438 47.8992C64.6139 48.0853 64.7127 48.3378 64.7127 48.601C64.7127 48.8642 64.6139 49.1166 64.438 49.3028C64.2621 49.4889 64.0235 49.5935 63.7748 49.5935Z" fill="#E4E4E4"/>
<path d="M50.5348 54.7753C51.1483 54.7753 51.6457 54.2491 51.6457 53.5998C51.6457 52.9506 51.1483 52.4243 50.5348 52.4243C49.9212 52.4243 49.4238 52.9506 49.4238 53.5998C49.4238 54.2491 49.9212 54.7753 50.5348 54.7753Z" fill="#E4E4E4"/>
<path d="M68.3859 52.6849C68.4849 52.6847 68.583 52.7052 68.6746 52.7452C68.7661 52.7852 68.8493 52.8439 68.9194 52.918C68.9894 52.992 69.045 53.08 69.083 53.1768C69.1209 53.2735 69.1404 53.3773 69.1404 53.4821C69.1404 53.5869 69.1209 53.6906 69.083 53.7874C69.045 53.8842 68.9894 53.9722 68.9194 54.0462C68.8493 54.1203 68.7661 54.179 68.6746 54.219C68.583 54.259 68.4849 54.2795 68.3859 54.2793H56.7016C56.6026 54.2795 56.5045 54.259 56.413 54.219C56.3214 54.179 56.2382 54.1203 56.1682 54.0462C56.0981 53.9722 56.0425 53.8842 56.0046 53.7874C55.9666 53.6906 55.9471 53.5869 55.9471 53.4821C55.9471 53.3773 55.9666 53.2735 56.0046 53.1768C56.0425 53.08 56.0981 52.992 56.1682 52.918C56.2382 52.8439 56.3214 52.7852 56.413 52.7452C56.5045 52.7052 56.6026 52.6847 56.7016 52.6849H68.3859ZM68.3859 52.4896H56.7016C56.4529 52.4896 56.2143 52.5942 56.0384 52.7803C55.8625 52.9664 55.7637 53.2189 55.7637 53.4821C55.7637 53.7453 55.8625 53.9978 56.0384 54.1839C56.2143 54.37 56.4529 54.4746 56.7016 54.4746H68.3859C68.6347 54.4746 68.8732 54.37 69.0491 54.1839C69.225 53.9978 69.3239 53.7453 69.3239 53.4821C69.3239 53.2189 69.225 52.9664 69.0491 52.7803C68.8732 52.5942 68.6347 52.4896 68.3859 52.4896Z" fill="#E4E4E4"/>
<path d="M67.0963 54.4746H54.979C54.7302 54.4746 54.4916 54.37 54.3157 54.1839C54.1398 53.9977 54.041 53.7453 54.041 53.4821C54.041 53.2189 54.1398 52.9664 54.3157 52.7803C54.4916 52.5942 54.7302 52.4896 54.979 52.4896H67.0963C67.3448 52.49 67.5831 52.5947 67.7587 52.7808C67.9344 52.9669 68.033 53.2191 68.033 53.4821C68.033 53.7451 67.9344 53.9973 67.7587 54.1834C67.5831 54.3695 67.3448 54.4742 67.0963 54.4746Z" fill="#E4E4E4"/>
<path d="M50.5348 59.6567C51.1483 59.6567 51.6457 59.1304 51.6457 58.4812C51.6457 57.832 51.1483 57.3057 50.5348 57.3057C49.9212 57.3057 49.4238 57.832 49.4238 58.4812C49.4238 59.1304 49.9212 59.6567 50.5348 59.6567Z" fill="#E4E4E4"/>
<path d="M68.3859 57.5663C68.5857 57.5663 68.7774 57.6503 68.9187 57.7998C69.06 57.9493 69.1393 58.1521 69.1393 58.3636C69.1393 58.575 69.06 58.7778 68.9187 58.9273C68.7774 59.0768 68.5857 59.1608 68.3859 59.1608H56.7016C56.5018 59.1608 56.3102 59.0768 56.1689 58.9273C56.0276 58.7778 55.9482 58.575 55.9482 58.3636C55.9482 58.1521 56.0276 57.9493 56.1689 57.7998C56.3102 57.6503 56.5018 57.5663 56.7016 57.5663H68.3859ZM68.3859 57.3711H56.7016C56.4529 57.3711 56.2143 57.4757 56.0384 57.6618C55.8625 57.8479 55.7637 58.1003 55.7637 58.3636C55.7637 58.6268 55.8625 58.8792 56.0384 59.0653C56.2143 59.2515 56.4529 59.356 56.7016 59.356H68.3859C68.6347 59.356 68.8732 59.2515 69.0491 59.0653C69.225 58.8792 69.3239 58.6268 69.3239 58.3636C69.3239 58.1003 69.225 57.8479 69.0491 57.6618C68.8732 57.4757 68.6347 57.3711 68.3859 57.3711Z" fill="#E4E4E4"/>
<path d="M68.4268 59.356H54.979C54.7302 59.356 54.4916 59.2515 54.3157 59.0653C54.1398 58.8792 54.041 58.6268 54.041 58.3636C54.041 58.1003 54.1398 57.8479 54.3157 57.6618C54.4916 57.4757 54.7302 57.3711 54.979 57.3711H68.4268C68.6756 57.3711 68.9142 57.4757 69.0901 57.6618C69.266 57.8479 69.3648 58.1003 69.3648 58.3636C69.3648 58.6268 69.266 58.8792 69.0901 59.0653C68.9142 59.2515 68.6756 59.356 68.4268 59.356Z" fill="#E4E4E4"/>
<path d="M103.391 71.2364C103.527 71.0654 103.625 70.8651 103.68 70.6494C103.735 70.4337 103.744 70.2079 103.707 69.988C103.67 69.7681 103.589 69.5594 103.467 69.3766C103.346 69.1938 103.189 69.0414 103.006 68.93L103.965 63.5977L101.504 64.6827L100.971 69.5801C100.814 69.9176 100.78 70.3042 100.875 70.6665C100.97 71.0288 101.187 71.3417 101.485 71.5458C101.784 71.75 102.143 71.8313 102.494 71.7743C102.845 71.7172 103.164 71.5259 103.391 71.2364Z" fill="#FFB7B7"/>
<path d="M115.661 103.957L113.577 103.957L112.586 95.453L115.661 95.4532L115.661 103.957Z" fill="#FFB7B7"/>
<path d="M116.191 106.094L109.473 106.094V106.004C109.473 105.27 109.748 104.566 110.239 104.047C110.729 103.528 111.394 103.237 112.088 103.237H112.088L116.191 103.237L116.191 106.094Z" fill="#2F2E41"/>
<path d="M104.272 103.957L102.188 103.957L101.197 95.453L104.272 95.4532L104.272 103.957Z" fill="#FFB7B7"/>
<path d="M104.294 106.094L97.5762 106.094V106.004C97.5762 105.27 97.8517 104.566 98.3421 104.047C98.8325 103.528 99.4976 103.237 100.191 103.237H100.191L104.295 103.237L104.294 106.094Z" fill="#2F2E41"/>
<path d="M104.103 68.0414L102.063 73.0129L100.381 101.587L104.63 101.408L105.79 87.7861L109.37 75.6536L111.428 89.1793L112.277 101.048L115.793 101.209L117.194 68.0414H104.103Z" fill="#2F2E41"/>
<path d="M114.296 43.5099L108.386 43.6663L104.915 45.5514L104.725 59.4588L102.561 69.0607C102.561 69.0607 116.084 70.0455 117.953 68.6069L115.744 57.6374L118.707 45.7825L114.296 43.5099Z" fill="#3F3D56"/>
<path d="M105.547 45.769L104.916 45.5516C104.916 45.5516 102.913 46.9117 103.103 50.2C103.103 50.2 103.028 51.9016 103.1 53.034C103.182 54.3329 100.721 67.2404 100.721 67.2404H104.29L105.819 55.5516L105.547 45.769Z" fill="#3F3D56"/>
<path d="M118.615 71.4163C118.479 71.2453 118.381 71.0449 118.326 70.8292C118.271 70.6135 118.262 70.3877 118.299 70.1678C118.336 69.9479 118.417 69.7392 118.539 69.5564C118.66 69.3736 118.818 69.2212 119 69.1098L118.041 63.7775L120.502 64.8625L121.036 69.7599C121.192 70.0974 121.226 70.484 121.131 70.8463C121.036 71.2086 120.819 71.5215 120.521 71.7256C120.222 71.9298 119.863 72.0111 119.512 71.9541C119.161 71.897 118.842 71.7057 118.615 71.4163Z" fill="#FFB7B7"/>
<path d="M117.817 45.9486L118.449 45.7312C118.449 45.7312 120.452 47.0913 120.261 50.3796C120.261 50.3796 120.336 52.0811 120.264 53.2136C120.182 54.5125 121.284 67.42 121.284 67.42H117.715L116.186 55.7312L117.817 45.9486Z" fill="#3F3D56"/>
<path d="M115.748 37.6751C115.748 38.5326 115.507 39.3709 115.057 40.0839C114.607 40.7969 113.967 41.3526 113.218 41.6807C112.47 42.0089 111.646 42.0948 110.851 41.9275C110.056 41.7602 109.326 41.3473 108.753 40.7409C108.18 40.1346 107.79 39.362 107.631 38.521C107.473 37.6799 107.555 36.8082 107.865 36.016C108.175 35.2237 108.7 34.5466 109.374 34.0702C110.048 33.5938 110.84 33.3395 111.65 33.3395C112.187 33.3381 112.719 33.4485 113.215 33.6646C113.712 33.8806 114.163 34.198 114.543 34.5986C114.924 34.9992 115.226 35.4751 115.433 35.9993C115.639 36.5235 115.746 37.0856 115.748 37.6535C115.748 37.6607 115.748 37.6679 115.748 37.6751Z" fill="#FFB7B7"/>
<path d="M107.566 31.8516C108.046 30.7595 108.975 30.9754 109.788 31.3456C110.817 31.1041 111.795 30.3813 112.903 30.8088C113.995 32.4891 117.661 31.9947 116.881 34.7303C116.88 35.3858 118.047 35.0043 117.843 36.0778C118.461 38.1439 115.612 42.0567 113.977 41.2327C114.381 40.4483 115.305 38.6667 113.904 38.49C110.889 41.4581 113.593 32.8379 109.805 35.3448C108.55 36.5593 106.833 33.0664 107.566 31.8516Z" fill="#2F2E41"/>
<path d="M133.798 106.25H0.155039C0.11392 106.25 0.0744851 106.232 0.0454097 106.202C0.0163343 106.171 0 106.129 0 106.086C0 106.042 0.0163343 106 0.0454097 105.97C0.0744851 105.939 0.11392 105.922 0.155039 105.922H133.798C133.84 105.922 133.879 105.939 133.908 105.97C133.937 106 133.953 106.042 133.953 106.086C133.953 106.129 133.937 106.171 133.908 106.202C133.879 106.232 133.84 106.25 133.798 106.25Z" fill="#CACACA"/>
</svg>
