<svg width="121" height="107" viewBox="0 0 121 107" fill="none" xmlns="http://www.w3.org/2000/svg">
<g clip-path="url(#clip0_1438_16466)">
<path d="M79.5572 86.8461H7.71094V0.34021H79.5572V86.8461Z" fill="white"/>
<path d="M79.5572 86.8461H7.71094V0.34021H79.5572V86.8461ZM8.76357 85.813H78.5045V1.37336H8.76357V85.813Z" fill="#E6E6E6"/>
<path d="M79.5864 0.34021H7.83203V11.4064H79.5864V0.34021Z" fill="#63388B"/>
<path d="M18.1208 27.8147C21.4948 27.8147 24.2299 24.9206 24.2299 21.3505C24.2299 17.7805 21.4948 14.8864 18.1208 14.8864C14.7469 14.8864 12.0117 17.7805 12.0117 21.3505C12.0117 24.9206 14.7469 27.8147 18.1208 27.8147Z" fill="#E6E6E6"/>
<path d="M50.0671 16.7876H29.1406V18.6888H50.0671V16.7876Z" fill="#E6E6E6"/>
<path d="M75.2583 21.3505H29.1406V23.2517H75.2583V21.3505Z" fill="#E6E6E6"/>
<path d="M75.2583 25.9135H29.1406V27.8147H75.2583V25.9135Z" fill="#E6E6E6"/>
<path d="M18.1208 80.7259C21.4948 80.7259 24.2299 77.8318 24.2299 74.2618C24.2299 70.6917 21.4948 67.7976 18.1208 67.7976C14.7469 67.7976 12.0117 70.6917 12.0117 74.2618C12.0117 77.8318 14.7469 80.7259 18.1208 80.7259Z" fill="#E6E6E6"/>
<path d="M50.0671 69.699H29.1406V71.6002H50.0671V69.699Z" fill="#E6E6E6"/>
<path d="M75.2583 74.2618H29.1406V76.1631H75.2583V74.2618Z" fill="#E6E6E6"/>
<path d="M75.2583 78.8247H29.1406V80.7259H75.2583V78.8247Z" fill="#E6E6E6"/>
<path d="M19.1389 3.16772H10.0352V4.56195H19.1389V3.16772Z" fill="white"/>
<path d="M19.1389 5.57593H10.0352V6.97016H19.1389V5.57593Z" fill="white"/>
<path d="M19.1389 7.98425H10.0352V9.37848H19.1389V7.98425Z" fill="white"/>
<path d="M87.269 60.1069H0V35.5055H87.269V60.1069Z" fill="white"/>
<path d="M87.269 60.1069H0V35.5055H87.269V60.1069ZM1.05263 58.9931H86.2163V36.6193H1.05263V58.9931Z" fill="#CCCCCC"/>
<path d="M10.8289 54.1615C14.1647 54.1615 16.8688 51.3002 16.8688 47.7706C16.8688 44.241 14.1647 41.3796 10.8289 41.3796C7.49321 41.3796 4.78906 44.241 4.78906 47.7706C4.78906 51.3002 7.49321 54.1615 10.8289 54.1615Z" fill="#63388B"/>
<path d="M48.4905 42.3822H23.502V44.2619H48.4905V42.3822Z" fill="#3F3D56"/>
<path d="M78.5714 46.8934H23.502V48.7731H78.5714V46.8934Z" fill="#3F3D56"/>
<path d="M78.5714 51.4047H23.502V53.2843H78.5714V51.4047Z" fill="#3F3D56"/>
<path d="M101.23 66.5917C101.307 66.5593 101.386 66.5333 101.467 66.514L104.132 59.1885L103.001 57.7036L104.896 55.6052C105.443 56.4577 108.151 58.2538 107.327 59.5345L103.192 67.3191C103.308 67.5386 103.375 67.783 103.389 68.0339C103.403 68.2849 103.363 68.536 103.272 68.7682C103.181 69.0004 103.041 69.2077 102.863 69.3746C102.685 69.5415 102.474 69.6635 102.246 69.7316C100.4 70.3172 99.434 67.3118 101.23 66.5917Z" fill="#A0616A"/>
<path d="M103.752 59.1572C103.274 59.303 101.468 56.3328 101.167 56.0744C100.807 55.7146 100.597 55.2185 100.583 54.6951C100.568 54.1716 100.751 53.6635 101.09 53.282C101.429 52.9006 101.897 52.677 102.392 52.6603C102.886 52.6436 103.367 52.8351 103.729 53.1929L106.505 55.2494C106.584 55.3086 106.65 55.3848 106.698 55.4731C106.747 55.5614 106.777 55.6596 106.787 55.7612C106.796 55.8628 106.786 55.9654 106.755 56.0622C106.724 56.159 106.674 56.2477 106.608 56.3224C106.276 56.5613 104.224 59.3395 103.752 59.1572Z" fill="#63388B"/>
<path d="M104.697 103.718L102.546 103.718L102.225 94.9399L104.697 94.9401L104.697 103.718Z" fill="#A0616A"/>
<path d="M105.244 105.924L98.3093 105.924C98.2443 102.04 102.936 103.099 105.245 102.975L105.244 105.924Z" fill="#2F2E41"/>
<path d="M111.701 102.969L109.564 103.231L107.592 94.6363L110.745 94.2493L111.701 102.969Z" fill="#A0616A"/>
<path d="M112.486 105.094L105.597 105.939C105.11 102.089 109.885 102.568 112.165 102.164L112.486 105.094Z" fill="#2F2E41"/>
<path d="M105.081 101.634H101.545V87.5297L99.4796 75.7551L96.6543 65.2932L103.282 61.8815L104.546 63.9827C104.741 64.1713 107.908 67.2717 108.249 70.3438C108.598 73.4751 105.235 100.409 105.091 101.554L105.081 101.634Z" fill="#2F2E41"/>
<path d="M96.8936 67.4845L95.8018 62.4205C95.5457 62.16 93.1223 59.5314 95.8048 56.1722L97.2182 52.2728L101.359 50.9155L102.978 52.2418C103.63 52.7753 104.149 53.4702 104.487 54.2654C104.826 55.0605 104.975 55.9316 104.92 56.8019L104.478 63.9663L96.8936 67.4845Z" fill="#2F2E41"/>
<path d="M100.439 42.5162C104.706 45.0855 101.203 51.8647 96.8563 49.4507C92.5892 46.8814 96.0924 40.1022 100.439 42.5162Z" fill="#A0616A"/>
<path d="M88.6998 51.6506C88.7134 51.7447 88.7199 51.8398 88.7194 51.9349L95.3949 56.7189L97.1584 55.8169L98.7927 58.4549C97.8053 58.8588 95.3431 61.4516 94.2641 60.2139L87.4903 53.6694C87.2422 53.7454 86.9811 53.7609 86.7266 53.7148C86.4721 53.6686 86.2308 53.562 86.0208 53.403C85.8108 53.2439 85.6376 53.0366 85.5143 52.7965C85.3909 52.5565 85.3206 52.2899 85.3086 52.017C85.176 49.8052 88.4204 49.4614 88.6998 51.6506Z" fill="#A0616A"/>
<path d="M95.5211 56.3011C95.4925 55.7298 98.9078 54.4367 99.2404 54.1622C99.6888 53.8478 100.237 53.7344 100.764 53.8468C101.291 53.9592 101.755 54.2882 102.053 54.7617C102.352 55.2353 102.46 55.8147 102.356 56.3729C102.251 56.9311 101.941 57.4227 101.495 57.7397L98.755 60.3454C98.6765 60.419 98.5841 60.474 98.4838 60.5067C98.3836 60.5394 98.2779 60.5491 98.1738 60.535C98.0698 60.521 97.9697 60.4836 97.8805 60.4253C97.7912 60.3671 97.7147 60.2893 97.6562 60.1972C97.4986 59.7665 95.2227 56.785 95.5211 56.3011Z" fill="#63388B"/>
<path d="M107.912 98.838L103.523 87.2054L106.447 82.7581L112.875 98.4381L107.912 98.838Z" fill="#2F2E41"/>
<path d="M120.109 106.152H91.1618C91.1152 106.152 91.0706 106.133 91.0377 106.098C91.0048 106.063 90.9863 106.016 90.9863 105.967C90.9863 105.917 91.0048 105.87 91.0377 105.835C91.0706 105.801 91.1152 105.781 91.1618 105.781H120.109C120.156 105.781 120.2 105.801 120.233 105.835C120.266 105.87 120.285 105.917 120.285 105.967C120.285 106.016 120.266 106.063 120.233 106.098C120.2 106.133 120.156 106.152 120.109 106.152Z" fill="#CCCCCC"/>
<path d="M111.881 45.8915C110.455 46.1697 108.964 45.7097 107.742 44.8838C106.52 44.058 105.539 42.8906 104.668 41.6645C104.178 40.9743 103.704 40.2462 103.036 39.7495C102.369 39.2527 101.445 39.0324 100.732 39.4524C100.104 39.8227 99.8268 40.7946 100.196 41.403C99.2055 41.1404 98.1554 41.2194 97.1547 41.4434C96.1907 41.6592 95.2111 42.0316 94.5439 42.7989C93.8767 43.5663 93.6244 44.813 94.1881 45.6682L95.0246 45.8208C96.5519 45.4522 97.2576 45.6159 98.7848 45.9845C98.7332 45.6987 99.1573 45.5466 99.3718 45.7287C99.5863 45.9109 99.5091 46.2732 99.6476 46.5246C100.238 47.5954 100.239 48.9094 99.9369 49.9048C101.45 49.2399 102.559 47.4398 102.869 45.7375C103.022 44.994 102.966 44.2193 102.707 43.5095C102.582 43.1987 102.411 42.911 102.2 42.6573C102.767 42.8335 103.291 43.1402 103.733 43.5554C104.512 44.2725 105.075 45.2084 105.698 46.0798C106.321 46.9512 107.048 47.7956 108.005 48.2059C109.472 48.8351 111.215 48.2848 112.42 47.1976C113.36 46.3492 114.024 45.2246 114.553 44.0338C114.248 44.5173 113.854 44.9309 113.395 45.25C112.936 45.5691 112.421 45.7873 111.881 45.8915Z" fill="#2F2E41"/>
<path d="M114.555 44.0338C114.745 43.7213 114.887 43.3779 114.973 43.0172C114.843 43.3583 114.704 43.6986 114.555 44.0338Z" fill="#2F2E41"/>
</g>
<defs>
<clipPath id="clip0_1438_16466">
<rect width="120.285" height="105.812" fill="white" transform="translate(0 0.34021)"/>
</clipPath>
</defs>
</svg>
