<svg width="125" height="107" viewBox="0 0 125 107" fill="none" xmlns="http://www.w3.org/2000/svg">
<path d="M3.10156 106.355C3.10156 106.498 3.20982 106.612 3.34463 106.612H124.524C124.659 106.612 124.767 106.498 124.767 106.355C124.767 106.212 124.659 106.098 124.524 106.098H3.34463C3.20982 106.098 3.10156 106.212 3.10156 106.355Z" fill="#2F2E43"/>
<path d="M65.9382 80.9731C65.6054 83.1072 63.8504 84.7404 61.7408 84.7404C59.6312 84.7404 57.8761 83.1072 57.5434 80.9731H46.8047V105.598H76.6768V80.9731L65.9382 80.9731Z" fill="#B6B3C5"/>
<path d="M50.2787 105.506H47.3262V106.057H50.2787V105.506Z" fill="#B6B3C5"/>
<path d="M76.4173 105.598H73.4648V106.15H76.4173V105.598Z" fill="#B6B3C5"/>
<path d="M121.818 81.6162H1.66535C0.747066 81.6162 0 80.8256 0 79.854V7.29784C0 6.32624 0.747066 5.53571 1.66535 5.53571H121.818C122.736 5.53571 123.483 6.32624 123.483 7.29784V79.854C123.483 80.8256 122.736 81.6162 121.818 81.6162Z" fill="#2F2E41"/>
<path d="M120.617 8.65988H3.03906V78.8597H120.617V8.65988Z" fill="white"/>
<path d="M106.649 35.6193H100.234C99.6762 35.6193 99.2227 35.1395 99.2227 34.5496C99.2227 33.9596 99.6762 33.4798 100.234 33.4798H106.649C107.207 33.4798 107.66 33.9596 107.66 34.5496C107.66 35.1395 107.207 35.6193 106.649 35.6193Z" fill="#D1D1D2"/>
<path d="M114.027 35.6194H111.033C110.475 35.6194 110.021 35.1395 110.021 34.5496C110.021 33.9597 110.475 33.4798 111.033 33.4798H114.027C114.584 33.4798 115.038 33.9597 115.038 34.5496C115.038 35.1395 114.584 35.6194 114.027 35.6194Z" fill="#D1D1D2"/>
<path d="M42.414 36.4364H22.886C21.8891 36.4364 21.0781 35.5782 21.0781 34.5234C21.0781 33.4686 21.8891 32.6104 22.886 32.6104H42.414C43.411 32.6104 44.222 33.4686 44.222 34.5234C44.222 35.5782 43.411 36.4364 42.414 36.4364Z" fill="#63388B"/>
<path d="M31.8257 41.5399H22.4145C21.8069 41.5399 21.3125 41.0168 21.3125 40.3739C21.3125 39.7309 21.8069 39.2077 22.4145 39.2077H31.8257C32.4333 39.2077 32.9277 39.7309 32.9277 40.3739C32.9277 41.0168 32.4333 41.5399 31.8257 41.5399Z" fill="#D1D1D2"/>
<path d="M83.7053 46.1457H22.1802C21.5725 46.1457 21.0781 45.6225 21.0781 44.9795C21.0781 44.3365 21.5725 43.8134 22.1802 43.8134H83.7053C84.3129 43.8134 84.8073 44.3365 84.8073 44.9795C84.8073 45.6225 84.3129 46.1457 83.7053 46.1457Z" fill="#D1D1D2"/>
<path d="M78.4115 49.2575H22.1802C21.5725 49.2575 21.0781 48.7344 21.0781 48.0914C21.0781 47.4485 21.5725 46.9254 22.1802 46.9254H78.4115C79.0192 46.9254 79.5136 47.4485 79.5136 48.0914C79.5136 48.7344 79.0192 49.2575 78.4115 49.2575Z" fill="#D1D1D2"/>
<path d="M113.842 94.1771L111.02 97.3127L108.012 94.3705L110.834 91.2349L113.842 94.1771Z" fill="#ED9DA0"/>
<path d="M116.098 97.3887L110.099 104.054C109.586 104.624 108.946 105.074 108.247 105.356L106.574 106.03C106.228 106.17 105.83 106.089 105.56 105.824C105.243 105.514 105.162 105.017 105.365 104.616L106.973 101.423L108.69 94.947L108.709 94.9592C109.176 95.2635 109.884 95.7201 109.935 95.7394C110.824 95.7727 111.46 95.5361 111.826 95.0364C112.465 94.1648 112.06 92.7732 112.056 92.7593L112.053 92.7486L112.061 92.7413C112.247 92.573 112.443 92.5056 112.644 92.5411C113.07 92.6164 113.375 93.1228 113.419 93.2007C113.819 93.1829 115.047 94.2001 115.145 94.2826C115.748 94.2809 116.19 94.4321 116.458 94.7321C116.693 94.9943 116.796 95.3666 116.762 95.8385C116.723 96.4063 116.487 96.9568 116.098 97.3887Z" fill="#090814"/>
<path d="M110.584 97.7873H106.459V102.087H110.584V97.7873Z" fill="#ED9DA0"/>
<path d="M109.881 105.998H101.114C100.364 105.998 99.6113 105.82 98.936 105.481L97.3197 104.671C96.9855 104.504 96.7695 104.146 96.7695 103.759C96.7695 103.306 97.0622 102.905 97.4813 102.784L100.816 101.822L106.52 98.6961L106.525 98.7186C106.631 99.2819 106.797 100.133 106.818 100.184C107.403 100.883 108.004 101.205 108.604 101.142C109.651 101.031 110.347 99.7706 110.354 99.7579L110.359 99.7482L110.37 99.7493C110.615 99.7757 110.796 99.8788 110.909 100.056C111.148 100.431 111.002 101.009 110.978 101.096C111.264 101.388 111.392 103.017 111.402 103.149C111.816 103.606 112.012 104.045 111.986 104.455C111.963 104.813 111.773 105.145 111.42 105.443C110.996 105.801 110.449 105.998 109.881 105.998Z" fill="#090814"/>
<path d="M111.075 43.6333L96.4597 43.6408L91.5879 75.7993L106.203 94.1799L111.075 89.5847L99.5247 75.7993L111.075 43.6333Z" fill="#090814"/>
<path d="M102.436 48.3738L111.074 43.6334V98.7751L106.202 98.9167L102.436 48.3738Z" fill="#090814"/>
<path d="M93.7836 56.5292L93.8865 51.5096L91.1167 51.446L91.0137 56.4656C90.497 56.9733 90.1558 57.762 90.1375 58.6562C90.1054 60.2209 91.0715 61.5121 92.2953 61.5402C93.5191 61.5683 94.5371 60.3227 94.5692 58.758C94.5875 57.8637 94.279 57.0601 93.7836 56.5292Z" fill="#ED9DA0"/>
<path d="M106.917 7.50657C106.917 7.50657 110.893 7.49747 109.408 3.44375C107.923 -0.609965 105.157 1.20511 105.157 1.20511C105.157 1.20511 103.992 1.85645 104.232 3.30969" fill="#090814"/>
<path d="M107.315 9.45105C107.315 6.34302 104.933 3.82349 101.996 3.82349C99.0589 3.82349 96.6777 6.34301 96.6777 9.45105C96.6777 11.9716 98.244 14.1049 100.403 14.8214L101.431 22.0111L106.672 17.3895C106.672 17.3895 105.54 15.8634 104.933 14.1426C106.368 13.1348 107.315 11.4102 107.315 9.45105Z" fill="#ED9DA0"/>
<path d="M104.552 14.205C104.552 14.205 105.258 11.3399 104.103 10.0224C102.951 8.70799 102.802 10.7532 102.802 10.7532L101.971 10.5619C101.971 10.5619 102.116 8.57302 100.489 8.22878L101.537 5.85737C101.537 5.85737 97.5239 6.68191 97.4133 6.27061C96.5429 3.03432 104.846 0.26976 107.14 5.20714C110.708 12.8864 104.552 14.205 104.552 14.205Z" fill="#090814"/>
<path d="M99.8541 19.2183C95.9929 20.0166 93.0947 23.4184 92.7432 27.5646L90.3398 55.92H94.5574L99.8541 19.2183Z" fill="#63388B"/>
<path d="M95.8658 41.8101L95.209 49.8163L113.039 44.2675L110.866 38.4808L114.912 28.6514L106.654 16.1269L100.061 16.6025L97.514 20.0903" fill="#63388B"/>
<path d="M110.406 49.4134L112.893 45.1374L110.534 43.601L108.047 47.8771C107.358 48.0386 106.687 48.5367 106.244 49.2985C105.469 50.6314 105.686 52.2622 106.728 52.941C107.771 53.6198 109.244 53.0896 110.019 51.7567C110.462 50.9949 110.58 50.1365 110.406 49.4134Z" fill="#ED9DA0"/>
<path d="M105.307 16.2855L106.744 16.2224L109.202 18.188C112.115 18.7136 112.959 18.8609 113.852 20.8966C114.227 21.752 114.475 22.6633 114.614 23.5947L116.694 37.5297L111.467 50.847L108.004 46.725L111.706 36.3132L111.091 33.8227" fill="#63388B"/>
</svg>
