<svg width="148" height="107" viewBox="0 0 148 107" fill="none" xmlns="http://www.w3.org/2000/svg">
<path d="M130.116 50.6256H19.0078V106.413H130.116V50.6256Z" fill="#E6E6E6"/>
<path d="M126.94 55.4097H22.1855V101.955H126.94V55.4097Z" fill="white"/>
<path d="M109.422 64.0727H106.709V66.9429H109.422V64.0727Z" fill="#E6E6E6"/>
<path d="M37.068 64.0727H34.3555V66.9429H37.068V64.0727Z" fill="#63388B"/>
<path d="M43.3195 72.2948H34.2773V81.8625H43.3195V72.2948Z" fill="#E6E6E6"/>
<path d="M130.067 47.4026H18.959V52.3972H130.067V47.4026Z" fill="#63388B"/>
<path d="M22.4686 51.9338C22.9518 51.9338 23.3435 51.5193 23.3435 51.0081C23.3435 50.4968 22.9518 50.0823 22.4686 50.0823C21.9854 50.0823 21.5938 50.4968 21.5938 51.0081C21.5938 51.5193 21.9854 51.9338 22.4686 51.9338Z" fill="white"/>
<path d="M25.7889 51.9338C26.2721 51.9338 26.6638 51.5193 26.6638 51.0081C26.6638 50.4968 26.2721 50.0823 25.7889 50.0823C25.3058 50.0823 24.9141 50.4968 24.9141 51.0081C24.9141 51.5193 25.3058 51.9338 25.7889 51.9338Z" fill="white"/>
<path d="M29.1092 51.9338C29.5924 51.9338 29.9841 51.5193 29.9841 51.0081C29.9841 50.4968 29.5924 50.0823 29.1092 50.0823C28.6261 50.0823 28.2344 50.4968 28.2344 51.0081C28.2344 51.5193 28.6261 51.9338 29.1092 51.9338Z" fill="white"/>
<path d="M147.023 106.413H0V106.747H147.023V106.413Z" fill="#E6E6E6"/>
<path d="M74.8484 73.2518H52.6953V74.5974H74.8484V73.2518Z" fill="#E6E6E6"/>
<path d="M86.9046 78.1601H52.6953V79.5057H86.9046V78.1601Z" fill="#63388B"/>
<path d="M80.575 82.7842H52.6953V84.1298H80.575V82.7842Z" fill="#E6E6E6"/>
<path d="M68.9711 87.3913H52.6953V88.7369H68.9711V87.3913Z" fill="#E6E6E6"/>
<path d="M77.2596 91.9978H52.6953V93.3434H77.2596V91.9978Z" fill="#E6E6E6"/>
<path d="M114.091 64.0727H111.379V66.9429H114.091V64.0727Z" fill="#E6E6E6"/>
<path d="M118.763 64.0727H116.051V66.9429H118.763V64.0727Z" fill="#E6E6E6"/>
<path opacity="0.997" d="M113.255 88.7364C116.297 88.7364 118.764 86.1266 118.764 82.9073C118.764 79.6881 116.297 77.0783 113.255 77.0783C110.212 77.0783 107.746 79.6881 107.746 82.9073C107.746 86.1266 110.212 88.7364 113.255 88.7364Z" fill="#63388B"/>
<path d="M29.7664 16.7185C33.1917 16.7185 35.9684 13.7804 35.9684 10.156C35.9684 6.53172 33.1917 3.59363 29.7664 3.59363C26.3412 3.59363 23.5645 6.53172 23.5645 10.156C23.5645 13.7804 26.3412 16.7185 29.7664 16.7185Z" fill="#2F2E41"/>
<path d="M14.3324 66.3048H11.6162L10.3242 55.2219H14.3321L14.3324 66.3048Z" fill="#FEB8B8"/>
<path d="M9.67642 65.4841H14.9135V68.9732H6.37891C6.37891 68.0479 6.72632 67.1604 7.34473 66.506C7.96313 65.8517 8.80186 65.4841 9.67642 65.4841Z" fill="#2F2E41"/>
<path d="M10.0928 64.7015L7.50195 63.8411L9.4052 52.857L13.2291 54.1269L10.0928 64.7015Z" fill="#FEB8B8"/>
<path d="M5.88147 62.4435L10.8784 64.1028L9.89107 67.4319L1.74805 64.7279C1.87771 64.2908 2.08748 63.8849 2.36538 63.5335C2.64329 63.1821 2.98388 62.892 3.36772 62.6799C3.75156 62.4678 4.17112 62.3377 4.60246 62.2972C5.0338 62.2566 5.46846 62.3064 5.88163 62.4436L5.88147 62.4435Z" fill="#2F2E41"/>
<path d="M10.9765 60.2788C10.8578 60.2787 10.7401 60.2561 10.629 60.2119L8.63057 59.4194C8.40628 59.3296 8.21996 59.1575 8.10555 58.9345C7.99114 58.7114 7.95626 58.4524 8.00726 58.2044C8.51023 55.8114 10.2244 47.6644 11.1631 43.2946C12.2763 38.1114 28.5161 37.1483 29.2068 37.1099L29.2637 37.1067L31.0905 39.5348C31.7506 41.7799 31.5413 43.5311 30.4686 44.7399C27.3382 48.2665 17.992 46.0782 16.8776 45.8013L11.9102 59.5997C11.8378 59.7995 11.7099 59.9713 11.5433 60.0926C11.3766 60.2138 11.1792 60.2787 10.9769 60.2788H10.9765Z" fill="#2F2E41"/>
<path d="M13.8567 61.9194C13.7381 61.9194 13.6204 61.8968 13.5093 61.8526L11.5115 61.0599C11.2871 60.9701 11.1008 60.798 10.9864 60.575C10.872 60.352 10.8371 60.0929 10.8881 59.8449C11.3911 57.4519 13.1053 49.3049 14.044 44.9351C15.1572 39.7519 31.397 38.7888 32.0877 38.7504L32.1446 38.7472L33.9707 41.176C34.6308 43.4211 34.4216 45.1723 33.3488 46.3811C30.2186 49.9068 20.8723 47.7193 19.7578 47.4423L14.7899 61.2402C14.7175 61.44 14.5895 61.6118 14.4229 61.7331C14.2562 61.8543 14.0588 61.9192 13.8566 61.9193L13.8567 61.9194Z" fill="#2F2E41"/>
<path d="M8.07559 28.1643C8.14895 28.2682 8.21448 28.378 8.27156 28.4928L19.1961 29.7106L20.769 27.429L24.3331 29.4902L21.2443 35.0264L7.84629 31.4118C7.50826 31.7605 7.0779 31.9921 6.61246 32.0757C6.14702 32.1593 5.66856 32.091 5.2407 31.8799C4.81284 31.6687 4.45586 31.3248 4.21725 30.8937C3.97864 30.4627 3.8697 29.965 3.90492 29.4669C3.94014 28.9687 4.11785 28.4937 4.41441 28.105C4.71098 27.7164 5.11234 27.4324 5.56513 27.291C6.01792 27.1496 6.50066 27.1574 6.94916 27.3133C7.39766 27.4693 7.79067 27.766 8.0759 28.1641L8.07559 28.1643Z" fill="#FEB8B8"/>
<path d="M33.463 42.106C33.305 42.1056 33.1494 42.0655 33.009 41.9891C30.8245 40.8137 26.5708 38.7783 22.6263 38.3523C22.4913 38.3383 22.3605 38.2946 22.2425 38.224C22.1244 38.1534 22.0216 38.0574 21.9406 37.9423C21.8581 37.8259 21.7991 37.6928 21.7673 37.5512C21.7355 37.4097 21.7317 37.2627 21.756 37.1195C22.1119 35.0346 22.9284 29.7256 22.8232 25.4708C22.7922 24.1625 23.1829 22.8821 23.9309 21.8399C24.6789 20.7977 25.7397 20.0558 26.939 19.7362C27.6609 19.5347 28.394 19.3817 29.1341 19.2782C29.985 19.1641 30.8493 19.2626 31.6578 19.5656C32.4663 19.8685 33.1964 20.3677 33.7898 21.0229C34.3832 21.6782 34.8233 22.4714 35.0749 23.339C35.3265 24.2067 35.3825 25.1246 35.2385 26.0192C34.5351 30.4286 33.8259 36.5871 34.4423 40.8862C34.4706 41.0789 34.4479 41.2761 34.3768 41.456C34.3057 41.6359 34.1889 41.7915 34.0394 41.9055C33.8721 42.0351 33.6703 42.1053 33.463 42.106Z" fill="#C1C1C1"/>
<path d="M23.0256 30.8903C22.8895 30.8901 22.7548 30.8603 22.6299 30.8029L19.784 29.4995C19.5416 29.3882 19.3509 29.1796 19.2536 28.9196C19.1564 28.6596 19.1606 28.3694 19.2653 28.1126L21.4651 22.7356C21.5958 22.4098 21.7858 22.1144 22.0244 21.8663C22.2629 21.6181 22.5453 21.4222 22.8555 21.2896C23.1656 21.1569 23.4974 21.0902 23.8319 21.0933C24.1664 21.0964 24.4971 21.1691 24.805 21.3074C25.1129 21.4456 25.3921 21.6467 25.6266 21.8991C25.8611 22.1516 26.0463 22.4504 26.1716 22.7786C26.2969 23.1067 26.36 23.4578 26.3571 23.8117C26.3542 24.1657 26.2855 24.5155 26.1548 24.8414C26.15 24.8532 26.1452 24.865 26.1403 24.8768L23.9405 30.254C23.863 30.4427 23.7352 30.6035 23.5727 30.7165C23.4102 30.8295 23.2201 30.8899 23.0256 30.8903Z" fill="#D7D7D7"/>
<path d="M29.5399 17.4486C32.5445 17.4486 34.9802 14.8713 34.9802 11.6921C34.9802 8.51282 32.5445 5.93555 29.5399 5.93555C26.5353 5.93555 24.0996 8.51282 24.0996 11.6921C24.0996 14.8713 26.5353 17.4486 29.5399 17.4486Z" fill="#FEB8B8"/>
<path d="M24.002 8.86385C26.5788 10.5284 29.484 11.5412 32.4912 11.8237L31.5963 10.6892C32.2478 10.9441 32.9334 11.0882 33.6276 11.116C33.9752 11.1267 34.3203 11.051 34.6352 10.895C34.9501 10.739 35.2261 10.5071 35.441 10.2178C35.6164 9.91762 35.7206 9.57695 35.7448 9.22489C35.7689 8.87283 35.7122 8.51983 35.5795 8.19597C35.3068 7.54977 34.8824 6.98816 34.3466 6.56459C33.3969 5.76965 32.2761 5.23568 31.084 5.01025C29.892 4.78482 28.6657 4.87495 27.5145 5.2726C26.7249 5.52229 26.0177 6.00231 25.4739 6.65767C24.9582 7.3309 23.9653 7.93078 24.2294 8.75107L24.002 8.86385Z" fill="#2F2E41"/>
<path d="M30.0254 4.01417C31.1098 2.85033 32.4221 1.95215 33.8699 1.38289C34.7889 0.973824 35.7968 0.841455 36.7824 1.0004C37.7541 1.20727 38.6729 1.91844 38.944 2.9272C39.1651 3.752 38.9368 4.64012 38.5928 5.41695C38.2489 6.19379 37.7896 6.91348 37.5114 7.71889C37.2275 8.54071 37.1422 9.42454 37.263 10.2901C37.3839 11.1557 37.7071 11.9757 38.2034 12.6756C38.6998 13.3754 39.3534 13.933 40.1051 14.2978C40.8567 14.6625 41.6826 14.8229 42.5076 14.7642C41.553 14.8997 40.6731 15.3745 39.7399 15.6269C38.8068 15.8794 37.7055 15.8626 37.0121 15.1551C36.2784 14.4066 36.2637 13.1898 36.2992 12.1122L36.4571 7.30616C36.484 6.48922 36.507 5.64604 36.2285 4.88324C35.9499 4.12044 35.2882 3.45289 34.5157 3.45991C33.9301 3.46509 33.412 3.84056 32.9423 4.21068C32.4727 4.5808 31.9757 4.97565 31.3925 5.03079C30.8093 5.08594 30.1434 4.62976 30.1869 4.0115" fill="#2F2E41"/>
<path d="M20.3935 40.6268C20.033 40.6263 19.6771 40.5413 19.3515 40.3777C19.0258 40.2142 18.7385 39.9763 18.5102 39.6812C18.2819 39.386 18.1183 39.0409 18.0312 38.6708C17.9441 38.3007 17.9357 37.9147 18.0065 37.5408C18.0774 37.1668 18.2257 36.8141 18.4409 36.5081C18.6561 36.2021 18.9327 35.9504 19.2509 35.7711C19.569 35.5919 19.9208 35.4895 20.2809 35.4714C20.6409 35.4533 21.0003 35.5199 21.3331 35.6665C21.4332 35.7112 21.5302 35.7633 21.6235 35.8222L31.5337 31.1149L31.8121 28.2709L36.084 28.15L36.0557 32.8847C36.0506 33.4332 35.8783 33.9654 35.5646 34.4021C35.2509 34.8389 34.8125 35.1569 34.3144 35.3091L22.7255 38.7989C22.7031 38.8799 22.6767 38.9596 22.6465 39.0377C22.4606 39.5076 22.1477 39.9091 21.7471 40.1917C21.3465 40.4743 20.876 40.6256 20.3946 40.6266L20.3935 40.6268Z" fill="#FEB8B8"/>
<path d="M35.7217 30.4702C35.6002 30.5353 35.4674 30.5733 35.3315 30.5818L32.2363 30.7832C31.9725 30.8 31.7132 30.7055 31.5152 30.5203C31.3173 30.3351 31.1968 30.0744 31.1803 29.7953L30.8406 23.9469C30.7999 23.2339 31.0283 22.5329 31.4758 21.998C31.9232 21.4631 32.553 21.138 33.2268 21.0941C33.9006 21.0503 34.5634 21.2912 35.0694 21.7641C35.5754 22.2369 35.8834 22.903 35.9256 23.6159L36.2654 29.4643C36.2772 29.6697 36.2321 29.8744 36.1355 30.053C36.039 30.2317 35.895 30.3767 35.7217 30.4702Z" fill="#D7D7D7"/>
<path d="M29.4889 39.5774H11.0015C10.8464 39.5774 10.7207 39.7104 10.7207 39.8745V40.9209C10.7207 41.0849 10.8464 41.218 11.0015 41.218H29.4889C29.644 41.218 29.7697 41.0849 29.7697 40.9209V39.8745C29.7697 39.7104 29.644 39.5774 29.4889 39.5774Z" fill="#3F3D56"/>
<path d="M3.61719 39.6949V28.2105C3.61765 27.8066 3.76948 27.4194 4.03939 27.1338C4.30929 26.8482 4.67523 26.6876 5.05694 26.6871H24.7705C25.1522 26.6875 25.5182 26.8482 25.7881 27.1338C26.058 27.4194 26.2098 27.8066 26.2102 28.2105V39.6949C26.2098 40.0988 26.058 40.4861 25.7881 40.7717C25.5182 41.0573 25.1522 41.2179 24.7705 41.2184H5.05694C4.67523 41.2179 4.30929 41.0572 4.03939 40.7716C3.76948 40.486 3.61765 40.0988 3.61719 39.6949Z" fill="#3F3D56"/>
<path d="M15.1513 35.3595C15.8853 35.3595 16.4804 34.7298 16.4804 33.9532C16.4804 33.1765 15.8853 32.5469 15.1513 32.5469C14.4173 32.5469 13.8223 33.1765 13.8223 33.9532C13.8223 34.7298 14.4173 35.3595 15.1513 35.3595Z" fill="white"/>
</svg>
