<svg width="189" height="81" viewBox="0 0 189 81" fill="none" xmlns="http://www.w3.org/2000/svg">
<path d="M41.4831 45.162C41.4848 44.9135 41.4353 44.6674 41.3376 44.4389C41.2399 44.2104 41.0962 44.0045 40.9154 43.8341C40.7346 43.6637 40.5206 43.5323 40.2867 43.4483C40.0529 43.3643 39.8042 43.3294 39.5563 43.3457C39.3084 43.3621 39.0665 43.4294 38.8457 43.5435C38.625 43.6575 38.4301 43.8159 38.2733 44.0086C38.1164 44.2014 38.001 44.4244 37.9343 44.6637C37.8675 44.903 37.8508 45.1536 37.8852 45.3997L32.6917 52.2008C32.47 52.644 32.3841 53.1428 32.4446 53.6346C32.5052 54.1265 32.7095 54.5895 33.032 54.9657L33.4394 55.441L35.3087 55.0671L37.4273 53.1978L37.178 51.0792L39.795 46.9667L39.7917 46.9638C40.2498 46.9346 40.6796 46.7321 40.9937 46.3974C41.3079 46.0628 41.4829 45.621 41.4831 45.162Z" fill="#FFB9B9"/>
<path d="M5.56653 78.4127L4.71875 75.2641L16.4597 70.4961L17.7109 75.143L5.56653 78.4127Z" fill="#FFB8B8"/>
<path d="M2.73338 80.0385L0 69.8862L0.128407 69.8516C1.1764 69.5695 2.29354 69.7152 3.23411 70.2567C4.17468 70.7982 4.86164 71.6911 5.14389 72.7391L5.14396 72.7393L6.81339 78.94L2.73338 80.0385Z" fill="#2F2E41"/>
<path d="M21.7424 77.91L19.1055 75.9924L25.2476 64.9082L29.1396 67.7385L21.7424 77.91Z" fill="#FFB8B8"/>
<path d="M20.5577 80.9551L12.0547 74.7715L12.1329 74.6639C12.7712 73.7862 13.7321 73.198 14.8041 73.0286C15.8761 72.8593 16.9715 73.1227 17.8493 73.761L17.8495 73.7611L23.0428 77.5379L20.5577 80.9551Z" fill="#2F2E41"/>
<path d="M44.155 62.4212L37.5191 55.9748C36.9399 55.4122 36.1771 55.0776 35.3709 55.0326C34.5648 54.9875 33.7694 55.2351 33.1312 55.7297L20.6016 69.6493L21.7232 71.3939L33.6868 63.2935L41.7872 73.8863L49.5137 70.0232L44.155 62.4212Z" fill="#2F2E41"/>
<path d="M41.2922 63.7919L36.432 63.4181L32.9122 62.5648C32.7134 62.2546 32.4246 62.0126 32.0844 61.8711C31.7442 61.7296 31.369 61.6954 31.0088 61.7731C30.6487 61.8507 30.3209 62.0366 30.0693 62.3057C29.8177 62.5748 29.6543 62.9144 29.601 63.2789C29.5478 63.6435 29.6071 64.0156 29.7711 64.3455C29.9352 64.6753 30.1961 64.9472 30.5189 65.1247C30.8417 65.3022 31.2111 65.3769 31.5775 65.3387C31.9439 65.3005 32.2899 65.1513 32.5692 64.911L32.5687 64.9135L34.6873 65.7859L43.7846 68.9014L44.9062 68.029L41.2922 63.7919Z" fill="#FFB9B9"/>
<path d="M53.0077 77.2502L50.266 78.9949H47.0258L31.9467 73.3869L9.88871 77.3748L9.26562 72.639L29.4544 63.791L47.1506 69.6482L53.0077 77.2502Z" fill="#2F2E41"/>
<path d="M47.1493 46.9685C49.8335 46.9685 52.0095 44.7925 52.0095 42.1083C52.0095 39.424 49.8335 37.248 47.1493 37.248C44.4651 37.248 42.2891 39.424 42.2891 42.1083C42.2891 44.7925 44.4651 46.9685 47.1493 46.9685Z" fill="#FFB9B9"/>
<path d="M59.7252 61.5111C59.7251 64.4443 59.2629 67.3592 58.3556 70.1486L57.9917 71.2677L56.247 79.2435L54.3777 79.742L53.0068 77.9973L50.2652 76.0033L48.2712 72.7632L46.5614 69.9143L46.028 69.0245L44.1587 59.6779L37.0553 55.69L34.6875 55.3162L35.186 53.9453L37.3046 51.079L39.4231 50.8298L40.0462 50.3313L40.5447 50.5805L43.2926 51.6391L52.2018 47.875L53.5053 48.0881L57.9917 51.8268C59.1386 54.9267 59.7255 58.2058 59.7252 61.5111Z" fill="#CCCCCC"/>
<path opacity="0.1" d="M58.3642 60.427L53.6286 63.5425L46.5601 69.9156L46.0268 69.0259L44.5312 61.5486H44.9052L48.7685 54.4453L58.3642 60.427Z" fill="#3F3F3F"/>
<path d="M48.7722 53.6973L44.9089 60.8006L42.6657 63.2931L40.6719 63.7916L46.0305 69.6488L53.6323 62.7946L58.3679 59.679L48.7722 53.6973Z" fill="#CCCCCC"/>
<path d="M43.3673 38.4941L42.8407 38.6967C42.7608 38.6426 42.6923 38.5732 42.6392 38.4926C42.586 38.4121 42.5493 38.3218 42.531 38.227C42.5128 38.1322 42.5134 38.0347 42.5328 37.9402C42.5522 37.8456 42.5901 37.7558 42.6442 37.6758C42.647 37.6716 42.6499 37.6675 42.6528 37.6634L41.6797 37.6178C42.3044 36.7858 43.0986 36.096 44.0098 35.5939C44.9211 35.0918 45.9286 34.789 46.9656 34.7054C48.0026 34.6218 49.0456 34.7594 50.0255 35.109C51.0054 35.4587 51.8998 36.0124 52.6497 36.7336C52.694 36.581 53.177 36.8779 53.3742 37.1789C53.4404 36.9306 53.8933 38.1309 54.0535 38.9794C54.1276 38.6969 54.4127 39.153 54.1629 39.5906C54.3212 39.5674 54.3927 39.9724 54.2702 40.1979C54.4433 40.1166 54.4141 40.6 54.2264 40.923C54.4735 40.901 54.2053 45.9899 50.4976 45.6191C50.2394 44.4331 50.3122 44.5068 50.0082 42.9817C49.8667 42.8315 49.7118 42.6948 49.5571 42.5582L48.7206 41.8198C47.7478 40.9611 46.8629 39.9013 45.5669 39.5804C44.6764 39.3598 44.1132 39.31 44.5986 38.3065C44.1601 38.4895 43.7506 38.7616 43.3082 38.9315C43.3141 38.7913 43.3759 38.6344 43.3673 38.4941Z" fill="#2F2E41"/>
<path d="M49.5755 43.5416C50.0573 43.5416 50.4478 43.151 50.4478 42.6692C50.4478 42.1874 50.0573 41.7969 49.5755 41.7969C49.0937 41.7969 48.7031 42.1874 48.7031 42.6692C48.7031 43.151 49.0937 43.5416 49.5755 43.5416Z" fill="#FFB9B9"/>
<path d="M8.89903 22.0651L8.63281 26.0625L12.6302 26.3287L12.8964 22.3313L8.89903 22.0651Z" fill="#E6E6E6"/>
<path d="M6.31935 24.1895L11.1733 24.5127L10.8501 29.3667L5.99609 29.0434L6.31935 24.1895ZM10.9482 24.7097L6.51634 24.4146L6.22119 28.8464L10.6531 29.1416L10.9482 24.7097Z" fill="#CCCCCC"/>
<path d="M31.4872 10.2131L27.5703 11.0547L28.4119 14.9715L32.3288 14.1299L31.4872 10.2131Z" fill="#E6E6E6"/>
<path d="M28.7405 8.31445L29.7625 13.0706L25.0063 14.0926L23.9844 9.33641L28.7405 8.31445ZM29.5113 12.9083L28.5782 8.56568L24.2356 9.49877L25.1687 13.8414L29.5113 12.9083Z" fill="#CCCCCC"/>
<path d="M27.3692 29.021L24.4453 31.7598L27.1841 34.6837L30.108 31.9449L27.3692 29.021Z" fill="#E6E6E6"/>
<path d="M30.3214 28.611L26.7709 31.9366L23.4453 28.3862L26.9958 25.0605L30.3214 28.611ZM26.7807 31.6377L30.0224 28.6012L26.986 25.3595L23.7443 28.3959L26.7807 31.6377Z" fill="#CCCCCC"/>
<path d="M178.578 0H60.0438C59.6154 -4.86908e-07 59.1911 0.0843874 58.7953 0.248345C58.3994 0.412304 58.0398 0.65262 57.7368 0.955575C57.4339 1.25853 57.1936 1.61819 57.0296 2.01402C56.8656 2.40985 56.7813 2.8341 56.7813 3.26254V69.3074C56.7812 69.7358 56.8656 70.1601 57.0296 70.5559C57.1936 70.9517 57.4339 71.3114 57.7368 71.6143C58.0398 71.9173 58.3994 72.1576 58.7953 72.3216C59.1911 72.4855 59.6154 72.5699 60.0438 72.5699H178.578C179.443 72.5699 180.273 72.2262 180.885 71.6143C181.496 71.0025 181.84 70.1727 181.84 69.3074V3.26254C181.84 2.39726 181.496 1.56742 180.885 0.955578C180.273 0.343732 179.443 4.91679e-07 178.578 0Z" fill="#3F3D56"/>
<path d="M177.467 5.76562H61.1562V71.3768H177.467V5.76562Z" fill="white"/>
<path d="M119.216 3.9757C119.875 3.9757 120.409 3.44161 120.409 2.78277C120.409 2.12394 119.875 1.58984 119.216 1.58984C118.558 1.58984 118.023 2.12394 118.023 2.78277C118.023 3.44161 118.558 3.9757 119.216 3.9757Z" fill="white"/>
<path d="M144.204 71.3768H61.1562V5.76562L144.204 71.3768Z" fill="#F2F2F2"/>
<path d="M79.3559 66.4658C85.5306 66.4658 90.5361 61.4602 90.5361 55.2856C90.5361 49.111 85.5306 44.1055 79.3559 44.1055C73.1813 44.1055 68.1758 49.111 68.1758 55.2856C68.1758 61.4602 73.1813 66.4658 79.3559 66.4658Z" fill="#63388B"/>
<path d="M81.8445 63.691C79.094 63.691 76.4052 62.8753 74.1182 61.3472C71.8312 59.8191 70.0487 57.6471 68.9961 55.1059C67.9435 52.5648 67.6681 49.7685 68.2047 47.0708C68.7413 44.3731 70.0658 41.8952 72.0108 39.9502C73.9557 38.0053 76.4337 36.6808 79.1314 36.1442C81.8291 35.6076 84.6253 35.883 87.1665 36.9356C89.7077 37.9882 91.8797 39.7707 93.4078 42.0577C94.9359 44.3446 95.7515 47.0334 95.7515 49.784C95.7515 51.6103 95.3918 53.4187 94.6929 55.106C93.994 56.7932 92.9696 58.3263 91.6783 59.6177C90.3869 60.9091 88.8538 61.9335 87.1665 62.6324C85.4792 63.3313 83.6708 63.691 81.8445 63.691ZM81.8445 36.0587C79.1299 36.0587 76.4763 36.8637 74.2192 38.3719C71.9621 39.88 70.2029 42.0236 69.1641 44.5315C68.1252 47.0395 67.8534 49.7992 68.383 52.4616C68.9126 55.124 70.2198 57.5696 72.1393 59.4891C74.0588 61.4087 76.5044 62.7159 79.1668 63.2455C81.8293 63.7751 84.589 63.5032 87.0969 62.4644C89.6049 61.4256 91.7485 59.6664 93.2566 57.4093C94.7648 55.1522 95.5697 52.4986 95.5697 49.784C95.5697 47.9816 95.2147 46.1968 94.525 44.5316C93.8352 42.8663 92.8242 41.3533 91.5497 40.0788C90.2752 38.8043 88.7621 37.7933 87.0969 37.1035C85.4317 36.4138 83.6469 36.0587 81.8445 36.0587Z" fill="#3F3D56"/>
<path d="M150.544 39.8535H139.68V42.1237H150.544V39.8535Z" fill="#3F3D56"/>
<path d="M160.821 27.5527H129.398V28.5257H160.821V27.5527Z" fill="#3F3D56"/>
<path d="M160.821 31.377H129.398V32.3499H160.821V31.377Z" fill="#3F3D56"/>
<path d="M160.821 35.1973H129.398V36.1702H160.821V35.1973Z" fill="#3F3D56"/>
<path d="M169.24 9.69336H164.699V14.2338H169.24V9.69336Z" fill="#63388B"/>
<path d="M171.349 16.3416H165.836V10.8281H171.349V16.3416ZM166.076 16.1019H171.11V11.0678H166.076L166.076 16.1019Z" fill="#CCCCCC"/>
<path d="M185.108 70.1851H173.756V69.3672C173.756 69.3459 173.752 69.3249 173.744 69.3052C173.736 69.2855 173.724 69.2676 173.709 69.2526C173.694 69.2375 173.676 69.2256 173.656 69.2174C173.637 69.2093 173.616 69.2051 173.594 69.2051H169.702C169.681 69.2051 169.66 69.2093 169.64 69.2174C169.621 69.2256 169.603 69.2375 169.588 69.2526C169.573 69.2676 169.561 69.2855 169.553 69.3052C169.545 69.3248 169.54 69.3459 169.54 69.3672V70.1851H167.108V69.3672C167.108 69.3459 167.104 69.3249 167.096 69.3052C167.087 69.2855 167.076 69.2676 167.06 69.2526C167.045 69.2375 167.028 69.2256 167.008 69.2174C166.988 69.2093 166.967 69.2051 166.946 69.2051H163.054C163.033 69.2051 163.012 69.2093 162.992 69.2174C162.972 69.2256 162.954 69.2375 162.939 69.2526C162.924 69.2676 162.912 69.2855 162.904 69.3052C162.896 69.3249 162.892 69.3459 162.892 69.3672V70.1851H160.459V69.3672C160.459 69.3459 160.455 69.3249 160.447 69.3052C160.439 69.2855 160.427 69.2676 160.412 69.2526C160.397 69.2375 160.379 69.2256 160.359 69.2174C160.34 69.2093 160.319 69.2051 160.297 69.2051H156.405C156.384 69.2051 156.363 69.2093 156.343 69.2174C156.324 69.2256 156.306 69.2375 156.291 69.2526C156.276 69.2676 156.264 69.2855 156.256 69.3052C156.247 69.3249 156.243 69.3459 156.243 69.3672V70.1851H153.811V69.3672C153.811 69.3459 153.807 69.3249 153.799 69.3052C153.79 69.2855 153.778 69.2676 153.763 69.2526C153.748 69.2375 153.73 69.2256 153.711 69.2174C153.691 69.2093 153.67 69.2051 153.649 69.2051H149.757C149.736 69.2051 149.715 69.2093 149.695 69.2174C149.675 69.2256 149.657 69.2375 149.642 69.2526C149.627 69.2676 149.615 69.2855 149.607 69.3052C149.599 69.3248 149.595 69.3459 149.595 69.3672V70.1851H147.162V69.3672C147.162 69.3459 147.158 69.3249 147.15 69.3052C147.142 69.2855 147.13 69.2676 147.115 69.2526C147.1 69.2375 147.082 69.2256 147.062 69.2174C147.043 69.2093 147.021 69.2051 147 69.2051H143.108C143.087 69.2051 143.066 69.2093 143.046 69.2174C143.027 69.2256 143.009 69.2375 142.994 69.2526C142.979 69.2676 142.967 69.2855 142.959 69.3052C142.95 69.3249 142.946 69.3459 142.946 69.3672V70.1851H140.514V69.3672C140.514 69.3459 140.51 69.3249 140.501 69.3052C140.493 69.2855 140.481 69.2676 140.466 69.2526C140.451 69.2375 140.433 69.2256 140.414 69.2174C140.394 69.2093 140.373 69.2051 140.352 69.2051H136.46C136.439 69.2051 136.417 69.2093 136.398 69.2174C136.378 69.2256 136.36 69.2375 136.345 69.2526C136.33 69.2676 136.318 69.2855 136.31 69.3052C136.302 69.3249 136.298 69.3459 136.298 69.3672V70.1851H133.865V69.3672C133.865 69.3459 133.861 69.3249 133.853 69.3052C133.845 69.2855 133.833 69.2676 133.818 69.2526C133.803 69.2375 133.785 69.2256 133.765 69.2174C133.745 69.2093 133.724 69.2051 133.703 69.2051H103.217C103.196 69.2051 103.175 69.2093 103.155 69.2174C103.135 69.2256 103.117 69.2375 103.102 69.2526C103.087 69.2676 103.075 69.2855 103.067 69.3052C103.059 69.3249 103.055 69.3459 103.055 69.3672V70.1851H100.623V69.3672C100.623 69.3459 100.618 69.3249 100.61 69.3052C100.602 69.2855 100.59 69.2676 100.575 69.2526C100.56 69.2375 100.542 69.2256 100.522 69.2174C100.503 69.2093 100.482 69.2051 100.46 69.2051H96.5686C96.5473 69.2051 96.5262 69.2093 96.5065 69.2174C96.4868 69.2256 96.4689 69.2375 96.4539 69.2526C96.4388 69.2676 96.4269 69.2855 96.4187 69.3052C96.4106 69.3249 96.4064 69.3459 96.4064 69.3672V70.1851H93.974V69.3672C93.974 69.3459 93.9698 69.3249 93.9617 69.3052C93.9535 69.2855 93.9416 69.2676 93.9265 69.2526C93.9115 69.2375 93.8936 69.2256 93.8739 69.2174C93.8542 69.2093 93.8331 69.2051 93.8119 69.2051H89.92C89.8987 69.2051 89.8776 69.2093 89.8579 69.2174C89.8383 69.2256 89.8204 69.2375 89.8053 69.2526C89.7903 69.2676 89.7783 69.2855 89.7702 69.3052C89.762 69.3249 89.7578 69.3459 89.7578 69.3672V70.1851H87.3255V69.3672C87.3255 69.3459 87.3213 69.3249 87.3131 69.3052C87.305 69.2855 87.293 69.2676 87.278 69.2526C87.2629 69.2375 87.245 69.2256 87.2253 69.2174C87.2057 69.2093 87.1846 69.2051 87.1633 69.2051H83.2715C83.2502 69.2051 83.2291 69.2093 83.2094 69.2174C83.1897 69.2256 83.1719 69.2375 83.1568 69.2526C83.1417 69.2676 83.1298 69.2855 83.1216 69.3052C83.1135 69.3249 83.1093 69.3459 83.1093 69.3672V70.1851H80.6769V69.3672C80.6769 69.3459 80.6727 69.3249 80.6646 69.3052C80.6564 69.2855 80.6445 69.2676 80.6294 69.2526C80.6144 69.2375 80.5965 69.2256 80.5768 69.2174C80.5571 69.2093 80.5361 69.2051 80.5148 69.2051H76.6229C76.6016 69.2051 76.5805 69.2093 76.5609 69.2174C76.5412 69.2256 76.5233 69.2375 76.5083 69.2526C76.4932 69.2676 76.4813 69.2855 76.4731 69.3052C76.465 69.3249 76.4608 69.3459 76.4608 69.3672V70.1851H74.0284V69.3672C74.0284 69.3459 74.0242 69.3249 74.016 69.3052C74.0079 69.2855 73.9959 69.2676 73.9809 69.2526C73.9658 69.2375 73.9479 69.2256 73.9283 69.2174C73.9086 69.2093 73.8875 69.2051 73.8662 69.2051H69.9744C69.9314 69.2051 69.8901 69.2222 69.8597 69.2526C69.8293 69.283 69.8122 69.3242 69.8122 69.3672V70.1851H67.3798V69.3672C67.3798 69.3459 67.3756 69.3249 67.3675 69.3052C67.3593 69.2855 67.3474 69.2676 67.3323 69.2526C67.3173 69.2375 67.2994 69.2256 67.2797 69.2174C67.2601 69.2093 67.239 69.2051 67.2177 69.2051H63.3258C63.2828 69.2051 63.2416 69.2222 63.2112 69.2526C63.1808 69.283 63.1637 69.3242 63.1637 69.3672V70.1851H55.7043C54.6721 70.1851 53.6822 70.5951 52.9524 71.325C52.2225 72.0548 51.8125 73.0447 51.8125 74.0769V75.8367C51.8125 76.8689 52.2225 77.8588 52.9524 78.5886C53.6822 79.3185 54.6721 79.7285 55.7043 79.7285H185.108C186.14 79.7285 187.13 79.3185 187.86 78.5886C188.589 77.8588 188.999 76.8689 188.999 75.8367V74.0769C188.999 73.5658 188.899 73.0598 188.703 72.5876C188.508 72.1154 188.221 71.6864 187.86 71.325C187.498 70.9636 187.069 70.6769 186.597 70.4813C186.125 70.2858 185.619 70.1851 185.108 70.1851Z" fill="#3F3D56"/>
</svg>
