<svg width="155" height="100" viewBox="0 0 155 100" fill="none" xmlns="http://www.w3.org/2000/svg">
<path d="M25.0851 46.5647C27.3456 46.5647 29.178 44.7323 29.178 42.4718C29.178 40.2114 27.3456 38.3789 25.0851 38.3789C22.8246 38.3789 20.9922 40.2114 20.9922 42.4718C20.9922 44.7323 22.8246 46.5647 25.0851 46.5647Z" fill="#FFB8B8"/>
<path d="M11.2578 91.5207L12.2942 93.2814L19.5785 90.1219L18.0488 87.5234L11.2578 91.5207Z" fill="#FFB8B8"/>
<path d="M11.5667 90.7324L13.6076 94.1997C13.7784 94.4899 13.8904 94.811 13.9372 95.1445C13.9839 95.4779 13.9646 95.8173 13.8801 96.1433C13.7957 96.4693 13.6479 96.7754 13.4452 97.0442C13.2424 97.3131 12.9887 97.5394 12.6986 97.7101L12.6267 97.7524L9.28516 92.0754L11.5667 90.7324Z" fill="#2F2E41"/>
<path d="M23.266 97.8628L25.309 97.8626L26.2809 89.9824L23.2656 89.9826L23.266 97.8628Z" fill="#FFB8B8"/>
<path d="M22.7422 97.1955L26.7656 97.1954C27.1023 97.1954 27.4359 97.2617 27.747 97.3905C28.0581 97.5194 28.3407 97.7082 28.5788 97.9463C28.8169 98.1844 29.0058 98.4671 29.1346 98.7782C29.2635 99.0892 29.3298 99.4227 29.3298 99.7594V99.8427L22.7423 99.8429L22.7422 97.1955Z" fill="#2F2E41"/>
<path d="M15.0484 93.0877C14.9308 93.0878 14.8149 93.0602 14.71 93.0071C14.6051 92.9541 14.5141 92.877 14.4445 92.7823L12.4742 90.1062C12.4141 90.0246 12.3711 89.9316 12.348 89.8329C12.3248 89.7343 12.3219 89.6319 12.3394 89.532C12.3569 89.4322 12.3945 89.3369 12.4499 89.252C12.5052 89.1671 12.5773 89.0943 12.6616 89.038L21.4293 83.1819L16.139 69.2715L27.4522 70.2051L27.8333 82.159C27.869 83.2476 27.6081 84.3255 27.0784 85.2772C26.5487 86.229 25.7702 87.0188 24.8262 87.5621L15.4231 92.987C15.3092 93.053 15.18 93.0877 15.0484 93.0877Z" fill="#2F2E41"/>
<path d="M23.3267 96.262C23.1327 96.2617 22.9463 96.1861 22.8068 96.0512C22.6674 95.9164 22.5856 95.7327 22.5787 95.5388L22.1641 83.8935L27.2981 83.623L26.8893 95.352C26.8832 95.5378 26.8082 95.7147 26.6788 95.8482C26.5494 95.9817 26.3749 96.0622 26.1894 96.0741L23.3777 96.2604C23.3606 96.2615 23.3436 96.262 23.3267 96.262Z" fill="#2F2E41"/>
<path d="M28.7644 72.5176C27.4582 72.5176 22.8959 71.0484 21.312 70.5247C21.075 70.7143 19.7733 71.6876 18.2539 71.5097C17.3164 71.3997 16.491 70.869 15.8008 69.9323C14.2765 67.8636 16.1591 58.992 18.0069 51.9139C18.3774 50.4832 19.2881 49.2518 20.5476 48.4786C21.8071 47.7054 23.3173 47.4507 24.7607 47.7679C25.8069 47.9988 26.768 48.5169 27.5359 49.264C28.3039 50.0111 28.8483 50.9575 29.1081 51.9969C29.4559 53.413 29.1567 55.0788 28.9382 56.2953C28.8354 56.8671 28.7543 57.3189 28.782 57.5409C28.8893 58.3988 29.485 71.8541 29.102 72.4287C29.0611 72.4899 28.9432 72.5176 28.7644 72.5176Z" fill="#63388B"/>
<path d="M23.9853 72.5416C24.1952 72.3853 24.3683 72.1849 24.4924 71.9545C24.6165 71.724 24.6886 71.4692 24.7035 71.2079C24.7185 70.9466 24.676 70.6853 24.579 70.4422C24.482 70.1991 24.3329 69.9802 24.1422 69.801L24.2231 53.4961L20.3828 54.1356L21.5109 69.9617C21.231 70.3021 21.0857 70.7332 21.1026 71.1735C21.1194 71.6138 21.2972 72.0327 21.6022 72.3507C21.9072 72.6687 22.3182 72.8638 22.7574 72.8989C23.1967 72.9341 23.6335 72.807 23.9853 72.5416Z" fill="#FFB8B8"/>
<path d="M24.8708 63.9678H20.7344C20.5368 63.9673 20.3475 63.889 20.2072 63.75C20.0669 63.6109 19.9869 63.4223 19.9845 63.2248L19.8829 52.011C19.8794 51.6233 19.9528 51.2387 20.0989 50.8795C20.2449 50.5203 20.4608 50.1936 20.7339 49.9184C21.007 49.6431 21.332 49.4247 21.69 49.2758C22.048 49.127 22.432 49.0506 22.8198 49.051C23.2076 49.0515 23.5914 49.1288 23.9491 49.2786C24.3067 49.4283 24.6312 49.6475 24.9036 49.9235C25.1761 50.1994 25.3911 50.5266 25.5363 50.8861C25.6814 51.2457 25.7539 51.6305 25.7494 52.0182L25.6206 63.2266C25.6177 63.4237 25.5374 63.6119 25.3972 63.7505C25.257 63.8891 25.0679 63.9672 24.8708 63.9678Z" fill="#63388B"/>
<path d="M24.0425 46.5492C22.1685 46.5526 20.4006 45.0714 20.0759 43.2258C19.9596 42.5008 20.012 41.7587 20.2291 41.0572C20.4647 40.2586 20.8688 39.5198 21.4142 38.8906C21.9595 38.2615 22.6334 37.7565 23.3904 37.4098C24.1474 37.0631 24.97 36.8828 25.8026 36.8809C26.6352 36.879 27.4586 37.0556 28.2172 37.3989C28.7185 37.6258 29.2123 37.9516 29.4418 38.4517C29.6713 38.9517 29.5277 39.6507 29.0255 39.8757C28.6974 40.0228 28.2856 39.9506 27.9945 40.1616C27.5763 40.4648 27.684 41.1101 27.8707 41.5916C28.0574 42.0732 28.2686 42.656 27.9556 43.0668C27.6639 43.4496 27.0809 43.4378 26.6217 43.2937C26.1625 43.1496 25.7093 42.9083 25.2305 42.9573C24.5322 43.0289 24.0304 43.7235 23.9375 44.4193C23.8446 45.1151 24.0633 45.8106 24.2791 46.4785L24.0425 46.5492Z" fill="#2F2E41"/>
<path d="M43.1605 99.9993H0.166643C0.122446 99.9993 0.08006 99.9817 0.0488084 99.9505C0.0175568 99.9192 0 99.8769 0 99.8327C0 99.7885 0.0175568 99.7461 0.0488084 99.7148C0.08006 99.6836 0.122446 99.666 0.166643 99.666H43.1605C43.2047 99.666 43.2471 99.6836 43.2783 99.7148C43.3096 99.7461 43.3271 99.7885 43.3271 99.8327C43.3271 99.8769 43.3096 99.9192 43.2783 99.9505C43.2471 99.9817 43.2047 99.9993 43.1605 99.9993Z" fill="#CCCCCC"/>
<path d="M151.666 72.4144H44.8746C44.1456 72.4135 43.4467 72.1236 42.9313 71.6081C42.4158 71.0926 42.1258 70.3937 42.125 69.6648V3.81522C42.1256 3.28116 42.338 2.76913 42.7156 2.39148C43.0933 2.01383 43.6053 1.8014 44.1394 1.80078H152.366C152.909 1.8014 153.43 2.0175 153.814 2.40168C154.199 2.78586 154.415 3.30674 154.415 3.85005V69.6648C154.415 70.3937 154.125 71.0926 153.609 71.6081C153.094 72.1236 152.395 72.4135 151.666 72.4144Z" fill="#F2F2F2"/>
<path d="M148.211 68.943H48.6849C47.226 68.943 46.0391 67.8315 46.0391 66.4653V9.1227C46.0391 8.1095 46.9186 7.28516 47.9997 7.28516H148.864C149.963 7.28516 150.857 8.12309 150.857 9.15297V66.4653C150.857 67.8315 149.67 68.943 148.211 68.943Z" fill="white"/>
<path d="M154.377 4.15777H42.0859V2.7579C42.087 2.02649 42.3781 1.32537 42.8955 0.808338C43.4128 0.291311 44.1141 0.000606475 44.8455 0H151.617C152.348 0.000600307 153.05 0.291302 153.567 0.80833C154.084 1.32536 154.376 2.02649 154.377 2.7579V4.15777Z" fill="#3F3D56"/>
<path d="M47.1005 2.79674C47.4947 2.79674 47.8143 2.47716 47.8143 2.08294C47.8143 1.68872 47.4947 1.36914 47.1005 1.36914C46.7063 1.36914 46.3867 1.68872 46.3867 2.08294C46.3867 2.47716 46.7063 2.79674 47.1005 2.79674Z" fill="white"/>
<path d="M49.8115 2.79674C50.2057 2.79674 50.5253 2.47716 50.5253 2.08294C50.5253 1.68872 50.2057 1.36914 49.8115 1.36914C49.4172 1.36914 49.0977 1.68872 49.0977 2.08294C49.0977 2.47716 49.4172 2.79674 49.8115 2.79674Z" fill="white"/>
<path d="M52.5185 2.79674C52.9127 2.79674 53.2323 2.47716 53.2323 2.08294C53.2323 1.68872 52.9127 1.36914 52.5185 1.36914C52.1243 1.36914 51.8047 1.68872 51.8047 2.08294C51.8047 2.47716 52.1243 2.79674 52.5185 2.79674Z" fill="white"/>
<path d="M96.0907 19.8232H76.6254C76.3352 19.8232 76.0569 19.7079 75.8517 19.5027C75.6465 19.2975 75.5312 19.0192 75.5312 18.729C75.5312 18.4388 75.6465 18.1605 75.8517 17.9553C76.0569 17.75 76.3352 17.6348 76.6254 17.6348H96.0907C96.3809 17.6348 96.6592 17.75 96.8644 17.9553C97.0696 18.1605 97.1849 18.4388 97.1849 18.729C97.1849 19.0192 97.0696 19.2975 96.8644 19.5027C96.6592 19.7079 96.3809 19.8232 96.0907 19.8232Z" fill="#CCCCCC"/>
<path d="M120.278 19.8232H100.813C100.523 19.8232 100.244 19.7079 100.039 19.5027C99.834 19.2975 99.7188 19.0192 99.7188 18.729C99.7188 18.4388 99.834 18.1605 100.039 17.9553C100.244 17.75 100.523 17.6348 100.813 17.6348H120.278C120.568 17.6348 120.847 17.75 121.052 17.9553C121.257 18.1605 121.372 18.4388 121.372 18.729C121.372 19.0192 121.257 19.2975 121.052 19.5027C120.847 19.7079 120.568 19.8232 120.278 19.8232Z" fill="#CCCCCC"/>
<path d="M120.277 23.9696H86.4145C86.1243 23.9696 85.846 23.8544 85.6408 23.6492C85.4356 23.444 85.3203 23.1656 85.3203 22.8754C85.3203 22.5852 85.4356 22.3069 85.6408 22.1017C85.846 21.8965 86.1243 21.7813 86.4145 21.7813H120.277C120.567 21.7812 120.846 21.8965 121.051 22.1017C121.256 22.3069 121.371 22.5852 121.371 22.8754C121.371 23.1656 121.256 23.444 121.051 23.6492C120.846 23.8544 120.567 23.9696 120.277 23.9696Z" fill="#CCCCCC"/>
<path d="M96.0893 15.6181H76.6241C76.3341 15.6177 76.0562 15.5023 75.8513 15.2971C75.6464 15.092 75.5312 14.8139 75.5312 14.5239C75.5312 14.2339 75.6464 13.9558 75.8513 13.7506C76.0562 13.5455 76.3341 13.43 76.6241 13.4297H96.0893C96.2331 13.4295 96.3756 13.4577 96.5085 13.5126C96.6414 13.5675 96.7622 13.6481 96.8639 13.7497C96.9657 13.8513 97.0464 13.972 97.1015 14.1048C97.1565 14.2377 97.1849 14.3801 97.1849 14.5239C97.1849 14.6677 97.1565 14.8101 97.1015 14.9429C97.0464 15.0758 96.9657 15.1965 96.8639 15.2981C96.7622 15.3997 96.6414 15.4803 96.5085 15.5352C96.3756 15.5901 96.2331 15.6183 96.0893 15.6181Z" fill="#CCCCCC"/>
<path d="M106.799 15.6767H101.27C100.98 15.6767 100.701 15.5614 100.496 15.3562C100.291 15.151 100.176 14.8727 100.176 14.5825C100.176 14.2923 100.291 14.014 100.496 13.8088C100.701 13.6036 100.98 13.4883 101.27 13.4883H106.799C107.089 13.4883 107.367 13.6036 107.572 13.8088C107.777 14.014 107.893 14.2923 107.893 14.5825C107.893 14.8727 107.777 15.151 107.572 15.3562C107.367 15.5614 107.089 15.6767 106.799 15.6767Z" fill="#CCCCCC"/>
<path d="M82.1527 23.9696H76.6241C76.3341 23.9693 76.0562 23.8539 75.8513 23.6487C75.6464 23.4435 75.5312 23.1654 75.5313 22.8754C75.5312 22.5855 75.6464 22.3074 75.8513 22.1022C76.0562 21.897 76.3341 21.7816 76.6241 21.7813H82.1527C82.2965 21.7811 82.4389 21.8092 82.5718 21.8642C82.7047 21.9191 82.8255 21.9996 82.9273 22.1013C83.029 22.2029 83.1097 22.3236 83.1648 22.4564C83.2199 22.5892 83.2482 22.7316 83.2482 22.8754C83.2482 23.0193 83.2199 23.1616 83.1648 23.2945C83.1097 23.4273 83.029 23.548 82.9273 23.6496C82.8255 23.7513 82.7047 23.8318 82.5718 23.8867C82.4389 23.9417 82.2965 23.9698 82.1527 23.9696Z" fill="#CCCCCC"/>
<path d="M96.0907 58.6513H76.6254C76.3352 58.6513 76.0569 58.536 75.8517 58.3308C75.6465 58.1256 75.5312 57.8473 75.5312 57.5571C75.5312 57.2669 75.6465 56.9886 75.8517 56.7834C76.0569 56.5782 76.3352 56.4629 76.6254 56.4629H96.0907C96.2344 56.4629 96.3767 56.4912 96.5094 56.5462C96.6422 56.6012 96.7628 56.6818 96.8644 56.7834C96.966 56.885 97.0466 57.0056 97.1016 57.1384C97.1566 57.2711 97.1849 57.4134 97.1849 57.5571C97.1849 57.7008 97.1566 57.8431 97.1016 57.9758C97.0466 58.1086 96.966 58.2292 96.8644 58.3308C96.7628 58.4324 96.6422 58.513 96.5094 58.568C96.3767 58.623 96.2344 58.6513 96.0907 58.6513Z" fill="#CCCCCC"/>
<path d="M120.278 58.6513H100.813C100.523 58.6513 100.244 58.536 100.039 58.3308C99.834 58.1256 99.7188 57.8473 99.7188 57.5571C99.7188 57.2669 99.834 56.9886 100.039 56.7834C100.244 56.5782 100.523 56.4629 100.813 56.4629H120.278C120.422 56.4629 120.564 56.4912 120.697 56.5462C120.83 56.6012 120.95 56.6818 121.052 56.7834C121.154 56.885 121.234 57.0056 121.289 57.1384C121.344 57.2711 121.372 57.4134 121.372 57.5571C121.372 57.7008 121.344 57.8431 121.289 57.9758C121.234 58.1086 121.154 58.2292 121.052 58.3308C120.95 58.4324 120.83 58.513 120.697 58.568C120.564 58.623 120.422 58.6513 120.278 58.6513Z" fill="#CCCCCC"/>
<path d="M120.277 62.7978H86.4145C86.1243 62.7978 85.846 62.6825 85.6408 62.4773C85.4356 62.2721 85.3203 61.9938 85.3203 61.7036C85.3203 61.4134 85.4356 61.1351 85.6408 60.9299C85.846 60.7247 86.1243 60.6094 86.4145 60.6094H120.277C120.421 60.6092 120.563 60.6374 120.696 60.6923C120.829 60.7472 120.95 60.8278 121.052 60.9294C121.153 61.031 121.234 61.1517 121.289 61.2845C121.344 61.4174 121.373 61.5598 121.373 61.7036C121.373 61.8474 121.344 61.9898 121.289 62.1226C121.234 62.2555 121.153 62.3761 121.052 62.4778C120.95 62.5794 120.829 62.66 120.696 62.7149C120.563 62.7698 120.421 62.798 120.277 62.7978Z" fill="#CCCCCC"/>
<path d="M96.0907 54.4462H76.6254C76.3352 54.4462 76.0569 54.3309 75.8517 54.1257C75.6465 53.9205 75.5313 53.6422 75.5312 53.352C75.5313 53.0618 75.6465 52.7835 75.8517 52.5783C76.0569 52.3731 76.3352 52.2578 76.6254 52.2578H96.0907C96.3809 52.2578 96.6592 52.3731 96.8644 52.5783C97.0696 52.7835 97.1849 53.0618 97.1849 53.352C97.1849 53.6422 97.0696 53.9205 96.8644 54.1257C96.6592 54.3309 96.3809 54.4462 96.0907 54.4462Z" fill="#CCCCCC"/>
<path d="M106.799 54.5048H101.27C100.98 54.5048 100.701 54.3895 100.496 54.1843C100.291 53.9791 100.176 53.7008 100.176 53.4106C100.176 53.1204 100.291 52.8421 100.496 52.6369C100.701 52.4317 100.98 52.3164 101.27 52.3164H106.799C107.089 52.3164 107.367 52.4317 107.572 52.6369C107.777 52.8421 107.893 53.1204 107.893 53.4106C107.893 53.7008 107.777 53.9791 107.572 54.1843C107.367 54.3895 107.089 54.5048 106.799 54.5048Z" fill="#CCCCCC"/>
<path d="M82.154 62.7978H76.6254C76.3352 62.7978 76.0569 62.6825 75.8517 62.4773C75.6465 62.2721 75.5313 61.9938 75.5312 61.7036C75.5313 61.4134 75.6465 61.1351 75.8517 60.9299C76.0569 60.7247 76.3352 60.6094 76.6254 60.6094H82.154C82.2978 60.6092 82.4403 60.6374 82.5732 60.6923C82.7061 60.7472 82.8269 60.8278 82.9286 60.9294C83.0304 61.031 83.1111 61.1517 83.1662 61.2845C83.2212 61.4174 83.2496 61.5598 83.2496 61.7036C83.2496 61.8474 83.2212 61.9898 83.1662 62.1226C83.1111 62.2555 83.0304 62.3761 82.9286 62.4778C82.8269 62.5794 82.7061 62.66 82.5732 62.7149C82.4403 62.7698 82.2978 62.798 82.154 62.7978Z" fill="#CCCCCC"/>
<path d="M91.0032 46.9038C90.5901 46.9048 90.1934 46.7424 89.8994 46.4522L82.5824 39.2267C82.4387 39.0848 82.3247 38.9159 82.2468 38.7296C82.169 38.5433 82.1289 38.3434 82.1289 38.1416C82.1289 37.9397 82.169 37.7398 82.2468 37.5535C82.3247 37.3673 82.4387 37.1983 82.5824 37.0564L89.8699 29.8601C90.1735 29.5617 90.5825 29.3952 91.0081 29.3965C91.4338 29.3978 91.8417 29.567 92.1435 29.8672C92.4455 30.1699 92.6151 30.58 92.6151 31.0076C92.6151 31.4352 92.4455 31.8453 92.1435 32.148L86.7283 37.5634C86.5596 37.7325 86.4648 37.9616 86.4648 38.2005C86.4648 38.4394 86.5596 38.6685 86.7283 38.8376L92.1141 44.2235C92.3341 44.443 92.4839 44.7229 92.5446 45.0276C92.6054 45.3323 92.5743 45.6483 92.4553 45.9353C92.3363 46.2224 92.1348 46.4676 91.8763 46.6401C91.6178 46.8125 91.3139 46.9043 91.0032 46.9038Z" fill="#63388B"/>
<path d="M102.663 46.9038C102.353 46.9043 102.049 46.8125 101.79 46.6401C101.532 46.4676 101.33 46.2224 101.211 45.9353C101.092 45.6483 101.061 45.3324 101.122 45.0276C101.183 44.7229 101.333 44.443 101.553 44.2235L106.938 38.8376C107.107 38.6685 107.202 38.4394 107.202 38.2005C107.202 37.9616 107.107 37.7325 106.938 37.5634L101.523 32.148C101.373 31.9983 101.255 31.8205 101.174 31.6248C101.092 31.4291 101.051 31.2194 101.051 31.0076C101.051 30.7958 101.093 30.5861 101.174 30.3905C101.255 30.1948 101.373 30.017 101.523 29.8673C101.825 29.567 102.233 29.3978 102.659 29.3965C103.084 29.3952 103.493 29.5617 103.797 29.8601L111.084 37.0564C111.228 37.1983 111.342 37.3673 111.42 37.5535C111.498 37.7398 111.538 37.9397 111.538 38.1416C111.538 38.3435 111.498 38.5433 111.42 38.7296C111.342 38.9159 111.228 39.0848 111.084 39.2267L103.767 46.4522C103.473 46.7424 103.077 46.9047 102.663 46.9038Z" fill="#63388B"/>
</svg>
