<svg width="103" height="105" viewBox="0 0 103 105" fill="none" xmlns="http://www.w3.org/2000/svg">
<path d="M102.069 0H99.3198C99.2348 0.000295669 99.1535 0.0342789 99.0936 0.0945031C99.0336 0.154727 99 0.236281 99 0.321291V3.07343C99 3.15831 99.0337 3.23972 99.0937 3.29974C99.1536 3.35976 99.235 3.39349 99.3198 3.39351H102.069C102.154 3.39354 102.235 3.35987 102.296 3.29987C102.356 3.23987 102.39 3.15844 102.39 3.07343V0.321291C102.39 0.236154 102.356 0.154575 102.296 0.0943749C102.236 0.0341753 102.154 0.000247439 102.069 0Z" fill="#E6E6E6"/>
<path d="M102.069 4.6875H99.3198C99.2348 4.6878 99.1535 4.72178 99.0935 4.78201C99.0336 4.84224 99 4.9238 99 5.00881V7.76095C99 7.84583 99.0337 7.92723 99.0937 7.98725C99.1536 8.04728 99.235 8.081 99.3198 8.08102H102.069C102.154 8.08105 102.235 8.04738 102.296 7.98738C102.356 7.92739 102.39 7.84596 102.39 7.76095V5.00881C102.39 4.92367 102.356 4.84209 102.296 4.78188C102.236 4.72168 102.154 4.68775 102.069 4.6875Z" fill="#E6E6E6"/>
<path d="M102.069 9.37891H99.3198C99.2348 9.37921 99.1535 9.41319 99.0935 9.47342C99.0336 9.53365 99 9.61521 99 9.70023V12.4511C98.9999 12.4933 99.0081 12.535 99.0241 12.5739C99.0401 12.6129 99.0636 12.6483 99.0933 12.6781C99.123 12.708 99.1583 12.7317 99.1972 12.7479C99.236 12.764 99.2777 12.7724 99.3198 12.7724H102.069C102.154 12.7724 102.236 12.7385 102.296 12.6783C102.356 12.618 102.39 12.5363 102.39 12.4511V9.70023C102.39 9.61509 102.356 9.5335 102.296 9.4733C102.236 9.41309 102.154 9.37916 102.069 9.37891Z" fill="#63388B"/>
<path d="M102.069 14.0684H99.3198C99.2348 14.0687 99.1535 14.1027 99.0936 14.1629C99.0336 14.2231 99 14.3047 99 14.3897V17.1406C98.9999 17.1827 99.0081 17.2244 99.0241 17.2634C99.0401 17.3024 99.0636 17.3378 99.0933 17.3676C99.123 17.3975 99.1583 17.4211 99.1972 17.4373C99.236 17.4535 99.2777 17.4618 99.3198 17.4619H102.069C102.154 17.4619 102.236 17.428 102.296 17.3677C102.356 17.3075 102.39 17.2258 102.39 17.1406V14.3897C102.39 14.3045 102.356 14.223 102.296 14.1628C102.236 14.1025 102.154 14.0686 102.069 14.0684Z" fill="#E6E6E6"/>
<path d="M102.069 18.7578H99.3198C99.2777 18.7579 99.236 18.7662 99.1972 18.7824C99.1583 18.7986 99.123 18.8222 99.0933 18.8521C99.0636 18.8819 99.0401 18.9174 99.0241 18.9563C99.0081 18.9953 98.9999 19.037 99 19.0791V21.83C98.9999 21.8721 99.0081 21.9139 99.0241 21.9528C99.0401 21.9918 99.0636 22.0272 99.0933 22.0571C99.123 22.0869 99.1583 22.1106 99.1972 22.1268C99.236 22.1429 99.2777 22.1513 99.3198 22.1513H102.069C102.154 22.1513 102.236 22.1174 102.296 22.0572C102.356 21.9969 102.39 21.9152 102.39 21.83V19.0791C102.39 18.9939 102.356 18.9122 102.296 18.852C102.236 18.7917 102.154 18.7579 102.069 18.7578Z" fill="#E6E6E6"/>
<path d="M94.6724 60.6452C94.6861 71.9737 90.3118 82.8665 82.4692 91.0336C81.9964 91.5291 81.5108 92.0127 81.0125 92.4844C80.2532 93.2074 79.4685 93.9023 78.6582 94.5692C71.0786 100.82 61.6162 104.333 51.7976 104.541C51.4705 104.548 51.1421 104.552 50.8125 104.552C42.9819 104.552 33.133 100.365 24.1951 94.5692C23.4556 94.0897 22.7227 93.5991 21.9964 93.0974C21.6569 92.865 21.319 92.6294 20.9828 92.3905C17.5356 89.9538 14.2635 87.2779 11.1907 84.3825C9.17874 82.4923 7.2921 80.4729 5.54274 78.3369C-1.32488 69.8568 -2.83963 62.2159 6.95132 60.6452C8.11053 60.4598 9.23559 60.2616 10.3265 60.0507C11.9067 59.7467 13.419 59.4184 14.8633 59.0658C16.8089 58.5925 18.6368 58.0792 20.3471 57.526C20.9224 57.3406 21.4845 57.1515 22.0334 56.9587C30.1491 54.1053 35.581 50.3843 39.2784 46.3469C39.9055 45.6635 40.4837 44.9719 41.0129 44.272C41.8225 43.2067 42.558 42.0869 43.214 40.9205C44.1195 39.2998 44.88 37.6022 45.4868 35.8475L45.5201 35.7511C48.462 27.2562 47.5669 19.3767 50.8125 16.7395C64.686 5.46525 81.9581 21.5208 90.0652 40.4546C90.4738 41.4086 90.8582 42.3684 91.2182 43.334C91.3799 43.7653 91.5359 44.1974 91.6861 44.6304C92.0811 45.7586 92.4396 46.8898 92.7614 48.0239C92.8848 48.4564 93.0025 48.8885 93.1144 49.3202C93.2342 49.7861 93.349 50.2508 93.4552 50.7155C94.244 54.1176 94.6724 57.4728 94.6724 60.6452Z" fill="#F2F2F2"/>
<path d="M51.7973 104.539C51.4702 104.547 51.1418 104.551 50.8122 104.551C42.9816 104.551 33.1327 100.364 24.1948 94.5677C23.4553 94.0882 22.7224 93.5976 21.9961 93.0958L22.6331 89.2154L41.9175 86.6523L51.5961 94.061L51.7973 104.539Z" fill="#2F2E41"/>
<path d="M52.7252 35.252H49.9772C49.8921 35.252 49.8105 35.2859 49.7503 35.3461C49.6901 35.4063 49.6563 35.488 49.6562 35.5732V38.3254C49.6563 38.3675 49.6646 38.4092 49.6808 38.4481C49.6969 38.487 49.7206 38.5223 49.7504 38.5521C49.7802 38.5818 49.8156 38.6053 49.8545 38.6214C49.8934 38.6374 49.9351 38.6456 49.9772 38.6455H52.7252C52.8102 38.6455 52.8916 38.6118 52.9518 38.5518C53.012 38.4918 53.0459 38.4104 53.0462 38.3254V35.5732C53.046 35.4881 53.0121 35.4065 52.9519 35.3463C52.8918 35.2861 52.8103 35.2522 52.7252 35.252Z" fill="white"/>
<path d="M52.7252 39.9395H49.9772C49.8921 39.9395 49.8105 39.9734 49.7503 40.0336C49.6901 40.0939 49.6563 40.1756 49.6562 40.2608V43.0129C49.6563 43.055 49.6646 43.0967 49.6808 43.1356C49.6969 43.1745 49.7206 43.2098 49.7504 43.2396C49.7802 43.2693 49.8156 43.2928 49.8545 43.3089C49.8934 43.3249 49.9351 43.3331 49.9772 43.333H52.7252C52.8102 43.333 52.8916 43.2993 52.9518 43.2393C53.012 43.1793 53.0459 43.0979 53.0462 43.0129V40.2608C53.046 40.1756 53.0121 40.094 52.9519 40.0338C52.8918 39.9736 52.8103 39.9397 52.7252 39.9395Z" fill="#E6E6E6"/>
<path d="M52.7252 44.6309H49.9772C49.8921 44.6309 49.8105 44.6648 49.7503 44.725C49.6901 44.7853 49.6563 44.867 49.6563 44.9522V47.7031C49.6562 47.7453 49.6644 47.7871 49.6805 47.8261C49.6966 47.8652 49.7202 47.9006 49.7501 47.9305C49.7799 47.9603 49.8153 47.984 49.8543 48.0001C49.8933 48.0162 49.935 48.0245 49.9772 48.0244H52.7252C52.8104 48.0243 52.892 47.9905 52.9522 47.9302C53.0124 47.87 53.0462 47.7883 53.0462 47.7031V44.9522C53.046 44.867 53.0121 44.7855 52.9519 44.7252C52.8918 44.665 52.8103 44.6311 52.7252 44.6309Z" fill="#E6E6E6"/>
<path d="M53.0413 49.5848C53.0276 49.5108 52.9885 49.4439 52.9308 49.3956C52.8731 49.3473 52.8004 49.3207 52.7252 49.3203H49.9772C49.8921 49.3204 49.8105 49.3542 49.7503 49.4145C49.6901 49.4747 49.6563 49.5564 49.6563 49.6416V52.3925C49.6562 52.4348 49.6644 52.4766 49.6805 52.5156C49.6966 52.5546 49.7202 52.5901 49.7501 52.6199C49.7799 52.6498 49.8153 52.6734 49.8543 52.6896C49.8933 52.7057 49.935 52.7139 49.9772 52.7138H52.7252C52.8104 52.7138 52.892 52.6799 52.9522 52.6197C53.0124 52.5594 53.0462 52.4777 53.0462 52.3925V49.6416C53.0465 49.6226 53.0448 49.6035 53.0413 49.5848Z" fill="#E6E6E6"/>
<path d="M52.8499 54.0345C52.8104 54.0181 52.768 54.0097 52.7252 54.0098H49.9772C49.935 54.0097 49.8933 54.0179 49.8543 54.0341C49.8153 54.0502 49.7799 54.0738 49.7501 54.1037C49.7202 54.1335 49.6966 54.169 49.6805 54.208C49.6644 54.247 49.6562 54.2889 49.6563 54.3311V57.082C49.6561 57.1242 49.6642 57.1661 49.6803 57.2052C49.6964 57.2442 49.72 57.2797 49.7498 57.3096C49.7797 57.3395 49.8151 57.3631 49.8541 57.3792C49.8932 57.3953 49.935 57.4035 49.9772 57.4033H52.7252C52.8104 57.4033 52.892 57.3694 52.9522 57.3091C53.0124 57.2489 53.0462 57.1672 53.0462 57.082V54.3311C53.0461 54.2678 53.0274 54.206 52.9925 54.1533C52.9576 54.1006 52.908 54.0593 52.8499 54.0345Z" fill="#E6E6E6"/>
<path d="M58.4987 35.252H55.7506C55.6655 35.252 55.5839 35.2859 55.5237 35.3461C55.4636 35.4063 55.4297 35.488 55.4297 35.5732V38.3254C55.4297 38.3675 55.4381 38.4092 55.4542 38.4481C55.4704 38.487 55.494 38.5223 55.5239 38.5521C55.5537 38.5818 55.589 38.6053 55.628 38.6214C55.6669 38.6374 55.7086 38.6456 55.7506 38.6455H58.4987C58.5836 38.6455 58.6651 38.6118 58.7252 38.5518C58.7854 38.4918 58.8194 38.4104 58.8197 38.3254V35.5732C58.8194 35.4881 58.7855 35.4065 58.7254 35.3463C58.6652 35.2861 58.5837 35.2522 58.4987 35.252Z" fill="#E6E6E6"/>
<path d="M58.4987 39.9395H55.7506C55.6655 39.9395 55.5839 39.9734 55.5237 40.0336C55.4635 40.0939 55.4297 40.1756 55.4297 40.2608V43.0129C55.4297 43.055 55.4381 43.0967 55.4542 43.1356C55.4704 43.1745 55.494 43.2098 55.5239 43.2396C55.5537 43.2693 55.589 43.2928 55.628 43.3089C55.6669 43.3249 55.7086 43.3331 55.7506 43.333H58.4987C58.5836 43.333 58.6651 43.2993 58.7253 43.2393C58.7854 43.1793 58.8194 43.0979 58.8197 43.0129V40.2608C58.8194 40.1756 58.7855 40.094 58.7254 40.0338C58.6652 39.9736 58.5837 39.9397 58.4987 39.9395Z" fill="#63388B"/>
<path d="M58.4987 44.6309H55.7506C55.6655 44.6309 55.5839 44.6648 55.5237 44.725C55.4635 44.7853 55.4297 44.867 55.4297 44.9522V47.7031C55.4296 47.7453 55.4379 47.7871 55.454 47.8261C55.4701 47.8652 55.4937 47.9006 55.5235 47.9305C55.5533 47.9603 55.5887 47.984 55.6277 48.0001C55.6667 48.0162 55.7085 48.0245 55.7506 48.0244H58.4987C58.5838 48.0243 58.6654 47.9905 58.7256 47.9302C58.7858 47.87 58.8196 47.7883 58.8197 47.7031V44.9522C58.8194 44.867 58.7855 44.7855 58.7254 44.7252C58.6652 44.665 58.5837 44.6311 58.4987 44.6309Z" fill="#63388B"/>
<path d="M58.4987 49.3203H55.7506C55.6833 49.3204 55.6178 49.3416 55.5633 49.3811C55.5087 49.4206 55.4681 49.4763 55.447 49.5403C55.4355 49.5729 55.4297 49.6071 55.4297 49.6416V52.3925C55.4296 52.4347 55.4378 52.4766 55.4539 52.5156C55.47 52.5546 55.4937 52.5901 55.5235 52.6199C55.5533 52.6498 55.5887 52.6734 55.6277 52.6896C55.6667 52.7057 55.7085 52.7139 55.7506 52.7138H58.4987C58.5838 52.7138 58.6654 52.6799 58.7256 52.6197C58.7858 52.5594 58.8196 52.4777 58.8197 52.3925V49.6416C58.8194 49.5565 58.7855 49.4749 58.7254 49.4147C58.6652 49.3545 58.5837 49.3206 58.4987 49.3203Z" fill="#63388B"/>
<path d="M58.4987 54.0098H55.7506C55.7085 54.0097 55.6667 54.0179 55.6277 54.0341C55.5887 54.0502 55.5533 54.0738 55.5235 54.1037C55.4937 54.1335 55.47 54.169 55.454 54.208C55.4379 54.247 55.4296 54.2889 55.4297 54.3311V57.082C55.4296 57.1242 55.4379 57.166 55.454 57.205C55.47 57.2441 55.4937 57.2795 55.5235 57.3094C55.5533 57.3392 55.5887 57.3629 55.6277 57.379C55.6667 57.3951 55.7085 57.4034 55.7506 57.4033H58.4987C58.5838 57.4033 58.6654 57.3694 58.7256 57.3091C58.7858 57.2489 58.8196 57.1672 58.8197 57.082V54.3311C58.8196 54.2459 58.7858 54.1642 58.7256 54.1039C58.6654 54.0437 58.5838 54.0098 58.4987 54.0098Z" fill="#E6E6E6"/>
<path d="M64.2721 35.252H61.5241C61.439 35.252 61.3574 35.2859 61.2972 35.3461C61.237 35.4063 61.2032 35.488 61.2031 35.5732V38.3254C61.2032 38.3675 61.2115 38.4092 61.2277 38.4481C61.2438 38.487 61.2675 38.5223 61.2973 38.5521C61.3271 38.5818 61.3625 38.6053 61.4014 38.6214C61.4403 38.6374 61.482 38.6456 61.5241 38.6455H64.2721C64.357 38.6455 64.4385 38.6118 64.4987 38.5518C64.5589 38.4918 64.5928 38.4104 64.5931 38.3254V35.5732C64.5929 35.4881 64.5589 35.4065 64.4988 35.3463C64.4387 35.2861 64.3572 35.2522 64.2721 35.252Z" fill="#63388B"/>
<path d="M64.2721 39.9395H61.5241C61.439 39.9395 61.3574 39.9734 61.2972 40.0336C61.237 40.0939 61.2032 40.1756 61.2031 40.2608V43.0129C61.2032 43.055 61.2115 43.0967 61.2277 43.1356C61.2438 43.1745 61.2675 43.2098 61.2973 43.2396C61.3271 43.2693 61.3625 43.2928 61.4014 43.3089C61.4403 43.3249 61.482 43.3331 61.5241 43.333H64.2721C64.357 43.333 64.4385 43.2993 64.4987 43.2393C64.5589 43.1793 64.5928 43.0979 64.5931 43.0129V40.2608C64.5929 40.1756 64.559 40.094 64.4988 40.0338C64.4387 39.9736 64.3572 39.9397 64.2721 39.9395Z" fill="#63388B"/>
<path d="M64.2721 44.6309H61.5241C61.439 44.6309 61.3574 44.6648 61.2972 44.725C61.237 44.7853 61.2032 44.867 61.2031 44.9522V47.7031C61.203 47.7453 61.2113 47.7871 61.2274 47.8261C61.2435 47.8652 61.2671 47.9006 61.2969 47.9305C61.3268 47.9603 61.3622 47.984 61.4012 48.0001C61.4401 48.0162 61.4819 48.0245 61.5241 48.0244H64.2721C64.3572 48.0243 64.4389 47.9905 64.499 47.9302C64.5592 47.87 64.5931 47.7883 64.5931 47.7031V44.9522C64.5929 44.867 64.559 44.7855 64.4988 44.7252C64.4387 44.665 64.3572 44.6311 64.2721 44.6309Z" fill="#E6E6E6"/>
<path d="M64.2721 49.3203H61.5241C61.439 49.3204 61.3574 49.3542 61.2972 49.4145C61.237 49.4747 61.2032 49.5564 61.2031 49.6416V52.3925C61.203 52.4348 61.2113 52.4766 61.2274 52.5156C61.2435 52.5546 61.2671 52.5901 61.2969 52.6199C61.3268 52.6498 61.3622 52.6734 61.4012 52.6896C61.4401 52.7057 61.4819 52.7139 61.5241 52.7138H64.2721C64.3572 52.7138 64.4389 52.6799 64.499 52.6197C64.5592 52.5594 64.5931 52.4777 64.5931 52.3925V49.6416C64.5929 49.5565 64.559 49.4749 64.4988 49.4147C64.4387 49.3545 64.3572 49.3206 64.2721 49.3203Z" fill="#63388B"/>
<path d="M64.2721 54.0098H61.5241C61.4819 54.0097 61.4401 54.0179 61.4012 54.0341C61.3622 54.0502 61.3268 54.0738 61.2969 54.1037C61.2671 54.1335 61.2435 54.169 61.2274 54.208C61.2113 54.247 61.203 54.2889 61.2031 54.3311V57.082C61.203 57.1242 61.2113 57.166 61.2274 57.205C61.2435 57.2441 61.2671 57.2795 61.2969 57.3094C61.3268 57.3392 61.3622 57.3629 61.4012 57.379C61.4401 57.3951 61.4819 57.4034 61.5241 57.4033H64.2721C64.3572 57.4033 64.4389 57.3694 64.499 57.3091C64.5592 57.2489 64.5931 57.1672 64.5931 57.082V54.3311C64.5931 54.2459 64.5592 54.1642 64.499 54.1039C64.4389 54.0437 64.3572 54.0098 64.2721 54.0098Z" fill="#63388B"/>
<path d="M70.0456 35.252H67.2975C67.2124 35.252 67.1308 35.2859 67.0706 35.3461C67.0104 35.4063 66.9766 35.488 66.9766 35.5732V38.3254C66.9766 38.3675 66.9849 38.4092 67.0011 38.4481C67.0173 38.487 67.0409 38.5223 67.0707 38.5521C67.1006 38.5818 67.1359 38.6053 67.1748 38.6214C67.2138 38.6374 67.2555 38.6456 67.2975 38.6455H70.0456C70.1305 38.6455 70.212 38.6118 70.2721 38.5518C70.3323 38.4918 70.3663 38.4104 70.3666 38.3254V35.5732C70.3663 35.4881 70.3324 35.4065 70.2723 35.3463C70.2121 35.2861 70.1306 35.2522 70.0456 35.252Z" fill="#63388B"/>
<path d="M70.0456 39.9395H67.2975C67.2124 39.9395 67.1308 39.9734 67.0706 40.0336C67.0104 40.0939 66.9766 40.1756 66.9766 40.2608V43.0129C66.9766 43.055 66.9849 43.0967 67.0011 43.1356C67.0173 43.1745 67.0409 43.2098 67.0707 43.2396C67.1006 43.2693 67.1359 43.2928 67.1748 43.3089C67.2138 43.3249 67.2555 43.3331 67.2975 43.333H70.0456C70.1305 43.333 70.212 43.2993 70.2721 43.2393C70.3323 43.1793 70.3663 43.0979 70.3666 43.0129V40.2608C70.3663 40.1756 70.3324 40.094 70.2723 40.0338C70.2121 39.9736 70.1306 39.9397 70.0456 39.9395Z" fill="white"/>
<path d="M70.0456 44.6309H67.2975C67.2124 44.6309 67.1308 44.6648 67.0706 44.725C67.0104 44.7853 66.9766 44.867 66.9766 44.9522V47.7031C66.9765 47.7453 66.9847 47.7871 67.0008 47.8261C67.0169 47.8652 67.0406 47.9006 67.0704 47.9305C67.1002 47.9603 67.1356 47.984 67.1746 48.0001C67.2136 48.0162 67.2554 48.0245 67.2975 48.0244H70.0456C70.1307 48.0243 70.2123 47.9905 70.2725 47.9302C70.3327 47.87 70.3665 47.7883 70.3666 47.7031V44.9522C70.3663 44.867 70.3324 44.7855 70.2723 44.7252C70.2121 44.665 70.1306 44.6311 70.0456 44.6309Z" fill="white"/>
<path d="M70.0456 49.3203H67.2975C67.2124 49.3204 67.1308 49.3542 67.0706 49.4145C67.0104 49.4747 66.9766 49.5564 66.9766 49.6416V52.3925C66.9765 52.4348 66.9847 52.4766 67.0008 52.5156C67.0169 52.5546 67.0406 52.5901 67.0704 52.6199C67.1002 52.6498 67.1356 52.6734 67.1746 52.6896C67.2136 52.7057 67.2554 52.7139 67.2975 52.7138H70.0456C70.1307 52.7138 70.2123 52.6799 70.2725 52.6197C70.3327 52.5594 70.3665 52.4777 70.3666 52.3925V49.6416C70.3663 49.5565 70.3324 49.4749 70.2723 49.4147C70.2121 49.3545 70.1306 49.3206 70.0456 49.3203Z" fill="#E6E6E6"/>
<path d="M70.0456 54.0098H67.2975C67.2554 54.0097 67.2136 54.0179 67.1746 54.0341C67.1356 54.0502 67.1002 54.0738 67.0704 54.1037C67.0406 54.1335 67.0169 54.169 67.0008 54.208C66.9847 54.247 66.9765 54.2889 66.9766 54.3311V57.082C66.9765 57.1242 66.9847 57.166 67.0008 57.205C67.0169 57.2441 67.0406 57.2795 67.0704 57.3094C67.1002 57.3392 67.1356 57.3629 67.1746 57.379C67.2136 57.3951 67.2554 57.4034 67.2975 57.4033H70.0456C70.1307 57.4033 70.2123 57.3694 70.2725 57.3091C70.3327 57.2489 70.3665 57.1672 70.3666 57.082V54.3311C70.3665 54.2459 70.3327 54.1642 70.2725 54.1039C70.2123 54.0437 70.1307 54.0098 70.0456 54.0098Z" fill="#63388B"/>
<path d="M75.819 35.252H73.0697C72.9848 35.2522 72.9035 35.2862 72.8435 35.3465C72.7836 35.4067 72.75 35.4882 72.75 35.5732V38.3254C72.75 38.4103 72.7837 38.4917 72.8437 38.5517C72.9036 38.6117 72.9849 38.6454 73.0697 38.6455H75.819C75.9039 38.6455 75.9854 38.6118 76.0456 38.5518C76.1057 38.4918 76.1397 38.4104 76.14 38.3254V35.5732C76.1397 35.4881 76.1058 35.4065 76.0457 35.3463C75.9856 35.2861 75.9041 35.2522 75.819 35.252Z" fill="white"/>
<path d="M75.819 39.9395H73.0697C72.9848 39.9397 72.9035 39.9737 72.8435 40.034C72.7836 40.0942 72.75 40.1758 72.75 40.2608V43.0129C72.75 43.0978 72.7837 43.1792 72.8437 43.2392C72.9036 43.2992 72.9849 43.333 73.0697 43.333H75.819C75.9039 43.333 75.9854 43.2993 76.0456 43.2393C76.1057 43.1793 76.1397 43.0979 76.14 43.0129V40.2608C76.1398 40.1756 76.1059 40.094 76.0457 40.0338C75.9856 39.9736 75.9041 39.9397 75.819 39.9395Z" fill="white"/>
<path d="M75.819 44.6309H73.0697C72.9848 44.6312 72.9035 44.6651 72.8435 44.7254C72.7836 44.7856 72.75 44.8672 72.75 44.9522V47.7031C72.7499 47.7452 72.7581 47.7869 72.7741 47.8259C72.7901 47.8648 72.8136 47.9003 72.8433 47.9301C72.873 47.9599 72.9083 47.9836 72.9472 47.9998C72.986 48.016 73.0277 48.0243 73.0697 48.0244H75.819C75.9041 48.0243 75.9857 47.9905 76.0459 47.9302C76.1061 47.87 76.14 47.7883 76.14 47.7031V44.9522C76.1398 44.867 76.1059 44.7855 76.0457 44.7252C75.9856 44.665 75.9041 44.6311 75.819 44.6309Z" fill="white"/>
<path d="M75.819 49.3203H73.0697C72.9848 49.3206 72.9035 49.3546 72.8435 49.4148C72.7836 49.4751 72.75 49.5566 72.75 49.6416V52.3925C72.7499 52.4347 72.7581 52.4764 72.7741 52.5154C72.7901 52.5543 72.8136 52.5897 72.8433 52.6196C72.873 52.6494 72.9083 52.6731 72.9472 52.6893C72.986 52.7054 73.0277 52.7138 73.0697 52.7138H75.819C75.9041 52.7138 75.9857 52.6799 76.0459 52.6197C76.1061 52.5594 76.14 52.4777 76.14 52.3925V49.6416C76.1398 49.5565 76.1059 49.4749 76.0457 49.4147C75.9856 49.3545 75.9041 49.3206 75.819 49.3203Z" fill="#63388B"/>
<path d="M75.819 54.0098H73.0697C73.0277 54.0098 72.986 54.0182 72.9472 54.0343C72.9083 54.0505 72.873 54.0742 72.8433 54.104C72.8136 54.1339 72.7901 54.1693 72.7741 54.2083C72.7581 54.2472 72.7499 54.289 72.75 54.3311V57.082C72.7499 57.1241 72.7581 57.1658 72.7741 57.2048C72.7901 57.2437 72.8136 57.2792 72.8433 57.309C72.873 57.3389 72.9083 57.3625 72.9472 57.3787C72.986 57.3949 73.0277 57.4032 73.0697 57.4033H75.819C75.9041 57.4033 75.9857 57.3694 76.0459 57.3091C76.1061 57.2489 76.14 57.1672 76.14 57.082V54.3311C76.14 54.2459 76.1061 54.1642 76.0459 54.1039C75.9857 54.0437 75.9041 54.0098 75.819 54.0098Z" fill="#E6E6E6"/>
<path d="M81.5885 35.252H78.8393C78.7544 35.2522 78.673 35.2862 78.6131 35.3465C78.5531 35.4067 78.5195 35.4882 78.5195 35.5732V38.3254C78.5195 38.4103 78.5532 38.4917 78.6132 38.5517C78.6732 38.6117 78.7545 38.6454 78.8393 38.6455H81.5885C81.6735 38.6455 81.7549 38.6118 81.8151 38.5518C81.8753 38.4918 81.9092 38.4104 81.9095 38.3254V35.5732C81.9093 35.4881 81.8754 35.4065 81.8152 35.3463C81.7551 35.2861 81.6736 35.2522 81.5885 35.252Z" fill="white"/>
<path d="M81.5885 39.9395H78.8393C78.7544 39.9397 78.673 39.9737 78.6131 40.034C78.5531 40.0942 78.5195 40.1758 78.5195 40.2608V43.0129C78.5195 43.0978 78.5532 43.1792 78.6132 43.2392C78.6732 43.2992 78.7545 43.333 78.8393 43.333H81.5885C81.6735 43.333 81.7549 43.2993 81.8151 43.2393C81.8753 43.1793 81.9092 43.0979 81.9095 43.0129V40.2608C81.9093 40.1756 81.8754 40.094 81.8152 40.0338C81.7551 39.9736 81.6736 39.9397 81.5885 39.9395Z" fill="white"/>
<path d="M81.5885 44.6309H78.8393C78.7544 44.6312 78.673 44.6651 78.6131 44.7254C78.5531 44.7856 78.5195 44.8672 78.5195 44.9522V47.7031C78.5194 47.7452 78.5276 47.7869 78.5436 47.8259C78.5596 47.8648 78.5831 47.9003 78.6128 47.9301C78.6425 47.9599 78.6778 47.9836 78.7167 47.9998C78.7555 48.016 78.7972 48.0243 78.8393 48.0244H81.5885C81.6737 48.0243 81.7553 47.9905 81.8155 47.9302C81.8756 47.87 81.9095 47.7883 81.9095 47.7031V44.9522C81.9093 44.867 81.8754 44.7855 81.8152 44.7252C81.7551 44.665 81.6736 44.6311 81.5885 44.6309Z" fill="#63388B"/>
<path d="M81.5885 49.3203H78.8393C78.7544 49.3206 78.673 49.3546 78.6131 49.4148C78.5531 49.4751 78.5195 49.5566 78.5195 49.6416V52.3925C78.5194 52.4347 78.5276 52.4764 78.5436 52.5154C78.5596 52.5543 78.5831 52.5897 78.6128 52.6196C78.6425 52.6494 78.6778 52.6731 78.7167 52.6893C78.7555 52.7054 78.7972 52.7138 78.8393 52.7138H81.5885C81.6737 52.7138 81.7553 52.6799 81.8155 52.6197C81.8757 52.5594 81.9095 52.4777 81.9095 52.3925V49.6416C81.9093 49.5565 81.8754 49.4749 81.8152 49.4147C81.7551 49.3545 81.6736 49.3206 81.5885 49.3203Z" fill="#E6E6E6"/>
<path d="M81.5885 54.0098H78.8393C78.7972 54.0098 78.7555 54.0182 78.7167 54.0343C78.6778 54.0505 78.6425 54.0742 78.6128 54.104C78.5831 54.1339 78.5596 54.1693 78.5436 54.2083C78.5276 54.2472 78.5194 54.289 78.5195 54.3311V57.082C78.5194 57.1241 78.5276 57.1658 78.5436 57.2048C78.5596 57.2437 78.5831 57.2792 78.6128 57.309C78.6425 57.3389 78.6778 57.3625 78.7167 57.3787C78.7555 57.3949 78.7972 57.4032 78.8393 57.4033H81.5885C81.6737 57.4033 81.7553 57.3694 81.8155 57.3091C81.8757 57.2489 81.9095 57.1672 81.9095 57.082V54.3311C81.9095 54.2459 81.8757 54.1642 81.8155 54.1039C81.7553 54.0437 81.6737 54.0098 81.5885 54.0098Z" fill="white"/>
<path d="M87.362 35.252H84.6127C84.5278 35.2522 84.4464 35.2862 84.3865 35.3465C84.3266 35.4067 84.2929 35.4882 84.293 35.5732V38.3254C84.293 38.4103 84.3267 38.4917 84.3866 38.5517C84.4466 38.6117 84.5279 38.6454 84.6127 38.6455H87.362C87.4469 38.6455 87.5284 38.6118 87.5885 38.5518C87.6487 38.4918 87.6827 38.4104 87.683 38.3254V35.5732C87.6827 35.4881 87.6488 35.4065 87.5887 35.3463C87.5285 35.2861 87.447 35.2522 87.362 35.252Z" fill="#63388B"/>
<path d="M87.362 39.9395H84.6127C84.5278 39.9397 84.4464 39.9737 84.3865 40.034C84.3266 40.0942 84.2929 40.1758 84.293 40.2608V43.0129C84.293 43.0978 84.3267 43.1792 84.3866 43.2392C84.4466 43.2992 84.5279 43.333 84.6127 43.333H87.362C87.4469 43.333 87.5284 43.2993 87.5885 43.2393C87.6487 43.1793 87.6827 43.0979 87.683 43.0129V40.2608C87.6827 40.1756 87.6488 40.094 87.5887 40.0338C87.5285 39.9736 87.447 39.9397 87.362 39.9395Z" fill="#63388B"/>
<path d="M87.362 44.6309H84.6127C84.5278 44.6312 84.4464 44.6651 84.3865 44.7254C84.3266 44.7856 84.2929 44.8672 84.293 44.9522V47.7031C84.2929 47.7452 84.301 47.7869 84.317 47.8259C84.3331 47.8648 84.3566 47.9003 84.3863 47.9301C84.416 47.9599 84.4513 47.9836 84.4901 47.9998C84.529 48.016 84.5706 48.0243 84.6127 48.0244H87.362C87.4471 48.0243 87.5287 47.9905 87.5889 47.9302C87.6491 47.87 87.6829 47.7883 87.683 47.7031V44.9522C87.6827 44.867 87.6488 44.7855 87.5887 44.7252C87.5285 44.665 87.447 44.6311 87.362 44.6309Z" fill="#E6E6E6"/>
<path d="M87.362 49.3203H84.6127C84.5278 49.3206 84.4464 49.3546 84.3865 49.4148C84.3266 49.4751 84.2929 49.5566 84.293 49.6416V52.3925C84.2929 52.4347 84.301 52.4764 84.317 52.5154C84.3331 52.5543 84.3566 52.5897 84.3863 52.6196C84.416 52.6494 84.4513 52.6731 84.4901 52.6893C84.529 52.7054 84.5706 52.7138 84.6127 52.7138H87.362C87.4471 52.7138 87.5287 52.6799 87.5889 52.6197C87.6491 52.5594 87.6829 52.4777 87.683 52.3925V49.6416C87.6827 49.5565 87.6488 49.4749 87.5887 49.4147C87.5285 49.3545 87.447 49.3206 87.362 49.3203Z" fill="white"/>
<path d="M87.362 54.0098H84.6127C84.5706 54.0098 84.529 54.0182 84.4901 54.0343C84.4513 54.0505 84.416 54.0742 84.3863 54.104C84.3566 54.1339 84.3331 54.1693 84.317 54.2083C84.301 54.2472 84.2929 54.289 84.293 54.3311V57.082C84.2929 57.1241 84.301 57.1658 84.317 57.2048C84.3331 57.2437 84.3566 57.2792 84.3863 57.309C84.416 57.3389 84.4513 57.3625 84.4901 57.3787C84.529 57.3949 84.5706 57.4032 84.6127 57.4033H87.362C87.4471 57.4033 87.5287 57.3694 87.5889 57.3091C87.6491 57.2489 87.6829 57.1672 87.683 57.082V54.3311C87.6829 54.2459 87.6491 54.1642 87.5889 54.1039C87.5287 54.0437 87.4471 54.0098 87.362 54.0098Z" fill="#63388B"/>
<path d="M93.1315 35.252H90.3822C90.2973 35.2522 90.216 35.2862 90.156 35.3465C90.0961 35.4067 90.0625 35.4882 90.0625 35.5732V38.3254C90.0625 38.4103 90.0962 38.4917 90.1562 38.5517C90.2161 38.6117 90.2974 38.6454 90.3822 38.6455H93.1315C93.2164 38.6455 93.2979 38.6118 93.3581 38.5518C93.4182 38.4918 93.4522 38.4104 93.4525 38.3254V35.5732C93.4522 35.4881 93.4183 35.4065 93.3582 35.3463C93.2981 35.2861 93.2166 35.2522 93.1315 35.252Z" fill="#63388B"/>
<path d="M93.1315 39.9395H90.3822C90.2973 39.9397 90.216 39.9737 90.156 40.034C90.0961 40.0942 90.0625 40.1758 90.0625 40.2608V43.0129C90.0625 43.0978 90.0962 43.1792 90.1562 43.2392C90.2161 43.2992 90.2974 43.333 90.3822 43.333H93.1315C93.2164 43.333 93.2979 43.2993 93.3581 43.2393C93.4182 43.1793 93.4522 43.0979 93.4525 43.0129V40.2608C93.4522 40.1756 93.4183 40.094 93.3582 40.0338C93.2981 39.9736 93.2166 39.9397 93.1315 39.9395Z" fill="#63388B"/>
<path d="M93.1315 44.6309H90.3822C90.2973 44.6312 90.216 44.6651 90.156 44.7254C90.0961 44.7856 90.0625 44.8672 90.0625 44.9522V47.7031C90.0624 47.7452 90.0706 47.7869 90.0866 47.8259C90.1026 47.8648 90.1261 47.9003 90.1558 47.9301C90.1855 47.9599 90.2208 47.9836 90.2597 47.9998C90.2985 48.016 90.3402 48.0243 90.3822 48.0244H93.1315C93.2166 48.0243 93.2982 47.9905 93.3584 47.9302C93.4186 47.87 93.4524 47.7883 93.4525 47.7031V44.9522C93.4522 44.867 93.4183 44.7855 93.3582 44.7252C93.2981 44.665 93.2166 44.6311 93.1315 44.6309Z" fill="#E6E6E6"/>
<path d="M93.1315 49.3203H90.3822C90.2973 49.3206 90.216 49.3546 90.156 49.4148C90.0961 49.4751 90.0625 49.5566 90.0625 49.6416V52.3925C90.0624 52.4347 90.0706 52.4764 90.0866 52.5154C90.1026 52.5543 90.1261 52.5897 90.1558 52.6196C90.1855 52.6494 90.2208 52.6731 90.2597 52.6893C90.2985 52.7054 90.3402 52.7138 90.3822 52.7138H93.1315C93.2166 52.7138 93.2982 52.6799 93.3584 52.6197C93.4186 52.5594 93.4524 52.4777 93.4525 52.3925V49.6416C93.4522 49.5565 93.4183 49.4749 93.3582 49.4147C93.2981 49.3545 93.2166 49.3206 93.1315 49.3203Z" fill="#63388B"/>
<path d="M93.1315 54.0098H90.3822C90.3402 54.0098 90.2985 54.0182 90.2597 54.0343C90.2208 54.0505 90.1855 54.0742 90.1558 54.104C90.1261 54.1339 90.1026 54.1693 90.0866 54.2083C90.0706 54.2472 90.0624 54.289 90.0625 54.3311V57.082C90.0624 57.1241 90.0706 57.1658 90.0866 57.2048C90.1026 57.2437 90.1261 57.2792 90.1558 57.309C90.1855 57.3389 90.2208 57.3625 90.2596 57.3787C90.2985 57.3949 90.3402 57.4032 90.3822 57.4033H93.1315C93.2166 57.4033 93.2982 57.3694 93.3584 57.3091C93.4186 57.2489 93.4524 57.1672 93.4525 57.082V54.3311C93.4524 54.2459 93.4186 54.1642 93.3584 54.1039C93.2982 54.0437 93.2166 54.0098 93.1315 54.0098Z" fill="#63388B"/>
<path d="M98.9049 35.252H96.1557C96.0708 35.2522 95.9894 35.2862 95.9295 35.3465C95.8695 35.4067 95.8359 35.4882 95.8359 35.5732V38.3254C95.836 38.4103 95.8696 38.4917 95.9296 38.5517C95.9896 38.6117 96.0709 38.6454 96.1557 38.6455H98.9049C98.9899 38.6455 99.0713 38.6118 99.1315 38.5518C99.1917 38.4918 99.2256 38.4104 99.2259 38.3254V35.5732C99.2257 35.4881 99.1918 35.4065 99.1316 35.3463C99.0715 35.2861 98.99 35.2522 98.9049 35.252Z" fill="#E6E6E6"/>
<path d="M98.9049 39.9395H96.1557C96.0707 39.9397 95.9894 39.9737 95.9295 40.034C95.8695 40.0942 95.8359 40.1758 95.8359 40.2608V43.0129C95.836 43.0978 95.8696 43.1792 95.9296 43.2392C95.9896 43.2992 96.0709 43.333 96.1557 43.333H98.9049C98.9899 43.333 99.0713 43.2993 99.1315 43.2393C99.1917 43.1793 99.2256 43.0979 99.2259 43.0129V40.2608C99.2257 40.1756 99.1918 40.094 99.1316 40.0338C99.0715 39.9736 98.99 39.9397 98.9049 39.9395Z" fill="#63388B"/>
<path d="M98.9049 44.6309H96.1557C96.0708 44.6312 95.9894 44.6651 95.9295 44.7254C95.8695 44.7856 95.8359 44.8672 95.8359 44.9522V47.7031C95.8358 47.7452 95.844 47.7869 95.86 47.8259C95.876 47.8648 95.8996 47.9003 95.9293 47.9301C95.9589 47.9599 95.9942 47.9836 96.0331 47.9998C96.0719 48.016 96.1136 48.0243 96.1557 48.0244H98.9049C98.9901 48.0243 99.0717 47.9905 99.1319 47.9302C99.192 47.87 99.2259 47.7883 99.2259 47.7031V44.9522C99.2257 44.867 99.1918 44.7855 99.1316 44.7252C99.0715 44.665 98.99 44.6311 98.9049 44.6309Z" fill="#63388B"/>
<path d="M98.9049 49.3203H96.1557C96.0708 49.3206 95.9894 49.3546 95.9295 49.4148C95.8695 49.4751 95.8359 49.5566 95.8359 49.6416V52.3925C95.8358 52.4347 95.844 52.4764 95.86 52.5154C95.876 52.5543 95.8996 52.5897 95.9293 52.6196C95.9589 52.6494 95.9942 52.6731 96.0331 52.6893C96.0719 52.7054 96.1136 52.7138 96.1557 52.7138H98.9049C98.9901 52.7138 99.0717 52.6799 99.1319 52.6197C99.1921 52.5594 99.2259 52.4777 99.2259 52.3925V49.6416C99.2257 49.5565 99.1918 49.4749 99.1316 49.4147C99.0715 49.3545 98.99 49.3206 98.9049 49.3203Z" fill="#63388B"/>
<path d="M98.9049 54.0098H96.1557C96.1136 54.0098 96.0719 54.0182 96.0331 54.0343C95.9942 54.0505 95.9589 54.0742 95.9293 54.104C95.8996 54.1339 95.876 54.1693 95.86 54.2083C95.844 54.2472 95.8358 54.289 95.8359 54.3311V57.082C95.8358 57.1241 95.844 57.1658 95.86 57.2048C95.876 57.2437 95.8996 57.2792 95.9293 57.309C95.9589 57.3389 95.9942 57.3625 96.0331 57.3787C96.0719 57.3949 96.1136 57.4032 96.1557 57.4033H98.9049C98.9901 57.4033 99.0717 57.3694 99.1319 57.3091C99.1921 57.2489 99.2259 57.1672 99.2259 57.082V54.3311C99.2259 54.2459 99.1921 54.1642 99.1319 54.1039C99.0717 54.0437 98.9901 54.0098 98.9049 54.0098Z" fill="#E6E6E6"/>
<path d="M41.4906 94.5692H41.4141L41.4795 94.5605L41.4906 94.5692Z" fill="#2F2E41"/>
<path d="M34.9149 43.2849C39.5731 43.2849 43.3494 39.5048 43.3494 34.8417C43.3494 30.1786 39.5731 26.3984 34.9149 26.3984C30.2567 26.3984 26.4805 30.1786 26.4805 34.8417C26.4805 39.5048 30.2567 43.2849 34.9149 43.2849Z" fill="#FFB6B6"/>
<path d="M42.3006 28.6513C42.3006 28.6513 44.5066 24.4297 39.6533 24.0459C39.6533 24.0459 35.5159 20.2888 31.2986 23.3591C31.2986 23.3591 28.9983 23.3591 27.7404 25.9648C27.7404 25.9648 25.9313 25.278 25.5337 27.1162C25.5337 27.1162 24.2098 30.954 25.5337 34.4081C26.8575 37.8622 27.2972 38.2459 27.2972 38.2459C27.2972 38.2459 25.1219 31.0043 30.4168 30.6205C35.7118 30.2367 41.637 26.9243 42.0782 31.1459C42.5195 35.3675 43.1835 36.4077 43.1835 36.4077C43.1835 36.4077 47.3747 30.3784 42.3006 28.6513Z" fill="#2F2E41"/>
<path d="M56.7327 55.6487L56.7055 55.7921L56.4006 57.4036L54.2933 68.5505L54.1686 69.2068L53.9069 70.5946L53.5489 72.4878L52.7551 76.6834L52.528 77.8858L52.4428 78.3369L52.4131 78.4951L52.1773 79.7395L52.1057 80.1152L51.5305 84.3824L51.028 88.101L52.7094 89.7841L51.707 90.7876L51.049 94.5605L51.0502 94.5692H24.1958C23.1094 93.8647 22.0387 93.1385 20.9836 92.3904L21.2046 90.7345C21.2046 90.7345 21.965 87.7772 21.6453 87.4237C21.3268 87.0703 20.628 86.4388 20.628 86.4388L21.5082 84.3824L21.6305 84.097L21.4255 79.8421L21.4206 79.7395L21.3527 78.3369L21.3441 78.1564L21.3305 77.8858L21.07 72.4878L21.065 72.3988L20.9861 70.7626L20.912 69.2068L20.8799 68.5505L20.5626 61.9847L20.3478 57.5259L20.1602 53.6443L20.9144 53.3885L28.982 50.6437L32.3238 46.2949L39.2791 46.3468L42.6839 46.3728L48.3652 51.6472L49.6577 52.2651L49.6676 52.27L50.5947 52.7137L52.9452 53.837L55.4303 55.0259L56.7056 55.6351L56.7327 55.6487Z" fill="#CACACA"/>
<path d="M33.2218 81.9024C32.7121 82.1001 32.1653 82.1835 31.6199 82.1467C31.0746 82.11 30.5439 81.954 30.0653 81.6897C29.5867 81.4254 29.1718 81.0593 28.8498 80.6171C28.5278 80.175 28.3066 79.6675 28.2017 79.1305L15.0469 77.2622L19.6199 72.084L31.4109 74.652C32.3237 74.5354 33.2476 74.7581 34.0074 75.2779C34.7672 75.7976 35.3102 76.5783 35.5334 77.472C35.7566 78.3658 35.6446 79.3104 35.2185 80.1269C34.7925 80.9435 34.082 81.5752 33.2218 81.9024Z" fill="#FFB6B6"/>
<path d="M27.3563 72.4875C27.1127 72.1783 26.7677 71.9651 26.3823 71.8857L20.985 70.7623L20.4307 70.6474C20.1086 70.5801 19.8043 70.4455 19.5377 70.2523C19.2711 70.0592 19.0483 69.8119 18.8838 69.5265C18.7132 69.227 18.61 68.8939 18.5814 68.5503C18.5557 68.2379 18.593 67.9235 18.6913 67.6259L20.5616 61.9844L21.7751 58.324C21.9221 57.8825 22.0089 57.4232 22.0331 56.9584C22.1007 55.6723 21.7032 54.4048 20.9134 53.3882C20.219 52.4946 19.2559 51.8483 18.1664 51.5447C17.0769 51.2412 15.9187 51.2965 14.863 51.7025C14.8322 51.7137 14.8001 51.726 14.7692 51.7384C14.0121 52.041 13.3357 52.5157 12.7934 53.1251C12.2511 53.7344 11.8578 54.4616 11.6446 55.2493L10.3262 60.0504L7.60652 69.948C7.33428 70.9396 7.27928 71.9784 7.44529 72.9933C7.6113 74.0082 7.9944 74.9753 8.56837 75.8282C9.14235 76.6811 9.89364 77.3999 10.7708 77.9352C11.648 78.4705 12.6304 78.8098 13.6507 78.9298L21.4245 79.8418L25.0219 80.2645C25.4378 80.3145 25.8574 80.2058 26.1969 79.9601C26.5364 79.7143 26.771 79.3496 26.8539 78.9384C26.8597 78.9161 26.8642 78.8934 26.8675 78.8705L26.9539 78.3366L27.6859 73.8407L27.6933 73.795C27.7315 73.5656 27.7212 73.3307 27.6632 73.1055C27.6051 72.8804 27.5006 72.6698 27.3563 72.4875Z" fill="#CACACA"/>
<path d="M41.6008 82.0467C42.1332 82.1704 42.6863 82.1758 43.221 82.0624C43.7557 81.9491 44.2591 81.7197 44.6957 81.3905C45.1323 81.0613 45.4915 80.6403 45.748 80.1571C46.0045 79.6739 46.152 79.1403 46.1802 78.5939L58.9404 74.8872L53.6836 70.4062L42.3722 74.6131C41.452 74.6266 40.5688 74.9774 39.8897 75.5992C39.2107 76.2211 38.7832 77.0706 38.6881 77.9869C38.593 78.9032 38.837 79.8226 39.3738 80.5708C39.9106 81.3191 40.703 81.8442 41.6008 82.0467Z" fill="#FFB6B6"/>
<path d="M65.277 66.595L59.2081 52.6131C58.7117 51.4652 57.8252 50.5304 56.7057 49.9746C56.3597 49.8041 55.9963 49.6715 55.6219 49.5792C55.5638 49.5644 55.5058 49.5508 55.4478 49.5396C54.6537 49.3662 53.8301 49.3814 53.0429 49.5841C52.3234 49.7692 51.651 50.104 51.0694 50.5667C50.4878 51.0294 50.0102 51.6096 49.6678 52.2695C49.664 52.275 49.6607 52.2808 49.6579 52.2868C49.2754 53.0276 49.0719 53.848 49.064 54.6819C49.0561 55.5158 49.2438 56.34 49.6122 57.0879L49.6875 57.2387L53.9762 65.8609C54.1227 66.1558 54.2052 66.4783 54.2184 66.8073C54.2315 67.1363 54.1751 67.4644 54.0527 67.77C53.9303 68.0756 53.7447 68.3519 53.5081 68.5807C53.2716 68.8094 52.9893 68.9856 52.68 69.0975L52.3788 69.2062L46.9617 71.165C46.5552 71.3102 46.2209 71.6076 46.0291 71.9946C45.8373 72.3816 45.8029 72.8281 45.9334 73.2399L45.9469 73.2832L47.4654 78.1473C47.4728 78.1695 47.4802 78.1918 47.4888 78.214C47.5022 78.256 47.5187 78.2969 47.5382 78.3363C47.6996 78.6987 47.9848 78.9914 48.3426 79.162C48.7004 79.3326 49.1073 79.3698 49.49 79.2669L52.4133 78.4945L53.0096 78.3363L60.5587 76.3405C61.552 76.0778 62.4768 75.6033 63.2699 74.9494C64.063 74.2956 64.7056 73.478 65.1537 72.5525C65.6018 71.627 65.8448 70.6155 65.8661 69.5872C65.8873 68.559 65.6864 67.5383 65.277 66.595Z" fill="#CACACA"/>
<path d="M5.54297 78.3381C7.29233 80.4741 9.17897 82.4935 11.1909 84.3837H66.9873C67.5249 84.3845 68.0402 84.5988 68.4202 84.9794C68.8002 85.36 69.0139 85.876 69.0144 86.4141L69.0947 100.568C72.5272 98.9891 75.7417 96.9733 78.6585 94.5704C79.4683 93.9043 80.253 93.2094 81.0127 92.4856C81.5102 92.0136 81.9958 91.5299 82.4694 91.0348C86.0204 87.3317 88.8958 83.0345 90.9654 78.3381H5.54297Z" fill="#3F3D56"/>
<path d="M82.4668 91.0332C81.994 91.5288 81.5084 92.0124 81.0101 92.484H69.1328V91.0332H82.4668Z" fill="white"/>
<path d="M56.6208 44.6318C56.5621 44.5234 56.4753 44.4329 56.3695 44.3698C56.2637 44.3067 56.1428 44.2734 56.0196 44.2734H15.5472C15.3658 44.2739 15.1919 44.3464 15.0637 44.4749C14.9355 44.6035 14.8634 44.7777 14.8633 44.9593V69.2083H56.7048V44.9593C56.7054 44.8447 56.6765 44.7319 56.6208 44.6318Z" fill="#3F3D56"/>
<path d="M14.8281 68.5508V71.5431C14.8281 71.6672 14.8525 71.79 14.9 71.9046C14.9474 72.0192 15.0169 72.1234 15.1045 72.2111C15.1921 72.2988 15.2962 72.3684 15.4107 72.4159C15.5251 72.4633 15.6478 72.4878 15.7718 72.4878H31.2152V78.3933H31.01C30.9939 78.3933 30.978 78.3964 30.9631 78.4026C30.9482 78.4088 30.9347 78.4178 30.9233 78.4292C30.9119 78.4406 30.9029 78.4541 30.8968 78.469C30.8906 78.4839 30.8874 78.4998 30.8874 78.516V78.9267C30.8874 78.9428 30.8906 78.9588 30.8968 78.9737C30.9029 78.9886 30.9119 79.0021 30.9233 79.0135C30.9347 79.0249 30.9482 79.0339 30.9631 79.0401C30.978 79.0463 30.9939 79.0494 31.01 79.0494H40.5971C40.6132 79.0494 40.6291 79.0463 40.644 79.0401C40.6589 79.0339 40.6724 79.0249 40.6838 79.0135C40.6951 79.0021 40.7042 78.9886 40.7103 78.9737C40.7165 78.9588 40.7197 78.9428 40.7197 78.9267V78.516C40.7197 78.4998 40.7165 78.4839 40.7103 78.469C40.7042 78.4541 40.6951 78.4406 40.6838 78.4292C40.6724 78.4178 40.6589 78.4088 40.644 78.4026C40.6291 78.3964 40.6132 78.3933 40.5971 78.3933H40.3919V72.4878H55.8353C55.9592 72.4878 56.082 72.4633 56.1964 72.4159C56.3109 72.3684 56.415 72.2988 56.5026 72.2111C56.5902 72.1234 56.6597 72.0192 56.7071 71.9046C56.7546 71.79 56.779 71.6672 56.779 71.5431V68.5508H14.8281Z" fill="#3F3D56"/>
<path d="M35.2945 59.9623C37.429 59.9623 39.1593 58.2302 39.1593 56.0935C39.1593 53.9568 37.429 52.2246 35.2945 52.2246C33.16 52.2246 31.4297 53.9568 31.4297 56.0935C31.4297 58.2302 33.16 59.9623 35.2945 59.9623Z" fill="#63388B"/>
<path d="M45.1399 34.3798H44.5226C44.5226 29.7084 39.9043 26.6473 35.2452 26.6449C34.5675 26.6429 33.8914 26.7087 33.2268 26.8414C32.4787 26.9909 31.7022 27.1701 30.9392 27.4036C27.9307 28.3268 25.1407 30.1113 25.1407 34.3798C25.1401 35.2087 25.2454 36.0344 25.4543 36.8365L24.8568 36.9923C24.6351 36.1392 24.5231 35.2612 24.5234 34.3798C24.5234 30.6501 26.053 28.0883 28.6949 26.5608C30.0837 25.7576 31.7787 25.2398 33.7206 24.9876C34.5287 24.88 35.3456 24.8552 36.1588 24.9135C41.5166 25.2991 45.1399 29.4118 45.1399 34.3798Z" fill="#63388B"/>
<path d="M46.1723 34.7207L45.9291 32.9213C45.8691 32.4669 45.6504 32.0484 45.3118 31.7399C45.0944 31.5388 44.8342 31.3897 44.5508 31.3041C44.2674 31.2185 43.9683 31.1985 43.6761 31.2456L43.2897 31.2987C43.1839 31.3126 43.082 31.3475 42.9898 31.4011C42.8976 31.4548 42.817 31.5263 42.7526 31.6114C42.6877 31.6962 42.6402 31.793 42.6129 31.8963C42.5856 31.9996 42.5789 32.1073 42.5934 32.2132L43.1551 36.3581C43.1782 36.527 43.2539 36.6844 43.3713 36.8079C43.4887 36.9315 43.642 37.0149 43.8094 37.0464C43.859 37.0564 43.9094 37.0614 43.96 37.0613C43.9963 37.0613 44.0326 37.0588 44.0686 37.0539L44.5007 36.9958C44.7642 36.9608 45.0177 36.8722 45.2457 36.7356C45.4737 36.5989 45.6714 36.4171 45.8266 36.2011C45.8599 36.1542 45.892 36.106 45.9216 36.0566C46.153 35.6522 46.2413 35.1815 46.1723 34.7207Z" fill="#63388B"/>
<path d="M43.0403 31.3748C42.927 31.4299 42.8284 31.5112 42.7526 31.612C42.6877 31.6969 42.6402 31.7937 42.6129 31.897C42.5856 32.0003 42.5789 32.108 42.5934 32.2139L43.1551 36.3588C43.1782 36.5277 43.2539 36.6851 43.3713 36.8086C43.4887 36.9321 43.642 37.0156 43.8094 37.0471L43.0403 31.3748Z" fill="white"/>
<path d="M46.173 34.7229L45.9298 32.9236C45.8698 32.4692 45.6511 32.0507 45.3125 31.7422L45.8717 35.8661C45.8801 35.9323 45.8971 35.9971 45.9224 36.0589C46.1537 35.6545 46.242 35.1838 46.173 34.7229Z" fill="#3F3D56"/>
<path d="M44.2491 36.0186C44.418 35.9957 44.5029 35.5933 44.4388 35.1198C44.3746 34.6464 44.1857 34.2812 44.0168 34.3042C43.8479 34.3271 43.7629 34.7295 43.8271 35.2029C43.8913 35.6763 44.0802 36.0415 44.2491 36.0186Z" fill="#3F3D56"/>
<path d="M43.878 33.794C44.0469 33.771 44.1318 33.3687 44.0677 32.8952C44.0035 32.4218 43.8146 32.0566 43.6457 32.0796C43.4768 32.1025 43.3919 32.5049 43.456 32.9783C43.5202 33.4517 43.7091 33.8169 43.878 33.794Z" fill="#3F3D56"/>
<path d="M46.2257 34.6592C46.3946 34.6363 46.4795 34.2339 46.4153 33.7605C46.3512 33.2871 46.1622 32.9219 45.9933 32.9448C45.8244 32.9677 45.7395 33.3701 45.8037 33.8435C45.8678 34.317 46.0568 34.6822 46.2257 34.6592Z" fill="#3F3D56"/>
<path d="M35.2457 26.6449C34.568 26.6429 33.8918 26.7087 33.2272 26.8414C32.4791 26.9909 31.7026 27.1701 30.9397 27.4036C29.7484 27.3456 28.8718 27.0366 28.6953 26.5608C30.0841 25.7576 31.7791 25.2398 33.721 24.9876C34.5291 24.88 35.3461 24.8552 36.1592 24.9135C36.2453 24.964 36.3197 25.0322 36.3776 25.1136C36.4355 25.1949 36.4755 25.2876 36.495 25.3856C36.553 25.8156 36.0629 26.2729 35.2457 26.6449Z" fill="#3F3D56"/>
<path d="M27.3668 38.6667L26.4162 34.7108C26.3823 34.5681 26.307 34.4386 26.1999 34.3386C26.0927 34.2385 25.9584 34.1724 25.8138 34.1486C25.7729 34.1422 25.7317 34.1389 25.6903 34.1387C25.6321 34.1389 25.5741 34.1459 25.5175 34.1597L25.1496 34.2487C24.6759 34.3633 24.2671 34.6614 24.0127 35.0775C23.7583 35.4936 23.6793 35.9938 23.7929 36.4682L24.2188 38.2428C24.316 38.6606 24.5476 39.0348 24.878 39.308C24.9315 39.3513 24.9876 39.3913 25.0459 39.4279C25.2528 39.5578 25.4837 39.6448 25.7247 39.6838C25.9658 39.7229 26.2123 39.7132 26.4495 39.6553L26.8162 39.5663C26.9131 39.5437 27.0044 39.5012 27.0841 39.4415C27.2027 39.355 27.2928 39.2351 27.3432 39.0971C27.3935 38.9592 27.4017 38.8093 27.3668 38.6667Z" fill="#63388B"/>
<path d="M25.3763 37.9301C25.542 37.8902 25.5858 37.4813 25.4742 37.0168C25.3625 36.5523 25.1377 36.2081 24.9719 36.248C24.8062 36.288 24.7624 36.6969 24.8741 37.1614C24.9857 37.6259 25.2106 37.9701 25.3763 37.9301Z" fill="#3F3D56"/>
<path d="M24.1419 38.3032C24.3076 38.2633 24.3515 37.8543 24.2398 37.3898C24.1281 36.9253 23.9033 36.5812 23.7376 36.6211C23.5718 36.661 23.528 37.0699 23.6397 37.5344C23.7513 37.9989 23.9762 38.3431 24.1419 38.3032Z" fill="#3F3D56"/>
<path d="M27.4279 38.6537L26.4773 34.6979C26.4402 34.5434 26.3585 34.4034 26.2424 34.2952C26.1262 34.1871 25.9807 34.1156 25.8242 34.0898L27.1217 39.4928C27.2498 39.3988 27.3473 39.269 27.4018 39.1197C27.4563 38.9703 27.4653 38.8082 27.4279 38.6537Z" fill="white"/>
<path d="M24.0087 35.6856C23.9824 35.5756 23.9332 35.4724 23.8642 35.3828C23.7306 35.7292 23.706 36.1083 23.7939 36.4691L24.2198 38.2437C24.317 38.6615 24.5486 39.0358 24.879 39.309L24.0087 35.6856Z" fill="#3F3D56"/>
</svg>
