<svg width="127" height="100" viewBox="0 0 127 100" fill="none" xmlns="http://www.w3.org/2000/svg">
<path d="M126.571 2.08008H50.6641V38.0991H126.571V2.08008Z" fill="#E6E6E6"/>
<path d="M124.402 5.16992H52.8359V35.2217H124.402V5.16992Z" fill="white"/>
<path d="M126.539 0H50.6328V3.22474H126.539V0Z" fill="#63388B"/>
<path d="M53.0313 2.49422C53.3614 2.49422 53.629 2.22662 53.629 1.89652C53.629 1.56643 53.3614 1.29883 53.0313 1.29883C52.7012 1.29883 52.4336 1.56643 52.4336 1.89652C52.4336 2.22662 52.7012 2.49422 53.0313 2.49422Z" fill="white"/>
<path d="M55.3008 2.49422C55.6309 2.49422 55.8985 2.22662 55.8985 1.89652C55.8985 1.56643 55.6309 1.29883 55.3008 1.29883C54.9707 1.29883 54.7031 1.56643 54.7031 1.89652C54.7031 2.22662 54.9707 2.49422 55.3008 2.49422Z" fill="white"/>
<path d="M57.5664 2.49422C57.8965 2.49422 58.1641 2.22662 58.1641 1.89652C58.1641 1.56643 57.8965 1.29883 57.5664 1.29883C57.2363 1.29883 56.9688 1.56643 56.9688 1.89652C56.9688 2.22662 57.2363 2.49422 57.5664 2.49422Z" fill="white"/>
<path d="M107.555 10.0332H95.6562V30.3597H107.555V10.0332Z" fill="#F2F2F2"/>
<path d="M93.6871 10.0332H69.6875V15.6283H93.6871V10.0332Z" fill="#63388B"/>
<path d="M93.6832 17.1853H69.6836V23.2053H93.6832V17.1853Z" fill="#F2F2F2"/>
<path d="M93.6832 24.7637H69.6836V30.3588H93.6832V24.7637Z" fill="#F2F2F2"/>
<path d="M36.215 60.1006C36.2173 59.6885 36.1325 59.2806 35.9661 58.9036C35.7998 58.5266 35.5557 58.189 35.2498 57.9129C34.9439 57.6368 34.5832 57.4284 34.1911 57.3015C33.7991 57.1745 33.3847 57.1318 32.975 57.1762C32.8454 57.1909 32.717 57.2145 32.5906 57.247L22.6915 48.7619L23.2831 45.5734L18.404 43.9922L16.9329 49.102C16.7589 49.7152 16.7872 50.3682 17.0137 50.9641C17.2402 51.56 17.6528 52.0669 18.1903 52.4097L30.3679 60.1119C30.368 60.2077 30.373 60.3034 30.3829 60.3987C30.4273 60.8084 30.5579 61.2041 30.7659 61.5598C30.974 61.9155 31.2548 62.2233 31.5901 62.4629C31.9254 62.7025 32.3075 62.8686 32.7115 62.9502C33.1154 63.0319 33.5321 63.0272 33.9341 62.9366C34.0509 62.9107 34.166 62.8775 34.2787 62.8371C34.8423 62.6333 35.33 62.2618 35.6762 61.7726C36.0223 61.2834 36.2104 60.6999 36.215 60.1006Z" fill="#9F616A"/>
<path d="M11.6043 69.9414H24.3675C24.3675 70.3083 37.5215 70.606 37.5215 70.606C37.728 70.7615 37.9162 70.9398 38.0824 71.1377C38.5821 71.7336 38.8552 72.4868 38.8535 73.2645V73.7962C38.8532 74.6774 38.503 75.5225 37.8798 76.1456C37.2567 76.7687 36.4117 77.1189 35.5304 77.1192H11.6043C10.7232 77.1185 9.87843 76.7681 9.2554 76.1451C8.63237 75.5221 8.28202 74.6773 8.28125 73.7962V73.2645C8.28247 72.3835 8.63297 71.539 9.2559 70.9161C9.87883 70.2931 10.7234 69.9426 11.6043 69.9414Z" fill="#3F3D56"/>
<path d="M25.4872 76.9883H22.0312V99.3193H25.4872V76.9883Z" fill="#3F3D56"/>
<path d="M35.3241 99.597C35.3241 100.015 30.0871 99.7588 23.6269 99.7588C17.1667 99.7588 11.9297 100.015 11.9297 99.597C11.9297 99.1789 17.1667 95.8633 23.6269 95.8633C30.0871 95.8633 35.3241 99.1789 35.3241 99.597Z" fill="#3F3D56"/>
<path d="M32.2038 96.5804L35.4628 96.5801L37.0133 88.127L32.2031 88.1273L32.2038 96.5804Z" fill="#9F616A"/>
<path d="M31.3752 99.7394L41.8842 99.739V99.6061C41.8842 99.069 41.7784 98.5371 41.5729 98.0408C41.3673 97.5445 41.066 97.0936 40.6862 96.7138C40.3064 96.334 39.8555 96.0327 39.3592 95.8271C38.863 95.6216 38.3311 95.5158 37.7939 95.5157H37.7935L31.375 95.516L31.3752 99.7394Z" fill="#2F2E41"/>
<path d="M37.0815 91.3382L43.579 76.7678C44.1215 75.5397 44.1815 74.1524 43.747 72.8821C43.3126 71.6118 42.4155 70.5518 41.2346 69.9132L27.1412 62.3558L20.7101 61.8088L14.7778 61.2695L14.7351 61.342C14.6804 61.4344 13.4049 63.6375 14.2671 66.0532C14.921 67.8856 16.6221 69.3168 19.3231 70.3072C25.6275 72.6189 32.9103 74.5946 35.7488 75.3365C35.8742 75.3686 35.9914 75.4269 36.0928 75.5075C36.1941 75.5881 36.2772 75.6893 36.3366 75.8044C36.3962 75.9181 36.4316 76.0429 36.4405 76.1709C36.4495 76.299 36.4319 76.4275 36.3888 76.5484L30.3524 90.1104C30.2893 90.2824 30.2666 90.4666 30.286 90.6488C30.3054 90.831 30.3664 91.0062 30.4642 91.1611C30.5621 91.316 30.6942 91.4463 30.8504 91.542C31.0065 91.6378 31.1826 91.6964 31.365 91.7133L35.8755 92.0417C35.9138 92.0454 35.9519 92.0472 35.9899 92.0472C36.2209 92.0471 36.4469 91.9801 36.6407 91.8542C36.8344 91.7284 36.9875 91.5492 37.0815 91.3382Z" fill="#CBCBCB"/>
<path d="M30.0786 96.5804L33.3376 96.5801L34.8883 88.127L30.0781 88.1273L30.0786 96.5804Z" fill="#9F616A"/>
<path d="M29.2463 99.7394L39.7553 99.739V99.6061C39.7553 99.069 39.6495 98.5371 39.444 98.0408C39.2384 97.5445 38.9371 97.0936 38.5573 96.7138C38.1775 96.334 37.7266 96.0327 37.2303 95.8271C36.7341 95.6216 36.2022 95.5158 35.665 95.5157H35.6646L29.2461 95.516L29.2463 99.7394Z" fill="#2F2E41"/>
<path d="M34.6859 92.1349L41.1834 77.5645C41.7259 76.3364 41.7858 74.9491 41.3514 73.6788C40.9169 72.4085 40.0199 71.3485 38.839 70.7099L24.7456 63.1525L18.3145 62.6055L13.668 62.2024L13.6687 62.1387C13.614 62.2311 12.3385 64.4342 13.2006 66.8499C13.8546 68.6823 14.2265 70.1135 16.9275 71.1039C23.2318 73.4156 30.5146 75.3912 33.3531 76.1332C33.4786 76.1653 33.5958 76.2236 33.6971 76.3042C33.7984 76.3848 33.8815 76.486 33.941 76.6011C34.0005 76.7148 34.0359 76.8396 34.0449 76.9676C34.0539 77.0957 34.0363 77.2242 33.9931 77.3451L27.9567 90.9071C27.8937 91.0791 27.871 91.2633 27.8904 91.4455C27.9098 91.6276 27.9707 91.8029 28.0686 91.9578C28.1664 92.1127 28.2985 92.243 28.4547 92.3387C28.6109 92.4345 28.787 92.4931 28.9694 92.51L33.4799 92.8384C33.5182 92.842 33.5563 92.8439 33.5943 92.8439C33.8253 92.8438 34.0513 92.7768 34.245 92.651C34.4387 92.5251 34.5919 92.3459 34.6859 92.1349Z" fill="#CBCBCB"/>
<path d="M22.4435 62.4684C22.7551 62.248 27.2288 64.5951 28.0263 62.7342C24.3045 53.4296 26.8692 49.4117 24.5894 44.076C24.1878 43.1557 23.5829 42.3384 22.8201 41.6855C22.0573 41.0326 21.1564 40.5611 20.1852 40.3064L14.2702 40.0078L14.2396 40.0226C12.9048 40.6764 11.8163 41.7429 11.1354 43.064C10.4545 44.3851 10.2175 45.8904 10.4594 47.3569C10.4805 53.1638 13.9549 57.5927 12.74 61.8045C12.6891 61.9806 12.6742 62.1652 12.6963 62.3471C12.7184 62.5291 12.7771 62.7048 12.8687 62.8635C12.9575 63.017 13.0768 63.1506 13.2193 63.2562C13.3617 63.3617 13.5243 63.437 13.697 63.4774L21.5071 62.4355C21.6896 62.4789 21.8792 62.483 22.0633 62.4473C22.2474 62.4117 22.4218 62.3372 22.5749 62.2289L22.4435 62.4684Z" fill="#2F2E41"/>
<path d="M16.2404 37.7992C19.8465 37.7992 22.7698 34.8759 22.7698 31.2698C22.7698 27.6637 19.8465 24.7404 16.2404 24.7404C12.6343 24.7404 9.71094 27.6637 9.71094 31.2698C9.71094 34.8759 12.6343 37.7992 16.2404 37.7992Z" fill="#9F616A"/>
<path d="M14.1651 37.263C14.512 37.4148 15.2225 34.6505 14.9042 34.0976C14.431 33.2753 14.459 33.2812 14.1448 32.7373C13.8306 32.1933 13.7603 31.4487 14.1672 30.97C14.574 30.4914 15.5155 30.5549 15.7012 31.155C15.5817 30.0151 16.7093 29.0988 17.8261 28.8413C18.9429 28.5838 20.121 28.7437 21.244 28.5145C22.5473 28.2486 23.9033 27.1561 23.3833 25.723C23.2941 25.4844 23.1605 25.2648 22.9896 25.0759C22.3888 24.4004 21.5484 24.1119 20.7267 23.833C19.0173 23.2528 17.2611 22.6654 15.457 22.7294C12.4929 22.8346 9.69095 24.8837 8.69227 27.6766C8.56794 28.0251 8.47163 28.3829 8.40424 28.7467C7.78502 32.0762 9.7185 35.3604 12.8588 36.6283L14.1651 37.263Z" fill="#2F2E41"/>
<path d="M48.4023 47.7634L49.1511 52.2093C49.1594 52.2589 49.154 52.3098 49.1353 52.3565L43.261 67.0344C43.2377 67.0925 43.1952 67.1409 43.1406 67.1715C43.086 67.2021 43.0225 67.213 42.9608 67.2025C42.8991 67.1919 42.8428 67.1606 42.8015 67.1136C42.7601 67.0666 42.7361 67.0068 42.7335 66.9443L42.4846 61.0459C42.483 61.0067 42.4897 60.9676 42.5045 60.9313L47.8789 47.7058C47.9013 47.6506 47.9411 47.6043 47.9923 47.5738C48.0434 47.5433 48.1032 47.5303 48.1624 47.5368C48.2216 47.5433 48.277 47.569 48.3203 47.6098C48.3636 47.6507 48.3924 47.7046 48.4023 47.7634Z" fill="#3F3D56"/>
<path d="M47.9908 48.1035L48.7023 51.9231L43.4893 65.3171L42.8125 61.0085L47.9908 48.1035Z" fill="#63388B"/>
<path d="M25.1799 66.9651C25.3081 67.4658 42.1477 68.0077 42.3223 67.8563C42.479 67.6622 42.6148 67.4522 42.7274 67.2296C42.9038 66.9145 43.0672 66.5983 43.0672 66.5983L42.7905 61.2727L26.2023 59.5C26.2023 59.5 25.4684 63.9443 25.238 65.986C25.186 66.3096 25.1665 66.6376 25.1799 66.9651Z" fill="#3F3D56"/>
<path opacity="0.1" d="M40.6206 61.8364L40.622 66.4246L33.2852 65.903L33.6098 61.3379L40.6206 61.8364Z" fill="#3F3F3F"/>
<path opacity="0.1" d="M31.0579 62.6315L31.1022 62.6259L30.7558 64.5765L26.6797 64.2867L26.8188 62.3301L31.0579 62.6315Z" fill="#3F3F3F"/>
<path opacity="0.1" d="M25.1799 66.9654C25.3081 67.4661 42.1477 68.008 42.3223 67.8566C42.479 67.6625 42.6148 67.4525 42.7274 67.2299L25.238 65.9863C25.186 66.3099 25.1665 66.6379 25.1799 66.9654Z" fill="#3F3F3F"/>
<path d="M18.418 59.0123L32.6229 61.6632C32.6585 61.7522 32.6986 61.8392 32.743 61.9241C32.9361 62.2872 33.2033 62.6056 33.5274 62.8587C33.8516 63.1118 34.2253 63.2938 34.6244 63.393C35.0251 63.4938 35.4427 63.5079 35.8492 63.4342C36.2558 63.3605 36.6419 63.2009 36.9817 62.966C37.5973 62.5433 38.028 61.9012 38.1854 61.1712C38.3427 60.4413 38.2149 59.6788 37.8282 59.04C37.4414 58.4013 36.8249 57.9346 36.1052 57.7358C35.3854 57.537 34.6168 57.621 33.957 57.9706C33.8421 58.0323 33.7316 58.1019 33.6263 58.1789L21.2883 53.9641L20.6568 50.7832L15.5391 51.1218L16.0693 56.4541C16.1337 57.0764 16.3969 57.6613 16.82 58.1221C17.2431 58.583 17.8035 58.8951 18.418 59.0123Z" fill="#9F616A"/>
<path d="M15.368 53.5014L22.8044 51.0573L21.0698 46.0765C20.8394 45.4151 20.3827 44.8565 19.7803 44.4992C19.1779 44.142 18.4686 44.0093 17.7778 44.1244C17.079 44.2409 16.4448 44.6034 15.9899 45.1465C15.535 45.6895 15.2892 46.3774 15.2971 47.0858L15.368 53.5014Z" fill="#2F2E41"/>
<path d="M62.5405 99.9993H0.163719C0.120298 99.9993 0.0786552 99.9821 0.047952 99.9514C0.0172488 99.9207 0 99.879 0 99.8356C0 99.7922 0.0172488 99.7505 0.047952 99.7198C0.0786552 99.6891 0.120298 99.6719 0.163719 99.6719H62.5405C62.584 99.6719 62.6256 99.6891 62.6563 99.7198C62.687 99.7505 62.7043 99.7922 62.7043 99.8356C62.7043 99.879 62.687 99.9207 62.6563 99.9514C62.6256 99.9821 62.584 99.9993 62.5405 99.9993Z" fill="#CBCBCB"/>
<path d="M86.8051 94.8421C89.7969 96.3905 91.127 99.7617 91.127 99.7617C91.127 99.7617 87.6066 100.623 84.6149 99.0742C81.6231 97.5259 80.293 94.1547 80.293 94.1547C80.293 94.1547 83.8134 93.2938 86.8051 94.8421Z" fill="#F1F1F1"/>
<path d="M85.8466 95.9567C87.6319 98.8134 91.0997 99.8665 91.0997 99.8665C91.0997 99.8665 91.6729 96.2879 89.8876 93.4312C88.1023 90.5746 84.6345 89.5215 84.6345 89.5215C84.6345 89.5215 84.0613 93.1 85.8466 95.9567Z" fill="#F1F1F1"/>
<path d="M96.5933 99.9349H77.9293C77.8859 99.9349 77.8443 99.9176 77.8136 99.8869C77.7829 99.8562 77.7656 99.8146 77.7656 99.7711C77.7656 99.7277 77.7829 99.6861 77.8136 99.6554C77.8443 99.6247 77.8859 99.6074 77.9293 99.6074H96.5933C96.6367 99.6074 96.6783 99.6247 96.709 99.6554C96.7397 99.6861 96.757 99.7277 96.757 99.7711C96.757 99.8146 96.7397 99.8562 96.709 99.8869C96.6783 99.9176 96.6367 99.9349 96.5933 99.9349Z" fill="#CBCBCB"/>
</svg>
