<svg width="166" height="85" viewBox="0 0 166 85" fill="none" xmlns="http://www.w3.org/2000/svg">
<path d="M158.632 46.9108L158.112 51.0515L156.821 61.3361H130.895C131.097 59.031 131.374 55.7131 131.669 52.1314C131.699 51.7736 131.729 51.4137 131.758 51.0515C132.5 42.0479 133.311 31.8594 133.311 31.8594L136.72 32.4944L143.333 33.7241L146.028 34.2249L153.244 35.5686C156.842 36.2371 159.316 41.4465 158.632 46.9108Z" fill="#F2F2F2"/>
<path d="M139.022 15.1973L142.211 20.7766L136.083 25.1194L133.469 18.2614L139.022 15.1973Z" fill="#FFB6B6"/>
<path d="M134.961 20.4748C139.323 20.4748 142.86 16.9385 142.86 12.5763C142.86 8.21402 139.323 4.67773 134.961 4.67773C130.599 4.67773 127.062 8.21402 127.062 12.5763C127.062 16.9385 130.599 20.4748 134.961 20.4748Z" fill="#FFB6B6"/>
<path d="M134.393 14.3433C133.766 13.3888 134.012 12.8895 133.487 12.5387C133.487 12.5387 133.276 12.3976 131.763 12.3171C131.425 9.8804 131.002 9.5849 131.002 9.5849C130.515 9.24433 129.792 9.35499 129.343 9.56328C128.391 10.0038 128.502 10.9554 127.861 11.1375C126.977 11.3891 125.367 9.97096 125.209 8.34749C125.079 7.02319 125.932 5.73697 126.271 5.80501C126.606 5.87248 127.41 4.84691 127.843 4.86273C128.14 4.87353 129.35 4.34747 129.676 4.3886C130.031 4.43353 131.203 5.04533 131.252 4.90555C131.592 3.93422 131.492 3.66472 131.78 3.38685C132.291 2.89445 133.126 3.23734 134.436 3.42143C137.131 3.80018 137.601 2.91145 138.983 3.51384C139.68 3.81813 140.264 4.63879 141.403 6.26767C142.997 8.54564 143.793 9.68462 143.798 11.0131C143.804 12.3679 143.148 12.2819 142.859 14.2875C142.539 16.5202 143.22 17.5411 142.476 18.2664C141.9 18.827 140.73 18.9601 140.116 18.4681C139.064 17.6257 140.441 15.5931 139.276 14.1081C138.561 13.1965 137.124 12.7909 136.466 13.2415C135.721 13.751 136.131 15.2465 135.608 15.3883C135.159 15.5097 134.502 14.5096 134.393 14.3433Z" fill="#2F2E41"/>
<path d="M152.792 45.4522C152.572 49.2191 151.697 50.4084 151.39 54.8571C151.323 55.8338 151.283 56.9675 151.283 58.3195C151.283 58.6642 151.285 58.9975 151.285 59.3231C151.285 60.0163 151.272 60.6713 151.191 61.3358C151.13 61.8663 151.024 62.4006 150.85 62.9636H133.839C133.837 62.9597 133.837 62.9559 133.835 62.9521C133.735 62.5193 133.672 62.1056 133.624 61.7093C133.609 61.5828 133.595 61.4584 133.584 61.3358C133.569 61.1921 133.555 61.0505 133.542 60.9107C133.49 60.3534 133.438 59.8267 133.316 59.3231C133.151 58.6278 132.852 57.9729 132.239 57.341C131.989 57.0824 131.738 56.8814 131.493 56.7052C131.445 56.6726 131.399 56.64 131.351 56.6075C130.673 56.1421 130.031 55.8069 129.476 54.8571C129.466 54.8437 129.459 54.8284 129.451 54.815C129.355 54.6484 129.106 54.2117 128.926 53.6296C128.737 53.0244 128.622 52.2641 128.829 51.4866C129.321 49.6443 131.144 49.4605 132.634 47.599C132.795 47.398 132.954 47.1758 133.105 46.9287C133.779 45.8333 133.961 44.8682 134.176 43.721C134.21 43.5352 134.241 43.3513 134.266 43.1733C134.285 43.0392 134.302 42.9071 134.316 42.7768C134.434 41.6833 134.377 40.7411 134.237 39.8985C133.781 37.1389 132.437 35.4306 133.387 32.9544C133.685 32.177 134.109 31.5928 134.536 31.093C135.439 30.034 136.368 29.3465 136.208 27.9792C136.045 26.6003 134.999 26.4107 134.882 25.2061C134.823 24.5971 135.022 23.9556 135.396 23.3255V23.3236C136.591 21.2955 139.574 19.4283 141.47 19.4877C141.821 19.4973 142.131 19.5758 142.389 19.7271C143.326 20.2786 142.935 21.4832 144.37 23.1723C145.436 24.4267 146.643 24.9284 147.1 25.1659C148.914 26.112 150.389 28.9022 151.39 32.47C151.398 32.4968 151.405 32.5235 151.413 32.5523C152.032 34.7872 152.468 37.3247 152.685 39.8985C152.777 40.9882 152.83 42.0836 152.842 43.1675C152.851 44.0331 152.832 44.7839 152.792 45.4522Z" fill="#63388B"/>
<path d="M140.056 58.3583L139.71 59.3235L139.491 59.9286L138.986 61.3362L138.4 62.964H134.633L135.265 61.3362L135.558 60.5778L136.044 59.3235L136.86 57.2169L140.056 58.3583Z" fill="#FFB6B6"/>
<path d="M151.453 32.1401C151.443 32.2646 151.43 32.4025 151.416 32.5519C151.267 34.0724 150.915 36.7937 150.399 39.8981C150.128 41.5354 149.81 43.2801 149.451 45.0132C148.682 48.7533 147.724 52.4361 146.642 54.8566C146.449 55.2933 146.25 55.6878 146.046 56.0363C145.891 56.3026 145.729 56.5649 145.558 56.8234C145.007 57.6718 144.388 58.4762 143.746 59.2269C143.722 59.2594 143.693 59.2901 143.664 59.3226C143.561 59.4451 143.453 59.5659 143.346 59.6865C142.822 60.2782 142.285 60.8297 141.766 61.3353C141.134 61.952 140.525 62.4978 139.98 62.9631H133.863L133.838 62.9516L132.957 62.5609C132.957 62.5609 133.208 62.266 133.627 61.7088C133.714 61.5957 133.805 61.4713 133.905 61.3353C134.028 61.1687 134.16 60.9848 134.301 60.7857C134.596 60.3682 134.931 59.878 135.291 59.3226C135.989 58.2482 136.783 56.9268 137.586 55.3967C137.678 55.2186 137.771 55.0386 137.865 54.8566C137.867 54.8509 137.871 54.8451 137.873 54.8394C138.032 54.5292 138.189 54.2094 138.346 53.8838C139.677 51.1146 140.058 48.8165 140.167 48.0716C140.321 47.0183 140.533 45.5455 140.476 43.9254C140.437 42.8569 140.282 41.7269 139.913 40.6047V40.6028C139.836 40.3673 139.75 40.1317 139.652 39.8981C139.478 39.4787 139.271 39.065 139.026 38.6571C137.944 36.8608 137.065 36.7861 136.366 34.8288C136.159 34.2486 135.69 32.9387 135.833 31.556V31.5541C135.851 31.3837 135.879 31.2113 135.918 31.0389V31.037C135.927 30.9892 135.941 30.9394 135.954 30.8915C136.063 30.4683 136.243 30.0488 136.517 29.6505C137.051 28.8769 137.781 28.4172 138.434 28.1434L138.436 28.1414C139.191 27.8274 139.842 27.7604 139.968 27.7489C142.766 27.5 144.936 29.8516 146.121 31.1366C146.579 31.6326 146.998 32.0482 147.381 32.3871C150.363 35.0491 151.181 33.3485 151.393 32.4695C151.426 32.3335 151.443 32.2168 151.453 32.1401Z" fill="#63388B"/>
<path d="M151.463 32.0411C151.463 32.0507 151.461 32.0832 151.453 32.1369C151.457 32.1081 151.459 32.0794 151.461 32.0525C151.461 32.0468 151.461 32.043 151.463 32.0411Z" fill="#63388B"/>
<path d="M136.252 72.4512H33.5945C32.6407 72.4512 31.8633 73.2267 31.8633 74.1805C31.8633 75.1361 32.6407 75.9117 33.5945 75.9117H136.252C137.205 75.9117 137.981 75.1361 137.981 74.1805C137.981 73.2267 137.205 72.4512 136.252 72.4512Z" fill="#E6E6E6"/>
<path d="M113.47 81.3906H56.3738C55.4201 81.3906 54.6445 82.1662 54.6445 83.1199C54.6445 84.0736 55.4201 84.8511 56.3738 84.8511H113.47C114.423 84.8511 115.201 84.0736 115.201 83.1199C115.201 82.1662 114.423 81.3906 113.47 81.3906Z" fill="#E6E6E6"/>
<path d="M45.0156 15.5646L51.4854 12.8418L54.2604 18.5306L47.4616 21.3056L45.0156 15.5646Z" fill="#FFB6B6"/>
<path opacity="0.1" d="M45.0156 15.5646L51.4854 12.8418L54.2604 18.5306L47.4616 21.3056L45.0156 15.5646Z" fill="#3F3F3F"/>
<path d="M45.9383 13.3968L52.3209 20.7506C52.3209 20.7506 47.8808 34.7645 43.4408 36.0132C39.0008 37.262 30.8145 43.367 30.8145 43.367L20.5469 36.707L25.5419 29.3532C25.5419 29.3532 37.6133 12.8418 40.8045 12.8418C43.9958 12.8418 45.9383 13.3968 45.9383 13.3968Z" fill="#63388B"/>
<path d="M37.316 61.3342H22.4586L21.5192 60.0785L17.6841 54.9516L16.8017 53.7723C16.8017 53.7723 13.4716 47.6672 14.1654 42.1172C14.8592 36.5671 22.0742 35.3184 22.0742 35.3184H22.3711L31.204 43.0801L30.6768 50.3035L33.474 54.9516L37.316 61.3342Z" fill="#2F2E41"/>
<path d="M25.4978 61.3344H21.5156V55.4375L25.4978 61.3344Z" fill="#2F2E41"/>
<path d="M111.39 52.3818L110.894 54.9514L109.665 61.334H84.9688C85.1616 59.9034 85.4252 57.8444 85.7069 55.6216C85.7347 55.3996 85.7638 55.1762 85.7915 54.9514C86.4978 49.3639 87.2706 43.041 87.2706 43.041L90.5174 43.4351L96.8167 44.1982L99.3836 44.509L106.257 45.3429C109.684 45.7578 112.042 48.9907 111.39 52.3818Z" fill="#F2F2F2"/>
<path d="M146.34 61.3351H132.945C133.149 61.095 133.264 60.9563 133.264 60.9563L137.28 60.2931L145.554 58.9277C145.554 58.9277 145.931 59.9032 146.34 61.3351Z" fill="#2F2E41"/>
<path d="M89.5204 18.3398L95.3456 26.5781L85.1845 26.8815L84.0938 19.1395L89.5204 18.3398Z" fill="#A0616A"/>
<path opacity="0.1" d="M89.5204 18.3398L95.3456 26.5781L85.1845 26.8815L84.0938 19.1395L89.5204 18.3398Z" fill="#3F3F3F"/>
<path d="M60.7905 35.4087C60.043 33.2525 58.3246 31.8904 56.9525 32.3663C55.5803 32.8422 55.0742 34.9757 55.8223 37.1325C56.1092 37.9982 56.5994 38.7826 57.2516 39.42L60.534 48.5159L64.7696 46.8846L61.0841 38.0909C61.2018 37.1862 61.1011 36.2665 60.7905 35.4087Z" fill="#A0616A"/>
<path d="M100.225 31.2119L100.217 39.6077L99.4362 42.7089L97.8295 49.0872L96.6598 54.9536L95.7884 59.3243L95.4776 60.8852C95.2431 61.042 95.01 61.1919 94.7769 61.3362H74.4818C73.3288 60.6438 72.6836 60.1055 72.6836 60.1055C72.6836 60.1055 73.0027 59.8058 73.3676 59.3243C73.9837 58.5112 74.7288 57.1792 74.2723 55.9069C74.1766 55.6404 74.1516 55.3158 74.1807 54.9536C74.3666 52.5643 76.8725 48.5239 76.8725 48.5239L76.3536 42.5271L76.126 39.8991L77.7304 27.0854L82.9599 24.0454L83.8628 23.958L92.7748 23.4766L96.4583 23.6888L96.6261 23.7346L100.225 31.2119Z" fill="#CCCCCC"/>
<path d="M100.62 61.3362H96.1803L95.9846 59.3243L95.9805 59.284L97.2376 59.198L100.508 58.9746L100.565 60.179L100.609 61.1031L100.62 61.3362Z" fill="#FFB6B6"/>
<path d="M101.714 33.2418L103.579 44.1851L102.057 54.9535L101.82 56.6296L101.401 59.5892L101.271 60.4994L101.276 60.5979L101.308 61.3361H96.035L95.8407 59.3242L95.8241 59.1438L95.4273 55.0229L95.4203 54.9535L94.5781 46.215L96.2293 39.899L96.3514 39.4342V39.4328L97.0697 28.6186L96.5133 23.704L96.5078 23.6582C96.5189 23.6651 96.5286 23.6721 96.5397 23.679C96.5689 23.6971 96.598 23.7151 96.6257 23.7345C99.867 25.7908 101.798 29.3984 101.714 33.2418Z" fill="#CCCCCC"/>
<path d="M79.6186 29.1811L77.5911 27.084C77.5911 27.084 73.2507 29.0407 73.0343 30.1263C72.818 31.2119 65.1545 47.1561 65.1545 47.1561L61.8204 38.2513L57.4805 41.1489C57.4805 41.1489 60.9628 54.9741 64.2195 55.6231C67.4763 56.2722 78.3914 39.2597 78.3914 39.2597L79.6186 29.1811Z" fill="#CCCCCC"/>
<path d="M161.946 54.8555H4.05231C1.81745 54.8555 0 56.6748 0 58.9097C0 61.1445 1.81744 62.962 4.05231 62.962H161.946C164.181 62.962 166 61.1446 166 58.9097C166 56.6747 164.181 54.8555 161.946 54.8555Z" fill="#E6E6E6"/>
<path d="M99.2992 42.5031L98.9923 56.8282C98.9625 58.2149 97.8299 59.3236 96.4428 59.3236H70.091C68.7368 59.3236 67.6188 58.265 67.5448 56.9128L66.7617 42.5876C66.6818 41.1268 67.8449 39.8984 69.3079 39.8984H96.7498C98.1795 39.8984 99.3298 41.0737 99.2992 42.5031Z" fill="#3F3D56"/>
<path d="M56.7579 19.0236C60.2399 19.0236 63.0626 16.2008 63.0626 12.7188C63.0626 9.2368 60.2399 6.41406 56.7579 6.41406C53.2759 6.41406 50.4531 9.2368 50.4531 12.7188C50.4531 16.2008 53.2759 19.0236 56.7579 19.0236Z" fill="#FFB6B6"/>
<path d="M46.2159 29.2155L46.9097 36.708L51.6272 55.7169L47.5516 57.1454L40.6659 36.4305L39.7148 28.1055L46.2159 29.2155Z" fill="#FFB6B6"/>
<path d="M44.3383 42.5031L44.0313 56.8282C44.0016 58.2149 42.8689 59.3236 41.4819 59.3236H15.1301C13.7758 59.3236 12.6578 58.265 12.5839 56.9128L11.8008 42.5876C11.7209 41.1268 12.8839 39.8984 14.3469 39.8984H41.7889C43.2186 39.8984 44.3689 41.0737 44.3383 42.5031Z" fill="#3F3D56"/>
<path d="M52.3776 59.4203C55.1275 59.4203 57.3568 58.4343 57.3568 57.218C57.3568 56.0016 55.1275 55.0156 52.3776 55.0156C49.6277 55.0156 47.3984 56.0016 47.3984 57.218C47.3984 58.4343 49.6277 59.4203 52.3776 59.4203Z" fill="#FFB6B6"/>
<path d="M36.4336 30.3601L39.278 15.2007C39.278 15.2007 47.1868 14.0907 47.4643 16.727C47.7418 19.3633 47.266 32.2471 47.266 32.2471L36.4336 30.3601Z" fill="#63388B"/>
<path d="M54.2168 13.7088C54.2168 13.7088 58.1169 12.3169 59.7621 11.568C61.4072 10.819 64.6756 16.0428 64.7483 13.2839C64.821 10.5251 63.6916 9.36816 63.6916 9.36816C63.6916 9.36816 63.4096 3.33281 57.3291 4.08737C57.3291 4.08737 58.6666 1.06782 54.2764 0.600904C49.8862 0.133986 43.0561 10.7356 43.6678 12.32C44.2795 13.9043 45.0127 15.2142 43.2773 16.9082C41.5419 18.6023 38.2923 28.1629 40.7648 30.7356C43.2372 33.3083 43.3994 34.4247 41.7054 36.0253C40.0114 37.6258 36.0073 41.106 40.3367 41.7102C44.6661 42.3144 39.9406 41.8631 43.1682 39.0241C46.3959 36.185 51.1057 36.301 49.3471 31.7459C47.5885 27.1909 50.6438 20.6636 50.2615 19.6734C49.8792 18.6831 51.1181 12.3951 51.1181 12.3951C51.1181 12.3951 54.0012 11.9715 54.2168 13.7088Z" fill="#2F2E41"/>
<path d="M86.4022 21.3221C90.1927 21.3221 93.2654 18.2493 93.2654 14.4589C93.2654 10.6685 90.1927 7.5957 86.4022 7.5957C82.6118 7.5957 79.5391 10.6685 79.5391 14.4589C79.5391 18.2493 82.6118 21.3221 86.4022 21.3221Z" fill="#A0616A"/>
<path d="M86.952 5.23147C86.7534 5.3474 86.4874 5.172 86.4237 4.95105C86.3601 4.73008 86.4342 4.49548 86.5078 4.27762L86.8781 3.18083C87.1407 2.40296 87.4195 1.59791 87.9883 1.00585C88.8467 0.112233 90.2111 -0.115099 91.4393 0.0495952C93.0165 0.261095 94.5727 1.11515 95.3061 2.52744C96.0394 3.93973 95.7272 5.91038 94.4021 6.7915C96.2907 8.95617 96.949 11.3686 96.8451 14.2395C96.7411 17.1104 93.6126 19.7525 91.5723 21.7749C91.1167 21.4987 90.7025 20.2044 90.9531 19.7342C91.2036 19.264 90.8446 18.7192 91.1549 18.2861C91.4652 17.853 91.7248 18.5426 91.4111 18.112C91.2132 17.8402 91.9858 17.215 91.6915 17.0524C90.2683 16.2657 89.795 14.4917 88.9011 13.1333C87.823 11.4947 85.9777 10.3851 84.0249 10.201C82.9492 10.0996 81.813 10.2833 80.9312 10.9078C80.0495 11.5323 79.4787 12.6483 79.6831 13.7093C79.1536 13.1716 78.89 12.3836 78.9894 11.6356C79.0888 10.8875 79.5491 10.1958 80.2007 9.81507C79.8045 8.50489 80.1439 6.9978 81.0635 5.98394C81.983 4.97008 85.7133 5.14276 87.0559 5.40959L86.952 5.23147Z" fill="#2F2E41"/>
<path d="M87.1602 10.2401C88.9383 10.4321 90.2221 11.9723 91.3062 13.3947C91.9311 14.2146 92.5856 15.1199 92.5699 16.1506C92.5541 17.1927 91.8573 18.0865 91.5244 19.0741C90.9801 20.6883 91.5105 22.6088 92.8061 23.7148C91.5259 23.9578 90.142 22.9979 89.921 21.7137C89.6638 20.2188 90.797 18.776 90.6628 17.2651C90.5445 15.9339 89.4955 14.9094 88.6037 13.9141C87.7119 12.9188 86.8743 11.5981 87.2846 10.3262L87.1602 10.2401Z" fill="#2F2E41"/>
<path d="M113.746 55.7231C111.984 56.7249 111.074 58.4456 111.711 59.5664C112.349 60.6871 114.293 60.7834 116.055 59.781C116.764 59.3903 117.37 58.8354 117.821 58.1627L125.229 53.824L123.119 50.3906L116.04 55.0324C115.231 55.0761 114.444 55.313 113.746 55.7231Z" fill="#FFB6B6"/>
<path d="M138.831 23.9079C138.609 23.8202 136.667 23.0845 134.893 24.0558C132.856 25.1716 132.541 27.7187 132.431 28.612C132.176 30.6757 132.927 31.1383 133.085 33.2275C133.382 37.1362 134.164 32.6771 132.915 34.4612C132.483 35.0788 128.067 44.649 125.631 46.5236C120.895 50.1694 117.887 52.7369 117.887 52.7369L121.321 56.4669C121.321 56.4669 126.747 55.0212 131.542 51.9071C136.462 48.7128 138.922 47.1156 140.825 43.9912C140.989 43.7221 144.91 37.0632 142.804 29.7001C142.323 28.0206 141.443 24.9433 138.831 23.9079Z" fill="#63388B"/>
<path d="M156.561 42.5031L156.254 56.8282C156.224 58.2149 155.092 59.3236 153.705 59.3236H127.353C125.998 59.3236 124.88 58.265 124.807 56.9128L124.023 42.5876C123.944 41.1268 125.107 39.8984 126.57 39.8984H154.012C155.441 39.8984 156.592 41.0737 156.561 42.5031Z" fill="#3F3D56"/>
</svg>
