<svg width="160" height="100" viewBox="0 0 160 100" fill="none" xmlns="http://www.w3.org/2000/svg">
<path d="M138.21 66.7311C138.048 66.4664 137.945 66.1693 137.91 65.8607C137.875 65.5521 137.908 65.2396 138.007 64.9451C138.105 64.6507 138.267 64.3814 138.481 64.1563C138.695 63.9313 138.956 63.7559 139.245 63.6425L138.945 56.0992L142.303 58.1269L142.073 64.9792C142.232 65.4776 142.202 66.0167 141.989 66.4944C141.777 66.9721 141.396 67.3552 140.92 67.5711C140.444 67.7871 139.905 67.8208 139.405 67.666C138.906 67.5112 138.481 67.1785 138.21 66.7311Z" fill="#A0616A"/>
<path d="M142.691 61.8409L139.706 62.3179C139.58 62.3379 139.452 62.3326 139.329 62.3024C139.206 62.2721 139.09 62.2174 138.988 62.1416C138.886 62.0657 138.801 61.9703 138.736 61.8608C138.672 61.7514 138.63 61.6302 138.614 61.5043L137.35 51.9916L131.109 43.4501C130.878 43.1338 130.714 42.7735 130.627 42.3914C130.541 42.0093 130.534 41.6135 130.606 41.2285C130.678 40.8434 130.829 40.4773 131.048 40.1526C131.267 39.8279 131.55 39.5516 131.881 39.3406C132.522 38.9309 133.299 38.7927 134.042 38.9563C134.785 39.1199 135.433 39.572 135.842 40.2131L142.217 50.1882L143.485 60.7892C143.494 60.8569 143.495 60.9252 143.488 60.9931C143.469 61.2029 143.38 61.4001 143.235 61.5537C143.091 61.7072 142.9 61.8083 142.691 61.8409Z" fill="#63388B"/>
<path d="M132.4 97.1486H129.81L128.578 87.1587L132.401 87.1589L132.4 97.1486Z" fill="#A0616A"/>
<path d="M127.959 96.4087H132.954V99.5536H124.814C124.814 98.7195 125.146 97.9196 125.736 97.3298C126.325 96.74 127.125 96.4087 127.959 96.4087Z" fill="#2F2E41"/>
<path d="M143.326 92.7158L141.391 94.4371L134.178 87.3248L136.687 85.2517L143.326 92.7158Z" fill="#A0616A"/>
<path d="M139.518 95.1139L143.25 91.7941L145.34 94.1439L139.258 99.5539C138.984 99.2453 138.773 98.8857 138.637 98.4956C138.502 98.1054 138.444 97.6924 138.468 97.2801C138.493 96.8678 138.598 96.4643 138.778 96.0926C138.958 95.7209 139.209 95.3884 139.518 95.1139Z" fill="#2F2E41"/>
<path d="M106.372 40.0242C106.674 39.9537 106.988 39.9504 107.292 40.0145C107.596 40.0786 107.882 40.2085 108.13 40.3952C108.379 40.5818 108.583 40.8206 108.729 41.0948C108.875 41.3689 108.959 41.6717 108.975 41.9818L116.227 44.0796L113.242 46.6255L106.813 44.243C106.291 44.2358 105.789 44.0371 105.403 43.6845C105.016 43.3319 104.773 42.8499 104.719 42.3299C104.664 41.8098 104.802 41.2879 105.107 40.8629C105.412 40.438 105.862 40.1395 106.372 40.0242Z" fill="#A0616A"/>
<path d="M128.982 32.7844C131.847 32.7844 134.17 30.4614 134.17 27.5958C134.17 24.7301 131.847 22.4071 128.982 22.4071C126.116 22.4071 123.793 24.7301 123.793 27.5958C123.793 30.4614 126.116 32.7844 128.982 32.7844Z" fill="#A0616A"/>
<path d="M132.716 95.2785L129.112 94.9901C128.879 94.9716 128.661 94.8679 128.499 94.6989C128.338 94.5299 128.245 94.3074 128.237 94.0739L127.231 63.6883C127.223 63.4535 127.302 63.224 127.453 63.0443C127.604 62.8645 127.817 62.7473 128.05 62.7154L135.237 61.7125C135.385 61.6918 135.536 61.7064 135.677 61.7549C135.818 61.8035 135.946 61.8848 136.05 61.9921C136.155 62.0994 136.232 62.2298 136.276 62.3726C136.32 62.5154 136.33 62.6666 136.305 62.814L133.555 78.922C133.547 78.9663 133.544 79.0112 133.544 79.0561L133.743 94.3183C133.744 94.4443 133.721 94.5693 133.674 94.6861C133.627 94.8029 133.557 94.9092 133.469 94.9988C133.38 95.0884 133.275 95.1596 133.158 95.2081C133.042 95.2567 132.917 95.2816 132.792 95.2816C132.767 95.2816 132.741 95.2805 132.716 95.2785Z" fill="#2F2E41"/>
<path d="M137.334 91.634L124.951 77.852C124.861 77.7529 124.794 77.6361 124.753 77.5093C124.712 77.3825 124.698 77.2485 124.712 77.1159L126.276 62.4537C126.302 62.2093 126.421 61.9844 126.61 61.8263C126.798 61.6682 127.04 61.5893 127.285 61.606L134.885 62.1126C135.03 62.1223 135.171 62.1653 135.297 62.2381C135.423 62.311 135.531 62.4119 135.612 62.5329C135.693 62.654 135.745 62.792 135.764 62.9364C135.783 63.0808 135.769 63.2276 135.722 63.3655L131.169 76.8368C131.125 76.9652 131.117 77.1032 131.147 77.2356C131.177 77.3679 131.243 77.4895 131.337 77.5869L141.856 88.4885C141.956 88.5918 142.031 88.7164 142.075 88.8528C142.12 88.9893 142.133 89.1341 142.114 89.2763C142.095 89.4186 142.043 89.5547 141.964 89.6743C141.885 89.7939 141.779 89.894 141.656 89.9671L138.525 91.817C138.336 91.9283 138.114 91.9709 137.897 91.9376C137.68 91.9042 137.481 91.797 137.334 91.634Z" fill="#2F2E41"/>
<path d="M128.052 35.9897C128.052 35.9897 131.221 33.2434 132.7 34.7222C132.7 34.7222 139.566 39.0529 136.608 50.8832C136.608 50.8832 139.143 62.2911 138.087 62.7136C137.031 63.1361 126.362 64.7205 125.517 63.453C124.672 62.1854 124.25 42.7499 128.052 35.9897Z" fill="#63388B"/>
<path d="M109.597 45.8212L110.087 42.8379C110.108 42.7126 110.154 42.5927 110.221 42.4853C110.289 42.3779 110.377 42.2852 110.482 42.2126C110.586 42.1399 110.703 42.0889 110.827 42.0624C110.952 42.036 111.08 42.0346 111.204 42.0585L120.629 43.8649L130.705 40.641C131.078 40.5217 131.472 40.48 131.861 40.5186C132.251 40.5572 132.629 40.6753 132.972 40.8655C133.314 41.0557 133.614 41.3141 133.853 41.6246C134.092 41.9352 134.264 42.2914 134.36 42.6713C134.546 43.4089 134.432 44.1901 134.042 44.8434C133.652 45.4966 133.019 45.9682 132.281 46.1544L120.803 49.0517L110.344 46.9069C110.277 46.8932 110.212 46.8725 110.15 46.8451C109.957 46.7602 109.798 46.6134 109.698 46.428C109.598 46.2426 109.562 46.0291 109.597 45.8212Z" fill="#63388B"/>
<path d="M131.208 31.8047C131.682 30.7073 132.083 29.2458 131.174 28.47C130.646 28.0199 129.886 28.019 129.195 27.963C127.248 27.8053 125.243 26.9094 124.292 25.2033C123.34 23.4972 123.871 20.9603 125.667 20.1906C126.877 19.6718 128.265 20.0252 129.532 20.3845L133.336 21.4631C134.466 21.7836 135.653 22.1371 136.466 22.9845C137.764 24.3359 137.667 26.6205 136.636 28.1852C135.606 29.7498 134.053 31.3816 132.276 31.9757L131.208 31.8047Z" fill="#2F2E41"/>
<path d="M159.7 99.9999H107.309C107.253 99.9999 107.199 99.9776 107.16 99.938C107.12 99.8984 107.098 99.8447 107.098 99.7886C107.098 99.7326 107.12 99.6789 107.16 99.6393C107.199 99.5997 107.253 99.5774 107.309 99.5774H159.7C159.756 99.5774 159.81 99.5997 159.85 99.6393C159.889 99.6789 159.912 99.7326 159.912 99.7886C159.912 99.8447 159.889 99.8984 159.85 99.938C159.81 99.9776 159.756 99.9999 159.7 99.9999Z" fill="#3F3D56"/>
<path d="M104.36 0H1.47879C1.08673 0.000435029 0.71084 0.156374 0.433607 0.433607C0.156374 0.71084 0.000435029 1.08673 0 1.47879V77.5309C0.000435029 77.923 0.156374 78.2989 0.433607 78.5761C0.71084 78.8534 1.08673 79.0093 1.47879 79.0097H104.36C104.753 79.0093 105.128 78.8534 105.406 78.5761C105.683 78.2989 105.839 77.923 105.839 77.5309V1.47879C105.839 1.08673 105.683 0.71084 105.406 0.433607C105.128 0.156374 104.753 0.000435029 104.36 0ZM105.417 77.5309C105.417 77.8111 105.305 78.0797 105.107 78.2777C104.909 78.4758 104.641 78.5871 104.36 78.5872H1.47879C1.19868 78.5871 0.930077 78.4758 0.732011 78.2777C0.533944 78.0797 0.422624 77.8111 0.422512 77.5309V1.47879C0.422624 1.19868 0.533944 0.930077 0.732011 0.732011C0.930077 0.533944 1.19868 0.422624 1.47879 0.422512H104.36C104.641 0.422624 104.909 0.533944 105.107 0.732011C105.305 0.930077 105.417 1.19868 105.417 1.47879V77.5309Z" fill="#3F3D56"/>
<path d="M105.628 5.92334H0.210938V6.34585H105.628V5.92334Z" fill="#3F3D56"/>
<path d="M3.80269 4.43632C4.50273 4.43632 5.07023 3.86882 5.07023 3.16878C5.07023 2.46874 4.50273 1.90125 3.80269 1.90125C3.10265 1.90125 2.53516 2.46874 2.53516 3.16878C2.53516 3.86882 3.10265 4.43632 3.80269 4.43632Z" fill="#3F3D56"/>
<path d="M7.44722 4.43644C8.14726 4.43644 8.71476 3.86894 8.71476 3.1689C8.71476 2.46886 8.14726 1.90137 7.44722 1.90137C6.74718 1.90137 6.17969 2.46886 6.17969 3.1689C6.17969 3.86894 6.74718 4.43644 7.44722 4.43644Z" fill="#3F3D56"/>
<path d="M11.0918 4.43644C11.7918 4.43644 12.3593 3.86894 12.3593 3.1689C12.3593 2.46886 11.7918 1.90137 11.0918 1.90137C10.3917 1.90137 9.82422 2.46886 9.82422 3.1689C9.82422 3.86894 10.3917 4.43644 11.0918 4.43644Z" fill="#3F3D56"/>
<path d="M63.762 65.7649C63.706 65.7649 63.6523 65.7427 63.6127 65.703C63.573 65.6634 63.5508 65.6097 63.5508 65.5537V56.8922C63.5508 56.8361 63.573 56.7824 63.6127 56.7428C63.6523 56.7032 63.706 56.6809 63.762 56.6809C63.8181 56.6809 63.8718 56.7032 63.9114 56.7428C63.951 56.7824 63.9733 56.8361 63.9733 56.8922V65.5537C63.9733 65.6097 63.951 65.6634 63.9114 65.703C63.8718 65.7427 63.8181 65.7649 63.762 65.7649Z" fill="#3F3D56"/>
<path d="M63.4731 53.512C63.4358 53.512 63.3992 53.5021 63.3669 53.4833L51.3644 46.4899C51.3161 46.4616 51.2809 46.4153 51.2667 46.3612C51.2525 46.3071 51.2603 46.2495 51.2885 46.2011C51.3167 46.1528 51.3629 46.1176 51.417 46.1032C51.4711 46.0889 51.5287 46.0966 51.5771 46.1247L63.5796 53.1181C63.6198 53.1415 63.6511 53.1775 63.6687 53.2205C63.6864 53.2634 63.6894 53.311 63.6772 53.3559C63.6651 53.4007 63.6385 53.4403 63.6016 53.4685C63.5647 53.4968 63.5195 53.512 63.4731 53.512Z" fill="#3F3D56"/>
<path d="M39.4673 53.5122C39.4209 53.5122 39.3757 53.497 39.3388 53.4687C39.3019 53.4405 39.2753 53.4009 39.2632 53.3561C39.2511 53.3113 39.254 53.2637 39.2717 53.2207C39.2893 53.1777 39.3206 53.1417 39.3608 53.1184L51.3633 46.1249C51.4117 46.097 51.4692 46.0894 51.5232 46.1038C51.5772 46.1182 51.6233 46.1533 51.6514 46.2016C51.6795 46.2499 51.6874 46.3074 51.6733 46.3614C51.6591 46.4155 51.6241 46.4618 51.576 46.4901L39.5735 53.4835C39.5412 53.5023 39.5046 53.5122 39.4673 53.5122Z" fill="#3F3D56"/>
<path d="M75.936 64.075C75.8987 64.075 75.862 64.0651 75.8298 64.0463L63.8273 57.0529C63.779 57.0246 63.7438 56.9783 63.7296 56.9242C63.7154 56.8701 63.7232 56.8125 63.7514 56.7641C63.7796 56.7158 63.8258 56.6805 63.8799 56.6662C63.934 56.6519 63.9916 56.6596 64.04 56.6877L76.0425 63.6811C76.0827 63.7045 76.114 63.7405 76.1316 63.7835C76.1493 63.8264 76.1522 63.874 76.1401 63.9189C76.128 63.9637 76.1014 64.0033 76.0645 64.0315C76.0276 64.0597 75.9824 64.075 75.936 64.075Z" fill="#3F3D56"/>
<path d="M51.9322 64.0749C51.8857 64.075 51.8405 64.0597 51.8036 64.0315C51.7667 64.0033 51.7402 63.9637 51.728 63.9188C51.7159 63.874 51.7189 63.8264 51.7365 63.7834C51.7542 63.7405 51.7855 63.7045 51.8256 63.6811L63.8281 56.6877C63.8765 56.6598 63.934 56.6522 63.988 56.6665C64.042 56.6809 64.0881 56.7161 64.1163 56.7644C64.1444 56.8127 64.1522 56.8701 64.1381 56.9242C64.124 56.9783 64.089 57.0245 64.0408 57.0528L52.0383 64.0463C52.0061 64.065 51.9695 64.0749 51.9322 64.0749Z" fill="#3F3D56"/>
<path d="M51.5081 42.7382C51.4522 42.7382 51.3985 42.716 51.3589 42.6765C51.3193 42.637 51.297 42.5834 51.2969 42.5274L51.2773 34.8404C51.2773 34.8127 51.2827 34.7852 51.2932 34.7595C51.3038 34.7339 51.3193 34.7106 51.3388 34.6909C51.3584 34.6712 51.3817 34.6556 51.4073 34.6449C51.4329 34.6343 51.4603 34.6287 51.4881 34.6287H51.4886C51.5445 34.6287 51.5982 34.6508 51.6378 34.6903C51.6774 34.7299 51.6997 34.7835 51.6999 34.8394L51.7194 42.5264C51.7195 42.5542 51.7141 42.5817 51.7035 42.6073C51.693 42.633 51.6775 42.6563 51.6579 42.676C51.6383 42.6956 51.6151 42.7112 51.5895 42.7219C51.5639 42.7326 51.5364 42.7381 51.5087 42.7382L51.5081 42.7382Z" fill="#3F3D56"/>
<path d="M54.2414 46.7343H48.7378C48.4857 46.734 48.2441 46.6338 48.0659 46.4555C47.8876 46.2773 47.7874 46.0357 47.7871 45.7836V42.9568C47.7874 42.7047 47.8876 42.4631 48.0659 42.2849C48.2441 42.1066 48.4857 42.0064 48.7378 42.0061H54.2414C54.4934 42.0064 54.7351 42.1066 54.9133 42.2849C55.0915 42.4631 55.1918 42.7047 55.192 42.9568V45.7836C55.1918 46.0357 55.0915 46.2773 54.9133 46.4555C54.7351 46.6338 54.4934 46.734 54.2414 46.7343Z" fill="#CCCCCC"/>
<path d="M45.1328 32.3647H33.4222C33.3662 32.3647 33.3124 32.3424 33.2728 32.3028C33.2332 32.2632 33.2109 32.2094 33.2109 32.1534C33.2109 32.0974 33.2332 32.0436 33.2728 32.004C33.3124 31.9644 33.3662 31.9421 33.4222 31.9421H45.1328C45.1889 31.9421 45.2426 31.9644 45.2822 32.004C45.3218 32.0436 45.3441 32.0974 45.3441 32.1534C45.3441 32.2094 45.3218 32.2632 45.2822 32.3028C45.2426 32.3424 45.1889 32.3647 45.1328 32.3647Z" fill="#3F3D56"/>
<path d="M51.4886 29.3472C51.4326 29.3472 51.3788 29.325 51.3392 29.2853C51.2996 29.2457 51.2773 29.192 51.2773 29.136V21.8238C51.2773 21.7678 51.2996 21.714 51.3392 21.6744C51.3788 21.6348 51.4326 21.6125 51.4886 21.6125C51.5446 21.6125 51.5984 21.6348 51.638 21.6744C51.6776 21.714 51.6999 21.7678 51.6999 21.8238V29.136C51.6999 29.192 51.6776 29.2457 51.638 29.2853C51.5984 29.325 51.5446 29.3472 51.4886 29.3472Z" fill="#3F3D56"/>
<path d="M28.8645 32.3648C28.8267 32.3648 28.7895 32.3546 28.757 32.3353L17.3883 25.5971C17.3402 25.5685 17.3055 25.5219 17.2917 25.4677C17.2779 25.4135 17.2862 25.356 17.3147 25.3079C17.3432 25.2598 17.3896 25.2249 17.4438 25.211C17.498 25.1971 17.5555 25.2052 17.6037 25.2336L28.9724 31.9718C29.0123 31.9954 29.0433 32.0315 29.0606 32.0744C29.0779 32.1174 29.0807 32.1648 29.0684 32.2095C29.0562 32.2542 29.0296 32.2936 28.9927 32.3216C28.9559 32.3497 28.9108 32.3649 28.8645 32.3648Z" fill="#3F3D56"/>
<path d="M17.4966 39.1029C17.4503 39.1029 17.4053 39.0878 17.3684 39.0597C17.3316 39.0316 17.305 38.9922 17.2927 38.9476C17.2804 38.9029 17.2832 38.8554 17.3005 38.8125C17.3179 38.7696 17.3488 38.7335 17.3887 38.7099L28.7574 31.9717C28.8056 31.9431 28.8632 31.9348 28.9175 31.9487C28.9718 31.9626 29.0183 31.9975 29.0469 32.0457C29.0755 32.0939 29.0837 32.1515 29.0698 32.2058C29.056 32.2601 29.0211 32.3066 28.9729 32.3352L17.6041 39.0734C17.5716 39.0927 17.5344 39.1029 17.4966 39.1029Z" fill="#3F3D56"/>
<path d="M32.5764 35.7722H29.7495C29.4974 35.7719 29.2558 35.6717 29.0776 35.4935C28.8994 35.3152 28.7991 35.0736 28.7988 34.8216V29.318C28.7991 29.0659 28.8994 28.8243 29.0776 28.6461C29.2558 28.4678 29.4974 28.3676 29.7495 28.3673H32.5764C32.8284 28.3676 33.0701 28.4678 33.2483 28.6461C33.4265 28.8243 33.5268 29.0659 33.527 29.318V34.8216C33.5268 35.0736 33.4265 35.3152 33.2483 35.4935C33.0701 35.6717 32.8284 35.7719 32.5764 35.7722Z" fill="#CCCCCC"/>
<path d="M54.2414 22.3921H48.7378C48.4857 22.3918 48.2441 22.2916 48.0659 22.1134C47.8876 21.9351 47.7874 21.6935 47.7871 21.4415V18.6145C47.7874 18.3624 47.8876 18.1208 48.0659 17.9426C48.2441 17.7644 48.4857 17.6641 48.7378 17.6638H54.2414C54.4934 17.6641 54.7351 17.7644 54.9133 17.9426C55.0915 18.1208 55.1918 18.3624 55.192 18.6145V21.4415C55.1918 21.6935 55.0915 21.9351 54.9133 22.1134C54.7351 22.2916 54.4934 22.3918 54.2414 22.3921Z" fill="#CCCCCC"/>
<path d="M16.7326 29.2233H13.9057C13.6537 29.223 13.412 29.1227 13.2338 28.9445C13.0556 28.7663 12.9554 28.5246 12.9551 28.2726V22.769C12.9554 22.517 13.0556 22.2753 13.2338 22.0971C13.412 21.9189 13.6537 21.8186 13.9057 21.8184H16.7326C16.9847 21.8186 17.2263 21.9189 17.4045 22.0971C17.5828 22.2753 17.683 22.517 17.6833 22.769V28.2726C17.683 28.5246 17.5828 28.7663 17.4045 28.9445C17.2263 29.1227 16.9847 29.223 16.7326 29.2233Z" fill="#CCCCCC"/>
<path d="M16.7326 42.5323H13.9057C13.6537 42.5321 13.412 42.4318 13.2338 42.2536C13.0556 42.0754 12.9554 41.8337 12.9551 41.5817V36.0781C12.9554 35.8261 13.0556 35.5844 13.2338 35.4062C13.412 35.228 13.6537 35.1277 13.9057 35.1274H16.7326C16.9847 35.1277 17.2263 35.228 17.4045 35.4062C17.5828 35.5844 17.683 35.8261 17.6833 36.0781V41.5817C17.683 41.8337 17.5828 42.0754 17.4045 42.2536C17.2263 42.4318 16.9847 42.5321 16.7326 42.5323Z" fill="#CCCCCC"/>
<path d="M69.5567 32.3647H57.846C57.79 32.3647 57.7363 32.3424 57.6966 32.3028C57.657 32.2632 57.6348 32.2094 57.6348 32.1534C57.6348 32.0974 57.657 32.0436 57.6966 32.004C57.7363 31.9644 57.79 31.9421 57.846 31.9421H69.5567C69.6127 31.9421 69.6665 31.9644 69.7061 32.004C69.7457 32.0436 69.7679 32.0974 69.7679 32.1534C69.7679 32.2094 69.7457 32.2632 69.7061 32.3028C69.6665 32.3424 69.6127 32.3647 69.5567 32.3647Z" fill="#3F3D56"/>
<path d="M74.1138 32.3646C74.0675 32.3646 74.0224 32.3495 73.9856 32.3214C73.9487 32.2933 73.9221 32.2539 73.9099 32.2093C73.8976 32.1646 73.9004 32.1171 73.9177 32.0742C73.9351 32.0312 73.9661 31.9952 74.0059 31.9716L85.3746 25.2334C85.3985 25.2192 85.4249 25.2099 85.4524 25.206C85.4799 25.2021 85.5078 25.2036 85.5347 25.2105C85.5616 25.2173 85.5868 25.2294 85.609 25.2461C85.6312 25.2627 85.65 25.2836 85.6641 25.3074C85.6782 25.3313 85.6875 25.3577 85.6915 25.3852C85.6954 25.4126 85.6939 25.4406 85.687 25.4675C85.6801 25.4944 85.668 25.5196 85.6514 25.5418C85.6348 25.564 85.6139 25.5827 85.59 25.5969L74.2213 32.3351C74.1888 32.3544 74.1516 32.3646 74.1138 32.3646Z" fill="#3F3D56"/>
<path d="M85.4821 39.1029C85.4443 39.1029 85.4072 39.0927 85.3746 39.0734L74.0059 32.3352C73.9577 32.3066 73.9228 32.2601 73.9089 32.2058C73.895 32.1515 73.9033 32.0939 73.9319 32.0457C73.9604 31.9975 74.007 31.9626 74.0612 31.9487C74.1155 31.9348 74.1731 31.9431 74.2213 31.9716L85.59 38.7099C85.6299 38.7335 85.6609 38.7695 85.6782 38.8125C85.6956 38.8554 85.6983 38.9029 85.6861 38.9476C85.6738 38.9922 85.6472 39.0316 85.6104 39.0597C85.5735 39.0878 85.5284 39.1029 85.4821 39.1029Z" fill="#3F3D56"/>
<path d="M73.2287 35.7721H70.4018C70.1498 35.7718 69.9081 35.6716 69.7299 35.4933C69.5517 35.3151 69.4515 35.0735 69.4512 34.8214V29.3178C69.4515 29.0658 69.5517 28.8242 69.7299 28.6459C69.9081 28.4677 70.1498 28.3675 70.4018 28.3672H73.2287C73.4808 28.3675 73.7224 28.4677 73.9006 28.6459C74.0788 28.8242 74.1791 29.0658 74.1794 29.3178V34.8214C74.1791 35.0735 74.0788 35.3151 73.9006 35.4933C73.7224 35.6716 73.4808 35.7718 73.2287 35.7721Z" fill="#CCCCCC"/>
<path d="M89.0725 29.2233H86.2456C85.9935 29.223 85.7519 29.1227 85.5737 28.9445C85.3955 28.7663 85.2952 28.5246 85.2949 28.2726V22.769C85.2952 22.517 85.3955 22.2753 85.5737 22.0971C85.7519 21.9189 85.9935 21.8186 86.2456 21.8184H89.0725C89.3245 21.8186 89.5662 21.9189 89.7444 22.0971C89.9226 22.2753 90.0228 22.517 90.0231 22.769V28.2726C90.0228 28.5246 89.9226 28.7663 89.7444 28.9445C89.5662 29.1227 89.3245 29.223 89.0725 29.2233Z" fill="#CCCCCC"/>
<path d="M89.0725 42.5323H86.2456C85.9935 42.5321 85.7519 42.4318 85.5737 42.2536C85.3955 42.0754 85.2952 41.8337 85.2949 41.5817V36.0781C85.2952 35.8261 85.3955 35.5844 85.5737 35.4062C85.7519 35.228 85.9935 35.1277 86.2456 35.1274H89.0725C89.3245 35.1277 89.5662 35.228 89.7444 35.4062C89.9226 35.5844 90.0228 35.8261 90.0231 36.0781V41.5817C90.0228 41.8337 89.9226 42.0754 89.7444 42.2536C89.5662 42.4318 89.3245 42.5321 89.0725 42.5323Z" fill="#CCCCCC"/>
<path d="M41.9894 57.5085H36.4858C36.2338 57.5082 35.9921 57.4079 35.8139 57.2297C35.6357 57.0515 35.5354 56.8099 35.5352 56.5578V53.7309C35.5354 53.4789 35.6357 53.2372 35.8139 53.059C35.9921 52.8808 36.2338 52.7806 36.4858 52.7803H41.9894C42.2415 52.7806 42.4831 52.8808 42.6614 53.059C42.8396 53.2372 42.9398 53.4789 42.9401 53.7309V56.5578C42.9398 56.8099 42.8396 57.0515 42.6614 57.2297C42.4831 57.4079 42.2415 57.5082 41.9894 57.5085Z" fill="#CCCCCC"/>
<path d="M66.4543 57.5085H60.9507C60.6986 57.5082 60.457 57.4079 60.2787 57.2297C60.1005 57.0515 60.0003 56.8099 60 56.5578V53.7309C60.0003 53.4789 60.1005 53.2373 60.2787 53.059C60.457 52.8808 60.6986 52.7806 60.9507 52.7803H66.4543C66.7063 52.7806 66.948 52.8808 67.1262 53.059C67.3044 53.2373 67.4047 53.4789 67.4049 53.7309V56.5578C67.4047 56.8099 67.3044 57.0515 67.1262 57.2297C66.948 57.4079 66.7063 57.5082 66.4543 57.5085Z" fill="#CCCCCC"/>
<path d="M55.259 67.8598H49.7553C49.5033 67.8595 49.2617 67.7592 49.0834 67.581C48.9052 67.4028 48.805 67.1612 48.8047 66.9091V64.0822C48.805 63.8302 48.9052 63.5886 49.0834 63.4103C49.2617 63.2321 49.5033 63.1319 49.7553 63.1316H55.259C55.511 63.1319 55.7527 63.2321 55.9309 63.4103C56.1091 63.5886 56.2093 63.8302 56.2096 64.0822V66.9091C56.2093 67.1612 56.1091 67.4028 55.9309 67.581C55.7527 67.7592 55.511 67.8595 55.259 67.8598Z" fill="#CCCCCC"/>
<path d="M78.7082 67.8599H73.2046C72.9525 67.8596 72.7109 67.7594 72.5327 67.5812C72.3544 67.4029 72.2542 67.1613 72.2539 66.9093V64.0824C72.2542 63.8303 72.3544 63.5887 72.5327 63.4105C72.7109 63.2322 72.9525 63.132 73.2046 63.1317H78.7082C78.9602 63.132 79.2019 63.2322 79.3801 63.4105C79.5583 63.5887 79.6586 63.8303 79.6589 64.0824V66.9093C79.6586 67.1613 79.5583 67.4029 79.3801 67.5812C79.2019 67.7594 78.9602 67.8596 78.7082 67.8599Z" fill="#CCCCCC"/>
<path d="M66.4543 67.8598H60.9507C60.6986 67.8595 60.457 67.7592 60.2787 67.581C60.1005 67.4028 60.0003 67.1612 60 66.9091V64.0822C60.0003 63.8302 60.1005 63.5886 60.2787 63.4103C60.457 63.2321 60.6986 63.1319 60.9507 63.1316H66.4543C66.7063 63.1319 66.948 63.2321 67.1262 63.4103C67.3044 63.5886 67.4047 63.8302 67.4049 64.0822V66.9091C67.4047 67.1612 67.3044 67.4028 67.1262 67.581C66.948 67.7592 66.7063 67.8595 66.4543 67.8598Z" fill="#CCCCCC"/>
<path d="M58.1789 35.8283H44.7983C44.5463 35.828 44.3046 35.7278 44.1264 35.5495C43.9482 35.3713 43.8479 35.1297 43.8477 34.8776V29.4289C43.8479 29.1769 43.9482 28.9352 44.1264 28.757C44.3046 28.5788 44.5463 28.4786 44.7983 28.4783H58.1789C58.431 28.4786 58.6726 28.5788 58.8508 28.757C59.029 28.9352 59.1293 29.1769 59.1296 29.4289V34.8776C59.1293 35.1297 59.029 35.3713 58.8508 35.5495C58.6726 35.7278 58.431 35.828 58.1789 35.8283Z" fill="#63388B"/>
</svg>
