<svg width="144" height="100" viewBox="0 0 144 100" fill="none" xmlns="http://www.w3.org/2000/svg">
<path d="M38.0166 36.4547C38.0166 36.4547 34.81 35.2734 33.2911 35.2734C33.146 35.2734 33.0025 35.2902 32.8591 35.3206C31.887 35.5265 30.9925 36.3619 30.5638 36.8176C30.3967 36.9965 30.3006 37.1163 30.3006 37.1163C30.3006 37.1163 30.3107 36.9999 30.3309 36.7956C30.4305 35.7223 30.7984 32.2001 31.4583 29.9453C31.6946 29.1403 31.9663 28.4973 32.2785 28.1851C33.0059 27.456 33.3418 26.5818 33.497 25.9304C33.6287 25.3717 33.6287 24.9785 33.6287 24.9785L32.3983 24.4486L32.1705 22.96C32.13 23.1355 31.9427 23.4782 31.3132 24.1347C31.2592 24.1903 31.2001 24.2376 31.1376 24.2781C30.2297 24.8485 28.3783 23.8562 27.3809 23.2317C27.796 21.7888 28.5487 20.469 29.9158 20.253C33.1224 19.7467 33.1224 17.8902 35.1476 19.9155C35.3147 20.0825 35.4834 20.2429 35.6522 20.3981C36.3003 21.6369 36.5365 23.2976 36.6209 24.4519C36.6817 25.2603 36.6665 25.8223 36.6665 25.8223C36.6665 25.8223 37.5103 30.8854 38.8605 31.898C40.2106 32.9106 38.0166 36.4547 38.0166 36.4547Z" fill="#2F2E41"/>
<path d="M31.7726 28.3535L29.4922 31.6984L34.6416 33.079V28.3535H31.7726Z" fill="#FFB6B6"/>
<path opacity="0.1" d="M31.7726 28.3535L29.4922 31.6984L34.6416 33.079V28.3535H31.7726Z" fill="#3F3F3F"/>
<path d="M117.501 81.8433C117.745 81.7461 118.057 82.2934 118.268 82.196C118.477 82.0989 118.24 81.5217 118.432 80.7686C118.467 80.6328 118.685 79.777 119.043 79.7377C119.722 79.6633 120.309 82.588 121.324 82.563C121.546 82.5575 121.813 82.4094 122.506 82.3689C122.782 82.3528 122.931 82.365 123.009 82.4636C123.119 82.6035 122.989 82.795 122.857 83.2684C122.66 83.9785 122.816 84.0464 122.611 84.5763C122.459 84.9697 122.294 85.1389 122.378 85.2616C122.497 85.4353 122.905 85.2087 123.082 85.3942C123.263 85.5835 123.082 86.0742 122.893 86.4002C122.538 87.012 122.051 87.2208 121.641 87.5187C121.195 87.8424 120.63 88.4226 120.218 89.5426L116.918 99.6165C117.551 97.5156 119.192 91.6827 119.715 89.4479C119.866 88.8027 119.999 88.1332 119.653 87.5612C119.32 87.0105 118.583 86.6166 117.906 85.774C117.827 85.6756 117.611 85.3989 117.699 85.2141C117.773 85.0614 117.988 85.1107 118.058 84.9691C118.152 84.7793 117.842 84.5365 117.606 84.0507C117.439 83.7081 117.394 83.4188 117.355 83.1701C117.343 83.0951 117.175 81.9727 117.501 81.8433Z" fill="#F2F2F2"/>
<path d="M125.327 94.5328C125.445 94.6249 125.267 94.9359 125.375 95.011C125.483 95.0858 125.698 94.8031 126.123 94.6799C126.2 94.6577 126.683 94.5177 126.805 94.6822C127.038 94.9941 125.772 96.1258 126.077 96.6168C126.144 96.7245 126.293 96.8128 126.513 97.1411C126.6 97.2717 126.638 97.3487 126.612 97.4153C126.575 97.5099 126.443 97.501 126.173 97.5732C125.768 97.6813 125.779 97.7772 125.46 97.8297C125.223 97.8687 125.092 97.8363 125.056 97.913C125.006 98.0214 125.234 98.1563 125.195 98.2969C125.154 98.4403 124.861 98.493 124.646 98.4942C124.243 98.4964 124 98.3177 123.736 98.2023C123.448 98.0768 123.001 97.9672 122.332 98.0879L116.436 99.375C117.649 99.0797 120.986 98.2021 122.233 97.8137C122.594 97.7016 122.961 97.574 123.142 97.2392C123.316 96.9169 123.297 96.4414 123.515 95.8661C123.54 95.7989 123.614 95.6128 123.73 95.6029C123.826 95.5948 123.864 95.7145 123.953 95.7082C124.074 95.6998 124.104 95.4775 124.274 95.2213C124.394 95.0407 124.523 94.935 124.634 94.8441C124.667 94.8167 125.169 94.4101 125.327 94.5328Z" fill="#F2F2F2"/>
<path d="M122.548 93.2345L123.113 92.6513L123.117 92.5777C123.139 92.2371 123.231 91.959 123.39 91.7508C123.415 91.7177 123.442 91.6859 123.47 91.6535C123.579 91.5251 123.714 91.3655 123.777 91.1059C123.812 90.9609 123.868 90.6068 123.64 90.4798C123.579 90.445 123.518 90.4382 123.464 90.4434C123.465 90.4324 123.466 90.4213 123.467 90.4094C123.478 90.2631 123.46 90.1825 123.442 90.105C123.429 90.0453 123.415 89.9838 123.412 89.8619C123.411 89.8085 123.413 89.7636 123.414 89.7257C123.418 89.6112 123.417 89.4701 123.294 89.3776C123.159 89.2832 123.008 89.3382 122.908 89.3746C122.729 89.4393 122.622 89.5027 122.551 89.5447C122.525 89.5601 122.496 89.5773 122.485 89.5811C122.395 89.6104 122.099 89.2895 121.987 89.1694C121.735 88.8986 121.518 88.6643 121.275 88.7668C121.101 88.8399 121.022 89.0542 121.037 89.4211C121.041 89.5354 121.062 89.6358 121.085 89.7195C121.019 89.7115 120.946 89.7217 120.879 89.7743C120.721 89.8991 120.734 90.1569 120.918 90.541C120.964 90.6367 121.025 90.765 121.147 90.8983C121.205 90.961 121.263 91.0099 121.313 91.051C121.291 91.0814 121.273 91.1188 121.266 91.1658C121.243 91.3037 121.318 91.4349 121.492 91.5519C121.682 91.6833 121.859 91.7645 122.015 91.8364C122.152 91.8993 122.269 91.9538 122.343 92.0195C122.479 92.1433 122.501 92.346 122.516 92.5982L122.548 93.2345Z" fill="#F2F2F2"/>
<path d="M125.152 89.1782L125.573 89.8722L125.643 89.8954C125.967 90.0027 126.213 90.162 126.374 90.3689C126.4 90.4018 126.423 90.436 126.448 90.4708C126.544 90.6088 126.664 90.7804 126.9 90.9069C127.031 90.9773 127.359 91.1217 127.54 90.9331C127.589 90.883 127.611 90.8256 127.62 90.7716C127.63 90.7754 127.641 90.7791 127.652 90.7832C127.791 90.8313 127.873 90.8341 127.953 90.8367C128.014 90.8388 128.077 90.8409 128.195 90.8695C128.247 90.8821 128.29 90.8951 128.327 90.9061C128.436 90.939 128.573 90.9737 128.694 90.8782C128.819 90.7717 128.805 90.6114 128.795 90.5053C128.778 90.3161 128.743 90.1963 128.721 90.1168C128.712 90.0878 128.703 90.0551 128.702 90.0435C128.697 89.9494 129.082 89.7442 129.227 89.6662C129.553 89.4918 129.834 89.341 129.797 89.0796C129.77 88.8926 129.583 88.7627 129.224 88.6835C129.113 88.659 129.01 88.6539 128.923 88.6549C128.948 88.5926 128.957 88.5196 128.923 88.4415C128.842 88.2567 128.589 88.2041 128.171 88.2846C128.067 88.3043 127.927 88.3313 127.768 88.4158C127.692 88.4556 127.63 88.4989 127.578 88.5369C127.554 88.5081 127.522 88.4814 127.479 88.4623C127.351 88.4059 127.205 88.4445 127.048 88.5835C126.873 88.7339 126.749 88.8847 126.64 89.0175C126.545 89.1333 126.462 89.2328 126.38 89.2879C126.225 89.3882 126.024 89.3582 125.776 89.3087L125.152 89.1782Z" fill="#F2F2F2"/>
<path d="M126.937 87.5529L127.501 86.9697L127.506 86.8961C127.528 86.5555 127.619 86.2774 127.779 86.0692C127.804 86.0361 127.831 86.0043 127.859 85.9719C127.968 85.8435 128.103 85.6839 128.166 85.4242C128.201 85.2793 128.257 84.9252 128.029 84.7982C127.968 84.7634 127.907 84.7565 127.852 84.7617C127.853 84.7508 127.854 84.7397 127.855 84.7277C127.867 84.5814 127.848 84.5009 127.831 84.4233C127.817 84.3637 127.803 84.3022 127.801 84.1803C127.8 84.1268 127.802 84.0819 127.803 84.0441C127.807 83.9296 127.806 83.7884 127.683 83.6959C127.548 83.6016 127.397 83.6566 127.297 83.6929C127.118 83.7577 127.011 83.821 126.94 83.8631C126.914 83.8785 126.884 83.8957 126.873 83.8995C126.784 83.9288 126.488 83.6079 126.375 83.4878C126.124 83.217 125.907 82.9826 125.663 83.0851C125.489 83.1583 125.411 83.3726 125.425 83.7395C125.43 83.8537 125.451 83.9542 125.474 84.0379C125.408 84.0299 125.335 84.0401 125.268 84.0927C125.11 84.2175 125.123 84.4753 125.307 84.8594C125.352 84.9551 125.414 85.0834 125.536 85.2166C125.594 85.2793 125.651 85.3283 125.701 85.3694C125.679 85.3998 125.662 85.4372 125.654 85.4841C125.632 85.6221 125.706 85.7533 125.881 85.8703C126.071 86.0017 126.248 86.0829 126.404 86.1548C126.54 86.2176 126.657 86.2721 126.732 86.3379C126.868 86.4617 126.89 86.6644 126.905 86.9165L126.937 87.5529Z" fill="#F2F2F2"/>
<path d="M116.713 99.4416L116.911 99.4611L117.054 99.5994C117.067 99.5868 117.101 99.5601 117.154 99.5179C117.445 99.2863 118.329 98.582 119.563 97.351C120.424 96.4917 121.253 95.564 122.025 94.5933C122.799 93.6211 123.328 92.8406 123.753 92.2135C124.073 91.7404 124.371 91.2842 124.66 90.8396C125.435 89.6522 126.166 88.5306 127.132 87.4094C127.348 87.159 127.797 86.638 128.561 86.3049C129.004 86.1118 129.488 86.0099 129.998 86.0026L129.992 85.6035C129.429 85.612 128.893 85.725 128.401 85.9395C127.554 86.3088 127.065 86.8765 126.83 87.1492C125.847 88.2902 125.108 89.4227 124.326 90.6216C124.038 91.0645 123.741 91.5188 123.422 91.9899C123.001 92.6113 122.478 93.3849 121.714 94.3446C120.95 95.3038 120.132 96.22 119.281 97.0687C118.063 98.2841 117.192 98.9778 116.906 99.2058C116.753 99.3276 116.721 99.3531 116.713 99.4416Z" fill="#F2F2F2"/>
<path d="M130.19 86.9508C130.202 86.9608 130.216 86.9706 130.23 86.9799C130.51 87.173 130.883 87.2043 131.339 87.0732C131.553 87.0113 131.732 86.89 132.089 86.6481C132.144 86.6109 132.42 86.4194 132.738 86.1084C132.945 85.9052 133.015 85.8069 133.035 85.6878C133.057 85.5554 133.026 85.4275 132.969 85.3129C132.997 85.2858 133.017 85.2522 133.029 85.2103C133.077 85.0371 132.92 84.9439 132.836 84.8925C132.794 84.8672 132.74 84.8359 132.689 84.7924C132.609 84.7244 132.584 84.6653 132.545 84.5762C132.508 84.4908 132.461 84.3847 132.361 84.2684C132.164 84.0379 131.916 83.9525 131.834 83.9243C131.405 83.7744 131.031 83.9098 130.599 84.0667C130.513 84.0983 130.206 84.2198 129.88 84.4595C129.645 84.6324 129.578 84.738 129.541 84.8261C129.463 85.0068 129.488 85.164 129.574 85.5344C129.663 85.9217 129.708 86.1158 129.766 86.2575C129.901 86.5868 129.986 86.7936 130.19 86.9508Z" fill="#F2F2F2"/>
<path d="M117.532 97.9966L114.559 97.9963L113.145 86.5273L117.533 86.5277L117.532 97.9966Z" fill="#A0616A"/>
<path d="M107.345 97.9289C107.252 98.0849 107.203 98.5881 107.203 98.7694C107.203 99.3268 107.655 99.7786 108.212 99.7786H117.421C117.801 99.7786 118.109 99.4704 118.109 99.0901V98.7068C118.109 98.7068 118.565 97.5546 117.627 96.1344C117.627 96.1344 116.461 97.2464 114.719 95.5047L114.206 94.5742L110.488 97.2933L108.427 97.547C107.976 97.6025 107.576 97.5384 107.345 97.9289Z" fill="#2F2E41"/>
<path d="M109.411 97.9966L106.438 97.9963L105.023 86.5273L109.412 86.5277L109.411 97.9966Z" fill="#A0616A"/>
<path d="M99.2235 97.9289C99.1309 98.0849 99.082 98.5881 99.082 98.7694C99.082 99.3268 99.5338 99.7786 100.091 99.7786H109.299C109.68 99.7786 109.988 99.4704 109.988 99.0901V98.7068C109.988 98.7068 110.443 97.5546 109.506 96.1344C109.506 96.1344 108.34 97.2464 106.598 95.5047L106.085 94.5742L102.367 97.2933L100.306 97.547C99.8551 97.6025 99.4554 97.5384 99.2235 97.9289Z" fill="#2F2E41"/>
<path d="M109.639 15.7949C109.639 15.7949 108.091 16.7031 108.599 17.6013C109.107 18.4994 109.815 19.7228 109.334 20.1081C108.854 20.4934 108.061 22.1922 108.061 22.1922C108.061 22.1922 104.676 21.7194 104.994 24.3489C105.311 26.9783 106.902 27.3368 105.539 28.4936C104.176 29.6503 106.955 31.0338 106.955 31.0338C106.955 31.0338 108.874 30.4358 109.312 28.5969C109.75 26.7581 108.922 30.003 109.199 30.2357C109.477 30.4683 110.555 32.0019 111.319 29.9629C112.082 27.9239 111.326 27.1333 112.334 25.9299C113.342 24.7265 114.028 22.78 113.998 22.4398C113.968 22.0995 115.151 18.9947 113.33 17.7838C111.508 16.573 109.639 15.7949 109.639 15.7949Z" fill="#2F2E41"/>
<path d="M110.35 23.0138L109.254 26.9098H115.27L113.289 22.1094L110.35 23.0138Z" fill="#A0616A"/>
<path opacity="0.1" d="M110.35 23.0138L109.254 26.9098H115.27L113.289 22.1094L110.35 23.0138Z" fill="#3F3F3F"/>
<path d="M118.058 50.2069C118.058 50.2069 120.628 53.4776 120.044 60.0189C119.46 66.5602 117.474 95.0741 117.474 95.0741H114.036L111.283 68.4292L109.599 95.0741L104.34 94.8305L105.544 48.0723L118.058 50.2069Z" fill="#2F2E41"/>
<path d="M90.9103 27.6828C90.1355 26.6281 90.0516 25.3734 90.7229 24.8804C91.3942 24.3875 92.5663 24.8429 93.3412 25.8981C93.6565 26.3153 93.8674 26.802 93.956 27.3175L97.1825 31.8277L95.0337 33.2967L92.0811 28.6944C91.6156 28.4556 91.2142 28.1087 90.9103 27.6828Z" fill="#A0616A"/>
<path d="M110.654 32.036L101.507 38.6895C101.507 38.6895 99.4775 40.0551 97.1301 37.0833C94.7827 34.1114 92.418 29.5181 92.418 29.5181L94.5337 27.9434L97.1124 31.304C97.1124 31.304 98.8151 32.3962 98.852 32.9006C98.8889 33.4049 98.4928 33.5354 99.0981 33.491C99.7033 33.4467 99.7798 33.1057 99.717 33.6329C99.6542 34.1602 99.1868 34.7015 99.9642 34.2389C100.742 33.7763 100.872 34.1724 100.872 34.1724L106.958 28.6558C106.958 28.6558 110.572 26.7685 111.052 29.1672C111.532 31.566 110.654 32.036 110.654 32.036Z" fill="#63388B"/>
<path d="M109.472 26.4375H114.83L119.752 34.1469L117.707 44.8349L119.051 51.6683L105.375 48.0735L106.451 47.6475L107.019 43.258L104.566 35.7675L106.669 29.5913L109.472 26.4375Z" fill="#63388B"/>
<path d="M115.402 20.2382C115.402 22.2391 113.78 23.8611 111.779 23.8611C109.778 23.8611 108.156 22.2391 108.156 20.2382C108.156 18.2373 109.778 16.6152 111.779 16.6152C113.78 16.6152 115.402 18.2373 115.402 20.2382Z" fill="#A0616A"/>
<path d="M110.391 16.1926C110.391 16.1926 109.788 17.8833 110.754 18.2456C111.72 18.6079 113.048 19.0909 112.928 19.6948C112.807 20.2986 113.29 22.1101 113.29 22.1101C113.29 22.1101 110.391 23.9215 112.324 25.733C114.256 27.5445 115.705 26.798 115.403 28.56C115.101 30.3221 118.12 29.5975 118.12 29.5975C118.12 29.5975 119.207 27.9068 118.362 26.2161C117.517 24.5254 118.966 27.5445 119.328 27.5445C119.69 27.5445 121.502 28.0275 120.777 25.9745C120.053 23.9215 118.966 23.8008 118.966 22.2308C118.966 20.6609 118.241 18.7286 118 18.4871C117.758 18.2456 116.671 15.1057 114.497 15.3472C112.324 15.5888 110.391 16.1926 110.391 16.1926Z" fill="#2F2E41"/>
<path d="M115.076 56.0035C114.736 57.3207 113.781 58.213 112.942 57.9966C112.104 57.7802 111.7 56.5371 112.041 55.2195C112.169 54.6913 112.423 54.2016 112.779 53.7913L114.29 48.2285L116.885 48.993L115.12 54.3958C115.234 54.9276 115.219 55.4789 115.076 56.0035Z" fill="#A0616A"/>
<path d="M114.387 32.1323C114.387 32.1323 115.857 28.1597 117.468 28.4184C119.079 28.677 120.548 31.1741 120.548 31.1741L119.384 45.3057L116.184 53.37L112.791 52.0322L114.554 43.9728L114.387 32.1323Z" fill="#63388B"/>
<path d="M25.1334 97.8555L28.2237 97.8552L29.6937 85.9355L25.1328 85.9359L25.1334 97.8555Z" fill="#FFB6B6"/>
<path d="M35.7204 97.7854C35.8166 97.9474 35.8674 98.4705 35.8674 98.6589C35.8674 99.2382 35.3978 99.7078 34.8186 99.7078H25.2484C24.8533 99.7078 24.5329 99.3874 24.5329 98.9922V98.5938C24.5329 98.5938 24.0595 97.3963 25.0342 95.9203C25.0342 95.9203 26.2456 97.076 28.0558 95.2659L28.5896 94.2988L32.4536 97.1248L34.5954 97.3884C35.0639 97.4461 35.4794 97.3794 35.7204 97.7854Z" fill="#2F2E41"/>
<path d="M18.8223 91.2621L20.9897 93.4648L30.5177 86.1534L27.3189 82.9023L18.8223 91.2621Z" fill="#FFB6B6"/>
<path d="M26.2969 98.7598C26.2488 98.942 25.9116 99.345 25.7772 99.4772C25.3643 99.8834 24.7002 99.878 24.294 99.4651L17.5824 92.6429C17.3053 92.3612 17.309 91.9081 17.5907 91.631L17.8747 91.3516C17.8747 91.3516 18.3963 90.1743 20.1321 89.834C20.1321 89.834 20.1578 91.5081 22.7177 91.529L23.7814 91.2313L24.4767 95.9677L25.7908 97.6793C26.0783 98.0538 26.4172 98.3033 26.2969 98.7598Z" fill="#2F2E41"/>
<path d="M38.0065 58.3933L30.5117 39.9158L34.7029 39.2891L40.2839 56.246L41.2358 58.7423C41.703 59.1828 42.058 59.7287 42.271 60.3344C42.8249 61.8432 42.4957 63.3514 41.5358 63.7038C40.576 64.0562 39.3491 63.1192 38.7956 61.6108C38.566 61.011 38.4835 60.3648 38.5549 59.7265L38.0386 58.3806L38.0065 58.3933Z" fill="#FFB6B6"/>
<path d="M35.6278 34.6296L39.449 50.1357C39.449 50.1357 35.3105 48.7068 33.4651 51.2011C33.4651 51.2011 29.2602 35.4111 30.1119 34.2599C30.9637 33.1086 35.1831 32.7962 35.6012 34.4515" fill="#E6E6E6"/>
<path d="M37.5787 48.4078L40.279 74.3981L28.8027 89.4185L25.9337 87.2245L32.9376 74.1449L25.0898 56.5087C25.0898 56.5087 26.2712 48.5766 26.7775 47.564C27.2838 46.5513 37.5787 48.4078 37.5787 48.4078Z" fill="#2F2E41"/>
<path d="M26.6081 54.9902L25.0892 56.5091L23.9922 91.3598L29.8991 92.0349L31.2914 63.9449L26.6081 54.9902Z" fill="#2F2E41"/>
<path d="M30.0678 30.4355L34.4558 31.9545L38.1687 39.7178V49.4665C38.1687 49.4665 38.1687 50.519 36.8185 50.0127C35.4684 49.5064 30.2366 47.4811 30.2366 47.4811C30.2366 47.4811 27.03 49.5064 26.1861 49C25.3423 48.4937 25.3423 48.1722 25.3423 47.4891C25.3423 46.8061 24.4141 40.646 24.4141 40.646L27.4519 32.8827L30.0678 30.4355Z" fill="#E6E6E6"/>
<path d="M28.6525 58.1992L23.9727 38.8164H28.2105L31.2224 56.4123L31.7947 59.0219C32.1916 59.5266 32.462 60.119 32.583 60.7495C32.9077 62.3237 32.3591 63.7666 31.3577 63.9732C30.3563 64.1798 29.2814 63.0716 28.9571 61.498C28.8188 60.8708 28.8327 60.2195 28.9977 59.5988L28.6862 58.1913L28.6525 58.1992Z" fill="#FFB6B6"/>
<path d="M29.4768 34.4001L30.4229 47.2542C30.4229 47.2542 27.5538 46.9167 25.3598 49.1107C25.3598 49.1107 23.0636 34.2314 24.0762 33.2188C25.0889 32.2062 29.3081 32.5211 29.4768 34.2201" fill="#E6E6E6"/>
<path d="M86.5129 39.4081H47.5792C46.3552 39.4081 45.3594 38.4123 45.3594 37.1883V31.3331C45.3594 30.1091 46.3552 29.1133 47.5792 29.1133H88.7328V37.1883C88.7328 38.4123 87.737 39.4081 86.5129 39.4081Z" fill="#E6E6E6"/>
<path d="M96.6473 26.9256C96.6044 26.9256 96.5616 26.9094 96.5287 26.8769C96.4624 26.8114 96.4617 26.7045 96.5272 26.6383C96.9708 26.1893 97.213 25.5945 97.2092 24.9635C97.2054 24.3323 96.9561 23.7405 96.5072 23.297C96.0617 22.8568 95.4726 22.6149 94.8469 22.6149C94.842 22.6149 94.8372 22.6149 94.8323 22.615C94.2011 22.6188 93.6093 22.868 93.1658 23.317C93.1002 23.3834 92.9935 23.3839 92.9271 23.3185C92.8608 23.253 92.8601 23.1461 92.9257 23.0798C93.4326 22.5667 94.109 22.2817 94.8302 22.2774C94.8358 22.2773 94.8414 22.2773 94.847 22.2773C95.562 22.2773 96.2353 22.5538 96.7444 23.0568C97.2574 23.5638 97.5424 24.2402 97.5468 24.9614C97.5511 25.6827 97.2743 26.3625 96.7674 26.8755C96.7343 26.9089 96.6908 26.9256 96.6473 26.9256Z" fill="#3F3D56"/>
<path d="M76.413 35.1877H57.6798C57.2145 35.1877 56.8359 34.8091 56.8359 34.3438C56.8359 33.8786 57.2145 33.5 57.6798 33.5H76.413C76.8783 33.5 77.2569 33.8786 77.2569 34.3438C77.2569 34.8091 76.8783 35.1877 76.413 35.1877Z" fill="white"/>
<path d="M94.9767 25.4279C94.5114 25.4279 94.1328 25.0493 94.1328 24.5841C94.1328 24.1188 94.5114 23.7402 94.9767 23.7402C95.4419 23.7402 95.8205 24.1188 95.8205 24.5841C95.8205 25.0493 95.4419 25.4279 94.9767 25.4279ZM94.9767 24.0778C94.6975 24.0778 94.4703 24.3049 94.4703 24.5841C94.4703 24.8633 94.6975 25.0904 94.9767 25.0904C95.2558 25.0904 95.483 24.8633 95.483 24.5841C95.483 24.3049 95.2558 24.0778 94.9767 24.0778Z" fill="#3F3D56"/>
<path d="M55.6958 60.082H42.1106C41.4347 60.082 40.8867 60.63 40.8867 61.3059V75.7349C40.8867 76.4109 41.4347 76.9589 42.1106 76.9589H55.6958C56.3717 76.9589 56.9197 76.4109 56.9197 75.7349V61.3059C56.9197 60.63 56.3717 60.082 55.6958 60.082Z" fill="white"/>
<path d="M55.6966 77.1265H42.1114C41.3435 77.1265 40.7188 76.5017 40.7188 75.7338V61.3048C40.7188 60.5369 41.3435 59.9121 42.1114 59.9121H55.6966C56.4645 59.9121 57.0893 60.5369 57.0893 61.3048V75.7338C57.0893 76.5017 56.4645 77.1265 55.6966 77.1265ZM42.1114 60.2496C41.5296 60.2496 41.0563 60.723 41.0563 61.3048V75.7338C41.0563 76.3156 41.5296 76.7889 42.1114 76.7889H55.6966C56.2784 76.7889 56.7517 76.3156 56.7517 75.7338V61.3048C56.7517 60.723 56.2784 60.2496 55.6966 60.2496H42.1114Z" fill="#E6E6E6"/>
<path d="M49.3245 62.1074H43.0801V64.7671H49.3245V62.1074Z" fill="#E6E6E6"/>
<path d="M53.9497 69.9553H48.9205C48.5389 69.9553 48.2285 69.6448 48.2285 69.2633V67.8188C48.2285 67.4373 48.5389 67.127 48.9205 67.127H53.9497C54.3313 67.127 54.6417 67.4373 54.6417 67.8188V69.2633C54.6417 69.6448 54.3313 69.9553 53.9497 69.9553Z" fill="#E6E6E6"/>
<path d="M49.7294 74.4268H44.7002C44.2721 74.4268 43.9238 74.0786 43.9238 73.6504V72.206C43.9238 71.7779 44.2721 71.4297 44.7002 71.4297H49.7294C50.1575 71.4297 50.5058 71.7779 50.5058 72.206V73.6504C50.5058 74.0786 50.1575 74.4268 49.7294 74.4268ZM44.7002 71.7672C44.4582 71.7672 44.2614 71.964 44.2614 72.206V73.6504C44.2614 73.8923 44.4582 74.0893 44.7002 74.0893H49.7294C49.9714 74.0893 50.1683 73.8923 50.1683 73.6504V72.206C50.1683 71.964 49.9714 71.7672 49.7294 71.7672H44.7002Z" fill="#E6E6E6"/>
<path d="M47.2991 63.879H44.7676C44.535 63.879 44.3457 63.6898 44.3457 63.4571C44.3457 63.2244 44.535 63.0352 44.7676 63.0352H47.2991C47.5318 63.0352 47.7211 63.2244 47.7211 63.4571C47.7211 63.6898 47.5318 63.879 47.2991 63.879Z" fill="white"/>
<path d="M52.8695 68.9415H50.3379C50.1053 68.9415 49.916 68.7523 49.916 68.5196C49.916 68.2869 50.1053 68.0977 50.3379 68.0977H52.8695C53.1021 68.0977 53.2914 68.2869 53.2914 68.5196C53.2914 68.7523 53.1021 68.9415 52.8695 68.9415Z" fill="white"/>
<path d="M48.3128 73.3302H45.7813C45.5487 73.3302 45.3594 73.141 45.3594 72.9082C45.3594 72.6755 45.5487 72.4863 45.7813 72.4863H48.3128C48.5455 72.4863 48.7347 72.6755 48.7347 72.9082C48.7347 73.141 48.5455 73.3302 48.3128 73.3302Z" fill="#E6E6E6"/>
<path d="M58.017 68.4582C60.7669 68.1688 63.3748 66.9475 65.3911 65.0606C67.5488 63.0416 68.899 60.2632 69.2217 57.3304C69.4101 55.6186 69.2602 53.8821 68.7572 52.234C68.6621 51.9222 68.1827 52.0854 68.2779 52.3974C69.1344 55.2036 68.9175 58.306 67.7075 60.977C66.5906 63.4425 64.6253 65.4408 62.2265 66.6802C60.9069 67.362 59.4591 67.7975 57.9822 67.9529C57.6593 67.9869 57.6916 68.4924 58.017 68.4582Z" fill="#3F3D56"/>
<path d="M66.0888 53.8867L67.8834 50.0359L67.4888 50.1102L70.4874 53.2172C70.7143 53.4522 71.05 53.0728 70.8249 52.8396L67.8263 49.7326C67.7141 49.6164 67.4971 49.6664 67.4317 49.8069L65.6371 53.6576C65.4995 53.9528 65.951 54.1824 66.0888 53.8867Z" fill="#3F3D56"/>
<path d="M54.3885 68.5211C55.507 68.5211 56.4137 67.6144 56.4137 66.4959C56.4137 65.3774 55.507 64.4707 54.3885 64.4707C53.27 64.4707 52.3633 65.3774 52.3633 66.4959C52.3633 67.6144 53.27 68.5211 54.3885 68.5211Z" fill="#63388B"/>
<path d="M55.1026 65.4723C55.0192 65.4494 54.9548 65.5009 54.9246 65.5733C54.7379 66.0203 54.5513 66.4672 54.3646 66.9142C54.1695 66.63 53.9743 66.3458 53.7792 66.0616C53.6745 65.9091 53.4236 66.0536 53.5294 66.2076C53.7763 66.5673 54.0233 66.9269 54.2702 67.2866C54.3457 67.3965 54.4864 67.3674 54.5346 67.252C54.7576 66.7181 54.9806 66.1842 55.2036 65.6502C55.2337 65.5781 55.1711 65.4911 55.1026 65.4723Z" fill="white"/>
<path d="M143.627 99.7168H0V100.001H143.627V99.7168Z" fill="#E6E6E6"/>
<path d="M51.3677 41.1793H45.2552C44.3348 41.1793 43.5859 40.4304 43.5859 39.51V33.3976C43.5859 32.4771 44.3348 31.7283 45.2552 31.7283H51.3677C52.2881 31.7283 53.037 32.4771 53.037 33.3976V39.51C53.037 40.4304 52.2881 41.1793 51.3677 41.1793ZM45.2552 32.1579C44.5716 32.1579 44.0155 32.7139 44.0155 33.3976V39.51C44.0155 40.1936 44.5716 40.7497 45.2552 40.7497H51.3677C52.0513 40.7497 52.6074 40.1936 52.6074 39.51V33.3976C52.6074 32.7139 52.0513 32.1579 51.3677 32.1579H45.2552Z" fill="#3F3D56"/>
<path d="M51.3635 39.3535H47.6523C46.4171 39.3535 45.4121 38.3485 45.4121 37.1133V33.4021L51.3635 39.3535Z" fill="#63388B"/>
<path d="M86.6611 7.4258H81.8585C81.1353 7.4258 80.5469 6.83742 80.5469 6.11422V1.31158C80.5469 0.58838 81.1353 0 81.8585 0H86.6611C87.3843 0 87.9727 0.588382 87.9727 1.31158V6.11422C87.9727 6.83742 87.3843 7.4258 86.6611 7.4258ZM81.8584 0.337536C81.3213 0.337536 80.8844 0.774455 80.8844 1.31158V6.11422C80.8844 6.65135 81.3213 7.08826 81.8584 7.08826H86.6611C87.1982 7.08826 87.6351 6.65134 87.6351 6.11422V1.31158C87.6351 0.774454 87.1982 0.337536 86.6611 0.337536H81.8584Z" fill="#E6E6E6"/>
<path d="M86.6565 5.99052H83.7406C82.7701 5.99052 81.9805 5.2009 81.9805 4.2304V1.31445L86.6565 5.99052Z" fill="#63388B"/>
<path d="M97.6318 17.8887H92.8292C92.106 17.8887 91.5176 17.3003 91.5176 16.5771V11.7745C91.5176 11.0513 92.106 10.4629 92.8292 10.4629H97.6318C98.355 10.4629 98.9434 11.0513 98.9434 11.7745V16.5771C98.9434 17.3003 98.355 17.8887 97.6318 17.8887ZM92.8292 10.8004C92.292 10.8004 91.8551 11.2373 91.8551 11.7745V16.5771C91.8551 17.1142 92.292 17.5512 92.8292 17.5512H97.6318C98.1689 17.5512 98.6058 17.1142 98.6058 16.5771V11.7745C98.6058 11.2373 98.1689 10.8004 97.6318 10.8004H92.8292Z" fill="#E6E6E6"/>
<path d="M93.0352 11.9824V16.3704H97.4231L93.0352 11.9824Z" fill="#63388B"/>
<path d="M81.3906 34.8147V28.8114C81.3906 27.9074 82.1261 27.1719 83.0301 27.1719H89.0334C89.9374 27.1719 90.6729 27.9074 90.6729 28.8114V34.8147C90.6729 35.7187 89.9374 36.4541 89.0334 36.4541H83.0301C82.1261 36.4541 81.3906 35.7187 81.3906 34.8147ZM83.0301 27.5938C82.3587 27.5938 81.8125 28.1399 81.8125 28.8114V34.8147C81.8125 35.4861 82.3587 36.0322 83.0301 36.0322H89.0334C89.7048 36.0322 90.2509 35.4861 90.2509 34.8147V28.8114C90.2509 28.1399 89.7048 27.5938 89.0334 27.5938H83.0301Z" fill="#3F3D56"/>
<path d="M83.2891 29.0706L88.774 29.0706V34.5555L83.2891 29.0706Z" fill="#63388B"/>
<path d="M32.8648 29.8468C35.2495 29.8468 37.1827 27.9136 37.1827 25.5289C37.1827 23.1441 35.2495 21.2109 32.8648 21.2109C30.4801 21.2109 28.5469 23.1441 28.5469 25.5289C28.5469 27.9136 30.4801 29.8468 32.8648 29.8468Z" fill="#FFB6B6"/>
<path d="M38.693 23.9659C37.8492 24.8097 37.1741 25.6536 37.1741 25.6536L36.8366 24.3034C36.8366 24.3034 36.7589 24.3608 36.6222 24.4519C36.0872 24.8165 34.651 25.7329 33.4983 25.9304C32.9853 26.0181 32.5296 25.9624 32.2326 25.6536C31.603 24.9971 31.4157 24.6545 31.3752 24.4789L31.1474 25.9675L29.9171 26.4974C29.9171 26.4974 29.9171 28.3505 31.2672 29.704C31.333 29.7698 31.3972 29.8508 31.4596 29.9454C32.1043 30.9175 32.5667 33.2971 32.8604 35.3206C33.1203 37.1197 33.2452 38.6352 33.2452 38.6352C33.2452 38.6352 31.9676 37.0353 30.5651 36.8176C30.4875 36.8058 30.4099 36.7973 30.3322 36.7956C30.3069 36.7923 30.2799 36.7923 30.2546 36.7923C28.7357 36.7923 25.5291 37.9737 25.5291 37.9737C25.5291 37.9737 23.3351 34.4295 24.6852 33.4169C26.0354 32.4043 26.8792 27.3413 26.8792 27.3413C26.8792 27.3413 26.8235 25.1743 27.3822 23.2317C27.7973 21.7888 28.55 20.469 29.9171 20.253C33.1237 19.7467 33.1237 17.8902 35.1489 19.9155C35.3159 20.0825 35.4847 20.2429 35.6535 20.3981C37.5403 22.1331 39.4677 23.1912 38.693 23.9659Z" fill="#2F2E41"/>
<path d="M95.0052 9.175C95.2579 8.26934 95.1982 7.2919 94.8541 6.41821C94.4858 5.48328 93.7764 4.70862 92.8895 4.23945C92.3718 3.96563 91.804 3.79565 91.22 3.74838C91.1095 3.73944 91.1011 3.91143 91.2117 3.92038C92.2061 4.00087 93.1599 4.45778 93.8529 5.17467C94.4926 5.83642 94.8784 6.70793 94.97 7.62153C95.0204 8.12408 94.9768 8.63636 94.8411 9.12274C94.8115 9.22909 94.9753 9.28215 95.0052 9.175Z" fill="#E6E6E6"/>
<path d="M91.4086 4.7978L90.4157 3.74838L90.3898 3.88242L91.7475 3.32325C91.8502 3.28096 91.7723 3.12733 91.6704 3.1693L90.3127 3.72847C90.2619 3.74939 90.2506 3.82424 90.2868 3.86251L91.2796 4.91193C91.3558 4.99237 91.4848 4.87838 91.4086 4.7978Z" fill="#E6E6E6"/>
<path d="M83.8408 9.5176C83.5881 10.4233 83.6477 11.4007 83.9919 12.2744C84.3602 13.2093 85.0696 13.984 85.9565 14.4532C86.4741 14.727 87.042 14.897 87.626 14.9442C87.7365 14.9532 87.7449 14.7812 87.6343 14.7722C86.6399 14.6917 85.6861 14.2348 84.9931 13.5179C84.3534 12.8562 83.9676 11.9847 83.876 11.0711C83.8256 10.5685 83.8691 10.0563 84.0049 9.56987C84.0345 9.46352 83.8707 9.41046 83.8408 9.5176Z" fill="#E6E6E6"/>
<path d="M87.438 13.8936L88.4309 14.943L88.4568 14.8089L87.0991 15.3681C86.9964 15.4104 87.0743 15.564 87.1762 15.5221L88.5339 14.9629C88.5847 14.942 88.596 14.8671 88.5598 14.8288L87.5669 13.7794C87.4908 13.699 87.3617 13.813 87.438 13.8936Z" fill="#E6E6E6"/>
</svg>
