<svg width="117" height="100" viewBox="0 0 117 100" fill="none" xmlns="http://www.w3.org/2000/svg">
<path d="M91.2118 16.1237H83.2784V83.7608C83.2784 84.822 83.0694 85.8728 82.6632 86.8532C82.2571 87.8336 81.6619 88.7245 80.9115 89.4749C80.1611 90.2252 79.2703 90.8205 78.2899 91.2266C77.3094 91.6327 76.2586 91.8417 75.1974 91.8417H14.543V91.919C14.543 92.9802 14.752 94.0311 15.1581 95.0115C15.5642 95.9919 16.1594 96.8827 16.9098 97.6331C17.6602 98.3835 18.551 98.9788 19.5315 99.3849C20.5119 99.791 21.5627 100 22.6239 100H91.2118C92.273 100 93.3238 99.791 94.3043 99.3849C95.2847 98.9788 96.1755 98.3835 96.9259 97.6331C97.6763 96.8828 98.2715 95.9919 98.6777 95.0115C99.0838 94.0311 99.2928 92.9802 99.2928 91.919V24.2046C99.2928 23.1434 99.0838 22.0926 98.6777 21.1122C98.2715 20.1317 97.6763 19.2409 96.9259 18.4905C96.1755 17.7401 95.2847 17.1449 94.3043 16.7388C93.3238 16.3327 92.273 16.1237 91.2118 16.1237Z" fill="#F2F2F2"/>
<path d="M81.3956 9.1853H3.35419C1.50172 9.1853 0 10.687 0 12.5395V89.7075C0 91.5599 1.50172 93.0616 3.35419 93.0616H81.3956C83.2481 93.0616 84.7498 91.5599 84.7498 89.7075V12.5395C84.7498 10.687 83.2481 9.1853 81.3956 9.1853Z" fill="#F2F2F2"/>
<path d="M8.08121 10.847C6.37876 10.847 4.74604 11.5233 3.54222 12.7272C2.33841 13.931 1.66211 15.5637 1.66211 17.2661V84.9806C1.66211 86.6831 2.33841 88.3158 3.54222 89.5196C4.74603 90.7234 6.37876 91.3997 8.08121 91.3997H51.8557C69.1049 91.3997 83.0881 77.4165 83.0881 60.1673V17.2661C83.0881 15.5637 82.4118 13.931 81.208 12.7272C80.0042 11.5233 78.3714 10.847 76.669 10.847H8.08121Z" fill="white"/>
<path d="M86.6042 56.2906C86.2536 56.3877 85.8861 56.4075 85.5271 56.3487C85.168 56.2898 84.8261 56.1537 84.5249 55.9497C84.2236 55.7456 83.9703 55.4786 83.7824 55.1671C83.5946 54.8555 83.4766 54.5069 83.4367 54.1453L71.4512 50.5257L71.6373 46.9644L85.8412 51.3675C86.4549 51.3456 87.0553 51.5496 87.5287 51.9408C88.002 52.3321 88.3154 52.8833 88.4094 53.4901C88.5035 54.097 88.3716 54.7172 88.0389 55.2334C87.7062 55.7495 87.1957 56.1257 86.6042 56.2906Z" fill="#FFB6B6"/>
<path d="M46.2507 37.9196C45.0372 36.9069 46.8142 31.8872 46.3351 30.4322C46.3064 30.3442 46.2792 30.2558 46.2533 30.1672C46.1991 29.9795 46.2113 29.7787 46.2877 29.5989L50.7925 27.48C51.9662 27.9596 53.0478 28.6395 53.9887 29.4894L60.9478 37.4376L67.8614 43.6816L70.8949 45.034L80.9473 49.5176L80.8431 49.8181L80.8422 49.8189L79.7373 53.028L79.7373 53.0297L81.9477 54.5706L74.7112 53.4805L69.9252 51.5063L65.3168 49.6058C58.5127 45.5109 47.3178 43.3884 46.2507 37.9196Z" fill="#63388B"/>
<path d="M78.3258 74.7536C78.1929 74.8141 78.0447 74.8322 77.9013 74.8056C77.7578 74.7791 77.6259 74.709 77.5236 74.605C77.4212 74.5009 77.3534 74.368 77.3291 74.2241C77.3049 74.0802 77.3255 73.9323 77.3881 73.8005C77.3782 73.7276 77.3711 73.6753 77.3612 73.6024C77.3495 73.5904 77.3377 73.5784 77.3259 73.5664C76.1365 72.3599 74.0793 73.196 74.0583 74.89C74.0397 76.3936 73.8758 77.958 74.2542 79.3882C74.4218 80.0203 74.6977 80.6185 75.0697 81.1563C72.7137 78.9179 70.8664 76.199 69.6533 73.1841C69.3496 72.4272 69.0885 71.6539 68.8712 70.8679C68.6936 70.2233 68.5448 69.5723 68.4246 68.9149C67.7764 65.3462 67.984 61.6747 69.0303 58.2019C69.8247 57.2396 70.305 56.057 70.4066 54.8134C70.4446 54.3658 70.4176 53.915 70.3264 53.4751C70.2177 53.5361 69.1999 51.9167 69.2435 51.7749C68.9864 51.5964 68.652 51.5905 68.3826 51.4238C67.0427 50.5946 65.9289 51.2795 65.9456 53.1293C64.8814 54.3371 65.316 55.4588 66.5648 56.2046C67.3594 56.6791 67.8014 57.5749 68.5514 58.1232C68.5285 58.2022 68.503 58.2801 68.4801 58.3591C68.0636 59.8084 67.7902 61.295 67.6637 62.7976C67.2853 61.3389 66.3532 59.7725 65.4743 58.8741C64.4733 57.8504 63.1051 57.1987 61.8397 56.474C60.3198 55.6035 58.4738 56.9891 58.9437 58.6764C58.9482 58.6927 58.9528 58.709 58.9574 58.7253C59.1104 58.7457 59.2625 58.7715 59.4137 58.8026C59.604 58.8427 59.7777 58.9394 59.9122 59.08C60.0466 59.2206 60.1354 59.3985 60.167 59.5904C60.1986 59.7823 60.1715 59.9793 60.0892 60.1556C60.0069 60.3318 59.8733 60.4791 59.7059 60.5781L59.6888 60.5882C59.9134 61.0201 60.1706 61.4343 60.4581 61.8271C61.0506 66.4265 63.9854 67.012 67.3347 65.7488C67.4231 65.7571 67.5096 65.766 67.5973 65.7724C67.6829 67.8127 68.0334 69.8333 68.6401 71.7832C69.0017 72.9322 69.4555 74.0501 69.9972 75.1259L69.9757 75.0887C69.2386 73.9464 68.1299 73.0935 66.8367 72.674C64.923 72.0683 62.7145 72.448 60.7803 72.1198C59.8492 71.9618 59.1281 72.9372 59.606 73.7517C59.6136 73.7647 59.6213 73.7777 59.629 73.7907C59.8983 73.7922 60.1673 73.8104 60.4344 73.8454C60.5874 73.8658 60.7394 73.8916 60.8906 73.9227C61.0809 73.9628 61.2547 74.0595 61.3891 74.2001C61.5235 74.3407 61.6123 74.5186 61.6439 74.7105C61.6755 74.9024 61.6484 75.0994 61.5661 75.2757C61.4838 75.4519 61.3502 75.5992 61.1828 75.6982L61.1657 75.7083C61.1533 75.7155 61.1427 75.7219 61.1304 75.7291C61.9045 76.5151 62.8082 77.162 63.8018 77.6415C65.9336 81.0095 68.966 80.1948 71.6371 77.8948L71.639 77.894C72.5702 79.2339 73.6381 80.4733 74.8255 81.5924L80.0714 79.4901C80.0668 79.4243 80.0596 79.3573 80.0532 79.2922C79.5799 79.5173 79.0808 79.6837 78.567 79.7875C78.7648 79.1539 78.9611 78.5166 79.1589 77.883C79.164 77.8706 79.1684 77.8579 79.1721 77.845C79.2715 77.5215 79.3736 77.1991 79.4731 76.8755L79.4731 76.8752C79.1833 76.1217 78.7978 75.4087 78.326 74.7537L78.3258 74.7536Z" fill="#F2F2F2"/>
<path d="M49.4913 79.3702L49.4311 79.2949C49.258 78.1812 49.4913 79.3702 49.4913 79.3702Z" fill="#2F2E41"/>
<path d="M52.5642 91.3841H35.7585C34.4528 88.1383 33.5465 85.8168 33.5465 85.8168C33.5465 85.8168 33.3264 88.0906 33.0124 91.3841H17.8189C17.6767 82.4343 17.4776 73.2449 17.4121 70.3264L46.5749 70.9761L49.4756 74.6546C49.4855 74.716 49.4954 74.7838 49.5077 74.8603C49.6252 75.6078 51.2041 83.6307 52.5642 91.3841Z" fill="#2F2E41"/>
<path d="M52.3083 28.4375L52.3055 28.4323C52.2129 28.2603 52.0637 28.1254 51.8832 28.0504C50.038 26.6188 48.0177 25.9662 45.7504 26.4125C45.3791 25.2888 45.033 25.2888 45.033 25.2888L40.1154 23.6646L39.408 19.344L27.2914 18.9338L26.1902 24.3256C26.1902 24.3256 19.4176 25.5396 19.4176 26.4175C19.4176 27.2955 20.5464 27.2955 19.4176 27.2955C18.2889 27.2955 17.9866 26.2921 17.0096 27.2955C16.9259 27.3798 16.8376 27.4593 16.745 27.5337C16.7337 27.5438 16.7212 27.5526 16.7099 27.5626C15.6057 28.4311 14.738 29.5636 14.1867 30.8557C13.6355 32.1478 13.4184 33.5579 13.5556 34.956L15.6388 55.6788L17.8625 77.7912L48.2938 79.0579L50.3319 60.2415L52.405 28.9342C52.4235 28.7627 52.3898 28.5896 52.3083 28.4375Z" fill="#63388B"/>
<path d="M2.35387 84.0089C2.52761 84.446 2.70295 84.7663 2.87985 84.9246L61.899 85.0501C62.0759 84.8917 62.2512 84.5714 62.425 84.1343C64.4892 78.9412 60.5951 73.3099 55.0068 73.2992L9.7751 73.2134C4.19433 73.2028 0.292414 78.8228 2.35387 84.0089Z" fill="white"/>
<path d="M61.9463 85.1755L61.8982 85.1754L2.83127 85.0499L2.79568 85.018C2.61172 84.8533 2.42892 84.5384 2.23681 84.0552C1.74823 82.8471 1.56801 81.5363 1.71243 80.2411C1.85684 78.9459 2.32133 77.7071 3.06403 76.6362C3.80557 75.5432 4.80346 74.6483 5.97054 74.0298C7.13763 73.4113 8.4384 73.0879 9.75925 73.088H9.77481L55.0065 73.1739C56.3321 73.1764 57.6369 73.5034 58.8071 74.1264C59.9772 74.7493 60.977 75.6492 61.7193 76.7475C62.461 77.8216 62.9244 79.0631 63.0678 80.3604C63.2112 81.6578 63.0302 82.9705 62.541 84.1806C62.3488 84.6638 62.166 84.9787 61.9821 85.1434L61.9463 85.1755ZM6.82257 84.7875L56.866 84.6358C60.3983 84.6251 62.9968 81.2152 61.9501 77.8415C61.8512 77.504 61.7035 77.1828 61.5116 76.8882C60.7923 75.8237 59.8233 74.9516 58.6893 74.3479C57.5553 73.7441 56.2907 73.4272 55.006 73.4247L9.77431 73.3389H9.75925C9.1849 73.358 8.61852 73.4791 8.08655 73.6964C5.16485 74.802 3.21114 77.5811 3.04869 80.7007C3.04662 80.7404 3.04456 80.7802 3.0425 80.8199C3.017 81.3148 3.08921 81.8098 3.25502 82.2768C3.42083 82.7437 3.67699 83.1735 4.00887 83.5414C4.34076 83.9094 4.74186 84.2084 5.1893 84.4213C5.63673 84.6343 6.12172 84.757 6.61659 84.7825C6.68519 84.786 6.75385 84.7877 6.82257 84.7875Z" fill="#E6E6E6"/>
<path d="M73.3765 39.6897C72.7301 36.9749 72.8379 34.301 73.9448 31.6813C73.9564 31.5192 74.0319 31.3684 74.1547 31.2619C74.2774 31.1554 74.4374 31.102 74.5995 31.1133L80.6476 31.5425C80.8097 31.5541 80.9605 31.6296 81.067 31.7524C81.1735 31.8751 81.2269 32.0351 81.2156 32.1972L80.6474 40.2056C80.6357 40.3677 80.5602 40.5185 80.4374 40.625C80.3147 40.7315 80.1547 40.7849 79.9926 40.7736L73.9445 40.3445C73.7824 40.3328 73.6316 40.2573 73.5251 40.1345C73.4186 40.0118 73.3652 39.8518 73.3765 39.6897Z" fill="#F2F2F2"/>
<path d="M74.0123 37.3037C73.495 35.9659 73.8257 34.126 74.3776 32.1552C74.3885 32.0034 74.4593 31.8621 74.5742 31.7624C74.6892 31.6627 74.839 31.6126 74.9908 31.6232L80.1886 31.992C80.3404 32.003 80.4817 32.0737 80.5814 32.1886C80.6812 32.3036 80.7312 32.4534 80.7206 32.6052L80.2149 39.7316C80.204 39.8834 80.1333 40.0247 80.0183 40.1244C79.9034 40.2241 79.7535 40.2742 79.6017 40.2636L76.3818 40.0351C75.7056 39.9863 75.0764 39.6714 74.6322 39.1593C74.188 38.6473 73.9651 37.9799 74.0123 37.3037Z" fill="white"/>
<path d="M77.6122 37.6529C77.4534 37.6256 77.2947 37.5984 77.1359 37.5711C77.209 37.3984 77.2513 37.2143 77.2606 37.027C77.3358 36.0247 77.3433 35.0129 77.3834 34.0085C77.3824 33.9718 77.3707 33.9361 77.3499 33.9059C77.329 33.8756 77.2999 33.852 77.2659 33.838C77.232 33.8239 77.1947 33.82 77.1586 33.8266C77.1224 33.8333 77.089 33.8503 77.0623 33.8755C76.6635 34.2058 76.2648 34.536 75.8661 34.8663C75.6794 35.0209 75.9469 35.2858 76.1321 35.1323C76.4183 34.8953 76.7045 34.6582 76.9907 34.4212C76.9644 35.0793 76.9382 35.7373 76.9119 36.3954C76.8993 36.7113 76.9377 37.0948 76.8084 37.3917C76.7907 37.4318 76.7676 37.4692 76.7398 37.503C76.564 37.4728 76.3882 37.4426 76.2124 37.4124C76.086 37.3907 75.9254 37.4962 75.981 37.6438C76.102 37.9648 76.4587 38.0662 76.7645 37.9425C76.7915 37.9304 76.8175 37.9164 76.8426 37.9007L77.5122 38.0157C77.749 38.0564 77.8507 37.6939 77.6122 37.6529Z" fill="#63388B"/>
<path d="M108.494 66.6544C107.847 63.9396 107.955 61.2658 109.062 58.646C109.074 58.4839 109.149 58.3331 109.272 58.2266C109.395 58.1202 109.555 58.0667 109.717 58.078L115.765 58.5072C115.927 58.5189 116.078 58.5944 116.184 58.7171C116.291 58.8399 116.344 58.9998 116.333 59.1619L115.765 67.1703C115.753 67.3324 115.677 67.4832 115.555 67.5897C115.432 67.6962 115.272 67.7496 115.11 67.7383L109.062 67.3092C108.9 67.2975 108.749 67.222 108.642 67.0992C108.536 66.9765 108.482 66.8165 108.494 66.6544Z" fill="#F2F2F2"/>
<path d="M109.129 64.2687C108.612 62.9309 108.943 61.091 109.495 59.1201C109.506 58.9683 109.576 58.8271 109.691 58.7274C109.806 58.6276 109.956 58.5776 110.108 58.5882L115.306 58.957C115.458 58.9679 115.599 59.0386 115.699 59.1536C115.798 59.2686 115.848 59.4184 115.838 59.5702L115.332 66.6966C115.321 66.8484 115.25 66.9896 115.136 67.0893C115.021 67.1891 114.871 67.2391 114.719 67.2285L111.499 67C110.823 66.9513 110.194 66.6364 109.749 66.1243C109.305 65.6122 109.082 64.9449 109.129 64.2687Z" fill="white"/>
<path d="M101.722 23.7616C101.076 21.0468 101.184 18.3729 102.29 15.7532C102.302 15.5911 102.378 15.4403 102.5 15.3338C102.623 15.2273 102.783 15.1739 102.945 15.1852L108.993 15.6144C109.155 15.626 109.306 15.7015 109.413 15.8243C109.519 15.947 109.573 16.107 109.561 16.2691L108.993 24.2775C108.981 24.4396 108.906 24.5904 108.783 24.6969C108.66 24.8034 108.5 24.8568 108.338 24.8455L102.29 24.4163C102.128 24.4047 101.977 24.3292 101.871 24.2064C101.764 24.0837 101.711 23.9237 101.722 23.7616Z" fill="#F2F2F2"/>
<path d="M102.358 21.3756C101.841 20.0378 102.171 18.1979 102.723 16.2271C102.734 16.0753 102.805 15.934 102.92 15.8343C103.035 15.7346 103.185 15.6845 103.336 15.6951L108.534 16.0639C108.686 16.0749 108.827 16.1456 108.927 16.2605C109.027 16.3755 109.077 16.5253 109.066 16.6771L108.561 23.8035C108.55 23.9553 108.479 24.0966 108.364 24.1963C108.249 24.296 108.099 24.3461 107.947 24.3355L104.727 24.107C104.051 24.0582 103.422 23.7433 102.978 23.2312C102.534 22.7192 102.311 22.0518 102.358 21.3756Z" fill="white"/>
<path d="M105.554 17.7894C105.021 17.6045 104.429 18.0259 104.368 18.5722C104.3 19.1914 104.966 19.6803 105.542 19.512C105.774 19.4443 105.676 19.0811 105.442 19.1492C105.02 19.2725 104.569 18.8161 104.812 18.4081C104.867 18.3096 104.951 18.2303 105.052 18.1807C105.154 18.131 105.268 18.1135 105.38 18.1303C105.474 18.1566 105.562 18.2047 105.634 18.2708C105.707 18.3369 105.764 18.4191 105.799 18.5109C106.006 18.9783 105.76 19.4527 105.433 19.7924C105.247 19.9862 105.028 20.1367 104.827 20.3133C104.73 20.3871 104.649 20.4805 104.589 20.5875C104.53 20.6945 104.494 20.8128 104.483 20.9346C104.488 21.0717 104.531 21.2047 104.606 21.3193C104.682 21.4338 104.787 21.5256 104.911 21.5846C105.232 21.7496 105.597 21.6971 105.938 21.6422C106.176 21.6038 106.075 21.2412 105.838 21.2794C105.539 21.3274 105.093 21.4002 104.903 21.089C104.741 20.8225 105.075 20.5885 105.257 20.4467C105.714 20.0904 106.176 19.6303 106.245 19.0244C106.301 18.5282 106.049 17.9611 105.554 17.7894Z" fill="#63388B"/>
<path d="M13.771 54.4476L16.7509 55.7895C15.35 56.9258 13.2166 58.4547 11.1272 59.162L7.80737 56.8982C6.57075 52.1298 7.32827 47.216 8.81447 43.0609C9.6379 40.752 10.7298 38.5479 12.0678 36.494C11.9308 35.0959 12.1479 33.6859 12.6991 32.3938C13.2504 31.1017 14.118 29.9692 15.2221 29.1006C15.2346 29.0906 15.2459 29.0818 15.2572 29.0718C16.3569 30.0261 17.2552 31.1901 17.8995 32.4958C18.5438 33.8015 18.9212 35.2225 19.0097 36.6759L19.0762 37.7745L19.2091 39.9392L19.5465 45.4677L15.5457 51.6884L13.771 54.4476Z" fill="#63388B"/>
<path d="M22.344 78.0491C22.3788 78.0928 22.4231 78.128 22.4735 78.1521C22.5239 78.1763 22.5791 78.1886 22.635 78.1884H42.9953C43.051 78.1883 43.106 78.1758 43.1562 78.1518C43.2065 78.1278 43.2507 78.093 43.2858 78.0497C43.3209 78.0065 43.3459 77.9559 43.359 77.9018C43.3721 77.8477 43.373 77.7913 43.3615 77.7368L43.0455 76.2356C43.0324 76.1744 43.0042 76.1174 42.9634 76.0699C42.9227 76.0223 42.8707 75.9857 42.8122 75.9634C42.7699 75.9468 42.7248 75.9383 42.6793 75.9384H22.9498C22.9043 75.9383 22.8592 75.9468 22.8168 75.9634C22.7583 75.9857 22.7063 76.0223 22.6656 76.0699C22.6249 76.1174 22.5966 76.1744 22.5836 76.2356L22.2675 77.7368C22.2563 77.7913 22.2573 77.8476 22.2705 77.9016C22.2838 77.9556 22.3089 78.006 22.344 78.0491Z" fill="#2F2E41"/>
<path d="M14.5488 44.4422V67.928C14.5491 68.2272 14.6681 68.5142 14.8797 68.7258C15.0913 68.9375 15.3783 69.0565 15.6776 69.0567H50.481C50.7803 69.0565 51.0673 68.9375 51.2789 68.7258C51.4906 68.5142 51.6096 68.2272 51.6098 67.928V44.4422C51.6091 44.1432 51.4899 43.8566 51.2783 43.6453C51.0668 43.434 50.7801 43.3151 50.481 43.3147H15.6776C15.3786 43.3151 15.0919 43.434 14.8803 43.6453C14.6687 43.8566 14.5495 44.1432 14.5488 44.4422Z" fill="#3F3D56"/>
<path d="M28.7246 64.449V77.3118H37.7359V64.449C37.736 64.3565 37.7065 64.2663 37.6517 64.1919C37.5968 64.1174 37.5195 64.0624 37.4311 64.0351C37.3895 64.0213 37.3458 64.0146 37.3019 64.015H29.1598C29.0446 64.0148 28.934 64.0604 28.8524 64.1417C28.7708 64.223 28.7248 64.3333 28.7246 64.4485V64.449ZM32.2413 68.8687C32.2437 68.6151 32.3461 68.3728 32.5263 68.1943C32.7064 68.0159 32.9497 67.9158 33.2033 67.9158C33.4568 67.9158 33.7002 68.0159 33.8803 68.1943C34.0604 68.3728 34.1628 68.6151 34.1652 68.8687V70.3612C34.1639 70.6155 34.062 70.8589 33.8818 71.0382C33.7015 71.2176 33.4576 71.3182 33.2033 71.3182C32.949 71.3182 32.7051 71.2176 32.5248 71.0382C32.3445 70.8589 32.2426 70.6155 32.2413 70.3612V68.8687Z" fill="#2F2E41"/>
<path d="M33.9845 18.4523C38.3155 18.4523 41.8265 14.9414 41.8265 10.6104C41.8265 6.2794 38.3155 2.76843 33.9845 2.76843C29.6535 2.76843 26.1426 6.2794 26.1426 10.6104C26.1426 14.9414 29.6535 18.4523 33.9845 18.4523Z" fill="#FFB6B6"/>
<path d="M43.3735 9.23848C42.5281 9.50096 41.713 9.65569 41.1632 8.96219C40.6134 8.26869 40.757 7.47573 39.9392 7.14142C39.2789 6.87066 38.5163 6.9867 37.8504 7.23813C37.7316 7.28233 37.6156 7.33206 37.5023 7.38179C37.4388 7.32653 37.3752 7.27406 37.3061 7.2243C36.7863 6.85465 36.1446 6.69842 35.513 6.78778C35.9746 7.01076 36.3545 7.37321 36.5988 7.82387C36.3723 7.93714 36.1289 8.0218 35.9109 8.14712C32.9161 9.86894 29.5855 10.5624 29.8573 7.68849C30.7636 10.0756 30.059 10.9266 28.7301 13.1066L28.6776 13.2336C28.8102 12.6617 27.8778 12.6346 27.0723 12.8303C26.4774 12.9748 26.8624 14.3616 27.6249 15.3169C25.9202 12.7501 23.3669 8.83121 25.5748 6.86513C25.9005 6.57515 26.1048 6.16603 26.1633 5.11897C26.198 4.49815 27.2547 4.34259 27.8128 4.61888C27.8936 3.68541 28.2198 2.78991 28.7584 2.02324C29.297 1.25657 30.0288 0.645999 30.8796 0.253482C32.5871 -0.506318 34.3236 0.662482 36.1789 0.888948C37.2083 1.0146 37.9889 1.42919 38.03 2.74287C38.0574 3.61769 39.3756 3.93092 40.2376 4.08564C40.7846 4.18235 41.4008 4.12432 41.8373 4.46969C42.3429 4.87031 42.3485 5.57485 42.3457 6.25177C41.851 6.23765 41.3633 6.37136 40.9449 6.6358C41.457 6.64867 41.952 6.8227 42.3595 7.13313C42.3674 7.13798 42.3748 7.14352 42.3816 7.14971C42.5308 8.28805 42.47 8.52843 43.3735 9.23848Z" fill="#2F2E41"/>
<path d="M49.0281 47.4757C52.0923 46.5235 55.3727 47.5533 58.4538 46.6743C59.1624 46.4805 59.8323 46.1659 60.434 45.7443C60.9472 45.3551 61.4291 44.9263 61.8752 44.4617C62.8021 43.545 63.8086 42.5824 65.201 42.593C67.0347 42.607 68.4426 43.9691 69.6649 45.1718C69.8376 45.3418 70.1038 45.0759 69.9309 44.9058C68.8078 43.8006 67.5944 42.6347 65.9958 42.3048C65.2787 42.1457 64.5302 42.2079 63.8491 42.4831C63.2582 42.7516 62.7185 43.1206 62.2539 43.5738C61.7617 44.0253 61.3076 44.5169 60.8086 44.9612C60.2877 45.4351 59.6876 45.8139 59.0357 46.0802C57.6232 46.6427 56.0739 46.7105 54.5717 46.6941C52.6858 46.6736 50.7551 46.5452 48.9281 47.1129C48.6976 47.1845 48.796 47.5478 49.0281 47.4757Z" fill="#3F3D56"/>
<path d="M70.3382 42.6362L71.2801 44.2967L71.7359 45.1001C71.8169 45.2429 71.9001 45.3847 71.979 45.5286C72.0274 45.6171 72.1332 45.7766 72.0322 45.8604C71.9434 45.9038 71.8436 45.9193 71.7459 45.9051C71.5798 45.9054 71.4137 45.9017 71.2477 45.9L70.3135 45.8906L68.3829 45.871C68.3341 45.8727 68.2879 45.8932 68.254 45.9283C68.2201 45.9634 68.2012 46.0103 68.2012 46.0591C68.2012 46.1079 68.2201 46.1548 68.254 46.1899C68.2879 46.225 68.3341 46.2456 68.3829 46.2472C69.5037 46.2586 70.6251 46.2823 71.7459 46.2813C71.9414 46.3 72.1371 46.2465 72.2959 46.1309C72.3736 46.0535 72.4251 45.9536 72.443 45.8454C72.4609 45.7371 72.4443 45.626 72.3956 45.5277C72.2851 45.2866 72.158 45.0534 72.0152 44.8299L71.605 44.1067L70.663 42.4463C70.637 42.405 70.5959 42.3755 70.5485 42.3639C70.5011 42.3523 70.451 42.3596 70.4089 42.3842C70.3667 42.4089 70.3358 42.4489 70.3226 42.4959C70.3094 42.5429 70.315 42.5932 70.3382 42.6362Z" fill="#3F3D56"/>
<path d="M82.7875 46.7049H74.1298C74.0824 46.7051 74.0354 46.6959 73.9916 46.678C73.9477 46.66 73.9078 46.6335 73.8742 46.6001C73.8405 46.5667 73.8138 46.527 73.7955 46.4833C73.7772 46.4396 73.7677 46.3926 73.7676 46.3452C73.7674 46.2978 73.7766 46.2509 73.7947 46.207C73.8127 46.1632 73.8392 46.1233 73.8726 46.0897C73.906 46.0561 73.9458 46.0294 73.9895 46.0112C74.0333 45.9929 74.0802 45.9835 74.1276 45.9834C74.1284 45.9834 74.1291 45.9834 74.1298 45.9834H82.7875C82.8349 45.9832 82.8819 45.9924 82.9258 46.0103C82.9696 46.0283 83.0095 46.0547 83.0432 46.0881C83.0768 46.1215 83.1035 46.1612 83.1218 46.205C83.1401 46.2487 83.1496 46.2956 83.1497 46.343C83.1499 46.3905 83.1407 46.4374 83.1227 46.4813C83.1046 46.5251 83.0781 46.565 83.0447 46.5986C83.0113 46.6322 82.9715 46.6589 82.9278 46.6771C82.884 46.6954 82.8371 46.7048 82.7897 46.7049C82.789 46.7049 82.7882 46.7049 82.7875 46.7049Z" fill="#E6E6E6"/>
<path d="M82.7871 52.5153H74.1294C74.082 52.5154 74.0351 52.5063 73.9913 52.4883C73.9475 52.4703 73.9076 52.4438 73.874 52.4104C73.8404 52.377 73.8137 52.3373 73.7955 52.2936C73.7772 52.2499 73.7677 52.203 73.7676 52.1557C73.7674 52.1083 73.7766 52.0613 73.7946 52.0175C73.8126 51.9737 73.8391 51.9339 73.8725 51.9003C73.9059 51.8667 73.9455 51.84 73.9893 51.8217C74.033 51.8034 74.0799 51.794 74.1272 51.7938C74.128 51.7938 74.1287 51.7938 74.1294 51.7938H82.7871C82.8345 51.7937 82.8814 51.8029 82.9252 51.8209C82.969 51.8389 83.0089 51.8653 83.0425 51.8987C83.0761 51.9321 83.1028 51.9718 83.121 52.0155C83.1393 52.0592 83.1488 52.1061 83.1489 52.1535C83.1491 52.2008 83.1399 52.2478 83.1219 52.2916C83.1039 52.3354 83.0774 52.3753 83.044 52.4089C83.0106 52.4425 82.971 52.4692 82.9272 52.4874C82.8835 52.5057 82.8366 52.5152 82.7893 52.5153C82.7885 52.5153 82.7878 52.5153 82.7871 52.5153Z" fill="#E6E6E6"/>
<path d="M91.2865 49.61H74.1298C74.0824 49.6102 74.0354 49.6011 73.9916 49.5831C73.9477 49.5651 73.9078 49.5387 73.8742 49.5053C73.8405 49.4719 73.8138 49.4322 73.7955 49.3884C73.7772 49.3447 73.7677 49.2978 73.7676 49.2504C73.7674 49.203 73.7766 49.156 73.7947 49.1122C73.8127 49.0683 73.8392 49.0284 73.8726 48.9948C73.9061 48.9612 73.9458 48.9346 73.9895 48.9163C74.0333 48.8981 74.0802 48.8886 74.1276 48.8886C74.1284 48.8886 74.1291 48.8886 74.1298 48.8886H91.2865C91.3339 48.8884 91.3809 48.8975 91.4247 48.9155C91.4686 48.9335 91.5085 48.9599 91.5421 48.9933C91.5758 49.0267 91.6025 49.0664 91.6208 49.1101C91.6391 49.1539 91.6486 49.2008 91.6487 49.2482C91.6489 49.2956 91.6397 49.3426 91.6216 49.3864C91.6036 49.4303 91.5771 49.4701 91.5437 49.5037C91.5102 49.5374 91.4705 49.564 91.4268 49.5823C91.383 49.6005 91.3361 49.6099 91.2887 49.61C91.2879 49.61 91.2872 49.61 91.2865 49.61Z" fill="#E6E6E6"/>
<path d="M79.8006 43.2979C81.7054 40.7156 84.9583 39.6022 86.92 37.069C87.3761 36.4931 87.7295 35.8428 87.9646 35.1468C88.1476 34.5292 88.2818 33.8982 88.366 33.2597C88.5698 31.9721 88.8105 30.6004 89.9387 29.7841C91.4243 28.7092 93.3655 28.9727 95.0627 29.2177C95.1112 29.2234 95.16 29.2101 95.1988 29.1805C95.2376 29.1509 95.2635 29.1074 95.2708 29.0592C95.2782 29.0109 95.2665 28.9617 95.2383 28.9219C95.21 28.882 95.1674 28.8548 95.1194 28.8458C93.5599 28.6206 91.8917 28.4 90.4083 29.0811C89.7363 29.3777 89.1701 29.8712 88.7844 30.4963C88.4673 31.0626 88.2511 31.6797 88.1452 32.32C88.016 32.9754 87.9414 33.6404 87.8025 34.2939C87.6635 34.9843 87.4044 35.6449 87.037 36.2457C86.2321 37.5355 85.024 38.5079 83.804 39.3845C82.2724 40.485 80.6408 41.5252 79.5051 43.0648C79.3618 43.2591 79.6563 43.4935 79.8006 43.2979Z" fill="#3F3D56"/>
<path d="M94.1019 26.7768L95.8444 27.5567L96.6876 27.934C96.8374 28.0011 96.9884 28.066 97.1372 28.1353C97.2287 28.1779 97.4084 28.2437 97.3766 28.3711C97.355 28.4578 97.2388 28.5277 97.1724 28.5767C97.0388 28.6753 96.9028 28.7707 96.768 28.8677L96.0098 29.4134L94.4427 30.5412C94.4044 30.5715 94.3794 30.6154 94.3729 30.6638C94.3664 30.7121 94.3789 30.7611 94.4078 30.8004C94.4367 30.8397 94.4797 30.8663 94.5278 30.8745C94.5759 30.8827 94.6253 30.8719 94.6656 30.8444C95.5753 30.1897 96.4928 29.5445 97.3953 28.8798C97.5639 28.779 97.6898 28.62 97.7493 28.4328C97.7661 28.3244 97.7484 28.2134 97.6987 28.1156C97.649 28.0178 97.5698 27.9381 97.4724 27.8877C97.2405 27.7589 97 27.6464 96.7525 27.5508L95.9937 27.2112L94.2512 26.4313C94.2057 26.4135 94.1551 26.414 94.1101 26.4328C94.065 26.4516 94.029 26.4871 94.0096 26.5319C93.9902 26.5767 93.989 26.6273 94.0062 26.673C94.0235 26.7187 94.0578 26.7559 94.1019 26.7768Z" fill="#3F3D56"/>
<path d="M109.752 28.7702H101.095C101.047 28.7704 101 28.7612 100.956 28.7433C100.913 28.7253 100.873 28.6988 100.839 28.6654C100.805 28.632 100.779 28.5923 100.76 28.5486C100.742 28.5049 100.733 28.4579 100.732 28.4105C100.732 28.3631 100.741 28.3162 100.759 28.2723C100.778 28.2285 100.804 28.1886 100.837 28.155C100.871 28.1214 100.911 28.0947 100.954 28.0765C100.998 28.0582 101.045 28.0488 101.092 28.0487C101.093 28.0487 101.094 28.0487 101.095 28.0487H109.752C109.8 28.0485 109.847 28.0577 109.891 28.0756C109.934 28.0936 109.974 28.12 110.008 28.1535C110.042 28.1869 110.068 28.2266 110.087 28.2703C110.105 28.314 110.114 28.3609 110.115 28.4084C110.115 28.4558 110.106 28.5027 110.087 28.5466C110.069 28.5904 110.043 28.6303 110.01 28.6639C109.976 28.6975 109.936 28.7242 109.893 28.7424C109.849 28.7607 109.802 28.7701 109.755 28.7702C109.754 28.7702 109.753 28.7702 109.752 28.7702Z" fill="#63388B"/>
<path d="M86.4471 54.6876C88.3519 57.2698 91.6048 58.3832 93.5665 60.9164C94.0226 61.4923 94.376 62.1426 94.611 62.8387C94.794 63.4562 94.9283 64.0872 95.0125 64.7258C95.2162 66.0134 95.457 67.3851 96.5852 68.2013C98.0708 69.2762 100.012 69.0128 101.709 68.7677C101.758 68.762 101.806 68.7753 101.845 68.8049C101.884 68.8345 101.91 68.878 101.917 68.9263C101.925 68.9745 101.913 69.0238 101.885 69.0636C101.857 69.1034 101.814 69.1307 101.766 69.1397C100.206 69.3649 98.5382 69.5855 97.0548 68.9044C96.3828 68.6077 95.8166 68.1143 95.4308 67.4891C95.1138 66.9228 94.8975 66.3057 94.7917 65.6654C94.6625 65.0101 94.5878 64.3451 94.449 63.6915C94.31 63.0011 94.0509 62.3405 93.6835 61.7398C92.8786 60.45 91.6705 59.4776 90.4505 58.6009C88.9189 57.5004 87.2872 56.4602 86.1516 54.9206C86.0083 54.7264 86.3028 54.4919 86.4471 54.6876Z" fill="#3F3D56"/>
<path d="M100.748 71.2088L102.491 70.4289L103.334 70.0515C103.484 69.9845 103.635 69.9196 103.784 69.8503C103.875 69.8077 104.055 69.7419 104.023 69.6145C104.001 69.5277 103.885 69.4579 103.819 69.4089C103.685 69.3103 103.549 69.2148 103.414 69.1179L102.656 68.5721L101.089 67.4443C101.051 67.4141 101.026 67.3701 101.019 67.3218C101.013 67.2734 101.025 67.2244 101.054 67.1851C101.083 67.1458 101.126 67.1193 101.174 67.1111C101.222 67.1029 101.272 67.1137 101.312 67.1412C102.222 67.7959 103.139 68.4411 104.042 69.1058C104.21 69.2065 104.336 69.3655 104.396 69.5528C104.413 69.6612 104.395 69.7721 104.345 69.87C104.295 69.9678 104.216 70.0475 104.119 70.0978C103.887 70.2266 103.646 70.3392 103.399 70.4347L102.64 70.7744L100.898 71.5542C100.852 71.572 100.802 71.5715 100.757 71.5527C100.711 71.534 100.675 71.4984 100.656 71.4536C100.637 71.4088 100.636 71.3582 100.653 71.3126C100.67 71.2669 100.704 71.2297 100.748 71.2088Z" fill="#3F3D56"/>
<path d="M116.401 70.2836H107.743C107.647 70.2839 107.555 70.2463 107.488 70.179C107.42 70.1116 107.381 70.0201 107.381 69.9245C107.38 69.8289 107.418 69.737 107.485 69.6691C107.553 69.6011 107.644 69.5627 107.74 69.5621C107.741 69.5621 107.742 69.5621 107.743 69.5621H116.401C116.496 69.5618 116.588 69.5995 116.656 69.6668C116.724 69.7342 116.762 69.8257 116.762 69.9213C116.763 70.0169 116.725 70.1088 116.658 70.1767C116.591 70.2446 116.499 70.2831 116.404 70.2836C116.403 70.2836 116.402 70.2836 116.401 70.2836Z" fill="#63388B"/>
<path d="M17.7044 56.2613C17.5405 56.586 17.308 56.8714 17.023 57.0975C16.738 57.3235 16.4072 57.485 16.0536 57.5707C15.7001 57.6564 15.3321 57.6643 14.9752 57.5938C14.6183 57.5233 14.2809 57.3761 13.9865 57.1624L4.96953 61.4534L4.36523 58.9262L13.5481 53.5147C13.9446 53.0459 14.4994 52.7388 15.1073 52.6516C15.7151 52.5645 16.3339 52.7033 16.8462 53.0419C17.3585 53.3804 17.7288 53.8951 17.887 54.4885C18.0452 55.0818 17.9802 55.7126 17.7044 56.2613Z" fill="#FFB6B6"/>
<path d="M14.2295 43.2274L7.88462 56.1919L10.5661 54.9766L12.4323 54.13L13.3679 57.6843C13.3679 57.6843 12.7483 58.2863 11.7713 59.0777C10.3704 60.214 8.23704 61.7429 6.14758 62.4502C4.51213 63.0046 2.90553 63.056 1.69901 62.0225C-0.591122 60.061 1.64759 52.2713 3.81105 46.3403C5.25962 42.3683 6.67308 39.2316 6.67308 39.2316C6.67308 35.0426 14.8025 29.0193 16.3113 28.1953C17.1729 27.7262 17.4111 28.4093 17.4111 28.4093L12.6831 35.3311L14.0966 41.0627L14.4966 42.6819L14.2295 43.2274Z" fill="#63388B"/>
</svg>
