<svg width="184" height="100" viewBox="0 0 184 100" fill="none" xmlns="http://www.w3.org/2000/svg">
<path d="M9.99753 91.0709C6.09675 94.3971 5.28711 99.8525 5.28711 99.8525C5.28711 99.8525 10.8019 99.9151 14.7027 96.5889C18.6035 93.2627 19.4131 87.8073 19.4131 87.8073C19.4131 87.8073 13.8983 87.7448 9.99753 91.0709Z" fill="#F2F2F2"/>
<path d="M11.8001 92.3942C10.1385 97.2438 5.36146 100 5.36146 100C5.36146 100 3.27837 94.8934 4.93996 90.0438C6.60155 85.1942 11.3786 82.438 11.3786 82.438C11.3786 82.438 13.4617 87.5446 11.8001 92.3942Z" fill="#F2F2F2"/>
<path d="M52.5173 20.6443C51.6346 19.5007 50.3873 18.4425 50.3083 17.0313C50.2359 15.7369 51.201 14.4518 50.794 13.2135C50.481 12.2614 49.4485 11.6869 48.4395 11.3826C46.5079 10.8085 44.4408 10.8881 42.559 11.609L42.6611 11.537C41.5126 11.1279 40.1701 11.5502 39.2665 12.3325C38.3628 13.1147 37.8258 14.199 37.4091 15.2856C36.9923 16.3722 36.6694 17.4986 36.0904 18.5172C35.5113 19.5359 34.6248 20.4623 33.4551 20.8144C33.8467 21.5955 35.0708 21.8635 35.7887 21.3252C35.9721 21.1763 36.137 21.0058 36.2798 20.8176C36.7586 20.2353 37.2374 19.6531 37.7163 19.0708C38.209 19.9471 37.4729 21.1566 38.0786 21.9678C38.3909 22.3862 38.9612 22.545 39.4909 22.659C43.6311 23.5424 47.9259 23.3831 51.9893 22.1954C52.3159 22.0992 52.6762 21.9666 52.8117 21.671C52.9681 21.3298 52.7493 20.9451 52.5173 20.6443Z" fill="#2F2E41"/>
<path d="M64.2553 25.1076C64.2294 25.2212 64.2126 25.3368 64.2049 25.4531L55.1557 30.6735L52.9562 29.4073L50.6113 32.477L54.2873 35.097C54.5843 35.3087 54.9419 35.4183 55.3065 35.4094C55.6711 35.4005 56.0229 35.2736 56.3092 35.0478L65.6405 27.6863C66.0616 27.8421 66.5202 27.8661 66.9553 27.755C67.3904 27.6439 67.7813 27.403 68.0761 27.0642C68.3709 26.7255 68.5556 26.3051 68.6056 25.8588C68.6557 25.4126 68.5686 24.9617 68.3561 24.5661C68.1436 24.1705 67.8157 23.849 67.4161 23.6443C67.0164 23.4396 66.5639 23.3615 66.1187 23.4203C65.6735 23.4791 65.2568 23.672 64.9239 23.9734C64.591 24.2748 64.3578 24.6704 64.2553 25.1076Z" fill="#FFB7B7"/>
<path d="M54.8535 30.9206L51.9288 34.7111C51.8456 34.8189 51.7401 34.9076 51.6195 34.971C51.4989 35.0344 51.3661 35.0711 51.2301 35.0785C51.0941 35.086 50.9581 35.064 50.8313 35.0142C50.7045 34.9643 50.59 34.8877 50.4955 34.7896L47.1846 31.3515C46.6344 30.9228 46.2768 30.2934 46.1903 29.6014C46.1037 28.9094 46.2953 28.2113 46.723 27.6604C47.1506 27.1095 47.7794 26.7508 48.4713 26.663C49.1631 26.5752 49.8615 26.7656 50.4132 27.1922L54.5659 29.5143C54.6847 29.5808 54.7879 29.6721 54.8683 29.7821C54.9486 29.8921 55.0044 30.0181 55.0317 30.1515C55.059 30.285 55.0572 30.4228 55.0264 30.5555C54.9957 30.6882 54.9367 30.8127 54.8535 30.9206Z" fill="#63388B"/>
<path d="M50.8285 96.9662L53.4112 96.966L54.6397 87.0045L50.8281 87.0047L50.8285 96.9662Z" fill="#FFB7B7"/>
<path d="M50.1699 96.123L55.256 96.1228H55.2562C56.1158 96.1228 56.9402 96.4643 57.548 97.0722C58.1559 97.68 58.4974 98.5044 58.4974 99.364V99.4693L50.1701 99.4696L50.1699 96.123Z" fill="#2F2E41"/>
<path d="M33.1332 96.9662L35.7159 96.966L36.9444 87.0045L33.1328 87.0047L33.1332 96.9662Z" fill="#FFB7B7"/>
<path d="M32.4746 96.1229L37.5607 96.1227H37.5609C38.4205 96.1228 39.2449 96.4643 39.8527 97.0721C40.4605 97.6799 40.802 98.5043 40.8021 99.3639V99.4693L32.4748 99.4696L32.4746 96.1229Z" fill="#2F2E41"/>
<path d="M49.2783 19.2362C49.5473 16.7859 47.779 14.5815 45.3287 14.3125C42.8784 14.0436 40.674 15.8119 40.405 18.2622C40.136 20.7125 41.9043 22.9169 44.3546 23.1859C46.8049 23.4549 49.0094 21.6865 49.2783 19.2362Z" fill="#FFB7B7"/>
<path d="M47.4529 25.4403L50.0824 26.7429C50.0824 26.7429 53.0203 31.8486 51.335 36.6936C50.5168 39.046 52.8209 46.5445 52.8209 46.5445C52.8209 46.5445 56.3907 80.5098 56.402 90.9926C51.967 91.6745 47.7539 92.5171 47.5432 90.4106C47.3326 88.304 45.0267 63.3969 45.0267 63.3969C45.0267 63.3969 41.8556 91.0426 39.3277 91.4639C36.7999 91.8852 31.7441 91.2532 31.7441 91.2532C31.7441 91.2532 35.7579 50.7576 38.4964 48.2297L38.9177 46.1232L38.9064 27.2142L42.0615 25.7085L47.4529 25.4403Z" fill="#2F2E41"/>
<path d="M38.0468 54.1461C38.3377 53.9887 38.5906 53.7694 38.7877 53.5036C38.9847 53.2378 39.1211 52.9321 39.1872 52.6079C39.2533 52.2838 39.2475 51.9491 39.1702 51.6274C39.093 51.3057 38.9461 51.0048 38.74 50.7461L41.7981 30.3627L37.8028 30.1709L35.419 50.4699C35.0072 50.8449 34.7473 51.358 34.6885 51.9119C34.6297 52.4658 34.7761 53.022 35.1 53.4752C35.4239 53.9283 35.9028 54.2469 36.4459 54.3706C36.989 54.4942 37.5586 54.4144 38.0468 54.1461Z" fill="#FFB7B7"/>
<path d="M41.7113 35.4701L36.9331 35.1684C36.7972 35.1599 36.6647 35.1221 36.5446 35.0577C36.4246 34.9933 36.3199 34.9037 36.2376 34.7952C36.1552 34.6866 36.0973 34.5616 36.0676 34.4287C36.038 34.2957 36.0374 34.1579 36.0658 34.0247L37.0614 29.3565C37.1091 28.6611 37.4307 28.013 37.9556 27.5544C38.4805 27.0957 39.1659 26.8639 39.8614 26.9099C40.5569 26.9559 41.2059 27.2758 41.6659 27.7995C42.1258 28.3233 42.3593 29.008 42.3152 29.7037L42.7156 34.4446C42.727 34.5803 42.7091 34.7169 42.6629 34.8451C42.6168 34.9732 42.5436 35.09 42.4483 35.1873C42.353 35.2846 42.2378 35.3603 42.1106 35.4091C41.9834 35.4579 41.8472 35.4787 41.7113 35.4701Z" fill="#63388B"/>
<path d="M173.767 16.1414H68.1036C67.3323 16.1414 66.5925 16.4478 66.0471 16.9932C65.5017 17.5387 65.1953 18.2784 65.1953 19.0497V77.9232C65.1953 78.6945 65.5017 79.4343 66.0471 79.9797C66.5925 80.5251 67.3323 80.8315 68.1036 80.8315H173.767C174.538 80.8315 175.278 80.5251 175.823 79.9797C176.369 79.4343 176.675 78.6945 176.675 77.9232V19.0497C176.675 18.2784 176.369 17.5387 175.823 16.9932C175.278 16.4478 174.538 16.1414 173.767 16.1414Z" fill="#3F3D56"/>
<path d="M172.775 21.2811H69.0938V79.768H172.775V21.2811Z" fill="white"/>
<path d="M120.847 19.686C121.434 19.686 121.91 19.2099 121.91 18.6226C121.91 18.0353 121.434 17.5592 120.847 17.5592C120.259 17.5592 119.783 18.0353 119.783 18.6226C119.783 19.2099 120.259 19.686 120.847 19.686Z" fill="white"/>
<path d="M143.124 79.7681H69.0938V21.2811L143.124 79.7681Z" fill="#F2F2F2"/>
<path d="M179.585 78.7048H169.467V77.9757C169.467 77.9374 169.451 77.9006 169.424 77.8735C169.397 77.8464 169.36 77.8312 169.322 77.8312H165.853C165.834 77.8312 165.815 77.8349 165.798 77.8422C165.78 77.8494 165.764 77.8601 165.751 77.8735C165.737 77.8869 165.727 77.9029 165.719 77.9204C165.712 77.9379 165.708 77.9567 165.708 77.9757V78.7048H163.54V77.9757C163.54 77.9567 163.536 77.9379 163.529 77.9204C163.522 77.9029 163.511 77.8869 163.498 77.8735C163.484 77.8601 163.468 77.8494 163.451 77.8422C163.433 77.8349 163.414 77.8312 163.396 77.8312H159.926C159.907 77.8312 159.888 77.8349 159.871 77.8422C159.853 77.8494 159.837 77.8601 159.824 77.8735C159.811 77.8869 159.8 77.9029 159.793 77.9204C159.785 77.9379 159.782 77.9567 159.782 77.9757V78.7048H157.613V77.9757C157.613 77.9567 157.61 77.9379 157.602 77.9204C157.595 77.9029 157.585 77.8869 157.571 77.8735C157.558 77.8601 157.542 77.8494 157.524 77.8422C157.507 77.8349 157.488 77.8312 157.469 77.8312H154C153.981 77.8312 153.962 77.8349 153.944 77.8422C153.927 77.8494 153.911 77.8601 153.897 77.8735C153.884 77.8869 153.873 77.9029 153.866 77.9204C153.859 77.9379 153.855 77.9567 153.855 77.9757V78.7048H151.687V77.9757C151.687 77.9567 151.683 77.9379 151.676 77.9204C151.669 77.9029 151.658 77.8869 151.644 77.8735C151.631 77.8601 151.615 77.8494 151.598 77.8422C151.58 77.8349 151.561 77.8312 151.542 77.8312H148.073C148.054 77.8312 148.035 77.8349 148.018 77.8422C148 77.8494 147.984 77.8601 147.971 77.8735C147.957 77.8869 147.947 77.9029 147.939 77.9204C147.932 77.9379 147.928 77.9567 147.928 77.9757V78.7048H145.76V77.9757C145.76 77.9567 145.756 77.9379 145.749 77.9204C145.742 77.9029 145.731 77.8869 145.718 77.8735C145.704 77.8601 145.688 77.8494 145.671 77.8422C145.653 77.8349 145.635 77.8312 145.616 77.8312H142.146C142.127 77.8312 142.109 77.8349 142.091 77.8422C142.074 77.8494 142.058 77.8601 142.044 77.8735C142.031 77.8869 142.02 77.9029 142.013 77.9204C142.006 77.9379 142.002 77.9567 142.002 77.9757V78.7048H139.834V77.9757C139.834 77.9567 139.83 77.9379 139.823 77.9204C139.815 77.9029 139.805 77.8869 139.791 77.8735C139.778 77.8601 139.762 77.8494 139.744 77.8422C139.727 77.8349 139.708 77.8312 139.689 77.8312H136.22C136.201 77.8312 136.182 77.8349 136.164 77.8422C136.147 77.8494 136.131 77.8601 136.118 77.8735C136.104 77.8869 136.093 77.9029 136.086 77.9204C136.079 77.9379 136.075 77.9567 136.075 77.9757V78.7048H133.907V77.9757C133.907 77.9567 133.903 77.9379 133.896 77.9204C133.889 77.9029 133.878 77.8869 133.865 77.8735C133.851 77.8601 133.835 77.8494 133.818 77.8422C133.8 77.8349 133.781 77.8312 133.762 77.8312H106.587C106.568 77.8312 106.549 77.8349 106.531 77.8422C106.514 77.8494 106.498 77.8601 106.484 77.8735C106.471 77.8869 106.46 77.9029 106.453 77.9204C106.446 77.9379 106.442 77.9567 106.442 77.9757V78.7048H104.274V77.9757C104.274 77.9567 104.27 77.9379 104.263 77.9204C104.256 77.9029 104.245 77.8869 104.231 77.8735C104.218 77.8601 104.202 77.8494 104.185 77.8422C104.167 77.8349 104.148 77.8312 104.129 77.8312H100.66C100.641 77.8312 100.622 77.8349 100.605 77.8422C100.587 77.8494 100.571 77.8601 100.558 77.8735C100.544 77.8869 100.534 77.9029 100.526 77.9204C100.519 77.9379 100.515 77.9567 100.515 77.9757V78.7048H98.3472V77.9757C98.3472 77.9567 98.3434 77.9379 98.3362 77.9204C98.3289 77.9029 98.3182 77.8869 98.3048 77.8735C98.2914 77.8601 98.2755 77.8494 98.2579 77.8422C98.2404 77.8349 98.2216 77.8312 98.2026 77.8312H94.7334C94.7144 77.8312 94.6956 77.8349 94.6781 77.8422C94.6605 77.8494 94.6446 77.8601 94.6311 77.8735C94.6177 77.8869 94.6071 77.9029 94.5998 77.9204C94.5926 77.9379 94.5888 77.9567 94.5888 77.9757V78.7048H92.4205V77.9757C92.4205 77.9567 92.4168 77.9379 92.4095 77.9204C92.4023 77.9029 92.3916 77.8869 92.3782 77.8735C92.3648 77.8601 92.3488 77.8494 92.3313 77.8422C92.3138 77.8349 92.295 77.8312 92.276 77.8312H88.8067C88.7877 77.8312 88.769 77.8349 88.7514 77.8422C88.7339 77.8494 88.7179 77.8601 88.7045 77.8735C88.6911 77.8869 88.6804 77.9029 88.6732 77.9204C88.6659 77.9379 88.6622 77.9567 88.6622 77.9757V78.7048H86.4939V77.9757C86.4939 77.9567 86.4902 77.9379 86.4829 77.9204C86.4756 77.9029 86.465 77.8869 86.4516 77.8735C86.4382 77.8601 86.4222 77.8494 86.4047 77.8422C86.3871 77.8349 86.3683 77.8312 86.3494 77.8312H82.8801C82.8611 77.8312 82.8423 77.8349 82.8248 77.8422C82.8072 77.8494 82.7913 77.8601 82.7779 77.8735C82.7645 77.8869 82.7538 77.9029 82.7466 77.9204C82.7393 77.9379 82.7356 77.9567 82.7356 77.9757V78.7048H80.5673V77.9757C80.5673 77.9567 80.5635 77.9379 80.5563 77.9204C80.549 77.9029 80.5384 77.8869 80.5249 77.8735C80.5115 77.8601 80.4956 77.8494 80.478 77.8422C80.4605 77.8349 80.4417 77.8312 80.4227 77.8312H76.9535C76.9151 77.8312 76.8784 77.8464 76.8513 77.8735C76.8242 77.9006 76.8089 77.9374 76.8089 77.9757V78.7048H74.6407V77.9757C74.6407 77.9567 74.6369 77.9379 74.6297 77.9204C74.6224 77.9029 74.6117 77.8869 74.5983 77.8735C74.5849 77.8601 74.569 77.8494 74.5514 77.8422C74.5339 77.8349 74.5151 77.8312 74.4961 77.8312H71.0269C70.9885 77.8312 70.9517 77.8464 70.9246 77.8735C70.8975 77.9006 70.8823 77.9374 70.8823 77.9757V78.7048H64.2329C63.7773 78.7048 63.3262 78.7945 62.9053 78.9688C62.4844 79.1432 62.1019 79.3987 61.7798 79.7209C61.4576 80.043 61.2021 80.4255 61.0277 80.8464C60.8534 81.2673 60.7637 81.7184 60.7637 82.174V83.7427C60.7637 84.6628 61.1292 85.5452 61.7798 86.1958C62.4304 86.8465 63.3128 87.212 64.2329 87.212H179.585C180.505 87.212 181.388 86.8465 182.038 86.1958C182.689 85.5452 183.055 84.6628 183.055 83.7427V82.174C183.055 81.7184 182.965 81.2673 182.79 80.8464C182.616 80.4255 182.361 80.043 182.038 79.7209C181.716 79.3987 181.334 79.1432 180.913 78.9688C180.492 78.7945 180.041 78.7048 179.585 78.7048Z" fill="#3F3D56"/>
<path d="M122.929 72.099C122.894 72.1813 122.856 72.2617 122.812 72.3399C122.586 72.7573 122.267 73.1168 121.879 73.3904C121.419 73.7138 120.88 73.9048 120.319 73.9425C119.758 73.9803 119.198 73.8633 118.699 73.6045C118.201 73.3456 117.783 72.9548 117.491 72.4746C117.199 71.9944 117.045 71.4433 117.045 70.8814V70.3862H117.465C119.098 71.4415 120.986 72.0335 122.929 72.099Z" fill="#3F3D56"/>
<path d="M128.925 70.5315V70.8817C128.925 71.5634 128.698 72.2258 128.28 72.7642C127.862 73.3026 127.276 73.6863 126.615 73.8547C125.955 74.0231 125.257 73.9666 124.632 73.6941C124.007 73.4216 123.491 72.9486 123.165 72.35C123.12 72.2699 123.079 72.1874 123.043 72.103C123.133 72.1055 123.221 72.1067 123.311 72.1067C125.292 72.109 127.234 71.5638 128.925 70.5315Z" fill="#3F3D56"/>
<path d="M133.058 33.5009C132.966 33.4874 132.873 33.4788 132.779 33.4727C133.84 35.9181 133.914 38.6793 132.985 41.1778C133.078 41.1667 133.17 41.152 133.262 41.1348C134.162 40.9605 134.971 40.4725 135.545 39.7577C136.118 39.0429 136.42 38.1477 136.395 37.2314C136.371 36.3152 136.022 35.4373 135.411 34.7542C134.8 34.0711 133.966 33.6269 133.058 33.5009Z" fill="#3F3D56"/>
<path d="M113.842 33.4727C113.748 33.4788 113.655 33.4874 113.563 33.5009C112.655 33.627 111.821 34.0711 111.21 34.7542C110.599 35.4374 110.25 36.3152 110.226 37.2314C110.202 38.1477 110.503 39.0428 111.077 39.7576C111.65 40.4724 112.459 40.9605 113.359 41.1348C113.451 41.152 113.543 41.1667 113.637 41.1778C112.707 38.6793 112.781 35.9181 113.842 33.4727Z" fill="#3F3D56"/>
<path d="M133.058 33.5007C132.045 31.0829 130.171 29.1276 127.797 28.0148C125.424 26.9019 122.722 26.711 120.216 27.479C117.71 28.247 115.579 29.9192 114.236 32.1707C112.894 34.4222 112.437 37.0922 112.953 39.662C113.469 42.2319 114.923 44.518 117.03 46.0764C119.138 47.6347 121.75 48.354 124.358 48.0945C126.966 47.8349 129.385 46.6151 131.144 44.672C132.903 42.7289 133.877 40.2012 133.877 37.58C133.877 36.1794 133.598 34.7928 133.058 33.5007ZM132.984 41.1776C132.085 43.5936 130.315 45.5857 128.021 46.7618C125.727 47.9379 123.076 48.2127 120.59 47.5323C118.103 46.8519 115.962 45.2655 114.586 43.0853C113.211 40.9052 112.701 38.2891 113.158 35.7521C113.615 33.2151 115.004 30.9409 117.054 29.3771C119.103 27.8134 121.663 27.0732 124.231 27.3025C126.798 27.5317 129.187 28.7137 130.927 30.6158C132.667 32.5178 133.632 35.0023 133.632 37.58C133.631 38.8082 133.412 40.0264 132.984 41.1776Z" fill="#3F3D56"/>
<path d="M128.717 35.1843H117.904C117.334 35.1843 116.787 35.4109 116.384 35.8141C115.98 36.2174 115.754 36.7643 115.754 37.3345C115.754 37.9048 115.98 38.4517 116.384 38.855C116.787 39.2582 117.334 39.4848 117.904 39.4848H128.717C129.287 39.4848 129.834 39.2582 130.237 38.855C130.64 38.4517 130.867 37.9048 130.867 37.3345C130.867 36.7643 130.64 36.2174 130.237 35.8141C129.834 35.4109 129.287 35.1843 128.717 35.1843Z" fill="#3F3D56"/>
<path d="M132.985 55.9417C132.946 55.8692 132.905 55.7979 132.864 55.7279C132.863 55.7254 132.861 55.7242 132.86 55.7217C131.893 54.0668 130.513 52.6916 128.854 51.7313C127.195 50.771 125.315 50.2584 123.399 50.244C121.482 50.2295 119.595 50.7137 117.922 51.6489C116.249 52.5841 114.848 53.9383 113.856 55.5785C112.865 57.2187 112.316 59.0885 112.266 61.0045C112.215 62.9205 112.663 64.8167 113.566 66.5072C114.47 68.1976 115.797 69.6241 117.418 70.6467C119.039 71.6692 120.898 72.2527 122.813 72.3398C122.93 72.346 123.048 72.3497 123.166 72.3497C123.215 72.3521 123.263 72.3521 123.312 72.3521C125.287 72.355 127.227 71.8248 128.926 70.8175C130.771 69.7252 132.262 68.1231 133.219 66.2037C133.22 66.2013 133.221 66.2 133.222 66.1976C133.259 66.1239 133.295 66.0489 133.331 65.9727C134.07 64.3923 134.424 62.6593 134.364 60.9157C134.304 59.1721 133.831 57.4675 132.985 55.9417ZM133.091 65.9052C133.055 65.9813 133.019 66.0563 132.98 66.13C132.066 67.947 130.662 69.4717 128.926 70.5312C127.235 71.5636 125.293 72.1087 123.312 72.1064C123.222 72.1064 123.134 72.1052 123.044 72.1027C123.006 72.1027 122.968 72.1015 122.93 72.099C121.054 72.0335 119.227 71.4806 117.63 70.4948C116.032 69.5091 114.719 68.1244 113.819 66.477C112.919 64.8297 112.463 62.9764 112.497 61.0995C112.531 59.2226 113.052 57.3869 114.011 55.7728C114.969 54.1588 116.331 52.8221 117.963 51.8943C119.595 50.9665 121.44 50.4796 123.318 50.4813C125.195 50.4831 127.039 50.9736 128.669 51.9045C130.299 52.8354 131.659 54.1747 132.614 55.7905C132.616 55.793 132.617 55.7942 132.618 55.7967C132.661 55.8667 132.703 55.938 132.742 56.0092C133.585 57.5113 134.057 59.1933 134.118 60.9149C134.178 62.6364 133.826 64.3474 133.091 65.9052Z" fill="#3F3D56"/>
<path d="M131.81 56.2684C131.594 56.115 131.337 56.0322 131.072 56.0313H126.24C125.903 56.0313 125.58 56.165 125.342 56.403C125.104 56.6411 124.971 56.9639 124.971 57.3005C124.971 57.6372 125.104 57.96 125.342 58.198C125.58 58.436 125.903 58.5698 126.24 58.5698H131.072C131.159 58.57 131.245 58.5614 131.329 58.544C131.413 58.5258 131.496 58.4999 131.575 58.4666C131.782 58.3776 131.961 58.2352 132.094 58.0541C132.228 57.8731 132.311 57.6597 132.334 57.4361C132.358 57.2124 132.322 56.9864 132.23 56.7812C132.138 56.576 131.993 56.399 131.81 56.2684Z" fill="#3F3D56"/>
<path d="M126.562 57.945C126.918 57.945 127.207 57.6565 127.207 57.3006C127.207 56.9448 126.918 56.6562 126.562 56.6562C126.206 56.6562 125.918 56.9448 125.918 57.3006C125.918 57.6565 126.206 57.945 126.562 57.945Z" fill="#F1F1F1"/>
<path d="M128.656 57.945C129.012 57.945 129.3 57.6565 129.3 57.3006C129.3 56.9448 129.012 56.6562 128.656 56.6562C128.3 56.6562 128.012 56.9448 128.012 57.3006C128.012 57.6565 128.3 57.945 128.656 57.945Z" fill="#F1F1F1"/>
<path d="M130.75 57.945C131.106 57.945 131.394 57.6565 131.394 57.3006C131.394 56.9448 131.106 56.6562 130.75 56.6562C130.394 56.6562 130.105 56.9448 130.105 57.3006C130.105 57.6565 130.394 57.945 130.75 57.945Z" fill="#63388B"/>
<path d="M155.021 36.063C153.345 37.068 150.359 38.3273 147.308 37.0331L145.336 36.1966L149.288 31.7662C146.135 28.2888 144.39 23.761 144.395 19.0665C144.399 14.372 146.153 9.84772 149.314 6.37682C152.475 2.90592 156.816 0.737489 161.49 0.294787C166.163 -0.147914 170.834 1.16689 174.591 3.98255C178.347 6.79822 180.919 10.9127 181.805 15.5228C182.692 20.1329 181.828 24.9078 179.383 28.9155C176.938 32.9232 173.088 35.876 168.583 37.1976C164.079 38.5191 159.243 38.1146 155.021 36.063Z" fill="white"/>
<path d="M155.031 36.3018C153.421 37.2472 150.353 38.5537 147.226 37.227L144.983 36.2757L149.005 31.7668C146.503 28.9516 144.889 25.4589 144.367 21.7284C143.846 17.998 144.44 14.1966 146.075 10.803C147.709 7.40948 150.312 4.5755 153.554 2.65802C156.796 0.740532 160.533 -0.174715 164.294 0.0275405C168.056 0.229796 171.673 1.54051 174.691 3.79461C177.709 6.04871 179.992 9.1454 181.253 12.6947C182.515 16.244 182.698 20.0871 181.779 23.7402C180.861 27.3932 178.882 30.6927 176.091 33.2233C173.289 35.78 169.786 37.4396 166.033 37.9882C162.279 38.5369 158.447 37.9496 155.031 36.3018ZM177.095 6.54694C175.448 4.73066 173.46 3.25652 171.244 2.2087C169.028 1.16089 166.627 0.559929 164.178 0.440146C161.73 0.320362 159.282 0.684103 156.974 1.51059C154.666 2.33708 152.543 3.61013 150.727 5.25703C148.912 6.90393 147.438 8.89241 146.391 11.1089C145.343 13.3254 144.743 15.7265 144.624 18.1751C144.505 20.6236 144.869 23.0717 145.696 25.3794C146.523 27.6871 147.797 29.8093 149.444 31.6247L149.571 31.7651L145.689 36.1175L147.39 36.8393C150.411 38.1205 153.399 36.7896 154.912 35.8824L155.01 35.8236L155.113 35.8735C159.012 37.7683 163.45 38.2464 167.663 37.2258C171.877 36.2052 175.604 33.7495 178.204 30.2804C180.805 26.8113 182.116 22.5451 181.914 18.2143C181.711 13.8836 180.007 9.75835 177.095 6.54694Z" fill="#63388B"/>
<path opacity="0.1" d="M179.204 18.9682C179.203 14.6273 177.578 10.4439 174.647 7.24165C171.716 4.03944 167.693 2.05057 163.369 1.66672C163.875 1.6224 164.387 1.59842 164.904 1.59842C169.509 1.6012 173.925 3.43245 177.18 6.68962C180.435 9.94679 182.264 14.3633 182.264 18.9682C182.264 23.5732 180.435 27.9897 177.18 31.2468C173.925 34.504 169.509 36.3353 164.904 36.338C164.388 36.338 163.877 36.3137 163.372 36.2695C167.695 35.8851 171.718 33.896 174.648 30.6939C177.578 27.4918 179.203 23.3087 179.204 18.9682Z" fill="#3F3F3F"/>
<path d="M165.72 15.5041H153.309V16.6567H165.72V15.5041Z" fill="#63388B"/>
<path d="M174.941 19.4913H153.309V20.6439H174.941V19.4913Z" fill="#63388B"/>
<path d="M174.92 23.4785H153.309V24.6311H174.92V23.4785Z" fill="#63388B"/>
<path d="M80.4701 99.6891H0.210655C0.154786 99.6891 0.101205 99.6669 0.0616992 99.6274C0.0221938 99.5879 0 99.5343 0 99.4784C0 99.4225 0.0221938 99.369 0.0616992 99.3295C0.101205 99.2899 0.154786 99.2678 0.210655 99.2678H80.4701C80.526 99.2678 80.5796 99.2899 80.6191 99.3295C80.6586 99.369 80.6808 99.4225 80.6808 99.4784C80.6808 99.5343 80.6586 99.5879 80.6191 99.6274C80.5796 99.6669 80.526 99.6891 80.4701 99.6891Z" fill="#CBCBCB"/>
<path d="M49.5192 15.8477C49.3453 15.0587 48.7804 14.4051 48.1296 13.9263C47.0568 13.1371 45.7411 12.7492 44.4118 12.83C43.0824 12.9109 41.8235 13.4554 40.8542 14.3687C40.3126 14.8471 39.9221 15.4729 39.7305 16.1697C39.6392 16.5179 39.6343 16.8832 39.7163 17.2338C39.7984 17.5843 39.9649 17.9095 40.2013 18.181L40.2905 18.2369C40.2097 17.8939 40.4761 17.5512 40.7943 17.3999C41.1253 17.2785 41.4708 17.201 41.822 17.1695C42.3533 17.0691 42.8568 16.8558 43.2986 16.5441C43.7404 16.2323 44.1102 15.8294 44.3828 15.3624C44.5849 15.9371 44.9076 16.4619 45.3294 16.9014C45.7512 17.3409 46.2622 17.6851 46.828 17.9106C47.4179 18.1413 49.0381 18.4586 49.5997 18.1657C50.3162 17.7921 49.6931 16.6367 49.5192 15.8477Z" fill="#2F2E41"/>
</svg>
