<svg width="134" height="100" viewBox="0 0 134 100" fill="none" xmlns="http://www.w3.org/2000/svg">
<path d="M7.09262 100L6.94525 99.7275C8.92118 98.6589 11.3803 97.329 12.6648 95.1466C13.9309 92.9951 13.9593 90.0736 12.7389 87.5221C11.7003 85.3507 9.79241 83.4052 7.22156 81.8961C6.71447 81.5984 6.18216 81.3163 5.66735 81.0434C4.42301 80.3839 3.13629 79.7019 2.07533 78.7344C0.61405 77.4019 -0.491589 75.1656 0.332483 73.1737C0.603501 72.5379 1.04735 71.9909 1.61364 71.5947C2.17992 71.1985 2.84596 70.969 3.53612 70.9323L3.55359 71.2417C2.92133 71.2752 2.31112 71.4853 1.79222 71.8481C1.27332 72.2109 0.866512 72.7119 0.617952 73.2942C-0.147826 75.1452 0.902816 77.2458 2.28413 78.5055C3.31608 79.4465 4.58517 80.1192 5.81246 80.7696C6.33017 81.044 6.86555 81.3278 7.37847 81.6288C10.0028 83.1694 11.9531 85.161 13.0184 87.3884C14.2828 90.0316 14.2496 93.0646 12.9318 95.3038C11.6036 97.5605 9.1024 98.9132 7.09262 100Z" fill="#F1F1F1"/>
<path d="M5.5004 72.5654C6.99782 72.5654 8.21173 71.9758 8.21173 71.2485C8.21173 70.5211 6.99782 69.9315 5.5004 69.9315C4.00297 69.9315 2.78906 70.5211 2.78906 71.2485C2.78906 71.9758 4.00297 72.5654 5.5004 72.5654Z" fill="#F1F1F1"/>
<path d="M7.66836 81.2417C9.16579 81.2417 10.3797 80.652 10.3797 79.9247C10.3797 79.1974 9.16579 78.6078 7.66836 78.6078C6.17094 78.6078 4.95703 79.1974 4.95703 79.9247C4.95703 80.652 6.17094 81.2417 7.66836 81.2417Z" fill="#F1F1F1"/>
<path d="M2.71133 82.6361C4.20876 82.6361 5.42267 82.0465 5.42267 81.3191C5.42267 80.5918 4.20876 80.0022 2.71133 80.0022C1.21391 80.0022 0 80.5918 0 81.3191C0 82.0465 1.21391 82.6361 2.71133 82.6361Z" fill="#F1F1F1"/>
<path d="M10.4574 89.9179C11.9549 89.9179 13.1688 89.3283 13.1688 88.601C13.1688 87.8737 11.9549 87.2841 10.4574 87.2841C8.96 87.2841 7.74609 87.8737 7.74609 88.601C7.74609 89.3283 8.96 89.9179 10.4574 89.9179Z" fill="#F1F1F1"/>
<path d="M15.8813 89.9179C17.3787 89.9179 18.5926 89.3283 18.5926 88.601C18.5926 87.8737 17.3787 87.2841 15.8813 87.2841C14.3838 87.2841 13.1699 87.8737 13.1699 88.601C13.1699 89.3283 14.3838 89.9179 15.8813 89.9179Z" fill="#F1F1F1"/>
<path d="M34.1582 67.8452H40.5575C40.9942 65.3206 40.9942 62.7398 40.5575 60.2152H34.1582C34.8791 62.7074 34.8791 65.3529 34.1582 67.8452Z" fill="#63388B"/>
<path d="M14.4105 98.1351H16.1677L17.0037 91.3571L14.4102 91.3572L14.4105 98.1351Z" fill="#FFB7B7"/>
<path d="M13.9609 97.5615L17.4216 97.5614C18.0065 97.5614 18.5676 97.7938 18.9811 98.2074C19.3947 98.6209 19.6271 99.1819 19.6271 99.7668V99.8384L13.961 99.8386L13.9609 97.5615Z" fill="#2F2E41"/>
<path d="M35.5222 98.0776L37.2285 97.6577L36.4208 90.8763L33.9023 91.4962L35.5222 98.0776Z" fill="#FFB7B7"/>
<path d="M34.9492 97.6274L38.3096 96.8003C38.8776 96.6606 39.4779 96.7522 39.9783 97.055C40.4787 97.3577 40.8384 97.8469 40.9782 98.4148L40.9953 98.4844L35.4934 99.8385L34.9492 97.6274Z" fill="#2F2E41"/>
<path d="M13.3301 96.5192L13.6951 94.6515C13.6951 94.6515 14.3671 87.4402 19.1894 80.2431L20.7591 72.425C20.7591 72.425 20.2929 66.5072 24.7922 63.3038L26.1793 62.3483L31.0427 62.627L32.1659 68.7765L34.4292 83.327C34.4292 83.327 35.0132 83.3817 35.2322 85.0643C35.6774 85.7709 35.9407 86.5767 35.9988 87.4098C35.9988 87.4098 37.1571 90.605 37.4673 92.9576L37.4308 95.2596L34.9851 96.5626L29.8876 82.1464L26.2416 74.0869C26.2416 74.0869 24.4868 79.7654 21.7989 84.63C21.7989 84.63 18.1175 92.5983 17.382 94.2172L16.5789 96.8667L13.3301 96.5192Z" fill="#2F2E41"/>
<path d="M29.5894 49.9742C31.5093 49.9742 33.0656 48.4178 33.0656 46.498C33.0656 44.5782 31.5093 43.0219 29.5894 43.0219C27.6696 43.0219 26.1133 44.5782 26.1133 46.498C26.1133 48.4178 27.6696 49.9742 29.5894 49.9742Z" fill="#FFB7B7"/>
<path d="M29.5894 49.9742C31.5093 49.9742 33.0656 48.4178 33.0656 46.498C33.0656 44.5782 31.5093 43.0219 29.5894 43.0219C27.6696 43.0219 26.1133 44.5782 26.1133 46.498C26.1133 48.4178 27.6696 49.9742 29.5894 49.9742Z" fill="#FFB8B8"/>
<path d="M24.8008 63.3409L25.9483 60.4745C25.1375 57.8484 25.1872 55.0319 26.0901 52.4361L26.3097 52.2553C28.2223 50.6801 29.9011 50.9669 31.4589 52.8937C31.7097 53.2069 32.0031 53.4835 32.3305 53.7156C33.0176 54.1976 34.1076 56.8165 32.6684 58.3516L31.517 65.0679C31.6383 68.7761 28.9475 67.3798 24.8008 63.3409Z" fill="#3F3D56"/>
<path d="M34.991 67.3002C34.9677 67.1156 34.9043 66.9383 34.8051 66.7809C34.7059 66.6235 34.5734 66.4898 34.4169 66.3891C34.2604 66.2884 34.0838 66.2233 33.8994 66.1983C33.7151 66.1733 33.5274 66.189 33.3498 66.2443L31.4868 64.011L29.8535 64.8122L32.5287 67.9291C32.6415 68.2213 32.8575 68.462 33.1359 68.6057C33.4143 68.7493 33.7357 68.7858 34.0392 68.7083C34.3427 68.6307 34.6072 68.4446 34.7827 68.1851C34.9581 67.9256 35.0322 67.6107 34.991 67.3002Z" fill="#FFB7B7"/>
<path d="M31.0456 67.2709L26.3809 60.2791L27.7297 55.2095C27.9521 54.752 28.347 54.4016 28.8277 54.2351C29.3084 54.0687 29.8355 54.0999 30.2932 54.322C30.7508 54.544 31.1016 54.9387 31.2684 55.4192C31.4352 55.8998 31.4043 56.4269 31.1826 56.8848L29.5676 60.2208L33.3559 65.6536L31.0456 67.2709Z" fill="#CCCCCC"/>
<path d="M23.3935 45.7364C25.2354 45.7364 26.7285 44.2433 26.7285 42.4015C26.7285 40.5596 25.2354 39.0665 23.3935 39.0665C21.5517 39.0665 20.0586 40.5596 20.0586 42.4015C20.0586 44.2433 21.5517 45.7364 23.3935 45.7364Z" fill="#2F2E41"/>
<path d="M20.5176 45.1632C20.9492 45.4752 21.4493 45.6792 21.976 45.7583C22.5027 45.8374 23.0407 45.7892 23.5449 45.6178C24.0491 45.4463 24.505 45.1566 24.8743 44.7728C25.2436 44.3891 25.5156 43.9225 25.6676 43.4121C25.6101 43.8695 25.4584 44.31 25.222 44.7059C24.9856 45.1017 24.6698 45.4442 24.2944 45.7118C23.9189 45.9794 23.4921 46.1662 23.0408 46.2606C22.5895 46.3549 22.1236 46.3546 21.6724 46.2597C21.2213 46.1649 20.7947 45.9775 20.4196 45.7095C20.0445 45.4415 19.729 45.0986 19.4931 44.7025C19.2572 44.3064 19.106 43.8656 19.049 43.4081C18.992 42.9506 19.0305 42.4863 19.1621 42.0444C19.0873 42.6381 19.1738 43.2409 19.4123 43.7896C19.6508 44.3384 20.0326 44.8128 20.5176 45.1632Z" fill="#2F2E41"/>
<path d="M33.6776 45.1668C33.0954 44.1245 32.8727 43.6891 32.122 43.0552C31.4582 42.4947 30.6417 42.3301 29.9831 42.8612C29.204 42.5246 28.3371 42.4483 27.5111 42.6436C26.6852 42.8389 25.9443 43.2954 25.3984 43.9453C24.8526 44.5952 24.531 45.4039 24.4814 46.2512C24.4317 47.0984 24.6567 47.9391 25.1229 48.6483C25.5891 49.3575 26.2716 49.8974 27.0691 50.1879C27.8666 50.4783 28.7365 50.5037 29.5496 50.2604C30.3626 50.017 31.0755 49.5179 31.5824 48.8371C32.0892 48.1564 32.3629 47.3303 32.3628 46.4815C32.3622 46.3325 32.3533 46.1836 32.336 46.0356C32.9084 45.9552 33.1052 45.2471 33.6776 45.1668Z" fill="#2F2E41"/>
<path d="M122.466 12.4945H122.322V8.53859C122.322 8.23792 122.262 7.9402 122.147 7.66241C122.032 7.38463 121.864 7.13223 121.651 6.91962C121.438 6.70702 121.186 6.53837 120.908 6.42331C120.63 6.30825 120.333 6.24902 120.032 6.24902H111.651C111.35 6.24902 111.053 6.30824 110.775 6.4233C110.497 6.53836 110.245 6.70701 110.032 6.91962C109.819 7.13222 109.651 7.38462 109.536 7.6624C109.421 7.94019 109.361 8.23791 109.361 8.53859V30.241C109.361 30.8482 109.603 31.4306 110.032 31.8599C110.461 32.2893 111.044 32.5305 111.651 32.5305H120.032C120.639 32.5305 121.222 32.2893 121.651 31.8599C122.08 31.4306 122.322 30.8482 122.322 30.241V15.3104H122.466V12.4945Z" fill="#E5E5E5"/>
<path d="M120.028 6.84461H118.934C118.984 6.96795 119.003 7.10178 118.99 7.23429C118.976 7.36681 118.93 7.49395 118.856 7.60451C118.782 7.71508 118.681 7.80567 118.564 7.86831C118.446 7.93096 118.315 7.96373 118.182 7.96374H113.38C113.247 7.96373 113.116 7.93096 112.998 7.86831C112.881 7.80567 112.78 7.71508 112.706 7.60451C112.632 7.49395 112.586 7.36681 112.572 7.23429C112.559 7.10178 112.578 6.96795 112.628 6.8446H111.606C111.153 6.8446 110.718 7.02475 110.397 7.3454C110.077 7.66605 109.896 8.10095 109.896 8.55443V30.225C109.896 30.6784 110.077 31.1133 110.397 31.434C110.718 31.7547 111.153 31.9348 111.606 31.9348H120.028C120.252 31.9348 120.475 31.8906 120.682 31.8046C120.89 31.7187 121.078 31.5928 121.237 31.434C121.396 31.2752 121.522 31.0867 121.607 30.8793C121.693 30.6718 121.738 30.4495 121.738 30.225V8.55444C121.738 8.3299 121.693 8.10756 121.607 7.90011C121.522 7.69267 121.396 7.50418 121.237 7.3454C121.078 7.18663 120.89 7.06069 120.682 6.97476C120.475 6.88883 120.252 6.84461 120.028 6.84461Z" fill="white"/>
<path d="M120.288 14.79H115.066V15.2037H120.288V14.79Z" fill="#E5E5E5"/>
<path d="M120.288 16.1001H115.066V16.5138H120.288V16.1001Z" fill="#E5E5E5"/>
<path d="M120.288 17.41H115.066V17.8237H120.288V17.41Z" fill="#E5E5E5"/>
<path d="M114.06 15.0458H111.537V17.5682H114.06V15.0458Z" fill="#E5E5E5"/>
<path d="M113.262 23.9895C113.868 23.9895 114.359 23.498 114.359 22.8918C114.359 22.2856 113.868 21.7941 113.262 21.7941C112.656 21.7941 112.164 22.2856 112.164 22.8918C112.164 23.498 112.656 23.9895 113.262 23.9895Z" fill="#63388B"/>
<path d="M116.188 23.7887C116.683 23.7887 117.085 23.3871 117.085 22.8917C117.085 22.3963 116.683 21.9948 116.188 21.9948C115.693 21.9948 115.291 22.3963 115.291 22.8917C115.291 23.3871 115.693 23.7887 116.188 23.7887Z" fill="#63388B"/>
<path d="M119.116 23.4375C119.417 23.4375 119.662 23.1932 119.662 22.8918C119.662 22.5905 119.417 22.3461 119.116 22.3461C118.815 22.3461 118.57 22.5905 118.57 22.8918C118.57 23.1932 118.815 23.4375 119.116 23.4375Z" fill="#63388B"/>
<path d="M84.2097 31.3419H64.97C64.514 31.3413 64.0768 31.16 63.7543 30.8375C63.4319 30.5151 63.2505 30.0779 63.25 29.6218V1.72001C63.2505 1.26399 63.4319 0.826799 63.7543 0.504347C64.0768 0.181894 64.514 0.00051464 64.97 0H84.2097C84.6657 0.00051464 85.1029 0.181894 85.4253 0.504347C85.7478 0.826799 85.9292 1.26399 85.9297 1.72001V29.6218C85.9292 30.0779 85.7478 30.5151 85.4253 30.8375C85.1029 31.16 84.6657 31.3413 84.2097 31.3419Z" fill="#E5E5E5"/>
<path d="M84.2439 30.2446H64.9365C64.7959 30.2444 64.6611 30.1885 64.5617 30.0891C64.4623 29.9897 64.4064 29.8549 64.4062 29.7144V1.62775C64.4064 1.48718 64.4623 1.35241 64.5617 1.25301C64.6611 1.15361 64.7959 1.09769 64.9365 1.09753H84.2439C84.3844 1.09769 84.5192 1.15361 84.6186 1.25301C84.718 1.35241 84.7739 1.48718 84.7741 1.62775V29.7144C84.7739 29.8549 84.718 29.9897 84.6186 30.0891C84.5192 30.1885 84.3844 30.2444 84.2439 30.2446Z" fill="white"/>
<path d="M82.5921 9.71118H71.8535V10.3282H82.5921V9.71118Z" fill="#E5E5E5"/>
<path d="M82.5921 11.665H71.8535V12.282H82.5921V11.665Z" fill="#E5E5E5"/>
<path d="M82.5921 13.619H71.8535V14.236H82.5921V13.619Z" fill="#E5E5E5"/>
<path d="M70.3519 10.0924H66.5898V13.8545H70.3519V10.0924Z" fill="#E5E5E5"/>
<path d="M70.9812 21.6307C71.8067 21.6307 72.476 20.9614 72.476 20.1358C72.476 19.3102 71.8067 18.641 70.9812 18.641C70.1556 18.641 69.4863 19.3102 69.4863 20.1358C69.4863 20.9614 70.1556 21.6307 70.9812 21.6307Z" fill="#63388B"/>
<path d="M74.9676 21.3573C75.6422 21.3573 76.1891 20.8104 76.1891 20.1358C76.1891 19.4612 75.6422 18.9143 74.9676 18.9143C74.293 18.9143 73.7461 19.4612 73.7461 20.1358C73.7461 20.8104 74.293 21.3573 74.9676 21.3573Z" fill="#63388B"/>
<path d="M78.9521 20.879C79.3626 20.879 79.6953 20.5463 79.6953 20.1358C79.6953 19.7254 79.3626 19.3927 78.9521 19.3927C78.5417 19.3927 78.209 19.7254 78.209 20.1358C78.209 20.5463 78.5417 20.879 78.9521 20.879Z" fill="#63388B"/>
<path d="M120.795 33.9231H64.0292C63.8241 33.9231 63.6209 33.9635 63.4313 34.042C63.2418 34.1205 63.0695 34.2356 62.9244 34.3807C62.7793 34.5258 62.6643 34.698 62.5857 34.8876C62.5072 35.0772 62.4668 35.2803 62.4668 35.4855V67.1144C62.4668 67.5288 62.6314 67.9262 62.9244 68.2192C63.2174 68.5122 63.6149 68.6768 64.0292 68.6768H120.795C121.209 68.6768 121.607 68.5122 121.9 68.2192C122.193 67.9262 122.357 67.5288 122.357 67.1144V35.4855C122.357 35.0711 122.193 34.6737 121.9 34.3807C121.607 34.0877 121.209 33.9231 120.795 33.9231Z" fill="#3F3D56"/>
<path d="M120.262 36.6844H64.5605V68.1056H120.262V36.6844Z" fill="white"/>
<path d="M92.3643 35.8274C92.6798 35.8274 92.9356 35.5716 92.9356 35.2561C92.9356 34.9406 92.6798 34.6848 92.3643 34.6848C92.0487 34.6848 91.793 34.9406 91.793 35.2561C91.793 35.5716 92.0487 35.8274 92.3643 35.8274Z" fill="white"/>
<path d="M123.921 67.5343H118.485V67.1426C118.485 67.1324 118.483 67.1223 118.479 67.1129C118.475 67.1035 118.469 67.0949 118.462 67.0877C118.455 67.0805 118.446 67.0748 118.437 67.0709C118.428 67.067 118.417 67.065 118.407 67.065H116.543C116.533 67.0649 116.523 67.067 116.514 67.0709C116.504 67.0748 116.496 67.0805 116.489 67.0877C116.481 67.0949 116.476 67.1035 116.472 67.1129C116.468 67.1223 116.466 67.1324 116.466 67.1426V67.5343H115.301V67.1426C115.301 67.1324 115.299 67.1223 115.295 67.1129C115.291 67.1035 115.285 67.0949 115.278 67.0877C115.271 67.0805 115.262 67.0748 115.253 67.0709C115.244 67.067 115.233 67.065 115.223 67.065H113.359C113.349 67.065 113.339 67.067 113.33 67.0709C113.32 67.0748 113.312 67.0805 113.305 67.0877C113.297 67.0949 113.292 67.1035 113.288 67.1129C113.284 67.1223 113.282 67.1324 113.282 67.1426V67.5343H112.117V67.1426C112.117 67.1324 112.115 67.1223 112.111 67.1129C112.107 67.1035 112.101 67.0949 112.094 67.0877C112.087 67.0805 112.078 67.0748 112.069 67.0709C112.06 67.067 112.049 67.065 112.039 67.065H110.175C110.165 67.065 110.155 67.067 110.146 67.0709C110.136 67.0748 110.128 67.0805 110.121 67.0877C110.113 67.0949 110.108 67.1035 110.104 67.1129C110.1 67.1223 110.098 67.1324 110.098 67.1426V67.5343H108.933V67.1426C108.933 67.1324 108.931 67.1223 108.927 67.1129C108.923 67.1035 108.917 67.0949 108.91 67.0877C108.903 67.0805 108.894 67.0748 108.885 67.0709C108.876 67.067 108.865 67.065 108.855 67.065H106.991C106.981 67.065 106.971 67.067 106.962 67.0709C106.952 67.0748 106.944 67.0805 106.937 67.0877C106.929 67.0949 106.924 67.1035 106.92 67.1129C106.916 67.1223 106.914 67.1324 106.914 67.1426V67.5343H105.749V67.1426C105.749 67.1324 105.747 67.1223 105.743 67.1129C105.739 67.1035 105.733 67.0949 105.726 67.0877C105.719 67.0805 105.71 67.0748 105.701 67.0709C105.692 67.0669 105.681 67.0649 105.671 67.0649H103.808C103.797 67.0649 103.787 67.0669 103.778 67.0709C103.768 67.0748 103.76 67.0805 103.753 67.0877C103.745 67.0949 103.74 67.1035 103.736 67.1129C103.732 67.1223 103.73 67.1324 103.73 67.1426V67.5343H102.565V67.1426C102.565 67.1324 102.563 67.1223 102.559 67.1129C102.555 67.1035 102.549 67.0949 102.542 67.0877C102.535 67.0805 102.526 67.0748 102.517 67.0709C102.508 67.0669 102.498 67.0649 102.487 67.0649H100.624C100.613 67.0649 100.603 67.0669 100.594 67.0709C100.584 67.0748 100.576 67.0805 100.569 67.0877C100.561 67.0949 100.556 67.1035 100.552 67.1129C100.548 67.1223 100.546 67.1324 100.546 67.1426V67.5343H99.381V67.1426C99.381 67.1324 99.379 67.1223 99.3751 67.1129C99.3712 67.1035 99.3655 67.0949 99.3582 67.0877C99.351 67.0805 99.3425 67.0748 99.333 67.0709C99.3236 67.0669 99.3135 67.0649 99.3033 67.0649H84.7036C84.6934 67.0649 84.6833 67.0669 84.6739 67.0709C84.6645 67.0748 84.6559 67.0805 84.6487 67.0877C84.6415 67.0949 84.6357 67.1035 84.6318 67.1129C84.6279 67.1223 84.6259 67.1324 84.6259 67.1426V67.5343H83.4611V67.1426C83.4611 67.1324 83.459 67.1223 83.4551 67.1129C83.4512 67.1035 83.4455 67.0949 83.4383 67.0877C83.4311 67.0805 83.4225 67.0748 83.4131 67.0709C83.4037 67.0669 83.3936 67.0649 83.3834 67.0649H81.5196C81.5094 67.0649 81.4993 67.0669 81.4899 67.0709C81.4805 67.0748 81.4719 67.0805 81.4647 67.0877C81.4575 67.0949 81.4518 67.1035 81.4479 67.1129C81.444 67.1223 81.4419 67.1324 81.4419 67.1426V67.5343H80.2771V67.1426C80.2771 67.1324 80.2751 67.1223 80.2712 67.1129C80.2673 67.1035 80.2615 67.0949 80.2543 67.0877C80.2471 67.0805 80.2386 67.0748 80.2291 67.0709C80.2197 67.0669 80.2096 67.0649 80.1994 67.0649H78.3356C78.3254 67.0649 78.3153 67.0669 78.3059 67.0709C78.2965 67.0748 78.2879 67.0805 78.2807 67.0877C78.2735 67.0949 78.2678 67.1035 78.2639 67.1129C78.26 67.1223 78.258 67.1324 78.258 67.1426V67.5343H77.0931V67.1426C77.0931 67.1324 77.0911 67.1223 77.0872 67.1129C77.0833 67.1035 77.0776 67.0949 77.0703 67.0877C77.0631 67.0805 77.0546 67.0748 77.0451 67.0709C77.0357 67.0669 77.0256 67.0649 77.0154 67.0649H75.1516C75.1414 67.0649 75.1313 67.0669 75.1219 67.0709C75.1125 67.0748 75.1039 67.0805 75.0967 67.0877C75.0895 67.0949 75.0838 67.1035 75.0799 67.1129C75.076 67.1223 75.074 67.1324 75.074 67.1426V67.5343H73.9091V67.1426C73.9091 67.1324 73.9071 67.1223 73.9032 67.1129C73.8993 67.1035 73.8936 67.0949 73.8864 67.0877C73.8791 67.0805 73.8706 67.0748 73.8612 67.0709C73.8517 67.0669 73.8416 67.0649 73.8314 67.0649H71.9676C71.9574 67.0649 71.9474 67.0669 71.9379 67.0709C71.9285 67.0748 71.9199 67.0805 71.9127 67.0877C71.9055 67.0949 71.8998 67.1035 71.8959 67.1129C71.892 67.1223 71.89 67.1324 71.89 67.1426V67.5343H70.7251V67.1426C70.7251 67.1324 70.7231 67.1223 70.7192 67.1129C70.7153 67.1035 70.7096 67.0949 70.7024 67.0877C70.6952 67.0805 70.6866 67.0748 70.6772 67.0709C70.6677 67.0669 70.6577 67.0649 70.6475 67.0649H68.7837C68.7631 67.0649 68.7433 67.0731 68.7287 67.0877C68.7142 67.1022 68.706 67.122 68.706 67.1426V67.5343H67.5411V67.1426C67.5411 67.1324 67.5391 67.1223 67.5352 67.1129C67.5313 67.1035 67.5256 67.0949 67.5184 67.0877C67.5112 67.0805 67.5026 67.0748 67.4932 67.0709C67.4838 67.0669 67.4737 67.0649 67.4635 67.0649H65.5997C65.5791 67.0649 65.5593 67.0731 65.5448 67.0877C65.5302 67.1022 65.522 67.122 65.522 67.1426V67.5343H61.9497C61.705 67.5343 61.4626 67.5825 61.2365 67.6761C61.0104 67.7698 60.8049 67.9071 60.6318 68.0802C60.4588 68.2532 60.3215 68.4587 60.2278 68.6848C60.1341 68.911 60.0859 69.1533 60.0859 69.3981V70.2408C60.0859 70.7351 60.2823 71.2092 60.6318 71.5587C60.9814 71.9083 61.4554 72.1046 61.9497 72.1046H123.921C124.415 72.1046 124.889 71.9083 125.239 71.5587C125.588 71.2092 125.785 70.7351 125.785 70.2408V69.3981C125.785 69.1533 125.737 68.911 125.643 68.6848C125.549 68.4587 125.412 68.2532 125.239 68.0802C125.066 67.9071 124.86 67.7698 124.634 67.6762C124.408 67.5825 124.166 67.5343 123.921 67.5343Z" fill="#3F3D56"/>
<path d="M104.827 39.6763H86.8145V40.3456H104.827V39.6763Z" fill="#CBCBCB"/>
<path d="M104.827 41.7957H86.8145V42.465H104.827V41.7957Z" fill="#CBCBCB"/>
<path d="M104.827 43.9152H86.8145V44.5845H104.827V43.9152Z" fill="#CBCBCB"/>
<path d="M85.1845 40.0896H81.1035V44.1706H85.1845V40.0896Z" fill="#CBCBCB"/>
<path d="M92.3683 62.2519C96.3125 62.2519 99.51 59.0545 99.51 55.1102C99.51 51.166 96.3125 47.9685 92.3683 47.9685C88.424 47.9685 85.2266 51.166 85.2266 55.1102C85.2266 59.0545 88.424 62.2519 92.3683 62.2519Z" fill="#63388B"/>
<path d="M91.2084 56.1756H89.7109L92.3609 50.7903L95.0248 56.1707H93.5262V58.4096H91.2084V56.1756Z" fill="white"/>
<path d="M54.6678 29.2851C55.6837 28.0952 57.0798 27.293 58.6194 27.0145L57.9353 26.4398L58.6669 26.3765L59.6031 27.1634L58.8162 28.0996L58.0846 28.163L58.6119 27.5361C57.0598 27.8443 55.6808 28.7258 54.7493 30.005C53.8179 31.2843 53.4025 32.8674 53.5857 34.4391C53.7689 36.0109 54.5374 37.456 55.7381 38.4867C56.9388 39.5173 58.4837 40.058 60.065 40.0009L60.0834 40.5107C58.7624 40.5582 57.4561 40.22 56.3242 39.5374C55.1922 38.8547 54.2836 37.8572 53.7092 36.6667C53.1349 35.4761 52.9197 34.144 53.0899 32.8332C53.2601 31.5223 53.8084 30.2894 54.6678 29.2851Z" fill="#E5E5E5"/>
<path d="M131.688 33.9542C131.623 35.758 130.845 37.4621 129.523 38.6917C128.202 39.9213 126.446 40.5756 124.643 40.5107L124.661 40.0009C126.242 40.058 127.787 39.5173 128.988 38.4867C130.189 37.456 130.957 36.0109 131.14 34.4391C131.324 32.8674 130.908 31.2843 129.977 30.005C129.045 28.7258 127.666 27.8443 126.114 27.5361L126.641 28.163L125.91 28.0996L125.123 27.1634L126.059 26.3765L126.791 26.4398L126.107 27.0145C127.716 27.3074 129.165 28.17 130.19 29.4444C131.215 30.7188 131.747 32.3198 131.688 33.9542Z" fill="#E5E5E5"/>
<path d="M133.111 72.1989H51.6159C51.5748 72.1989 51.5354 72.1826 51.5063 72.1535C51.4773 72.1245 51.4609 72.0851 51.4609 72.044C51.4609 72.0029 51.4773 71.9635 51.5063 71.9344C51.5354 71.9054 51.5748 71.889 51.6159 71.889H133.111C133.152 71.889 133.191 71.9054 133.22 71.9344C133.249 71.9635 133.266 72.0029 133.266 72.044C133.266 72.0851 133.249 72.1245 133.22 72.1535C133.191 72.1826 133.152 72.1989 133.111 72.1989Z" fill="#CBCBCB"/>
</svg>
