<svg width="110" height="100" viewBox="0 0 110 100" fill="none" xmlns="http://www.w3.org/2000/svg">
<path d="M101.735 77.1915C106.723 73.8494 110.304 67.9107 109.48 61.9639C105.011 66.724 99.0028 69.7501 92.5178 70.5067C90.0157 70.7895 87.2034 70.8434 85.4471 72.6477C84.3542 73.7704 83.9046 75.3966 83.9004 76.9633C83.8963 78.5301 84.2924 80.0671 84.6858 81.5837L84.5988 81.965C90.5952 81.6665 96.7476 80.5336 101.735 77.1915Z" fill="#F0F0F0"/>
<path d="M109.354 61.9643C107.531 66.5875 104.298 70.5188 100.114 73.2C99.2236 73.7932 98.2452 74.2423 97.2148 74.5308C96.202 74.7794 95.1412 74.7523 94.1424 74.4522C93.2056 74.1912 92.2775 73.8156 91.2935 73.7868C90.7896 73.7796 90.2898 73.8789 89.827 74.0784C89.3642 74.2778 88.9487 74.5728 88.6079 74.944C87.7347 75.847 87.2379 77.0099 86.7917 78.1639C86.2962 79.4453 85.8019 80.7841 84.7716 81.7417C84.6468 81.8577 84.8341 82.0446 84.9588 81.9287C86.7512 80.2628 86.9171 77.6246 88.3182 75.7005C88.9719 74.8027 89.9002 74.0964 91.0456 74.0524C92.0471 74.0139 93.0045 74.4004 93.9508 74.6729C94.9208 74.9799 95.9512 75.0447 96.9521 74.8617C97.9938 74.6266 98.9879 74.2159 99.8919 73.6473C101.947 72.3995 103.794 70.8364 105.364 69.015C107.167 66.9463 108.603 64.5843 109.61 62.0313C109.672 61.8733 109.416 61.8072 109.354 61.9643Z" fill="white"/>
<path d="M101.512 72.4162C102.057 73.0571 102.812 73.4834 103.642 73.6189C104.473 73.7545 105.324 73.5904 106.045 73.156C106.191 73.0676 106.06 72.8373 105.914 72.9258C105.244 73.3316 104.451 73.4843 103.678 73.3566C102.905 73.2288 102.203 72.8289 101.699 72.2291C101.589 72.0988 101.403 72.2867 101.512 72.4162Z" fill="white"/>
<path d="M94.6009 74.6472C94.7241 72.9316 95.4893 71.3254 96.7441 70.149C96.8685 70.0325 96.6812 69.8456 96.5569 69.9619C95.2535 71.1886 94.4605 72.8617 94.3363 74.6473C94.3246 74.8175 94.5893 74.8165 94.6009 74.6472Z" fill="white"/>
<path d="M106.833 66.8398C106.571 66.6357 106.363 66.3696 106.229 66.0654C106.094 65.7612 106.038 65.4284 106.064 65.0969C106.078 64.9269 105.813 64.9281 105.799 65.0969C105.772 65.4634 105.835 65.8308 105.983 66.1673C106.13 66.5037 106.358 66.7988 106.646 67.0269C106.672 67.0507 106.705 67.0639 106.74 67.0639C106.775 67.0639 106.808 67.0506 106.834 67.0269C106.858 67.002 106.872 66.9683 106.872 66.9333C106.872 66.8983 106.858 66.8647 106.833 66.8398Z" fill="white"/>
<path d="M92.1837 51.2832C92.172 51.3891 92.1603 51.495 92.1467 51.602C91.9823 53.0247 91.7025 54.4317 91.3103 55.8091C91.2816 55.9161 91.251 56.0241 91.2193 56.13C90.2389 59.4385 88.6527 62.5362 86.5414 65.2656C85.7003 66.3509 84.7778 67.3707 83.782 68.3161C82.4066 69.6216 80.8115 70.9277 79.9725 72.5632C79.883 72.7328 79.8041 72.9079 79.7363 73.0873L84.14 81.8292C84.1599 81.8441 84.178 81.86 84.198 81.875L84.3579 82.232C84.4127 82.1869 84.4685 82.1388 84.5233 82.0937C84.5551 82.0676 84.586 82.0396 84.6179 82.0135C84.6388 81.9955 84.6597 81.9774 84.6797 81.9624C84.6866 81.9564 84.6936 81.9503 84.6986 81.9454C84.7185 81.9303 84.7354 81.9143 84.7534 81.9002C85.0662 81.6326 85.3777 81.3624 85.6878 81.0895C85.6898 81.0884 85.6898 81.0885 85.6908 81.0855C88.0486 79 90.253 76.6993 92.0381 74.1372C92.0918 74.0601 92.1476 73.9821 92.1992 73.901C92.9975 72.7416 93.6996 71.519 94.2987 70.2452C94.6245 69.5467 94.9147 68.8321 95.1682 68.1043C95.8196 66.2223 96.171 64.2496 96.2094 62.2585C96.2855 58.2892 95.0912 54.3397 92.392 51.4983C92.3229 51.4256 92.2548 51.3548 92.1837 51.2832Z" fill="#F0F0F0"/>
<path d="M92.0837 51.3589C93.4119 56.1476 93.1975 61.233 91.471 65.893C91.1171 66.9027 90.6063 67.8504 89.9573 68.7011C89.2983 69.5094 88.4349 70.1264 87.4568 70.4882C86.5516 70.8438 85.5845 71.1027 84.7815 71.6721C84.3748 71.9697 84.0356 72.3499 83.7861 72.7878C83.5367 73.2257 83.3826 73.7114 83.334 74.213C83.1804 75.4597 83.4839 76.6872 83.8224 77.8774C84.1982 79.1988 84.6096 80.5654 84.3635 81.9502C84.3337 82.118 84.5958 82.1544 84.6256 81.9869C85.0537 79.5775 83.5978 77.3712 83.558 74.9914C83.5395 73.8809 83.8555 72.7582 84.7435 72.0334C85.52 71.3997 86.517 71.1318 87.4367 70.7797C88.396 70.4408 89.2578 69.8722 89.9467 69.1235C90.6369 68.3085 91.1834 67.3821 91.5628 66.3839C92.4527 64.1501 92.9859 61.7902 93.1428 59.3908C93.3371 56.6534 93.0617 53.9029 92.3284 51.2583C92.283 51.0947 92.0385 51.1963 92.0837 51.3589Z" fill="white"/>
<path d="M92.1151 64.4251C92.9362 64.6086 93.7959 64.4943 94.5405 64.1025C95.2852 63.7107 95.8663 63.067 96.1802 62.2863C96.2431 62.1281 96.0003 62.0228 95.9372 62.1812C95.6463 62.9088 95.1049 63.5083 94.4108 63.8717C93.7166 64.2351 92.9154 64.3384 92.1518 64.163C91.9858 64.1251 91.95 64.3873 92.1151 64.4251Z" fill="white"/>
<path d="M87.9394 70.3683C87.0048 68.9243 86.6487 67.1812 86.9423 65.4864C86.9715 65.3185 86.7094 65.282 86.6802 65.4497C86.378 67.2139 86.7522 69.0272 87.7281 70.5276C87.8212 70.6706 88.032 70.5105 87.9394 70.3683Z" fill="white"/>
<path d="M93.0048 56.7698C92.6723 56.765 92.3462 56.6776 92.0557 56.5156C91.7653 56.3536 91.5197 56.122 91.3409 55.8416C91.2496 55.6976 91.0389 55.8579 91.1296 56.001C91.3286 56.3099 91.6002 56.5653 91.9207 56.745C92.2412 56.9247 92.6008 57.0232 92.9681 57.0318C93.0027 57.0355 93.0373 57.026 93.0651 57.005C93.0928 56.9841 93.1116 56.9534 93.1175 56.9191C93.1222 56.8844 93.113 56.8493 93.0919 56.8213C93.0708 56.7933 93.0395 56.7748 93.0048 56.7698Z" fill="white"/>
<path d="M0.0648755 88.422C0.433033 84.5597 2.70936 80.6992 6.34383 79.3414C5.01001 83.3443 5.13504 87.6899 6.69681 91.6094C7.3046 93.1189 8.13777 94.7344 7.65138 96.2872C7.34876 97.2534 6.56226 98.0086 5.67278 98.4922C4.78323 98.9758 3.78771 99.2227 2.80459 99.4648L2.61454 99.6314C0.942343 96.1304 -0.303284 92.2844 0.0648755 88.422Z" fill="#F0F0F0"/>
<path d="M6.38236 79.413C4.31362 81.8693 3.07143 84.9151 2.83224 88.1176C2.76851 88.8061 2.8137 89.5003 2.96615 90.1748C3.13589 90.8269 3.47719 91.4218 3.95457 91.8975C4.39077 92.3499 4.88935 92.7622 5.20797 93.3129C5.36688 93.5971 5.4639 93.9118 5.49267 94.2362C5.52144 94.5606 5.48132 94.8874 5.37493 95.1952C5.12978 95.969 4.6212 96.6087 4.10212 97.2169C3.52577 97.8922 2.91643 98.5845 2.68845 99.4643C2.66083 99.571 2.49702 99.5219 2.5246 99.4154C2.92124 97.8846 4.37027 96.9799 5.03386 95.5923C5.34351 94.9448 5.45991 94.2001 5.13312 93.5354C4.84736 92.9541 4.33358 92.5285 3.88796 92.0742C3.41546 91.617 3.0621 91.051 2.85874 90.4258C2.67244 89.7613 2.60057 89.0699 2.64622 88.3813C2.72427 86.8294 3.04584 85.2994 3.59916 83.8473C4.22148 82.1866 5.12329 80.6447 6.26557 79.2881C6.33631 79.2041 6.45263 79.3296 6.38236 79.413Z" fill="white"/>
<path d="M2.84886 87.0822C2.317 86.9691 1.84265 86.6706 1.51053 86.2401C1.1784 85.8096 1.01013 85.275 1.03575 84.7319C1.037 84.7097 1.04679 84.689 1.06307 84.6739C1.07935 84.6588 1.10083 84.6507 1.12301 84.6511C1.14518 84.6516 1.1663 84.6607 1.18192 84.6764C1.19755 84.6921 1.20645 84.7133 1.20676 84.7355C1.18196 85.2413 1.33876 85.7392 1.64886 86.1395C1.95895 86.5397 2.40192 86.816 2.8978 86.9183C3.00554 86.9407 2.95598 87.1044 2.84886 87.0822Z" fill="white"/>
<path d="M3.7031 91.6974C4.6407 91.1004 5.31885 90.1719 5.60233 89.0972C5.63033 88.9907 5.79414 89.0397 5.76618 89.1461C5.4691 90.264 4.76141 91.2288 3.78435 91.8478C3.69118 91.9068 3.61043 91.756 3.7031 91.6974Z" fill="white"/>
<path d="M4.38471 82.344C4.58138 82.4307 4.7965 82.4671 5.01073 82.4501C5.22496 82.433 5.43159 82.363 5.61209 82.2464C5.70446 82.1863 5.78512 82.3371 5.69335 82.3968C5.49333 82.5248 5.26502 82.6018 5.02837 82.6212C4.79172 82.6405 4.55393 82.6016 4.33578 82.5079C4.31447 82.5008 4.29668 82.4858 4.28601 82.4661C4.27533 82.4463 4.27259 82.4232 4.27832 82.4015C4.28491 82.3798 4.29978 82.3617 4.3197 82.3509C4.33962 82.3401 4.36298 82.3377 4.38471 82.344Z" fill="white"/>
<path d="M16.9944 85.8944C16.9378 85.9336 16.8811 85.9728 16.8245 86.0134C16.0659 86.5434 16.0875 87.1356 15.4246 87.7812C15.3726 87.8304 15.3206 87.8809 15.2701 87.9315C13.6902 89.5052 12.4162 91.3585 11.5128 93.3973C11.1541 94.2089 10.8577 95.0466 10.6261 95.9032C10.3063 97.0862 10.0536 98.3942 9.38148 99.3737C9.3125 99.4766 9.23721 99.5752 9.15604 99.6689L2.83307 99.8504C2.81849 99.8436 2.80388 99.8382 2.78924 99.8314L2.53711 99.8502C2.54597 99.8052 2.55613 99.7587 2.56499 99.7137C2.57002 99.6876 2.57645 99.6614 2.58149 99.6352C2.58529 99.6178 2.58916 99.6004 2.5916 99.5844C2.59284 99.5786 2.59416 99.5728 2.59544 99.5684C2.59787 99.5525 2.60182 99.5379 2.6043 99.5234C2.66035 99.2634 2.71834 99.0033 2.77824 98.7431C2.7782 98.7417 2.7782 98.7417 2.77957 98.7402C3.21708 96.7534 3.88873 94.8256 4.78043 92.9971C4.80778 92.9429 4.83502 92.8872 4.86525 92.8329C5.27922 92.023 5.7587 91.2482 6.2989 90.5163C6.59598 90.1166 6.91311 89.7321 7.24907 89.3644C8.11897 88.4159 9.13264 87.6102 10.2529 86.9767C12.4864 85.7143 14.3635 85.1802 16.8081 85.842C16.8706 85.859 16.9318 85.876 16.9944 85.8944Z" fill="#F0F0F0"/>
<path d="M16.9811 85.9752C13.8832 86.6824 11.7264 88.384 9.64103 90.7879C9.17562 91.2993 8.79371 91.8808 8.50938 92.5111C8.25224 93.134 8.16662 93.8144 8.26139 94.4817C8.33725 95.1055 8.4871 95.7349 8.40999 96.3664C8.36571 96.689 8.25374 96.9987 8.0814 97.275C7.90907 97.5514 7.68026 97.7882 7.40999 97.9699C6.74835 98.4402 5.95718 98.6447 5.17654 98.8177C4.30978 99.0099 3.40645 99.1958 2.69467 99.7611C2.60843 99.8296 2.5072 99.6918 2.59331 99.6234C3.83167 98.6399 5.53331 98.79 6.89859 98.0816C7.53565 97.751 8.07696 97.2265 8.21625 96.499C8.33805 95.8628 8.18408 95.2137 8.1018 94.5826C7.99981 93.9331 8.05841 93.2685 8.27249 92.6468C8.52381 92.0041 8.88268 91.4088 9.33372 90.8865C10.3304 89.6943 11.5083 88.6663 12.8243 87.8401C14.3197 86.8898 15.2358 86.1995 16.9631 85.8051C17.0701 85.7807 17.0874 85.9509 16.9811 85.9752Z" fill="white"/>
<path d="M10.2786 89.9705C9.92197 89.56 9.72291 89.0361 9.71694 88.4924C9.71096 87.9487 9.89844 87.4205 10.2459 87.0023C10.3165 86.9179 10.451 87.0236 10.3803 87.1081C10.056 87.497 9.88139 87.989 9.88799 88.4953C9.89459 89.0016 10.082 89.4888 10.4163 89.8691C10.4888 89.9518 10.3507 90.0527 10.2786 89.9705Z" fill="white"/>
<path d="M8.18213 94.1701C9.29018 94.258 10.3906 93.925 11.2641 93.2375C11.3505 93.1693 11.4518 93.3071 11.3654 93.3752C10.4552 94.0889 9.30928 94.4332 8.15641 94.3392C8.04654 94.3302 8.07285 94.1612 8.18213 94.1701Z" fill="white"/>
<path d="M14.3584 87.1126C14.4632 87.3002 14.6131 87.4588 14.7944 87.5742C14.9757 87.6896 15.1828 87.7581 15.3972 87.7736C15.5071 87.7813 15.4807 87.9503 15.3714 87.9427C15.1347 87.9244 14.906 87.8485 14.7054 87.7214C14.5048 87.5944 14.3384 87.4202 14.2206 87.214C14.2079 87.1955 14.2027 87.1728 14.2061 87.1506C14.2095 87.1284 14.2212 87.1084 14.2388 87.0945C14.2571 87.0811 14.2799 87.0756 14.3023 87.079C14.3247 87.0824 14.3448 87.0945 14.3584 87.1126Z" fill="white"/>
<path d="M78.9425 0.36762H74.6174C74.8163 0.855265 74.8922 1.38434 74.8384 1.90824C74.7847 2.43214 74.6029 2.93478 74.3092 3.37189C74.0154 3.809 73.6187 4.16716 73.1539 4.41482C72.6891 4.66248 72.1706 4.79203 71.6439 4.79207H52.6616C52.1349 4.79203 51.6164 4.66248 51.1516 4.41482C50.6868 4.16716 50.29 3.809 49.9963 3.37189C49.7025 2.93478 49.5208 2.43214 49.467 1.90824C49.4133 1.38434 49.4892 0.85526 49.6881 0.367615H45.6484C43.8556 0.367613 42.1363 1.0798 40.8686 2.34749C39.6009 3.61519 38.8887 5.33456 38.8887 7.12735V92.8013C38.8887 93.689 39.0635 94.568 39.4032 95.3882C39.7429 96.2083 40.2408 96.9535 40.8686 97.5812C41.4963 98.2089 42.2414 98.7068 43.0616 99.0465C43.8817 99.3862 44.7607 99.5611 45.6484 99.5611H78.9425C79.8302 99.5611 80.7092 99.3862 81.5294 99.0465C82.3495 98.7068 83.0947 98.2089 83.7224 97.5812C84.3501 96.9535 84.848 96.2083 85.1877 95.3882C85.5274 94.568 85.7023 93.689 85.7023 92.8013V7.12736C85.7023 6.23965 85.5274 5.36065 85.1877 4.54052C84.848 3.72039 84.3501 2.9752 83.7224 2.3475C83.0947 1.7198 82.3495 1.22188 81.5294 0.882172C80.7092 0.542464 79.8302 0.367619 78.9425 0.36762Z" fill="white"/>
<path d="M78.943 99.9286H45.6489C43.7593 99.9265 41.9476 99.1749 40.6114 97.8387C39.2753 96.5025 38.5236 94.6909 38.5215 92.8013V7.12737C38.5236 5.23774 39.2753 3.42612 40.6114 2.08994C41.9476 0.75377 43.7592 0.00215903 45.6489 0H50.2356L50.029 0.506463C49.8528 0.938286 49.7856 1.4068 49.8332 1.87073C49.8808 2.33466 50.0417 2.77977 50.3018 3.16685C50.562 3.55392 50.9133 3.87108 51.3249 4.09039C51.7365 4.30969 52.1957 4.42441 52.662 4.42444H71.6444C72.1107 4.42438 72.5699 4.30964 72.9815 4.09033C73.393 3.87101 73.7443 3.55386 74.0045 3.16679C74.2646 2.77973 74.4256 2.33463 74.4732 1.87071C74.5208 1.4068 74.4536 0.93829 74.2775 0.506463L74.0709 0H78.943C80.8326 0.0021435 82.6442 0.753749 83.9804 2.08993C85.3166 3.4261 86.0682 5.23773 86.0703 7.12737V92.8013C86.0682 94.691 85.3166 96.5026 83.9804 97.8388C82.6442 99.1749 80.8326 99.9265 78.943 99.9286ZM45.6489 0.735238C43.9542 0.737172 42.3294 1.41125 41.1311 2.60959C39.9327 3.80793 39.2587 5.43267 39.2567 7.12737V92.8013C39.2586 94.496 39.9327 96.1207 41.1311 97.3191C42.3294 98.5174 43.9541 99.1915 45.6489 99.1934H78.943C80.6377 99.1915 82.2624 98.5174 83.4608 97.3191C84.6591 96.1208 85.3332 94.496 85.3351 92.8013V7.12738C85.3332 5.43267 84.6591 3.80792 83.4608 2.60958C82.2624 1.41124 80.6377 0.737167 78.943 0.735246H75.1224C75.2503 1.26186 75.257 1.81064 75.142 2.34022C75.0269 2.86979 74.7931 3.36633 74.4582 3.79238C74.1233 4.21843 73.696 4.56287 73.2086 4.79973C72.7211 5.03658 72.1863 5.15966 71.6444 5.15969H52.662C52.1202 5.15947 51.5854 5.03626 51.0981 4.79935C50.6108 4.56244 50.1836 4.218 49.8487 3.792C49.5138 3.366 49.28 2.86954 49.1649 2.34005C49.0497 1.81055 49.0563 1.26184 49.1841 0.735246L45.6489 0.735238Z" fill="#E4E4E4"/>
<path d="M79.1923 13.5345H69.1524C69.0394 13.5345 68.9311 13.4896 68.8513 13.4098C68.7714 13.3299 68.7266 13.2216 68.7266 13.1087C68.7266 12.9957 68.7714 12.8874 68.8513 12.8076C68.9311 12.7277 69.0394 12.6829 69.1524 12.6829H79.1923C79.2483 12.6827 79.3038 12.6937 79.3556 12.715C79.4073 12.7364 79.4544 12.7677 79.494 12.8073C79.5336 12.8468 79.5651 12.8938 79.5865 12.9455C79.608 12.9972 79.619 13.0527 79.619 13.1087C79.619 13.1647 79.608 13.2201 79.5865 13.2718C79.5651 13.3235 79.5336 13.3705 79.494 13.4101C79.4544 13.4496 79.4073 13.481 79.3556 13.5023C79.3038 13.5237 79.2483 13.5346 79.1923 13.5345Z" fill="#63388B"/>
<path d="M79.1923 15.4451H69.1524C69.0394 15.4451 68.9311 15.4002 68.8513 15.3204C68.7714 15.2405 68.7266 15.1322 68.7266 15.0193C68.7266 14.9064 68.7714 14.7981 68.8513 14.7182C68.9311 14.6384 69.0394 14.5935 69.1524 14.5935H79.1923C79.2483 14.5934 79.3038 14.6043 79.3556 14.6257C79.4073 14.647 79.4544 14.6784 79.494 14.7179C79.5336 14.7575 79.5651 14.8044 79.5865 14.8562C79.608 14.9079 79.619 14.9633 79.619 15.0193C79.619 15.0753 79.608 15.1307 79.5865 15.1825C79.5651 15.2342 79.5336 15.2812 79.494 15.3207C79.4544 15.3603 79.4073 15.3916 79.3556 15.4129C79.3038 15.4343 79.2483 15.4452 79.1923 15.4451Z" fill="#63388B"/>
<path d="M79.1923 17.3555H69.1524C69.0394 17.3555 68.9311 17.3106 68.8513 17.2308C68.7714 17.1509 68.7266 17.0426 68.7266 16.9297C68.7266 16.8168 68.7714 16.7085 68.8513 16.6286C68.9311 16.5488 69.0394 16.5039 69.1524 16.5039H79.1923C79.2483 16.5038 79.3038 16.5147 79.3556 16.5361C79.4073 16.5574 79.4544 16.5888 79.494 16.6283C79.5336 16.6679 79.5651 16.7148 79.5865 16.7666C79.608 16.8183 79.619 16.8737 79.619 16.9297C79.619 16.9857 79.608 17.0411 79.5865 17.0929C79.5651 17.1446 79.5336 17.1916 79.494 17.2311C79.4544 17.2707 79.4073 17.302 79.3556 17.3233C79.3038 17.3447 79.2483 17.3556 79.1923 17.3555Z" fill="#63388B"/>
<path d="M28.4123 98.0687L30.0945 98.0685L30.8948 91.5798H28.4121L28.4123 98.0687Z" fill="#FFB6B6"/>
<path d="M27.9824 97.5193L31.2954 97.5192C31.8553 97.5192 32.3925 97.7416 32.7884 98.1376C33.1843 98.5335 33.4068 99.0705 33.4068 99.6304V99.699L27.9825 99.6992L27.9824 97.5193Z" fill="#2F2E41"/>
<path d="M21.834 96.5029L23.4208 97.0613L26.33 91.2064L23.9879 90.3822L21.834 96.5029Z" fill="#FFB6B6"/>
<path d="M21.6123 95.8423L24.7374 96.9421C25.2656 97.128 25.6984 97.5161 25.9404 98.0211C26.1825 98.526 26.214 99.1064 26.0282 99.6345L26.0054 99.6993L20.8887 97.8986L21.6123 95.8423Z" fill="#2F2E41"/>
<path d="M20.8349 60.353L19.8164 61.4623L23.9332 78.5991L28.1628 95.3108H31.5444L29.5995 79.363V62.9615L20.8349 60.353Z" fill="#2F2E41"/>
<path d="M31.3577 61.7275L31.8035 63.3871L29.4215 78.1876L26.039 93.8706H22.209L25.0845 74.641L28.5982 60.4866L31.3577 61.7275Z" fill="#2F2E41"/>
<path d="M33.4635 37.1382L31.9747 34.4654L28.4428 33.8873C26.6823 34.3529 25.1064 35.3459 23.9267 36.733C22.7469 38.1202 22.0197 39.835 21.8427 41.6474L19.9277 61.2606C19.9277 61.2606 29.7263 65.7704 31.804 63.2313L34.6935 40.969C34.8077 40.2787 34.7558 39.571 34.5419 38.9048C34.328 38.2386 33.9583 37.633 33.4635 37.1382Z" fill="#3F3D56"/>
<path d="M30.9528 33.0204C33.0225 33.0204 34.7004 31.3425 34.7004 29.2728C34.7004 27.203 33.0225 25.5251 30.9528 25.5251C28.883 25.5251 27.2051 27.203 27.2051 29.2728C27.2051 31.3425 28.883 33.0204 30.9528 33.0204Z" fill="#FFB6B6"/>
<path d="M35.877 27.2296C35.6463 27.1651 35.4494 27.0137 35.3278 26.8073C35.2452 26.6692 35.2012 26.5114 35.2004 26.3505C35.1997 26.1896 35.2422 26.0314 35.3235 25.8925C35.1511 25.8031 34.9615 25.7517 34.7675 25.7418C34.5735 25.732 34.3797 25.7639 34.1991 25.8354C34.3517 25.7022 34.4705 25.5347 34.5458 25.3466C34.6211 25.1586 34.6507 24.9554 34.6321 24.7537C34.1824 24.9059 33.7327 25.0581 33.283 25.2103C33.4461 25.0855 33.5664 24.9132 33.6274 24.7171C33.6884 24.521 33.6869 24.3107 33.6233 24.1155C33.2542 24.6413 32.4897 24.712 31.8666 24.5551C31.2436 24.3983 30.6679 24.0692 30.0331 23.9702C29.6809 23.9153 29.3212 23.9332 28.9763 24.023C28.6313 24.1128 28.3085 24.2725 28.0278 24.4922C27.7471 24.7119 27.5145 24.9869 27.3445 25.3001C27.1744 25.6134 27.0705 25.9583 27.0392 26.3133C26.8754 26.3341 26.7197 26.3961 26.5865 26.4937C26.4533 26.5912 26.3471 26.721 26.2779 26.8708C26.1429 27.1726 26.0814 27.502 26.0985 27.8321C26.1097 28.6198 26.3016 29.3945 26.6593 30.0964C27.017 30.7983 27.5311 31.4088 28.1619 31.8808L28.369 31.8095C28.3452 31.3835 28.4864 30.9648 28.7634 30.6402C29.0404 30.3157 29.4318 30.1105 29.8562 30.0671C30.4059 30.0326 31.055 30.2527 31.4474 29.8661C31.8063 29.5125 31.6779 28.8793 31.9708 28.4693C32.2256 28.1127 32.7324 28.0296 33.1623 28.115C33.5922 28.2004 33.9833 28.4181 34.4008 28.5515C34.8183 28.6849 35.3073 28.7224 35.6662 28.4709C35.8144 28.3519 35.9342 28.2014 36.0171 28.0303C36.0999 27.8593 36.1437 27.6719 36.1453 27.4819C36.1494 27.405 36.1488 27.328 36.1433 27.2512C36.054 27.256 35.9644 27.2488 35.877 27.2296Z" fill="#2F2E41"/>
<path d="M49.4504 62.2239H10.8574V73.3996H49.4504V62.2239Z" fill="white"/>
<path d="M49.8006 73.7505H10.5059V61.873H49.8006V73.7505ZM11.2076 73.0488H49.0989V62.5747H11.2075L11.2076 73.0488Z" fill="#E4E4E4"/>
<path d="M41.9534 66.0668H18.3539C18.2212 66.0668 18.0939 66.014 18.0001 65.9202C17.9062 65.8264 17.8535 65.6991 17.8535 65.5664C17.8535 65.4337 17.9062 65.3064 18.0001 65.2126C18.0939 65.1188 18.2212 65.066 18.3539 65.066H41.9534C42.0861 65.066 42.2133 65.1188 42.3072 65.2126C42.401 65.3064 42.4537 65.4337 42.4537 65.5664C42.4537 65.6991 42.401 65.8264 42.3072 65.9202C42.2133 66.014 42.0861 66.0668 41.9534 66.0668Z" fill="#63388B"/>
<path d="M41.9525 68.3121H18.353C18.2204 68.3119 18.0934 68.259 17.9997 68.1652C17.9061 68.0714 17.8535 67.9443 17.8535 67.8117C17.8535 67.6792 17.9061 67.552 17.9997 67.4582C18.0934 67.3644 18.2204 67.3115 18.353 67.3113H41.9525C42.085 67.3115 42.2121 67.3644 42.3057 67.4582C42.3993 67.552 42.4519 67.6792 42.4519 67.8117C42.4519 67.9443 42.3993 68.0714 42.3057 68.1652C42.2121 68.259 42.085 68.3119 41.9525 68.3121Z" fill="#63388B"/>
<path d="M32.401 70.5571H18.3539C18.2212 70.5571 18.0939 70.5044 18.0001 70.4106C17.9062 70.3167 17.8535 70.1895 17.8535 70.0568C17.8535 69.9241 17.9062 69.7968 18.0001 69.7029C18.0939 69.6091 18.2212 69.5564 18.3539 69.5564H32.401C32.5337 69.5564 32.661 69.6091 32.7548 69.7029C32.8487 69.7968 32.9014 69.9241 32.9014 70.0568C32.9014 70.1895 32.8487 70.3167 32.7548 70.4106C32.661 70.5044 32.5337 70.5571 32.401 70.5571Z" fill="#63388B"/>
<path d="M33.8608 63.6204C33.7108 63.4855 33.5922 63.3194 33.5133 63.1338C33.4344 62.9481 33.3972 62.7474 33.4043 62.5458C33.4114 62.3442 33.4626 62.1466 33.5543 61.967C33.646 61.7873 33.776 61.6299 33.9351 61.5059L32.3555 56.8639L34.8212 57.5066L35.9432 61.8162C36.1338 62.0973 36.2146 62.4386 36.1704 62.7753C36.1262 63.112 35.9601 63.4209 35.7034 63.6433C35.4467 63.8656 35.1173 63.9861 34.7777 63.9819C34.4381 63.9777 34.1119 63.8491 33.8608 63.6204Z" fill="#FFB6B6"/>
<path d="M32.769 60.5261L30.2127 51.076L29.9889 39.5627C29.9776 39.0915 30.1196 38.6293 30.3936 38.2457C30.6676 37.8621 31.0587 37.5779 31.5081 37.4358C31.8445 37.3278 32.202 37.3027 32.5501 37.3629C32.8982 37.423 33.2267 37.5664 33.5073 37.781C33.788 37.9955 34.0125 38.2748 34.1618 38.595C34.3111 38.9152 34.3807 39.2667 34.3647 39.6197L33.9529 48.6789L35.981 59.4928L32.769 60.5261Z" fill="#3F3D56"/>
<path d="M24.6264 63.8947C24.4764 63.7598 24.3578 63.5937 24.2789 63.4081C24.2001 63.2224 24.1628 63.0217 24.1699 62.8201C24.177 62.6185 24.2282 62.4209 24.3199 62.2412C24.4116 62.0616 24.5416 61.9042 24.7007 61.7802L23.1211 57.1382L25.5868 57.7809L26.7088 62.0905C26.8994 62.3716 26.9803 62.7129 26.9361 63.0496C26.8919 63.3863 26.7257 63.6952 26.469 63.9175C26.2123 64.1399 25.883 64.2604 25.5434 64.2562C25.2038 64.252 24.8775 64.1234 24.6264 63.8947Z" fill="#FFB6B6"/>
<path d="M23.1463 60.0857L22.0527 50.369L23.5811 38.9431C23.62 38.6522 23.717 38.3721 23.8663 38.1195C24.0156 37.8668 24.2142 37.6468 24.4502 37.4724C24.6863 37.298 24.955 37.1729 25.2404 37.1044C25.5257 37.036 25.822 37.0256 26.1114 37.0739C26.4009 37.1223 26.6777 37.2283 26.9254 37.3857C27.173 37.5432 27.3865 37.7488 27.5532 37.9904C27.7198 38.2319 27.8361 38.5046 27.8953 38.792C27.9544 39.0795 27.9552 39.3759 27.8975 39.6636L26.1151 48.5554L26.478 59.5519L23.1463 60.0857Z" fill="#3F3D56"/>
<path d="M106.609 94.0268H47.5293V80.4303H106.609V94.0268Z" fill="white"/>
<path d="M56.0561 84.9258C55.9034 84.9258 55.757 84.9864 55.6491 85.0944C55.5411 85.2023 55.4805 85.3488 55.4805 85.5014C55.4805 85.6541 55.5411 85.8005 55.6491 85.9085C55.757 86.0164 55.9034 86.0771 56.0561 86.0771H98.0853C98.2378 86.0768 98.3839 86.016 98.4917 85.9081C98.5994 85.8002 98.6599 85.6539 98.6599 85.5014C98.6599 85.3489 98.5994 85.2027 98.4917 85.0947C98.3839 84.9868 98.2378 84.9261 98.0853 84.9258H56.0561Z" fill="#E6E6E6"/>
<path d="M56.0554 88.3796C55.9027 88.3793 55.7562 88.4397 55.648 88.5474C55.5398 88.6551 55.4788 88.8014 55.4785 88.9541C55.4782 89.1067 55.5385 89.2533 55.6463 89.3615C55.754 89.4697 55.9003 89.5306 56.053 89.5309H82.6242C82.6999 89.5311 82.7749 89.5163 82.8448 89.4874C82.9148 89.4585 82.9784 89.4162 83.0319 89.3627C83.0855 89.3092 83.128 89.2457 83.157 89.1758C83.186 89.1059 83.2009 89.031 83.2009 88.9553C83.2009 88.8796 83.186 88.8047 83.157 88.7348C83.128 88.6649 83.0855 88.6013 83.0319 88.5479C82.9784 88.4944 82.9148 88.452 82.8448 88.4232C82.7749 88.3943 82.6999 88.3795 82.6242 88.3796H56.0554Z" fill="#E6E6E6"/>
<path d="M106.609 94.0268H47.5293V80.4303H106.609V94.0268ZM48.5005 93.0556H105.638V81.4015H48.5005V93.0556Z" fill="#E5E5E5"/>
<path d="M13.5118 54.9218C13.0239 54.9218 12.547 54.7771 12.1413 54.506C11.7356 54.2349 11.4194 53.8497 11.2327 53.3989C11.046 52.9481 10.9971 52.4521 11.0923 51.9736C11.1875 51.495 11.4225 51.0555 11.7675 50.7105C12.1125 50.3655 12.552 50.1305 13.0306 50.0353C13.5091 49.9401 14.0051 49.989 14.4559 50.1757C14.9067 50.3624 15.292 50.6786 15.563 51.0843C15.8341 51.49 15.9788 51.9669 15.9788 52.4548C15.9788 53.1091 15.7189 53.7366 15.2562 54.1992C14.7936 54.6619 14.1661 54.9218 13.5118 54.9218Z" fill="#F0F0F0"/>
<path d="M24.7675 19.9637C24.229 19.9637 23.7026 19.804 23.2549 19.5049C22.8072 19.2057 22.4582 18.7805 22.2522 18.283C22.0461 17.7855 21.9922 17.2381 22.0972 16.71C22.2023 16.1819 22.4616 15.6967 22.8424 15.316C23.2231 14.9352 23.7082 14.6759 24.2364 14.5709C24.7645 14.4658 25.3119 14.5197 25.8094 14.7258C26.3069 14.9319 26.7321 15.2808 27.0313 15.7286C27.3304 16.1763 27.4901 16.7027 27.4901 17.2411C27.4901 17.5987 27.4197 17.9527 27.2829 18.283C27.146 18.6133 26.9455 18.9135 26.6927 19.1663C26.4399 19.4191 26.1397 19.6197 25.8094 19.7565C25.4791 19.8933 25.125 19.9637 24.7675 19.9637Z" fill="#F0F0F0"/>
<path d="M94.9938 39.4229C94.5307 39.4229 94.078 39.2856 93.693 39.0283C93.3079 38.771 93.0078 38.4054 92.8306 37.9775C92.6534 37.5497 92.607 37.0789 92.6973 36.6247C92.7877 36.1705 93.0107 35.7533 93.3381 35.4258C93.6656 35.0983 94.0828 34.8753 94.537 34.785C94.9912 34.6946 95.462 34.741 95.8898 34.9182C96.3177 35.0954 96.6834 35.3956 96.9407 35.7806C97.198 36.1657 97.3353 36.6184 97.3353 37.0815C97.3353 37.7025 97.0886 38.298 96.6495 38.7371C96.2104 39.1762 95.6148 39.4229 94.9938 39.4229Z" fill="#F0F0F0"/>
<path d="M80.169 24.4976H44.2793V51.5995H80.169V24.4976Z" fill="white"/>
<path d="M80.6383 52.0696H43.8086V24.0277H80.6383V52.0696ZM44.7485 51.1296H79.6983V24.9677H44.7485V51.1296Z" fill="#E4E4E4"/>
<path d="M79.7617 25.0512H44.8906L79.7617 51.336V25.0512Z" fill="#F0F0F0"/>
<path d="M99.944 99.7092C98.8993 99.7092 97.8781 99.3994 97.0095 98.819C96.1409 98.2387 95.4639 97.4138 95.0642 96.4486C94.6644 95.4835 94.5598 94.4215 94.7636 93.3969C94.9674 92.3723 95.4704 91.4312 96.2091 90.6925C96.9478 89.9538 97.8889 89.4508 98.9135 89.247C99.9381 89.0432 101 89.1478 101.965 89.5476C102.93 89.9473 103.755 90.6243 104.336 91.4929C104.916 92.3615 105.226 93.3827 105.226 94.4273C105.226 95.121 105.089 95.8078 104.824 96.4486C104.558 97.0894 104.169 97.6717 103.679 98.1622C103.188 98.6526 102.606 99.0417 101.965 99.3071C101.324 99.5726 100.638 99.7092 99.944 99.7092Z" fill="#63388B"/>
<path d="M102.028 93.9062H100.465V92.3432C100.465 92.205 100.41 92.0725 100.312 91.9748C100.215 91.877 100.082 91.8221 99.944 91.8221C99.8058 91.8221 99.6733 91.877 99.5756 91.9748C99.4778 92.0725 99.4229 92.205 99.4229 92.3432V93.9062H97.8599C97.7219 93.9065 97.5896 93.9615 97.4921 94.0592C97.3946 94.1569 97.3398 94.2892 97.3398 94.4273C97.3398 94.5653 97.3946 94.6976 97.4921 94.7953C97.5896 94.893 97.7219 94.948 97.8599 94.9483H99.4229V96.5113C99.4229 96.6495 99.4778 96.7821 99.5756 96.8798C99.6733 96.9775 99.8058 97.0324 99.944 97.0324C100.082 97.0324 100.215 96.9775 100.312 96.8798C100.41 96.7821 100.465 96.6495 100.465 96.5113V94.9483H102.028C102.097 94.9484 102.164 94.935 102.228 94.9089C102.291 94.8828 102.349 94.8444 102.397 94.796C102.446 94.7476 102.484 94.6902 102.51 94.6269C102.537 94.5636 102.55 94.4958 102.55 94.4273C102.55 94.3588 102.537 94.2909 102.51 94.2277C102.484 94.1644 102.446 94.1069 102.397 94.0585C102.349 94.0101 102.291 93.9717 102.228 93.9456C102.164 93.9195 102.097 93.9061 102.028 93.9062Z" fill="white"/>
<path d="M106.389 100H0.276823C0.218887 99.9998 0.163381 99.9767 0.122474 99.9357C0.0815667 99.8946 0.0585938 99.839 0.0585938 99.7811C0.0585938 99.7232 0.0815667 99.6676 0.122474 99.6266C0.163381 99.5856 0.218887 99.5624 0.276823 99.5623H106.389C106.447 99.5624 106.502 99.5856 106.543 99.6266C106.584 99.6676 106.607 99.7232 106.607 99.7811C106.607 99.839 106.584 99.8946 106.543 99.9357C106.502 99.9767 106.447 99.9998 106.389 100Z" fill="#CACACA"/>
</svg>
