<svg width="49" height="49" viewBox="0 0 49 49" fill="none" xmlns="http://www.w3.org/2000/svg">
<path d="M48.0208 0H0.979879C0.43842 0 0 0.438414 0 0.979865V48.0201C0 48.5616 0.43842 49 0.979879 49H48.0201C48.5616 49 49 48.5616 49 48.0201V0.979865C49.0007 0.438414 48.5623 0 48.0208 0ZM47.0409 1.95973V10.0458H1.95976V1.95973H47.0409ZM1.95976 47.0403V12.0055H47.0409V47.0403H1.95976ZM44.4865 7.2308H22.8928V5.27107H44.4865V7.2308ZM18.5753 7.2308H16.7845V5.27107H18.5753V7.2308ZM14.5433 7.2308H12.7526V5.27107H14.5433V7.2308ZM10.5113 7.2308H8.72058V5.27107H10.5113V7.2308ZM6.48 7.2308H4.68928V5.27107H6.48V7.2308ZM38.8867 29.3199C39.0706 29.5037 39.1736 29.7529 39.1736 30.0128C39.1736 30.2728 39.0706 30.522 38.8867 30.7058L31.4962 38.0962C31.3049 38.2875 31.0544 38.3831 30.8032 38.3831C30.5527 38.3831 30.3015 38.2875 30.1102 38.0962C29.7277 37.7137 29.7277 37.0935 30.1102 36.7103L36.8078 30.0128L30.1102 23.3154C29.7277 22.9329 29.7277 22.3126 30.1102 21.9295C30.4928 21.5469 31.1137 21.5469 31.4962 21.9295L38.8867 29.3199ZM19.1336 23.0723L12.1929 30.0128L19.1336 36.9534C19.5161 37.3359 19.5161 37.9568 19.1336 38.3393C18.9423 38.5306 18.6918 38.6262 18.4406 38.6262C18.1894 38.6262 17.9389 38.5306 17.7476 38.3393L10.114 30.7058C9.73144 30.3233 9.73144 29.7031 10.114 29.3199L17.7476 21.6863C18.1301 21.3038 18.751 21.3038 19.1336 21.6863C19.5161 22.0689 19.5161 22.6898 19.1336 23.0723ZM27.6191 22.1732L23.2753 38.3838C23.1581 38.8215 22.7621 39.1104 22.3291 39.1104C22.2449 39.1104 22.1601 39.0997 22.0752 39.0768C21.5526 38.9367 21.2422 38.3993 21.3822 37.8767L25.726 21.6661C25.8661 21.1435 26.4042 20.8344 26.9261 20.9732C27.4487 21.1132 27.7585 21.6506 27.6191 22.1732Z" fill="#3F3F3F"/>
</svg>
