<svg width="43" height="52" viewBox="0 0 43 52" fill="none" xmlns="http://www.w3.org/2000/svg">
<path d="M17.8831 15.0957C17.8831 13.6739 19.2442 12.3936 21.0426 12.3936C22.8411 12.3936 24.2022 13.6739 24.2022 15.0957C24.2022 16.5175 22.8411 17.7979 21.0426 17.7979C19.2442 17.7979 17.8831 16.5175 17.8831 15.0957ZM23.3724 15.0957C23.3724 13.8655 22.2751 12.9947 21.0426 12.9947C19.8101 12.9947 18.7128 13.8655 18.7128 15.0957C18.7128 16.326 19.8101 17.1968 21.0426 17.1968C22.2751 17.1968 23.3724 16.326 23.3724 15.0957Z" fill="white" stroke="white"/>
<path d="M21.4575 27.8617H20.6277V22.4575H21.4575V27.8617Z" fill="white" stroke="white"/>
<path d="M20.7285 20.7648L20.7285 20.7648L20.7304 20.7628C20.7676 20.7225 20.8148 20.6886 20.8698 20.6648C20.9241 20.6412 20.9839 20.6284 21.0452 20.6277C21.1064 20.6284 21.1662 20.6412 21.2205 20.6648C21.2755 20.6886 21.3227 20.7225 21.36 20.7628L21.3599 20.7628L21.3618 20.7648L28.6811 28.6033C28.6813 28.6035 28.6815 28.6037 28.6817 28.6039C28.7262 28.6523 28.7552 28.7084 28.7684 28.7662C28.7816 28.8241 28.7791 28.8841 28.7608 28.9413L28.7602 28.9432L26.0183 37.6515L26.0178 37.6532C25.9952 37.7257 25.9471 37.7941 25.8755 37.845C25.8035 37.8962 25.713 37.9256 25.6176 37.9256H25.6173H16.4731H16.4727C16.3773 37.9256 16.2868 37.8962 16.2148 37.845C16.1432 37.7941 16.0951 37.7257 16.0725 37.6532L16.0719 37.6512L13.3238 28.9445C13.3237 28.9443 13.3236 28.9441 13.3236 28.9438C13.3059 28.8867 13.3039 28.8268 13.3175 28.7691C13.3312 28.711 13.3609 28.6547 13.4064 28.6064L13.4077 28.6049L20.7285 20.7648ZM21.4106 21.9732L21.0452 21.5818L20.6797 21.9732L14.3855 28.7135L14.1865 28.9265L14.2739 29.2047L16.6714 36.8325L16.7814 37.1826H17.1484H24.9352H25.3018L25.412 36.8329L27.8163 29.205L27.904 28.9267L27.7048 28.7135L21.4106 21.9732Z" fill="white" stroke="white"/>
<path d="M31.6064 15.0957C31.6064 14.4031 31.9712 13.7377 32.624 13.2299C33.2769 12.7221 34.1963 12.3936 35.2235 12.3936C36.2506 12.3936 37.17 12.7221 37.8229 13.2299C38.4757 13.7377 38.8405 14.4031 38.8405 15.0957C38.8405 15.7884 38.4757 16.4538 37.8229 16.9616C37.17 17.4694 36.2506 17.7979 35.2235 17.7979C34.1963 17.7979 33.2769 17.4694 32.624 16.9616C31.9712 16.4538 31.6064 15.7884 31.6064 15.0957ZM37.782 15.0957C37.782 13.8164 36.5242 12.9947 35.2235 12.9947C33.9228 12.9947 32.665 13.8164 32.665 15.0957C32.665 16.3751 33.9228 17.1968 35.2235 17.1968C36.5242 17.1968 37.782 16.3751 37.782 15.0957Z" fill="white" stroke="white"/>
<path d="M4.15967 15.0957C4.15967 13.6739 5.52079 12.3936 7.31924 12.3936C9.1177 12.3936 10.4788 13.6739 10.4788 15.0957C10.4788 16.5175 9.1177 17.7979 7.31924 17.7979C5.52079 17.7979 4.15967 16.5175 4.15967 15.0957ZM9.64903 15.0957C9.64903 13.8655 8.55173 12.9947 7.31924 12.9947C6.08675 12.9947 4.98946 13.8655 4.98946 15.0957C4.98946 16.326 6.08676 17.1968 7.31924 17.1968C8.55173 17.1968 9.64903 16.326 9.64903 15.0957Z" fill="white" stroke="white"/>
<path d="M18.6009 15.9073C14.6837 16.9148 11.6806 19.7071 10.5921 23.2004L9.77655 23.0256C10.9386 19.3172 14.1636 16.3041 18.4273 15.2355L18.6009 15.9073Z" fill="white" stroke="white"/>
<path d="M33.2234 23.0251L32.4001 23.2008C31.3124 19.709 28.3168 16.9165 24.3993 15.9075L24.573 15.2357C28.8371 16.3058 32.0614 19.3184 33.2234 23.0251Z" fill="white" stroke="white"/>
<path d="M29.7766 26.5285C29.7766 24.8475 31.351 23.3723 33.3936 23.3723C35.4363 23.3723 37.0107 24.8475 37.0107 26.5285C37.0107 28.2107 35.435 29.6915 33.3936 29.6915C31.3522 29.6915 29.7766 28.2107 29.7766 26.5285ZM35.9521 26.5285C35.9521 25.1769 34.762 24.197 33.3936 24.197C32.0252 24.197 30.8351 25.1769 30.8351 26.5285C30.8351 27.8801 32.0252 28.86 33.3936 28.86C34.762 28.86 35.9521 27.8801 35.9521 26.5285Z" fill="white" stroke="white"/>
<path d="M5.98926 26.5285C5.98926 24.7938 7.41441 23.3723 9.14883 23.3723C10.8833 23.3723 12.3084 24.7938 12.3084 26.5285C12.3084 28.2645 10.882 29.6915 9.14883 29.6915C7.41562 29.6915 5.98926 28.2645 5.98926 26.5285ZM11.4786 26.5285C11.4786 25.2307 10.4466 24.197 9.14883 24.197C7.85111 24.197 6.81904 25.2307 6.81905 26.5285C6.81905 27.8263 7.85111 28.86 9.14883 28.86C10.4466 28.86 11.4786 27.8263 11.4786 26.5285Z" fill="white" stroke="white"/>
<mask id="path-10-inside-1_3119_99" fill="white">
<path d="M23.7874 14.6383V15.5532H32.0214V14.6383H23.7874Z"/>
</mask>
<path d="M23.7874 14.6383V15.5532H32.0214V14.6383H23.7874Z" fill="white"/>
<path d="M23.7874 14.6383V13.6383H22.7874V14.6383H23.7874ZM23.7874 15.5532H22.7874V16.5532H23.7874V15.5532ZM32.0214 15.5532V16.5532H33.0214V15.5532H32.0214ZM32.0214 14.6383H33.0214V13.6383H32.0214V14.6383ZM22.7874 14.6383V15.5532H24.7874V14.6383H22.7874ZM23.7874 16.5532H32.0214V14.5532H23.7874V16.5532ZM33.0214 15.5532V14.6383H31.0214V15.5532H33.0214ZM32.0214 13.6383H23.7874V15.6383H32.0214V13.6383Z" fill="white" mask="url(#path-10-inside-1_3119_99)"/>
<mask id="path-12-inside-2_3119_99" fill="white">
<path d="M10.0637 14.6383V15.5532H18.2978V14.6383H10.0637Z"/>
</mask>
<path d="M10.0637 14.6383V15.5532H18.2978V14.6383H10.0637Z" fill="white"/>
<path d="M10.0637 14.6383V13.6383H9.06372V14.6383H10.0637ZM10.0637 15.5532H9.06372V16.5532H10.0637V15.5532ZM18.2978 15.5532V16.5532H19.2978V15.5532H18.2978ZM18.2978 14.6383H19.2978V13.6383H18.2978V14.6383ZM9.06372 14.6383V15.5532H11.0637V14.6383H9.06372ZM10.0637 16.5532H18.2978V14.5532H10.0637V16.5532ZM19.2978 15.5532V14.6383H17.2978V15.5532H19.2978ZM18.2978 13.6383H10.0637V15.6383H18.2978V13.6383Z" fill="white" mask="url(#path-12-inside-2_3119_99)"/>
<path d="M0.50001 6.18826H0.500026L0.500001 6.1853L0.5 6.18421L0.50005 6.17573C0.50013 6.16733 0.500339 6.15349 0.500876 6.13458C0.501949 6.09674 0.50433 6.03868 0.509598 5.96324C0.520147 5.81221 0.542202 5.59255 0.588193 5.32681C0.680524 4.79331 0.867333 4.0857 1.24235 3.37687C1.97816 1.9861 3.50841 0.50001 6.54109 0.50001L36.452 0.500022L36.4548 0.500001L36.4549 0.500001L36.4564 0.5L36.4661 0.50005C36.4755 0.500131 36.4906 0.500337 36.5112 0.500857C36.5523 0.501898 36.6148 0.504195 36.6958 0.509249C36.858 0.519367 37.0932 0.540475 37.3774 0.584401C37.948 0.672605 38.704 0.850951 39.4606 1.20849C40.953 1.91366 42.5 3.34995 42.5 6.18826L42.5 45.0523L42.5 45.0553V45.0555L42.5 45.0559V45.0561L42.5 45.0564L42.5 45.0648C42.4999 45.0683 42.4999 45.0727 42.4998 45.078C42.4996 45.0856 42.4994 45.0949 42.4991 45.106C42.4981 45.1438 42.4957 45.2019 42.4904 45.2773C42.4799 45.4284 42.4578 45.648 42.4118 45.9138C42.3195 46.4473 42.1327 47.1549 41.7576 47.8637C41.0219 49.2543 39.5145 50.734 36.452 50.734H6.54109C3.48775 50.734 1.97816 49.2545 1.24235 47.8637C0.86733 47.1549 0.680521 46.4473 0.58819 45.9138C0.5422 45.648 0.520145 45.4284 0.509597 45.2773C0.504329 45.2019 0.501949 45.1438 0.500875 45.106C0.500339 45.0871 0.50013 45.0732 0.500049 45.0648L0.5 45.0564L0.50001 45.0563V45.0523V6.18826ZM36.4589 1.26715H36.452H6.54109C5.28973 1.26715 4.32493 1.54782 3.5829 2.0064C2.8414 2.46464 2.35519 3.0802 2.02821 3.69824L2.0282 3.69824C1.70227 4.31431 1.53921 4.93141 1.45683 5.38955C1.41541 5.6199 1.39377 5.81353 1.38244 5.95152C1.37677 6.02061 1.37366 6.07602 1.37195 6.11541C1.3711 6.13511 1.3706 6.15083 1.37031 6.16228L1.37 6.17622L1.36993 6.18073L1.36991 6.18236L1.3699 6.18301L1.3699 6.1833C1.3699 6.18343 1.3699 6.18356 1.86675 6.18823L1.36987 6.18356V6.18826L1.36985 45.0523L1.3699 45.057L1.86987 45.0523C1.3699 45.057 1.3699 45.0571 1.3699 45.0573L1.3699 45.0576L1.36991 45.0582L1.36993 45.0598L1.37 45.0643L1.3703 45.0783C1.3706 45.0897 1.3711 45.1055 1.37195 45.1252C1.37366 45.1646 1.37677 45.22 1.38244 45.2891C1.39377 45.427 1.41541 45.6207 1.45683 45.851C1.53921 46.3092 1.70226 46.9263 2.02821 47.5423C2.3553 48.1606 2.84214 48.7761 3.5838 49.2342C4.32602 49.6927 5.29076 49.9734 6.54109 49.9734H36.452C37.7059 49.9734 38.6709 49.6928 39.4125 49.2341C40.1536 48.7756 40.6382 48.1598 40.9649 47.5423L40.5229 47.3085L40.9649 47.5423C41.2904 46.927 41.4552 46.3106 41.5394 45.853C41.5817 45.6229 41.6042 45.4295 41.6163 45.2916C41.6223 45.2226 41.6257 45.1673 41.6276 45.128C41.6286 45.1083 41.6292 45.0926 41.6295 45.0812L41.6299 45.0673L41.63 45.0629L41.6301 45.0612L41.6301 45.0606L41.6301 45.0603C41.6301 45.0602 41.6301 45.06 41.1301 45.0523L41.6301 45.06V45.0523V6.18826C41.6301 4.98418 41.3289 4.05882 40.8377 3.35085C40.3491 2.64659 39.6974 2.19341 39.053 1.88891C38.4084 1.58433 37.7632 1.43034 37.2846 1.35174C37.0439 1.31221 36.8417 1.29117 36.6981 1.27997C36.6262 1.27437 36.5687 1.27121 36.5281 1.26943C36.5077 1.26854 36.4916 1.268 36.48 1.26767L36.466 1.26732L36.4616 1.26724L36.46 1.26721L36.4594 1.2672L36.4591 1.2672C36.459 1.2672 36.4589 1.2672 36.4526 1.72761L36.4589 1.26715Z" fill="white" stroke="white"/>
<path d="M41.585 42.5H1.41479V41.6702H41.585V42.5Z" fill="white" stroke="white"/>
<path d="M24.2022 46.1596H17.8831V45.3298H24.2022V46.1596Z" fill="white" stroke="white"/>
</svg>
