<svg width="46" height="52" viewBox="0 0 46 52" fill="none" xmlns="http://www.w3.org/2000/svg">
<mask id="path-1-inside-1_3119_115" fill="white">
<path d="M43.1203 7.2809H41.4005V3.38099C41.4005 1.51493 39.8841 0 38.0162 0H7.98438C6.11648 0 4.60007 1.51493 4.60007 3.38099V7.2809H2.88027C1.29091 7.2809 0 8.57501 0 10.1583V37.4692C0 39.057 1.29538 40.3466 2.88027 40.3466H17.5821L16.5852 46L15.5838 46.0022C13.3888 46.0022 11.6049 47.7821 11.6049 49.9772V50.4122C11.6049 51.2889 12.3189 52 13.1943 52H32.8013C33.6789 52 34.3906 51.2867 34.3906 50.4122V49.9772C34.3906 47.7843 32.609 46.0022 30.4117 46.0022H29.4104L28.4135 40.3488H43.1153C44.7047 40.3488 45.9956 39.0547 45.9956 37.4714L46 10.1651C46 8.57728 44.7119 7.2809 43.1203 7.2809ZM5.86885 6.58085H40.1273V26.0781C40.1273 27.2419 39.1768 28.1915 38.0118 28.1915L7.98455 28.1938C6.8196 28.1938 5.86908 27.2442 5.86908 26.0804L5.86885 6.58085ZM7.98432 1.26539H38.0161C39.1811 1.26539 40.1316 2.21499 40.1316 3.37879V5.31331H5.86862V3.38099C5.86862 2.21719 6.81276 1.26539 7.98432 1.26539ZM2.87586 8.54861H4.59565V26.0808C4.59565 27.9469 6.11207 29.4618 7.97996 29.4618H38.0118C39.8797 29.4618 41.3961 27.9469 41.3961 26.0808V8.54861H43.1159C44.0045 8.54861 44.7296 9.27292 44.7296 10.1607V34.2491L1.26239 34.2469V10.1647C1.26239 9.27037 1.98718 8.54861 2.87586 8.54861ZM33.1221 49.9883V50.4233C33.1221 50.5978 32.9807 50.7457 32.7994 50.7457H13.1924C13.0178 50.7457 12.8697 50.6044 12.8697 50.4233V49.9883C12.8697 48.4955 14.0855 47.2808 15.5798 47.2808H30.4078C31.9043 47.2786 33.1221 48.4954 33.1221 49.9883ZM28.1242 46.0133H17.872L18.8689 40.3599H27.1298L28.1242 46.0133ZM43.1203 39.0879H2.87586C1.98724 39.0879 1.26216 38.3636 1.26216 37.4758V35.5193H44.7339V37.4758C44.7339 38.3636 44.009 39.0879 43.1203 39.0879ZM7.87154 3.29088C7.87154 2.78738 8.27827 2.37441 8.7889 2.37441C9.2929 2.37441 9.70627 2.78075 9.70627 3.29088C9.70627 3.79438 9.29953 4.20734 8.7889 4.20734C8.28491 4.20734 7.87154 3.7988 7.87154 3.29088ZM11.5388 3.29088C11.5388 2.78738 11.9455 2.37441 12.4562 2.37441C12.9601 2.37441 13.3735 2.78075 13.3735 3.29088C13.3735 3.79438 12.9668 4.20734 12.4562 4.20734C11.9522 4.20734 11.5388 3.7988 11.5388 3.29088ZM15.206 3.29088C15.206 2.78738 15.6128 2.37441 16.1234 2.37441C16.6318 2.37441 17.0408 2.78075 17.0408 3.29088C17.0408 3.79438 16.634 4.20734 16.1234 4.20734C15.6128 4.20734 15.206 3.7988 15.206 3.29088ZM25.8499 3.29088C25.8499 2.93975 26.1328 2.65708 26.4843 2.65708H38.1247C38.4761 2.65708 38.7591 2.93975 38.7591 3.29088C38.7591 3.642 38.4761 3.92467 38.1247 3.92467H26.4843C26.1328 3.92467 25.8499 3.64201 25.8499 3.29088ZM11.7026 20.9113L12.8521 25.5863C13.0731 26.4851 13.8755 27.1123 14.7995 27.1123H15.75C16.2319 27.1123 16.6784 26.898 16.9725 26.5182C17.2665 26.1384 17.3682 25.6592 17.2554 25.1954L16.2364 21.0636C20.0672 21.0747 22.6536 22.0463 24.59 24.1951V24.4667C24.59 25.5068 25.4389 26.3548 26.48 26.3548C27.5211 26.3548 28.37 25.5068 28.37 24.4667V19.3897H29.4288C30.2268 19.3897 30.8723 18.7449 30.8723 17.9476V16.0816C30.8723 15.2843 30.2268 14.6395 29.4288 14.6395L28.3744 14.6417V9.55371C28.3744 8.5136 27.5255 7.6656 26.4844 7.6656C25.4433 7.6656 24.5944 8.5136 24.5944 9.55371V9.82534C22.647 11.9851 20.0386 12.9568 16.1638 12.9568H12.7685C10.5337 12.9568 8.71658 14.772 8.71658 17.0047C8.70995 18.8774 9.98287 20.4431 11.7026 20.9113ZM15.9689 25.7343C15.9402 25.774 15.8672 25.8425 15.7479 25.8425H14.7973C14.4525 25.8425 14.1629 25.6172 14.0834 25.2838L13.0422 21.0614H14.9212L16.0132 25.5002C16.0485 25.615 16.0043 25.6945 15.9689 25.7343ZM29.4332 15.9025C29.5304 15.9025 29.6078 15.982 29.6078 16.077V17.943C29.6078 18.0402 29.5282 18.1175 29.4332 18.1175L28.3743 18.1197V15.9091H29.4332V15.9025ZM25.861 9.55378C25.861 9.20927 26.1373 8.931 26.4844 8.931C26.8292 8.931 27.1077 9.20705 27.1077 9.55378V24.4622C27.1077 24.8068 26.8314 25.085 26.4844 25.085C26.1395 25.085 25.861 24.809 25.861 24.4622V9.55378ZM24.5943 11.6075V22.4105C22.0986 20.2839 19.1101 19.8555 16.7958 19.7981V14.2176C19.1102 14.1624 22.0988 13.732 24.5943 11.6075ZM12.7684 14.231H15.5293V19.7872H12.7684C11.2276 19.7872 9.9831 18.5439 9.9831 17.0113C9.9831 15.4787 11.2276 14.231 12.7684 14.231ZM33.6378 16.3731H36.6485C37 16.3731 37.283 16.6558 37.283 17.0069C37.283 17.3581 37 17.6407 36.6485 17.6407L33.6378 17.6385C33.2864 17.6385 33.0034 17.3559 33.0034 17.0047C33.0034 16.6602 33.2864 16.3731 33.6378 16.3731ZM32.1833 13.7386C32.0087 13.4338 32.1104 13.0495 32.4154 12.8729L35.0238 11.369C35.3289 11.1946 35.7136 11.2961 35.8903 11.6009C36.065 11.9056 35.9633 12.2899 35.6582 12.4665L33.0498 13.9704C32.9481 14.0279 32.8398 14.0544 32.7337 14.0544C32.5105 14.0544 32.2961 13.9417 32.1833 13.7386ZM32.0816 20.2512C32.2563 19.9465 32.6475 19.8449 32.9481 20.0194L35.5565 21.5233C35.8616 21.6977 35.9633 22.0886 35.7887 22.3889C35.6693 22.5921 35.4615 22.7047 35.2404 22.7047C35.1321 22.7047 35.026 22.676 34.9243 22.6208L32.3159 21.1169C32.0087 20.9468 31.9048 20.556 32.0816 20.2512Z"/>
</mask>
<path d="M43.1203 7.2809H41.4005V3.38099C41.4005 1.51493 39.8841 0 38.0162 0H7.98438C6.11648 0 4.60007 1.51493 4.60007 3.38099V7.2809H2.88027C1.29091 7.2809 0 8.57501 0 10.1583V37.4692C0 39.057 1.29538 40.3466 2.88027 40.3466H17.5821L16.5852 46L15.5838 46.0022C13.3888 46.0022 11.6049 47.7821 11.6049 49.9772V50.4122C11.6049 51.2889 12.3189 52 13.1943 52H32.8013C33.6789 52 34.3906 51.2867 34.3906 50.4122V49.9772C34.3906 47.7843 32.609 46.0022 30.4117 46.0022H29.4104L28.4135 40.3488H43.1153C44.7047 40.3488 45.9956 39.0547 45.9956 37.4714L46 10.1651C46 8.57728 44.7119 7.2809 43.1203 7.2809ZM5.86885 6.58085H40.1273V26.0781C40.1273 27.2419 39.1768 28.1915 38.0118 28.1915L7.98455 28.1938C6.8196 28.1938 5.86908 27.2442 5.86908 26.0804L5.86885 6.58085ZM7.98432 1.26539H38.0161C39.1811 1.26539 40.1316 2.21499 40.1316 3.37879V5.31331H5.86862V3.38099C5.86862 2.21719 6.81276 1.26539 7.98432 1.26539ZM2.87586 8.54861H4.59565V26.0808C4.59565 27.9469 6.11207 29.4618 7.97996 29.4618H38.0118C39.8797 29.4618 41.3961 27.9469 41.3961 26.0808V8.54861H43.1159C44.0045 8.54861 44.7296 9.27292 44.7296 10.1607V34.2491L1.26239 34.2469V10.1647C1.26239 9.27037 1.98718 8.54861 2.87586 8.54861ZM33.1221 49.9883V50.4233C33.1221 50.5978 32.9807 50.7457 32.7994 50.7457H13.1924C13.0178 50.7457 12.8697 50.6044 12.8697 50.4233V49.9883C12.8697 48.4955 14.0855 47.2808 15.5798 47.2808H30.4078C31.9043 47.2786 33.1221 48.4954 33.1221 49.9883ZM28.1242 46.0133H17.872L18.8689 40.3599H27.1298L28.1242 46.0133ZM43.1203 39.0879H2.87586C1.98724 39.0879 1.26216 38.3636 1.26216 37.4758V35.5193H44.7339V37.4758C44.7339 38.3636 44.009 39.0879 43.1203 39.0879ZM7.87154 3.29088C7.87154 2.78738 8.27827 2.37441 8.7889 2.37441C9.2929 2.37441 9.70627 2.78075 9.70627 3.29088C9.70627 3.79438 9.29953 4.20734 8.7889 4.20734C8.28491 4.20734 7.87154 3.7988 7.87154 3.29088ZM11.5388 3.29088C11.5388 2.78738 11.9455 2.37441 12.4562 2.37441C12.9601 2.37441 13.3735 2.78075 13.3735 3.29088C13.3735 3.79438 12.9668 4.20734 12.4562 4.20734C11.9522 4.20734 11.5388 3.7988 11.5388 3.29088ZM15.206 3.29088C15.206 2.78738 15.6128 2.37441 16.1234 2.37441C16.6318 2.37441 17.0408 2.78075 17.0408 3.29088C17.0408 3.79438 16.634 4.20734 16.1234 4.20734C15.6128 4.20734 15.206 3.7988 15.206 3.29088ZM25.8499 3.29088C25.8499 2.93975 26.1328 2.65708 26.4843 2.65708H38.1247C38.4761 2.65708 38.7591 2.93975 38.7591 3.29088C38.7591 3.642 38.4761 3.92467 38.1247 3.92467H26.4843C26.1328 3.92467 25.8499 3.64201 25.8499 3.29088ZM11.7026 20.9113L12.8521 25.5863C13.0731 26.4851 13.8755 27.1123 14.7995 27.1123H15.75C16.2319 27.1123 16.6784 26.898 16.9725 26.5182C17.2665 26.1384 17.3682 25.6592 17.2554 25.1954L16.2364 21.0636C20.0672 21.0747 22.6536 22.0463 24.59 24.1951V24.4667C24.59 25.5068 25.4389 26.3548 26.48 26.3548C27.5211 26.3548 28.37 25.5068 28.37 24.4667V19.3897H29.4288C30.2268 19.3897 30.8723 18.7449 30.8723 17.9476V16.0816C30.8723 15.2843 30.2268 14.6395 29.4288 14.6395L28.3744 14.6417V9.55371C28.3744 8.5136 27.5255 7.6656 26.4844 7.6656C25.4433 7.6656 24.5944 8.5136 24.5944 9.55371V9.82534C22.647 11.9851 20.0386 12.9568 16.1638 12.9568H12.7685C10.5337 12.9568 8.71658 14.772 8.71658 17.0047C8.70995 18.8774 9.98287 20.4431 11.7026 20.9113ZM15.9689 25.7343C15.9402 25.774 15.8672 25.8425 15.7479 25.8425H14.7973C14.4525 25.8425 14.1629 25.6172 14.0834 25.2838L13.0422 21.0614H14.9212L16.0132 25.5002C16.0485 25.615 16.0043 25.6945 15.9689 25.7343ZM29.4332 15.9025C29.5304 15.9025 29.6078 15.982 29.6078 16.077V17.943C29.6078 18.0402 29.5282 18.1175 29.4332 18.1175L28.3743 18.1197V15.9091H29.4332V15.9025ZM25.861 9.55378C25.861 9.20927 26.1373 8.931 26.4844 8.931C26.8292 8.931 27.1077 9.20705 27.1077 9.55378V24.4622C27.1077 24.8068 26.8314 25.085 26.4844 25.085C26.1395 25.085 25.861 24.809 25.861 24.4622V9.55378ZM24.5943 11.6075V22.4105C22.0986 20.2839 19.1101 19.8555 16.7958 19.7981V14.2176C19.1102 14.1624 22.0988 13.732 24.5943 11.6075ZM12.7684 14.231H15.5293V19.7872H12.7684C11.2276 19.7872 9.9831 18.5439 9.9831 17.0113C9.9831 15.4787 11.2276 14.231 12.7684 14.231ZM33.6378 16.3731H36.6485C37 16.3731 37.283 16.6558 37.283 17.0069C37.283 17.3581 37 17.6407 36.6485 17.6407L33.6378 17.6385C33.2864 17.6385 33.0034 17.3559 33.0034 17.0047C33.0034 16.6602 33.2864 16.3731 33.6378 16.3731ZM32.1833 13.7386C32.0087 13.4338 32.1104 13.0495 32.4154 12.8729L35.0238 11.369C35.3289 11.1946 35.7136 11.2961 35.8903 11.6009C36.065 11.9056 35.9633 12.2899 35.6582 12.4665L33.0498 13.9704C32.9481 14.0279 32.8398 14.0544 32.7337 14.0544C32.5105 14.0544 32.2961 13.9417 32.1833 13.7386ZM32.0816 20.2512C32.2563 19.9465 32.6475 19.8449 32.9481 20.0194L35.5565 21.5233C35.8616 21.6977 35.9633 22.0886 35.7887 22.3889C35.6693 22.5921 35.4615 22.7047 35.2404 22.7047C35.1321 22.7047 35.026 22.676 34.9243 22.6208L32.3159 21.1169C32.0087 20.9468 31.9048 20.556 32.0816 20.2512Z" fill="white" stroke="white" stroke-width="2" mask="url(#path-1-inside-1_3119_115)"/>
</svg>
