<svg width="44" height="55" viewBox="0 0 44 55" fill="none" xmlns="http://www.w3.org/2000/svg">
<path d="M39.2857 12.8333H33.6735V3.66667C33.6725 2.6945 33.278 1.76244 32.5765 1.07501C31.8751 0.387591 30.924 0.000970707 29.932 0H3.7415C2.74949 0.000970707 1.79841 0.387591 1.09695 1.07501C0.395501 1.76244 0.000990518 2.6945 0 3.66667V51.3333C0.000990518 52.3055 0.395501 53.2376 1.09695 53.925C1.79841 54.6124 2.74949 54.999 3.7415 55H29.932C30.924 54.999 31.8751 54.6124 32.5765 53.925C33.278 53.2376 33.6725 52.3055 33.6735 51.3333V44H39.2857C40.2777 43.999 41.2288 43.6124 41.9303 42.925C42.6317 42.2376 43.0262 41.3055 43.0272 40.3333V16.5C43.0262 15.5278 42.6317 14.5958 41.9303 13.9083C41.2288 13.2209 40.2777 12.8343 39.2857 12.8333ZM21.5136 1.83333V2.75C21.5134 2.99307 21.4148 3.22613 21.2395 3.398C21.0641 3.56987 20.8263 3.6665 20.5782 3.66667H13.0952C12.8472 3.6665 12.6094 3.56987 12.434 3.398C12.2586 3.22613 12.16 2.99307 12.1599 2.75V1.83333H21.5136ZM31.8027 51.3333C31.8021 51.8194 31.6048 52.2853 31.2541 52.629C30.9034 52.9727 30.4279 53.166 29.932 53.1667H3.7415C3.24554 53.166 2.77008 52.9727 2.41939 52.629C2.06869 52.2853 1.87139 51.8194 1.87075 51.3333V3.66667C1.87139 3.18063 2.06869 2.71468 2.41939 2.371C2.77008 2.02732 3.24554 1.83396 3.7415 1.83333H10.2891V2.75C10.2899 3.4791 10.5858 4.17811 11.1119 4.69366C11.638 5.20922 12.3513 5.4992 13.0952 5.5H20.5782C21.3222 5.4992 22.0355 5.20922 22.5616 4.69366C23.0876 4.17811 23.3835 3.4791 23.3844 2.75V1.83333H29.932C30.4279 1.83396 30.9034 2.02732 31.2541 2.371C31.6048 2.71468 31.8021 3.18063 31.8027 3.66667V12.8333H7.48299C6.49099 12.8343 5.5399 13.2209 4.83845 13.9083C4.137 14.5958 3.74249 15.5278 3.7415 16.5V40.3333C3.74249 41.3055 4.137 42.2376 4.83845 42.925C5.5399 43.6124 6.49099 43.999 7.48299 44H31.8027V51.3333ZM41.1565 40.3333C41.1558 40.8194 40.9585 41.2853 40.6078 41.629C40.2571 41.9727 39.7817 42.166 39.2857 42.1667H7.48299C6.98704 42.166 6.51158 41.9727 6.16088 41.629C5.81019 41.2853 5.61289 40.8194 5.61224 40.3333V16.5C5.61289 16.014 5.81019 15.548 6.16088 15.2043C6.51158 14.8607 6.98704 14.6673 7.48299 14.6667H39.2857C39.7817 14.6673 40.2571 14.8607 40.6078 15.2043C40.9585 15.548 41.1558 16.014 41.1565 16.5V40.3333Z" fill="#3F3F3F"/>
<path d="M17.1111 29.0647C17.2877 29.231 17.5237 29.3229 17.7686 29.3205C18.0135 29.3181 18.2477 29.2217 18.4208 29.052C18.594 28.8823 18.6923 28.6528 18.6947 28.4128C18.6971 28.1728 18.6034 27.9415 18.4337 27.7685L14.4182 23.8333L18.4338 19.8981C18.6035 19.725 18.6972 19.4937 18.6947 19.2537C18.6923 19.0137 18.5939 18.7842 18.4208 18.6146C18.2476 18.4449 18.0134 18.3485 17.7686 18.3461C17.5237 18.3437 17.2876 18.4356 17.1111 18.6019L12.4342 23.1852C12.3473 23.2703 12.2784 23.3714 12.2314 23.4826C12.1844 23.5938 12.1602 23.713 12.1602 23.8333C12.1602 23.9537 12.1844 24.0729 12.2314 24.1841C12.2784 24.2953 12.3473 24.3964 12.4342 24.4815L17.1111 29.0647Z" fill="#3F3F3F"/>
<path d="M29.6584 18.6019C29.4818 18.4356 29.2458 18.3437 29.0009 18.3461C28.756 18.3485 28.5218 18.4449 28.3487 18.6146C28.1755 18.7843 28.0772 19.0138 28.0748 19.2538C28.0723 19.4938 28.1661 19.7251 28.3358 19.8981L32.3513 23.8333L28.3357 27.7685C28.248 27.8534 28.1782 27.9545 28.1305 28.066C28.0828 28.1774 28.058 28.297 28.0576 28.4178C28.0572 28.5387 28.0812 28.6584 28.1283 28.7701C28.1753 28.8819 28.2444 28.9834 28.3316 29.0688C28.4188 29.1543 28.5223 29.222 28.6364 29.268C28.7504 29.3141 28.8725 29.3376 28.9959 29.3372C29.1192 29.3369 29.2412 29.3126 29.3549 29.2658C29.4686 29.219 29.5717 29.1507 29.6584 29.0647L34.3353 24.4814C34.4221 24.3963 34.4911 24.2952 34.5381 24.184C34.5851 24.0728 34.6093 23.9536 34.6093 23.8332C34.6093 23.7129 34.5851 23.5937 34.5381 23.4825C34.4911 23.3713 34.4221 23.2702 34.3353 23.1851L29.6584 18.6019Z" fill="#3F3F3F"/>
<path d="M26.5575 16.5743C26.4447 16.5269 26.3233 16.5017 26.2005 16.5003C26.0777 16.4988 25.9558 16.521 25.8418 16.5658C25.7278 16.6105 25.6239 16.6768 25.536 16.7609C25.4482 16.845 25.3781 16.9453 25.3298 17.056L19.7176 29.8893C19.6693 29.9999 19.6436 30.1188 19.6422 30.2391C19.6407 30.3594 19.6634 30.4789 19.7091 30.5906C19.7547 30.7023 19.8223 30.8041 19.9081 30.8902C19.9939 30.9763 20.0962 31.045 20.209 31.0924C20.3219 31.1398 20.4432 31.1649 20.566 31.1663C20.6888 31.1678 20.8107 31.1455 20.9247 31.1008C21.0387 31.0561 21.1426 30.9898 21.2304 30.9057C21.3183 30.8216 21.3884 30.7214 21.4367 30.6108L27.049 17.7775C27.0973 17.6668 27.123 17.548 27.1245 17.4276C27.1259 17.3073 27.1032 17.1879 27.0576 17.0761C27.0119 16.9644 26.9443 16.8626 26.8585 16.7765C26.7727 16.6904 26.6704 16.6217 26.5575 16.5743Z" fill="#3F3F3F"/>
<path d="M20.5778 33.9167H9.35334C9.10527 33.9167 8.86735 34.0133 8.69193 34.1852C8.51652 34.3571 8.41797 34.5902 8.41797 34.8334C8.41797 35.0765 8.51652 35.3096 8.69193 35.4815C8.86735 35.6534 9.10527 35.75 9.35334 35.75H20.5778C20.8236 35.7466 21.0582 35.6485 21.2307 35.477C21.4033 35.3055 21.5001 35.0742 21.5001 34.8334C21.5001 34.5925 21.4033 34.3612 21.2307 34.1897C21.0582 34.0182 20.8236 33.9201 20.5778 33.9167Z" fill="#3F3F3F"/>
<path d="M16.8354 37.5833H9.35242C9.10663 37.5867 8.87209 37.6848 8.69951 37.8563C8.52693 38.0279 8.43018 38.2591 8.43018 38.5C8.43018 38.7409 8.52693 38.9721 8.69951 39.1436C8.87209 39.3152 9.10663 39.4132 9.35242 39.4166H16.8354C17.0812 39.4132 17.3157 39.3152 17.4883 39.1436C17.6609 38.9721 17.7576 38.7409 17.7576 38.5C17.7576 38.2591 17.6609 38.0279 17.4883 37.8563C17.3157 37.6848 17.0812 37.5867 16.8354 37.5833Z" fill="#3F3F3F"/>
<path d="M13.0951 51.3333H20.5781C20.8239 51.3299 21.0584 51.2318 21.231 51.0603C21.4036 50.8887 21.5003 50.6575 21.5003 50.4166C21.5003 50.1757 21.4036 49.9445 21.231 49.773C21.0584 49.6014 20.8239 49.5033 20.5781 49.4999H13.0951C12.8493 49.5033 12.6148 49.6014 12.4422 49.773C12.2696 49.9445 12.1729 50.1757 12.1729 50.4166C12.1729 50.6575 12.2696 50.8887 12.4422 51.0603C12.6148 51.2318 12.8493 51.3299 13.0951 51.3333Z" fill="#3F3F3F"/>
</svg>
