<svg width="49" height="49" viewBox="0 0 49 49" fill="none" xmlns="http://www.w3.org/2000/svg">
<path d="M11.4858 30.0128L11.8394 29.6593L18.78 22.7187C18.9673 22.5315 18.9673 22.2272 18.78 22.0399C18.5928 21.8526 18.2884 21.8526 18.1011 22.0399L10.4678 29.6731L11.4858 30.0128ZM11.4858 30.0128L11.8394 30.3664M11.4858 30.0128L11.8394 30.3664M11.8394 30.3664L18.78 37.3069M11.8394 30.3664L18.78 37.3069M18.78 37.3069C18.9673 37.4942 18.9673 37.7985 18.78 37.9858M18.78 37.3069V37.9858M18.78 37.9858C18.6863 38.0795 18.5647 38.1262 18.4406 38.1262M18.78 37.9858L18.4406 38.1262M18.4406 38.1262C18.3165 38.1262 18.1948 38.0795 18.1011 37.9858M18.4406 38.1262L18.1011 37.9858M18.1011 37.9858L10.4675 30.3523M18.1011 37.9858L10.4675 30.3523M10.4675 30.3523C10.2805 30.1653 10.28 29.8616 10.4675 29.6734V30.3523ZM48.5 0.979243V0.979865V48.0201C48.5 48.2854 48.2854 48.5 48.0201 48.5H0.979879C0.714553 48.5 0.5 48.2854 0.5 48.0201V0.979865C0.5 0.714563 0.714556 0.5 0.979879 0.5H48.0208C48.2862 0.5 48.5003 0.714544 48.5 0.979243ZM47.5409 1.95973V1.45973H47.0409H1.95976H1.45976V1.95973V10.0458V10.5458H1.95976H47.0409H47.5409V10.0458V1.95973ZM1.45976 47.0403V47.5403H1.95976H47.0409H47.5409V47.0403V12.0055V11.5055H47.0409H1.95976H1.45976V12.0055V47.0403ZM37.1613 30.3664L37.5149 30.0128L37.1613 29.6593L30.4638 22.9619C30.2767 22.7748 30.2762 22.471 30.464 22.2828C30.6513 22.0957 30.9555 22.0958 31.1426 22.283L38.5332 29.6734C38.6231 29.7634 38.6736 29.8853 38.6736 30.0128C38.6736 30.1404 38.6231 30.2623 38.5332 30.3523L31.1426 37.7427C31.049 37.8364 30.9273 37.8831 30.8032 37.8831C30.6796 37.8831 30.5573 37.8362 30.4638 37.7427C30.2767 37.5556 30.2762 37.2517 30.4641 37.0635L37.1613 30.3664ZM22.7924 38.2544L22.7923 38.2545C22.7352 38.468 22.5416 38.6104 22.3291 38.6104C22.288 38.6104 22.247 38.6052 22.2055 38.594L22.2047 38.5938C21.9486 38.5252 21.7967 38.2618 21.8652 38.0061L21.8652 38.0061L26.209 21.7956C26.2772 21.5409 26.5405 21.3883 26.7972 21.4563C27.0524 21.525 27.2044 21.7879 27.136 22.0444L22.7924 38.2544ZM43.9865 6.7308H23.3928V5.77107H43.9865V6.7308ZM18.0753 6.7308H17.2845V5.77107H18.0753V6.7308ZM14.0433 6.7308H13.2526V5.77107H14.0433V6.7308ZM10.0113 6.7308H9.22058V5.77107H10.0113V6.7308ZM5.98 6.7308H5.18928V5.77107H5.98V6.7308Z" fill="white" stroke="white"/>
</svg>
