<svg width="41" height="51" viewBox="0 0 41 51" fill="none" xmlns="http://www.w3.org/2000/svg">
<path d="M28.3106 34.4483C28.0432 34.4046 27.7697 34.4914 27.5774 34.685L24.4994 37.7828C23.431 38.8581 22.0112 39.4506 20.5003 39.4506C18.9894 39.4506 17.569 38.8581 16.5006 37.7828L13.4226 34.685C13.2303 34.4908 12.9551 34.403 12.6894 34.4483C5.45555 35.6584 0 42.1316 0 49.5062C0 49.9739 0.376896 50.3532 0.841624 50.3532H40.1584C40.6231 50.3532 41 49.9739 41 49.5062C41 42.1316 35.5445 35.6584 28.3106 34.4483ZM1.70993 48.6585C2.09739 42.6033 6.59847 37.3934 12.5438 36.1972L15.3093 38.9806C16.6957 40.3765 18.5391 41.1447 20.4992 41.1447C22.4598 41.1447 24.3026 40.376 25.6884 38.9806L28.454 36.1972C34.3993 37.3934 38.9004 42.6027 39.2878 48.6585H1.70993Z" fill="#3F3F3F"/>
<path d="M17.6502 23.657C18.5808 24.0336 19.5425 24.212 20.4892 24.2115C23.5204 24.2115 26.395 22.3848 27.5924 19.3848C29.1633 15.4483 27.2594 10.9596 23.3476 9.37907C19.4363 7.79742 14.9763 9.7142 13.4054 13.6513C12.6444 15.558 12.6672 17.6493 13.4682 19.5392C14.2709 21.4292 15.7557 22.8917 17.6502 23.657ZM14.968 14.2829C15.9019 11.9437 18.1433 10.5193 20.5075 10.5193C21.2452 10.5193 21.9956 10.658 22.7211 10.9512C24.1981 11.5487 25.356 12.689 25.9814 14.1626C26.6062 15.6369 26.624 17.2666 26.0309 18.7537C24.8051 21.8242 21.3297 23.3185 18.2778 22.0849C16.8008 21.4874 15.6429 20.3471 15.0175 18.8735C14.3921 17.3998 14.3749 15.77 14.968 14.2829Z" fill="#3F3F3F"/>
<path d="M5.06147 13.9052C4.59841 13.8834 4.24153 14.2157 4.19205 14.6566C4.03918 16.0111 4.05475 17.3835 4.23764 18.7352C4.29712 19.1744 4.69125 19.4939 5.12206 19.4659C6.61853 19.3719 8.01883 20.2442 8.60586 21.6283C9.19344 23.0125 8.84878 24.6316 7.74811 25.6571C7.42458 25.9581 7.38678 26.4594 7.66083 26.8063C8.50468 27.8755 9.47972 28.8361 10.557 29.6608C10.9078 29.9288 11.4053 29.8801 11.6972 29.5478C12.6917 28.4182 14.291 28.036 15.6807 28.5966C17.0694 29.1578 17.9621 30.5481 17.9032 32.0565C17.886 32.4996 18.2112 32.8811 18.6492 32.9315C19.2618 33.002 19.8783 33.0367 20.4953 33.0367C21.2324 33.0367 21.9707 32.9863 22.7033 32.8862C23.1397 32.8263 23.4566 32.4375 23.4293 31.9955C23.3387 30.4894 24.202 29.08 25.5779 28.4892C26.9548 27.8984 28.5625 28.2453 29.5803 29.3525C29.8788 29.6781 30.3769 29.7167 30.7221 29.4403C31.7833 28.5916 32.7378 27.6108 33.5583 26.526C33.8251 26.173 33.7762 25.6728 33.4466 25.3785C32.3237 24.3776 31.9434 22.7668 32.501 21.3693C33.0585 19.9717 34.4355 19.0743 35.9392 19.1319C36.4006 19.1487 36.7586 18.8214 36.8086 18.3805C36.9615 17.026 36.9459 15.6536 36.763 14.3013C36.7041 13.8622 36.3278 13.5455 35.878 13.5707C34.3927 13.6619 32.9818 12.7935 32.3948 11.4083C31.8072 10.0236 32.1519 8.40498 33.2526 7.38001C33.5761 7.07957 33.6144 6.57827 33.3404 6.23139C32.4965 5.16222 31.522 4.2016 30.4442 3.37636C30.0934 3.10781 29.5959 3.15649 29.304 3.48882C28.3095 4.61897 26.7063 5.00053 25.3205 4.44049C23.9319 3.87878 23.0385 2.48846 23.0975 0.980104C23.1147 0.536995 22.7895 0.15543 22.3515 0.105076C21.0073 -0.0487809 19.6443 -0.033675 18.2984 0.150394C17.8621 0.209699 17.5446 0.598538 17.5719 1.04109C17.6625 2.54721 16.7992 3.95654 15.4239 4.54735C14.0481 5.13929 12.4393 4.79185 11.4209 3.68408C11.1229 3.35902 10.6249 3.32041 10.2791 3.59624C9.21734 4.44553 8.26287 5.4263 7.44348 6.51057C7.17665 6.86361 7.22557 7.36378 7.55521 7.65807C8.67757 8.65898 9.0578 10.2703 8.50024 11.6673C7.94212 13.0643 6.54237 13.9545 5.06147 13.9052ZM10.0617 12.2995C10.7833 10.493 10.442 8.4447 9.23124 6.9727C9.70486 6.40595 10.2218 5.87556 10.7755 5.38602C12.2625 6.57212 14.306 6.86976 16.0837 6.10663C17.8626 5.34182 19.06 3.65051 19.2379 1.74995C19.9722 1.68561 20.711 1.67778 21.4448 1.72533C21.6627 3.62253 22.8968 5.28755 24.6923 6.01319C26.4868 6.73828 28.5219 6.39476 29.985 5.17677C30.5481 5.65401 31.0751 6.17377 31.5615 6.73157C30.383 8.22818 30.0862 10.2837 30.8455 12.0735C31.6049 13.8644 33.2848 15.0695 35.1737 15.2485C35.2371 15.9865 35.246 16.7295 35.1987 17.4691C33.3131 17.6896 31.6582 18.9316 30.9384 20.7382C30.2174 22.5447 30.5587 24.593 31.7694 26.0644C31.2952 26.6312 30.7783 27.1616 30.2246 27.6511C28.7381 26.4656 26.6952 26.1679 24.9169 26.9305C23.138 27.6953 21.9401 29.3866 21.7622 31.2872C21.0284 31.351 20.2908 31.3599 19.5553 31.3118C19.3374 29.4146 18.1033 27.7496 16.3083 27.0245C14.5111 26.2966 12.4771 26.6418 11.0157 27.8604C10.4525 27.3837 9.92499 26.8634 9.43859 26.3061C10.6171 24.8084 10.9134 22.7534 10.1546 20.9636C9.39578 19.1739 7.71531 17.9682 5.82638 17.7892C5.76301 17.0506 5.75412 16.3076 5.80137 15.568C7.68696 15.347 9.3413 14.1055 10.0617 12.2995Z" fill="#3F3F3F"/>
</svg>
