<svg width="44" height="55" viewBox="0 0 44 55" fill="none" xmlns="http://www.w3.org/2000/svg">
<path d="M33.1735 13.3333V12.8333V3.66718C33.1726 2.83074 32.8333 2.02671 32.2266 1.43212C31.6195 0.83725 30.7944 0.500905 29.9317 0.5H3.74175C2.87905 0.500905 2.05393 0.837249 1.44692 1.43212C0.840254 2.02665 0.50092 2.83058 0.5 3.66692V51.3331C0.50092 52.1694 0.840254 52.9734 1.44692 53.5679C2.05398 54.1628 2.8792 54.4992 3.74199 54.5H29.9315C30.7943 54.4992 31.6195 54.1628 32.2266 53.5679C32.8333 52.9733 33.1726 52.1693 33.1735 51.3328V44V43.5H33.6735H39.2852C40.148 43.4992 40.9732 43.1628 41.5803 42.5679C42.187 41.9733 42.5264 41.1693 42.5272 40.3328V16.5005C42.5264 15.6641 42.187 14.86 41.5803 14.2655C40.9733 13.6706 40.1483 13.3343 39.2857 13.3333C39.2855 13.3333 39.2854 13.3333 39.2852 13.3333M33.1735 13.3333L39.2857 12.8333L39.2852 13.3333M33.1735 13.3333H33.6735L39.2852 13.3333M33.1735 13.3333L39.2852 13.3333M32.3027 51.3333V51.334C32.3019 51.9557 32.0494 52.5496 31.604 52.9861C31.159 53.4222 30.5577 53.6659 29.9326 53.6667H29.932H3.7415H3.74086C3.11574 53.6659 2.51447 53.4222 2.06942 52.9861C1.62404 52.5496 1.37157 51.9557 1.37075 51.334L1.37075 51.3333L1.37075 3.66667V3.666C1.37157 3.0443 1.62404 2.45037 2.06942 2.01389C2.51447 1.57775 3.11574 1.33413 3.74086 1.33333L3.7415 1.33333L10.2891 1.33333H10.7891V1.83333L10.7891 2.74944L10.7891 2.75M32.3027 51.3333L13.0952 5.5C12.3513 5.4992 11.638 5.20922 11.1119 4.69366C10.5858 4.17811 10.2899 3.4791 10.2891 2.75H10.7891M32.3027 51.3333V44V43.5M32.3027 51.3333V43.5M10.7891 2.75C10.7899 3.34319 11.0306 3.91396 11.4619 4.33656C11.8935 4.75953 12.4807 4.99924 13.0954 5M10.7891 2.75L13.0954 5M13.0954 5C13.0955 5 13.0956 5 13.0958 5H20.5777C20.5778 5 20.578 5 20.5781 5C21.1927 4.99924 21.78 4.75953 22.2116 4.33656C22.643 3.91383 22.8837 3.34283 22.8844 2.74944V1.83333V1.33333H23.3844H29.932H29.9326C30.5577 1.33413 31.159 1.57775 31.604 2.01389C32.0494 2.45037 32.3019 3.04429 32.3027 3.666L32.3027 3.66667L32.3027 12.8333V13.3333H31.8027L7.48348 13.3333L7.48299 13.3333M13.0954 5L7.48299 13.3333M7.48299 13.3333C6.62039 13.3343 5.79537 13.6706 5.18841 14.2655C4.58179 14.8599 4.24247 15.6638 4.2415 16.5001M7.48299 13.3333L4.2415 16.5001M4.2415 16.5001C4.2415 16.5002 4.2415 16.5004 4.2415 16.5005V40.3328C4.2415 40.333 4.2415 40.3332 4.2415 40.3333C4.24249 41.1696 4.58181 41.9734 5.18841 42.5679C5.79548 43.1628 6.6207 43.4992 7.48348 43.5H31.8027M4.2415 16.5001L31.8027 43.5M32.3027 43.5H31.8027M32.3027 43.5H31.8027M22.0136 1.83333V1.33333H21.5136H12.1599H11.6599V1.83333V2.75V2.75034C11.6601 3.12919 11.8139 3.49036 12.084 3.75511C12.3539 4.01952 12.7176 4.16642 13.0949 4.16667H13.0952H20.5782L20.5786 4.16667C20.9559 4.16642 21.3196 4.01952 21.5894 3.75511C21.8596 3.49036 22.0133 3.12919 22.0136 2.75034V2.75V1.83333ZM41.6565 40.334V40.3333V16.5V16.4993C41.6556 15.8776 41.4032 15.2837 40.9578 14.8472C40.5127 14.4111 39.9115 14.1675 39.2864 14.1667H39.2857H7.48299H7.48236C6.85723 14.1675 6.25596 14.4111 5.81092 14.8472C5.36554 15.2837 5.11307 15.8776 5.11224 16.4993V16.5V40.3333L5.11225 40.334C5.11307 40.9557 5.36554 41.5496 5.81092 41.9861C6.25596 42.4222 6.85723 42.6659 7.48236 42.6667H7.48299H39.2857H39.2864C39.9115 42.6659 40.5127 42.4222 40.9578 41.9861C41.4032 41.5496 41.6556 40.9557 41.6565 40.334Z" fill="white" stroke="white"/>
<path d="M17.7638 28.8205C17.648 28.8216 17.5381 28.7787 17.4569 28.7035L12.7842 24.1244L12.7841 24.1243C12.7441 24.0851 12.713 24.0392 12.6919 23.9894C12.6709 23.9396 12.6602 23.8866 12.6602 23.8334C12.6602 23.7801 12.6709 23.7271 12.6919 23.6773C12.713 23.6275 12.7441 23.5816 12.7841 23.5425L12.7842 23.5424L17.4568 18.9631C17.5381 18.888 17.648 18.845 17.7637 18.8461C17.8809 18.8472 17.991 18.8934 18.0708 18.9717C18.1504 19.0496 18.1937 19.1529 18.1948 19.2588C18.1958 19.3634 18.1556 19.4661 18.0796 19.5451L14.0683 23.4762L13.7039 23.8333L14.0683 24.1904L18.0796 28.1215C18.1556 28.2005 18.1958 28.3032 18.1948 28.4078C18.1937 28.5137 18.1504 28.617 18.0708 28.6949C17.991 28.7732 17.8809 28.8194 17.7638 28.8205Z" fill="white" stroke="white"/>
<path d="M32.7011 24.1904L33.0655 23.8333L32.7011 23.4762L28.6898 19.5451C28.6138 19.4662 28.5736 19.3634 28.5746 19.2588C28.5757 19.153 28.619 19.0497 28.6985 18.9717C28.7784 18.8934 28.8885 18.8472 29.0056 18.8461C29.1214 18.845 29.2312 18.888 29.3125 18.9631L33.9852 23.5423L33.9853 23.5424C34.0252 23.5815 34.0564 23.6274 34.0774 23.6772C34.0985 23.727 34.1092 23.78 34.1092 23.8333C34.1092 23.8865 34.0985 23.9395 34.0774 23.9893C34.0564 24.0391 34.0252 24.085 33.9853 24.1242L33.9852 24.1243L29.3083 28.7076L29.3083 28.7076L29.3061 28.7098C29.2662 28.7494 29.2182 28.7814 29.1645 28.8034C29.1109 28.8255 29.053 28.8371 28.9942 28.8373C28.9354 28.8374 28.8774 28.8262 28.8236 28.8045C28.7698 28.7827 28.7215 28.751 28.6814 28.7117C28.6413 28.6724 28.6101 28.6263 28.589 28.5762C28.5679 28.5262 28.5573 28.4729 28.5575 28.4194C28.5577 28.3659 28.5686 28.3127 28.59 28.2628C28.6114 28.2129 28.6429 28.1669 28.6833 28.1278L28.6833 28.1278L28.6856 28.1256L32.7011 24.1904Z" fill="white" stroke="white"/>
<path d="M26.364 17.0353L26.3643 17.0354C26.4175 17.0577 26.4651 17.0898 26.5045 17.1294C26.5439 17.169 26.5745 17.2152 26.5949 17.2652C26.6153 17.3152 26.6253 17.3682 26.6247 17.4215C26.624 17.4747 26.6127 17.5276 26.591 17.5771C26.591 17.5771 26.591 17.5771 26.591 17.5771L20.9788 30.4105L20.9787 30.4106C20.9571 30.4602 20.9254 30.5057 20.8849 30.5444C20.8445 30.5832 20.7961 30.6142 20.7422 30.6353C20.6884 30.6564 20.6305 30.6671 20.572 30.6664C20.5135 30.6657 20.456 30.6537 20.4027 30.6314C20.3495 30.609 20.3019 30.5769 20.2625 30.5373C20.2231 30.4978 20.1925 30.4515 20.1721 30.4015C20.1517 30.3515 20.1417 30.2985 20.1423 30.2452C20.143 30.192 20.1543 30.1392 20.1759 30.0896C20.1759 30.0896 20.1759 30.0895 20.1759 30.0895L25.7881 17.2563L25.7883 17.2559C25.8099 17.2063 25.8416 17.1608 25.882 17.1221C25.9224 17.0834 25.9708 17.0523 26.0246 17.0312C26.0784 17.0101 26.1363 16.9995 26.1947 17.0002C26.2532 17.0009 26.3108 17.0129 26.364 17.0353ZM26.8587 16.7765C26.7729 16.6904 26.6706 16.6217 26.5577 16.5743L26.2007 16.5003C26.0779 16.4988 25.956 16.521 25.842 16.5658C25.728 16.6105 25.6241 16.6768 25.5362 16.7609C25.4484 16.845 25.3783 16.9453 25.33 17.056L19.7178 29.8893C19.6694 29.9999 19.6438 30.1188 19.6423 30.2391C19.6409 30.3594 19.6636 30.4789 19.7092 30.5906C19.7549 30.7023 19.8225 30.8041 19.9083 30.8902C19.9941 30.9763 20.0963 31.045 20.2092 31.0924C20.3221 31.1398 20.4434 31.1649 20.5662 31.1663C20.689 31.1678 20.8108 31.1455 20.9248 31.1008C21.0388 31.0561 21.1427 30.9898 21.2306 30.9057C21.3185 30.8216 21.3886 30.7214 21.4369 30.6108L27.0491 17.7775C27.0975 17.6668 27.1232 17.548 27.1246 17.4276C27.1261 17.3073 27.1034 17.1879 27.0578 17.0761C27.0121 16.9644 26.9445 16.8626 26.8587 16.7765Z" fill="white" stroke="white"/>
<path d="M9.35318 34.4167H20.5736C20.6901 34.419 20.7992 34.4659 20.8781 34.5443C20.9573 34.6231 20.9999 34.7271 20.9999 34.8334C20.9999 34.9396 20.9573 35.0436 20.8781 35.1224C20.7992 35.2008 20.6901 35.2477 20.5736 35.25H9.35318C9.23449 35.25 9.12264 35.2037 9.04174 35.1244C8.96117 35.0455 8.91781 34.9406 8.91781 34.8334C8.91781 34.7261 8.96117 34.6212 9.04174 34.5423C9.12264 34.463 9.23449 34.4167 9.35318 34.4167Z" fill="white" stroke="white"/>
<path d="M9.05207 38.211C9.13099 38.1325 9.24006 38.0857 9.35659 38.0833H16.8314C16.9479 38.0857 17.057 38.1325 17.1359 38.211C17.2151 38.2897 17.2577 38.3937 17.2577 38.5C17.2577 38.6062 17.2151 38.7103 17.1359 38.789C17.057 38.8674 16.9479 38.9143 16.8314 38.9166H9.35659C9.24006 38.9143 9.13099 38.8674 9.05207 38.789C8.97283 38.7103 8.93025 38.6062 8.93025 38.5C8.93025 38.3937 8.97283 38.2897 9.05207 38.211Z" fill="white" stroke="white"/>
<path d="M20.8787 50.7056C20.7998 50.7841 20.6907 50.8309 20.5742 50.8333H13.0994C12.9828 50.8309 12.8738 50.7841 12.7948 50.7056C12.7156 50.6269 12.673 50.5229 12.673 50.4166C12.673 50.3104 12.7156 50.2063 12.7948 50.1276C12.8738 50.0491 12.9828 50.0023 13.0994 49.9999H20.5742C20.6907 50.0023 20.7998 50.0491 20.8787 50.1276C20.9579 50.2063 21.0005 50.3104 21.0005 50.4166C21.0005 50.5229 20.9579 50.6269 20.8787 50.7056Z" fill="white" stroke="white"/>
</svg>
