<svg width="52" height="51" viewBox="0 0 52 51" fill="none" xmlns="http://www.w3.org/2000/svg">
<path fill-rule="evenodd" clip-rule="evenodd" d="M38.266 46.6872H1.57576C1.25831 46.6872 1 46.4309 1 46.1161V1.57112C1 1.25623 1.25834 1 1.57576 1H38.266C38.5834 1 38.8417 1.25626 38.8417 1.57112V18.8876C38.8417 19.2025 38.5834 19.4588 38.266 19.4588C37.9485 19.4588 37.6902 19.2025 37.6902 18.8876V2.14207H2.15174V45.5423H37.6902V38.9555C37.6902 38.6406 37.9486 38.3844 38.266 38.3844C38.5834 38.3844 38.8417 38.6407 38.8417 38.9555V46.1133C38.8417 46.4282 38.5834 46.6844 38.266 46.6844V46.6872Z" fill="white" stroke="white" stroke-width="0.2"/>
<path fill-rule="evenodd" clip-rule="evenodd" d="M30.0887 19.8541C27.6477 19.8541 25.349 20.7966 23.6239 22.51C21.8966 24.2234 20.9464 26.5015 20.9464 28.9228C20.9464 31.3464 21.8966 33.6244 23.6239 35.3379C25.3512 37.0513 27.6478 37.9938 30.0887 37.9938C32.532 37.9938 34.8285 37.0513 36.5558 35.3379C38.2832 33.6244 39.2333 31.3463 39.2333 28.9228C39.2333 26.5014 38.2832 24.2212 36.5558 22.51C34.8285 20.7966 32.5319 19.8541 30.0887 19.8541ZM30.0887 39.1387C27.339 39.1387 24.7535 38.0767 22.8095 36.1461C20.8654 34.2177 19.7927 31.653 19.7927 28.9233C19.7927 26.1958 20.8633 23.631 22.8095 21.7027C24.7537 19.7743 27.3391 18.7102 30.0887 18.7102C32.8407 18.7102 35.424 19.7722 37.3702 21.7027C39.3143 23.6312 40.387 26.1959 40.387 28.9233C40.387 31.6531 39.3164 34.2156 37.3702 36.1461C35.4261 38.0746 32.8406 39.1387 30.0887 39.1387Z" fill="white" stroke="white" stroke-width="0.2"/>
<path fill-rule="evenodd" clip-rule="evenodd" d="M21.3007 20.206C16.4536 25.0118 16.4536 32.8342 21.3007 37.642C23.7242 40.046 26.9075 41.247 30.0886 41.247C33.2718 41.247 36.4548 40.046 38.8788 37.642C43.7259 32.834 43.7259 25.0115 38.8788 20.206C34.034 15.398 26.1453 15.398 21.3007 20.206ZM30.0886 42.3914C26.6099 42.3914 23.1334 41.0776 20.4841 38.4521C15.1882 33.1989 15.1882 24.6514 20.4841 19.3982C25.78 14.1451 34.3969 14.145 39.6926 19.3982C44.9885 24.6515 44.9885 33.199 39.6926 38.4521C37.0457 41.0776 33.5674 42.3914 30.0886 42.3914Z" fill="white" stroke="white" stroke-width="0.2"/>
<path fill-rule="evenodd" clip-rule="evenodd" d="M41.804 41.1143C41.6551 41.1143 41.5084 41.0579 41.3968 40.9471L38.8791 38.4497C38.6536 38.226 38.6536 37.8655 38.8791 37.6419C39.1046 37.4182 39.468 37.4182 39.6935 37.6419L42.2112 40.1393C42.4367 40.363 42.4367 40.7235 42.2112 40.9471C42.0973 41.0579 41.9507 41.1143 41.804 41.1143Z" fill="white" stroke="white" stroke-width="0.2"/>
<path fill-rule="evenodd" clip-rule="evenodd" d="M43.2563 40.5217C42.86 40.5217 42.4878 40.6715 42.212 40.9473C41.6362 41.5185 41.6362 42.4479 42.212 43.0191L47.6348 48.3983C47.9129 48.6741 48.2828 48.824 48.6791 48.824C49.0754 48.824 49.4476 48.6719 49.7234 48.3983C50.2992 47.8272 50.2992 46.8977 49.7234 46.3244L44.3028 40.9473C44.0247 40.6715 43.6548 40.5217 43.2585 40.5217H43.2563ZM48.6769 49.9705C48.0048 49.9705 47.3306 49.7164 46.8182 49.2083L41.3976 43.8291C40.373 42.8127 40.373 41.1579 41.3976 40.1394C42.4221 39.1231 44.0926 39.1231 45.1172 40.1394L50.54 45.5186C51.5646 46.535 51.5646 48.1898 50.54 49.2083C50.0277 49.7164 49.3534 49.9705 48.6791 49.9705H48.6769Z" fill="white" stroke="white" stroke-width="0.2"/>
<path fill-rule="evenodd" clip-rule="evenodd" d="M29.1286 32.1694C28.9798 32.1694 28.8331 32.1129 28.7214 32.0021L25.2558 28.5644C25.0303 28.3407 25.0303 27.9802 25.2558 27.7566C25.4813 27.5329 25.8447 27.5329 26.0702 27.7566L29.1286 30.7904L34.1114 25.8477C34.3369 25.624 34.7003 25.624 34.9258 25.8477C35.1513 26.0714 35.1513 26.4319 34.9258 26.6555L29.5358 32.0021C29.4241 32.1151 29.2753 32.1694 29.1286 32.1694Z" fill="white" stroke="white" stroke-width="0.2"/>
<path fill-rule="evenodd" clip-rule="evenodd" d="M7.90151 11.3909H10.7213V7.10193H7.90151V11.3909ZM11.2971 12.5332H7.32576C7.00831 12.5332 6.75 12.277 6.75 11.9621V6.52864C6.75 6.21375 7.00834 5.95752 7.32576 5.95752H11.2971C11.6145 5.95752 11.8728 6.21378 11.8728 6.52864V11.9621C11.8728 12.277 11.6145 12.5332 11.2971 12.5332Z" fill="white" stroke="white" stroke-width="0.2"/>
<path fill-rule="evenodd" clip-rule="evenodd" d="M32.5163 9.81656H14.7174C14.3999 9.81656 14.1416 9.5603 14.1416 9.24544C14.1416 8.92838 14.3999 8.67432 14.7174 8.67432H32.5163C32.8338 8.67432 33.0921 8.9284 33.0921 9.24544C33.0921 9.56033 32.8337 9.81656 32.5163 9.81656Z" fill="white" stroke="white" stroke-width="0.2"/>
<path fill-rule="evenodd" clip-rule="evenodd" d="M7.90151 21.1221H10.7213V16.8331H7.90151V21.1221ZM11.2971 22.2644H7.32576C7.00831 22.2644 6.75 22.0082 6.75 21.6933V16.2598C6.75 15.9449 7.00834 15.6887 7.32576 15.6887H11.2971C11.6145 15.6887 11.8728 15.945 11.8728 16.2598V21.6933C11.8728 22.0082 11.6145 22.2644 11.2971 22.2644Z" fill="white" stroke="white" stroke-width="0.2"/>
<path fill-rule="evenodd" clip-rule="evenodd" d="M21.8077 19.55H14.7208C14.4033 19.55 14.145 19.2937 14.145 18.9788C14.145 18.664 14.4034 18.4077 14.7208 18.4077H21.8094C22.1269 18.4077 22.3852 18.664 22.3852 18.9788C22.3852 19.2937 22.1268 19.55 21.8094 19.55H21.8077Z" fill="white" stroke="white" stroke-width="0.2"/>
<path fill-rule="evenodd" clip-rule="evenodd" d="M7.90151 30.8556H10.7213V26.5667H7.90151V30.8556ZM11.2971 31.9979H7.32576C7.00831 31.9979 6.75 31.7417 6.75 31.4268V25.9934C6.75 25.6785 7.00834 25.4222 7.32576 25.4222H11.2971C11.6145 25.4222 11.8728 25.6785 11.8728 25.9934V31.4268C11.8728 31.7417 11.6145 31.9979 11.2971 31.9979Z" fill="white" stroke="white" stroke-width="0.2"/>
<path fill-rule="evenodd" clip-rule="evenodd" d="M17.0862 29.2834H14.7174C14.3999 29.2834 14.1416 29.0271 14.1416 28.7122C14.1416 28.3952 14.3999 28.1411 14.7174 28.1411H17.0862C17.4058 28.1411 17.6619 28.3952 17.6619 28.7122C17.6619 29.0271 17.4058 29.2834 17.0862 29.2834Z" fill="white" stroke="white" stroke-width="0.2"/>
<path fill-rule="evenodd" clip-rule="evenodd" d="M7.90151 40.589H10.7213V36.3H7.90151V40.589ZM11.2971 41.7313H7.32576C7.00831 41.7313 6.75 41.4751 6.75 41.1602V35.7268C6.75 35.4119 7.00834 35.1556 7.32576 35.1556H11.2971C11.6145 35.1556 11.8728 35.4119 11.8728 35.7268V41.1602C11.8728 41.4751 11.6145 41.7313 11.2971 41.7313Z" fill="white" stroke="white" stroke-width="0.2"/>
<path fill-rule="evenodd" clip-rule="evenodd" d="M21.3117 39.0147H14.7174C14.3999 39.0147 14.1416 38.7606 14.1416 38.4436C14.1416 38.1287 14.3999 37.8724 14.7174 37.8724H21.3117C21.6291 37.8724 21.8874 38.1265 21.8874 38.4436C21.8874 38.7606 21.6291 39.0147 21.3117 39.0147Z" fill="white" stroke="white" stroke-width="0.2"/>
</svg>
