<svg width="43" height="52" viewBox="0 0 43 52" fill="none" xmlns="http://www.w3.org/2000/svg">
<path d="M21.0424 11.8937C19.0326 11.8937 17.3828 13.3372 17.3828 15.0958C17.3828 16.8544 19.0326 18.2979 21.0424 18.2979C23.0522 18.2979 24.702 16.8544 24.702 15.0958C24.702 13.3372 23.0522 11.8937 21.0424 11.8937ZM21.0424 13.4947C22.0635 13.4947 22.8722 14.2023 22.8722 15.0958C22.8722 15.9893 22.0635 16.6969 21.0424 16.6969C20.0212 16.6969 19.2126 15.9893 19.2126 15.0958C19.2126 14.2023 20.0212 13.4947 21.0424 13.4947Z" fill="#3F3F3F"/>
<path d="M20.1274 21.9574V28.3617H21.9572V21.9574H20.1274Z" fill="#3F3F3F"/>
<path d="M21.0452 20.1277C20.916 20.1283 20.7884 20.1551 20.6708 20.206C20.5533 20.257 20.4484 20.3312 20.3631 20.4235L13.0423 28.2636C12.9379 28.3745 12.8652 28.5089 12.8309 28.6542C12.7966 28.7994 12.8019 28.9506 12.8464 29.0933L15.5951 37.8017C15.6512 37.982 15.767 38.1401 15.9252 38.2526C16.0834 38.365 16.2756 38.4257 16.4731 38.4256H25.6173C25.8147 38.4257 26.0069 38.365 26.1651 38.2526C26.3233 38.1401 26.4391 37.982 26.4952 37.8017L29.2371 29.0933C29.2825 28.9511 29.289 28.8003 29.2559 28.6551C29.2228 28.5099 29.1512 28.3751 29.048 28.2636L21.7273 20.4235C21.6419 20.3312 21.537 20.257 21.4195 20.206C21.3019 20.1551 21.1743 20.1283 21.0452 20.1277ZM21.0452 22.3144L27.3394 29.0547L24.9352 36.6826H17.1484L14.7509 29.0547L21.0452 22.3144Z" fill="#3F3F3F"/>
<path d="M35.2235 11.8937C32.9624 11.8937 31.1064 13.3372 31.1064 15.0958C31.1064 16.8544 32.9624 18.2979 35.2235 18.2979C37.4845 18.2979 39.3405 16.8544 39.3405 15.0958C39.3405 13.3372 37.4845 11.8937 35.2235 11.8937ZM35.2235 13.4947C36.3723 13.4947 37.282 14.2023 37.282 15.0958C37.282 15.9893 36.3723 16.6969 35.2235 16.6969C34.0747 16.6969 33.165 15.9893 33.165 15.0958C33.165 14.2023 34.0747 13.4947 35.2235 13.4947Z" fill="#3F3F3F"/>
<path d="M7.31924 11.8937C5.30945 11.8937 3.65967 13.3372 3.65967 15.0958C3.65967 16.8544 5.30945 18.2979 7.31924 18.2979C9.32904 18.2979 10.9788 16.8544 10.9788 15.0958C10.9788 13.3372 9.32904 11.8937 7.31924 11.8937ZM7.31924 13.4947C8.34039 13.4947 9.14903 14.2023 9.14903 15.0958C9.14903 15.9893 8.34039 16.6969 7.31924 16.6969C6.29809 16.6969 5.48946 15.9893 5.48946 15.0958C5.48946 14.2023 6.29809 13.4947 7.31924 13.4947Z" fill="#3F3F3F"/>
<path d="M18.7894 14.6383C13.9325 15.6756 10.2547 19.1299 9.14893 23.4024L10.9446 23.7872C11.8918 20.1274 15.0421 17.1676 19.2128 16.2769L18.7894 14.6383Z" fill="#3F3F3F"/>
<path d="M24.2107 14.6383L23.7871 16.2769C27.9582 17.1693 31.1002 20.1288 32.0472 23.7872L33.8509 23.4024C32.7453 19.1315 29.0682 15.6775 24.2107 14.6383Z" fill="#3F3F3F"/>
<path d="M33.3934 22.8723C31.1324 22.8723 29.2764 24.5169 29.2764 26.5285C29.2764 28.5402 31.1324 30.1915 33.3934 30.1915C35.6544 30.1915 37.5104 28.5402 37.5104 26.5285C37.5104 24.5169 35.6544 22.8723 33.3934 22.8723ZM33.3934 24.697C34.5422 24.697 35.4519 25.5064 35.4519 26.5285C35.4519 27.5506 34.5422 28.36 33.3934 28.36C32.2446 28.36 31.3349 27.5506 31.3349 26.5285C31.3349 25.5064 32.2446 24.697 33.3934 24.697Z" fill="#3F3F3F"/>
<path d="M9.14883 22.8723C7.13904 22.8723 5.48926 24.5169 5.48926 26.5285C5.48926 28.5402 7.13904 30.1915 9.14883 30.1915C11.1586 30.1915 12.8084 28.5402 12.8084 26.5285C12.8084 24.5169 11.1586 22.8723 9.14883 22.8723ZM9.14883 24.697C10.17 24.697 10.9786 25.5064 10.9786 26.5285C10.9786 27.5506 10.17 28.36 9.14883 28.36C8.12769 28.36 7.31905 27.5506 7.31905 26.5285C7.31904 25.5064 8.12768 24.697 9.14883 24.697Z" fill="#3F3F3F"/>
<path d="M23.7871 14.6383V15.5532H32.0212V14.6383H23.7871Z" fill="#3F3F3F"/>
<path d="M10.064 14.6383V15.5532H18.298V14.6383H10.064Z" fill="#3F3F3F"/>
<path d="M6.54109 9.59111e-06C3.30282 9.59111e-06 1.61289 1.60732 0.800395 3.14304C-0.0121008 4.67876 1.01647e-05 6.18826 1.01647e-05 6.18826V45.0523C1.01647e-05 45.0523 -0.0121071 46.5618 0.800395 48.0975C1.61289 49.6333 3.28215 51.234 6.54109 51.234H36.452C39.7199 51.234 41.3871 49.6333 42.1996 48.0975C43.0121 46.5618 43 45.0523 43 45.0523V6.18826C43 3.11389 41.2992 1.52428 39.6743 0.756424C38.0493 -0.0114358 36.452 9.59111e-06 36.452 9.59111e-06H6.54109ZM6.54109 1.76715H36.452C36.452 1.76715 37.6603 1.78381 38.8394 2.34098C40.0185 2.89815 41.1301 3.95446 41.1301 6.18826V45.0523C41.1301 45.0523 41.1125 46.1942 40.5229 47.3085C39.9334 48.4228 38.8068 49.4734 36.452 49.4734H6.54109C4.19407 49.4734 3.05972 48.4228 2.47016 47.3085C1.88061 46.1942 1.86987 45.0523 1.86987 45.0523V6.18826C1.86987 6.18826 1.88061 5.0464 2.47016 3.93206C3.05972 2.81772 4.19186 1.76715 6.54109 1.76715Z" fill="#3F3F3F"/>
<path d="M0.915039 41.1702V43H42.0853V41.1702H0.915039Z" fill="#3F3F3F"/>
<path d="M17.3828 44.8298V46.6596H24.702V44.8298H17.3828Z" fill="#3F3F3F"/>
</svg>
