<svg width="41" height="51" viewBox="0 0 41 51" fill="none" xmlns="http://www.w3.org/2000/svg">
<path d="M13.0674 35.0369L13.0679 35.0374L16.1459 38.1352C17.3078 39.3046 18.8556 39.9506 20.5003 39.9506C22.145 39.9506 23.6922 39.3045 24.8541 38.1352L27.9321 35.0374C28.0091 34.9599 28.1196 34.924 28.2293 34.9416C35.2196 36.1117 40.5 42.3744 40.5 49.5062C40.5 49.7008 40.3439 49.8532 40.1584 49.8532H0.841624C0.656065 49.8532 0.5 49.7008 0.5 49.5062C0.5 42.374 5.78095 36.111 12.7719 34.9414L12.7735 34.9412C12.878 34.9233 12.9894 34.9581 13.0674 35.0369ZM1.21095 48.6266L1.17692 49.1585H1.70993H39.2878H39.8209L39.7868 48.6266C39.3851 42.3479 34.7224 36.9484 28.5526 35.707L28.2889 35.654L28.0993 35.8448L25.3338 38.6282L25.3337 38.6283C24.0413 39.9295 22.3261 40.6447 20.4992 40.6447C18.6727 40.6447 16.9569 39.93 15.6641 38.6283L15.664 38.6282L12.8984 35.8448L12.7089 35.654L12.4451 35.707C6.27536 36.9484 1.61267 42.3484 1.21095 48.6266Z" fill="white" stroke="white"/>
<path d="M17.8373 23.1934L17.8376 23.1935C18.7075 23.5455 19.6054 23.712 20.4887 23.7114H20.489C23.3217 23.7114 26.0084 22.0039 27.1278 19.1995C28.5975 15.5166 26.8146 11.3192 23.1601 9.84263L23.1599 9.84258C19.5076 8.36565 15.3387 10.1546 13.8696 13.8365L13.8696 13.8366C13.1575 15.6207 13.1787 17.5751 13.9282 19.3438L17.8373 23.1934ZM17.8373 23.1934C16.0666 22.478 14.6795 21.1125 13.9283 19.3439L17.8373 23.1934ZM14.5035 14.0975L14.5034 14.0977C13.8615 15.7071 13.8801 17.4736 14.557 19.0688C15.2339 20.6639 16.4896 21.9009 18.0901 22.5484L18.0902 22.5484C21.4011 23.8868 25.1675 22.2646 26.495 18.9391L26.4951 18.9389C27.1371 17.3294 27.1178 15.5629 26.4416 13.9675L26.4415 13.9673C25.7646 12.3722 24.5089 11.1351 22.9084 10.4877L22.9082 10.4876C22.1221 10.1699 21.3079 10.0193 20.5073 10.0193C17.9445 10.0193 15.5154 11.5628 14.5035 14.0975Z" fill="white" stroke="white"/>
<path d="M5.03787 14.4047L5.03788 14.4047C4.85419 14.396 4.71078 14.5172 4.68887 14.7124L4.68884 14.7127C4.5406 16.0261 4.55568 17.3572 4.73305 18.6681L5.03787 14.4047ZM5.03787 14.4047L5.0448 14.405M5.03787 14.4047L5.0448 14.405M5.0448 14.405C6.73224 14.4611 8.32678 13.4491 8.96449 11.8528L8.96456 11.8526C9.60009 10.2603 9.16719 8.42588 7.88814 7.28508C7.75284 7.16429 7.73234 6.95754 7.8423 6.81206L7.84232 6.81203C8.63653 5.76107 9.56179 4.81028 10.591 3.98697C10.7319 3.87475 10.9325 3.89123 11.0523 4.02193L11.0528 4.02247C12.2138 5.28537 14.0489 5.6831 15.6212 5.00676C17.1923 4.33182 18.174 2.72531 18.0709 1.01106L18.0709 1.01037C18.0596 0.826692 18.1913 0.669541 18.3657 0.64584L18.3661 0.645782C19.6707 0.467359 20.9918 0.452733 22.2943 0.601805C22.47 0.622005 22.605 0.776306 22.5978 0.960674C22.5308 2.67758 23.5469 4.26242 25.1329 4.90401L25.1331 4.90407C26.7171 5.54418 28.5455 5.10761 29.6793 3.81912L29.6797 3.81874C29.7977 3.68432 29.9981 3.66459 30.1402 3.77337C31.1849 4.57323 32.1297 5.50453 32.9478 6.54116L32.948 6.54136C33.0607 6.68406 33.0444 6.89091 32.9123 7.01362L32.9117 7.01409C31.6571 8.18241 31.2648 10.0253 31.9345 11.6036M5.0448 14.405L33.3403 6.23139C33.6144 6.57827 33.576 7.07957 33.2525 7.38001C32.1518 8.40498 31.8072 10.0236 32.3947 11.4083M32.3947 11.4083L31.9344 11.6034C31.9344 11.6034 31.9344 11.6035 31.9345 11.6036M32.3947 11.4083C32.9818 12.7935 34.3926 13.6619 35.878 13.5707L32.3947 11.4083ZM31.9345 11.6036C32.604 13.1834 34.2108 14.1734 35.9073 14.0698M31.9345 11.6036L35.9073 14.0698M35.9073 14.0698C36.0936 14.06 36.243 14.1859 36.2674 14.3678L36.2675 14.3684C36.4448 15.6798 36.4599 17.0108 36.3117 18.3241C36.2901 18.5146 36.1485 18.639 35.9577 18.6322C34.2422 18.5667 32.6722 19.5905 32.0365 21.184C31.401 22.777 31.8339 24.6109 33.1138 25.7518C33.2488 25.8725 33.2692 26.079 33.1594 26.2244C32.364 27.2762 31.4385 28.2271 30.4098 29.0499L30.4096 29.05C30.2699 29.1619 30.0695 29.1463 29.9488 29.0146L29.9483 29.0141C28.7877 27.7515 26.9537 27.3548 25.3807 28.0297L25.3805 28.0298C23.8088 28.7047 22.827 30.3112 22.9302 32.0255L22.9302 32.0262C22.9415 32.2094 22.8102 32.3667 22.6356 32.3908C21.9252 32.4879 21.2096 32.5367 20.4953 32.5367C19.897 32.5367 19.2996 32.503 18.7063 32.4348L18.7062 32.4348C18.5305 32.4146 18.3956 32.2603 18.4027 32.076C18.4698 30.3592 17.4544 28.7741 15.868 28.1331L15.8677 28.1329C14.28 27.4925 12.4556 27.9296 11.3218 29.2174L11.3214 29.2178C11.2034 29.3523 11.0027 29.3721 10.8605 29.2635C9.81645 28.4642 8.87127 27.533 8.05326 26.4965L8.0531 26.4963C7.94012 26.3533 7.95634 26.1463 8.08863 26.0232L8.08889 26.0229C9.3433 24.8542 9.7358 23.0109 9.06611 21.4331C8.39704 19.8555 6.80088 18.8595 5.09066 18.9669L5.08961 18.967C4.92265 18.9778 4.75757 18.8489 4.73306 18.6682L35.9073 14.0698ZM9.59727 12.1143L9.59735 12.1141C10.2503 10.4793 9.94157 8.62349 8.84502 7.29032L8.58169 6.97017L8.84751 6.65208C9.33749 6.06575 9.87206 5.51736 10.4443 5.01144L10.7589 4.73324L11.0872 4.99513C12.4324 6.06807 14.2805 6.33644 15.8862 5.64728L9.59727 12.1143ZM9.59727 12.1143C8.94555 13.748 7.44834 14.8716 5.7431 15.0714L5.32891 15.12L5.30232 15.5361C5.25346 16.301 5.26268 17.0689 5.32815 17.8319L5.36382 18.2476L5.77914 18.2869C7.48696 18.4488 9.00775 19.5397 9.69418 21.1588C10.3809 22.7785 10.1129 24.6405 9.04558 25.9969L8.78928 26.3227L9.06184 26.6349C9.5646 27.2109 10.11 27.7489 10.6926 28.242L11.0132 28.5134L11.3358 28.2444C12.6584 27.1416 14.4977 26.8307 16.1206 27.4879L16.121 27.4881C17.7423 28.1431 18.861 29.6495 19.0585 31.3689L19.1061 31.7835L19.5226 31.8107C20.2838 31.8605 21.0469 31.8512 21.8054 31.7853L22.2211 31.7492M9.59727 12.1143L22.2211 31.7492M18.7789 1.28825L19.1942 1.25186C19.954 1.18529 20.7182 1.1772 21.4771 1.22638L21.8938 1.25339L21.9415 1.66828C22.1389 3.38758 23.2576 4.8941 24.8796 5.54962C26.5 6.20437 28.3408 5.89491 29.665 4.7925L29.9878 4.5238L30.3082 4.79533C30.8905 5.28886 31.4354 5.82628 31.9383 6.40295L32.2107 6.7153L31.9543 7.0409C30.8871 8.39614 30.6186 10.2586 31.3057 11.8782L31.3058 11.8783C31.9928 13.4986 33.5131 14.5889 35.2208 14.7508L35.6361 14.7901L35.6718 15.2058C35.7373 15.9682 35.7465 16.7362 35.6977 17.501L35.6711 17.9173L35.2567 17.9657C33.5516 18.1651 32.054 19.2891 31.4028 20.9233L31.4027 20.9235C30.7502 22.5583 31.059 24.4142 32.1555 25.7467L32.4191 26.0671L32.1528 26.3853C31.6624 26.9714 31.1279 27.5198 30.5557 28.0257L30.2411 28.3039L29.9128 28.042C28.5683 26.9697 26.7207 26.7012 25.1143 27.3899L18.7789 1.28825ZM18.7789 1.28825L18.74 1.70336M18.7789 1.28825L18.74 1.70336M18.74 1.70336C18.5788 3.42579 17.4933 4.9562 15.8865 5.64717L18.74 1.70336ZM22.2211 31.7492L22.26 31.3338M22.2211 31.7492L22.26 31.3338M22.26 31.3338C22.4212 29.6115 23.5071 28.0811 25.1139 27.39L22.26 31.3338Z" fill="white" stroke="white"/>
</svg>
