<svg width="210" height="166" viewBox="0 0 210 166" fill="none" xmlns="http://www.w3.org/2000/svg">
<path d="M198.929 127.433C196.463 127.433 194.292 126.842 192.416 125.661C190.54 124.48 189.081 122.813 188.039 120.659C186.997 118.505 186.476 115.987 186.476 113.104C186.476 110.186 186.997 107.667 188.039 105.549C189.081 103.395 190.54 101.728 192.416 100.546C194.292 99.3654 196.463 98.7749 198.929 98.7749C201.569 98.7749 203.844 99.4696 205.755 100.859C207.7 102.214 209.055 104.229 209.819 106.903L204.921 108.518C204.365 106.712 203.584 105.427 202.576 104.663C201.569 103.864 200.266 103.464 198.669 103.464C196.654 103.464 195.021 104.246 193.771 105.809C192.52 107.337 191.895 109.769 191.895 113.104C191.895 116.438 192.52 118.887 193.771 120.45C195.021 121.979 196.654 122.743 198.669 122.743C200.266 122.743 201.552 122.344 202.524 121.545C203.532 120.746 204.279 119.443 204.765 117.637L209.819 119.148C209.055 121.892 207.7 123.959 205.755 125.348C203.844 126.738 201.569 127.433 198.929 127.433Z" fill="white"/>
<path d="M175.883 126.908V99.2923H181.093V126.908H175.883ZM178.488 95.5407C177.585 95.5407 176.821 95.2455 176.195 94.6549C175.57 94.0644 175.258 93.3002 175.258 92.3623C175.258 91.3897 175.57 90.6081 176.195 90.0176C176.821 89.4271 177.585 89.1318 178.488 89.1318C179.391 89.1318 180.155 89.4271 180.781 90.0176C181.406 90.6081 181.719 91.3897 181.719 92.3623C181.719 93.3002 181.406 94.0644 180.781 94.6549C180.155 95.2455 179.391 95.5407 178.488 95.5407Z" fill="white"/>
<path d="M166.393 127.429C163.684 127.429 161.565 126.717 160.036 125.293C158.543 123.834 157.796 121.68 157.796 118.832V93.5611L163.006 92.519V117.894C163.006 119.492 163.388 120.673 164.153 121.437C164.917 122.167 166.028 122.531 167.487 122.531C168.182 122.531 168.825 122.479 169.415 122.375C170.041 122.271 170.648 122.149 171.239 122.01V126.908C170.509 127.082 169.763 127.203 168.998 127.273C168.269 127.377 167.401 127.429 166.393 127.429ZM153.888 103.826V99.2927H170.978V103.826H153.888Z" fill="white"/>
<path d="M139.364 127.433C136.828 127.433 134.605 126.842 132.694 125.661C130.784 124.48 129.29 122.813 128.213 120.659C127.171 118.505 126.65 115.987 126.65 113.104C126.65 110.082 127.188 107.511 128.265 105.392C129.342 103.239 130.818 101.606 132.694 100.494C134.605 99.3481 136.793 98.7749 139.259 98.7749C141.656 98.7749 143.758 99.3481 145.564 100.494C147.405 101.606 148.829 103.239 149.837 105.392C150.879 107.511 151.4 110.082 151.4 113.104C151.4 113.382 151.4 113.642 151.4 113.885C151.4 114.128 151.382 114.458 151.348 114.875H130.923V110.759H147.492L145.981 113.104C145.981 109.63 145.373 107.129 144.157 105.601C142.941 104.037 141.309 103.256 139.259 103.256C137.106 103.256 135.369 104.037 134.049 105.601C132.729 107.129 132.069 109.63 132.069 113.104C132.069 116.334 132.712 118.714 133.997 120.242C135.317 121.77 137.106 122.535 139.364 122.535C140.892 122.535 142.195 122.205 143.271 121.545C144.383 120.85 145.269 119.721 145.929 118.158L150.775 120.086C149.871 122.413 148.412 124.219 146.398 125.505C144.383 126.79 142.038 127.433 139.364 127.433Z" fill="white"/>
<path d="M116.045 126.911V109.769C116.045 107.65 115.49 106.052 114.378 104.975C113.301 103.899 111.999 103.36 110.47 103.36C108.942 103.36 107.622 103.899 106.51 104.975C105.433 106.052 104.895 107.65 104.895 109.769H103.176C103.176 107.511 103.575 105.566 104.374 103.933C105.208 102.266 106.319 100.998 107.709 100.13C109.133 99.2265 110.713 98.7749 112.45 98.7749C115.021 98.7749 117.122 99.6607 118.755 101.432C120.422 103.169 121.256 105.549 121.256 108.571V126.911H116.045ZM83.3236 126.911V99.296H88.5341V126.911H83.3236ZM99.6845 126.911V109.769C99.6845 107.65 99.1287 106.052 98.0172 104.975C96.9403 103.899 95.6377 103.36 94.1093 103.36C92.5809 103.36 91.2609 103.899 90.1493 104.975C89.0725 106.052 88.5341 107.65 88.5341 109.769H86.8146C86.8146 107.511 87.2141 105.566 88.013 103.933C88.8467 102.266 89.9583 100.998 91.3477 100.13C92.7719 99.2265 94.3524 98.7749 96.0893 98.7749C98.6598 98.7749 100.761 99.6607 102.394 101.432C104.061 103.169 104.895 105.549 104.895 108.571V126.911H99.6845Z" fill="white"/>
<path d="M67.2207 127.433C64.0945 127.433 61.5934 126.807 59.7177 125.557C57.8419 124.272 56.5219 122.396 55.7577 119.929L60.6555 118.366C61.2461 120.103 62.1145 121.354 63.2608 122.118C64.4071 122.847 65.8486 123.212 67.5855 123.212C69.1486 123.212 70.3991 122.917 71.337 122.326C72.3096 121.701 72.796 120.833 72.796 119.721C72.796 118.644 72.4139 117.811 71.6496 117.22C70.8854 116.595 69.8954 116.091 68.6797 115.709C67.4639 115.292 66.1613 114.893 64.7718 114.511C63.4171 114.094 62.1318 113.59 60.9161 113C59.7003 112.409 58.7103 111.61 57.9461 110.603C57.1819 109.561 56.7998 108.206 56.7998 106.539C56.7998 104.385 57.6856 102.561 59.4571 101.068C61.2287 99.5391 63.7645 98.7749 67.0644 98.7749C69.9128 98.7749 72.2054 99.4002 73.9423 100.651C75.6791 101.901 76.9296 103.725 77.6938 106.122L72.9523 107.737C72.327 106.035 71.4933 104.819 70.4512 104.09C69.4439 103.36 68.176 102.995 66.6476 102.995C65.1539 102.995 63.9902 103.291 63.1566 103.881C62.3576 104.437 61.9582 105.166 61.9582 106.07C61.9582 107.007 62.3403 107.754 63.1045 108.31C63.8687 108.831 64.8587 109.283 66.0744 109.665C67.2902 110.012 68.5755 110.394 69.9302 110.811C71.3196 111.228 72.6223 111.766 73.838 112.426C75.0538 113.052 76.0438 113.92 76.808 115.032C77.5722 116.143 77.9543 117.585 77.9543 119.356C77.9543 121.614 77.0164 123.525 75.1407 125.088C73.2996 126.651 70.6597 127.433 67.2207 127.433Z" fill="white"/>
<path d="M39.6805 127.433C37.2142 127.433 35.0258 126.842 33.1153 125.661C31.2396 124.48 29.7632 122.813 28.6864 120.659C27.6096 118.505 27.0712 115.987 27.0712 113.104C27.0712 110.186 27.6096 107.667 28.6864 105.549C29.7632 103.395 31.2396 101.728 33.1153 100.546C35.0258 99.3654 37.2142 98.7749 39.6805 98.7749C42.1816 98.7749 44.37 99.3654 46.2457 100.546C48.1562 101.728 49.6499 103.395 50.7267 105.549C51.8036 107.667 52.342 110.186 52.342 113.104C52.342 115.987 51.8036 118.505 50.7267 120.659C49.6499 122.813 48.1562 124.48 46.2457 125.661C44.37 126.842 42.1816 127.433 39.6805 127.433ZM39.6805 122.743C41.8689 122.743 43.6231 121.979 44.9431 120.45C46.2631 118.887 46.9231 116.438 46.9231 113.104C46.9231 109.769 46.2631 107.337 44.9431 105.809C43.6231 104.246 41.8689 103.464 39.6805 103.464C37.5269 103.464 35.79 104.246 34.47 105.809C33.1501 107.337 32.4901 109.769 32.4901 113.104C32.4901 116.438 33.1501 118.887 34.47 120.45C35.79 121.979 37.5269 122.743 39.6805 122.743Z" fill="white"/>
<path d="M12.453 127.433C9.98675 127.433 7.81572 126.842 5.93994 125.661C4.06417 124.48 2.60524 122.813 1.56314 120.659C0.521048 118.505 0 115.987 0 113.104C0 110.186 0.521048 107.667 1.56314 105.549C2.60524 103.395 4.06417 101.728 5.93994 100.546C7.81572 99.3654 9.98675 98.7749 12.453 98.7749C15.093 98.7749 17.3683 99.4696 19.2788 100.859C21.224 102.214 22.5787 104.229 23.3429 106.903L18.4451 108.518C17.8893 106.712 17.1077 105.427 16.1004 104.663C15.093 103.864 13.7904 103.464 12.1925 103.464C10.1778 103.464 8.54518 104.246 7.29467 105.809C6.04415 107.337 5.4189 109.769 5.4189 113.104C5.4189 116.438 6.04415 118.887 7.29467 120.45C8.54518 121.979 10.1778 122.743 12.1925 122.743C13.7904 122.743 15.0756 122.344 16.0483 121.545C17.0556 120.746 17.8025 119.443 18.2888 117.637L23.3429 119.148C22.5787 121.892 21.224 123.959 19.2788 125.348C17.3683 126.738 15.093 127.433 12.453 127.433Z" fill="white"/>
<path d="M198.751 166C196.613 166 194.738 165.502 193.127 164.506C191.516 163.511 190.256 162.104 189.348 160.288C188.469 158.472 188.03 156.348 188.03 153.917C188.03 151.369 188.484 149.201 189.392 147.414C190.3 145.598 191.545 144.221 193.127 143.284C194.738 142.317 196.583 141.834 198.663 141.834C200.684 141.834 202.457 142.317 203.98 143.284C205.532 144.221 206.733 145.598 207.583 147.414C208.462 149.201 208.901 151.369 208.901 153.917C208.901 154.152 208.901 154.371 208.901 154.576C208.901 154.781 208.886 155.06 208.857 155.411H191.633V151.94H205.606L204.331 153.917C204.331 150.988 203.819 148.879 202.794 147.59C201.768 146.272 200.392 145.613 198.663 145.613C196.847 145.613 195.382 146.272 194.269 147.59C193.156 148.879 192.6 150.988 192.6 153.917C192.6 156.641 193.142 158.648 194.225 159.937C195.339 161.226 196.847 161.87 198.751 161.87C200.04 161.87 201.138 161.592 202.047 161.035C202.984 160.449 203.731 159.497 204.287 158.179L208.374 159.805C207.612 161.768 206.382 163.291 204.683 164.375C202.984 165.458 201.007 166 198.751 166Z" fill="white"/>
<path d="M175.707 166C173.628 166 171.797 165.502 170.215 164.506C168.633 163.511 167.403 162.104 166.524 160.288C165.645 158.472 165.206 156.348 165.206 153.917C165.206 151.457 165.645 149.333 166.524 147.546C167.403 145.73 168.633 144.324 170.215 143.328C171.797 142.332 173.628 141.834 175.707 141.834C177.934 141.834 179.852 142.42 181.463 143.592C183.104 144.734 184.246 146.433 184.891 148.688L180.76 150.051C180.292 148.527 179.633 147.444 178.783 146.799C177.934 146.125 176.835 145.788 175.488 145.788C173.789 145.788 172.412 146.448 171.358 147.766C170.303 149.055 169.776 151.105 169.776 153.917C169.776 156.729 170.303 158.794 171.358 160.113C172.412 161.401 173.789 162.046 175.488 162.046C176.835 162.046 177.919 161.709 178.739 161.035C179.589 160.362 180.219 159.263 180.629 157.74L184.891 159.014C184.246 161.328 183.104 163.071 181.463 164.243C179.852 165.415 177.934 166 175.707 166Z" fill="white"/>
<path d="M156.268 165.558V142.27H160.661V165.558H156.268ZM158.464 139.107C157.703 139.107 157.058 138.858 156.531 138.36C156.004 137.862 155.74 137.217 155.74 136.426C155.74 135.606 156.004 134.947 156.531 134.449C157.058 133.951 157.703 133.702 158.464 133.702C159.226 133.702 159.87 133.951 160.398 134.449C160.925 134.947 161.189 135.606 161.189 136.426C161.189 137.217 160.925 137.862 160.398 138.36C159.87 138.858 159.226 139.107 158.464 139.107Z" fill="white"/>
<path d="M141.093 166C139.014 166 137.168 165.502 135.557 164.506C133.975 163.511 132.73 162.104 131.822 160.288C130.914 158.472 130.46 156.348 130.46 153.917C130.46 151.457 130.914 149.333 131.822 147.546C132.73 145.73 133.975 144.324 135.557 143.328C137.168 142.332 139.014 141.834 141.093 141.834C143.202 141.834 145.048 142.332 146.63 143.328C148.241 144.324 149.5 145.73 150.408 147.546C151.317 149.333 151.771 151.457 151.771 153.917C151.771 156.348 151.317 158.472 150.408 160.288C149.5 162.104 148.241 163.511 146.63 164.506C145.048 165.502 143.202 166 141.093 166ZM141.093 162.046C142.939 162.046 144.418 161.401 145.531 160.113C146.644 158.794 147.201 156.729 147.201 153.917C147.201 151.105 146.644 149.055 145.531 147.766C144.418 146.448 142.939 145.788 141.093 145.788C139.277 145.788 137.813 146.448 136.7 147.766C135.586 149.055 135.03 151.105 135.03 153.917C135.03 156.729 135.586 158.794 136.7 160.113C137.813 161.401 139.277 162.046 141.093 162.046Z" fill="white"/>
<path d="M121.52 165.558V151.981C121.52 149.901 120.993 148.334 119.938 147.279C118.884 146.225 117.624 145.698 116.16 145.698C114.695 145.698 113.436 146.225 112.381 147.279C111.326 148.334 110.799 149.901 110.799 151.981H109.349C109.349 149.901 109.715 148.1 110.448 146.576C111.209 145.053 112.235 143.881 113.523 143.061C114.812 142.241 116.248 141.831 117.829 141.831C119.411 141.831 120.803 142.212 122.004 142.973C123.234 143.706 124.186 144.76 124.86 146.137C125.563 147.484 125.914 149.095 125.914 150.97V165.558H121.52ZM106.405 165.558V134.142H110.799V165.558H106.405Z" fill="white"/>
<path d="M92.8964 166C90.8166 166 88.9859 165.502 87.4041 164.506C85.8223 163.511 84.592 162.104 83.7132 160.288C82.8344 158.472 82.395 156.348 82.395 153.917C82.395 151.457 82.8344 149.333 83.7132 147.546C84.592 145.73 85.8223 144.324 87.4041 143.328C88.9859 142.332 90.8166 141.834 92.8964 141.834C95.1227 141.834 97.0413 142.42 98.6524 143.592C100.293 144.734 101.435 146.433 102.08 148.688L97.9494 150.051C97.4807 148.527 96.8216 147.444 95.9721 146.799C95.1227 146.125 94.0242 145.788 92.6767 145.788C90.9778 145.788 89.601 146.448 88.5465 147.766C87.4919 149.055 86.9647 151.105 86.9647 153.917C86.9647 156.729 87.4919 158.794 88.5465 160.113C89.601 161.401 90.9778 162.046 92.6767 162.046C94.0242 162.046 95.108 161.709 95.9282 161.035C96.7777 160.362 97.4075 159.263 97.8176 157.74L102.08 159.014C101.435 161.328 100.293 163.071 98.6524 164.243C97.0413 165.415 95.1227 166 92.8964 166Z" fill="white"/>
<path d="M145.066 52.9059V19.2385L173.522 0L203.559 19.2385V52.9059L173.522 68.938L145.066 52.9059Z" fill="#D8955C"/>
<path d="M117.905 25.5066V13.2639L128.068 6.26807L138.796 13.2639V25.5066L128.068 31.3364L117.905 25.5066Z" fill="#B38F71"/>
<path d="M97.0156 52.8076V36.484L111.244 27.1562L126.262 36.484V52.8076L111.244 60.5807L97.0156 52.8076Z" fill="#D8955C"/>
<path d="M118.953 81.4544L119.138 65.6063L133.452 56.7163L148.344 65.9476L148.158 81.7957L133.073 89.1672L118.953 81.4544Z" fill="#D8955C"/>
<path d="M83.4028 73.1505L83.525 62.6893L92.9736 56.821L102.804 62.9145L102.681 73.3757L92.7233 78.2416L83.4028 73.1505Z" fill="#B38F71"/>
</svg>
