<svg width="232" height="64" viewBox="0 0 232 64" fill="none" xmlns="http://www.w3.org/2000/svg">
<path d="M11.7017 14.3643V30.2376C11.6684 31.9133 11.9707 33.5788 12.5907 35.1366C13.2108 36.6945 14.1363 38.1133 15.313 39.3101C16.4897 40.507 17.894 41.4577 19.4436 42.1068C20.9933 42.7558 22.6573 43.0901 24.3381 43.0901C26.0189 43.0901 27.6828 42.7558 29.2325 42.1068C30.7822 41.4577 32.1865 40.507 33.3632 39.3101C34.5399 38.1133 35.4653 36.6945 36.0854 35.1366C36.7055 33.5788 37.0078 31.9133 36.9745 30.2376V14.3643C37.0078 12.6885 36.7055 11.023 36.0854 9.46522C35.4653 7.90739 34.5399 6.48856 33.3632 5.29173C32.1865 4.09491 30.7822 3.14415 29.2325 2.49509C27.6828 1.84604 26.0189 1.51172 24.3381 1.51172C22.6573 1.51172 20.9933 1.84604 19.4436 2.49509C17.894 3.14415 16.4897 4.09491 15.313 5.29173C14.1363 6.48856 13.2108 7.90739 12.5907 9.46522C11.9707 11.023 11.6684 12.6885 11.7017 14.3643Z" fill="url(#paint0_radial_3337_1215)"/>
<path d="M0 10.3297C0 1.06627 6.43345 -2.66776 14.2975 2.03215L49.5313 23.0898C57.3954 27.7897 57.3954 35.4802 49.5313 40.1801L14.2975 61.2378C6.43345 65.9377 0 62.2037 0 52.9403V10.3297Z" fill="url(#paint1_radial_3337_1215)"/>
<path d="M24.3392 3.54102C21.4869 3.56869 18.7621 4.72387 16.7631 6.75295C14.7641 8.78204 13.6543 11.5192 13.6773 14.3635V30.2338C13.6536 31.6449 13.9119 33.0465 14.4371 34.357C14.9623 35.6675 15.7438 36.8606 16.7362 37.8668C17.7285 38.873 18.9118 39.6721 20.2171 40.2176C21.5223 40.7631 22.9234 41.044 24.3387 41.044C25.754 41.044 27.1551 40.7631 28.4603 40.2176C29.7656 39.6721 30.9489 38.873 31.9412 37.8668C32.9336 36.8606 33.7151 35.6675 34.2403 34.357C34.7655 33.0465 35.0238 31.6449 35.0002 30.2338V14.3645C35.0234 11.5202 33.9138 8.78292 31.915 6.75365C29.9162 4.72438 27.1916 3.56895 24.3392 3.54102Z" fill="white"/>
<path d="M24.3392 3.54102C21.4869 3.56869 18.7621 4.72387 16.7631 6.75295C14.7641 8.78204 13.6543 11.5192 13.6773 14.3635V30.2338C13.6536 31.6449 13.9119 33.0465 14.4371 34.357C14.9623 35.6675 15.7438 36.8606 16.7362 37.8668C17.7285 38.873 18.9118 39.6721 20.2171 40.2176C21.5223 40.7631 22.9234 41.044 24.3387 41.044C25.754 41.044 27.1551 40.7631 28.4603 40.2176C29.7656 39.6721 30.9489 38.873 31.9412 37.8668C32.9336 36.8606 33.7151 35.6675 34.2403 34.357C34.7655 33.0465 35.0238 31.6449 35.0002 30.2338V14.3645C35.0234 11.5202 33.9138 8.78292 31.915 6.75365C29.9162 4.72438 27.1916 3.56895 24.3392 3.54102Z" fill="white"/>
<path d="M25.8277 12.2317C28.6361 12.693 30.0403 13.6355 30.0403 15.0591C30.0419 15.6378 29.8131 16.1935 29.4041 16.604C28.9951 17.0146 28.4395 17.2466 27.8591 17.2489C27.6761 17.2493 27.4936 17.2298 27.3148 17.1906C27.1377 17.1524 26.9064 17.0864 26.6208 16.9929C26.3353 16.8993 26.1284 16.835 26.0002 16.8001C25.4794 16.6147 24.932 16.5146 24.3792 16.5035C23.8567 16.5017 23.3448 16.6503 22.9049 16.9316C22.6923 17.0538 22.5125 17.2256 22.3809 17.4321C22.2494 17.6387 22.1699 17.874 22.1494 18.1179C22.1365 18.3224 22.1751 18.5268 22.2617 18.7126C22.3483 18.8984 22.4801 19.0597 22.6452 19.1817C23.0444 19.4511 23.4886 19.6476 23.9568 19.762C24.8822 20.0256 25.7153 20.2985 26.4563 20.5806C27.3896 20.885 28.2784 21.3116 29.0994 21.849C29.7932 22.3156 30.3595 22.9473 30.7472 23.6868C31.1616 24.5421 31.3619 25.4848 31.3312 26.4342C31.3786 27.9997 30.8456 29.5276 29.8341 30.7258C28.7663 31.8647 27.3616 32.6337 25.8247 32.9205V34.8691C25.8388 35.2921 25.7046 35.7068 25.445 36.0416C25.3185 36.1985 25.1567 36.3235 24.9727 36.4062C24.7888 36.489 24.5878 36.5274 24.3861 36.5182C24.1813 36.5261 23.9775 36.4867 23.7905 36.403C23.6036 36.3193 23.4386 36.1936 23.3084 36.0357C23.041 35.7061 22.9003 35.292 22.9119 34.8681V33.1054C21.7937 33.0265 20.6923 32.7908 19.6401 32.4055C18.1014 31.8064 17.332 30.9736 17.332 29.9073C17.332 29.3366 17.5268 28.7829 17.8843 28.3373C18.0371 28.1175 18.241 27.9377 18.4785 27.8135C18.7161 27.6892 18.9802 27.624 19.2485 27.6235C19.593 27.6146 19.9365 27.6651 20.2637 27.7728L21.857 28.3225C22.5608 28.5638 23.2949 28.7065 24.0381 28.7466C24.6771 28.7605 25.3033 28.5672 25.8227 28.1959C26.0689 28.0221 26.2675 27.7895 26.4004 27.5194C26.5332 27.2493 26.5961 26.9503 26.5832 26.6497C26.5851 26.335 26.4958 26.0264 26.3259 25.7612C26.1559 25.4959 25.9127 25.2854 25.6254 25.1549C24.7352 24.7557 23.8137 24.4297 22.8702 24.1801C21.7935 23.873 20.9838 23.6117 20.4412 23.3962C19.8702 23.1624 19.352 22.8169 18.9173 22.3799C18.4183 21.8915 18.0261 21.3055 17.7653 20.6587C17.4992 20.0155 17.3618 19.3267 17.3608 18.631C17.3606 18.0703 17.4318 17.5119 17.573 16.9691C17.7113 16.429 17.9221 15.9099 18.1995 15.4259C18.4797 14.9389 18.8234 14.4911 19.2217 14.0942C20.2592 13.1558 21.5372 12.5223 22.9138 12.2643V10.5055C22.9023 10.0816 23.0429 9.66759 23.3104 9.33795C23.4404 9.1798 23.6053 9.05384 23.7923 8.96996C23.9793 8.88608 24.1832 8.84657 24.3881 8.85452C24.5875 8.84844 24.7855 8.88859 24.9667 8.97179C25.1478 9.05499 25.3071 9.17898 25.4321 9.334C25.7005 9.66352 25.8412 10.0782 25.8287 10.5026L25.8277 12.2317Z" fill="url(#paint2_radial_3337_1215)"/>
<path d="M67.1821 27.6633H65.6613C63.7716 27.6633 62.9844 26.9149 62.9844 25.4171C62.9844 23.9194 63.7676 23.171 65.6613 23.171H67.1821V19.7553C67.1821 15.4508 70.6849 13.1582 74.6021 13.1582C77.045 13.1582 79.0269 14.1409 79.0269 16.4335C79.0447 17.0286 78.8278 17.6069 78.4228 18.0442C78.0177 18.4816 77.4568 18.7431 76.8606 18.7726C76.3539 18.7726 75.8929 18.6322 75.3853 18.6322C75.1785 18.6225 74.9721 18.658 74.7805 18.7363C74.589 18.8145 74.4169 18.9336 74.2764 19.0851C74.1358 19.2367 74.0302 19.4171 73.9669 19.6136C73.9036 19.8101 73.8842 20.0181 73.91 20.2229V23.171H75.9841C77.967 23.171 79.0259 23.779 79.0259 25.4171C79.0259 27.0553 77.966 27.6633 75.9841 27.6633H73.91V44.8337C73.9177 45.2791 73.8363 45.7216 73.6707 46.1353C73.5051 46.549 73.2585 46.9257 72.9453 47.2434C72.6321 47.5611 72.2586 47.8135 71.8466 47.9857C71.4346 48.1579 70.9923 48.2466 70.5456 48.2466C70.0988 48.2466 69.6566 48.1579 69.2445 47.9857C68.8325 47.8135 68.4591 47.5611 68.1459 47.2434C67.8327 46.9257 67.5861 46.549 67.4205 46.1353C67.2548 45.7216 67.1735 45.2791 67.1811 44.8337L67.1821 27.6633Z" fill="white"/>
<path d="M86.7412 37.9264C86.8975 38.7416 87.228 39.5136 87.7102 40.19C88.1925 40.8665 88.8151 41.4315 89.5358 41.8466C90.2565 42.2618 91.0584 42.5173 91.8869 42.5959C92.7155 42.6745 93.5513 42.5742 94.3376 42.302C99.2343 40.9704 98.3757 37.7158 101.002 37.002C101.692 36.8221 102.425 36.9139 103.049 37.2583C103.673 37.6027 104.14 38.1733 104.353 38.8517C105.403 42.829 99.615 46.389 95.6968 47.4527C86.6153 49.9243 81.5411 44.6194 80.0262 38.8794C77.9987 31.1968 81.2238 24.7975 88.9253 22.7026C96.4038 20.668 102.098 24.8835 103.529 30.3061C104.124 32.5661 103.613 33.3352 101.431 33.9284L86.7412 37.9264ZM97.1354 31.0307C96.6812 29.6552 95.7209 28.5026 94.448 27.8054C93.1751 27.1082 91.6844 26.9183 90.2766 27.274C87.0267 28.1578 85.605 30.7243 85.7388 34.1271L97.1354 31.0307Z" fill="white"/>
<path d="M113.21 37.9264C113.367 38.7416 113.697 39.5136 114.179 40.19C114.662 40.8665 115.284 41.4315 116.005 41.8466C116.726 42.2618 117.528 42.5173 118.356 42.5959C119.185 42.6745 120.021 42.5742 120.807 42.302C125.704 40.9704 124.845 37.7158 127.471 37.002C128.161 36.8221 128.894 36.9139 129.518 37.2583C130.142 37.6027 130.609 38.1733 130.822 38.8517C131.872 42.829 126.084 46.389 122.166 47.4527C113.084 49.9243 108.01 44.6194 106.495 38.8794C104.467 31.1968 107.693 24.7975 115.395 22.7026C122.874 20.668 128.567 24.8835 129.998 30.3061C130.593 32.5661 130.083 33.3352 127.901 33.9284L113.21 37.9264ZM123.605 31.0307C123.15 29.655 122.19 28.5023 120.917 27.805C119.644 27.1078 118.153 26.918 116.745 27.274C113.495 28.1578 112.073 30.7243 112.208 34.1271L123.605 31.0307Z" fill="white"/>
<path d="M134.731 27.6631H133.579C131.69 27.6631 130.902 26.9147 130.902 25.417C130.902 23.9192 131.686 23.1708 133.579 23.1708H134.731V19.0067C134.724 18.5613 134.805 18.1188 134.971 17.7051C135.136 17.2914 135.383 16.9147 135.696 16.597C136.009 16.2793 136.383 16.0269 136.795 15.8547C137.207 15.6825 137.649 15.5938 138.096 15.5938C138.543 15.5938 138.985 15.6825 139.397 15.8547C139.809 16.0269 140.182 16.2793 140.495 16.597C140.809 16.9147 141.055 17.2914 141.221 17.7051C141.387 18.1188 141.468 18.5613 141.46 19.0067V23.1708H143.484C145.467 23.1708 146.525 23.7788 146.525 25.417C146.525 27.0551 145.466 27.6631 143.484 27.6631H141.456V41.3249C141.456 42.354 142.008 42.9156 143.207 42.9156H144.178C144.49 42.8817 144.806 42.9173 145.103 43.0198C145.401 43.1223 145.671 43.2891 145.896 43.5083C146.12 43.7275 146.294 43.9937 146.403 44.2876C146.512 44.5815 146.555 44.8959 146.527 45.2082C146.527 47.1736 144.869 48.2492 141.643 48.2492C136.758 48.2492 134.729 46.1909 134.729 42.1672L134.731 27.6631Z" fill="white"/>
<path d="M170.794 44.8352C170.794 46.8935 169.871 48.2499 167.752 48.2499C165.632 48.2499 164.71 46.8935 164.71 44.8352V43.9454H164.618C163.73 45.2883 162.517 46.3865 161.092 47.1388C159.666 47.8911 158.073 48.2732 156.46 48.2499C152.404 48.2499 147.98 46.1916 147.98 39.2673V25.9802C147.98 24.1552 148.718 22.5645 151.344 22.5645C153.971 22.5645 154.708 24.1552 154.708 25.9802V37.9109C154.708 40.6711 156.045 42.6365 158.949 42.6365C160.341 42.5953 161.661 42.0065 162.619 40.9984C163.578 39.9904 164.097 38.6451 164.065 37.2564V25.9802C164.065 24.1552 164.802 22.5645 167.429 22.5645C170.055 22.5645 170.794 24.1552 170.794 25.9802V44.8352Z" fill="white"/>
<path d="M174.437 25.7447C174.418 25.3351 174.484 24.926 174.628 24.5423C174.773 24.1585 174.994 23.8079 175.278 23.5116C175.563 23.2154 175.904 22.9796 176.282 22.8186C176.66 22.6575 177.067 22.5744 177.478 22.5744C177.889 22.5744 178.296 22.6575 178.674 22.8186C179.053 22.9796 179.394 23.2154 179.678 23.5116C179.963 23.8079 180.184 24.1585 180.328 24.5423C180.473 24.926 180.538 25.3351 180.52 25.7447V28.3645H180.612C181.395 25.5104 182.916 22.5633 186.189 22.5633C186.653 22.5268 187.119 22.5851 187.559 22.7346C188 22.884 188.405 23.1215 188.75 23.4324C189.095 23.7434 189.373 24.1212 189.567 24.543C189.76 24.9647 189.866 25.4214 189.876 25.8851C189.925 26.3363 189.873 26.7927 189.726 27.2219C189.578 27.6511 189.337 28.0425 189.02 28.3685C188.703 28.6945 188.319 28.947 187.893 29.1081C187.468 29.2692 187.012 29.335 186.558 29.3007H185.359C182.641 29.3007 181.165 31.2187 181.165 36.8795V44.834C181.165 46.658 180.428 48.2487 177.801 48.2487C175.175 48.2487 174.438 46.658 174.438 44.834L174.437 25.7447Z" fill="white"/>
<path d="M192.043 25.7447C192.022 25.3334 192.085 24.9221 192.228 24.5358C192.372 24.1495 192.592 23.7963 192.877 23.4978C193.161 23.1992 193.504 22.9614 193.883 22.799C194.263 22.6365 194.672 22.5527 195.085 22.5527C195.498 22.5527 195.907 22.6365 196.286 22.799C196.666 22.9614 197.008 23.1992 197.293 23.4978C197.577 23.7963 197.798 24.1495 197.941 24.5358C198.084 24.9221 198.148 25.3334 198.126 25.7447V28.3646H198.219C199.002 25.5104 200.523 22.5633 203.795 22.5633C204.258 22.5269 204.725 22.5852 205.165 22.7346C205.605 22.8841 206.01 23.1215 206.355 23.4325C206.701 23.7434 206.979 24.1213 207.172 24.543C207.366 24.9647 207.471 25.4214 207.482 25.8851C207.53 26.3364 207.479 26.7927 207.331 27.2219C207.183 27.6511 206.942 28.0426 206.625 28.3686C206.309 28.6945 205.924 28.947 205.499 29.1082C205.073 29.2693 204.617 29.335 204.163 29.3008H202.965C200.245 29.3008 198.771 31.2187 198.771 36.8796V44.834C198.771 46.658 198.033 48.2487 195.406 48.2487C192.779 48.2487 192.042 46.658 192.042 44.834L192.043 25.7447Z" fill="white"/>
<path d="M213.84 36.6919C213.784 37.522 213.906 38.3544 214.199 39.1335C214.492 39.9126 214.948 40.6204 215.537 41.2095C216.126 41.7986 216.834 42.2554 217.615 42.5494C218.395 42.8435 219.23 42.9678 220.062 42.9143C225.132 42.9143 225.132 39.5461 227.852 39.5461C228.568 39.5549 229.253 39.8364 229.767 40.3327C230.281 40.829 230.585 41.5025 230.617 42.2153C230.617 46.333 224.119 48.2459 220.063 48.2459C210.662 48.2459 207.113 41.7893 207.113 35.8476C207.113 27.8942 211.86 22.5605 219.833 22.5605C227.577 22.5605 232 28.1285 232 33.7429C232 36.0819 231.306 36.6899 229.051 36.6899L213.84 36.6919ZM225.638 32.7611C225.549 31.3122 224.916 29.9499 223.866 28.9446C222.816 27.9393 221.425 27.3646 219.969 27.3346C216.605 27.3346 214.577 29.4404 213.839 32.7611H225.638Z" fill="white"/>
<path d="M22.3665 56.4163L26.3154 54.0564V48.013C30.6439 47.4628 34.6218 45.3548 37.5012 42.0854C40.3806 38.816 41.9632 34.6104 41.9514 30.2593V23.0423C41.9494 22.5137 41.7398 22.0069 41.3674 21.6306C41.191 21.4388 40.9765 21.2857 40.7375 21.1809C40.4986 21.0762 40.2404 21.0221 39.9794 21.0221C39.7184 21.0221 39.4602 21.0762 39.2213 21.1809C38.9823 21.2857 38.7678 21.4388 38.5914 21.6306C38.2177 22.0092 38.008 22.519 38.0074 23.0502C38.0074 23.0423 38.0074 30.2573 38.0074 30.2573C38.042 32.0681 37.7142 33.8676 37.0432 35.5506C36.3722 37.2336 35.3714 38.7663 34.0994 40.0591C32.8274 41.3519 31.3096 42.3788 29.6349 43.0799C27.9602 43.7809 26.1622 44.142 24.3459 44.142C22.5296 44.142 20.7315 43.7809 19.0568 43.0799C17.3821 42.3788 15.8644 41.3519 14.5924 40.0591C13.3204 38.7663 12.3196 37.2336 11.6486 35.5506C10.9776 33.8676 10.6498 32.0681 10.6843 30.2573V23.0403C10.6819 22.5186 10.479 22.0176 10.1173 21.6406C9.75563 21.2636 9.26274 21.0392 8.74014 21.0137C8.47628 21.0143 8.21526 21.0681 7.97281 21.1719C7.73035 21.2757 7.51146 21.4274 7.32932 21.6177C7.14067 21.8056 6.99104 22.0288 6.88896 22.2744C6.78689 22.52 6.73439 22.7833 6.73445 23.0492C6.73445 23.0403 6.73445 30.2553 6.73445 30.2553C6.72154 34.6066 8.3031 38.8126 11.1818 42.0828C14.0605 45.3529 18.038 47.4618 22.3665 48.013V56.4163Z" fill="white"/>
<defs>
<radialGradient id="paint0_radial_3337_1215" cx="0" cy="0" r="1" gradientUnits="userSpaceOnUse" gradientTransform="translate(83.2352 21.9267) scale(41.1293 41.7863)">
<stop offset="0.3" stop-color="#00FF31"/>
<stop offset="0.95" stop-color="#00AA31"/>
</radialGradient>
<radialGradient id="paint1_radial_3337_1215" cx="0" cy="0" r="1" gradientUnits="userSpaceOnUse" gradientTransform="translate(33.3118 21.8914) scale(41.0574 41.6949)">
<stop offset="0.3" stop-color="#00FF31"/>
<stop offset="0.95" stop-color="#00AA31"/>
</radialGradient>
<radialGradient id="paint2_radial_3337_1215" cx="0" cy="0" r="1" gradientUnits="userSpaceOnUse" gradientTransform="translate(125.02 21.9119) scale(41.0904 41.7203)">
<stop offset="0.3" stop-color="#00FF31"/>
<stop offset="0.95" stop-color="#00AA31"/>
</radialGradient>
</defs>
</svg>
