<svg width="407" height="43" viewBox="0 0 407 43" fill="none" xmlns="http://www.w3.org/2000/svg">
<path d="M11.832 42.56C10.264 42.56 8.71467 42.3733 7.184 42C5.65333 41.5893 4.29067 41.104 3.096 40.544C1.90133 39.9467 1.00533 39.3493 0.408 38.752L3.376 33.432C3.78667 33.768 4.42133 34.216 5.28 34.776C6.176 35.2987 7.20267 35.7653 8.36 36.176C9.51733 36.5867 10.6747 36.792 11.832 36.792C13.736 36.792 15.3227 36.344 16.592 35.448C17.8987 34.552 18.552 33.2453 18.552 31.528C18.552 30.1093 18.1787 28.9333 17.432 28C16.6853 27.0667 15.696 26.2453 14.464 25.536C13.2693 24.8267 11.9627 24.1547 10.544 23.52C9.16267 22.848 7.83733 22.1013 6.568 21.28C5.112 20.3093 3.84267 19.0213 2.76 17.416C1.67733 15.8107 1.136 13.7387 1.136 11.2C1.136 8.69866 1.696 6.64533 2.816 5.04C3.97333 3.43467 5.48533 2.24 7.352 1.456C9.256 0.634664 11.328 0.223997 13.568 0.223997C15.36 0.223997 16.8907 0.410664 18.16 0.783997C19.4293 1.15733 20.4933 1.60533 21.352 2.128C22.2107 2.65067 22.8827 3.11733 23.368 3.528L20.4 8.624C19.7653 7.952 18.8133 7.336 17.544 6.776C16.2747 6.17867 14.856 5.88 13.288 5.88C11.4587 5.88 10.0027 6.30933 8.92 7.168C7.83733 7.98933 7.296 9.22133 7.296 10.864C7.296 12.32 7.78133 13.5707 8.752 14.616C9.72267 15.624 10.9547 16.5573 12.448 17.416C13.9787 18.2373 15.5467 19.0773 17.152 19.936C18.7573 20.7947 20.176 21.8027 21.408 22.96C22.416 23.856 23.2747 24.976 23.984 26.32C24.6933 27.664 25.048 29.176 25.048 30.856C25.048 33.3947 24.4507 35.5413 23.256 37.296C22.0987 39.0507 20.5307 40.376 18.552 41.272C16.5733 42.1307 14.3333 42.56 11.832 42.56ZM59.7339 42V0.839999H77.7659V6.328H65.9499V17.696H75.4699V23.296H65.9499V36.456H79.6139V42H59.7339ZM113.931 42V0.839999H123.003C126.587 0.839999 129.461 1.36267 131.627 2.408C133.792 3.45333 135.36 4.90933 136.331 6.776C137.301 8.60533 137.787 10.7147 137.787 13.104C137.787 17.472 136.517 20.8507 133.979 23.24C131.44 25.592 127.595 26.768 122.443 26.768H120.259V42H113.931ZM120.259 21.224H122.611C125.075 21.224 126.941 20.832 128.211 20.048C129.48 19.264 130.339 18.2933 130.787 17.136C131.235 15.9787 131.459 14.8587 131.459 13.776C131.459 12.4693 131.216 11.256 130.731 10.136C130.245 9.016 129.405 8.10133 128.211 7.392C127.016 6.68267 125.336 6.328 123.171 6.328H120.259V21.224ZM171.57 42V0.839999H177.842V17.64H192.346V0.839999H198.618V42H192.346V22.904H177.842V42H171.57ZM253.991 42.56C251.191 42.56 248.541 42.0747 246.039 41.104C243.575 40.1333 241.391 38.7333 239.487 36.904C237.583 35.0373 236.071 32.7973 234.951 30.184C233.869 27.5707 233.327 24.6213 233.327 21.336C233.327 18.0133 233.869 15.0453 234.951 12.432C236.071 9.81866 237.583 7.59733 239.487 5.768C241.429 3.93866 243.631 2.55733 246.095 1.624C248.597 0.653332 251.229 0.167998 253.991 0.167998C256.754 0.167998 259.367 0.653332 261.831 1.624C264.333 2.55733 266.535 3.93866 268.439 5.768C270.381 7.59733 271.893 9.81866 272.975 12.432C274.095 15.0453 274.655 18.0133 274.655 21.336C274.655 24.6213 274.095 27.5707 272.975 30.184C271.893 32.7973 270.399 35.0373 268.495 36.904C266.591 38.7333 264.389 40.1333 261.887 41.104C259.423 42.0747 256.791 42.56 253.991 42.56ZM253.991 36.904C256.53 36.904 258.863 36.3067 260.991 35.112C263.119 33.9173 264.818 32.1813 266.087 29.904C267.357 27.5893 267.991 24.752 267.991 21.392C267.991 17.9947 267.357 15.1573 266.087 12.88C264.818 10.5653 263.119 8.82933 260.991 7.672C258.901 6.47733 256.567 5.88 253.991 5.88C251.415 5.88 249.063 6.47733 246.935 7.672C244.845 8.82933 243.165 10.5653 241.895 12.88C240.626 15.1573 239.991 17.9947 239.991 21.392C239.991 24.752 240.645 27.5893 241.951 29.904C243.258 32.1813 244.975 33.9173 247.103 35.112C249.231 36.3067 251.527 36.904 253.991 36.904ZM309.438 42V0.839999H318.79C320.881 0.839999 322.897 1.04533 324.838 1.456C326.817 1.86666 328.572 2.55733 330.102 3.528C331.633 4.49867 332.846 5.78667 333.742 7.392C334.638 8.99733 335.086 10.976 335.086 13.328C335.086 16.0533 334.452 18.424 333.182 20.44C331.913 22.456 329.99 24.0053 327.414 25.088L337.214 42H329.99L321.702 26.432C321.068 26.4693 320.284 26.5067 319.35 26.544C318.454 26.544 317.708 26.544 317.11 26.544H315.542V42H309.438ZM315.542 21.448H319.518C321.572 21.448 323.214 21.1867 324.446 20.664C325.716 20.1413 326.686 19.488 327.358 18.704C328.03 17.8827 328.478 17.0053 328.702 16.072C328.964 15.1013 329.094 14.2053 329.094 13.384C329.094 11.5547 328.665 10.1173 327.806 9.072C326.985 7.98933 325.828 7.224 324.334 6.776C322.878 6.29067 321.198 6.048 319.294 6.048H315.542V21.448ZM386.339 0.783997H386.955L406.779 42H399.555L396.027 33.936H377.155L373.627 42H366.627L386.339 0.783997ZM386.619 12.712L384.155 18.312L379.675 28.28H393.563L389.139 18.368L386.731 12.712H386.619Z" fill="white"/>
</svg>
