<svg width="387" height="118" viewBox="0 0 387 118" fill="none" xmlns="http://www.w3.org/2000/svg">
<path d="M76.5135 19.2671L58.6401 59.431L97.9408 41.2204L73.3493 43.8471L76.5135 19.2671Z" fill="#7AE8BC"/>
<path d="M19.1948 76.7462L59.2459 58.8223L41.0867 98.2335L43.706 73.5731L19.1948 76.7462Z" fill="#7AE8BC"/>
<path d="M98.6709 76.4849L58.6279 58.5796L76.7693 97.9824L74.1613 73.323L98.6709 76.4849Z" fill="#7AE8BC"/>
<path d="M41.3791 19.0317L59.2341 59.1874L19.9419 40.9949L44.5321 43.6103L41.3791 19.0317Z" fill="#7AE8BC"/>
<path d="M74.907 99.583L58.8199 58.6821L44.2671 99.5697L59.6177 80.1198L74.907 99.583Z" fill="#01EC8D"/>
<path d="M74.1105 18.3198L58.8281 59.5442L43.4771 18.9653L59.2057 38.0944L74.1105 18.3198Z" fill="#01EC8D"/>
<path d="M18.1865 74.498L59.1336 58.7434L18.5106 43.7734L37.7492 59.3458L18.1865 74.498Z" fill="#01EC8D"/>
<path d="M99.229 74.4462L58.2773 58.7415L98.8959 43.7222L79.6617 59.3178L99.229 74.4462Z" fill="#01EC8D"/>
<path d="M78.5094 39.0423C80.3597 40.8978 83.3563 40.901 85.2027 39.0494C87.0493 37.1979 87.0462 34.1925 85.1959 32.337C83.3456 30.4816 80.3487 30.4784 78.5023 32.33C76.656 34.1818 76.6591 37.1868 78.5094 39.0423Z" fill="#7AE8BC"/>
<path d="M32.9064 84.7777C34.7567 86.6332 37.7533 86.6363 39.5999 84.7848C41.4463 82.9332 41.4431 79.9279 39.5928 78.0724C37.7426 76.2169 34.7457 76.2138 32.8993 78.0653C31.053 79.9171 31.0561 82.9222 32.9064 84.7777Z" fill="#7AE8BC"/>
<path d="M80.0309 86.2684C81.8812 88.1239 84.8781 88.127 86.7244 86.2755C88.5708 84.4237 88.5676 81.4186 86.7174 79.5631C84.8671 77.7076 81.8704 77.7045 80.0238 79.556C78.1775 81.4076 78.1806 84.4129 80.0309 86.2684Z" fill="#7AE8BC"/>
<path d="M31.4908 37.5931C33.3411 39.4486 36.338 39.4517 38.1844 37.6002C40.0307 35.7484 40.0276 32.7433 38.1773 30.8878C36.327 29.0323 33.3304 29.0292 31.4838 30.8807C29.6374 32.7323 29.6406 35.7376 31.4908 37.5931Z" fill="#7AE8BC"/>
<path d="M88.9161 63.2982C90.7664 65.1537 93.7633 65.1568 95.6096 63.3053C97.456 61.4537 97.4529 58.4484 95.6026 56.5929C93.7523 54.7374 90.7557 54.7343 88.9093 56.5858C87.0627 58.4376 87.0658 61.4427 88.9161 63.2982Z" fill="#01EC8D"/>
<path d="M22.1949 61.1371C24.0452 62.9925 27.0419 62.9957 28.8885 61.1441C30.7349 59.2923 30.7317 56.2873 28.8815 54.4318C27.0312 52.5763 24.0344 52.5731 22.188 54.4247C20.3415 56.2762 20.3447 59.2816 22.1949 61.1371Z" fill="#01EC8D"/>
<path d="M55.1578 28.7074C57.0081 30.5628 60.005 30.566 61.8513 28.7144C63.6977 26.8629 63.6946 23.8576 61.8443 22.0021C59.994 20.1466 56.9974 20.1434 55.151 21.995C53.3044 23.8467 53.3075 26.8519 55.1578 28.7074Z" fill="#01EC8D"/>
<path d="M56.1725 95.5072C58.023 97.3626 61.0196 97.3658 62.866 95.5142C64.7126 93.6627 64.7092 90.6574 62.8589 88.8019C61.0086 86.9464 58.012 86.9433 56.1657 88.7948C54.319 90.6466 54.3222 93.6517 56.1725 95.5072Z" fill="#01EC8D"/>
<path d="M147.656 45.9451C147.347 44.5055 146.848 43.1133 146.172 41.8059C145.462 40.714 144.581 39.7435 143.562 38.9319C142.53 38.1287 141.347 37.5421 140.084 37.2073C137.319 36.4796 134.42 36.44 131.636 37.0916C130.35 37.4108 129.13 37.9559 128.034 38.7022C127.026 39.4425 126.181 40.3818 125.55 41.4624C124.92 42.7478 124.621 44.1709 124.681 45.6015C124.655 46.9161 125.046 48.2046 125.799 49.2816C126.618 50.343 127.629 51.2398 128.781 51.9245C130.132 52.6933 131.544 53.3471 133.005 53.8786C134.62 54.4534 136.234 55.0347 137.974 55.603C139.836 56.2934 141.825 56.982 143.688 57.7881C145.498 58.5315 147.209 59.497 148.782 60.6623C150.255 61.7314 151.484 63.1038 152.384 64.6874C153.38 66.475 153.853 68.5069 153.751 70.5512C153.804 72.3915 153.509 74.2252 152.882 75.9559C152.302 77.465 151.413 78.8361 150.272 79.981C149.176 81.1683 147.87 82.1425 146.421 82.8552C144.909 83.6474 143.329 84.3013 141.7 84.809C139.984 85.2648 138.241 85.6106 136.482 85.8448C134.71 86.0703 132.926 86.1857 131.14 86.1899C129.023 86.1896 126.909 86.0745 124.804 85.8448C122.676 85.6117 120.561 85.2661 118.469 84.809L117.723 84.4639C117.6 84.2342 117.474 84.1186 117.474 83.8891C117.351 83.3143 117.351 82.4026 117.225 81.129C117.12 79.9052 117.079 78.6769 117.102 77.449C117.102 76.1837 116.978 75.1498 116.978 74.114V72.3896L119.339 72.1599C119.536 73.7742 120.04 75.3354 120.823 76.7601C121.587 78.0261 122.602 79.1217 123.805 79.9794C125.055 80.8261 126.443 81.4486 127.905 81.8194C129.535 82.1949 131.202 82.3877 132.874 82.3942C134.419 82.4186 135.961 82.2644 137.471 81.9351C138.873 81.6151 140.215 81.0713 141.446 80.3245C142.561 79.5853 143.496 78.6027 144.179 77.4505C144.907 76.1559 145.25 74.6794 145.168 73.1957C145.194 71.9171 144.802 70.665 144.051 69.6311C143.226 68.6053 142.214 67.7462 141.068 67.1006C139.717 66.3318 138.304 65.6783 136.844 65.1468C135.229 64.572 133.615 63.9904 131.999 63.3065C130.136 62.6161 128.148 61.82 126.285 61.0074C124.475 60.264 122.763 59.2987 121.191 58.1334C119.713 57.0224 118.486 55.6119 117.588 53.994C116.593 52.1647 116.12 50.0958 116.222 48.0148C116.134 45.4707 116.781 42.9552 118.084 40.7701C119.326 38.8546 120.982 37.2435 122.93 36.0561C125.028 34.8832 127.289 34.0305 129.638 33.5257C132.176 33.0241 134.754 32.755 137.341 32.7212C139.251 32.7325 141.159 32.8478 143.056 33.0665C145.024 33.2784 146.975 33.6243 148.896 34.1021L149.641 34.4474C149.765 34.6768 149.89 34.7925 149.89 35.0222C150.014 35.597 150.014 36.5087 150.139 37.5526C150.262 38.7088 150.262 39.7377 150.388 40.8876C150.487 41.9194 150.528 42.9562 150.511 43.9928V45.605L147.656 45.9451Z" fill="white"/>
<path d="M150.264 27.5677C153.087 26.7986 155.949 26.179 158.837 25.7111C161.073 25.3626 162.439 25.1313 162.937 25.1313C163.927 25.1313 164.421 25.7111 164.421 26.7551V66.8924L177.467 53.7842C177.839 53.4357 178.088 53.32 178.337 53.0888C178.698 52.9369 179.072 52.8202 179.455 52.7403C180.188 52.5302 180.935 52.375 181.691 52.2761C182.559 52.1605 183.306 52.0448 184.051 51.9276C184.797 51.8104 185.535 51.812 186.163 51.6964C186.785 51.6964 187.153 51.5807 187.53 51.5807C188.025 51.5807 188.4 51.812 188.4 52.2761C188.345 52.5061 188.214 52.7104 188.028 52.8559L172.125 64.5736L189.518 83.5983C189.633 83.7761 189.718 83.9722 189.767 84.1781C189.757 84.3472 189.691 84.5082 189.578 84.6343C189.465 84.7607 189.312 84.8449 189.146 84.8735C188.651 84.9891 188.028 84.9891 187.283 85.1048C186.538 85.2204 185.799 85.2204 185.047 85.3361C184.302 85.3361 183.681 85.4514 183.059 85.4514H181.692C181.31 85.4304 180.933 85.3526 180.574 85.2204C180.213 84.9902 179.881 84.7172 179.585 84.4075L164.428 67.8191V83.7124C164.439 83.8697 164.419 84.0281 164.368 84.1778C164.318 84.3275 164.239 84.4657 164.135 84.5845C164.031 84.7033 163.904 84.8001 163.763 84.8696C163.621 84.9391 163.467 84.9797 163.31 84.9891C162.815 85.1048 162.192 85.1048 161.571 85.2204C160.949 85.336 160.327 85.336 159.831 85.4514C159.21 85.4514 158.713 85.5671 158.215 85.5671H157.098C156.353 85.5671 155.98 85.2186 155.98 84.4109V33.7205C156.118 32.5657 155.806 31.4022 155.109 30.4716C154.758 30.1572 154.343 29.9219 153.893 29.7819C153.444 29.6416 152.969 29.5997 152.501 29.6587C151.836 29.6429 151.172 29.6815 150.513 29.7743L150.264 27.5677Z" fill="white"/>
<path d="M190.021 54.491C191.76 54.0319 193.376 53.6883 194.743 53.3446C196.227 53.0011 197.476 52.7716 198.594 52.5419C199.712 52.3125 200.582 52.1984 201.327 52.0828C201.779 52.0057 202.236 51.9674 202.694 51.9687C203.683 51.9687 204.178 52.5419 204.178 53.5743V83.6129C204.188 83.7697 204.167 83.9268 204.117 84.0752C204.066 84.2236 203.986 84.3605 203.882 84.478C203.778 84.5952 203.652 84.6909 203.511 84.7591C203.37 84.827 203.217 84.8666 203.06 84.875C202.566 84.9888 201.942 84.9888 201.321 85.1044C200.699 85.22 200.078 85.2185 199.581 85.3341C198.96 85.3341 198.464 85.4482 197.966 85.4482H196.848C196.103 85.4482 195.73 85.1044 195.73 84.3017V60.4521C195.808 59.886 195.771 59.3099 195.622 58.7582C195.472 58.2064 195.214 57.6906 194.861 57.2412C194.527 56.9394 194.133 56.7118 193.705 56.5733C193.277 56.4351 192.824 56.389 192.377 56.4385H191.388C191.015 56.4385 190.643 56.5523 190.145 56.5523L190.021 54.491ZM204.681 38.4393C204.734 39.0794 204.638 39.7232 204.401 40.32C204.164 40.9165 203.792 41.4502 203.314 41.8784C202.137 42.6475 200.741 43.0099 199.339 42.9105C198.751 42.9559 198.159 42.8772 197.603 42.6797C197.047 42.4823 196.538 42.1705 196.109 41.7643C195.714 41.3112 195.411 40.7844 195.219 40.2135C195.027 39.6429 194.95 39.0401 194.992 38.4393C194.939 37.7993 195.034 37.1555 195.271 36.5587C195.508 35.9621 195.881 35.4285 196.358 35.0003C197.543 34.2477 198.933 33.8866 200.333 33.9679C200.922 33.9228 201.513 34.0015 202.069 34.1989C202.625 34.3964 203.134 34.7082 203.563 35.1144C203.959 35.5675 204.262 36.0943 204.453 36.6649C204.645 37.2357 204.722 37.8386 204.681 38.4393Z" fill="white"/>
<path d="M205.427 27.5677C208.25 26.7986 211.112 26.179 214 25.7111C216.236 25.3626 217.602 25.1313 217.976 25.1313C218.966 25.1313 219.46 25.7111 219.46 26.7551V83.7155C219.471 83.8731 219.451 84.0312 219.401 84.181C219.351 84.3307 219.271 84.4691 219.167 84.5877C219.064 84.7065 218.937 84.8035 218.795 84.873C218.654 84.9424 218.5 84.9828 218.343 84.9923C217.848 85.1079 217.225 85.1079 216.603 85.2236C215.982 85.3392 215.36 85.3392 214.864 85.4548C214.242 85.4548 213.746 85.5705 213.248 85.5705H212.13C211.385 85.5705 211.013 85.222 211.013 84.4143V33.7205C211.15 32.5659 210.839 31.4024 210.144 30.4716C209.792 30.1569 209.377 29.9217 208.927 29.7814C208.477 29.6414 208.002 29.5994 207.534 29.6589C206.869 29.6429 206.204 29.6815 205.546 29.7743L205.427 27.5677Z" fill="white"/>
<path d="M222.571 27.5677C225.395 26.7986 228.256 26.179 231.144 25.7111C233.38 25.3626 234.747 25.1313 235.119 25.1313C236.108 25.1313 236.603 25.7111 236.603 26.7551V83.7155C236.614 83.8731 236.594 84.0312 236.544 84.181C236.494 84.3307 236.414 84.4691 236.31 84.5877C236.206 84.7065 236.08 84.8035 235.938 84.873C235.796 84.9424 235.643 84.9828 235.485 84.9923C234.991 85.1079 234.367 85.1079 233.746 85.2236C233.124 85.3392 232.503 85.3392 232.007 85.4548C231.385 85.4548 230.889 85.5705 230.391 85.5705H229.273C228.528 85.5705 228.155 85.222 228.155 84.4143V33.7205C228.293 32.5657 227.981 31.4022 227.285 30.4716C226.933 30.1569 226.518 29.9217 226.068 29.7814C225.618 29.6414 225.143 29.5994 224.675 29.6589C224.01 29.6429 223.345 29.6815 222.687 29.7743L222.571 27.5677Z" fill="white"/>
<path d="M240.214 60.6733C240.207 60.0073 240.248 59.3415 240.337 58.6812C240.337 57.6903 240.461 56.6894 240.461 55.6932C240.585 54.5735 240.585 53.5773 240.71 52.5814C240.835 51.5855 240.834 50.8387 240.959 50.2162C241.083 49.9668 241.208 49.8428 241.454 49.8428C243.565 49.8428 245.305 49.8428 246.671 49.9668H266.301C267.668 49.9668 269.282 49.9668 271.394 49.8428C271.643 49.8428 271.768 49.9668 271.768 50.0921C271.891 50.4656 272.017 50.8387 272.14 51.3377C272.229 51.6605 272.27 51.994 272.263 52.3286C272.263 52.2049 272.263 52.3286 272.14 52.702L250.274 81.3317H262.449C263.558 81.3679 264.661 81.1553 265.678 80.7089C266.525 80.3888 267.26 79.8258 267.791 79.0903C268.345 78.3188 268.803 77.4831 269.156 76.6012C269.53 75.61 269.901 74.4851 270.275 73.3654L272.636 73.6148C272.644 74.322 272.602 75.029 272.514 75.7307C272.514 76.7216 272.388 77.7228 272.388 78.9665C272.265 80.0864 272.265 81.208 272.14 82.3276C272.014 83.4476 272.017 84.1941 271.891 84.8169C271.768 85.0663 271.643 85.1903 271.397 85.1903C269.284 85.1903 267.545 85.1903 266.178 85.0663H245.681C244.314 85.0663 242.575 85.0663 240.463 85.1903C240.338 85.1903 240.214 85.0658 240.09 84.8169C239.966 84.4435 239.841 83.9448 239.717 83.4476C239.635 83.1238 239.594 82.7907 239.594 82.4567C239.585 82.389 239.592 82.3206 239.614 82.2561C239.635 82.1913 239.671 82.1323 239.717 82.0833L261.087 53.7029H250.028C248.969 53.6432 247.91 53.812 246.922 54.1985C246.194 54.5518 245.524 55.0133 244.934 55.5679C244.35 56.2544 243.925 57.062 243.691 57.9331C243.318 58.8053 243.069 59.925 242.701 61.0449L240.214 60.6733Z" fill="white"/>
<path d="M298.11 59.5565C298.134 58.725 298.095 57.8927 297.988 57.0675C297.87 56.361 297.619 55.6845 297.242 55.0754C296.848 54.5014 296.283 54.0658 295.626 53.8301C294.667 53.5023 293.66 53.335 292.645 53.3345C291.105 53.2734 289.576 53.572 288.171 54.2066C287.005 54.7476 285.983 55.5584 285.19 56.5719C284.38 57.6352 283.828 58.8708 283.574 60.1827C283.219 61.6071 283.051 63.0721 283.08 64.54C283.044 66.5654 283.339 68.583 283.948 70.5142C284.513 72.279 285.4 73.9244 286.558 75.3687C287.727 76.7813 289.22 77.8911 290.907 78.6046C292.912 79.4473 295.067 79.8711 297.242 79.8499C297.948 79.8672 298.654 79.8257 299.355 79.7261C300.1 79.6023 300.971 79.4767 301.716 79.3527C302.585 79.2289 303.33 78.9795 304.075 78.8574C304.82 78.608 305.56 78.4839 306.311 78.2346L307.43 80.8492C305.945 81.472 304.323 82.0947 302.707 82.7157C301.131 83.3243 299.509 83.8212 297.862 84.2022C296.379 84.5756 294.881 84.949 293.514 85.1934C292.449 85.4069 291.369 85.5317 290.284 85.5666C287.978 85.5828 285.692 85.1163 283.574 84.1975C281.658 83.2716 279.961 81.9503 278.591 80.3198C277.218 78.6895 276.208 76.7871 275.623 74.7378C274.914 72.6131 274.579 70.3808 274.634 68.1409C274.569 65.3972 275.121 62.6743 276.25 60.1743C277.307 57.8216 278.878 55.7369 280.847 54.0745C282.866 52.343 285.18 50.9931 287.68 50.0905C290.363 49.1827 293.174 48.7201 296.006 48.7212C297.216 48.722 298.422 48.8471 299.609 49.0943C300.731 49.3162 301.818 49.693 302.838 50.2143C303.787 50.7122 304.601 51.4394 305.199 52.3302C305.835 53.3311 306.138 54.5074 306.068 55.6916C306.13 56.3815 306.015 57.0761 305.733 57.7083C305.45 58.3406 305.008 58.8891 304.452 59.3005C303.228 60.0773 301.8 60.4674 300.351 60.4205C299.645 60.4412 298.939 60.3998 298.239 60.2965V59.5499L298.11 59.5565Z" fill="white"/>
<path d="M308.423 52.8333C310.039 52.2108 311.653 51.588 313.269 51.0909C314.885 50.5937 316.375 50.2187 317.74 49.8453C319.003 49.5 320.292 49.2503 321.592 49.0988C322.709 48.975 323.705 48.8494 324.45 48.8494C326.38 48.8019 328.31 49.0537 330.163 49.5959C331.62 50.0488 332.914 50.9131 333.89 52.0852C334.917 53.3415 335.602 54.8425 335.88 56.4426C336.308 58.5306 336.515 60.6583 336.499 62.7902L336.251 78.3497C336.206 79.2698 336.29 80.1918 336.499 81.0883C336.625 81.9605 336.873 82.8308 336.996 83.5773V83.9507C336.996 84.4463 336.622 84.6973 336.005 84.8229C335.634 84.9467 335.134 84.9467 334.64 85.0723C334.143 85.1979 333.649 85.196 333.024 85.3216C332.53 85.3216 331.905 85.4457 331.408 85.4457H330.048C329.776 85.4622 329.51 85.3728 329.303 85.196C329.157 84.9157 329.031 84.6241 328.929 84.3239L328.31 82.0842L324.581 83.5708C323.339 84.0664 322.097 84.4429 320.977 84.8163C319.968 85.1546 318.927 85.4042 317.874 85.5629C317.1 85.7509 316.307 85.8348 315.512 85.8122C314.014 85.8741 312.521 85.5752 311.164 84.9401C309.995 84.3991 308.973 83.5883 308.18 82.5748C307.435 81.6387 306.849 80.5877 306.441 79.4628C306.068 78.4233 305.858 77.3317 305.819 76.2272C305.782 74.6353 306.12 73.0575 306.808 71.6221C307.43 70.3986 308.322 69.3339 309.42 68.5103C310.479 67.7168 311.65 67.0875 312.898 66.6438C314.304 66.1243 315.763 65.7491 317.246 65.5239C318.862 65.2745 320.601 65.0282 322.34 64.9011C324.204 64.7773 326.069 64.6517 328.179 64.6517V63.033C328.228 61.6999 328.145 60.3654 327.93 59.0491C327.711 58.0023 327.334 56.9951 326.814 56.061C326.244 55.2531 325.472 54.6094 324.578 54.1945C323.469 53.7629 322.288 53.5516 321.1 53.5718C319.301 53.6017 317.513 53.8104 315.758 54.1945C313.617 54.6644 311.501 55.246 309.422 55.937L308.423 52.8333ZM328.053 67.8956C326.568 68.0197 325.195 68.0197 323.83 68.145C322.586 68.2691 321.344 68.3947 320.227 68.5184C319.241 68.6186 318.279 68.8703 317.369 69.265C316.6 69.5416 315.915 70.0134 315.382 70.6343C314.982 71.1267 314.647 71.6714 314.393 72.253C314.127 72.9696 314.001 73.7304 314.019 74.4945C314.043 75.1647 314.124 75.8315 314.268 76.4866C314.516 77.2132 314.895 77.8882 315.387 78.4784C315.96 79.1379 316.684 79.6479 317.5 79.9649C318.564 80.3976 319.704 80.6095 320.855 80.5877C321.147 80.5998 321.443 80.5578 321.723 80.464C322.094 80.3399 322.711 80.3399 323.339 80.2143C324.053 80.0475 324.759 79.8396 325.449 79.5918C326.194 79.3424 326.934 78.969 327.81 78.6006L328.053 67.8956Z" fill="white"/>
<path d="M365.819 28.3788C365.174 27.5989 364.368 26.9659 363.458 26.5222C362.433 26.0342 361.345 25.6832 360.229 25.4783C359.125 25.2477 358.001 25.1309 356.874 25.1298C354.534 25.08 352.207 25.5146 350.041 26.4066C347.947 27.2205 346.012 28.3987 344.325 29.8868C343.4 30.765 342.566 31.737 341.841 32.7872C341.054 33.892 340.427 35.1027 339.977 36.3831C339.462 37.9008 339.046 39.4508 338.735 41.0229C338.476 42.9455 338.35 44.8838 338.361 46.824V84.4112C338.345 84.5641 338.361 84.719 338.41 84.8648C338.46 85.0106 338.541 85.1436 338.648 85.2542C338.753 85.3649 338.884 85.4504 339.028 85.5044C339.171 85.5587 339.326 85.5799 339.48 85.5673H340.597C341.138 85.5823 341.679 85.5437 342.212 85.4517C342.798 85.4318 343.381 85.3544 343.951 85.2204C344.574 85.1048 345.196 85.1048 345.69 84.9891C345.85 84.9797 346.004 84.939 346.145 84.8696C346.286 84.8003 346.412 84.7033 346.517 84.5845C346.621 84.4657 346.7 84.3275 346.749 84.1778C346.802 84.0281 346.82 83.87 346.809 83.7124V56.3364H357.617L357.868 53.5516C357.86 53.2631 357.774 52.982 357.617 52.7387C357.389 52.6097 357.136 52.5307 356.871 52.5077C355.883 52.5077 354.513 52.5077 352.771 52.6233C351.032 52.6233 349.045 52.7387 346.932 52.8543V41.6026C346.932 39.979 347.055 38.3537 347.181 36.8457C347.275 35.4669 347.654 34.123 348.3 32.9013C348.812 31.7709 349.631 30.8064 350.661 30.1165C351.848 29.3723 353.234 29.0084 354.636 29.0726C355.488 29.0215 356.343 29.1809 357.12 29.5367C357.708 29.7838 358.221 30.1829 358.602 30.6929C358.955 31.211 359.17 31.8102 359.225 32.4338C359.332 33.1633 359.374 33.9006 359.348 34.6372V35.5655C360.007 35.6583 360.673 35.6971 361.338 35.6811C362.088 35.6615 362.833 35.5844 363.573 35.4498C364.193 35.3043 364.776 35.034 365.289 34.6551C365.801 34.2764 366.233 33.7971 366.554 33.2467C366.863 32.5924 367.03 31.8815 367.048 31.1588C366.811 30.165 366.395 29.2231 365.819 28.3788Z" fill="white"/>
<path d="M386.195 80.8409C384.621 81.6014 383.005 82.2666 381.349 82.833C379.611 83.4555 377.995 83.9527 376.381 84.4517C374.912 84.8741 373.419 85.2051 371.91 85.4426C370.762 85.6708 369.598 85.7959 368.429 85.816C366.068 85.8685 363.725 85.359 361.597 84.3295C359.691 83.4023 357.999 82.0883 356.629 80.4709C355.258 78.8105 354.205 76.912 353.522 74.8698C352.821 72.7857 352.487 70.5954 352.534 68.3966C352.479 65.6543 353.03 62.934 354.147 60.4303C355.159 58.1162 356.639 56.0386 358.498 54.3302C360.378 52.6043 362.572 51.2523 364.957 50.3463C367.454 49.3897 370.113 48.9248 372.786 48.977C374.444 48.93 376.094 49.2271 377.631 49.8491C378.936 50.3418 380.12 51.1052 381.109 52.089C382.066 53.1009 382.824 54.283 383.345 55.5742C383.855 57.0125 384.106 58.5295 384.09 60.0553C384.048 61.8303 383.755 63.5901 383.219 65.283L360.857 66.5286C360.93 68.4152 361.354 70.272 362.099 72.0056C362.711 73.6196 363.689 75.0686 364.957 76.2376C366.249 77.4727 367.768 78.4447 369.428 79.1C371.387 79.7818 373.447 80.1172 375.518 80.091C377.145 80.0988 378.771 79.9326 380.364 79.5954C381.925 79.2479 383.462 78.7903 384.961 78.2263L386.195 80.8409ZM375.633 62.5428C375.759 62.0472 375.759 61.6706 375.884 61.2975V60.0519C375.89 59.2078 375.764 58.3677 375.51 57.5629C375.265 56.7978 374.886 56.0819 374.394 55.4468C373.884 54.856 373.246 54.3879 372.53 54.0777C371.711 53.7114 370.817 53.5417 369.92 53.5821C368.544 53.5318 367.177 53.8318 365.945 54.4543C364.855 54.9475 363.911 55.7208 363.213 56.6957C362.454 57.6505 361.905 58.7524 361.597 59.9313C361.259 61.1931 361.05 62.4859 360.974 63.7899L375.633 62.5428Z" fill="white"/>
</svg>
