<svg width="370" height="123" viewBox="0 0 370 123" fill="none" xmlns="http://www.w3.org/2000/svg">
<mask id="mask0_3322_323" style="mask-type:luminance" maskUnits="userSpaceOnUse" x="74" y="14" width="26" height="27">
<path d="M74.9133 40.0296L74.9532 40.0209L83.4426 38.0008C84.6918 33.0666 86.2146 28.2259 89.2812 25.1663C90.7857 23.4375 92.8545 22.2981 95.1198 21.9507C95.9778 21.8643 96.8407 22.0586 97.5789 22.5044C98.3171 22.9502 98.8907 23.6234 99.2137 24.423C99.2792 22.498 98.9277 20.5817 98.183 18.8053C97.4384 17.029 96.3184 15.4347 94.8997 14.1318C94.5879 14.1578 94.2761 14.1907 93.9642 14.2375C90.0957 14.9735 86.5378 16.8556 83.7527 19.6396C78.7283 24.6639 77.0392 31.594 75.3534 38.2192C75.1906 38.8117 75.0381 39.4042 74.9133 40.0296Z" fill="white"/>
</mask>
<g mask="url(#mask0_3322_323)">
<path d="M106.397 23.7857L88.8228 6.21191L64.2428 30.7919L81.8165 48.3657L106.397 23.7857Z" fill="url(#paint0_linear_3322_323)"/>
</g>
<mask id="mask1_3322_323" style="mask-type:luminance" maskUnits="userSpaceOnUse" x="85" y="47" width="34" height="16">
<path d="M85.9019 55.9108L85.9365 55.9333L93.3655 60.5054C97.7367 57.9066 102.241 55.559 106.569 55.559C108.858 55.3989 111.13 56.0565 112.98 57.4146C113.647 57.9602 114.12 58.7077 114.327 59.5449C114.534 60.3822 114.463 61.2639 114.126 62.0578C115.534 60.7429 116.641 59.1392 117.37 57.3566C118.1 55.5739 118.435 53.6546 118.354 51.7302C118.115 51.5275 117.87 51.3317 117.618 51.1446C114.361 48.9294 110.514 47.7444 106.576 47.7437C99.4727 47.7437 93.3725 51.453 87.4992 54.9423C86.9622 55.2489 86.432 55.5573 85.9019 55.9108Z" fill="white"/>
</mask>
<g mask="url(#mask1_3322_323)">
<path d="M118.978 67.4527V42.5996H85.3725V67.4527H118.978Z" fill="url(#paint1_linear_3322_323)"/>
</g>
<mask id="mask2_3322_323" style="mask-type:luminance" maskUnits="userSpaceOnUse" x="82" y="74" width="27" height="26">
<path d="M82.4304 74.8975L82.4391 74.9373L84.4592 83.4266C89.3935 84.6758 94.2324 86.1987 97.2938 89.2653C99.0225 90.7699 100.162 92.8386 100.509 95.1039C100.596 95.9619 100.401 96.8248 99.9556 97.563C99.5098 98.3012 98.8366 98.8749 98.037 99.1978C99.962 99.2634 101.878 98.9117 103.655 98.1671C105.431 97.4225 107.025 96.3024 108.328 94.8838C108.302 94.572 108.269 94.2601 108.223 93.9482C107.486 90.0798 105.604 86.522 102.82 83.7368C97.7962 78.7125 90.8661 77.0233 84.2409 75.3375C83.6466 75.1781 83.0541 75.0222 82.4304 74.8975Z" fill="white"/>
</mask>
<g mask="url(#mask2_3322_323)">
<path d="M99.1323 104.985L115.889 88.228L92.126 64.4652L75.3694 81.2218L99.1323 104.985Z" fill="url(#paint2_linear_3322_323)"/>
</g>
<mask id="mask3_3322_323" style="mask-type:luminance" maskUnits="userSpaceOnUse" x="60" y="85" width="15" height="34">
<path d="M66.5574 85.8818L66.5348 85.9165L61.9627 93.3438C64.5615 97.715 66.9091 102.22 66.9091 106.547C67.0691 108.836 66.4116 111.108 65.0536 112.958C64.508 113.626 63.7603 114.098 62.9231 114.305C62.0859 114.512 61.2042 114.442 60.4104 114.105C61.7249 115.512 63.3283 116.619 65.1107 117.348C66.893 118.078 68.812 118.414 70.7362 118.332C70.9389 118.093 71.1346 117.849 71.3235 117.596C73.5388 114.34 74.7238 110.493 74.7245 106.554C74.7245 99.451 71.0152 93.3508 67.5259 87.4775C67.2192 86.9387 66.9108 86.4189 66.5574 85.8818Z" fill="white"/>
</mask>
<g mask="url(#mask3_3322_323)">
<path d="M54.7383 119.489H80.5858V84.9704H54.7383V119.489Z" fill="url(#paint3_linear_3322_323)"/>
</g>
<mask id="mask4_3322_323" style="mask-type:luminance" maskUnits="userSpaceOnUse" x="23" y="82" width="25" height="27">
<path d="M47.5535 82.4302H47.5136L39.0243 84.4503C37.7752 89.3846 36.2523 94.2252 33.1857 97.2849C31.6809 99.0133 29.6123 100.153 27.3471 100.5C26.4891 100.587 25.6262 100.393 24.888 99.9467C24.1498 99.5009 23.5761 98.8277 23.2531 98.0281C23.1876 99.9531 23.5393 101.869 24.2839 103.646C25.0285 105.422 26.1485 107.016 27.5671 108.319C27.8789 108.293 28.1908 108.26 28.5027 108.214C32.3711 107.477 35.9289 105.595 38.7142 102.812C43.7385 97.7873 45.4277 90.8572 47.1135 84.232C47.2711 83.6482 47.4287 83.0539 47.5535 82.4302Z" fill="white"/>
</mask>
<g mask="url(#mask4_3322_323)">
<path d="M15.0626 96.6972L32.6364 114.271L56.3992 90.5081L38.8255 72.9343L15.0626 96.6972Z" fill="url(#paint4_linear_3322_323)"/>
</g>
<mask id="mask5_3322_323" style="mask-type:luminance" maskUnits="userSpaceOnUse" x="4" y="60" width="33" height="15">
<path d="M36.5787 66.5447L36.5441 66.5222L29.115 61.9517C24.7439 64.5505 20.2393 66.8981 15.9114 66.8981C13.6224 67.058 11.3509 66.4004 9.50116 65.0426C8.83329 64.497 8.36046 63.7494 8.15366 62.9122C7.94685 62.0749 8.01714 61.1932 8.35415 60.3994C6.94648 61.7142 5.83989 63.3179 5.11021 65.1005C4.38053 66.8831 4.04502 68.8025 4.12678 70.727C4.36587 70.928 4.61024 71.1254 4.86319 71.3126C8.11889 73.5273 11.9652 74.7123 15.9029 74.7135C23.0062 74.7135 29.1064 71.0042 34.9797 67.5149C35.5202 67.2065 36.0486 66.8981 36.5787 66.5447Z" fill="white"/>
</mask>
<g mask="url(#mask5_3322_323)">
<path d="M3.52185 54.6294L3.52185 79.4824H37.1276V54.6294H3.52185Z" fill="url(#paint5_linear_3322_323)"/>
</g>
<mask id="mask6_3322_323" style="mask-type:luminance" maskUnits="userSpaceOnUse" x="14" y="23" width="27" height="25">
<path d="M40.0504 47.5581V47.5182L38.0302 39.0289C33.096 37.7797 28.2571 36.2568 25.1957 33.1903C23.4673 31.6855 22.328 29.6168 21.9801 27.3517C21.8938 26.4936 22.088 25.6308 22.5338 24.8926C22.9796 24.1544 23.6529 23.5807 24.4525 23.2577C22.5275 23.1923 20.6111 23.544 18.8348 24.2886C17.0584 25.0332 15.4642 26.1532 14.1613 27.5717C14.1872 27.8835 14.2201 28.1954 14.2669 28.5072C15.0029 32.3757 16.8851 35.9336 19.669 38.7188C24.6933 43.7431 31.6234 45.4323 38.2486 47.118C38.8324 47.2774 39.4267 47.4334 40.0504 47.5581Z" fill="white"/>
</mask>
<g mask="url(#mask6_3322_323)">
<path d="M22.0199 18.0302L4.44617 35.604L29.0262 60.184L46.5999 42.6102L22.0199 18.0302Z" fill="url(#paint6_linear_3322_323)"/>
</g>
<path d="M50.1211 66.459L44.9236 62.8882C44.6152 62.6665 37.2397 57.8103 33.9272 55.8231C33.9272 55.8231 33.2342 55.3899 33.0003 55.2496C27.7802 52.0981 22.1807 49.2429 15.909 49.2429C11.9682 49.2228 8.11563 50.4096 4.86931 52.6438C3.12804 53.878 1.75153 55.5586 0.88452 57.5088C-0.0593635 59.7717 -0.253757 62.2773 0.329888 64.6587C0.913534 67.04 2.24445 69.1719 4.12772 70.7418C4.0452 68.8165 4.38038 66.8961 5.11009 65.1125C5.83979 63.329 6.94673 61.7244 8.35508 60.409C8.64819 59.8338 9.05487 59.324 9.55053 58.9104C11.413 57.6194 13.6384 56.9555 15.9038 57.015C20.2351 56.9994 24.7396 59.399 29.1073 61.9614C29.1073 61.9614 34.7502 65.371 36.5918 66.5699C39.5579 68.5016 48.2587 74.5932 48.2587 74.5932C49.733 74.2865 50.7778 74.0734 50.9025 74.0526L57.2955 72.8624C55.7309 72.3316 54.2893 71.491 53.0566 70.3909C51.824 69.2907 50.8257 67.9534 50.1211 66.459Z" fill="#05C6AA"/>
<path d="M61.2268 73.5088C59.8092 73.5093 58.4023 73.2638 57.0687 72.7829L50.8646 73.9368C50.4903 73.9991 41.8398 75.7802 38.0924 76.7088C38.0924 76.7088 37.2955 76.8942 37.0304 76.9583C31.1121 78.4206 25.1331 80.3627 20.6996 84.7962C17.8986 87.5688 16.0135 91.1323 15.2976 95.0078C14.9411 97.1111 15.1578 99.2715 15.9248 101.262C16.8574 103.529 18.4916 105.438 20.588 106.71C22.6844 107.981 25.1327 108.547 27.5743 108.326C26.1546 107.023 25.0336 105.428 24.2883 103.651C23.5431 101.874 23.1912 99.9568 23.2568 98.031C23.0578 97.4167 22.9853 96.7684 23.0437 96.1252C23.4473 93.8952 24.5512 91.8518 26.1951 90.2918C29.2444 87.22 34.1267 85.7318 39.0297 84.4515C39.0297 84.4515 45.4313 82.8714 47.5814 82.4175C51.0465 81.6846 61.504 79.8412 61.504 79.8412C62.3304 78.5799 62.9177 77.6929 62.9922 77.5889L66.6704 72.2285C64.9792 73.0703 63.1159 73.5086 61.2268 73.5088Z" fill="#05C6AA"/>
<path d="M60.4024 114.108C59.8271 113.815 59.3173 113.408 58.9037 112.912C57.6127 111.05 56.9488 108.825 57.0084 106.559C56.9928 102.228 59.3923 97.7234 61.9547 93.3557C61.9547 93.3557 65.3643 87.7128 66.5632 85.8712C68.4949 82.9051 74.5866 74.2043 74.5866 74.2043C74.2799 72.73 74.0667 71.6852 74.0477 71.5605L72.8574 65.1675C72.3258 66.7327 71.4842 68.1748 70.3828 69.4074C69.2814 70.6401 67.9429 71.6381 66.4472 72.3419L62.8747 77.5395C62.6529 77.8479 57.7966 85.2232 55.8094 88.5358C55.8094 88.5358 55.3762 89.2288 55.2342 89.4627C52.0844 94.6828 49.2275 100.282 49.2275 106.552C49.2073 110.493 50.3942 114.346 52.6285 117.592C53.8628 119.333 55.5433 120.71 57.4934 121.577C59.7563 122.521 62.262 122.715 64.6434 122.131C67.0247 121.548 69.1565 120.217 70.7264 118.333C68.8027 118.415 66.8841 118.08 65.1021 117.35C63.3201 116.621 61.7168 115.515 60.4024 114.108Z" fill="#05C6AA"/>
<path d="M108.328 94.8935C107.025 96.3132 105.431 97.4341 103.654 98.1794C101.877 98.9246 99.9594 99.2765 98.0336 99.2109C97.4192 99.4099 96.771 99.4824 96.1278 99.4241C93.8972 99.0207 91.8532 97.9168 90.2927 96.2726C87.2227 93.2234 85.7344 88.3411 84.454 83.4381C84.454 83.4381 82.8741 77.0364 82.4201 74.8863C81.689 71.4213 79.8439 60.9637 79.8439 60.9637C78.5826 60.1373 77.6955 59.55 77.5915 59.4755L72.2311 55.7974C72.9623 57.2791 73.3874 58.893 73.4812 60.5427C73.575 62.1923 73.3354 63.8439 72.7768 65.399L73.9307 71.6032C73.9931 71.9774 75.7723 80.6262 76.7027 84.3753C76.7027 84.3753 76.8882 85.1723 76.9523 85.4374C78.4145 91.3557 80.3567 97.3346 84.7902 101.768C87.5626 104.569 91.1261 106.454 95.0017 107.17C97.1044 107.526 99.2642 107.31 101.254 106.543C103.524 105.612 105.435 103.979 106.708 101.882C107.981 99.7855 108.549 97.3363 108.328 94.8935Z" fill="#05C6AA"/>
<path d="M118.333 51.723C118.415 53.6483 118.08 55.5686 117.35 57.3522C116.621 59.1357 115.514 60.7403 114.105 62.0557C113.812 62.6308 113.405 63.1406 112.91 63.5544C111.048 64.846 108.822 65.5105 106.557 65.4515C102.225 65.4671 97.7208 63.0675 93.3531 60.5051C93.3531 60.5051 87.7103 57.0973 85.8686 55.8983C82.9025 53.9666 74.2018 47.875 74.2018 47.875C72.7274 48.1817 71.6827 48.3948 71.5579 48.4138L65.1649 49.6041C66.7299 50.1362 68.1717 50.978 69.4043 52.0793C70.6369 53.1807 71.6351 54.5189 72.3393 56.0144L77.5369 59.5869C77.8452 59.8069 85.2207 64.6649 88.5333 66.6521C88.5333 66.6521 89.2262 67.0852 89.4601 67.2256C94.6802 70.3753 100.28 73.2323 106.55 73.2323C110.491 73.2525 114.343 72.0656 117.589 69.8313C119.331 68.5971 120.707 66.9166 121.574 64.9664C122.52 62.7024 122.716 60.1947 122.133 57.8112C121.549 55.4278 120.218 53.294 118.333 51.723Z" fill="#05C6AA"/>
<path d="M106.534 21.1912C105.602 18.9236 103.968 17.0141 101.871 15.7427C99.7749 14.4713 97.3264 13.9047 94.8846 14.1259C96.3044 15.4288 97.4254 17.0234 98.1706 18.8004C98.9159 20.5774 99.2677 22.4947 99.202 24.4206C99.4018 25.0348 99.4749 25.6831 99.4169 26.3263C99.0132 28.5564 97.9093 30.5997 96.2654 32.1598C93.2162 35.2298 88.3339 36.718 83.4308 38.0001C83.4308 38.0001 77.0292 39.5801 74.8791 40.0341C71.4141 40.7652 60.9565 42.6103 60.9565 42.6103C60.1319 43.8716 59.5428 44.7587 59.4683 44.8626L55.7902 50.2231C57.2719 49.4919 58.8858 49.0667 60.5355 48.9729C62.1851 48.8792 63.8367 49.1187 65.3918 49.6773L71.5943 48.5234C71.9685 48.461 80.6189 46.6818 84.3647 45.7514C84.3647 45.7514 85.1617 45.566 85.4268 45.5019C91.3451 44.0379 97.3239 42.0975 101.757 37.664C104.559 34.8917 106.444 31.3281 107.16 27.4525C107.518 25.3471 107.302 23.184 106.534 21.1912Z" fill="#05C6AA"/>
<path d="M48.95 61.2264C48.9491 59.8089 49.1941 58.4021 49.6742 57.0684L48.5204 50.8642C48.458 50.4899 46.6787 41.8394 45.7484 38.0937C45.7484 38.0937 45.5647 37.2968 45.4989 37.0317C44.0349 31.1134 42.0961 25.1345 37.6609 20.7009C34.8886 17.8997 31.325 16.0146 27.4494 15.2989C25.3461 14.9423 23.1856 15.1589 21.195 15.9261C18.9277 16.8587 17.0187 18.493 15.7476 20.5893C14.4765 22.6857 13.9101 25.134 14.1315 27.5756C15.4344 26.1559 17.0291 25.035 18.8061 24.2897C20.5831 23.5445 22.5003 23.1925 24.4262 23.2581C25.0405 23.0591 25.6888 22.9866 26.3319 23.045C28.5619 23.4489 30.6052 24.5528 32.1653 26.1965C35.2354 29.2458 36.7236 34.128 38.0039 39.031C38.0039 39.031 39.584 45.431 40.0379 47.581C40.7708 51.0461 42.6142 61.5036 42.6142 61.5036C43.8755 62.3283 44.7625 62.9173 44.8664 62.9918L50.2269 66.67C49.3864 64.9785 48.9493 63.1152 48.95 61.2264Z" fill="#05C6AA"/>
<path d="M55.9999 50.1194L59.5724 44.9218C59.7924 44.6134 64.6504 37.2381 66.6376 33.9255C66.6376 33.9255 67.0707 33.2325 67.211 32.9986C70.3608 27.7785 73.2177 22.1789 73.2177 15.9089C73.238 11.9681 72.0511 8.11549 69.8167 4.86927C68.5825 3.12806 66.902 1.75157 64.9518 0.884484C62.6889 -0.0593995 60.1833 -0.253741 57.802 0.329905C55.4206 0.91355 53.2887 2.24452 51.7188 4.12779C53.6441 4.04515 55.5645 4.38018 57.3481 5.10989C59.1317 5.8396 60.7362 6.94671 62.0515 8.35515C62.6267 8.64834 63.1365 9.05501 63.5502 9.5506C64.8415 11.4129 65.5055 13.6384 65.4456 15.9038C65.4612 20.2351 63.0616 24.7396 60.4992 29.1073C60.4992 29.1073 57.0896 34.7519 55.8907 36.5918C53.959 39.5579 47.8691 48.2586 47.8691 48.2586C48.1758 49.733 48.3889 50.7777 48.4079 50.9025L49.5982 57.2955C50.1291 55.731 50.9695 54.2894 52.0693 53.0565C53.1691 51.8237 54.5059 50.8248 55.9999 50.1194Z" fill="#05C6AA"/>
<mask id="mask7_3322_323" style="mask-type:luminance" maskUnits="userSpaceOnUse" x="47" y="4" width="16" height="33">
<path d="M55.9009 36.5668L55.9234 36.5321L60.4955 29.1048C57.8967 24.7336 55.5492 20.229 55.5492 15.9012C55.389 13.6121 56.0465 11.3405 57.4047 9.49089C57.9503 8.82302 58.6978 8.35019 59.535 8.14338C60.3722 7.93657 61.254 8.00691 62.0478 8.34393C60.7331 6.93616 59.1295 5.82952 57.3468 5.09983C55.5642 4.37014 53.6447 4.03469 51.7202 4.11656C51.5175 4.35565 51.3217 4.59823 51.1346 4.85292C48.9197 8.10857 47.7349 11.9549 47.7338 15.8926C47.7338 22.9959 51.443 29.0961 54.9323 34.9694C55.239 35.5082 55.5474 36.0366 55.9009 36.5668Z" fill="white"/>
</mask>
<g mask="url(#mask7_3322_323)">
<path d="M68.8489 3.20068H42.9182V36.5639H68.8489V3.20068Z" fill="url(#paint7_linear_3322_323)"/>
</g>
<path d="M135.764 51.1941L139.666 48.2488C140.38 49.4276 141.374 50.4121 142.56 51.1147C143.745 51.8174 145.086 52.2166 146.463 52.277C147.492 52.3367 148.512 52.0487 149.358 51.4592C149.7 51.1956 149.975 50.8533 150.157 50.4612C150.34 50.0692 150.425 49.639 150.406 49.207C150.425 48.8696 150.372 48.5319 150.249 48.217C150.126 47.9021 149.937 47.6175 149.694 47.3826C148.833 46.7215 147.888 46.1785 146.884 45.7678L143.904 44.4252C139.428 42.4397 137.191 39.7831 137.192 36.4555C137.157 35.3718 137.374 34.2947 137.825 33.3086C138.276 32.3224 138.948 31.454 139.791 30.7711C141.656 29.2865 143.992 28.5201 146.374 28.6107C148.287 28.5695 150.174 29.0556 151.828 30.0158C153.382 30.9396 154.657 32.2654 155.52 33.8534L151.66 36.8332C151.131 35.8893 150.365 35.0991 149.439 34.54C148.512 33.9808 147.456 33.6719 146.374 33.6437C145.493 33.6064 144.624 33.857 143.898 34.3574C143.587 34.5806 143.336 34.8776 143.168 35.2217C142.999 35.5658 142.919 35.9462 142.933 36.3291C142.921 36.6453 142.977 36.9606 143.096 37.2537C143.216 37.5468 143.397 37.811 143.626 38.0287C144.394 38.6481 145.25 39.1502 146.165 39.5186L149.311 40.9046C151.267 41.6832 153.038 42.8637 154.508 44.3697C155.615 45.656 156.198 47.3104 156.144 49.006C156.182 50.1514 155.955 51.2902 155.482 52.3342C155.01 53.3782 154.303 54.2993 153.417 55.0264C151.447 56.6032 148.974 57.4153 146.452 57.3134C144.283 57.3511 142.143 56.8019 140.26 55.7238C138.377 54.6458 136.82 53.0789 135.754 51.189L135.764 51.1941Z" fill="black"/>
<path d="M191.178 29.1235L181.649 45.9048V56.8197H175.991V45.9533L166.426 29.1305H172.718L178.844 40.1216L184.927 29.1305L191.178 29.1235Z" fill="black"/>
<path d="M221.389 29.1285H227.053V57.3218H225.164L209.138 40.2045V56.8177H203.475V28.626H205.32L221.389 45.6584V29.1285Z" fill="black"/>
<path d="M241.786 56.8127V29.1235H260.414V34.2432H247.45V39.8652H256.979V44.6902H247.45V51.6966H260.917V56.8145L241.786 56.8127Z" fill="black"/>
<path d="M297.586 56.8183H291.209L284.034 47.0434H279.876V56.8183H274.213V29.1291H284.616C287.233 29.0268 289.794 29.9103 291.791 31.6049C292.71 32.4052 293.439 33.4004 293.926 34.5179C294.412 35.6355 294.643 36.8473 294.603 38.0655C294.626 39.7143 294.182 41.3361 293.322 42.7433C292.46 44.1352 291.215 45.2492 289.736 45.9519L297.586 56.8183ZM279.881 34.1222V42.0451H284.622C285.182 42.0779 285.744 41.9983 286.274 41.8109C286.803 41.6234 287.29 41.3319 287.705 40.9536C288.08 40.5737 288.373 40.1205 288.564 39.6223C288.756 39.1241 288.842 38.5917 288.818 38.0585C288.838 37.5283 288.746 36.9999 288.547 36.508C288.348 36.0161 288.047 35.572 287.664 35.2051C286.833 34.4557 285.741 34.064 284.623 34.1153L279.881 34.1222Z" fill="black"/>
<path d="M307.237 42.9695C307.172 41.064 307.519 39.1669 308.254 37.4076C308.989 35.6483 310.094 34.0683 311.496 32.7754C312.879 31.4014 314.529 30.3239 316.343 29.609C318.157 28.894 320.098 28.5566 322.047 28.6173C324.34 28.5448 326.615 29.0576 328.655 30.1072C330.696 31.1569 332.435 32.709 333.71 34.6171L329.682 37.9313C328.84 36.6599 327.691 35.6208 326.342 34.9097C324.993 34.1985 323.487 33.8381 321.962 33.8616C320.774 33.818 319.59 34.0232 318.486 34.4638C317.382 34.9045 316.383 35.571 315.552 36.4205C314.236 37.7259 313.343 39.3964 312.987 41.2155C312.632 43.0346 312.832 44.9185 313.56 46.6229C314.288 48.3273 315.511 49.7737 317.071 50.7747C318.631 51.7756 320.456 52.285 322.308 52.2368C323.716 52.3205 325.122 52.0493 326.398 51.4482C327.674 50.847 328.778 49.935 329.609 48.796V46.5299H321.974V41.6216H335.273V49.8026C333.985 52.0692 332.117 53.9517 329.861 55.2566C327.5 56.6448 324.802 57.3563 322.064 57.3131C320.126 57.3816 318.194 57.0501 316.389 56.3392C314.585 55.6283 312.946 54.5532 311.576 53.181C310.166 51.8865 309.05 50.3057 308.302 48.5445C307.554 46.7833 307.191 44.8825 307.237 42.9695Z" fill="black"/>
<path d="M370 29.1235L360.471 45.9048V56.8197H354.805V45.9533L345.24 29.1305H351.533L357.659 40.1216L363.742 29.1305L370 29.1235Z" fill="black"/>
<path d="M306.831 84.3821C307.096 85.3216 307.605 86.1745 308.306 86.8544C309.088 87.45 310.062 87.739 311.043 87.667C311.624 87.6714 312.201 87.5669 312.744 87.3586C313.259 87.1607 313.736 86.8747 314.153 86.5132C314.565 86.1528 314.896 85.7094 315.125 85.212C315.368 84.6765 315.49 84.0937 315.482 83.5055C315.522 82.6978 315.312 81.8974 314.881 81.2133C314.491 80.6489 313.958 80.1995 313.335 79.9122C312.677 79.6118 311.975 79.42 311.256 79.344C310.508 79.2579 309.757 79.2145 309.004 79.214V76.4836C309.985 76.5019 310.966 76.42 311.93 76.2392C312.566 76.1277 313.173 75.8923 313.718 75.5463C314.131 75.2693 314.449 74.8719 314.629 74.408C314.808 73.9188 314.896 73.4009 314.889 72.8799C314.927 72.3607 314.847 71.8397 314.656 71.3556C314.464 70.8715 314.166 70.4367 313.784 70.0836C313.007 69.4399 312.02 69.1044 311.012 69.1411C310.189 69.1339 309.386 69.3901 308.72 69.8722C308.035 70.3616 307.5 71.0316 307.174 71.8074L303.988 70.7333C304.51 69.3584 305.489 68.2047 306.76 67.4658C308.037 66.7538 309.478 66.3894 310.939 66.409C311.846 66.4057 312.749 66.5317 313.621 66.7832C314.44 67.0161 315.206 67.4081 315.873 67.937C316.531 68.4669 317.059 69.14 317.417 69.9051C317.812 70.7749 318.006 71.7223 317.985 72.6772C317.998 73.8529 317.614 74.9985 316.895 75.9292C316.185 76.8722 315.186 77.5572 314.051 77.8799V77.9458C314.73 78.0622 315.381 78.3048 315.97 78.6613C316.525 79.0005 317.011 79.4421 317.401 79.9625C317.793 80.4845 318.09 81.0708 318.28 81.695C318.478 82.3541 318.576 83.039 318.573 83.7272C318.595 84.734 318.377 85.7316 317.938 86.6378C317.535 87.4473 316.958 88.1574 316.247 88.7169C315.52 89.2824 314.693 89.7072 313.81 89.9696C312.866 90.2544 311.885 90.3968 310.899 90.3922C309.273 90.4267 307.669 90.0106 306.265 89.1899C304.886 88.3218 303.894 86.9573 303.493 85.3783L306.831 84.3821Z" fill="#05C6AA"/>
<path d="M333.761 75.8925H333.891C334.686 75.5291 335.553 75.3514 336.427 75.3728C337.28 75.3775 338.126 75.5202 338.932 75.7954C339.777 76.0767 340.556 76.5245 341.225 77.1122C341.935 77.7461 342.506 78.5215 342.9 79.3888C343.355 80.4167 343.577 81.5325 343.55 82.6563C343.574 83.8102 343.358 84.9566 342.916 86.0226C342.533 86.9343 341.959 87.7531 341.232 88.4236C340.506 89.0941 339.643 89.6005 338.704 89.9086C337.719 90.2392 336.686 90.4043 335.648 90.3972C334.606 90.4048 333.571 90.2288 332.59 89.8774C331.665 89.5484 330.814 89.0404 330.086 88.3822C329.366 87.7248 328.785 86.9287 328.38 86.0416C327.946 85.0819 327.73 84.0384 327.746 82.9855C327.74 82.3316 327.795 81.6785 327.909 81.0346C328.013 80.4625 328.17 79.9016 328.38 79.3592C328.588 78.8235 328.832 78.3026 329.111 77.8C329.393 77.2907 329.707 76.7541 330.055 76.1905L335.875 66.9873H339.549L333.761 75.8925ZM330.868 82.8832C330.862 83.5391 330.979 84.1904 331.214 84.8029C331.429 85.37 331.762 85.8853 332.19 86.3154C332.622 86.7441 333.136 87.0812 333.702 87.3064C334.959 87.7838 336.347 87.7838 337.604 87.3064C338.169 87.0814 338.684 86.7443 339.116 86.3154C339.543 85.8847 339.876 85.3696 340.092 84.8029C340.546 83.5641 340.546 82.2041 340.092 80.9653C339.875 80.3992 339.543 79.8846 339.116 79.4545C338.684 79.0253 338.169 78.6876 337.604 78.4618C336.347 77.9847 334.959 77.9847 333.702 78.4618C333.136 78.6878 332.622 79.0254 332.19 79.4545C331.762 79.884 331.43 80.3988 331.214 80.9653C330.98 81.5773 330.862 82.2279 330.868 82.8832Z" fill="#05C6AA"/>
<path d="M354.126 78.4836C354.126 77.6381 354.169 76.7603 354.256 75.8501C354.341 74.9445 354.499 74.047 354.727 73.1664C354.951 72.2993 355.256 71.4553 355.639 70.6456C356.001 69.8669 356.496 69.1569 357.101 68.5475C357.71 67.9424 358.427 67.457 359.214 67.1165C361.044 66.4006 363.076 66.4006 364.906 67.1165C365.694 67.4571 366.411 67.9425 367.019 68.5475C367.625 69.1571 368.12 69.8669 368.483 70.6456C368.865 71.4554 369.17 72.2995 369.393 73.1664C369.621 74.0471 369.778 74.9445 369.864 75.8501C369.951 76.7603 369.994 77.6381 369.994 78.4836C369.986 79.7906 369.877 81.095 369.668 82.3852C369.466 83.7288 369.061 85.0339 368.466 86.2556C367.903 87.42 367.072 88.4342 366.04 89.2148C364.852 89.9798 363.469 90.3866 362.056 90.3866C360.643 90.3866 359.259 89.9798 358.071 89.2148C357.04 88.4344 356.208 87.4201 355.645 86.2556C355.051 85.0338 354.645 83.7288 354.443 82.3852C354.237 81.0948 354.131 79.7904 354.126 78.4836ZM357.245 78.4836C357.245 79.2425 357.293 80.1422 357.39 81.1829C357.484 82.2066 357.697 83.2159 358.024 84.1905C358.32 85.1052 358.814 85.9435 359.471 86.6455C360.175 87.2952 361.098 87.6559 362.056 87.6559C363.014 87.6559 363.937 87.2952 364.641 86.6455C365.298 85.9438 365.793 85.1054 366.089 84.1905C366.416 83.2159 366.629 82.2066 366.723 81.1829C366.82 80.1433 366.869 79.2436 366.87 78.4836C366.87 77.9627 366.854 77.3719 366.822 76.7112C366.788 76.035 366.712 75.3615 366.595 74.6946C366.478 74.0214 366.309 73.3582 366.091 72.7108C365.886 72.0977 365.594 71.5172 365.225 70.9869C364.879 70.4916 364.43 70.0776 363.908 69.7741C363.336 69.475 362.7 69.3187 362.054 69.3187C361.408 69.3187 360.772 69.475 360.2 69.7741C359.678 70.078 359.229 70.4919 358.883 70.9869C358.514 71.5172 358.222 72.0977 358.017 72.7108C357.798 73.358 357.629 74.0213 357.513 74.6946C357.395 75.3614 357.319 76.0349 357.284 76.7112C357.26 77.3754 357.248 77.9662 357.248 78.4836H357.245Z" fill="#05C6AA"/>
<path d="M135.781 89.538V67.2388H139.362V76.1248H150.58V67.2388H154.161V89.538H150.58V79.3352H139.362V89.538H135.781Z" fill="black"/>
<path d="M166.554 89.538V67.2388H181.218V70.4491H170.13V76.1665H178.476V79.2607H170.13V86.3226H181.617V89.5312L166.554 89.538Z" fill="black"/>
<path d="M221.664 89.538V67.2388H225.245V86.3277H235.449V89.5364L221.664 89.538Z" fill="black"/>
<path d="M246.837 89.538V70.4491H239.333V67.2388H257.949V70.4491H250.422V89.538H246.837Z" fill="black"/>
<path d="M268.054 89.538V67.2388H271.637V76.1248H282.853V67.2388H286.434V89.538H282.853V79.3352H271.637V89.538H268.054Z" fill="black"/>
<path d="M207.501 89.5429L205.914 85.8249H195.878L194.289 89.5429H190.477L200.311 66.8677H201.524L211.358 89.5429H207.501ZM204.629 82.7497L200.911 73.524L197.16 82.7497H204.629Z" fill="black"/>
<g opacity="0.6">
<path d="M135.775 110.122V101.253H137.201V110.122H135.775Z" fill="black"/>
<path d="M146.115 101.25H147.539V110.259H147.056L141.654 104.121V110.127H140.229V101.118H140.727L146.115 107.246V101.25Z" fill="black"/>
<path d="M152.68 110.122V102.53H149.697V101.253H157.102V102.53H154.104V110.122H152.68Z" fill="black"/>
<path d="M159.235 110.122V101.253H165.066V102.53H160.659V104.801H163.978V106.038H160.659V108.847H165.228V110.123L159.235 110.122Z" fill="black"/>
<path d="M166.95 105.681C166.929 105.074 167.039 104.469 167.272 103.908C167.505 103.347 167.855 102.843 168.3 102.429C168.734 101.991 169.253 101.647 169.825 101.419C170.397 101.19 171.01 101.081 171.626 101.098C172.344 101.073 173.057 101.23 173.699 101.554C174.34 101.878 174.89 102.359 175.296 102.952L174.256 103.799C173.969 103.361 173.576 103.003 173.113 102.759C172.65 102.514 172.132 102.391 171.609 102.401C171.184 102.387 170.76 102.462 170.365 102.622C169.971 102.781 169.614 103.022 169.318 103.328C169.021 103.639 168.789 104.006 168.636 104.407C168.482 104.809 168.41 105.237 168.424 105.667C168.411 106.104 168.486 106.539 168.644 106.946C168.802 107.353 169.04 107.725 169.344 108.039C169.647 108.352 170.012 108.598 170.416 108.761C170.82 108.924 171.253 109.001 171.689 108.986C172.209 109.017 172.729 108.908 173.194 108.672C173.659 108.436 174.053 108.08 174.336 107.642V106.687H171.607V105.424H175.765V107.933C175.364 108.648 174.773 109.238 174.059 109.64C173.32 110.061 172.483 110.28 171.633 110.272C171.017 110.292 170.404 110.184 169.832 109.956C169.26 109.729 168.741 109.386 168.307 108.948C167.862 108.531 167.511 108.024 167.277 107.46C167.043 106.897 166.932 106.29 166.95 105.681Z" fill="black"/>
<path d="M185.525 110.118H183.899L181.373 106.691H179.746V110.118H178.322V101.249H181.56C182.356 101.214 183.136 101.485 183.737 102.008C184.01 102.254 184.226 102.556 184.37 102.894C184.514 103.232 184.582 103.597 184.571 103.964C184.582 104.509 184.424 105.044 184.12 105.496C183.813 105.941 183.373 106.279 182.864 106.462L185.525 110.118ZM179.748 102.512V105.428H181.535C181.955 105.451 182.368 105.308 182.684 105.031C182.826 104.896 182.937 104.731 183.01 104.55C183.083 104.368 183.116 104.172 183.107 103.976C183.115 103.779 183.082 103.583 183.009 103.4C182.936 103.217 182.825 103.051 182.684 102.914C182.37 102.633 181.957 102.488 181.535 102.51L179.748 102.512Z" fill="black"/>
<path d="M193.555 110.115L192.923 108.637H188.938L188.307 110.115H186.783L190.693 101.105H191.176L195.087 110.115H193.555ZM192.412 107.414L190.934 103.744L189.442 107.414H192.412Z" fill="black"/>
<path d="M198.384 110.122V102.53H195.401V101.253H202.806V102.53H199.808V110.122H198.384Z" fill="black"/>
<path d="M204.939 110.122V101.253H210.77V102.53H206.363V104.801H209.682V106.038H206.363V108.847H210.931V110.123L204.939 110.122Z" fill="black"/>
<path d="M213.391 110.12V101.251H216.172C217.451 101.193 218.703 101.631 219.666 102.474C220.106 102.88 220.452 103.376 220.682 103.928C220.912 104.48 221.019 105.075 220.997 105.673C221.016 106.27 220.906 106.865 220.675 107.417C220.444 107.969 220.098 108.464 219.66 108.871C218.705 109.727 217.453 110.176 216.172 110.12H213.391ZM214.815 108.843H216.158C216.605 108.865 217.052 108.799 217.473 108.648C217.894 108.497 218.281 108.264 218.611 107.963C218.918 107.667 219.158 107.31 219.317 106.915C219.476 106.52 219.549 106.096 219.533 105.671C219.552 105.248 219.48 104.826 219.322 104.433C219.164 104.04 218.924 103.685 218.618 103.393C217.94 102.799 217.058 102.493 216.158 102.539H214.815V108.843Z" fill="black"/>
<path d="M227.537 105.68C227.517 105.072 227.627 104.467 227.861 103.906C228.095 103.345 228.448 102.841 228.894 102.428C229.325 101.992 229.841 101.649 230.409 101.42C230.978 101.191 231.587 101.081 232.2 101.097C232.974 101.089 233.737 101.279 234.417 101.648C235.069 101.996 235.616 102.511 236.002 103.14L234.928 103.933C234.675 103.52 234.332 103.17 233.924 102.908C233.516 102.647 233.054 102.481 232.573 102.423C232.092 102.366 231.604 102.418 231.146 102.576C230.688 102.734 230.272 102.994 229.928 103.336C229.34 103.975 229.014 104.812 229.014 105.681C229.014 106.549 229.34 107.386 229.928 108.026C230.272 108.367 230.688 108.627 231.146 108.785C231.604 108.943 232.092 108.995 232.573 108.938C233.054 108.88 233.516 108.715 233.924 108.453C234.332 108.191 234.675 107.841 234.928 107.428L236.002 108.221C235.621 108.854 235.076 109.372 234.424 109.72C233.741 110.087 232.975 110.274 232.2 110.264C231.587 110.28 230.978 110.17 230.409 109.941C229.841 109.712 229.325 109.369 228.894 108.933C228.448 108.52 228.095 108.016 227.861 107.454C227.627 106.893 227.517 106.288 227.537 105.68Z" fill="black"/>
<path d="M244.324 110.115L243.691 108.637H239.707L239.076 110.115H237.556L241.467 101.105H241.95L245.86 110.115H244.324ZM243.18 107.414L241.702 103.744L240.211 107.414H243.18Z" fill="black"/>
<path d="M255.279 110.118H253.653L251.127 106.691H249.5V110.118H248.076V101.249H251.313C252.11 101.214 252.89 101.485 253.491 102.008C253.764 102.254 253.98 102.556 254.124 102.894C254.268 103.232 254.336 103.597 254.325 103.964C254.336 104.509 254.178 105.044 253.874 105.496C253.566 105.941 253.127 106.279 252.618 106.462L255.279 110.118ZM249.501 102.512V105.428H251.289C251.709 105.451 252.122 105.308 252.438 105.031C252.58 104.896 252.691 104.732 252.765 104.55C252.838 104.368 252.871 104.172 252.862 103.976C252.871 103.779 252.837 103.583 252.764 103.4C252.691 103.217 252.58 103.051 252.438 102.914C252.123 102.633 251.711 102.488 251.289 102.51L249.501 102.512Z" fill="black"/>
<path d="M257.355 110.122V101.253H263.186V102.53H258.779V104.801H262.098V106.038H258.779V108.847H263.348V110.123L257.355 110.122Z" fill="black"/>
<path d="M276.406 110.122V101.253H282.238V102.53H277.831V104.801H281.15V106.038H277.831V108.847H282.399V110.123L276.406 110.122Z" fill="black"/>
<path d="M290.737 101.253H292.336L288.426 110.262H287.943L284.032 101.253H285.632L288.183 107.421L290.737 101.253Z" fill="black"/>
<path d="M294.563 110.122V101.253H300.394V102.53H295.987V104.801H299.306V106.038H295.987V108.847H300.556V110.123L294.563 110.122Z" fill="black"/>
<path d="M310.212 110.116H308.587L306.061 106.69H304.435V110.116H303.01V101.248H306.249C307.045 101.212 307.824 101.484 308.426 102.007C308.698 102.252 308.914 102.555 309.058 102.892C309.202 103.23 309.271 103.595 309.259 103.963C309.27 104.507 309.113 105.042 308.808 105.494C308.501 105.939 308.061 106.277 307.552 106.461L310.212 110.116ZM304.434 102.511V105.427H306.22C306.64 105.449 307.052 105.307 307.369 105.03C307.51 104.894 307.621 104.73 307.694 104.548C307.767 104.366 307.8 104.171 307.791 103.975C307.8 103.778 307.766 103.582 307.694 103.398C307.621 103.215 307.51 103.05 307.369 102.913C307.054 102.632 306.641 102.487 306.22 102.509L304.434 102.511Z" fill="black"/>
<path d="M318.657 101.253L315.592 106.547V110.122H314.168V106.547L311.105 101.253H312.692L314.882 105.109L317.085 101.253H318.657Z" fill="black"/>
<path d="M331.939 101.252H333.498L330.045 110.261H329.576L326.928 103.972L324.281 110.261H323.798L320.345 101.252H321.916L324.134 107.244L326.674 101.103H327.171L329.725 107.244L331.939 101.252Z" fill="black"/>
<path d="M335.903 110.122V101.253H337.328V104.787H341.79V101.253H343.214V110.122H341.79V106.062H337.328V110.122H335.903Z" fill="black"/>
<path d="M346.261 110.122V101.253H352.093V102.53H347.685V104.801H351.005V106.038H347.685V108.847H352.254V110.123L346.261 110.122Z" fill="black"/>
<path d="M361.923 110.116H360.298L357.772 106.69H356.147V110.116H354.722V101.248H357.961C358.756 101.212 359.535 101.484 360.137 102.007C360.409 102.252 360.625 102.555 360.769 102.892C360.913 103.23 360.982 103.595 360.97 103.963C360.981 104.507 360.824 105.042 360.52 105.494C360.212 105.939 359.772 106.277 359.263 106.461L361.923 110.116ZM356.145 102.511V105.427H357.933C358.353 105.449 358.765 105.307 359.081 105.03C359.223 104.894 359.334 104.73 359.407 104.548C359.48 104.366 359.513 104.171 359.504 103.975C359.512 103.778 359.479 103.582 359.406 103.399C359.333 103.216 359.223 103.05 359.081 102.913C358.767 102.632 358.354 102.487 357.933 102.509L356.145 102.511Z" fill="black"/>
<path d="M363.996 110.122V101.253H369.828V102.53H365.42V104.801H368.74V106.038H365.42V108.847H369.989V110.123L363.996 110.122Z" fill="black"/>
<path d="M269.887 107.01C270.672 107.01 271.309 106.373 271.309 105.587C271.309 104.802 270.672 104.165 269.887 104.165C269.101 104.165 268.464 104.802 268.464 105.587C268.464 106.373 269.101 107.01 269.887 107.01Z" fill="black"/>
</g>
<defs>
<linearGradient id="paint0_linear_3322_323" x1="82.0193" y1="38.884" x2="77.9291" y2="20.1381" gradientUnits="userSpaceOnUse">
<stop stop-color="#04A795" stop-opacity="0"/>
<stop offset="1" stop-color="#04A795"/>
</linearGradient>
<linearGradient id="paint1_linear_3322_323" x1="91.9928" y1="60.8915" x2="102.498" y2="45.0669" gradientUnits="userSpaceOnUse">
<stop stop-color="#04A795" stop-opacity="0"/>
<stop offset="1" stop-color="#04A795"/>
</linearGradient>
<linearGradient id="paint2_linear_3322_323" x1="84.4744" y1="81.4793" x2="102.395" y2="77.4515" gradientUnits="userSpaceOnUse">
<stop stop-color="#04A795" stop-opacity="0"/>
<stop offset="1" stop-color="#04A795"/>
</linearGradient>
<linearGradient id="paint3_linear_3322_323" x1="61.562" y1="91.7706" x2="77.8941" y2="102.748" gradientUnits="userSpaceOnUse">
<stop stop-color="#04A795" stop-opacity="0"/>
<stop offset="1" stop-color="#04A795"/>
</linearGradient>
<linearGradient id="paint4_linear_3322_323" x1="38.7836" y1="82.2551" x2="42.5451" y2="100.873" gradientUnits="userSpaceOnUse">
<stop stop-color="#04A795" stop-opacity="0"/>
<stop offset="1" stop-color="#04A795"/>
</linearGradient>
<linearGradient id="paint5_linear_3322_323" x1="30.5073" y1="61.1906" x2="20.0022" y2="77.0151" gradientUnits="userSpaceOnUse">
<stop stop-color="#04A795" stop-opacity="0"/>
<stop offset="1" stop-color="#04A795"/>
</linearGradient>
<linearGradient id="paint6_linear_3322_323" x1="37.1182" y1="42.4074" x2="18.3724" y2="46.4976" gradientUnits="userSpaceOnUse">
<stop stop-color="#04A795" stop-opacity="0"/>
<stop offset="1" stop-color="#04A795"/>
</linearGradient>
<linearGradient id="paint7_linear_3322_323" x1="62.0032" y1="29.9914" x2="46.0039" y2="18.8292" gradientUnits="userSpaceOnUse">
<stop stop-color="#04A795" stop-opacity="0"/>
<stop offset="1" stop-color="#04A795"/>
</linearGradient>
</defs>
</svg>
