<svg width="229" height="83" viewBox="0 0 229 83" fill="none" xmlns="http://www.w3.org/2000/svg">
<path d="M213.06 0H128.046C119.243 0 112.106 7.13657 112.106 15.94V66.4165C112.106 75.2199 119.243 82.3565 128.046 82.3565H213.06C221.863 82.3565 229 75.2199 229 66.4165V15.94C229 7.13657 221.863 0 213.06 0Z" fill="#270F56"/>
<path d="M32.7301 32.5212L19.8186 62.8603C18.5081 66.1545 16.8787 68.4747 14.9304 69.8207C13.0176 71.1668 10.6975 71.8397 7.96999 71.8397C6.48226 71.8397 5.01224 71.6095 3.55993 71.1491C2.10761 70.6886 0.920989 70.0509 0 69.2363L3.0286 63.3385C3.66619 63.9052 4.39235 64.3481 5.20706 64.6669C6.05719 64.9856 6.88961 65.1451 7.70432 65.1451C8.83783 65.1451 9.75882 64.8617 10.4672 64.2949C11.1757 63.7635 11.8133 62.8603 12.3801 61.585L12.4863 61.3194L0.106277 32.5212H8.66072L16.6839 51.9149L24.76 32.5212H32.7301Z" fill="white"/>
<path d="M48.9369 61.5324C45.9261 61.5324 43.2162 60.9127 40.8076 59.6728C38.4342 58.3976 36.5745 56.6442 35.2285 54.4127C33.8826 52.181 33.2095 49.6483 33.2095 46.8145C33.2095 43.9807 33.8826 41.4481 35.2285 39.2166C36.5745 36.9849 38.4342 35.2492 40.8076 34.0094C43.2162 32.7342 45.9261 32.0967 48.9369 32.0967C51.9478 32.0967 54.6399 32.7342 57.0131 34.0094C59.3865 35.2492 61.2461 36.9849 62.5922 39.2166C63.9382 41.4481 64.6113 43.9807 64.6113 46.8145C64.6113 49.6483 63.9382 52.181 62.5922 54.4127C61.2461 56.6442 59.3865 58.3976 57.0131 59.6728C54.6399 60.9127 51.9478 61.5324 48.9369 61.5324ZM48.9369 54.7314C51.0623 54.7314 52.798 54.023 54.1439 52.6061C55.5255 51.1538 56.2161 49.2233 56.2161 46.8145C56.2161 44.4058 55.5255 42.4931 54.1439 41.0762C52.798 39.6239 51.0623 38.8976 48.9369 38.8976C46.8116 38.8976 45.0581 39.6239 43.6768 41.0762C42.2953 42.4931 41.6046 44.4058 41.6046 46.8145C41.6046 49.2233 42.2953 51.1538 43.6768 52.6061C45.0581 54.023 46.8116 54.7314 48.9369 54.7314Z" fill="white"/>
<path d="M98.9499 32.5212V61.107H91.0861V57.7064C89.988 58.9461 88.6774 59.9025 87.1544 60.5756C85.6311 61.2131 83.984 61.5319 82.213 61.5319C78.4581 61.5319 75.4827 60.4515 73.2865 58.2908C71.0903 56.13 69.9922 52.9243 69.9922 48.6738V32.5212H78.281V47.4517C78.281 52.0566 80.2115 54.359 84.0725 54.359C86.0562 54.359 87.6502 53.7213 88.8546 52.4463C90.0589 51.1355 90.6611 49.205 90.6611 46.6547V32.5212H98.9499Z" fill="white"/>
<path d="M158.709 27.2005V51.0041C158.709 56.2467 157.345 60.1431 154.618 62.6935C151.89 65.2439 147.905 66.5191 142.663 66.5191C139.9 66.5191 137.279 66.1826 134.799 65.5095C132.32 64.8364 130.265 63.8624 128.636 62.5872L131.93 56.6364C133.134 57.6282 134.657 58.4074 136.499 58.9742C138.341 59.5763 140.183 59.8775 142.025 59.8775C144.894 59.8775 147.002 59.2222 148.348 57.9114C149.729 56.6364 150.42 54.6881 150.42 52.0669V50.8448C148.259 53.218 145.249 54.4047 141.388 54.4047C138.766 54.4047 136.358 53.8379 134.161 52.7044C132.001 51.5355 130.283 49.9062 129.007 47.8162C127.732 45.7262 127.095 43.3176 127.095 40.5901C127.095 37.8626 127.732 35.4539 129.007 33.3639C130.283 31.2741 132.001 29.6624 134.161 28.5288C136.358 27.3599 138.766 26.7754 141.388 26.7754C145.532 26.7754 148.684 28.1391 150.845 30.8666V27.2005H158.709ZM143.035 47.6037C145.231 47.6037 147.02 46.966 148.401 45.6908C149.818 44.3802 150.526 42.6799 150.526 40.5901C150.526 38.5001 149.818 36.8176 148.401 35.5424C147.02 34.2318 145.231 33.5765 143.035 33.5765C140.839 33.5765 139.032 34.2318 137.615 35.5424C136.198 36.8176 135.49 38.5001 135.49 40.5901C135.49 42.6799 136.198 44.3802 137.615 45.6908C139.032 46.966 140.839 47.6037 143.035 47.6037Z" fill="white"/>
<path d="M166.424 27.2033H174.713V55.7891H166.424V27.2033ZM170.569 23.2184C169.045 23.2184 167.806 22.7755 166.849 21.89C165.893 21.0045 165.415 19.9063 165.415 18.5957C165.415 17.2851 165.893 16.187 166.849 15.3015C167.806 14.4159 169.045 13.9731 170.569 13.9731C172.092 13.9731 173.331 14.3982 174.288 15.2483C175.244 16.0985 175.722 17.1611 175.722 18.4363C175.722 19.8178 175.244 20.9691 174.288 21.89C173.331 22.7755 172.092 23.2184 170.569 23.2184Z" fill="white"/>
<path d="M211.894 27.2005V51.0041C211.894 56.2467 210.529 60.1431 207.802 62.6935C205.075 65.2439 201.09 66.5191 195.847 66.5191C193.084 66.5191 190.462 66.1826 187.984 65.5095C185.504 64.8364 183.449 63.8624 181.82 62.5872L185.115 56.6364C186.318 57.6282 187.842 58.4074 189.684 58.9742C191.525 59.5763 193.367 59.8775 195.209 59.8775C198.078 59.8775 200.186 59.2222 201.532 57.9114C202.913 56.6364 203.604 54.6881 203.604 52.0669V50.8448C201.444 53.218 198.432 54.4047 194.573 54.4047C191.95 54.4047 189.541 53.8379 187.346 52.7044C185.184 51.5355 183.467 49.9062 182.192 47.8162C180.917 45.7262 180.279 43.3176 180.279 40.5901C180.279 37.8626 180.917 35.4539 182.192 33.3639C183.467 31.2741 185.184 29.6624 187.346 28.5288C189.541 27.3599 191.95 26.7754 194.573 26.7754C198.717 26.7754 201.869 28.1391 204.029 30.8666V27.2005H211.894ZM196.22 47.6037C198.415 47.6037 200.205 46.966 201.586 45.6908C203.003 44.3802 203.71 42.6799 203.71 40.5901C203.71 38.5001 203.003 36.8176 201.586 35.5424C200.205 34.2318 198.415 33.5765 196.22 33.5765C194.022 33.5765 192.216 34.2318 190.799 35.5424C189.382 36.8176 188.675 38.5001 188.675 40.5901C188.675 42.6799 189.382 44.3802 190.799 45.6908C192.216 46.966 194.022 47.6037 196.22 47.6037Z" fill="white"/>
<mask id="mask0_3332_964" style="mask-type:alpha" maskUnits="userSpaceOnUse" x="127" y="13" width="85" height="54">
<path d="M158.71 27.2012V51.0048C158.71 56.2474 157.347 60.1438 154.619 62.6942C151.892 65.2447 147.907 66.5199 142.664 66.5199C139.901 66.5199 137.28 66.1833 134.8 65.5103C132.321 64.8372 130.267 63.8631 128.637 62.5879L131.931 56.6371C133.136 57.6289 134.659 58.4081 136.501 58.9749C138.343 59.577 140.185 59.8782 142.027 59.8782C144.896 59.8782 147.003 59.2229 148.349 57.9121C149.731 56.6371 150.422 54.6888 150.422 52.0676V50.8456C148.261 53.2187 145.25 54.4054 141.389 54.4054C138.768 54.4054 136.359 53.8387 134.163 52.7051C132.002 51.5362 130.284 49.9069 129.009 47.8169C127.734 45.7269 127.096 43.3184 127.096 40.5909C127.096 37.8634 127.734 35.4546 129.009 33.3646C130.284 31.2748 132.002 29.6631 134.163 28.5296C136.359 27.3607 138.768 26.7761 141.389 26.7761C145.533 26.7761 148.686 28.1399 150.847 30.8674V27.2012H158.71ZM143.036 47.6045C145.232 47.6045 147.021 46.9668 148.403 45.6915C149.819 44.3809 150.528 42.6807 150.528 40.5909C150.528 38.5009 149.819 36.8184 148.403 35.5432C147.021 34.2326 145.232 33.5773 143.036 33.5773C140.84 33.5773 139.033 34.2326 137.616 35.5432C136.2 36.8184 135.491 38.5009 135.491 40.5909C135.491 42.6807 136.2 44.3809 137.616 45.6915C139.033 46.9668 140.84 47.6045 143.036 47.6045Z" fill="white"/>
<path d="M166.426 27.204H174.714V55.7898H166.426V27.204ZM170.57 23.2191C169.047 23.2191 167.807 22.7763 166.851 21.8907C165.894 21.0052 165.416 19.9071 165.416 18.5965C165.416 17.2858 165.894 16.1878 166.851 15.3022C167.807 14.4167 169.047 13.9739 170.57 13.9739C172.093 13.9739 173.333 14.3989 174.289 15.2491C175.246 16.0992 175.724 17.1619 175.724 18.4371C175.724 19.8185 175.246 20.9698 174.289 21.8907C173.333 22.7763 172.093 23.2191 170.57 23.2191Z" fill="white"/>
<path d="M211.895 27.2012V51.0048C211.895 56.2474 210.531 60.1438 207.803 62.6942C205.076 65.2447 201.091 66.5199 195.849 66.5199C193.086 66.5199 190.464 66.1833 187.985 65.5103C185.505 64.8372 183.451 63.8631 181.821 62.5879L185.116 56.6371C186.32 57.6289 187.843 58.4081 189.685 58.9749C191.527 59.577 193.369 59.8782 195.21 59.8782C198.08 59.8782 200.187 59.2229 201.533 57.9121C202.914 56.6371 203.605 54.6888 203.605 52.0676V50.8456C201.445 53.2187 198.434 54.4054 194.574 54.4054C191.952 54.4054 189.543 53.8387 187.347 52.7051C185.185 51.5362 183.468 49.9069 182.193 47.8169C180.918 45.7269 180.28 43.3184 180.28 40.5909C180.28 37.8634 180.918 35.4546 182.193 33.3646C183.468 31.2748 185.185 29.6631 187.347 28.5296C189.543 27.3607 191.952 26.7761 194.574 26.7761C198.718 26.7761 201.87 28.1399 204.03 30.8674V27.2012H211.895ZM196.221 47.6045C198.417 47.6045 200.206 46.9668 201.587 45.6915C203.004 44.3809 203.712 42.6807 203.712 40.5909C203.712 38.5009 203.004 36.8184 201.587 35.5432C200.206 34.2326 198.417 33.5773 196.221 33.5773C194.024 33.5773 192.217 34.2326 190.801 35.5432C189.384 36.8184 188.676 38.5009 188.676 40.5909C188.676 42.6807 189.384 44.3809 190.801 45.6915C192.217 46.9668 194.024 47.6045 196.221 47.6045Z" fill="white"/>
</mask>
<g mask="url(#mask0_3332_964)">
<path d="M178.529 10.6238H162.589V71.7271H178.529V10.6238Z" fill="white"/>
</g>
</svg>
