<svg width="42" height="50" viewBox="0 0 42 50" fill="none" xmlns="http://www.w3.org/2000/svg">
<path d="M15.4339 6.32617H4.11228C1.85601 6.32617 0.00264232 8.17954 0.00264232 10.4761C-0.0779389 12.6921 1.69485 14.5455 3.91083 14.626H15.5548L15.4339 6.32617Z" fill="#073042"/>
<path d="M41.0993 43.2321H4.11257C1.81601 43.2321 0.00292969 41.3787 0.00292969 39.0822V10.4355C0.00292969 12.7321 1.8563 14.5855 4.11257 14.6258H35.096C35.096 14.6258 41.1396 14.102 41.1396 18.6548V43.2321H41.0993Z" fill="#4285F4"/>
<path d="M23.8544 28.5663C25.5063 27.3173 25.8286 24.9805 24.5796 23.3689C23.8946 22.4825 22.8471 21.9184 21.719 21.8781H21.8398C22.0413 21.8378 22.283 21.8378 22.4845 21.8781V19.5815C22.4845 19.2995 22.3636 19.0578 22.1219 18.9369C21.7592 18.7354 21.3161 18.8563 21.1146 19.2189C21.034 19.3398 20.9937 19.4607 21.034 19.6218V21.9587C19.0195 22.281 17.6093 24.1747 17.9316 26.2295V26.2698C18.0928 27.2368 18.6166 28.1231 19.4224 28.6872L12.6133 43.2724H17.0452L20.1879 36.5842C20.5505 35.7784 21.5175 35.4157 22.3636 35.8187C22.6859 35.9798 22.968 36.2618 23.1291 36.5842L26.3927 43.2724H30.9052L23.8544 28.5663ZM21.5578 27.9217C20.2685 27.9217 19.2612 26.8741 19.2612 25.5848C19.2612 24.2955 20.3088 23.2883 21.5981 23.3286C22.2024 23.3286 22.7262 23.5703 23.1694 23.9732C24.0961 24.8596 24.0961 26.3101 23.2097 27.2368C22.8068 27.6397 22.2024 27.9217 21.5578 27.9217Z" fill="#3870B2"/>
<path d="M12.9766 8.33984H28.8511V11.2408H12.9766V8.33984Z" fill="white"/>
<path d="M20.3499 23.2875C21.5989 23.2875 22.6465 24.3351 22.6062 25.6244C22.6062 26.8734 21.5586 27.921 20.2693 27.8807C19.0203 27.8807 18.0131 26.8331 18.0131 25.5841C18.0131 24.9798 18.2548 24.4157 18.698 23.9725C19.1412 23.5293 19.7456 23.2875 20.3499 23.2875ZM21.2363 21.958V19.5405C21.2363 19.2585 21.1154 19.0167 20.8737 18.8959C20.5111 18.6944 20.0679 18.8153 19.8664 19.1779C19.7859 19.2988 19.7456 19.4197 19.7859 19.5808V21.9177C17.7713 22.24 16.3612 24.1337 16.6835 26.1885V26.2288C16.8446 27.1957 17.3684 28.0821 18.1742 28.6462L9.59233 47.059C9.27001 47.7037 9.3103 48.5095 9.75349 49.1138C10.3981 50.0405 11.6472 50.2822 12.5738 49.6376C12.8962 49.4361 13.1379 49.1138 13.2991 48.7915L19.0203 36.5432C19.3829 35.7373 20.3499 35.3747 21.196 35.7776C21.5183 35.9388 21.8004 36.2208 21.9615 36.5432L27.8037 48.6706C28.2872 49.6779 29.4959 50.0808 30.5031 49.5973C31.5104 49.1138 31.9133 47.9051 31.4298 46.8978L22.6062 28.5656C24.2178 27.2763 24.4999 24.8992 23.2106 23.2875C22.7271 22.6429 22.0421 22.1997 21.2363 21.958Z" fill="#073042"/>
<path d="M26.5145 10.9188C25.9101 10.9188 25.4266 10.4756 25.4266 9.8712C25.4266 9.58916 25.5475 9.26684 25.7489 9.06538C26.1921 8.66248 26.8368 8.66248 27.28 9.06538C27.4814 9.26684 27.6023 9.54887 27.6023 9.8309C27.562 10.4353 27.1188 10.8785 26.5145 10.9188ZM14.5884 10.8785C13.9841 10.8785 13.5006 10.395 13.5006 9.8309C13.5006 9.54887 13.6215 9.26684 13.8229 9.06538C14.1855 8.62219 14.8705 8.54161 15.3137 8.90422H15.354C15.7972 9.30713 15.8374 9.99207 15.4345 10.4353L15.3137 10.5964C15.1122 10.7979 14.8302 10.9188 14.5481 10.9188M26.8368 4.39167L28.9722 0.68494C29.0931 0.483487 29.0125 0.241744 28.8513 0.0805812C28.6499 1.80113e-08 28.4484 0.0402906 28.3275 0.201453L26.1115 4.02906C22.566 2.45773 18.5369 2.45773 15.0316 4.02906L12.8559 0.241744C12.7754 0.120872 12.6142 0 12.453 0C12.2919 0 12.1307 0.0805812 12.0501 0.241744C11.9695 0.362615 11.9695 0.564068 12.0501 0.68494L14.2258 4.39167C10.4385 6.4465 7.98078 10.3144 7.61816 14.5852H33.4847C33.1624 10.2741 30.6644 6.4465 26.8771 4.39167" fill="#3DDC84"/>
<path d="M37.3114 22.6025H35.6192C35.5386 22.6428 35.458 22.7234 35.458 22.8442V49.6375C35.458 49.7584 35.5386 49.8389 35.6595 49.8389H37.4322C39.4871 49.8389 41.139 48.1467 41.139 46.1322V18.8555C41.139 20.9103 39.4871 22.5622 37.4322 22.5622H37.3114V22.6025Z" fill="#073042"/>
</svg>
