<svg width="50" height="50" viewBox="0 0 50 50" fill="none" xmlns="http://www.w3.org/2000/svg">
<path d="M26.3447 28.4659H32.6512C34.445 28.4659 35.5805 27.4784 35.5805 25.8929C35.5805 24.3991 34.445 23.322 32.6512 23.322H26.3447C26.1364 23.322 25.9551 23.5012 25.9551 23.6804V28.1076C25.9864 28.3159 26.1343 28.4659 26.3447 28.4659ZM26.3447 38.6663H32.8616C34.8638 38.6663 36.0596 37.6496 36.0596 35.8537C36.0596 34.2995 34.9242 33.0411 32.8616 33.0411H26.3447C26.1364 33.0411 25.9551 33.2224 25.9551 33.4015V38.2767C25.9864 38.5163 26.1343 38.6663 26.3447 38.6663ZM49.4184 0.110833L30.7657 18.7156H33.8158C38.5681 18.7156 41.3786 21.7053 41.3786 24.9658C41.3786 27.5388 39.6452 29.4243 37.7909 30.2598C37.493 30.3806 37.493 30.7994 37.8201 30.9181C39.9723 31.7556 41.4973 34.0015 41.4973 36.6308C41.4973 40.3393 39.0181 43.3019 34.2054 43.3019H20.9925C20.7841 43.3019 20.6029 43.1227 20.6029 42.9435V28.8555L0.129269 49.2521C-0.141573 49.5229 0.0396831 50 0.427196 50H49.6601C49.7471 49.9989 49.8302 49.9639 49.8917 49.9024C49.9532 49.8409 49.9882 49.7578 49.9893 49.6708V0.379592C50.0789 0.0504143 49.6601 -0.128758 49.4205 0.10875L49.4184 0.110833Z" fill="black"/>
</svg>
