<svg width="114" height="30" viewBox="0 0 114 30" fill="none" xmlns="http://www.w3.org/2000/svg">
<path d="M55.6174 5.62173H50.6267L50.6349 14.8312C50.6349 17.5227 49.4651 19.7001 46.7361 19.7001C44.0061 19.7001 42.8255 17.5227 42.8255 14.8312V5.63072H37.8478L37.8464 14.8312C37.8464 20.1496 41.3127 24.4601 46.706 24.4601C52.0978 24.4601 55.6158 20.1496 55.6158 14.8312L55.6174 5.62173ZM100.618 0.0101191H105.585V23.9848H100.618V0.0101191ZM109.251 0.46368V0.0328309H111.186V0.463455H110.478V2.36157H109.959V0.46368H109.251ZM112.188 0.0328309L112.74 1.63412H112.747L113.269 0.0328309H114V2.36157H113.514V0.711036H113.507L112.929 2.36157H112.528L111.95 0.727451H111.943V2.36157H111.457V0.0328309H112.188ZM33.7882 5.42137C29.5075 4.44701 26.8071 8.64127 26.6949 8.86614C26.6397 8.97655 26.6377 9.04086 26.448 9.03591C26.2914 9.03276 26.2734 8.86614 26.2734 8.86614L25.7421 5.6577H21.2938V23.9688H26.2804V14.0575C26.2804 13.2475 28.492 9.364 32.7766 10.3638C34.9435 10.8693 35.8626 11.7762 35.8626 11.7762V6.19806C35.0607 5.78566 34.5105 5.58575 33.7882 5.42137ZM62.3844 30V23.4113C62.3849 23.4113 62.3856 23.412 62.386 23.4125L62.3867 20.9452C62.3867 20.9452 62.3947 20.7478 62.5751 20.7453C62.736 20.7435 62.7718 20.8487 62.811 20.9452C63.1891 21.873 65.2686 25.4082 69.8831 24.2993C74.014 23.1516 77.0439 19.4105 77.0439 14.9673C77.0439 9.61427 72.6429 5.27295 67.2139 5.27295C61.785 5.27295 57.3842 9.61427 57.3842 14.9673V29.9998L62.3844 30ZM67.218 10.0613C69.9666 10.0613 72.1941 12.2587 72.1941 14.9675C72.1941 17.6785 69.9666 19.8762 67.218 19.8762C64.47 19.8762 62.2431 17.6788 62.2431 14.9675C62.2433 12.2587 64.4702 10.0613 67.218 10.0613ZM93.6022 23.9771H98.6025V14.9675C98.6025 9.6145 94.2021 5.27318 88.7729 5.27318C83.3438 5.27318 78.9427 9.6145 78.9427 14.9675C78.9427 19.4105 81.9728 23.1516 86.1037 24.2996C90.7185 25.4084 92.7971 21.8732 93.1758 20.9454C93.2151 20.849 93.2504 20.7439 93.4118 20.7455C93.5922 20.748 93.5997 20.9454 93.5997 20.9454M93.7438 14.9675C93.7438 17.6785 91.516 19.8762 88.7686 19.8762C86.0205 19.8762 83.7925 17.6788 83.7925 14.9675C83.7925 12.2587 86.0205 10.0613 88.7686 10.0613C91.5162 10.0613 93.7438 12.2587 93.7438 14.9675ZM5.67241 23.9389H0V0H6.08646C13.4566 0 19.0462 1.3337 19.0462 11.9696C19.0462 22.5024 13.1253 23.9389 5.67241 23.9389ZM7.02673 4.14951H5.02147V19.7853L7.08077 19.8373C11.3038 19.8373 14.0238 19.4581 14.0238 11.9693C14.0238 4.78769 11.6225 4.14951 7.02673 4.14951Z" fill="#2AA9E0"/>
</svg>
