<svg width="37" height="50" viewBox="0 0 37 50" fill="none" xmlns="http://www.w3.org/2000/svg">
<path d="M0.0195312 40.3419L6.17392 0.960845C6.21078 0.725493 6.32065 0.50767 6.488 0.33814C6.65536 0.16861 6.87175 0.0559432 7.10661 0.016052C7.34147 -0.0238391 7.58292 0.0110618 7.79687 0.115825C8.01082 0.220589 8.18644 0.38992 8.29895 0.599902L14.6639 12.4712L17.2006 7.64063C17.2971 7.4574 17.4418 7.304 17.619 7.19698C17.7963 7.08997 17.9994 7.03341 18.2065 7.03341C18.4136 7.03341 18.6167 7.08997 18.794 7.19698C18.9713 7.304 19.1159 7.4574 19.2124 7.64063L36.3884 40.3419H0.0195312Z" fill="#FFA000"/>
<path d="M21.2812 25.0019L14.6608 12.4658L0.0195312 40.3424L21.2812 25.0019Z" fill="#F57C00"/>
<path d="M36.3884 40.3423L31.6747 11.1732C31.6398 10.9676 31.5491 10.7755 31.4124 10.618C31.2757 10.4605 31.0983 10.3436 30.8997 10.2802C30.7011 10.2169 30.4889 10.2095 30.2863 10.2587C30.0838 10.3079 29.8987 10.4118 29.7512 10.5591L0.0195312 40.342L16.4709 49.5679C16.979 49.8515 17.5512 50.0004 18.1331 50.0004C18.7149 50.0004 19.2871 49.8515 19.7952 49.5679L36.3884 40.3423Z" fill="#FFCA28"/>
<path d="M31.6751 11.1728C31.6402 10.9672 31.5495 10.7751 31.4128 10.6176C31.2761 10.4601 31.0987 10.3432 30.9 10.2798C30.7015 10.2165 30.4893 10.209 30.2868 10.2581C30.0842 10.3072 29.8991 10.4111 29.7516 10.5583L23.8503 16.4752L19.21 7.64069C19.1136 7.45746 18.9689 7.30405 18.7916 7.19704C18.6144 7.09002 18.4112 7.03346 18.2042 7.03346C17.9971 7.03346 17.794 7.09002 17.6167 7.19704C17.4394 7.30405 17.2947 7.45746 17.1983 7.64069L14.6615 12.4708L8.2966 0.59996C8.18396 0.389688 8.00802 0.220181 7.79371 0.115441C7.57939 0.010701 7.33755 -0.023963 7.10244 0.0163574C6.86749 0.0566668 6.65116 0.169819 6.48404 0.339812C6.31693 0.509805 6.20748 0.728034 6.17118 0.963637L0.0199224 40.3419H0L0.0195312 40.3646L0.181643 40.4443L29.743 10.8485C29.8904 10.7005 30.0758 10.5959 30.2788 10.5463C30.4818 10.4967 30.6945 10.504 30.8936 10.5674C31.0927 10.6309 31.2704 10.7479 31.4073 10.9058C31.5442 11.0636 31.635 11.2562 31.6696 11.4622L36.3435 40.3701L36.3888 40.3415L31.6751 11.1728ZM0.0738289 40.288L6.17392 1.24216C6.21016 1.00643 6.31963 0.788071 6.48683 0.617996C6.65403 0.447921 6.87049 0.334744 7.10557 0.294486C7.34072 0.2542 7.58259 0.288922 7.79691 0.393734C8.01123 0.498547 8.18714 0.668136 8.29973 0.878479L14.6639 12.7497L17.201 7.9192C17.2975 7.73597 17.4422 7.58257 17.6194 7.47556C17.7967 7.36854 17.9998 7.31198 18.2069 7.31198C18.414 7.31198 18.6171 7.36854 18.7944 7.47556C18.9716 7.58257 19.1163 7.73597 19.2128 7.9192L23.7589 16.5658L0.073048 40.288H0.0738289Z" fill="white" fill-opacity="0.2"/>
<path opacity="0.2" d="M19.795 49.2894C19.2869 49.573 18.7147 49.7219 18.1329 49.7219C17.551 49.7219 16.9788 49.573 16.4707 49.2894L0.0583987 40.09L0.0185547 40.3428L16.47 49.5656C16.978 49.8492 17.5502 49.9981 18.1321 49.9981C18.714 49.9981 19.2862 49.8492 19.7942 49.5656L36.3882 40.3428L36.3452 40.0811L19.7942 49.2902L19.795 49.2894Z" fill="#A52714"/>
</svg>
