<svg width="95" height="35" viewBox="0 0 95 35" fill="none" xmlns="http://www.w3.org/2000/svg">
<path d="M54.2784 2.43258L54.487 2.56981C56.9384 4.16623 58.6961 6.35567 59.8524 9.00125C60.13 9.41165 59.945 9.63982 59.3899 9.7765L58.4505 10.0136C56.3265 10.5532 54.6412 11.007 52.5451 11.5466L51.3496 11.8536C50.9191 11.9586 50.8004 11.9145 50.3424 11.4004L50.2779 11.3274C49.6249 10.5977 49.1358 10.1102 48.2708 9.67513L48.104 9.59408C45.19 8.18026 42.3686 8.59066 39.7322 10.2784C36.5868 12.2852 34.9679 15.2501 35.0141 18.9446C35.0605 22.5935 37.6043 25.6039 41.2585 26.1056C44.4037 26.5162 47.0401 25.4215 49.1216 23.0953C49.5379 22.5935 49.9079 22.0462 50.3703 21.4076H41.4436C40.4723 21.4076 40.2411 20.8148 40.5649 20.0394L40.7252 19.667C41.3197 18.3031 42.2417 16.3428 42.8404 15.2219L42.9711 14.9806C43.131 14.7072 43.4557 14.3378 44.0801 14.3378H58.9653C59.6339 12.2492 60.7186 10.2756 62.1653 8.40824C65.5419 4.02955 69.6122 1.74882 75.1164 0.791145C79.8343 -0.0300297 84.2748 0.426118 88.2988 3.11726C91.9529 5.58024 94.2194 8.91013 94.8207 13.2886C95.6069 19.4463 93.803 24.4636 89.5015 28.7512C86.4487 31.8071 82.7021 33.7229 78.4004 34.5894C77.1517 34.8176 75.9028 34.8631 74.7002 35C70.4911 34.9087 66.652 33.7229 63.4142 30.9862C61.137 29.0448 59.5684 26.6593 58.7889 23.8818C58.2419 24.9701 57.5914 26.0049 56.8462 26.9721C53.5159 31.3054 49.1681 33.9964 43.6639 34.7265C39.131 35.3193 34.9219 34.4525 31.2215 31.7158C27.7987 29.1616 25.8561 25.7863 25.3471 21.5902C24.7459 16.6183 26.2261 12.1484 29.2788 8.22582C32.563 3.98381 36.9107 1.29285 42.23 0.334998C46.4974 -0.426162 50.5864 0.0431587 54.2786 2.43258M76.2818 8.96868L76.1338 9.00125C71.8322 9.9591 69.057 12.6501 68.0395 16.9376C67.2068 20.4953 68.9644 24.0988 72.2948 25.5583C74.8387 26.653 77.3827 26.5162 79.8341 25.2846C83.4883 23.4146 85.4771 20.4953 85.7085 16.5728C85.6621 15.98 85.6621 15.5236 85.5695 15.0675C84.7465 10.6028 80.6221 8.05529 76.2818 8.96868ZM21.6006 17.3025C21.7856 17.3025 21.8781 17.4393 21.8781 17.6218L21.7856 18.7165C21.7856 18.8989 21.6006 19.0358 21.4618 19.0358L11.3784 18.9902C11.1935 18.9902 11.1473 18.8533 11.2397 18.7165L11.8872 17.5762C11.9798 17.4393 12.1648 17.3025 12.3498 17.3025H21.6006ZM22.6181 13.1062C22.8031 13.1062 22.8957 13.2431 22.8495 13.3799L22.4793 14.4747C22.4331 14.6571 22.2481 14.7482 22.0631 14.7482L0.184983 14.7939C-6.8679e-06 14.7939 -0.0462079 14.7026 0.0461942 14.5658L1.01753 13.3344C1.11012 13.1975 1.34131 13.1062 1.5263 13.1062H22.6181ZM25.0233 8.90995C25.2083 8.90995 25.2545 9.04681 25.1621 9.18367L24.3758 10.3695C24.2832 10.5064 24.052 10.6432 23.9132 10.6432L7.16951 10.5975C6.98433 10.5975 6.93813 10.5064 7.03053 10.3695L8.00187 9.13811C8.09445 9.00125 8.32565 8.90995 8.51064 8.90995H25.0233Z" fill="#00ACD7"/>
</svg>
