<svg width="43" height="54" viewBox="0 0 43 54" fill="none" xmlns="http://www.w3.org/2000/svg">
<path d="M42.957 5.17808C42.957 2.3062 40.6803 0 37.8452 0H5.11189C2.27672 0 0 2.3062 0 5.17808V48.8219C0 51.6938 2.27672 54 5.11189 54H37.8881C40.7233 54 43 51.6938 43 48.8219V5.17808H42.957ZM41.2388 5.2216V48.4303C41.2388 50.4754 39.7353 52.216 37.7163 52.216H5.36963C3.35065 52.216 1.71828 50.4754 1.71828 48.4303V5.2216C1.71828 3.17647 3.39361 1.74053 5.36963 1.74053H37.6733C39.6923 1.74053 41.2817 3.30701 41.2817 5.35214L41.2388 5.2216ZM9.88012 46.4287L15.9371 40.2933L9.88012 34.1579V46.4287ZM15.8941 19.9291V7.13618L9.92308 7.17969C9.92308 7.17969 9.96603 27.1523 10.009 27.0653C28.3946 19.7985 27.0629 24.9766 27.0629 24.9766V46.4722L27.02 46.5592H32.6474V25.0201C32.6474 13.228 15.8941 19.9291 15.8941 19.9291ZM24.0559 14.7945H30.4136C33.8502 10.4432 35.01 7.39726 35.01 7.39726H28.4376C28.4376 7.39726 26.3327 12.1837 24.0559 14.7945Z" fill="#6762A6"/>
</svg>
