<svg width="37" height="50" viewBox="0 0 37 50" fill="none" xmlns="http://www.w3.org/2000/svg">
<path d="M11.8764 38.6676C11.8764 38.6676 9.96573 39.7787 13.2362 40.1547C17.1983 40.6066 19.2232 40.5419 23.5895 39.7154C23.5895 39.7154 24.7375 40.4352 26.3405 41.0587C16.5527 45.2537 4.18834 40.8157 11.8764 38.6676ZM10.6803 33.1934C10.6803 33.1934 8.53731 34.7797 11.8102 35.1182C16.0426 35.5548 19.385 35.5906 25.1688 34.4769C25.1688 34.4769 25.9688 35.2879 27.2267 35.7314C15.3923 39.1919 2.21111 36.0043 10.6803 33.1934Z" fill="#5382A1"/>
<path d="M20.7629 23.908C23.1747 26.6847 20.1293 29.1834 20.1293 29.1834C20.1293 29.1834 26.2531 26.0221 23.4407 22.0633C20.814 18.3717 18.7996 16.5372 29.7045 10.2129C29.7045 10.2129 12.5874 14.488 20.7629 23.908Z" fill="#E76F00"/>
<path d="M33.7087 42.7172C33.7087 42.7172 35.1227 43.8821 32.1515 44.7835C26.5018 46.4951 8.63657 47.0119 3.67365 44.8517C1.88968 44.0757 5.23526 42.9986 6.28758 42.7725C7.38506 42.5345 8.01234 42.579 8.01234 42.579C6.0283 41.1812 -4.81161 45.3233 2.50625 46.5094C22.4629 49.7458 38.8852 45.0522 33.7087 42.7172ZM12.795 27.5221C12.795 27.5221 3.70782 29.6806 9.57713 30.4642C12.0553 30.796 16.9955 30.721 21.5972 30.3354C25.358 30.0183 29.1342 29.3437 29.1342 29.3437C29.1342 29.3437 27.8081 29.9116 26.8488 30.5667C17.6207 32.9937 -0.206264 31.8647 4.92589 29.3821C9.26617 27.2841 12.795 27.5221 12.795 27.5221ZM29.0967 36.6341C38.4777 31.7595 34.1403 27.0751 31.1129 27.7063C30.3708 27.8606 30.04 27.9943 30.04 27.9943C30.04 27.9943 30.3155 27.5629 30.8416 27.3762C36.8306 25.2705 41.4367 33.5863 28.9082 36.8797C28.9082 36.8799 29.0534 36.7502 29.0967 36.6341Z" fill="#5382A1"/>
<path d="M23.4408 0.000144766C23.4408 0.000144766 28.636 5.1973 18.5133 13.1886C10.396 19.5992 16.6623 23.2543 18.51 27.4304C13.7717 23.1554 10.2944 19.3921 12.6273 15.8895C16.0512 10.7478 25.5368 8.25523 23.4408 0.000144766Z" fill="#E76F00"/>
<path d="M13.7173 49.8431C22.7217 50.4196 36.5489 49.5233 36.8763 45.2627C36.8763 45.2627 36.2469 46.878 29.4347 48.1607C21.7493 49.6069 12.2705 49.4381 6.64844 48.5111C6.64858 48.5111 7.79919 49.4637 13.7173 49.8431Z" fill="#5382A1"/>
</svg>
