<svg width="119" height="31" viewBox="0 0 119 31" fill="none" xmlns="http://www.w3.org/2000/svg">
<path d="M8.91838 3.23233C7.7499 1.7882 6.74344 0.32161 6.53806 0.0168696C6.53317 0.0115379 6.5273 0.00729399 6.52079 0.00439447C6.51428 0.00149494 6.50728 0 6.5002 0C6.49312 0 6.48612 0.00149494 6.47961 0.00439447C6.4731 0.00729399 6.46722 0.0115379 6.46233 0.0168696C6.25673 0.32161 5.25049 1.7882 4.08202 3.23233C-5.94776 16.5562 5.6617 25.5477 5.6617 25.5477L5.759 25.6156C5.84551 27.003 6.06191 29 6.06191 29H6.92748C6.92748 29 7.14387 27.0143 7.23038 25.6156L7.3279 25.5364C7.33869 25.5477 18.9479 16.5562 8.91838 3.23233ZM6.49469 25.3448C6.49469 25.3448 5.9754 24.882 5.83473 24.6454V24.6227L6.46233 10.1143C6.46233 10.0691 6.52727 10.0691 6.52727 10.1143L7.15466 24.6227V24.6454C7.01399 24.882 6.49469 25.3448 6.49469 25.3448Z" fill="#01EC64"/>
<path d="M29.9445 22.1521L24.9825 10.0336L24.9717 10.0002H21.1113V10.8147H21.734C21.9233 10.8147 22.1012 10.893 22.2349 11.0267C22.3683 11.1606 22.4351 11.3392 22.4351 11.5291L22.3238 23.7252C22.3238 24.1048 22.0124 24.4171 21.634 24.4284L21 24.4394V25.2428H24.7603V24.4394L24.3708 24.4284C23.9926 24.4171 23.681 24.1048 23.681 23.7254V12.2316L29.0878 25.2426C29.1657 25.4322 29.3436 25.5551 29.5442 25.5551C29.7442 25.5551 29.9221 25.4322 30 25.2426L35.2847 12.5217L35.3626 23.7252C35.3626 24.1156 35.051 24.4281 34.6615 24.4392H34.2609V25.2426H38.6666V24.4392H38.0657C37.6878 24.4392 37.3759 24.1156 37.3651 23.7363L37.3315 11.5397C37.3313 11.3545 37.4032 11.1764 37.5319 11.0432C37.6606 10.9099 37.8361 10.832 38.0212 10.8257L38.6666 10.8145V10H34.9062L29.9445 22.1521ZM64.5408 24.2272C64.4182 24.1043 64.3511 23.9368 64.3511 23.7354V17.7442C64.3511 16.6041 64.0167 15.7097 63.3474 15.0727C62.6892 14.4355 61.7747 14.1115 60.6371 14.1115C59.0418 14.1115 57.7816 14.7597 56.9003 16.034C56.8892 16.0563 56.8558 16.0676 56.8224 16.0676C56.789 16.0676 56.7666 16.045 56.7666 16.0116L56.3539 14.4131H55.6622L53.8888 15.4304V15.9893H54.346C54.558 15.9893 54.7364 16.045 54.8593 16.157C54.9819 16.2688 55.0487 16.4364 55.0487 16.671V23.7243C55.0487 23.9255 54.9819 24.0933 54.8593 24.2163C54.7364 24.3392 54.5691 24.4062 54.3684 24.4062H53.9222V25.2221H58.0045V24.4062H57.5585C57.3575 24.4062 57.1902 24.3392 57.0676 24.2163C56.945 24.0933 56.8779 23.9255 56.8779 23.7243V19.0519C56.8779 18.4596 57.0118 17.8671 57.2573 17.2856C57.5138 16.7157 57.8929 16.2349 58.3949 15.866C58.8968 15.497 59.4993 15.3184 60.1907 15.3184C60.9715 15.3184 61.5627 15.5643 61.9307 16.0561C62.2988 16.5479 62.4885 17.1851 62.4885 17.9452V23.713C62.4885 23.9142 62.4216 24.0817 62.2988 24.2048C62.1759 24.3279 62.0089 24.3947 61.8079 24.3947H61.3619V25.2108H65.4442V24.3949H64.9983C64.8309 24.4173 64.6747 24.3502 64.5408 24.2272ZM101.838 10.9126C100.71 10.3118 99.4487 10 98.0878 10H92.7778V10.8124H93.2975C93.4966 10.8124 93.6736 10.8903 93.8506 11.0682C94.0165 11.2353 94.105 11.4245 94.105 11.6248V23.5973C94.105 23.7978 94.0168 23.9868 93.8506 24.1539C93.6847 24.3207 93.4966 24.4097 93.2975 24.4097H92.7775V25.2221H98.0878C99.4487 25.2221 100.71 24.9105 101.838 24.3094C102.967 23.7084 103.885 22.8183 104.548 21.6835C105.212 20.5487 105.555 19.18 105.555 17.6221C105.555 16.0644 105.212 14.7067 104.549 13.5609C103.874 12.4037 102.966 11.5245 101.838 10.9126ZM103.421 17.6C103.421 19.0242 103.166 20.2259 102.668 21.194C102.17 22.162 101.507 22.8852 100.688 23.3528C99.8693 23.8199 98.9619 24.0536 97.9884 24.0536H96.9154C96.7162 24.0536 96.5392 23.9757 96.3622 23.7978C96.1963 23.6307 96.1078 23.4417 96.1078 23.2415V11.9474C96.1078 11.7469 96.1852 11.5692 96.3622 11.3911C96.5282 11.2242 96.7162 11.1353 96.9154 11.1353H97.9884C98.9619 11.1353 99.8691 11.3687 100.688 11.8361C101.507 12.3035 102.17 13.0267 102.668 13.9948C103.166 14.9738 103.421 16.1868 103.421 17.6ZM118.108 18.4124C117.617 17.8447 116.669 17.3663 115.554 17.1102C117.093 16.3426 117.884 15.2633 117.884 13.8722C117.884 13.1159 117.684 12.4369 117.282 11.8585C116.881 11.28 116.312 10.8124 115.588 10.4897C114.862 10.1671 114.015 10.0002 113.056 10.0002H107.045V10.8124H107.524C107.725 10.8124 107.903 10.8903 108.082 11.0682C108.249 11.2353 108.338 11.4245 108.338 11.6248V23.5973C108.338 23.7978 108.249 23.9868 108.082 24.1539C107.914 24.3207 107.725 24.4097 107.524 24.4097H107V25.2221H113.525C114.517 25.2221 115.442 25.0552 116.279 24.7213C117.115 24.3876 117.785 23.8978 118.264 23.2525C118.755 22.6072 119 21.817 119 20.9046C118.989 19.9256 118.699 19.0908 118.108 18.4124ZM110.625 23.8089C110.457 23.642 110.368 23.4528 110.368 23.2525V17.8779H113.469C114.561 17.8779 115.397 18.156 115.977 18.7122C116.557 19.2687 116.847 19.992 116.847 20.8822C116.847 21.4162 116.713 21.9394 116.469 22.4178C116.212 22.9073 115.832 23.2968 115.32 23.5973C114.817 23.8976 114.193 24.0536 113.469 24.0536H111.182C110.981 24.0536 110.802 23.9755 110.624 23.8086M110.379 16.7318V11.9585C110.379 11.7582 110.457 11.5803 110.635 11.4021C110.802 11.2353 110.992 11.1463 111.193 11.1463H112.665C113.724 11.1463 114.505 11.4134 114.996 11.9253C115.486 12.4482 115.732 13.1159 115.732 13.9391C115.732 14.7849 115.497 15.4636 115.041 15.9754C114.583 16.476 113.892 16.732 112.977 16.732L110.379 16.7318ZM48.9996 14.8208C48.1473 14.3553 47.1955 14.111 46.1662 14.111C45.1642 14.111 44.225 14.332 43.3997 14.7839L43.3331 14.8208C42.4808 15.2866 41.8058 15.963 41.3077 16.8169C40.8099 17.6707 40.5552 18.6689 40.5552 19.7776C40.5552 20.8866 40.8097 21.8847 41.3077 22.7386C41.8058 23.5925 42.4808 24.2689 43.3331 24.7344C44.1854 25.1999 45.1372 25.4442 46.1662 25.4442C47.1685 25.4442 48.1077 25.2234 48.9328 24.7717L48.9996 24.7346C49.8516 24.2689 50.5269 23.5925 51.025 22.7386C51.5228 21.8847 51.7774 20.8866 51.7774 19.7776C51.7774 18.6689 51.5228 17.6707 51.025 16.8169C50.5272 15.963 49.8519 15.2864 48.9996 14.8208ZM49.8185 19.7778C49.8185 21.142 49.4866 22.2507 48.8224 23.0493C48.1695 23.8476 47.2732 24.2578 46.1662 24.2578C45.0793 24.2578 44.1953 23.8621 43.5453 23.0917L43.5103 23.0493C42.8461 22.2507 42.514 21.142 42.514 19.7778C42.514 18.4389 42.8343 17.3455 43.4744 16.5504L43.5103 16.5067C44.163 15.7083 45.0597 15.2979 46.1662 15.2979C47.2732 15.2979 48.1695 15.7081 48.8224 16.5067C49.4866 17.3052 49.8185 18.414 49.8185 19.7778ZM88.2216 14.8211C87.3694 14.3555 86.4178 14.1112 85.3885 14.1112C84.3864 14.1112 83.447 14.3322 82.622 14.7842L82.5551 14.8211C81.7031 15.2868 81.028 15.9632 80.53 16.8171C80.0319 17.671 79.7773 18.6691 79.7773 19.7778C79.7773 20.8868 80.0319 21.885 80.53 22.7388C81.028 23.5927 81.7031 24.2691 82.5553 24.7346C83.4074 25.2004 84.3592 25.4445 85.3885 25.4445C86.3906 25.4445 87.33 25.2237 88.155 24.772L88.2219 24.7349C89.0739 24.2691 89.749 23.5927 90.247 22.7388C90.745 21.885 90.9995 20.8868 90.9995 19.7778C90.9995 18.6691 90.745 17.671 90.247 16.8171C89.749 15.9632 89.0629 15.2866 88.2216 14.8211ZM89.0407 19.7781C89.0407 21.1422 88.7086 22.2509 88.0446 23.0495C87.3915 23.8478 86.4952 24.258 85.3885 24.258C84.3014 24.258 83.4173 23.8623 82.7676 23.0919L82.7323 23.0495C82.0684 22.2509 81.7363 21.1422 81.7363 19.7781C81.7363 18.428 82.0564 17.3453 82.6964 16.5507L82.7323 16.5069C83.3853 15.7086 84.2818 15.2981 85.3885 15.2981C86.4952 15.2981 87.3915 15.7083 88.0446 16.5069C88.6978 17.3054 89.0407 18.4142 89.0407 19.7781ZM72.4041 14.1117C71.5124 14.1117 70.6987 14.3011 69.963 14.6798C69.2274 15.0584 68.6477 15.571 68.2354 16.2283C67.8252 16.866 67.6085 17.6089 67.6113 18.3672C67.6113 19.0579 67.7673 19.6928 68.0907 20.2611C68.4025 20.8069 68.8261 21.2636 69.3613 21.6423L67.7673 23.8036C67.5668 24.0709 67.5445 24.4274 67.6892 24.7171C67.8452 25.0179 68.1352 25.196 68.4696 25.196H68.9266C68.4993 25.4843 68.1538 25.8238 67.91 26.2239L67.8787 26.2767C67.589 26.7556 67.444 27.2571 67.444 27.7694C67.444 28.7104 67.8526 29.4902 68.659 30.077L68.7035 30.1088C69.5286 30.6992 70.6876 31 72.1476 31C73.1619 31 74.1317 30.8329 75.0123 30.5098C75.8784 30.1961 76.5867 29.735 77.117 29.1372L77.1631 29.0842C77.7093 28.4601 77.9882 27.7025 77.9882 26.8337C77.9882 25.9201 77.6537 25.2739 76.8736 24.6503C76.2048 24.1267 75.1571 23.8483 73.8529 23.8483H69.3947C69.3882 23.8477 69.382 23.8451 69.3769 23.8409L69.3723 23.837L69.3702 23.8324C69.3679 23.8252 69.3643 23.8116 69.3723 23.8036L70.5316 22.244C70.8061 22.3719 71.0939 22.469 71.3898 22.5335C71.6572 22.5893 71.9582 22.6116 72.2926 22.6116C73.2288 22.6116 74.076 22.4222 74.8116 22.0435C75.5473 21.6646 76.138 21.1523 76.5616 20.4948C76.9849 19.8488 77.1967 19.1247 77.1967 18.3561C77.1967 17.5318 76.7957 16.0278 75.7033 15.2592C75.7033 15.2522 75.7072 15.2497 75.7104 15.2486L75.7144 15.2479L78.1108 15.5152V14.4124H74.2765C73.6747 14.223 73.0504 14.1117 72.4041 14.1117ZM73.7415 21.0855C73.3179 21.3081 72.8612 21.4307 72.4041 21.4307C71.6574 21.4307 70.9997 21.1634 70.4424 20.6398C69.8851 20.1162 69.6065 19.3476 69.6065 18.3672C69.6065 17.3868 69.8851 16.618 70.4424 16.0946C70.9997 15.5712 71.6572 15.3036 72.4041 15.3036C72.8526 15.3036 73.2808 15.406 73.6885 15.6203L73.7415 15.6489C74.1651 15.8717 74.5106 16.2172 74.7893 16.674C75.0566 17.1307 75.2018 17.6988 75.2018 18.3672C75.2018 19.0468 75.0679 19.6149 74.7893 20.0604C74.5219 20.5172 74.1651 20.8626 73.7415 21.0855ZM70.721 25.1847H73.7415C74.5775 25.1847 75.1126 25.3518 75.4691 25.7083C75.8257 26.0649 76.004 26.5438 76.004 27.1008C76.004 27.9141 75.6809 28.5827 75.0345 29.0837C74.388 29.5852 73.5187 29.8412 72.4486 29.8412C71.5122 29.8412 70.7321 29.6297 70.1635 29.2287C69.595 28.8277 69.3055 28.2146 69.3055 27.435C69.3055 26.9448 69.4392 26.488 69.7067 26.087C69.9741 25.686 70.2974 25.3963 70.7208 25.1847" fill="#001E2B"/>
</svg>
