<svg width="79" height="42" viewBox="0 0 79 42" fill="none" xmlns="http://www.w3.org/2000/svg">
<path d="M0 37.3724H2.6181V27.0364L6.67055 36.0461C7.14763 37.1385 7.80123 37.5218 9.08621 37.5218C10.3712 37.5218 10.9983 37.1385 11.4753 36.0461L15.5278 27.0364V37.3718H18.1459V27.0537C18.1459 26.0458 17.7435 25.5589 16.9115 25.3083C14.9223 24.6886 13.5892 25.2237 12.9844 26.5667L9.00907 35.4604L5.15906 26.5667C4.58076 25.2237 3.22109 24.6886 1.23437 25.3083C0.402405 25.5589 0 26.0458 0 27.0537L0 37.3724ZM20.3239 28.9583H22.9396V34.6531C22.9155 34.9617 23.0383 35.6875 24.4727 35.7116H30.165V28.9293H32.788C32.8004 28.9293 32.7831 38.1772 32.7831 38.2161C32.7973 40.4966 29.9551 40.991 28.6436 41.0299H20.3795V39.2697L28.6584 39.2672C30.3433 39.0913 30.1434 38.2519 30.1434 37.9723V37.2854H24.5813C21.9922 37.2613 20.3455 36.1306 20.3239 34.8308C20.3215 34.713 20.3795 29.0163 20.3239 28.9583Z" fill="#00618A"/>
<path d="M34.8037 37.3724H42.3303C43.2104 37.3724 44.0664 37.1867 44.746 36.8688C45.8791 36.3504 46.4309 35.6443 46.4309 34.721V32.809C46.4309 32.0541 45.8038 31.3481 44.5694 30.8803C43.9158 30.6272 43.1086 30.4945 42.3297 30.4945H39.1567C38.1007 30.4945 37.5971 30.176 37.4718 29.4725C37.4477 29.3879 37.4477 29.3206 37.4477 29.2361V28.0449C37.4477 27.9776 37.4477 27.9097 37.4718 27.8258C37.5971 27.2907 37.8742 27.1389 38.8049 27.0543L39.058 27.0377H46.5315V25.2947H39.1839C38.1279 25.2947 37.5736 25.362 37.0694 25.512C35.5098 25.9989 34.8296 26.7704 34.8296 28.1134V29.6397C34.8296 30.8136 36.1628 31.8215 38.4025 32.0554L39.1573 32.0893H41.8767C41.9779 32.0893 42.0766 32.0893 42.1538 32.106C42.9833 32.1733 43.3351 32.3251 43.5881 32.6269C43.7183 32.7472 43.793 32.9188 43.7881 33.0947V34.6235C43.7881 34.8068 43.6628 35.0432 43.4122 35.2431C43.1857 35.4456 42.8074 35.5783 42.3056 35.6122L42.0285 35.6289H34.8037V37.3724ZM62.7604 34.3346C62.7604 36.1307 64.096 37.1361 66.7863 37.3385L67.5436 37.3724H74.3641V35.627H67.493C65.9574 35.627 65.3785 35.2413 65.3785 34.318V25.291H62.7629V34.334L62.7604 34.3346ZM48.1022 34.426V28.2035C48.1022 26.6241 49.2138 25.665 51.4073 25.3632C51.6413 25.3295 51.8775 25.3125 52.1139 25.3126H57.0804C57.3335 25.3126 57.56 25.3293 57.8136 25.3632C60.0077 25.6644 61.1168 26.6241 61.1168 28.2035V34.426C61.1168 35.7085 60.6465 36.3936 59.5597 36.8417L62.1395 39.1684H59.0992L57.0138 37.2854L54.9141 37.4181H52.1152C51.595 37.4165 51.0774 37.3434 50.5771 37.2009C48.9113 36.7478 48.1035 35.8727 48.1035 34.426H48.1022ZM50.9277 34.2742C50.9277 34.3587 50.9518 34.4427 50.9783 34.5445C51.1301 35.2678 51.8103 35.6702 52.8441 35.6702H55.2215L53.0372 33.6983H56.0775L57.9821 35.4197C58.3339 35.2314 58.5629 34.9469 58.645 34.5784C58.6691 34.4939 58.6691 34.4099 58.6691 34.3254V28.3584C58.6691 28.2912 58.6691 28.2066 58.645 28.122C58.4932 27.4493 57.813 27.0636 56.8033 27.0636H52.8447C51.685 27.0636 50.9283 27.5672 50.9283 28.3584L50.9277 34.2742Z" fill="#E48E00"/>
<path d="M76.6663 22.3961C75.0585 22.3529 73.8285 22.5022 72.7774 22.946C72.4787 23.0713 72.001 23.0738 71.9529 23.4478C72.117 23.6212 72.1436 23.8792 72.2738 24.089C72.5244 24.4964 72.949 25.0389 73.3273 25.3234L74.6074 26.2393C75.3931 26.7189 76.2732 26.9941 77.0329 27.4737C77.4791 27.7582 77.9223 28.1149 78.3586 28.4359C78.5734 28.5926 78.7178 28.8407 78.9999 28.9395V28.8938C78.853 28.7056 78.8141 28.4476 78.679 28.2526L78.0834 27.657C77.5026 26.8855 76.7644 26.2078 75.9788 25.6437C75.3517 25.195 73.9538 24.5877 73.6909 23.8594L73.6452 23.8138C74.0889 23.7656 74.6098 23.6039 75.0172 23.4953C75.7066 23.3095 76.3213 23.3577 77.0304 23.1744L77.9926 22.8972V22.7164C77.6334 22.3473 77.3779 21.8604 76.9848 21.5252C75.9627 20.655 74.8438 19.7823 73.6915 19.054C73.0527 18.6516 72.2645 18.3912 71.5869 18.0486C71.3604 17.9332 70.9598 17.8752 70.808 17.682C70.4537 17.229 70.2605 16.655 69.9859 16.1267L68.3392 12.6501C67.9924 11.857 67.7653 11.0732 67.3314 10.3622C65.2558 6.94607 63.0185 4.88467 59.5536 2.85968C58.8185 2.42826 57.9285 2.25916 56.9935 2.03759L55.482 1.94624C55.1759 1.81601 54.8574 1.44015 54.5686 1.25931C53.4212 0.533502 50.4772 -1.04279 49.6261 1.03034C49.091 2.33939 50.4291 3.61696 50.9087 4.28044C51.2438 4.7458 51.6752 5.2667 51.9141 5.78946C52.0733 6.132 52.0998 6.47639 52.235 6.84053C52.5677 7.7373 52.8571 8.71122 53.2885 9.54072C53.5058 9.9604 53.744 10.4017 54.0193 10.7751C54.1878 11.0041 54.4772 11.1078 54.5229 11.462C54.2409 11.8576 54.2242 12.4699 54.065 12.971C53.349 15.225 53.6187 18.0264 54.6605 19.6971C54.979 20.2082 55.7307 21.3074 56.7651 20.8858C57.6693 20.5168 57.4669 19.3768 57.7249 18.3689C57.7853 18.1424 57.7489 17.9733 57.8625 17.8215V17.8672L58.6871 19.5138C59.2968 20.4952 60.3769 21.5197 61.2934 22.2115C61.7705 22.5707 62.1445 23.1929 62.7593 23.4027V23.3546H62.7136C62.5932 23.1713 62.4075 23.0941 62.2556 22.9448C61.8964 22.593 61.4983 22.1566 61.2046 21.7536C60.3701 20.6229 59.6326 19.3836 58.9623 18.0937C58.6414 17.479 58.3618 16.7988 58.0921 16.1724C57.9884 15.9311 57.9909 15.5651 57.7736 15.4416C57.4774 15.8996 57.041 16.2711 56.8114 16.8136C56.4448 17.6789 56.3991 18.7374 56.2615 19.8323L56.1702 19.878C55.5339 19.7237 55.3092 19.0682 55.0734 18.506C54.4729 17.0833 54.3624 14.7905 54.8901 13.1537C55.0253 12.7297 55.6425 11.3935 55.3919 11.0034C55.274 10.6128 54.8809 10.3863 54.6612 10.0875C54.3739 9.68698 54.1284 9.25806 53.9286 8.8075C53.4391 7.69595 53.2101 6.45232 52.6942 5.33089C52.4485 4.79332 52.0313 4.25081 51.6888 3.77373C51.308 3.24604 50.8834 2.85783 50.5896 2.21842C50.4859 1.99191 50.3439 1.62777 50.4982 1.39386C50.5464 1.2371 50.6186 1.17229 50.7729 1.12168C51.0383 0.916775 51.7783 1.18895 52.0529 1.30252C52.788 1.60864 53.4009 1.8981 54.0224 2.31038C54.3186 2.50788 54.6204 2.89115 54.9821 2.99731H55.3944C56.0381 3.1442 56.759 3.04051 57.362 3.22382C58.4254 3.54661 59.3802 4.05085 60.243 4.59829C62.8802 6.26161 65.0361 8.6316 66.5111 11.4595C66.75 11.915 66.8512 12.3489 67.061 12.8316C67.4832 13.8055 68.0134 14.8084 68.433 15.7607C68.8527 16.713 69.2601 17.6703 69.8507 18.4609C70.1618 18.8757 71.3647 19.0972 71.9097 19.3287C72.2929 19.4904 72.92 19.6589 73.2817 19.8786C73.976 20.2958 74.6463 20.792 75.2974 21.2506C75.6202 21.482 76.6188 21.9838 76.6694 22.3955L76.6663 22.3961ZM56.2146 4.96552C55.9378 4.96105 55.6616 4.99175 55.3925 5.05686V5.10253H55.4382C55.5974 5.43273 55.8795 5.64504 56.077 5.92709L56.5349 6.88682L56.5806 6.84361C56.8651 6.64364 56.9929 6.32271 56.9929 5.83575C56.8775 5.7154 56.8627 5.56604 56.7639 5.42347C56.6337 5.23276 56.3813 5.12722 56.2146 4.96552Z" fill="#00618A"/>
</svg>
