<svg width="106" height="42" viewBox="0 0 106 42" fill="none" xmlns="http://www.w3.org/2000/svg">
<path d="M36.6191 8.57699C40.419 20.1968 41.8582 40.9243 52.9696 40.9243C53.8144 40.9243 54.6704 40.8417 55.5281 40.6783C45.4284 38.3237 44.2309 17.8215 38.067 7.20312C37.5758 7.65201 37.0931 8.11004 36.6191 8.57699Z" fill="url(#paint0_linear_2895_1590)"/>
<path d="M38.0674 7.20225C44.2313 17.8198 45.4288 38.322 55.5285 40.6774C56.3391 40.5244 57.1366 40.309 57.914 40.0331C48.8475 35.5906 46.3424 15.682 39.3423 6.09766C38.9185 6.45094 38.4935 6.81914 38.0674 7.20225Z" fill="url(#paint1_linear_2895_1590)"/>
<path d="M46.9478 0.89066C46.1048 0.89066 45.2471 0.973246 44.3868 1.1367C42.1397 1.56082 39.8548 2.52863 37.5527 3.99368C38.1807 4.6148 38.7803 5.32453 39.343 6.09965C41.6855 4.15628 44.0117 2.72047 46.3284 1.85675C47.1742 1.53976 48.0462 1.29739 48.9342 1.1324C48.2846 0.96989 47.6174 0.888691 46.9478 0.89066Z" fill="#14559A"/>
<path d="M64.9907 35.9403C65.9566 35.169 66.8867 34.3537 67.778 33.4972C63.9171 21.9324 62.5346 0.907227 51.3458 0.907227C50.5458 0.907227 49.7388 0.982069 48.9336 1.1309C59.1253 3.66614 60.4312 25.8398 64.9907 35.9403Z" fill="url(#paint2_linear_2895_1590)"/>
<path d="M48.9354 1.1313C48.2853 0.968361 47.6175 0.886872 46.9473 0.888702L51.3467 0.905045C50.5475 0.905045 49.7406 0.979029 48.9354 1.1313Z" fill="#3092C4"/>
<path d="M64.7954 38.3949C64.3496 37.9649 63.9285 37.51 63.5343 37.0322C61.652 38.3648 59.7766 39.3756 57.9141 40.0337C58.5773 40.3572 59.2716 40.5981 60.0097 40.7469C60.5809 40.8639 61.1737 40.9241 61.7948 40.9241C63.8861 40.9241 65.5396 40.6764 66.9453 40.0019C66.171 39.5821 65.4604 39.0401 64.7954 38.3949Z" fill="#1969BC"/>
<path d="M46.3281 1.8578C55.4565 6.63234 56.2506 28.2546 63.5345 37.0337C64.022 36.6896 64.507 36.3251 64.9893 35.9403C60.4298 25.8398 59.1265 3.66352 48.9365 1.13086C48.0676 1.29259 47.1982 1.5349 46.3281 1.8578Z" fill="url(#paint3_linear_2895_1590)"/>
<path d="M39.3418 6.09762C46.3419 15.682 48.847 35.5914 57.9135 40.0339C59.7768 39.3758 61.6523 38.3658 63.5337 37.0324C56.2497 28.2532 55.4557 6.63185 46.3273 1.85645C44.0105 2.71844 41.6843 4.15425 39.3418 6.09762Z" fill="url(#paint4_linear_2895_1590)"/>
<path d="M32.1422 8.29828C31.0453 10.7785 29.9244 14.0398 28.5703 18.2956C31.2638 14.4992 33.9496 11.2292 36.6199 8.57873C36.2827 7.52298 35.8858 6.48726 35.431 5.47656C34.284 6.35636 33.1861 7.29834 32.1422 8.29828Z" fill="url(#paint5_linear_2895_1590)"/>
<path d="M36.4038 4.75879C36.082 4.98934 35.7577 5.22506 35.4316 5.47454C35.8575 6.40364 36.2515 7.4463 36.6188 8.57757C37.0938 8.11128 37.5767 7.65326 38.0675 7.2037C37.5764 6.34732 37.0202 5.52994 36.4038 4.75879Z" fill="#2B74B1"/>
<path d="M37.5535 3.99219C37.1716 4.23536 36.7882 4.49086 36.4033 4.75869C37.0012 5.49423 37.5501 6.3158 38.0688 7.20533C38.4944 6.81935 38.9193 6.45029 39.3438 6.09815C38.7811 5.3239 38.1824 4.61331 37.5535 3.99219Z" fill="#125A9E"/>
<path d="M99.8179 0.00430231C94.6554 19.9146 83.8718 35.9072 74.832 39.9384H74.8139L74.3262 40.1475L74.2668 40.1707L74.1283 40.224L74.0664 40.2498L73.8401 40.3298L73.7472 40.3625L73.6345 40.3995L73.5261 40.4374L73.4298 40.4701L73.237 40.5286L73.1545 40.5501L73.0246 40.5854L72.936 40.6094L72.794 40.6464L72.6211 40.6843C73.0297 40.8348 73.4556 40.9114 73.9141 40.9114C82.4868 40.9114 91.1308 25.5485 105.433 0H99.8171L99.8179 0.00430231Z" fill="url(#paint6_linear_2895_1590)"/>
<path d="M26.7073 1.69835L26.7237 1.68459L26.7435 1.67169H26.7547L26.8932 1.61835L26.9207 1.60458L26.9568 1.58996L27.1056 1.53662H27.1134L27.4429 1.42135L27.4919 1.40844L27.633 1.36629L27.6975 1.34564L27.8395 1.30349L27.8937 1.28886L28.3651 1.1667L28.4296 1.15208L28.5673 1.12541L28.6344 1.10476L28.7729 1.07895H28.8056L29.092 1.02562H29.1488L29.2813 1.00239L29.3561 0.989484L29.4826 0.970559L29.5523 0.956795L29.8603 0.929265C29.5568 0.900313 29.2523 0.884815 28.9475 0.882812C19.2926 0.882812 5.99098 18.7955 0 41.9938H1.15535C2.94656 38.7919 4.68513 35.5608 6.37036 32.3019C10.5677 15.8706 19.1145 4.6646 26.7073 1.69578" fill="url(#paint7_linear_2895_1590)"/>
<path d="M32.1416 8.29846C33.1866 7.29948 34.2845 6.35727 35.4304 5.47589C35.1972 4.95689 34.9356 4.45114 34.6467 3.96094C33.7641 5.03284 32.9571 6.44714 32.1416 8.29846Z" fill="#0D82CA"/>
<path d="M32.9356 1.83429C33.5662 2.3625 34.1314 3.09029 34.6476 3.96175C34.8093 3.76274 34.9756 3.57663 35.1466 3.40343C34.4532 2.74789 33.667 2.19801 32.8135 1.77148L32.9167 1.82052L32.9356 1.83429Z" fill="#0D82CA"/>
<path d="M6.37207 32.3024C15.1753 15.3386 19.3459 4.60231 26.709 1.69629C19.1171 4.66769 10.5685 15.8728 6.37207 32.3024Z" fill="url(#paint8_linear_2895_1590)"/>
<path d="M35.1464 3.40332C34.9752 3.57882 34.8118 3.76206 34.6475 3.96164C34.9245 4.42447 35.1817 4.92859 35.4329 5.47573C35.7581 5.22625 36.0833 4.99139 36.4041 4.75998C36.0179 4.27825 35.5976 3.82487 35.1464 3.40332Z" fill="#127BCA"/>
<path d="M10.3685 41.9171L10.2085 41.936H10.1784L10.0425 41.9498H10.0201L9.69664 41.9713H9.66309C18.5721 41.7218 22.6455 37.2613 24.6663 30.7903C26.2019 25.8858 27.464 21.7531 28.5694 18.2861C24.8375 23.539 21.0884 29.8001 17.3196 36.8157C15.5027 40.1966 12.7386 41.6091 10.3685 41.9102" fill="url(#paint9_linear_2895_1590)"/>
<path d="M10.369 41.9144C12.7391 41.6124 15.5032 40.2016 17.3201 36.8189C21.089 29.8068 24.8398 23.544 28.5682 18.2903C29.9249 14.0327 31.0441 10.774 32.1418 8.29297C24.7099 15.367 17.2495 27.1296 10.3682 41.9101" fill="url(#paint10_linear_2895_1590)"/>
<path d="M6.37212 32.3027C4.68688 35.5618 2.94802 38.7929 1.15625 41.9946H4.51478C4.93993 38.7305 5.55987 35.4946 6.37126 32.3045" fill="#05A1E6"/>
<path d="M29.5514 0.963216L29.48 0.976979L29.3544 0.995045L29.2804 1.00795L29.1479 1.03118L29.0911 1.04494L28.8047 1.09484H28.772L28.6326 1.12237L28.5629 1.14129L28.4279 1.16796L28.3642 1.18345L27.8919 1.30561L27.8377 1.32109L27.6949 1.36325L27.6304 1.38131L27.4902 1.42346L27.4386 1.43723L27.1108 1.55251L26.962 1.60412L26.9 1.62993L26.7615 1.68155L26.7151 1.70392C19.3528 4.60908 15.1822 15.3454 6.37894 32.3092C5.56553 35.4989 4.94557 38.7349 4.52246 41.9994H4.99303L8.22338 41.9856H9.70564L10.0282 41.9641H10.0489L10.1848 41.9503H10.2166L10.3767 41.9314C17.2589 27.1501 24.7192 15.3884 32.1503 8.3143C32.9676 6.46298 33.7736 5.04868 34.6546 3.97849C34.1384 3.10703 33.5741 2.37751 32.9443 1.84844L32.9263 1.83468L32.8213 1.78392L32.7172 1.73145L32.6166 1.68241L32.497 1.63251L32.4041 1.59208L32.2088 1.51035L32.1253 1.47938L31.98 1.42089L31.9017 1.39507L31.6995 1.32539H31.6832L31.4492 1.25915L31.3967 1.24281L31.1997 1.18775L31.1541 1.17485C30.9923 1.13307 30.829 1.0972 30.6646 1.06731L30.6138 1.05354L30.4014 1.01913L30.3592 1.00623L30.108 0.97268H30.0641L29.8697 0.951172L29.5617 0.979562" fill="url(#paint11_linear_2895_1590)"/>
<path d="M79.6536 11.0267C77.9589 16.4525 76.5885 20.9285 75.3936 24.6114C80.0416 18.2152 84.62 10.1699 88.9791 0.885742C83.8922 2.48328 81.1806 6.13946 79.6536 11.0267Z" fill="url(#paint12_linear_2895_1590)"/>
<path d="M75.54 39.6009C75.3035 39.7214 75.0652 39.8358 74.832 39.9399C83.8718 35.9077 94.6563 19.9152 99.818 0.00488281H98.7719C86.9103 21.1944 83.0959 35.3795 75.54 39.6009Z" fill="url(#paint13_linear_2895_1590)"/>
<path d="M69.637 37.82C71.6045 35.419 73.2055 31.3378 75.3932 24.6113C72.87 28.0774 70.3304 31.0565 67.7883 33.486L67.7754 33.5075C68.3303 35.1687 68.9385 36.6354 69.6319 37.8192" fill="#079AE1"/>
<path d="M69.6371 37.8213C68.9678 38.6386 68.2581 39.2605 67.4701 39.7216C67.298 39.8226 67.1231 39.9163 66.9453 40.003C67.8002 40.4674 68.7367 40.7627 69.7034 40.8727L70.1541 40.9123H70.1808L70.3976 40.926H71.1331L71.2166 40.9123L71.3792 40.8985H71.4583L71.6347 40.8796H71.6493L71.7035 40.8667L71.8919 40.8374H71.947L72.1586 40.8022H72.193L72.6154 40.7127C71.448 40.286 70.4716 39.2786 69.6311 37.8445" fill="#1969BC"/>
<path d="M52.9707 40.9241C53.8155 40.9241 54.6706 40.8415 55.5283 40.6763C56.3393 40.526 57.1371 40.3111 57.9139 40.0337C58.5771 40.3571 59.2722 40.598 60.0086 40.7486C60.5787 40.8656 61.1743 40.9243 61.7954 40.9249L52.9707 40.9241ZM61.7954 40.9249C63.8851 40.9249 65.5402 40.6763 66.9451 40.001C67.7999 40.4657 68.7364 40.7613 69.7031 40.8716L70.1539 40.9103H70.1806L70.3974 40.9241H70.6572L61.7954 40.9249Z" fill="#1E5CB3"/>
<path d="M70.6562 40.9256H71.1389L71.2223 40.9118L71.3866 40.8981H71.4658L71.6413 40.8791H71.6559L71.7092 40.8654L71.8976 40.837L71.9553 40.8241L72.1678 40.7897H72.2013L72.6237 40.7002C73.0323 40.8507 73.4582 40.9273 73.9167 40.9273L70.658 40.9411L70.6562 40.9256Z" fill="#1D60B5"/>
<path d="M67.7818 33.5089V33.4951C66.8906 34.3517 65.9605 35.1669 64.9945 35.9383C64.5196 36.3166 64.0339 36.6812 63.5381 37.0317C63.9476 37.5204 64.3631 37.978 64.801 38.3953C65.4651 39.0396 66.1748 39.5824 66.9499 40.0014C67.1272 39.9142 67.3018 39.8205 67.4739 39.7201C68.2636 39.259 68.9716 38.6361 69.6418 37.8197C68.9484 36.636 68.3402 35.1684 67.7861 33.508" fill="#175FAB"/>
<path d="M95.4609 0.00488281H90.1952L89.3607 0.0453134L88.9727 0.876342C84.6128 10.1613 80.0362 18.2066 75.3881 24.6028C73.203 31.3285 71.5994 35.4105 69.6328 37.8107C70.4733 39.2456 71.4514 40.2539 72.6145 40.6814L72.7057 40.6616H72.7246L72.7892 40.6479L72.9354 40.6117L73.0223 40.5868L73.1522 40.5532L73.2331 40.53L73.4275 40.4715L73.5238 40.4388L73.6322 40.3993L73.7441 40.364L73.8353 40.3296L74.0624 40.2496L74.1252 40.2263L74.2645 40.1721L74.323 40.1506L74.8117 39.9416H74.8289C75.062 39.8392 75.2995 39.7231 75.5352 39.6026C83.0927 35.3804 86.9081 21.1961 98.7696 0.00746223H95.4566L95.4609 0.00488281Z" fill="url(#paint14_linear_2895_1590)"/>
<path d="M29.8613 0.936962L29.9155 0.950729L30.0532 0.965352H30.0996L30.3508 0.998044L30.393 1.01181L30.6046 1.04708L30.6579 1.05998L31.1457 1.16838L31.1905 1.18214L31.3866 1.2372L31.4408 1.25354L31.6739 1.31979L31.692 1.33355L31.8959 1.40324L31.9733 1.42818L32.1196 1.48754L32.2021 1.51679L32.3966 1.59766L32.4912 1.63809L32.6082 1.68885L32.7114 1.73788L32.8138 1.79122C33.656 2.20415 34.4303 2.75559 35.1477 3.42403C35.4121 3.14702 35.688 2.89639 35.9753 2.67215C34.407 1.55981 32.6288 0.925781 30.5805 0.925781C30.3431 0.925781 30.1056 0.939545 29.8648 0.95761" fill="#7DCBEC"/>
<path d="M35.1455 3.40227C35.5851 3.81091 36.0058 4.26685 36.4032 4.75893C36.7886 4.49139 37.1706 4.2333 37.5534 3.99243C37.0657 3.50041 36.5363 3.0514 35.9714 2.65039C35.6852 2.87406 35.4099 3.12469 35.1455 3.40227Z" fill="#5EC5ED"/>
<path d="M29.635 0.991719L30.3512 0.96137C32.4009 0.96137 34.1774 1.5953 35.7451 2.70703C37.3996 1.39988 39.4013 0.944008 42.1806 0.944008H28.7227L29.635 0.991719Z" fill="url(#paint15_linear_2895_1590)"/>
<path d="M42.1797 0.945778C39.4004 0.945778 37.403 1.40165 35.7441 2.7088C36.2942 3.09675 36.8212 3.54413 37.3249 4.05078C39.6309 2.5873 41.9107 1.61445 44.1602 1.19321C45.0201 1.03108 45.8726 0.950018 46.718 0.950018L42.1797 0.945778Z" fill="url(#paint16_linear_2895_1590)"/>
<path d="M75.3933 24.6159C76.5899 20.9304 77.9569 16.4561 79.6551 11.0286C81.1838 6.13881 83.892 2.48263 88.9762 0.887669L89.3685 0.0566406C81.0789 0.553021 77.2042 4.7701 75.2556 11.0149C71.8455 21.9172 69.78 28.9844 67.791 33.4879C70.3306 31.0594 72.8701 28.0785 75.3933 24.6159Z" fill="url(#paint17_linear_2895_1590)"/>
<defs>
<linearGradient id="paint0_linear_2895_1590" x1="46.262" y1="0.614929" x2="46.262" y2="50.9811" gradientUnits="userSpaceOnUse">
<stop stop-color="#0994DC"/>
<stop offset="0.35" stop-color="#66CEF5"/>
<stop offset="0.846" stop-color="#127BCA"/>
<stop offset="1" stop-color="#127BCA"/>
</linearGradient>
<linearGradient id="paint1_linear_2895_1590" x1="48.1587" y1="-0.597498" x2="48.1587" y2="50.9202" gradientUnits="userSpaceOnUse">
<stop stop-color="#0E76BC"/>
<stop offset="0.36" stop-color="#36AEE8"/>
<stop offset="0.846" stop-color="#00ADEF"/>
<stop offset="1" stop-color="#00ADEF"/>
</linearGradient>
<linearGradient id="paint2_linear_2895_1590" x1="58.3525" y1="39.7019" x2="58.3525" y2="-1.28986" gradientUnits="userSpaceOnUse">
<stop stop-color="#1C63B7"/>
<stop offset="0.5" stop-color="#33BDF2"/>
<stop offset="1" stop-color="#33BDF2" stop-opacity="0.42"/>
</linearGradient>
<linearGradient id="paint3_linear_2895_1590" x1="55.5834" y1="-5.97839" x2="55.5834" y2="47.6472" gradientUnits="userSpaceOnUse">
<stop stop-color="#166AB8"/>
<stop offset="0.4" stop-color="#36AEE8"/>
<stop offset="0.846" stop-color="#0798DD"/>
<stop offset="1" stop-color="#0798DD"/>
</linearGradient>
<linearGradient id="paint4_linear_2895_1590" x1="51.6315" y1="-5.56105" x2="51.6315" y2="51.4629" gradientUnits="userSpaceOnUse">
<stop stop-color="#124379"/>
<stop offset="0.39" stop-color="#1487CB"/>
<stop offset="0.78" stop-color="#165197"/>
<stop offset="1" stop-color="#165197"/>
</linearGradient>
<linearGradient id="paint5_linear_2895_1590" x1="28.1378" y1="11.2766" x2="36.1866" y2="11.2766" gradientUnits="userSpaceOnUse">
<stop stop-color="#33BDF2" stop-opacity="0.698"/>
<stop offset="1" stop-color="#1DACD8"/>
</linearGradient>
<linearGradient id="paint6_linear_2895_1590" x1="89.092" y1="38.536" x2="89.092" y2="-1.39559" gradientUnits="userSpaceOnUse">
<stop stop-color="#136AB4"/>
<stop offset="0.6" stop-color="#59CAF5" stop-opacity="0.549"/>
<stop offset="1" stop-color="#59CAF5" stop-opacity="0.235"/>
</linearGradient>
<linearGradient id="paint7_linear_2895_1590" x1="-0.427749" y1="20.8254" x2="29.4296" y2="20.8254" gradientUnits="userSpaceOnUse">
<stop stop-color="#05A1E6" stop-opacity="0.247"/>
<stop offset="1" stop-color="#05A1E6"/>
</linearGradient>
<linearGradient id="paint8_linear_2895_1590" x1="16.7001" y1="39.6658" x2="16.7001" y2="-1.22097" gradientUnits="userSpaceOnUse">
<stop stop-color="#318ED5"/>
<stop offset="1" stop-color="#38A7E4"/>
</linearGradient>
<linearGradient id="paint9_linear_2895_1590" x1="18.9585" y1="39.9273" x2="18.9585" y2="0.0810123" gradientUnits="userSpaceOnUse">
<stop stop-color="#05A1E6"/>
<stop offset="1" stop-color="#05A1E6" stop-opacity="0.549"/>
</linearGradient>
<linearGradient id="paint10_linear_2895_1590" x1="21.4025" y1="41.9668" x2="21.4025" y2="8.29624" gradientUnits="userSpaceOnUse">
<stop stop-color="#1959A6"/>
<stop offset="0.5" stop-color="#05A1E6"/>
<stop offset="0.918" stop-color="#7EC5EA"/>
<stop offset="1" stop-color="#7EC5EA"/>
</linearGradient>
<linearGradient id="paint11_linear_2895_1590" x1="22.411" y1="39.7376" x2="15.99" y2="3.3226" gradientUnits="userSpaceOnUse">
<stop stop-color="#165096"/>
<stop offset="1" stop-color="#0D82CA"/>
</linearGradient>
<linearGradient id="paint12_linear_2895_1590" x1="81.9782" y1="19.0809" x2="81.9782" y2="0.0505181" gradientUnits="userSpaceOnUse">
<stop stop-color="#05A1E6"/>
<stop offset="0.874" stop-color="#0495D6"/>
<stop offset="1" stop-color="#0495D6"/>
</linearGradient>
<linearGradient id="paint13_linear_2895_1590" x1="91.2535" y1="-1.63309" x2="83.5158" y2="42.2498" gradientUnits="userSpaceOnUse">
<stop stop-color="#38A7E4" stop-opacity="0.329"/>
<stop offset="0.962" stop-color="#0E88D3"/>
<stop offset="1" stop-color="#0E88D3"/>
</linearGradient>
<linearGradient id="paint14_linear_2895_1590" x1="83.9515" y1="-0.0669005" x2="83.9515" y2="41.4496" gradientUnits="userSpaceOnUse">
<stop stop-color="#168CD4"/>
<stop offset="0.5" stop-color="#1C87CC"/>
<stop offset="1" stop-color="#154B8D"/>
</linearGradient>
<linearGradient id="paint15_linear_2895_1590" x1="27.8019" y1="-4.11857" x2="76.0744" y2="15.9044" gradientUnits="userSpaceOnUse">
<stop stop-color="#97D6EE"/>
<stop offset="0.703" stop-color="#55C1EA"/>
<stop offset="1" stop-color="#55C1EA"/>
</linearGradient>
<linearGradient id="paint16_linear_2895_1590" x1="40.9246" y1="7.21525" x2="79.0518" y2="-10.0679" gradientUnits="userSpaceOnUse">
<stop stop-color="#7ACCEC"/>
<stop offset="1" stop-color="#3FB7ED"/>
</linearGradient>
<linearGradient id="paint17_linear_2895_1590" x1="78.2861" y1="2.19062" x2="78.2861" y2="42.7979" gradientUnits="userSpaceOnUse">
<stop stop-color="#1DA7E7"/>
<stop offset="1" stop-color="#37ABE7" stop-opacity="0"/>
</linearGradient>
</defs>
</svg>
