<svg width="50" height="50" viewBox="0 0 50 50" fill="none" xmlns="http://www.w3.org/2000/svg">
<path d="M24.9305 49.9971C11.4962 49.9971 0.106294 38.6504 0.000615542 25.1322C-0.0224322 21.871 0.601968 18.6376 1.83763 15.6195C3.0733 12.6013 4.89565 9.85839 7.1991 7.54966C9.51779 5.17555 12.2849 3.28563 15.34 1.98963C18.395 0.693617 21.677 0.0173256 24.9955 9.01626e-06C28.2544 -0.0027751 31.4816 0.639242 34.4913 1.88908C37.501 3.13892 40.2337 4.97188 42.532 7.28238C44.8683 9.56029 46.7308 12.278 48.0122 15.2789C49.2936 18.2798 49.9685 21.5046 49.9981 24.7675C50.0602 38.5855 38.9516 49.8594 25.1332 50H24.9305V49.9971ZM25.0086 1.30845C21.8633 1.32701 18.7531 1.97001 15.8582 3.20015C12.9634 4.43029 10.3417 6.22306 8.14527 8.47445C5.96081 10.6589 4.23156 13.2551 3.05773 16.1126C1.8839 18.9702 1.28883 22.0323 1.307 25.1215C1.40404 37.9341 12.2018 48.6776 24.9223 48.6776H25.0925C38.1946 48.5583 48.7382 37.877 48.6893 24.7753C48.6601 21.6844 48.0196 18.6298 46.8045 15.7876C45.5894 12.9454 43.8239 10.3717 41.6096 8.21498C39.4375 6.02228 36.8516 4.28269 34.0019 3.09711C31.1522 1.91153 28.0951 1.30356 25.0086 1.30845Z" fill="#F87A0B"/>
<path d="M5.60938 32.3118V17.7067H9.16215V19.0156H7.27762V31.03H9.16256V32.3389L5.60938 32.3118ZM17.667 24.8645C17.667 27.5283 16.0498 29.0452 13.8593 29.0452C11.6688 29.0452 10.2091 27.3362 10.2091 25.0027C10.2091 22.5605 11.7396 20.8409 13.9785 20.8409C16.2175 20.8409 17.667 22.6337 17.667 24.8645ZM11.7396 24.9837C11.7396 26.6006 12.5509 27.8827 13.9436 27.8827C15.3363 27.8827 16.1365 26.5739 16.1365 24.9241C16.1365 23.4261 15.398 22.0116 13.9432 22.0116C12.4884 22.0116 11.726 23.3801 11.726 25.0162L11.7396 24.9837ZM18.8973 21.1168C19.5923 20.9976 20.2983 20.9384 21.0039 20.9408C21.7969 20.8637 22.594 21.0398 23.2807 21.4437C23.5385 21.5947 23.7509 21.8121 23.896 22.0732C24.0411 22.3343 24.1135 22.6296 24.1056 22.9282C24.0965 23.3162 23.965 23.6914 23.73 24.0003C23.4949 24.3092 23.1683 24.5359 22.7968 24.6482C23.7298 24.8374 24.4004 25.6598 24.4004 26.6117C24.4052 26.9245 24.3388 27.2343 24.2062 27.5177C24.0736 27.8011 23.8784 28.0506 23.6352 28.2475C23.0727 28.745 22.1372 28.986 20.6902 28.986C20.0954 28.9886 19.5011 28.9533 18.9109 28.8803L18.8973 21.1168ZM20.3361 24.251H21.0742C22.0747 24.251 22.6372 23.7802 22.6372 23.107C22.6372 22.4339 22.0747 22.0198 21.1528 22.0198C20.8765 22.0113 20.6001 22.0313 20.3279 22.0794L20.3361 24.251ZM20.3361 27.9016C20.5903 27.9284 20.8473 27.9395 21.101 27.9337C22.0315 27.9337 22.8535 27.5797 22.8535 26.6253C22.8535 25.6709 22.0558 25.3164 21.0553 25.3164H20.3357L20.3361 27.9016ZM27.2591 21.0111H28.7053V26.1734C28.7053 28.3667 27.6456 29.0995 26.088 29.0995C25.6719 29.0969 25.259 29.0265 24.8655 28.891L25.0415 27.7256C25.3306 27.8177 25.6336 27.8634 25.9392 27.8691C26.764 27.8691 27.248 27.4904 27.248 26.1166L27.2591 21.0111ZM32.8214 25.3107V26.3115H29.8114V25.3107H32.8214ZM39.8493 28.7125C39.1988 28.971 38.5018 29.0917 37.8023 29.067C35.2821 29.067 33.7516 27.4904 33.7516 25.0754C33.6352 22.8743 35.3252 20.9951 37.5264 20.8787C37.6806 20.8705 37.8377 20.8705 37.9915 20.8812C38.6641 20.8531 39.3346 20.9741 39.9549 21.2357L39.633 22.3874C39.1404 22.1791 38.6102 22.0741 38.0753 22.079C36.4585 22.079 35.2956 23.0935 35.2956 25.0051C35.2956 26.7466 36.3232 27.8716 38.0647 27.8716C38.6046 27.88 39.1407 27.7797 39.6412 27.5768L39.8493 28.7125ZM44.3897 17.666V32.3089H40.8366V31.0004H42.7211V18.9749H40.8366V17.666H44.3897Z" fill="#F87A0B"/>
</svg>
