<svg width="112" height="100" viewBox="0 0 112 100" fill="none" xmlns="http://www.w3.org/2000/svg">
<path d="M30.223 9.21994C30.6763 8.07344 31.6536 7.39378 32.4051 7.70062C33.1566 8.00745 33.3989 9.18695 32.9457 10.3335C32.771 10.7937 32.4858 11.2028 32.1117 11.5261L30.1274 16.3563L27.8086 15.3187L30.0104 10.6667C29.961 10.1701 30.0335 9.6736 30.2214 9.21829L30.223 9.21994Z" fill="#A0616A"/>
<path d="M21.909 40.0579C21.909 40.0579 18.5815 38.4446 18.8122 37.2865C19.043 36.1268 28.9562 11.4299 28.9562 11.4299L33.5461 14.4488L21.909 40.0596V40.0579Z" fill="#E6E6E6"/>
<path d="M71.8168 100H39.9891C35.3596 100 31.5938 96.2306 31.5938 91.5967V8.40331C31.5938 3.76944 35.3596 0 39.9891 0H71.8168C76.4463 0 80.2122 3.76944 80.2122 8.40331V91.5967C80.2122 96.2306 76.4463 100 71.8168 100Z" fill="#D7D7D8"/>
<path d="M71.8408 97.7249H39.9669C36.5405 97.7249 33.752 94.9337 33.752 91.5041V8.33215C33.752 4.90253 36.5405 2.11133 39.9669 2.11133H71.8408C75.2671 2.11133 78.0557 4.90253 78.0557 8.33215V91.5041C78.0557 94.9337 75.2671 97.7249 71.8408 97.7249Z" fill="white"/>
<path d="M60.4109 7.64898H51.3976C50.2077 7.64898 49.2402 6.68063 49.2402 5.48959C49.2402 4.29854 50.2077 3.3302 51.3976 3.3302H60.4109C61.6008 3.3302 62.5683 4.29854 62.5683 5.48959C62.5683 6.68063 61.6008 7.64898 60.4109 7.64898Z" fill="#D7D7D8"/>
<path d="M70.9685 33.2871H40.8399C39.4764 33.2871 38.3711 34.3931 38.3711 35.7575C38.3711 37.1218 39.4764 38.2278 40.8399 38.2278H70.9685C72.332 38.2278 73.4373 37.1218 73.4373 35.7575C73.4373 34.3931 72.332 33.2871 70.9685 33.2871Z" fill="#63388B"/>
<path d="M49.499 29.1816H39.5298C39.2922 29.1816 39.0996 29.3744 39.0996 29.6122C39.0996 29.85 39.2922 30.0428 39.5298 30.0428H49.499C49.7366 30.0428 49.9292 29.85 49.9292 29.6122C49.9292 29.3744 49.7366 29.1816 49.499 29.1816Z" fill="#63388B"/>
<path d="M70.9685 50.0137H40.8399C39.4764 50.0137 38.3711 51.1197 38.3711 52.484C38.3711 53.8484 39.4764 54.9544 40.8399 54.9544H70.9685C72.332 54.9544 73.4373 53.8484 73.4373 52.484C73.4373 51.1197 72.332 50.0137 70.9685 50.0137Z" fill="#D7D7D8"/>
<path d="M49.499 45.9062H39.5298C39.2922 45.9062 39.0996 46.099 39.0996 46.3368C39.0996 46.5746 39.2922 46.7674 39.5298 46.7674H49.499C49.7366 46.7674 49.9292 46.5746 49.9292 46.3368C49.9292 46.099 49.7366 45.9062 49.499 45.9062Z" fill="#D7D7D8"/>
<path d="M70.9685 66.7383H40.8399C39.4764 66.7383 38.3711 67.8443 38.3711 69.2086C38.3711 70.573 39.4764 71.679 40.8399 71.679H70.9685C72.332 71.679 73.4373 70.573 73.4373 69.2086C73.4373 67.8443 72.332 66.7383 70.9685 66.7383Z" fill="#D7D7D8"/>
<path d="M49.499 62.6329H39.5298C39.2922 62.6329 39.0996 62.8257 39.0996 63.0635C39.0996 63.3013 39.2922 63.4941 39.5298 63.4941H49.499C49.7366 63.4941 49.9292 63.3013 49.9292 63.0635C49.9292 62.8257 49.7366 62.6329 49.499 62.6329Z" fill="#D7D7D8"/>
<path d="M88.6586 20.3576C88.6586 20.3576 85.2602 20.7419 85.041 26.0076C84.8581 30.3957 84.4856 32.8421 86.2688 33.7577C86.9066 34.0843 87.6565 34.114 88.3372 33.8896L95.6184 31.4927C95.6184 31.4927 95.7288 23.5925 93.2073 21.674C90.6857 19.7538 88.6586 20.3576 88.6586 20.3576Z" fill="#2F2E41"/>
<path d="M92.6734 32.4613L88.9883 33.6738V28.3652H92.3306L92.6734 32.4613Z" fill="#FFB6B6"/>
<path d="M81.4077 62.6019C81.2083 63.8177 80.3975 64.6904 79.5981 64.5502C78.7988 64.4099 78.311 63.3096 78.5121 62.0922C78.5846 61.6055 78.7774 61.1436 79.0741 60.7494L79.9871 55.6074L82.4724 56.1287L81.3072 61.142C81.4605 61.6171 81.4951 62.1169 81.4077 62.6019Z" fill="#FFB6B6"/>
<path d="M101.498 62.0124C101.743 63.2199 101.293 64.3235 100.496 64.4769C99.6979 64.6304 98.8524 63.7742 98.6085 62.5666C98.5046 62.0849 98.5211 61.5868 98.6563 61.1117L97.6855 55.9796L100.194 55.582L100.884 60.6827C101.196 61.0721 101.405 61.5274 101.498 62.0124Z" fill="#FFB6B6"/>
<path d="M91.287 91.8965H87.8359V96.7976H91.287V91.8965Z" fill="#FFB6B6"/>
<path d="M84.4751 99.7655C84.1125 99.7655 83.7895 99.7573 83.5456 99.7342C82.6292 99.6501 81.7541 98.9721 81.3141 98.5761C81.1163 98.398 81.0537 98.1142 81.1559 97.8701C81.23 97.6952 81.3767 97.5632 81.5596 97.5121L83.9823 96.8193L87.9048 94.1699L87.9493 94.2491C87.9657 94.2788 88.3514 94.9733 88.4799 95.4418C88.5294 95.62 88.5162 95.7684 88.442 95.8839C88.3909 95.9631 88.3184 96.0093 88.2607 96.0357C88.3316 96.1099 88.5541 96.2617 89.2397 96.3706C90.2401 96.5289 90.451 95.4913 90.4593 95.4484L90.4659 95.4138L90.4955 95.394C90.9718 95.0871 91.2652 94.9469 91.3657 94.9766C91.4284 94.9947 91.5338 95.0277 91.8189 97.8536C91.847 97.9427 92.0464 98.5926 91.9112 99.2145C91.7646 99.8909 88.8112 99.6583 88.2195 99.6055C88.2031 99.6072 85.9913 99.7655 84.4767 99.7655H84.4751Z" fill="#2F2E41"/>
<path d="M101.114 88.0469L98.1855 89.8749L100.777 94.0335L103.705 92.2055L101.114 88.0469Z" fill="#FFB6B6"/>
<path d="M97.2248 99.0936C96.8193 99.0936 96.4469 99.0441 96.1815 98.9979C95.9211 98.9517 95.7168 98.7438 95.6739 98.4832C95.6443 98.2951 95.6986 98.1054 95.8272 97.9652L97.5165 96.0945L99.4447 91.7691L99.5238 91.812C99.5535 91.8285 100.247 92.2129 100.605 92.5428C100.742 92.6682 100.809 92.8018 100.806 92.9387C100.804 93.0344 100.768 93.1103 100.732 93.1647C100.831 93.1911 101.099 93.201 101.739 92.9305C102.672 92.5362 102.303 91.5431 102.286 91.5019L102.273 91.4689L102.288 91.4375C102.53 90.9245 102.703 90.6507 102.805 90.6226C102.869 90.6045 102.975 90.5764 104.71 92.8249C104.781 92.8843 105.294 93.3314 105.508 93.9302C105.74 94.5818 103.112 95.9493 102.583 96.2166C102.566 96.2298 99.8155 98.2308 98.685 98.7999C98.2367 99.0259 97.706 99.0952 97.2231 99.0952L97.2248 99.0936Z" fill="#2F2E41"/>
<path d="M93.8285 50.9121H84.1658L83.2891 59.9093L87.1258 93.153H92.0585L90.0857 73.9527L98.0872 91.2872L102.471 88.2156L96.2232 72.0325C96.2232 72.0325 98.4547 57.9347 96.7011 54.4226C94.9476 50.9121 93.8285 50.9121 93.8285 50.9121Z" fill="#2F2E41"/>
<path d="M98.6345 51.46H81.8652L87.8939 31.6016H94.5802L98.6345 51.46Z" fill="#63388B"/>
<path d="M88.9492 31.6066C88.9492 31.6066 84.7845 31.4961 84.3462 32.5948C83.9078 33.6918 78.7559 59.804 78.7559 59.804H82.1542L88.9509 31.6066H88.9492Z" fill="#63388B"/>
<path d="M91.6582 31.6292C91.6582 31.6292 95.3268 31.164 95.7652 32.261C96.2036 33.3581 101.356 59.4703 101.356 59.4703H97.9572L91.6582 31.6292Z" fill="#63388B"/>
<path d="M89.4454 29.8352C91.4733 29.8352 93.1173 28.1897 93.1173 26.1598C93.1173 24.1299 91.4733 22.4844 89.4454 22.4844C87.4174 22.4844 85.7734 24.1299 85.7734 26.1598C85.7734 28.1897 87.4174 29.8352 89.4454 29.8352Z" fill="#FFB6B6"/>
<path d="M88.4387 21.7282C88.4387 21.7282 86.4182 29.9418 88.6645 33.7805L85.5002 33.1075C85.5002 33.1075 84.274 24.1186 86.7396 22.4838L88.4387 21.7266V21.7282Z" fill="#2F2E41"/>
<path d="M111.842 99.5696C111.842 99.7065 111.732 99.817 111.595 99.817H0.247212C0.110421 99.817 0 99.7065 0 99.5696C0 99.4327 0.110421 99.3221 0.247212 99.3221H111.595C111.732 99.3221 111.842 99.4327 111.842 99.5696Z" fill="#2E2E41"/>
<path d="M18.9688 28.8241L23.1895 30.2131V24.1309H19.3593L18.9688 28.8241Z" fill="#A0616A"/>
<path d="M22.6668 25.8141C24.9897 25.8141 26.8727 23.9293 26.8727 21.6042C26.8727 19.2791 24.9897 17.3943 22.6668 17.3943C20.344 17.3943 18.4609 19.2791 18.4609 21.6042C18.4609 23.9293 20.344 25.8141 22.6668 25.8141Z" fill="#A0616A"/>
<path d="M21.5962 21.9341L22.1763 22.6385L23.2245 20.8008C23.2245 20.8008 24.5627 20.8701 24.5627 19.8754C24.5627 18.8806 25.7905 18.8526 25.7905 18.8526C25.7905 18.8526 27.5293 15.8139 23.9282 16.614C23.9282 16.614 21.4297 14.9017 20.1887 16.3649C20.1887 16.3649 16.38 18.2851 17.4694 21.6273L19.2806 25.0734L19.691 24.2931C19.691 24.2931 19.4421 21.0186 21.5962 21.9308V21.9341Z" fill="#2F2E41"/>
<path d="M17.7013 96.8516H21.1523V91.9505H17.7013V96.8516Z" fill="#A0616A"/>
<path d="M20.7714 99.6582C20.1814 99.711 17.2281 99.9453 17.0797 99.2673C16.9446 98.6454 17.144 97.9954 17.172 97.9063C17.4555 95.0788 17.561 95.0475 17.6253 95.0293C17.7258 94.9996 18.0191 95.1399 18.4954 95.4467L18.5251 95.4665L18.5317 95.5011C18.5399 95.5457 18.7509 96.5833 19.7513 96.4233C20.4369 96.3144 20.6594 96.1626 20.7302 96.0884C20.6726 96.062 20.6 96.0158 20.5489 95.9366C20.4748 95.8212 20.4616 95.6727 20.511 95.4945C20.6396 95.0244 21.0252 94.3299 21.0417 94.3018L21.0862 94.2227L25.0087 96.872L27.4313 97.5648C27.6143 97.6176 27.761 97.748 27.8351 97.9228C27.9373 98.167 27.8747 98.4507 27.6769 98.6289C27.2369 99.0248 26.3634 99.7028 25.4454 99.7869C25.2015 99.81 24.8785 99.8183 24.5159 99.8183C23.0013 99.8183 20.7896 99.6615 20.7731 99.6582H20.7714Z" fill="#2F2E41"/>
<path d="M25.5623 49.696L16.5094 49.2324C16.5094 49.2324 15.1217 54.4981 16.8753 59.9848L17.0862 93.0256H22.2019L27.0242 58.9422L25.5623 49.696Z" fill="#2F2E41"/>
<path d="M24.0327 27.657L19.0637 25.0176C19.0637 25.0176 13.7091 32.8501 14.4491 37.093C15.1907 41.3359 16.5059 49.2344 16.5059 49.2344L27.4673 49.698L25.5539 34.1434L24.0327 27.657Z" fill="#E6E6E6"/>
<path d="M20.1583 96.8516H23.6094V91.9505H20.1583V96.8516Z" fill="#A0616A"/>
<path d="M23.2285 99.6582C22.6385 99.711 19.6851 99.9453 19.5368 99.2673C19.4016 98.6454 19.601 97.9954 19.6291 97.9063C19.9125 95.0788 20.018 95.0475 20.0823 95.0293C20.1828 94.9996 20.4762 95.1399 20.9525 95.4467L20.9821 95.4665L20.9887 95.5011C20.997 95.5457 21.2079 96.5833 22.2083 96.4233C22.8939 96.3144 23.1164 96.1626 23.1873 96.0884C23.1296 96.062 23.0571 96.0158 23.006 95.9366C22.9318 95.8212 22.9186 95.6727 22.9681 95.4945C23.0966 95.0244 23.4823 94.3299 23.4988 94.3018L23.5433 94.2227L27.4657 96.872L29.8884 97.5648C30.0713 97.6176 30.218 97.748 30.2921 97.9228C30.3943 98.167 30.3317 98.4507 30.1339 98.6289C29.6939 99.0248 28.8204 99.7028 27.9024 99.7869C27.6585 99.81 27.3355 99.8183 26.9729 99.8183C25.4583 99.8183 23.2466 99.6615 23.2301 99.6582H23.2285Z" fill="#2F2E41"/>
<path d="M27.4688 49.696L16.5075 49.2324C16.5075 49.2324 15.1198 54.4981 16.8733 59.9848L18.9928 93.0256H24.1084L28.9307 58.9422L27.4688 49.696Z" fill="#2F2E41"/>
<path d="M31.6802 58.3244C32.084 59.489 31.7857 60.6421 31.0161 60.9011C30.2464 61.1585 29.2955 60.4244 28.8917 59.2581C28.7236 58.7945 28.6741 58.298 28.7467 57.8097L27.1035 52.8525L29.5361 52.125L30.899 57.0888C31.26 57.4336 31.5286 57.8575 31.6819 58.3244H31.6802Z" fill="#A0616A"/>
<path d="M17.8887 29.5209C17.8887 29.5209 21.4617 28.5707 22.0435 29.6001C22.6236 30.6294 31.2019 55.8229 31.2019 55.8229L25.7566 56.5322L17.8903 29.5209H17.8887Z" fill="#E6E6E6"/>
</svg>
