<svg width="142" height="100" viewBox="0 0 142 100" fill="none" xmlns="http://www.w3.org/2000/svg">
<path d="M60.1572 42.6394C59.9349 42.476 59.7226 42.2994 59.5215 42.1105L59.7967 41.8184C59.986 41.9962 60.1859 42.1625 60.3952 42.3164L60.1572 42.6394Z" fill="#E4E4E4"/>
<path d="M58.415 40.7646C58.1071 40.2697 57.8645 39.7371 57.6933 39.1801L58.0771 39.0623C58.2382 39.5863 58.4664 40.0873 58.756 40.5528L58.415 40.7646ZM57.3985 37.4647C57.3946 37.3699 57.3926 37.275 57.3926 37.18C57.3926 36.6926 57.4452 36.2067 57.5496 35.7306L57.9417 35.8165C57.8436 36.2644 57.7941 36.7215 57.7941 37.18C57.7941 37.2694 57.796 37.3587 57.7997 37.4479L57.3985 37.4647ZM58.4969 34.2763L58.1399 34.0927C58.3057 33.7712 58.4968 33.4634 58.7113 33.1721C58.8429 32.9934 58.9852 32.8228 59.1372 32.6611L59.4297 32.9359C59.2887 33.0858 59.1568 33.2441 59.0348 33.4098C58.8328 33.684 58.653 33.9737 58.4969 34.2763ZM60.7181 31.9493L60.5285 31.5957C61.0468 31.3184 61.6064 31.1264 62.1859 31.0271L62.254 31.4225C61.717 31.5144 61.1983 31.6923 60.7181 31.9493ZM65.4222 31.9055C64.938 31.6565 64.4164 31.4879 63.8779 31.4063L63.9382 31.0098C64.5197 31.0978 65.0829 31.2799 65.6058 31.5488L65.4222 31.9055Z" fill="#E4E4E4"/>
<path d="M67.1731 33.4927C67.0416 33.2744 66.8894 33.0692 66.7188 32.8799L67.017 32.6113C67.2049 32.8197 67.3724 33.0457 67.5172 33.286L67.1731 33.4927Z" fill="#E4E4E4"/>
<path d="M51.7805 29.2247L51.457 28.987C51.6177 28.7688 51.787 28.5531 51.9603 28.3457L52.2685 28.6028C52.1004 28.8039 51.9363 29.0132 51.7805 29.2247Z" fill="#E4E4E4"/>
<path d="M71.6742 28.7604C71.3657 28.3326 71.024 27.9298 70.6521 27.5557L70.937 27.273C71.3237 27.6621 71.6792 28.0811 72.0001 28.526L71.6742 28.7604ZM53.3614 27.4503L53.0879 27.1566C53.4882 26.7845 53.9116 26.4381 54.3556 26.1192L54.5899 26.445C54.1596 26.754 53.7494 27.0897 53.3614 27.4503ZM69.4534 26.5253C69.0263 26.2121 68.5802 25.9256 68.1176 25.6676L68.3132 25.3172C68.7903 25.5834 69.2505 25.8789 69.691 26.202L69.4534 26.5253ZM55.9353 25.6028L55.7441 25.2502C56.2248 24.9902 56.7214 24.7606 57.2309 24.5627L57.3763 24.9365C56.8825 25.1283 56.4013 25.3509 55.9353 25.6028ZM66.6854 24.9837C66.194 24.7862 65.6906 24.6199 65.1783 24.4857L65.2801 24.0976C65.8088 24.2361 66.3282 24.4077 66.8353 24.6115L66.6854 24.9837ZM58.8895 24.4557L58.792 24.0665C59.3222 23.9341 59.8601 23.8346 60.4027 23.7688L60.451 24.1671C59.925 24.2309 59.4035 24.3272 58.8895 24.4557ZM63.6203 24.1815C63.095 24.113 62.5659 24.0774 62.0361 24.075L62.038 23.6738C62.5845 23.6764 63.1304 23.7131 63.6723 23.7837L63.6203 24.1815Z" fill="#E4E4E4"/>
<path d="M72.8197 30.8294C72.7209 30.5875 72.6113 30.3467 72.4941 30.1138L72.8529 29.9336C72.9748 30.1759 73.0887 30.4263 73.1914 30.6778L72.8197 30.8294Z" fill="#E4E4E4"/>
<path d="M73.9212 54.4027L73.7832 54.026C74.0306 53.9356 74.2799 53.8388 74.5242 53.7383L74.677 54.1093C74.4279 54.2118 74.1736 54.3105 73.9212 54.4027Z" fill="#E4E4E4"/>
<path d="M67.6614 55.6283L67.6468 55.2274C68.1677 55.2084 68.6943 55.1685 69.2118 55.1089L69.2579 55.5074C68.7299 55.5682 68.1928 55.6089 67.6614 55.6283ZM66.0604 55.6236C65.5284 55.6011 64.9915 55.5571 64.4646 55.4929L64.5132 55.0948C65.0297 55.1576 65.5559 55.2007 66.0774 55.2229L66.0604 55.6236ZM70.8399 55.2617L70.7627 54.868C71.2741 54.768 71.7879 54.6463 72.29 54.5064L72.3978 54.8928C71.8857 55.0355 71.3616 55.1596 70.8399 55.2617ZM62.8843 55.2366C62.3631 55.1308 61.8399 55.0028 61.3291 54.856L61.4401 54.4705C61.9406 54.6143 62.4535 54.7398 62.9642 54.8436L62.8843 55.2366ZM59.8091 54.3532C59.3115 54.1663 58.8152 53.957 58.3339 53.7311L58.5047 53.3681C58.9763 53.5894 59.4627 53.7945 59.9504 53.9777L59.8091 54.3532ZM56.913 52.9943C56.4525 52.732 55.9955 52.4474 55.5547 52.1482L55.7803 51.8164C56.2125 52.1097 56.6605 52.3887 57.1118 52.6458L56.913 52.9943Z" fill="#E4E4E4"/>
<path d="M54.2613 51.1901C54.0519 51.0192 53.8443 50.8413 53.6445 50.6611L53.9135 50.3633C54.1085 50.5391 54.3109 50.7127 54.5153 50.8795L54.2613 51.1901Z" fill="#E4E4E4"/>
<path d="M43.1477 10.7441L42.9414 10.3999C43.172 10.262 43.407 10.1255 43.64 9.99414L43.8374 10.3434C43.6073 10.4732 43.3753 10.6079 43.1477 10.7441Z" fill="#E4E4E4"/>
<path d="M81.7983 16.2226C81.4543 15.8222 81.0922 15.4273 80.7222 15.0489L81.0094 14.7686C81.3854 15.1531 81.7533 15.5544 82.103 15.9613L81.7983 16.2226ZM79.5728 13.9466C79.1805 13.5937 78.7709 13.2481 78.3554 12.9196L78.6046 12.605C79.0267 12.9389 79.4429 13.2899 79.8415 13.6485L79.5728 13.9466ZM77.0757 11.969C76.6414 11.6644 76.1945 11.3674 75.7475 11.0864L75.9614 10.7469C76.4141 11.0315 76.8666 11.3322 77.3064 11.6407L77.0757 11.969ZM74.3766 10.2724C73.915 10.014 73.4403 9.76401 72.9657 9.52936L73.1438 9.16988C73.6245 9.40747 74.1053 9.66072 74.5729 9.92246L74.3766 10.2724ZM45.2455 9.59589L45.0664 9.23693C45.5466 8.99778 46.0395 8.76796 46.5313 8.55381L46.6917 8.92152C46.2062 9.13292 45.7196 9.3598 45.2455 9.59589ZM71.5185 8.85976C71.0325 8.64979 70.5345 8.44981 70.0386 8.26537L70.1787 7.88943C70.6811 8.07629 71.1855 8.27888 71.6778 8.49153L71.5185 8.85976ZM48.1706 8.3221L48.0292 7.94669C48.5307 7.7582 49.0444 7.5799 49.5562 7.41681L49.6782 7.79901C49.1729 7.96001 48.6657 8.13603 48.1706 8.3221ZM68.5299 7.74789C68.0252 7.58924 67.5093 7.44156 66.9965 7.30895L67.097 6.92061C67.6166 7.05491 68.1392 7.20455 68.6504 7.3653L68.5299 7.74789ZM51.2106 7.35348L51.1082 6.96553C51.6263 6.82915 52.1555 6.70405 52.6812 6.59384L52.7637 6.98636C52.2446 7.09526 51.7221 7.21879 51.2106 7.35348ZM65.4423 6.9494C64.9241 6.84344 64.3956 6.74949 63.8716 6.67016L63.9317 6.2736C64.4626 6.3539 64.9979 6.44909 65.5228 6.55636L65.4423 6.9494ZM54.3334 6.69889L54.2711 6.30258C54.8005 6.21947 55.3397 6.14876 55.8737 6.09249L55.9158 6.4914C55.3886 6.54703 54.8562 6.61682 54.3334 6.69889ZM62.2885 6.47188C61.762 6.41952 61.2266 6.38015 60.6972 6.35475L60.7164 5.95414C61.2526 5.97979 61.7949 6.01969 62.3282 6.0727L62.2885 6.47188ZM57.5067 6.36467L57.485 5.96419C58.021 5.93514 58.5646 5.9196 59.1006 5.91797L59.1019 6.3191C58.5727 6.32074 58.036 6.33608 57.5067 6.36467Z" fill="#E4E4E4"/>
<path d="M83.2727 18.1149C83.1205 17.8985 82.9631 17.682 82.8047 17.4715L83.1256 17.2305C83.2866 17.4444 83.4466 17.6644 83.6013 17.8845L83.2727 18.1149Z" fill="#E4E4E4"/>
<path d="M64.9878 82.9846C64.7215 82.9504 64.4554 82.9141 64.1895 82.8755L64.2471 82.4785C64.5109 82.5167 64.7748 82.5528 65.039 82.5867L64.9878 82.9846Z" fill="#E4E4E4"/>
<path d="M62.5638 82.6113C62.0264 82.5148 61.4831 82.4079 60.9489 82.2934L61.0332 81.9012C61.563 82.0147 62.1018 82.1208 62.6348 82.2164L62.5638 82.6113ZM59.3457 81.9217C58.8147 81.7892 58.2799 81.646 57.7559 81.4961L57.8664 81.1105C58.386 81.2591 58.9165 81.4011 59.4431 81.5326L59.3457 81.9217ZM56.1814 81.0174C55.6608 80.8495 55.1368 80.6706 54.624 80.4859L54.7602 80.1085C55.2687 80.2918 55.7884 80.4691 56.3048 80.6357L56.1814 81.0174ZM53.0854 79.9024C52.5787 79.7003 52.068 79.4867 51.5674 79.2673L51.7287 78.9C52.2251 79.1175 52.7317 79.3295 53.2343 79.5298L53.0854 79.9024ZM50.0717 78.5817C49.579 78.3458 49.0838 78.0983 48.5999 77.8462L48.7855 77.4905C49.2655 77.7405 49.7566 77.986 50.2452 78.22L50.0717 78.5817ZM47.1536 77.0619C46.6797 76.7946 46.2022 76.5147 45.7344 76.2299L45.9433 75.8874C46.4074 76.1699 46.881 76.4475 47.351 76.7126L47.1536 77.0619ZM44.3437 75.3512C43.8874 75.0522 43.4295 74.7412 42.9828 74.4271L43.214 74.099C43.6571 74.4107 44.1112 74.7192 44.5639 75.0158L44.3437 75.3512ZM41.6525 73.457C41.2159 73.1259 40.7814 72.782 40.3609 72.4349L40.6166 72.1257C41.0329 72.4693 41.4631 72.8097 41.8953 73.1375L41.6525 73.457ZM39.1127 71.3604C38.7058 70.9951 38.3012 70.6165 37.9103 70.2349L38.1909 69.948C38.5779 70.3256 38.9783 70.7005 39.3811 71.0621L39.1127 71.3604ZM36.756 69.06C36.3811 68.662 36.0097 68.2509 35.6521 67.8378L35.9558 67.5753C36.3097 67.9842 36.6773 68.3912 37.0484 68.7851L36.756 69.06ZM34.6006 66.5701C34.2604 66.142 33.925 65.7009 33.6035 65.2594L33.9282 65.0234C34.2464 65.4605 34.5784 65.8969 34.9151 66.3207L34.6006 66.5701Z" fill="#E4E4E4"/>
<path d="M32.6583 63.9007C32.5093 63.6766 32.3628 63.4513 32.2188 63.2248L32.5577 63.0098C32.7002 63.234 32.8453 63.457 32.9927 63.6787L32.6583 63.9007Z" fill="#E4E4E4"/>
<path d="M118.548 17.3543L113.544 21.9572L117.521 15.2901C114.388 9.61323 109.263 4.70703 109.263 4.70703C109.263 4.70703 98.6309 14.8836 98.6309 22.8831C98.6309 30.8826 103.391 33.6757 109.263 33.6757C115.135 33.6757 119.895 30.8826 119.895 22.8831C119.895 21.1026 119.367 19.2143 118.548 17.3543Z" fill="#F2F2F2"/>
<path d="M112.255 22.2046V22.5989C112.232 27.1823 111.458 30.7584 109.94 33.2765C109.918 33.3136 109.895 33.3487 109.873 33.3858L109.703 33.2823L109.541 33.1808C111.225 30.4617 111.821 26.6181 111.843 22.6204C111.845 22.4916 111.847 22.3608 111.845 22.23C111.839 20.5376 111.735 18.8257 111.569 17.1626C111.558 17.0337 111.544 16.903 111.53 16.7722C111.3 14.5781 110.967 12.4817 110.628 10.6604C110.604 10.5316 110.579 10.4028 110.553 10.2759C109.965 7.1956 109.365 4.96445 109.229 4.47059C109.213 4.41007 109.203 4.37689 109.201 4.36909L109.387 4.31638L109.389 4.31443L109.576 4.26172C109.578 4.26953 109.611 4.3808 109.666 4.58771C109.875 5.3607 110.418 7.45912 110.952 10.2271C110.975 10.352 111.001 10.4808 111.024 10.6097C111.302 12.0873 111.573 13.7388 111.788 15.4721C111.843 15.9074 111.892 16.3369 111.935 16.7605C111.95 16.8913 111.964 17.022 111.976 17.1509C112.155 18.9487 112.249 20.6333 112.255 22.2046Z" fill="white"/>
<path d="M110.954 10.228C110.823 10.2456 110.69 10.2631 110.555 10.2768C110.189 10.3144 109.821 10.3333 109.453 10.3334C107.884 10.3355 106.335 9.98594 104.92 9.31055C104.838 9.414 104.756 9.51746 104.672 9.62286C106.161 10.349 107.796 10.7255 109.453 10.7238C109.846 10.7237 110.239 10.7028 110.629 10.6613C110.762 10.6477 110.895 10.6301 111.026 10.6106C112.106 10.4557 113.157 10.1378 114.142 9.66775C114.058 9.5604 113.976 9.45499 113.896 9.35153C112.964 9.78684 111.972 10.0822 110.954 10.228Z" fill="white"/>
<path d="M111.937 16.7611C111.802 16.7689 111.668 16.7728 111.533 16.7728C111.492 16.7748 111.449 16.7748 111.408 16.7748C109.708 16.7748 108.034 16.3642 106.527 15.5781C105.021 14.7919 103.727 13.6534 102.756 12.2598C102.678 12.3749 102.6 12.4901 102.523 12.6072C103.535 14.0174 104.869 15.1664 106.414 15.959C107.959 16.7516 109.671 17.1651 111.408 17.1652C111.462 17.1652 111.517 17.1652 111.572 17.1632C111.709 17.1613 111.843 17.1574 111.978 17.1515C114.064 17.0447 116.076 16.34 117.772 15.1214C117.709 15.0062 117.646 14.8911 117.582 14.7759C115.934 15.9723 113.972 16.6622 111.937 16.7611Z" fill="white"/>
<path d="M112.256 22.2047C112.12 22.2164 111.983 22.2242 111.846 22.2301C111.699 22.2359 111.553 22.2398 111.406 22.2398C109.123 22.2372 106.901 21.4956 105.074 20.126C103.248 18.7565 101.914 16.8326 101.274 14.6426C101.186 14.8007 101.098 14.9569 101.014 15.115C101.736 17.2999 103.128 19.2021 104.994 20.5512C106.86 21.9003 109.103 22.6278 111.406 22.6302C111.553 22.6302 111.699 22.6283 111.844 22.6205C111.983 22.6166 112.12 22.6088 112.256 22.599C115.019 22.3831 117.596 21.1264 119.466 19.0834C119.425 18.939 119.378 18.7965 119.331 18.652C117.525 20.7103 114.987 21.9846 112.256 22.2047Z" fill="white"/>
<path d="M16.1113 20.5403L19.3754 26.5026L13.8583 21.0384C7.58795 22.7071 1.58594 26.4924 1.58594 26.4924C1.58594 26.4924 8.907 39.2553 16.6777 41.1848C24.4484 43.1144 28.3098 39.1729 29.7262 33.4798C31.1425 27.7868 29.5774 22.4979 21.8067 20.5684C20.0771 20.1389 18.1156 20.1949 16.1113 20.5403Z" fill="#F2F2F2"/>
<path d="M19.3064 27.811L19.6894 27.9061C24.136 29.0343 27.4232 30.6471 29.5031 32.7264C29.534 32.7562 29.5624 32.7874 29.5933 32.8172L29.4518 32.9571L29.3141 33.0898C27.0789 30.801 23.4891 29.2961 19.6108 28.311C19.4862 28.278 19.3596 28.2446 19.2321 28.2149C17.5867 27.8124 15.8987 27.4999 14.2431 27.2597C14.1151 27.24 13.9848 27.2217 13.8544 27.2034C11.6675 26.8978 9.55089 26.7141 7.69974 26.6045C7.56893 26.5961 7.43766 26.5897 7.30827 26.5837C4.17423 26.4109 1.8622 26.4543 1.34947 26.4678C1.28692 26.4684 1.25233 26.4698 1.24428 26.4698L1.23785 26.2772L1.23642 26.2748L1.23047 26.0802C1.23853 26.0802 1.35463 26.0749 1.56881 26.0717C2.37013 26.0555 4.53955 26.035 7.35701 26.1855C7.48402 26.1929 7.6153 26.1993 7.7461 26.2077C9.24844 26.2951 10.9181 26.4301 12.6538 26.6398C13.0898 26.6918 13.5188 26.748 13.9406 26.8085C14.0714 26.8249 14.2018 26.8432 14.3298 26.8629C16.1195 27.1222 17.7784 27.4383 19.3064 27.811Z" fill="white"/>
<path d="M7.35826 26.1857C7.34375 26.3169 7.32878 26.45 7.30952 26.584C7.25779 26.948 7.18743 27.3092 7.09871 27.666C6.72239 29.1873 6.00921 30.6049 5.01172 31.8143C5.09242 31.9188 5.17313 32.0233 5.25525 32.1302C6.31973 30.8617 7.07999 29.367 7.47795 27.7602C7.57262 27.3793 7.64707 26.9935 7.70099 26.6047C7.71976 26.4726 7.73474 26.3396 7.74736 26.2079C7.85758 25.1229 7.80224 24.0274 7.5832 22.959C7.45865 23.0145 7.33646 23.0687 7.21663 23.1214C7.41462 24.1303 7.46235 25.1629 7.35826 26.1857Z" fill="white"/>
<path d="M13.9407 26.808C13.9158 26.9406 13.8871 27.0722 13.8545 27.2029C13.8465 27.2432 13.8362 27.2849 13.8263 27.3246C13.4163 28.9725 12.6136 30.4969 11.4866 31.7679C10.3595 33.0389 8.94153 34.0187 7.35352 34.6239C7.44653 34.7275 7.53956 34.831 7.63495 34.9331C9.24888 34.2921 10.6867 33.2761 11.8293 31.9694C12.972 30.6626 13.7865 29.1027 14.2055 27.4188C14.2187 27.3658 14.2319 27.3127 14.2432 27.2592C14.2743 27.1261 14.303 26.9945 14.3299 26.8624C14.7293 24.814 14.5298 22.694 13.7552 20.7559C13.6282 20.7887 13.5013 20.8215 13.3738 20.8563C14.1385 22.7428 14.3355 24.8112 13.9407 26.808Z" fill="white"/>
<path d="M19.3075 27.8115C19.2859 27.9469 19.2604 28.0814 19.2331 28.2154C19.2035 28.3589 19.1719 28.5019 19.1366 28.644C18.5831 30.8577 17.3269 32.8327 15.5559 34.2734C13.7849 35.714 11.5945 36.5429 9.3125 36.6358C9.44489 36.7591 9.57538 36.8821 9.7087 37.0017C12.0053 36.8288 14.189 35.9374 15.9495 34.4539C17.7101 32.9705 18.9579 30.9706 19.5158 28.7382C19.5512 28.5961 19.5846 28.4536 19.6119 28.3115C19.6416 28.176 19.667 28.0416 19.6905 27.9066C20.1471 25.1761 19.548 22.3742 18.0145 20.0684C17.8643 20.0733 17.7146 20.0844 17.5629 20.095C19.1267 22.3427 19.7524 25.1106 19.3075 27.8115Z" fill="white"/>
<path d="M25.2523 58.4235L24.0293 57.1794L25.5288 54.8887L28.0954 50.6206C28.0115 50.4367 27.9855 50.2317 28.0208 50.0328C28.0561 49.8338 28.151 49.6502 28.293 49.5063C28.435 49.3624 28.6173 49.265 28.816 49.2269C29.0146 49.1888 29.2201 49.2118 29.4053 49.293C29.5906 49.3741 29.7468 49.5095 29.8533 49.6812C29.9599 49.853 30.0117 50.053 30.0019 50.2548C29.9922 50.4567 29.9214 50.6508 29.7988 50.8115C29.6763 50.9723 29.5077 51.092 29.3156 51.155L27.1971 55.7116L25.2523 58.4235Z" fill="#A0616A"/>
<path d="M23.897 61.2641C23.7534 61.4863 23.5488 61.6624 23.3077 61.7715C23.0666 61.8806 22.7991 61.918 22.5372 61.8793C22.288 61.8499 22.0528 61.7484 21.8604 61.5873C21.6681 61.4263 21.527 61.2126 21.4546 60.9726C21.4012 60.8022 21.3856 60.6222 21.409 60.4453C21.4324 60.2683 21.4941 60.0985 21.5899 59.9478C22.4081 58.5699 23.917 56.7502 23.9321 56.7321L23.9561 56.7031L26.5011 57.254L23.897 61.2641Z" fill="#63388B"/>
<path d="M45.67 11.6005L45.3706 11.6926L42.8462 3.50101C42.4587 2.24361 41.5871 1.19148 40.4232 0.576105C39.2592 -0.0392754 37.8982 -0.167507 36.6396 0.21962L19.268 5.56283C18.6448 5.75452 18.0655 6.06696 17.5632 6.48231C17.0609 6.89767 16.6453 7.4078 16.3403 7.98359C16.0353 8.55938 15.8468 9.18955 15.7856 9.83812C15.7244 10.4867 15.7916 11.1409 15.9835 11.7636L29.8326 56.7031C30.2201 57.9605 31.0918 59.0127 32.2557 59.628C33.4197 60.2434 34.7807 60.3717 36.0393 59.9845L53.4108 54.6413C54.6694 54.2542 55.7226 53.3834 56.3385 52.2206C56.9545 51.0577 57.0829 49.698 56.6954 48.4406L47.1676 17.5235L47.4669 17.4314L45.67 11.6005Z" fill="#3F3D56"/>
<path d="M37.2109 1.39448L34.9433 2.09194C35.1263 2.31529 35.2515 2.58016 35.3079 2.86323C35.3643 3.1463 35.3501 3.43888 35.2667 3.71519C35.1832 3.99151 35.033 4.24308 34.8293 4.44775C34.6256 4.65242 34.3747 4.80389 34.0986 4.88884L24.1467 7.9499C23.8705 8.03481 23.5778 8.05057 23.2941 7.99581C23.0105 7.94104 22.7447 7.81742 22.5201 7.63585C22.2955 7.45427 22.1191 7.22031 22.0064 6.95457C21.8936 6.68884 21.848 6.39947 21.8736 6.11198L19.7557 6.76342C18.8158 7.05252 18.0293 7.70281 17.5693 8.57122C17.1093 9.43963 17.0135 10.455 17.3028 11.394L31.1317 56.2677C31.4211 57.2067 32.072 57.9924 32.9412 58.452C33.8104 58.9115 34.8268 59.0073 35.7667 58.7182L53.2219 53.3493C54.1619 53.0602 54.9483 52.4099 55.4083 51.5415C55.8683 50.673 55.9642 49.6576 55.6748 48.7186L41.8459 3.84498C41.5566 2.90596 40.9057 2.12025 40.0364 1.66069C39.1672 1.20114 38.1508 1.10538 37.2109 1.39448Z" fill="white"/>
<path d="M107.491 99.3651L66.7402 84.7308C65.7747 84.3828 64.9868 83.6665 64.5494 82.7389C64.1119 81.8113 64.0606 80.7482 64.4067 79.7829L85.6501 20.7417C85.9984 19.7771 86.7154 18.99 87.6439 18.5529C88.5724 18.1159 89.6365 18.0646 90.6027 18.4104L131.353 33.0447C132.319 33.3927 133.107 34.109 133.544 35.0366C133.982 35.9642 134.033 37.0273 133.687 37.9926L112.444 97.0338C112.095 97.9984 111.378 98.7855 110.45 99.2226C109.521 99.6596 108.457 99.7109 107.491 99.3651Z" fill="#3F3D56"/>
<path d="M108.398 97.0686L67.5042 82.3827C67.2065 82.2755 66.9637 82.0546 66.8288 81.7687C66.694 81.4828 66.6781 81.1551 66.7848 80.8575L88.1689 21.4253C88.2763 21.1279 88.4973 20.8853 88.7835 20.7506C89.0697 20.6158 89.3978 20.6 89.6956 20.7066L130.59 35.3925C130.887 35.4998 131.13 35.7206 131.265 36.0065C131.4 36.2925 131.416 36.6202 131.309 36.9177L109.925 96.35C109.818 96.6473 109.597 96.8899 109.31 97.0246C109.024 97.1594 108.696 97.1752 108.398 97.0686Z" fill="white"/>
<path d="M110.423 27.1151C110.605 27.1151 110.752 26.9678 110.752 26.786C110.752 26.6043 110.605 26.457 110.423 26.457C110.241 26.457 110.094 26.6043 110.094 26.786C110.094 26.9678 110.241 27.1151 110.423 27.1151Z" fill="white"/>
<path d="M42.7311 35.7807C46.2043 32.3109 46.2043 26.6852 42.7311 23.2154C39.258 19.7456 33.627 19.7456 30.1539 23.2154C26.6808 26.6852 26.6808 32.3109 30.1539 35.7807C33.627 39.2505 39.258 39.2505 42.7311 35.7807Z" fill="#63388B"/>
<path d="M37.3746 33.7386L32.9727 30.7552L33.357 30.1895L37.0014 32.6596L39.6353 24.4277L40.2868 24.6358L37.3746 33.7386Z" fill="white"/>
<path d="M107.045 66.0687C111.444 61.674 111.444 54.5487 107.045 50.154C102.646 45.7592 95.5143 45.7592 91.1154 50.154C86.7164 54.5487 86.7164 61.674 91.1154 66.0687C95.5143 70.4634 102.646 70.4634 107.045 66.0687Z" fill="#63388B"/>
<path d="M96.3617 62.8944L94.7441 56.3606L95.5856 56.1529L96.9248 61.5623L106.383 56.0371L106.82 56.7842L96.3617 62.8944Z" fill="white"/>
<path d="M25.9612 91.7564H27.4819L28.2053 85.8966L25.9609 85.8967L25.9612 91.7564Z" fill="#A0616A"/>
<path d="M25.5742 91.2599L28.5689 91.2598C29.075 91.2598 29.5606 91.4607 29.9185 91.8182C30.2764 92.1758 30.4774 92.6607 30.4775 93.1664V93.2283L25.5743 93.2285L25.5742 91.2599Z" fill="#2F2E41"/>
<path d="M14.1211 91.0985L15.6246 91.3256L17.2168 85.6398L15.2457 85.3047L14.1211 91.0985Z" fill="#A0616A"/>
<path d="M13.8121 90.5508L16.7731 90.9979C17.2736 91.0735 17.7236 91.3447 18.0239 91.7516C18.3243 92.1586 18.4506 92.6681 18.3749 93.1681L18.3657 93.2294L13.5176 92.4973L13.8121 90.5508Z" fill="#2F2E41"/>
<path d="M22.9295 64.1329L26.4657 63.3634L28.449 69.0275L28.511 90.8986L25.6245 90.8806L24.4179 73.1787L16.7278 89.5356L13.627 89.1638L20.3868 71.6297C20.3868 71.6297 20.0147 68.5319 21.193 66.9829L20.945 65.372L22.9295 64.1329Z" fill="#2F2E41"/>
<path d="M19.6083 59.9687C19.5279 59.7274 19.5194 59.4681 19.5837 59.2221C19.648 58.9761 19.7825 58.7541 19.9707 58.583L20.7182 57.9042L22.8254 57.5495L24.1429 57.3103L27.2671 65.102L21.1173 65.8017C20.6659 65.7043 20.4856 65.4576 20.7482 64.9672L19.6083 59.9687Z" fill="#63388B"/>
<path d="M27.0549 58.6765L26.8789 56.9417L29.4827 56.0905L34.1568 54.3624C34.2065 54.1665 34.3144 53.9903 34.4665 53.8571C34.6185 53.7238 34.8075 53.6398 35.0083 53.6162C35.2092 53.5926 35.4125 53.6304 35.5914 53.7248C35.7702 53.8191 35.9162 53.9654 36.01 54.1445C36.1038 54.3235 36.141 54.5267 36.1167 54.7273C36.0923 54.9279 36.0076 55.1164 35.8737 55.2678C35.7398 55.4193 35.563 55.5265 35.3668 55.5754C35.1706 55.6243 34.9641 55.6125 34.7747 55.5416L30.2698 57.7748L27.0549 58.6765Z" fill="#A0616A"/>
<path d="M24.221 60.0481C23.9699 60.1318 23.7 60.1415 23.4435 60.076C23.1871 60.0106 22.9549 59.8727 22.7748 59.6789C22.5988 59.5002 22.4787 59.2741 22.4294 59.0283C22.3801 58.7825 22.4037 58.5277 22.4973 58.295C22.5622 58.1287 22.6627 57.9786 22.7917 57.855C22.9207 57.7315 23.0751 57.6376 23.2442 57.5798C24.7449 57.0154 27.0614 56.5377 27.0846 56.5329L27.1214 56.5254L28.763 58.5449L24.221 60.0481Z" fill="#63388B"/>
<path d="M21.901 56.8034C23.1785 56.8034 24.2141 55.7688 24.2141 54.4925C24.2141 53.2163 23.1785 52.1816 21.901 52.1816C20.6235 52.1816 19.5879 53.2163 19.5879 54.4925C19.5879 55.7688 20.6235 56.8034 21.901 56.8034Z" fill="#A0616A"/>
<path d="M20.0296 57.7848C19.6709 57.7847 19.3125 57.7629 18.9564 57.7194L18.9076 57.7135L18.535 55.6927C18.377 54.836 18.5532 53.9514 19.0274 53.2205C19.5017 52.4895 20.238 51.9676 21.0852 51.7619C21.1417 51.7476 21.2011 51.7491 21.2568 51.7664C21.3126 51.7836 21.3624 51.8159 21.401 51.8596L21.4899 51.8286C21.8301 51.7101 22.1903 51.6597 22.55 51.6803C22.9097 51.7008 23.2619 51.792 23.5863 51.9485C23.9108 52.105 24.2012 52.3239 24.441 52.5926C24.6808 52.8612 24.8653 53.1744 24.9839 53.5143L25.0059 53.5775L24.4129 53.784C24.2282 53.8484 24.0601 53.9531 23.9209 54.0905C23.7817 54.228 23.675 54.3947 23.6084 54.5785C23.5418 54.7623 23.5171 54.9587 23.536 55.1533C23.5549 55.3478 23.617 55.5357 23.7178 55.7033L24.3241 56.7117L24.2595 56.744C22.951 57.4181 21.5018 57.7746 20.0296 57.7848Z" fill="#2F2E41"/>
<path d="M51.1267 93.4471H0.133839C0.098343 93.4471 0.0643003 93.433 0.0392006 93.4079C0.0141008 93.3829 0 93.3489 0 93.3134C0 93.2779 0.0141008 93.2439 0.0392006 93.2189C0.0643003 93.1938 0.098343 93.1797 0.133839 93.1797H51.1267C51.1622 93.1797 51.1962 93.1938 51.2213 93.2189C51.2464 93.2439 51.2605 93.2779 51.2605 93.3134C51.2605 93.3489 51.2464 93.3829 51.2213 93.4079C51.1962 93.433 51.1622 93.4471 51.1267 93.4471Z" fill="#CACACA"/>
<path d="M141.468 100H90.4756C90.4401 100 90.4061 99.986 90.381 99.9609C90.3559 99.9358 90.3418 99.9018 90.3418 99.8664C90.3418 99.8309 90.3559 99.7969 90.381 99.7718C90.4061 99.7468 90.4401 99.7327 90.4756 99.7327H141.468C141.504 99.7327 141.538 99.7468 141.563 99.7718C141.588 99.7969 141.602 99.8309 141.602 99.8664C141.602 99.9018 141.588 99.9358 141.563 99.9609C141.538 99.986 141.504 100 141.468 100Z" fill="#CACACA"/>
<path d="M113.773 76.662C113.886 76.5674 113.977 76.4492 114.039 76.3157C114.102 76.1822 114.134 76.0366 114.134 75.8893C114.134 75.7419 114.102 75.5964 114.039 75.4629C113.977 75.3294 113.886 75.2112 113.773 75.1166L113.023 61.9297L110.883 62.413L112.298 75.2918C112.151 75.4921 112.083 75.7392 112.107 75.9861C112.131 76.2331 112.244 76.4628 112.426 76.6317C112.608 76.8006 112.845 76.8969 113.094 76.9025C113.342 76.9081 113.584 76.8226 113.773 76.662Z" fill="#9F616A"/>
<path d="M122.462 78.3808C122.345 78.2904 122.25 78.1755 122.183 78.0443C122.116 77.9132 122.078 77.7689 122.073 77.6216C122.068 77.4744 122.095 77.3277 122.152 77.1921C122.21 77.0564 122.296 76.935 122.406 76.8364L122.678 63.631L124.834 64.0366L123.887 76.9581C124.04 77.153 124.117 77.3975 124.102 77.6451C124.087 77.8927 123.982 78.1264 123.807 78.3017C123.631 78.4771 123.397 78.582 123.149 78.5966C122.901 78.6112 122.657 78.5344 122.462 78.3808Z" fill="#9F616A"/>
<path d="M123.604 98.0068L125.283 98.0067L125.762 94.0938L123.604 94.0939L123.604 98.0068Z" fill="#9F616A"/>
<path d="M123.174 97.4591L126.48 97.459H126.48C127.039 97.459 127.575 97.6808 127.97 98.0756C128.365 98.4703 128.587 99.0058 128.587 99.5641V99.6325L123.174 99.6327L123.174 97.4591Z" fill="#2F2E41"/>
<path d="M113.127 98.0049L114.806 98.0048L115.285 91.5352H113.127L113.127 98.0049Z" fill="#9F616A"/>
<path d="M112.697 97.4591L116.004 97.459C116.563 97.459 117.099 97.6808 117.494 98.0756C117.889 98.4703 118.111 99.0058 118.111 99.5641V99.6325L112.697 99.6327L112.697 97.4591Z" fill="#2F2E41"/>
<path d="M119.889 56.2422C121.406 56.2422 122.636 55.0136 122.636 53.498C122.636 51.9825 121.406 50.7539 119.889 50.7539C118.372 50.7539 117.143 51.9825 117.143 53.498C117.143 55.0136 118.372 56.2422 119.889 56.2422Z" fill="#9F616A"/>
<path d="M123.38 59.8301C123.38 59.8301 124.6 59.9317 124.702 60.5415C124.804 61.1513 124.702 62.9807 124.702 62.9807C124.702 62.9807 125.516 65.42 124.702 66.0298C123.888 66.6396 121.752 66.7412 121.752 66.7412L123.38 59.8301Z" fill="#E4E4E4"/>
<path d="M113.004 73.6523L111.885 75.4818C111.885 75.4818 112.292 83.5109 112.393 83.7141C112.474 83.8334 112.51 83.9774 112.495 84.1207V85.2386L112.8 94.9955C112.8 94.9955 111.987 95.4021 113.004 95.707C114.021 96.0119 115.344 96.1135 115.547 95.0972C115.751 94.0808 115.76 85.6138 115.751 85.3403L115.852 84.9338L117.48 78.9373L121.244 87.2713L123.482 96.6217C123.482 96.6217 126.869 97.0125 126.259 95.6912C125.649 94.37 124.194 84.5272 124.194 84.5272C124.194 84.5272 123.889 83.5109 123.889 83.3076C123.889 83.1043 123.787 83.0027 123.787 82.7994C123.787 82.5961 123.686 81.9863 123.686 81.9863L122.973 75.5834L113.004 73.6523Z" fill="#2F2E41"/>
<path d="M114.021 58.1024C114.021 58.1024 112.8 58.0008 112.495 59.0171C112.19 60.0335 109.646 63.8956 110.155 64.3021C110.664 64.7087 114.529 66.1315 114.631 66.0299C114.733 65.9283 114.021 58.1024 114.021 58.1024Z" fill="#E4E4E4"/>
<path d="M123.089 51.7484C122.974 51.3197 122.811 50.8912 122.48 50.5951C122.145 50.2972 121.715 50.1279 121.266 50.1173C120.754 49.8209 120.18 49.649 119.589 49.6155C118.998 49.5821 118.408 49.688 117.866 49.9247C117.807 49.8063 117.712 49.7097 117.595 49.6488C117.562 49.931 117.53 50.2132 117.497 50.4955C117.371 50.4006 117.245 50.3058 117.118 50.2109C117.112 50.3779 117.106 50.5449 117.1 50.712C116.984 50.6126 116.868 50.5133 116.753 50.414C116.728 51.0055 117.221 51.5176 117.778 51.7192C118.335 51.9209 118.946 51.8837 119.538 51.8557C119.83 51.8419 120.163 51.8469 120.361 52.0628C120.567 52.289 120.528 52.6358 120.533 52.942C120.54 53.3727 120.983 53.1617 121.205 53.531C121.301 53.6533 121.36 53.7998 121.377 53.954C121.356 54.094 121.305 54.2278 121.228 54.3464C121.065 54.6836 120.74 55.7326 120.895 56.0736C121.182 55.9131 121.469 55.7526 121.756 55.5921C121.756 55.5921 123.647 53.8236 123.089 51.7484Z" fill="#2F2E41"/>
<path d="M122.568 65.7243C122.568 65.7243 124.602 60.541 124.501 60.1345C124.399 59.7279 121.86 58.0598 121.86 58.0598C121.764 58.0478 121.672 58.0362 121.579 58.0246C121.593 57.9888 121.603 57.9513 121.607 57.9132L121.651 57.5154C121.665 57.3918 121.628 57.268 121.551 57.1711C121.473 57.0742 121.36 57.0122 121.236 56.9987L118.01 56.6454C117.887 56.6318 117.763 56.6679 117.666 56.7457C117.569 56.8234 117.507 56.9365 117.493 57.06L117.455 57.4041C117.285 57.362 117.278 57.3454 117.278 57.3454C117.278 57.3454 114.429 57.7969 113.717 58.0001C113.005 58.2034 113.615 65.9276 113.615 65.9276C113.615 65.9276 113.107 73.042 112.801 73.2453C112.496 73.4485 112.801 73.3469 112.496 74.16C112.456 74.2672 113.018 73.6684 113.259 73.8043C114.846 74.6983 121.283 76.7891 122.873 76.7008C123.381 71.402 122.364 69.6881 122.364 69.6881L122.568 65.7243Z" fill="#E4E4E4"/>
</svg>
