<svg width="134" height="100" viewBox="0 0 134 100" fill="none" xmlns="http://www.w3.org/2000/svg">
<path d="M106.71 23.7188H106.162V8.69523C106.162 7.55336 105.938 6.42267 105.502 5.36771C105.065 4.31276 104.426 3.3542 103.62 2.54678C102.814 1.73935 101.857 1.09886 100.804 0.661888C99.7514 0.224911 98.6228 1.08063e-06 97.4831 0H65.7124C63.4105 -5.09221e-06 61.203 0.916091 59.5753 2.54676C57.9476 4.17742 57.0332 6.38908 57.0332 8.6952V91.1156C57.0332 93.4217 57.9476 95.6334 59.5753 97.264C61.2029 98.8947 63.4105 99.8108 65.7124 99.8108H97.483C99.7849 99.8108 101.992 98.8947 103.62 97.2641C105.248 95.6334 106.162 93.4217 106.162 91.1156V34.4128H106.71L106.71 23.7188Z" fill="#2F2E41"/>
<path d="M104.314 8.75545V91.0545C104.314 92.7768 103.631 94.4285 102.416 95.6463C101.2 96.8641 99.5517 97.5483 97.8326 97.5483H65.9095C64.1905 97.5483 62.5418 96.8641 61.3262 95.6463C60.1107 94.4285 59.4278 92.7768 59.4277 91.0545V8.75545C59.4278 7.0332 60.1107 5.3815 61.3262 4.16368C62.5418 2.94587 64.1905 2.26169 65.9095 2.26166H69.7822C69.5919 2.73014 69.5194 3.23829 69.5712 3.74142C69.6229 4.24454 69.7973 4.72722 70.0789 5.147C70.3605 5.56677 70.7408 5.91078 71.1863 6.14876C71.6318 6.38674 72.1288 6.5114 72.6336 6.51177H90.8347C91.3396 6.51139 91.8366 6.38673 92.2821 6.14875C92.7276 5.91077 93.1078 5.56676 93.3895 5.14699C93.6711 4.72722 93.8454 4.24454 93.8972 3.74141C93.9489 3.23829 93.8765 2.73014 93.6862 2.26166H97.8326C99.5517 2.26169 101.2 2.94587 102.416 4.16368C103.631 5.3815 104.314 7.0332 104.314 8.75545Z" fill="white"/>
<path d="M20.3178 82.0625C20.0696 82.0627 19.8297 81.9729 19.6424 81.8098L18.12 80.4794C17.9152 80.2999 17.7897 80.0463 17.771 79.7743C17.7523 79.5023 17.8419 79.2339 18.0202 79.0279L29.0894 66.313C29.1114 66.2871 29.1349 66.2625 29.1599 66.2395C29.3455 66.0649 29.5893 65.9656 29.8438 65.961C30.0984 65.9565 30.3455 66.0468 30.5373 66.2146L32.0607 67.5448C32.1623 67.6336 32.2454 67.7416 32.3053 67.8626C32.3652 67.9836 32.4007 68.1152 32.4098 68.25L32.4098 68.2503C32.4191 68.3851 32.4017 68.5204 32.3586 68.6485C32.3156 68.7765 32.2478 68.8948 32.159 68.9965L21.0913 81.7112C20.9949 81.8217 20.876 81.9102 20.7425 81.9708C20.6091 82.0314 20.4643 82.0627 20.3178 82.0625Z" fill="#63388B"/>
<path d="M40.6545 68.8345C40.5478 68.8343 40.4418 68.818 40.3399 68.7862C40.2113 68.7453 40.0921 68.6793 39.989 68.592C39.886 68.5047 39.8012 68.3979 39.7395 68.2777L38.814 66.4783C38.7088 66.2749 38.6746 66.042 38.7169 65.8169C38.7592 65.5918 38.8757 65.3873 39.0476 65.2363C39.1103 65.1796 39.1802 65.1313 39.2554 65.0927L54.2233 57.3618C54.4653 57.2373 54.7467 57.214 55.0059 57.2969C55.2651 57.3797 55.481 57.5621 55.6063 57.804L56.5318 59.6035C56.656 59.846 56.6792 60.128 56.5964 60.3877C56.5137 60.6473 56.3316 60.8636 56.0901 60.9891L41.1226 68.7199C40.9779 68.7951 40.8174 68.8344 40.6545 68.8345Z" fill="#63388B"/>
<path d="M40.3816 69.2707C40.1907 69.2698 40.0038 69.2163 39.8414 69.116C39.6789 69.0157 39.5472 68.8725 39.4607 68.7021L38.5545 66.8931C38.4446 66.6745 38.4166 66.4237 38.4753 66.1862C38.4794 66.168 38.4853 66.1481 38.4912 66.1288L38.4966 66.1108C38.5126 66.0636 38.5284 65.9962 38.5467 65.9181L38.5573 65.8728C38.6243 65.5819 38.7077 65.2193 38.8752 65.0683C38.8961 65.0488 38.9196 65.0323 38.9452 65.0195L45.5165 61.0286C45.638 60.9659 45.7707 60.928 45.9069 60.9173C46.0432 60.9065 46.1802 60.923 46.3099 60.9659C46.5679 61.0522 46.7814 61.2371 46.904 61.4803L48.5635 64.9068C48.6848 65.1507 48.7047 65.4328 48.6188 65.6913C48.5329 65.9498 48.3482 66.1637 48.1053 66.2861L40.8283 69.1645C40.6898 69.2346 40.5368 69.271 40.3816 69.2707Z" fill="#2F2E41"/>
<path d="M35.463 59.7754C39.5092 59.7754 42.7893 56.4893 42.7893 52.4356C42.7893 48.3819 39.5092 45.0957 35.463 45.0957C31.4168 45.0957 28.1367 48.3819 28.1367 52.4356C28.1367 56.4893 31.4168 59.7754 35.463 59.7754Z" fill="#63388B"/>
<path d="M33.6254 99.9341H31.6048C31.3326 99.9338 31.0716 99.8253 30.8792 99.6325C30.6867 99.4396 30.5784 99.1782 30.5781 98.9055V81.761C30.5784 81.4883 30.6867 81.2269 30.8792 81.034C31.0716 80.8412 31.3326 80.7327 31.6048 80.7324H33.6254C33.7526 80.7321 33.8787 80.7561 33.997 80.8031C34.1824 80.8746 34.3429 80.9989 34.4588 81.1606C34.5747 81.3223 34.6408 81.5144 34.6491 81.7133C34.6515 81.7291 34.6525 81.7451 34.652 81.761V98.9055C34.6517 99.1782 34.5435 99.4396 34.351 99.6325C34.1585 99.8253 33.8976 99.9338 33.6254 99.9341Z" fill="#63388B"/>
<path d="M44.8868 89.4218C44.8771 89.4057 44.8666 89.3902 44.8554 89.3752C44.8277 89.3098 44.7928 89.2477 44.7513 89.19L41.3071 84.3625L38.4694 80.3867H33.6289L33.9711 80.8654L34.5803 81.7198L36.468 84.3639L40.5132 90.0321L36.7637 97.5778C36.6104 97.885 36.8719 98.3266 37.3442 98.5625L39.1525 99.4649C39.332 99.5567 39.53 99.6064 39.7315 99.6103C39.9861 99.6103 40.1983 99.5156 40.2873 99.336L44.9484 89.9553C44.9852 89.8686 44.9988 89.7739 44.988 89.6804C44.9772 89.5869 44.9423 89.4978 44.8868 89.4218Z" fill="#63388B"/>
<path d="M28.4112 73.7512C28.1432 73.7499 27.8862 73.6439 27.695 73.4558L24.9535 70.8217C24.793 70.6641 24.6891 70.4576 24.6581 70.2345C24.6506 70.1884 24.6467 70.1417 24.6465 70.0949C24.646 70.0418 24.65 69.9888 24.6585 69.9365C24.6892 69.7202 24.789 69.5197 24.9429 69.3649L30.7728 64.3158C30.9308 64.1526 31.3315 64.1865 31.685 64.2163L31.7383 64.2207C31.8035 64.2278 31.8689 64.2315 31.9344 64.2319C31.9586 64.2345 31.9867 64.2332 32.0125 64.2345C32.2578 64.2517 32.4889 64.356 32.6644 64.5286L34.1031 65.9495C34.2967 66.1412 34.4066 66.402 34.4085 66.6747C34.4105 66.9474 34.3043 67.2098 34.1134 67.4042L29.1538 73.4367C29.0577 73.5368 28.9424 73.6162 28.8147 73.6703C28.6871 73.7243 28.5498 73.7518 28.4112 73.7512Z" fill="#2F2E41"/>
<path d="M35.1717 55.4291L35.1641 55.1548C35.6734 55.1406 36.1224 55.1086 36.4599 54.8616C36.5555 54.7877 36.6341 54.6939 36.6904 54.5867C36.7466 54.4795 36.7792 54.3615 36.7858 54.2406C36.7918 54.1667 36.7806 54.0925 36.7532 54.0237C36.7259 53.9548 36.683 53.8932 36.628 53.8436C36.404 53.6541 36.0436 53.7155 35.7809 53.8361L35.5544 53.9402L35.9888 50.7598L36.2601 50.797L35.8906 53.5024C36.2475 53.3973 36.5782 53.4425 36.8047 53.6342C36.8917 53.7103 36.96 53.8054 37.0042 53.9123C37.0483 54.0192 37.0672 54.1348 37.0594 54.2503C37.0514 54.4127 37.0081 54.5714 36.9324 54.7153C36.8567 54.8592 36.7506 54.9847 36.6213 55.0832C36.1878 55.4006 35.6244 55.4164 35.1717 55.4291Z" fill="#2F2E41"/>
<path d="M39.0761 51.0312H37.6016V51.3055H39.0761V51.0312Z" fill="#2F2E41"/>
<path d="M34.4218 51.0312H32.9473V51.3055H34.4218V51.0312Z" fill="#2F2E41"/>
<path d="M42.1132 84.4337H29.1085C28.6096 84.4337 28.2188 83.6309 28.2188 82.6059V69.7592C28.2191 68.1852 28.7198 66.6521 29.6483 65.3823C30.5767 64.1124 31.8846 63.1718 33.3825 62.6966C33.3626 62.6065 33.3524 62.5144 33.3522 62.422C33.3526 62.0766 33.4897 61.7454 33.7335 61.5012C33.9773 61.2569 34.3079 61.1195 34.6526 61.1191H36.5691C36.9139 61.1195 37.2445 61.2569 37.4883 61.5012C37.7321 61.7454 37.8692 62.0766 37.8696 62.422C37.8694 62.5146 37.8592 62.6068 37.8392 62.6972C38.5628 62.9256 39.2467 63.2649 39.8666 63.7031C39.9941 63.7924 40.1198 63.8875 40.24 63.9859C41.3042 64.8405 42.111 65.9742 42.5706 67.2608C42.6461 67.4698 42.713 67.6864 42.7695 67.9043L42.7695 67.9045C42.9247 68.5105 43.0032 69.1336 43.003 69.7593V82.6059C43.003 83.6053 42.6257 84.4022 42.1419 84.4302C42.1325 84.4327 42.1229 84.4339 42.1132 84.4337Z" fill="#2F2E41"/>
<path d="M34.8573 89.0964H29.6554C29.4195 89.0961 29.1934 89.0021 29.0265 88.835C28.8597 88.6679 28.7659 88.4413 28.7656 88.2049V84.0906C28.7659 83.8543 28.8597 83.6277 29.0265 83.4605C29.1934 83.2934 29.4195 83.1994 29.6554 83.1992H34.8573C35.0932 83.1994 35.3194 83.2934 35.4862 83.4605C35.653 83.6277 35.7468 83.8543 35.7471 84.0906V88.2049C35.7468 88.4413 35.653 88.6679 35.4862 88.835C35.3194 89.0021 35.0932 89.0961 34.8573 89.0964Z" fill="#2F2E41"/>
<path d="M38.063 89.1888C37.8813 89.1888 37.7039 89.1331 37.5547 89.0293C37.4054 88.9255 37.2914 88.7784 37.2279 88.6078L35.7976 84.7511C35.7157 84.5295 35.7249 84.2843 35.8232 84.0695C35.9214 83.8546 36.1007 83.6875 36.3218 83.6049L41.198 81.7899C41.4192 81.7078 41.6638 81.7171 41.8783 81.8155C42.0928 81.9139 42.2595 82.0936 42.3419 82.315L43.7723 86.1717C43.8542 86.3934 43.845 86.6385 43.7467 86.8534C43.6485 87.0682 43.4691 87.2353 43.2481 87.3179L38.3719 89.133C38.2731 89.1699 38.1685 89.1888 38.063 89.1888Z" fill="#2F2E41"/>
<path d="M32.0181 48.9624C33.3758 48.1763 35.0223 48.7794 36.4248 49.1091C37.9234 49.4615 39.5075 49.5378 40.92 48.8259C42.0955 48.2334 43.0289 47.0653 43.1408 45.7269C43.2454 44.4759 42.542 43.1428 41.3525 42.6735C40.1406 42.1954 38.5979 42.821 38.1559 44.0669L38.5312 44.0177C37.0787 42.1073 35.2883 40.1359 32.7899 39.7639C31.669 39.597 30.4726 39.7488 29.5149 40.3901C28.6171 40.9912 28.0389 41.9193 27.698 42.93C27.3024 44.1027 27.199 45.3584 27.1274 46.5865C27.112 46.851 27.5227 46.8501 27.5381 46.5865C27.6505 44.6579 27.8328 42.3318 29.4067 40.9843C30.2237 40.2849 31.3146 40.0414 32.3679 40.1259C33.4868 40.2157 34.5241 40.6803 35.4235 41.3376C36.5012 42.1254 37.3732 43.1686 38.1766 44.2254C38.1979 44.259 38.2284 44.2859 38.2644 44.3028C38.3004 44.3197 38.3405 44.3259 38.3799 44.3207C38.4194 44.3156 38.4565 44.2992 38.487 44.2736C38.5175 44.248 38.54 44.2142 38.5519 44.1762C38.9067 43.1762 40.1517 42.7097 41.1205 43.0258C42.2162 43.3833 42.822 44.6281 42.7302 45.7269C42.6249 46.9853 41.6636 48.0437 40.5522 48.5474C39.2132 49.1543 37.7462 49.006 36.3606 48.671C34.8889 48.3151 33.2265 47.7874 31.8108 48.6072C31.7657 48.6357 31.7335 48.6806 31.7209 48.7324C31.7082 48.7843 31.7162 48.839 31.7431 48.8851C31.77 48.9312 31.8137 48.965 31.865 48.9795C31.9163 48.9939 31.9712 48.9878 32.0181 48.9624Z" fill="#2F2E41"/>
<path d="M67.611 9.89453C67.0358 9.89453 66.4661 10.008 65.9346 10.2286C65.4032 10.4491 64.9203 10.7724 64.5135 11.1799C64.1067 11.5874 63.7841 12.0712 63.5639 12.6037C63.3438 13.1361 63.2305 13.7068 63.2305 14.2831C63.2305 14.8595 63.3438 15.4301 63.5639 15.9626C63.784 16.495 64.1067 16.9788 64.5135 17.3864C64.9203 17.7939 65.4032 18.1172 65.9346 18.3377C66.4661 18.5583 67.0357 18.6718 67.611 18.6718C68.7728 18.6718 69.887 18.2094 70.7085 17.3864C71.53 16.5634 71.9915 15.4471 71.9915 14.2832C71.9915 13.1192 71.53 12.003 70.7085 11.1799C69.887 10.3569 68.7728 9.89453 67.611 9.89453Z" fill="#F2F2F2"/>
<path d="M99.4171 17.9873H76.4193C76.1289 17.9873 75.8504 17.8717 75.645 17.6659C75.4396 17.4602 75.3242 17.1811 75.3242 16.8901C75.3242 16.5991 75.4396 16.3201 75.645 16.1143C75.8504 15.9086 76.1289 15.793 76.4193 15.793H99.4171C99.7075 15.793 99.9861 15.9086 100.191 16.1143C100.397 16.3201 100.512 16.5991 100.512 16.8901C100.512 17.1811 100.397 17.4602 100.191 17.6659C99.9861 17.8717 99.7075 17.9873 99.4171 17.9873Z" fill="#F2F2F2"/>
<path d="M83.6746 13.3232H76.4193C76.1289 13.3232 75.8504 13.2076 75.645 13.0019C75.4396 12.7961 75.3242 12.517 75.3242 12.2261C75.3242 11.9351 75.4396 11.656 75.645 11.4503C75.8504 11.2445 76.1289 11.1289 76.4193 11.1289H83.6746C83.965 11.1289 84.2436 11.2445 84.449 11.4503C84.6543 11.656 84.7697 11.9351 84.7697 12.2261C84.7697 12.517 84.6543 12.7961 84.449 13.0019C84.2436 13.2076 83.965 13.3232 83.6746 13.3232Z" fill="#F2F2F2"/>
<path d="M67.611 28.2734C67.0358 28.2734 66.4661 28.387 65.9346 28.6075C65.4032 28.828 64.9203 29.1513 64.5135 29.5588C64.1067 29.9663 63.7841 30.4501 63.5639 30.9826C63.3438 31.515 63.2305 32.0857 63.2305 32.662C63.2305 33.2384 63.3438 33.809 63.5639 34.3415C63.784 34.874 64.1067 35.3578 64.5135 35.7653C64.9203 36.1728 65.4032 36.4961 65.9346 36.7166C66.4661 36.9372 67.0357 37.0507 67.611 37.0507C68.7728 37.0507 69.887 36.5883 70.7085 35.7653C71.53 34.9423 71.9915 33.826 71.9915 32.6621C71.9915 31.4981 71.53 30.3819 70.7085 29.5588C69.887 28.7358 68.7728 28.2734 67.611 28.2734Z" fill="#F2F2F2"/>
<path d="M99.4171 36.3642H76.4193C76.1289 36.3642 75.8504 36.2486 75.645 36.0429C75.4396 35.8371 75.3242 35.5581 75.3242 35.2671C75.3242 34.9761 75.4396 34.697 75.645 34.4913C75.8504 34.2855 76.1289 34.1699 76.4193 34.1699H99.4171C99.7075 34.1699 99.9861 34.2855 100.191 34.4913C100.397 34.697 100.512 34.9761 100.512 35.2671C100.512 35.5581 100.397 35.8371 100.191 36.0429C99.9861 36.2486 99.7075 36.3642 99.4171 36.3642Z" fill="#F2F2F2"/>
<path d="M83.6746 31.7021H76.4193C76.1289 31.7021 75.8504 31.5865 75.645 31.3808C75.4396 31.175 75.3242 30.896 75.3242 30.605C75.3242 30.314 75.4396 30.0349 75.645 29.8292C75.8504 29.6234 76.1289 29.5078 76.4193 29.5078H83.6746C83.965 29.5078 84.2436 29.6234 84.449 29.8292C84.6543 30.0349 84.7697 30.314 84.7697 30.605C84.7697 30.896 84.6543 31.175 84.449 31.3808C84.2436 31.5865 83.965 31.7021 83.6746 31.7021Z" fill="#F2F2F2"/>
<path d="M67.611 65.0273C66.4492 65.0273 65.335 65.4897 64.5135 66.3127C63.692 67.1358 63.2305 68.252 63.2305 69.416C63.2305 70.5799 63.692 71.6962 64.5135 72.5192C65.335 73.3422 66.4492 73.8046 67.611 73.8046C68.7728 73.8046 69.887 73.3422 70.7085 72.5192C71.53 71.6962 71.9915 70.5799 71.9915 69.416C71.9915 68.252 71.53 67.1358 70.7085 66.3127C69.887 65.4897 68.7728 65.0273 67.611 65.0273Z" fill="#F2F2F2"/>
<path d="M99.4171 73.1201H76.4193C76.1289 73.1201 75.8504 73.0045 75.645 72.7987C75.4396 72.593 75.3242 72.3139 75.3242 72.0229C75.3242 71.732 75.4396 71.4529 75.645 71.2471C75.8504 71.0414 76.1289 70.9258 76.4193 70.9258H99.4171C99.7075 70.9258 99.9861 71.0414 100.191 71.2471C100.397 71.4529 100.512 71.732 100.512 72.0229C100.512 72.3139 100.397 72.593 100.191 72.7987C99.9861 73.0045 99.7075 73.1201 99.4171 73.1201Z" fill="#F2F2F2"/>
<path d="M83.6746 68.456H76.4193C76.1289 68.456 75.8504 68.3404 75.645 68.1347C75.4396 67.9289 75.3242 67.6499 75.3242 67.3589C75.3242 67.0679 75.4396 66.7888 75.645 66.5831C75.8504 66.3773 76.1289 66.2617 76.4193 66.2617H83.6746C83.965 66.2617 84.2436 66.3773 84.449 66.5831C84.6543 66.7888 84.7697 67.0679 84.7697 67.3589C84.7697 67.6499 84.6543 67.9289 84.449 68.1347C84.2436 68.3404 83.965 68.456 83.6746 68.456Z" fill="#F2F2F2"/>
<path d="M67.611 83.4063C67.0358 83.4062 66.4661 83.5198 65.9346 83.7403C65.4032 83.9609 64.9203 84.2841 64.5135 84.6916C64.1067 85.0992 63.7841 85.583 63.5639 86.1154C63.3438 86.6479 63.2305 87.2185 63.2305 87.7949C63.2305 88.3712 63.3438 88.9419 63.5639 89.4743C63.784 90.0068 64.1067 90.4906 64.5135 90.8981C64.9203 91.3056 65.4032 91.6289 65.9346 91.8494C66.4661 92.07 67.0357 92.1835 67.611 92.1835C68.7728 92.1835 69.887 91.7211 70.7085 90.8981C71.53 90.0751 71.9915 88.9588 71.9915 87.7949C71.9915 86.6309 71.53 85.5147 70.7085 84.6916C69.887 83.8686 68.7728 83.4063 67.611 83.4063Z" fill="#F2F2F2"/>
<path d="M99.4171 91.4951H76.4193C76.1289 91.4951 75.8504 91.3795 75.645 91.1737C75.4396 90.968 75.3242 90.6889 75.3242 90.3979C75.3242 90.107 75.4396 89.8279 75.645 89.6221C75.8504 89.4164 76.1289 89.3008 76.4193 89.3008H99.4171C99.7075 89.3008 99.9861 89.4164 100.191 89.6221C100.397 89.8279 100.512 90.107 100.512 90.3979C100.512 90.6889 100.397 90.968 100.191 91.1737C99.9861 91.3795 99.7075 91.4951 99.4171 91.4951Z" fill="#F2F2F2"/>
<path d="M83.6746 86.8349H76.4193C76.1289 86.8349 75.8504 86.7193 75.645 86.5136C75.4396 86.3078 75.3242 86.0288 75.3242 85.7378C75.3242 85.4468 75.4396 85.1677 75.645 84.962C75.8504 84.7562 76.1289 84.6406 76.4193 84.6406H83.6746C83.965 84.6406 84.2436 84.7562 84.449 84.962C84.6543 85.1677 84.7697 85.4468 84.7697 85.7378C84.7697 86.0288 84.6543 86.3078 84.449 86.5136C84.2436 86.7193 83.965 86.8349 83.6746 86.8349Z" fill="#F2F2F2"/>
<path d="M108.29 61.5981H55.4501C54.8513 61.5974 54.2772 61.3588 53.8537 60.9346C53.4303 60.5103 53.1921 59.9352 53.1914 59.3352V42.3293C53.1921 41.7293 53.4303 41.1542 53.8537 40.7299C54.2772 40.3057 54.8513 40.0671 55.4501 40.0664H108.29C108.889 40.0671 109.463 40.3057 109.887 40.7299C110.31 41.1542 110.548 41.7293 110.549 42.3293V59.3352C110.548 59.9352 110.31 60.5103 109.887 60.9346C109.463 61.3588 108.889 61.5974 108.29 61.5981Z" fill="white"/>
<path d="M67.611 46.4453C66.4492 46.4453 65.335 46.9077 64.5135 47.7307C63.692 48.5537 63.2305 49.67 63.2305 50.8339C63.2305 51.9979 63.692 53.1141 64.5135 53.9372C65.335 54.7602 66.4492 55.2226 67.611 55.2226C68.7728 55.2226 69.887 54.7602 70.7085 53.9372C71.53 53.1141 71.9915 51.9979 71.9915 50.8339C71.9915 49.67 71.53 48.5537 70.7085 47.7307C69.887 46.9077 68.7728 46.4453 67.611 46.4453Z" fill="#63388B"/>
<path d="M99.4171 54.5361H76.4193C76.1289 54.5361 75.8504 54.4205 75.645 54.2148C75.4396 54.009 75.3242 53.7299 75.3242 53.439C75.3242 53.148 75.4396 52.8689 75.645 52.6631C75.8504 52.4574 76.1289 52.3418 76.4193 52.3418H99.4171C99.7075 52.3418 99.9861 52.4574 100.191 52.6631C100.397 52.8689 100.512 53.148 100.512 53.439C100.512 53.7299 100.397 54.009 100.191 54.2148C99.9861 54.4205 99.7075 54.5361 99.4171 54.5361Z" fill="#CCCCCC"/>
<path d="M83.6746 49.872H76.4193C76.1289 49.872 75.8504 49.7565 75.645 49.5507C75.4396 49.3449 75.3242 49.0659 75.3242 48.7749C75.3242 48.4839 75.4396 48.2048 75.645 47.9991C75.8504 47.7933 76.1289 47.6777 76.4193 47.6777H83.6746C83.965 47.6777 84.2436 47.7933 84.449 47.9991C84.6543 48.2048 84.7697 48.4839 84.7697 48.7749C84.7697 49.0659 84.6543 49.3449 84.449 49.5507C84.2436 49.7565 83.965 49.872 83.6746 49.872Z" fill="#CCCCCC"/>
<path d="M108.29 61.5981H55.4501C54.8513 61.5974 54.2772 61.3588 53.8537 60.9346C53.4303 60.5103 53.1921 59.9352 53.1914 59.3352V42.3293C53.1921 41.7293 53.4303 41.1542 53.8537 40.7299C54.2772 40.3057 54.8513 40.0671 55.4501 40.0664H108.29C108.889 40.0671 109.463 40.3057 109.887 40.7299C110.31 41.1542 110.548 41.7293 110.549 42.3293V59.3352C110.548 59.9352 110.31 60.5103 109.887 60.9346C109.463 61.3588 108.889 61.5974 108.29 61.5981ZM55.4501 40.2036C54.8876 40.2042 54.3482 40.4284 53.9505 40.8269C53.5527 41.2254 53.3289 41.7657 53.3283 42.3293V59.3352C53.3289 59.8988 53.5527 60.4391 53.9505 60.8376C54.3482 61.2362 54.8876 61.4603 55.4501 61.461H108.29C108.853 61.4603 109.392 61.2362 109.79 60.8376C110.188 60.4391 110.411 59.8988 110.412 59.3352V42.3293C110.411 41.7657 110.188 41.2254 109.79 40.8269C109.392 40.4284 108.853 40.2042 108.29 40.2036H55.4501Z" fill="#3F3D56"/>
<path d="M67.1965 52.6537C67.0811 52.6539 66.9689 52.6165 66.8766 52.5472L66.8709 52.5429L65.6663 51.6197C65.5537 51.5331 65.4801 51.4053 65.4616 51.2644C65.4431 51.1234 65.4812 50.9809 65.5675 50.8681C65.6538 50.7552 65.7814 50.6814 65.922 50.6627C66.0627 50.644 66.205 50.6821 66.3177 50.7684L67.098 51.3679L68.9418 48.958C68.9846 48.9021 69.0379 48.8552 69.0987 48.82C69.1596 48.7848 69.2267 48.7619 69.2964 48.7527C69.3661 48.7434 69.4369 48.7481 69.5047 48.7663C69.5726 48.7844 69.6363 48.8159 69.692 48.8587L69.6922 48.8588L69.6808 48.8747L69.6925 48.8588C69.805 48.9454 69.8786 49.0733 69.8972 49.2142C69.9158 49.3551 69.8777 49.4977 69.7915 49.6106L67.6227 52.4439C67.5726 52.5092 67.5081 52.562 67.4342 52.5983C67.3604 52.6346 67.2792 52.6533 67.1969 52.6531L67.1965 52.6537Z" fill="white"/>
<path d="M133.195 99.9989H0.136891C0.100586 99.9989 0.0657666 99.9844 0.0400944 99.9587C0.0144223 99.933 0 99.8981 0 99.8618C0 99.8254 0.0144223 99.7905 0.0400944 99.7648C0.0657666 99.7391 0.100586 99.7246 0.136891 99.7246H133.195C133.232 99.7246 133.266 99.7391 133.292 99.7648C133.318 99.7905 133.332 99.8254 133.332 99.8618C133.332 99.8981 133.318 99.933 133.292 99.9587C133.266 99.9844 133.232 99.9989 133.195 99.9989Z" fill="#CCCCCC"/>
</svg>
