<svg width="112" height="100" viewBox="0 0 112 100" fill="none" xmlns="http://www.w3.org/2000/svg">
<path d="M69.2975 100H36.6235C32.366 100 28.9023 96.5272 28.9023 92.2585V7.74146C28.9023 3.47278 32.366 0 36.6235 0H69.2975C73.555 0 77.0186 3.47278 77.0186 7.74146V92.2585C77.0186 96.5272 73.555 100 69.2975 100Z" fill="#2F2E41"/>
<path d="M69.331 97.9097H36.5903C33.3958 97.9097 30.7969 95.3039 30.7969 92.101V7.42214C30.7969 4.21924 33.3958 1.6134 36.5903 1.6134H69.331C72.5255 1.6134 75.1245 4.21924 75.1245 7.42214V92.101C75.1245 95.3039 72.5255 97.9097 69.331 97.9097Z" fill="white"/>
<path d="M58.0778 7.12238H47.659C46.4577 7.12238 45.4805 6.14257 45.4805 4.93814C45.4805 3.73371 46.4577 2.75391 47.659 2.75391H58.0778C59.2791 2.75391 60.2563 3.73371 60.2563 4.93814C60.2563 6.14257 59.2791 7.12238 58.0778 7.12238Z" fill="#2F2E41"/>
<path d="M66.0544 30.8215H38.746C37.6981 30.8215 36.8457 29.9667 36.8457 28.9161V18.0341C36.8457 16.9835 37.6981 16.1289 38.746 16.1289H66.0544C67.1022 16.1289 67.9546 16.9835 67.9546 18.0341V28.9161C67.9546 29.9667 67.1022 30.8215 66.0544 30.8215Z" fill="#63388B"/>
<path d="M66.0544 64.1476H38.746C37.6981 64.1476 36.8457 63.2928 36.8457 62.2423V51.3603C36.8457 50.3097 37.6981 49.4551 38.746 49.4551H66.0544C67.1022 49.4551 67.9546 50.3097 67.9546 51.3603V62.2423C67.9546 63.2928 67.1022 64.1476 66.0544 64.1476Z" fill="#D8D8D8"/>
<path d="M65.8921 47.29H55.1562C54.0534 47.29 53.1562 46.3905 53.1562 45.2848V34.8489C53.1562 33.7432 54.0534 32.8437 55.1562 32.8437H65.8921C66.9949 32.8437 67.892 33.7432 67.892 34.8489V45.2848C67.892 46.3905 66.9949 47.29 65.8921 47.29Z" fill="#D8D8D8"/>
<path d="M49.519 47.2901H38.7832C37.6804 47.2901 36.7832 46.3905 36.7832 45.2848V34.849C36.7832 33.7433 37.6804 32.8438 38.7832 32.8438H49.519C50.6218 32.8438 51.519 33.7433 51.519 34.849V45.2848C51.519 46.3905 50.6218 47.2901 49.519 47.2901Z" fill="#D8D8D8"/>
<path d="M81.7269 24.4538L81.0376 26.1825C81.0376 26.1825 80.4023 28.6022 81.1473 29.5675C81.8906 30.5311 82.056 37.9201 81.257 38.4651C80.458 39.0118 91.3838 33.4056 91.3838 33.4056C91.3838 33.4056 87.1186 23.4885 87.0465 23.4524C86.9745 23.4163 84.1796 22.543 84.1796 22.543L81.7302 24.4538H81.7269Z" fill="#2F2E43"/>
<path d="M88.8407 32.998L85.1797 34.2046V28.9219H88.5018L88.8407 32.998Z" fill="#F2A2A5"/>
<path d="M77.16 62.9918C76.9619 64.2016 76.1563 65.07 75.3622 64.9305C74.5681 64.791 74.0835 63.696 74.2832 62.4845C74.3553 62.0002 74.5469 61.5406 74.8416 61.1482L75.7486 56.0312L78.2177 56.55L77.0601 61.5389C77.2124 62.0117 77.2468 62.5091 77.16 62.9918Z" fill="#F2A2A5"/>
<path d="M87.4656 92.1426H84.0371V97.0199H87.4656V92.1426Z" fill="#F2A2A5"/>
<path d="M80.6972 99.9747C80.337 99.9747 80.0161 99.9664 79.7738 99.9435C78.8634 99.8597 77.994 99.185 77.5569 98.791C77.3604 98.6137 77.2982 98.3314 77.3997 98.0884C77.4734 97.9144 77.6191 97.7831 77.8008 97.7322L80.2077 97.0427L84.1045 94.4062L84.1487 94.485C84.1651 94.5146 84.5482 95.2057 84.6759 95.6719C84.725 95.8492 84.7119 95.997 84.6382 96.1119C84.5875 96.1907 84.5154 96.2367 84.4581 96.2629C84.5285 96.3368 84.7496 96.4878 85.4307 96.5962C86.4245 96.7538 86.6341 95.7212 86.6423 95.6785L86.6488 95.644L86.6783 95.6243C87.1515 95.319 87.4429 95.1794 87.5428 95.209C87.605 95.227 87.7098 95.2599 87.9931 98.072C88.0209 98.1606 88.219 98.8074 88.0848 99.4263C87.939 100.099 85.005 99.8679 84.4172 99.8154C84.4008 99.817 82.2035 99.9746 80.6989 99.9746L80.6972 99.9747Z" fill="#2F2E43"/>
<path d="M97.2275 88.3118L94.3184 90.1309L96.8925 94.2693L99.8017 92.4502L97.2275 88.3118Z" fill="#F2A2A5"/>
<path d="M93.365 99.3044C92.9622 99.3044 92.5922 99.2552 92.3285 99.2092C92.0699 99.1632 91.8668 98.9564 91.8243 98.697C91.7948 98.5099 91.8488 98.3211 91.9765 98.1816L93.6548 96.32L95.5704 92.0156L95.649 92.0583C95.6785 92.0747 96.3678 92.4572 96.7231 92.7855C96.859 92.9103 96.9261 93.0433 96.9228 93.1795C96.9212 93.2747 96.8852 93.3502 96.8492 93.4044C96.9474 93.4307 97.2143 93.4405 97.8496 93.1713C98.7763 92.779 98.4095 91.7907 98.3931 91.7497L98.38 91.7168L98.3948 91.6856C98.6355 91.1751 98.8074 90.9026 98.9089 90.8747C98.9728 90.8566 99.0775 90.8287 100.802 93.0662C100.872 93.1253 101.381 93.5702 101.594 94.1661C101.825 94.8146 99.2134 96.1755 98.6879 96.4414C98.6715 96.4546 95.9388 98.4459 94.8156 99.0122C94.3703 99.2371 93.8431 99.3061 93.3633 99.3061L93.365 99.3044Z" fill="#2F2E43"/>
<path d="M89.9901 51.3574H80.3906L79.5195 60.3109L83.3312 93.3929H88.2317L86.2718 74.286L94.2209 91.5362L98.5762 88.4795L92.3691 72.3752C92.3691 72.3752 94.5861 58.3458 92.844 54.8508C91.1019 51.3574 89.9901 51.3574 89.9901 51.3574Z" fill="#2F2E43"/>
<path d="M94.7648 51.9045H78.1035L84.0928 32.1426H90.7354L94.7648 51.9045Z" fill="#D6D6D7"/>
<path d="M85.1404 32.1457C85.1404 32.1457 81.003 32.0357 80.5674 33.129C80.1319 34.2207 75.0137 60.206 75.0137 60.206H78.3898L85.1421 32.1457L85.1404 32.1457Z" fill="#D6D6D7"/>
<path d="M85.6323 30.3833C87.647 30.3833 89.2802 28.7458 89.2802 26.7258C89.2802 24.7058 87.647 23.0682 85.6323 23.0682C83.6176 23.0682 81.9844 24.7058 81.9844 26.7258C81.9844 28.7458 83.6176 30.3833 85.6323 30.3833Z" fill="#F2A2A5"/>
<path d="M86.342 21.0422C86.342 21.0422 90.7333 19.9144 92.0775 25.7734C92.0775 25.7734 92.1136 27.3017 92.8765 27.9206C93.6395 28.5395 93.3841 31.7423 93.3841 31.7423C93.3841 31.7423 94.8364 34.144 93.6019 35.2357C93.6019 35.2357 93.0566 37.4552 93.8556 38.7291C94.6547 40.003 97.6673 47.0095 92.6571 47.4363C92.6571 47.4363 90.116 45.8981 91.3145 41.313C92.513 36.728 91.1688 34.1949 91.1688 34.1949C91.1688 34.1949 87.3211 32.7963 87.5389 29.8118C87.7567 26.8273 85.0698 23.8789 84.8897 23.9167C84.7096 23.9545 82.8202 22.8611 81.9852 26.2101L81.0912 26.0574C81.0912 26.0574 80.7146 20.4233 86.342 21.0422Z" fill="#2F2E43"/>
<path d="M97.6074 62.4049C97.8514 63.6066 97.4044 64.7048 96.6119 64.8575C95.8195 65.0102 94.9795 64.1582 94.7372 62.9565C94.6341 62.4771 94.6504 61.9814 94.7847 61.5086L93.8203 56.4015L96.3123 56.0059L96.9983 61.0818C97.3078 61.4692 97.5157 61.9223 97.6074 62.4049Z" fill="#F2A2A5"/>
<path d="M87.834 32.1678C87.834 32.1678 91.4786 31.7049 91.9142 32.7966C92.3497 33.8882 97.4679 59.8735 97.4679 59.8735H94.0918L87.834 32.1678Z" fill="#D6D6D7"/>
<path d="M111.111 99.7404C111.111 99.8766 111.001 99.9866 110.866 99.9866H0.245596C0.1097 99.9866 0 99.8766 0 99.7404C0 99.6041 0.1097 99.4941 0.245596 99.4941H110.866C111.001 99.4941 111.111 99.6041 111.111 99.7404Z" fill="#2F2E43"/>
</svg>
