<svg width="105" height="101" viewBox="0 0 105 101" fill="none" xmlns="http://www.w3.org/2000/svg">
<path d="M81.9553 35.4511C81.9553 35.6741 81.9297 35.9026 81.8757 36.1312L79.6198 45.7456C79.2999 47.1125 77.9323 47.9589 76.5688 47.6357L67.528 44.8261L67.0865 44.6896C66.5722 45.0628 65.854 45.2345 65.1034 45.102C63.7912 44.8694 62.8827 43.8 63.0744 42.7116C63.2661 41.6245 64.4851 40.9309 65.7973 41.1621C66.5479 41.2946 67.1649 41.7016 67.5213 42.2275L67.528 42.2289L67.5509 42.2329L75.42 43.2078L76.0815 35.2145C76.2071 33.6866 77.4814 32.5117 79.0123 32.5117C80.6728 32.5117 81.9553 33.8705 81.9553 35.4511Z" fill="#ED9DA0"/>
<path d="M81.9559 35.4511C81.9559 35.6741 81.9303 35.9026 81.8763 36.1312L80.0254 46.1512C79.7055 47.5181 78.3379 48.3645 76.9744 48.0413L67.9336 45.5238L68.3386 41.6029L75.2235 42.5493L76.0821 35.2145C76.2077 33.6866 77.4821 32.5117 79.0129 32.5117C80.6734 32.5117 81.9559 33.8705 81.9559 35.4511Z" fill="#2F2E43"/>
<path d="M0 99.875H8.17878H15.4485H15.7408H22.1407H65.9687H76.3982H104.248" stroke="#3F3F3F" stroke-width="1.5" stroke-miterlimit="10"/>
<path d="M93.6974 88.249L91.5137 89.8613L93.1236 92.0484L95.3073 90.436L93.6974 88.249Z" fill="#ED9DA0"/>
<path d="M96.3985 92.701L91.7567 96.1283C91.3599 96.4212 90.8942 96.6246 90.41 96.7164L89.251 96.9363C89.0113 96.9818 88.763 96.8841 88.6182 96.6875C88.4485 96.4569 88.4533 96.1385 88.63 95.9132L90.0352 94.1204L91.8851 90.3005L91.8958 90.3103C92.1632 90.5551 92.5693 90.9233 92.5997 90.9413C93.171 91.068 93.6098 90.9968 93.9038 90.7299C94.4167 90.2644 94.3133 89.3512 94.3122 89.3421L94.3113 89.335L94.3174 89.3314C94.4571 89.2491 94.5917 89.2306 94.7175 89.2766C94.9845 89.3742 95.1239 89.7252 95.1438 89.7789C95.4045 89.8155 96.0824 90.594 96.1369 90.657C96.527 90.7278 96.7955 90.8744 96.935 91.0929C97.057 91.2839 97.0807 91.5274 97.0054 91.8168C96.9148 92.1649 96.6992 92.4789 96.3985 92.701Z" fill="#2F2E43"/>
<path d="M74.9708 94.6309H72.2578V97.348H74.9708V94.6309Z" fill="#ED9DA0"/>
<path d="M74.5092 99.8195H68.7423C68.2494 99.8195 67.754 99.7065 67.3098 99.4926L66.2466 98.9808C66.0268 98.875 65.8848 98.6488 65.8848 98.4045C65.8848 98.118 66.0773 97.8646 66.353 97.7882L68.5463 97.1804L72.2986 95.2051L72.3014 95.2193C72.3715 95.5752 72.4803 96.113 72.4941 96.1456C72.8789 96.5871 73.2742 96.7905 73.669 96.7504C74.3576 96.6805 74.8154 95.8841 74.82 95.876L74.8235 95.8699L74.8305 95.8706C74.9918 95.8873 75.111 95.9525 75.185 96.0642C75.3421 96.3014 75.2463 96.6668 75.2305 96.7219C75.4187 96.9063 75.5031 97.9358 75.5096 98.0189C75.7817 98.3077 75.9109 98.5853 75.8938 98.8441C75.8788 99.0703 75.7536 99.2804 75.5215 99.4685C75.2423 99.6949 74.8828 99.8195 74.5092 99.8195Z" fill="#2F2E43"/>
<path d="M86.0419 52.1562H73.0394L70.9668 95.3574H75.5458L78.5044 75.7205L90.3761 91.43L94.7103 87.5026L86.0419 75.7205V52.1562Z" fill="#2F2E43"/>
<path d="M82.6932 23.7664C82.6932 23.7664 86.2755 23.7586 84.9373 20.3015C83.599 16.8444 81.1071 18.3924 81.1071 18.3924C81.1071 18.3924 80.0571 18.9478 80.2735 20.1872" fill="#2F2E43"/>
<path d="M83.0527 25.4243C83.0527 22.7737 80.9073 20.625 78.2607 20.625C75.6142 20.625 73.4688 22.7737 73.4688 25.4243C73.4688 27.5739 74.8799 29.3932 76.825 30.0042L77.7514 36.1358L82.474 32.1943C82.474 32.1943 81.4538 30.8929 80.9066 29.4254C82.1998 28.5659 83.0527 27.0951 83.0527 25.4243Z" fill="#ED9DA0"/>
<path d="M80.5617 29.4786C80.5617 29.4786 81.1981 27.0351 80.1576 25.9116C79.1194 24.7906 78.9853 26.5348 78.9853 26.5348L78.2362 26.3717C78.2362 26.3717 78.3665 24.6755 76.9009 24.3819L77.8454 22.3595C77.8454 22.3595 74.2293 23.0627 74.1296 22.712C73.3454 19.952 80.8269 17.5943 82.8937 21.805C86.1081 28.354 80.5617 29.4786 80.5617 29.4786Z" fill="#2F2E43"/>
<path d="M83.1862 46.2344L85.3098 52.5018L73.2949 52.3666L75.0863 46.64L83.1862 46.2344Z" fill="#ED9DA0"/>
<path d="M82.1016 30.3259L76.7734 32.181L71.7363 58.225L82.1016 59.4924L82.8573 55.5216L83.5779 59.4924H87.1684L83.2974 33.5937C83.1241 32.4345 82.7173 31.3227 82.1016 30.3259Z" fill="#63388B"/>
<path d="M80.6081 60.9288L80.7008 56.648L78.2052 56.5938L78.1125 60.8746C77.6469 61.3075 77.3395 61.9802 77.323 62.7428C77.2941 64.0772 78.1645 65.1783 79.2671 65.2023C80.3698 65.2263 81.2871 64.164 81.316 62.8296C81.3325 62.0669 81.0545 61.3816 80.6081 60.9288Z" fill="#ED9DA0"/>
<path d="M77.1621 39.502V60.2516H81.4963L82.7772 39.6771" fill="#2F2E43"/>
<path d="M85.8901 61.5113C85.8141 61.5113 85.738 61.5086 85.6617 61.5028C84.7509 61.4343 83.9673 60.9452 83.3324 60.0494C80.943 56.6775 76.125 45.5187 76.125 42.3454C76.125 39.313 76.7842 32.3631 76.807 32.2589L81.6731 29.5605C84.0077 30.1095 85.6327 32.2506 85.5372 34.6517C85.304 40.5182 85.9045 53.8913 89.8336 59.4332L89.866 59.4789L89.8272 59.5193C89.746 59.6036 87.885 61.5113 85.8901 61.5113Z" fill="#2F2E43"/>
<path d="M58.1157 100H25.4054C21.1433 100 17.6758 96.5272 17.6758 92.2585V7.74146C17.6758 3.47278 21.1433 0 25.4054 0H58.1157C62.3779 0 65.8454 3.47278 65.8454 7.74146V92.2585C65.8454 96.5272 62.3779 100 58.1157 100Z" fill="#2F2E41"/>
<path d="M58.1491 97.9097H25.3722C22.1741 97.9097 19.5723 95.3039 19.5723 92.101V7.42214C19.5723 4.21924 22.1741 1.6134 25.3722 1.6134H58.1491C61.3471 1.6134 63.949 4.21924 63.949 7.42214V92.101C63.949 95.3039 61.3471 97.9097 58.1491 97.9097Z" fill="white"/>
<path d="M46.8809 7.12238H36.4504C35.2479 7.12238 34.2695 6.14257 34.2695 4.93814C34.2695 3.73371 35.2479 2.75391 36.4504 2.75391H46.8809C48.0835 2.75391 49.0618 3.73371 49.0618 4.93814C49.0618 6.14257 48.0835 7.12238 46.8809 7.12238Z" fill="#2F2E41"/>
<path d="M26.9883 23.6484H38.2364" stroke="#3F3F3F" stroke-width="2" stroke-miterlimit="10"/>
<path d="M26.9883 27.9182H50.6493" stroke="#3F3F3F" stroke-width="2" stroke-miterlimit="10"/>
<path d="M26.9883 25.9963H60.8811" stroke="#3F3F3F" stroke-width="2" stroke-miterlimit="10"/>
<path d="M24.4302 26.6377C25.4897 26.6377 26.3486 25.7775 26.3486 24.7163C26.3486 23.6552 25.4897 22.7949 24.4302 22.7949C23.3706 22.7949 22.5117 23.6552 22.5117 24.7163C22.5117 25.7775 23.3706 26.6377 24.4302 26.6377Z" fill="#63388B"/>
<path d="M26.9883 36.2891H38.2364" stroke="#3F3F3F" stroke-width="2" stroke-miterlimit="10"/>
<path d="M26.9883 40.5586H50.6493" stroke="#3F3F3F" stroke-width="2" stroke-miterlimit="10"/>
<path d="M26.9883 38.6367H60.8811" stroke="#3F3F3F" stroke-width="2" stroke-miterlimit="10"/>
<path d="M24.4302 39.2783C25.4897 39.2783 26.3486 38.4181 26.3486 37.3569C26.3486 36.2958 25.4897 35.4355 24.4302 35.4355C23.3706 35.4355 22.5117 36.2958 22.5117 37.3569C22.5117 38.4181 23.3706 39.2783 24.4302 39.2783Z" fill="#63388B"/>
<path d="M26.9883 48.9299H38.2364" stroke="#3F3F3F" stroke-width="2" stroke-miterlimit="10"/>
<path d="M26.9883 53.1992H50.6493" stroke="#3F3F3F" stroke-width="2" stroke-miterlimit="10"/>
<path d="M26.9883 51.2773H60.8811" stroke="#3F3F3F" stroke-width="2" stroke-miterlimit="10"/>
<path d="M24.4302 51.9189C25.4897 51.9189 26.3486 51.0587 26.3486 49.9976C26.3486 48.9364 25.4897 48.0762 24.4302 48.0762C23.3706 48.0762 22.5117 48.9364 22.5117 49.9976C22.5117 51.0587 23.3706 51.9189 24.4302 51.9189Z" fill="#63388B"/>
</svg>
