<svg width="122" height="100" viewBox="0 0 122 100" fill="none" xmlns="http://www.w3.org/2000/svg">
<path d="M98.6883 10.0482C99.4632 6.87942 98.7264 3.18391 96.2232 1.09961C96.1743 4.64725 94.8754 8.06319 92.5565 10.7431C91.6585 11.7733 90.5526 12.8255 90.5091 14.1931C90.482 15.044 90.8963 15.8614 91.4671 16.4916C92.038 17.1219 92.7582 17.5935 93.4699 18.058L93.5744 18.2429C95.8652 15.9259 97.9135 13.2169 98.6883 10.0482Z" fill="#F0F0F0"/>
<path d="M96.1741 1.14793C97.1342 3.67105 97.2769 6.43333 96.5821 9.04243C96.4425 9.60677 96.215 10.1455 95.9081 10.6388C95.5936 11.1097 95.1591 11.4875 94.6497 11.7331C94.1794 11.9716 93.6707 12.1609 93.2664 12.51C93.0621 12.6917 92.8984 12.9147 92.786 13.1643C92.6737 13.4139 92.6152 13.6845 92.6145 13.9584C92.5949 14.6407 92.8211 15.2894 93.0642 15.916C93.3342 16.6118 93.6256 17.3302 93.5632 18.0919C93.5556 18.1842 93.6989 18.1906 93.7064 18.0984C93.815 16.7731 92.9173 15.6536 92.7749 14.3681C92.7085 13.7683 92.8219 13.1447 93.2642 12.7074C93.651 12.3249 94.1754 12.1292 94.6537 11.8918C95.1541 11.6596 95.5902 11.3081 95.9239 10.8679C96.2549 10.3918 96.5026 9.86276 96.6566 9.30335C97.0233 8.04947 97.1911 6.74557 97.1538 5.43943C97.1195 3.94851 96.8311 2.47446 96.3011 1.08105C96.2683 0.994816 96.1415 1.06227 96.1741 1.14793Z" fill="white"/>
<path d="M85.3984 3.15234C85.4325 3.19912 85.4665 3.24589 85.5001 3.29381C85.9542 3.925 86.3565 4.59213 86.7028 5.28863C86.7304 5.34206 86.7576 5.39661 86.7837 5.45072C87.6003 7.13765 88.0975 8.96195 88.2499 10.8309C88.3099 11.5746 88.3134 12.3219 88.2603 13.0661C88.1869 14.094 88.0258 15.2026 88.2877 16.1664C88.3139 16.2672 88.3463 16.3664 88.3847 16.4632L93.3417 18.3578C93.3551 18.3564 93.3682 18.3562 93.3816 18.3549L93.5761 18.4396C93.5815 18.4014 93.5863 18.3616 93.5917 18.3235C93.595 18.3013 93.5971 18.2788 93.6003 18.2566C93.6021 18.2417 93.6039 18.2268 93.6064 18.2135C93.607 18.2085 93.6075 18.2035 93.6077 18.1997C93.6102 18.1864 93.6111 18.1737 93.6131 18.1615C93.6406 17.9395 93.6665 17.7169 93.6908 17.4938C93.6913 17.4926 93.6913 17.4926 93.6906 17.4911C93.8927 15.7924 93.8931 14.0757 93.6918 12.3769C93.6851 12.3263 93.6789 12.2746 93.6699 12.2231C93.5657 11.4654 93.4 10.7174 93.1742 9.98679C93.0494 9.5871 92.9044 9.19401 92.7399 8.80902C92.3129 7.8151 91.7326 6.89471 91.0204 6.08159C89.6003 4.46085 87.679 3.31355 85.5604 3.1623C85.5062 3.15848 85.4531 3.15503 85.3984 3.15234Z" fill="#F0F0F0"/>
<path d="M85.3875 3.21902C87.669 4.65402 89.4416 6.77336 90.4535 9.27602C90.6809 9.8109 90.8227 10.3784 90.8739 10.9576C90.9055 11.5234 90.7855 12.0874 90.5262 12.5909C90.2939 13.0653 90.0014 13.5236 89.8881 14.0463C89.8341 14.3148 89.8373 14.5917 89.8975 14.8588C89.9576 15.1259 90.0735 15.3773 90.2373 15.5964C90.6314 16.153 91.2015 16.5344 91.7719 16.8879C92.4052 17.2805 93.0692 17.6782 93.4768 18.3241C93.5262 18.4023 93.6444 18.3209 93.5951 18.2428C92.886 17.119 91.497 16.7671 90.6114 15.8267C90.1982 15.3878 89.9144 14.8215 90.0049 14.2053C90.0841 13.6664 90.3853 13.1936 90.6247 12.7153C90.8848 12.2278 91.0219 11.6838 91.024 11.1309C91.0024 10.551 90.8826 9.97899 90.6696 9.43938C90.2095 8.21687 89.5605 7.0745 88.7465 6.05412C87.8239 4.8844 86.7086 3.88155 85.4487 3.08896C85.3707 3.03994 85.31 3.17031 85.3875 3.21902Z" fill="white"/>
<path d="M90.6726 12.3657C89.7709 12.1287 88.9914 11.5596 88.4896 10.7719C88.4399 10.6938 88.3217 10.7752 88.3713 10.8532C88.895 11.6719 89.7074 12.2625 90.6463 12.507C90.7358 12.5303 90.7617 12.3888 90.6726 12.3657Z" fill="white"/>
<path d="M78.8444 74.7303C62.2255 74.7303 48.7051 61.1734 48.7051 44.5097C48.7051 27.846 62.2255 14.2891 78.8444 14.2891C80.6014 14.2888 82.355 14.4412 84.0858 14.7445C84.1074 14.7482 84.128 14.7562 84.1465 14.7679C84.165 14.7797 84.181 14.7949 84.1936 14.8129C84.2062 14.8309 84.2152 14.8511 84.22 14.8726C84.2247 14.894 84.2253 14.9162 84.2215 14.9378C84.2177 14.9594 84.2097 14.9801 84.1979 14.9986C84.1862 15.0172 84.1709 15.0332 84.1529 15.0458C84.135 15.0583 84.1148 15.0673 84.0934 15.072C84.072 15.0767 84.0499 15.0772 84.0283 15.0733C82.3165 14.7735 80.5821 14.6228 78.8444 14.623C62.4092 14.623 49.0381 28.0301 49.0381 44.5097C49.0381 60.9893 62.4092 74.3964 78.8444 74.3964C95.2796 74.3964 108.651 60.9893 108.651 44.5097C108.658 37.0611 105.884 29.8795 100.875 24.3789C100.846 24.3462 100.83 24.303 100.833 24.259C100.835 24.2149 100.854 24.1735 100.887 24.1437C100.919 24.114 100.962 24.0984 101.006 24.1003C101.05 24.1022 101.091 24.1215 101.121 24.1539C106.186 29.716 108.991 36.9778 108.984 44.5097C108.984 61.1734 95.4633 74.7303 78.8444 74.7303Z" fill="#E4E4E4"/>
<path d="M92.135 24.6537C95.4283 24.6537 98.0981 21.9767 98.0981 18.6745C98.0981 15.3723 95.4283 12.6953 92.135 12.6953C88.8416 12.6953 86.1719 15.3723 86.1719 18.6745C86.1719 21.9767 88.8416 24.6537 92.135 24.6537Z" fill="#63388B"/>
<path d="M91.3213 21.7866C91.2183 21.7866 91.1168 21.7626 91.0247 21.7164C90.9326 21.6702 90.8525 21.6031 90.7907 21.5205L89.1639 19.3455C89.1116 19.2757 89.0736 19.1961 89.052 19.1115C89.0304 19.0269 89.0256 18.9389 89.0379 18.8524C89.0502 18.766 89.0794 18.6828 89.1238 18.6076C89.1682 18.5325 89.2269 18.4668 89.2966 18.4144C89.3663 18.362 89.4456 18.3239 89.53 18.3022C89.6143 18.2805 89.7021 18.2757 89.7884 18.2881C89.8746 18.3004 89.9576 18.3297 90.0325 18.3742C90.1075 18.4187 90.1729 18.4776 90.2252 18.5475L91.2895 19.9703L94.0231 15.8589C94.1209 15.7127 94.2726 15.6114 94.4448 15.5772C94.617 15.5429 94.7957 15.5785 94.9418 15.6762C95.0879 15.7738 95.1894 15.9255 95.2241 16.0981C95.2588 16.2707 95.2239 16.45 95.1269 16.5968L91.8733 21.4904C91.8144 21.5789 91.7353 21.652 91.6424 21.7035C91.5496 21.755 91.4458 21.7834 91.3398 21.7864C91.3336 21.7865 91.3275 21.7866 91.3213 21.7866Z" fill="white"/>
<path d="M78.0705 39.8195L68.8749 14.1685L69.1081 14.0845L67.4169 9.36658L67.1837 9.45071L64.3603 1.57508C64.2548 1.28093 64.0926 1.01049 63.883 0.779194C63.6733 0.547899 63.4202 0.36028 63.1382 0.227048C62.8562 0.0938172 62.5508 0.0175826 62.2395 0.0026997C61.9281 -0.0121832 61.6168 0.0345763 61.3235 0.140308L44.6998 6.13188C44.4064 6.2376 44.1367 6.40023 43.9061 6.61047C43.6754 6.82071 43.4883 7.07445 43.3554 7.3572C43.2225 7.63996 43.1465 7.94619 43.1316 8.2584C43.1168 8.57062 43.1634 8.88272 43.2688 9.17687L45.2374 14.6682L44.869 14.8105L46.1256 18.0825L46.4206 17.9686L46.6815 18.6964L46.3676 18.8177L47.6243 22.0897L47.8647 21.9969L56.979 47.4213C57.084 47.7158 57.2459 47.9866 57.4555 48.2182C57.6651 48.4498 57.9182 48.6377 58.2003 48.771C58.4825 48.9043 58.7881 48.9804 59.0997 48.995C59.4112 49.0096 59.7226 48.9624 60.0159 48.8561L76.6395 42.8645C77.2315 42.6504 77.7146 42.2095 77.9829 41.6387C78.2512 41.0678 78.2827 40.4136 78.0705 39.8195Z" fill="#3F3D56"/>
<path d="M59.142 48.0104C58.9079 48.0099 58.6797 47.9371 58.4883 47.8019C58.2969 47.6668 58.1516 47.4758 58.0723 47.255L44.2174 8.60696C44.1154 8.32231 44.1303 8.00868 44.2589 7.73506C44.3875 7.46144 44.6192 7.25024 44.9031 7.1479L48.4401 5.87308L48.4348 5.99716C48.4257 6.21256 48.4696 6.42689 48.5626 6.62127C48.6556 6.81565 48.7948 6.98412 48.968 7.11183C49.1413 7.23953 49.3432 7.32257 49.5559 7.35361C49.7687 7.38465 49.9858 7.36275 50.1881 7.28983L58.0378 4.46065C58.2273 4.3736 58.3936 4.24306 58.5235 4.07957C58.6533 3.91609 58.7429 3.72426 58.7851 3.5196C58.8268 3.31836 58.8205 3.11007 58.7666 2.91174C58.7128 2.71341 58.6129 2.53066 58.4752 2.3784L58.3924 2.28603L62.0459 0.969145C62.3298 0.867249 62.6424 0.882409 62.9152 1.0113C63.188 1.1402 63.3987 1.37231 63.5011 1.65673L76.7199 38.5302C76.9896 39.2856 76.9496 40.1174 76.6085 40.8432C76.2674 41.569 75.6531 42.1295 74.9004 42.4018L59.5275 47.9426C59.4039 47.9873 59.2734 48.0103 59.142 48.0104Z" fill="white"/>
<path d="M57.785 20.5981C60.268 20.5981 62.2809 18.5798 62.2809 16.0901C62.2809 13.6004 60.268 11.582 57.785 11.582C55.302 11.582 53.2891 13.6004 53.2891 16.0901C53.2891 18.5798 55.302 20.5981 57.785 20.5981Z" fill="#63388B"/>
<path d="M68.9287 22.6459L53.3592 28.2576C53.3105 28.2752 53.2589 28.2831 53.2072 28.2807C53.1556 28.2784 53.1049 28.2658 53.0581 28.2437C53.0113 28.2217 52.9693 28.1906 52.9344 28.1522C52.8996 28.1139 52.8727 28.069 52.8552 28.0202C52.8377 27.9714 52.83 27.9196 52.8325 27.8678C52.835 27.816 52.8476 27.7652 52.8697 27.7183C52.8918 27.6715 52.9229 27.6294 52.9613 27.5946C52.9996 27.5598 53.0444 27.5329 53.0931 27.5154L68.6627 21.9038C68.7608 21.8687 68.8687 21.8741 68.9628 21.9187C69.057 21.9633 69.1296 22.0435 69.1649 22.1418C69.2001 22.24 69.195 22.3483 69.1507 22.4428C69.1065 22.5373 69.0266 22.6103 68.9287 22.6459Z" fill="#E6E6E6"/>
<path d="M64.3046 26.2029L59.1833 28.0488C59.1347 28.0664 59.083 28.0743 59.0314 28.0719C58.9797 28.0695 58.929 28.0569 58.8822 28.0348C58.8354 28.0128 58.7934 27.9817 58.7586 27.9433C58.7238 27.905 58.6969 27.8601 58.6794 27.8113C58.6619 27.7625 58.6542 27.7108 58.6567 27.659C58.6592 27.6072 58.6718 27.5564 58.6939 27.5095C58.716 27.4626 58.7471 27.4206 58.7854 27.3858C58.8237 27.3509 58.8685 27.324 58.9172 27.3066L64.0385 25.4607C64.1366 25.4254 64.2448 25.4305 64.3392 25.4751C64.4335 25.5197 64.5063 25.6 64.5416 25.6985C64.5769 25.7969 64.5717 25.9053 64.5273 25.9999C64.4828 26.0945 64.4027 26.1676 64.3046 26.2029Z" fill="#E6E6E6"/>
<path d="M65.5226 29.6014L60.4013 31.4472C60.3527 31.4647 60.3011 31.4725 60.2496 31.47C60.198 31.4676 60.1474 31.4549 60.1007 31.4329C60.0539 31.4108 60.012 31.3797 59.9773 31.3414C59.9425 31.3031 59.9157 31.2583 59.8982 31.2095C59.8807 31.1608 59.873 31.1091 59.8754 31.0574C59.8779 31.0056 59.8905 30.9549 59.9125 30.908C59.9345 30.8612 59.9655 30.8192 60.0037 30.7843C60.042 30.7495 60.0866 30.7225 60.1353 30.705L65.2565 28.8592C65.3547 28.8238 65.4628 28.829 65.5572 28.8736C65.6515 28.9181 65.7244 28.9985 65.7597 29.0969C65.7949 29.1953 65.7898 29.3038 65.7453 29.3984C65.7009 29.493 65.6207 29.566 65.5226 29.6014Z" fill="#E6E6E6"/>
<path d="M66.1446 31.3419L61.0233 33.1877C60.9747 33.2054 60.9231 33.2133 60.8714 33.2109C60.8197 33.2085 60.769 33.196 60.7222 33.1739C60.6754 33.1519 60.6333 33.1208 60.5985 33.0824C60.5637 33.0441 60.5368 32.9992 60.5193 32.9504C60.5018 32.9016 60.4941 32.8498 60.4966 32.798C60.499 32.7462 60.5117 32.6953 60.5338 32.6485C60.5559 32.6016 60.587 32.5595 60.6254 32.5247C60.6637 32.4899 60.7086 32.463 60.7573 32.4456L65.8785 30.5997C65.9272 30.5821 65.9788 30.5742 66.0305 30.5766C66.0821 30.579 66.1328 30.5915 66.1796 30.6136C66.2265 30.6356 66.2685 30.6667 66.3033 30.7051C66.3381 30.7434 66.365 30.7883 66.3825 30.8371C66.4 30.8859 66.4077 30.9377 66.4052 30.9895C66.4027 31.0413 66.3901 31.0921 66.368 31.139C66.3459 31.1859 66.3148 31.2279 66.2765 31.2627C66.2381 31.2976 66.1933 31.3244 66.1446 31.3419Z" fill="#E6E6E6"/>
<path d="M67.7756 26.8438L56.91 30.7601C56.8613 30.7777 56.8097 30.7856 56.758 30.7832C56.7064 30.7808 56.6557 30.7683 56.6089 30.7462C56.5621 30.7242 56.52 30.6931 56.4852 30.6547C56.4504 30.6164 56.4235 30.5715 56.406 30.5227C56.3885 30.4739 56.3808 30.4221 56.3833 30.3703C56.3858 30.3185 56.3984 30.2677 56.4205 30.2208C56.4426 30.1739 56.4737 30.1319 56.5121 30.0971C56.5504 30.0622 56.5952 30.0354 56.6439 30.0179L67.5095 26.1017C67.5581 26.084 67.6098 26.0762 67.6614 26.0785C67.7131 26.0809 67.7638 26.0935 67.8106 26.1155C67.8574 26.1376 67.8994 26.1687 67.9342 26.207C67.969 26.2454 67.996 26.2903 68.0135 26.3391C68.031 26.3879 68.0387 26.4396 68.0362 26.4914C68.0337 26.5432 68.021 26.594 67.9989 26.6409C67.9768 26.6878 67.9457 26.7299 67.9074 26.7647C67.8691 26.7995 67.8243 26.8264 67.7756 26.8438Z" fill="#E6E6E6"/>
<path d="M65.588 35.567L63.7285 36.2372C63.5616 36.2973 63.3778 36.2884 63.2175 36.2125C63.0571 36.1367 62.9334 36.0002 62.8734 35.8329C62.8134 35.6656 62.8222 35.4813 62.8977 35.3205C62.9732 35.1596 63.1093 35.0355 63.2761 34.9752L65.1356 34.305C65.3024 34.245 65.4863 34.2539 65.6466 34.3297C65.8069 34.4055 65.9307 34.5421 65.9907 34.7093C66.0506 34.8766 66.0419 35.0609 65.9664 35.2218C65.8909 35.3826 65.7548 35.5068 65.588 35.567Z" fill="#63388B"/>
<path d="M21.1949 20.3225C24.0932 16.9017 28.7959 14.7458 33.1313 15.8635C29.2265 18.7784 26.4759 22.9842 25.366 27.7369C24.9446 29.5714 24.6663 31.6557 23.1809 32.807C22.2567 33.5234 21.0139 33.7193 19.853 33.5893C18.692 33.4592 17.587 33.0344 16.4969 32.6134L16.207 32.6457C16.9361 28.217 18.2966 23.7433 21.1949 20.3225Z" fill="#F0F0F0"/>
<path d="M33.1196 15.9574C29.5404 16.9184 26.3542 18.9859 24.0136 21.866C23.4987 22.4771 23.0831 23.1657 22.7821 23.9065C22.5122 24.6377 22.4424 25.428 22.5801 26.1953C22.6941 26.9134 22.8937 27.6346 22.8316 28.368C22.7943 28.7429 22.6784 29.1056 22.4914 29.4325C22.3045 29.7593 22.0508 30.0428 21.7469 30.2644C21.004 30.8364 20.1005 31.1066 19.2078 31.34C18.2166 31.5992 17.183 31.8526 16.3863 32.5365C16.2898 32.6194 16.1672 32.4644 16.2636 32.3816C17.6496 31.1918 19.618 31.2927 21.162 30.4154C21.8825 30.0061 22.4843 29.3765 22.6139 28.5295C22.7272 27.7889 22.5221 27.0449 22.4004 26.3189C22.2551 25.5723 22.2944 24.8014 22.5148 24.0735C22.7772 23.3197 23.1656 22.6162 23.6634 21.9931C24.7619 20.5723 26.0763 19.3336 27.5585 18.3222C29.2437 17.1585 31.1151 16.2924 33.0916 15.7615C33.2139 15.7287 33.2411 15.9248 33.1196 15.9574Z" fill="white"/>
<path d="M24.7135 20.8927C24.2849 20.4333 24.0331 19.8362 24.003 19.2078C23.973 18.5795 24.1667 17.9609 24.5495 17.4625C24.6273 17.3619 24.7869 17.4785 24.7089 17.5792C24.3516 18.0426 24.1712 18.6188 24.2004 19.2039C24.2295 19.7889 24.4663 20.3443 24.868 20.7696C24.9551 20.8622 24.8002 20.9847 24.7135 20.8927Z" fill="white"/>
<path d="M22.4742 25.8387C23.7556 25.893 25.0102 25.461 25.988 24.629C26.0848 24.5464 26.2074 24.7014 26.1107 24.7839C25.0916 25.6478 23.785 26.0947 22.4518 26.0353C22.3247 26.0295 22.3478 25.833 22.4742 25.8387Z" fill="white"/>
<path d="M29.2957 17.4141C29.4246 17.6265 29.6041 17.8035 29.8181 17.9291C30.032 18.0548 30.2738 18.1252 30.5216 18.134C30.6487 18.1381 30.6254 18.3346 30.4991 18.3305C30.2254 18.3195 29.9585 18.2414 29.7218 18.1031C29.4851 17.9649 29.2858 17.7706 29.1412 17.5372C29.1258 17.5164 29.1188 17.4904 29.1218 17.4646C29.1247 17.4387 29.1373 17.415 29.1571 17.3982C29.1776 17.382 29.2037 17.3746 29.2297 17.3776C29.2556 17.3806 29.2794 17.3937 29.2957 17.4141Z" fill="white"/>
<path d="M39.5776 29.6169C39.4982 29.6166 39.4188 29.6162 39.3383 29.6173C38.2705 29.6185 37.2045 29.7068 36.1509 29.8812C36.0692 29.8934 35.9866 29.9069 35.9055 29.9214C33.3716 30.3687 30.9425 31.2837 28.7417 32.6201C27.8664 33.1526 27.0329 33.7512 26.2482 34.4106C25.1646 35.3213 24.0619 36.3952 22.7793 36.8795C22.646 36.9315 22.5097 36.9752 22.371 37.0104L16.2682 32.9968C16.2589 32.9807 16.2486 32.966 16.2393 32.9498L15.9883 32.8008C16.0264 32.7639 16.0667 32.7265 16.1048 32.6897C16.1268 32.6682 16.1502 32.6477 16.1722 32.6262C16.1873 32.6122 16.2025 32.5982 16.2153 32.5846C16.2203 32.58 16.2254 32.5753 16.2295 32.572C16.2423 32.5585 16.2557 32.5473 16.2676 32.5352C16.4923 32.3256 16.7189 32.1172 16.9474 31.91C16.9483 31.9086 16.9483 31.9086 16.9505 31.9081C18.6952 30.3339 20.5862 28.8919 22.6355 27.7836C22.6971 27.7503 22.7596 27.7155 22.8241 27.684C23.7505 27.1896 24.7157 26.7719 25.71 26.4351C26.2551 26.2525 26.809 26.0976 27.3697 25.9712C28.819 25.6471 30.3101 25.5537 31.7884 25.6943C34.7352 25.975 37.5597 27.1976 39.4359 29.4438C39.4839 29.5013 39.5306 29.558 39.5776 29.6169Z" fill="#F0F0F0"/>
<path d="M39.5147 29.6865C36.0798 28.2931 32.2944 28.0204 28.6962 28.907C27.9182 29.0841 27.1729 29.383 26.4877 29.7928C25.8332 30.2136 25.3029 30.8025 24.9521 31.4983C24.612 32.1405 24.3382 32.8368 23.8484 33.3849C23.5935 33.6617 23.2831 33.8814 22.9376 34.0295C22.5921 34.1776 22.2192 34.2508 21.8435 34.2443C20.907 34.2525 20.0233 33.9228 19.1704 33.5702C18.2233 33.1788 17.2458 32.7572 16.1991 32.8223C16.0723 32.8302 16.0675 32.6324 16.1941 32.6245C18.0152 32.5112 19.5263 33.7801 21.2859 34.0117C22.1069 34.1198 22.9654 33.9805 23.5775 33.3825C24.1127 32.8595 24.3956 32.1417 24.7344 31.4885C25.0667 30.8047 25.561 30.2129 26.174 29.7648C26.8361 29.3213 27.5687 28.9941 28.3403 28.7971C30.0704 28.3258 31.8637 28.1302 33.6545 28.2175C35.6988 28.3057 37.713 28.744 39.6099 29.5132C39.7273 29.5609 39.6313 29.7339 39.5147 29.6865Z" fill="white"/>
<path d="M29.8371 28.5526C29.7707 27.9271 29.9282 27.2983 30.2816 26.7785C30.6349 26.2586 31.1609 25.8817 31.7659 25.7149C31.8884 25.6815 31.9458 25.8709 31.8231 25.9042C31.2595 26.0585 30.7695 26.4097 30.4415 26.8945C30.1135 27.3792 29.9691 27.9655 30.0344 28.5476C30.0484 28.6742 29.8511 28.6784 29.8371 28.5526Z" fill="white"/>
<path d="M25.0799 31.149C26.0704 31.9658 27.3315 32.3784 28.6119 32.3043C28.7387 32.2969 28.7436 32.4946 28.6169 32.5021C27.2844 32.5767 25.9728 32.1447 24.944 31.2924C24.846 31.211 24.9825 31.0681 25.0799 31.149Z" fill="white"/>
<path d="M35.583 28.5417C35.5584 28.7891 35.5954 29.0388 35.6908 29.2683C35.7862 29.4977 35.937 29.6999 36.1296 29.8565C36.2285 29.9365 36.092 30.0794 35.9936 29.9999C35.7817 29.8258 35.6154 29.6024 35.5095 29.3491C35.4035 29.0958 35.361 28.8203 35.3857 28.5467C35.3859 28.5207 35.396 28.4958 35.4138 28.477C35.4317 28.4581 35.456 28.4468 35.4819 28.4453C35.508 28.4448 35.5333 28.4546 35.5522 28.4727C35.5711 28.4907 35.5822 28.5155 35.583 28.5417Z" fill="white"/>
<path d="M108.177 86.0698C111.337 86.8467 115.022 86.108 117.101 83.598C113.563 83.5489 110.156 82.2466 107.484 79.9214C106.456 79.0209 105.407 77.9121 104.043 77.8684C103.194 77.8413 102.379 78.2567 101.75 78.8291C101.122 79.4015 100.652 80.1237 100.188 80.8372L100.004 80.942C102.315 83.239 105.016 85.2929 108.177 86.0698Z" fill="#F0F0F0"/>
<path d="M117.055 83.549C114.538 84.5116 111.784 84.6547 109.181 83.9581C108.619 83.8181 108.081 83.59 107.589 83.2822C107.12 82.9669 106.743 82.5312 106.498 82.0205C106.26 81.5488 106.071 81.0388 105.723 80.6334C105.542 80.4285 105.32 80.2644 105.071 80.1517C104.822 80.039 104.552 79.9804 104.279 79.9797C103.598 79.9601 102.951 80.1869 102.326 80.4307C101.632 80.7014 100.916 80.9935 100.156 80.931C100.064 80.9234 100.058 81.067 100.15 81.0746C101.472 81.1835 102.588 80.2833 103.87 80.1406C104.468 80.074 105.09 80.1877 105.526 80.6312C105.908 81.019 106.103 81.5448 106.34 82.0244C106.571 82.5262 106.922 82.9635 107.361 83.298C107.836 83.6299 108.363 83.8784 108.921 84.0328C110.172 84.4004 111.472 84.5687 112.775 84.5313C114.262 84.4969 115.732 84.2077 117.121 83.6763C117.207 83.6434 117.14 83.5162 117.055 83.549Z" fill="white"/>
<path d="M110.007 84.2334C109.95 84.687 110.056 85.1463 110.305 85.5292C110.554 85.9121 110.931 86.1937 111.368 86.3237C111.457 86.3497 111.501 86.213 111.412 86.1869C111.005 86.0666 110.654 85.8043 110.423 85.4472C110.191 85.0902 110.095 84.662 110.151 84.2399C110.163 84.1482 110.019 84.1422 110.007 84.2334Z" fill="white"/>
<path d="M106.587 82.275C107.319 81.6958 108.241 81.4143 109.171 81.4868C109.263 81.494 109.269 81.3504 109.177 81.3431C108.21 81.2695 107.25 81.5644 106.49 82.1688C106.418 82.2265 106.515 82.3323 106.587 82.275Z" fill="white"/>
<path d="M114.181 84.3237C114.167 84.1435 114.198 83.9626 114.27 83.7972C114.343 83.6318 114.455 83.4871 114.598 83.3761C114.671 83.3194 114.574 83.2136 114.501 83.2699C114.344 83.3933 114.22 83.5533 114.14 83.7359C114.059 83.9184 114.024 84.118 114.038 84.3171C114.038 84.336 114.045 84.3543 114.058 84.3682C114.07 84.3822 114.088 84.3908 114.107 84.3922C114.126 84.393 114.144 84.3862 114.158 84.3734C114.172 84.3605 114.18 84.3427 114.181 84.3237Z" fill="white"/>
<path d="M115.055 72.7461C115.008 72.7802 114.961 72.8143 114.914 72.848C114.284 73.3034 113.619 73.7067 112.924 74.054C112.871 74.0817 112.816 74.109 112.763 74.1351C111.08 74.9539 109.261 75.4524 107.397 75.6053C106.655 75.6654 105.91 75.6689 105.168 75.6157C104.142 75.5421 103.037 75.3806 102.076 75.6431C101.975 75.6694 101.876 75.7019 101.78 75.7404L99.8902 80.7108C99.8915 80.7243 99.8917 80.7373 99.8931 80.7508L99.8086 80.9458C99.8467 80.9513 99.8863 80.9561 99.9244 80.9615C99.9465 80.9647 99.969 80.9669 99.9911 80.9701C100.006 80.9719 100.021 80.9737 100.034 80.9762C100.039 80.9768 100.044 80.9773 100.048 80.9775C100.061 80.98 100.074 80.9809 100.086 80.983C100.307 81.0104 100.529 81.0364 100.752 81.0609C100.753 81.0613 100.753 81.0613 100.755 81.0606C102.449 81.2632 104.161 81.2636 105.855 81.0618C105.905 81.0551 105.957 81.0489 106.008 81.0399C106.764 80.9354 107.51 80.7692 108.239 80.5429C108.637 80.4177 109.029 80.2723 109.413 80.1073C110.404 79.6792 111.322 79.0974 112.133 78.3832C113.75 76.9593 114.894 75.0328 115.045 72.9085C115.049 72.8542 115.052 72.8009 115.055 72.7461Z" fill="#F0F0F0"/>
<path d="M114.989 72.7313C113.558 75.019 111.444 76.7964 108.948 77.811C108.415 78.039 107.849 78.1812 107.271 78.2325C106.707 78.2642 106.144 78.1439 105.642 77.8839C105.169 77.6509 104.712 77.3577 104.19 77.2441C103.923 77.1899 103.647 77.1931 103.38 77.2535C103.114 77.3138 102.863 77.4299 102.645 77.5942C102.09 77.9894 101.709 78.561 101.357 79.1329C100.965 79.768 100.568 80.4338 99.9243 80.8425C99.8462 80.892 99.9274 81.0105 100.005 80.9611C101.126 80.25 101.477 78.8573 102.415 77.9694C102.853 77.555 103.417 77.2704 104.032 77.3612C104.569 77.4407 105.041 77.7426 105.518 77.9826C106.004 78.2435 106.547 78.3809 107.098 78.383C107.676 78.3614 108.247 78.2413 108.785 78.0277C110.004 77.5664 111.144 76.9157 112.161 76.0994C113.328 75.1743 114.328 74.056 115.118 72.7927C115.167 72.7145 115.037 72.6536 114.989 72.7313Z" fill="white"/>
<path d="M109.772 77.5324C109.998 77.9291 110.358 78.2322 110.787 78.3875C111.216 78.5428 111.686 78.5401 112.113 78.38C112.2 78.3473 112.153 78.2113 112.067 78.244C111.669 78.3938 111.231 78.3963 110.832 78.2509C110.433 78.1055 110.099 77.8218 109.89 77.4511C109.845 77.3706 109.727 77.4523 109.772 77.5324Z" fill="white"/>
<path d="M105.866 78.0363C106.103 77.1322 106.67 76.3506 107.456 75.8473C107.534 75.7976 107.452 75.679 107.375 75.7287C106.558 76.2539 105.969 77.0685 105.725 78.0099C105.702 78.0997 105.843 78.1256 105.866 78.0363Z" fill="white"/>
<path d="M113.16 75.0854C113.041 74.9502 112.956 74.7873 112.915 74.6114C112.874 74.4355 112.877 74.252 112.924 74.0775C112.948 73.9881 112.807 73.9623 112.783 74.0512C112.732 74.2442 112.729 74.4468 112.774 74.6412C112.819 74.8357 112.911 75.0161 113.042 75.1667C113.053 75.1819 113.07 75.1923 113.088 75.1958C113.107 75.1992 113.126 75.1955 113.142 75.1853C113.157 75.1745 113.168 75.1579 113.171 75.1392C113.175 75.1205 113.171 75.1011 113.16 75.0854Z" fill="white"/>
<path d="M120.841 55.6138L116.022 63.745L116.205 63.8419L114.573 66.9441L114.233 66.7637L113.161 68.572L113.427 68.7256L111.679 71.761L111.376 71.5857L95.6518 98.1197C95.2395 98.8141 94.5692 99.3161 93.7881 99.5155C93.007 99.7149 92.1789 99.5954 91.4856 99.1833L62.2538 81.7672C61.5612 81.3538 61.0605 80.6817 60.8616 79.8985C60.6628 79.1153 60.782 78.2849 61.1931 77.5897L86.3819 35.0839C86.7943 34.3895 87.4646 33.8875 88.2456 33.6881C89.0267 33.4887 89.8548 33.6082 90.5481 34.0203L119.78 51.4364C120.472 51.8501 120.973 52.5222 121.172 53.3053C121.37 54.0884 121.251 54.9186 120.841 55.6138Z" fill="#3F3D56"/>
<path d="M92.5271 97.5441L63.1924 80.0669C62.9789 79.9394 62.8247 79.7322 62.7634 79.4908C62.7021 79.2494 62.7388 78.9934 62.8655 78.7791L88.2214 35.9905C88.3486 35.7765 88.5552 35.6218 88.7959 35.5603C89.0367 35.4989 89.2919 35.5357 89.5056 35.6627L118.84 53.14C119.054 53.2675 119.208 53.4746 119.269 53.7161C119.331 53.9575 119.294 54.2134 119.167 54.4277L93.8114 97.2164C93.6842 97.4304 93.4776 97.5851 93.2369 97.6465C92.9961 97.708 92.7409 97.6711 92.5271 97.5441Z" fill="white"/>
<path d="M104.577 43.7237C104.72 43.7237 104.836 43.6076 104.836 43.4644C104.836 43.3212 104.72 43.2051 104.577 43.2051C104.434 43.2051 104.318 43.3212 104.318 43.4644C104.318 43.6076 104.434 43.7237 104.577 43.7237Z" fill="white"/>
<path d="M102.977 74.3745L78.4897 59.7853C78.4129 59.74 78.3458 59.6799 78.2922 59.6084C78.2386 59.537 78.1997 59.4557 78.1775 59.3691C78.1553 59.2825 78.1505 59.1924 78.1631 59.104C78.1758 59.0155 78.2057 58.9304 78.2513 58.8536C78.2968 58.7767 78.357 58.7097 78.4284 58.6562C78.4999 58.6028 78.5811 58.564 78.6676 58.5421C78.754 58.5203 78.8439 58.5157 78.932 58.5287C79.0202 58.5418 79.105 58.5721 79.1814 58.6181L103.669 73.2073C103.745 73.2526 103.813 73.3127 103.866 73.3841C103.92 73.4556 103.959 73.5369 103.981 73.6235C104.003 73.71 104.008 73.8001 103.995 73.8886C103.983 73.9771 103.953 74.0622 103.907 74.139C103.862 74.2158 103.801 74.2829 103.73 74.3363C103.658 74.3898 103.577 74.4286 103.491 74.4504C103.404 74.4723 103.314 74.4769 103.226 74.4638C103.138 74.4508 103.053 74.4204 102.977 74.3745Z" fill="#E6E6E6"/>
<path d="M93.1984 72.1161L85.1438 67.3173C85.0674 67.2718 85.0006 67.2116 84.9474 67.1402C84.8941 67.0688 84.8554 66.9875 84.8334 66.9011C84.8115 66.8147 84.8067 66.7248 84.8194 66.6366C84.8322 66.5483 84.8621 66.4635 84.9075 66.3868C84.9529 66.3101 85.013 66.2432 85.0842 66.1898C85.1554 66.1364 85.2364 66.0976 85.3226 66.0756C85.4088 66.0537 85.4985 66.0489 85.5865 66.0617C85.6745 66.0744 85.7591 66.1044 85.8356 66.15L93.8901 70.9488C93.9665 70.9943 94.0333 71.0545 94.0865 71.1259C94.1397 71.1974 94.1784 71.2786 94.2004 71.365C94.2223 71.4514 94.2271 71.5412 94.2143 71.6295C94.2016 71.7177 94.1717 71.8026 94.1263 71.8792C94.0809 71.9559 94.0209 72.0228 93.9496 72.0762C93.8784 72.1296 93.7974 72.1684 93.7112 72.1904C93.6251 72.2124 93.5354 72.2171 93.4474 72.2044C93.3594 72.1916 93.2748 72.1616 93.1984 72.1161Z" fill="#E6E6E6"/>
<path d="M90.0321 77.4578L81.9776 72.659C81.8233 72.567 81.7117 72.4173 81.6674 72.2428C81.6231 72.0683 81.6498 71.8834 81.7415 71.7286C81.8332 71.5738 81.9825 71.4619 82.1565 71.4175C82.3305 71.3731 82.5149 71.3997 82.6693 71.4917L90.7238 76.2905C90.8003 76.336 90.867 76.3962 90.9203 76.4676C90.9735 76.539 91.0122 76.6202 91.0341 76.7066C91.0561 76.793 91.0608 76.8829 91.0481 76.9712C91.0354 77.0594 91.0055 77.1443 90.96 77.2209C90.9146 77.2976 90.8546 77.3645 90.7834 77.4179C90.7122 77.4712 90.6312 77.51 90.545 77.532C90.4588 77.554 90.3692 77.5588 90.2812 77.546C90.1932 77.5333 90.1085 77.5033 90.0321 77.4578Z" fill="#E6E6E6"/>
<path d="M88.4106 80.1969L80.356 75.3981C80.2794 75.3527 80.2124 75.2925 80.1589 75.2211C80.1055 75.1497 80.0666 75.0684 80.0446 74.9819C80.0225 74.8954 80.0177 74.8054 80.0303 74.717C80.043 74.6286 80.0729 74.5436 80.1184 74.4669C80.1639 74.3901 80.2241 74.3231 80.2954 74.2697C80.3668 74.2163 80.4479 74.1775 80.5342 74.1555C80.6206 74.1336 80.7104 74.129 80.7985 74.1419C80.8866 74.1548 80.9713 74.1851 81.0477 74.2308L89.1022 79.0296C89.1791 79.075 89.2462 79.1351 89.2998 79.2065C89.3534 79.2779 89.3924 79.3593 89.4145 79.4459C89.4367 79.5324 89.4416 79.6225 89.4289 79.711C89.4163 79.7995 89.3863 79.8846 89.3408 79.9614C89.2953 80.0383 89.235 80.1053 89.1636 80.1588C89.0921 80.2122 89.0109 80.251 88.9244 80.2729C88.838 80.2948 88.7481 80.2993 88.6599 80.2863C88.5718 80.2732 88.487 80.2428 88.4106 80.1969Z" fill="#E6E6E6"/>
<path d="M96.1561 77.4406L79.0671 67.2592C78.9136 67.1668 78.8027 67.0172 78.7589 66.8431C78.715 66.669 78.7418 66.4845 78.8333 66.3301C78.9248 66.1758 79.0735 66.064 79.247 66.0194C79.4205 65.9747 79.6045 66.0008 79.7588 66.0919L96.8478 76.2733C96.9246 76.3187 96.9918 76.3788 97.0454 76.4502C97.099 76.5216 97.138 76.603 97.1601 76.6895C97.1823 76.7761 97.1872 76.8662 97.1745 76.9547C97.1619 77.0432 97.1319 77.1283 97.0864 77.2051C97.0408 77.282 96.9806 77.349 96.9092 77.4025C96.8377 77.4559 96.7565 77.4947 96.67 77.5166C96.5836 77.5384 96.4937 77.543 96.4055 77.5299C96.3173 77.5169 96.2326 77.4865 96.1561 77.4406Z" fill="#E6E6E6"/>
<path d="M92.8968 90.4531L89.9722 88.7106C89.7101 88.5541 89.5207 88.2995 89.4456 88.003C89.3705 87.7065 89.4158 87.3922 89.5717 87.1292C89.7276 86.8662 89.9812 86.6759 90.2768 86.6003C90.5725 86.5247 90.886 86.5698 91.1485 86.7258L94.073 88.4682C94.3355 88.6246 94.5253 88.8791 94.6006 89.1758C94.676 89.4725 94.6307 89.7871 94.4747 90.0503C94.3187 90.3135 94.0648 90.5038 93.7689 90.5794C93.473 90.6549 93.1593 90.6095 92.8968 90.4531Z" fill="#63388B"/>
<path d="M98.3539 62.1621C101.665 62.1621 104.348 59.471 104.348 56.1514C104.348 52.8317 101.665 50.1406 98.3539 50.1406C95.0432 50.1406 92.3594 52.8317 92.3594 56.1514C92.3594 59.471 95.0432 62.1621 98.3539 62.1621Z" fill="#63388B"/>
<path d="M0.0703125 80.5772H81.1935V33.4851C81.1931 33.1323 81.0531 32.794 80.8043 32.5445C80.5555 32.295 80.2181 32.1547 79.8662 32.1543H1.39761C1.04571 32.1547 0.708348 32.295 0.459519 32.5445C0.210689 32.794 0.0707188 33.1323 0.0703125 33.4851V80.5772Z" fill="#CACACA"/>
<path d="M78.6885 33.9941H2.57812V77.3199H78.6885V33.9941Z" fill="white"/>
<path d="M1.0913e-10 79.3047V85.1159C-2.62396e-06 85.3568 0.047318 85.5954 0.13926 85.8179C0.231202 86.0405 0.365966 86.2427 0.535855 86.4131C0.705744 86.5834 0.907435 86.7186 1.12941 86.8108C1.35138 86.903 1.58929 86.9504 1.82955 86.9504H31.7715V98.419H31.3737C31.3425 98.419 31.3116 98.4252 31.2828 98.4371C31.2539 98.4491 31.2277 98.4667 31.2057 98.4888C31.1836 98.5109 31.1661 98.5372 31.1541 98.5661C31.1422 98.595 31.136 98.626 31.136 98.6573V99.455C31.136 99.4863 31.1422 99.5173 31.1541 99.5462C31.1661 99.5751 31.1836 99.6014 31.2057 99.6235C31.2277 99.6456 31.2539 99.6632 31.2828 99.6752C31.3116 99.6871 31.3425 99.6933 31.3737 99.6933H49.9613C49.9925 99.6933 50.0234 99.6871 50.0522 99.6752C50.0811 99.6632 50.1073 99.6456 50.1293 99.6235C50.1514 99.6014 50.1689 99.5751 50.1808 99.5462C50.1928 99.5173 50.1989 99.4863 50.1989 99.455V98.6573C50.1989 98.626 50.1928 98.595 50.1808 98.5661C50.1689 98.5372 50.1514 98.5109 50.1293 98.4888C50.1073 98.4667 50.0811 98.4491 50.0522 98.4371C50.0234 98.4252 49.9925 98.419 49.9613 98.419H49.5635V86.9504H79.5054C79.7457 86.9504 79.9836 86.903 80.2056 86.8108C80.4275 86.7186 80.6292 86.5835 80.7991 86.4131C80.969 86.2428 81.1038 86.0405 81.1957 85.8179C81.2877 85.5954 81.335 85.3568 81.335 85.1159V79.3047L1.0913e-10 79.3047Z" fill="#3F3D56"/>
<path d="M67.6731 48.4834H31.6302C31.4029 48.4834 31.185 48.3929 31.0244 48.2318C30.8637 48.0707 30.7734 47.8522 30.7734 47.6244C30.7734 47.3966 30.8637 47.1781 31.0244 47.017C31.185 46.8559 31.4029 46.7654 31.6302 46.7654H67.6731C67.9003 46.7654 68.1182 46.8559 68.2789 47.017C68.4395 47.1781 68.5298 47.3966 68.5298 47.6244C68.5298 47.8522 68.4395 48.0707 68.2789 48.2318C68.1182 48.3929 67.9003 48.4834 67.6731 48.4834Z" fill="#E6E6E6"/>
<path d="M55.5795 52.3627H43.724C43.4967 52.3627 43.2788 52.2722 43.1181 52.1111C42.9575 51.95 42.8672 51.7314 42.8672 51.5036C42.8672 51.2758 42.9575 51.0573 43.1181 50.8961C43.2788 50.735 43.4967 50.6445 43.724 50.6445H55.5795C55.8067 50.6445 56.0246 50.735 56.1853 50.8961C56.346 51.0573 56.4363 51.2758 56.4363 51.5036C56.4363 51.7314 56.346 51.95 56.1853 52.1111C56.0246 52.2722 55.8067 52.3627 55.5795 52.3627Z" fill="#E6E6E6"/>
<path d="M55.5795 60.2279H43.724C43.4967 60.2279 43.2788 60.1374 43.1181 59.9763C42.9575 59.8152 42.8672 59.5967 42.8672 59.3688C42.8672 59.141 42.9575 58.9225 43.1181 58.7614C43.2788 58.6003 43.4967 58.5098 43.724 58.5098H55.5795C55.8067 58.5098 56.0246 58.6003 56.1853 58.7614C56.346 58.9225 56.4363 59.141 56.4363 59.3688C56.4363 59.5967 56.346 59.8152 56.1853 59.9763C56.0246 60.1374 55.8067 60.2279 55.5795 60.2279Z" fill="#E6E6E6"/>
<path d="M55.5794 64.2571H43.7239C43.6114 64.2571 43.5 64.2349 43.3961 64.1917C43.2921 64.1486 43.1977 64.0853 43.1181 64.0055C43.0386 63.9258 42.9755 63.8311 42.9324 63.7268C42.8893 63.6226 42.8672 63.5109 42.8672 63.3981C42.8672 63.2853 42.8893 63.1736 42.9324 63.0694C42.9755 62.9651 43.0386 62.8704 43.1181 62.7907C43.1977 62.7109 43.2921 62.6476 43.3961 62.6045C43.5 62.5613 43.6114 62.5391 43.7239 62.5391H55.5794C55.6919 62.5391 55.8034 62.5613 55.9073 62.6045C56.0112 62.6476 56.1057 62.7109 56.1852 62.7907C56.2648 62.8704 56.3279 62.9651 56.3709 63.0694C56.414 63.1736 56.4362 63.2853 56.4362 63.3981C56.4362 63.5109 56.414 63.6226 56.3709 63.7268C56.3279 63.8311 56.2648 63.9258 56.1852 64.0055C56.1057 64.0853 56.0112 64.1486 55.9073 64.1917C55.8034 64.2349 55.6919 64.2571 55.5794 64.2571Z" fill="#E6E6E6"/>
<path d="M62.2289 56.2395H37.0755C36.8483 56.2395 36.6303 56.149 36.4697 55.9879C36.309 55.8268 36.2188 55.6083 36.2188 55.3805C36.2188 55.1527 36.309 54.9342 36.4697 54.7731C36.6303 54.612 36.8483 54.5215 37.0755 54.5215H62.2289C62.4561 54.5215 62.674 54.612 62.8347 54.7731C62.9954 54.9342 63.0856 55.1527 63.0856 55.3805C63.0856 55.6083 62.9954 55.8268 62.8347 55.9879C62.674 56.149 62.4561 56.2395 62.2289 56.2395Z" fill="#E6E6E6"/>
<path d="M67.074 72.5055H62.7693C62.383 72.5055 62.0124 72.3516 61.7392 72.0777C61.466 71.8037 61.3125 71.4322 61.3125 71.0448C61.3125 70.6573 61.466 70.2858 61.7392 70.0118C62.0124 69.7379 62.383 69.584 62.7693 69.584H67.074C67.4604 69.584 67.831 69.7379 68.1042 70.0118C68.3774 70.2858 68.5309 70.6573 68.5309 71.0448C68.5309 71.4322 68.3774 71.8037 68.1042 72.0777C67.831 72.3516 67.4604 72.5055 67.074 72.5055Z" fill="#63388B"/>
<path d="M20.2979 61.9039C24.4363 61.9039 27.7911 58.54 27.7911 54.3905C27.7911 50.2409 24.4363 46.8771 20.2979 46.8771C16.1595 46.8771 12.8047 50.2409 12.8047 54.3905C12.8047 58.54 16.1595 61.9039 20.2979 61.9039Z" fill="#63388B"/>
<path d="M107.982 99.9992H0.197694C0.14521 99.999 0.0949282 99.978 0.0578698 99.9407C0.0208115 99.9035 0 99.853 0 99.8004C0 99.7477 0.0208115 99.6973 0.0578698 99.66C0.0949282 99.6227 0.14521 99.6017 0.197694 99.6016H107.982C108.035 99.6017 108.085 99.6227 108.122 99.66C108.159 99.6973 108.18 99.7477 108.18 99.8004C108.18 99.853 108.159 99.9035 108.122 99.9407C108.085 99.978 108.035 99.999 107.982 99.9992Z" fill="#CACACA"/>
<path d="M40.5988 33.0742C40.7548 33.0742 40.8812 32.9474 40.8812 32.791C40.8812 32.6346 40.7548 32.5078 40.5988 32.5078C40.4428 32.5078 40.3164 32.6346 40.3164 32.791C40.3164 32.9474 40.4428 33.0742 40.5988 33.0742Z" fill="white"/>
</svg>
