<svg width="50" height="52" viewBox="0 0 50 52" fill="none" xmlns="http://www.w3.org/2000/svg">
<path d="M37.4341 37.6115C37.7645 34.862 37.6656 34.4584 39.7135 34.9041L40.2333 34.9495C41.8082 35.0211 43.8683 34.6962 45.0787 34.1339C47.6843 32.9247 49.2289 30.9067 46.6604 31.4365C40.8002 32.6457 40.3974 30.6613 40.3974 30.6613C46.5854 21.4801 49.1721 9.82504 46.939 6.97198C40.849 -0.809422 30.3076 2.87022 30.1312 2.96533L30.0748 2.97585C28.917 2.73554 27.6212 2.59202 26.1654 2.56845C23.5135 2.52468 21.5014 3.26373 19.9749 4.42111C19.9749 4.42111 1.16928 -3.32663 2.04426 14.1646C2.23028 17.8855 7.37748 42.3197 13.5171 34.9394C15.7612 32.2408 17.9295 29.9589 17.9295 29.9589C19.006 30.6739 20.2956 31.0392 21.6474 30.9079L21.7522 30.8187C21.7194 31.1537 21.7337 31.4816 21.7939 31.8696C20.2127 33.6368 20.6773 33.947 17.5153 34.5977C14.3159 35.2568 16.1955 36.4306 17.4223 36.7374C18.9101 37.1094 22.3515 37.6363 24.6772 34.3814L24.5846 34.7526C25.205 35.2492 25.1633 38.3202 25.2509 40.5142C25.3388 42.7086 25.4857 44.7561 25.9331 45.9636C26.3805 47.1711 26.9082 50.28 31.0639 49.3895C34.5369 48.6471 37.1921 47.5759 37.4341 37.6115Z" fill="black"/>
<path d="M29.7108 51.5611C27.8728 51.5611 26.6759 50.8502 25.9491 50.1638C24.8519 49.1285 24.4167 47.7948 24.1566 46.9981L24.0442 46.6656C23.5207 45.2523 23.3431 43.2174 23.2378 40.5971C23.2218 40.2036 23.2109 39.7983 23.1987 39.3686C23.1899 39.0542 23.1789 38.6598 23.1629 38.2474C22.5008 38.5631 21.7979 38.7852 21.0746 38.9073C19.7787 39.1287 18.3857 39.0571 16.9333 38.6939C15.9084 38.4376 14.8437 37.9065 14.2368 37.0862C12.4679 38.6354 10.7806 38.4254 9.86143 38.1186C8.23983 37.5778 6.78868 36.058 5.42466 33.4735C4.45287 31.6322 3.51308 29.2333 2.63094 26.3428C1.09478 21.3092 0.118788 16.0075 0.0320895 14.2668C-0.240632 8.8187 1.22609 4.92232 4.39059 2.6871C9.38249 -0.838926 16.9459 1.23469 19.7034 2.17616C21.5561 1.0596 23.7357 0.516266 26.1986 0.555406C27.5214 0.576871 28.7811 0.69303 29.9511 0.90178C31.1716 0.517949 33.5823 -0.0329654 36.3419 0.00154567C41.4264 0.0621505 45.6397 2.04359 48.5256 5.73165C50.5853 8.36291 49.5668 13.8885 48.7769 16.9482C47.665 21.2519 45.7168 25.8293 43.3237 29.8141C43.9735 29.8187 44.915 29.7408 46.2534 29.4643C48.8939 28.9193 49.6662 30.3351 49.8758 30.9689C50.7154 33.5118 47.0656 35.4335 45.9272 35.9621C44.4685 36.6393 42.0901 37.0517 40.1424 36.9625L40.0574 36.957L39.5456 36.912L39.4951 37.3387L39.4463 37.7558C39.3154 42.8058 38.594 46.004 37.1096 48.1171C35.5537 50.3326 33.3913 50.9534 31.4864 51.3616C30.8366 51.5005 30.2461 51.5611 29.7108 51.5611ZM25.843 33.1814C27.0294 34.1309 27.1334 35.9175 27.2264 39.2562C27.2382 39.6729 27.2491 40.0672 27.2639 40.4355C27.3085 41.5508 27.4133 44.1623 27.8223 45.2658C27.88 45.4219 27.9318 45.5802 27.9865 45.7481C28.4423 47.1437 28.6708 47.8436 30.6417 47.4223C32.2962 47.0675 33.1467 46.7493 33.8125 45.8015C34.7801 44.4236 35.3214 41.6518 35.4207 37.5631L37.4337 37.6119L35.4346 37.372L35.4935 36.8728C35.685 35.2273 35.823 34.0387 36.9227 33.2525C37.8053 32.6221 38.8108 32.6831 39.6117 32.8275C38.7316 32.1625 38.4884 31.3826 38.4236 31.0628L38.2556 30.2358L38.7274 29.5359C41.445 25.504 43.6857 20.5487 44.8759 15.9402C46.0989 11.205 45.726 8.69034 45.3531 8.21476C40.4168 1.90723 31.8568 4.51155 30.9629 4.807L30.8118 4.88865L30.0542 5.02964L29.6662 4.94925C28.5963 4.72704 27.4078 4.60414 26.1338 4.58352C24.1322 4.54985 22.5173 5.02291 21.1933 6.02752L20.2745 6.72405L19.2085 6.28509C16.9307 5.35371 10.2406 3.48127 6.7104 5.98164C4.75085 7.36966 3.85819 10.0893 4.05684 14.0652C4.12249 15.3779 5.01431 20.3471 6.48566 25.1664C8.51887 31.8266 10.3665 34.0391 11.1379 34.2963C11.2726 34.3418 11.6219 34.0703 11.9696 33.6528C13.4191 31.9152 14.92 30.2212 16.4703 28.5729L17.6361 27.3461L19.0456 28.2825C19.6138 28.66 20.2404 28.8743 20.8839 28.9147L24.2454 26.0477L23.7585 31.0173C23.7475 31.1289 23.742 31.2808 23.7858 31.5628L23.9323 32.5047L23.2968 33.2151L23.2235 33.2976L25.0703 34.1498L25.843 33.1814Z" fill="black"/>
<path d="M46.6606 31.4371C40.8 32.6462 40.3973 30.6619 40.3973 30.6619C46.5853 21.4802 49.1719 9.82475 46.9396 6.97253C40.8497 -0.808452 30.3074 2.87119 30.1315 2.96672L30.0747 2.97682C28.9169 2.73651 27.621 2.59341 26.1644 2.56985C23.5125 2.5265 21.5012 3.26512 19.9747 4.4225C19.9747 4.4225 1.16869 -3.32481 2.04326 14.166C2.22928 17.8873 7.37648 42.3216 13.5161 34.9412C15.7601 32.2426 17.928 29.9607 17.928 29.9607C19.005 30.6757 20.2941 31.0411 21.6455 30.9097L21.7508 30.8205C21.7179 31.1555 21.7331 31.4834 21.7929 31.8714C20.2112 33.6387 20.6759 33.9488 17.5139 34.5995C14.3145 35.2586 16.1941 36.4324 17.4213 36.7392C18.9086 37.1112 22.3505 37.6381 24.6758 34.3832L24.5828 34.7544C25.2027 35.251 25.6379 37.9833 25.5651 40.4601C25.4923 42.9369 25.443 44.6376 25.9317 45.9658C26.4199 47.2941 26.9064 50.2822 31.0629 49.3917C34.5359 48.6476 36.3355 46.7188 36.5863 43.5017C36.7639 41.2143 37.1659 41.5526 37.1915 39.5076L37.5143 38.5396C37.8864 35.4391 37.5732 34.4391 39.7134 34.9042L40.2331 34.9497C41.808 35.0212 43.869 34.6963 45.079 34.134C47.6842 32.9257 49.2292 30.9072 46.6606 31.4371Z" fill="#336791"/>
<path d="M29.9209 50.32C26.4564 50.32 25.3587 47.5763 24.9097 46.4543C24.2523 44.81 24.1104 38.4288 24.2569 33.1957C24.2591 33.1075 24.2787 33.0205 24.3146 32.9399C24.3505 32.8593 24.4021 32.7865 24.4662 32.7259C24.5304 32.6653 24.6059 32.6179 24.6884 32.5866C24.771 32.5553 24.8589 32.5406 24.9471 32.5434C25.0353 32.5458 25.1221 32.5655 25.2026 32.6015C25.2831 32.6375 25.3557 32.689 25.4163 32.7531C25.4769 32.8171 25.5242 32.8925 25.5557 32.9749C25.5871 33.0573 25.602 33.1451 25.5995 33.2332C25.4307 39.2689 25.6702 44.7384 26.1567 45.9556C26.9159 47.8533 28.0674 49.5132 31.3228 48.8158C34.4133 48.1529 35.5706 46.9812 36.0862 43.9927C36.4818 41.6994 37.2642 35.1751 37.3606 33.8876C37.367 33.7997 37.3908 33.7138 37.4305 33.635C37.4701 33.5562 37.525 33.4861 37.5918 33.4285C37.6587 33.371 37.7363 33.3272 37.8201 33.2996C37.9039 33.2721 37.9923 33.2614 38.0803 33.2681C38.2578 33.2816 38.4227 33.3649 38.5389 33.4998C38.655 33.6348 38.7129 33.8103 38.6998 33.9878C38.5992 35.3283 37.8206 41.8399 37.4098 44.2212C36.8013 47.751 35.2276 49.352 31.6044 50.1289C30.9887 50.2606 30.4293 50.3195 29.9209 50.32ZM11.1351 36.9192C10.8323 36.9182 10.5316 36.8685 10.2446 36.7718C7.99419 36.021 5.85071 32.3561 3.87348 25.8777C2.36846 20.9464 1.41478 15.7992 1.33102 14.1263C1.08313 9.16677 2.36004 5.65801 5.12724 3.69803C10.6015 -0.180677 19.8104 3.51285 20.1997 3.67194C20.3647 3.7393 20.4961 3.86942 20.5651 4.03367C20.634 4.19792 20.6349 4.38284 20.5676 4.54776C20.5002 4.71268 20.3701 4.84409 20.2059 4.91307C20.0416 4.98205 19.8567 4.98296 19.6918 4.9156C19.603 4.8794 10.7723 1.3416 5.9008 4.79565C3.53468 6.47323 2.44843 9.59017 2.67191 14.0594C2.74219 15.4688 3.63317 20.4923 5.15755 25.4855C6.92266 31.269 8.93146 34.9184 10.6692 35.4979C10.9419 35.5888 11.7719 35.8653 12.9583 34.4386C14.3418 32.7769 15.7773 31.1591 17.2625 29.5877C17.3868 29.4637 17.5546 29.3933 17.7302 29.3916C17.9057 29.3898 18.0749 29.4568 18.2016 29.5783C18.3284 29.6997 18.4025 29.8659 18.4082 30.0414C18.4139 30.2168 18.3507 30.3875 18.2322 30.5169C18.212 30.538 16.1923 32.6495 13.9911 35.2976C12.9486 36.5513 11.9495 36.9192 11.1351 36.9192ZM40.3555 31.2606C40.2337 31.2604 40.1143 31.2272 40.01 31.1644C39.9057 31.1016 39.8204 31.0117 39.7633 30.9042C39.7061 30.7967 39.6793 30.6757 39.6856 30.5541C39.6919 30.4325 39.7311 30.3149 39.7991 30.2139C46.0544 20.9317 48.2501 9.71601 46.3697 7.31286C44.0027 4.28851 40.6606 2.70899 36.4355 2.61767C33.3072 2.55033 30.8207 3.34913 30.4142 3.48844L30.3119 3.5301C29.9032 3.65847 29.5897 3.43457 29.4714 3.17279C29.404 3.02281 29.3938 2.85333 29.4427 2.69633C29.4916 2.53934 29.5963 2.40566 29.737 2.32053C29.7564 2.30917 29.8178 2.28308 29.9176 2.24646C30.6082 1.99352 33.1326 1.23596 36.2592 1.27173C40.9342 1.3214 44.796 3.12397 47.4265 6.48543C48.671 8.07589 48.6739 11.74 47.4345 16.5387C46.171 21.4313 43.7935 26.6891 40.9123 30.9647C40.7835 31.1571 40.5714 31.2606 40.3555 31.2606ZM40.6753 35.5576C39.6072 35.5576 38.6497 35.407 38.0765 35.0635C37.4873 34.7104 37.3749 34.2307 37.3602 33.976C37.1994 31.152 38.7574 30.6604 39.552 30.4361C39.4414 30.2686 39.2839 30.0716 39.1211 29.8684C38.6577 29.2893 38.023 28.4963 37.534 27.3103C37.4574 27.1252 37.2175 26.6946 36.9397 26.1959C35.4334 23.4948 32.2992 17.8741 34.3127 14.9958C35.2445 13.6637 37.1001 13.1393 39.834 13.4318C39.0297 10.9816 35.1999 3.31673 26.1121 3.16774C23.379 3.12228 21.1374 3.96276 19.4531 5.66348C15.6822 9.4719 15.8185 16.3628 15.8206 16.4318C15.8229 16.5199 15.8079 16.6077 15.7763 16.69C15.7447 16.7723 15.6972 16.8476 15.6365 16.9116C15.5758 16.9756 15.5031 17.027 15.4226 17.0629C15.342 17.0988 15.2552 17.1184 15.167 17.1207C15.0789 17.1231 14.9911 17.108 14.9088 17.0764C14.8265 17.0448 14.7512 16.9973 14.6872 16.9366C14.6232 16.8759 14.5718 16.8032 14.5359 16.7227C14.5 16.6421 14.4804 16.5553 14.4781 16.4671C14.4696 16.1612 14.3291 8.92983 18.499 4.71821C20.4506 2.74729 23.0196 1.77425 26.1344 1.82517C31.9482 1.92071 35.6906 4.87646 37.8059 7.33895C40.1118 10.0228 41.2422 12.9832 41.3353 13.9714C41.4047 14.7062 40.8773 14.8531 40.7709 14.875L40.5285 14.8805C37.8454 14.4508 36.1241 14.7492 35.4124 15.766C33.8809 17.9549 36.8459 23.2717 38.1118 25.5423C38.4351 26.1214 38.6682 26.5402 38.7751 26.7986C39.1909 27.807 39.7334 28.4846 40.169 29.0292C40.5524 29.5081 40.8845 29.9235 41.0032 30.4109C41.0583 30.5077 41.8407 31.6651 46.4833 30.7067C47.647 30.4668 48.3448 30.6718 48.5582 31.317C48.9778 32.5859 46.6234 34.0661 45.32 34.6713C44.1521 35.2142 42.2881 35.5576 40.6753 35.5576ZM38.6989 33.8653C38.8462 34.0139 39.5832 34.2702 41.1092 34.2046C42.4661 34.1465 43.8971 33.8515 44.7556 33.4529C45.8537 32.9428 46.5868 32.3725 46.9664 31.9832L46.756 32.0219C43.7876 32.6347 41.6879 32.5531 40.5154 31.7791C40.4366 31.7271 40.3607 31.6708 40.2881 31.6103C40.161 31.6604 40.0436 31.6933 39.9599 31.7168C39.2949 31.9033 38.6072 32.0964 38.6989 33.8653ZM19.5234 37.6174C18.7861 37.6174 18.01 37.5168 17.2175 37.3186C16.3964 37.1132 15.0121 36.4949 15.0332 35.4794C15.0572 34.3401 16.7141 33.9983 17.3378 33.87C19.5912 33.4058 19.7381 33.2197 20.4422 32.3254C20.6475 32.0649 20.903 31.7404 21.2515 31.3515C21.7687 30.7724 22.334 30.479 22.9316 30.479C23.3478 30.479 23.6892 30.62 23.9147 30.7139C24.6336 31.0119 25.2333 31.7324 25.4799 32.5939C25.7026 33.3712 25.5961 34.1195 25.1811 34.7008C23.8188 36.6086 21.8622 37.6174 19.5234 37.6174ZM16.4839 35.537C16.6863 35.6936 17.0921 35.9028 17.5437 36.0156C18.2301 36.1873 18.8959 36.2744 19.5238 36.2744C21.4371 36.2744 22.9733 35.4823 24.089 33.9201C24.3217 33.5943 24.2519 33.1806 24.1896 32.963C24.0591 32.5072 23.735 32.0927 23.4013 31.9542C23.2203 31.8793 23.0701 31.822 22.932 31.822C22.8579 31.822 22.6324 31.822 22.2527 32.2467C21.9907 32.5413 21.7389 32.8448 21.4977 33.1566C20.6206 34.2702 20.2187 34.6482 17.6093 35.1856C16.9725 35.3161 16.6459 35.4491 16.4839 35.537ZM21.6475 32.4394C21.4872 32.4392 21.3323 32.3816 21.2107 32.2771C21.0891 32.1726 21.009 32.0281 20.9847 31.8696C20.9678 31.7581 20.9566 31.6459 20.951 31.5333C19.2406 31.5013 17.5904 30.7673 16.3375 29.4601C14.7533 27.8074 14.0324 25.5174 14.3598 23.1779C14.7154 20.6371 14.5824 18.3943 14.5109 17.1893C14.4911 16.8543 14.4768 16.6123 14.4776 16.4448C14.4789 16.2323 14.4831 15.6687 16.3669 14.7138C17.0369 14.3742 18.3803 13.7816 19.8479 13.6296C22.2792 13.3784 23.8819 14.4613 24.3617 16.6792C25.6567 22.6673 24.4644 25.3159 23.5936 27.2502C23.4316 27.6104 23.2784 27.9505 23.1559 28.28L23.0477 28.5704C22.5877 29.804 22.19 30.8696 22.3121 31.6655C22.3255 31.7526 22.3216 31.8416 22.3006 31.9272C22.2796 32.0129 22.2419 32.0936 22.1898 32.1647C22.1376 32.2358 22.0719 32.2959 21.9965 32.3416C21.9211 32.3873 21.8374 32.4177 21.7502 32.431L21.6475 32.4394ZM15.8248 16.6308L15.8509 17.1102C15.925 18.3619 16.063 20.6909 15.6893 23.3643C15.4195 25.294 16.0088 27.1773 17.3067 28.5309C18.3324 29.6007 19.6821 30.1912 21.0693 30.1912H21.0979C21.2532 29.5367 21.5112 28.8457 21.7889 28.1011L21.8963 27.8124C22.0347 27.4404 22.1968 27.0801 22.3685 26.6988C23.2064 24.8369 24.2497 22.5192 23.0482 16.9633C22.8104 15.8628 22.2334 15.226 21.2852 15.016C19.3374 14.5859 16.4347 16.0509 15.8248 16.6308ZM19.8778 16.3459C19.8441 16.5833 20.3125 17.2171 20.9236 17.3017C21.5335 17.3871 22.0553 16.8914 22.0886 16.654C22.1218 16.4166 21.6538 16.1548 21.0427 16.0698C20.4316 15.9848 19.9102 16.1086 19.8778 16.3459ZM21.0638 17.5353L20.8925 17.5235C20.5137 17.4709 20.1307 17.2323 19.8685 16.8846C19.7764 16.7626 19.6261 16.526 19.656 16.3148C19.6985 16.005 20.0764 15.8194 20.6661 15.8194C20.7978 15.8194 20.935 15.8291 21.073 15.8485C21.3954 15.8931 21.6947 15.9861 21.9156 16.1094C22.2986 16.3232 22.3268 16.5618 22.3095 16.6851C22.2624 17.0273 21.7182 17.5353 21.0638 17.5353ZM20.1004 16.3855C20.1194 16.5319 20.4821 17.0151 20.9544 17.0803L21.0642 17.0879C21.5002 17.0879 21.826 16.7449 21.8643 16.6325C21.8239 16.5559 21.5436 16.3657 21.012 16.2916C20.8975 16.2754 20.7821 16.2672 20.6665 16.2668C20.3247 16.2668 20.1433 16.3438 20.1004 16.3855ZM38.4523 15.8615C38.4856 16.0989 38.0176 16.7327 37.4069 16.8177C36.7966 16.9027 36.2743 16.4074 36.2407 16.17C36.2087 15.9326 36.6767 15.6704 37.2869 15.5858C37.8972 15.5004 38.4186 15.6246 38.4523 15.8615ZM37.2659 16.9389C36.6784 16.9389 36.1712 16.4819 36.1296 16.1851C36.0812 15.8291 36.6674 15.5585 37.2709 15.4747C37.4039 15.4562 37.5357 15.4469 37.6623 15.4469C38.1834 15.4469 38.5285 15.5997 38.563 15.8463C38.5853 16.0059 38.4628 16.2521 38.252 16.4743C38.1127 16.6203 37.8202 16.8733 37.4216 16.9284L37.2659 16.9389ZM37.6628 15.6708C37.546 15.6708 37.426 15.6794 37.3025 15.6965C36.696 15.7811 36.3341 16.0244 36.3518 16.1548C36.372 16.2984 36.7592 16.7154 37.2663 16.7154L37.3913 16.7066C37.7225 16.6607 37.9713 16.4444 38.0899 16.3198C38.2764 16.1241 38.3505 15.9398 38.3416 15.8771C38.3298 15.7937 38.1059 15.6708 37.6628 15.6708ZM39.3315 29.4934C39.2098 29.4934 39.0904 29.4604 38.9861 29.3979C38.8818 29.3353 38.7964 29.2455 38.7392 29.1382C38.6819 29.0308 38.6549 28.9099 38.6611 28.7884C38.6673 28.6669 38.7064 28.5494 38.7743 28.4484C40.2044 26.3125 39.9426 24.1345 39.6897 22.028C39.5815 21.1308 39.4704 20.2027 39.499 19.3122C39.5285 18.396 39.6451 17.6401 39.7574 16.909C39.8908 16.0429 40.0171 15.2247 39.9649 14.2534C39.9602 14.1653 39.9728 14.0772 40.0021 13.994C40.0314 13.9109 40.0768 13.8343 40.1357 13.7687C40.1946 13.7031 40.2658 13.6497 40.3453 13.6116C40.4249 13.5735 40.5111 13.5515 40.5992 13.5467C40.6872 13.542 40.7753 13.5546 40.8585 13.5839C40.9416 13.6132 41.0182 13.6586 41.0838 13.7175C41.2164 13.8365 41.2962 14.0032 41.3058 14.181C41.3656 15.2912 41.2229 16.2171 41.0848 17.1132C40.9784 17.8046 40.8681 18.5197 40.8416 19.3551C40.8159 20.1438 40.9165 20.9813 41.023 21.8677C41.2923 24.1075 41.5975 26.6462 39.8904 29.1954C39.8288 29.2871 39.7456 29.3622 39.6482 29.4142C39.5507 29.4662 39.442 29.4934 39.3315 29.4934Z" fill="white"/>
</svg>
