<svg width="51" height="50" viewBox="0 0 51 50" fill="none" xmlns="http://www.w3.org/2000/svg">
<path d="M24.9496 0C12.1901 0 12.9868 5.53327 12.9868 5.53327L13.001 11.2659H25.1771V12.987H8.16479C8.16479 12.987 0 12.061 0 24.9352C0 37.8098 7.12643 37.3532 7.12643 37.3532H11.3795V31.3789C11.3795 31.3789 11.1502 24.2525 18.3921 24.2525H30.4687C30.4687 24.2525 37.2537 24.3621 37.2537 17.695V6.67141C37.2537 6.67141 38.2842 0 24.9496 0ZM18.2357 3.85508C18.5234 3.85482 18.8084 3.91131 19.0742 4.0213C19.3401 4.13129 19.5817 4.29262 19.7852 4.49608C19.9886 4.69954 20.15 4.94112 20.2599 5.20699C20.3699 5.47287 20.4264 5.75783 20.4262 6.04556C20.4264 6.33329 20.3699 6.61825 20.2599 6.88413C20.15 7.15 19.9886 7.39158 19.7852 7.59504C19.5817 7.7985 19.3401 7.95984 19.0742 8.06983C18.8084 8.17982 18.5234 8.2363 18.2357 8.23604C17.9479 8.2363 17.663 8.17982 17.3971 8.06983C17.1312 7.95984 16.8897 7.7985 16.6862 7.59504C16.4827 7.39158 16.3214 7.15 16.2114 6.88413C16.1014 6.61825 16.0449 6.33329 16.0452 6.04556C16.0449 5.75783 16.1014 5.47287 16.2114 5.20699C16.3214 4.94112 16.4827 4.69954 16.6862 4.49608C16.8897 4.29262 17.1312 4.13129 17.3971 4.0213C17.663 3.91131 17.9479 3.85482 18.2357 3.85508Z" fill="url(#paint0_linear_2895_1589)"/>
<path d="M25.312 49.9998C38.0715 49.9998 37.2748 44.4665 37.2748 44.4665L37.2606 38.7341H25.0843V37.013H42.0966C42.0966 37.013 50.2614 37.939 50.2614 25.0644C50.2614 12.1899 43.1349 12.6465 43.1349 12.6465H38.8819V18.6207C38.8819 18.6207 39.1112 25.7471 31.8692 25.7471H19.7927C19.7927 25.7471 13.0077 25.6375 13.0077 32.3047V43.3286C13.0077 43.3286 11.9774 49.9998 25.3118 49.9998M32.0257 46.1451C31.738 46.1454 31.453 46.0889 31.1871 45.9789C30.9213 45.8689 30.6797 45.7076 30.4762 45.5041C30.2728 45.3006 30.1114 45.0591 30.0014 44.7932C29.8915 44.5273 29.835 44.2423 29.8352 43.9546C29.8349 43.6669 29.8914 43.3819 30.0014 43.116C30.1114 42.8501 30.2727 42.6085 30.4762 42.405C30.6796 42.2015 30.9212 42.0402 31.1871 41.9302C31.453 41.8202 31.738 41.7637 32.0257 41.7639C32.3134 41.7637 32.5984 41.8202 32.8643 41.9302C33.1301 42.0401 33.3717 42.2015 33.5752 42.4049C33.7786 42.6084 33.94 42.85 34.05 43.1159C34.16 43.3817 34.2164 43.6667 34.2162 43.9544C34.2164 44.2421 34.16 44.5271 34.05 44.793C33.94 45.0589 33.7786 45.3004 33.5752 45.5039C33.3717 45.7074 33.1301 45.8687 32.8643 45.9787C32.5984 46.0887 32.3134 46.1454 32.0257 46.1451Z" fill="url(#paint1_linear_2895_1589)"/>
<defs>
<linearGradient id="paint0_linear_2895_1589" x1="483.01" y1="449.72" x2="2973.81" y2="2915.67" gradientUnits="userSpaceOnUse">
<stop stop-color="#387EB8"/>
<stop offset="1" stop-color="#366994"/>
</linearGradient>
<linearGradient id="paint1_linear_2895_1589" x1="725.93" y1="781.378" x2="3400.76" y2="3309.98" gradientUnits="userSpaceOnUse">
<stop stop-color="#FFE052"/>
<stop offset="1" stop-color="#FFC331"/>
</linearGradient>
</defs>
</svg>
