<svg width="57" height="50" viewBox="0 0 57 50" fill="none" xmlns="http://www.w3.org/2000/svg">
<path d="M46.2058 16.206C45.6077 16.0009 45.0046 15.8108 44.3969 15.6359C44.499 15.2188 44.593 14.8068 44.6764 14.402C46.0458 7.7546 45.1506 2.39935 42.0928 0.636139C39.1611 -1.05419 34.3665 0.708362 29.5243 4.92254C29.047 5.33859 28.5804 5.76665 28.1248 6.20631C27.8198 5.91397 27.5094 5.62729 27.1938 5.34644C22.1189 0.840515 17.0321 -1.05858 13.9777 0.709679C11.0486 2.40527 10.1812 7.43959 11.4141 13.7395C11.5367 14.3634 11.6752 14.9841 11.8294 15.601C11.1094 15.8056 10.4146 16.0234 9.74966 16.2552C3.79972 18.3297 0 21.5806 0 24.9527C0 28.4354 4.07917 31.9287 10.2763 34.0468C10.7787 34.2178 11.2853 34.3763 11.7956 34.5221C11.6299 35.1866 11.4828 35.8555 11.3544 36.5281C10.1791 42.7187 11.0969 47.634 14.0181 49.3188C17.0352 51.0588 22.0991 49.2705 27.0298 44.9602C27.4296 44.6097 27.8207 44.2494 28.2025 43.8795C28.6959 44.3555 29.2025 44.8177 29.7216 45.2656C34.498 49.3755 39.2151 51.035 42.1334 49.3456C45.1477 47.6006 46.1274 42.3202 44.8555 35.8959C44.7553 35.3926 44.643 34.8918 44.5186 34.3939C44.8742 34.2885 45.2232 34.1801 45.5635 34.0673C52.006 31.9328 56.1978 28.4819 56.1978 24.9527C56.1978 21.5683 52.2754 18.2954 46.2058 16.206ZM44.8085 31.7886C44.5009 31.8902 44.1863 31.9886 43.8646 32.0839C43.1533 29.8322 42.1936 27.4381 41.0189 24.9643C42.1398 22.5496 43.0627 20.186 43.754 17.949C44.3289 18.1154 44.8867 18.2908 45.4245 18.4759C50.625 20.2663 53.7971 22.9131 53.7971 24.9527C53.7971 27.1251 50.3713 29.9453 44.8085 31.7886ZM42.5005 36.3621C43.0629 39.2028 43.143 41.7712 42.7705 43.7792C42.4359 45.5834 41.7629 46.7862 40.9305 47.268C39.1596 48.2932 35.3721 46.9607 31.2875 43.4457C30.8046 43.0293 30.3334 42.5996 29.8744 42.1571C31.458 40.4253 33.0406 38.4121 34.5851 36.176C37.302 35.935 39.8686 35.5407 42.1962 35.0026C42.3111 35.4654 42.4125 35.9186 42.5005 36.3621ZM19.1591 47.0909C17.4288 47.7018 16.0506 47.7194 15.2175 47.2391C13.4449 46.2167 12.708 42.2699 13.7131 36.9759C13.8326 36.3504 13.9695 35.7282 14.1234 35.1102C16.4254 35.6195 18.9734 35.9857 21.6965 36.2065C23.2516 38.3945 24.8798 40.4055 26.5208 42.1665C26.172 42.504 25.815 42.8328 25.4501 43.1526C23.2696 45.0585 21.0847 46.4108 19.1591 47.0909ZM11.053 31.7752C8.31267 30.8385 6.04961 29.6213 4.49846 28.2929C3.10449 27.0994 2.40092 25.9142 2.40092 24.9527C2.40092 22.9063 5.45163 20.2962 10.5399 18.5222C11.1575 18.3071 11.8037 18.104 12.4744 17.9135C13.1777 20.2009 14.1002 22.5926 15.2134 25.0111C14.0857 27.4653 13.1501 29.8952 12.4399 32.2097C11.9741 32.0762 11.5117 31.9313 11.053 31.7752ZM13.7702 13.2782C12.7141 7.88083 13.4155 3.80934 15.1807 2.78746C17.0606 1.69907 21.218 3.25087 25.5999 7.1417C25.8856 7.39598 26.1667 7.65542 26.4431 7.9199C24.8102 9.67323 23.197 11.6694 21.6557 13.8444C19.0126 14.0894 16.4826 14.4828 14.1566 15.0098C14.0132 14.436 13.8844 13.8585 13.7702 13.2782ZM38.0115 19.2644C37.462 18.3154 36.8922 17.3783 36.3025 16.4538C38.0955 16.6806 39.8135 16.9816 41.4268 17.3495C40.9425 18.902 40.3388 20.5249 39.6282 22.1889C39.1088 21.2034 38.5698 20.2284 38.0115 19.2644ZM28.1259 9.63591C29.2332 10.8356 30.3422 12.1749 31.433 13.6282C29.2202 13.5236 27.0038 13.5232 24.7909 13.6268C25.8828 12.187 27.0013 10.8494 28.1259 9.63591ZM18.1769 19.2806C17.6255 20.2368 17.0966 21.2058 16.5904 22.1867C15.8915 20.5286 15.2933 18.8982 14.8048 17.3238C16.4082 16.9651 18.1181 16.6718 19.8997 16.4492C19.3034 17.3794 18.729 18.3236 18.1769 19.2806ZM19.9509 33.6267C18.1102 33.4212 16.3746 33.1431 14.7717 32.794C15.2678 31.1915 15.8792 29.5264 16.5933 27.8328C17.1014 28.8144 17.6326 29.784 18.1864 30.7406C18.7558 31.7241 19.3454 32.6873 19.9509 33.6267ZM28.1922 40.4385C27.0542 39.2109 25.9193 37.8527 24.8109 36.392C25.887 36.4342 26.984 36.4557 28.0989 36.4557C29.2444 36.4557 30.3767 36.43 31.4912 36.3804C30.3969 37.8674 29.292 39.2276 28.1922 40.4385ZM39.6509 27.7463C40.4021 29.4586 41.0352 31.1149 41.5379 32.69C39.9086 33.0618 38.1493 33.3613 36.2957 33.5836C36.8897 32.642 37.4649 31.6887 38.0209 30.7241C38.5863 29.7438 39.1297 28.7509 39.6509 27.7463ZM35.9414 29.5247C35.09 31.0034 34.1909 32.4541 33.2454 33.8745C31.5326 33.9959 29.816 34.0562 28.0989 34.0552C26.35 34.0552 24.6489 34.0007 23.0108 33.8945C22.0405 32.4775 21.1243 31.0242 20.2639 29.5378C19.4075 28.0594 18.6079 26.549 17.8663 25.0097C18.606 23.4702 19.4035 21.959 20.2569 20.4795L20.2567 20.4797C21.1097 18.9997 22.0187 17.5526 22.9816 16.1417C24.6528 16.0152 26.3667 15.9494 28.0987 15.9494C29.8386 15.9494 31.5549 16.0159 33.2256 16.1432C34.1789 17.5521 35.0821 18.9941 35.9335 20.4667C36.7896 21.9431 37.5976 23.4469 38.3561 24.9757C37.6054 26.5202 36.7999 28.0375 35.9414 29.5247ZM40.8938 2.71568C42.7755 3.801 43.5074 8.17762 42.3251 13.917C42.2493 14.2835 42.1651 14.656 42.0726 15.0344C39.7409 14.4961 37.2091 14.096 34.5584 13.8472C33.0142 11.6483 31.4141 9.64908 29.8079 7.91837C30.2289 7.51259 30.6599 7.11733 31.1004 6.73294C35.2494 3.12245 39.1271 1.69687 40.8938 2.71568ZM28.0989 19.9344C30.8704 19.9344 33.1172 22.1812 33.1172 24.9527C33.1172 27.7241 30.8704 29.971 28.0989 29.971C25.3274 29.971 23.0806 27.7241 23.0806 24.9527C23.0806 22.1812 25.3274 19.9344 28.0989 19.9344Z" fill="#00D8FF"/>
</svg>
