<svg width="44" height="50" viewBox="0 0 44 50" fill="none" xmlns="http://www.w3.org/2000/svg">
<path d="M38.509 9.73518C38.4744 9.48389 38.2543 9.34481 38.0724 9.3295C36.7309 9.22869 35.3893 9.12869 34.0477 9.02949C34.0477 9.02949 31.3787 6.37973 31.0858 6.08644C30.7926 5.79333 30.2202 5.88248 29.998 5.94789C29.9653 5.95753 29.4148 6.12741 28.5043 6.40917C27.6128 3.84357 26.0393 1.4859 23.2711 1.4859C23.1947 1.4859 23.116 1.48899 23.0373 1.49347C22.2501 0.452327 21.2748 0 20.4325 0C13.9841 0 10.9033 8.06116 9.93742 12.1576C7.43172 12.934 5.65167 13.486 5.42431 13.5574C4.02567 13.9961 3.98144 14.0402 3.79779 15.3581C3.65958 16.3559 0 44.6571 0 44.6571L28.5162 50L43.9673 46.6575C43.9673 46.6575 38.5431 9.98647 38.509 9.73518ZM26.9282 6.89661L24.5153 7.64343C24.5162 7.47337 24.517 7.30607 24.517 7.12311C24.517 5.52861 24.2957 4.24478 23.9406 3.22704C25.367 3.40605 26.3169 5.02895 26.9282 6.89661ZM22.1712 3.54323C22.5678 4.53686 22.8256 5.96286 22.8256 7.88715C22.8256 7.9856 22.8248 8.07561 22.8239 8.16667C21.2547 8.65273 19.5495 9.18044 17.8406 9.70988C18.8001 6.00658 20.5988 4.21793 22.1712 3.54323ZM20.2554 1.72962C20.5337 1.72962 20.8141 1.82411 21.0824 2.00879C19.0158 2.98126 16.8006 5.4305 15.8652 10.3216L11.9261 11.5416C13.0218 7.8109 15.6237 1.72962 20.2554 1.72962Z" fill="#95BF46"/>
<path d="M38.0724 9.32967C36.7309 9.22887 35.3893 9.12887 34.0477 9.02967C34.0477 9.02967 31.3787 6.37991 31.0858 6.08662C30.9761 5.9775 30.8283 5.92156 30.6737 5.89746L28.5176 49.9998L43.9673 46.6576C43.9673 46.6576 38.5431 9.98665 38.509 9.73535C38.4744 9.48406 38.2543 9.34499 38.0724 9.32967Z" fill="#5E8E3E"/>
<path d="M23.2711 17.8668L21.3659 23.5339C21.3659 23.5339 19.6967 22.643 17.6506 22.643C14.6509 22.643 14.5 24.5255 14.5 24.9999C14.5 27.5882 21.247 28.5799 21.247 34.6426C21.247 39.4125 18.2217 42.484 14.1425 42.484C9.24743 42.484 6.74414 39.4375 6.74414 39.4375L8.05482 35.107C8.05482 35.107 10.628 37.3161 12.7993 37.3161C14.218 37.3161 14.7951 36.1991 14.7951 35.3829C14.7951 32.0066 9.25982 31.856 9.25982 26.3081C9.25982 21.6387 12.6113 17.1201 19.3766 17.1201C21.9833 17.1201 23.2711 17.8668 23.2711 17.8668Z" fill="white"/>
</svg>
