<svg width="59" height="50" viewBox="0 0 59 50" fill="none" xmlns="http://www.w3.org/2000/svg">
<path d="M36.314 0.00208422C36.314 0.00208422 49.2726 7.40996 52.6638 19.1783C55.7195 29.8087 53.2725 34.882 53.2725 34.882C54.8358 36.5843 56.0672 38.5637 56.9035 40.7183C57.7432 42.1027 58.2366 43.6693 58.3419 45.2851C58.4471 46.901 58.161 48.5183 57.5079 50C57.5079 50 57.2995 45.6645 50.8379 44.7661C44.9162 43.9324 42.7631 49.6978 31.4532 49.4185C25.1866 49.2999 19.0441 47.6499 13.5616 44.6122C8.07912 41.5745 3.42321 37.2414 0 31.991C5.52568 35.005 12.7647 39.6844 21.7796 38.9653C30.7946 38.2462 32.6768 35.4761 32.6768 35.4761C22.5454 27.4554 13.5762 18.0675 6.02593 7.58087C13.1128 13.5109 30.6674 25.3127 30.2589 25.0125C23.839 18.737 17.9643 11.9272 12.698 4.65649C12.698 4.65649 39.0362 26.3111 41.156 26.1735C42.0273 24.3789 46.5316 15.0888 36.3119 0L36.314 0.00208422Z" fill="url(#paint0_linear_2895_1478)"/>
<defs>
<linearGradient id="paint0_linear_2895_1478" x1="30.0984" y1="20.0121" x2="28.9965" y2="50.0251" gradientUnits="userSpaceOnUse">
<stop stop-color="#F88535"/>
<stop offset="1" stop-color="#FD2221"/>
</linearGradient>
</defs>
</svg>
