<svg width="64" height="38" viewBox="0 0 64 38" fill="none" xmlns="http://www.w3.org/2000/svg">
<path d="M57.8454 31.4842H5.81936C2.58638 31.4842 0 28.8978 0 25.6649V5.76962C0 2.58638 2.58638 0 5.81936 0H57.8951C61.0784 0 63.7145 2.58638 63.7145 5.81936V25.7146C63.6648 28.8978 61.0784 31.4842 57.8454 31.4842Z" fill="#7F54B3"/>
<path d="M6.86401 25.3168C6.86401 25.3168 8.25668 31.1859 11.0918 27.2566C13.9268 23.3273 16.6624 17.1597 16.6624 17.1597C16.6624 17.1597 16.8614 15.6179 17.6572 19C18.453 22.3822 21.8849 26.9581 21.8849 26.9581C21.8849 26.9581 25.0184 30.8874 26.3116 26.7592C25.8142 21.288 27.7043 11.3404 29.6441 6.56552C30.4399 2.33778 26.0132 3.5315 25.6153 4.52626C25.2174 5.52102 22.4818 11.8875 22.2828 18.5524C22.2828 18.5524 19.9451 12.1859 19.7462 9.89797C19.5472 7.56028 17.1101 6.96342 15.7174 9.20164C14.3247 11.4399 10.097 20.0943 10.097 20.0943L7.36139 5.96866C7.36139 5.96866 4.6258 2.33778 3.03418 6.76447C3.03418 6.76447 5.86925 24.1231 6.86401 25.3168ZM43.2723 9.89797C39.0446 2.83516 32.7776 8.20688 32.7776 8.20688C32.7776 8.20688 28.0027 13.7278 30.1414 21.2383C33.5734 28.6492 38.398 25.3665 39.6912 24.7697C41.0341 24.1231 46.7042 17.6571 43.2723 9.89797ZM40.0393 16.1152C40.0393 19.0498 37.6022 21.7854 35.6126 21.1885C34.5184 20.5419 33.8221 18.8011 33.8221 15.8168C34.8168 10.9922 37.0053 10.3456 38.1493 10.4451C40.288 11.5891 40.1885 14.1257 40.0393 16.1152ZM59.1388 9.89797C54.911 2.83516 48.644 8.20688 48.644 8.20688C48.644 8.20688 43.8692 13.7278 46.0079 21.2383C49.4398 28.6492 54.2644 25.3665 55.5576 24.7697C56.8508 24.1231 62.5707 17.6571 59.1388 9.89797ZM55.9058 16.1152C55.9058 19.0498 53.4686 21.7854 51.4791 21.1885C50.3848 20.5419 49.6885 18.8011 49.6885 15.8168C50.6833 10.9922 52.8717 10.3456 54.0157 10.4451C56.1047 11.5891 56.0053 14.1257 55.9058 16.1152Z" fill="white"/>
<path d="M30.4893 31.4839L41.5809 37.9996L39.2432 31.4839L32.8767 29.6934L30.4893 31.4839Z" fill="#7F54B3"/>
</svg>
