<svg width="50" height="50" viewBox="0 0 50 50" fill="none" xmlns="http://www.w3.org/2000/svg">
<path d="M3.55372 24.9995C3.55372 33.4885 8.48708 40.8247 15.6408 44.3012L5.41051 16.2713C4.18413 19.0176 3.5514 21.9918 3.55372 24.9995ZM39.4784 23.9172C39.4784 21.2667 38.5263 19.4311 37.7097 18.0024C36.6226 16.2358 35.6036 14.7398 35.6036 12.9732C35.6036 11.0017 37.0988 9.16653 39.205 9.16653C39.3001 9.16653 39.3902 9.17837 39.4829 9.18367C35.6673 5.688 30.5837 3.55371 25.0003 3.55371C17.5078 3.55371 10.916 7.39789 7.08122 13.2205C7.58439 13.2356 8.05858 13.2462 8.46137 13.2462C10.7046 13.2462 14.177 12.974 14.177 12.974C15.3331 12.9058 15.4694 14.6039 14.3146 14.7406C14.3146 14.7406 13.1527 14.8773 11.8599 14.945L19.6699 38.1754L24.3633 24.0992L21.0219 14.9442C19.867 14.8765 18.7729 14.7398 18.7729 14.7398C17.6172 14.672 17.7527 12.905 18.9084 12.9732C18.9084 12.9732 22.4502 13.2454 24.5575 13.2454C26.8004 13.2454 30.2732 12.9732 30.2732 12.9732C31.4301 12.905 31.566 14.6031 30.4107 14.7398C30.4107 14.7398 29.2464 14.8765 27.9561 14.9442L35.7065 37.9987L37.8456 30.8502C38.7728 27.8838 39.4784 25.7532 39.4784 23.9172Z" fill="#21759B"/>
<path d="M25.3761 26.8754L18.9414 45.5736C20.9087 46.153 22.949 46.4472 24.9999 46.4473C27.4974 46.4473 29.8924 46.0155 32.1218 45.2316C32.0623 45.1378 32.0112 45.0389 31.9692 44.9361L25.3761 26.8754ZM43.8184 14.71C43.9106 15.3931 43.9628 16.1264 43.9628 16.9153C43.9628 19.0916 43.5564 21.5381 42.3321 24.5971L35.7811 43.5376C42.157 39.8195 46.4456 32.9118 46.4456 24.9999C46.446 21.2712 45.4936 17.7649 43.8184 14.71Z" fill="#21759B"/>
<path d="M25.0002 0C11.2154 0 0 11.2146 0 24.9994C0 38.7858 11.2154 50 25.0002 50C38.7846 50 50.0016 38.7858 50.0016 24.9994C50.0012 11.2146 38.7846 0 25.0002 0ZM25.0002 48.8541C11.8476 48.8541 1.14632 38.1528 1.14632 24.9994C1.14632 11.8468 11.8472 1.14632 25.0002 1.14632C38.1524 1.14632 48.8529 11.8468 48.8529 24.9994C48.8529 38.1528 38.1524 48.8541 25.0002 48.8541Z" fill="#21759B"/>
</svg>
