<svg width="49" height="50" viewBox="0 0 49 50" fill="none" xmlns="http://www.w3.org/2000/svg">
<path d="M9.52174 3.6084H34.087C39.3478 3.6084 43.6087 7.86927 43.6087 13.1301V37.6954C43.6087 42.9562 39.3478 47.2171 34.087 47.2171H9.52174C4.26087 47.2171 0 42.9562 0 37.6954V13.1301C0 7.86927 4.26087 3.6084 9.52174 3.6084Z" fill="url(#paint0_linear_2895_1507)"/>
<path d="M33.3482 5.95703H10.2612C5.86991 5.95703 2.30469 9.52225 2.30469 13.9136V37.0005C2.30469 41.3918 5.86991 44.957 10.2612 44.957H33.3482C37.7395 44.957 41.3047 41.3918 41.3047 37.0005V13.8701C41.3047 9.47877 37.7395 5.95703 33.3482 5.95703ZM40.6525 37.0875C40.6525 41.0875 37.4351 44.3049 33.4351 44.3049H10.1743C6.21773 44.3049 2.95686 41.0875 2.95686 37.0875V13.7831C2.95686 9.78312 6.17425 6.56573 10.1743 6.56573H33.4786C37.4351 6.56573 40.696 9.78312 40.696 13.7831V37.0875H40.6525Z" fill="white"/>
<path d="M21.8691 7.52148C12.043 7.52148 4.04297 15.5215 4.04297 25.3476C4.04297 35.1737 12.043 43.1737 21.8691 43.1737C31.7386 43.1737 39.6951 35.1737 39.6951 25.3476C39.6951 15.5215 31.6951 7.52148 21.8691 7.52148ZM21.8691 42.9128C12.1734 42.9128 4.30384 35.0432 4.30384 25.3476C4.30384 15.6519 12.1734 7.78235 21.8691 7.78235C31.5647 7.78235 39.4343 15.6519 39.4343 25.3476C39.4343 35.0432 31.5647 42.9128 21.8691 42.9128Z" fill="#69C5F3"/>
<path d="M21.8697 11.1738C14.0002 11.1738 7.65234 17.5217 7.65234 25.3912C7.65234 33.2608 14.0002 39.5651 21.8697 39.5651C29.7393 39.5651 36.0871 33.2173 36.0871 25.3477C36.0871 17.4782 29.6958 11.1738 21.8697 11.1738ZM21.8697 39.2608C14.1741 39.2608 7.95669 33.0434 7.95669 25.3477C7.95669 17.6521 14.1741 11.4347 21.8697 11.4347C29.5654 11.4347 35.7828 17.6521 35.7828 25.3477C35.7828 33.0434 29.5219 39.2608 21.8697 39.2608Z" fill="#68C5F4"/>
<path d="M8.26126 28.6084H35.3917C36.5221 28.6084 37.3917 29.5214 37.3917 30.6084C37.3917 31.7388 36.4787 32.6084 35.3917 32.6084H8.26126C7.13082 32.6084 6.26126 31.6954 6.26126 30.6084C6.21778 29.5214 7.13082 28.6084 8.26126 28.6084Z" fill="white"/>
<path d="M8.17413 29H35.3915C36.2611 29 37.0002 29.6957 37.0002 30.6087V30.6522C37.0002 31.5217 36.3046 32.2609 35.3915 32.2609H8.17413C7.30456 32.2609 6.56543 31.5652 6.56543 30.6522V30.5652C6.60891 29.6957 7.30456 29 8.17413 29Z" fill="#0A93E9"/>
<path d="M7.52208 32.0865H36.0873L36.3047 31.9561H7.30469L7.52208 32.0865Z" fill="#1694EA"/>
<path d="M6.87016 31.565H36.6962L36.7832 31.4346H6.7832L6.87016 31.565Z" fill="#319DEC"/>
<path d="M6.6084 30.7393H36.9997V30.5654H6.6084V30.7393Z" fill="#65B1EE"/>
<path d="M6.91313 29.6523H36.7392L36.7827 29.7393L36.8262 29.8263H6.82617L6.86965 29.7393L6.91313 29.6523Z" fill="#8EC6F3"/>
<path d="M7.56556 29.1309H36.0873L36.2177 29.1743L36.3482 29.2613H7.30469L7.43512 29.1743L7.56556 29.1309Z" fill="#95CAF3"/>
<path d="M34.609 29H34.3916C34.3916 29 35.1307 29.5217 35.1307 30.6957C35.1307 31.7826 34.3916 32.2609 34.3916 32.2609H34.609C34.609 32.2609 35.3481 31.913 35.3481 30.6957C35.3481 29.3913 34.609 29 34.609 29Z" fill="url(#paint1_linear_2895_1507)"/>
<path d="M32.5221 29H32.3047C32.3047 29 32.9569 29.6087 32.9569 30.6957C32.9569 31.6522 32.3047 32.2609 32.3047 32.2609H32.5221C32.5221 32.2609 33.1743 31.7826 33.1743 30.6957C33.1308 29.5217 32.5221 29 32.5221 29Z" fill="url(#paint2_linear_2895_1507)"/>
<path d="M21.6963 29H21.9137V32.2609H21.6963V29Z" fill="url(#paint3_linear_2895_1507)"/>
<path d="M19.5655 29H19.7829C19.7829 29 19.6959 29.8261 19.6959 30.6957C19.6959 31.4783 19.7829 32.2609 19.7829 32.2609H19.5655C19.5655 32.2609 19.4785 31.4783 19.4785 30.6957C19.4785 29.8261 19.5655 29 19.5655 29Z" fill="url(#paint4_linear_2895_1507)"/>
<path d="M17.4781 29H17.6955C17.6955 29 17.4781 29.8261 17.4781 30.6957C17.4781 31.4783 17.6955 32.2609 17.6955 32.2609H17.4781C17.4781 32.2609 17.2607 31.4783 17.2607 30.6957C17.2607 29.8261 17.4781 29 17.4781 29Z" fill="url(#paint5_linear_2895_1507)"/>
<path d="M15.3483 29H15.5657C15.5657 29 15.2613 29.8261 15.2613 30.6957C15.2613 31.4783 15.5657 32.2609 15.5657 32.2609H15.3483C15.3483 32.2609 15.0439 31.4783 15.0439 30.6957C15.0439 29.8261 15.3483 29 15.3483 29Z" fill="url(#paint6_linear_2895_1507)"/>
<path d="M13.218 29H13.4354C13.4354 29 13.0006 29.6957 13.0006 30.6957C13.0006 31.5652 13.4354 32.2609 13.4354 32.2609H13.218C13.218 32.2609 12.7832 31.5652 12.7832 30.6957C12.7832 29.6957 13.218 29 13.218 29Z" fill="url(#paint7_linear_2895_1507)"/>
<path d="M11.0867 29H11.3041C11.3041 29 10.652 29.6087 10.652 30.6957C10.652 31.6522 11.3041 32.2609 11.3041 32.2609H11.0867C11.0867 32.2609 10.4346 31.7826 10.4346 30.6957C10.478 29.5217 11.0867 29 11.0867 29Z" fill="url(#paint8_linear_2895_1507)"/>
<path d="M8.99987 29H9.21726C9.21726 29 8.47813 29.5217 8.47813 30.6957C8.47813 31.7826 9.21726 32.2609 9.21726 32.2609H8.99987C8.99987 32.2609 8.26074 31.913 8.26074 30.6957C8.26074 29.3913 8.99987 29 8.99987 29Z" fill="url(#paint9_linear_2895_1507)"/>
<path d="M20.9565 12.4342L34.5218 35.9125C35.087 36.869 34.7392 38.0864 33.7826 38.6516C32.8261 39.2168 31.6087 38.869 31.0435 37.9125L17.4783 14.4342C16.9131 13.4777 17.2609 12.2603 18.2174 11.6951C19.1739 11.1299 20.3913 11.4777 20.9565 12.4342Z" fill="white"/>
<path d="M20.6084 12.6082L34.2171 36.1734C34.6518 36.9125 34.391 37.9125 33.6518 38.3473L33.5649 38.3908C32.8257 38.8256 31.8257 38.5647 31.391 37.8256L17.7823 14.2169C17.3475 13.4778 17.6084 12.4778 18.3475 12.043L18.391 11.9995C19.1736 11.5647 20.1736 11.8256 20.6084 12.6082Z" fill="url(#paint10_linear_2895_1507)"/>
<path d="M17.5654 13.5646L31.8263 38.3037L31.9133 38.3472L32.0002 38.3907L32.0872 38.4342L17.5654 13.3037V13.5646Z" fill="url(#paint11_linear_2895_1507)"/>
<path d="M17.6953 12.7388L32.6084 38.5649H32.7823L17.7823 12.6084L17.7388 12.6954L17.6953 12.7388Z" fill="url(#paint12_linear_2895_1507)"/>
<path d="M18.3047 12.087L33.5221 38.3913L33.6525 38.3043L18.4351 12L18.3047 12.087Z" fill="url(#paint13_linear_2895_1507)"/>
<path d="M19.3912 11.8257L34.2608 37.6083L34.2173 37.6953L34.1738 37.7822L19.1738 11.7822H19.2608L19.3912 11.8257Z" fill="url(#paint14_linear_2895_1507)"/>
<path d="M20.174 12.0865L34.4348 36.7821V37.043L19.9131 11.9561L20 11.9995L20.087 12.043L20.174 12.0865Z" fill="url(#paint15_linear_2895_1507)"/>
<path d="M33.7827 35.3916L33.6957 35.2177C33.6957 35.2177 33.6088 36.0873 32.6523 36.6959C31.7392 37.2612 30.9131 36.8699 30.9131 36.8699L31.0001 37.0438C31.0001 37.0438 31.6957 37.522 32.7392 36.8699C33.7827 36.2612 33.7827 35.3916 33.7827 35.3916ZM32.6957 33.5655L32.6088 33.3916C32.6088 33.3916 32.3914 34.2612 31.4783 34.7829C30.6523 35.3046 29.8262 35.0438 29.8262 35.0438L29.9131 35.2177C29.9131 35.2177 30.6523 35.522 31.6088 34.9568C32.5653 34.3916 32.6957 33.5655 32.6957 33.5655Z" fill="#3C98EA"/>
<path d="M31.6518 31.7393L31.5648 31.5654C31.5648 31.5654 31.1735 32.3046 30.3474 32.7828C29.6083 33.2176 28.7822 33.2176 28.7822 33.2176L28.8692 33.3915C28.8692 33.3915 29.6518 33.3915 30.4344 32.9567C31.2605 32.4785 31.6518 31.7393 31.6518 31.7393Z" fill="#4CA4ED"/>
<path d="M30.6084 29.9132L30.5214 29.7393C30.5214 29.7393 29.9562 30.4784 29.2171 30.8697C28.5214 31.261 27.6953 31.3914 27.6953 31.3914L27.7823 31.5653C27.7823 31.5653 28.6084 31.4349 29.304 31.0436C29.9997 30.6523 30.6084 29.9132 30.6084 29.9132Z" fill="#4DA7EE"/>
<path d="M26.3051 22.5215L26.392 22.6954C26.392 22.6954 25.6529 23.0432 24.9138 23.4345C24.2181 23.8258 23.6094 24.3476 23.6094 24.3476L23.5225 24.1737C23.5225 24.1737 24.1746 23.6519 24.8268 23.2606C25.5659 22.8693 26.3051 22.5215 26.3051 22.5215Z" fill="url(#paint16_linear_2895_1507)"/>
<path d="M25.2611 20.6953L25.3481 20.8692C25.3481 20.8692 24.522 21.1301 23.8263 21.5649C23.1307 21.9562 22.5655 22.5649 22.5655 22.5649L22.4785 22.391C22.4785 22.391 23.0437 21.7823 23.7394 21.391C24.435 20.9127 25.2611 20.6953 25.2611 20.6953Z" fill="url(#paint17_linear_2895_1507)"/>
<path d="M23.3042 19.261C23.8694 19.087 24.3042 19.0001 24.3042 19.0001L24.2173 18.8262C24.2173 18.8262 23.826 18.8697 23.3912 19.0436C23.1303 19.1305 23.0868 19.3479 23.3042 19.261Z" fill="#9DD4F7"/>
<path d="M22.0873 15.2177L22.1743 15.3916C22.1743 15.3916 21.3482 15.1742 20.3916 15.6959C19.5656 16.2177 19.3916 17.0438 19.3916 17.0438L19.3047 16.8699C19.3047 16.8699 19.3916 16.1307 20.3047 15.5655C21.2612 14.9568 22.0873 15.2177 22.0873 15.2177Z" fill="url(#paint18_linear_2895_1507)"/>
<path d="M21.0437 13.3479L21.1741 13.5218C21.1741 13.5218 20.3046 13.174 19.3046 13.7392C18.348 14.3479 18.348 15.174 18.348 15.174L18.2176 15C18.2176 15 18.1306 14.2609 19.1741 13.6087C20.2611 12.9566 21.0437 13.3479 21.0437 13.3479Z" fill="url(#paint19_linear_2895_1507)"/>
<path d="M18.1306 28.6091C21.9132 22.0873 26.261 14.5221 26.261 14.5221C26.8262 13.5656 26.4784 12.3482 25.5219 11.783C24.5654 11.2178 23.348 11.5656 22.7828 12.5221C22.7828 12.5221 17.4784 21.7395 13.4784 28.6091H18.1306ZM15.7828 32.6091C13.9567 35.7395 12.6958 38.0004 12.6958 38.0004C12.1306 38.9569 10.9132 39.3047 9.95667 38.7395C9.00015 38.1743 8.65232 36.9569 9.21754 36.0004C9.21754 36.0004 9.95667 34.6525 11.1306 32.6525C12.6088 32.6091 15.3045 32.6091 15.7828 32.6091Z" fill="white"/>
<path d="M17.652 28.6087C21.478 22 25.9128 14.3043 25.9128 14.3043C26.3476 13.5652 26.0867 12.5652 25.3476 12.1304L25.3041 12.087C24.565 11.6522 23.565 11.913 23.1302 12.6522C23.1302 12.6522 17.9128 21.6957 13.9128 28.6087H17.652ZM15.3476 32.6087C13.6085 35.6522 12.3476 37.8261 12.3476 37.8261C11.9128 38.5652 10.9563 38.8261 10.1737 38.3913H10.0867C9.34761 37.9565 9.08674 37 9.52153 36.2174C9.52153 36.2174 10.3476 34.7826 11.6085 32.6087H15.3476Z" fill="url(#paint20_linear_2895_1507)"/>
<path d="M17.5214 28.609L26.1736 13.6525V13.3916C26.1736 13.3916 21.391 21.696 17.391 28.609H17.5214ZM15.1736 32.609L11.8693 38.3481L11.7388 38.4351L11.6084 38.4786C11.6084 38.4786 13.0867 35.9133 14.9997 32.609H15.1736Z" fill="url(#paint21_linear_2895_1507)"/>
<path d="M16.8696 28.6089L26 12.8263L25.9566 12.7393L25.9131 12.6523C25.9131 12.6523 20.9131 21.3045 16.7392 28.5654L16.8696 28.6089ZM14.5653 32.6089L11.087 38.6089H10.9131C10.9131 38.6089 12.3913 36.0437 14.3913 32.5654C14.4783 32.6089 14.5653 32.6089 14.5653 32.6089Z" fill="url(#paint22_linear_2895_1507)"/>
<path d="M15.913 28.6087C20.2174 21.1739 25.3913 12.1739 25.3913 12.1739L25.2608 12.0869L15.6956 28.6087H15.913ZM13.5652 32.6521C11.6521 36 10.2173 38.4782 10.2173 38.4782L10.0869 38.3913C10.0869 38.3913 11.4782 35.9565 13.3913 32.6521C13.4782 32.6087 13.4347 32.6087 13.5652 32.6521Z" fill="url(#paint23_linear_2895_1507)"/>
<path d="M14.8694 28.6083C19.1737 21.1735 24.5215 11.8691 24.5215 11.8691H24.3476C24.3476 11.8691 18.9998 21.13 14.6954 28.6083H14.8694ZM12.3476 32.6083C10.6085 35.6083 9.43457 37.6518 9.43457 37.6518L9.47805 37.7387L9.52153 37.8257C9.52153 37.8257 10.7824 35.6518 12.565 32.6083H12.3476Z" fill="url(#paint24_linear_2895_1507)"/>
<path d="M14.2177 28.6092L23.783 12.0439L23.696 12.0874L23.609 12.1309L23.5656 12.1744C23.5656 12.1744 18.2612 21.3483 14.0873 28.6092H14.2177ZM11.9134 32.6092C10.3916 35.2613 9.30469 37.1309 9.30469 37.1309V36.7831C9.30469 36.7831 10.2612 35.1309 11.7395 32.5657C11.8264 32.6092 11.8264 32.6092 11.9134 32.6092Z" fill="url(#paint25_linear_2895_1507)"/>
<path d="M22.6954 13.3477L22.6084 13.5216C22.6084 13.5216 23.391 13.1303 24.4345 13.6955C25.391 14.2173 25.4345 15.1303 25.4345 15.1303L25.5214 14.9564C25.5214 14.9564 25.6084 14.1303 24.5214 13.5216C23.4345 12.9129 22.6954 13.3477 22.6954 13.3477Z" fill="url(#paint26_linear_2895_1507)"/>
<path d="M21.6524 15.2176L21.5654 15.3915C21.5654 15.3915 22.435 15.1306 23.348 15.6524C24.2176 16.1306 24.3915 16.9567 24.3915 16.9567L24.4785 16.7828C24.4785 16.7828 24.3915 16.0002 23.435 15.4784C22.435 14.9132 21.6524 15.2176 21.6524 15.2176Z" fill="url(#paint27_linear_2895_1507)"/>
<path d="M20.5655 17.0439L20.4785 17.2179C20.4785 17.2179 21.2611 17.1744 22.1307 17.6961C22.9133 18.1309 23.3046 18.8266 23.3046 18.8266L23.3916 18.6526C23.3916 18.6526 23.0003 17.957 22.2176 17.5222C21.3916 17.0439 20.5655 17.0439 20.5655 17.0439Z" fill="url(#paint28_linear_2895_1507)"/>
<path d="M19.5215 18.9131L19.4346 19.087C19.4346 19.087 20.3041 19.2174 21.0433 19.6522C21.7389 20.0435 22.2607 20.6957 22.2607 20.6957L22.3476 20.5218C22.3476 20.5218 21.8259 19.8696 21.1302 19.4783C20.3911 19.0435 19.5215 18.9131 19.5215 18.9131Z" fill="url(#paint29_linear_2895_1507)"/>
<path d="M18.4346 20.7393L18.3477 20.9132C18.3477 20.9132 19.1737 21.1306 19.9129 21.5653C20.6085 21.9566 21.1737 22.5219 21.1737 22.5219L21.2607 22.348C21.2607 22.348 20.6955 21.7827 19.9998 21.3914C19.3042 21.0001 18.4346 20.7393 18.4346 20.7393Z" fill="url(#paint30_linear_2895_1507)"/>
<path d="M17.3912 22.5654L17.2607 22.7393C17.2607 22.7393 18.0434 23.0437 18.7825 23.4785C19.4781 23.8698 20.0868 24.348 20.0868 24.348L20.1738 24.1741C20.1738 24.1741 19.5651 23.6959 18.8694 23.3046C18.1738 22.9133 17.3912 22.5654 17.3912 22.5654Z" fill="url(#paint31_linear_2895_1507)"/>
<path d="M16.2178 24.6085L16.3047 24.4346L19.1308 26.0433L19.0439 26.2172L16.2178 24.6085Z" fill="url(#paint32_linear_2895_1507)"/>
<path d="M15.1738 26.4786L15.2608 26.3047C15.2608 26.3047 15.9564 26.8264 16.6956 27.2177C17.3912 27.609 18.0869 27.9134 18.0869 27.9134L17.9999 28.0438C17.9999 28.0438 17.2608 27.7395 16.5651 27.3482C15.826 26.9569 15.1738 26.4786 15.1738 26.4786Z" fill="url(#paint33_linear_2895_1507)"/>
<path d="M14.4787 28.6091C14.2613 28.4352 14.1309 28.3048 14.1309 28.3048L14.2178 28.1309C14.2178 28.1309 14.4787 28.3483 14.8265 28.6091H14.4787Z" fill="#73B9F1"/>
<path d="M12.7824 32.6084C12.9563 32.7388 13.1302 32.8693 13.3476 32.9997C14.1302 33.4345 14.9128 33.391 14.9128 33.391L14.8258 33.5649C14.8258 33.5649 14.0432 33.6084 13.2606 33.1736C12.9563 32.9997 12.6954 32.7823 12.5215 32.6084H12.7824Z" fill="url(#paint34_linear_2895_1507)"/>
<path d="M10.9131 33.8263L11 33.6523C11 33.6523 11.2174 34.5219 12.174 35.0436C13.0435 35.5219 13.8261 35.261 13.8261 35.261L13.7392 35.435C13.7392 35.435 13.0435 35.7393 12.087 35.2176C11.087 34.6523 10.9131 33.8263 10.9131 33.8263Z" fill="url(#paint35_linear_2895_1507)"/>
<path d="M9.82617 35.6954L9.91313 35.5215C9.91313 35.5215 10.0001 36.4345 11.0436 36.9997C12.0001 37.5215 12.7392 37.1302 12.7392 37.1302L12.6088 37.3041C12.6088 37.3041 11.9566 37.7824 10.9131 37.1737C9.82617 36.565 9.82617 35.6954 9.82617 35.6954Z" fill="url(#paint36_linear_2895_1507)"/>
<path d="M23.9128 47.2614L42.5215 8.17442L37.8259 5.95703L18.4346 46.6092C18.4346 46.6092 19.0433 46.9136 19.8259 47.2614H23.9128Z" fill="url(#paint37_linear_2895_1507)"/>
<path d="M34.9128 3.6084L43.6084 7.73883V20.2171C40.6084 18.7823 20.5215 9.21709 20.5215 9.21709C20.5215 9.21709 21.9128 6.30405 23.2171 3.6084H34.9128Z" fill="url(#paint38_radial_2895_1507)"/>
<path d="M13.3481 45.5219C13.2177 45.7828 13.0003 46.0871 13.0437 46.5654C13.0872 48.348 16.0003 50.0002 17.6959 50.0002C18.8698 50.0002 19.2611 49.5219 19.6959 48.6523C20.1307 47.7828 13.8264 44.4784 13.3481 45.5219Z" fill="url(#paint39_radial_2895_1507)"/>
<path d="M33.3911 8.52148C33.3911 8.52148 37.8694 9.60844 38.2172 9.91279C38.565 10.2171 37.652 11.9563 37.478 12.2171C36.0433 13.9563 31.565 23.565 31.565 23.565L27.4346 21.2171C27.4346 21.2171 31.1302 14.3476 32.4346 11.9128C33.2607 10.2606 33.3911 8.52148 33.3911 8.52148Z" fill="url(#paint40_linear_2895_1507)"/>
<path d="M43.7387 6.26033C44.5213 6.82555 45.5648 6.69511 46.3909 6.56468C46.9561 6.47772 46.0865 7.30381 45.13 9.21685C44.1735 11.1299 44.217 11.2603 44.0865 11.1299C43.9561 10.9995 39.6518 8.56468 39.7822 8.34729C39.9561 8.12989 40.6518 3.39076 40.9996 3.5212C42.2605 3.82555 42.4779 5.34728 43.7387 6.26033Z" fill="url(#paint41_linear_2895_1507)"/>
<path d="M37.0437 11.6086C37.348 11.1304 38.7393 8.17383 40.9567 8.17383C41.9567 8.17383 43.8698 10.6956 44.0437 11.0434C44.1741 11.3477 43.7393 12.5651 43.5219 11.9999C43.2611 11.3477 42.1741 9.95644 41.0002 9.95644C39.8263 9.95644 38.2176 11.3043 37.8263 11.7825C37.435 12.2173 36.7393 12.0869 37.0437 11.6086Z" fill="url(#paint42_linear_2895_1507)"/>
<path d="M36.9562 11.435C37.1735 11.0872 38.1735 9.56544 38.6518 9.08718C39.1301 8.60892 40.3475 7.34805 41.3909 7.17413C42.4344 7.00022 43.5214 9.13065 43.1735 9.56544C42.9127 9.86979 42.4779 9.52196 41.9562 9.08718C41.4344 8.69587 41.0866 7.91326 39.4344 9.17413C38.8692 9.60892 38.304 9.95674 36.9996 11.8263C36.6518 12.3046 36.7388 11.7828 36.9562 11.435Z" fill="url(#paint43_linear_2895_1507)"/>
<path d="M31.5652 24.1301C31.7392 23.7823 31.9565 23.2606 31.4783 22.8693C30.9565 22.478 28.5218 21.1736 28.087 21.0866C27.6522 20.9997 27.3044 21.0866 27.1305 21.391C26.9565 21.6953 13.6087 44.5649 13.3478 45.2171C13.087 45.8693 13.0435 46.3475 13.4348 46.478C13.8261 46.6084 18.3044 48.7388 18.7391 49.2171C19.1739 49.6953 19.3913 49.1736 19.5652 48.9127C20.3913 47.8693 31.3478 24.478 31.5652 24.1301Z" fill="url(#paint44_linear_2895_1507)"/>
<path d="M37.2608 11.3478C37.4782 11.0435 38 10.1739 38.6521 9.39131C39.0869 8.86957 41.4347 7.73913 41.9565 5.91304C42.2608 4.91304 41.7826 3.91304 41.1304 3.47826C38.913 2.13043 35.0869 0 29.4782 0C25.6956 0 24.0869 1.26087 24.0869 1.26087H26L32.6521 3.86957L33.4782 7.34783C33.4782 7.34783 33.5652 8.52174 33.1739 9.86957C32.913 10.9565 32.826 11.6087 32.4347 12.6957C32.7391 12.8261 33.4347 12.3478 34.2174 12.5652C34.913 12.7391 35.3478 13.6957 35.826 13.1304C36.6521 12.0435 36.913 11.8261 37.2608 11.3478Z" fill="url(#paint45_linear_2895_1507)"/>
<path d="M33.3473 8.65211C32.9995 5.43472 32.2169 2.39124 24.043 2.43472C24.5647 1.91298 25.8256 1.39124 25.8256 1.39124L24.043 1.26081C24.043 1.26081 24.3038 1.04342 24.8256 0.999937C29.6082 0.608633 33.8691 1.60863 33.5647 7.82603C33.5212 8.82603 33.4343 9.26081 33.3473 8.65211Z" fill="url(#paint46_linear_2895_1507)"/>
<path d="M24.043 2.43451C24.6082 2.21712 25.3908 2.08668 26.8691 2.17364C28.6951 2.2606 30.9995 2.95625 31.956 3.82581C32.4343 4.2606 32.3908 3.91277 31.8691 3.34755C30.5212 1.78234 28.4778 1.43451 25.8256 1.39103C25.5212 1.34755 24.5212 1.91277 24.043 2.43451Z" fill="url(#paint47_linear_2895_1507)"/>
<path d="M46.478 6.56543L48.8693 7.78282C48.8693 7.78282 47.9562 9.00021 47.2171 10.3915C46.4345 11.8698 45.9127 13.4785 45.9127 13.4785L43.6084 12.0872C43.6084 12.0872 44.1736 10.522 44.9997 9.00021C45.6519 7.73934 46.478 6.56543 46.478 6.56543Z" fill="url(#paint48_linear_2895_1507)"/>
<path d="M48.8699 7.7827C49.0438 7.86966 48.4786 9.21749 47.6525 10.7827C46.8264 12.3479 46.0438 13.5653 45.9134 13.4784C45.7394 13.3914 46.3047 12.0436 47.1307 10.4784C47.9134 8.91314 48.696 7.69575 48.8699 7.7827Z" fill="#BFC0D0"/>
<defs>
<linearGradient id="paint0_linear_2895_1507" x1="21.803" y1="47.2454" x2="21.803" y2="3.60144" gradientUnits="userSpaceOnUse">
<stop stop-color="#1578E4"/>
<stop offset="1" stop-color="#00C3F2"/>
</linearGradient>
<linearGradient id="paint1_linear_2895_1507" x1="34.8859" y1="32.2461" x2="34.8859" y2="28.993" gradientUnits="userSpaceOnUse">
<stop stop-color="#1492E7"/>
<stop offset="1" stop-color="#DBEDFB"/>
</linearGradient>
<linearGradient id="paint2_linear_2895_1507" x1="32.7143" y1="32.2461" x2="32.7143" y2="28.993" gradientUnits="userSpaceOnUse">
<stop stop-color="#1492E7"/>
<stop offset="1" stop-color="#DBEDFB"/>
</linearGradient>
<linearGradient id="paint3_linear_2895_1507" x1="21.8037" y1="32.2461" x2="21.8037" y2="28.993" gradientUnits="userSpaceOnUse">
<stop stop-color="#1492E7"/>
<stop offset="1" stop-color="#DBEDFB"/>
</linearGradient>
<linearGradient id="paint4_linear_2895_1507" x1="19.6316" y1="32.2461" x2="19.6316" y2="28.993" gradientUnits="userSpaceOnUse">
<stop stop-color="#1492E7"/>
<stop offset="1" stop-color="#DBEDFB"/>
</linearGradient>
<linearGradient id="paint5_linear_2895_1507" x1="17.4599" y1="32.2461" x2="17.4599" y2="28.993" gradientUnits="userSpaceOnUse">
<stop stop-color="#1492E7"/>
<stop offset="1" stop-color="#DBEDFB"/>
</linearGradient>
<linearGradient id="paint6_linear_2895_1507" x1="15.2887" y1="32.2461" x2="15.2887" y2="28.993" gradientUnits="userSpaceOnUse">
<stop stop-color="#1492E7"/>
<stop offset="1" stop-color="#DBEDFB"/>
</linearGradient>
<linearGradient id="paint7_linear_2895_1507" x1="13.1171" y1="32.2461" x2="13.1171" y2="28.993" gradientUnits="userSpaceOnUse">
<stop stop-color="#1492E7"/>
<stop offset="1" stop-color="#DBEDFB"/>
</linearGradient>
<linearGradient id="paint8_linear_2895_1507" x1="10.892" y1="32.2461" x2="10.892" y2="28.993" gradientUnits="userSpaceOnUse">
<stop stop-color="#1492E7"/>
<stop offset="1" stop-color="#DBEDFB"/>
</linearGradient>
<linearGradient id="paint9_linear_2895_1507" x1="8.72031" y1="32.2461" x2="8.72031" y2="28.993" gradientUnits="userSpaceOnUse">
<stop stop-color="#1492E7"/>
<stop offset="1" stop-color="#DBEDFB"/>
</linearGradient>
<linearGradient id="paint10_linear_2895_1507" x1="25.991" y1="38.5865" x2="25.991" y2="11.8004" gradientUnits="userSpaceOnUse">
<stop stop-color="#1285E7"/>
<stop offset="1" stop-color="#00B5EF"/>
</linearGradient>
<linearGradient id="paint11_linear_2895_1507" x1="32.028" y1="38.4681" x2="17.5137" y2="13.3281" gradientUnits="userSpaceOnUse">
<stop stop-color="#2B90E7"/>
<stop offset="1" stop-color="#00B6EF"/>
</linearGradient>
<linearGradient id="paint12_linear_2895_1507" x1="32.7271" y1="38.6201" x2="17.7314" y2="12.6471" gradientUnits="userSpaceOnUse">
<stop stop-color="#3795EA"/>
<stop offset="1" stop-color="#49C4F2"/>
</linearGradient>
<linearGradient id="paint13_linear_2895_1507" x1="33.5769" y1="38.363" x2="18.3795" y2="12.0404" gradientUnits="userSpaceOnUse">
<stop stop-color="#3696EA"/>
<stop offset="1" stop-color="#90D9F6"/>
</linearGradient>
<linearGradient id="paint14_linear_2895_1507" x1="34.253" y1="37.7527" x2="19.2456" y2="11.7592" gradientUnits="userSpaceOnUse">
<stop stop-color="#3097EA"/>
<stop offset="1" stop-color="#B5E5F9"/>
</linearGradient>
<linearGradient id="paint15_linear_2895_1507" x1="34.4709" y1="37.0369" x2="19.9744" y2="11.9282" gradientUnits="userSpaceOnUse">
<stop stop-color="#3A98EA"/>
<stop offset="1" stop-color="#BCE7FA"/>
</linearGradient>
<linearGradient id="paint16_linear_2895_1507" x1="23.5577" y1="24.2284" x2="26.3733" y2="22.6028" gradientUnits="userSpaceOnUse">
<stop stop-color="#00A4EC"/>
<stop offset="1" stop-color="#B9DFF6"/>
</linearGradient>
<linearGradient id="paint17_linear_2895_1507" x1="22.4729" y1="22.3501" x2="25.2881" y2="20.7244" gradientUnits="userSpaceOnUse">
<stop stop-color="#00A4EC"/>
<stop offset="1" stop-color="#B9DFF6"/>
</linearGradient>
<linearGradient id="paint18_linear_2895_1507" x1="19.1873" y1="16.6607" x2="21.9847" y2="15.0459" gradientUnits="userSpaceOnUse">
<stop stop-color="#00B4EF"/>
<stop offset="1" stop-color="#C3E9FA"/>
</linearGradient>
<linearGradient id="paint19_linear_2895_1507" x1="18.0976" y1="14.7726" x2="20.9132" y2="13.147" gradientUnits="userSpaceOnUse">
<stop stop-color="#00B4EF"/>
<stop offset="1" stop-color="#C3E9FA"/>
</linearGradient>
<linearGradient id="paint20_linear_2895_1507" x1="17.7241" y1="38.6526" x2="17.7241" y2="11.867" gradientUnits="userSpaceOnUse">
<stop stop-color="#1285E7"/>
<stop offset="1" stop-color="#00B5EF"/>
</linearGradient>
<linearGradient id="paint21_linear_2895_1507" x1="11.6871" y1="38.5355" x2="26.2014" y2="13.3964" gradientUnits="userSpaceOnUse">
<stop stop-color="#3194E9"/>
<stop offset="1" stop-color="#71CFF4"/>
</linearGradient>
<linearGradient id="paint22_linear_2895_1507" x1="10.984" y1="38.688" x2="25.9814" y2="12.7115" gradientUnits="userSpaceOnUse">
<stop stop-color="#5AA6EC"/>
<stop offset="1" stop-color="#A2DEF8"/>
</linearGradient>
<linearGradient id="paint23_linear_2895_1507" x1="10.1382" y1="38.4282" x2="25.3356" y2="12.1056" gradientUnits="userSpaceOnUse">
<stop stop-color="#66ABEE"/>
<stop offset="1" stop-color="#BEE8FA"/>
</linearGradient>
<linearGradient id="paint24_linear_2895_1507" x1="9.46413" y1="37.8178" x2="24.4715" y2="11.8244" gradientUnits="userSpaceOnUse">
<stop stop-color="#7BB6F0"/>
<stop offset="1" stop-color="#B1E3F9"/>
</linearGradient>
<linearGradient id="paint25_linear_2895_1507" x1="9.24208" y1="37.1187" x2="23.746" y2="11.997" gradientUnits="userSpaceOnUse">
<stop stop-color="#5AA6EC"/>
<stop offset="1" stop-color="#AFE3F9"/>
</linearGradient>
<linearGradient id="paint26_linear_2895_1507" x1="22.8527" y1="13.1255" x2="25.6684" y2="14.7512" gradientUnits="userSpaceOnUse">
<stop stop-color="#C1E7FA"/>
<stop offset="1" stop-color="#89D4F5"/>
</linearGradient>
<linearGradient id="paint27_linear_2895_1507" x1="21.7637" y1="15.0132" x2="24.5793" y2="16.6384" gradientUnits="userSpaceOnUse">
<stop stop-color="#C1E7FA"/>
<stop offset="1" stop-color="#89D4F5"/>
</linearGradient>
<linearGradient id="paint28_linear_2895_1507" x1="20.6407" y1="16.9592" x2="23.4559" y2="18.5844" gradientUnits="userSpaceOnUse">
<stop stop-color="#C1E7FA"/>
<stop offset="1" stop-color="#89D4F5"/>
</linearGradient>
<linearGradient id="paint29_linear_2895_1507" x1="19.548" y1="18.85" x2="22.3633" y2="20.4757" gradientUnits="userSpaceOnUse">
<stop stop-color="#B0DFF8"/>
<stop offset="1" stop-color="#52BDF2"/>
</linearGradient>
<linearGradient id="paint30_linear_2895_1507" x1="18.4564" y1="20.741" x2="21.2724" y2="22.3666" gradientUnits="userSpaceOnUse">
<stop stop-color="#B4DEF8"/>
<stop offset="1" stop-color="#4EB5F0"/>
</linearGradient>
<linearGradient id="paint31_linear_2895_1507" x1="17.3651" y1="22.632" x2="20.1803" y2="24.2572" gradientUnits="userSpaceOnUse">
<stop stop-color="#B4DEF8"/>
<stop offset="1" stop-color="#4EB5F0"/>
</linearGradient>
<linearGradient id="paint32_linear_2895_1507" x1="16.2782" y1="24.5154" x2="19.093" y2="26.1407" gradientUnits="userSpaceOnUse">
<stop stop-color="#B5DDF8"/>
<stop offset="1" stop-color="#46AEEE"/>
</linearGradient>
<linearGradient id="paint33_linear_2895_1507" x1="15.189" y1="26.4003" x2="18.0047" y2="28.026" gradientUnits="userSpaceOnUse">
<stop stop-color="#96CEF4"/>
<stop offset="1" stop-color="#46AAEE"/>
</linearGradient>
<linearGradient id="paint34_linear_2895_1507" x1="12.5732" y1="32.4497" x2="14.7306" y2="33.6954" gradientUnits="userSpaceOnUse">
<stop stop-color="#8FC1F2"/>
<stop offset="1" stop-color="#3193EA"/>
</linearGradient>
<linearGradient id="paint35_linear_2895_1507" x1="10.7974" y1="34.0076" x2="13.6131" y2="35.6332" gradientUnits="userSpaceOnUse">
<stop stop-color="#8FC1F2"/>
<stop offset="1" stop-color="#3193EA"/>
</linearGradient>
<linearGradient id="paint36_linear_2895_1507" x1="9.70617" y1="35.8967" x2="12.5214" y2="37.5224" gradientUnits="userSpaceOnUse">
<stop stop-color="#8FC1F2"/>
<stop offset="1" stop-color="#3193EA"/>
</linearGradient>
<linearGradient id="paint37_linear_2895_1507" x1="27.3572" y1="25.8409" x2="32.7733" y2="28.4823" gradientUnits="userSpaceOnUse">
<stop offset="0.001"/>
<stop offset="1" stop-opacity="0"/>
</linearGradient>
<radialGradient id="paint38_radial_2895_1507" cx="0" cy="0" r="1" gradientUnits="userSpaceOnUse" gradientTransform="translate(35.4084 8.53451) rotate(116.706) scale(7.03503 12.1732)">
<stop/>
<stop offset="1" stop-opacity="0"/>
</radialGradient>
<radialGradient id="paint39_radial_2895_1507" cx="0" cy="0" r="1" gradientUnits="userSpaceOnUse" gradientTransform="translate(16.2642 47.5904) rotate(26.1166) scale(3.43522 1.95543)">
<stop offset="0.417" stop-color="#0C0C12"/>
<stop offset="1" stop-color="#3D4651"/>
</radialGradient>
<linearGradient id="paint40_linear_2895_1507" x1="30.8511" y1="14.6406" x2="35.0963" y2="16.8037" gradientUnits="userSpaceOnUse">
<stop stop-color="#344351"/>
<stop offset="0.1" stop-color="#9697A0"/>
<stop offset="0.181" stop-color="#8B8C95"/>
<stop offset="0.351" stop-color="#787A83"/>
<stop offset="0.47" stop-color="#71747D"/>
<stop offset="0.591" stop-color="#777982"/>
<stop offset="0.749" stop-color="#87898F"/>
<stop offset="0.8" stop-color="#8E8F94"/>
<stop offset="0.849" stop-color="#3D3B42"/>
<stop offset="0.9" stop-color="#606E84"/>
</linearGradient>
<linearGradient id="paint41_linear_2895_1507" x1="45.2535" y1="10.3286" x2="40.4618" y2="3.85337" gradientUnits="userSpaceOnUse">
<stop offset="0.27" stop-color="#262B33"/>
<stop offset="0.45" stop-color="#74747E"/>
<stop offset="0.54" stop-color="#B0B0BC"/>
<stop offset="0.73" stop-color="#74747E"/>
</linearGradient>
<linearGradient id="paint42_linear_2895_1507" x1="36.8445" y1="10.8364" x2="43.9198" y2="9.92252" gradientUnits="userSpaceOnUse">
<stop offset="0.14" stop-color="#606E84"/>
<stop offset="0.4" stop-color="#9899A5"/>
<stop offset="0.73" stop-color="#475768"/>
<stop offset="0.92" stop-color="#262B33"/>
</linearGradient>
<linearGradient id="paint43_linear_2895_1507" x1="40.1422" y1="11.4385" x2="39.4557" y2="7.54544" gradientUnits="userSpaceOnUse">
<stop stop-color="#101215" stop-opacity="0.1"/>
<stop offset="0.46" stop-color="#101215" stop-opacity="0.7"/>
<stop offset="0.7" stop-color="#474951"/>
<stop offset="0.91" stop-color="#7B7D88"/>
</linearGradient>
<linearGradient id="paint44_linear_2895_1507" x1="19.2744" y1="33.1393" x2="25.8422" y2="36.371" gradientUnits="userSpaceOnUse">
<stop offset="0.115" stop-color="#2C3952"/>
<stop offset="0.374" stop-color="#3D414E"/>
<stop offset="0.55" stop-color="#474A54"/>
<stop offset="0.754" stop-color="#4E5057"/>
<stop offset="0.892" stop-color="#323945"/>
<stop offset="1" stop-color="#143052"/>
</linearGradient>
<linearGradient id="paint45_linear_2895_1507" x1="29.4382" y1="11.3822" x2="34.5174" y2="0.237826" gradientUnits="userSpaceOnUse">
<stop offset="0.118" stop-color="#6D7078" stop-opacity="0"/>
<stop offset="0.2" stop-color="#6D7078" stop-opacity="0.7"/>
<stop offset="0.34" stop-color="#35363A"/>
<stop offset="0.374" stop-color="#1D1F22"/>
<stop offset="0.4" stop-color="#101215"/>
<stop offset="0.5" stop-color="#16171A"/>
<stop offset="0.56" stop-color="#292A2E"/>
<stop offset="0.688" stop-color="#4B4D51"/>
<stop offset="0.807" stop-color="#63666B"/>
<stop offset="0.915" stop-color="#72757B"/>
<stop offset="1" stop-color="#777A80"/>
</linearGradient>
<linearGradient id="paint46_linear_2895_1507" x1="24.0273" y1="4.92907" x2="33.576" y2="4.92907" gradientUnits="userSpaceOnUse">
<stop stop-color="#4A4D56"/>
<stop offset="1" stop-color="#29292D"/>
</linearGradient>
<linearGradient id="paint47_linear_2895_1507" x1="24.0273" y1="2.69408" x2="32.2838" y2="2.69408" gradientUnits="userSpaceOnUse">
<stop stop-color="#767880"/>
<stop offset="0.41" stop-color="#0C0A0B"/>
</linearGradient>
<linearGradient id="paint48_linear_2895_1507" x1="44.5788" y1="12.7202" x2="47.7854" y2="7.1663" gradientUnits="userSpaceOnUse">
<stop stop-color="#858997"/>
<stop offset="0.23" stop-color="#244668"/>
<stop offset="0.282" stop-color="#1A3249"/>
<stop offset="0.4" stop-color="#040506"/>
<stop offset="0.464" stop-color="#313236"/>
<stop offset="0.546" stop-color="#65656E"/>
<stop offset="0.607" stop-color="#868691"/>
<stop offset="0.64" stop-color="#92929E"/>
</linearGradient>
</defs>
</svg>
