<svg width="16" height="15" viewBox="0 0 16 15" fill="none" xmlns="http://www.w3.org/2000/svg">
<path d="M4.90818 15H0.326087C0.145847 15 0 14.854 0 14.6739V0.326087C0 0.146007 0.145847 0 0.326087 0H7.11182C7.29206 0 7.4379 0.146007 7.4379 0.326087V5.79139C7.4379 5.97147 7.29206 6.11747 7.11182 6.11747C6.93158 6.11747 6.78573 5.97147 6.78573 5.79139V0.652174H0.652174V14.3478H4.90818C5.08842 14.3478 5.23427 14.4938 5.23427 14.6739C5.23427 14.854 5.08842 15 4.90818 15Z" fill="white"/>
<path d="M7.11175 15H4.90812C4.72788 15 4.58203 14.854 4.58203 14.6739C4.58203 14.4938 4.72788 14.3478 4.90812 14.3478H7.11175C7.29199 14.3478 7.43784 14.4938 7.43784 14.6739C7.43784 14.854 7.29199 15 7.11175 15Z" fill="white"/>
<path d="M10.8465 15H4.90812C4.72788 15 4.58203 14.854 4.58203 14.6739V5.79185C4.58203 5.61177 4.72788 5.46576 4.90812 5.46576H10.8465C11.0267 5.46576 11.1726 5.61177 11.1726 5.79185V14.6739C11.1726 14.854 11.0267 15 10.8465 15ZM5.23421 14.3478H10.5204V6.11793H5.23421V14.3478Z" fill="white"/>
<path d="M15.3262 15H8.54044C8.3602 15 8.21436 14.854 8.21436 14.6739C8.21436 14.4938 8.3602 14.3478 8.54044 14.3478H15.0001V2.70186H8.86653V5.78933C8.86653 5.96941 8.72068 6.11542 8.54044 6.11542C8.3602 6.11542 8.21436 5.96941 8.21436 5.78933V2.37577C8.21436 2.19569 8.3602 2.04968 8.54044 2.04968H15.3262C15.5064 2.04968 15.6523 2.19569 15.6523 2.37577V14.6739C15.6523 14.854 15.5064 15 15.3262 15Z" fill="white"/>
<path d="M3.54063 8.85103H1.7548C1.57456 8.85103 1.42871 8.70502 1.42871 8.52494V6.13358C1.42871 5.9535 1.57456 5.8075 1.7548 5.8075H3.54063C3.72087 5.8075 3.86672 5.9535 3.86672 6.13358V8.52494C3.86672 8.70502 3.72087 8.85103 3.54063 8.85103ZM2.08088 8.19885H3.21455V6.45967H2.08088V8.19885Z" fill="white"/>
<path d="M3.54063 4.06827H1.7548C1.57456 4.06827 1.42871 3.92227 1.42871 3.74219V1.35099C1.42871 1.17091 1.57456 1.0249 1.7548 1.0249H3.54063C3.72087 1.0249 3.86672 1.17091 3.86672 1.35099V3.74219C3.86672 3.92227 3.72087 4.06827 3.54063 4.06827ZM2.08088 3.4161H3.21455V1.67708H2.08088V3.4161Z" fill="white"/>
<path d="M3.54063 13.2918H1.7548C1.57456 13.2918 1.42871 13.1458 1.42871 12.9658V10.5746C1.42871 10.3945 1.57456 10.2485 1.7548 10.2485H3.54063C3.72087 10.2485 3.86672 10.3945 3.86672 10.5746V12.9658C3.86672 13.1458 3.72087 13.2918 3.54063 13.2918ZM2.08088 12.6397H3.21455V10.9006H2.08088V12.6397Z" fill="white"/>
<path d="M14.1114 9.97623H12.3256C12.1454 9.97623 11.9995 9.83022 11.9995 9.65014V7.68088C11.9995 7.5008 12.1454 7.3548 12.3256 7.3548H14.1114C14.2917 7.3548 14.4375 7.5008 14.4375 7.68088V9.65014C14.4375 9.83022 14.2917 9.97623 14.1114 9.97623ZM12.6517 9.32406H13.7853V8.00697H12.6517V9.32406Z" fill="white"/>
<path d="M8.82547 9.83564H7.03995C6.85971 9.83564 6.71387 9.68964 6.71387 9.50956V7.54014C6.71387 7.36006 6.85971 7.21405 7.03995 7.21405H8.82547C9.00571 7.21405 9.15156 7.36006 9.15156 7.54014V9.50956C9.15156 9.68964 9.00571 9.83564 8.82547 9.83564ZM7.36604 9.18347H8.49938V7.86622H7.36604V9.18347Z" fill="white"/>
<path d="M14.1114 6.03773H12.3256C12.1454 6.03773 11.9995 5.89172 11.9995 5.71164V3.74222C11.9995 3.56214 12.1454 3.41614 12.3256 3.41614H14.1114C14.2917 3.41614 14.4375 3.56214 14.4375 3.74222V5.71164C14.4375 5.89172 14.2917 6.03773 14.1114 6.03773ZM12.6517 5.38556H13.7853V4.06831H12.6517V5.38556Z" fill="white"/>
<path d="M14.1114 13.6336H12.3256C12.1454 13.6336 11.9995 13.4876 11.9995 13.3075V11.3382C11.9995 11.1582 12.1454 11.0121 12.3256 11.0121H14.1114C14.2917 11.0121 14.4375 11.1582 14.4375 11.3382V13.3075C14.4375 13.4876 14.2917 13.6336 14.1114 13.6336ZM12.6517 12.9814H13.7853V11.6643H12.6517V12.9814Z" fill="white"/>
<path d="M8.82547 15H6.82023C6.63999 15 6.49414 14.854 6.49414 14.6739V11.7702C6.49414 11.5901 6.63999 11.4441 6.82023 11.4441H8.82547C9.00571 11.4441 9.15156 11.5901 9.15156 11.7702V14.6739C9.15156 14.854 9.00571 15 8.82547 15ZM7.14631 14.3478H8.49938V12.0963H7.14631V14.3478Z" fill="white"/>
</svg>
