<svg width="17" height="15" viewBox="0 0 17 15" fill="none" xmlns="http://www.w3.org/2000/svg">
<path d="M12.3019 3.20049H5.29058L4.98664 2.21206C4.94835 2.08626 4.83271 2.0003 4.70065 2.0003H3.50047C3.33482 2.0003 3.20043 2.1347 3.20043 2.30035C3.20043 2.466 3.33482 2.6004 3.50047 2.6004H4.47874L5.98521 7.49714L5.61483 8.60513C5.58514 8.69733 5.59921 8.79735 5.65703 8.87549C5.71329 8.95363 5.80314 8.99973 5.90083 8.99973H6.0571C6.02272 9.09349 6.00084 9.19351 6.00084 9.29977C6.00084 9.79595 6.4048 10.1999 6.90098 10.1999C7.39715 10.1999 7.80111 9.79595 7.80111 9.29977C7.80111 9.19351 7.77923 9.0935 7.74486 8.99973H9.65531C9.62092 9.09349 9.59905 9.19351 9.59905 9.29977C9.59905 9.79595 10.003 10.1999 10.4992 10.1999C10.9954 10.1999 11.3993 9.79595 11.3993 9.29977C11.3993 9.16147 11.3649 9.03177 11.3095 8.91377C11.3657 8.85986 11.3993 8.78407 11.3993 8.69968C11.3993 8.53403 11.2649 8.39963 11.0993 8.39963L6.31655 8.39885L6.51658 7.79876H11.1017C11.2337 7.79876 11.3517 7.71281 11.39 7.58467L12.5902 3.58406C12.6183 3.4942 12.6003 3.39419 12.5441 3.3184C12.4863 3.24417 12.3956 3.20049 12.3019 3.20049ZM7.20107 9.30141C7.20107 9.46706 7.06668 9.60146 6.90103 9.60146C6.73538 9.60146 6.60098 9.46706 6.60098 9.30141C6.60098 9.13576 6.73538 9.00137 6.90103 9.00137C7.06668 9.00137 7.20107 9.13576 7.20107 9.30141ZM10.5016 9.60146C10.3359 9.60146 10.2015 9.46706 10.2015 9.30141C10.2015 9.13576 10.3359 9.00137 10.5016 9.00137C10.6672 9.00137 10.8016 9.13576 10.8016 9.30141C10.8016 9.46706 10.6672 9.60146 10.5016 9.60146ZM10.8774 7.20109H6.52275L5.47649 3.80058H11.8993L10.8774 7.20109ZM15.7344 0H0.868092C0.388339 0 0 0.389899 0 0.868092V11.3315C0 11.8112 0.389899 12.1996 0.868092 12.1996H6.40093V14.3999H5.10074C4.93509 14.3999 4.80069 14.5343 4.80069 14.7C4.80069 14.8656 4.93509 15 5.10074 15H11.5017C11.6674 15 11.8018 14.8656 11.8018 14.7C11.8018 14.5343 11.6674 14.3999 11.5017 14.3999H10.2015V12.1996H15.7344C16.2141 12.1996 16.6024 11.8097 16.6024 11.3315V0.868092C16.6024 0.389899 16.2125 0 15.7344 0ZM9.60142 14.4022H7.00102V12.2019H9.60142V14.4022ZM15.7344 11.6018H0.868092C0.720413 11.6018 0.600091 11.4814 0.600091 11.3338V9.80149H3.90059C4.06624 9.80149 4.20064 9.66709 4.20064 9.50144C4.20064 9.33579 4.06624 9.2014 3.90059 9.2014H0.600091V0.868132C0.600091 0.720454 0.720421 0.600131 0.868092 0.600131H15.7322C15.8798 0.600131 16.0002 0.720462 16.0002 0.868132V9.2014H13.1021C12.9365 9.2014 12.8021 9.33579 12.8021 9.50144C12.8021 9.66709 12.9365 9.80149 13.1021 9.80149H16.0026V11.3338C16.0026 11.4814 15.882 11.6018 15.7344 11.6018Z" fill="white"/>
</svg>
