<svg width="51" height="57" viewBox="0 0 51 57" fill="none" xmlns="http://www.w3.org/2000/svg">
<path d="M47.8075 27.7318C47.8075 24.8365 45.4602 22.4891 42.5648 22.4891C42.3786 22.4893 42.1948 22.499 42.0136 22.5183L49.2144 1.28027H18.6135L25.8043 22.4997C25.6982 22.493 25.5919 22.4895 25.4856 22.4893C22.5903 22.4893 20.243 24.8363 20.243 27.732C20.243 30.0723 21.7769 32.0538 23.8937 32.728C22.7757 34.6646 21.3687 36.409 19.7714 37.9161C17.5993 39.9651 15.1135 41.5189 12.4249 42.4763C9.22384 40.8318 7.71232 37.1747 9.07616 33.9683C9.23023 33.6061 9.38749 33.2391 9.53776 32.8737C11.8567 32.3324 13.585 30.2535 13.585 27.7695C13.585 24.874 11.2377 22.5269 8.34215 22.5269C5.44662 22.5269 3.09951 24.874 3.09951 27.7695C3.09951 29.5451 3.98279 31.1135 5.33327 32.0618C4.03568 35.0162 2.12821 38.1083 1.5339 41.692C0.82164 45.9867 1.5315 50.5456 5.24606 53.1202C13.8969 59.116 23.2874 49.4033 33.1883 46.9615C36.7766 46.0769 40.7154 46.2193 43.8768 44.3885C46.2509 43.0135 47.8161 40.7346 48.2601 38.1764C48.6992 35.649 48.0593 33.1327 46.5881 31.0923C47.3774 30.1505 47.8092 28.9606 47.8075 27.7318Z" fill="#99425B"/>
<path d="M46.9981 37.9574C46.6125 40.1786 45.2407 42.1186 43.2346 43.2807C41.3645 44.3637 39.1235 44.687 36.7507 45.0291C35.4796 45.2123 34.1653 45.4021 32.8812 45.7186C29.4862 46.5558 26.1977 48.1892 23.0178 49.7688C16.6536 52.93 11.1575 55.6597 5.97511 52.0678C2.17893 49.4369 2.35415 44.5691 2.7964 41.9017C3.20631 39.4302 4.31451 37.1541 5.38599 34.9531C5.56853 34.579 5.74961 34.2042 5.92921 33.8287C6.46937 34.0445 7.0361 34.1867 7.61416 34.2514C6.52332 37.8514 8.23881 41.7657 11.8392 43.6153L12.3321 43.8686L12.8538 43.6828C15.7002 42.669 18.3232 41.0425 20.6495 38.8475C22.1533 37.4287 23.4463 35.8591 24.509 34.182C24.8321 34.2306 25.1583 34.255 25.4851 34.2552C28.7897 34.2552 31.5262 31.7848 31.9497 28.5941C33.3023 28.5446 34.739 28.5442 36.0995 28.5937C36.5226 31.7848 39.2594 34.2554 42.5641 34.2554C43.9459 34.2554 45.2275 33.8224 46.2834 33.0867C47.0164 34.5873 47.29 36.2756 46.9981 37.9574ZM8.34179 23.8074C10.5267 23.8074 12.304 25.585 12.304 27.7699C12.3046 28.5261 12.0874 29.2665 11.6784 29.9026C11.0198 30.9298 9.90021 31.6339 8.614 31.7217C8.52399 31.7277 8.43319 31.7321 8.34179 31.7321C7.85484 31.7321 7.38845 31.6433 6.95718 31.482C6.08866 31.1554 5.36133 30.5359 4.90064 29.7304C4.55836 29.1337 4.37862 28.4577 4.37937 27.7699C4.37937 25.585 6.15692 23.8074 8.34179 23.8074ZM21.523 27.7321C21.523 25.747 22.9905 24.0988 24.8971 23.8138C25.0892 23.7847 25.2853 23.7701 25.4853 23.7699C26.7555 23.7699 27.8865 24.3716 28.6117 25.304C28.7932 25.5366 28.9483 25.7886 29.0743 26.0554C29.3208 26.58 29.4482 27.1525 29.4475 27.7321C29.4475 28.0489 29.4092 28.3568 29.3387 28.6521C28.9525 30.2686 27.5741 31.5044 25.885 31.6744C25.7537 31.6877 25.6204 31.6944 25.4853 31.6944C24.7231 31.695 23.9772 31.4745 23.3379 31.0595C22.2471 30.3529 21.523 29.1257 21.523 27.7321ZM38.0602 23.0203C37.1978 23.8432 36.5773 24.8866 36.2659 26.0372C34.7725 25.9822 33.2775 25.9822 31.784 26.0372C31.4487 24.7935 30.7538 23.6963 29.8189 22.8629L33.919 14.5724L38.0602 23.0203ZM20.3989 2.56125H47.4277L41.0438 21.3895C40.7691 21.4553 40.4991 21.5389 40.2353 21.6399L33.929 8.7752L27.6047 21.5631C27.329 21.4685 27.0472 21.3925 26.7613 21.3358L20.3989 2.56125ZM46.5263 27.7323C46.5263 28.1295 46.467 28.513 46.3579 28.8753C46.0989 29.728 45.5611 30.4692 44.8306 30.9797C44.1667 31.4456 43.3751 31.6953 42.5641 31.6946C40.7346 31.6946 39.1914 30.4479 38.7376 28.7595C38.6474 28.4246 38.6018 28.0792 38.6019 27.7323C38.6019 27.1907 38.7112 26.6742 38.9088 26.2037C39.0109 25.963 39.1364 25.7329 39.2836 25.5167C39.9966 24.4642 41.1998 23.7701 42.5641 23.7701C42.6891 23.7703 42.8127 23.7762 42.9349 23.7881C44.9465 23.9755 46.5263 25.6724 46.5263 27.7323ZM49.0875 27.7323C49.0875 24.5476 46.7929 21.8904 43.7707 21.3228L51 0H16.827L24.0677 21.3659C21.1504 22.0151 18.9622 24.6221 18.9622 27.7321C18.9622 30.0675 20.1963 32.1186 22.0459 33.2713C21.1562 34.5969 20.1013 35.8442 18.8923 36.9849C16.9749 38.7936 14.8389 40.1654 12.5361 41.0681C10.2165 39.611 9.23605 36.8632 10.2542 34.4695L10.3341 34.282L10.4837 33.9299C13.0314 33.0412 14.8649 30.6165 14.8649 27.7699C14.8649 24.1728 11.9386 21.2466 8.34179 21.2466C4.74478 21.2466 1.81851 24.1728 1.81851 27.7699C1.81851 29.5853 2.5649 31.2294 3.7659 32.4132C3.5419 32.8878 3.31452 33.3608 3.08377 33.8321C1.98555 36.0874 0.741047 38.6437 0.270267 41.4826C-0.664509 47.1203 0.843425 51.6272 4.51647 54.1727C6.74524 55.7173 9.00874 56.3248 11.2864 56.3248C15.5751 56.3248 19.9137 54.1701 24.1571 52.0622C27.2131 50.5445 30.3733 48.9749 33.4947 48.205C34.6562 47.9186 35.8512 47.7462 37.1165 47.5638C39.6256 47.2018 42.22 46.8276 44.5182 45.4967C47.1823 43.9536 49.0057 41.3652 49.5214 38.3956C49.964 35.8462 49.4314 33.2927 48.1322 31.127C48.7581 30.1053 49.0888 28.9303 49.0875 27.7321" fill="white"/>
</svg>
