<svg width="87" height="100" viewBox="0 0 87 100" fill="none" xmlns="http://www.w3.org/2000/svg">
<path d="M5.964 63.0123H0.232422V57.2807C0.232422 56.2583 1.06893 55.4218 2.09131 55.4218H7.66799V61.3083C7.66799 62.2479 6.90359 63.0123 5.964 63.0123Z" fill="#3F3D56"/>
<path d="M84.3468 7.70961H78.6152V1.97803C78.6152 0.955636 79.4517 0.119141 80.4741 0.119141H86.0508V6.00563C86.0508 6.94521 85.2864 7.70961 84.3468 7.70961Z" fill="#3F3D56"/>
<path d="M44.1852 97.5569L42.1207 97.5567L41.1387 89.5938L44.1856 89.594L44.1852 97.5569Z" fill="#A0616A"/>
<path d="M44.2587 99.7105L37.9102 99.7103V99.63C37.9102 98.2654 39.0165 97.1591 40.3812 97.159L41.541 96.2793L43.7046 97.1592L44.2588 97.1592L44.2587 99.7105Z" fill="#2F2E41"/>
<path d="M42.8778 56.4576L41.5154 61.1879C41.5154 61.1879 38.5721 76.6686 39.3467 78.8373C40.1212 81.006 40.692 94.648 40.692 94.648H44.7221C44.7221 94.648 45.2649 91.1872 45.249 90.6664C45.2331 90.1455 46.1626 81.7805 44.9233 80.5413L50.3451 66.9094L58.865 59.7836L55.5241 55.6367L42.8778 56.4576Z" fill="#2F2E41"/>
<path opacity="0.5" d="M62.5835 64.1326V61.6541L60.105 58.2461C59.0826 58.2461 58.2461 59.0826 58.2461 60.105V68.47C58.2461 69.4924 59.0826 70.3289 60.105 70.3289H68.47C69.4924 70.3289 70.3289 69.4924 70.3289 68.47L66.9209 66.1464H64.5973C63.4869 66.1464 62.5835 65.243 62.5835 64.1326Z" fill="#63388B"/>
<path opacity="0.5" d="M74.5449 43.6065H23.9767C22.3299 43.6065 20.9902 42.2667 20.9902 40.6199V23.0472C20.9902 21.4003 22.3299 20.0605 23.9767 20.0605H74.5449C76.1917 20.0605 77.5315 21.4003 77.5315 23.0472V40.6199C77.5315 42.2667 76.1917 43.6065 74.5449 43.6065Z" fill="#63388B"/>
<path d="M52.7899 40.2751H19.7946C18.105 40.2751 16.7305 38.9005 16.7305 37.211V19.6383C16.7305 17.9487 18.105 16.5742 19.7945 16.5742H70.3625C72.0521 16.5742 73.4267 17.9488 73.4267 19.6383C73.4267 31.0175 64.169 40.2751 52.7899 40.2751ZM19.7945 16.884C18.2758 16.884 17.0403 18.1196 17.0403 19.6383V37.211C17.0403 38.7297 18.2758 39.9653 19.7946 39.9653H52.7899C63.9982 39.9653 73.1168 30.8467 73.1168 19.6383C73.1168 18.1196 71.8813 16.884 70.3625 16.884H19.7945Z" fill="#63388B"/>
<path d="M56.9744 58.4058L56.6465 53.7643L59.2718 53.207L59.4439 58.1266C59.5473 58.2357 59.6369 58.3615 59.7075 58.503C60.0916 59.2726 59.779 60.2079 59.0094 60.592C58.2397 60.9761 57.3044 60.6635 56.9203 59.8939C56.6754 59.403 56.7148 58.8454 56.9744 58.4058Z" fill="#A0616A"/>
<path d="M52.8069 28.6445L51.7969 29.3973L54.2792 43.5526L53.9163 44.4192L54.4005 44.8744L54.5488 45.9631L56.5035 56.0752H59.4842C59.4405 55.7239 60.3022 55.3638 60.2588 54.9908C60.2091 54.5643 59.8599 53.9192 59.8103 53.4686C59.7949 53.3291 59.7795 53.1885 59.7641 53.047C59.7415 52.8392 59.7189 52.6294 59.6963 52.4176C59.6787 52.2537 59.6611 52.0886 59.6435 51.9225C59.2624 48.326 59.1058 44.2791 58.8856 40.7845C58.605 36.3294 58.2213 32.7721 57.1379 32.1909L52.8069 28.6445Z" fill="#3F3D56"/>
<path d="M60.3418 97.3156C60.6619 97.3356 60.8387 96.938 60.5966 96.7063L60.5725 96.6105C60.5757 96.6029 60.5789 96.5952 60.5821 96.5875C60.9057 95.8158 62.0026 95.8211 62.3235 96.594C62.6083 97.28 62.9709 97.9671 63.0602 98.6924C63.1002 99.0125 63.0822 99.3387 63.0111 99.6529C63.6785 98.1951 64.0297 96.6033 64.0297 95.0024C64.0297 94.6002 64.0077 94.198 63.9626 93.7968C63.9256 93.4686 63.8746 93.1424 63.8086 92.8193C63.4514 91.0723 62.678 89.4085 61.5624 88.0187C61.0261 87.7256 60.5789 87.2673 60.3087 86.7181C60.2117 86.52 60.1356 86.3068 60.0996 86.0897C60.1606 86.0977 60.3297 85.1682 60.2837 85.1112C60.3688 84.9821 60.521 84.918 60.6139 84.792C61.0759 84.1657 61.7124 84.2751 62.0446 85.1262C62.7545 85.4845 62.7613 86.0786 62.3258 86.65C62.0487 87.0136 62.0106 87.5055 61.7675 87.8947C61.7925 87.9267 61.8185 87.9577 61.8435 87.9897C62.3022 88.5781 62.6989 89.2104 63.0334 89.8747C62.9389 89.1364 63.0784 88.2469 63.3163 87.6736C63.5871 87.0203 64.0947 86.4701 64.5417 85.9053C65.0786 85.2269 66.1796 85.523 66.2742 86.3829C66.2751 86.3912 66.276 86.3996 66.2769 86.4079C66.2105 86.4454 66.1454 86.4851 66.0819 86.5272C65.7195 86.7668 65.8447 87.3286 66.2741 87.3949L66.2839 87.3964C66.2599 87.6355 66.2188 87.8727 66.1588 88.1058C66.7322 90.3234 65.4942 91.1311 63.7265 91.1674C63.6875 91.1874 63.6495 91.2074 63.6105 91.2264C63.7896 91.7307 63.9326 92.248 64.0387 92.7722C64.1337 93.2355 64.1998 93.7037 64.2368 94.174C64.2828 94.7673 64.2788 95.3636 64.2288 95.9559L64.2318 95.9349C64.3588 95.2826 64.713 94.6733 65.2273 94.251C65.9934 93.6217 67.0758 93.3899 67.9023 92.8841C68.3002 92.6406 68.81 92.9553 68.7405 93.4165L68.7372 93.4386C68.6141 93.4886 68.494 93.5467 68.378 93.6117C68.3116 93.6492 68.2465 93.6889 68.183 93.731C67.8206 93.9706 67.9458 94.5324 68.3753 94.5987L68.385 94.6002C68.392 94.6012 68.398 94.6022 68.405 94.6032C68.1939 95.1045 67.8997 95.5697 67.5315 95.9709C67.173 97.9068 65.633 98.0905 63.9857 97.5268H63.9847C63.8046 98.3112 63.5414 99.0776 63.2032 99.808H60.4118C60.4018 99.7769 60.3928 99.7449 60.3838 99.7139C60.6419 99.7299 60.902 99.7149 61.1562 99.6679C60.9491 99.4138 60.742 99.1576 60.5348 98.9035C60.5298 98.8985 60.5258 98.8935 60.5218 98.8885C60.4168 98.7584 60.3107 98.6293 60.2057 98.4993L60.2056 98.4991C60.199 98.0998 60.247 97.7018 60.3418 97.3156Z" fill="#F2F2F2"/>
<path d="M29.1191 99.8152C29.1191 99.9174 29.2012 99.9995 29.3035 99.9995H68.54C68.6423 99.9995 68.7244 99.9174 68.7244 99.8152C68.7244 99.713 68.6423 99.6309 68.54 99.6309H29.3035C29.2012 99.6309 29.1191 99.713 29.1191 99.8152Z" fill="#CCCCCC"/>
<path d="M3.51485 0C1.57365 0 0 1.57365 0 3.51485V63.0474H0.309815V24.4258C0.309815 11.1069 11.1069 0.309815 24.4258 0.309815L86.0301 0.25348L85.9737 0H3.51485Z" fill="#3F3D56"/>
<path d="M29.2774 39.6573C29.2774 39.8648 29.2712 40.0724 29.2603 40.2769H19.7939C18.1875 40.2769 16.8848 38.9741 16.8848 37.3677V28.5721C17.2922 28.5271 17.7058 28.5039 18.124 28.5039C24.2832 28.5039 29.2774 33.4981 29.2774 39.6573Z" fill="#63388B"/>
<path d="M64.373 28.3477H34.1088C33.5931 28.3477 33.1738 28.7669 33.1738 29.2827C33.1738 29.7984 33.5931 30.2177 34.1088 30.2177H64.373C64.8887 30.2177 65.308 29.7984 65.308 29.2827C65.308 28.7669 64.8887 28.3477 64.373 28.3477Z" fill="#63388B"/>
<path d="M43.4923 23.1055H34.1088C33.5931 23.1055 33.1738 23.5247 33.1738 24.0405C33.1738 24.5563 33.5931 24.9755 34.1088 24.9755H43.4923C44.0081 24.9755 44.4273 24.5563 44.4273 24.0405C44.4273 23.5247 44.0081 23.1055 43.4923 23.1055Z" fill="#63388B"/>
<path d="M52.7067 97.5569L50.6422 97.5567L49.6602 89.5938L52.7071 89.594L52.7067 97.5569Z" fill="#A0616A"/>
<path d="M52.7801 99.7105L46.4316 99.7103V99.63C46.4317 98.2654 47.538 97.1591 48.9027 97.159L50.0624 96.2793L52.2261 97.1592L52.7802 97.1592L52.7801 99.7105Z" fill="#2F2E41"/>
<path d="M48.4085 58.3223L49.4929 67.7716L47.0918 77.6083L49.183 94.7256L53.0557 95.0354C53.0557 95.0354 54.9146 82.4879 53.2106 78.1504L57.5481 61.1106L54.295 59.2517L48.4085 58.3223Z" fill="#2F2E41"/>
<path d="M52.4487 26.3943C51.7653 25.6648 51.9994 25.0001 50.9428 24.8139C50.2265 24.6876 49.3644 24.8142 48.6309 24.8136C46.7875 24.8118 46.5104 25.8312 45.4491 27.1854C42.7155 30.6734 45.2587 33.4725 44.6131 37.6428C44.0132 41.5177 45.621 43.6279 44.9089 47.5132C44.5699 49.3626 43.9129 51.9668 42.7632 54.0937C42.1283 55.2682 41.8239 56.6344 41.9796 57.9357C42.1174 59.0874 56.9913 59.2217 57.4028 58.9383C57.8875 58.6046 57.7236 57.8893 57.7709 57.3909C57.8991 56.0407 58.0296 55.0948 57.7054 53.7157C57.4007 52.4199 57.4064 50.9141 57.4021 49.5748C57.398 48.2835 55.5793 50.4152 55.6849 49.1261C55.8197 47.4819 56.0869 45.8733 56.3812 44.244C56.609 42.983 56.6983 41.6871 57.033 40.4524C57.4185 39.0301 57.8782 37.7789 57.8937 36.2872C57.9057 35.126 58.1859 33.5028 57.7243 32.439C57.0442 30.8719 55.6728 29.4607 54.5158 28.2055C53.9405 27.5813 53.3694 27.1751 52.7122 26.6578" fill="#3F3D56"/>
<path d="M29.0996 33.537L33.2875 35.5649L32.4628 38.1189L28.1114 35.8173C27.9653 35.8527 27.8117 35.8677 27.6538 35.8584C26.7951 35.808 26.1398 35.0711 26.1902 34.2124C26.2406 33.3537 26.9776 32.6984 27.8362 32.7488C28.3839 32.7809 28.8477 33.0929 29.0996 33.537Z" fill="#A0616A"/>
<path d="M41.9462 45.1114C41.5451 44.8989 35.4347 41.0021 32.2219 39.192C32.1617 39.1581 31.747 39.3802 31.6891 39.3476C31.6008 39.2979 31.6847 38.9286 31.6022 38.8822C31.4233 38.7814 31.0892 39.0096 30.941 38.9261C30.4042 38.6236 30.5179 37.3331 30.5179 37.3331L31.6022 34.6997L33.375 34.6431L33.7709 35.3193L34.6115 35.218L35.1651 35.9389L41.5461 38.4425C41.7941 35.1154 43.1246 32.3707 44.5659 29.6855L45.1485 29.7956C46.6177 30.0732 47.5976 31.4715 47.3572 32.9472L45.6745 43.2759C45.5116 44.2368 44.8317 45.0117 43.9001 45.2981C43.2268 45.5051 42.5283 45.4196 41.9462 45.1114Z" fill="#3F3D56"/>
<path d="M48.28 23.8354C50.8983 23.8354 53.0209 21.7128 53.0209 19.0944C53.0209 16.4761 50.8983 14.3535 48.28 14.3535C45.6616 14.3535 43.5391 16.4761 43.5391 19.0944C43.5391 21.7128 45.6616 23.8354 48.28 23.8354Z" fill="#A0616A"/>
<path d="M53.5431 19.237C53.3774 19.1704 53.2116 19.1146 53.0676 19.079C53.8812 20.1032 52.5078 21.002 52.2947 22.0502C52.3124 22.8823 51.8575 23.2597 51.0615 23.4876L51.0801 23.4226C44.6064 25.0808 51.4354 19.5609 46.374 19.4088C45.6025 19.4538 46.6328 17.0283 45.8396 17.1504C43.8258 17.4602 43.7319 17.2473 43.5161 18.6996C43.124 18.828 42.5865 18.2347 42.6501 17.6151C42.5066 17.3543 42.1317 17.5212 41.9809 17.1255C41.8213 16.8235 41.5177 14.8484 42.2101 15.7717C42.2559 15.1414 42.0776 13.8529 42.8638 14.9538C42.7615 14.4529 43.1962 14.6698 43.3781 14.9677C43.5067 14.6749 43.6353 14.3837 43.7623 14.0909C43.7266 14.2226 43.7499 14.3667 43.815 14.4968C44.1804 13.7205 44.7382 13.6502 45.6087 13.431C45.5986 13.6688 45.6041 13.9471 45.6367 14.1622C46.6475 12.4875 49.0955 12.9553 50.0715 14.4349C50.6901 14.5762 50.9515 14.362 51.5712 14.5169C53.2361 14.9332 53.9972 17.5004 53.5431 19.237Z" fill="#2F2E41"/>
<path d="M66.1454 63.9772H71.877V58.2456C71.877 57.2232 71.0405 56.3867 70.0181 56.3867H64.4414V62.2732C64.4414 63.2128 65.2058 63.9772 66.1454 63.9772Z" fill="#63388B"/>
<path d="M19.7826 9.89126C20.5061 9.89126 21.0926 9.29169 21.0926 8.55208C21.0926 7.81247 20.5061 7.21289 19.7826 7.21289C19.0592 7.21289 18.4727 7.81247 18.4727 8.55208C18.4727 9.29169 19.0592 9.89126 19.7826 9.89126Z" fill="#3F3D56"/>
<path d="M24.308 9.89126C25.0315 9.89126 25.618 9.29169 25.618 8.55208C25.618 7.81247 25.0315 7.21289 24.308 7.21289C23.5845 7.21289 22.998 7.81247 22.998 8.55208C22.998 9.29169 23.5845 9.89126 24.308 9.89126Z" fill="#3F3D56"/>
<path d="M28.8334 9.89126C29.5569 9.89126 30.1434 9.29169 30.1434 8.55208C30.1434 7.81247 29.5569 7.21289 28.8334 7.21289C28.1099 7.21289 27.5234 7.81247 27.5234 8.55208C27.5234 9.29169 28.1099 9.89126 28.8334 9.89126Z" fill="#3F3D56"/>
<path d="M60.957 13.0547C60.8288 13.0547 60.7246 13.1589 60.7246 13.287V14.8361C60.7246 14.9643 60.8288 15.0685 60.957 15.0685H62.506C62.6342 15.0685 62.7384 14.9643 62.7384 14.8361V13.287C62.7384 13.1589 62.6342 13.0547 62.506 13.0547H60.957Z" fill="#63388B"/>
<path d="M64.5195 13.0547C64.3913 13.0547 64.2871 13.1589 64.2871 13.287V14.8361C64.2871 14.9643 64.3913 15.0685 64.5195 15.0685H66.0685C66.1967 15.0685 66.3009 14.9643 66.3009 14.8361V13.287C66.3009 13.1589 66.1967 13.0547 66.0685 13.0547H64.5195Z" fill="#63388B"/>
<path d="M68.082 13.0546C67.9538 13.0546 67.8496 13.1588 67.8496 13.287V14.836C67.8496 14.9642 67.9538 15.0684 68.082 15.0684H69.631C69.7592 15.0684 69.8634 14.9642 69.8634 14.836V13.287C69.8634 13.1588 69.7592 13.0546 69.631 13.0546H68.082Z" fill="#63388B"/>
</svg>
