<svg width="80" height="100" viewBox="0 0 80 100" fill="none" xmlns="http://www.w3.org/2000/svg">
<path d="M76.5335 44.1193H47.492C46.6873 44.1184 45.9159 43.7983 45.3469 43.2293C44.778 42.6604 44.4579 41.8889 44.457 41.0843V3.18153C44.4579 2.3769 44.778 1.60548 45.347 1.03652C45.9159 0.467554 46.6874 0.147513 47.492 0.146606H76.5335C77.3381 0.147513 78.1096 0.467554 78.6785 1.03652C79.2475 1.60548 79.5675 2.3769 79.5685 3.18153V41.0843C79.5676 41.8889 79.2475 42.6604 78.6785 43.2293C78.1096 43.7983 77.3381 44.1184 76.5335 44.1193Z" fill="#F0F0F0"/>
<path d="M76.5335 44.2657H47.4921C46.6486 44.2648 45.8399 43.9293 45.2434 43.3328C44.647 42.7364 44.3115 41.9277 44.3105 41.0842V3.1815C44.3115 2.33801 44.647 1.52935 45.2435 0.932907C45.8399 0.336468 46.6486 0.000964806 47.4921 0H76.5335C77.377 0.000950059 78.1857 0.336446 78.7822 0.932886C79.3786 1.52933 79.7141 2.338 79.7151 3.1815V41.0842C79.7142 41.9277 79.3787 42.7364 78.7822 43.3328C78.1857 43.9293 77.3771 44.2648 76.5335 44.2657ZM47.4921 0.293151C46.7263 0.294014 45.9921 0.598599 45.4506 1.14008C44.9091 1.68157 44.6046 2.41573 44.6037 3.1815V41.0842C44.6045 41.8499 44.9091 42.5841 45.4506 43.1256C45.9921 43.6671 46.7263 43.9717 47.492 43.9726H76.5335C77.2993 43.9717 78.0335 43.6671 78.575 43.1256C79.1165 42.5841 79.4211 41.85 79.422 41.0842V3.1815C79.4211 2.41572 79.1165 1.68155 78.575 1.14006C78.0335 0.598578 77.2993 0.294 76.5335 0.293151H47.4921Z" fill="#63388B"/>
<path d="M61.499 48.8105C64.398 48.8105 66.748 46.4605 66.748 43.5615C66.748 40.6626 64.398 38.3125 61.499 38.3125C58.6001 38.3125 56.25 40.6626 56.25 43.5615C56.25 46.4605 58.6001 48.8105 61.499 48.8105Z" fill="#63388B"/>
<path d="M60.7834 46.2924C60.6928 46.2924 60.6034 46.2713 60.5223 46.2307C60.4412 46.1902 60.3707 46.1313 60.3164 46.0588L58.8843 44.1494C58.8383 44.0881 58.8049 44.0183 58.7858 43.944C58.7668 43.8697 58.7626 43.7924 58.7734 43.7165C58.7843 43.6406 58.81 43.5676 58.8491 43.5016C58.8881 43.4356 58.9398 43.378 59.0011 43.332C59.0625 43.286 59.1323 43.2525 59.2066 43.2335C59.2808 43.2145 59.3581 43.2103 59.434 43.2211C59.5099 43.232 59.583 43.2577 59.6489 43.2967C59.7149 43.3358 59.7725 43.3875 59.8186 43.4488L60.7554 44.6979L63.1617 41.0886C63.2478 40.9603 63.3813 40.8713 63.5329 40.8412C63.6844 40.8112 63.8418 40.8424 63.9704 40.9281C64.0989 41.0139 64.1883 41.1471 64.2188 41.2986C64.2494 41.4501 64.2186 41.6075 64.1333 41.7363L61.2693 46.0324C61.2175 46.1101 61.1478 46.1742 61.0661 46.2194C60.9844 46.2646 60.893 46.2896 60.7997 46.2922C60.7942 46.2923 60.7888 46.2924 60.7834 46.2924Z" fill="white"/>
<path d="M56.9446 64.3884H1.24589C0.915578 64.388 0.598901 64.2566 0.365334 64.023C0.131766 63.7895 0.00038095 63.4728 0 63.1425V12.7205C0.000368561 12.3902 0.13175 12.0735 0.365321 11.8399C0.598891 11.6064 0.915574 11.475 1.24589 11.4746H56.9446C57.2749 11.475 57.5916 11.6064 57.8252 11.8399C58.0587 12.0735 58.1901 12.3902 58.1905 12.7205V63.1425C58.1901 63.4728 58.0587 63.7895 57.8251 64.023C57.5916 64.2566 57.2749 64.388 56.9446 64.3884Z" fill="#3F3D56"/>
<path d="M55.7713 63.217H2.41777C2.08745 63.2166 1.77078 63.0852 1.53721 62.8517C1.30364 62.6181 1.17226 62.3014 1.17188 61.9711V13.8943C1.17224 13.564 1.30363 13.2473 1.5372 13.0138C1.77077 12.7802 2.08745 12.6488 2.41777 12.6484H55.7713C56.1016 12.6488 56.4183 12.7802 56.6518 13.0138C56.8854 13.2473 57.0168 13.564 57.0171 13.8943V61.9711C57.0168 62.3014 56.8854 62.6181 56.6518 62.8517C56.4182 63.0852 56.1016 63.2166 55.7713 63.217Z" fill="white"/>
<path d="M5.12833 17.8716C11.4072 17.7624 17.6868 17.7468 23.9671 17.8246C30.2464 17.9028 36.5236 18.075 42.7987 18.3411C46.32 18.4905 49.8398 18.6694 53.3582 18.8778C53.6408 18.8945 53.6399 18.4548 53.3582 18.4381C47.0893 18.0671 40.8158 17.7896 34.5378 17.6054C28.2607 17.4217 21.9817 17.3319 15.701 17.3361C12.1766 17.3384 8.65235 17.3704 5.12833 17.4319C4.84569 17.4368 4.8448 17.8766 5.12833 17.8716Z" fill="#3F3D56"/>
<path d="M48.887 15.1136L51.6326 14.9092C51.9131 14.8883 51.9153 14.4484 51.6326 14.4695L48.887 14.6738C48.6065 14.6947 48.6042 15.1346 48.887 15.1136Z" fill="#3F3D56"/>
<path d="M48.887 17.7523L51.6326 17.548C51.9131 17.5271 51.9153 17.0872 51.6326 17.1083L48.887 17.3126C48.6065 17.3335 48.6042 17.7734 48.887 17.7523Z" fill="#3F3D56"/>
<path d="M48.6813 16.5482L52.5849 16.9029C52.8667 16.9285 52.8649 16.4886 52.5849 16.4631L48.6813 16.1085C48.3996 16.0829 48.4014 16.5228 48.6813 16.5482Z" fill="#3F3D56"/>
<path d="M6.75498 14.5235C6.56405 14.5223 6.37699 14.5773 6.21713 14.6817C6.05727 14.7861 5.93168 14.9353 5.85601 15.1106C5.77135 15.2821 5.74522 15.4767 5.78161 15.6645C5.81799 15.8524 5.9149 16.0231 6.05749 16.1506C6.19155 16.2647 6.35233 16.3429 6.52481 16.3779C6.69729 16.413 6.87584 16.4037 7.04377 16.351C7.21551 16.291 7.36443 16.1793 7.47004 16.0312C7.57565 15.8831 7.63276 15.7058 7.63349 15.5239C7.64116 15.3221 7.58649 15.1228 7.4769 14.9532C7.36732 14.7835 7.20815 14.6517 7.02102 14.5757C6.9648 14.5605 6.90482 14.568 6.85416 14.5968C6.80349 14.6256 6.76626 14.6732 6.75057 14.7293C6.7367 14.7855 6.74489 14.8448 6.77345 14.8951C6.80202 14.9454 6.84878 14.9829 6.90412 14.9998C6.94244 15.0146 6.86912 14.9809 6.9049 15.0004C6.91961 15.0084 6.9346 15.0157 6.94904 15.0242C6.96133 15.0315 6.97308 15.0395 6.98503 15.0473C7.02607 15.074 6.96499 15.0276 6.99123 15.0517C7.01398 15.0726 7.03652 15.0929 7.05719 15.116C7.06501 15.1247 7.09565 15.1489 7.07184 15.132C7.05363 15.119 7.06482 15.1221 7.07184 15.1325C7.07717 15.1404 7.0828 15.148 7.08806 15.156C7.1052 15.1819 7.12078 15.2089 7.13472 15.2367C7.13796 15.2431 7.14091 15.2497 7.14419 15.2561C7.15035 15.2681 7.15928 15.2712 7.1448 15.2562C7.13097 15.2418 7.13978 15.2428 7.14472 15.2566C7.14798 15.2657 7.15153 15.2747 7.15469 15.2838C7.165 15.3134 7.17366 15.3436 7.18061 15.3743C7.18384 15.3884 7.18643 15.4026 7.1892 15.4169C7.19902 15.4674 7.18777 15.3855 7.19014 15.423C7.19212 15.4543 7.19443 15.4853 7.19389 15.5167C7.19364 15.5311 7.19302 15.5455 7.19201 15.5598C7.19151 15.567 7.19071 15.5741 7.19024 15.5813C7.18796 15.6158 7.18788 15.5687 7.19271 15.5655C7.18266 15.5948 7.176 15.6251 7.17284 15.6559C7.1689 15.6696 7.16423 15.6829 7.15985 15.6965C7.14455 15.7436 7.17421 15.6707 7.1579 15.703C7.14449 15.7307 7.12949 15.7576 7.11299 15.7836C7.10582 15.7944 7.07881 15.819 7.1009 15.8019C7.12487 15.7834 7.08833 15.8153 7.08054 15.8235C7.07052 15.8341 7.06013 15.8443 7.04936 15.8541C7.04246 15.8609 7.03518 15.8672 7.02755 15.8731C7.02615 15.8724 7.06428 15.8476 7.04373 15.8607C7.0176 15.8774 6.99287 15.8952 6.96534 15.9097C6.96213 15.9114 6.92693 15.9277 6.92708 15.9283C6.92556 15.9223 6.97233 15.9118 6.94022 15.9222C6.93348 15.9244 6.92687 15.927 6.92014 15.9293C6.89092 15.9391 6.86108 15.947 6.83083 15.9531C6.82391 15.9544 6.81658 15.9551 6.80976 15.9569C6.78703 15.9628 6.83148 15.9534 6.83281 15.9542C6.81601 15.9535 6.79919 15.955 6.78278 15.9586C6.75159 15.9604 6.72031 15.9604 6.68912 15.9586C6.6819 15.9582 6.6747 15.9575 6.66748 15.9571C6.65073 15.9561 6.63844 15.944 6.66073 15.9571C6.67793 15.9673 6.6765 15.9599 6.66126 15.9571C6.65413 15.9557 6.64697 15.9546 6.63985 15.9533C6.60897 15.9475 6.57844 15.94 6.54839 15.9309C6.53222 15.926 6.51637 15.9202 6.50042 15.9147C6.49347 15.9126 6.4867 15.91 6.48019 15.9069C6.48009 15.9051 6.52131 15.9266 6.49955 15.9148C6.47208 15.9 6.44368 15.8876 6.41687 15.8715C6.40256 15.8628 6.38881 15.8534 6.37489 15.8442C6.36877 15.8405 6.36296 15.8363 6.35749 15.8317C6.35795 15.8299 6.39158 15.861 6.37393 15.8442C6.3516 15.8229 6.32773 15.8039 6.30658 15.7812C6.30175 15.7761 6.29717 15.7706 6.29235 15.7654L6.28769 15.7601C6.27577 15.7455 6.27555 15.7456 6.28702 15.7603C6.29868 15.7638 6.29815 15.7765 6.28709 15.7599C6.28315 15.754 6.27896 15.7483 6.27503 15.7423C6.25717 15.7169 6.24195 15.6897 6.22958 15.6612C6.23065 15.6603 6.24863 15.7141 6.23489 15.6735C6.23229 15.6659 6.22937 15.6583 6.22682 15.6507C6.22177 15.6354 6.21732 15.62 6.21348 15.6044C6.20968 15.589 6.20773 15.5731 6.20389 15.5578C6.19743 15.5319 6.20767 15.5782 6.2065 15.577C6.20284 15.5734 6.2044 15.551 6.20412 15.5456C6.20236 15.5111 6.20629 15.4776 6.20691 15.4433C6.20739 15.4167 6.20471 15.464 6.20415 15.4626C6.20429 15.4547 6.2057 15.4468 6.20833 15.4393C6.21231 15.4212 6.21601 15.4031 6.22088 15.3852C6.22646 15.3647 6.23289 15.3445 6.24015 15.3245C6.24287 15.3171 6.24618 15.3097 6.2487 15.3022C6.25796 15.2746 6.23038 15.3355 6.24559 15.3106C6.2665 15.2764 6.28208 15.2393 6.30429 15.2055C6.30955 15.1974 6.34155 15.1528 6.32457 15.1753C6.30766 15.1978 6.34195 15.1552 6.34844 15.148C6.37541 15.118 6.40713 15.0933 6.43505 15.0645C6.45158 15.0475 6.42351 15.0729 6.42186 15.0741C6.4305 15.0679 6.43897 15.0615 6.44773 15.0555C6.46299 15.045 6.47863 15.035 6.49464 15.0256C6.51268 15.0151 6.53308 15.0072 6.55056 14.996C6.57121 14.9828 6.53476 15.0018 6.53411 15.0022C6.54355 14.9975 6.55341 14.9938 6.56356 14.991C6.58059 14.985 6.65463 14.953 6.67017 14.963C6.66946 14.9625 6.61394 14.9675 6.65882 14.9646C6.66943 14.9639 6.67999 14.9629 6.69062 14.9624C6.7121 14.9615 6.73351 14.9621 6.75498 14.9632C6.81317 14.9628 6.86887 14.9395 6.91002 14.8984C6.95117 14.8572 6.97446 14.8015 6.97484 14.7433C6.9736 14.6854 6.95003 14.6302 6.90906 14.5892C6.8681 14.5483 6.8129 14.5247 6.75498 14.5235Z" fill="#3F3D56"/>
<path d="M9.8331 14.5235C9.64217 14.5223 9.45512 14.5773 9.29526 14.6817C9.1354 14.7861 9.00981 14.9353 8.93413 15.1106C8.84948 15.2821 8.82335 15.4767 8.85973 15.6645C8.89612 15.8524 8.99302 16.0231 9.13562 16.1506C9.26967 16.2647 9.43045 16.3429 9.60293 16.3779C9.77541 16.413 9.95396 16.4037 10.1219 16.351C10.2936 16.291 10.4426 16.1793 10.5482 16.0312C10.6538 15.8831 10.7109 15.7058 10.7116 15.5239C10.7193 15.3221 10.6646 15.1228 10.555 14.9532C10.4454 14.7835 10.2863 14.6517 10.0991 14.5757C10.0429 14.5605 9.98294 14.568 9.93228 14.5968C9.88162 14.6256 9.84438 14.6732 9.82869 14.7293C9.81482 14.7855 9.82301 14.8448 9.85158 14.8951C9.88015 14.9454 9.92691 14.9829 9.98225 14.9998C10.0206 15.0146 9.94725 14.9809 9.98302 15.0004C9.99774 15.0084 10.0127 15.0157 10.0272 15.0242C10.0395 15.0315 10.0512 15.0395 10.0632 15.0473C10.1042 15.074 10.0431 15.0276 10.0694 15.0517C10.0921 15.0726 10.1146 15.0929 10.1353 15.116C10.1431 15.1247 10.1738 15.1489 10.15 15.132C10.1318 15.119 10.1429 15.1221 10.15 15.1325C10.1553 15.1404 10.1609 15.148 10.1662 15.156C10.1833 15.1819 10.1989 15.2089 10.2128 15.2367C10.2161 15.2431 10.219 15.2497 10.2223 15.2561C10.2285 15.2681 10.2374 15.2712 10.2229 15.2562C10.2091 15.2418 10.2179 15.2428 10.2228 15.2566C10.2261 15.2657 10.2297 15.2747 10.2328 15.2838C10.2431 15.3134 10.2518 15.3436 10.2587 15.3743C10.262 15.3884 10.2646 15.4026 10.2673 15.4169C10.2771 15.4674 10.2659 15.3855 10.2683 15.423C10.2702 15.4543 10.2726 15.4853 10.272 15.5167C10.2718 15.5311 10.2711 15.5455 10.2701 15.5598C10.2696 15.567 10.2688 15.5741 10.2684 15.5813C10.2661 15.6158 10.266 15.5687 10.2708 15.5655C10.2608 15.5948 10.2541 15.6251 10.251 15.6559C10.247 15.6696 10.2424 15.6829 10.238 15.6965C10.2227 15.7436 10.2523 15.6707 10.236 15.703C10.2226 15.7307 10.2076 15.7576 10.1911 15.7836C10.1839 15.7944 10.1569 15.819 10.179 15.8019C10.203 15.7834 10.1665 15.8153 10.1587 15.8235C10.1486 15.8341 10.1383 15.8443 10.1275 15.8541C10.1206 15.8609 10.1133 15.8672 10.1057 15.8731C10.1043 15.8724 10.1424 15.8476 10.1219 15.8607C10.0957 15.8774 10.071 15.8952 10.0435 15.9097C10.0403 15.9114 10.0051 15.9277 10.0052 15.9283C10.0037 15.9223 10.0505 15.9118 10.0183 15.9222C10.0116 15.9244 10.005 15.927 9.99827 15.9293C9.96904 15.9391 9.93921 15.947 9.90896 15.9531C9.90203 15.9544 9.89471 15.9551 9.88788 15.9569C9.86516 15.9628 9.9096 15.9534 9.91094 15.9542C9.89414 15.9535 9.87732 15.955 9.86091 15.9586C9.82971 15.9604 9.79844 15.9604 9.76724 15.9586C9.76003 15.9582 9.75282 15.9575 9.74561 15.9571C9.72885 15.9561 9.71656 15.944 9.73885 15.9571C9.75606 15.9673 9.75462 15.9599 9.73939 15.9571C9.73226 15.9557 9.7251 15.9546 9.71797 15.9533C9.6871 15.9475 9.65656 15.94 9.62651 15.9309C9.61034 15.926 9.5945 15.9202 9.57854 15.9147C9.57159 15.9126 9.56482 15.91 9.55831 15.9069C9.55822 15.9051 9.59943 15.9266 9.57767 15.9148C9.55021 15.9 9.52181 15.8876 9.49499 15.8715C9.48068 15.8628 9.46693 15.8534 9.45302 15.8442C9.4469 15.8405 9.44108 15.8363 9.43562 15.8317C9.43608 15.8299 9.46971 15.861 9.45205 15.8442C9.42973 15.8229 9.40585 15.8039 9.38471 15.7812C9.37987 15.7761 9.3753 15.7706 9.37048 15.7654L9.36581 15.7601C9.35389 15.7455 9.35367 15.7456 9.36515 15.7603C9.3768 15.7638 9.37627 15.7765 9.36521 15.7599C9.36127 15.754 9.35709 15.7483 9.35315 15.7423C9.3353 15.7169 9.32007 15.6897 9.30771 15.6612C9.30878 15.6603 9.32675 15.7141 9.31301 15.6735C9.31041 15.6659 9.30749 15.6583 9.30495 15.6507C9.2999 15.6354 9.29545 15.62 9.2916 15.6044C9.2878 15.589 9.28585 15.5731 9.28202 15.5578C9.27556 15.5319 9.28579 15.5782 9.28463 15.577C9.28096 15.5734 9.28252 15.551 9.28225 15.5456C9.28049 15.5111 9.28442 15.4776 9.28503 15.4433C9.28551 15.4167 9.28283 15.464 9.28228 15.4626C9.28241 15.4547 9.28382 15.4468 9.28645 15.4393C9.29043 15.4212 9.29414 15.4031 9.29901 15.3852C9.30459 15.3647 9.31101 15.3445 9.31828 15.3245C9.32099 15.3171 9.3243 15.3097 9.32683 15.3022C9.33608 15.2746 9.30851 15.3355 9.32371 15.3106C9.34463 15.2764 9.36021 15.2393 9.38242 15.2055C9.38768 15.1974 9.41968 15.1528 9.40269 15.1753C9.38578 15.1978 9.42007 15.1552 9.42657 15.148C9.45354 15.118 9.48525 15.0933 9.51317 15.0645C9.5297 15.0475 9.50164 15.0729 9.49998 15.0741C9.50863 15.0679 9.5171 15.0615 9.52585 15.0555C9.54112 15.045 9.55675 15.035 9.57277 15.0256C9.5908 15.0151 9.6112 15.0072 9.62868 14.996C9.64934 14.9828 9.61289 15.0018 9.61224 15.0022C9.62167 14.9975 9.63153 14.9938 9.64169 14.991C9.65871 14.985 9.73276 14.953 9.74829 14.963C9.74759 14.9625 9.69207 14.9675 9.73695 14.9646C9.74755 14.9639 9.75812 14.9629 9.76874 14.9624C9.79023 14.9615 9.81164 14.9621 9.8331 14.9632C9.89129 14.9628 9.947 14.9395 9.98815 14.8984C10.0293 14.8572 10.0526 14.8015 10.053 14.7433C10.0517 14.6854 10.0282 14.6302 9.98719 14.5892C9.94622 14.5483 9.89102 14.5247 9.8331 14.5235Z" fill="#3F3D56"/>
<path d="M12.9112 14.5235C12.7203 14.5223 12.5332 14.5773 12.3734 14.6817C12.2135 14.7861 12.0879 14.9353 12.0123 15.1106C11.9276 15.2821 11.9015 15.4767 11.9379 15.6645C11.9742 15.8524 12.0711 16.0231 12.2137 16.1506C12.3478 16.2647 12.5086 16.3429 12.6811 16.3779C12.8535 16.413 13.0321 16.4037 13.2 16.351C13.3718 16.291 13.5207 16.1793 13.6263 16.0312C13.7319 15.8831 13.789 15.7058 13.7897 15.5239C13.7974 15.3221 13.7427 15.1228 13.6332 14.9532C13.5236 14.7835 13.3644 14.6517 13.1773 14.5757C13.121 14.5605 13.0611 14.568 13.0104 14.5968C12.9597 14.6256 12.9225 14.6732 12.9068 14.7293C12.8929 14.7855 12.9011 14.8448 12.9297 14.8951C12.9583 14.9454 13.005 14.9829 13.0604 14.9998C13.0987 15.0146 13.0254 14.9809 13.0612 15.0004C13.0759 15.0084 13.0908 15.0157 13.1053 15.0242C13.1176 15.0315 13.1293 15.0395 13.1413 15.0473C13.1823 15.074 13.1212 15.0276 13.1475 15.0517C13.1702 15.0726 13.1928 15.0929 13.2134 15.116C13.2213 15.1247 13.2519 15.1489 13.2281 15.132C13.2099 15.119 13.2211 15.1221 13.2281 15.1325C13.2334 15.1404 13.239 15.148 13.2443 15.156C13.2614 15.1819 13.277 15.2089 13.291 15.2367C13.2942 15.2431 13.2972 15.2497 13.3004 15.2561C13.3066 15.2681 13.3155 15.2712 13.301 15.2562C13.2872 15.2418 13.296 15.2428 13.301 15.2566C13.3042 15.2657 13.3078 15.2747 13.3109 15.2838C13.3212 15.3134 13.3299 15.3436 13.3369 15.3743C13.3401 15.3884 13.3427 15.4026 13.3454 15.4169C13.3553 15.4674 13.344 15.3855 13.3464 15.423C13.3484 15.4543 13.3507 15.4853 13.3501 15.5167C13.3499 15.5311 13.3493 15.5455 13.3483 15.5598C13.3477 15.567 13.347 15.5741 13.3465 15.5813C13.3442 15.6158 13.3441 15.5687 13.349 15.5655C13.3389 15.5948 13.3322 15.6251 13.3291 15.6559C13.3251 15.6696 13.3205 15.6829 13.3161 15.6965C13.3008 15.7436 13.3305 15.6707 13.3141 15.703C13.3007 15.7307 13.2857 15.7576 13.2692 15.7836C13.2621 15.7944 13.2351 15.819 13.2571 15.8019C13.2811 15.7834 13.2446 15.8153 13.2368 15.8235C13.2268 15.8341 13.2164 15.8443 13.2056 15.8541C13.1987 15.8609 13.1914 15.8672 13.1838 15.8731C13.1824 15.8724 13.2205 15.8476 13.2 15.8607C13.1738 15.8774 13.1491 15.8952 13.1216 15.9097C13.1184 15.9114 13.0832 15.9277 13.0833 15.9283C13.0818 15.9223 13.1286 15.9118 13.0965 15.9222C13.0897 15.9244 13.0831 15.927 13.0764 15.9293C13.0472 15.9391 13.0173 15.947 12.9871 15.9531C12.9802 15.9544 12.9728 15.9551 12.966 15.9569C12.9433 15.9628 12.9877 15.9534 12.9891 15.9542C12.9723 15.9535 12.9554 15.955 12.939 15.9586C12.9078 15.9604 12.8766 15.9604 12.8454 15.9586C12.8381 15.9582 12.8309 15.9575 12.8237 15.9571C12.807 15.9561 12.7947 15.944 12.817 15.9571C12.8342 15.9673 12.8327 15.9599 12.8175 15.9571C12.8104 15.9557 12.8032 15.9546 12.7961 15.9533C12.7652 15.9475 12.7347 15.94 12.7046 15.9309C12.6885 15.926 12.6726 15.9202 12.6567 15.9147C12.6497 15.9126 12.6429 15.91 12.6364 15.9069C12.6363 15.9051 12.6776 15.9266 12.6558 15.9148C12.6283 15.9 12.5999 15.8876 12.5731 15.8715C12.5588 15.8628 12.545 15.8534 12.5311 15.8442C12.525 15.8405 12.5192 15.8363 12.5137 15.8317C12.5142 15.8299 12.5478 15.861 12.5302 15.8442C12.5079 15.8229 12.484 15.8039 12.4628 15.7812C12.458 15.7761 12.4534 15.7706 12.4486 15.7654L12.4439 15.7601C12.432 15.7455 12.4318 15.7456 12.4433 15.7603C12.4549 15.7638 12.4544 15.7765 12.4433 15.7599C12.4394 15.754 12.4352 15.7483 12.4313 15.7423C12.4134 15.7169 12.3982 15.6897 12.3858 15.6612C12.3869 15.6603 12.4049 15.7141 12.3911 15.6735C12.3885 15.6659 12.3856 15.6583 12.3831 15.6507C12.378 15.6354 12.3736 15.62 12.3697 15.6044C12.3659 15.589 12.364 15.5731 12.3601 15.5578C12.3537 15.5319 12.3639 15.5782 12.3627 15.577C12.3591 15.5734 12.3606 15.551 12.3604 15.5456C12.3586 15.5111 12.3625 15.4776 12.3632 15.4433C12.3636 15.4167 12.361 15.464 12.3604 15.4626C12.3605 15.4547 12.3619 15.4468 12.3646 15.4393C12.3686 15.4212 12.3723 15.4031 12.3771 15.3852C12.3827 15.3647 12.3891 15.3445 12.3964 15.3245C12.3991 15.3171 12.4024 15.3097 12.405 15.3022C12.4142 15.2746 12.3866 15.3355 12.4018 15.3106C12.4228 15.2764 12.4383 15.2393 12.4605 15.2055C12.4658 15.1974 12.4978 15.1528 12.4808 15.1753C12.4639 15.1978 12.4982 15.1552 12.5047 15.148C12.5317 15.118 12.5634 15.0933 12.5913 15.0645C12.6078 15.0475 12.5798 15.0729 12.5781 15.0741C12.5868 15.0679 12.5952 15.0615 12.604 15.0555C12.6192 15.045 12.6349 15.035 12.6509 15.0256C12.6689 15.0151 12.6893 15.0072 12.7068 14.996C12.7275 14.9828 12.691 15.0018 12.6904 15.0022C12.6998 14.9975 12.7097 14.9938 12.7198 14.991C12.7368 14.985 12.8109 14.953 12.8264 14.963C12.8257 14.9625 12.7702 14.9675 12.8151 14.9646C12.8257 14.9639 12.8362 14.9629 12.8469 14.9624C12.8684 14.9615 12.8898 14.9621 12.9112 14.9632C12.9694 14.9628 13.0251 14.9395 13.0663 14.8984C13.1074 14.8572 13.1307 14.8015 13.1311 14.7433C13.1298 14.6854 13.1063 14.6302 13.0653 14.5892C13.0244 14.5483 12.9691 14.5247 12.9112 14.5235Z" fill="#3F3D56"/>
<path d="M6.48643 26.0712L6.6825 33.5765L6.87858 41.0819C6.90332 42.0289 6.76954 43.3206 7.73013 43.8753C8.13085 44.1067 8.60996 44.1575 9.0641 44.1701C9.66697 44.1868 10.2718 44.1744 10.8749 44.1751L18.3869 44.1831C19.3738 44.1841 20.4579 44.1554 21.1651 43.3604C21.7553 42.6968 21.9226 41.7769 21.9818 40.9186C22.0599 39.7857 22.0224 38.6387 22.0325 37.5036L22.0663 33.7317L22.1 29.9597C22.1102 28.8138 22.1644 27.6586 22.1142 26.5135C22.0758 25.6397 21.9281 24.7067 21.3423 24.02C20.675 23.2378 19.6198 23.1322 18.6574 23.1014C16.1684 23.0218 13.6789 22.9545 11.1897 22.8811C10.617 22.8642 10.0427 22.8335 9.46969 22.841C8.96012 22.8312 8.45264 22.9089 7.96939 23.0708C7.16458 23.3721 6.5359 24.0949 6.56388 24.9914C6.56569 25.1791 6.60714 25.3644 6.6855 25.535C6.76386 25.7057 6.87738 25.8578 7.01861 25.9816C7.23342 26.1633 7.54598 25.8537 7.32955 25.6706C6.74291 25.1744 7.02701 24.2445 7.53982 23.804C8.28283 23.1659 9.44765 23.2694 10.3537 23.2961L17.4051 23.5041C17.952 23.5202 18.5004 23.5257 19.0466 23.5578C19.5342 23.5865 20.0435 23.6499 20.4799 23.8847C21.2345 24.2907 21.5291 25.1238 21.6282 25.9295C21.753 26.9433 21.6779 27.9893 21.6688 29.0076L21.6367 32.5964L21.5732 39.7008C21.5654 40.5649 21.5788 41.4568 21.288 42.283C21.1631 42.6663 20.9343 43.0074 20.627 43.2684C20.2412 43.5485 19.7802 43.7061 19.3037 43.7209C18.7684 43.7641 18.2271 43.7432 17.6906 43.7426L15.8584 43.7407L12.3406 43.7369L10.5084 43.735C9.97304 43.7344 9.43378 43.7532 8.89907 43.7237C8.48868 43.7012 8.03073 43.6302 7.72837 43.325C7.38967 42.983 7.35824 42.4549 7.34269 42.0014C7.18078 37.2788 7.09547 32.5523 6.97206 27.8285L6.92615 26.0712C6.91877 25.7888 6.47902 25.7877 6.48643 26.0712Z" fill="#3F3D56"/>
<path d="M34.336 26.0712L34.5321 33.5765L34.7282 41.0819C34.7529 42.0289 34.6191 43.3206 35.5797 43.8753C35.9805 44.1067 36.4596 44.1575 36.9137 44.1701C37.5166 44.1868 38.1214 44.1744 38.7245 44.1751L46.2365 44.1831C47.2235 44.1841 48.3075 44.1554 49.0147 43.3604C49.6049 42.6968 49.7722 41.7769 49.8314 40.9186C49.9095 39.7857 49.872 38.6387 49.8821 37.5036L49.9159 33.7317L49.9496 29.9597C49.9598 28.8138 50.014 27.6586 49.9638 26.5135C49.9254 25.6397 49.7777 24.7067 49.1919 24.02C48.5246 23.2378 47.4694 23.1322 46.507 23.1014C44.018 23.0218 41.5285 22.9545 39.0393 22.8811C38.4666 22.8642 37.8923 22.8335 37.3193 22.841C36.8097 22.8312 36.3023 22.9089 35.819 23.0708C35.0142 23.3721 34.3855 24.0949 34.4135 24.9914C34.4153 25.1791 34.4567 25.3644 34.5351 25.535C34.6135 25.7057 34.727 25.8578 34.8682 25.9816C35.083 26.1633 35.3956 25.8537 35.1792 25.6706C34.5925 25.1744 34.8766 24.2445 35.3894 23.804C36.1324 23.1659 37.2973 23.2694 38.2033 23.2961L45.2548 23.5041C45.8016 23.5202 46.35 23.5257 46.8962 23.5578C47.3838 23.5865 47.8931 23.6499 48.3295 23.8847C49.0842 24.2907 49.3787 25.1238 49.4778 25.9295C49.6026 26.9433 49.5275 27.9893 49.5184 29.0076L49.4863 32.5964L49.4228 39.7008C49.415 40.5649 49.4284 41.4568 49.1376 42.283C49.0127 42.6663 48.7839 43.0074 48.4766 43.2684C48.0908 43.5485 47.6298 43.7061 47.1533 43.7209C46.618 43.7641 46.0767 43.7432 45.5402 43.7426L43.708 43.7407L40.1902 43.7369L38.358 43.735C37.8226 43.7344 37.2834 43.7532 36.7487 43.7237C36.3383 43.7012 35.8803 43.6302 35.578 43.325C35.2393 42.983 35.2078 42.4549 35.1923 42.0014C35.0304 37.2788 34.9451 32.5523 34.8217 27.8285L34.7758 26.0712C34.7684 25.7888 34.3286 25.7877 34.336 26.0712Z" fill="#3F3D56"/>
<path d="M14.076 45.8066C13.9222 45.6587 13.7331 45.5528 13.5266 45.499C13.3201 45.4453 13.1033 45.4456 12.897 45.4999C12.6919 45.5561 12.502 45.6571 12.3407 45.7956C12.1794 45.9341 12.0508 46.1066 11.9642 46.3007C11.5487 47.1855 11.9209 48.2168 12.495 48.9393C13.0284 49.6106 13.895 50.0531 14.7392 49.7006C15.1238 49.5358 15.4469 49.2544 15.6631 48.8961C15.8792 48.5377 15.9773 48.1206 15.9437 47.7035C15.8373 46.7211 15.039 45.9255 14.1015 45.6855C13.8272 45.6153 13.7102 46.0393 13.9846 46.1095C14.3105 46.1885 14.6121 46.3459 14.8633 46.5679C15.1145 46.79 15.3077 47.0701 15.426 47.3839C15.5298 47.6908 15.5343 48.0227 15.4388 48.3323C15.3434 48.6419 15.1528 48.9136 14.8942 49.1089C13.5839 50.115 12.0852 48.1912 12.2321 46.9325C12.2478 46.7468 12.306 46.5672 12.4022 46.4075C12.4984 46.2479 12.63 46.1125 12.7869 46.0119C12.9396 45.922 13.1172 45.8838 13.2934 45.9028C13.4696 45.9218 13.635 45.9971 13.765 46.1175C13.8067 46.1565 13.8619 46.1777 13.919 46.1768C13.976 46.1758 14.0304 46.1527 14.0708 46.1124C14.1111 46.072 14.1342 46.0176 14.1352 45.9605C14.1361 45.9035 14.1149 45.8483 14.076 45.8066Z" fill="#3F3D56"/>
<path d="M40.941 30.5465C40.4279 30.37 39.8322 30.1947 39.3012 30.4016C38.8003 30.5968 38.5244 31.0746 38.4702 31.5933C38.4097 32.1716 38.6556 32.7232 38.9163 33.2239C39.2298 33.8262 39.5531 34.4236 39.8718 35.0233L40.9739 37.0973C40.999 37.1379 41.0365 37.1692 41.0808 37.1868C41.1252 37.2043 41.174 37.207 41.2201 37.1945C41.2661 37.1821 41.3069 37.1551 41.3364 37.1175C41.3658 37.08 41.3824 37.034 41.3836 36.9863C41.3213 36.2909 41.4317 35.5908 41.7049 34.9483C41.9867 34.2989 42.4473 33.7504 42.7747 33.1259C43.0761 32.551 43.277 31.8915 43.1173 31.2435C42.9882 30.7195 42.6071 30.2095 42.0578 30.0875C41.7803 30.0173 41.4868 30.0484 41.2302 30.1752C40.9735 30.302 40.7705 30.5162 40.6576 30.7793C40.5539 31.0426 40.979 31.1569 41.0816 30.8962C41.2279 30.5248 41.7399 30.411 42.0811 30.5531C42.5257 30.7383 42.7366 31.2696 42.7361 31.7213C42.7354 32.3387 42.419 32.903 42.0981 33.4101C41.7739 33.9223 41.4331 34.4177 41.2177 34.9887C40.98 35.6262 40.8865 36.3084 40.9438 36.9863L41.3536 36.8754C40.6379 35.5286 39.8829 34.1955 39.2074 32.8282C38.9476 32.3024 38.7139 31.5933 39.1122 31.0688C39.5205 30.5311 40.2999 30.7902 40.8241 30.9705C41.0923 31.0627 41.2075 30.6381 40.941 30.5465Z" fill="#3F3D56"/>
<path d="M12.9543 47.0356L13.6018 48.2915C13.6242 48.328 13.6568 48.3572 13.6954 48.3756C13.7341 48.394 13.7773 48.4009 13.8197 48.3953C13.8622 48.3898 13.9022 48.3721 13.9348 48.3443C13.9674 48.3166 13.9913 48.28 14.0037 48.239C14.1723 47.3696 14.5765 46.5632 15.172 45.9077C15.3625 45.6991 15.0524 45.3873 14.861 45.5968C14.2113 46.3057 13.7682 47.1791 13.5796 48.1221L13.9815 48.0695L13.334 46.8137C13.2043 46.5621 12.8247 46.7842 12.9543 47.0356Z" fill="#3F3D56"/>
<path d="M20.2974 41.2378L15.1814 45.7565C15.1526 45.782 15.115 45.7954 15.0766 45.7941C15.0381 45.7927 15.0017 45.7766 14.9747 45.7492C14.9477 45.7217 14.9323 45.685 14.9317 45.6465C14.931 45.608 14.9451 45.5708 14.9711 45.5424L19.7379 40.3379L20.2974 41.2378Z" fill="#3F3D56"/>
<path d="M27.1191 96.2305H29.1299L30.0869 88.4746H27.1191V96.2305Z" fill="#FFB6B6"/>
<path d="M26.0566 99.715H27.4987L27.756 98.3536L28.4153 99.715H32.2398C32.4232 99.715 32.6017 99.6564 32.7494 99.5478C32.897 99.4391 33.0061 99.2862 33.0607 99.1111C33.1152 98.9361 33.1124 98.7482 33.0526 98.5749C32.9928 98.4016 32.8792 98.252 32.7284 98.1478L29.6742 96.0385V94.6621L26.4617 94.8538L26.0566 99.715Z" fill="#2F2E41"/>
<path d="M44.3418 96.2305H46.3525L47.3095 88.4746H44.3418V96.2305Z" fill="#FFB6B6"/>
<path d="M43.2812 99.715H44.7233L44.9806 98.3536L45.6399 99.715H49.4644C49.6478 99.715 49.8263 99.6564 49.974 99.5478C50.1216 99.4391 50.2307 99.2862 50.2853 99.1111C50.3398 98.9361 50.337 98.7482 50.2772 98.5749C50.2174 98.4016 50.1038 98.252 49.953 98.1478L46.8988 96.0385V94.6621L43.6863 94.8538L43.2812 99.715Z" fill="#2F2E41"/>
<path d="M38.5295 55.1195L28.3314 53.9863C28.3314 53.9863 23.7989 59.8786 25.4986 64.9776V70.6557L26.745 92.8525L29.8611 93.0224L30.7676 82.9376L31.6174 78.9151L32.3332 63.5893L35.98 67.9804L36.3199 69.6801L37.453 70.4733L39.5493 73.3538L43.8552 91.0395L47.6498 91.0961C47.6498 91.0961 45.6115 72.7395 45.3849 72.7395C45.1583 72.7395 39.4926 60.3885 39.4926 60.3885V59.7349L39.266 58.4622C39.266 58.4622 39.8326 58.0089 39.606 57.7823C39.3793 57.5557 39.1527 56.8758 39.1527 56.8758L38.5295 55.1195Z" fill="#2F2E41"/>
<path d="M34.848 39.3125L36.8876 41.5788L39.7205 42.5986L38.1341 51.8902L38.6602 54.5621L39.4372 57.4992C36.4435 59.1552 32.8875 56.8682 29.6206 55.8524L26.4062 57.2725L26.5762 53.3633L26.6634 43.5137C26.6667 43.1354 26.7478 42.7618 26.9016 42.4161C27.0553 42.0705 27.2785 41.7601 27.5572 41.5043C27.8359 41.2485 28.1642 41.0527 28.5218 40.929C28.8793 40.8054 29.2584 40.7566 29.6356 40.7856L31.7886 39.1992L34.848 39.3125Z" fill="#63388B"/>
<path d="M16.3459 43.4692C16.362 43.6373 16.4147 43.7999 16.5004 43.9454C16.5862 44.091 16.7027 44.2159 16.842 44.3115C16.9812 44.4071 17.1397 44.471 17.3063 44.4988C17.4729 44.5265 17.6436 44.5173 17.8063 44.472L20.1447 47.8466L20.9397 45.8668L18.5972 42.9657C18.5029 42.6974 18.3134 42.4731 18.0647 42.3352C17.8161 42.1973 17.5254 42.1554 17.2479 42.2175C16.9704 42.2795 16.7253 42.4412 16.559 42.6719C16.3928 42.9026 16.3169 43.1863 16.3459 43.4692Z" fill="#FFB8B8"/>
<path d="M28.5879 40.8342C28.5879 40.8342 25.5442 40.6993 25.885 46.748L24.5902 49.4051L21.9859 46.9746L21.9741 46.201L19.7718 43.7393L18.0039 45.6936L19.1807 47.4927L19.4075 48.4975L20.1242 48.9353L21.9942 51.7943L22.8592 52.6457C22.8592 52.6457 23.9565 53.7392 25.1977 53.5744C25.5288 53.5314 25.8511 53.4366 26.1528 53.2935C26.7433 53.0125 27.3265 52.5085 27.817 51.6555C28.8448 49.8937 29.7662 48.072 30.5764 46.2002L28.5879 40.8342Z" fill="#63388B"/>
<path d="M41.9137 34.0055C41.8673 34.1679 41.857 34.3385 41.8836 34.5053C41.9101 34.672 41.973 34.831 42.0676 34.9709C42.1623 35.1107 42.2865 35.2282 42.4314 35.3149C42.5764 35.4016 42.7386 35.4554 42.9066 35.4726L43.8498 39.4684L45.3134 37.9161L44.1934 34.3596C44.2036 34.0755 44.1092 33.7974 43.9281 33.5781C43.7471 33.3589 43.4918 33.2137 43.2108 33.17C42.9299 33.1264 42.6426 33.1873 42.4035 33.3413C42.1645 33.4953 41.9902 33.7316 41.9137 34.0055Z" fill="#FFB8B8"/>
<path d="M35.4355 42.0596C35.4355 42.0596 37.0449 39.4727 41.8417 43.1732L44.7654 43.6073L44.2328 40.0851L43.6013 39.638L42.8157 36.4296L45.4272 36.0762L46.246 38.0639L46.9466 38.8191L46.9025 39.6577L48.2037 42.8164L48.417 44.0113C48.417 44.0113 48.6987 45.5346 47.8612 46.4653C47.6384 46.7141 47.378 46.9264 47.0894 47.0944C46.5238 47.4225 45.7784 47.6188 44.7975 47.5411C42.7632 47.393 40.7397 47.1232 38.7376 46.7333L35.4355 42.0596Z" fill="#63388B"/>
<path d="M35.2073 38.3667C37.1094 37.3269 37.8084 34.9421 36.7687 33.04C35.7289 31.138 33.3441 30.4389 31.442 31.4787C29.54 32.5184 28.8409 34.9033 29.8807 36.8053C30.9204 38.7074 33.3053 39.4064 35.2073 38.3667Z" fill="#FFB6B6"/>
<path d="M38.489 33.5682C38.4773 33.5726 38.467 33.577 38.4553 33.5814C38.4329 33.5912 38.4099 33.5995 38.3864 33.6063C38.2366 33.6609 38.0805 33.6963 37.9218 33.7118C37.8541 33.719 37.7861 33.7224 37.718 33.7221C37.6308 33.7221 37.5436 33.7163 37.4571 33.7045C37.361 33.6924 37.2659 33.6728 37.1728 33.6459C37.1286 33.6339 37.0851 33.6197 37.0423 33.6033C36.7512 33.4991 36.4883 33.3288 36.2741 33.1057C36.06 32.8827 35.9005 32.613 35.8082 32.3179V32.3164C35.7983 32.2876 35.79 32.2582 35.7832 32.2285C35.7401 32.0634 35.7184 31.8934 35.7188 31.7228V31.7198C35.7187 31.3037 35.8495 30.8982 36.0925 30.5604C36.2391 30.3538 36.4079 30.3196 36.3138 30.0826C36.0139 29.3266 37.2506 28.7124 37.979 29.0463C38.0053 29.0439 38.0317 29.0429 38.0581 29.0434C38.5491 29.0434 38.7294 29.7689 39.0211 30.1779L39.0126 30.1806C38.9384 30.2064 38.8741 30.2547 38.8288 30.3188C38.7834 30.3829 38.7591 30.4596 38.7595 30.5381C38.7598 30.6166 38.7847 30.6931 38.8306 30.7568C38.8765 30.8205 38.9412 30.8683 39.0156 30.8934C39.2103 30.9574 39.4071 31.014 39.6059 31.0632C40.2601 31.8398 39.5022 34.1049 38.489 33.5682Z" fill="#2F2E41"/>
<path d="M38.1228 35.6455C37.9044 36.4707 37.5028 37.2754 36.8388 37.8104C36.1733 38.3454 33.0469 39.6089 32.786 38.5199C32.9604 39.2806 32.8534 39.5708 32.569 39.842C32.5207 39.776 32.4694 39.713 32.4166 39.6514C32.2222 39.4263 31.9889 39.2381 31.7277 39.0959C31.7198 39.5551 31.7516 40.0142 31.823 40.4679C31.7058 40.5754 31.5943 40.6889 31.4888 40.8079C30.9875 39.3011 29.8849 37.4951 30.6899 36.1263C31.0095 35.583 30.7444 35.5079 30.4628 35.4447C29.9711 35.3345 29.705 33.315 29.5892 32.8239C29.4455 32.2083 29.3898 31.5004 29.7724 30.9961C30.1549 30.4919 31.1194 30.4729 31.3129 31.0753L31.7204 30.5242C32.248 29.3706 33.6405 29.6051 34.8996 29.7576C36.1587 29.9086 37.2683 30.7968 37.8326 31.9328C38.3954 33.0687 38.4467 34.4187 38.1228 35.6455Z" fill="#2F2E41"/>
<path d="M36.1514 30.3661C36.1229 31.0624 36.2997 31.7518 36.6598 32.3485C37.0198 32.9451 37.5474 33.4229 38.1767 33.7222C38.4323 33.8388 38.6561 33.4599 38.3987 33.3425C37.8363 33.0814 37.3642 32.659 37.0424 32.1291C36.7206 31.5991 36.5635 30.9855 36.5911 30.3661C36.6065 30.0833 36.1667 30.0841 36.1514 30.3661Z" fill="#FF6584"/>
<path d="M18.8921 97.0712C18.8138 97.0748 18.7364 97.0543 18.6702 97.0124C18.6041 96.9705 18.5524 96.9093 18.5222 96.8371C18.492 96.7648 18.4847 96.685 18.5013 96.6085C18.518 96.532 18.5578 96.4624 18.6153 96.4093L18.6414 96.3053C18.638 96.2969 18.6345 96.2886 18.631 96.2803C18.2794 95.4419 16.0358 97.7791 15.9388 98.567C15.8961 98.9153 15.9141 99.2684 15.9921 99.6105C15.2653 98.0252 14.8879 96.3022 14.8855 94.5582C14.8853 94.1206 14.9096 93.6833 14.9583 93.2483C14.9985 92.8918 15.0543 92.5378 15.1257 92.1863C15.5152 90.2793 16.3516 88.492 17.566 86.9709C18.2606 87.0097 18.8693 86.9039 18.928 85.5578C18.9385 85.3184 19.1161 85.1111 19.1552 84.8752C19.0889 84.8839 19.0215 84.8893 18.9552 84.8937C18.9346 84.8948 18.9128 84.8958 18.8922 84.8969L18.8844 84.8973C18.8115 84.9006 18.7392 84.8827 18.6763 84.8458C18.6133 84.809 18.5624 84.7547 18.5295 84.6896C18.4967 84.6245 18.4834 84.5512 18.4912 84.4787C18.499 84.4062 18.5276 84.3375 18.5736 84.2808C18.6022 84.2456 18.6309 84.2104 18.6595 84.1752C18.703 84.1208 18.7476 84.0675 18.7911 84.0132C18.7961 84.008 18.8008 84.0026 18.8052 83.9969C18.8552 83.9349 18.9052 83.8741 18.9552 83.8121C18.8639 83.6704 18.7412 83.5518 18.5965 83.4654C18.0954 83.1719 17.4041 83.3751 17.0421 83.8284C16.679 84.2817 16.6106 84.9176 16.7366 85.4839C16.8606 85.9658 17.0658 86.4231 17.3432 86.8361C17.316 86.8709 17.2877 86.9046 17.2606 86.9394C16.7638 87.5782 16.3309 88.2641 15.9679 88.9873C16.0706 88.1852 14.8148 85.2884 14.3292 84.6748C13.7459 83.9378 12.5498 84.2595 12.447 85.1937C12.446 85.2028 12.445 85.2118 12.4441 85.2209C12.5162 85.2615 12.5868 85.3047 12.6559 85.3504C12.7427 85.4084 12.81 85.4913 12.8489 85.5881C12.8877 85.685 12.8965 85.7913 12.8739 85.8932C12.8513 85.9951 12.7985 86.0879 12.7223 86.1592C12.6462 86.2306 12.5502 86.2773 12.447 86.2932L12.4365 86.2948C11.471 87.6734 14.5662 91.2615 15.3409 90.4558C14.9763 91.4893 14.7475 92.5657 14.6605 93.6581C14.6112 94.3026 14.6141 94.95 14.6692 95.5941L14.6659 95.5712C14.4938 94.1686 11.5406 92.083 10.6782 92.2567C10.1814 92.3568 9.69206 92.3341 9.7675 92.8352C9.7687 92.8432 9.76993 92.8512 9.77117 92.8592C9.90502 92.9137 10.0354 92.9765 10.1614 93.0472C10.2335 93.0879 10.3041 93.1311 10.3732 93.1768C10.46 93.2348 10.5273 93.3176 10.5662 93.4145C10.605 93.5114 10.6138 93.6177 10.5912 93.7196C10.5686 93.8215 10.5158 93.9142 10.4396 93.9856C10.3635 94.057 10.2675 94.1037 10.1643 94.1196L10.1538 94.1212C10.1462 94.1223 10.1396 94.1234 10.132 94.1245C9.69255 95.6367 12.9518 98.0772 14.9333 97.3007H14.9344C15.1308 98.154 15.4153 98.9845 15.7833 99.779H18.8161C18.8269 99.7453 18.8367 99.7105 18.8465 99.6768C18.5658 99.6945 18.284 99.6777 18.0073 99.6268C18.2323 99.3507 18.4574 99.0725 18.6824 98.7964C18.6874 98.7912 18.6921 98.7858 18.6965 98.7801C18.8106 98.6388 18.9259 98.4985 19.04 98.3572L19.04 98.357C19.0461 97.9239 18.9963 97.4917 18.8921 97.0712ZM15.4192 90.2395L15.4208 90.2374L15.4192 90.2417V90.2395ZM14.7474 96.2952L14.7214 96.2365C14.7224 96.1941 14.7224 96.1517 14.7214 96.1082C14.7214 96.0963 14.7192 96.0843 14.7192 96.0724C14.729 96.1474 14.7377 96.2224 14.7485 96.2974L14.7474 96.2952Z" fill="#63388B"/>
<path d="M52.6025 99.707H9.78516V100H52.6025V99.707Z" fill="#CCCCCC"/>
</svg>
