<svg width="147" height="100" viewBox="0 0 147 100" fill="none" xmlns="http://www.w3.org/2000/svg">
<path d="M138.196 19.0762C138.281 19.0762 138.364 19.0595 138.442 19.0271C138.521 18.9948 138.592 18.9473 138.651 18.8875C138.711 18.8277 138.759 18.7567 138.791 18.6785C138.823 18.6004 138.84 18.5166 138.84 18.432V11.5607C138.841 11.4574 138.817 11.3553 138.77 11.2634C138.723 11.1714 138.654 11.0923 138.569 11.0328C138.485 10.9733 138.387 10.9353 138.285 10.9219C138.182 10.9085 138.078 10.9202 137.981 10.956V3.18634C137.981 2.90435 137.926 2.62513 137.818 2.36461C137.71 2.10409 137.552 1.86737 137.352 1.66798C137.153 1.46859 136.916 1.31042 136.656 1.20251C136.395 1.0946 136.116 1.03906 135.834 1.03906H65.618C65.336 1.03906 65.0568 1.0946 64.7963 1.20251C64.5357 1.31042 64.299 1.46858 64.0996 1.66798C63.9002 1.86737 63.7421 2.10408 63.6342 2.3646C63.5262 2.62512 63.4707 2.90434 63.4707 3.18633V97.4518C63.4707 98.0213 63.6969 98.5675 64.0996 98.9701C64.5023 99.3728 65.0485 99.5991 65.618 99.5991H135.834C136.403 99.5991 136.95 99.3728 137.352 98.9701C137.755 98.5675 137.981 98.0213 137.981 97.4518V28.6995C138.078 28.7353 138.182 28.747 138.285 28.7336C138.387 28.7202 138.485 28.6821 138.569 28.6226C138.654 28.5631 138.723 28.484 138.77 28.3921C138.817 28.3001 138.841 28.1981 138.84 28.0947V21.2235C138.841 21.1201 138.817 21.0181 138.77 20.9261C138.723 20.8342 138.654 20.7551 138.569 20.6956C138.485 20.6361 138.387 20.598 138.285 20.5846C138.182 20.5712 138.078 20.5829 137.981 20.6187V19.0367C138.05 19.0621 138.123 19.0755 138.196 19.0762Z" fill="#3F3D56"/>
<path d="M131.54 5.22656C131.822 5.22656 132.101 5.2821 132.362 5.39001C132.622 5.49792 132.859 5.65609 133.058 5.85549C133.258 6.05488 133.416 6.29159 133.524 6.55211C133.632 6.81263 133.687 7.09186 133.687 7.37384V93.2649C133.687 93.8344 133.461 94.3806 133.058 94.7833C132.655 95.186 132.109 95.4122 131.54 95.4122H69.9129C69.3434 95.4122 68.7972 95.186 68.3946 94.7833C67.9919 94.3806 67.7656 93.8344 67.7656 93.2649V7.37384C67.7656 6.80435 67.9919 6.25818 68.3945 5.85549C68.7972 5.4528 69.3434 5.22656 69.9129 5.22656H131.54Z" fill="white"/>
<path d="M77.8948 22.7564C78.5529 22.7564 79.0865 22.2228 79.0865 21.5647C79.0865 20.9066 78.5529 20.373 77.8948 20.373C77.2366 20.373 76.7031 20.9066 76.7031 21.5647C76.7031 22.2228 77.2366 22.7564 77.8948 22.7564Z" fill="#E6E6E6"/>
<path d="M83.928 22.7564C84.5861 22.7564 85.1197 22.2228 85.1197 21.5647C85.1197 20.9066 84.5861 20.373 83.928 20.373C83.2699 20.373 82.7363 20.9066 82.7363 21.5647C82.7363 22.2228 83.2699 22.7564 83.928 22.7564Z" fill="#E6E6E6"/>
<path d="M89.9612 22.7564C90.6193 22.7564 91.1529 22.2228 91.1529 21.5647C91.1529 20.9066 90.6193 20.373 89.9612 20.373C89.3031 20.373 88.7695 20.9066 88.7695 21.5647C88.7695 22.2228 89.3031 22.7564 89.9612 22.7564Z" fill="#E6E6E6"/>
<path d="M95.9924 22.7564C96.6506 22.7564 97.1841 22.2228 97.1841 21.5647C97.1841 20.9066 96.6506 20.373 95.9924 20.373C95.3343 20.373 94.8008 20.9066 94.8008 21.5647C94.8008 22.2228 95.3343 22.7564 95.9924 22.7564Z" fill="#E6E6E6"/>
<path d="M102.024 22.7564C102.682 22.7564 103.215 22.2228 103.215 21.5647C103.215 20.9066 102.682 20.373 102.024 20.373C101.366 20.373 100.832 20.9066 100.832 21.5647C100.832 22.2228 101.366 22.7564 102.024 22.7564Z" fill="#E6E6E6"/>
<path d="M108.057 22.7564C108.715 22.7564 109.249 22.2228 109.249 21.5647C109.249 20.9066 108.715 20.373 108.057 20.373C107.399 20.373 106.865 20.9066 106.865 21.5647C106.865 22.2228 107.399 22.7564 108.057 22.7564Z" fill="#E6E6E6"/>
<path d="M114.088 22.7564C114.746 22.7564 115.28 22.2228 115.28 21.5647C115.28 20.9066 114.746 20.373 114.088 20.373C113.43 20.373 112.896 20.9066 112.896 21.5647C112.896 22.2228 113.43 22.7564 114.088 22.7564Z" fill="#E6E6E6"/>
<path d="M120.121 22.7564C120.779 22.7564 121.313 22.2228 121.313 21.5647C121.313 20.9066 120.779 20.373 120.121 20.373C119.463 20.373 118.93 20.9066 118.93 21.5647C118.93 22.2228 119.463 22.7564 120.121 22.7564Z" fill="#E6E6E6"/>
<path d="M126.153 22.7564C126.811 22.7564 127.344 22.2228 127.344 21.5647C127.344 20.9066 126.811 20.373 126.153 20.373C125.494 20.373 124.961 20.9066 124.961 21.5647C124.961 22.2228 125.494 22.7564 126.153 22.7564Z" fill="#E6E6E6"/>
<path d="M132.186 22.7564C132.844 22.7564 133.377 22.2228 133.377 21.5647C133.377 20.9066 132.844 20.373 132.186 20.373C131.528 20.373 130.994 20.9066 130.994 21.5647C130.994 22.2228 131.528 22.7564 132.186 22.7564Z" fill="#E6E6E6"/>
<path d="M77.8948 28.8638C78.5529 28.8638 79.0865 28.3303 79.0865 27.6721C79.0865 27.014 78.5529 26.4805 77.8948 26.4805C77.2366 26.4805 76.7031 27.014 76.7031 27.6721C76.7031 28.3303 77.2366 28.8638 77.8948 28.8638Z" fill="#E6E6E6"/>
<path d="M83.928 28.8638C84.5861 28.8638 85.1197 28.3303 85.1197 27.6721C85.1197 27.014 84.5861 26.4805 83.928 26.4805C83.2699 26.4805 82.7363 27.014 82.7363 27.6721C82.7363 28.3303 83.2699 28.8638 83.928 28.8638Z" fill="#E6E6E6"/>
<path d="M89.9612 28.8638C90.6193 28.8638 91.1529 28.3303 91.1529 27.6721C91.1529 27.014 90.6193 26.4805 89.9612 26.4805C89.3031 26.4805 88.7695 27.014 88.7695 27.6721C88.7695 28.3303 89.3031 28.8638 89.9612 28.8638Z" fill="#E6E6E6"/>
<path d="M95.9924 28.8638C96.6506 28.8638 97.1841 28.3303 97.1841 27.6721C97.1841 27.014 96.6506 26.4805 95.9924 26.4805C95.3343 26.4805 94.8008 27.014 94.8008 27.6721C94.8008 28.3303 95.3343 28.8638 95.9924 28.8638Z" fill="#E6E6E6"/>
<path d="M102.024 28.8638C102.682 28.8638 103.215 28.3303 103.215 27.6721C103.215 27.014 102.682 26.4805 102.024 26.4805C101.366 26.4805 100.832 27.014 100.832 27.6721C100.832 28.3303 101.366 28.8638 102.024 28.8638Z" fill="#E6E6E6"/>
<path d="M108.057 28.8638C108.715 28.8638 109.249 28.3303 109.249 27.6721C109.249 27.014 108.715 26.4805 108.057 26.4805C107.399 26.4805 106.865 27.014 106.865 27.6721C106.865 28.3303 107.399 28.8638 108.057 28.8638Z" fill="#E6E6E6"/>
<path d="M114.088 28.8638C114.746 28.8638 115.28 28.3303 115.28 27.6721C115.28 27.014 114.746 26.4805 114.088 26.4805C113.43 26.4805 112.896 27.014 112.896 27.6721C112.896 28.3303 113.43 28.8638 114.088 28.8638Z" fill="#E6E6E6"/>
<path d="M120.121 28.8638C120.779 28.8638 121.313 28.3303 121.313 27.6721C121.313 27.014 120.779 26.4805 120.121 26.4805C119.463 26.4805 118.93 27.014 118.93 27.6721C118.93 28.3303 119.463 28.8638 120.121 28.8638Z" fill="#E6E6E6"/>
<path d="M126.153 28.8638C126.811 28.8638 127.344 28.3303 127.344 27.6721C127.344 27.014 126.811 26.4805 126.153 26.4805C125.494 26.4805 124.961 27.014 124.961 27.6721C124.961 28.3303 125.494 28.8638 126.153 28.8638Z" fill="#E6E6E6"/>
<path d="M132.186 28.8638C132.844 28.8638 133.377 28.3303 133.377 27.6721C133.377 27.014 132.844 26.4805 132.186 26.4805C131.528 26.4805 130.994 27.014 130.994 27.6721C130.994 28.3303 131.528 28.8638 132.186 28.8638Z" fill="#E6E6E6"/>
<path d="M77.8948 34.9732C78.5529 34.9732 79.0865 34.4396 79.0865 33.7815C79.0865 33.1234 78.5529 32.5898 77.8948 32.5898C77.2366 32.5898 76.7031 33.1234 76.7031 33.7815C76.7031 34.4396 77.2366 34.9732 77.8948 34.9732Z" fill="#E6E6E6"/>
<path d="M83.928 34.9732C84.5861 34.9732 85.1197 34.4396 85.1197 33.7815C85.1197 33.1234 84.5861 32.5898 83.928 32.5898C83.2699 32.5898 82.7363 33.1234 82.7363 33.7815C82.7363 34.4396 83.2699 34.9732 83.928 34.9732Z" fill="#E6E6E6"/>
<path d="M89.9612 34.9732C90.6193 34.9732 91.1529 34.4396 91.1529 33.7815C91.1529 33.1234 90.6193 32.5898 89.9612 32.5898C89.3031 32.5898 88.7695 33.1234 88.7695 33.7815C88.7695 34.4396 89.3031 34.9732 89.9612 34.9732Z" fill="#E6E6E6"/>
<path d="M95.9924 34.9732C96.6506 34.9732 97.1841 34.4396 97.1841 33.7815C97.1841 33.1234 96.6506 32.5898 95.9924 32.5898C95.3343 32.5898 94.8008 33.1234 94.8008 33.7815C94.8008 34.4396 95.3343 34.9732 95.9924 34.9732Z" fill="#E6E6E6"/>
<path d="M102.024 34.9732C102.682 34.9732 103.215 34.4396 103.215 33.7815C103.215 33.1234 102.682 32.5898 102.024 32.5898C101.366 32.5898 100.832 33.1234 100.832 33.7815C100.832 34.4396 101.366 34.9732 102.024 34.9732Z" fill="#E6E6E6"/>
<path d="M108.057 34.9732C108.715 34.9732 109.249 34.4396 109.249 33.7815C109.249 33.1234 108.715 32.5898 108.057 32.5898C107.399 32.5898 106.865 33.1234 106.865 33.7815C106.865 34.4396 107.399 34.9732 108.057 34.9732Z" fill="#E6E6E6"/>
<path d="M114.088 34.9732C114.746 34.9732 115.28 34.4396 115.28 33.7815C115.28 33.1234 114.746 32.5898 114.088 32.5898C113.43 32.5898 112.896 33.1234 112.896 33.7815C112.896 34.4396 113.43 34.9732 114.088 34.9732Z" fill="#E6E6E6"/>
<path d="M120.121 34.9732C120.779 34.9732 121.313 34.4396 121.313 33.7815C121.313 33.1234 120.779 32.5898 120.121 32.5898C119.463 32.5898 118.93 33.1234 118.93 33.7815C118.93 34.4396 119.463 34.9732 120.121 34.9732Z" fill="#E6E6E6"/>
<path d="M126.153 34.9732C126.811 34.9732 127.344 34.4396 127.344 33.7815C127.344 33.1234 126.811 32.5898 126.153 32.5898C125.494 32.5898 124.961 33.1234 124.961 33.7815C124.961 34.4396 125.494 34.9732 126.153 34.9732Z" fill="#E6E6E6"/>
<path d="M132.186 34.9732C132.844 34.9732 133.377 34.4396 133.377 33.7815C133.377 33.1234 132.844 32.5898 132.186 32.5898C131.528 32.5898 130.994 33.1234 130.994 33.7815C130.994 34.4396 131.528 34.9732 132.186 34.9732Z" fill="#E6E6E6"/>
<path d="M77.8948 41.0806C78.5529 41.0806 79.0865 40.5471 79.0865 39.8889C79.0865 39.2308 78.5529 38.6973 77.8948 38.6973C77.2366 38.6973 76.7031 39.2308 76.7031 39.8889C76.7031 40.5471 77.2366 41.0806 77.8948 41.0806Z" fill="#E6E6E6"/>
<path d="M83.928 41.0806C84.5861 41.0806 85.1197 40.5471 85.1197 39.8889C85.1197 39.2308 84.5861 38.6973 83.928 38.6973C83.2699 38.6973 82.7363 39.2308 82.7363 39.8889C82.7363 40.5471 83.2699 41.0806 83.928 41.0806Z" fill="#E6E6E6"/>
<path d="M89.9612 41.0806C90.6193 41.0806 91.1529 40.5471 91.1529 39.8889C91.1529 39.2308 90.6193 38.6973 89.9612 38.6973C89.3031 38.6973 88.7695 39.2308 88.7695 39.8889C88.7695 40.5471 89.3031 41.0806 89.9612 41.0806Z" fill="#E6E6E6"/>
<path d="M95.9924 41.0806C96.6506 41.0806 97.1841 40.5471 97.1841 39.8889C97.1841 39.2308 96.6506 38.6973 95.9924 38.6973C95.3343 38.6973 94.8008 39.2308 94.8008 39.8889C94.8008 40.5471 95.3343 41.0806 95.9924 41.0806Z" fill="#E6E6E6"/>
<path d="M102.024 41.0806C102.682 41.0806 103.215 40.5471 103.215 39.8889C103.215 39.2308 102.682 38.6973 102.024 38.6973C101.366 38.6973 100.832 39.2308 100.832 39.8889C100.832 40.5471 101.366 41.0806 102.024 41.0806Z" fill="#E6E6E6"/>
<path d="M108.057 41.0806C108.715 41.0806 109.249 40.5471 109.249 39.8889C109.249 39.2308 108.715 38.6973 108.057 38.6973C107.399 38.6973 106.865 39.2308 106.865 39.8889C106.865 40.5471 107.399 41.0806 108.057 41.0806Z" fill="#E6E6E6"/>
<path d="M114.088 41.0806C114.746 41.0806 115.28 40.5471 115.28 39.8889C115.28 39.2308 114.746 38.6973 114.088 38.6973C113.43 38.6973 112.896 39.2308 112.896 39.8889C112.896 40.5471 113.43 41.0806 114.088 41.0806Z" fill="#E6E6E6"/>
<path d="M120.121 41.0806C120.779 41.0806 121.313 40.5471 121.313 39.8889C121.313 39.2308 120.779 38.6973 120.121 38.6973C119.463 38.6973 118.93 39.2308 118.93 39.8889C118.93 40.5471 119.463 41.0806 120.121 41.0806Z" fill="#E6E6E6"/>
<path d="M126.153 41.0806C126.811 41.0806 127.344 40.5471 127.344 39.8889C127.344 39.2308 126.811 38.6973 126.153 38.6973C125.494 38.6973 124.961 39.2308 124.961 39.8889C124.961 40.5471 125.494 41.0806 126.153 41.0806Z" fill="#E6E6E6"/>
<path d="M132.186 41.0806C132.844 41.0806 133.377 40.5471 133.377 39.8889C133.377 39.2308 132.844 38.6973 132.186 38.6973C131.528 38.6973 130.994 39.2308 130.994 39.8889C130.994 40.5471 131.528 41.0806 132.186 41.0806Z" fill="#E6E6E6"/>
<path d="M77.8948 47.188C78.5529 47.188 79.0865 46.6545 79.0865 45.9964C79.0865 45.3382 78.5529 44.8047 77.8948 44.8047C77.2366 44.8047 76.7031 45.3382 76.7031 45.9964C76.7031 46.6545 77.2366 47.188 77.8948 47.188Z" fill="#E6E6E6"/>
<path d="M83.928 47.188C84.5861 47.188 85.1197 46.6545 85.1197 45.9964C85.1197 45.3382 84.5861 44.8047 83.928 44.8047C83.2699 44.8047 82.7363 45.3382 82.7363 45.9964C82.7363 46.6545 83.2699 47.188 83.928 47.188Z" fill="#E6E6E6"/>
<path d="M89.9612 47.188C90.6193 47.188 91.1529 46.6545 91.1529 45.9964C91.1529 45.3382 90.6193 44.8047 89.9612 44.8047C89.3031 44.8047 88.7695 45.3382 88.7695 45.9964C88.7695 46.6545 89.3031 47.188 89.9612 47.188Z" fill="#E6E6E6"/>
<path d="M95.9924 47.188C96.6506 47.188 97.1841 46.6545 97.1841 45.9964C97.1841 45.3382 96.6506 44.8047 95.9924 44.8047C95.3343 44.8047 94.8008 45.3382 94.8008 45.9964C94.8008 46.6545 95.3343 47.188 95.9924 47.188Z" fill="#E6E6E6"/>
<path d="M102.024 47.188C102.682 47.188 103.215 46.6545 103.215 45.9964C103.215 45.3382 102.682 44.8047 102.024 44.8047C101.366 44.8047 100.832 45.3382 100.832 45.9964C100.832 46.6545 101.366 47.188 102.024 47.188Z" fill="#E6E6E6"/>
<path d="M108.057 47.188C108.715 47.188 109.249 46.6545 109.249 45.9964C109.249 45.3382 108.715 44.8047 108.057 44.8047C107.399 44.8047 106.865 45.3382 106.865 45.9964C106.865 46.6545 107.399 47.188 108.057 47.188Z" fill="#E6E6E6"/>
<path d="M114.088 47.188C114.746 47.188 115.28 46.6545 115.28 45.9964C115.28 45.3382 114.746 44.8047 114.088 44.8047C113.43 44.8047 112.896 45.3382 112.896 45.9964C112.896 46.6545 113.43 47.188 114.088 47.188Z" fill="#E6E6E6"/>
<path d="M120.121 47.188C120.779 47.188 121.313 46.6545 121.313 45.9964C121.313 45.3382 120.779 44.8047 120.121 44.8047C119.463 44.8047 118.93 45.3382 118.93 45.9964C118.93 46.6545 119.463 47.188 120.121 47.188Z" fill="#E6E6E6"/>
<path d="M126.153 47.188C126.811 47.188 127.344 46.6545 127.344 45.9964C127.344 45.3382 126.811 44.8047 126.153 44.8047C125.494 44.8047 124.961 45.3382 124.961 45.9964C124.961 46.6545 125.494 47.188 126.153 47.188Z" fill="#E6E6E6"/>
<path d="M132.186 47.188C132.844 47.188 133.377 46.6545 133.377 45.9964C133.377 45.3382 132.844 44.8047 132.186 44.8047C131.528 44.8047 130.994 45.3382 130.994 45.9964C130.994 46.6545 131.528 47.188 132.186 47.188Z" fill="#E6E6E6"/>
<path d="M77.8948 53.2974C78.5529 53.2974 79.0865 52.7639 79.0865 52.1057C79.0865 51.4476 78.5529 50.9141 77.8948 50.9141C77.2366 50.9141 76.7031 51.4476 76.7031 52.1057C76.7031 52.7639 77.2366 53.2974 77.8948 53.2974Z" fill="#E6E6E6"/>
<path d="M83.928 53.2974C84.5861 53.2974 85.1197 52.7639 85.1197 52.1057C85.1197 51.4476 84.5861 50.9141 83.928 50.9141C83.2699 50.9141 82.7363 51.4476 82.7363 52.1057C82.7363 52.7639 83.2699 53.2974 83.928 53.2974Z" fill="#E6E6E6"/>
<path d="M89.9612 53.2974C90.6193 53.2974 91.1529 52.7639 91.1529 52.1057C91.1529 51.4476 90.6193 50.9141 89.9612 50.9141C89.3031 50.9141 88.7695 51.4476 88.7695 52.1057C88.7695 52.7639 89.3031 53.2974 89.9612 53.2974Z" fill="#E6E6E6"/>
<path d="M95.9924 53.2974C96.6506 53.2974 97.1841 52.7639 97.1841 52.1057C97.1841 51.4476 96.6506 50.9141 95.9924 50.9141C95.3343 50.9141 94.8008 51.4476 94.8008 52.1057C94.8008 52.7639 95.3343 53.2974 95.9924 53.2974Z" fill="#E6E6E6"/>
<path d="M102.024 53.2974C102.682 53.2974 103.215 52.7639 103.215 52.1057C103.215 51.4476 102.682 50.9141 102.024 50.9141C101.366 50.9141 100.832 51.4476 100.832 52.1057C100.832 52.7639 101.366 53.2974 102.024 53.2974Z" fill="#E6E6E6"/>
<path d="M108.057 53.2974C108.715 53.2974 109.249 52.7639 109.249 52.1057C109.249 51.4476 108.715 50.9141 108.057 50.9141C107.399 50.9141 106.865 51.4476 106.865 52.1057C106.865 52.7639 107.399 53.2974 108.057 53.2974Z" fill="#E6E6E6"/>
<path d="M114.088 53.2974C114.746 53.2974 115.28 52.7639 115.28 52.1057C115.28 51.4476 114.746 50.9141 114.088 50.9141C113.43 50.9141 112.896 51.4476 112.896 52.1057C112.896 52.7639 113.43 53.2974 114.088 53.2974Z" fill="#E6E6E6"/>
<path d="M120.121 53.2974C120.779 53.2974 121.313 52.7639 121.313 52.1057C121.313 51.4476 120.779 50.9141 120.121 50.9141C119.463 50.9141 118.93 51.4476 118.93 52.1057C118.93 52.7639 119.463 53.2974 120.121 53.2974Z" fill="#E6E6E6"/>
<path d="M126.153 53.2974C126.811 53.2974 127.344 52.7639 127.344 52.1057C127.344 51.4476 126.811 50.9141 126.153 50.9141C125.494 50.9141 124.961 51.4476 124.961 52.1057C124.961 52.7639 125.494 53.2974 126.153 53.2974Z" fill="#E6E6E6"/>
<path d="M132.186 53.2974C132.844 53.2974 133.377 52.7639 133.377 52.1057C133.377 51.4476 132.844 50.9141 132.186 50.9141C131.528 50.9141 130.994 51.4476 130.994 52.1057C130.994 52.7639 131.528 53.2974 132.186 53.2974Z" fill="#E6E6E6"/>
<path d="M77.8948 59.4048C78.5529 59.4048 79.0865 58.8713 79.0865 58.2132C79.0865 57.555 78.5529 57.0215 77.8948 57.0215C77.2366 57.0215 76.7031 57.555 76.7031 58.2132C76.7031 58.8713 77.2366 59.4048 77.8948 59.4048Z" fill="#E6E6E6"/>
<path d="M83.928 59.4048C84.5861 59.4048 85.1197 58.8713 85.1197 58.2132C85.1197 57.555 84.5861 57.0215 83.928 57.0215C83.2699 57.0215 82.7363 57.555 82.7363 58.2132C82.7363 58.8713 83.2699 59.4048 83.928 59.4048Z" fill="#E6E6E6"/>
<path d="M89.9612 59.4048C90.6193 59.4048 91.1529 58.8713 91.1529 58.2132C91.1529 57.555 90.6193 57.0215 89.9612 57.0215C89.3031 57.0215 88.7695 57.555 88.7695 58.2132C88.7695 58.8713 89.3031 59.4048 89.9612 59.4048Z" fill="#E6E6E6"/>
<path d="M95.9924 59.4048C96.6506 59.4048 97.1841 58.8713 97.1841 58.2132C97.1841 57.555 96.6506 57.0215 95.9924 57.0215C95.3343 57.0215 94.8008 57.555 94.8008 58.2132C94.8008 58.8713 95.3343 59.4048 95.9924 59.4048Z" fill="#E6E6E6"/>
<path d="M102.024 59.4048C102.682 59.4048 103.215 58.8713 103.215 58.2132C103.215 57.555 102.682 57.0215 102.024 57.0215C101.366 57.0215 100.832 57.555 100.832 58.2132C100.832 58.8713 101.366 59.4048 102.024 59.4048Z" fill="#E6E6E6"/>
<path d="M108.057 59.4048C108.715 59.4048 109.249 58.8713 109.249 58.2132C109.249 57.555 108.715 57.0215 108.057 57.0215C107.399 57.0215 106.865 57.555 106.865 58.2132C106.865 58.8713 107.399 59.4048 108.057 59.4048Z" fill="#E6E6E6"/>
<path d="M114.088 59.4048C114.746 59.4048 115.28 58.8713 115.28 58.2132C115.28 57.555 114.746 57.0215 114.088 57.0215C113.43 57.0215 112.896 57.555 112.896 58.2132C112.896 58.8713 113.43 59.4048 114.088 59.4048Z" fill="#E6E6E6"/>
<path d="M120.121 59.4048C120.779 59.4048 121.313 58.8713 121.313 58.2132C121.313 57.555 120.779 57.0215 120.121 57.0215C119.463 57.0215 118.93 57.555 118.93 58.2132C118.93 58.8713 119.463 59.4048 120.121 59.4048Z" fill="#E6E6E6"/>
<path d="M126.153 59.4048C126.811 59.4048 127.344 58.8713 127.344 58.2132C127.344 57.555 126.811 57.0215 126.153 57.0215C125.494 57.0215 124.961 57.555 124.961 58.2132C124.961 58.8713 125.494 59.4048 126.153 59.4048Z" fill="#E6E6E6"/>
<path d="M132.186 59.4048C132.844 59.4048 133.377 58.8713 133.377 58.2132C133.377 57.555 132.844 57.0215 132.186 57.0215C131.528 57.0215 130.994 57.555 130.994 58.2132C130.994 58.8713 131.528 59.4048 132.186 59.4048Z" fill="#E6E6E6"/>
<path d="M77.8948 65.5122C78.5529 65.5122 79.0865 64.9787 79.0865 64.3206C79.0865 63.6624 78.5529 63.1289 77.8948 63.1289C77.2366 63.1289 76.7031 63.6624 76.7031 64.3206C76.7031 64.9787 77.2366 65.5122 77.8948 65.5122Z" fill="#E6E6E6"/>
<path d="M83.928 65.5121C84.5861 65.5121 85.1197 64.9786 85.1197 64.3205C85.1197 63.6623 84.5861 63.1288 83.928 63.1288C83.2699 63.1288 82.7363 63.6623 82.7363 64.3205C82.7363 64.9786 83.2699 65.5121 83.928 65.5121Z" fill="#E6E6E6"/>
<path d="M89.9612 65.5122C90.6193 65.5122 91.1529 64.9787 91.1529 64.3206C91.1529 63.6624 90.6193 63.1289 89.9612 63.1289C89.3031 63.1289 88.7695 63.6624 88.7695 64.3206C88.7695 64.9787 89.3031 65.5122 89.9612 65.5122Z" fill="#E6E6E6"/>
<path d="M95.9924 65.5121C96.6506 65.5121 97.1841 64.9786 97.1841 64.3205C97.1841 63.6623 96.6506 63.1288 95.9924 63.1288C95.3343 63.1288 94.8008 63.6623 94.8008 64.3205C94.8008 64.9786 95.3343 65.5121 95.9924 65.5121Z" fill="#E6E6E6"/>
<path d="M102.024 65.5122C102.682 65.5122 103.215 64.9787 103.215 64.3206C103.215 63.6624 102.682 63.1289 102.024 63.1289C101.366 63.1289 100.832 63.6624 100.832 64.3206C100.832 64.9787 101.366 65.5122 102.024 65.5122Z" fill="#E6E6E6"/>
<path d="M108.057 65.5122C108.715 65.5122 109.249 64.9787 109.249 64.3206C109.249 63.6624 108.715 63.1289 108.057 63.1289C107.399 63.1289 106.865 63.6624 106.865 64.3206C106.865 64.9787 107.399 65.5122 108.057 65.5122Z" fill="#E6E6E6"/>
<path d="M114.088 65.5122C114.746 65.5122 115.28 64.9787 115.28 64.3206C115.28 63.6624 114.746 63.1289 114.088 63.1289C113.43 63.1289 112.896 63.6624 112.896 64.3206C112.896 64.9787 113.43 65.5122 114.088 65.5122Z" fill="#E6E6E6"/>
<path d="M120.121 65.5122C120.779 65.5122 121.313 64.9787 121.313 64.3206C121.313 63.6624 120.779 63.1289 120.121 63.1289C119.463 63.1289 118.93 63.6624 118.93 64.3206C118.93 64.9787 119.463 65.5122 120.121 65.5122Z" fill="#E6E6E6"/>
<path d="M126.153 65.5122C126.811 65.5122 127.344 64.9787 127.344 64.3206C127.344 63.6624 126.811 63.1289 126.153 63.1289C125.494 63.1289 124.961 63.6624 124.961 64.3206C124.961 64.9787 125.494 65.5122 126.153 65.5122Z" fill="#E6E6E6"/>
<path d="M132.186 65.5122C132.844 65.5122 133.377 64.9787 133.377 64.3206C133.377 63.6624 132.844 63.1289 132.186 63.1289C131.528 63.1289 130.994 63.6624 130.994 64.3206C130.994 64.9787 131.528 65.5122 132.186 65.5122Z" fill="#E6E6E6"/>
<path d="M77.8948 71.6197C78.5529 71.6197 79.0865 71.0861 79.0865 70.428C79.0865 69.7699 78.5529 69.2363 77.8948 69.2363C77.2366 69.2363 76.7031 69.7699 76.7031 70.428C76.7031 71.0861 77.2366 71.6197 77.8948 71.6197Z" fill="#E6E6E6"/>
<path d="M83.928 71.6197C84.5861 71.6197 85.1197 71.0861 85.1197 70.428C85.1197 69.7699 84.5861 69.2363 83.928 69.2363C83.2699 69.2363 82.7363 69.7699 82.7363 70.428C82.7363 71.0861 83.2699 71.6197 83.928 71.6197Z" fill="#E6E6E6"/>
<path d="M89.9612 71.6197C90.6193 71.6197 91.1529 71.0861 91.1529 70.428C91.1529 69.7699 90.6193 69.2363 89.9612 69.2363C89.3031 69.2363 88.7695 69.7699 88.7695 70.428C88.7695 71.0861 89.3031 71.6197 89.9612 71.6197Z" fill="#E6E6E6"/>
<path d="M95.9924 71.6197C96.6506 71.6197 97.1841 71.0861 97.1841 70.428C97.1841 69.7699 96.6506 69.2363 95.9924 69.2363C95.3343 69.2363 94.8008 69.7699 94.8008 70.428C94.8008 71.0861 95.3343 71.6197 95.9924 71.6197Z" fill="#E6E6E6"/>
<path d="M102.024 71.6197C102.682 71.6197 103.215 71.0861 103.215 70.428C103.215 69.7699 102.682 69.2363 102.024 69.2363C101.366 69.2363 100.832 69.7699 100.832 70.428C100.832 71.0861 101.366 71.6197 102.024 71.6197Z" fill="#E6E6E6"/>
<path d="M108.057 71.6197C108.715 71.6197 109.249 71.0861 109.249 70.428C109.249 69.7699 108.715 69.2363 108.057 69.2363C107.399 69.2363 106.865 69.7699 106.865 70.428C106.865 71.0861 107.399 71.6197 108.057 71.6197Z" fill="#E6E6E6"/>
<path d="M114.088 71.6197C114.746 71.6197 115.28 71.0861 115.28 70.428C115.28 69.7699 114.746 69.2363 114.088 69.2363C113.43 69.2363 112.896 69.7699 112.896 70.428C112.896 71.0861 113.43 71.6197 114.088 71.6197Z" fill="#E6E6E6"/>
<path d="M120.121 71.6197C120.779 71.6197 121.313 71.0861 121.313 70.428C121.313 69.7699 120.779 69.2363 120.121 69.2363C119.463 69.2363 118.93 69.7699 118.93 70.428C118.93 71.0861 119.463 71.6197 120.121 71.6197Z" fill="#E6E6E6"/>
<path d="M126.153 71.6197C126.811 71.6197 127.344 71.0861 127.344 70.428C127.344 69.7699 126.811 69.2363 126.153 69.2363C125.494 69.2363 124.961 69.7699 124.961 70.428C124.961 71.0861 125.494 71.6197 126.153 71.6197Z" fill="#E6E6E6"/>
<path d="M132.186 71.6197C132.844 71.6197 133.377 71.0861 133.377 70.428C133.377 69.7699 132.844 69.2363 132.186 69.2363C131.528 69.2363 130.994 69.7699 130.994 70.428C130.994 71.0861 131.528 71.6197 132.186 71.6197Z" fill="#E6E6E6"/>
<path d="M77.8948 77.7271C78.5529 77.7271 79.0865 77.1936 79.0865 76.5354C79.0865 75.8773 78.5529 75.3438 77.8948 75.3438C77.2366 75.3438 76.7031 75.8773 76.7031 76.5354C76.7031 77.1936 77.2366 77.7271 77.8948 77.7271Z" fill="#E6E6E6"/>
<path d="M83.928 77.7271C84.5861 77.7271 85.1197 77.1936 85.1197 76.5354C85.1197 75.8773 84.5861 75.3438 83.928 75.3438C83.2699 75.3438 82.7363 75.8773 82.7363 76.5354C82.7363 77.1936 83.2699 77.7271 83.928 77.7271Z" fill="#E6E6E6"/>
<path d="M89.9612 77.7271C90.6193 77.7271 91.1529 77.1936 91.1529 76.5354C91.1529 75.8773 90.6193 75.3438 89.9612 75.3438C89.3031 75.3438 88.7695 75.8773 88.7695 76.5354C88.7695 77.1936 89.3031 77.7271 89.9612 77.7271Z" fill="#E6E6E6"/>
<path d="M95.9924 77.7271C96.6506 77.7271 97.1841 77.1936 97.1841 76.5354C97.1841 75.8773 96.6506 75.3438 95.9924 75.3438C95.3343 75.3438 94.8008 75.8773 94.8008 76.5354C94.8008 77.1936 95.3343 77.7271 95.9924 77.7271Z" fill="#E6E6E6"/>
<path d="M102.024 77.7271C102.682 77.7271 103.215 77.1936 103.215 76.5354C103.215 75.8773 102.682 75.3438 102.024 75.3438C101.366 75.3438 100.832 75.8773 100.832 76.5354C100.832 77.1936 101.366 77.7271 102.024 77.7271Z" fill="#E6E6E6"/>
<path d="M108.057 77.7271C108.715 77.7271 109.249 77.1936 109.249 76.5354C109.249 75.8773 108.715 75.3438 108.057 75.3438C107.399 75.3438 106.865 75.8773 106.865 76.5354C106.865 77.1936 107.399 77.7271 108.057 77.7271Z" fill="#E6E6E6"/>
<path d="M114.088 77.7271C114.746 77.7271 115.28 77.1936 115.28 76.5354C115.28 75.8773 114.746 75.3438 114.088 75.3438C113.43 75.3438 112.896 75.8773 112.896 76.5354C112.896 77.1936 113.43 77.7271 114.088 77.7271Z" fill="#E6E6E6"/>
<path d="M120.121 77.7271C120.779 77.7271 121.313 77.1936 121.313 76.5354C121.313 75.8773 120.779 75.3438 120.121 75.3438C119.463 75.3438 118.93 75.8773 118.93 76.5354C118.93 77.1936 119.463 77.7271 120.121 77.7271Z" fill="#E6E6E6"/>
<path d="M126.153 77.7271C126.811 77.7271 127.344 77.1936 127.344 76.5354C127.344 75.8773 126.811 75.3438 126.153 75.3438C125.494 75.3438 124.961 75.8773 124.961 76.5354C124.961 77.1936 125.494 77.7271 126.153 77.7271Z" fill="#E6E6E6"/>
<path d="M132.186 77.7271C132.844 77.7271 133.377 77.1936 133.377 76.5354C133.377 75.8773 132.844 75.3438 132.186 75.3438C131.528 75.3438 130.994 75.8773 130.994 76.5354C130.994 77.1936 131.528 77.7271 132.186 77.7271Z" fill="#E6E6E6"/>
<path d="M16.9122 77.9172L13.6443 75.102C13.7708 73.0645 14.012 71.0357 14.3669 69.0254L16.1653 69.7731L14.4922 68.3318C14.9557 65.8503 15.4198 64.2363 15.4198 64.2363C15.4198 64.2363 22.0138 70.0193 25.7275 77.1009L24.1505 82.4065L26.5877 78.8895C26.9586 79.7325 27.2761 80.5981 27.5383 81.481C30.1524 90.3914 29.3614 98.4685 25.7716 99.5216C22.1818 100.575 17.1525 94.2052 14.5384 85.2948C13.728 82.5325 13.5051 79.4592 13.5829 76.5329L16.9122 77.9172Z" fill="#E6E6E6"/>
<path d="M8.34926 84.9127L4.09663 84.1919C3.15166 82.3823 2.30949 80.5209 1.57416 78.6165L3.50021 78.327L1.32285 77.958C0.436972 75.5941 0 73.9727 0 73.9727C0 73.9727 8.63402 75.5147 15.4736 79.6572L16.866 85.0142L17.1345 80.7437C17.8878 81.2737 18.6069 81.8505 19.2878 82.4708C26.1314 88.7472 29.6293 96.0704 27.1007 98.8276C24.572 101.585 16.9743 98.7317 10.1307 92.4552C8.00912 90.5094 6.22967 87.9938 4.78367 85.4486L8.34926 84.9127Z" fill="#E6E6E6"/>
<path d="M146.804 99.543H0V99.9996H146.804V99.543Z" fill="#3F3D56"/>
<path d="M100.726 4.04595C101.2 4.04595 101.585 3.6614 101.585 3.18704C101.585 2.71267 101.2 2.32812 100.726 2.32812C100.252 2.32812 99.8672 2.71267 99.8672 3.18704C99.8672 3.6614 100.252 4.04595 100.726 4.04595Z" fill="white"/>
<path d="M115.565 39.6895H72.7536C72.3978 39.6895 72.1094 39.9779 72.1094 40.3336V58.8108C72.1094 59.1666 72.3978 59.455 72.7536 59.455H115.565C115.921 59.455 116.209 59.1666 116.209 58.8108V40.3336C116.209 39.9779 115.921 39.6895 115.565 39.6895Z" fill="#63388B"/>
<path d="M102.353 54.7266C102.239 54.7267 102.13 54.772 102.05 54.8525C101.969 54.933 101.924 55.0422 101.924 55.156V56.5767C101.924 56.6906 101.969 56.7997 102.05 56.8802C102.13 56.9607 102.239 57.006 102.353 57.0062H109.408C109.522 57.006 109.631 56.9607 109.712 56.8802C109.792 56.7997 109.837 56.6906 109.838 56.5767V55.156C109.837 55.0422 109.792 54.933 109.712 54.8525C109.631 54.772 109.522 54.7267 109.408 54.7266H102.353Z" fill="white"/>
<path d="M124.882 6.83594H76.7825C76.071 6.83594 75.4941 7.41276 75.4941 8.1243V9.41267C75.4941 10.1242 76.071 10.701 76.7825 10.701H124.882C125.593 10.701 126.17 10.1242 126.17 9.41267V8.1243C126.17 7.41276 125.593 6.83594 124.882 6.83594Z" fill="#E6E6E6"/>
<path d="M107.06 8.98414H94.3915C94.3632 8.98428 94.3352 8.97882 94.309 8.96808C94.2829 8.95735 94.2591 8.94156 94.239 8.9216C94.219 8.90165 94.2031 8.87793 94.1922 8.85182C94.1814 8.8257 94.1758 8.7977 94.1758 8.76942C94.1758 8.74114 94.1814 8.71313 94.1922 8.68702C94.2031 8.6609 94.219 8.63718 94.239 8.61723C94.2591 8.59728 94.2829 8.58148 94.309 8.57075C94.3352 8.56002 94.3632 8.55456 94.3915 8.55469H107.06C107.089 8.55456 107.117 8.56002 107.143 8.57075C107.169 8.58148 107.193 8.59728 107.213 8.61723C107.233 8.63718 107.249 8.6609 107.26 8.68702C107.271 8.71313 107.276 8.74114 107.276 8.76942C107.276 8.7977 107.271 8.8257 107.26 8.85182C107.249 8.87793 107.233 8.90165 107.213 8.9216C107.193 8.94156 107.169 8.95735 107.143 8.96808C107.117 8.97882 107.089 8.98428 107.06 8.98414Z" fill="white"/>
<path d="M111.14 43.3398C111.254 43.3398 111.363 43.3851 111.443 43.4656C111.524 43.5462 111.569 43.6554 111.569 43.7693V44.6282C111.569 44.7421 111.524 44.8513 111.443 44.9319C111.363 45.0124 111.254 45.0576 111.14 45.0576H77.2127C77.0988 45.0576 76.9895 45.0124 76.909 44.9319C76.8284 44.8513 76.7832 44.7421 76.7832 44.6282V43.7693C76.7832 43.6554 76.8284 43.5462 76.909 43.4656C76.9895 43.3851 77.0988 43.3398 77.2127 43.3398H111.14Z" fill="white"/>
<path d="M111.14 47.4199C111.254 47.4199 111.363 47.4652 111.443 47.5457C111.524 47.6262 111.569 47.7355 111.569 47.8494V48.7083C111.569 48.8222 111.524 48.9314 111.443 49.012C111.363 49.0925 111.254 49.1377 111.14 49.1377H77.2127C77.0988 49.1377 76.9895 49.0925 76.909 49.012C76.8284 48.9314 76.7832 48.8222 76.7832 48.7083V47.8494C76.7832 47.7355 76.8284 47.6262 76.909 47.5457C76.9895 47.4652 77.0988 47.4199 77.2127 47.4199H111.14Z" fill="white"/>
<path d="M111.14 51.5001C111.254 51.5001 111.363 51.5454 111.443 51.6259C111.524 51.7064 111.569 51.8157 111.569 51.9296V52.7885C111.569 52.9024 111.524 53.0116 111.443 53.0921C111.363 53.1727 111.254 53.2179 111.14 53.2179H77.2127C77.0988 53.2179 76.9895 53.1727 76.909 53.0921C76.8284 53.0116 76.7832 52.9024 76.7832 52.7885V51.9296C76.7832 51.8157 76.8284 51.7064 76.909 51.6259C76.9895 51.5454 77.0988 51.5001 77.2127 51.5001H111.14Z" fill="white"/>
<path d="M55.3893 27.1853C55.39 34.2977 52.6032 41.1271 47.6267 46.2084C42.6501 51.2898 35.8803 54.2183 28.7695 54.3658C28.5818 54.3706 28.3917 54.3731 28.204 54.3731C28.0163 54.3731 27.8262 54.3706 27.6384 54.3658C22.2868 54.2546 17.0871 52.566 12.6913 49.5117C8.29542 46.4574 4.89903 42.1734 2.92792 37.1968C0.956817 32.2202 0.498715 26.7724 1.61106 21.5365C2.7234 16.3005 5.35668 11.5095 9.18075 7.76402C13.0048 4.01854 17.8495 1.48531 23.1074 0.481918C28.3653 -0.521472 33.8024 0.0496405 38.737 2.12365C43.6716 4.19766 47.8842 7.68227 50.8465 12.1406C53.8089 16.5989 55.3892 21.8326 55.3893 27.1853Z" fill="#E6E6E6"/>
<path d="M29.4928 99.6066C29.3052 99.6114 28.3931 99.6138 28.2054 99.6138C28.0177 99.6138 27.1057 99.6114 26.918 99.6066L28.2054 27.5801L29.4928 99.6066Z" fill="#3F3D56"/>
<path d="M128.748 86.6328C128.747 87.6103 128.394 88.5545 127.752 89.2921C127.111 90.0297 126.225 90.5111 125.257 90.6478C124.289 90.7845 123.305 90.5674 122.484 90.0363C121.664 89.5052 121.062 88.6959 120.791 87.757C120.519 86.8181 120.595 85.8127 121.006 84.9255C121.416 84.0383 122.132 83.329 123.024 82.9279C123.915 82.5268 124.921 82.4607 125.857 82.7419C126.793 83.0232 127.597 83.6327 128.119 84.4587C128.53 85.1093 128.748 85.8632 128.748 86.6328Z" fill="#63388B"/>
<path d="M128.118 84.4596L124.112 88.4653C123.86 88.0755 122.457 86.2637 122.457 86.2637C122.637 86.082 122.829 85.9127 123.031 85.7568L124.195 87.3079L127.649 83.8535C127.824 84.0403 127.981 84.2432 128.118 84.4596Z" fill="white"/>
</svg>
