<svg width="115" height="100" viewBox="0 0 115 100" fill="none" xmlns="http://www.w3.org/2000/svg">
<path d="M80.0318 98.5128L78.2963 98.5127L77.4707 91.8184L80.0322 91.8185L80.0318 98.5128Z" fill="#FFB6B6"/>
<path d="M74.0865 98.4737C74.0324 98.5648 74.0039 98.8585 74.0039 98.9643C74.0039 99.2896 74.2676 99.5534 74.593 99.5534H79.9677C80.1896 99.5534 80.3696 99.3735 80.3696 99.1515V98.9278C80.3696 98.9278 80.6355 98.2552 80.088 97.4263C80.088 97.4263 79.4077 98.0754 78.3911 97.0587L78.0913 96.5156L75.9212 98.1027L74.7183 98.2508C74.4552 98.2832 74.2218 98.2458 74.0865 98.4737Z" fill="#2F2E41"/>
<path d="M98.3528 96.3418L96.7669 97.0466L93.293 91.265L95.6336 90.2246L98.3528 96.3418Z" fill="#FFB6B6"/>
<path d="M92.9035 98.7209C92.8911 98.826 92.9843 99.106 93.0273 99.2027C93.1595 99.5 93.5076 99.6338 93.8049 99.5016L98.7162 97.3182C98.9189 97.228 99.0103 96.9905 98.9201 96.7877L98.8292 96.5833C98.8292 96.5833 98.7989 95.8607 97.962 95.3256C97.962 95.3256 97.604 96.1951 96.262 95.6792L95.7674 95.3047L94.4292 97.6365L93.3903 98.2605C93.163 98.397 92.9345 98.4576 92.9035 98.7209Z" fill="#2F2E41"/>
<path d="M76.2599 56.625L74.7168 59.8654L77.34 93.5043H80.6205L81.9692 71.4384L93.7427 93.5043H97.7668L91.6905 77.765L87.5242 57.2422L76.2599 56.625Z" fill="#2F2E41"/>
<path d="M84.5228 35.8438H80.4539L78.9617 38.1853L75.5957 39.7951L76.3274 49.893L75.9603 57.2557L76.4634 57.241C80.0543 57.1362 83.6435 57.7203 86.976 59.0621C87.8309 59.4064 88.7271 59.5984 89.4986 59.4055C89.4986 59.4055 89.2059 58.2347 88.9132 57.942C88.6205 57.6494 88.4742 57.4074 88.6205 57.2357C88.7669 57.064 89.0596 56.9176 88.7669 56.6249C88.4742 56.3322 88.4742 55.9635 88.4742 55.9635L87.5961 49.454L89.3523 40.2341L85.6936 38.1853L84.5228 35.8438Z" fill="#63388B"/>
<path d="M91.5146 48.6111L91.4037 57.2472L89.2549 64.9458L87.5371 64.305L88.2998 57.2485L88.1995 47.6992L91.5146 48.6111Z" fill="#FFB6B6"/>
<path d="M89.2471 66.1868C89.4487 65.0798 89.0792 64.0854 88.422 63.9657C87.7647 63.846 87.0685 64.6464 86.8669 65.7534C86.6653 66.8604 87.0348 67.8548 87.6921 67.9745C88.3493 68.0942 89.0456 67.2938 89.2471 66.1868Z" fill="#FFB6B6"/>
<path d="M88.4742 39.7966C88.4742 39.7966 90.8987 40.1723 90.9304 42.2528C90.9621 44.3333 93.3036 47.6993 91.8402 50.3335L88.0352 50.9189L85.9863 43.4553L88.3279 39.5039" fill="#63388B"/>
<path d="M77.4077 47.0893L72.576 54.2481L66.5551 59.505L65.4707 58.0267L69.9805 52.546L75.1368 44.5078L77.4077 47.0893Z" fill="#FFB6B6"/>
<path d="M65.868 60.5388C66.6439 59.724 66.8807 58.69 66.3969 58.2292C65.9131 57.7685 64.8919 58.0556 64.1159 58.8704C63.34 59.6853 63.1031 60.7193 63.587 61.18C64.0708 61.6408 65.092 61.3537 65.868 60.5388Z" fill="#FFB6B6"/>
<path d="M79.7027 38.0516C79.7027 38.0516 81.5234 39.696 80.4083 41.4527C79.2931 43.2094 79.4036 47.3083 76.7346 48.7074L73.2324 47.1088C73.5275 44.2228 73.6995 41.2306 75.6152 39.745L79.741 37.7266" fill="#63388B"/>
<path d="M81.8576 35.2405C83.8683 35.2405 85.4983 33.6105 85.4983 31.5997C85.4983 29.589 83.8683 27.959 81.8576 27.959C79.8468 27.959 78.2168 29.589 78.2168 31.5997C78.2168 33.6105 79.8468 35.2405 81.8576 35.2405Z" fill="#FFB6B6"/>
<path d="M84.5314 34.5916C84.7319 34.6258 84.9673 34.1397 85.1923 33.6663C85.6633 32.6753 85.9626 32.0453 85.9854 31.1547C86.0048 30.3957 85.794 30.5949 85.5889 28.9075C85.5212 28.351 84.5704 28.3521 84.3769 28.0878C84.05 27.6414 84.5515 27.4573 83.7382 27.1891C82.2149 26.6868 81.526 27.4671 80.5586 27.5343C80.5341 27.536 80.0545 28.005 79.7867 28.0293C79.3174 28.0718 78.6404 27.9987 78.3369 27.2837C78.0531 26.6151 77.8651 28.5687 78.1188 28.8105C78.3341 29.0158 78.7056 29.531 78.7151 29.5685C78.7258 29.6109 77.8318 28.6205 77.6825 29.0286C77.5751 29.3224 77.9132 30.8336 78.1863 30.8904C78.4147 30.9378 78.9733 30.185 78.8473 30.4938C78.555 31.2098 80.3125 31.6667 82.4164 30.2294C82.491 30.1784 82.4205 30.2597 82.6807 30.8904C83.009 31.6857 83.083 31.7288 83.0773 31.9479C83.0649 32.4221 82.7088 32.5617 82.8129 32.8732C82.8972 33.1254 83.2266 33.3207 83.4739 33.2697C83.7528 33.2122 83.8007 32.867 84.0026 32.8732C84.1756 32.8784 84.3809 33.139 84.3992 33.4019C84.4377 33.9559 83.6176 34.1083 83.4739 34.856C83.3928 35.278 84.3471 34.5602 84.5314 34.5916Z" fill="#2F2E41"/>
<path d="M55.7092 99.7187H24.4256C19.7334 99.7187 15.916 95.9013 15.916 91.2091V8.50954C15.916 3.81739 19.7334 0 24.4256 0H55.7092C60.4013 0 64.2186 3.81739 64.2186 8.50954C64.801 41.7191 65.794 78.9086 64.2186 91.2091C64.2186 95.9013 60.4013 99.7187 55.7092 99.7187Z" fill="#3F3D56"/>
<path d="M64.6549 30.4199C64.4564 30.4199 64.2949 30.5814 64.2949 30.7799V42.2998C64.2949 42.4983 64.4564 42.6597 64.6549 42.6597C64.8535 42.6597 65.0149 42.4983 65.0149 42.2998V30.7799C65.0149 30.5814 64.8535 30.4199 64.6549 30.4199Z" fill="#3F3D56"/>
<path d="M63.4092 8.50888V91.2069C63.4092 95.2911 60.2305 98.6318 56.2111 98.891H56.2093C56.1499 98.8946 56.0905 98.8982 56.0293 98.9C55.9231 98.9054 55.8169 98.9072 55.7089 98.9072C55.7089 98.9072 55.3129 98.8784 54.5893 98.8244C53.8585 98.7704 52.7948 98.6894 51.4682 98.5832C51.0704 98.5526 50.651 98.5184 50.2082 98.4824C49.3262 98.4104 48.3578 98.3312 47.3192 98.2412C46.9052 98.207 46.4768 98.1692 46.0395 98.1314C43.8039 97.9388 41.3001 97.7138 38.6596 97.4582C38.2132 97.4168 37.7632 97.3736 37.3096 97.3286C37.1908 97.316 16.7266 92.1717 16.7266 91.2069V8.50888C16.7266 4.25555 20.1735 0.808594 24.4269 0.808594H29.024C29.7584 0.808594 30.3488 1.38099 30.4118 2.11358C30.4172 2.16218 30.4226 2.21077 30.4316 2.25937C30.5648 2.99557 31.2398 3.50856 31.9885 3.50856H48.1472C48.896 3.50856 49.571 2.99557 49.7042 2.25937C49.7132 2.21077 49.7186 2.16218 49.724 2.11358C49.787 1.38099 50.3774 0.808594 51.1118 0.808594H55.7089C59.9622 0.808594 63.4092 4.25555 63.4092 8.50888Z" fill="white"/>
<path d="M15.7369 21.7793C15.5384 21.7793 15.377 21.9408 15.377 22.1393V25.0192C15.377 25.2178 15.5384 25.3792 15.7369 25.3792C15.9355 25.3792 16.0969 25.2178 16.0969 25.0192V22.1393C16.0969 21.9407 15.9355 21.7793 15.7369 21.7793Z" fill="#3F3D56"/>
<path d="M15.7369 30.4199C15.5384 30.4199 15.377 30.5814 15.377 30.7799V36.3598C15.377 36.5584 15.5384 36.7198 15.7369 36.7198C15.9355 36.7198 16.0969 36.5584 16.0969 36.3598V30.7799C16.0969 30.5814 15.9355 30.4199 15.7369 30.4199Z" fill="#3F3D56"/>
<path d="M15.7369 38.3398C15.5384 38.3398 15.377 38.5013 15.377 38.6998V44.2798C15.377 44.4783 15.5384 44.6398 15.7369 44.6398C15.9355 44.6398 16.0969 44.4783 16.0969 44.2798V38.6998C16.0969 38.5013 15.9355 38.3398 15.7369 38.3398Z" fill="#3F3D56"/>
<path d="M28.8995 2.07031H22.0149C21.9776 2.07031 21.9473 2.10061 21.9473 2.13798V2.90264C21.9473 2.94001 21.9776 2.9703 22.0149 2.9703H28.8995C28.9369 2.9703 28.9672 2.94001 28.9672 2.90264V2.13798C28.9672 2.10061 28.9369 2.07031 28.8995 2.07031Z" fill="#E6E6E6"/>
<path d="M52.2493 2.96928C52.6469 2.96928 52.9693 2.64693 52.9693 2.24929C52.9693 1.85165 52.6469 1.5293 52.2493 1.5293C51.8516 1.5293 51.5293 1.85165 51.5293 2.24929C51.5293 2.64693 51.8516 2.96928 52.2493 2.96928Z" fill="#E6E6E6"/>
<path d="M54.2298 2.96928C54.6274 2.96928 54.9497 2.64693 54.9497 2.24929C54.9497 1.85165 54.6274 1.5293 54.2298 1.5293C53.8321 1.5293 53.5098 1.85165 53.5098 2.24929C53.5098 2.64693 53.8321 2.96928 54.2298 2.96928Z" fill="#E6E6E6"/>
<path d="M56.2102 2.96928C56.6079 2.96928 56.9302 2.64693 56.9302 2.24929C56.9302 1.85165 56.6079 1.5293 56.2102 1.5293C55.8126 1.5293 55.4902 1.85165 55.4902 2.24929C55.4902 2.64693 55.8126 2.96928 56.2102 2.96928Z" fill="#E6E6E6"/>
<path d="M56.4381 66.2492C56.4381 58.0424 49.5018 53.5278 41.5785 51.3895C31.42 48.648 23.9802 54.1955 26.7188 66.2492C28.537 74.252 37.7661 86.1952 41.5785 78.9277C45.9408 70.6115 56.4381 74.4559 56.4381 66.2492Z" fill="#F2F2F2"/>
<path d="M0 99.74C0 99.884 0.115609 99.9996 0.259574 99.9996H114.181C114.325 99.9996 114.44 99.884 114.44 99.74C114.44 99.5961 114.325 99.4805 114.181 99.4805H0.259574C0.115609 99.4805 0 99.5961 0 99.74Z" fill="#CCCCCC"/>
<path d="M36.4728 64.7827L34.6777 63.9323C35.414 64.9599 36.0484 66.5646 36.3881 67.8416C36.9632 66.6521 37.8902 65.1966 38.8078 64.3273L36.9106 64.8153C38.0797 59.0858 42.4768 54.9726 47.5121 54.9726L47.5834 54.7656C42.3239 54.7656 37.6665 58.8218 36.4728 64.7827Z" fill="#3F3D56"/>
<path d="M44.7342 73.5128H33.392C32.9109 73.5128 32.5195 73.1214 32.5195 72.6403C32.5195 72.1592 32.9109 71.7678 33.392 71.7678H44.7342C45.2153 71.7678 45.6067 72.1592 45.6067 72.6403C45.6067 73.1214 45.2153 73.5128 44.7342 73.5128Z" fill="#63388B"/>
<path d="M55.3354 28.294V51.4145C55.3354 53.4592 53.6721 55.1226 51.6274 55.1226H28.5068C26.4622 55.1226 24.7988 53.4592 24.7988 51.4145V28.294C24.7988 26.2493 26.4622 24.5859 28.5068 24.5859H51.6274C53.6721 24.5859 55.3354 26.2493 55.3354 28.294ZM51.6274 54.6863C53.4344 54.6863 54.8992 53.2215 54.8992 51.4145V39.7581C54.8992 31.6197 48.3017 25.0222 40.1633 25.0222H28.5068C26.6999 25.0222 25.2351 26.487 25.2351 28.294V51.4145C25.2351 53.2215 26.6999 54.6863 28.5068 54.6863H51.6274Z" fill="#3F3D56"/>
<path d="M43.1453 34.0283H35.6811C35.493 34.0283 35.3398 33.8752 35.3398 33.687C35.3398 33.4989 35.493 33.3458 35.6811 33.3458H43.1453C43.3335 33.3458 43.4865 33.4989 43.4865 33.687C43.4865 33.8752 43.3335 34.0283 43.1453 34.0283Z" fill="#3F3D56"/>
<path d="M43.1453 41.3057H35.6811C35.493 41.3057 35.3398 41.1526 35.3398 40.9644C35.3398 40.7762 35.493 40.6232 35.6811 40.6232H43.1453C43.3335 40.6232 43.4865 40.7762 43.4865 40.9644C43.4865 41.1526 43.3335 41.3057 43.1453 41.3057Z" fill="#3F3D56"/>
<path d="M39.4363 51.3389H31.9721C31.784 51.3389 31.6309 51.1858 31.6309 50.9976C31.6309 50.8094 31.784 50.6564 31.9721 50.6564H39.4363C39.6245 50.6564 39.7775 50.8094 39.7775 50.9976C39.7775 51.1858 39.6245 51.3389 39.4363 51.3389Z" fill="#3F3D56"/>
<path d="M47.1501 37.669H31.6753C31.4871 37.669 31.334 37.5159 31.334 37.3277C31.334 37.1395 31.4871 36.9865 31.6753 36.9865H47.1501C47.3383 36.9865 47.4913 37.1395 47.4913 37.3277C47.4913 37.5159 47.3383 37.669 47.1501 37.669Z" fill="#3F3D56"/>
</svg>
