<svg width="121" height="100" viewBox="0 0 121 100" fill="none" xmlns="http://www.w3.org/2000/svg">
<path d="M79.5572 81.7544H7.71094V0H79.5572V81.7544Z" fill="white"/>
<path d="M79.5572 81.7544H7.71094V0H79.5572V81.7544ZM8.76357 80.778H78.5045V0.976405H8.76357V80.778Z" fill="#E6E6E6"/>
<path d="M79.5864 0H7.83203V10.4583H79.5864V0Z" fill="#63388B"/>
<path d="M18.1208 25.9662C21.4948 25.9662 24.2299 23.2311 24.2299 19.8571C24.2299 16.4832 21.4948 13.748 18.1208 13.748C14.7469 13.748 12.0117 16.4832 12.0117 19.8571C12.0117 23.2311 14.7469 25.9662 18.1208 25.9662Z" fill="#E6E6E6"/>
<path d="M50.0671 15.543H29.1406V17.3398H50.0671V15.543Z" fill="#E6E6E6"/>
<path d="M75.2583 19.8555H29.1406V21.6523H75.2583V19.8555Z" fill="#E6E6E6"/>
<path d="M75.2583 24.168H29.1406V25.9648H75.2583V24.168Z" fill="#E6E6E6"/>
<path d="M18.1208 75.9701C21.4948 75.9701 24.2299 73.235 24.2299 69.861C24.2299 66.4871 21.4948 63.752 18.1208 63.752C14.7469 63.752 12.0117 66.4871 12.0117 69.861C12.0117 73.235 14.7469 75.9701 18.1208 75.9701Z" fill="#E6E6E6"/>
<path d="M50.0671 65.5488H29.1406V67.3456H50.0671V65.5488Z" fill="#E6E6E6"/>
<path d="M75.2583 69.8613H29.1406V71.6581H75.2583V69.8613Z" fill="#E6E6E6"/>
<path d="M75.2583 74.1738H29.1406V75.9706H75.2583V74.1738Z" fill="#E6E6E6"/>
<path d="M19.1389 4.94922H10.0352V6.26687H19.1389V4.94922Z" fill="white"/>
<path d="M19.1389 7.22461H10.0352V8.54226H19.1389V7.22461Z" fill="white"/>
<path d="M87.269 56.4845H0V33.2344H87.269V56.4845Z" fill="white"/>
<path d="M87.269 56.4845H0V33.2344H87.269V56.4845ZM1.05263 55.4319H86.2163V34.287H1.05263V55.4319Z" fill="#CCCCCC"/>
<path d="M10.8289 50.8649C14.1647 50.8649 16.8688 48.1608 16.8688 44.825C16.8688 41.4893 14.1647 38.7852 10.8289 38.7852C7.49321 38.7852 4.78906 41.4893 4.78906 44.825C4.78906 48.1608 7.49321 50.8649 10.8289 50.8649Z" fill="#63388B"/>
<path d="M48.4905 39.7324H23.502V41.5089H48.4905V39.7324Z" fill="#3F3D56"/>
<path d="M78.5714 43.9961H23.502V45.7725H78.5714V43.9961Z" fill="#3F3D56"/>
<path d="M78.5714 48.2598H23.502V50.0362H78.5714V48.2598Z" fill="#3F3D56"/>
<path d="M101.23 62.6135C101.307 62.5828 101.386 62.5583 101.467 62.54L104.132 55.617L103.001 54.2136L104.896 52.2305C105.443 53.0361 108.151 54.7336 107.327 55.9439L103.192 63.3009C103.308 63.5083 103.375 63.7393 103.389 63.9765C103.403 64.2137 103.363 64.451 103.272 64.6704C103.181 64.8899 103.041 65.0858 102.863 65.2435C102.685 65.4012 102.474 65.5166 102.246 65.581C100.4 66.1344 99.434 63.294 101.23 62.6135Z" fill="#A0616A"/>
<path d="M103.752 55.5862C103.274 55.724 101.468 52.917 101.167 52.6728C100.807 52.3327 100.597 51.8639 100.583 51.3692C100.568 50.8745 100.751 50.3943 101.09 50.0338C101.429 49.6733 101.897 49.462 102.392 49.4462C102.886 49.4304 103.367 49.6114 103.729 49.9495L106.505 51.8931C106.584 51.949 106.65 52.0211 106.698 52.1045C106.747 52.1879 106.777 52.2808 106.787 52.3768C106.796 52.4728 106.786 52.5698 106.755 52.6613C106.724 52.7527 106.674 52.8366 106.608 52.9071C106.276 53.1329 104.224 55.7586 103.752 55.5862Z" fill="#63388B"/>
<path d="M104.697 97.7006L102.546 97.7004L102.225 89.4043L104.697 89.4045L104.697 97.7006Z" fill="#A0616A"/>
<path d="M105.244 99.7837L98.3093 99.7835C98.2443 96.1126 102.936 97.1134 105.245 96.9966L105.244 99.7837Z" fill="#2F2E41"/>
<path d="M111.701 96.9928L109.564 97.2406L107.592 89.1177L110.745 88.752L111.701 96.9928Z" fill="#A0616A"/>
<path d="M112.486 98.999L105.597 99.7982C105.11 96.1593 109.885 96.6126 112.165 96.2305L112.486 98.999Z" fill="#2F2E41"/>
<path d="M105.081 95.7294H101.545V82.3996L99.4796 71.2717L96.6543 61.3844L103.282 58.1602L104.546 60.146C104.741 60.3242 107.908 63.2543 108.249 66.1577C108.598 69.117 105.235 94.571 105.091 95.6531L105.081 95.7294Z" fill="#2F2E41"/>
<path d="M96.8936 63.4557L95.8018 58.67C95.5457 58.4237 93.1223 55.9395 95.8048 52.7648L97.2182 49.0796L101.359 47.7969L102.978 49.0503C103.63 49.5545 104.149 50.2112 104.487 50.9627C104.826 51.7142 104.975 52.5375 104.92 53.36L104.478 60.1308L96.8936 63.4557Z" fill="#2F2E41"/>
<path d="M100.439 39.86C104.706 42.2882 101.203 48.6951 96.8563 46.4137C92.5892 43.9855 96.0924 37.5787 100.439 39.86Z" fill="#A0616A"/>
<path d="M88.6998 48.4924C88.7134 48.5813 88.7199 48.6712 88.7194 48.7611L95.3949 53.2823L97.1584 52.4298L98.7927 54.923C97.8053 55.3046 95.3431 57.7551 94.2641 56.5853L87.4903 50.4003C87.2422 50.4722 86.9811 50.4868 86.7266 50.4432C86.4721 50.3996 86.2308 50.2988 86.0208 50.1485C85.8108 49.9982 85.6376 49.8023 85.5143 49.5754C85.3909 49.3485 85.3206 49.0966 85.3086 48.8387C85.176 46.7483 88.4204 46.4235 88.6998 48.4924Z" fill="#A0616A"/>
<path d="M95.5191 52.8868C95.4906 52.347 98.9059 51.1249 99.2385 50.8655C99.6868 50.5684 100.235 50.4611 100.762 50.5674C101.289 50.6736 101.753 50.9845 102.051 51.432C102.35 51.8796 102.458 52.4271 102.354 52.9547C102.249 53.4823 101.939 53.9468 101.493 54.2465L98.7531 56.709C98.6746 56.7786 98.5821 56.8306 98.4819 56.8615C98.3816 56.8924 98.2759 56.9015 98.1719 56.8882C98.0678 56.875 97.9678 56.8396 97.8785 56.7846C97.7892 56.7295 97.7128 56.656 97.6542 56.5689C97.4967 56.1619 95.2208 53.3442 95.5191 52.8868Z" fill="#63388B"/>
<path d="M107.912 93.0873L103.523 82.0937L106.447 77.8906L112.875 92.7094L107.912 93.0873Z" fill="#2F2E41"/>
<path d="M120.109 99.9993H91.1618C91.1152 99.9993 91.0706 99.9808 91.0377 99.9479C91.0048 99.915 90.9863 99.8704 90.9863 99.8239C90.9863 99.7773 91.0048 99.7327 91.0377 99.6998C91.0706 99.6669 91.1152 99.6484 91.1618 99.6484H120.109C120.156 99.6484 120.2 99.6669 120.233 99.6998C120.266 99.7327 120.285 99.7773 120.285 99.8239C120.285 99.8704 120.266 99.915 120.233 99.9479C120.2 99.9808 120.156 99.9993 120.109 99.9993Z" fill="#CCCCCC"/>
<path d="M111.881 43.0488C110.455 43.3118 108.964 42.877 107.742 42.0965C106.52 41.316 105.539 40.2127 104.668 39.054C104.178 38.4017 103.704 37.7136 103.036 37.2442C102.369 36.7747 101.445 36.5665 100.732 36.9634C100.104 37.3134 99.8268 38.2319 100.196 38.8069C99.2055 38.5587 98.1554 38.6334 97.1547 38.8451C96.1907 39.049 95.2111 39.401 94.5439 40.1261C93.8767 40.8513 93.6244 42.0296 94.1881 42.8378L95.0246 42.982C96.5519 42.6337 97.2576 42.7883 98.7848 43.1367C98.7332 42.8666 99.1573 42.7228 99.3718 42.895C99.5863 43.0672 99.5091 43.4096 99.6476 43.6471C100.238 44.6591 100.239 45.9009 99.9369 46.8417C101.45 46.2133 102.559 44.5121 102.869 42.9033C103.022 42.2006 102.966 41.4685 102.707 40.7977C102.582 40.5039 102.411 40.232 102.2 39.9923C102.767 40.1588 103.291 40.4486 103.733 40.8411C104.512 41.5187 105.075 42.4033 105.698 43.2268C106.321 44.0503 107.048 44.8483 108.005 45.2361C109.472 45.8308 111.215 45.3107 112.42 44.2832C113.36 43.4814 114.024 42.4186 114.553 41.2932C114.248 41.7501 113.854 42.141 113.395 42.4426C112.936 42.7442 112.421 42.9503 111.881 43.0488Z" fill="#2F2E41"/>
<path d="M114.555 41.2928C114.745 40.9974 114.887 40.6729 114.973 40.332C114.843 40.6544 114.704 40.976 114.555 41.2928Z" fill="#2F2E41"/>
</svg>
