<svg width="533" height="378" viewBox="0 0 533 378" fill="none" xmlns="http://www.w3.org/2000/svg">
<path d="M136.236 133.296C136.236 133.296 131.383 129.326 123.774 141.095C116.165 152.864 113.019 159.823 113.019 159.823C113.019 159.823 111.078 162.259 109.466 160.369C107.854 158.48 105.887 153.393 102.758 153.956C99.6298 154.52 98.1045 157.951 98.1825 163.186C98.2605 168.42 97.9832 179.912 97.9572 180.943C97.9312 181.974 97.2033 183.396 95.8946 182.286C94.586 181.177 87.419 171.341 82.9558 175.024C78.4926 178.707 81.0925 193.223 81.3439 194.861C81.5952 196.499 81.2312 197.089 80.4772 197.401C79.7233 197.713 77.6 194.177 75.4507 191.464C73.3015 188.752 70.3203 185.978 67.9284 188.318C65.5365 190.658 63.7599 201.196 72.0969 219.474L76.5167 227.689L85.8677 228.123C105.956 227.837 114.727 221.727 115.819 218.59C116.911 215.453 113.132 213.927 109.752 213.139C106.372 212.35 102.29 211.977 102.238 211.137C102.186 210.296 102.594 209.698 104.145 209.239C105.696 208.779 119.97 204.906 121.382 199.298C122.795 193.691 110.844 191.421 109.249 190.719C107.655 190.017 108.669 188.734 109.579 188.275C110.489 187.816 120.767 182.65 125.534 180.475C130.3 178.3 132.787 175.57 131.921 172.389C131.054 169.209 125.655 169.72 123.254 169.07C120.854 168.42 122.223 165.604 122.223 165.604C122.223 165.604 127.145 159.797 134.547 147.872C141.948 135.948 136.124 133.218 136.124 133.218" fill="#EBEBEB"/>
<path d="M74.8633 229.233C80.3317 220.497 90.3067 205.123 98.8084 191.889C107.31 178.656 114.988 166.662 120.474 157.952L126.991 147.63L128.725 144.822L129.193 144.094C129.297 143.93 129.357 143.852 129.357 143.852L129.219 144.112C129.106 144.285 128.959 144.536 128.777 144.848L127.043 147.682C125.544 150.144 123.343 153.688 120.604 158.082C115.136 166.826 107.483 178.829 98.9817 192.071C90.48 205.313 80.4791 220.67 74.9673 229.337" fill="#E0E0E0"/>
<path d="M105.237 161.193C105.314 161.406 105.369 161.627 105.401 161.852C105.497 162.276 105.609 162.891 105.748 163.654C106.017 165.179 106.329 167.294 106.615 169.643C106.901 171.991 107.178 174.045 107.377 175.64C107.473 176.359 107.559 176.966 107.62 177.46C107.665 177.679 107.688 177.903 107.689 178.127C107.598 177.92 107.536 177.701 107.507 177.477C107.421 177.052 107.308 176.437 107.178 175.674C106.927 174.14 106.632 172.017 106.311 169.677C105.991 167.337 105.713 165.283 105.505 163.68L105.245 161.869C105.213 161.645 105.21 161.418 105.237 161.193Z" fill="#E0E0E0"/>
<path d="M108.547 178.378C108.547 178.3 112.88 177.459 118.236 176.489C123.592 175.518 127.959 174.807 127.968 174.885C127.977 174.963 123.635 175.813 118.288 176.775C112.941 177.737 108.564 178.456 108.547 178.378Z" fill="#E0E0E0"/>
<path d="M94.5781 198.12C94.8086 198.095 95.041 198.095 95.2714 198.12L97.126 198.319C98.7033 198.484 100.87 198.7 103.279 198.856C105.688 199.012 107.864 199.082 109.441 199.116H111.313C111.542 199.101 111.773 199.118 111.997 199.168C111.771 199.208 111.542 199.229 111.313 199.229C110.871 199.229 110.23 199.229 109.441 199.229C107.855 199.229 105.671 199.229 103.253 199.056C100.835 198.882 98.6686 198.657 97.1 198.44C96.3201 198.328 95.6874 198.232 95.2541 198.146C95.0285 198.157 94.8022 198.149 94.5781 198.12Z" fill="#E0E0E0"/>
<path d="M88.1641 183.231C88.283 183.409 88.3846 183.597 88.4674 183.795L89.2214 185.354C89.8367 186.672 90.6773 188.509 91.5873 190.554C92.4972 192.6 93.3205 194.445 93.8752 195.754L94.5338 197.349C94.6292 197.541 94.6991 197.745 94.7418 197.955C94.6149 197.781 94.5101 197.592 94.4298 197.392L93.6845 195.832C93.0692 194.515 92.2286 192.678 91.3186 190.632C90.4086 188.587 89.5853 186.75 89.0307 185.432C88.7707 184.808 88.5454 184.271 88.3721 183.838C88.2767 183.646 88.2067 183.442 88.1641 183.231Z" fill="#E0E0E0"/>
<path d="M73.6133 199.1C73.7655 199.324 73.8961 199.562 74.0033 199.81L74.9739 201.812C75.7712 203.502 76.8632 205.842 78.0591 208.442C79.2551 211.042 80.3037 213.399 81.0663 215.115C81.4217 215.93 81.7163 216.614 81.933 217.152C82.0559 217.396 82.1546 217.651 82.2276 217.914C82.0752 217.687 81.9446 217.446 81.8376 217.195L80.867 215.202C80.0697 213.468 78.9777 211.163 77.7818 208.563C76.5858 205.963 75.5285 203.606 74.7746 201.89L73.9079 199.862C73.7882 199.617 73.6896 199.362 73.6133 199.1Z" fill="#E0E0E0"/>
<path d="M82.1523 217.402C82.4408 217.38 82.7305 217.38 83.019 217.402L85.3849 217.567C87.3868 217.705 90.1514 217.879 93.1846 217.991C96.2178 218.104 99.0084 218.139 100.984 218.147H103.359C103.647 218.122 103.937 218.122 104.226 218.147C103.939 218.194 103.649 218.22 103.359 218.225C102.804 218.225 101.99 218.286 100.984 218.303C98.9824 218.303 96.2092 218.303 93.1846 218.234C90.16 218.165 87.3608 217.905 85.3849 217.723L83.0277 217.463C82.7347 217.466 82.442 217.446 82.1523 217.402Z" fill="#E0E0E0"/>
<path d="M59.8952 166.35C59.9382 167.779 59.857 169.208 59.6525 170.623C59.1242 174.664 57.8017 178.56 55.7613 182.088L55.6747 181.932H55.8567L55.77 182.088L31.5043 225.134L31.3569 225.402L31.1836 225.143L5.53126 184.211L4.26597 182.192L4.06665 181.88H4.4393L4.26597 182.192C2.32245 178.856 1.01206 175.189 0.400785 171.377C0.090247 169.519 -0.0403502 167.635 0.0108026 165.752L0.166797 162.97C0.305458 162.052 0.444117 161.142 0.574113 160.232C1.95092 153.251 5.64255 146.94 11.0517 142.318C13.5776 140.225 16.4251 138.554 19.4841 137.37L20.602 136.954L21.1567 136.746L21.7286 136.59L23.9906 136.001C25.484 135.714 26.9956 135.531 28.5144 135.455C29.979 135.376 31.4473 135.402 32.9082 135.533C33.6275 135.593 34.3295 135.749 35.0315 135.845L36.0714 136.018C36.4094 136.087 36.7474 136.191 37.0854 136.278L39.07 136.815L40.9506 137.535C41.2626 137.656 41.5746 137.76 41.8779 137.89L42.7445 138.332L44.4778 139.198C48.4361 141.496 51.839 144.639 54.4441 148.402C56.3833 151.243 57.8469 154.381 58.7772 157.692C59.1144 158.899 59.3692 160.126 59.5399 161.367C59.7023 162.269 59.8008 163.181 59.8345 164.097C59.8345 164.825 59.8345 165.388 59.8952 165.787C59.9559 166.185 59.8952 166.359 59.8952 166.359C59.8952 166.359 59.8952 166.159 59.8952 165.787C59.8952 165.414 59.8432 164.833 59.7999 164.106C59.7479 163.192 59.6379 162.283 59.4705 161.384C59.2831 160.152 59.0168 158.934 58.6732 157.736C57.7309 154.456 56.2679 151.348 54.3401 148.532C51.7247 144.808 48.3223 141.704 44.3738 139.441L42.6405 138.574L41.7739 138.15C41.4792 138.011 41.1672 137.916 40.8553 137.795L38.992 137.084L37.0247 136.564C36.6954 136.477 36.3661 136.373 36.0281 136.304L34.9968 136.139C34.3035 136.044 33.6102 135.897 32.8996 135.836C31.4585 135.712 30.0104 135.692 28.5664 135.775C27.0648 135.852 25.5705 136.034 24.0946 136.321L21.8586 136.911L21.2953 137.067L20.7493 137.266L19.6487 137.682C16.6149 138.848 13.7905 140.499 11.2857 142.57C5.93971 147.148 2.29911 153.4 0.955433 160.31C0.825438 161.176 0.686774 162.104 0.556779 163.005C0.426784 163.906 0.452785 164.833 0.409453 165.761C0.360033 167.62 0.487714 169.48 0.790771 171.316C1.39782 175.075 2.69033 178.692 4.60396 181.984L4.78595 182.296H4.43063L4.60396 181.984C5.00261 182.625 5.47059 183.31 5.86058 184.003L31.4956 224.961H31.1749C41.3839 207.004 49.9029 192.028 55.588 181.993L55.6834 182.149H55.4927L55.5794 181.993C57.6231 178.491 58.9709 174.627 59.5485 170.614C59.7479 169.236 59.7999 168.161 59.8519 167.451C59.8519 167.095 59.8519 166.827 59.8519 166.636C59.8519 166.445 59.8952 166.35 59.8952 166.35Z" fill="#E0E0E0"/>
<path d="M49.0116 165.969C49.0028 165.868 49.0028 165.766 49.0116 165.665C49.0116 165.44 49.0116 165.145 48.9423 164.799C48.9423 164.599 48.9423 164.383 48.9423 164.14C48.9423 163.898 48.8643 163.629 48.821 163.343C48.7322 162.685 48.599 162.033 48.4223 161.393C47.9778 159.625 47.2708 157.934 46.3251 156.375C44.0927 152.621 40.622 149.762 36.5097 148.289C32.3975 146.817 27.9007 146.823 23.7926 148.307C22.9518 148.606 22.1324 148.962 21.34 149.373C20.5394 149.811 19.7692 150.304 19.0348 150.846C18.2865 151.404 17.5744 152.009 16.9029 152.657C16.2396 153.337 15.6229 154.061 15.0569 154.824C13.8873 156.402 12.9774 158.158 12.3617 160.024C11.0735 163.868 11.0735 168.027 12.3617 171.871C12.96 173.739 13.8618 175.495 15.0309 177.07C15.5908 177.838 16.2017 178.568 16.8595 179.254C17.5299 179.903 18.239 180.511 18.9828 181.074C19.7171 181.619 20.4873 182.114 21.288 182.556C22.0274 182.947 22.7917 183.288 23.5759 183.579C27.6814 185.079 32.1806 185.106 36.3036 183.654C40.4266 182.203 43.9171 179.364 46.1778 175.623C47.1389 174.072 47.855 172.383 48.301 170.614C48.4843 169.975 48.6205 169.323 48.7083 168.664C48.7083 168.378 48.8037 168.118 48.8383 167.875V167.208C48.8383 166.835 48.8903 166.532 48.9076 166.341C48.8983 166.238 48.8983 166.133 48.9076 166.029C48.9192 166.133 48.9192 166.238 48.9076 166.341C48.9076 166.567 48.9076 166.861 48.9076 167.208V167.875C48.9076 168.118 48.8383 168.387 48.8036 168.673C48.7242 169.339 48.5997 169.999 48.431 170.649C48.0022 172.441 47.3007 174.156 46.3511 175.736C44.0836 179.561 40.5506 182.473 36.3632 183.968C32.1758 185.464 27.5974 185.448 23.4199 183.925C21.68 183.315 20.0456 182.438 18.5755 181.326C17.8088 180.758 17.082 180.138 16.4002 179.471C15.7435 178.768 15.1355 178.021 14.5803 177.235C13.389 175.632 12.4642 173.847 11.8417 171.949C11.2188 169.986 10.8917 167.941 10.8711 165.882C10.899 163.821 11.2379 161.776 11.8764 159.816C12.5051 157.922 13.4357 156.143 14.6323 154.547C15.2127 153.766 15.8438 153.025 16.5215 152.328C17.2106 151.671 17.94 151.057 18.7055 150.491C19.4574 149.94 20.2448 149.439 21.0627 148.991C21.8757 148.588 22.7154 148.24 23.5759 147.951C27.7605 146.45 32.3382 146.458 36.5176 147.974C40.697 149.49 44.2152 152.418 46.4637 156.254C47.4011 157.842 48.0935 159.563 48.5177 161.358C48.6854 162.004 48.8042 162.662 48.873 163.326C48.873 163.62 48.9596 163.88 48.977 164.131C48.9943 164.383 48.977 164.591 48.977 164.79C48.977 165.171 48.977 165.475 48.977 165.7C48.996 165.789 49.0076 165.878 49.0116 165.969Z" fill="#E0E0E0"/>
<path d="M29.6651 174.833L18.6328 167.146L21.3194 163.299L28.7118 168.455L38.2794 156.296L41.9626 159.199L29.6651 174.833Z" fill="#E0E0E0"/>
<path fill-rule="evenodd" clip-rule="evenodd" d="M338.231 32.3939C341.455 32.7963 344.612 33.6269 347.617 34.8638L354.506 29.092L366.345 38.105L362.618 46.286C364.61 48.8518 366.253 51.6697 367.506 54.6664L376.458 55.455L378.46 70.1878L370.036 73.3337C369.641 76.5771 368.807 79.7519 367.558 82.7713L373.338 89.7044L364.325 101.551L356.144 97.8161C353.581 99.8107 350.762 101.454 347.764 102.704L346.975 111.656L332.243 113.658L329.097 105.234C325.866 104.814 322.707 103.963 319.702 102.704L312.769 108.476L300.931 99.4627L304.666 91.2817C302.67 88.7192 301.026 85.9006 299.778 82.9013L290.826 82.1127L288.824 67.3799L297.239 64.2253C297.646 61.0036 298.479 57.8502 299.718 54.8484L293.963 47.924L302.968 36.0771L311.157 39.8123C313.722 37.8189 316.54 36.1753 319.538 34.9245L320.326 25.9721L335.059 23.9702L338.205 32.3939H338.231ZM333.829 52.7251C330.534 52.8314 327.353 53.955 324.722 55.9417C322.092 57.9284 320.141 60.6807 319.137 63.8207C318.134 66.9607 318.127 70.3343 319.118 73.4783C320.109 76.6223 322.048 79.3824 324.671 81.3797C327.293 83.377 330.47 84.5135 333.764 84.6331C337.058 84.7527 340.309 83.8495 343.069 82.0476C345.829 80.2457 347.964 77.6335 349.18 74.5696C350.397 71.5057 350.634 68.1404 349.861 64.936C348.999 61.3683 346.934 58.2066 344.014 55.9827C341.094 53.7588 337.497 52.6084 333.829 52.7251Z" fill="#F5F5F5"/>
<path fill-rule="evenodd" clip-rule="evenodd" d="M203.965 79.5299C206.05 79.7957 208.09 80.3377 210.031 81.1418L214.503 77.3893L222.19 83.239L219.772 88.5515C221.066 90.2171 222.133 92.0473 222.944 93.994L228.759 94.5053L230.051 104.038L224.591 106.084C224.323 108.168 223.781 110.208 222.979 112.15L226.731 116.622L220.899 124.369L215.586 121.952C213.922 123.244 212.091 124.308 210.144 125.115L209.633 130.93L200.1 132.23L198.054 126.761C195.97 126.501 193.929 125.961 191.988 125.158L187.516 128.911L179.829 123.061L182.256 117.748C180.959 116.085 179.892 114.254 179.084 112.306L173.269 111.795L171.969 102.218L177.437 100.182C177.7 98.0973 178.239 96.0572 179.04 94.1153L175.236 89.6175L181.086 81.9304L186.398 84.3484C188.062 83.0559 189.889 81.9893 191.832 81.1765L192.343 75.3614L201.92 74.1047L203.965 79.5645V79.5299ZM201.088 92.7287C198.938 92.79 196.861 93.5161 195.141 94.807C193.421 96.0979 192.144 97.8902 191.485 99.937C190.826 101.984 190.818 104.185 191.461 106.236C192.105 108.288 193.369 110.09 195.078 111.394C196.788 112.698 198.86 113.439 201.009 113.517C203.158 113.594 205.278 113.004 207.078 111.827C208.877 110.649 210.267 108.943 211.057 106.943C211.847 104.943 211.997 102.747 211.487 100.658C210.923 98.3461 209.583 96.2974 207.69 94.8543C205.797 93.4111 203.467 92.6608 201.088 92.7287Z" fill="#EBEBEB"/>
<path d="M284.276 149.503C285.55 150.069 286.721 150.842 287.743 151.791C290.609 154.357 292.501 157.835 293.098 161.636C293.522 164.263 293.32 166.953 292.509 169.487C291.565 172.409 289.857 175.024 287.561 177.062C286.331 178.172 284.936 179.084 283.427 179.766C281.865 180.51 280.195 180.998 278.478 181.213C274.848 181.713 271.153 181.032 267.939 179.27C264.726 177.508 262.165 174.759 260.634 171.429C259.888 169.868 259.399 168.197 259.187 166.48C258.955 164.837 258.976 163.168 259.248 161.532C259.735 158.502 261.021 155.657 262.974 153.29C264.676 151.243 266.838 149.628 269.283 148.576C272.816 147.029 276.776 146.753 280.489 147.796C281.838 148.161 283.117 148.747 284.276 149.529C284.224 149.633 282.95 148.844 280.394 148.203C276.769 147.327 272.955 147.69 269.561 149.234C267.252 150.284 265.222 151.86 263.633 153.836C261.801 156.106 260.605 158.821 260.166 161.705C259.687 164.891 260.161 168.147 261.527 171.065C262.985 174.196 265.404 176.78 268.433 178.44C271.462 180.1 274.942 180.75 278.366 180.294C279.991 180.098 281.574 179.642 283.054 178.942C284.491 178.308 285.819 177.451 286.989 176.403C289.049 174.61 290.628 172.33 291.582 169.77C292.535 167.21 292.833 164.453 292.449 161.748C291.91 158.071 290.163 154.677 287.483 152.103C285.567 150.248 284.207 149.598 284.276 149.503Z" fill="#EBEBEB"/>
<path d="M302.144 136C302.176 135.807 302.22 135.616 302.274 135.428C302.387 135.003 302.534 134.431 302.725 133.694L304.597 126.891L304.666 127.065L290.939 119.638L291.233 119.586L285.019 126.675L284.907 126.805L284.742 126.761C281.455 125.966 278.078 125.608 274.698 125.695H274.507L274.412 125.531C272.982 122.931 271.431 120.184 269.81 117.289L270.209 117.454L255.233 121.856L255.502 121.466C255.692 124.387 255.892 127.593 256.1 130.887V131.129L255.892 131.25C253.023 132.997 250.4 135.119 248.092 137.56L247.919 137.742L247.676 137.672L238.602 135.072L239.096 134.873L231.565 148.635L231.47 148.081L238.533 154.329L238.741 154.511L238.68 154.78C237.889 158.034 237.537 161.38 237.632 164.729V165.006L237.381 165.145L229.13 169.729L229.356 169.183L233.723 184.167L233.238 183.829L242.65 183.249H242.944L243.092 183.5C244.831 186.367 246.944 188.989 249.375 191.3C249.435 191.516 249.253 190.823 249.513 191.785V191.837V191.906V192.054L249.427 192.339L249.262 192.903L248.941 194.047L248.283 196.317C247.849 197.834 247.416 199.342 246.991 200.841L246.758 200.287L260.442 207.8L259.861 207.896L266.109 200.841L266.231 200.633L266.508 200.703C269.776 201.51 273.136 201.88 276.5 201.803H276.786L276.916 202.046C278.471 204.836 279.996 207.589 281.492 210.305L280.964 210.088L295.948 205.755L295.636 206.206C295.445 203.016 295.254 199.871 295.072 196.794V196.525L295.298 196.395C298.186 194.66 300.829 192.547 303.158 190.112L303.331 189.93L303.574 190L312.63 192.6L312.171 192.79L319.711 179.123L319.789 179.574L312.743 173.308L312.587 173.17L312.63 172.97C313.453 169.693 313.832 166.321 313.757 162.943V162.753L313.922 162.657L322.181 158.107L322.051 158.437C320.387 152.622 318.965 147.673 317.717 143.435L317.943 143.583L308.522 144.103H308.427L308.375 144.025C307.074 141.826 305.559 139.762 303.851 137.863L302.569 136.476C302.416 136.33 302.275 136.174 302.144 136.008C302.313 136.132 302.472 136.269 302.621 136.416C302.933 136.702 303.392 137.135 303.973 137.75C305.738 139.622 307.304 141.672 308.644 143.869L308.505 143.791L317.917 143.158H318.081L318.133 143.331C319.39 147.561 320.855 152.5 322.571 158.298L322.631 158.515L322.432 158.619L314.199 163.229L314.364 162.943C314.459 166.379 314.094 169.813 313.28 173.152L313.168 172.806L320.248 179.045L320.473 179.236L320.326 179.496L312.847 193.197L312.691 193.475L312.388 193.388L303.314 190.788L303.73 190.676C301.358 193.174 298.662 195.342 295.714 197.123L295.922 196.733C296.112 199.813 296.309 202.95 296.511 206.145V206.5L296.173 206.596L281.198 210.981L280.842 211.085L280.669 210.764L276.084 202.514L276.5 202.756C273.052 202.843 269.607 202.47 266.257 201.647L266.725 201.5L260.476 208.563L260.225 208.849L259.896 208.667L246.203 201.162L245.865 200.98L245.978 200.607C246.405 199.111 246.836 197.606 247.269 196.092L247.919 193.813L248.248 192.677L248.413 192.106L248.491 191.82L248.534 191.681V191.603V191.551C248.794 192.513 248.603 191.82 248.664 192.028C246.17 189.648 244.004 186.946 242.225 183.994L242.667 184.228L233.247 184.8H232.865L232.761 184.436L228.428 169.452L228.324 169.088L228.654 168.906L236.904 164.339L236.67 164.755C236.584 161.308 236.96 157.866 237.788 154.52L237.935 154.97C235.483 152.795 233.073 150.637 230.872 148.713L230.612 148.47L230.777 148.159L238.308 134.483L238.472 134.18L238.802 134.275L247.858 136.875L247.442 136.988C249.827 134.504 252.528 132.345 255.476 130.566L255.285 130.93C255.095 127.645 254.904 124.43 254.731 121.518V121.215L255.025 121.128L270.018 116.795L270.278 116.717L270.408 116.96C272.011 119.854 273.545 122.645 274.966 125.219L274.68 125.063C278.114 124.986 281.541 125.37 284.872 126.207L284.595 126.293L290.869 119.256L290.999 119.109L291.172 119.204L304.813 126.787L304.926 126.848V126.969C304.059 129.873 303.383 132.117 302.915 133.668L302.387 135.402C302.324 135.608 302.243 135.808 302.144 136Z" fill="#EBEBEB"/>
<path d="M338.84 151.669L325.242 97.5913L380.577 96.6726L338.84 151.669Z" fill="#EBEBEB"/>
<path d="M363.872 107.161L344.867 132.208L446.161 209.067L465.166 184.019L363.872 107.161Z" fill="#EBEBEB"/>
<path d="M437.826 289.895L444.855 305.832C444.855 305.832 430.988 318.329 432.028 321.431L463.418 308.909L453.486 283.629L437.826 289.895Z" fill="#63388B"/>
<path opacity="0.5" d="M437.826 289.895L444.855 305.832C444.855 305.832 430.988 318.329 432.028 321.431L463.418 308.909L453.486 283.629L437.826 289.895Z" fill="#3F3F3F"/>
<path d="M463.416 308.9L462.315 306.361L432.625 319.361C432.625 319.361 431.472 320.522 432.018 321.449L463.416 308.9Z" fill="#263238"/>
<path d="M493.098 312.489L501.903 327.525C501.903 327.525 489.58 341.512 490.932 344.494L520.692 328.478L507.944 304.455L493.098 312.489Z" fill="#63388B"/>
<path opacity="0.5" d="M493.098 312.489L501.903 327.525C501.903 327.525 489.58 341.512 490.932 344.494L520.692 328.478L507.944 304.455L493.098 312.489Z" fill="#3F3F3F"/>
<path d="M520.693 328.434L519.289 326.068L491.296 342.309C491.296 342.309 490.282 343.6 490.932 344.45L520.693 328.434Z" fill="#263238"/>
<path d="M454.705 101.636L435.414 103.144L434.772 92.3457C434.772 92.3457 426.973 92.2331 425.829 84.6327C424.685 77.0323 423.523 59.3703 423.523 59.3703C427.59 56.9027 432.242 55.5655 436.999 55.4969C441.755 55.4284 446.443 56.6309 450.58 58.9803L451.828 59.691L454.705 101.636Z" fill="#FFBE9D"/>
<path d="M434.75 92.2336C438.275 91.8065 441.594 90.3403 444.283 88.0217C444.283 88.0217 442.602 94.0015 434.906 94.3828L434.75 92.2336Z" fill="#EB996E"/>
<path d="M452.004 67.6991C452.125 67.6211 457.022 65.4112 457.585 70.6456C458.148 75.8801 452.784 75.3601 452.758 75.2128C452.732 75.0655 452.004 67.6991 452.004 67.6991Z" fill="#FFBE9D"/>
<path d="M454.144 73.0539C454.144 73.0539 454.24 73.1059 454.404 73.1665C454.629 73.2342 454.871 73.2125 455.08 73.1059C455.403 72.8592 455.654 72.5305 455.806 72.154C455.959 71.7775 456.007 71.367 455.947 70.9653C455.915 70.5166 455.782 70.081 455.557 69.6913C455.49 69.5336 455.385 69.3946 455.252 69.2859C455.119 69.1773 454.962 69.1023 454.794 69.0674C454.686 69.0514 454.576 69.0738 454.482 69.1308C454.389 69.1878 454.318 69.2758 454.283 69.3793C454.231 69.5267 454.283 69.6307 454.283 69.6393C454.283 69.648 454.162 69.57 454.179 69.3447C454.195 69.2125 454.256 69.0899 454.352 68.998C454.416 68.9345 454.492 68.8847 454.575 68.8519C454.659 68.8191 454.748 68.8039 454.838 68.8074C455.057 68.828 455.268 68.904 455.45 69.0283C455.631 69.1526 455.779 69.3211 455.878 69.518C456.15 69.9458 456.314 70.4338 456.354 70.9393C456.429 71.4025 456.365 71.8773 456.171 72.3044C455.976 72.7314 455.66 73.0916 455.262 73.3399C455.125 73.401 454.974 73.429 454.824 73.4215C454.673 73.4139 454.527 73.3711 454.396 73.2965C454.162 73.1839 454.127 73.0712 454.144 73.0539Z" fill="#EB996E"/>
<path d="M426.812 71.3294C426.851 71.6124 426.999 71.8692 427.224 72.0455C427.448 72.2217 427.733 72.3037 428.017 72.274C428.157 72.2665 428.294 72.2308 428.419 72.1691C428.545 72.1073 428.657 72.0209 428.748 71.9149C428.84 71.8089 428.909 71.6855 428.951 71.5521C428.994 71.4187 429.009 71.2782 428.996 71.1388C428.961 70.8549 428.817 70.596 428.593 70.4178C428.369 70.2395 428.085 70.1561 427.8 70.1855C427.66 70.1942 427.522 70.2309 427.396 70.2934C427.27 70.356 427.158 70.4431 427.066 70.5496C426.974 70.6562 426.904 70.7801 426.86 70.914C426.817 71.0479 426.801 71.1891 426.812 71.3294Z" fill="#263238"/>
<path d="M426.473 69.8733C426.629 69.9946 427.339 69.2667 428.535 69.1107C429.731 68.9547 430.65 69.414 430.754 69.2493C430.858 69.0847 430.632 68.9374 430.225 68.7207C429.667 68.4442 429.038 68.3444 428.422 68.4347C427.814 68.5183 427.247 68.7912 426.802 69.2147C426.481 69.544 426.403 69.8213 426.473 69.8733Z" fill="#263238"/>
<path d="M438.187 70.0134C438.226 70.2964 438.374 70.5532 438.599 70.7295C438.823 70.9058 439.108 70.9877 439.392 70.9581C439.531 70.9493 439.668 70.9129 439.793 70.8508C439.918 70.7886 440.029 70.7022 440.12 70.5964C440.212 70.4907 440.281 70.3678 440.324 70.2349C440.367 70.1021 440.383 69.9619 440.371 69.8228C440.334 69.5399 440.189 69.2823 439.966 69.1045C439.743 68.9266 439.459 68.8424 439.175 68.8695C439.035 68.8782 438.897 68.9149 438.771 68.9775C438.645 69.04 438.533 69.1271 438.441 69.2337C438.349 69.3402 438.279 69.4641 438.235 69.598C438.192 69.7319 438.176 69.8731 438.187 70.0134Z" fill="#263238"/>
<path d="M438.007 68.4707C438.163 68.6007 438.874 67.8727 440.07 67.7081C441.266 67.5434 442.176 68.0114 442.288 67.8554C442.401 67.6994 442.167 67.5434 441.751 67.3267C441.199 67.043 440.571 66.9399 439.957 67.0321C439.347 67.1164 438.78 67.3926 438.337 67.8207C438.016 68.15 437.929 68.4187 438.007 68.4707Z" fill="#263238"/>
<path d="M434.981 77.7429C434.336 77.6442 433.681 77.6209 433.031 77.6736C432.728 77.6736 432.433 77.6736 432.355 77.4656C432.295 77.1753 432.322 76.8739 432.433 76.599C432.606 75.8363 432.797 75.0304 432.996 74.1984C433.545 72.1556 433.928 70.0718 434.14 67.9673C433.429 69.9595 432.878 72.0056 432.494 74.0857L431.974 76.495C431.832 76.881 431.832 77.3049 431.974 77.6909C432.032 77.7903 432.112 77.8749 432.208 77.938C432.304 78.0012 432.414 78.0412 432.528 78.0549C432.698 78.0811 432.87 78.0811 433.04 78.0549C433.697 78.0339 434.35 77.929 434.981 77.7429Z" fill="#263238"/>
<path d="M438.536 78.0715C438.345 78.0715 438.536 79.3541 437.556 80.4114C436.577 81.4687 435.225 81.5121 435.242 81.694C435.26 81.876 435.58 81.902 436.152 81.8327C436.896 81.7391 437.584 81.3862 438.094 80.8361C438.585 80.3076 438.849 79.6075 438.83 78.8862C438.804 78.3488 438.622 78.0542 438.536 78.0715Z" fill="#263238"/>
<path d="M437.055 63.9284C437.22 64.2317 438.364 63.9284 439.759 63.9284C441.154 63.9284 442.359 64.119 442.463 63.8071C442.524 63.6597 442.29 63.3824 441.796 63.1397C441.148 62.838 440.438 62.6953 439.724 62.7238C439.01 62.7417 438.31 62.9256 437.679 63.2611C437.211 63.5037 436.96 63.7897 437.055 63.9284Z" fill="#263238"/>
<path d="M426.428 66.4252C426.671 66.6592 427.442 66.2779 428.404 66.1219C429.366 65.9659 430.224 66.0525 430.371 65.7492C430.432 65.6019 430.267 65.3506 429.877 65.1512C429.354 64.9117 428.77 64.8391 428.205 64.9433C427.635 65.0286 427.107 65.2926 426.697 65.6972C426.393 66.0179 426.315 66.3039 426.428 66.4252Z" fill="#263238"/>
<path d="M419.141 55.0805C419.024 54.6151 419.026 54.1279 419.145 53.6632C419.265 53.1985 419.499 52.7712 419.826 52.4199C420.17 52.09 420.62 51.8924 421.096 51.8623C421.572 51.8321 422.043 51.9714 422.426 52.2553C422.311 51.9471 422.261 51.6183 422.281 51.2899C422.301 50.9616 422.389 50.641 422.54 50.3488C422.691 50.0566 422.901 49.7992 423.158 49.5932C423.414 49.3872 423.711 49.2372 424.029 49.1527C425.26 48.9014 426.456 49.69 427.704 49.846C428.927 49.9244 430.143 49.6052 431.17 48.9361C432.236 48.3294 433.198 47.5495 434.281 46.9775C436.566 45.7585 439.24 45.4908 441.721 46.2324C444.203 46.974 446.291 48.6651 447.532 50.938C448.352 50.6054 449.254 50.5318 450.117 50.727C450.98 50.9222 451.762 51.3769 452.359 52.03C453.539 53.3656 454.178 55.0928 454.153 56.8744C454.153 58.0638 454.022 59.2495 453.763 60.4103C453.763 60.5056 453.763 60.601 453.807 60.705C454.318 64.8995 454.534 69.8826 452.758 70.1599C449.647 70.6452 449.569 64.6741 449.569 64.6741C445.539 63.7382 446.154 57.8104 445.08 57.0824C444.005 56.3545 441.717 54.6125 434.299 59.821C431.511 61.5721 428.242 62.3999 424.956 62.1869H424.748H424.696H424.627C423.879 62.1062 423.148 61.9103 422.46 61.6063C421.649 61.2799 420.963 60.703 420.502 59.9597C420.281 59.5859 420.173 59.1561 420.192 58.7223C420.21 58.2885 420.354 57.8694 420.606 57.5157C419.89 56.8646 419.381 56.018 419.141 55.0805Z" fill="#263238"/>
<path d="M434.75 98.9579L435.608 129.186L454.414 88.7057L453.946 84.9531L434.75 98.9579Z" fill="#EBEBEB"/>
<path d="M447.22 189.305C446.535 189.53 407.355 229.127 408.221 236.242C409.088 243.357 436.967 296.039 436.967 296.039L456.9 286.238L438.241 240.063L438.484 237.195L461.285 218.519L460.063 188.499L447.22 189.305Z" fill="#263238"/>
<path d="M455.66 197.114C456.119 197.798 462.897 260.005 464.716 263.22C466.536 266.436 493.766 319.552 493.766 319.552L513.985 311.405L489.303 253.037L492.111 197.798L490.594 182.199L460.063 188.499L455.66 197.114Z" fill="#263238"/>
<path d="M464.362 262.163C464.297 261.96 464.253 261.751 464.232 261.539C464.154 261.089 464.059 260.491 463.937 259.745C463.695 258.133 463.348 255.889 462.932 253.133C462.126 247.491 461.017 239.787 459.786 231.276C458.556 222.766 457.55 215.036 456.77 209.403C456.415 206.629 456.12 204.376 455.904 202.764L455.696 200.953C455.674 200.743 455.674 200.531 455.696 200.32C455.696 200.32 455.748 200.537 455.826 200.944C455.904 201.352 455.999 201.993 456.12 202.738L457.117 209.359C457.932 214.992 459.041 222.697 460.263 231.216C461.485 239.735 462.507 247.448 463.279 253.09C463.643 255.854 463.937 258.107 464.145 259.719C464.232 260.473 464.31 261.08 464.362 261.531C464.383 261.741 464.383 261.953 464.362 262.163Z" fill="#455A64"/>
<path d="M488.793 251.252C488.537 252.925 488.143 254.575 487.614 256.183C487.22 257.829 486.687 259.438 486.02 260.993C486.284 259.33 486.687 257.692 487.224 256.096C487.603 254.438 488.128 252.817 488.793 251.252Z" fill="#455A64"/>
<path d="M491.852 265.344C491.399 264.898 491.024 264.379 490.742 263.81C489.233 261.122 488.577 258.039 488.862 254.97C488.883 254.337 489.012 253.713 489.243 253.124C488.765 257.371 489.678 261.659 491.843 265.344H491.852Z" fill="#455A64"/>
<path d="M431.758 233.347C434.183 234.303 436.173 236.116 437.348 238.443C437.244 238.512 436.273 237.1 434.748 235.704C433.223 234.309 431.663 233.46 431.758 233.347Z" fill="#455A64"/>
<path d="M434.793 231.511C435.603 232.07 436.264 232.82 436.717 233.695C437.298 234.493 437.676 235.421 437.818 236.399C437.284 235.6 436.795 234.773 436.353 233.92C435.789 233.146 435.268 232.342 434.793 231.511Z" fill="#455A64"/>
<path d="M437.497 140.756L442.497 165.593L446.57 200.259C446.57 200.259 463.366 197.91 470.524 195.648C478.826 193.048 496.887 190.778 496.887 190.778L493.836 193.794C500.301 191.982 504.418 185.821 504.418 185.821C493.29 175.499 483.757 154.215 483.757 154.215L475.29 112.165C475.29 112.165 474.008 106.238 473.228 103.594C472.448 100.951 459.596 92.4495 457.81 91.3749L456.692 90.8463L456.337 87.475L455.011 86.6777L441.11 99.3219C438.401 101.777 436.678 105.135 436.266 108.768C435.678 114.018 435.476 119.305 435.659 124.584C435.824 129.567 437.497 140.756 437.497 140.756Z" fill="#63388B"/>
<path d="M447.046 97.7456C447.046 97.7456 439.697 101.689 438.423 105.034C437.149 108.379 440.936 145.055 440.936 145.055L414.53 145.558L414.426 161.287C414.426 161.287 456.362 164.606 458 162.336C460.201 159.268 462.767 130.608 462.767 130.608L463.72 109.983C463.72 109.983 461.319 94.2618 447.046 97.7456Z" fill="#63388B"/>
<g opacity="0.3">
<path d="M442.497 165.593C445.913 166.662 449.516 166.995 453.07 166.572C456.788 166.234 460.575 164.198 461.979 160.731C463.054 158.088 462.603 155.098 462.768 152.247C462.915 149.759 463.522 147.333 463.903 144.88C464.285 142.428 463.037 137.947 462.17 135.564C462.17 135.564 461.234 152.585 458.565 159.734C458.268 160.733 457.705 161.632 456.935 162.334C455.991 163.097 454.691 163.201 453.469 163.288C450.098 163.643 441.969 163.054 441.969 163.054" fill="#3F3F3F"/>
</g>
<path d="M463.701 112.235C463.712 112.362 463.712 112.49 463.701 112.616C463.701 112.876 463.701 113.24 463.657 113.708C463.657 114.696 463.545 116.109 463.458 117.92C463.371 119.731 463.241 121.993 463.103 124.585C462.964 127.176 462.86 130.148 462.539 133.407C462.219 136.666 461.915 140.236 461.508 144.067C461.101 147.897 460.641 151.988 459.905 156.26C459.732 157.352 459.488 158.432 459.177 159.493C458.817 160.603 458.157 161.593 457.27 162.353C456.359 163.138 455.188 163.555 453.986 163.522C452.824 163.522 451.654 163.522 450.519 163.522C445.805 163.401 440.934 163.167 435.942 162.89C428.446 162.483 421.21 162.023 414.476 161.538H414.285V161.347C414.285 155.757 414.346 150.497 414.38 145.635V145.453H414.562L440.05 144.907L447.174 144.786H449.055C449.479 144.786 449.696 144.786 449.696 144.786C449.696 144.786 449.479 144.786 449.055 144.829L447.183 144.907L440.05 145.133L414.571 145.835L414.753 145.653C414.753 150.506 414.753 155.766 414.701 161.356L414.502 161.148C421.253 161.607 428.481 162.075 435.968 162.483C440.951 162.751 445.822 163.003 450.528 163.124C451.706 163.124 452.868 163.167 453.994 163.124C455.104 163.165 456.188 162.784 457.027 162.058C457.855 161.35 458.47 160.426 458.804 159.389C459.109 158.347 459.349 157.288 459.523 156.217C460.26 151.962 460.728 147.871 461.17 144.084C461.612 140.297 461.95 136.7 462.253 133.442C462.557 130.183 462.704 127.219 462.877 124.628C463.051 122.037 463.189 119.809 463.302 117.972C463.415 116.135 463.519 114.748 463.588 113.769C463.588 113.301 463.649 112.902 463.675 112.668C463.666 112.523 463.675 112.378 463.701 112.235Z" fill="#263238"/>
<path d="M419.625 161.053C419.42 158.516 419.359 155.97 419.443 153.427C419.385 150.882 419.472 148.335 419.703 145.8C419.907 148.337 419.968 150.883 419.885 153.427C419.942 155.972 419.855 158.518 419.625 161.053Z" fill="#263238"/>
<path d="M416.834 148.192C416.782 148.192 417.042 147.862 417.544 148.036C417.691 148.087 417.82 148.18 417.916 148.303C418.011 148.426 418.069 148.574 418.082 148.729C418.104 148.923 418.066 149.118 417.971 149.288C417.876 149.459 417.73 149.595 417.553 149.677C417.377 149.76 417.179 149.784 416.987 149.748C416.796 149.712 416.621 149.616 416.487 149.474C416.376 149.372 416.293 149.242 416.247 149.097C416.202 148.953 416.195 148.799 416.227 148.651C416.348 148.148 416.695 148.044 416.704 148.096C416.712 148.148 416.539 148.33 416.53 148.686C416.528 148.779 416.546 148.872 416.583 148.957C416.621 149.042 416.677 149.118 416.747 149.18C416.831 149.25 416.933 149.296 417.042 149.312C417.15 149.329 417.261 149.316 417.362 149.275C417.458 149.226 417.539 149.152 417.595 149.06C417.652 148.968 417.682 148.863 417.683 148.755C417.681 148.664 417.655 148.576 417.608 148.498C417.56 148.421 417.494 148.357 417.414 148.313C417.111 148.131 416.86 148.244 416.834 148.192Z" fill="#263238"/>
<path d="M475.418 115.771C475.418 115.771 489.163 133.736 490.835 138.624C492.508 143.512 491.217 150.549 488.417 153.912C485.618 157.274 483.365 155.905 483.365 155.905L475.418 115.771Z" fill="#63388B"/>
<path d="M482.891 154.467C481.772 154.871 480.608 155.141 479.425 155.273C478.272 155.544 477.09 155.672 475.906 155.654C477.026 155.248 478.189 154.978 479.373 154.848C480.525 154.576 481.707 154.448 482.891 154.467Z" fill="#263238"/>
<path d="M485.488 167.7C485.643 168.002 485.768 168.318 485.861 168.644C486.069 169.268 486.381 170.152 486.788 171.244C487.856 174.09 489.088 176.871 490.48 179.573C491.882 182.267 493.421 184.888 495.091 187.424C495.732 188.404 496.261 189.158 496.633 189.721C496.845 189.988 497.025 190.279 497.17 190.588C496.917 190.359 496.691 190.104 496.495 189.825C496.087 189.314 495.515 188.56 494.839 187.598C493.082 185.108 491.496 182.502 490.09 179.798C488.684 177.084 487.485 174.268 486.502 171.374C486.13 170.265 485.852 169.355 485.696 168.722C485.582 168.392 485.512 168.048 485.488 167.7Z" fill="#263238"/>
<g opacity="0.3">
<path d="M486.441 169.83C488.625 173.713 490.861 177.63 494.172 180.637C495.424 181.588 496.559 182.685 497.552 183.904C498.418 185.195 498.826 186.998 497.976 188.324C497.85 188.571 497.651 188.774 497.406 188.906C497.162 189.037 496.883 189.091 496.607 189.061C496.245 188.922 495.94 188.665 495.74 188.333C491.595 182.994 488.498 176.919 486.615 170.428" fill="#3F3F3F"/>
</g>
<g opacity="0.3">
<path d="M484.624 155.835C486.505 154.483 487.164 151.918 486.886 149.612C486.609 147.307 485.552 145.193 484.607 143.087C481.752 136.789 479.514 130.23 477.925 123.501L476.582 118.518L483.376 154.05L484.624 155.835Z" fill="#3F3F3F"/>
</g>
<path d="M450.625 96.1506C451.436 95.2433 452.304 94.3894 453.225 93.594C454.037 92.6748 454.906 91.8066 455.825 90.9941C455.246 92.074 454.484 93.0448 453.572 93.8627C452.739 94.8012 451.74 95.5769 450.625 96.1506Z" fill="#263238"/>
<path d="M449.236 99.2356C449.236 99.3136 448.439 99.5562 447.225 100.154C444.041 101.734 441.476 104.333 439.937 107.538C439.348 108.76 439.07 109.575 439.07 109.557C439.068 109.354 439.1 109.152 439.166 108.959C439.299 108.43 439.473 107.911 439.686 107.408C441.118 104.041 443.78 101.348 447.13 99.8769C447.63 99.6578 448.145 99.4782 448.673 99.3396C448.853 99.2739 449.044 99.2388 449.236 99.2356Z" fill="#263238"/>
<path d="M486.132 159.415C486.045 159.31 485.972 159.193 485.916 159.068L485.37 158.037C484.876 157.075 484.208 155.766 483.385 154.172C482.518 150.237 481.314 144.5 479.988 138.113C478.757 132.055 477.691 126.604 476.825 122.635L475.958 117.929C475.871 117.418 475.793 116.993 475.733 116.646C475.697 116.499 475.682 116.347 475.689 116.196C475.747 116.335 475.791 116.481 475.819 116.629C475.897 116.967 476.001 117.392 476.123 117.903C476.383 119.064 476.738 120.642 477.163 122.574C478.029 126.578 479.156 132.021 480.421 138.026C481.747 144.413 482.908 150.159 483.68 154.12C484.451 155.74 485.075 157.066 485.534 158.046L486.02 159.111C486.067 159.209 486.105 159.31 486.132 159.415Z" fill="#263238"/>
<path d="M440.484 145.046C440.374 144.62 440.304 144.185 440.276 143.746C440.181 142.827 440.051 141.623 439.895 140.175C439.583 137.168 439.184 133 438.777 128.407C438.37 123.813 438.023 119.636 437.789 116.612C437.685 115.164 437.607 113.96 437.538 113.041C437.498 112.603 437.498 112.162 437.538 111.724C437.636 112.152 437.703 112.586 437.737 113.024C437.832 113.942 437.962 115.147 438.127 116.594C438.43 119.602 438.829 123.761 439.236 128.363C439.644 132.965 439.99 137.134 440.224 140.149C440.328 141.597 440.406 142.801 440.476 143.729C440.509 144.167 440.512 144.607 440.484 145.046Z" fill="#263238"/>
<path d="M414.868 147.395C414.868 147.395 409.165 143.062 407.779 142.81C406.713 142.611 400.36 142.724 397.44 142.81C396.894 142.806 396.368 143.016 395.976 143.395C395.584 143.774 395.356 144.293 395.343 144.838C395.334 144.907 395.334 144.977 395.343 145.046C395.415 145.392 395.584 145.711 395.829 145.965C396.074 146.219 396.386 146.4 396.729 146.485C396.286 146.627 395.899 146.906 395.624 147.281C395.349 147.656 395.199 148.108 395.195 148.573C395.195 150.22 397.163 150.567 397.163 150.567L396.877 150.827C396.63 151.077 396.455 151.388 396.369 151.729C396.283 152.069 396.29 152.427 396.389 152.764C396.488 153.101 396.676 153.405 396.932 153.645C397.188 153.885 397.504 154.052 397.847 154.129L398.714 154.337C398.381 154.472 398.093 154.696 397.88 154.985C397.667 155.274 397.539 155.617 397.509 155.975C397.509 158.141 402.432 158.574 402.432 158.574C402.432 158.574 414.504 160.49 414.764 160.403C415.024 160.316 414.868 147.395 414.868 147.395Z" fill="#FFBE9D"/>
<path d="M398.558 140.21C398.61 140.929 398.784 142.454 399.997 143.139L406.731 142.879C406.731 142.879 401.722 141.146 401.002 140.279C400.724 139.924 400.4 139.607 400.04 139.334C399.891 139.234 399.716 139.178 399.536 139.172C399.356 139.167 399.178 139.213 399.023 139.304C398.868 139.396 398.742 139.53 398.66 139.69C398.578 139.85 398.542 140.03 398.558 140.21Z" fill="#FFBE9D"/>
<path d="M403.558 142.81C402.553 143.048 401.517 143.121 400.49 143.027C399.462 143.087 398.431 143.015 397.422 142.81C398.431 142.584 399.468 142.511 400.498 142.593C401.523 142.542 402.55 142.615 403.558 142.81Z" fill="#EB996E"/>
<path d="M402.049 146.572C401.194 146.847 400.29 146.939 399.397 146.84C398.507 146.874 397.621 146.717 396.797 146.381C397.675 146.286 398.562 146.286 399.44 146.381C400.314 146.346 401.189 146.41 402.049 146.572Z" fill="#EB996E"/>
<path d="M405.473 146.086C405.577 146.155 405.473 146.519 405.065 146.761C404.658 147.004 404.294 146.978 404.285 146.857C404.277 146.735 404.528 146.588 404.823 146.398C405.117 146.207 405.369 146.034 405.473 146.086Z" fill="#EB996E"/>
<path d="M402.788 150.836C400.863 151.061 398.914 150.997 397.008 150.645C397.963 150.455 398.942 150.411 399.911 150.515C400.881 150.478 401.85 150.586 402.788 150.836Z" fill="#EB996E"/>
<path d="M406.627 149.031C406.679 149.031 406.783 149.153 406.817 149.413C406.854 149.767 406.752 150.121 406.532 150.401C406.312 150.681 405.991 150.864 405.639 150.912C405.379 150.912 405.223 150.912 405.223 150.817C405.223 150.721 405.803 150.626 406.185 150.132C406.566 149.638 406.523 149.057 406.627 149.031Z" fill="#EB996E"/>
<path d="M403.809 155.004C402.943 155.11 402.065 155.075 401.209 154.9C400.319 154.868 399.44 154.687 398.609 154.362C399.476 154.256 400.354 154.291 401.209 154.466C402.099 154.502 402.978 154.684 403.809 155.004Z" fill="#EB996E"/>
<path d="M407.563 152.881C407.615 152.881 407.702 153.019 407.693 153.288C407.659 153.606 407.533 153.907 407.329 154.155C406.844 154.753 406.289 154.969 406.229 154.883C406.168 154.796 406.584 154.389 406.991 153.886C407.399 153.383 407.494 152.907 407.563 152.881Z" fill="#EB996E"/>
<path d="M491.558 194.141C492.749 194.026 493.897 193.634 494.91 192.996C495.923 192.358 496.772 191.492 497.39 190.467C497.529 190.233 497.65 189.912 497.468 189.713C497.397 189.654 497.316 189.61 497.228 189.583C497.14 189.557 497.048 189.548 496.957 189.557C495.072 189.543 493.199 189.865 491.428 190.51C491.324 190.534 491.226 190.579 491.141 190.643C491.056 190.708 490.985 190.789 490.934 190.883C490.887 191.029 490.887 191.187 490.934 191.333C491.168 192.243 491.402 193.153 491.644 194.072" fill="#63388B"/>
<g opacity="0.4">
<path d="M491.558 194.141C492.749 194.026 493.897 193.634 494.91 192.996C495.923 192.358 496.772 191.491 497.39 190.466C497.529 190.232 497.65 189.911 497.468 189.712C497.397 189.654 497.316 189.61 497.228 189.583C497.14 189.556 497.048 189.547 496.957 189.556C495.072 189.542 493.199 189.865 491.428 190.509C491.324 190.533 491.226 190.579 491.141 190.643C491.056 190.707 490.985 190.789 490.934 190.882C490.887 191.029 490.887 191.186 490.934 191.333C491.168 192.243 491.402 193.153 491.644 194.071" fill="#3F3F3F"/>
</g>
<path d="M434.749 98.958C434.749 98.958 431.976 108.257 432.738 107.728C433.501 107.2 435.156 105.735 435.156 105.735L434.749 98.958Z" fill="#EBEBEB"/>
<path d="M434.904 103.249L433.396 106.871C433.245 107.246 433.146 107.64 433.102 108.041C432.972 109.055 432.833 110.91 433.431 111.04C433.734 111.057 434.036 111.006 434.317 110.89C434.597 110.775 434.848 110.598 435.051 110.373L434.904 103.249Z" fill="#263238"/>
<path d="M481.874 103.82C481.874 103.82 467.063 98.0396 458.856 103.144C450.649 108.249 449.159 116.395 444.271 116.395C434.738 116.395 435.05 109.67 435.05 109.67L433.022 110.285C433.022 111.663 430.821 121.551 440.822 122.756C450.823 123.961 455.087 110.294 464.117 110.285C469.766 110.381 475.273 112.072 480.002 115.164L486.493 111.065L481.874 103.82Z" fill="#263238"/>
<path d="M443.891 122.634C446.445 121.112 448.446 118.813 449.602 116.073C451.907 110.761 456.847 104.703 460.972 103.178C465.097 101.653 474.639 100.578 481.234 104.911L485.454 110.614L479.977 114.175C476.897 112.558 473.659 111.259 470.314 110.302C463.503 108.404 459.36 110.553 455.4 114.297C455.157 114.531 454.923 114.765 454.732 114.99C452.818 117.03 450.718 118.887 448.458 120.537C446.491 121.863 444.757 122.634 443.891 122.634Z" fill="#455A64"/>
<path d="M137.107 41.9257C128.319 43.2863 121.88 35.8592 119.826 29.3335C117.928 23.267 117.027 16.9493 114.366 11.1342C110.64 3.07446 100.778 -0.652062 91.9293 0.0932435C83.081 0.838548 74.1547 5.29305 66.3203 9.46155L68.4869 57.993C68.4869 57.993 85.5336 39.7937 93.7319 39.4991C107.407 38.9531 106.662 61.4249 119.939 64.7441C119.939 64.7441 138.554 69.7879 151.138 53.5385C159.119 43.2169 159.804 30.6854 159.804 30.6854C159.804 30.6854 153.686 39.3691 137.107 41.9257Z" fill="#63388B"/>
<path d="M65.9384 1.4541C66.0597 1.4541 68.4516 53.0015 71.2769 116.586C74.1021 180.171 76.3033 231.736 76.182 231.745C76.0607 231.753 73.6774 180.206 70.8435 116.604C68.0097 53.0015 65.8171 1.46277 65.9384 1.4541Z" fill="#263238"/>
<g opacity="0.2">
<path d="M112.84 25.9697C114.329 31.0976 116.503 36.0008 119.305 40.5465C121.836 44.507 125.675 47.8436 130.277 48.8055C131.119 48.919 131.945 49.1313 132.738 49.4382C133.133 49.599 133.478 49.8633 133.735 50.2034C133.993 50.5435 134.154 50.9468 134.202 51.3708C134.202 52.6447 132.928 53.4767 131.784 54.04C130.195 54.9118 128.496 55.5648 126.732 55.9812C124.999 56.3106 123.56 56.5012 122.338 55.1146C121.156 53.9559 120.094 52.6813 119.166 51.3101C115.154 44.4724 113.169 34.6967 112.84 26.9664" fill="#3F3F3F"/>
</g>
<path d="M124.759 57.1431C124.759 57.1431 124.62 57.0825 124.369 56.9178C124.005 56.6805 123.655 56.423 123.32 56.1465C122.086 55.1253 120.996 53.9417 120.079 52.628C118.722 50.6779 117.629 48.5564 116.829 46.3189C115.857 43.5893 115.055 40.8021 114.429 37.9732C113.238 32.8467 112.487 27.6279 112.184 22.3738C112.071 20.3632 112.054 18.7339 112.054 17.6073C112.054 17.0786 112.054 16.654 112.054 16.3073C112.039 16.1575 112.039 16.0065 112.054 15.8567C112.093 16.0036 112.111 16.1554 112.106 16.3073C112.106 16.654 112.106 17.0786 112.158 17.5986C112.21 18.7252 112.271 20.3545 112.427 22.3564C112.82 27.5794 113.608 32.7651 114.784 37.8692C115.42 40.6834 116.219 43.4584 117.176 46.1802C117.961 48.3897 119.021 50.4919 120.33 52.4373C121.211 53.7474 122.25 54.9437 123.424 55.9992C124.265 56.7705 124.785 57.1171 124.759 57.1431Z" fill="#263238"/>
<path d="M12.9492 241.99L129.052 260.995V241.99H12.9492Z" fill="#E0E0E0"/>
<path d="M148.215 284.932L264.326 303.937V284.932H148.215Z" fill="#E0E0E0"/>
<path d="M282.551 326.001L398.662 345.006V326.001H282.551Z" fill="#E0E0E0"/>
<path d="M416.715 358.691L532.818 377.696V358.691H416.715Z" fill="#E0E0E0"/>
<path d="M129.052 227.76H12.9492V241.999H129.052V227.76Z" fill="#63388B"/>
<g opacity="0.3">
<path d="M129.05 227.759H92.8164V241.998H129.05V227.759Z" fill="#3F3F3F"/>
</g>
<path d="M264.318 270.692H148.215V284.931H264.318V270.692Z" fill="#63388B"/>
<g opacity="0.3">
<path d="M264.324 270.692H228.09V284.93H264.324V270.692Z" fill="#3F3F3F"/>
</g>
<path d="M398.662 311.762H282.559V326.001H398.662V311.762Z" fill="#63388B"/>
<g opacity="0.3">
<path d="M398.66 311.762H362.426V326.001H398.66V311.762Z" fill="#3F3F3F"/>
</g>
<path d="M532.997 344.452H416.895V358.691H532.997V344.452Z" fill="#63388B"/>
<g opacity="0.3">
<path d="M533 344.452H496.766V358.691H533V344.452Z" fill="#3F3F3F"/>
</g>
<path d="M461.449 292.637C461.451 293.26 461.637 293.869 461.985 294.387C462.333 294.905 462.826 295.308 463.403 295.545C463.979 295.782 464.613 295.844 465.224 295.721C465.836 295.598 466.397 295.297 466.837 294.856C467.278 294.414 467.577 293.852 467.698 293.24C467.819 292.629 467.756 291.995 467.517 291.419C467.278 290.843 466.874 290.351 466.355 290.005C465.837 289.658 465.227 289.474 464.604 289.474C464.189 289.474 463.778 289.555 463.395 289.715C463.011 289.874 462.663 290.107 462.37 290.401C462.077 290.694 461.845 291.043 461.687 291.427C461.529 291.811 461.448 292.222 461.449 292.637Z" fill="#EBEBEB"/>
</svg>
