<svg width="17" height="15" viewBox="0 0 17 15" fill="none" xmlns="http://www.w3.org/2000/svg">
<path fill-rule="evenodd" clip-rule="evenodd" d="M2.9265 0C2.13434 0 1.488 0.612452 1.488 1.36194V2.11779H1.11168C0.500245 2.11779 0 2.59321 0 3.1718V10.768V11.2857C0 11.8643 0.500245 12.3397 1.11168 12.3397H6.34371V14.4491H3.97377C3.93551 14.4491 3.89762 14.4562 3.86228 14.4701C3.82693 14.4839 3.79481 14.5042 3.76776 14.5298C3.7407 14.5554 3.71924 14.5857 3.7046 14.6191C3.68996 14.6526 3.68243 14.6884 3.68243 14.7245C3.68243 14.7607 3.68996 14.7965 3.7046 14.83C3.71924 14.8634 3.7407 14.8937 3.76776 14.9193C3.79481 14.9449 3.82693 14.9652 3.86228 14.979C3.89762 14.9929 3.93551 15 3.97377 15H12.9241C12.9624 15 13.0002 14.9929 13.0356 14.979C13.0709 14.9652 13.103 14.9449 13.1301 14.9193C13.1572 14.8937 13.1786 14.8634 13.1933 14.83C13.2079 14.7965 13.2154 14.7607 13.2154 14.7245C13.2154 14.6884 13.2079 14.6526 13.1933 14.6191C13.1786 14.5857 13.1572 14.5554 13.1301 14.5298C13.103 14.5042 13.0709 14.4839 13.0356 14.4701C13.0002 14.4562 12.9624 14.4491 12.9241 14.4491H10.5541V12.3397H15.7862C16.3976 12.3397 16.8979 11.8643 16.8979 11.2857V3.68949V3.1718C16.8979 2.5932 16.3976 2.11779 15.7862 2.11779H15.4099V1.36194C15.4099 0.612452 14.7635 0 13.9714 0H2.9265ZM2.9265 0.550901H13.9714C14.4503 0.550901 14.8272 0.907598 14.8272 1.36194V2.38941C14.827 2.39063 14.8268 2.39184 14.8266 2.39306C14.8268 2.39427 14.827 2.39549 14.8272 2.3967V8.23698C14.8272 8.69132 14.4503 9.04802 13.9714 9.04802H13.5323C13.5774 8.99821 13.6023 8.93482 13.6024 8.86924V7.63677C13.6024 7.56372 13.5717 7.49367 13.517 7.44202C13.4624 7.39037 13.3883 7.36135 13.311 7.36134H12.6829C12.6301 7.222 12.5694 7.08535 12.501 6.95203L12.9409 6.54261C12.9684 6.51698 12.9903 6.48642 13.0052 6.45272C13.0201 6.41903 13.0278 6.38286 13.0278 6.34632C13.0278 6.30979 13.0201 6.27362 13.0052 6.23992C12.9903 6.20622 12.9684 6.17567 12.9409 6.15004L11.2415 4.56833C11.187 4.51761 11.1136 4.48918 11.0371 4.48918C10.9606 4.48918 10.8872 4.51761 10.8327 4.56833L10.3884 4.98192C10.2429 4.91704 10.094 4.85941 9.94196 4.80947V4.22989C9.94196 4.15684 9.91127 4.08678 9.85663 4.03512C9.802 3.98346 9.7279 3.95444 9.65063 3.95443H7.24718C7.16991 3.95444 7.09581 3.98346 7.04118 4.03512C6.98654 4.08678 6.95585 4.15684 6.95585 4.22989V4.81064C6.80432 4.8607 6.65585 4.91841 6.51094 4.98328L6.0651 4.56833C6.0106 4.51761 5.93719 4.48918 5.86072 4.48918C5.78424 4.48918 5.71083 4.51761 5.65633 4.56833L3.95691 6.15004C3.92937 6.17567 3.90751 6.20622 3.89258 6.23992C3.87766 6.27362 3.86997 6.30979 3.86997 6.34632C3.86997 6.38286 3.87766 6.41903 3.89258 6.45272C3.90751 6.48642 3.92937 6.51698 3.95691 6.54261L4.39827 6.95341C4.3299 7.08628 4.26917 7.22247 4.21617 7.36134H3.58676C3.5095 7.36135 3.43541 7.39037 3.38078 7.44202C3.32615 7.49367 3.29545 7.56372 3.29544 7.63677V8.86924C3.29617 8.9351 3.32184 8.99852 3.36779 9.04802H2.9265C2.4476 9.04802 2.07068 8.69132 2.07068 8.23698V2.39628C2.07086 2.39506 2.07102 2.39385 2.07117 2.39263C2.07109 2.38898 2.07092 2.38534 2.07068 2.3817V1.36074C2.07068 0.906394 2.4476 0.550901 2.9265 0.550901ZM1.11168 2.66869H1.488V8.23738C1.488 8.98687 2.13434 9.59932 2.9265 9.59932H13.9714C14.7635 9.59932 15.4099 8.98687 15.4099 8.23738V2.66869H15.7862C16.0837 2.66869 16.3152 2.88774 16.3152 3.1718V3.68949V11.2857C16.3152 11.5698 16.0837 11.7888 15.7862 11.7888H1.11168C0.814153 11.7888 0.582671 11.5698 0.582671 11.2857V3.68949V3.1718C0.582671 2.88774 0.814153 2.66869 1.11168 2.66869ZM7.53853 4.50573H9.35932V5.0105C9.35932 5.06999 9.3797 5.12787 9.41739 5.17551C9.45509 5.22314 9.50808 5.25795 9.56844 5.27475C9.82474 5.34607 10.0724 5.44155 10.3077 5.55982C10.3624 5.58734 10.425 5.59763 10.4864 5.5892C10.5477 5.58077 10.6046 5.55404 10.6488 5.51292L11.0371 5.15153L12.3212 6.34672L11.9395 6.70204C11.8943 6.74413 11.8648 6.79901 11.8556 6.85836C11.8464 6.9177 11.8579 6.97827 11.8885 7.03085C12.0153 7.24937 12.1177 7.47933 12.194 7.71717C12.2122 7.77371 12.2491 7.82323 12.2993 7.85842C12.3495 7.89362 12.4103 7.91262 12.4728 7.91262H13.0197V8.86965C13.0204 8.9355 13.0461 8.99892 13.0921 9.04842H10.4169C10.457 9.00413 10.4812 8.94894 10.4861 8.89081C10.4899 8.84586 10.4912 8.8009 10.4912 8.75581C10.4912 8.75582 10.4912 8.75581 10.4912 8.75581C10.4912 7.70448 9.57088 6.85043 8.44878 6.85043C7.3267 6.85043 6.40638 7.70435 6.40638 8.75568C6.40638 8.75565 6.40638 8.75571 6.40638 8.75568C6.40638 8.80076 6.40767 8.84581 6.41152 8.89077C6.41634 8.94892 6.44054 9.00412 6.48066 9.04842H3.80791C3.85302 8.99861 3.87786 8.93522 3.87795 8.86965V7.91262H4.42575C4.48814 7.91262 4.54889 7.89368 4.59905 7.85858C4.64921 7.82349 4.68612 7.7741 4.70436 7.71768C4.78108 7.48032 4.88371 7.25085 5.0107 7.03284C5.04135 6.98024 5.05297 6.91961 5.04381 6.86019C5.03465 6.80076 5.0052 6.7458 4.95994 6.70366L4.57645 6.34673L5.86057 5.15153L6.25057 5.51451C6.2948 5.5557 6.3518 5.58245 6.41325 5.59087C6.47469 5.59928 6.53738 5.58892 6.59216 5.56129C6.82683 5.44283 7.07399 5.34707 7.32976 5.27546C7.39 5.25859 7.44287 5.22376 7.48046 5.17616C7.51806 5.12857 7.53837 5.07075 7.53838 5.01135L7.53853 4.50573ZM8.44887 7.40133C9.26094 7.40133 9.90858 8.00676 9.9086 8.75563C9.9086 8.78746 9.90737 8.8193 9.90475 8.85101C9.89966 8.92285 9.92452 8.99371 9.97401 9.04843H6.92471C6.97373 8.99353 6.99813 8.9227 6.99269 8.85103C6.99012 8.81932 6.98884 8.78749 6.98884 8.75566C6.98884 8.00681 7.63683 7.40132 8.44887 7.40133ZM6.92638 12.3397H9.97143V14.4491H6.92638V12.3397Z" fill="white"/>
</svg>
