<svg width="16" height="15" viewBox="0 0 16 15" fill="none" xmlns="http://www.w3.org/2000/svg">
<path d="M14.7484 0H0.300945C0.13465 0 0 0.134208 0 0.299959V14.7C0 14.8658 0.13465 15 0.300945 15H14.7482C14.9145 15 15.0491 14.8658 15.0491 14.7V0.299959C15.0493 0.134208 14.9147 0 14.7484 0ZM14.4475 0.599918V3.07525H0.601891V0.599918H14.4475ZM0.601891 14.4001V3.67517H14.4475V14.4001H0.601891ZM13.6629 2.21351H7.03096V1.61359H13.6629V2.21351ZM5.70493 2.21351H5.15496V1.61359H5.70493V2.21351ZM4.46661 2.21351H3.91664V1.61359H4.46661V2.21351ZM3.22829 2.21351H2.67831V1.61359H3.22829V2.21351ZM1.99017 2.21351H1.44019V1.61359H1.99017V2.21351ZM11.9431 8.97547C11.9996 9.03175 12.0312 9.10803 12.0312 9.1876C12.0312 9.26718 11.9996 9.34346 11.9431 9.39974L9.67328 11.6621C9.61454 11.7207 9.53759 11.7499 9.46044 11.7499C9.3835 11.7499 9.30635 11.7207 9.24761 11.6621C9.13013 11.545 9.13013 11.3551 9.24761 11.2378L11.3046 9.1876L9.24761 7.13737C9.13013 7.02027 9.13013 6.8304 9.24761 6.7131C9.36509 6.596 9.5558 6.596 9.67328 6.7131L11.9431 8.97547ZM5.8764 7.06295L3.74475 9.1876L5.8764 11.3123C5.99388 11.4294 5.99388 11.6194 5.8764 11.7365C5.81766 11.7951 5.74072 11.8244 5.66357 11.8244C5.58642 11.8244 5.50947 11.7951 5.45073 11.7365L3.10625 9.39974C2.98877 9.28264 2.98877 9.09277 3.10625 8.97547L5.45073 6.63868C5.56822 6.52158 5.75892 6.52158 5.8764 6.63868C5.99388 6.75577 5.99388 6.94585 5.8764 7.06295ZM8.48253 6.78773L7.14844 11.7501C7.11245 11.8841 6.99083 11.9726 6.85783 11.9726C6.83198 11.9726 6.80592 11.9693 6.77986 11.9623C6.61935 11.9194 6.524 11.7549 6.56702 11.5949L7.90111 6.63249C7.94413 6.47251 8.1094 6.37789 8.26969 6.42036C8.4302 6.46324 8.52534 6.62775 8.48253 6.78773Z" fill="white"/>
</svg>
