<svg width="59" height="57" viewBox="0 0 59 57" fill="none" xmlns="http://www.w3.org/2000/svg">
<path fill-rule="evenodd" clip-rule="evenodd" d="M42.7493 38.4226L49.0293 36.226V20.2584L34.4614 7.74504L19.8936 20.2584V30.0872C21.1254 30.1472 22.3226 30.5065 23.3772 31.1327C25.3989 32.2961 27.1914 33.7832 29.2765 34.7296V27.2977C29.2774 26.734 29.5065 26.1936 29.9136 25.795C30.3207 25.3964 30.8726 25.1721 31.4484 25.1712H37.4656C38.0413 25.1721 38.5933 25.3964 39.0004 25.795C39.4075 26.1936 39.6366 26.734 39.6374 27.2977V36.5795C40.8149 36.9088 42.133 37.4626 42.741 38.4251L42.7493 38.4226ZM24.7725 10.5841L33.6171 2.98663C33.857 2.79226 34.1588 2.68643 34.4702 2.68756C34.7815 2.6887 35.0826 2.79672 35.3209 2.99283L53.9108 18.9654C53.9371 18.991 53.9651 19.015 53.9944 19.0373C54.238 19.256 54.3829 19.5605 54.3972 19.8837C54.4115 20.207 54.2941 20.5226 54.0707 20.761C53.8474 20.9995 53.5364 21.1414 53.2063 21.1554C52.8761 21.1694 52.5538 21.0544 52.3102 20.8358L35.0308 5.98877C34.8727 5.8536 34.6695 5.77963 34.4596 5.78078C34.2496 5.78192 34.0474 5.85809 33.8907 5.99498L18.521 19.198C18.4831 19.2255 18.4475 19.256 18.4146 19.2891L16.6189 20.8321C16.494 20.9374 16.3489 21.0173 16.1921 21.0673C16.0353 21.1173 15.8699 21.1363 15.7055 21.1233C15.5412 21.1102 15.3811 21.0654 15.2346 20.9913C15.0881 20.9172 14.958 20.8154 14.852 20.6917C14.746 20.568 14.6661 20.425 14.617 20.2709C14.5679 20.1167 14.5505 19.9546 14.5658 19.7938C14.5812 19.6331 14.629 19.4769 14.7065 19.3344C14.7839 19.1919 14.8895 19.0658 15.0171 18.9635L19.5484 15.069C19.5865 15.0413 19.6223 15.0106 19.6554 14.9772L24.6648 10.6734C24.703 10.6457 24.7388 10.615 24.7719 10.5816L24.7725 10.5841ZM23.2879 9.61727L19.8986 12.5283V5.49265H23.2879V9.61727ZM18.1714 14.0129V4.64863C18.1715 4.4244 18.2626 4.2094 18.4246 4.0509C18.5866 3.8924 18.8063 3.80337 19.0353 3.80337H24.1512C24.3802 3.80337 24.5998 3.8924 24.7618 4.0509C24.9238 4.2094 25.0149 4.4244 25.0151 4.64863V8.13573L32.4821 1.7178C33.0353 1.25344 33.7403 0.998753 34.469 1C35.1978 1.00126 35.9018 1.25836 36.4534 1.72463C42.6682 7.06411 48.9805 12.3689 55.1307 17.7716L55.1503 17.7915C55.4364 18.0506 55.6675 18.3624 55.8305 18.709C55.9935 19.0555 56.0851 19.4302 56.1003 19.8115C56.1154 20.1927 56.0536 20.5732 55.9186 20.9311C55.7835 21.289 55.5778 21.6174 55.3131 21.8975C55.0484 22.1775 54.73 22.4038 54.376 22.5634C54.022 22.723 53.6394 22.8127 53.25 22.8275C52.8606 22.8423 52.472 22.7819 52.1064 22.6497C51.7409 22.5174 51.4055 22.316 51.1195 22.0568L50.7559 21.7468V35.6245L53.7733 34.5702C56.4013 33.6518 59.0856 36.719 57.5515 39.2096C57.0694 39.9371 56.3842 40.5139 55.5772 40.8716L34.4937 51.1865C34.4165 51.2323 34.3322 51.2658 34.2442 51.2857C29.6616 52.3468 26.2287 51.9679 21.9704 51.4984C20.1551 51.2981 18.1866 51.0811 15.9336 50.9564L16.427 52.9049C16.454 53.0127 16.459 53.1246 16.4417 53.2342C16.4244 53.3438 16.3853 53.4491 16.3265 53.5439C16.2676 53.6387 16.1903 53.7212 16.0989 53.7867C16.0074 53.8522 15.9037 53.8995 15.7936 53.9257L7.33795 55.9759C7.11571 56.029 6.88102 55.9935 6.68551 55.8772C6.49 55.7609 6.34967 55.5734 6.29539 55.3558L1.02499 34.5101C0.997878 34.4023 0.992766 34.2904 1.00995 34.1807C1.02713 34.071 1.06627 33.9657 1.12512 33.8709C1.18397 33.776 1.26137 33.6935 1.35288 33.628C1.4444 33.5625 1.54821 33.5154 1.65838 33.4893L10.1134 31.4391C10.2235 31.4125 10.3378 31.4075 10.4499 31.4244C10.5619 31.4412 10.6694 31.4795 10.7663 31.5371C10.8632 31.5947 10.9474 31.6705 11.0143 31.7601C11.0812 31.8497 11.1293 31.9514 11.156 32.0592L11.5487 33.6096C13.2913 32.0261 15.4135 30.8985 17.7191 30.3309C17.8712 30.2912 18.0219 30.2558 18.1726 30.2261V21.7406L17.7521 22.1021C17.1673 22.602 16.4058 22.858 15.6307 22.8152C14.8556 22.7725 14.1284 22.4344 13.6047 21.8733C13.5717 21.8407 13.5414 21.8057 13.5141 21.7685C13.0282 21.1932 12.7869 20.457 12.8401 19.7123C12.8933 18.9676 13.2369 18.2714 13.7997 17.7679C13.8301 17.7384 13.8624 17.7111 13.8967 17.686L18.1752 14.0104L18.1714 14.0129ZM29.8168 22.6863C29.5877 22.6863 29.3679 22.5972 29.2059 22.4385C29.0439 22.2799 28.9529 22.0648 28.9529 21.8404C28.9529 21.6161 29.0439 21.4009 29.2059 21.2423C29.3679 21.0836 29.5877 20.9945 29.8168 20.9945H39.1086C39.3377 20.9945 39.5574 21.0836 39.7195 21.2423C39.8815 21.4009 39.9725 21.6161 39.9725 21.8404C39.9725 22.0648 39.8815 22.2799 39.7195 22.4385C39.5574 22.5972 39.3377 22.6863 39.1086 22.6863H29.8168ZM28.215 18.047C27.99 18.041 27.7762 17.9493 27.6193 17.7914C27.4623 17.6334 27.3744 17.4218 27.3744 17.2014C27.3744 16.981 27.4623 16.7693 27.6193 16.6114C27.7762 16.4535 27.99 16.3618 28.215 16.3558H40.711C40.936 16.3618 41.1498 16.4535 41.3068 16.6114C41.4637 16.7693 41.5516 16.981 41.5516 17.2014C41.5516 17.4218 41.4637 17.6334 41.3068 17.7914C41.1498 17.9493 40.936 18.041 40.711 18.047H28.215ZM50.2118 37.6096L54.3529 36.1615C54.6406 36.0982 54.9407 36.1165 55.2181 36.2143C55.4956 36.312 55.7388 36.4852 55.9193 36.7134C56.0999 36.9416 56.2102 37.2155 56.2375 37.503C56.2647 37.7904 56.2077 38.0795 56.0732 38.3364C55.7572 38.7881 55.3184 39.144 54.8064 39.364L33.7628 49.6585C29.5064 50.6284 26.2255 50.2668 22.1573 49.8178C20.1938 49.6014 18.0479 49.3645 15.4985 49.243L12.032 35.5296C13.6711 33.7738 15.8045 32.5326 18.1631 31.9625C18.8929 31.7676 19.6559 31.7224 20.4043 31.8296C21.1527 31.9369 21.8705 32.1943 22.5126 32.5857C24.9511 33.9898 26.8488 35.7336 29.7414 36.7296C31.8151 37.4434 38.2339 37.3882 40.623 38.7637C40.774 38.8253 40.9082 38.9207 41.0149 39.0422C41.1216 39.1636 41.1978 39.3078 41.2375 39.4632C41.2772 39.6187 41.2792 39.781 41.2435 39.9373C41.2077 40.0937 41.1351 40.2397 41.0315 40.3637C40.6344 41.0247 39.3334 40.7978 38.3643 40.8108C37.2699 40.8269 36.2856 40.8455 35.3741 40.8623C29.7414 40.9677 26.8937 41.0204 22.8331 40.0071C22.6109 39.9516 22.3754 39.9849 22.1783 40.0995C21.9811 40.2141 21.8386 40.4007 21.782 40.6182C21.7254 40.8357 21.7593 41.0664 21.8764 41.2594C21.9935 41.4524 22.184 41.5919 22.4062 41.6474C26.6714 42.7122 29.6027 42.657 35.3995 42.5491C36.3225 42.5317 37.3171 42.5145 38.3833 42.4976C39.9339 42.4753 41.5268 42.8629 42.5149 41.2176C42.7236 40.8819 42.8823 40.5188 42.9862 40.1392L50.1517 37.6325C50.1719 37.6263 50.1922 37.6195 50.2118 37.6114V37.6096ZM31.0101 35.3076V27.2977C31.0109 27.1828 31.0579 27.0729 31.1409 26.9917C31.2239 26.9104 31.3361 26.8644 31.4535 26.8636H37.4706C37.588 26.8644 37.7003 26.9104 37.7832 26.9917C37.8662 27.0729 37.9132 27.1828 37.914 27.2977V36.1932C36.5782 35.9532 35.1398 35.8012 33.8299 35.6629C32.7278 35.5463 31.7233 35.4403 31.0063 35.3076H31.0101ZM10.5099 49.9338C10.2639 49.9338 10.0234 50.0052 9.81883 50.1391C9.61426 50.2729 9.45482 50.4631 9.36066 50.6857C9.26651 50.9082 9.24188 51.1531 9.28988 51.3894C9.33787 51.6257 9.45635 51.8427 9.63032 52.013C9.8043 52.1833 10.0259 52.2994 10.2673 52.3463C10.5086 52.3933 10.7587 52.3692 10.986 52.277C11.2133 52.1848 11.4076 52.0287 11.5443 51.8284C11.681 51.6282 11.7539 51.3927 11.7539 51.1518C11.7539 50.8287 11.6229 50.519 11.3896 50.2905C11.1563 50.0621 10.8399 49.9338 10.5099 49.9338ZM13.9828 50.2612L9.68781 33.2797L2.90488 34.9243L7.76422 54.1347L14.5465 52.4901L13.9828 50.2612Z" fill="url(#paint0_linear_1438_22544)" stroke="url(#paint1_linear_1438_22544)" stroke-width="0.5"/>
<defs>
<linearGradient id="paint0_linear_1438_22544" x1="29.5" y1="1" x2="29.5" y2="56" gradientUnits="userSpaceOnUse">
<stop stop-color="#63388B"/>
<stop offset="1" stop-color="#327EB2"/>
</linearGradient>
<linearGradient id="paint1_linear_1438_22544" x1="29.5" y1="1" x2="29.5" y2="56" gradientUnits="userSpaceOnUse">
<stop stop-color="#63388B"/>
<stop offset="1" stop-color="#327EB2"/>
</linearGradient>
</defs>
</svg>
