<svg width="52" height="55" viewBox="0 0 52 55" fill="none" xmlns="http://www.w3.org/2000/svg">
<path d="M15.4416 4.01549C15.4416 3.53927 15.8668 3.1528 16.3908 3.1528H21.4332C21.9572 3.1528 22.3825 3.53927 22.3825 4.01549C22.3825 4.4917 21.9572 4.87817 21.4332 4.87817H16.3908C15.8668 4.87817 15.4416 4.49231 15.4416 4.01549ZM23.5171 49.2201C23.5171 50.5407 22.3348 51.6152 20.8817 51.6152H16.943C15.49 51.6152 14.3076 50.5407 14.3076 49.2201C14.3076 47.8995 15.49 46.8249 16.943 46.8249H20.8817C22.3348 46.8249 23.5171 47.8995 23.5171 49.2201ZM21.618 49.2201C21.618 48.8507 21.2874 48.5509 20.881 48.5509H16.9424C16.5359 48.5509 16.2061 48.8513 16.2061 49.2201C16.2061 49.5894 16.5366 49.8892 16.9424 49.8892H20.881C21.2874 49.8892 21.618 49.5888 21.618 49.2201ZM4.74682 17.8331V12.2571C4.74682 11.3547 5.5543 10.6209 6.54719 10.6209H12.4992C13.4921 10.6209 14.2996 11.3547 14.2996 12.2571V17.8331C14.2996 18.7355 13.4921 19.4693 12.4992 19.4693H6.54719C5.5543 19.4693 4.74682 18.7355 4.74682 17.8331ZM6.64527 17.744H12.4018V12.3456H6.64527V17.744ZM52 34.563V38.8624C52 39.3386 51.5748 39.725 51.0508 39.725H49.4318C49.1348 40.752 48.6881 41.7319 48.0976 42.6507L49.243 43.6917C49.421 43.8535 49.5211 44.0727 49.5211 44.3016C49.5211 44.5306 49.421 44.7497 49.243 44.9115L45.8975 47.952C45.5267 48.289 44.9255 48.289 44.5553 47.952L43.4099 46.911C42.3989 47.4477 41.3213 47.8537 40.1907 48.1236V49.5949C40.1907 50.0712 39.7655 50.4576 39.2415 50.4576H37.8254V51.2318C37.8254 53.3094 35.849 55 33.4192 55H4.40622C1.97638 55 0 53.3094 0 51.2318V3.76822C0 1.69057 1.97638 0 4.40622 0H33.4192C35.849 0 37.8254 1.69057 37.8254 3.76822V22.9671H39.2415C39.7655 22.9671 40.1907 23.3536 40.1907 23.8298V25.3012C41.3207 25.571 42.3989 25.977 43.4099 26.5137L44.5553 25.4727C44.7333 25.3109 44.9745 25.22 45.2264 25.22C45.4783 25.22 45.7195 25.3109 45.8975 25.4727L49.243 28.5132C49.6138 28.8502 49.6138 29.3966 49.243 29.733L48.0976 30.774C48.6881 31.6928 49.1348 32.6721 49.4318 33.6997H51.0508C51.5748 33.7003 52 34.0861 52 34.563ZM35.9263 22.9671V8.03219H1.89846V43.4395H24.7861L25.6534 42.6513C25.0629 41.7325 24.6161 40.7532 24.3192 39.7256H22.7002C22.1762 39.7256 21.751 39.3392 21.751 38.863V34.5636C21.751 34.0874 22.1762 33.7009 22.7002 33.7009H24.3192C24.6161 32.674 25.0629 31.6941 25.6534 30.7752L24.508 29.7343C24.1371 29.3972 24.1371 28.8508 24.508 28.5144L27.8534 25.4739C28.2243 25.1369 28.8255 25.1369 29.1957 25.4739L30.3411 26.5149C31.3521 25.9782 32.4296 25.5722 33.5602 25.3024V23.831C33.5602 23.3548 33.9855 22.9683 34.5095 22.9683H35.9263V22.9671ZM1.89846 3.76822V6.30621H35.9263V3.76822C35.9263 2.64178 34.8017 1.72537 33.4185 1.72537H4.40622C3.02369 1.72537 1.89846 2.64178 1.89846 3.76822ZM35.9263 50.4582H34.5101C33.9861 50.4582 33.5609 50.0718 33.5609 49.5956V48.1242C32.431 47.8543 31.3528 47.4483 30.3417 46.9116L29.1963 47.9526C29.0183 48.1144 28.7771 48.2054 28.5252 48.2054C28.2733 48.2054 28.0321 48.1144 27.8541 47.9526L24.7868 45.1649H1.89913V51.2324C1.89913 52.3588 3.02369 53.2752 4.40689 53.2752H33.4198C34.8024 53.2752 35.9276 52.3588 35.9276 51.2324V50.4582H35.9263ZM50.1015 35.4257H48.6774C48.2246 35.4257 47.8349 35.135 47.7463 34.7315C47.4628 33.439 46.9099 32.2271 46.1031 31.1281C45.8518 30.7856 45.9016 30.3301 46.2213 30.0389L47.229 29.1231L45.2264 27.3031L44.2181 28.2189C43.8983 28.5101 43.3965 28.5547 43.0196 28.3264C41.8097 27.5931 40.4762 27.0906 39.0547 26.833C38.6107 26.7524 38.2909 26.3983 38.2909 25.9868V24.6925H35.4587V25.9868C35.4587 26.3983 35.1389 26.7524 34.6949 26.833C33.2727 27.0906 31.9392 27.5931 30.73 28.3264C30.3538 28.5547 29.852 28.5095 29.5316 28.2189L28.5239 27.3031L26.5213 29.1231L27.529 30.0395C27.8494 30.3301 27.8985 30.7862 27.6472 31.1287C26.8397 32.2283 26.2868 33.4402 26.004 34.7321C25.9154 35.1357 25.5257 35.4263 25.0729 35.4263H23.6488V38.0003H25.0729C25.5257 38.0003 25.9154 38.2909 26.004 38.6945C26.2875 39.987 26.8404 41.1989 27.6472 42.2978C27.8985 42.6397 27.8487 43.0958 27.529 43.387L26.5213 44.3028L28.5239 46.1228L29.5316 45.207C29.8513 44.9158 30.3531 44.8712 30.73 45.0996C31.9392 45.8328 33.2734 46.3353 34.6949 46.5929C35.1389 46.6735 35.4587 47.0276 35.4587 47.4391V48.7335H38.2909V47.4391C38.2909 47.0276 38.6107 46.6735 39.0547 46.5929C40.4769 46.3353 41.8104 45.8328 43.0196 45.0996C43.3965 44.8712 43.8976 44.9164 44.2181 45.207L45.2257 46.1228L47.2283 44.3028L46.2207 43.387C45.9002 43.0964 45.8512 42.6403 46.1024 42.2978C46.9092 41.1989 47.4621 39.9863 47.7456 38.6945C47.8343 38.2909 48.2239 38.0003 48.6767 38.0003H50.1009L50.1015 35.4257ZM45.6617 36.7127C45.6617 41.1158 41.7204 44.6978 36.8755 44.6978C32.0306 44.6978 28.0892 41.1158 28.0892 36.7127C28.0892 32.3095 32.0306 28.7275 36.8755 28.7275C41.7204 28.7275 45.6617 32.3095 45.6617 36.7127ZM43.7633 36.7127C43.7633 33.2607 40.6737 30.4528 36.8755 30.4528C33.0772 30.4528 29.9877 33.2607 29.9877 36.7127C29.9877 40.1646 33.0772 42.9725 36.8755 42.9725C40.6737 42.9725 43.7633 40.1646 43.7633 36.7127ZM32.9933 36.7127L34.3382 35.4739C34.7063 35.1344 34.7023 34.5886 34.3294 34.254C33.9566 33.9195 33.3553 33.9231 32.9872 34.262L30.9846 36.1064C30.6198 36.4422 30.6198 36.9825 30.9846 37.3183L32.9872 39.1627C33.1733 39.3337 33.4178 39.4198 33.663 39.4198C33.9035 39.4198 34.1447 39.3367 34.3294 39.1713C34.7029 38.8367 34.7063 38.2903 34.3382 37.9514L32.9933 36.7127ZM37.8677 33.3474C37.3612 33.2247 36.8405 33.497 36.7048 33.9573L35.2115 39.0217C35.0758 39.482 35.3761 39.9552 35.8826 40.0785C35.9652 40.0987 36.0479 40.1078 36.1291 40.1078C36.5483 40.1078 36.9319 39.8539 37.0454 39.468L38.5388 34.4036C38.6752 33.9439 38.3742 33.4707 37.8677 33.3474ZM39.4229 34.254C39.0494 34.5886 39.0453 35.135 39.4142 35.4739L40.7591 36.7127L39.4142 37.9514C39.046 38.2903 39.05 38.8367 39.4229 39.1713C39.6076 39.3373 39.8488 39.4198 40.0893 39.4198C40.3345 39.4198 40.579 39.3343 40.7651 39.1627L42.7677 37.3183C43.1325 36.9825 43.1325 36.4422 42.7677 36.1064L40.7651 34.262C40.397 33.9231 39.7957 33.9195 39.4229 34.254ZM5.69604 34.7699H13.0386C13.5626 34.7699 13.9879 34.3835 13.9879 33.9073C13.9879 33.431 13.5626 33.0446 13.0386 33.0446H5.69604C5.17205 33.0446 4.74682 33.431 4.74682 33.9073C4.74682 34.3835 5.17138 34.7699 5.69604 34.7699ZM5.69604 23.8743H15.3482C15.8722 23.8743 16.2974 23.4879 16.2974 23.0117C16.2974 22.5354 15.8722 22.149 15.3482 22.149H5.69604C5.17205 22.149 4.74682 22.5354 4.74682 23.0117C4.74682 23.4879 5.17138 23.8743 5.69604 23.8743ZM5.69604 29.3221H7.47358C7.99757 29.3221 8.42281 28.9357 8.42281 28.4595C8.42281 27.9832 7.99757 27.5968 7.47358 27.5968H5.69604C5.17205 27.5968 4.74682 27.9832 4.74682 28.4595C4.74682 28.9357 5.17138 29.3221 5.69604 29.3221ZM18.7494 18.4265H25.74C26.264 18.4265 26.6892 18.0401 26.6892 17.5639C26.6892 17.0876 26.264 16.7012 25.74 16.7012H18.7494C18.2255 16.7012 17.8002 17.0876 17.8002 17.5639C17.8002 18.0407 18.2248 18.4265 18.7494 18.4265ZM18.7494 12.9787H21.4057C21.9297 12.9787 22.3549 12.5923 22.3549 12.1161C22.3549 11.6398 21.9297 11.2534 21.4057 11.2534H18.7494C18.2255 11.2534 17.8002 11.6398 17.8002 12.1161C17.8002 12.5923 18.2248 12.9787 18.7494 12.9787ZM21.2754 27.5968H11.5029C10.9789 27.5968 10.5537 27.9832 10.5537 28.4595C10.5537 28.9357 10.9789 29.3221 11.5029 29.3221H21.2754C21.7993 29.3221 22.2246 28.9357 22.2246 28.4595C22.2246 27.9832 21.8 27.5968 21.2754 27.5968ZM7.70938 38.4924H5.69604C5.17205 38.4924 4.74682 38.8788 4.74682 39.3551C4.74682 39.8313 5.17205 40.2177 5.69604 40.2177H7.70938C8.23337 40.2177 8.65861 39.8313 8.65861 39.3551C8.65861 38.8788 8.23404 38.4924 7.70938 38.4924ZM32.1293 16.7012H29.9366C29.4127 16.7012 28.9874 17.0876 28.9874 17.5639C28.9874 18.0401 29.4127 18.4265 29.9366 18.4265H32.1293C32.6533 18.4265 33.0786 18.0401 33.0786 17.5639C33.0786 17.0876 32.6533 16.7012 32.1293 16.7012ZM32.1293 11.2534H26.5683C26.0443 11.2534 25.6191 11.6398 25.6191 12.1161C25.6191 12.5923 26.0443 12.9787 26.5683 12.9787H32.1293C32.6533 12.9787 33.0786 12.5923 33.0786 12.1161C33.0786 11.6398 32.6533 11.2534 32.1293 11.2534ZM32.1293 22.149H30.6716C30.1476 22.149 29.7223 22.5354 29.7223 23.0117C29.7223 23.4879 30.1476 23.8743 30.6716 23.8743H32.1293C32.6533 23.8743 33.0786 23.4879 33.0786 23.0117C33.0786 22.5354 32.6533 22.149 32.1293 22.149ZM19.0753 38.4924H12.5959C12.0719 38.4924 11.6467 38.8788 11.6467 39.3551C11.6467 39.8313 12.0719 40.2177 12.5959 40.2177H19.0753C19.5993 40.2177 20.0245 39.8313 20.0245 39.3551C20.0245 38.8788 19.5999 38.4924 19.0753 38.4924ZM19.0753 33.0446H17.2353C16.7113 33.0446 16.286 33.431 16.286 33.9073C16.286 34.3835 16.7113 34.7699 17.2353 34.7699H19.0753C19.5993 34.7699 20.0245 34.3835 20.0245 33.9073C20.0245 33.431 19.5999 33.0446 19.0753 33.0446ZM27.3953 22.149H21.3392C20.8152 22.149 20.3899 22.5354 20.3899 23.0117C20.3899 23.4879 20.8152 23.8743 21.3392 23.8743H27.3953C27.9193 23.8743 28.3445 23.4879 28.3445 23.0117C28.3445 22.5354 27.92 22.149 27.3953 22.149Z" fill="url(#paint0_linear_1438_22560)"/>
<defs>
<linearGradient id="paint0_linear_1438_22560" x1="26" y1="0" x2="26" y2="55" gradientUnits="userSpaceOnUse">
<stop stop-color="#63388B"/>
<stop offset="1" stop-color="#347BB0"/>
</linearGradient>
</defs>
</svg>
