<svg width="58" height="57" viewBox="0 0 58 57" fill="none" xmlns="http://www.w3.org/2000/svg">
<path d="M56.6142 20.4245L50.4663 16.052V3.74971C50.4663 3.24391 50.0492 2.83304 49.5329 2.83304H42.0663C41.55 2.83304 41.1329 3.24391 41.1329 3.74971V9.4138L29.5479 1.17402C29.2195 0.941993 28.7808 0.941993 28.4521 1.17402L1.38542 20.4241C1.14292 20.5964 1 20.8722 1 21.1665V55.0833C1 55.5891 1.41709 56 1.93333 56H56.0667C56.5829 56 57 55.5891 57 55.0833V21.1665C57 20.8722 56.8567 20.5968 56.6142 20.4245ZM12.1022 43.5771C12.1664 43.4506 12.2001 43.3094 12.2001 43.1674V37.6867H10.3335V42.2508H8.4668V36.7507C8.4668 35.2345 9.72302 34.0007 11.2668 34.0007H20.6001C22.1439 34.0007 23.4001 35.2345 23.4001 36.7507V42.2508H21.5335V36.7507H19.6668V43.1674C19.6668 43.3094 19.7006 43.4506 19.7647 43.5771L22.8235 49.5841H9.04323L12.1022 43.5771ZM12.2001 29.3912C15.4247 29.2132 17.9922 28.1188 19.088 26.5598C19.4493 27.1245 19.6668 27.7862 19.6668 28.5011V32.1678H12.2001L12.2001 29.3912ZM12.3468 27.5394C12.7806 25.9855 14.2152 24.8344 15.9335 24.8344C16.571 24.8344 17.1626 25.0067 17.688 25.2846C17.2039 26.3167 15.1252 27.325 12.3468 27.5394ZM23.3996 46.6177L22.1096 44.0841H23.3996V46.6177ZM23.3996 54.1675H21.5329V51.4175H23.3996V54.1675ZM12.1996 51.4175H14.9996V54.1675H12.1996V51.4175ZM16.8663 54.1675V51.4175H19.6663V54.1675H16.8663ZM29.9329 54.1675V42.2508H28.0663V54.1675H25.2663V36.7507C25.2663 34.5847 23.7233 32.7743 21.6638 32.2983C22.0101 31.1664 23.0684 30.334 24.3329 30.334H33.6663C35.2101 30.334 36.4663 31.5678 36.4663 33.084V38.6766C35.7729 38.8157 35.1446 39.1186 34.5996 39.5237V33.084H32.7329V54.1675L29.9329 54.1675ZM25.2663 24.834C25.2663 22.812 26.9408 21.1673 28.9996 21.1673C31.0584 21.1673 32.7329 22.812 32.7329 24.834C32.7329 26.856 31.0584 28.5007 28.9996 28.5007C26.9408 28.5007 25.2663 26.856 25.2663 24.834ZM41.1329 33.084C42.6767 33.084 43.9329 34.3178 43.9329 35.8341C43.9329 37.3503 42.6767 38.5841 41.1329 38.5841C39.5892 38.5841 38.3329 37.3503 38.3329 35.8341C38.3329 34.3178 39.5892 33.084 41.1329 33.084ZM36.4663 54.1675H34.5996V48.6675H36.4663V54.1675ZM42.0663 54.1675V48.6675H40.1996V54.1675H38.3329V43.1674H36.4663V46.8341H34.5996V43.1674C34.5996 41.6512 35.8558 40.4174 37.3996 40.4174H44.8663C46.4101 40.4174 47.6663 41.6512 47.6663 43.1674V46.8341H45.7996V43.1674H43.9329V54.1675H42.0663ZM55.1329 54.1675H45.7996V48.6675H48.5996C49.1158 48.6675 49.5329 48.2566 49.5329 47.7508V43.1674C49.5329 40.64 47.4396 38.5841 44.8663 38.5841H44.8421C45.4346 37.816 45.7996 36.8698 45.7996 35.8341C45.7996 33.3067 43.7063 31.2507 41.1329 31.2507C40.0392 31.2507 39.045 31.6374 38.2479 32.2599C37.8504 30.1262 35.9521 28.5007 33.6663 28.5007H33.1621C34.0525 27.5263 34.5996 26.2438 34.5996 24.834C34.5996 21.8008 32.088 19.334 28.9996 19.334C25.9113 19.334 23.3996 21.8008 23.3996 24.834C23.3996 26.2438 23.9467 27.5263 24.8372 28.5007H24.333C23.2784 28.5007 22.3151 28.8592 21.533 29.4411V28.5007C21.533 25.4675 19.0213 23.0006 15.933 23.0006C12.8447 23.0006 10.333 25.4675 10.333 28.5007V32.2599C8.20599 32.6863 6.59969 34.538 6.59969 36.7507V43.1674C6.59969 43.6732 7.01678 44.0841 7.53303 44.0841H9.75638L6.69804 50.0912C6.55345 50.3752 6.56846 50.7128 6.73929 50.9833C6.90971 51.2526 7.20928 51.4175 7.53304 51.4175H10.333V54.1675H2.86637V21.6356L28.9997 3.04863L41.5181 11.9522C41.8019 12.1539 42.1781 12.1822 42.4906 12.0263C42.8023 11.8691 42.9994 11.5544 42.9994 11.2098V4.66669H48.5993V16.5195C48.5993 16.8138 48.7423 17.0896 48.9848 17.2619L55.1327 21.6349L55.1329 54.1675Z" fill="url(#paint0_linear_1438_22561)" stroke="url(#paint1_linear_1438_22561)" stroke-width="0.5"/>
<defs>
<linearGradient id="paint0_linear_1438_22561" x1="29" y1="1" x2="29" y2="56" gradientUnits="userSpaceOnUse">
<stop stop-color="#63388B"/>
<stop offset="1" stop-color="#327EB2"/>
</linearGradient>
<linearGradient id="paint1_linear_1438_22561" x1="29" y1="1" x2="29" y2="56" gradientUnits="userSpaceOnUse">
<stop stop-color="#63388B"/>
<stop offset="1" stop-color="#327EB2"/>
</linearGradient>
</defs>
</svg>
