<svg width="55" height="57" viewBox="0 0 55 57" fill="none" xmlns="http://www.w3.org/2000/svg">
<path d="M7.37457 22.6791C7.04674 22.9643 6.54891 22.9405 6.2575 22.6315C5.96609 22.3226 5.99038 21.8354 6.30607 21.5383L15.7769 13.1133C16.1047 12.8162 16.6268 12.8519 16.9182 13.2084L20.063 16.797L30.2137 8.5146C30.5052 8.27694 30.9301 8.27694 31.2215 8.5146L33.4557 10.2495L41.1537 5.17549L39.9031 3.83272C39.5024 3.40493 39.721 2.71572 40.2795 2.57313L46.1077 1.02834C46.7148 0.861982 47.2976 1.45613 47.0305 2.07404L44.8692 7.51644C44.6506 8.06305 43.9221 8.18188 43.5214 7.70656L42.2222 6.32814L33.8564 11.8418C33.5771 12.0201 33.2007 12.0201 32.9336 11.8062L30.7359 10.1069L20.5244 18.4487C20.1601 18.7577 19.6745 18.7102 19.383 18.3893L16.2383 14.8126L7.37457 22.6791ZM45.0149 2.90585L41.9308 3.72577L43.8493 5.80529L45.0149 2.90585ZM12.2192 38.3646C12.2192 37.9368 12.5714 37.5922 13.0085 37.5922C13.4456 37.5922 13.7977 37.9368 13.7977 38.3646V39.0538C15.4005 39.2677 17.0882 40.2777 17.0882 41.8938C17.0882 42.3216 16.7361 42.6662 16.299 42.6662C15.8619 42.6662 15.5097 42.3216 15.5097 41.8938C15.5097 41.2046 14.5019 40.7531 13.7977 40.6223V43.3673C15.534 43.6644 17.0882 44.1278 17.0882 46.1479C17.0882 47.764 15.4005 48.774 13.7977 48.9879V49.6771C13.7977 50.1049 13.4456 50.4495 13.0085 50.4495C12.5714 50.4495 12.2192 50.1049 12.2192 49.6771V48.9879C10.6165 48.7622 8.92875 47.764 8.92875 46.1479C8.92875 45.7201 9.28087 45.3755 9.71798 45.3755C10.1551 45.3755 10.5072 45.7201 10.5072 46.1479C10.5072 46.8371 11.515 47.2887 12.2192 47.4313V44.6863C10.4829 44.4011 8.92875 43.9258 8.92875 41.9057C8.92875 40.2896 10.6165 39.2796 12.2192 39.0657V38.3646ZM13.7977 44.9359V47.4194C14.5019 47.2887 15.5097 46.8252 15.5097 46.136C15.5219 45.4112 14.7448 45.1141 13.7977 44.9359ZM12.2192 43.1059V40.6223C11.515 40.7531 10.5072 41.2046 10.5072 41.8938C10.5072 42.6306 11.2722 42.9157 12.2192 43.1059ZM9.29301 29.595H16.7482C17.2096 28.5374 17.671 27.0877 17.671 26.0657C17.671 24.6517 14.5141 24.4259 13.7734 26.2558C13.5306 26.85 12.6928 26.9213 12.3649 26.3628C11.1143 24.2357 8.37022 25.1745 8.37022 26.0657C8.37022 27.0877 8.83162 28.5374 9.29301 29.595ZM18.351 29.7851C20.0751 30.4981 20.5244 32.7202 19.1402 34.0035C22.6493 37.0575 25.017 42.4048 25.017 46.9084C25.017 48.2393 24.8105 49.392 24.4341 50.3901H27.0204V41.264C27.0204 40.8362 27.3725 40.4916 27.8096 40.4916H32.6422C33.0793 40.4916 33.4314 40.8362 33.4314 41.264V50.402H35.5927V35.5602C35.5927 35.1324 35.9448 34.7878 36.3819 34.7878H41.2144C41.6515 34.7878 42.0037 35.1324 42.0037 35.5602V50.3901H44.1649V22.5246C44.1649 22.0968 44.5171 21.7522 44.9542 21.7522H49.7867C50.2238 21.7522 50.5759 22.0968 50.5759 22.5246V50.3901H53.2108C53.6479 50.3901 54 50.7347 54 51.1625V55.2265C54 55.6662 53.6357 56.0226 53.1379 55.9989H13.5549C13.3727 55.9989 13.2027 55.9989 13.0206 55.9989C6.63391 55.9989 1 53.8956 1 46.9084C1 42.4048 3.37984 37.0575 6.87675 34.0035C5.49255 32.7202 5.94181 30.4981 7.66598 29.7851C7.19244 28.6206 6.77961 27.159 6.77961 26.0538C6.77961 23.7604 10.6772 22.4414 12.9599 24.6279C14.9512 22.4652 19.2373 23.2495 19.2373 26.0538C19.2373 27.1708 18.8245 28.6324 18.351 29.7851ZM17.5375 34.6927C17.4767 34.7046 17.416 34.7046 17.3553 34.7046L8.49164 34.6927C6.82818 35.9642 5.39542 37.8298 4.36334 39.9094C3.23413 42.179 2.57847 44.6744 2.57847 46.9084C2.57847 52.9212 7.48385 54.466 13.0085 54.466C18.5331 54.466 23.4385 52.9331 23.4385 46.9084C23.4506 42.6424 21.0222 37.3664 17.5375 34.6927ZM17.3553 31.1397H8.67377C7.77526 31.1397 7.28958 32.2211 7.94525 32.8628C8.13952 33.0529 8.3945 33.1598 8.67377 33.1598H17.3553C18.2538 33.1598 18.7395 32.0785 18.0838 31.4368C17.8896 31.2586 17.6346 31.1397 17.3553 31.1397ZM23.6449 51.9349C22.9164 53.0163 21.9207 53.8481 20.7551 54.4541H52.4215V51.923H23.6449V51.9349ZM31.4401 18.8884C34.9856 18.8884 37.8632 21.7047 37.8632 25.1745C37.8632 28.6443 34.9856 31.4606 31.4401 31.4606C27.8946 31.4606 25.017 28.6443 25.017 25.1745C25.0291 21.6928 27.8946 18.8884 31.4401 18.8884ZM34.8641 21.8116C32.97 19.9579 29.9102 19.9579 28.016 21.8116C26.1219 23.6654 26.1219 26.6599 28.016 28.5136C29.9102 30.3674 32.97 30.3674 34.8641 28.5136C36.7583 26.6718 36.7583 23.6654 34.8641 21.8116ZM27.069 16.8564C27.5425 16.6188 28.0282 16.4168 28.5381 16.2623L28.9145 14.8601C29.0117 14.5155 29.3274 14.2897 29.6795 14.2897H33.225C33.6135 14.2897 33.9292 14.563 34.0021 14.9195L34.3663 16.2623L35.107 16.5356C35.3498 16.6425 35.5927 16.7495 35.8234 16.8683L37.0983 16.1435C37.414 15.9652 37.8025 16.0246 38.0454 16.2623L40.5588 18.7102C40.8259 18.9716 40.8623 19.3875 40.6559 19.6846L39.9395 20.8848C40.1824 21.3482 40.3888 21.8235 40.5466 22.3226L41.9672 22.691C42.3194 22.786 42.5501 23.095 42.5501 23.4396V26.9094C42.5501 27.2897 42.2708 27.5986 41.9065 27.6699L40.5345 28.0264C40.3766 28.5255 40.1702 29.0008 39.9274 29.4642L40.668 30.712C40.8502 31.0209 40.7895 31.4012 40.5466 31.6388L38.0332 34.0867C37.7661 34.3481 37.3411 34.3838 37.0376 34.1818L35.8112 33.4807C35.3377 33.7183 34.852 33.9204 34.342 34.0748L33.9656 35.4651C33.8685 35.8097 33.5528 36.0355 33.2007 36.0355H29.6552C29.2667 36.0355 28.951 35.7622 28.8781 35.4057L28.5139 34.063L27.7611 33.7896C27.5182 33.6946 27.2754 33.5876 27.0325 33.4688L25.7576 34.1937C25.4419 34.3719 25.0534 34.3125 24.7984 34.0748L22.3336 31.6388C22.0664 31.3774 22.03 30.9615 22.2364 30.6644L22.9528 29.4642C22.8314 29.2385 22.7221 29.0008 22.625 28.7632C22.5278 28.5255 22.4307 28.276 22.3578 28.0264L20.9251 27.658C20.573 27.563 20.3423 27.254 20.3423 26.9094V23.4396C20.3423 23.0593 20.6215 22.7504 20.9858 22.6791L22.3578 22.3226C22.5157 21.8354 22.7221 21.3482 22.9649 20.8848L22.2243 19.637C22.0422 19.3281 22.1029 18.9478 22.3457 18.6983L24.847 16.2504C25.1141 15.989 25.5391 15.9533 25.8426 16.1553L27.069 16.8564ZM28.3924 17.9497C28.0767 18.0804 27.7611 18.2349 27.4575 18.4012C27.2147 18.5438 26.9111 18.5438 26.6561 18.4012L25.5148 17.7595L23.8635 19.3756L24.5191 20.4807C24.6648 20.7184 24.677 21.0155 24.5313 21.265C24.1913 21.8473 23.8999 22.5008 23.7299 23.1425C23.657 23.4039 23.4506 23.6297 23.1714 23.701L21.9086 24.0337V26.3153L23.1592 26.6361C23.4263 26.6955 23.657 26.9094 23.7299 27.1827C23.8149 27.5154 23.9363 27.8363 24.0699 28.1571L24.5313 29.0721C24.677 29.3098 24.677 29.6068 24.5313 29.8564L23.8756 30.9734L25.5269 32.5895L26.6561 31.9478C26.899 31.8052 27.2025 31.7933 27.4575 31.9478C27.7611 32.1141 28.0767 32.2686 28.3924 32.3993C28.7081 32.53 29.036 32.637 29.3759 32.7202C29.6431 32.7796 29.8738 32.9935 29.9466 33.2668L30.2866 34.5145H32.6179L32.9457 33.2787C33.0186 33.0173 33.225 32.7915 33.5042 32.7202C34.1599 32.5538 34.852 32.2805 35.4227 31.9478C35.6655 31.8052 35.9691 31.7933 36.2241 31.9478L37.3654 32.5895L39.0167 30.9734L38.3611 29.8683C38.2154 29.6306 38.2032 29.3335 38.3489 29.084C38.6889 28.5136 38.9803 27.8363 39.1503 27.2065C39.2231 26.9451 39.4296 26.7193 39.7088 26.648L40.9837 26.3271V24.0456L39.721 23.7248C39.4538 23.6654 39.2231 23.4515 39.1503 23.1782C38.9803 22.5484 38.6889 21.8592 38.3611 21.3007C38.2154 21.0749 38.2032 20.7659 38.3489 20.5283L39.0046 19.4113L37.3533 17.7952L36.2241 18.4369C35.9812 18.5795 35.6777 18.5913 35.4227 18.4487C35.1191 18.2824 34.8034 18.1279 34.4756 17.9972C34.1599 17.8665 33.8321 17.7595 33.4921 17.6764C33.225 17.6051 32.9943 17.403 32.9214 17.1297L32.5814 15.8939H30.2502L29.9223 17.1179C29.8495 17.3793 29.6431 17.6051 29.3638 17.6764L28.3924 17.9497ZM31.8651 42.0245H28.611V50.3901H31.8651V42.0245ZM48.9975 23.297H45.7434V50.3901H48.9975V23.297ZM40.4373 36.3326H37.1833V50.3901H40.4373V36.3326Z" fill="url(#paint0_linear_1438_22543)" stroke="url(#paint1_linear_1438_22543)" stroke-width="0.5"/>
<defs>
<linearGradient id="paint0_linear_1438_22543" x1="27.5" y1="1" x2="27.5" y2="56" gradientUnits="userSpaceOnUse">
<stop stop-color="#63388B"/>
<stop offset="1" stop-color="#327EB2"/>
</linearGradient>
<linearGradient id="paint1_linear_1438_22543" x1="27.5" y1="1" x2="27.5" y2="56" gradientUnits="userSpaceOnUse">
<stop stop-color="#63388B"/>
<stop offset="1" stop-color="#327EB2"/>
</linearGradient>
</defs>
</svg>
