<svg width="70" height="50" viewBox="0 0 70 50" fill="none" xmlns="http://www.w3.org/2000/svg">
<path d="M40.5128 20.9968H29.8619C27.5123 20.9968 25.6016 22.9076 25.6016 25.2572V45.4939C25.6016 47.8435 27.5123 49.7542 29.8619 49.7542H40.5128C42.8624 49.7542 44.7732 47.8435 44.7732 45.4939V25.2572C44.7732 22.9076 42.8624 20.9968 40.5128 20.9968ZM42.643 45.4939C42.643 46.6687 41.6876 47.624 40.5128 47.624H29.8619C28.6871 47.624 27.7317 46.6687 27.7317 45.4939V44.4288H40.5128C41.1018 44.4288 41.5779 43.9516 41.5779 43.3637C41.5779 42.7758 41.1018 42.2986 40.5128 42.2986H27.7317V25.2572C27.7317 24.0824 28.6871 23.127 29.8619 23.127H40.5128C41.6876 23.127 42.643 24.0824 42.643 25.2572V45.4939Z" fill="url(#paint0_linear_1438_22545)" stroke="url(#paint1_linear_1438_22545)" stroke-width="0.5"/>
<path d="M17.082 26.3224H14.9518C14.3628 26.3224 13.8867 26.7995 13.8867 27.3875C13.8867 27.9754 14.3628 28.4526 14.9518 28.4526H17.082C17.671 28.4526 18.1471 27.9754 18.1471 27.3875C18.1471 26.7995 17.671 26.3224 17.082 26.3224Z" fill="url(#paint2_linear_1438_22545)" stroke="url(#paint3_linear_1438_22545)" stroke-width="0.5"/>
<path d="M17.082 30.5828H14.9518C14.3628 30.5828 13.8867 31.0599 13.8867 31.6479C13.8867 32.2358 14.3628 32.7129 14.9518 32.7129H17.082C17.671 32.7129 18.1471 32.2358 18.1471 31.6479C18.1471 31.0599 17.671 30.5828 17.082 30.5828Z" fill="url(#paint4_linear_1438_22545)" stroke="url(#paint5_linear_1438_22545)" stroke-width="0.5"/>
<path d="M17.082 34.8431H14.9518C14.3628 34.8431 13.8867 35.3202 13.8867 35.9082C13.8867 36.4961 14.3628 36.9733 14.9518 36.9733H17.082C17.671 36.9733 18.1471 36.4961 18.1471 35.9082C18.1471 35.3202 17.671 34.8431 17.082 34.8431Z" fill="url(#paint6_linear_1438_22545)" stroke="url(#paint7_linear_1438_22545)" stroke-width="0.5"/>
<path d="M53.2956 28.4524H55.4257C56.0147 28.4524 56.4908 27.9753 56.4908 27.3874C56.4908 26.7994 56.0147 26.3223 55.4257 26.3223H53.2956C52.7066 26.3223 52.2305 26.7994 52.2305 27.3874C52.2305 27.9753 52.7066 28.4524 53.2956 28.4524Z" fill="url(#paint8_linear_1438_22545)" stroke="url(#paint9_linear_1438_22545)" stroke-width="0.5"/>
<path d="M53.2956 32.7129H55.4257C56.0147 32.7129 56.4908 32.2358 56.4908 31.6479C56.4908 31.0599 56.0147 30.5828 55.4257 30.5828H53.2956C52.7066 30.5828 52.2305 31.0599 52.2305 31.6479C52.2305 32.2358 52.7066 32.7129 53.2956 32.7129Z" fill="url(#paint10_linear_1438_22545)" stroke="url(#paint11_linear_1438_22545)" stroke-width="0.5"/>
<path d="M53.2956 36.9732H55.4257C56.0147 36.9732 56.4908 36.496 56.4908 35.9081C56.4908 35.3202 56.0147 34.843 55.4257 34.843H53.2956C52.7066 34.843 52.2305 35.3202 52.2305 35.9081C52.2305 36.496 52.7066 36.9732 53.2956 36.9732Z" fill="url(#paint12_linear_1438_22545)" stroke="url(#paint13_linear_1438_22545)" stroke-width="0.5"/>
<path d="M64.9096 1.37222C64.6817 0.888673 64.13 0.651158 63.6241 0.809856C63.4909 0.85246 50.1294 5.02122 35.1883 5.02122C20.2472 5.02122 6.88571 0.851394 6.75257 0.808791C6.24772 0.651158 5.69494 0.887608 5.46701 1.37116C5.28914 1.74927 1.10547 10.777 1.10547 22.0605C1.10547 33.3441 5.28914 42.3717 5.46701 42.7499C5.69387 43.2323 6.24239 43.4731 6.7515 43.3122C6.82287 43.2899 13.9824 41.051 23.6033 39.8528C24.1881 39.7804 24.6024 39.2478 24.5289 38.6642C24.4575 38.0805 23.9143 37.6662 23.3413 37.7386C18.7412 38.3106 14.745 39.1019 11.7564 39.7921V24.1886H20.2771V35.9045C20.2771 36.4925 20.7532 36.9696 21.3422 36.9696C21.9311 36.9696 22.4072 36.4925 22.4072 35.9045V23.1235C22.4072 22.5355 21.9311 22.0584 21.3422 22.0584H13.8865V18.8631H18.1469V19.9282C18.1469 20.5161 18.623 20.9933 19.212 20.9933C19.801 20.9933 20.2771 20.5161 20.2771 19.9282V17.798C20.2771 17.2101 19.801 16.7329 19.212 16.7329H17.0818V12.4726C17.0818 11.8846 16.6057 11.4075 16.0167 11.4075C15.4277 11.4075 14.9516 11.8846 14.9516 12.4726V16.7329H12.8214C12.2325 16.7329 11.7564 17.2101 11.7564 17.798V22.0584H10.6913C10.1023 22.0584 9.62618 22.5355 9.62618 23.1235V40.3065C8.51636 40.5877 7.63446 40.8306 7.03375 41.0042C6.02298 38.5396 3.23565 30.937 3.23565 22.0584C3.23565 13.1798 6.02511 5.57187 7.03482 3.11045C10.3611 4.05944 22.1878 7.14713 35.1883 7.14713C48.1888 7.14713 60.0155 4.05944 63.3418 3.11045C64.3515 5.57187 67.141 13.1766 67.141 22.0584C67.141 30.9402 64.3536 38.5385 63.3429 41.0042C62.7432 40.8316 61.8603 40.5877 60.7504 40.3065V23.1267C60.7504 22.5387 60.2743 22.0616 59.6853 22.0616H58.6203V17.8012C58.6203 17.2133 58.1442 16.7361 57.5552 16.7361H55.425V12.4758C55.425 11.8878 54.9489 11.4107 54.3599 11.4107C53.7709 11.4107 53.2948 11.8878 53.2948 12.4758V16.7361H51.1646C50.5756 16.7361 50.0996 17.2133 50.0996 17.8012V19.9314C50.0996 20.5193 50.5756 20.9965 51.1646 20.9965C51.7536 20.9965 52.2297 20.5193 52.2297 19.9314V18.8663H56.4901V22.0616H49.0345C48.4455 22.0616 47.9694 22.5387 47.9694 23.1267V35.9077C47.9694 36.4957 48.4455 36.9728 49.0345 36.9728C49.6235 36.9728 50.0996 36.4957 50.0996 35.9077V24.1917H58.6203V39.7953C55.6316 39.1051 51.6354 38.3138 47.0353 37.7418C46.4644 37.6694 45.9191 38.0837 45.8477 38.6674C45.7753 39.251 46.1885 39.7836 46.7733 39.856C56.3942 41.0542 63.5538 43.2931 63.6251 43.3154C63.7316 43.3484 63.8392 43.3644 63.9457 43.3644C64.3494 43.3644 64.7296 43.1344 64.9096 42.752C65.0875 42.3739 69.2711 33.3462 69.2711 22.0626C69.2711 10.7791 65.0875 1.7514 64.9096 1.37329V1.37222Z" fill="url(#paint14_linear_1438_22545)" stroke="url(#paint15_linear_1438_22545)" stroke-width="0.5"/>
<path d="M47.9691 15.452C47.7976 15.452 47.624 15.4105 47.461 15.3232C44.0826 13.488 39.7242 12.4773 35.1891 12.4773C30.6539 12.4773 26.2945 13.488 22.9171 15.3232C22.4027 15.6033 21.753 15.4126 21.4729 14.8961C21.1927 14.3795 21.3834 13.7319 21.9 13.4518C25.5852 11.4505 30.3046 10.3481 35.1901 10.3481C40.0757 10.3481 44.7951 11.4505 48.4803 13.4518C48.9969 13.733 49.1886 14.3795 48.9074 14.8961C48.7136 15.2507 48.3472 15.452 47.9691 15.452Z" fill="url(#paint16_linear_1438_22545)" stroke="url(#paint17_linear_1438_22545)" stroke-width="0.5"/>
<path d="M30.9284 29.5177C30.3394 29.5177 29.8633 29.0405 29.8633 28.4526V26.3224C29.8633 25.7345 30.3394 25.2573 30.9284 25.2573H33.0585C33.6475 25.2573 34.1236 25.7345 34.1236 26.3224C34.1236 26.9103 33.6475 27.3875 33.0585 27.3875H31.9935V28.4526C31.9935 29.0405 31.5174 29.5177 30.9284 29.5177Z" fill="url(#paint18_linear_1438_22545)" stroke="url(#paint19_linear_1438_22545)" stroke-width="0.5"/>
<path d="M39.4492 29.5177C38.8602 29.5177 38.3841 29.0405 38.3841 28.4526V27.3875H37.319C36.73 27.3875 36.2539 26.9103 36.2539 26.3224C36.2539 25.7345 36.73 25.2573 37.319 25.2573H39.4492C40.0382 25.2573 40.5143 25.7345 40.5143 26.3224V28.4526C40.5143 29.0405 40.0382 29.5177 39.4492 29.5177Z" fill="url(#paint20_linear_1438_22545)" stroke="url(#paint21_linear_1438_22545)" stroke-width="0.5"/>
<path d="M39.4492 40.1686H37.319C36.73 40.1686 36.2539 39.6914 36.2539 39.1035C36.2539 38.5155 36.73 38.0384 37.319 38.0384H38.3841V36.9733C38.3841 36.3854 38.8602 35.9082 39.4492 35.9082C40.0382 35.9082 40.5143 36.3854 40.5143 36.9733V39.1035C40.5143 39.6914 40.0382 40.1686 39.4492 40.1686Z" fill="url(#paint22_linear_1438_22545)" stroke="url(#paint23_linear_1438_22545)" stroke-width="0.5"/>
<path d="M33.0585 40.1686H30.9284C30.3394 40.1686 29.8633 39.6914 29.8633 39.1035V36.9733C29.8633 36.3854 30.3394 35.9082 30.9284 35.9082C31.5174 35.9082 31.9935 36.3854 31.9935 36.9733V38.0384H33.0585C33.6475 38.0384 34.1236 38.5155 34.1236 39.1035C34.1236 39.6914 33.6475 40.1686 33.0585 40.1686Z" fill="url(#paint24_linear_1438_22545)" stroke="url(#paint25_linear_1438_22545)" stroke-width="0.5"/>
<defs>
<linearGradient id="paint0_linear_1438_22545" x1="35.1874" y1="20.9968" x2="35.1874" y2="49.7542" gradientUnits="userSpaceOnUse">
<stop stop-color="#63388B"/>
<stop offset="1" stop-color="#327EB2"/>
</linearGradient>
<linearGradient id="paint1_linear_1438_22545" x1="35.1874" y1="20.9968" x2="35.1874" y2="49.7542" gradientUnits="userSpaceOnUse">
<stop stop-color="#63388B"/>
<stop offset="1" stop-color="#327EB2"/>
</linearGradient>
<linearGradient id="paint2_linear_1438_22545" x1="16.0169" y1="26.3224" x2="16.0169" y2="28.4526" gradientUnits="userSpaceOnUse">
<stop stop-color="#63388B"/>
<stop offset="1" stop-color="#327EB2"/>
</linearGradient>
<linearGradient id="paint3_linear_1438_22545" x1="16.0169" y1="26.3224" x2="16.0169" y2="28.4526" gradientUnits="userSpaceOnUse">
<stop stop-color="#63388B"/>
<stop offset="1" stop-color="#327EB2"/>
</linearGradient>
<linearGradient id="paint4_linear_1438_22545" x1="16.0169" y1="30.5828" x2="16.0169" y2="32.7129" gradientUnits="userSpaceOnUse">
<stop stop-color="#63388B"/>
<stop offset="1" stop-color="#327EB2"/>
</linearGradient>
<linearGradient id="paint5_linear_1438_22545" x1="16.0169" y1="30.5828" x2="16.0169" y2="32.7129" gradientUnits="userSpaceOnUse">
<stop stop-color="#63388B"/>
<stop offset="1" stop-color="#327EB2"/>
</linearGradient>
<linearGradient id="paint6_linear_1438_22545" x1="16.0169" y1="34.8431" x2="16.0169" y2="36.9733" gradientUnits="userSpaceOnUse">
<stop stop-color="#63388B"/>
<stop offset="1" stop-color="#327EB2"/>
</linearGradient>
<linearGradient id="paint7_linear_1438_22545" x1="16.0169" y1="34.8431" x2="16.0169" y2="36.9733" gradientUnits="userSpaceOnUse">
<stop stop-color="#63388B"/>
<stop offset="1" stop-color="#327EB2"/>
</linearGradient>
<linearGradient id="paint8_linear_1438_22545" x1="54.3606" y1="26.3223" x2="54.3606" y2="28.4524" gradientUnits="userSpaceOnUse">
<stop stop-color="#63388B"/>
<stop offset="1" stop-color="#327EB2"/>
</linearGradient>
<linearGradient id="paint9_linear_1438_22545" x1="54.3606" y1="26.3223" x2="54.3606" y2="28.4524" gradientUnits="userSpaceOnUse">
<stop stop-color="#63388B"/>
<stop offset="1" stop-color="#327EB2"/>
</linearGradient>
<linearGradient id="paint10_linear_1438_22545" x1="54.3606" y1="30.5828" x2="54.3606" y2="32.7129" gradientUnits="userSpaceOnUse">
<stop stop-color="#63388B"/>
<stop offset="1" stop-color="#327EB2"/>
</linearGradient>
<linearGradient id="paint11_linear_1438_22545" x1="54.3606" y1="30.5828" x2="54.3606" y2="32.7129" gradientUnits="userSpaceOnUse">
<stop stop-color="#63388B"/>
<stop offset="1" stop-color="#327EB2"/>
</linearGradient>
<linearGradient id="paint12_linear_1438_22545" x1="54.3606" y1="34.843" x2="54.3606" y2="36.9732" gradientUnits="userSpaceOnUse">
<stop stop-color="#63388B"/>
<stop offset="1" stop-color="#327EB2"/>
</linearGradient>
<linearGradient id="paint13_linear_1438_22545" x1="54.3606" y1="34.843" x2="54.3606" y2="36.9732" gradientUnits="userSpaceOnUse">
<stop stop-color="#63388B"/>
<stop offset="1" stop-color="#327EB2"/>
</linearGradient>
<linearGradient id="paint14_linear_1438_22545" x1="35.1883" y1="0.760254" x2="35.1883" y2="43.3644" gradientUnits="userSpaceOnUse">
<stop stop-color="#63388B"/>
<stop offset="1" stop-color="#327EB2"/>
</linearGradient>
<linearGradient id="paint15_linear_1438_22545" x1="35.1883" y1="0.760254" x2="35.1883" y2="43.3644" gradientUnits="userSpaceOnUse">
<stop stop-color="#63388B"/>
<stop offset="1" stop-color="#327EB2"/>
</linearGradient>
<linearGradient id="paint16_linear_1438_22545" x1="35.1904" y1="10.3481" x2="35.1904" y2="15.4523" gradientUnits="userSpaceOnUse">
<stop stop-color="#63388B"/>
<stop offset="1" stop-color="#327EB2"/>
</linearGradient>
<linearGradient id="paint17_linear_1438_22545" x1="35.1904" y1="10.3481" x2="35.1904" y2="15.4523" gradientUnits="userSpaceOnUse">
<stop stop-color="#63388B"/>
<stop offset="1" stop-color="#327EB2"/>
</linearGradient>
<linearGradient id="paint18_linear_1438_22545" x1="31.9935" y1="25.2573" x2="31.9935" y2="29.5177" gradientUnits="userSpaceOnUse">
<stop stop-color="#63388B"/>
<stop offset="1" stop-color="#327EB2"/>
</linearGradient>
<linearGradient id="paint19_linear_1438_22545" x1="31.9935" y1="25.2573" x2="31.9935" y2="29.5177" gradientUnits="userSpaceOnUse">
<stop stop-color="#63388B"/>
<stop offset="1" stop-color="#327EB2"/>
</linearGradient>
<linearGradient id="paint20_linear_1438_22545" x1="38.3841" y1="25.2573" x2="38.3841" y2="29.5177" gradientUnits="userSpaceOnUse">
<stop stop-color="#63388B"/>
<stop offset="1" stop-color="#327EB2"/>
</linearGradient>
<linearGradient id="paint21_linear_1438_22545" x1="38.3841" y1="25.2573" x2="38.3841" y2="29.5177" gradientUnits="userSpaceOnUse">
<stop stop-color="#63388B"/>
<stop offset="1" stop-color="#327EB2"/>
</linearGradient>
<linearGradient id="paint22_linear_1438_22545" x1="38.3841" y1="35.9082" x2="38.3841" y2="40.1686" gradientUnits="userSpaceOnUse">
<stop stop-color="#63388B"/>
<stop offset="1" stop-color="#327EB2"/>
</linearGradient>
<linearGradient id="paint23_linear_1438_22545" x1="38.3841" y1="35.9082" x2="38.3841" y2="40.1686" gradientUnits="userSpaceOnUse">
<stop stop-color="#63388B"/>
<stop offset="1" stop-color="#327EB2"/>
</linearGradient>
<linearGradient id="paint24_linear_1438_22545" x1="31.9935" y1="35.9082" x2="31.9935" y2="40.1686" gradientUnits="userSpaceOnUse">
<stop stop-color="#63388B"/>
<stop offset="1" stop-color="#327EB2"/>
</linearGradient>
<linearGradient id="paint25_linear_1438_22545" x1="31.9935" y1="35.9082" x2="31.9935" y2="40.1686" gradientUnits="userSpaceOnUse">
<stop stop-color="#63388B"/>
<stop offset="1" stop-color="#327EB2"/>
</linearGradient>
</defs>
</svg>
